<svg width="137" height="61" viewBox="0 0 137 61" fill="none" xmlns="http://www.w3.org/2000/svg">
<path d="M78.4596 23.1822C76.1838 23.1822 73.9591 23.857 72.0668 25.1214C70.1746 26.3858 68.6997 28.1829 67.8288 30.2854C66.9579 32.388 66.73 34.7016 67.174 36.9337C67.618 39.1657 68.7139 41.216 70.3231 42.8252C71.9324 44.4345 73.9827 45.5304 76.2147 45.9744C78.4468 46.4184 80.7604 46.1905 82.863 45.3196C84.9655 44.4487 86.7626 42.9738 88.027 41.0816C89.2914 39.1893 89.9662 36.9646 89.9662 34.6888C89.9662 31.6371 88.7539 28.7103 86.596 26.5524C84.4381 24.3945 81.5113 23.1822 78.4596 23.1822ZM78.4596 40.6128C77.212 40.6132 75.9923 40.2436 74.9548 39.5507C73.9172 38.8579 73.1085 37.8729 72.6308 36.7204C72.1531 35.5679 72.0279 34.2996 72.2711 33.0759C72.5142 31.8522 73.1148 30.7281 73.9969 29.8458C74.8789 28.9635 76.0028 28.3626 77.2264 28.119C78.45 27.8755 79.7183 28.0003 80.871 28.4777C82.0237 28.955 83.0089 29.7635 83.7021 30.8008C84.3952 31.8381 84.7652 33.0577 84.7652 34.3053C84.7652 35.9778 84.1009 37.5819 82.9184 38.7647C81.736 39.9475 80.1321 40.6123 78.4596 40.6128ZM52.6617 23.303C50.3859 23.303 48.1612 23.9779 46.2689 25.2422C44.3767 26.5066 42.9018 28.3037 42.0309 30.4062C41.16 32.5088 40.9321 34.8224 41.3761 37.0545C41.8201 39.2865 42.916 41.3368 44.5253 42.9461C46.1345 44.5553 48.1848 45.6512 50.4168 46.0952C52.6489 46.5392 54.9625 46.3113 57.0651 45.4404C59.1676 44.5695 60.9647 43.0946 62.2291 41.2024C63.4935 39.3101 64.1683 37.0854 64.1683 34.8096C64.1683 31.7579 62.956 28.8311 60.7981 26.6732C58.6402 24.5153 55.7134 23.303 52.6617 23.303ZM52.6617 41.1249C51.4136 41.1252 50.1935 40.7555 49.1556 40.0623C48.1177 39.3692 47.3087 38.3838 46.8309 37.2308C46.3531 36.0778 46.228 34.809 46.4714 33.5849C46.7148 32.3608 47.3158 31.2364 48.1983 30.3539C49.0808 29.4714 50.2052 28.8705 51.4293 28.6271C52.6534 28.3837 53.9222 28.5088 55.0752 28.9866C56.2282 29.4644 57.2135 30.2733 57.9067 31.3112C58.5998 32.3491 58.9696 33.5693 58.9692 34.8173C58.9692 36.4902 58.3047 38.0945 57.1218 39.2774C55.9389 40.4603 54.3345 41.1249 52.6617 41.1249ZM26.8599 23.3394C24.6186 23.3357 22.4255 23.9899 20.5524 25.2208V13.9999H15.3418V34.8538C15.3418 37.1295 16.0166 39.3542 17.281 41.2465C18.5454 43.1388 20.3425 44.6136 22.445 45.4845C24.5476 46.3554 26.8612 46.5833 29.0933 46.1393C31.3253 45.6953 33.3756 44.5994 34.9849 42.9902C36.5941 41.3809 37.69 39.3307 38.134 37.0986C38.578 34.8665 38.3501 32.5529 37.4792 30.4503C36.6083 28.3478 35.1334 26.5507 33.2412 25.2863C31.3489 24.022 29.1242 23.3471 26.8484 23.3471L26.8599 23.3394ZM26.8599 41.1613C25.6123 41.1598 24.3931 40.7884 23.3565 40.0941C22.3199 39.3998 21.5124 38.4138 21.036 37.2606C20.5597 36.1075 20.436 34.839 20.6805 33.6155C20.9249 32.392 21.5266 31.2685 22.4095 30.387C23.2924 29.5054 24.4169 28.9054 25.6407 28.6628C26.8645 28.4202 28.1328 28.5459 29.2852 29.0239C30.4377 29.502 31.4225 30.311 32.1152 31.3487C32.8079 32.3863 33.1775 33.6061 33.1771 34.8538C33.1771 35.6829 33.0136 36.5039 32.696 37.2698C32.3785 38.0357 31.913 38.7314 31.3263 39.3173C30.7395 39.9031 30.0431 40.3675 29.2767 40.6839C28.5103 41.0003 27.6891 41.1626 26.8599 41.1613ZM115.845 34.8173V46.324H110.636V34.8173C110.636 33.1444 109.971 31.5401 108.789 30.3572C107.606 29.1743 106.001 28.5098 104.328 28.5098C102.656 28.5098 101.051 29.1743 99.8683 30.3572C98.6854 31.5401 98.0209 33.1444 98.0209 34.8173V46.324H92.8199V34.8173C92.8199 31.7638 94.0329 28.8353 96.192 26.6761C98.3512 24.517 101.28 23.304 104.333 23.304C107.387 23.304 110.315 24.517 112.474 26.6761C114.634 28.8353 115.847 31.7638 115.847 34.8173H115.845Z" fill="#1D1D1B"/>
<path d="M120.347 16.9628C120.749 17.1794 121.082 17.5051 121.306 17.9025C121.532 18.3282 121.65 18.8026 121.65 19.2842C121.65 19.7659 121.532 20.2403 121.306 20.666C121.082 21.065 120.75 21.3927 120.347 21.6115C119.909 21.8358 119.423 21.9528 118.93 21.9528C118.437 21.9528 117.952 21.8358 117.513 21.6115C117.11 21.3938 116.777 21.0658 116.554 20.666C116.329 20.2403 116.211 19.7659 116.211 19.2842C116.211 18.8026 116.329 18.3282 116.554 17.9025C116.778 17.5043 117.11 17.1783 117.513 16.9628C117.953 16.7421 118.438 16.6272 118.93 16.6272C119.422 16.6272 119.908 16.7421 120.347 16.9628ZM120.156 21.2643C120.496 21.0843 120.776 20.8074 120.959 20.4685C121.143 20.0988 121.239 19.6915 121.239 19.2785C121.239 18.8655 121.143 18.4582 120.959 18.0885C120.777 17.7509 120.499 17.4751 120.16 17.2965C119.783 17.1033 119.363 17.0077 118.94 17.0184C118.515 17.0082 118.094 17.1037 117.714 17.2965C117.374 17.4736 117.096 17.7498 116.917 18.0885C116.726 18.4566 116.63 18.8667 116.638 19.2814C116.629 19.6959 116.726 20.106 116.92 20.4723C117.103 20.8086 117.381 21.084 117.718 21.2643C118.098 21.4499 118.515 21.5463 118.937 21.5463C119.359 21.5463 119.776 21.4499 120.156 21.2643ZM120.09 19.1778C119.952 19.3504 119.76 19.4708 119.544 19.5192L120.311 20.8137H119.452L118.742 19.5709H118.595V20.8137H117.81V17.6436H119.099C119.416 17.6191 119.729 17.7188 119.974 17.9217C120.139 18.0825 120.241 18.2977 120.261 18.5278C120.281 18.7578 120.217 18.9873 120.081 19.174L120.09 19.1778ZM118.604 19.0742H119.034C119.325 19.0742 119.469 18.9573 119.469 18.7195C119.469 18.4816 119.325 18.357 119.034 18.357H118.604V19.0742Z" fill="#1D1D1B"/>
</svg>
