<svg width="24" height="25" viewBox="0 0 24 25" fill="none" xmlns="http://www.w3.org/2000/svg">
<path d="M6.52677 15.1095C6.52493 15.6305 6.31707 16.1296 5.94855 16.498C5.58004 16.8663 5.08079 17.0739 4.55977 17.0755C4.03858 17.0739 3.53918 16.8661 3.17064 16.4976C2.8021 16.1291 2.59436 15.6297 2.59277 15.1085C2.59277 14.0255 3.47677 13.1405 4.55977 13.1405H6.52777V15.1085L6.52677 15.1095ZM7.51877 15.1095C7.51877 14.0265 8.40277 13.1415 9.48577 13.1415C10.5688 13.1415 11.4538 14.0265 11.4538 15.1095V20.0365C11.4522 20.5578 11.2443 21.0574 10.8755 21.426C10.5068 21.7945 10.0071 22.0022 9.48577 22.0035C8.96458 22.0019 8.46518 21.7941 8.09664 21.4256C7.7281 21.0571 7.52036 20.5577 7.51877 20.0365V15.1095ZM9.48577 7.12248C8.96475 7.12063 8.46561 6.91277 8.09729 6.54426C7.72896 6.17574 7.52135 5.6765 7.51977 5.15548C7.51977 4.07248 8.40377 3.18848 9.48677 3.18848C10.5698 3.18848 11.4548 4.07248 11.4548 5.15548V7.12348H9.48577V7.12248ZM9.48577 8.11448C10.5688 8.11448 11.4538 8.99848 11.4538 10.0815C11.4525 10.603 11.2447 11.1028 10.8759 11.4716C10.5071 11.8404 10.0073 12.0482 9.48577 12.0495H4.55977C4.03841 12.0479 3.53886 11.84 3.17029 11.4713C2.80172 11.1025 2.59409 10.6028 2.59277 10.0815C2.59277 8.99848 3.47677 8.11448 4.55977 8.11448H9.48677H9.48577ZM17.4728 10.0815C17.4728 8.99848 18.3578 8.11448 19.4408 8.11448C20.5238 8.11448 21.4078 8.99848 21.4078 10.0815C21.4065 10.6028 21.1988 11.1025 20.8303 11.4713C20.4617 11.84 19.9621 12.0479 19.4408 12.0495H17.4728V10.0815ZM16.4808 10.0815C16.4795 10.6028 16.2718 11.1025 15.9033 11.4713C15.5347 11.84 15.0351 12.0479 14.5138 12.0495C13.9922 12.0482 13.4924 11.8404 13.1236 11.4716C12.7549 11.1028 12.5471 10.603 12.5458 10.0815V5.15548C12.5458 4.07248 13.4308 3.18848 14.5138 3.18848C15.5968 3.18848 16.4808 4.07248 16.4808 5.15548V10.0825V10.0815ZM14.5138 18.0685C15.5968 18.0685 16.4808 18.9535 16.4808 20.0365C16.4792 20.5577 16.2714 21.0571 15.9029 21.4256C15.5344 21.7941 15.035 22.0019 14.5138 22.0035C13.9924 22.0022 13.4928 21.7945 13.124 21.426C12.7552 21.0574 12.5474 20.5578 12.5458 20.0365V18.0685H14.5138ZM14.5138 17.0765C13.9924 17.0752 13.4928 16.8675 13.124 16.499C12.7552 16.1304 12.5474 15.6308 12.5458 15.1095C12.5458 14.0265 13.4308 13.1415 14.5138 13.1415H19.4408C20.5238 13.1415 21.4078 14.0265 21.4078 15.1095C21.4062 15.6307 21.1984 16.1301 20.8299 16.4986C20.4614 16.8671 19.962 17.0749 19.4408 17.0765H14.5138Z" fill="#121212"/>
</svg>
