<svg width="608" height="560" viewBox="0 0 608 560" fill="none" xmlns="http://www.w3.org/2000/svg">
<path d="M559.504 -31.5557L559.504 47.0839M559.504 591.557L559.504 311.247M559.504 245.505L559.504 97.2869" stroke="#97969C" stroke-dasharray="4 4"/>
<path d="M457.312 -31.1787L457.313 370.867M457.313 591.382L457.313 395.539" stroke="#97969C" stroke-dasharray="4 4"/>
<path d="M355.621 -31.3682L355.621 133.425M355.621 591.379L355.621 510.133M355.621 216.14L355.621 460.535" stroke="#97969C" stroke-dasharray="4 4"/>
<path d="M252.93 -31.1787L252.93 59.5647M252.93 591.375L252.93 83.8671" stroke="#97969C" stroke-dasharray="4 4"/>
<path d="M150.739 -31.3662L150.738 342.326M150.738 591.383L150.738 425.4" stroke="#97969C" stroke-dasharray="4 4"/>
<path d="M48.547 -31.5576L48.5469 152.27M48.5469 591.372L48.5469 288.354M48.5469 198.289L48.5469 271.121" stroke="#97969C" stroke-dasharray="4 4"/>
<path d="M0 487.054L330.227 487.054M608 487.054L379.607 487.054" stroke="#97969C" stroke-dasharray="4 4"/>
<path d="M0 383.261H112.263M608 383.261L469.346 383.261M190.468 383.261H444.674" stroke="#97969C" stroke-dasharray="4 4"/>
<path d="M0 175.675H25.6723M608 175.675L396.708 175.675M316 175.675L73.3582 175.675" stroke="#97969C" stroke-dasharray="4 4"/>
<path d="M0 279.468H39.4795M608 279.468H592.678M527.354 279.468L57.1204 279.468" stroke="#97969C" stroke-dasharray="4 4"/>
<path d="M0 71.8818L239.558 71.8818M608 71.8818H582.879M534.54 71.8818L265.522 71.8818" stroke="#97969C" stroke-dasharray="4 4"/>
<path d="M355.621 511.034L365.803 497.217L379.621 487.034L365.803 476.852L355.621 463.034L345.439 476.852L331.621 487.034L345.439 497.217L355.621 511.034Z" stroke="#97969C" stroke-dasharray="4 4"/>
<path d="M559.48 95.7998L569.663 81.9821L583.48 71.7998L569.663 61.6175L559.48 47.7998L549.298 61.6175L535.48 71.7998L549.298 81.9821L559.48 95.7998Z" stroke="#97969C" stroke-dasharray="4 4"/>
<path d="M48.6016 199.53L58.7839 185.713L72.6016 175.53L58.7839 165.348L48.6016 151.53L38.4192 165.348L24.6016 175.53L38.4192 185.713L48.6016 199.53Z" stroke="#97969C" stroke-dasharray="4 4"/>
<path d="M559.469 311.384L573.045 292.96L591.469 279.384L573.045 265.807L559.469 247.384L545.892 265.807L527.469 279.384L545.892 292.96L559.469 311.384Z" stroke="#97969C" stroke-dasharray="4 4"/>
<path d="M150.754 423.29L167.724 400.261L190.754 383.29L167.724 366.319L150.754 343.29L133.783 366.319L110.754 383.29L133.783 400.261L150.754 423.29Z" stroke="#97969C" stroke-dasharray="4 4"/>
<path d="M355.621 215.681L372.592 192.651L395.621 175.681L372.592 158.71L355.621 135.681L338.651 158.71L315.621 175.681L338.651 192.651L355.621 215.681Z" stroke="#97969C" stroke-dasharray="4 4"/>
<circle r="12" transform="matrix(1 0 0 -1 457.246 383.261)" stroke="#97969C" stroke-dasharray="4 4"/>
<circle r="8" transform="matrix(1 0 0 -1 48.5469 279.468)" stroke="#97969C" stroke-dasharray="4 4"/>
<circle r="12" transform="matrix(1 0 0 -1 252.598 71.8818)" stroke="#97969C" stroke-dasharray="4 4"/>
<rect x="-2" y="2" width="441.955" height="422.315" rx="6" transform="matrix(-1 0 0 1 543.328 73.4053)" fill="#121212"/>
<rect x="-2" y="2" width="441.955" height="422.315" rx="6" transform="matrix(-1 0 0 1 543.328 73.4053)" stroke="#121212" stroke-width="4"/>
<rect x="-2" y="2" width="441.12" height="419.085" rx="6" transform="matrix(-1 0 0 1 525.039 60.4863)" fill="#F5F6F8"/>
<rect x="-2" y="2" width="441.12" height="419.085" rx="6" transform="matrix(-1 0 0 1 525.039 60.4863)" stroke="#121212" stroke-width="4"/>
<rect x="96" y="73.4043" width="422" height="38" rx="4" fill="white"/>
<rect x="113" y="87.4043" width="10" height="10" rx="5" fill="#EB5757"/>
<rect x="131" y="87.4043" width="10" height="10" rx="5" fill="#F2C94C"/>
<rect x="149" y="87.4043" width="10" height="10" rx="5" fill="#27AE60"/>
<path d="M492.438 86.4043C492.438 85.852 491.99 85.4043 491.438 85.4043C490.885 85.4043 490.438 85.852 490.438 86.4043H492.438ZM490.438 98.4043C490.438 98.9566 490.885 99.4043 491.438 99.4043C491.99 99.4043 492.438 98.9566 492.438 98.4043H490.438ZM490.438 86.4043V98.4043H492.438V86.4043H490.438Z" fill="#E7EDF5"/>
<path d="M497.437 93.4043C497.99 93.4043 498.437 92.9566 498.438 92.4043C498.438 91.852 497.99 91.4043 497.438 91.4043L497.437 93.4043ZM485.438 91.4043C484.885 91.4043 484.438 91.852 484.438 92.4043C484.437 92.9566 484.885 93.4043 485.437 93.4043L485.438 91.4043ZM497.438 91.4043L485.438 91.4043L485.437 93.4043L497.437 93.4043L497.438 91.4043Z" fill="#E7EDF5"/>
<rect x="-1" y="1" width="419" height="345" rx="7" transform="matrix(-1 0 0 1 515 124.404)" fill="#F5F6F8"/>
<rect x="120.5" y="346.5" width="104.33" height="103" rx="7.5" fill="white"/>
<path d="M151.181 428.32C156.589 428.32 160.013 426.272 160.013 422.112C160.013 418.944 158.157 417.088 155.085 416.8V416.608C157.901 416.288 159.117 414.56 159.117 412.032C159.117 408.192 156.045 406.24 150.989 406.24C145.485 406.24 142.317 408.864 142.317 413.12V413.472H147.021V413.184C147.021 411.232 148.013 410.656 150.861 410.656C153.101 410.656 154.317 411.232 154.317 412.928C154.317 414.656 153.581 415.04 151.661 415.04H147.661V418.944H152.173C154.253 418.944 155.149 419.36 155.149 421.472C155.149 423.456 153.805 423.904 151.181 423.904C147.757 423.904 147.021 423.328 147.021 421.376V420.736H142.317V421.44C142.317 425.696 144.717 428.32 151.181 428.32ZM170.926 428.32C177.422 428.32 179.95 425.184 179.95 420.8C179.95 416.544 177.422 413.888 172.686 413.888C169.774 413.888 167.918 414.784 167.086 415.552H166.958L167.31 410.88H178.798V406.56H163.054L162.414 418.464L166.67 419.04C167.374 418.624 168.942 417.952 171.086 417.952C174.094 417.952 175.246 418.72 175.246 420.96C175.246 423.136 174.19 423.936 171.15 423.936C168.302 423.936 167.022 423.424 167.022 421.856V421.6H162.254V421.856C162.254 425.824 165.134 428.32 170.926 428.32ZM192.056 428.32C198.2 428.32 201.656 423.968 201.656 417.28C201.656 410.624 198.2 406.24 192.056 406.24C185.88 406.24 182.424 410.624 182.424 417.28C182.424 423.968 185.88 428.32 192.056 428.32ZM192.056 423.68C188.76 423.68 187.544 422.368 187.544 417.28C187.544 412.192 188.76 410.88 192.056 410.88C195.32 410.88 196.536 412.192 196.536 417.28C196.536 422.368 195.32 423.68 192.056 423.68Z" fill="black"/>
<g clip-path="url(#clip0_6587_41932)">
<path d="M155.476 368.134L151.768 366.762L150.384 362.224C150.331 362.049 150.168 361.929 149.986 361.929C149.803 361.929 149.641 362.049 149.587 362.224L148.203 366.762L144.495 368.134C144.331 368.195 144.223 368.35 144.223 368.525C144.223 368.699 144.331 368.855 144.495 368.916L148.201 370.288L149.586 374.964C149.638 375.141 149.801 375.262 149.986 375.262C150.17 375.262 150.333 375.141 150.385 374.964L151.77 370.287L155.477 368.915C155.64 368.855 155.748 368.7 155.748 368.525C155.748 368.351 155.64 368.195 155.476 368.134Z" fill="#FFAC33"/>
<path d="M147.143 372.719L146.179 372.362L145.804 370.987C145.755 370.805 145.59 370.679 145.402 370.679C145.215 370.679 145.05 370.805 145 370.987L144.625 372.362L143.662 372.718C143.498 372.779 143.39 372.935 143.39 373.109C143.39 373.283 143.498 373.439 143.662 373.5L144.62 373.855L144.998 375.364C145.045 375.549 145.211 375.679 145.402 375.679C145.594 375.679 145.76 375.549 145.807 375.364L146.185 373.855L147.143 373.499C147.307 373.439 147.415 373.283 147.415 373.109C147.415 372.935 147.307 372.779 147.143 372.719ZM145.336 363.692L144.351 363.328L143.986 362.342C143.925 362.179 143.77 362.07 143.595 362.07C143.421 362.07 143.265 362.179 143.204 362.342L142.84 363.328L141.854 363.692C141.69 363.753 141.582 363.909 141.582 364.083C141.582 364.257 141.69 364.414 141.854 364.474L142.84 364.839L143.204 365.824C143.265 365.988 143.421 366.096 143.595 366.096C143.769 366.096 143.925 365.988 143.986 365.824L144.35 364.839L145.336 364.474C145.5 364.413 145.608 364.257 145.608 364.083C145.608 363.909 145.5 363.753 145.336 363.692Z" fill="#FFCC4D"/>
</g>
<path d="M162.835 367.322C162.802 367.012 162.662 366.771 162.416 366.598C162.172 366.425 161.855 366.339 161.464 366.339C161.189 366.339 160.954 366.38 160.757 366.463C160.561 366.546 160.411 366.658 160.306 366.8C160.202 366.942 160.149 367.104 160.147 367.287C160.147 367.438 160.181 367.57 160.25 367.681C160.321 367.792 160.416 367.887 160.537 367.965C160.658 368.041 160.792 368.105 160.938 368.157C161.085 368.209 161.233 368.253 161.382 368.288L162.064 368.459C162.339 368.523 162.603 368.609 162.856 368.718C163.112 368.827 163.34 368.964 163.541 369.13C163.745 369.296 163.906 369.496 164.024 369.73C164.143 369.964 164.202 370.239 164.202 370.554C164.202 370.98 164.093 371.355 163.875 371.68C163.657 372.001 163.343 372.254 162.931 372.436C162.521 372.616 162.025 372.706 161.443 372.706C160.877 372.706 160.386 372.618 159.969 372.443C159.555 372.268 159.23 372.012 158.996 371.676C158.764 371.34 158.639 370.93 158.62 370.447H159.916C159.935 370.701 160.013 370.911 160.15 371.079C160.287 371.247 160.466 371.373 160.686 371.456C160.909 371.539 161.157 371.58 161.432 371.58C161.719 371.58 161.969 371.537 162.185 371.452C162.403 371.365 162.573 371.244 162.696 371.09C162.819 370.934 162.882 370.751 162.884 370.543C162.882 370.354 162.826 370.198 162.718 370.074C162.609 369.949 162.456 369.845 162.259 369.762C162.065 369.677 161.838 369.601 161.578 369.535L160.75 369.322C160.151 369.168 159.678 368.934 159.33 368.622C158.984 368.307 158.811 367.889 158.811 367.368C158.811 366.94 158.927 366.565 159.159 366.243C159.394 365.921 159.712 365.671 160.115 365.493C160.517 365.314 160.973 365.224 161.482 365.224C161.998 365.224 162.45 365.314 162.838 365.493C163.229 365.671 163.536 365.918 163.758 366.236C163.981 366.55 164.095 366.913 164.103 367.322H162.835ZM167.634 372.702C167.088 372.702 166.615 372.589 166.218 372.361C165.822 372.132 165.518 371.807 165.305 371.388C165.092 370.967 164.985 370.471 164.985 369.9C164.985 369.339 165.092 368.847 165.305 368.423C165.52 367.997 165.821 367.666 166.207 367.429C166.593 367.19 167.046 367.07 167.567 367.07C167.903 367.07 168.22 367.125 168.519 367.233C168.819 367.34 169.085 367.506 169.314 367.731C169.546 367.956 169.728 368.242 169.861 368.59C169.994 368.936 170.06 369.348 170.06 369.826V370.22H165.589V369.354H168.828C168.825 369.107 168.772 368.888 168.668 368.697C168.564 368.502 168.418 368.35 168.231 368.238C168.046 368.127 167.831 368.072 167.585 368.072C167.322 368.072 167.091 368.135 166.892 368.263C166.693 368.389 166.538 368.555 166.427 368.76C166.318 368.964 166.263 369.188 166.26 369.432V370.188C166.26 370.505 166.318 370.778 166.434 371.005C166.55 371.23 166.712 371.403 166.921 371.523C167.129 371.642 167.373 371.701 167.652 371.701C167.839 371.701 168.009 371.675 168.16 371.623C168.312 371.568 168.443 371.489 168.554 371.385C168.665 371.281 168.75 371.152 168.806 370.998L170.007 371.133C169.931 371.45 169.786 371.727 169.573 371.964C169.363 372.198 169.093 372.38 168.764 372.51C168.435 372.638 168.058 372.702 167.634 372.702ZM172.333 369.4V372.596H171.047V367.141H172.276V368.068H172.34C172.466 367.763 172.666 367.52 172.94 367.34C173.217 367.16 173.559 367.07 173.966 367.07C174.343 367.07 174.671 367.151 174.95 367.312C175.232 367.473 175.45 367.706 175.604 368.011C175.76 368.317 175.837 368.687 175.834 369.123V372.596H174.549V369.322C174.549 368.957 174.454 368.672 174.265 368.466C174.078 368.26 173.818 368.157 173.487 368.157C173.262 368.157 173.062 368.206 172.887 368.306C172.714 368.403 172.578 368.544 172.479 368.729C172.381 368.913 172.333 369.137 172.333 369.4ZM179.765 367.141V368.135H176.629V367.141H179.765ZM177.403 365.834H178.689V370.955C178.689 371.128 178.715 371.26 178.767 371.353C178.821 371.443 178.893 371.504 178.98 371.537C179.068 371.571 179.165 371.587 179.271 371.587C179.352 371.587 179.425 371.581 179.491 371.569C179.56 371.558 179.612 371.547 179.648 371.537L179.864 372.542C179.796 372.566 179.697 372.592 179.57 372.621C179.444 372.649 179.29 372.666 179.108 372.67C178.786 372.68 178.496 372.631 178.238 372.525C177.98 372.416 177.775 372.248 177.624 372.02C177.474 371.793 177.401 371.509 177.403 371.168V365.834Z" fill="#747486"/>
<rect x="120.5" y="346.5" width="104.33" height="103" rx="7.5" stroke="#DFE7F2"/>
<rect x="249.835" y="346.5" width="104.33" height="103" rx="7.5" fill="white"/>
<path d="M288.996 428V423.68H280.804L277.348 423.744C277.348 422.72 278.66 422.048 280.42 421.248L283.652 419.84C286.436 418.592 289.06 416.704 289.06 412.992C289.06 409.12 286.788 406.24 281.124 406.24C274.756 406.24 272.196 409.664 272.196 413.824V414.336H276.996V413.792C276.996 411.488 277.636 410.624 280.74 410.624C283.588 410.624 284.292 411.488 284.292 413.024C284.292 414.432 283.62 415.136 281.732 416.032L278.02 417.792C275.044 419.232 272.228 420.96 272.228 425.12V428H288.996ZM300.701 428.32C306.781 428.32 309.821 424.672 309.821 417.376C309.821 409.76 307.357 406.24 300.509 406.24C294.781 406.24 291.773 408.992 291.773 413.312C291.773 417.376 294.173 419.808 298.845 419.808C302.045 419.808 303.741 418.72 304.701 417.312H304.861V419.168C304.861 422.496 304.157 423.744 301.021 423.744C298.653 423.744 297.661 423.104 297.661 421.504V421.312H292.573V421.504C292.573 425.632 295.645 428.32 300.701 428.32ZM300.477 415.936C297.405 415.936 296.477 415.232 296.477 413.408C296.477 411.552 297.405 410.848 300.477 410.848C303.485 410.848 304.445 411.552 304.445 413.408C304.445 415.232 303.485 415.936 300.477 415.936ZM320.549 428.32C326.373 428.32 329.733 426.272 329.733 422.08C329.733 418.944 327.653 417.408 325.573 416.8V416.608C327.589 416.256 329.029 414.56 329.029 412.032C329.029 408.64 326.373 406.24 320.581 406.24C314.789 406.24 312.133 408.64 312.133 412.032C312.133 414.56 313.573 416.256 315.589 416.608V416.8C313.477 417.408 311.429 418.944 311.429 422.08C311.429 426.272 314.757 428.32 320.549 428.32ZM320.581 415.328C317.797 415.328 316.901 414.592 316.901 412.96C316.901 411.328 317.797 410.592 320.581 410.592C323.333 410.592 324.229 411.328 324.229 412.96C324.229 414.592 323.333 415.328 320.581 415.328ZM320.581 424C317.093 424 316.293 423.136 316.293 421.28C316.293 419.424 317.093 418.592 320.581 418.592C324.037 418.592 324.869 419.424 324.869 421.28C324.869 423.136 324.037 424 320.581 424Z" fill="black"/>
<g clip-path="url(#clip1_6587_41932)">
<path d="M279.331 374.846C279.331 375.766 275.998 375.766 275.998 374.846V370.679C275.998 369.759 276.744 369.013 277.665 369.013C278.585 369.013 279.331 369.759 279.331 370.679V374.846Z" fill="#C1694F"/>
<path d="M274.331 362.346C272.491 362.346 270.998 363.838 270.998 365.679V370.679H277.665V365.679C277.665 363.838 276.172 362.346 274.331 362.346Z" fill="#292F33"/>
<path d="M278.498 368.913C278.498 369.428 278.055 369.846 277.543 369.846H271.12C270.608 369.846 270.165 369.428 270.165 368.913V364.529C270.165 364.014 270.608 363.596 271.12 363.596H277.543C278.055 363.596 278.498 364.014 278.498 364.529V368.913V368.913Z" fill="#CCD6DD"/>
<path d="M278.498 364.529C278.498 364.014 278.055 363.596 277.543 363.596H271.12C270.608 363.596 270.165 364.014 270.165 364.529V365.12L272.198 367.163L270.206 369.166C270.253 369.322 270.338 369.464 270.455 369.575L272.526 367.493L273.529 368.501C273.968 368.942 274.683 368.942 275.121 368.501L276.132 367.487L278.209 369.575C278.325 369.464 278.41 369.322 278.457 369.166L276.46 367.158L278.498 365.115V364.529Z" fill="#99AAB5"/>
<path d="M277.543 363.596H271.121C270.635 363.596 270.216 363.973 270.174 364.452L273.677 367.951C274.039 368.315 274.626 368.301 274.988 367.936L278.492 364.459C278.453 363.977 278.031 363.596 277.543 363.596Z" fill="#E1E8ED"/>
<path d="M280.999 362.346H274.332C276.173 362.346 277.665 363.838 277.665 365.679V370.679H284.332V365.679C284.332 363.838 282.84 362.346 280.999 362.346Z" fill="#99AAB5"/>
<path d="M280.998 361.513H279.331C278.871 361.513 278.498 361.886 278.498 362.346V367.346C278.498 367.806 278.871 368.179 279.331 368.179C279.791 368.179 280.165 367.806 280.165 367.346V364.013H280.998C281.458 364.013 281.831 363.639 281.831 363.179V362.346C281.831 361.886 281.458 361.513 280.998 361.513Z" fill="#DD2E44"/>
</g>
<path d="M290.347 372.596H287.882V365.323H290.397C291.119 365.323 291.739 365.469 292.257 365.76C292.778 366.049 293.178 366.464 293.458 367.006C293.737 367.548 293.877 368.197 293.877 368.952C293.877 369.71 293.736 370.361 293.454 370.905C293.175 371.45 292.771 371.868 292.243 372.159C291.718 372.45 291.085 372.596 290.347 372.596ZM289.2 371.456H290.283C290.79 371.456 291.212 371.363 291.551 371.179C291.889 370.992 292.144 370.714 292.314 370.344C292.485 369.973 292.57 369.509 292.57 368.952C292.57 368.396 292.485 367.934 292.314 367.567C292.144 367.198 291.892 366.922 291.558 366.74C291.226 366.555 290.814 366.463 290.322 366.463H289.2V371.456ZM297.386 372.702C296.84 372.702 296.367 372.589 295.97 372.361C295.574 372.132 295.27 371.807 295.057 371.388C294.844 370.967 294.737 370.471 294.737 369.9C294.737 369.339 294.844 368.847 295.057 368.423C295.272 367.997 295.573 367.666 295.959 367.429C296.345 367.19 296.798 367.07 297.319 367.07C297.655 367.07 297.972 367.125 298.271 367.233C298.571 367.34 298.836 367.506 299.066 367.731C299.298 367.956 299.48 368.242 299.613 368.59C299.746 368.936 299.812 369.348 299.812 369.826V370.22H295.341V369.354H298.58C298.577 369.107 298.524 368.888 298.42 368.697C298.316 368.502 298.17 368.35 297.983 368.238C297.798 368.127 297.583 368.072 297.337 368.072C297.074 368.072 296.843 368.135 296.644 368.263C296.445 368.389 296.29 368.555 296.179 368.76C296.07 368.964 296.014 369.188 296.012 369.432V370.188C296.012 370.505 296.07 370.778 296.186 371.005C296.302 371.23 296.464 371.403 296.673 371.523C296.881 371.642 297.125 371.701 297.404 371.701C297.591 371.701 297.76 371.675 297.912 371.623C298.064 371.568 298.195 371.489 298.306 371.385C298.417 371.281 298.501 371.152 298.558 370.998L299.759 371.133C299.683 371.45 299.538 371.727 299.325 371.964C299.115 372.198 298.845 372.38 298.516 372.51C298.187 372.638 297.81 372.702 297.386 372.702ZM302.085 365.323V372.596H300.799V365.323H302.085ZM303.307 372.596V367.141H304.592V372.596H303.307ZM303.953 366.367C303.75 366.367 303.574 366.3 303.428 366.165C303.281 366.027 303.207 365.863 303.207 365.671C303.207 365.477 303.281 365.312 303.428 365.177C303.574 365.04 303.75 364.971 303.953 364.971C304.159 364.971 304.334 365.04 304.479 365.177C304.625 365.312 304.699 365.477 304.699 365.671C304.699 365.863 304.625 366.027 304.479 366.165C304.334 366.3 304.159 366.367 303.953 366.367ZM310.686 367.141L308.744 372.596H307.323L305.381 367.141H306.752L308.005 371.193H308.062L309.319 367.141H310.686ZM313.705 372.702C313.158 372.702 312.686 372.589 312.288 372.361C311.893 372.132 311.589 371.807 311.376 371.388C311.163 370.967 311.056 370.471 311.056 369.9C311.056 369.339 311.163 368.847 311.376 368.423C311.591 367.997 311.892 367.666 312.278 367.429C312.664 367.19 313.117 367.07 313.638 367.07C313.974 367.07 314.291 367.125 314.589 367.233C314.89 367.34 315.155 367.506 315.385 367.731C315.617 367.956 315.799 368.242 315.932 368.59C316.064 368.936 316.131 369.348 316.131 369.826V370.22H311.66V369.354H314.898C314.896 369.107 314.843 368.888 314.739 368.697C314.634 368.502 314.489 368.35 314.302 368.238C314.117 368.127 313.902 368.072 313.655 368.072C313.393 368.072 313.162 368.135 312.963 368.263C312.764 368.389 312.609 368.555 312.498 368.76C312.389 368.964 312.333 369.188 312.331 369.432V370.188C312.331 370.505 312.389 370.778 312.505 371.005C312.621 371.23 312.783 371.403 312.991 371.523C313.2 371.642 313.444 371.701 313.723 371.701C313.91 371.701 314.079 371.675 314.231 371.623C314.382 371.568 314.514 371.489 314.625 371.385C314.736 371.281 314.82 371.152 314.877 370.998L316.077 371.133C316.002 371.45 315.857 371.727 315.644 371.964C315.433 372.198 315.164 372.38 314.834 372.51C314.505 372.638 314.129 372.702 313.705 372.702ZM317.118 372.596V367.141H318.365V368.05H318.421C318.521 367.735 318.691 367.493 318.933 367.322C319.177 367.149 319.455 367.063 319.767 367.063C319.838 367.063 319.918 367.067 320.005 367.074C320.095 367.078 320.17 367.087 320.229 367.099V368.281C320.174 368.262 320.088 368.246 319.97 368.231C319.854 368.215 319.741 368.206 319.632 368.206C319.398 368.206 319.187 368.257 319 368.359C318.816 368.459 318.67 368.597 318.563 368.775C318.457 368.952 318.404 369.157 318.404 369.389V372.596H317.118ZM323.173 372.702C322.626 372.702 322.154 372.589 321.756 372.361C321.361 372.132 321.057 371.807 320.844 371.388C320.631 370.967 320.524 370.471 320.524 369.9C320.524 369.339 320.631 368.847 320.844 368.423C321.059 367.997 321.36 367.666 321.746 367.429C322.131 367.19 322.585 367.07 323.106 367.07C323.442 367.07 323.759 367.125 324.057 367.233C324.358 367.34 324.623 367.506 324.853 367.731C325.085 367.956 325.267 368.242 325.4 368.59C325.532 368.936 325.599 369.348 325.599 369.826V370.22H321.128V369.354H324.366C324.364 369.107 324.311 368.888 324.207 368.697C324.102 368.502 323.957 368.35 323.77 368.238C323.585 368.127 323.37 368.072 323.123 368.072C322.861 368.072 322.63 368.135 322.431 368.263C322.232 368.389 322.077 368.555 321.966 368.76C321.857 368.964 321.801 369.188 321.799 369.432V370.188C321.799 370.505 321.857 370.778 321.973 371.005C322.089 371.23 322.251 371.403 322.459 371.523C322.668 371.642 322.912 371.701 323.191 371.701C323.378 371.701 323.547 371.675 323.699 371.623C323.85 371.568 323.982 371.489 324.093 371.385C324.204 371.281 324.288 371.152 324.345 370.998L325.545 371.133C325.47 371.45 325.325 371.727 325.112 371.964C324.901 372.198 324.631 372.38 324.302 372.51C323.973 372.638 323.597 372.702 323.173 372.702ZM328.61 372.692C328.182 372.692 327.798 372.581 327.46 372.361C327.121 372.141 326.854 371.822 326.657 371.403C326.461 370.983 326.362 370.474 326.362 369.876C326.362 369.269 326.462 368.758 326.661 368.341C326.862 367.922 327.133 367.606 327.474 367.393C327.815 367.178 328.195 367.07 328.614 367.07C328.933 367.07 329.196 367.125 329.402 367.233C329.608 367.34 329.771 367.469 329.892 367.621C330.013 367.77 330.106 367.911 330.173 368.043H330.226V365.323H331.515V372.596H330.251V371.736H330.173C330.106 371.869 330.011 372.01 329.885 372.159C329.76 372.306 329.594 372.431 329.388 372.535C329.182 372.64 328.923 372.692 328.61 372.692ZM328.969 371.637C329.241 371.637 329.473 371.564 329.665 371.417C329.857 371.268 330.002 371.06 330.102 370.795C330.201 370.53 330.251 370.221 330.251 369.868C330.251 369.516 330.201 369.209 330.102 368.949C330.005 368.688 329.86 368.486 329.668 368.341C329.479 368.197 329.246 368.125 328.969 368.125C328.682 368.125 328.443 368.199 328.252 368.349C328.06 368.498 327.915 368.704 327.818 368.966C327.721 369.229 327.673 369.53 327.673 369.868C327.673 370.209 327.721 370.514 327.818 370.781C327.918 371.046 328.063 371.256 328.255 371.41C328.449 371.561 328.687 371.637 328.969 371.637Z" fill="#747486"/>
<rect x="249.835" y="346.5" width="104.33" height="103" rx="7.5" stroke="#DFE7F2"/>
<rect x="379.17" y="346.5" width="104.33" height="103" rx="7.5" fill="white"/>
<path d="M418.661 428V423.68H410.469L407.013 423.744C407.013 422.72 408.325 422.048 410.085 421.248L413.317 419.84C416.101 418.592 418.725 416.704 418.725 412.992C418.725 409.12 416.453 406.24 410.789 406.24C404.421 406.24 401.861 409.664 401.861 413.824V414.336H406.661V413.792C406.661 411.488 407.301 410.624 410.405 410.624C413.253 410.624 413.957 411.488 413.957 413.024C413.957 414.432 413.285 415.136 411.397 416.032L407.685 417.792C404.709 419.232 401.893 420.96 401.893 425.12V428H418.661ZM430.366 428.32C436.446 428.32 439.486 424.672 439.486 417.376C439.486 409.76 437.022 406.24 430.174 406.24C424.446 406.24 421.438 408.992 421.438 413.312C421.438 417.376 423.838 419.808 428.51 419.808C431.71 419.808 433.406 418.72 434.366 417.312H434.526V419.168C434.526 422.496 433.822 423.744 430.686 423.744C428.318 423.744 427.326 423.104 427.326 421.504V421.312H422.238V421.504C422.238 425.632 425.31 428.32 430.366 428.32ZM430.142 415.936C427.07 415.936 426.142 415.232 426.142 413.408C426.142 411.552 427.07 410.848 430.142 410.848C433.15 410.848 434.11 411.552 434.11 413.408C434.11 415.232 433.15 415.936 430.142 415.936ZM458.475 428V423.68H450.283L446.827 423.744C446.827 422.72 448.139 422.048 449.899 421.248L453.131 419.84C455.915 418.592 458.539 416.704 458.539 412.992C458.539 409.12 456.267 406.24 450.603 406.24C444.235 406.24 441.675 409.664 441.675 413.824V414.336H446.475V413.792C446.475 411.488 447.115 410.624 450.219 410.624C453.067 410.624 453.771 411.488 453.771 413.024C453.771 414.432 453.099 415.136 451.211 416.032L447.499 417.792C444.523 419.232 441.707 420.96 441.707 425.12V428H458.475Z" fill="black"/>
<g clip-path="url(#clip2_6587_41932)">
<path d="M411.192 364.068C414.259 367.134 415.088 371.278 413.043 373.322C410.999 375.367 406.856 374.538 403.789 371.472C403.685 371.367 403.59 371.259 403.491 371.152L405.331 369.312C407.716 371.697 410.754 372.526 412.117 371.163C413.48 369.8 412.651 366.762 410.267 364.377L410.276 364.385L410.267 364.376C407.542 361.65 403.812 360.96 401.939 362.834C401.032 363.74 400.732 365.081 400.964 366.531C400.607 364.829 400.902 363.253 401.939 362.217C403.983 360.173 408.126 361.002 411.192 364.068Z" fill="#FDD888"/>
<path d="M407.25 375.263C407.145 375.263 407.04 375.231 406.95 375.166L404.835 373.649L402.72 375.166C402.54 375.296 402.298 375.296 402.119 375.164C401.94 375.034 401.864 374.804 401.931 374.594L402.72 372.048L400.624 370.571C400.446 370.44 400.372 370.209 400.44 369.998C400.509 369.788 400.704 369.645 400.925 369.643L403.487 369.638L404.348 367.156C404.418 366.946 404.614 366.805 404.835 366.805C405.057 366.805 405.253 366.946 405.323 367.156L406.1 369.638L408.745 369.643C408.967 369.645 409.162 369.788 409.23 369.998C409.299 370.209 409.225 370.44 409.046 370.571L406.95 372.048L407.739 374.594C407.806 374.804 407.73 375.035 407.552 375.164C407.461 375.23 407.355 375.263 407.25 375.263V375.263Z" fill="#FFAC33"/>
</g>
<path d="M423.381 368.959C423.381 369.743 423.234 370.414 422.941 370.973C422.649 371.529 422.252 371.955 421.747 372.251C421.246 372.547 420.676 372.695 420.039 372.695C419.402 372.695 418.832 372.547 418.328 372.251C417.826 371.953 417.428 371.526 417.134 370.969C416.843 370.411 416.698 369.741 416.698 368.959C416.698 368.176 416.843 367.506 417.134 366.949C417.428 366.391 417.826 365.963 418.328 365.667C418.832 365.372 419.402 365.224 420.039 365.224C420.676 365.224 421.246 365.372 421.747 365.667C422.252 365.963 422.649 366.391 422.941 366.949C423.234 367.506 423.381 368.176 423.381 368.959ZM422.056 368.959C422.056 368.408 421.97 367.943 421.797 367.564C421.627 367.183 421.39 366.895 421.087 366.701C420.784 366.504 420.435 366.406 420.039 366.406C419.644 366.406 419.295 366.504 418.992 366.701C418.689 366.895 418.451 367.183 418.278 367.564C418.108 367.943 418.022 368.408 418.022 368.959C418.022 369.511 418.108 369.977 418.278 370.358C418.451 370.737 418.689 371.025 418.992 371.221C419.295 371.416 419.644 371.513 420.039 371.513C420.435 371.513 420.784 371.416 421.087 371.221C421.39 371.025 421.627 370.737 421.797 370.358C421.97 369.977 422.056 369.511 422.056 368.959ZM424.47 374.641V367.141H425.734V368.043H425.808C425.875 367.911 425.968 367.77 426.089 367.621C426.21 367.469 426.373 367.34 426.579 367.233C426.785 367.125 427.048 367.07 427.367 367.07C427.789 367.07 428.169 367.178 428.507 367.393C428.848 367.606 429.118 367.922 429.317 368.341C429.518 368.758 429.619 369.269 429.619 369.876C429.619 370.474 429.521 370.983 429.324 371.403C429.128 371.822 428.86 372.141 428.522 372.361C428.183 372.581 427.799 372.692 427.371 372.692C427.058 372.692 426.799 372.64 426.593 372.535C426.387 372.431 426.222 372.306 426.096 372.159C425.973 372.01 425.877 371.869 425.808 371.736H425.755V374.641H424.47ZM425.73 369.868C425.73 370.221 425.78 370.53 425.879 370.795C425.981 371.06 426.127 371.268 426.316 371.417C426.508 371.564 426.74 371.637 427.012 371.637C427.296 371.637 427.534 371.561 427.726 371.41C427.918 371.256 428.062 371.046 428.159 370.781C428.259 370.514 428.308 370.209 428.308 369.868C428.308 369.53 428.26 369.229 428.163 368.966C428.066 368.704 427.921 368.498 427.73 368.349C427.538 368.199 427.299 368.125 427.012 368.125C426.738 368.125 426.504 368.197 426.313 368.341C426.121 368.486 425.975 368.688 425.876 368.949C425.779 369.209 425.73 369.516 425.73 369.868ZM433.034 372.702C432.488 372.702 432.015 372.589 431.618 372.361C431.222 372.132 430.918 371.807 430.705 371.388C430.492 370.967 430.385 370.471 430.385 369.9C430.385 369.339 430.492 368.847 430.705 368.423C430.92 367.997 431.221 367.666 431.607 367.429C431.993 367.19 432.446 367.07 432.967 367.07C433.303 367.07 433.62 367.125 433.919 367.233C434.219 367.34 434.485 367.506 434.714 367.731C434.946 367.956 435.128 368.242 435.261 368.59C435.394 368.936 435.46 369.348 435.46 369.826V370.22H430.989V369.354H434.228C434.225 369.107 434.172 368.888 434.068 368.697C433.964 368.502 433.818 368.35 433.631 368.238C433.446 368.127 433.231 368.072 432.985 368.072C432.722 368.072 432.491 368.135 432.292 368.263C432.093 368.389 431.938 368.555 431.827 368.76C431.718 368.964 431.663 369.188 431.66 369.432V370.188C431.66 370.505 431.718 370.778 431.834 371.005C431.95 371.23 432.112 371.403 432.321 371.523C432.529 371.642 432.773 371.701 433.052 371.701C433.239 371.701 433.409 371.675 433.56 371.623C433.712 371.568 433.843 371.489 433.954 371.385C434.065 371.281 434.15 371.152 434.206 370.998L435.407 371.133C435.331 371.45 435.186 371.727 434.973 371.964C434.763 372.198 434.493 372.38 434.164 372.51C433.835 372.638 433.458 372.702 433.034 372.702ZM437.733 369.4V372.596H436.447V367.141H437.676V368.068H437.74C437.866 367.763 438.066 367.52 438.34 367.34C438.617 367.16 438.959 367.07 439.366 367.07C439.743 367.07 440.071 367.151 440.35 367.312C440.632 367.473 440.85 367.706 441.004 368.011C441.16 368.317 441.237 368.687 441.234 369.123V372.596H439.949V369.322C439.949 368.957 439.854 368.672 439.665 368.466C439.478 368.26 439.218 368.157 438.887 368.157C438.662 368.157 438.462 368.206 438.287 368.306C438.114 368.403 437.978 368.544 437.879 368.729C437.781 368.913 437.733 369.137 437.733 369.4ZM446.752 368.583L445.58 368.711C445.547 368.592 445.489 368.481 445.406 368.377C445.326 368.273 445.217 368.189 445.08 368.125C444.942 368.061 444.774 368.029 444.575 368.029C444.308 368.029 444.083 368.087 443.901 368.203C443.721 368.319 443.632 368.469 443.634 368.654C443.632 368.813 443.69 368.942 443.808 369.041C443.929 369.14 444.128 369.222 444.405 369.286L445.335 369.485C445.851 369.596 446.235 369.773 446.486 370.014C446.739 370.256 446.867 370.572 446.869 370.962C446.867 371.305 446.766 371.608 446.568 371.871C446.371 372.132 446.098 372.335 445.747 372.482C445.397 372.629 444.994 372.702 444.54 372.702C443.872 372.702 443.335 372.563 442.928 372.283C442.52 372.001 442.278 371.61 442.2 371.108L443.453 370.987C443.51 371.233 443.631 371.419 443.815 371.545C444 371.67 444.24 371.733 444.536 371.733C444.842 371.733 445.087 371.67 445.271 371.545C445.458 371.419 445.552 371.264 445.552 371.079C445.552 370.923 445.492 370.794 445.371 370.692C445.252 370.59 445.068 370.512 444.817 370.458L443.886 370.263C443.363 370.154 442.976 369.97 442.725 369.712C442.474 369.452 442.35 369.123 442.352 368.725C442.35 368.389 442.441 368.098 442.626 367.851C442.813 367.603 443.072 367.411 443.404 367.276C443.737 367.139 444.122 367.07 444.558 367.07C445.197 367.07 445.7 367.206 446.067 367.479C446.436 367.751 446.665 368.119 446.752 368.583Z" fill="#747486"/>
<rect x="379.17" y="346.5" width="104.33" height="103" rx="7.5" stroke="#DFE7F2"/>
<rect x="120" y="188" width="364" height="125" rx="8" fill="white"/>
<rect x="146.766" y="211" width="79" height="10" rx="5" fill="#EEF1F7"/>
<rect x="246" y="211" width="203" height="10" rx="5" fill="#EEF1F7"/>
<rect x="147" y="245" width="258" height="10" rx="5" fill="#EEF1F7"/>
<rect x="147" y="279" width="286" height="10" rx="5" fill="#EEF1F7"/>
<path d="M151.312 161.938V156.231L151.168 153.909H151.348L152.068 156.267L153.886 161.109H157.162L158.98 156.267L159.682 153.909H159.88L159.736 156.231V161.938H162.436V149.877H158.638L156.622 155.511L155.668 158.607H155.488L154.516 155.511L152.41 149.877H148.612V161.938H151.312ZM168.709 162.118C171.301 162.118 172.957 160.983 172.957 159.057V158.877H170.293V158.985C170.293 159.543 169.825 159.777 168.745 159.777C167.269 159.777 166.765 159.273 166.711 158.013H172.921C172.975 157.707 173.047 157.186 173.047 156.681C173.047 154.323 171.445 152.703 168.727 152.703C165.901 152.703 164.173 154.539 164.173 157.438C164.173 160.299 165.595 162.118 168.709 162.118ZM168.637 154.917C169.897 154.917 170.509 155.439 170.455 156.375H166.729C166.837 155.421 167.341 154.917 168.637 154.917ZM178.964 162.118C181.466 162.118 182.852 161.037 182.852 159.345C182.852 157.869 182.06 157.005 180.152 156.646L178.496 156.303C177.416 156.087 177.254 155.961 177.254 155.529C177.254 155.097 177.506 154.863 178.586 154.863C179.738 154.863 179.99 155.187 179.99 155.781V156.033H182.564V155.781C182.564 153.747 180.872 152.703 178.658 152.703C176.084 152.703 174.716 153.891 174.716 155.565C174.716 157.239 175.688 157.995 177.47 158.319L178.838 158.571C180.044 158.787 180.296 158.895 180.296 159.381C180.296 159.831 180.116 159.993 179.018 159.993C177.704 159.993 177.308 159.849 177.308 159.183V158.805H174.734V158.859C174.734 161.055 176.12 162.118 178.964 162.118ZM188.592 162.118C191.094 162.118 192.48 161.037 192.48 159.345C192.48 157.869 191.688 157.005 189.78 156.646L188.124 156.303C187.044 156.087 186.882 155.961 186.882 155.529C186.882 155.097 187.134 154.863 188.214 154.863C189.366 154.863 189.618 155.187 189.618 155.781V156.033H192.192V155.781C192.192 153.747 190.5 152.703 188.286 152.703C185.712 152.703 184.344 153.891 184.344 155.565C184.344 157.239 185.316 157.995 187.098 158.319L188.466 158.571C189.672 158.787 189.924 158.895 189.924 159.381C189.924 159.831 189.744 159.993 188.646 159.993C187.332 159.993 186.936 159.849 186.936 159.183V158.805H184.362V158.859C184.362 161.055 185.748 162.118 188.592 162.118ZM196.779 162.118C198.453 162.118 199.371 161.379 199.857 160.713H199.965V161.938H202.467V156.573C202.467 154.161 201.063 152.703 198.399 152.703C195.843 152.703 194.169 154.125 194.169 156.285V156.483H196.743V156.285C196.743 155.367 197.175 155.061 198.273 155.061C199.335 155.061 199.911 155.259 199.911 156.321V156.609L196.815 157.077C194.943 157.365 193.935 158.229 193.935 159.633C193.935 161.271 195.177 162.118 196.779 162.118ZM196.509 159.417C196.509 159.039 196.761 158.859 197.319 158.769L199.911 158.373C199.911 159.777 198.777 160.065 197.679 160.065C196.887 160.065 196.509 159.903 196.509 159.417ZM208.065 160.983C209.433 160.983 210.387 160.371 210.783 159.669H210.891V161.073C210.891 162.478 210.603 162.802 209.181 162.802C207.633 162.802 207.363 162.568 207.363 161.631H204.681C204.681 163.936 206.265 165.178 209.091 165.178C212.007 165.178 213.573 163.882 213.573 160.929V152.883H211.071V154.197H210.981C210.495 153.207 209.469 152.703 208.173 152.703C205.599 152.703 204.231 154.341 204.231 156.861C204.231 159.381 205.563 160.983 208.065 160.983ZM206.913 156.861C206.913 155.583 207.363 154.989 208.911 154.989C210.207 154.989 210.891 155.439 210.891 156.591V157.131C210.891 158.283 210.189 158.733 208.893 158.733C207.363 158.733 206.913 158.139 206.913 156.861ZM219.872 162.118C222.464 162.118 224.12 160.983 224.12 159.057V158.877H221.456V158.985C221.456 159.543 220.988 159.777 219.908 159.777C218.432 159.777 217.928 159.273 217.874 158.013H224.084C224.138 157.707 224.21 157.186 224.21 156.681C224.21 154.323 222.608 152.703 219.89 152.703C217.064 152.703 215.336 154.539 215.336 157.438C215.336 160.299 216.758 162.118 219.872 162.118ZM219.8 154.917C221.06 154.917 221.672 155.439 221.618 156.375H217.892C218 155.421 218.504 154.917 219.8 154.917Z" fill="black"/>
<g clip-path="url(#clip3_6587_41932)">
<path d="M126.043 152.271C126.043 152.609 125.77 152.882 125.432 152.882H122.377C122.039 152.882 121.766 152.609 121.766 152.271C121.766 151.934 122.039 151.66 122.377 151.66H125.432C125.77 151.66 126.043 151.934 126.043 152.271ZM124.821 155.327C124.821 155.664 124.547 155.938 124.21 155.938H122.377C122.039 155.938 121.766 155.664 121.766 155.327C121.766 154.989 122.039 154.716 122.377 154.716H124.21C124.547 154.716 124.821 154.989 124.821 155.327ZM123.599 158.382C123.599 158.72 123.325 158.993 122.988 158.993H122.377C122.039 158.993 121.766 158.72 121.766 158.382C121.766 158.044 122.039 157.771 122.377 157.771H122.988C123.325 157.771 123.599 158.044 123.599 158.382Z" fill="#55ACEE"/>
<path d="M141.505 160.215C141.122 161.565 139.717 162.66 138.367 162.66H126.145C124.795 162.66 124.011 161.565 124.394 160.215L126.47 152.882C126.853 151.532 128.257 150.438 129.607 150.438H141.829C143.179 150.438 143.964 151.532 143.581 152.882L141.505 160.215Z" fill="#CCD6DD"/>
<path d="M132.36 155.715L124.445 161.407C124.424 161.424 124.412 161.445 124.393 161.462C124.502 161.811 124.709 162.1 124.999 162.308C125.02 162.294 125.043 162.288 125.064 162.271L132.979 156.579C133.285 156.341 133.395 155.954 133.224 155.715C133.053 155.476 132.666 155.476 132.36 155.715ZM140.799 161.462C140.79 161.445 140.789 161.424 140.778 161.407L136.089 155.715C135.917 155.476 135.531 155.476 135.223 155.715C134.917 155.954 134.808 156.341 134.979 156.579L139.67 162.271C139.681 162.287 139.701 162.294 139.714 162.308C140.121 162.1 140.492 161.811 140.799 161.462Z" fill="#99AAB5"/>
<path d="M143.582 152.882C143.965 151.532 143.18 150.438 141.83 150.438H129.608C128.258 150.438 126.853 151.532 126.471 152.882L126.458 152.927L131.839 158.092C132.836 159.06 134.154 158.994 135.338 158.319L143.421 153.452L143.582 152.882Z" fill="#99AAB5"/>
<path d="M141.83 150.438H129.607C128.643 150.438 127.658 151 127.03 151.811L132.663 157.185C133.121 157.625 134.15 157.631 134.897 157.185L143.632 151.827C143.47 151.008 142.8 150.438 141.83 150.438Z" fill="#E1E8ED"/>
</g>
<rect x="-1" y="1" width="419" height="345" rx="7" transform="matrix(-1 0 0 1 515 124.404)" stroke="#E1E8F2" stroke-width="2" stroke-dasharray="8 8"/>
<defs>
<clipPath id="clip0_6587_41932">
<rect width="15" height="15" fill="white" transform="translate(141.165 361.096)"/>
</clipPath>
<clipPath id="clip1_6587_41932">
<rect width="15" height="15" fill="white" transform="translate(270.165 361.096)"/>
</clipPath>
<clipPath id="clip2_6587_41932">
<rect width="15" height="15" fill="white" transform="translate(399.165 361.096)"/>
</clipPath>
<clipPath id="clip3_6587_41932">
<rect width="22" height="22" fill="white" transform="translate(121.766 144.938)"/>
</clipPath>
</defs>
</svg>
