<svg width="75" height="45" viewBox="0 0 75 45" fill="none" xmlns="http://www.w3.org/2000/svg">
<path d="M21.4146 16.2635C21.4146 17.169 21.5127 17.9032 21.6843 18.4416C21.8805 18.98 22.1256 19.5673 22.4689 20.2036C22.5915 20.3994 22.6405 20.5952 22.6405 20.7665C22.6405 21.0112 22.4934 21.256 22.1747 21.5007L20.63 22.5286C20.4093 22.6754 20.1887 22.7488 19.9925 22.7488C19.7473 22.7488 19.5021 22.6265 19.2569 22.4062C18.9137 22.0391 18.6195 21.6475 18.3743 21.256C18.1291 20.8399 17.8839 20.3749 17.6142 19.8121C15.7017 22.0636 13.2989 23.1893 10.4057 23.1893C8.34607 23.1893 6.70331 22.602 5.50189 21.4273C4.30047 20.2526 3.6875 18.6863 3.6875 16.7285C3.6875 14.6482 4.42306 12.9596 5.91871 11.687C7.41436 10.4144 9.40038 9.77811 11.9258 9.77811C12.7595 9.77811 13.6176 9.85153 14.5248 9.97389C15.432 10.0963 16.3637 10.292 17.3445 10.5123V8.72576C17.3445 6.86581 16.9522 5.56874 16.1921 4.81008C15.4075 4.05141 14.0835 3.68432 12.1955 3.68432C11.3374 3.68432 10.4547 3.78221 9.5475 4.00247C8.6403 4.22272 7.75762 4.49193 6.89946 4.83455C6.50716 5.00586 6.21294 5.10375 6.04131 5.1527C5.86967 5.20164 5.74708 5.22612 5.64901 5.22612C5.30574 5.22612 5.13411 4.98139 5.13411 4.46745V3.26827C5.13411 2.87671 5.18315 2.58303 5.30574 2.41172C5.42834 2.24041 5.64901 2.06909 5.99227 1.89778C6.85043 1.45727 7.88022 1.09017 9.08164 0.796496C10.2831 0.478347 11.558 0.331508 12.9066 0.331508C15.8243 0.331508 17.9575 0.99228 19.3305 2.31383C20.679 3.63537 21.3656 5.64216 21.3656 8.3342V16.2635H21.4146ZM11.46 19.9834C12.2691 19.9834 13.1027 19.8365 13.9854 19.5429C14.8681 19.2492 15.6527 18.7108 16.3147 17.9766C16.707 17.5116 17.0012 16.9977 17.1483 16.4103C17.2954 15.8229 17.3935 15.1132 17.3935 14.2811V13.2533C16.6825 13.082 15.9224 12.9351 15.1378 12.8372C14.3532 12.7393 13.5931 12.6904 12.833 12.6904C11.1903 12.6904 9.98884 13.0085 9.17971 13.6693C8.37059 14.3301 7.97829 15.2601 7.97829 16.4837C7.97829 17.634 8.27252 18.4905 8.88549 19.0779C9.47394 19.6897 10.3321 19.9834 11.46 19.9834ZM31.1486 22.6265C30.7072 22.6265 30.413 22.553 30.2169 22.3817C30.0207 22.2349 29.8491 21.8923 29.702 21.4273L23.94 2.50961C23.7929 2.02015 23.7194 1.702 23.7194 1.53069C23.7194 1.13912 23.9155 0.918862 24.3078 0.918862H26.7107C27.1765 0.918862 27.4953 0.992281 27.6669 1.16359C27.8631 1.31043 28.0102 1.65305 28.1573 2.11804L32.2764 18.3192L36.1014 2.11804C36.224 1.62858 36.3711 1.31043 36.5672 1.16359C36.7634 1.01675 37.1066 0.918862 37.548 0.918862H39.5095C39.9753 0.918862 40.2941 0.992281 40.4902 1.16359C40.6864 1.31043 40.858 1.65305 40.9561 2.11804L44.8301 18.515L49.0718 2.11804C49.2189 1.62858 49.3906 1.31043 49.5622 1.16359C49.7584 1.01675 50.0771 0.918862 50.5184 0.918862H52.7987C53.191 0.918862 53.4117 1.11465 53.4117 1.53069C53.4117 1.65305 53.3871 1.77542 53.3626 1.92226C53.3381 2.06909 53.2891 2.26488 53.191 2.53408L47.2819 21.4517C47.1348 21.9412 46.9632 22.2594 46.7671 22.4062C46.5709 22.553 46.2522 22.6509 45.8353 22.6509H43.7267C43.2609 22.6509 42.9421 22.5775 42.746 22.4062C42.5498 22.2349 42.3782 21.9167 42.2801 21.4273L38.4797 5.64216L34.7038 21.4028C34.5812 21.8923 34.4341 22.2104 34.2379 22.3817C34.0418 22.553 33.6985 22.6265 33.2572 22.6265H31.1486ZM62.6553 23.2872C61.3803 23.2872 60.1053 23.1404 58.8793 22.8467C57.6534 22.553 56.6972 22.2349 56.0597 21.8678C55.6674 21.6475 55.3977 21.4028 55.2996 21.1825C55.2015 20.9623 55.1525 20.7176 55.1525 20.4973V19.2492C55.1525 18.7352 55.3486 18.4905 55.7164 18.4905C55.8635 18.4905 56.0107 18.515 56.1578 18.5639C56.3049 18.6129 56.5255 18.7108 56.7707 18.8087C57.6044 19.1758 58.5116 19.4694 59.4678 19.6652C60.4486 19.861 61.4048 19.9589 62.3855 19.9589C63.9302 19.9589 65.1316 19.6897 65.9653 19.1513C66.7989 18.6129 67.2403 17.8297 67.2403 16.8263C67.2403 16.1411 67.0196 15.5782 66.5783 15.1132C66.1369 14.6482 65.3033 14.2322 64.1019 13.8406L60.5466 12.7393C58.7568 12.1765 57.4327 11.3444 56.6236 10.2431C55.8145 9.16628 55.3977 7.9671 55.3977 6.6945C55.3977 5.66663 55.6183 4.76113 56.0597 3.97799C56.501 3.19486 57.0895 2.50961 57.825 1.9712C58.5606 1.40832 59.3942 0.992281 60.375 0.698604C61.3558 0.404927 62.3855 0.282562 63.4644 0.282562C64.0038 0.282562 64.5677 0.307035 65.1071 0.380454C65.6711 0.453874 66.186 0.551766 66.7009 0.649658C67.1912 0.772023 67.6571 0.894388 68.0984 1.04123C68.5398 1.18807 68.883 1.3349 69.1282 1.48174C69.4715 1.67753 69.7167 1.87331 69.8638 2.09357C70.0109 2.28935 70.0844 2.55856 70.0844 2.90118V4.05141C70.0844 4.56535 69.8883 4.83455 69.5205 4.83455C69.3244 4.83455 69.0056 4.73666 68.5888 4.54087C67.1912 3.90457 65.622 3.58642 63.8812 3.58642C62.4836 3.58642 61.3803 3.80668 60.6202 4.27167C59.8601 4.73666 59.4678 5.44638 59.4678 6.44977C59.4678 7.13502 59.713 7.72237 60.2034 8.18736C60.6937 8.65235 61.6009 9.11733 62.9004 9.53338L66.3821 10.6347C68.1475 11.1975 69.4224 11.9807 70.1825 12.9841C70.9426 13.9875 71.3104 15.1377 71.3104 16.4103C71.3104 17.4626 71.0897 18.4171 70.6729 19.2492C70.2316 20.0813 69.6431 20.8155 68.883 21.4028C68.1229 22.0146 67.2157 22.4551 66.1614 22.7733C65.0581 23.1159 63.9057 23.2872 62.6553 23.2872Z" fill="#252F3E"/>
<path fill-rule="evenodd" clip-rule="evenodd" d="M67.2907 35.1786C59.224 41.1255 47.504 44.2826 37.4267 44.2826C23.3039 44.2826 10.5786 39.0698 0.96722 30.4063C0.207136 29.7211 0.893663 28.7911 1.80086 29.3295C12.1968 35.3499 25.0202 38.9964 38.2849 38.9964C47.2342 38.9964 57.0663 37.1364 66.1138 33.3186C67.4623 32.7068 68.6147 34.1996 67.2907 35.1786Z" fill="#FF9900"/>
<path fill-rule="evenodd" clip-rule="evenodd" d="M70.6499 31.362C69.6202 30.0404 63.8337 30.7257 61.2102 31.0438C60.4256 31.1417 60.303 30.4565 61.0141 29.9425C65.6236 26.7121 73.1999 27.6421 74.0826 28.7189C74.9652 29.8202 73.8374 37.3823 69.5221 41.0043C68.8601 41.5672 68.2226 41.2736 68.5168 40.5394C69.4976 38.1165 71.6797 32.659 70.6499 31.362Z" fill="#FF9900"/>
</svg>
