<svg width="24" height="25" viewBox="0 0 24 25" fill="none" xmlns="http://www.w3.org/2000/svg">
<mask id="mask0_6237_38947" style="mask-type:alpha" maskUnits="userSpaceOnUse" x="0" y="0" width="24" height="25">
<rect y="0.595703" width="24" height="24" fill="#D9D9D9"/>
</mask>
<g mask="url(#mask0_6237_38947)">
<path d="M12 14.5957C12.55 14.5957 13.021 14.3997 13.413 14.0077C13.8043 13.6164 14 13.1457 14 12.5957C14 12.0457 13.8043 11.5747 13.413 11.1827C13.021 10.7914 12.55 10.5957 12 10.5957C11.45 10.5957 10.9793 10.7914 10.588 11.1827C10.196 11.5747 10 12.0457 10 12.5957C10 13.1457 10.196 13.6164 10.588 14.0077C10.9793 14.3997 11.45 14.5957 12 14.5957ZM8 18.5957H16V18.0207C16 17.6207 15.8917 17.254 15.675 16.9207C15.4583 16.5874 15.1583 16.3374 14.775 16.1707C14.3417 15.9874 13.896 15.8457 13.438 15.7457C12.9793 15.6457 12.5 15.5957 12 15.5957C11.5 15.5957 11.0207 15.6457 10.562 15.7457C10.104 15.8457 9.65833 15.9874 9.225 16.1707C8.84167 16.3374 8.54167 16.5874 8.325 16.9207C8.10833 17.254 8 17.6207 8 18.0207V18.5957ZM18 22.5957H6C5.45 22.5957 4.97933 22.4 4.588 22.0087C4.196 21.6167 4 21.1457 4 20.5957V4.5957C4 4.0457 4.196 3.5747 4.588 3.1827C4.97933 2.79137 5.45 2.5957 6 2.5957H14L20 8.5957V20.5957C20 21.1457 19.8043 21.6167 19.413 22.0087C19.021 22.4 18.55 22.5957 18 22.5957ZM18 20.5957V9.4457L13.15 4.5957H6V20.5957H18Z" fill="#1C1B1F"/>
</g>
</svg>
