<svg width="608" height="561" viewBox="0 0 608 561" fill="none" xmlns="http://www.w3.org/2000/svg">
<path d="M559.504 -30.96L559.504 47.6796M559.504 592.153L559.504 311.843M559.504 246.101L559.504 97.8826" stroke="#97969C" stroke-dasharray="4 4"/>
<path d="M457.312 -30.583L457.313 371.462M457.313 591.978L457.313 396.135" stroke="#97969C" stroke-dasharray="4 4"/>
<path d="M355.621 -30.7725L355.621 134.021M355.621 591.975L355.621 510.729M355.621 216.736L355.621 461.13" stroke="#97969C" stroke-dasharray="4 4"/>
<path d="M252.93 -30.583L252.93 60.1604M252.93 591.971L252.93 84.4628" stroke="#97969C" stroke-dasharray="4 4"/>
<path d="M150.739 -30.7705L150.738 342.922M150.738 591.979L150.738 425.995" stroke="#97969C" stroke-dasharray="4 4"/>
<path d="M48.547 -30.9619L48.5469 152.866M48.5469 591.968L48.5469 288.95M48.5469 198.885L48.5469 271.716" stroke="#97969C" stroke-dasharray="4 4"/>
<path d="M0 487.649L330.227 487.649M608 487.649L379.607 487.649" stroke="#97969C" stroke-dasharray="4 4"/>
<path d="M0 383.856H112.263M608 383.856L469.346 383.856M190.468 383.856H444.674" stroke="#97969C" stroke-dasharray="4 4"/>
<path d="M0 176.271H25.6723M608 176.271L396.708 176.271M316 176.271L73.3582 176.271" stroke="#97969C" stroke-dasharray="4 4"/>
<path d="M0 280.063H39.4795M608 280.063H592.678M527.354 280.063L57.1204 280.063" stroke="#97969C" stroke-dasharray="4 4"/>
<path d="M0 72.4775L239.558 72.4775M608 72.4775H582.879M534.54 72.4775L265.522 72.4775" stroke="#97969C" stroke-dasharray="4 4"/>
<path d="M355.621 511.63L365.803 497.812L379.621 487.63L365.803 477.448L355.621 463.63L345.439 477.448L331.621 487.63L345.439 497.812L355.621 511.63Z" stroke="#97969C" stroke-dasharray="4 4"/>
<path d="M559.48 96.3955L569.663 82.5778L583.48 72.3955L569.663 62.2132L559.48 48.3955L549.298 62.2132L535.48 72.3955L549.298 82.5778L559.48 96.3955Z" stroke="#97969C" stroke-dasharray="4 4"/>
<path d="M48.6016 200.126L58.7839 186.308L72.6016 176.126L58.7839 165.944L48.6016 152.126L38.4192 165.944L24.6016 176.126L38.4192 186.308L48.6016 200.126Z" stroke="#97969C" stroke-dasharray="4 4"/>
<path d="M559.469 311.979L573.045 293.556L591.469 279.979L573.045 266.403L559.469 247.979L545.892 266.403L527.469 279.979L545.892 293.556L559.469 311.979Z" stroke="#97969C" stroke-dasharray="4 4"/>
<path d="M150.754 423.886L167.724 400.856L190.754 383.886L167.724 366.915L150.754 343.886L133.783 366.915L110.754 383.886L133.783 400.856L150.754 423.886Z" stroke="#97969C" stroke-dasharray="4 4"/>
<path d="M355.621 216.276L372.592 193.247L395.621 176.276L372.592 159.306L355.621 136.276L338.651 159.306L315.621 176.276L338.651 193.247L355.621 216.276Z" stroke="#97969C" stroke-dasharray="4 4"/>
<circle r="12" transform="matrix(1 0 0 -1 457.246 383.856)" stroke="#97969C" stroke-dasharray="4 4"/>
<circle r="8" transform="matrix(1 0 0 -1 48.5469 280.063)" stroke="#97969C" stroke-dasharray="4 4"/>
<circle r="12" transform="matrix(1 0 0 -1 252.598 72.4775)" stroke="#97969C" stroke-dasharray="4 4"/>
<rect x="-2" y="2" width="441.955" height="422.315" rx="6" transform="matrix(-1 0 0 1 552.389 74.4053)" fill="#121212"/>
<rect x="-2" y="2" width="441.955" height="422.315" rx="6" transform="matrix(-1 0 0 1 552.389 74.4053)" stroke="#121212" stroke-width="4"/>
<rect x="-2" y="2" width="441.12" height="419.085" rx="6" transform="matrix(-1 0 0 1 536.82 61.4863)" fill="#F5F6F8"/>
<rect x="-2" y="2" width="441.12" height="419.085" rx="6" transform="matrix(-1 0 0 1 536.82 61.4863)" stroke="#121212" stroke-width="4"/>
<rect x="107.781" y="74.4043" width="422" height="38" rx="4" fill="white"/>
<rect x="124.781" y="88.4043" width="10" height="10" rx="5" fill="#EB5757"/>
<rect x="142.781" y="88.4043" width="10" height="10" rx="5" fill="#F2C94C"/>
<rect x="160.781" y="88.4043" width="10" height="10" rx="5" fill="#27AE60"/>
<path d="M504.219 87.4043C504.219 86.852 503.771 86.4043 503.219 86.4043C502.666 86.4043 502.219 86.852 502.219 87.4043H504.219ZM502.219 99.4043C502.219 99.9566 502.666 100.404 503.219 100.404C503.771 100.404 504.219 99.9566 504.219 99.4043H502.219ZM502.219 87.4043V99.4043H504.219V87.4043H502.219Z" fill="#E7EDF5"/>
<path d="M509.219 94.4043C509.771 94.4043 510.219 93.9566 510.219 93.4043C510.219 92.852 509.771 92.4043 509.219 92.4043L509.219 94.4043ZM497.219 92.4043C496.666 92.4043 496.219 92.852 496.219 93.4043C496.219 93.9566 496.666 94.4043 497.219 94.4043L497.219 92.4043ZM509.219 92.4043L497.219 92.4043L497.219 94.4043L509.219 94.4043L509.219 92.4043Z" fill="#E7EDF5"/>
<rect x="-1" y="1" width="419" height="345" rx="7" transform="matrix(-1 0 0 1 526.781 125.404)" fill="#F5F6F8"/>
<path d="M161.327 166.309V162.025H162.407C163.685 162.025 164.045 162.475 164.585 163.519L166.007 166.309H169.157L167.627 163.285C167.159 162.367 166.655 161.737 165.611 161.413V161.233C167.681 161.053 168.653 159.883 168.653 157.921C168.653 155.581 167.051 154.249 164.171 154.249H158.627V166.309H161.327ZM161.327 156.679H164.297C165.557 156.679 165.971 157.075 165.971 158.227C165.971 159.415 165.557 159.793 164.297 159.793H161.327V156.679ZM174.418 166.489C177.01 166.489 178.666 165.355 178.666 163.429V163.249H176.002V163.357C176.002 163.915 175.534 164.149 174.454 164.149C172.978 164.149 172.474 163.645 172.42 162.385H178.63C178.684 162.079 178.756 161.557 178.756 161.053C178.756 158.695 177.154 157.075 174.436 157.075C171.61 157.075 169.882 158.911 169.882 161.809C169.882 164.671 171.304 166.489 174.418 166.489ZM174.346 159.289C175.606 159.289 176.218 159.811 176.164 160.747H172.438C172.546 159.793 173.05 159.289 174.346 159.289ZM183.272 166.309V161.071C183.272 159.793 183.812 159.397 185.036 159.397C186.332 159.397 186.728 159.847 186.728 161.107V166.309H189.428V161.107C189.428 159.793 189.95 159.397 191.174 159.397C192.488 159.397 192.866 159.847 192.866 161.107V166.309H195.566V160.567C195.566 158.641 194.612 157.075 192.272 157.075C190.598 157.075 189.698 157.849 189.194 158.839H189.104C188.654 157.777 187.718 157.075 186.17 157.075C184.622 157.075 183.686 157.813 183.2 158.839H183.092V157.255H180.59V166.309H183.272ZM200.244 156.229V154.249H197.562L197.598 156.229H200.244ZM200.298 166.309V157.255H197.598V166.309H200.298ZM205.024 166.309V161.179C205.024 159.811 205.582 159.397 206.878 159.397C208.246 159.397 208.66 159.847 208.66 161.107V166.309H211.36V160.567C211.36 158.641 210.352 157.075 207.994 157.075C206.41 157.075 205.438 157.813 204.952 158.839H204.844V157.255H202.342V166.309H205.024ZM217.028 166.489C218.36 166.489 219.386 165.949 219.854 164.977H219.944V166.309H222.446V154.249H219.764V158.443H219.656C219.242 157.687 218.414 157.075 217.028 157.075C214.562 157.075 213.104 158.929 213.104 161.791C213.104 164.635 214.472 166.489 217.028 166.489ZM215.786 161.791C215.786 160.135 216.218 159.379 217.784 159.379C219.062 159.379 219.764 159.829 219.764 161.053V162.511C219.764 163.735 219.062 164.185 217.784 164.185C216.218 164.185 215.786 163.429 215.786 161.791ZM228.762 166.489C231.354 166.489 233.01 165.355 233.01 163.429V163.249H230.346V163.357C230.346 163.915 229.878 164.149 228.798 164.149C227.322 164.149 226.818 163.645 226.764 162.385H232.974C233.028 162.079 233.1 161.557 233.1 161.053C233.1 158.695 231.498 157.075 228.78 157.075C225.954 157.075 224.226 158.911 224.226 161.809C224.226 164.671 225.648 166.489 228.762 166.489ZM228.69 159.289C229.95 159.289 230.562 159.811 230.508 160.747H226.782C226.89 159.793 227.394 159.289 228.69 159.289ZM237.616 166.309V160.639C237.616 159.649 238.012 159.361 238.84 159.361C239.686 159.361 239.992 159.667 239.992 160.639V161.125H242.674V160.297C242.674 158.479 241.972 157.075 240.082 157.075C238.804 157.075 237.994 157.795 237.544 158.713H237.436V157.255H234.934V166.309H237.616ZM250.821 166.489C252.495 166.489 253.413 165.751 253.899 165.085H254.007V166.309H256.509V160.945C256.509 158.533 255.105 157.075 252.441 157.075C249.885 157.075 248.211 158.497 248.211 160.657V160.855H250.785V160.657C250.785 159.739 251.217 159.433 252.315 159.433C253.377 159.433 253.953 159.631 253.953 160.693V160.981L250.857 161.449C248.985 161.737 247.977 162.601 247.977 164.005C247.977 165.643 249.219 166.489 250.821 166.489ZM250.551 163.789C250.551 163.411 250.803 163.231 251.361 163.141L253.953 162.745C253.953 164.149 252.819 164.437 251.721 164.437C250.929 164.437 250.551 164.275 250.551 163.789ZM261.962 166.489C263.546 166.489 264.5 165.769 265.004 164.725H265.094V166.309H267.596V157.255H264.914V162.385C264.914 163.753 264.356 164.167 263.06 164.167C261.71 164.167 261.278 163.717 261.278 162.457V157.255H258.596V162.997C258.596 164.923 259.586 166.489 261.962 166.489ZM273.895 166.345C274.525 166.345 275.227 166.255 275.659 166.165V163.915H274.543C273.373 163.915 273.103 163.825 273.103 163.033V159.487H275.659V157.255H273.103V155.149H270.979L270.475 157.255H268.963V159.487H270.403V163.339C270.403 165.481 271.537 166.345 273.895 166.345ZM281.523 166.489C284.421 166.489 286.113 164.653 286.113 161.791C286.113 158.911 284.421 157.075 281.523 157.075C278.607 157.075 276.879 158.911 276.879 161.791C276.879 164.653 278.607 166.489 281.523 166.489ZM281.523 164.113C280.047 164.113 279.543 163.537 279.543 161.791C279.543 160.027 280.047 159.451 281.523 159.451C282.981 159.451 283.485 160.027 283.485 161.791C283.485 163.537 282.981 164.113 281.523 164.113ZM290.567 166.309V161.071C290.567 159.793 291.107 159.397 292.331 159.397C293.627 159.397 294.023 159.847 294.023 161.107V166.309H296.723V161.107C296.723 159.793 297.245 159.397 298.469 159.397C299.783 159.397 300.161 159.847 300.161 161.107V166.309H302.861V160.567C302.861 158.641 301.907 157.075 299.567 157.075C297.893 157.075 296.993 157.849 296.489 158.839H296.399C295.949 157.777 295.013 157.075 293.465 157.075C291.917 157.075 290.981 157.813 290.495 158.839H290.387V157.255H287.885V166.309H290.567ZM307.468 166.489C309.142 166.489 310.06 165.751 310.546 165.085H310.654V166.309H313.156V160.945C313.156 158.533 311.752 157.075 309.088 157.075C306.532 157.075 304.858 158.497 304.858 160.657V160.855H307.432V160.657C307.432 159.739 307.864 159.433 308.962 159.433C310.024 159.433 310.6 159.631 310.6 160.693V160.981L307.504 161.449C305.632 161.737 304.624 162.601 304.624 164.005C304.624 165.643 305.866 166.489 307.468 166.489ZM307.198 163.789C307.198 163.411 307.45 163.231 308.008 163.141L310.6 162.745C310.6 164.149 309.466 164.437 308.368 164.437C307.576 164.437 307.198 164.275 307.198 163.789ZM319.403 166.345C320.033 166.345 320.735 166.255 321.167 166.165V163.915H320.051C318.881 163.915 318.611 163.825 318.611 163.033V159.487H321.167V157.255H318.611V155.149H316.487L315.983 157.255H314.471V159.487H315.911V163.339C315.911 165.481 317.045 166.345 319.403 166.345ZM325.459 156.229V154.249H322.777L322.813 156.229H325.459ZM325.513 166.309V157.255H322.813V166.309H325.513ZM331.771 166.489C334.669 166.489 336.361 164.653 336.361 161.791C336.361 158.911 334.669 157.075 331.771 157.075C328.855 157.075 327.127 158.911 327.127 161.791C327.127 164.653 328.855 166.489 331.771 166.489ZM331.771 164.113C330.295 164.113 329.791 163.537 329.791 161.791C329.791 160.027 330.295 159.451 331.771 159.451C333.229 159.451 333.733 160.027 333.733 161.791C333.733 163.537 333.229 164.113 331.771 164.113ZM340.816 166.309V161.179C340.816 159.811 341.374 159.397 342.67 159.397C344.038 159.397 344.452 159.847 344.452 161.107V166.309H347.152V160.567C347.152 158.641 346.144 157.075 343.786 157.075C342.202 157.075 341.23 157.813 340.744 158.839H340.636V157.255H338.134V166.309H340.816ZM356.499 166.309V159.487H358.515V157.255H356.391V157.093C356.391 156.481 356.715 156.265 357.399 156.265H358.515V154.249C358.227 154.213 357.957 154.213 357.669 154.213C355.257 154.213 353.979 155.347 353.817 157.255H352.485V159.487H353.799V166.309H356.499ZM362.223 166.309V154.249H359.541V166.309H362.223ZM368.666 166.489C371.564 166.489 373.256 164.653 373.256 161.791C373.256 158.911 371.564 157.075 368.666 157.075C365.75 157.075 364.022 158.911 364.022 161.791C364.022 164.653 365.75 166.489 368.666 166.489ZM368.666 164.113C367.19 164.113 366.686 163.537 366.686 161.791C366.686 160.027 367.19 159.451 368.666 159.451C370.124 159.451 370.628 160.027 370.628 161.791C370.628 163.537 370.124 164.113 368.666 164.113ZM379.609 166.309L380.797 162.007L381.247 159.631H381.445L381.895 162.007L383.065 166.309H386.593L388.699 157.255H385.855L385.225 161.449L384.901 164.149H384.721L384.235 161.449L383.119 157.255H379.681L378.583 161.431L378.079 164.149H377.881L377.539 161.431L376.945 157.255H373.975L376.081 166.309H379.609Z" fill="black"/>
<g clip-path="url(#clip0_6584_41820)">
<path d="M145.5 169.041L132.143 160.768L135.784 149.743L146.809 153.384L145.5 169.041Z" fill="#55ACEE"/>
<path d="M144.335 167.337C144.112 167.337 143.896 167.214 143.789 167L136.016 151.562C135.864 151.261 135.985 150.893 136.287 150.741C136.588 150.589 136.956 150.711 137.107 151.012L144.881 166.451C145.032 166.753 144.911 167.12 144.609 167.272C144.522 167.316 144.428 167.337 144.335 167.337Z" fill="#226699"/>
<path d="M133.688 160.602C133.464 160.602 133.249 160.479 133.142 160.265C132.99 159.964 133.111 159.596 133.413 159.445L144.991 153.615C145.291 153.462 145.66 153.584 145.812 153.885C145.964 154.187 145.843 154.555 145.541 154.706L133.963 160.536C133.874 160.581 133.78 160.602 133.688 160.602Z" fill="#226699"/>
<path d="M148.506 170.905C147.014 170.905 145.743 170.13 144.717 168.592C144.53 168.312 144.605 167.932 144.887 167.744C145.166 167.557 145.546 167.633 145.734 167.914C146.69 169.346 147.787 169.886 149.183 169.613C149.761 169.501 150.279 169.014 150.57 168.31C150.999 167.276 150.858 166.069 150.192 165.082C148.966 163.267 148.495 160.935 148.931 158.843C149.307 157.037 150.3 155.577 151.802 154.623C152.087 154.443 152.464 154.527 152.645 154.812C152.827 155.096 152.742 155.474 152.457 155.655C150.919 156.631 150.341 158.063 150.127 159.092C149.758 160.868 150.16 162.851 151.205 164.399C152.101 165.726 152.286 167.363 151.701 168.778C151.252 169.861 150.399 170.623 149.418 170.813C149.104 170.874 148.801 170.905 148.506 170.905Z" fill="#3B88C3"/>
<path d="M151.05 168.248C150.573 166.73 149.335 165.509 148.51 166.98C147.69 168.442 149.146 169.092 150.782 168.655C151.259 170.173 152.497 171.394 153.322 169.923C154.142 168.461 152.687 167.811 151.05 168.248ZM150.18 163.947C151.632 164.598 153.367 164.482 152.814 162.889C152.265 161.305 150.813 161.962 150.054 163.476C148.601 162.825 146.867 162.941 147.419 164.534C147.968 166.118 149.421 165.461 150.18 163.947ZM149.409 159.915C150.237 161.275 151.732 162.162 152.18 160.535C152.624 158.919 151.055 158.638 149.572 159.456C148.744 158.097 147.249 157.21 146.801 158.836C146.357 160.452 147.926 160.733 149.409 159.915ZM151.179 155.908C151.099 157.498 151.836 159.072 153.121 157.98C154.398 156.894 153.259 155.778 151.572 155.62C151.653 154.03 150.916 152.456 149.631 153.549C148.354 154.634 149.493 155.75 151.179 155.908Z" fill="#9266CC"/>
</g>
<line x1="131.781" y1="186.426" x2="495.927" y2="186.426" stroke="#DFE7F2" stroke-width="2"/>
<rect x="176.781" y="209.5" width="283" height="64" rx="7.5" fill="white"/>
<path d="M244.811 258.5V257.168L248.346 253.702C248.684 253.361 248.966 253.058 249.191 252.793C249.416 252.527 249.585 252.271 249.698 252.022C249.811 251.773 249.867 251.508 249.867 251.227C249.867 250.905 249.794 250.63 249.648 250.401C249.503 250.169 249.302 249.99 249.047 249.864C248.792 249.738 248.502 249.675 248.177 249.675C247.842 249.675 247.549 249.745 247.297 249.884C247.045 250.02 246.849 250.214 246.71 250.466C246.574 250.718 246.506 251.018 246.506 251.366H244.751C244.751 250.719 244.899 250.158 245.194 249.68C245.489 249.203 245.895 248.834 246.412 248.572C246.932 248.31 247.529 248.179 248.202 248.179C248.884 248.179 249.484 248.307 250.001 248.562C250.518 248.817 250.92 249.167 251.205 249.611C251.493 250.055 251.637 250.562 251.637 251.132C251.637 251.513 251.564 251.888 251.418 252.256C251.272 252.624 251.016 253.031 250.648 253.479C250.283 253.926 249.771 254.468 249.112 255.104L247.357 256.889V256.959H251.791V258.5H244.811ZM259.553 258.634C258.953 258.634 258.416 258.48 257.942 258.172C257.468 257.864 257.093 257.416 256.818 256.83C256.543 256.243 256.406 255.53 256.406 254.692C256.406 253.843 256.545 253.127 256.823 252.544C257.105 251.957 257.485 251.515 257.962 251.217C258.439 250.915 258.971 250.764 259.558 250.764C260.005 250.764 260.373 250.84 260.661 250.993C260.95 251.142 261.178 251.323 261.347 251.535C261.517 251.744 261.647 251.941 261.74 252.126H261.815V248.318H263.62V258.5H261.85V257.297H261.74C261.647 257.482 261.513 257.68 261.338 257.888C261.162 258.094 260.93 258.27 260.642 258.415C260.353 258.561 259.99 258.634 259.553 258.634ZM260.055 257.158C260.436 257.158 260.761 257.055 261.029 256.849C261.298 256.641 261.502 256.351 261.641 255.979C261.78 255.608 261.85 255.176 261.85 254.682C261.85 254.188 261.78 253.759 261.641 253.394C261.505 253.03 261.303 252.746 261.034 252.544C260.769 252.342 260.443 252.241 260.055 252.241C259.654 252.241 259.319 252.345 259.051 252.554C258.782 252.763 258.58 253.051 258.444 253.419C258.308 253.787 258.24 254.208 258.24 254.682C258.24 255.159 258.308 255.585 258.444 255.96C258.583 256.331 258.787 256.624 259.056 256.839C259.327 257.052 259.66 257.158 260.055 257.158ZM267.595 258.654C267.111 258.654 266.675 258.568 266.287 258.396C265.903 258.22 265.598 257.961 265.372 257.62C265.15 257.279 265.039 256.858 265.039 256.357C265.039 255.926 265.119 255.57 265.278 255.288C265.437 255.007 265.654 254.781 265.929 254.612C266.204 254.443 266.514 254.316 266.859 254.229C267.207 254.14 267.567 254.075 267.938 254.036C268.385 253.989 268.748 253.948 269.027 253.911C269.305 253.871 269.507 253.812 269.633 253.732C269.762 253.649 269.827 253.522 269.827 253.349V253.32C269.827 252.945 269.716 252.655 269.494 252.45C269.272 252.244 268.952 252.141 268.534 252.141C268.094 252.141 267.744 252.237 267.485 252.43C267.23 252.622 267.058 252.849 266.968 253.111L265.288 252.872C265.42 252.408 265.639 252.02 265.944 251.709C266.249 251.394 266.622 251.159 267.063 251.003C267.504 250.844 267.991 250.764 268.524 250.764C268.892 250.764 269.259 250.807 269.623 250.893C269.988 250.98 270.321 251.122 270.622 251.321C270.924 251.517 271.166 251.783 271.348 252.121C271.534 252.46 271.627 252.882 271.627 253.389V258.5H269.897V257.451H269.837C269.728 257.663 269.573 257.862 269.375 258.048C269.179 258.23 268.932 258.377 268.634 258.49C268.339 258.599 267.992 258.654 267.595 258.654ZM268.062 257.332C268.423 257.332 268.737 257.26 269.002 257.118C269.267 256.972 269.471 256.78 269.613 256.541C269.759 256.303 269.832 256.042 269.832 255.761V254.861C269.776 254.907 269.679 254.95 269.544 254.99C269.411 255.03 269.262 255.065 269.096 255.094C268.93 255.124 268.766 255.151 268.604 255.174C268.442 255.197 268.301 255.217 268.181 255.234C267.913 255.27 267.673 255.33 267.461 255.413C267.248 255.496 267.081 255.612 266.958 255.761C266.836 255.906 266.774 256.095 266.774 256.327C266.774 256.659 266.895 256.909 267.137 257.078C267.379 257.247 267.688 257.332 268.062 257.332ZM274.142 261.364C273.896 261.364 273.669 261.344 273.46 261.304C273.255 261.268 273.091 261.224 272.968 261.175L273.386 259.773C273.648 259.849 273.881 259.885 274.087 259.882C274.292 259.879 274.473 259.814 274.629 259.688C274.788 259.566 274.922 259.36 275.031 259.072L275.186 258.659L272.416 250.864H274.325L276.085 256.631H276.165L277.93 250.864H279.844L276.786 259.425C276.644 259.829 276.455 260.175 276.22 260.464C275.984 260.755 275.696 260.978 275.355 261.13C275.017 261.286 274.612 261.364 274.142 261.364ZM286.985 252.882L285.344 253.061C285.298 252.895 285.217 252.74 285.101 252.594C284.988 252.448 284.835 252.33 284.643 252.241C284.451 252.151 284.216 252.107 283.937 252.107C283.563 252.107 283.248 252.188 282.993 252.35C282.741 252.513 282.616 252.723 282.62 252.982C282.616 253.204 282.698 253.384 282.863 253.523C283.032 253.663 283.311 253.777 283.699 253.866L285.001 254.145C285.724 254.301 286.261 254.548 286.612 254.886C286.967 255.224 287.146 255.666 287.149 256.213C287.146 256.694 287.005 257.118 286.726 257.486C286.451 257.85 286.068 258.135 285.578 258.341C285.087 258.546 284.524 258.649 283.888 258.649C282.953 258.649 282.201 258.454 281.63 258.062C281.06 257.668 280.721 257.12 280.611 256.417L282.366 256.248C282.446 256.593 282.615 256.853 282.873 257.028C283.132 257.204 283.468 257.292 283.883 257.292C284.31 257.292 284.653 257.204 284.912 257.028C285.174 256.853 285.304 256.636 285.304 256.377C285.304 256.158 285.22 255.978 285.051 255.835C284.885 255.693 284.627 255.583 284.275 255.507L282.973 255.234C282.24 255.081 281.698 254.824 281.347 254.463C280.996 254.098 280.822 253.638 280.825 253.081C280.822 252.61 280.949 252.203 281.208 251.858C281.47 251.51 281.833 251.241 282.297 251.053C282.764 250.86 283.303 250.764 283.912 250.764C284.807 250.764 285.512 250.955 286.025 251.336C286.542 251.717 286.862 252.232 286.985 252.882ZM295.639 250.864V252.256H291.249V250.864H295.639ZM292.333 249.034H294.132V256.203C294.132 256.445 294.169 256.631 294.242 256.76C294.318 256.886 294.417 256.972 294.54 257.018C294.663 257.065 294.799 257.088 294.948 257.088C295.06 257.088 295.163 257.08 295.256 257.063C295.352 257.047 295.425 257.032 295.475 257.018L295.778 258.425C295.682 258.459 295.544 258.495 295.365 258.535C295.19 258.575 294.974 258.598 294.719 258.604C294.268 258.618 293.862 258.55 293.501 258.401C293.14 258.248 292.853 258.013 292.641 257.695C292.432 257.376 292.329 256.979 292.333 256.501V249.034ZM300.253 258.649C299.507 258.649 298.861 258.485 298.314 258.157C297.767 257.829 297.343 257.37 297.041 256.78C296.743 256.19 296.594 255.5 296.594 254.712C296.594 253.923 296.743 253.232 297.041 252.638C297.343 252.045 297.767 251.585 298.314 251.256C298.861 250.928 299.507 250.764 300.253 250.764C300.999 250.764 301.645 250.928 302.192 251.256C302.739 251.585 303.161 252.045 303.46 252.638C303.761 253.232 303.912 253.923 303.912 254.712C303.912 255.5 303.761 256.19 303.46 256.78C303.161 257.37 302.739 257.829 302.192 258.157C301.645 258.485 300.999 258.649 300.253 258.649ZM300.263 257.207C300.667 257.207 301.005 257.096 301.277 256.874C301.549 256.649 301.751 256.347 301.884 255.969C302.019 255.592 302.087 255.171 302.087 254.707C302.087 254.239 302.019 253.817 301.884 253.439C301.751 253.058 301.549 252.754 301.277 252.529C301.005 252.304 300.667 252.191 300.263 252.191C299.849 252.191 299.504 252.304 299.229 252.529C298.957 252.754 298.753 253.058 298.617 253.439C298.485 253.817 298.418 254.239 298.418 254.707C298.418 255.171 298.485 255.592 298.617 255.969C298.753 256.347 298.957 256.649 299.229 256.874C299.504 257.096 299.849 257.207 300.263 257.207ZM310.432 254.026V258.5H308.632V250.864H310.352V252.161H310.442C310.617 251.734 310.898 251.394 311.282 251.142C311.67 250.89 312.149 250.764 312.719 250.764C313.246 250.764 313.705 250.877 314.096 251.102C314.49 251.328 314.795 251.654 315.011 252.082C315.229 252.509 315.337 253.028 315.334 253.638V258.5H313.534V253.916C313.534 253.406 313.402 253.006 313.136 252.718C312.875 252.43 312.512 252.286 312.048 252.286C311.733 252.286 311.453 252.355 311.207 252.494C310.965 252.63 310.775 252.827 310.636 253.086C310.5 253.344 310.432 253.658 310.432 254.026ZM320.404 258.649C319.638 258.649 318.977 258.49 318.42 258.172C317.867 257.85 317.441 257.396 317.143 256.81C316.844 256.22 316.695 255.525 316.695 254.727C316.695 253.941 316.844 253.252 317.143 252.658C317.444 252.062 317.865 251.598 318.405 251.266C318.946 250.932 319.58 250.764 320.31 250.764C320.78 250.764 321.224 250.84 321.642 250.993C322.063 251.142 322.434 251.374 322.756 251.689C323.08 252.004 323.336 252.405 323.521 252.892C323.707 253.376 323.8 253.953 323.8 254.622V255.174H317.54V253.961H322.075C322.071 253.616 321.997 253.31 321.851 253.041C321.705 252.769 321.501 252.556 321.239 252.4C320.981 252.244 320.679 252.166 320.334 252.166C319.967 252.166 319.643 252.256 319.365 252.435C319.087 252.61 318.87 252.842 318.714 253.131C318.561 253.416 318.483 253.729 318.48 254.07V255.129C318.48 255.573 318.561 255.955 318.724 256.273C318.886 256.588 319.113 256.83 319.405 256.999C319.696 257.164 320.038 257.247 320.429 257.247C320.691 257.247 320.928 257.211 321.14 257.138C321.352 257.062 321.536 256.951 321.692 256.805C321.847 256.659 321.965 256.478 322.045 256.263L323.725 256.452C323.619 256.896 323.417 257.284 323.119 257.615C322.824 257.943 322.446 258.198 321.985 258.381C321.524 258.56 320.997 258.649 320.404 258.649ZM326.49 250.864L328.031 253.683L329.597 250.864H331.501L329.199 254.682L331.541 258.5H329.647L328.031 255.751L326.43 258.5H324.521L326.848 254.682L324.581 250.864H326.49ZM336.566 250.864V252.256H332.176V250.864H336.566ZM333.26 249.034H335.06V256.203C335.06 256.445 335.096 256.631 335.169 256.76C335.246 256.886 335.345 256.972 335.468 257.018C335.59 257.065 335.726 257.088 335.875 257.088C335.988 257.088 336.091 257.08 336.184 257.063C336.28 257.047 336.353 257.032 336.402 257.018L336.706 258.425C336.609 258.459 336.472 258.495 336.293 258.535C336.117 258.575 335.902 258.598 335.647 258.604C335.196 258.618 334.79 258.55 334.429 258.401C334.067 258.248 333.781 258.013 333.568 257.695C333.36 257.376 333.257 256.979 333.26 256.501V249.034ZM347.3 252.882L345.659 253.061C345.613 252.895 345.531 252.74 345.415 252.594C345.303 252.448 345.15 252.33 344.958 252.241C344.766 252.151 344.531 252.107 344.252 252.107C343.878 252.107 343.563 252.188 343.307 252.35C343.056 252.513 342.931 252.723 342.935 252.982C342.931 253.204 343.013 253.384 343.178 253.523C343.347 253.663 343.626 253.777 344.013 253.866L345.316 254.145C346.039 254.301 346.575 254.548 346.927 254.886C347.281 255.224 347.46 255.666 347.464 256.213C347.46 256.694 347.32 257.118 347.041 257.486C346.766 257.85 346.383 258.135 345.893 258.341C345.402 258.546 344.839 258.649 344.202 258.649C343.268 258.649 342.515 258.454 341.945 258.062C341.375 257.668 341.035 257.12 340.926 256.417L342.681 256.248C342.761 256.593 342.93 256.853 343.188 257.028C343.447 257.204 343.783 257.292 344.197 257.292C344.625 257.292 344.968 257.204 345.227 257.028C345.488 256.853 345.619 256.636 345.619 256.377C345.619 256.158 345.535 255.978 345.366 255.835C345.2 255.693 344.941 255.583 344.59 255.507L343.288 255.234C342.555 255.081 342.013 254.824 341.662 254.463C341.311 254.098 341.137 253.638 341.14 253.081C341.137 252.61 341.264 252.203 341.523 251.858C341.785 251.51 342.147 251.241 342.611 251.053C343.079 250.86 343.617 250.764 344.227 250.764C345.122 250.764 345.826 250.955 346.34 251.336C346.857 251.717 347.177 252.232 347.3 252.882ZM353.675 255.288V250.864H355.475V258.5H353.73V257.143H353.65C353.478 257.57 353.194 257.92 352.8 258.192C352.409 258.464 351.927 258.599 351.353 258.599C350.853 258.599 350.41 258.488 350.026 258.266C349.645 258.041 349.346 257.714 349.131 257.287C348.915 256.856 348.808 256.336 348.808 255.726V250.864H350.607V255.447C350.607 255.931 350.74 256.316 351.005 256.601C351.27 256.886 351.618 257.028 352.049 257.028C352.314 257.028 352.571 256.964 352.82 256.835C353.068 256.705 353.272 256.513 353.431 256.258C353.594 255.999 353.675 255.676 353.675 255.288ZM357.265 258.5V248.318H359.065V252.126H359.139C359.232 251.941 359.363 251.744 359.532 251.535C359.701 251.323 359.93 251.142 360.218 250.993C360.506 250.84 360.874 250.764 361.322 250.764C361.912 250.764 362.444 250.915 362.918 251.217C363.395 251.515 363.773 251.957 364.051 252.544C364.333 253.127 364.474 253.843 364.474 254.692C364.474 255.53 364.336 256.243 364.061 256.83C363.786 257.416 363.411 257.864 362.937 258.172C362.464 258.48 361.927 258.634 361.327 258.634C360.889 258.634 360.526 258.561 360.238 258.415C359.95 258.27 359.718 258.094 359.542 257.888C359.37 257.68 359.235 257.482 359.139 257.297H359.035V258.5H357.265ZM359.03 254.682C359.03 255.176 359.099 255.608 359.239 255.979C359.381 256.351 359.585 256.641 359.85 256.849C360.119 257.055 360.443 257.158 360.825 257.158C361.222 257.158 361.555 257.052 361.824 256.839C362.092 256.624 362.294 256.331 362.43 255.96C362.57 255.585 362.639 255.159 362.639 254.682C362.639 254.208 362.571 253.787 362.435 253.419C362.299 253.051 362.097 252.763 361.829 252.554C361.56 252.345 361.226 252.241 360.825 252.241C360.44 252.241 360.114 252.342 359.845 252.544C359.577 252.746 359.373 253.03 359.234 253.394C359.098 253.759 359.03 254.188 359.03 254.682ZM371.899 252.882L370.259 253.061C370.212 252.895 370.131 252.74 370.015 252.594C369.902 252.448 369.75 252.33 369.558 252.241C369.365 252.151 369.13 252.107 368.852 252.107C368.477 252.107 368.162 252.188 367.907 252.35C367.655 252.513 367.531 252.723 367.534 252.982C367.531 253.204 367.612 253.384 367.778 253.523C367.947 253.663 368.225 253.777 368.613 253.866L369.916 254.145C370.638 254.301 371.175 254.548 371.526 254.886C371.881 255.224 372.06 255.666 372.063 256.213C372.06 256.694 371.919 257.118 371.641 257.486C371.366 257.85 370.983 258.135 370.492 258.341C370.002 258.546 369.438 258.649 368.802 258.649C367.867 258.649 367.115 258.454 366.545 258.062C365.975 257.668 365.635 257.12 365.526 256.417L367.281 256.248C367.36 256.593 367.529 256.853 367.788 257.028C368.046 257.204 368.383 257.292 368.797 257.292C369.224 257.292 369.568 257.204 369.826 257.028C370.088 256.853 370.219 256.636 370.219 256.377C370.219 256.158 370.134 255.978 369.965 255.835C369.8 255.693 369.541 255.583 369.19 255.507L367.887 255.234C367.155 255.081 366.613 254.824 366.261 254.463C365.91 254.098 365.736 253.638 365.739 253.081C365.736 252.61 365.864 252.203 366.122 251.858C366.384 251.51 366.747 251.241 367.211 251.053C367.678 250.86 368.217 250.764 368.827 250.764C369.722 250.764 370.426 250.955 370.94 251.336C371.457 251.717 371.777 252.232 371.899 252.882ZM376.738 258.649C375.976 258.649 375.321 258.482 374.774 258.147C374.231 257.812 373.812 257.35 373.517 256.76C373.225 256.167 373.079 255.484 373.079 254.712C373.079 253.936 373.228 253.252 373.527 252.658C373.825 252.062 374.246 251.598 374.789 251.266C375.336 250.932 375.983 250.764 376.728 250.764C377.348 250.764 377.897 250.879 378.374 251.107C378.854 251.333 379.237 251.652 379.522 252.067C379.807 252.478 379.97 252.958 380.01 253.509H378.289C378.22 253.141 378.054 252.834 377.792 252.589C377.534 252.34 377.187 252.216 376.753 252.216C376.385 252.216 376.062 252.315 375.784 252.514C375.505 252.71 375.288 252.991 375.132 253.359C374.98 253.727 374.904 254.168 374.904 254.682C374.904 255.202 374.98 255.65 375.132 256.024C375.285 256.395 375.499 256.682 375.774 256.884C376.052 257.083 376.379 257.183 376.753 257.183C377.018 257.183 377.255 257.133 377.464 257.033C377.676 256.931 377.854 256.783 377.996 256.591C378.139 256.399 378.236 256.165 378.289 255.89H380.01C379.966 256.43 379.807 256.909 379.532 257.327C379.257 257.741 378.883 258.066 378.409 258.301C377.935 258.533 377.378 258.649 376.738 258.649ZM381.347 258.5V250.864H383.092V252.136H383.172C383.311 251.696 383.55 251.356 383.888 251.117C384.229 250.875 384.619 250.754 385.056 250.754C385.156 250.754 385.267 250.759 385.389 250.769C385.515 250.776 385.62 250.787 385.702 250.804V252.46C385.626 252.433 385.505 252.41 385.34 252.39C385.177 252.367 385.02 252.355 384.867 252.355C384.539 252.355 384.244 252.426 383.982 252.569C383.724 252.708 383.52 252.902 383.371 253.151C383.222 253.399 383.147 253.686 383.147 254.011V258.5H381.347ZM386.758 258.5V250.864H388.558V258.5H386.758ZM387.663 249.78C387.378 249.78 387.133 249.685 386.927 249.496C386.722 249.304 386.619 249.074 386.619 248.805C386.619 248.534 386.722 248.303 386.927 248.114C387.133 247.922 387.378 247.826 387.663 247.826C387.951 247.826 388.197 247.922 388.399 248.114C388.604 248.303 388.707 248.534 388.707 248.805C388.707 249.074 388.604 249.304 388.399 249.496C388.197 249.685 387.951 249.78 387.663 249.78ZM390.269 261.364V250.864H392.038V252.126H392.143C392.236 251.941 392.367 251.744 392.536 251.535C392.705 251.323 392.933 251.142 393.222 250.993C393.51 250.84 393.878 250.764 394.325 250.764C394.915 250.764 395.447 250.915 395.921 251.217C396.399 251.515 396.776 251.957 397.055 252.544C397.336 253.127 397.477 253.843 397.477 254.692C397.477 255.53 397.34 256.243 397.065 256.83C396.79 257.416 396.415 257.864 395.941 258.172C395.467 258.48 394.93 258.634 394.33 258.634C393.893 258.634 393.53 258.561 393.242 258.415C392.953 258.27 392.721 258.094 392.546 257.888C392.373 257.68 392.239 257.482 392.143 257.297H392.068V261.364H390.269ZM392.033 254.682C392.033 255.176 392.103 255.608 392.242 255.979C392.385 256.351 392.589 256.641 392.854 256.849C393.122 257.055 393.447 257.158 393.828 257.158C394.226 257.158 394.559 257.052 394.827 256.839C395.096 256.624 395.298 256.331 395.434 255.96C395.573 255.585 395.643 255.159 395.643 254.682C395.643 254.208 395.575 253.787 395.439 253.419C395.303 253.051 395.101 252.763 394.832 252.554C394.564 252.345 394.229 252.241 393.828 252.241C393.444 252.241 393.117 252.342 392.849 252.544C392.58 252.746 392.376 253.03 392.237 253.394C392.101 253.759 392.033 254.188 392.033 254.682ZM402.692 250.864V252.256H398.302V250.864H402.692ZM399.386 249.034H401.185V256.203C401.185 256.445 401.222 256.631 401.295 256.76C401.371 256.886 401.47 256.972 401.593 257.018C401.716 257.065 401.852 257.088 402.001 257.088C402.113 257.088 402.216 257.08 402.309 257.063C402.405 257.047 402.478 257.032 402.528 257.018L402.831 258.425C402.735 258.459 402.597 258.495 402.418 258.535C402.243 258.575 402.027 258.598 401.772 258.604C401.321 258.618 400.915 258.55 400.554 258.401C400.193 258.248 399.906 258.013 399.694 257.695C399.485 257.376 399.382 256.979 399.386 256.501V249.034ZM404.057 258.5V250.864H405.857V258.5H404.057ZM404.962 249.78C404.677 249.78 404.431 249.685 404.226 249.496C404.02 249.304 403.918 249.074 403.918 248.805C403.918 248.534 404.02 248.303 404.226 248.114C404.431 247.922 404.677 247.826 404.962 247.826C405.25 247.826 405.495 247.922 405.698 248.114C405.903 248.303 406.006 248.534 406.006 248.805C406.006 249.074 405.903 249.304 405.698 249.496C405.495 249.685 405.25 249.78 404.962 249.78ZM410.898 258.649C410.153 258.649 409.506 258.485 408.959 258.157C408.412 257.829 407.988 257.37 407.687 256.78C407.388 256.19 407.239 255.5 407.239 254.712C407.239 253.923 407.388 253.232 407.687 252.638C407.988 252.045 408.412 251.585 408.959 251.256C409.506 250.928 410.153 250.764 410.898 250.764C411.644 250.764 412.29 250.928 412.837 251.256C413.384 251.585 413.807 252.045 414.105 252.638C414.407 253.232 414.557 253.923 414.557 254.712C414.557 255.5 414.407 256.19 414.105 256.78C413.807 257.37 413.384 257.829 412.837 258.157C412.29 258.485 411.644 258.649 410.898 258.649ZM410.908 257.207C411.313 257.207 411.651 257.096 411.922 256.874C412.194 256.649 412.396 256.347 412.529 255.969C412.665 255.592 412.733 255.171 412.733 254.707C412.733 254.239 412.665 253.817 412.529 253.439C412.396 253.058 412.194 252.754 411.922 252.529C411.651 252.304 411.313 252.191 410.908 252.191C410.494 252.191 410.149 252.304 409.874 252.529C409.602 252.754 409.398 253.058 409.263 253.439C409.13 253.817 409.064 254.239 409.064 254.707C409.064 255.171 409.13 255.592 409.263 255.969C409.398 256.347 409.602 256.649 409.874 256.874C410.149 257.096 410.494 257.207 410.908 257.207ZM417.745 254.026V258.5H415.945V250.864H417.665V252.161H417.755C417.93 251.734 418.21 251.394 418.595 251.142C418.983 250.89 419.461 250.764 420.032 250.764C420.559 250.764 421.018 250.877 421.409 251.102C421.803 251.328 422.108 251.654 422.323 252.082C422.542 252.509 422.65 253.028 422.647 253.638V258.5H420.847V253.916C420.847 253.406 420.714 253.006 420.449 252.718C420.187 252.43 419.824 252.286 419.36 252.286C419.045 252.286 418.765 252.355 418.52 252.494C418.278 252.63 418.088 252.827 417.948 253.086C417.813 253.344 417.745 253.658 417.745 254.026Z" fill="#121212"/>
<path d="M244.48 229.5V223.682H248.264V224.565H245.534V226.145H248.068V227.028H245.534V228.616H248.287V229.5H244.48ZM253.112 225.136L251.558 229.5H250.421L248.867 225.136H249.964L250.967 228.378H251.012L252.018 225.136H253.112ZM255.527 229.585C255.089 229.585 254.711 229.494 254.393 229.312C254.077 229.129 253.834 228.869 253.663 228.534C253.493 228.197 253.407 227.8 253.407 227.344C253.407 226.895 253.493 226.501 253.663 226.162C253.836 225.821 254.076 225.556 254.385 225.366C254.693 225.175 255.056 225.08 255.473 225.08C255.742 225.08 255.996 225.123 256.234 225.21C256.475 225.295 256.687 225.428 256.871 225.608C257.056 225.788 257.202 226.017 257.308 226.295C257.414 226.572 257.467 226.902 257.467 227.284V227.599H253.89V226.906H256.481C256.479 226.709 256.437 226.534 256.353 226.381C256.27 226.225 256.154 226.103 256.004 226.014C255.856 225.925 255.684 225.881 255.487 225.881C255.277 225.881 255.092 225.932 254.933 226.034C254.774 226.134 254.65 226.267 254.561 226.432C254.474 226.595 254.429 226.774 254.427 226.969V227.574C254.427 227.828 254.474 228.045 254.567 228.227C254.659 228.407 254.789 228.545 254.956 228.642C255.122 228.737 255.318 228.784 255.541 228.784C255.691 228.784 255.826 228.763 255.947 228.722C256.068 228.678 256.174 228.615 256.263 228.531C256.352 228.448 256.419 228.345 256.464 228.222L257.425 228.33C257.364 228.583 257.248 228.805 257.078 228.994C256.909 229.182 256.693 229.328 256.43 229.432C256.167 229.534 255.866 229.585 255.527 229.585ZM259.286 226.943V229.5H258.257V225.136H259.24V225.878H259.291C259.392 225.634 259.552 225.439 259.771 225.295C259.993 225.152 260.267 225.08 260.592 225.08C260.894 225.08 261.156 225.144 261.379 225.273C261.605 225.402 261.779 225.588 261.902 225.832C262.027 226.077 262.089 226.373 262.087 226.722V229.5H261.058V226.881C261.058 226.589 260.983 226.361 260.831 226.196C260.681 226.031 260.474 225.949 260.209 225.949C260.029 225.949 259.869 225.989 259.729 226.068C259.59 226.146 259.482 226.259 259.402 226.406C259.324 226.554 259.286 226.733 259.286 226.943ZM265.231 225.136V225.932H262.723V225.136H265.231ZM263.342 224.091H264.37V228.188C264.37 228.326 264.391 228.432 264.433 228.506C264.476 228.578 264.533 228.627 264.603 228.653C264.673 228.68 264.751 228.693 264.836 228.693C264.901 228.693 264.959 228.688 265.012 228.679C265.067 228.67 265.109 228.661 265.137 228.653L265.311 229.457C265.256 229.476 265.177 229.497 265.075 229.52C264.975 229.543 264.851 229.556 264.706 229.56C264.448 229.567 264.216 229.528 264.01 229.443C263.803 229.356 263.639 229.222 263.518 229.04C263.399 228.858 263.34 228.631 263.342 228.358V224.091Z" fill="#636369"/>
<line x1="243.906" y1="236.244" x2="442.542" y2="236.244" stroke="#121212"/>
<rect x="188.781" y="221.5" width="40" height="40" rx="4" fill="#F1EAFF"/>
<g clip-path="url(#clip1_6584_41820)">
<path d="M218.226 242.056C218.226 240.91 218.022 239.812 217.648 238.796C217.392 241.79 215.796 243.327 214.129 242.611C212.566 241.94 213.619 239.324 213.697 238.076C213.828 235.96 213.69 233.537 209.846 231.523C211.444 234.579 210.031 236.477 208.55 236.593C206.907 236.721 205.402 235.181 205.957 232.681C204.159 234.006 204.106 236.237 204.661 237.681C205.24 239.185 204.638 240.435 203.226 240.574C201.649 240.73 200.772 238.885 201.58 235.945C200.181 237.592 199.337 239.725 199.337 242.056C199.337 247.272 203.565 251.5 208.781 251.5C213.997 251.5 218.226 247.272 218.226 242.056Z" fill="#F4900C"/>
<path d="M214.555 244.832C214.638 246.546 213.133 247.217 212.323 246.893C211.153 246.425 211.466 245.62 211.165 243.953C210.864 242.287 209.707 241.13 207.994 240.62C209.244 244.138 207.301 245.435 206.283 245.667C205.243 245.903 204.198 245.666 204.079 243.441C202.865 244.648 202.114 246.32 202.114 248.166C202.114 248.371 202.127 248.572 202.145 248.772C203.85 250.457 206.193 251.5 208.781 251.5C211.369 251.5 213.711 250.457 215.417 248.772C215.435 248.572 215.448 248.371 215.448 248.166C215.448 246.951 215.123 245.813 214.555 244.832Z" fill="#FFCC4D"/>
</g>
<rect x="401.542" y="225" width="41" height="4" rx="2" fill="#EEF1F7"/>
<rect x="176.781" y="209.5" width="283" height="64" rx="7.5" stroke="#121212"/>
<rect x="176.781" y="352.5" width="283" height="64" rx="7.5" fill="white"/>
<path d="M250.578 393.993C250.525 393.522 250.306 393.158 249.922 392.899C249.537 392.637 249.054 392.506 248.47 392.506C248.053 392.506 247.691 392.573 247.386 392.705C247.081 392.835 246.844 393.013 246.675 393.242C246.51 393.468 246.427 393.724 246.427 394.013C246.427 394.255 246.483 394.464 246.596 394.639C246.712 394.815 246.863 394.962 247.048 395.082C247.237 395.198 247.439 395.295 247.655 395.375C247.87 395.451 248.077 395.514 248.276 395.564L249.271 395.822C249.595 395.902 249.929 396.01 250.27 396.146C250.611 396.281 250.928 396.46 251.219 396.683C251.511 396.905 251.746 397.18 251.925 397.508C252.108 397.836 252.199 398.229 252.199 398.686C252.199 399.263 252.05 399.775 251.751 400.222C251.456 400.67 251.027 401.023 250.464 401.281C249.904 401.54 249.226 401.669 248.43 401.669C247.668 401.669 247.009 401.548 246.452 401.306C245.895 401.064 245.459 400.721 245.144 400.277C244.829 399.83 244.655 399.299 244.622 398.686H246.163C246.193 399.054 246.313 399.361 246.521 399.606C246.733 399.848 247.004 400.028 247.332 400.148C247.663 400.264 248.026 400.322 248.42 400.322C248.855 400.322 249.241 400.254 249.579 400.118C249.92 399.979 250.189 399.786 250.384 399.541C250.58 399.293 250.678 399.003 250.678 398.671C250.678 398.37 250.591 398.123 250.419 397.93C250.25 397.738 250.02 397.579 249.728 397.453C249.44 397.327 249.113 397.216 248.749 397.12L247.545 396.792C246.73 396.57 246.084 396.243 245.607 395.812C245.133 395.382 244.896 394.812 244.896 394.102C244.896 393.516 245.055 393.004 245.373 392.566C245.691 392.129 246.122 391.789 246.665 391.547C247.209 391.302 247.822 391.179 248.505 391.179C249.194 391.179 249.803 391.3 250.33 391.542C250.86 391.784 251.277 392.117 251.582 392.541C251.887 392.962 252.046 393.446 252.06 393.993H250.578ZM257.066 401.654C256.314 401.654 255.666 401.493 255.123 401.172C254.582 400.847 254.165 400.391 253.87 399.805C253.578 399.215 253.432 398.524 253.432 397.732C253.432 396.949 253.578 396.26 253.87 395.663C254.165 395.067 254.576 394.601 255.103 394.266C255.633 393.932 256.253 393.764 256.962 393.764C257.393 393.764 257.811 393.835 258.215 393.978C258.619 394.121 258.982 394.344 259.304 394.649C259.625 394.954 259.879 395.35 260.064 395.837C260.25 396.321 260.343 396.91 260.343 397.602V398.129H254.272V397.016H258.886C258.886 396.625 258.807 396.278 258.647 395.977C258.488 395.672 258.265 395.431 257.976 395.256C257.691 395.08 257.357 394.992 256.972 394.992C256.554 394.992 256.19 395.095 255.878 395.3C255.57 395.503 255.331 395.768 255.162 396.096C254.997 396.421 254.914 396.774 254.914 397.155V398.025C254.914 398.535 255.003 398.969 255.182 399.327C255.365 399.685 255.618 399.959 255.943 400.148C256.268 400.333 256.647 400.426 257.081 400.426C257.363 400.426 257.62 400.386 257.852 400.307C258.084 400.224 258.285 400.101 258.454 399.939C258.623 399.777 258.752 399.576 258.841 399.337L260.248 399.591C260.136 400.005 259.933 400.368 259.642 400.68C259.353 400.988 258.991 401.228 258.553 401.401C258.119 401.57 257.623 401.654 257.066 401.654ZM263.339 396.966V401.5H261.852V393.864H263.279V395.107H263.373C263.549 394.702 263.824 394.377 264.199 394.132C264.577 393.887 265.052 393.764 265.626 393.764C266.146 393.764 266.602 393.874 266.993 394.092C267.384 394.308 267.687 394.629 267.903 395.057C268.118 395.484 268.226 396.013 268.226 396.643V401.5H266.739V396.822C266.739 396.268 266.595 395.836 266.307 395.524C266.018 395.209 265.622 395.052 265.118 395.052C264.774 395.052 264.467 395.126 264.199 395.276C263.934 395.425 263.723 395.643 263.567 395.932C263.415 396.217 263.339 396.562 263.339 396.966ZM272.938 401.649C272.321 401.649 271.771 401.492 271.287 401.177C270.807 400.859 270.429 400.406 270.154 399.82C269.882 399.23 269.746 398.522 269.746 397.697C269.746 396.871 269.884 396.165 270.159 395.579C270.437 394.992 270.818 394.543 271.302 394.232C271.786 393.92 272.335 393.764 272.948 393.764C273.422 393.764 273.803 393.844 274.091 394.003C274.383 394.159 274.608 394.341 274.767 394.55C274.93 394.759 275.056 394.942 275.145 395.102H275.235V391.318H276.721V401.5H275.27V400.312H275.145C275.056 400.474 274.927 400.66 274.758 400.869C274.592 401.077 274.363 401.26 274.071 401.415C273.78 401.571 273.402 401.649 272.938 401.649ZM273.266 400.381C273.694 400.381 274.055 400.269 274.35 400.043C274.648 399.815 274.874 399.498 275.026 399.094C275.182 398.689 275.26 398.219 275.26 397.682C275.26 397.152 275.183 396.687 275.031 396.29C274.879 395.892 274.655 395.582 274.36 395.36C274.065 395.138 273.7 395.027 273.266 395.027C272.819 395.027 272.446 395.143 272.147 395.375C271.849 395.607 271.624 395.924 271.471 396.325C271.322 396.726 271.248 397.178 271.248 397.682C271.248 398.192 271.324 398.651 271.476 399.059C271.629 399.467 271.854 399.79 272.152 400.028C272.454 400.264 272.825 400.381 273.266 400.381ZM285.559 401.654C284.807 401.654 284.159 401.493 283.615 401.172C283.075 400.847 282.657 400.391 282.362 399.805C282.071 399.215 281.925 398.524 281.925 397.732C281.925 396.949 282.071 396.26 282.362 395.663C282.657 395.067 283.068 394.601 283.595 394.266C284.126 393.932 284.746 393.764 285.455 393.764C285.886 393.764 286.303 393.835 286.708 393.978C287.112 394.121 287.475 394.344 287.796 394.649C288.118 394.954 288.371 395.35 288.557 395.837C288.743 396.321 288.836 396.91 288.836 397.602V398.129H282.765V397.016H287.379C287.379 396.625 287.299 396.278 287.14 395.977C286.981 395.672 286.757 395.431 286.469 395.256C286.184 395.08 285.849 394.992 285.465 394.992C285.047 394.992 284.683 395.095 284.371 395.3C284.063 395.503 283.824 395.768 283.655 396.096C283.489 396.421 283.407 396.774 283.407 397.155V398.025C283.407 398.535 283.496 398.969 283.675 399.327C283.857 399.685 284.111 399.959 284.436 400.148C284.76 400.333 285.14 400.426 285.574 400.426C285.856 400.426 286.113 400.386 286.345 400.307C286.577 400.224 286.777 400.101 286.946 399.939C287.115 399.777 287.245 399.576 287.334 399.337L288.741 399.591C288.628 400.005 288.426 400.368 288.135 400.68C287.846 400.988 287.483 401.228 287.046 401.401C286.612 401.57 286.116 401.654 285.559 401.654ZM290.345 401.5V393.864H291.772V395.107H291.866C292.025 394.686 292.285 394.357 292.647 394.122C293.008 393.884 293.44 393.764 293.944 393.764C294.455 393.764 294.882 393.884 295.227 394.122C295.575 394.361 295.832 394.689 295.998 395.107H296.077C296.259 394.699 296.549 394.374 296.947 394.132C297.345 393.887 297.819 393.764 298.369 393.764C299.062 393.764 299.627 393.981 300.064 394.415C300.505 394.85 300.726 395.504 300.726 396.379V401.5H299.239V396.518C299.239 396.001 299.098 395.627 298.816 395.395C298.535 395.163 298.198 395.047 297.807 395.047C297.323 395.047 296.947 395.196 296.679 395.494C296.41 395.789 296.276 396.169 296.276 396.633V401.5H294.794V396.424C294.794 396.01 294.665 395.677 294.407 395.425C294.148 395.173 293.812 395.047 293.397 395.047C293.116 395.047 292.855 395.121 292.617 395.271C292.382 395.416 292.191 395.62 292.045 395.882C291.903 396.144 291.831 396.447 291.831 396.792V401.5H290.345ZM304.8 401.669C304.316 401.669 303.879 401.58 303.488 401.401C303.097 401.218 302.787 400.955 302.558 400.61C302.333 400.265 302.22 399.843 302.22 399.342C302.22 398.911 302.303 398.557 302.469 398.278C302.634 398 302.858 397.78 303.14 397.617C303.421 397.455 303.736 397.332 304.084 397.249C304.432 397.166 304.787 397.103 305.148 397.06C305.606 397.007 305.977 396.964 306.262 396.931C306.547 396.895 306.754 396.837 306.883 396.757C307.013 396.678 307.077 396.548 307.077 396.369V396.335C307.077 395.9 306.955 395.564 306.709 395.325C306.467 395.087 306.106 394.967 305.625 394.967C305.125 394.967 304.731 395.078 304.442 395.3C304.157 395.519 303.96 395.763 303.851 396.031L302.454 395.713C302.619 395.249 302.861 394.875 303.179 394.589C303.501 394.301 303.87 394.092 304.288 393.963C304.706 393.83 305.145 393.764 305.606 393.764C305.911 393.764 306.234 393.801 306.575 393.874C306.92 393.943 307.241 394.072 307.54 394.261C307.841 394.45 308.088 394.72 308.28 395.072C308.473 395.42 308.569 395.872 308.569 396.429V401.5H307.117V400.456H307.057C306.961 400.648 306.817 400.837 306.625 401.023C306.433 401.208 306.186 401.362 305.884 401.485C305.582 401.608 305.221 401.669 304.8 401.669ZM305.123 400.476C305.534 400.476 305.886 400.395 306.177 400.232C306.472 400.07 306.696 399.858 306.848 399.596C307.004 399.331 307.082 399.047 307.082 398.746V397.761C307.029 397.814 306.926 397.864 306.774 397.911C306.625 397.954 306.454 397.992 306.262 398.025C306.07 398.055 305.882 398.083 305.7 398.109C305.518 398.133 305.365 398.152 305.243 398.169C304.954 398.205 304.691 398.267 304.452 398.353C304.217 398.439 304.028 398.563 303.885 398.726C303.746 398.885 303.677 399.097 303.677 399.362C303.677 399.73 303.812 400.009 304.084 400.197C304.356 400.383 304.702 400.476 305.123 400.476ZM310.409 401.5V393.864H311.895V401.5H310.409ZM311.159 392.685C310.901 392.685 310.679 392.599 310.493 392.427C310.311 392.251 310.22 392.042 310.22 391.8C310.22 391.555 310.311 391.346 310.493 391.174C310.679 390.998 310.901 390.911 311.159 390.911C311.418 390.911 311.638 390.998 311.821 391.174C312.006 391.346 312.099 391.555 312.099 391.8C312.099 392.042 312.006 392.251 311.821 392.427C311.638 392.599 311.418 392.685 311.159 392.685ZM315.241 391.318V401.5H313.755V391.318H315.241Z" fill="#636369"/>
<path d="M326.857 391.318H328.702V397.97C328.702 398.699 328.529 399.341 328.185 399.894C327.843 400.448 327.363 400.88 326.743 401.192C326.123 401.5 325.399 401.654 324.57 401.654C323.738 401.654 323.012 401.5 322.393 401.192C321.773 400.88 321.292 400.448 320.951 399.894C320.61 399.341 320.439 398.699 320.439 397.97V391.318H322.283V397.816C322.283 398.24 322.376 398.618 322.562 398.95C322.751 399.281 323.016 399.541 323.357 399.73C323.699 399.916 324.103 400.009 324.57 400.009C325.038 400.009 325.442 399.916 325.783 399.73C326.128 399.541 326.393 399.281 326.579 398.95C326.764 398.618 326.857 398.24 326.857 397.816V391.318ZM330.487 404.364V393.864H332.257V395.126H332.361C332.454 394.941 332.585 394.744 332.754 394.535C332.923 394.323 333.152 394.142 333.44 393.993C333.728 393.84 334.096 393.764 334.544 393.764C335.134 393.764 335.666 393.915 336.14 394.217C336.617 394.515 336.995 394.957 337.273 395.544C337.555 396.127 337.696 396.843 337.696 397.692C337.696 398.53 337.558 399.243 337.283 399.83C337.008 400.416 336.633 400.864 336.159 401.172C335.686 401.48 335.149 401.634 334.549 401.634C334.111 401.634 333.748 401.561 333.46 401.415C333.172 401.27 332.94 401.094 332.764 400.888C332.592 400.68 332.457 400.482 332.361 400.297H332.287V404.364H330.487ZM332.252 397.682C332.252 398.176 332.321 398.608 332.461 398.979C332.603 399.351 332.807 399.641 333.072 399.849C333.341 400.055 333.665 400.158 334.047 400.158C334.444 400.158 334.777 400.052 335.046 399.839C335.314 399.624 335.516 399.331 335.652 398.96C335.792 398.585 335.861 398.159 335.861 397.682C335.861 397.208 335.793 396.787 335.657 396.419C335.521 396.051 335.319 395.763 335.051 395.554C334.782 395.345 334.448 395.241 334.047 395.241C333.662 395.241 333.336 395.342 333.067 395.544C332.799 395.746 332.595 396.03 332.456 396.394C332.32 396.759 332.252 397.188 332.252 397.682ZM342.428 401.649C341.666 401.649 341.011 401.482 340.464 401.147C339.921 400.812 339.501 400.35 339.206 399.76C338.915 399.167 338.769 398.484 338.769 397.712C338.769 396.936 338.918 396.252 339.216 395.658C339.515 395.062 339.935 394.598 340.479 394.266C341.026 393.932 341.672 393.764 342.418 393.764C343.038 393.764 343.586 393.879 344.064 394.107C344.544 394.333 344.927 394.652 345.212 395.067C345.497 395.478 345.659 395.958 345.699 396.509H343.979C343.909 396.141 343.744 395.834 343.482 395.589C343.223 395.34 342.877 395.216 342.443 395.216C342.075 395.216 341.752 395.315 341.473 395.514C341.195 395.71 340.978 395.991 340.822 396.359C340.67 396.727 340.593 397.168 340.593 397.682C340.593 398.202 340.67 398.65 340.822 399.024C340.975 399.395 341.188 399.682 341.463 399.884C341.742 400.083 342.068 400.183 342.443 400.183C342.708 400.183 342.945 400.133 343.154 400.033C343.366 399.931 343.543 399.783 343.686 399.591C343.828 399.399 343.926 399.165 343.979 398.89H345.699C345.656 399.43 345.497 399.909 345.222 400.327C344.947 400.741 344.572 401.066 344.098 401.301C343.624 401.533 343.068 401.649 342.428 401.649ZM350.368 401.649C349.622 401.649 348.976 401.485 348.429 401.157C347.882 400.829 347.458 400.37 347.156 399.78C346.858 399.19 346.709 398.5 346.709 397.712C346.709 396.923 346.858 396.232 347.156 395.638C347.458 395.045 347.882 394.585 348.429 394.256C348.976 393.928 349.622 393.764 350.368 393.764C351.114 393.764 351.76 393.928 352.307 394.256C352.854 394.585 353.276 395.045 353.575 395.638C353.876 396.232 354.027 396.923 354.027 397.712C354.027 398.5 353.876 399.19 353.575 399.78C353.276 400.37 352.854 400.829 352.307 401.157C351.76 401.485 351.114 401.649 350.368 401.649ZM350.378 400.207C350.782 400.207 351.12 400.096 351.392 399.874C351.664 399.649 351.866 399.347 351.999 398.969C352.135 398.592 352.202 398.171 352.202 397.707C352.202 397.239 352.135 396.817 351.999 396.439C351.866 396.058 351.664 395.754 351.392 395.529C351.12 395.304 350.782 395.191 350.378 395.191C349.964 395.191 349.619 395.304 349.344 395.529C349.072 395.754 348.868 396.058 348.732 396.439C348.6 396.817 348.533 397.239 348.533 397.707C348.533 398.171 348.6 398.592 348.732 398.969C348.868 399.347 349.072 399.649 349.344 399.874C349.619 400.096 349.964 400.207 350.378 400.207ZM355.415 401.5V393.864H357.135V395.161H357.224C357.383 394.724 357.647 394.382 358.015 394.137C358.383 393.888 358.822 393.764 359.332 393.764C359.849 393.764 360.285 393.89 360.64 394.142C360.998 394.391 361.25 394.73 361.395 395.161H361.475C361.644 394.737 361.929 394.399 362.33 394.147C362.734 393.892 363.213 393.764 363.767 393.764C364.469 393.764 365.043 393.986 365.487 394.43C365.931 394.875 366.153 395.522 366.153 396.374V401.5H364.349V396.653C364.349 396.179 364.223 395.832 363.971 395.614C363.719 395.392 363.411 395.281 363.046 395.281C362.612 395.281 362.272 395.416 362.027 395.688C361.785 395.957 361.664 396.306 361.664 396.737V401.5H359.899V396.578C359.899 396.184 359.78 395.869 359.541 395.634C359.306 395.398 358.997 395.281 358.616 395.281C358.358 395.281 358.122 395.347 357.91 395.479C357.698 395.609 357.529 395.793 357.403 396.031C357.277 396.267 357.214 396.542 357.214 396.857V401.5H355.415ZM367.839 401.5V393.864H369.639V401.5H367.839ZM368.744 392.78C368.459 392.78 368.214 392.685 368.008 392.496C367.803 392.304 367.7 392.074 367.7 391.805C367.7 391.534 367.803 391.303 368.008 391.114C368.214 390.922 368.459 390.826 368.744 390.826C369.032 390.826 369.277 390.922 369.48 391.114C369.685 391.303 369.788 391.534 369.788 391.805C369.788 392.074 369.685 392.304 369.48 392.496C369.277 392.685 369.032 392.78 368.744 392.78ZM373.149 397.026V401.5H371.349V393.864H373.07V395.161H373.159C373.335 394.734 373.615 394.394 373.999 394.142C374.387 393.89 374.866 393.764 375.436 393.764C375.963 393.764 376.422 393.877 376.813 394.102C377.208 394.328 377.513 394.654 377.728 395.082C377.947 395.509 378.054 396.028 378.051 396.638V401.5H376.251V396.916C376.251 396.406 376.119 396.006 375.854 395.718C375.592 395.43 375.229 395.286 374.765 395.286C374.45 395.286 374.17 395.355 373.925 395.494C373.683 395.63 373.492 395.827 373.353 396.086C373.217 396.344 373.149 396.658 373.149 397.026ZM383.062 404.523C382.415 404.523 381.86 404.435 381.396 404.259C380.932 404.087 380.559 403.855 380.278 403.563C379.996 403.272 379.8 402.948 379.691 402.594L381.312 402.201C381.385 402.35 381.491 402.498 381.63 402.643C381.769 402.793 381.956 402.915 382.192 403.011C382.43 403.111 382.73 403.161 383.092 403.161C383.602 403.161 384.025 403.036 384.359 402.788C384.694 402.542 384.861 402.138 384.861 401.575V400.128H384.772C384.679 400.313 384.543 400.504 384.364 400.7C384.189 400.895 383.955 401.059 383.663 401.192C383.375 401.324 383.012 401.391 382.574 401.391C381.988 401.391 381.456 401.253 380.979 400.978C380.505 400.7 380.127 400.285 379.845 399.735C379.567 399.182 379.427 398.489 379.427 397.657C379.427 396.818 379.567 396.111 379.845 395.534C380.127 394.954 380.506 394.515 380.984 394.217C381.461 393.915 381.993 393.764 382.579 393.764C383.027 393.764 383.395 393.84 383.683 393.993C383.975 394.142 384.207 394.323 384.379 394.535C384.551 394.744 384.682 394.941 384.772 395.126H384.871V393.864H386.646V401.624C386.646 402.277 386.49 402.817 386.179 403.245C385.867 403.673 385.441 403.992 384.901 404.205C384.361 404.417 383.748 404.523 383.062 404.523ZM383.077 399.979C383.458 399.979 383.783 399.886 384.051 399.7C384.319 399.515 384.523 399.248 384.663 398.9C384.802 398.552 384.871 398.134 384.871 397.647C384.871 397.166 384.802 396.746 384.663 396.384C384.527 396.023 384.324 395.743 384.056 395.544C383.791 395.342 383.464 395.241 383.077 395.241C382.676 395.241 382.341 395.345 382.072 395.554C381.804 395.763 381.602 396.049 381.466 396.414C381.33 396.775 381.262 397.186 381.262 397.647C381.262 398.114 381.33 398.524 381.466 398.875C381.605 399.223 381.809 399.495 382.077 399.69C382.349 399.883 382.682 399.979 383.077 399.979ZM391.683 404.364V393.864H393.453V395.126H393.558C393.65 394.941 393.781 394.744 393.95 394.535C394.119 394.323 394.348 394.142 394.636 393.993C394.925 393.84 395.293 393.764 395.74 393.764C396.33 393.764 396.862 393.915 397.336 394.217C397.813 394.515 398.191 394.957 398.47 395.544C398.751 396.127 398.892 396.843 398.892 397.692C398.892 398.53 398.755 399.243 398.479 399.83C398.204 400.416 397.83 400.864 397.356 401.172C396.882 401.48 396.345 401.634 395.745 401.634C395.308 401.634 394.945 401.561 394.656 401.415C394.368 401.27 394.136 401.094 393.96 400.888C393.788 400.68 393.654 400.482 393.558 400.297H393.483V404.364H391.683ZM393.448 397.682C393.448 398.176 393.518 398.608 393.657 398.979C393.8 399.351 394.003 399.641 394.269 399.849C394.537 400.055 394.862 400.158 395.243 400.158C395.641 400.158 395.974 400.052 396.242 399.839C396.511 399.624 396.713 399.331 396.849 398.96C396.988 398.585 397.058 398.159 397.058 397.682C397.058 397.208 396.99 396.787 396.854 396.419C396.718 396.051 396.516 395.763 396.247 395.554C395.979 395.345 395.644 395.241 395.243 395.241C394.858 395.241 394.532 395.342 394.264 395.544C393.995 395.746 393.791 396.03 393.652 396.394C393.516 396.759 393.448 397.188 393.448 397.682ZM402.093 391.318V401.5H400.293V391.318H402.093ZM406.001 401.654C405.517 401.654 405.081 401.568 404.694 401.396C404.309 401.22 404.004 400.961 403.779 400.62C403.557 400.279 403.446 399.858 403.446 399.357C403.446 398.926 403.525 398.57 403.684 398.288C403.843 398.007 404.061 397.781 404.336 397.612C404.611 397.443 404.921 397.316 405.265 397.229C405.613 397.14 405.973 397.075 406.344 397.036C406.792 396.989 407.155 396.948 407.433 396.911C407.711 396.871 407.914 396.812 408.039 396.732C408.169 396.649 408.233 396.522 408.233 396.349V396.32C408.233 395.945 408.122 395.655 407.9 395.45C407.678 395.244 407.358 395.141 406.941 395.141C406.5 395.141 406.15 395.237 405.892 395.43C405.637 395.622 405.464 395.849 405.375 396.111L403.694 395.872C403.827 395.408 404.046 395.02 404.351 394.709C404.655 394.394 405.028 394.159 405.469 394.003C405.91 393.844 406.397 393.764 406.931 393.764C407.299 393.764 407.665 393.807 408.03 393.893C408.394 393.98 408.727 394.122 409.029 394.321C409.33 394.517 409.572 394.783 409.755 395.121C409.94 395.46 410.033 395.882 410.033 396.389V401.5H408.303V400.451H408.243C408.134 400.663 407.98 400.862 407.781 401.048C407.585 401.23 407.338 401.377 407.04 401.49C406.745 401.599 406.399 401.654 406.001 401.654ZM406.468 400.332C406.83 400.332 407.143 400.26 407.408 400.118C407.673 399.972 407.877 399.78 408.02 399.541C408.165 399.303 408.238 399.042 408.238 398.761V397.861C408.182 397.907 408.086 397.95 407.95 397.99C407.817 398.03 407.668 398.065 407.503 398.094C407.337 398.124 407.173 398.151 407.01 398.174C406.848 398.197 406.707 398.217 406.588 398.234C406.319 398.27 406.079 398.33 405.867 398.413C405.655 398.496 405.487 398.612 405.365 398.761C405.242 398.906 405.181 399.095 405.181 399.327C405.181 399.659 405.302 399.909 405.544 400.078C405.786 400.247 406.094 400.332 406.468 400.332ZM413.502 397.026V401.5H411.703V393.864H413.423V395.161H413.512C413.688 394.734 413.968 394.394 414.353 394.142C414.74 393.89 415.219 393.764 415.789 393.764C416.316 393.764 416.775 393.877 417.167 394.102C417.561 394.328 417.866 394.654 418.081 395.082C418.3 395.509 418.408 396.028 418.404 396.638V401.5H416.605V396.916C416.605 396.406 416.472 396.006 416.207 395.718C415.945 395.43 415.582 395.286 415.118 395.286C414.803 395.286 414.523 395.355 414.278 395.494C414.036 395.63 413.846 395.827 413.706 396.086C413.57 396.344 413.502 396.658 413.502 397.026ZM421.203 401.609C420.901 401.609 420.643 401.503 420.427 401.291C420.212 401.079 420.106 400.821 420.109 400.516C420.106 400.217 420.212 399.962 420.427 399.75C420.643 399.538 420.901 399.432 421.203 399.432C421.494 399.432 421.748 399.538 421.963 399.75C422.182 399.962 422.293 400.217 422.296 400.516C422.293 400.718 422.24 400.902 422.137 401.067C422.038 401.233 421.905 401.366 421.74 401.465C421.577 401.561 421.398 401.609 421.203 401.609Z" fill="#121212"/>
<path d="M244.224 367.565V366.682H248.866V367.565H247.068V372.5H246.023V367.565H244.224ZM250.664 369.943V372.5H249.636V366.682H250.642V368.878H250.693C250.795 368.632 250.953 368.437 251.167 368.295C251.383 368.152 251.658 368.08 251.991 368.08C252.294 368.08 252.558 368.143 252.784 368.27C253.009 368.397 253.183 368.582 253.306 368.827C253.431 369.071 253.494 369.369 253.494 369.722V372.5H252.465V369.881C252.465 369.587 252.39 369.359 252.238 369.196C252.089 369.031 251.878 368.949 251.608 368.949C251.426 368.949 251.263 368.989 251.119 369.068C250.977 369.146 250.865 369.259 250.784 369.406C250.704 369.554 250.664 369.733 250.664 369.943ZM256.394 372.585C255.956 372.585 255.579 372.494 255.26 372.312C254.944 372.129 254.701 371.869 254.53 371.534C254.36 371.197 254.275 370.8 254.275 370.344C254.275 369.895 254.36 369.501 254.53 369.162C254.703 368.821 254.943 368.556 255.252 368.366C255.561 368.175 255.923 368.08 256.34 368.08C256.609 368.08 256.863 368.123 257.101 368.21C257.342 368.295 257.554 368.428 257.738 368.608C257.923 368.788 258.069 369.017 258.175 369.295C258.281 369.572 258.334 369.902 258.334 370.284V370.599H254.758V369.906H257.349C257.347 369.709 257.304 369.534 257.221 369.381C257.137 369.225 257.021 369.103 256.871 369.014C256.724 368.925 256.551 368.881 256.354 368.881C256.144 368.881 255.959 368.932 255.8 369.034C255.641 369.134 255.517 369.267 255.428 369.432C255.341 369.595 255.296 369.774 255.295 369.969V370.574C255.295 370.828 255.341 371.045 255.434 371.227C255.527 371.407 255.656 371.545 255.823 371.642C255.99 371.737 256.185 371.784 256.408 371.784C256.558 371.784 256.693 371.763 256.814 371.722C256.936 371.678 257.041 371.615 257.13 371.531C257.219 371.448 257.286 371.345 257.331 371.222L258.292 371.33C258.231 371.583 258.116 371.805 257.945 371.994C257.777 372.182 257.561 372.328 257.297 372.432C257.034 372.534 256.733 372.585 256.394 372.585ZM260.153 369.943V372.5H259.124V368.136H260.107V368.878H260.158C260.259 368.634 260.419 368.439 260.639 368.295C260.86 368.152 261.134 368.08 261.46 368.08C261.761 368.08 262.023 368.144 262.247 368.273C262.472 368.402 262.646 368.588 262.769 368.832C262.894 369.077 262.956 369.373 262.954 369.722V372.5H261.925V369.881C261.925 369.589 261.85 369.361 261.698 369.196C261.549 369.031 261.341 368.949 261.076 368.949C260.896 368.949 260.736 368.989 260.596 369.068C260.458 369.146 260.349 369.259 260.269 369.406C260.192 369.554 260.153 369.733 260.153 369.943Z" fill="#636369"/>
<line x1="243.906" y1="379.244" x2="443.282" y2="379.244" stroke="#121212"/>
<rect x="188.781" y="364.5" width="40" height="40" rx="4" fill="#E6EBFF"/>
<g clip-path="url(#clip2_6584_41820)">
<path d="M211.226 393.667C211.226 395.017 206.337 395.017 206.337 393.667V387.556C206.337 386.206 207.431 385.111 208.781 385.111C210.131 385.111 211.226 386.206 211.226 387.556V393.667Z" fill="#C1694F"/>
<path d="M203.893 375.333C201.193 375.333 199.004 377.522 199.004 380.222V387.555H208.782V380.222C208.782 377.522 206.593 375.333 203.893 375.333Z" fill="#292F33"/>
<path d="M210.003 384.965C210.003 385.721 209.353 386.334 208.602 386.334H199.183C198.431 386.334 197.781 385.721 197.781 384.965V378.535C197.781 377.78 198.431 377.167 199.183 377.167H208.602C209.353 377.167 210.003 377.78 210.003 378.535V384.965V384.965Z" fill="#CCD6DD"/>
<path d="M210.003 378.535C210.003 377.78 209.353 377.167 208.602 377.167H199.183C198.431 377.167 197.781 377.78 197.781 378.535V379.402L200.763 382.399L197.842 385.336C197.91 385.566 198.035 385.774 198.206 385.937L201.244 382.883L202.715 384.361C203.358 385.009 204.407 385.009 205.05 384.361L206.533 382.875L209.579 385.937C209.75 385.773 209.874 385.565 209.943 385.336L207.015 382.392L210.003 379.395V378.535Z" fill="#99AAB5"/>
<path d="M208.603 377.167H199.183C198.47 377.167 197.856 377.721 197.794 378.423L202.932 383.554C203.463 384.088 204.324 384.068 204.854 383.533L209.994 378.433C209.936 377.726 209.318 377.167 208.603 377.167Z" fill="#E1E8ED"/>
<path d="M213.67 375.333H203.893C206.592 375.333 208.781 377.522 208.781 380.222V387.555H218.559V380.222C218.559 377.522 216.37 375.333 213.67 375.333Z" fill="#99AAB5"/>
<path d="M213.671 374.111H211.226C210.551 374.111 210.004 374.659 210.004 375.334V382.667C210.004 383.342 210.551 383.889 211.226 383.889C211.901 383.889 212.448 383.342 212.448 382.667V377.778H213.671C214.345 377.778 214.893 377.23 214.893 376.556V375.334C214.893 374.659 214.345 374.111 213.671 374.111Z" fill="#DD2E44"/>
</g>
<rect x="402.281" y="368" width="41" height="4" rx="2" fill="#EEF1F7"/>
<rect x="176.781" y="352.5" width="283" height="64" rx="7.5" stroke="#121212"/>
<rect x="315.283" y="281.969" width="6" height="6" rx="3" fill="#121212"/>
<path d="M318.628 344.238C318.474 344.505 318.089 344.505 317.935 344.238L315.164 339.438C315.01 339.171 315.202 338.838 315.51 338.838L321.053 338.838C321.36 338.838 321.553 339.171 321.399 339.438L318.628 344.238Z" fill="#121212"/>
<line x1="318.244" y1="287.543" x2="318.244" y2="341.729" stroke="#121212"/>
<rect x="-1" y="1" width="419" height="345" rx="7" transform="matrix(-1 0 0 1 526.781 125.404)" stroke="#E1E8F2" stroke-width="2" stroke-dasharray="8 8"/>
<defs>
<clipPath id="clip0_6584_41820">
<rect width="22" height="22" fill="white" transform="translate(131.781 149.309)"/>
</clipPath>
<clipPath id="clip1_6584_41820">
<rect width="20" height="20" fill="white" transform="translate(198.781 231.5)"/>
</clipPath>
<clipPath id="clip2_6584_41820">
<rect width="22" height="22" fill="white" transform="translate(197.781 373.5)"/>
</clipPath>
</defs>
</svg>
