<svg width="175" height="35" viewBox="0 0 175 35" fill="none" xmlns="http://www.w3.org/2000/svg">
<g clip-path="url(#clip0_6344_40279)">
<path d="M11.1305 33.6861H4.54022V17.2573H0.0507812V11.9084H4.54004V8.1023C4.54004 3.59205 6.52565 0.35733 13.0981 0.35733C14.4882 0.35733 16.6706 0.637516 16.6706 0.637516V5.60424H14.3784C12.0428 5.60424 11.1309 6.31468 11.1309 8.27877V11.9084H16.5831L16.0976 17.2573H11.1307L11.1305 33.6861ZM26.2521 11.481C26.1561 11.481 26.0573 11.4845 25.9595 11.4869C19.8486 11.4869 17.0527 16.0836 17.0527 22.6086C17.0527 30.8284 20.6794 34.1182 26.0073 34.1182C29.0555 34.1182 31.0583 32.8352 32.2756 30.4409V33.6883H38.5439V11.9107H32.2756V15.2598C31.2816 13.1051 29.2229 11.5065 26.2521 11.481ZM27.846 16.627C30.4126 16.627 31.9531 18.4172 31.9531 21.4623L31.959 24.5725C31.959 26.625 30.6866 29.0261 27.846 29.0261C23.4788 29.0261 23.5954 24.3105 23.5954 22.74C23.5954 17.4568 25.9223 16.627 27.846 16.627ZM41.0753 22.8007C41.0753 20.1543 40.9487 11.4951 52.2303 11.4951C56.7589 11.4951 58.6499 12.9351 58.6499 12.9351L57.13 17.6491C57.13 17.6491 55.2415 16.6091 52.7807 16.6091C49.6289 16.6091 47.6177 18.4363 47.6177 21.6511L47.6212 23.9562C47.6212 27.0452 49.5617 29.1073 52.7872 29.1073C55.029 29.1073 57.0952 28.0575 57.0952 28.0575L58.6112 32.6731C58.6112 32.6731 56.8822 34.1221 52.2619 34.1221C41.5201 34.1221 41.0755 26.3532 41.0755 22.8007H41.0753ZM95.4033 11.4869C101.514 11.4869 104.354 16.0836 104.354 22.6086C104.354 30.8284 100.728 34.1182 95.3996 34.1182C92.3513 34.1182 90.098 32.8354 88.8807 30.4409V33.6883L82.6912 33.6859V1.01949L89.2628 0.446353V14.9647C90.2113 12.4247 93.3283 11.4869 95.4035 11.4869H95.4033ZM93.5609 16.627C90.9943 16.627 89.2628 18.4172 89.2628 21.4623L89.2567 24.5725C89.2529 26.625 90.4558 29.0261 93.5609 29.0261C97.9281 29.0261 97.8114 24.3105 97.8114 22.74C97.8114 17.4568 95.4848 16.627 93.5609 16.627ZM70.0521 11.5049C63.121 11.5049 59.4618 15.2839 59.4618 21.9996V23.2473C59.4618 31.9637 64.6004 34.2078 70.7267 34.2078C76.6814 34.2078 79.3768 32.5422 79.3768 32.5422L78.1471 28.1069C78.1471 28.1069 74.9765 29.4558 71.5146 29.4558C67.9257 29.4558 66.3823 28.5411 65.9866 25.0922H79.9022V21.5339C79.9022 14.2491 75.7954 11.5047 70.052 11.5047L70.0521 11.5049ZM70.2192 15.9463C72.6184 15.9463 74.173 17.4175 74.0877 20.8296H65.9987C66.139 17.2384 67.8155 15.9464 70.2192 15.9464V15.9463ZM117.458 11.475C110.34 11.475 106.593 15.4861 106.593 22.6742C106.593 32.5367 113.052 34.1242 117.47 34.1242C123.937 34.1242 128.239 30.6425 128.239 22.7638C128.239 14.5633 123.402 11.475 117.458 11.475ZM117.368 16.6448C120.498 16.6448 121.738 18.9872 121.738 21.6535V23.9459C121.738 27.1759 120.003 29.0441 117.356 29.0441C114.881 29.0441 113.142 27.2966 113.142 23.9459V21.6535C113.142 18.08 115.212 16.6448 117.368 16.6448ZM141.331 11.475C134.213 11.475 130.466 15.4861 130.466 22.6742C130.466 32.5367 136.925 34.1242 141.343 34.1242C147.81 34.1242 152.112 30.6425 152.112 22.7638C152.112 14.5633 147.274 11.475 141.331 11.475ZM141.241 16.6448C144.371 16.6448 145.611 18.9872 145.611 21.6535V23.9459C145.611 27.1759 143.876 29.0441 141.229 29.0441C138.754 29.0441 137.015 27.2966 137.015 23.9459V21.6535C137.015 18.08 139.085 16.6448 141.241 16.6448ZM154.596 33.6861V1.01949L161.186 0.446353V22.3415L167.725 11.9084H174.685L167.864 22.7141L174.948 33.6861H167.968L161.186 23.0324V33.6861H154.596Z" fill="#1877F2"/>
</g>
<defs>
<clipPath id="clip0_6344_40279">
<rect width="174.897" height="34" fill="white" transform="translate(0.0507812 0.282562)"/>
</clipPath>
</defs>
</svg>
