<svg width="32" height="32" viewBox="0 0 32 32" fill="none" xmlns="http://www.w3.org/2000/svg">
<path d="M31.9875 14.3853C31.9979 14.2026 32 14.0218 32 13.8371C32 13.5158 31.9875 13.1924 31.9624 12.8771C31.3926 5.68144 24.4624 0 15.9979 0C7.16399 0 0 6.19556 0 13.8391C0 19.7073 4.22283 24.722 10.1824 26.7363C11.9379 27.3287 12.9002 29.1442 12.3742 30.8613L12.0256 32C16.1712 29.8612 20.5923 27.9312 24.4937 25.3988C27.773 23.272 30.9187 20.131 31.7474 16.2892H17.0521C15.9353 18.659 13.2467 20.3279 10.1052 20.3279C6.79452 20.3279 3.98278 18.4722 2.98917 15.8976C2.80339 15.4196 2.68023 14.9135 2.62805 14.3873V14.3853H31.9875V14.3853ZM10.1052 7.34831C13.7122 7.34831 16.7264 9.5514 17.4445 12.4875H2.76373C3.48389 9.5514 6.49393 7.34831 10.1052 7.34831Z" fill="#00CC74"/>
</svg>
