<svg width="608" height="561" viewBox="0 0 608 561" fill="none" xmlns="http://www.w3.org/2000/svg">
<path d="M559.504 -30.96L559.504 47.6796M559.504 592.153L559.504 311.843M559.504 246.101L559.504 97.8826" stroke="#97969C" stroke-dasharray="4 4"/>
<path d="M457.312 -30.583L457.313 371.462M457.313 591.978L457.313 396.135" stroke="#97969C" stroke-dasharray="4 4"/>
<path d="M355.621 -30.7725L355.621 134.021M355.621 591.975L355.621 510.729M355.621 216.736L355.621 461.13" stroke="#97969C" stroke-dasharray="4 4"/>
<path d="M252.93 -30.583L252.93 60.1604M252.93 591.971L252.93 84.4628" stroke="#97969C" stroke-dasharray="4 4"/>
<path d="M150.739 -30.7705L150.738 342.922M150.738 591.979L150.738 425.995" stroke="#97969C" stroke-dasharray="4 4"/>
<path d="M48.547 -30.9619L48.5469 152.866M48.5469 591.968L48.5469 288.95M48.5469 198.885L48.5469 271.716" stroke="#97969C" stroke-dasharray="4 4"/>
<path d="M0 487.649L330.227 487.649M608 487.649L379.607 487.649" stroke="#97969C" stroke-dasharray="4 4"/>
<path d="M0 383.856H112.263M608 383.856L469.346 383.856M190.468 383.856H444.674" stroke="#97969C" stroke-dasharray="4 4"/>
<path d="M0 176.271H25.6723M608 176.271L396.708 176.271M316 176.271L73.3582 176.271" stroke="#97969C" stroke-dasharray="4 4"/>
<path d="M0 280.063H39.4795M608 280.063H592.678M527.354 280.063L57.1204 280.063" stroke="#97969C" stroke-dasharray="4 4"/>
<path d="M0 72.4775L239.558 72.4775M608 72.4775H582.879M534.54 72.4775L265.522 72.4775" stroke="#97969C" stroke-dasharray="4 4"/>
<path d="M355.621 511.63L365.803 497.812L379.621 487.63L365.803 477.448L355.621 463.63L345.439 477.448L331.621 487.63L345.439 497.812L355.621 511.63Z" stroke="#97969C" stroke-dasharray="4 4"/>
<path d="M559.48 96.3955L569.663 82.5778L583.48 72.3955L569.663 62.2132L559.48 48.3955L549.298 62.2132L535.48 72.3955L549.298 82.5778L559.48 96.3955Z" stroke="#97969C" stroke-dasharray="4 4"/>
<path d="M48.6016 200.126L58.7839 186.308L72.6016 176.126L58.7839 165.944L48.6016 152.126L38.4192 165.944L24.6016 176.126L38.4192 186.308L48.6016 200.126Z" stroke="#97969C" stroke-dasharray="4 4"/>
<path d="M559.469 311.979L573.045 293.556L591.469 279.979L573.045 266.403L559.469 247.979L545.892 266.403L527.469 279.979L545.892 293.556L559.469 311.979Z" stroke="#97969C" stroke-dasharray="4 4"/>
<path d="M150.754 423.886L167.724 400.856L190.754 383.886L167.724 366.915L150.754 343.886L133.783 366.915L110.754 383.886L133.783 400.856L150.754 423.886Z" stroke="#97969C" stroke-dasharray="4 4"/>
<path d="M355.621 216.276L372.592 193.247L395.621 176.276L372.592 159.306L355.621 136.276L338.651 159.306L315.621 176.276L338.651 193.247L355.621 216.276Z" stroke="#97969C" stroke-dasharray="4 4"/>
<circle r="12" transform="matrix(1 0 0 -1 457.246 383.856)" stroke="#97969C" stroke-dasharray="4 4"/>
<circle r="8" transform="matrix(1 0 0 -1 48.5469 280.063)" stroke="#97969C" stroke-dasharray="4 4"/>
<circle r="12" transform="matrix(1 0 0 -1 252.598 72.4775)" stroke="#97969C" stroke-dasharray="4 4"/>
<rect x="-2" y="2" width="441.955" height="422.315" rx="6" transform="matrix(-1 0 0 1 543.328 74.001)" fill="#121212"/>
<rect x="-2" y="2" width="441.955" height="422.315" rx="6" transform="matrix(-1 0 0 1 543.328 74.001)" stroke="#121212" stroke-width="4"/>
<rect x="-2" y="2" width="441.12" height="419.085" rx="6" transform="matrix(-1 0 0 1 525.039 61.082)" fill="#F5F6F8"/>
<rect x="-2" y="2" width="441.12" height="419.085" rx="6" transform="matrix(-1 0 0 1 525.039 61.082)" stroke="#121212" stroke-width="4"/>
<rect x="96" y="74" width="422" height="38" rx="4" fill="white"/>
<rect x="113" y="88" width="10" height="10" rx="5" fill="#EB5757"/>
<rect x="131" y="88" width="10" height="10" rx="5" fill="#F2C94C"/>
<rect x="149" y="88" width="10" height="10" rx="5" fill="#27AE60"/>
<path d="M492.438 87C492.438 86.4477 491.99 86 491.438 86C490.885 86 490.438 86.4477 490.438 87H492.438ZM490.438 99C490.438 99.5523 490.885 100 491.438 100C491.99 100 492.438 99.5523 492.438 99H490.438ZM490.438 87V99H492.438V87H490.438Z" fill="#E7EDF5"/>
<path d="M497.437 94C497.99 94 498.437 93.5523 498.438 93C498.438 92.4477 497.99 92 497.438 92L497.437 94ZM485.438 92C484.885 92 484.438 92.4477 484.438 93C484.437 93.5523 484.885 94 485.437 94L485.438 92ZM497.438 92L485.438 92L485.437 94L497.437 94L497.438 92Z" fill="#E7EDF5"/>
<rect x="-1" y="1" width="419" height="345" rx="7" transform="matrix(-1 0 0 1 515 125)" fill="#F5F6F8"/>
<path d="M148.844 166L149.834 163.318H154.946L155.918 166H158.852L154.406 153.94H150.482L146.036 166H148.844ZM151.4 159.034L152.318 156.316H152.498L153.38 159.034L154.064 160.906H150.716L151.4 159.034ZM163.459 166.18C165.043 166.18 165.997 165.46 166.501 164.416H166.591V166H169.093V156.946H166.411V162.076C166.411 163.444 165.853 163.858 164.557 163.858C163.207 163.858 162.775 163.408 162.775 162.148V156.946H160.093V162.688C160.093 164.614 161.083 166.18 163.459 166.18ZM175.393 166.036C176.023 166.036 176.725 165.946 177.157 165.856V163.606H176.041C174.871 163.606 174.601 163.516 174.601 162.724V159.178H177.157V156.946H174.601V154.84H172.477L171.973 156.946H170.461V159.178H171.901V163.03C171.901 165.172 173.035 166.036 175.393 166.036ZM183.02 166.18C185.918 166.18 187.61 164.344 187.61 161.482C187.61 158.602 185.918 156.766 183.02 156.766C180.104 156.766 178.376 158.602 178.376 161.482C178.376 164.344 180.104 166.18 183.02 166.18ZM183.02 163.804C181.544 163.804 181.04 163.228 181.04 161.482C181.04 159.718 181.544 159.142 183.02 159.142C184.478 159.142 184.982 159.718 184.982 161.482C184.982 163.228 184.478 163.804 183.02 163.804ZM192.065 166V160.762C192.065 159.484 192.605 159.088 193.829 159.088C195.125 159.088 195.521 159.538 195.521 160.798V166H198.221V160.798C198.221 159.484 198.743 159.088 199.967 159.088C201.281 159.088 201.659 159.538 201.659 160.798V166H204.359V160.258C204.359 158.332 203.405 156.766 201.065 156.766C199.391 156.766 198.491 157.54 197.987 158.53H197.897C197.447 157.468 196.511 156.766 194.963 156.766C193.415 156.766 192.479 157.504 191.993 158.53H191.885V156.946H189.383V166H192.065ZM208.966 166.18C210.64 166.18 211.558 165.442 212.044 164.776H212.152V166H214.654V160.636C214.654 158.224 213.25 156.766 210.586 156.766C208.03 156.766 206.356 158.188 206.356 160.348V160.546H208.93V160.348C208.93 159.43 209.362 159.124 210.46 159.124C211.522 159.124 212.098 159.322 212.098 160.384V160.672L209.002 161.14C207.13 161.428 206.122 162.292 206.122 163.696C206.122 165.334 207.364 166.18 208.966 166.18ZM208.696 163.48C208.696 163.102 208.948 162.922 209.506 162.832L212.098 162.436C212.098 163.84 210.964 164.128 209.866 164.128C209.074 164.128 208.696 163.966 208.696 163.48ZM220.9 166.036C221.53 166.036 222.232 165.946 222.664 165.856V163.606H221.548C220.378 163.606 220.108 163.516 220.108 162.724V159.178H222.664V156.946H220.108V154.84H217.984L217.48 156.946H215.968V159.178H217.408V163.03C217.408 165.172 218.542 166.036 220.9 166.036ZM226.957 155.92V153.94H224.275L224.311 155.92H226.957ZM227.011 166V156.946H224.311V166H227.011ZM233.269 166.18C236.167 166.18 237.859 164.344 237.859 161.482C237.859 158.602 236.167 156.766 233.269 156.766C230.353 156.766 228.625 158.602 228.625 161.482C228.625 164.344 230.353 166.18 233.269 166.18ZM233.269 163.804C231.793 163.804 231.289 163.228 231.289 161.482C231.289 159.718 231.793 159.142 233.269 159.142C234.727 159.142 235.231 159.718 235.231 161.482C235.231 163.228 234.727 163.804 233.269 163.804ZM242.313 166V160.87C242.313 159.502 242.871 159.088 244.167 159.088C245.535 159.088 245.949 159.538 245.949 160.798V166H248.649V160.258C248.649 158.332 247.641 156.766 245.283 156.766C243.699 156.766 242.727 157.504 242.241 158.53H242.133V156.946H239.631V166H242.313ZM254.714 166.18C257.216 166.18 258.602 165.1 258.602 163.408C258.602 161.932 257.81 161.068 255.902 160.708L254.246 160.366C253.166 160.15 253.004 160.024 253.004 159.592C253.004 159.16 253.256 158.926 254.336 158.926C255.488 158.926 255.74 159.25 255.74 159.844V160.096H258.314V159.844C258.314 157.81 256.622 156.766 254.408 156.766C251.834 156.766 250.466 157.954 250.466 159.628C250.466 161.302 251.438 162.058 253.22 162.382L254.588 162.634C255.794 162.85 256.046 162.958 256.046 163.444C256.046 163.894 255.866 164.056 254.768 164.056C253.454 164.056 253.058 163.912 253.058 163.246V162.868H250.484V162.922C250.484 165.118 251.87 166.18 254.714 166.18Z" fill="black"/>
<path d="M141.605 167.728L126.111 152.234L123.234 155.111L138.728 170.605C138.766 170.642 139.103 170.966 139.579 170.966C139.869 170.966 140.147 170.841 140.383 170.605L141.605 169.383C141.937 169.05 142.212 168.335 141.605 167.728Z" fill="#8899A6"/>
<path d="M138.333 170.389C138.27 170.389 138.204 170.379 138.14 170.357C137.82 170.251 137.647 169.905 137.754 169.584L138.976 165.918C139.083 165.598 139.425 165.424 139.749 165.531C140.069 165.638 140.242 165.984 140.135 166.304L138.913 169.971C138.828 170.227 138.589 170.389 138.333 170.389ZM136.5 168.556C136.436 168.556 136.371 168.545 136.307 168.524C135.987 168.418 135.814 168.072 135.921 167.751L137.143 164.084C137.249 163.765 137.593 163.59 137.916 163.698C138.235 163.804 138.409 164.15 138.302 164.471L137.08 168.138C136.994 168.394 136.756 168.556 136.5 168.556ZM134.667 166.722C134.603 166.722 134.538 166.712 134.473 166.691C134.154 166.584 133.98 166.238 134.087 165.918L135.309 162.251C135.416 161.931 135.759 161.757 136.082 161.865C136.402 161.971 136.576 162.317 136.469 162.638L135.246 166.304C135.161 166.56 134.923 166.722 134.667 166.722ZM132.833 164.889C132.77 164.889 132.704 164.879 132.64 164.857C132.32 164.751 132.147 164.405 132.254 164.084L133.476 160.418C133.582 160.098 133.926 159.923 134.249 160.031C134.569 160.138 134.742 160.484 134.635 160.804L133.413 164.471C133.328 164.727 133.089 164.889 132.833 164.889ZM129.778 161.834C129.714 161.834 129.649 161.823 129.585 161.802C129.264 161.695 129.091 161.35 129.198 161.029L130.421 157.362C130.527 157.042 130.873 156.868 131.194 156.976C131.514 157.083 131.687 157.429 131.58 157.749L130.358 161.416C130.272 161.672 130.034 161.834 129.778 161.834ZM127.944 160C127.881 160 127.815 159.99 127.751 159.968C127.431 159.861 127.258 159.516 127.365 159.195L128.587 155.529C128.694 155.209 129.039 155.034 129.36 155.142C129.68 155.249 129.853 155.595 129.746 155.916L128.524 159.582C128.439 159.838 128.2 160 127.944 160ZM126.111 158.167C126.047 158.167 125.982 158.156 125.918 158.135C125.598 158.028 125.425 157.682 125.532 157.362L126.754 153.695C126.861 153.376 127.206 153.202 127.527 153.309C127.847 153.416 128.02 153.762 127.913 154.082L126.691 157.749C126.605 158.005 126.367 158.167 126.111 158.167Z" fill="#66757F"/>
<path d="M127.944 164.278C127.944 164.278 127.333 163.667 127.944 163.056L134.056 156.944C134.056 156.944 134.667 156.333 135.278 156.944L137.111 158.778C137.111 158.778 137.722 159.389 137.111 160L131 166.111C131 166.111 130.389 166.722 129.778 166.111L127.944 164.278Z" fill="#CCD6DD"/>
<path d="M127.944 163.055C127.333 163.666 127.944 164.277 127.944 164.277L129.778 166.111C130.389 166.722 131 166.111 131 166.111L132.222 164.889L129.167 161.833L127.944 163.055Z" fill="#8899A6"/>
<path d="M137.111 160C137.722 159.389 137.111 158.778 137.111 158.778L135.278 156.944C134.667 156.333 134.056 156.944 134.056 156.944L132.833 158.167L135.889 161.222L137.111 160Z" fill="#E1E8ED"/>
<path d="M120.611 156.945C120.611 156.945 120 156.334 120.611 155.723L126.722 149.611C126.722 149.611 127.333 149 127.944 149.611L129.778 151.445C129.778 151.445 130.389 152.056 129.778 152.667L123.667 158.778C123.667 158.778 123.055 159.389 122.444 158.778L120.611 156.945Z" fill="#CCD6DD"/>
<path d="M120.611 155.722C120 156.333 120.611 156.944 120.611 156.944L122.444 158.778C123.055 159.389 123.667 158.778 123.667 158.778L124.889 157.556L121.833 154.5L120.611 155.722Z" fill="#8899A6"/>
<path d="M129.778 152.667C130.389 152.056 129.778 151.445 129.778 151.445L127.944 149.611C127.333 149 126.722 149.611 126.722 149.611L125.5 150.834L128.556 153.889L129.778 152.667Z" fill="#E1E8ED"/>
<line x1="120" y1="186.021" x2="484.145" y2="186.021" stroke="#DFE7F2" stroke-width="2"/>
<rect x="199" y="209.5" width="215" height="64" rx="7.5" fill="white"/>
<path d="M268.437 258.5H266.468L270.053 248.318H272.33L275.919 258.5H273.95L271.231 250.406H271.151L268.437 258.5ZM268.501 254.508H273.871V255.989H268.501V254.508ZM280.139 258.649C279.377 258.649 278.722 258.482 278.175 258.147C277.632 257.812 277.213 257.35 276.918 256.76C276.626 256.167 276.48 255.484 276.48 254.712C276.48 253.936 276.629 253.252 276.927 252.658C277.226 252.062 277.647 251.598 278.19 251.266C278.737 250.932 279.383 250.764 280.129 250.764C280.749 250.764 281.297 250.879 281.775 251.107C282.255 251.333 282.638 251.652 282.923 252.067C283.208 252.478 283.371 252.958 283.41 253.509H281.69C281.621 253.141 281.455 252.834 281.193 252.589C280.935 252.34 280.588 252.216 280.154 252.216C279.786 252.216 279.463 252.315 279.185 252.514C278.906 252.71 278.689 252.991 278.533 253.359C278.381 253.727 278.305 254.168 278.305 254.682C278.305 255.202 278.381 255.65 278.533 256.024C278.686 256.395 278.9 256.682 279.175 256.884C279.453 257.083 279.78 257.183 280.154 257.183C280.419 257.183 280.656 257.133 280.865 257.033C281.077 256.931 281.254 256.783 281.397 256.591C281.539 256.399 281.637 256.165 281.69 255.89H283.41C283.367 256.43 283.208 256.909 282.933 257.327C282.658 257.741 282.284 258.066 281.81 258.301C281.336 258.533 280.779 258.649 280.139 258.649ZM288.079 258.649C287.317 258.649 286.662 258.482 286.115 258.147C285.572 257.812 285.153 257.35 284.858 256.76C284.566 256.167 284.42 255.484 284.42 254.712C284.42 253.936 284.569 253.252 284.868 252.658C285.166 252.062 285.587 251.598 286.13 251.266C286.677 250.932 287.324 250.764 288.069 250.764C288.689 250.764 289.238 250.879 289.715 251.107C290.195 251.333 290.578 251.652 290.863 252.067C291.148 252.478 291.311 252.958 291.351 253.509H289.63C289.561 253.141 289.395 252.834 289.133 252.589C288.875 252.34 288.528 252.216 288.094 252.216C287.726 252.216 287.403 252.315 287.125 252.514C286.846 252.71 286.629 252.991 286.473 253.359C286.321 253.727 286.245 254.168 286.245 254.682C286.245 255.202 286.321 255.65 286.473 256.024C286.626 256.395 286.84 256.682 287.115 256.884C287.393 257.083 287.72 257.183 288.094 257.183C288.359 257.183 288.596 257.133 288.805 257.033C289.017 256.931 289.194 256.783 289.337 256.591C289.48 256.399 289.577 256.165 289.63 255.89H291.351C291.307 256.43 291.148 256.909 290.873 257.327C290.598 257.741 290.224 258.066 289.75 258.301C289.276 258.533 288.719 258.649 288.079 258.649ZM296.019 258.649C295.274 258.649 294.627 258.485 294.08 258.157C293.533 257.829 293.109 257.37 292.808 256.78C292.509 256.19 292.36 255.5 292.36 254.712C292.36 253.923 292.509 253.232 292.808 252.638C293.109 252.045 293.533 251.585 294.08 251.256C294.627 250.928 295.274 250.764 296.019 250.764C296.765 250.764 297.411 250.928 297.958 251.256C298.505 251.585 298.928 252.045 299.226 252.638C299.528 253.232 299.678 253.923 299.678 254.712C299.678 255.5 299.528 256.19 299.226 256.78C298.928 257.37 298.505 257.829 297.958 258.157C297.411 258.485 296.765 258.649 296.019 258.649ZM296.029 257.207C296.434 257.207 296.772 257.096 297.043 256.874C297.315 256.649 297.517 256.347 297.65 255.969C297.786 255.592 297.854 255.171 297.854 254.707C297.854 254.239 297.786 253.817 297.65 253.439C297.517 253.058 297.315 252.754 297.043 252.529C296.772 252.304 296.434 252.191 296.029 252.191C295.615 252.191 295.27 252.304 294.995 252.529C294.723 252.754 294.52 253.058 294.384 253.439C294.251 253.817 294.185 254.239 294.185 254.707C294.185 255.171 294.251 255.592 294.384 255.969C294.52 256.347 294.723 256.649 294.995 256.874C295.27 257.096 295.615 257.207 296.029 257.207ZM305.933 255.288V250.864H307.733V258.5H305.988V257.143H305.908C305.736 257.57 305.452 257.92 305.058 258.192C304.667 258.464 304.185 258.599 303.611 258.599C303.111 258.599 302.668 258.488 302.284 258.266C301.903 258.041 301.604 257.714 301.389 257.287C301.174 256.856 301.066 256.336 301.066 255.726V250.864H302.866V255.447C302.866 255.931 302.998 256.316 303.263 256.601C303.528 256.886 303.876 257.028 304.307 257.028C304.573 257.028 304.829 256.964 305.078 256.835C305.327 256.705 305.53 256.513 305.689 256.258C305.852 255.999 305.933 255.676 305.933 255.288ZM311.243 254.026V258.5H309.443V250.864H311.164V252.161H311.253C311.429 251.734 311.709 251.394 312.093 251.142C312.481 250.89 312.96 250.764 313.53 250.764C314.057 250.764 314.516 250.877 314.907 251.102C315.302 251.328 315.607 251.654 315.822 252.082C316.041 252.509 316.148 253.028 316.145 253.638V258.5H314.345V253.916C314.345 253.406 314.213 253.006 313.948 252.718C313.686 252.43 313.323 252.286 312.859 252.286C312.544 252.286 312.264 252.355 312.019 252.494C311.777 252.63 311.586 252.827 311.447 253.086C311.311 253.344 311.243 253.658 311.243 254.026ZM321.648 250.864V252.256H317.258V250.864H321.648ZM318.342 249.034H320.142V256.203C320.142 256.445 320.178 256.631 320.251 256.76C320.327 256.886 320.427 256.972 320.549 257.018C320.672 257.065 320.808 257.088 320.957 257.088C321.07 257.088 321.172 257.08 321.265 257.063C321.361 257.047 321.434 257.032 321.484 257.018L321.787 258.425C321.691 258.459 321.553 258.495 321.374 258.535C321.199 258.575 320.983 258.598 320.728 258.604C320.277 258.618 319.871 258.55 319.51 258.401C319.149 258.248 318.862 258.013 318.65 257.695C318.441 257.376 318.339 256.979 318.342 256.501V249.034ZM329.677 258.649C328.931 258.649 328.285 258.485 327.738 258.157C327.191 257.829 326.767 257.37 326.465 256.78C326.167 256.19 326.018 255.5 326.018 254.712C326.018 253.923 326.167 253.232 326.465 252.638C326.767 252.045 327.191 251.585 327.738 251.256C328.285 250.928 328.931 250.764 329.677 250.764C330.422 250.764 331.069 250.928 331.616 251.256C332.162 251.585 332.585 252.045 332.883 252.638C333.185 253.232 333.336 253.923 333.336 254.712C333.336 255.5 333.185 256.19 332.883 256.78C332.585 257.37 332.162 257.829 331.616 258.157C331.069 258.485 330.422 258.649 329.677 258.649ZM329.687 257.207C330.091 257.207 330.429 257.096 330.701 256.874C330.973 256.649 331.175 256.347 331.307 255.969C331.443 255.592 331.511 255.171 331.511 254.707C331.511 254.239 331.443 253.817 331.307 253.439C331.175 253.058 330.973 252.754 330.701 252.529C330.429 252.304 330.091 252.191 329.687 252.191C329.272 252.191 328.928 252.304 328.653 252.529C328.381 252.754 328.177 253.058 328.041 253.439C327.908 253.817 327.842 254.239 327.842 254.707C327.842 255.171 327.908 255.592 328.041 255.969C328.177 256.347 328.381 256.649 328.653 256.874C328.928 257.096 329.272 257.207 329.687 257.207ZM334.723 261.364V250.864H336.493V252.126H336.598C336.69 251.941 336.821 251.744 336.99 251.535C337.159 251.323 337.388 251.142 337.676 250.993C337.965 250.84 338.333 250.764 338.78 250.764C339.37 250.764 339.902 250.915 340.376 251.217C340.853 251.515 341.231 251.957 341.51 252.544C341.791 253.127 341.932 253.843 341.932 254.692C341.932 255.53 341.795 256.243 341.519 256.83C341.244 257.416 340.87 257.864 340.396 258.172C339.922 258.48 339.385 258.634 338.785 258.634C338.348 258.634 337.985 258.561 337.696 258.415C337.408 258.27 337.176 258.094 337 257.888C336.828 257.68 336.694 257.482 336.598 257.297H336.523V261.364H334.723ZM336.488 254.682C336.488 255.176 336.558 255.608 336.697 255.979C336.84 256.351 337.043 256.641 337.309 256.849C337.577 257.055 337.902 257.158 338.283 257.158C338.681 257.158 339.014 257.052 339.282 256.839C339.551 256.624 339.753 256.331 339.889 255.96C340.028 255.585 340.098 255.159 340.098 254.682C340.098 254.208 340.03 253.787 339.894 253.419C339.758 253.051 339.556 252.763 339.287 252.554C339.019 252.345 338.684 252.241 338.283 252.241C337.898 252.241 337.572 252.342 337.304 252.544C337.035 252.746 336.831 253.03 336.692 253.394C336.556 253.759 336.488 254.188 336.488 254.682ZM346.714 258.649C345.948 258.649 345.287 258.49 344.73 258.172C344.177 257.85 343.751 257.396 343.453 256.81C343.154 256.22 343.005 255.525 343.005 254.727C343.005 253.941 343.154 253.252 343.453 252.658C343.754 252.062 344.175 251.598 344.715 251.266C345.256 250.932 345.89 250.764 346.62 250.764C347.09 250.764 347.534 250.84 347.952 250.993C348.373 251.142 348.744 251.374 349.066 251.689C349.39 252.004 349.646 252.405 349.831 252.892C350.017 253.376 350.11 253.953 350.11 254.622V255.174H343.85V253.961H348.384C348.381 253.616 348.307 253.31 348.161 253.041C348.015 252.769 347.811 252.556 347.549 252.4C347.291 252.244 346.989 252.166 346.644 252.166C346.276 252.166 345.953 252.256 345.675 252.435C345.397 252.61 345.179 252.842 345.024 253.131C344.871 253.416 344.793 253.729 344.79 254.07V255.129C344.79 255.573 344.871 255.955 345.034 256.273C345.196 256.588 345.423 256.83 345.715 256.999C346.006 257.164 346.348 257.247 346.739 257.247C347.001 257.247 347.238 257.211 347.45 257.138C347.662 257.062 347.846 256.951 348.002 256.805C348.157 256.659 348.275 256.478 348.355 256.263L350.035 256.452C349.929 256.896 349.727 257.284 349.428 257.615C349.133 257.943 348.756 258.198 348.295 258.381C347.834 258.56 347.307 258.649 346.714 258.649ZM353.292 254.026V258.5H351.492V250.864H353.212V252.161H353.302C353.477 251.734 353.758 251.394 354.142 251.142C354.53 250.89 355.009 250.764 355.579 250.764C356.106 250.764 356.565 250.877 356.956 251.102C357.35 251.328 357.655 251.654 357.871 252.082C358.089 252.509 358.197 253.028 358.194 253.638V258.5H356.394V253.916C356.394 253.406 356.262 253.006 355.996 252.718C355.735 252.43 355.372 252.286 354.908 252.286C354.593 252.286 354.313 252.355 354.067 252.494C353.825 252.63 353.635 252.827 353.496 253.086C353.36 253.344 353.292 253.658 353.292 254.026ZM363.264 258.649C362.498 258.649 361.837 258.49 361.28 258.172C360.727 257.85 360.301 257.396 360.003 256.81C359.704 256.22 359.555 255.525 359.555 254.727C359.555 253.941 359.704 253.252 360.003 252.658C360.304 252.062 360.725 251.598 361.265 251.266C361.806 250.932 362.44 250.764 363.17 250.764C363.64 250.764 364.084 250.84 364.502 250.993C364.923 251.142 365.294 251.374 365.616 251.689C365.94 252.004 366.196 252.405 366.381 252.892C366.567 253.376 366.66 253.953 366.66 254.622V255.174H360.4V253.961H364.935C364.931 253.616 364.857 253.31 364.711 253.041C364.565 252.769 364.361 252.556 364.099 252.4C363.841 252.244 363.539 252.166 363.194 252.166C362.827 252.166 362.503 252.256 362.225 252.435C361.947 252.61 361.73 252.842 361.574 253.131C361.421 253.416 361.343 253.729 361.34 254.07V255.129C361.34 255.573 361.421 255.955 361.584 256.273C361.746 256.588 361.973 256.83 362.265 256.999C362.556 257.164 362.898 257.247 363.289 257.247C363.551 257.247 363.788 257.211 364 257.138C364.212 257.062 364.396 256.951 364.552 256.805C364.707 256.659 364.825 256.478 364.905 256.263L366.585 256.452C366.479 256.896 366.277 257.284 365.979 257.615C365.684 257.943 365.306 258.198 364.845 258.381C364.384 258.56 363.857 258.649 363.264 258.649ZM370.876 258.634C370.276 258.634 369.739 258.48 369.265 258.172C368.791 257.864 368.417 257.416 368.142 256.83C367.867 256.243 367.729 255.53 367.729 254.692C367.729 253.843 367.868 253.127 368.147 252.544C368.428 251.957 368.808 251.515 369.285 251.217C369.762 250.915 370.294 250.764 370.881 250.764C371.328 250.764 371.696 250.84 371.985 250.993C372.273 251.142 372.502 251.323 372.671 251.535C372.84 251.744 372.971 251.941 373.064 252.126H373.138V248.318H374.943V258.5H373.173V257.297H373.064C372.971 257.482 372.836 257.68 372.661 257.888C372.485 258.094 372.253 258.27 371.965 258.415C371.676 258.561 371.314 258.634 370.876 258.634ZM371.378 257.158C371.759 257.158 372.084 257.055 372.353 256.849C372.621 256.641 372.825 256.351 372.964 255.979C373.103 255.608 373.173 255.176 373.173 254.682C373.173 254.188 373.103 253.759 372.964 253.394C372.828 253.03 372.626 252.746 372.358 252.544C372.092 252.342 371.766 252.241 371.378 252.241C370.977 252.241 370.642 252.345 370.374 252.554C370.105 252.763 369.903 253.051 369.767 253.419C369.631 253.787 369.564 254.208 369.564 254.682C369.564 255.159 369.631 255.585 369.767 255.96C369.907 256.331 370.11 256.624 370.379 256.839C370.651 257.052 370.984 257.158 371.378 257.158Z" fill="#121212"/>
<path d="M266.699 229.5V223.682H270.483V224.565H267.753V226.145H270.287V227.028H267.753V228.616H270.506V229.5H266.699ZM275.331 225.136L273.777 229.5H272.64L271.086 225.136H272.183L273.186 228.378H273.231L274.237 225.136H275.331ZM277.746 229.585C277.308 229.585 276.93 229.494 276.612 229.312C276.296 229.129 276.052 228.869 275.882 228.534C275.711 228.197 275.626 227.8 275.626 227.344C275.626 226.895 275.711 226.501 275.882 226.162C276.054 225.821 276.295 225.556 276.603 225.366C276.912 225.175 277.275 225.08 277.692 225.08C277.961 225.08 278.214 225.123 278.453 225.21C278.693 225.295 278.906 225.428 279.089 225.608C279.275 225.788 279.421 226.017 279.527 226.295C279.633 226.572 279.686 226.902 279.686 227.284V227.599H276.109V226.906H278.7C278.698 226.709 278.656 226.534 278.572 226.381C278.489 226.225 278.372 226.103 278.223 226.014C278.075 225.925 277.903 225.881 277.706 225.881C277.496 225.881 277.311 225.932 277.152 226.034C276.993 226.134 276.869 226.267 276.78 226.432C276.693 226.595 276.648 226.774 276.646 226.969V227.574C276.646 227.828 276.693 228.045 276.785 228.227C276.878 228.407 277.008 228.545 277.175 228.642C277.341 228.737 277.536 228.784 277.76 228.784C277.909 228.784 278.045 228.763 278.166 228.722C278.287 228.678 278.392 228.615 278.481 228.531C278.57 228.448 278.638 228.345 278.683 228.222L279.643 228.33C279.583 228.583 279.467 228.805 279.297 228.994C279.128 229.182 278.912 229.328 278.649 229.432C278.386 229.534 278.085 229.585 277.746 229.585ZM281.504 226.943V229.5H280.476V225.136H281.459V225.878H281.51C281.61 225.634 281.77 225.439 281.99 225.295C282.212 225.152 282.485 225.08 282.811 225.08C283.112 225.08 283.375 225.144 283.598 225.273C283.823 225.402 283.998 225.588 284.121 225.832C284.246 226.077 284.307 226.373 284.305 226.722V229.5H283.277V226.881C283.277 226.589 283.201 226.361 283.05 226.196C282.9 226.031 282.693 225.949 282.428 225.949C282.248 225.949 282.088 225.989 281.948 226.068C281.809 226.146 281.7 226.259 281.621 226.406C281.543 226.554 281.504 226.733 281.504 226.943ZM287.45 225.136V225.932H284.941V225.136H287.45ZM285.561 224.091H286.589V228.188C286.589 228.326 286.61 228.432 286.652 228.506C286.695 228.578 286.752 228.627 286.822 228.653C286.892 228.68 286.97 228.693 287.055 228.693C287.119 228.693 287.178 228.688 287.231 228.679C287.286 228.67 287.328 228.661 287.356 228.653L287.529 229.457C287.475 229.476 287.396 229.497 287.294 229.52C287.193 229.543 287.07 229.556 286.924 229.56C286.667 229.567 286.435 229.528 286.228 229.443C286.022 229.356 285.858 229.222 285.737 229.04C285.618 228.858 285.559 228.631 285.561 228.358V224.091Z" fill="#636369"/>
<line x1="266.125" y1="236.244" x2="397.688" y2="236.244" stroke="#121212"/>
<rect x="211" y="221.5" width="40" height="40" rx="4" fill="#F1EAFF"/>
<g clip-path="url(#clip0_6202_39146)">
<path d="M240.445 242.056C240.445 240.91 240.241 239.812 239.867 238.796C239.611 241.79 238.015 243.327 236.347 242.611C234.785 241.94 235.838 239.324 235.916 238.076C236.047 235.96 235.909 233.537 232.065 231.523C233.662 234.579 232.25 236.477 230.769 236.593C229.126 236.721 227.621 235.181 228.176 232.681C226.377 234.006 226.325 236.237 226.88 237.681C227.459 239.185 226.857 240.435 225.445 240.574C223.867 240.73 222.991 238.885 223.799 235.945C222.4 237.592 221.556 239.725 221.556 242.056C221.556 247.272 225.784 251.5 231 251.5C236.216 251.5 240.445 247.272 240.445 242.056Z" fill="#F4900C"/>
<path d="M236.775 244.832C236.857 246.546 235.352 247.217 234.542 246.893C233.372 246.425 233.686 245.62 233.385 243.953C233.083 242.287 231.926 241.13 230.213 240.62C231.463 244.138 229.521 245.435 228.502 245.667C227.462 245.903 226.417 245.666 226.298 243.441C225.085 244.648 224.333 246.32 224.333 248.166C224.333 248.371 224.346 248.572 224.364 248.772C226.07 250.457 228.412 251.5 231 251.5C233.588 251.5 235.931 250.457 237.636 248.772C237.654 248.572 237.667 248.371 237.667 248.166C237.667 246.951 237.342 245.813 236.775 244.832Z" fill="#FFCC4D"/>
</g>
<rect x="356.688" y="225" width="41" height="4" rx="2" fill="#EEF1F7"/>
<rect x="199" y="209.5" width="215" height="64" rx="7.5" stroke="#121212"/>
<rect x="199" y="352.5" width="215" height="64" rx="7.5" fill="white"/>
<path d="M269.272 401.5L266.398 391.318H268.382L270.217 398.8H270.311L272.27 391.318H274.075L276.038 398.805H276.128L277.962 391.318H279.946L277.072 401.5H275.253L273.214 394.356H273.135L271.092 401.5H269.272ZM283.607 401.649C282.841 401.649 282.18 401.49 281.623 401.172C281.07 400.85 280.644 400.396 280.345 399.81C280.047 399.22 279.898 398.525 279.898 397.727C279.898 396.941 280.047 396.252 280.345 395.658C280.647 395.062 281.068 394.598 281.608 394.266C282.148 393.932 282.783 393.764 283.512 393.764C283.983 393.764 284.427 393.84 284.845 393.993C285.266 394.142 285.637 394.374 285.958 394.689C286.283 395.004 286.538 395.405 286.724 395.892C286.91 396.376 287.002 396.953 287.002 397.622V398.174H280.743V396.961H285.277C285.274 396.616 285.199 396.31 285.054 396.041C284.908 395.769 284.704 395.556 284.442 395.4C284.184 395.244 283.882 395.166 283.537 395.166C283.169 395.166 282.846 395.256 282.568 395.435C282.289 395.61 282.072 395.842 281.916 396.131C281.764 396.416 281.686 396.729 281.683 397.07V398.129C281.683 398.573 281.764 398.955 281.926 399.273C282.089 399.588 282.316 399.83 282.608 399.999C282.899 400.164 283.241 400.247 283.632 400.247C283.893 400.247 284.13 400.211 284.343 400.138C284.555 400.062 284.739 399.951 284.894 399.805C285.05 399.659 285.168 399.478 285.247 399.263L286.928 399.452C286.822 399.896 286.62 400.284 286.321 400.615C286.026 400.943 285.648 401.198 285.188 401.381C284.727 401.56 284.2 401.649 283.607 401.649ZM290.185 391.318V401.5H288.385V391.318H290.185ZM295.226 401.649C294.464 401.649 293.809 401.482 293.263 401.147C292.719 400.812 292.3 400.35 292.005 399.76C291.713 399.167 291.567 398.484 291.567 397.712C291.567 396.936 291.716 396.252 292.015 395.658C292.313 395.062 292.734 394.598 293.277 394.266C293.824 393.932 294.471 393.764 295.216 393.764C295.836 393.764 296.385 393.879 296.862 394.107C297.343 394.333 297.725 394.652 298.01 395.067C298.295 395.478 298.458 395.958 298.498 396.509H296.777C296.708 396.141 296.542 395.834 296.28 395.589C296.022 395.34 295.675 395.216 295.241 395.216C294.873 395.216 294.55 395.315 294.272 395.514C293.993 395.71 293.776 395.991 293.62 396.359C293.468 396.727 293.392 397.168 293.392 397.682C293.392 398.202 293.468 398.65 293.62 399.024C293.773 399.395 293.987 399.682 294.262 399.884C294.54 400.083 294.867 400.183 295.241 400.183C295.506 400.183 295.743 400.133 295.952 400.033C296.164 399.931 296.342 399.783 296.484 399.591C296.627 399.399 296.724 399.165 296.777 398.89H298.498C298.455 399.43 298.295 399.909 298.02 400.327C297.745 400.741 297.371 401.066 296.897 401.301C296.423 401.533 295.866 401.649 295.226 401.649ZM303.166 401.649C302.421 401.649 301.774 401.485 301.227 401.157C300.681 400.829 300.256 400.37 299.955 399.78C299.656 399.19 299.507 398.5 299.507 397.712C299.507 396.923 299.656 396.232 299.955 395.638C300.256 395.045 300.681 394.585 301.227 394.256C301.774 393.928 302.421 393.764 303.166 393.764C303.912 393.764 304.558 393.928 305.105 394.256C305.652 394.585 306.075 395.045 306.373 395.638C306.675 396.232 306.825 396.923 306.825 397.712C306.825 398.5 306.675 399.19 306.373 399.78C306.075 400.37 305.652 400.829 305.105 401.157C304.558 401.485 303.912 401.649 303.166 401.649ZM303.176 400.207C303.581 400.207 303.919 400.096 304.191 399.874C304.462 399.649 304.664 399.347 304.797 398.969C304.933 398.592 305.001 398.171 305.001 397.707C305.001 397.239 304.933 396.817 304.797 396.439C304.664 396.058 304.462 395.754 304.191 395.529C303.919 395.304 303.581 395.191 303.176 395.191C302.762 395.191 302.417 395.304 302.142 395.529C301.87 395.754 301.667 396.058 301.531 396.439C301.398 396.817 301.332 397.239 301.332 397.707C301.332 398.171 301.398 398.592 301.531 398.969C301.667 399.347 301.87 399.649 302.142 399.874C302.417 400.096 302.762 400.207 303.176 400.207ZM308.213 401.5V393.864H309.933V395.161H310.023C310.182 394.724 310.445 394.382 310.813 394.137C311.181 393.888 311.62 393.764 312.131 393.764C312.648 393.764 313.083 393.89 313.438 394.142C313.796 394.391 314.048 394.73 314.194 395.161H314.273C314.442 394.737 314.727 394.399 315.128 394.147C315.533 393.892 316.012 393.764 316.565 393.764C317.268 393.764 317.841 393.986 318.285 394.43C318.73 394.875 318.952 395.522 318.952 396.374V401.5H317.147V396.653C317.147 396.179 317.021 395.832 316.769 395.614C316.517 395.392 316.209 395.281 315.844 395.281C315.41 395.281 315.07 395.416 314.825 395.688C314.583 395.957 314.462 396.306 314.462 396.737V401.5H312.697V396.578C312.697 396.184 312.578 395.869 312.339 395.634C312.104 395.398 311.796 395.281 311.415 395.281C311.156 395.281 310.921 395.347 310.709 395.479C310.497 395.609 310.328 395.793 310.202 396.031C310.076 396.267 310.013 396.542 310.013 396.857V401.5H308.213ZM324.018 401.649C323.253 401.649 322.591 401.49 322.034 401.172C321.481 400.85 321.055 400.396 320.757 399.81C320.458 399.22 320.309 398.525 320.309 397.727C320.309 396.941 320.458 396.252 320.757 395.658C321.058 395.062 321.479 394.598 322.02 394.266C322.56 393.932 323.195 393.764 323.924 393.764C324.394 393.764 324.838 393.84 325.256 393.993C325.677 394.142 326.048 394.374 326.37 394.689C326.695 395.004 326.95 395.405 327.135 395.892C327.321 396.376 327.414 396.953 327.414 397.622V398.174H321.154V396.961H325.689C325.685 396.616 325.611 396.31 325.465 396.041C325.319 395.769 325.115 395.556 324.853 395.4C324.595 395.244 324.293 395.166 323.949 395.166C323.581 395.166 323.257 395.256 322.979 395.435C322.701 395.61 322.484 395.842 322.328 396.131C322.175 396.416 322.097 396.729 322.094 397.07V398.129C322.094 398.573 322.175 398.955 322.338 399.273C322.5 399.588 322.727 399.83 323.019 399.999C323.311 400.164 323.652 400.247 324.043 400.247C324.305 400.247 324.542 400.211 324.754 400.138C324.966 400.062 325.15 399.951 325.306 399.805C325.462 399.659 325.579 399.478 325.659 399.263L327.339 399.452C327.233 399.896 327.031 400.284 326.733 400.615C326.438 400.943 326.06 401.198 325.599 401.381C325.138 401.56 324.611 401.649 324.018 401.649ZM341.306 396.409C341.306 397.506 341.101 398.446 340.69 399.228C340.282 400.007 339.726 400.603 339.02 401.018C338.317 401.432 337.52 401.639 336.628 401.639C335.737 401.639 334.938 401.432 334.232 401.018C333.529 400.6 332.972 400.002 332.561 399.223C332.154 398.441 331.95 397.503 331.95 396.409C331.95 395.312 332.154 394.374 332.561 393.595C332.972 392.813 333.529 392.215 334.232 391.8C334.938 391.386 335.737 391.179 336.628 391.179C337.52 391.179 338.317 391.386 339.02 391.8C339.726 392.215 340.282 392.813 340.69 393.595C341.101 394.374 341.306 395.312 341.306 396.409ZM339.452 396.409C339.452 395.637 339.331 394.986 339.089 394.455C338.851 393.922 338.519 393.519 338.095 393.247C337.671 392.972 337.182 392.835 336.628 392.835C336.075 392.835 335.586 392.972 335.162 393.247C334.737 393.519 334.404 393.922 334.162 394.455C333.924 394.986 333.804 395.637 333.804 396.409C333.804 397.181 333.924 397.834 334.162 398.368C334.404 398.898 334.737 399.301 335.162 399.576C335.586 399.848 336.075 399.984 336.628 399.984C337.182 399.984 337.671 399.848 338.095 399.576C338.519 399.301 338.851 398.898 339.089 398.368C339.331 397.834 339.452 397.181 339.452 396.409ZM344.63 397.026V401.5H342.831V393.864H344.551V395.161H344.64C344.816 394.734 345.096 394.394 345.481 394.142C345.868 393.89 346.347 393.764 346.917 393.764C347.444 393.764 347.903 393.877 348.295 394.102C348.689 394.328 348.994 394.654 349.209 395.082C349.428 395.509 349.536 396.028 349.532 396.638V401.5H347.733V396.916C347.733 396.406 347.6 396.006 347.335 395.718C347.073 395.43 346.71 395.286 346.246 395.286C345.931 395.286 345.651 395.355 345.406 395.494C345.164 395.63 344.973 395.827 344.834 396.086C344.698 396.344 344.63 396.658 344.63 397.026ZM351.302 401.5V391.318H353.101V395.126H353.176C353.269 394.941 353.4 394.744 353.569 394.535C353.738 394.323 353.966 394.142 354.255 393.993C354.543 393.84 354.911 393.764 355.358 393.764C355.948 393.764 356.48 393.915 356.954 394.217C357.431 394.515 357.809 394.957 358.088 395.544C358.369 396.127 358.51 396.843 358.51 397.692C358.51 398.53 358.373 399.243 358.098 399.83C357.823 400.416 357.448 400.864 356.974 401.172C356.5 401.48 355.963 401.634 355.363 401.634C354.926 401.634 354.563 401.561 354.275 401.415C353.986 401.27 353.754 401.094 353.579 400.888C353.406 400.68 353.272 400.482 353.176 400.297H353.071V401.5H351.302ZM353.066 397.682C353.066 398.176 353.136 398.608 353.275 398.979C353.418 399.351 353.622 399.641 353.887 399.849C354.155 400.055 354.48 400.158 354.861 400.158C355.259 400.158 355.592 400.052 355.86 399.839C356.129 399.624 356.331 399.331 356.467 398.96C356.606 398.585 356.676 398.159 356.676 397.682C356.676 397.208 356.608 396.787 356.472 396.419C356.336 396.051 356.134 395.763 355.865 395.554C355.597 395.345 355.262 395.241 354.861 395.241C354.477 395.241 354.15 395.342 353.882 395.544C353.613 395.746 353.409 396.03 353.27 396.394C353.134 396.759 353.066 397.188 353.066 397.682ZM363.231 401.649C362.486 401.649 361.839 401.485 361.292 401.157C360.746 400.829 360.321 400.37 360.02 399.78C359.721 399.19 359.572 398.5 359.572 397.712C359.572 396.923 359.721 396.232 360.02 395.638C360.321 395.045 360.746 394.585 361.292 394.256C361.839 393.928 362.486 393.764 363.231 393.764C363.977 393.764 364.623 393.928 365.17 394.256C365.717 394.585 366.14 395.045 366.438 395.638C366.74 396.232 366.89 396.923 366.89 397.712C366.89 398.5 366.74 399.19 366.438 399.78C366.14 400.37 365.717 400.829 365.17 401.157C364.623 401.485 363.977 401.649 363.231 401.649ZM363.241 400.207C363.646 400.207 363.984 400.096 364.255 399.874C364.527 399.649 364.729 399.347 364.862 398.969C364.998 398.592 365.066 398.171 365.066 397.707C365.066 397.239 364.998 396.817 364.862 396.439C364.729 396.058 364.527 395.754 364.255 395.529C363.984 395.304 363.646 395.191 363.241 395.191C362.827 395.191 362.482 395.304 362.207 395.529C361.935 395.754 361.732 396.058 361.596 396.439C361.463 396.817 361.397 397.239 361.397 397.707C361.397 398.171 361.463 398.592 361.596 398.969C361.732 399.347 361.935 399.649 362.207 399.874C362.482 400.096 362.827 400.207 363.241 400.207ZM370.475 401.654C369.991 401.654 369.556 401.568 369.168 401.396C368.783 401.22 368.478 400.961 368.253 400.62C368.031 400.279 367.92 399.858 367.92 399.357C367.92 398.926 368 398.57 368.159 398.288C368.318 398.007 368.535 397.781 368.81 397.612C369.085 397.443 369.395 397.316 369.74 397.229C370.088 397.14 370.447 397.075 370.818 397.036C371.266 396.989 371.629 396.948 371.907 396.911C372.186 396.871 372.388 396.812 372.514 396.732C372.643 396.649 372.708 396.522 372.708 396.349V396.32C372.708 395.945 372.597 395.655 372.375 395.45C372.152 395.244 371.833 395.141 371.415 395.141C370.974 395.141 370.625 395.237 370.366 395.43C370.111 395.622 369.938 395.849 369.849 396.111L368.169 395.872C368.301 395.408 368.52 395.02 368.825 394.709C369.13 394.394 369.503 394.159 369.943 394.003C370.384 393.844 370.871 393.764 371.405 393.764C371.773 393.764 372.139 393.807 372.504 393.893C372.868 393.98 373.201 394.122 373.503 394.321C373.805 394.517 374.047 394.783 374.229 395.121C374.415 395.46 374.507 395.882 374.507 396.389V401.5H372.777V400.451H372.718C372.608 400.663 372.454 400.862 372.255 401.048C372.06 401.23 371.813 401.377 371.514 401.49C371.219 401.599 370.873 401.654 370.475 401.654ZM370.943 400.332C371.304 400.332 371.617 400.26 371.882 400.118C372.147 399.972 372.351 399.78 372.494 399.541C372.64 399.303 372.713 399.042 372.713 398.761V397.861C372.656 397.907 372.56 397.95 372.424 397.99C372.292 398.03 372.143 398.065 371.977 398.094C371.811 398.124 371.647 398.151 371.485 398.174C371.322 398.197 371.181 398.217 371.062 398.234C370.794 398.27 370.553 398.33 370.341 398.413C370.129 398.496 369.962 398.612 369.839 398.761C369.716 398.906 369.655 399.095 369.655 399.327C369.655 399.659 369.776 399.909 370.018 400.078C370.26 400.247 370.568 400.332 370.943 400.332ZM376.177 401.5V393.864H377.922V395.136H378.002C378.141 394.696 378.379 394.356 378.717 394.117C379.059 393.875 379.448 393.754 379.886 393.754C379.985 393.754 380.096 393.759 380.219 393.769C380.345 393.776 380.449 393.787 380.532 393.804V395.46C380.456 395.433 380.335 395.41 380.169 395.39C380.007 395.367 379.849 395.355 379.697 395.355C379.369 395.355 379.074 395.426 378.812 395.569C378.553 395.708 378.35 395.902 378.2 396.151C378.051 396.399 377.977 396.686 377.977 397.011V401.5H376.177ZM384.107 401.634C383.507 401.634 382.97 401.48 382.496 401.172C382.022 400.864 381.648 400.416 381.373 399.83C381.098 399.243 380.96 398.53 380.96 397.692C380.96 396.843 381.099 396.127 381.378 395.544C381.659 394.957 382.039 394.515 382.516 394.217C382.993 393.915 383.525 393.764 384.112 393.764C384.56 393.764 384.927 393.84 385.216 393.993C385.504 394.142 385.733 394.323 385.902 394.535C386.071 394.744 386.202 394.941 386.295 395.126H386.369V391.318H388.174V401.5H386.404V400.297H386.295C386.202 400.482 386.068 400.68 385.892 400.888C385.716 401.094 385.484 401.27 385.196 401.415C384.908 401.561 384.545 401.634 384.107 401.634ZM384.609 400.158C384.99 400.158 385.315 400.055 385.584 399.849C385.852 399.641 386.056 399.351 386.195 398.979C386.334 398.608 386.404 398.176 386.404 397.682C386.404 397.188 386.334 396.759 386.195 396.394C386.059 396.03 385.857 395.746 385.589 395.544C385.324 395.342 384.997 395.241 384.609 395.241C384.208 395.241 383.873 395.345 383.605 395.554C383.337 395.763 383.134 396.051 382.998 396.419C382.863 396.787 382.795 397.208 382.795 397.682C382.795 398.159 382.863 398.585 382.998 398.96C383.138 399.331 383.341 399.624 383.61 399.839C383.882 400.052 384.215 400.158 384.609 400.158ZM392.154 391.318L391.99 398.507H390.389L390.23 391.318H392.154ZM391.19 401.609C390.888 401.609 390.629 401.503 390.414 401.291C390.202 401.079 390.096 400.821 390.096 400.516C390.096 400.217 390.202 399.962 390.414 399.75C390.629 399.538 390.888 399.432 391.19 399.432C391.485 399.432 391.74 399.538 391.955 399.75C392.174 399.962 392.283 400.217 392.283 400.516C392.283 400.718 392.232 400.902 392.129 401.067C392.03 401.233 391.897 401.366 391.732 401.465C391.569 401.561 391.388 401.609 391.19 401.609Z" fill="#121212"/>
<path d="M269.861 368.281C269.834 368.033 269.723 367.84 269.526 367.702C269.33 367.563 269.077 367.494 268.764 367.494C268.545 367.494 268.356 367.527 268.199 367.594C268.042 367.66 267.921 367.75 267.838 367.864C267.755 367.977 267.712 368.107 267.71 368.253C267.71 368.374 267.738 368.479 267.793 368.568C267.849 368.657 267.926 368.733 268.023 368.795C268.119 368.856 268.226 368.907 268.344 368.949C268.461 368.991 268.58 369.026 268.699 369.054L269.244 369.19C269.464 369.241 269.675 369.311 269.878 369.398C270.082 369.485 270.265 369.595 270.426 369.727C270.589 369.86 270.718 370.02 270.812 370.207C270.907 370.395 270.955 370.615 270.955 370.866C270.955 371.207 270.867 371.508 270.693 371.767C270.519 372.025 270.267 372.226 269.938 372.372C269.61 372.516 269.213 372.588 268.747 372.588C268.295 372.588 267.902 372.518 267.568 372.378C267.237 372.238 266.977 372.033 266.79 371.764C266.604 371.495 266.504 371.168 266.489 370.781H267.526C267.541 370.984 267.603 371.152 267.713 371.287C267.823 371.421 267.966 371.522 268.142 371.588C268.32 371.654 268.519 371.688 268.739 371.688C268.968 371.688 269.169 371.653 269.341 371.585C269.515 371.515 269.652 371.419 269.75 371.295C269.848 371.17 269.899 371.025 269.901 370.858C269.899 370.706 269.854 370.581 269.767 370.483C269.68 370.383 269.558 370.299 269.401 370.233C269.245 370.165 269.063 370.104 268.855 370.051L268.193 369.881C267.714 369.758 267.335 369.571 267.057 369.321C266.78 369.069 266.642 368.735 266.642 368.318C266.642 367.975 266.735 367.675 266.92 367.418C267.108 367.16 267.363 366.96 267.685 366.818C268.007 366.674 268.371 366.602 268.778 366.602C269.191 366.602 269.553 366.674 269.864 366.818C270.176 366.96 270.421 367.158 270.599 367.412C270.777 367.664 270.869 367.954 270.875 368.281H269.861ZM273.701 372.585C273.263 372.585 272.885 372.494 272.567 372.312C272.251 372.129 272.007 371.869 271.837 371.534C271.666 371.197 271.581 370.8 271.581 370.344C271.581 369.895 271.666 369.501 271.837 369.162C272.009 368.821 272.25 368.556 272.558 368.366C272.867 368.175 273.23 368.08 273.647 368.08C273.916 368.08 274.169 368.123 274.408 368.21C274.648 368.295 274.861 368.428 275.044 368.608C275.23 368.788 275.376 369.017 275.482 369.295C275.588 369.572 275.641 369.902 275.641 370.284V370.599H272.064V369.906H274.655C274.653 369.709 274.611 369.534 274.527 369.381C274.444 369.225 274.327 369.103 274.178 369.014C274.03 368.925 273.858 368.881 273.661 368.881C273.451 368.881 273.266 368.932 273.107 369.034C272.948 369.134 272.824 369.267 272.735 369.432C272.648 369.595 272.603 369.774 272.601 369.969V370.574C272.601 370.828 272.648 371.045 272.74 371.227C272.833 371.407 272.963 371.545 273.13 371.642C273.296 371.737 273.491 371.784 273.715 371.784C273.864 371.784 274 371.763 274.121 371.722C274.242 371.678 274.347 371.615 274.436 371.531C274.525 371.448 274.593 371.345 274.638 371.222L275.598 371.33C275.538 371.583 275.422 371.805 275.252 371.994C275.083 372.182 274.867 372.328 274.604 372.432C274.341 372.534 274.04 372.585 273.701 372.585ZM277.459 369.943V372.5H276.431V368.136H277.414V368.878H277.465C277.565 368.634 277.725 368.439 277.945 368.295C278.167 368.152 278.44 368.08 278.766 368.08C279.067 368.08 279.33 368.144 279.553 368.273C279.778 368.402 279.953 368.588 280.076 368.832C280.201 369.077 280.262 369.373 280.26 369.722V372.5H279.232V369.881C279.232 369.589 279.156 369.361 279.005 369.196C278.855 369.031 278.648 368.949 278.383 368.949C278.203 368.949 278.043 368.989 277.903 369.068C277.764 369.146 277.655 369.259 277.576 369.406C277.498 369.554 277.459 369.733 277.459 369.943ZM282.845 372.577C282.502 372.577 282.196 372.489 281.925 372.312C281.654 372.136 281.44 371.881 281.283 371.545C281.126 371.21 281.047 370.803 281.047 370.324C281.047 369.839 281.126 369.43 281.286 369.097C281.447 368.761 281.663 368.509 281.936 368.338C282.209 368.166 282.513 368.08 282.848 368.08C283.104 368.08 283.314 368.123 283.479 368.21C283.644 368.295 283.774 368.399 283.871 368.52C283.967 368.639 284.042 368.752 284.095 368.858H284.138V366.682H285.169V372.5H284.158V371.812H284.095C284.042 371.919 283.965 372.031 283.865 372.151C283.765 372.268 283.632 372.368 283.467 372.452C283.303 372.535 283.095 372.577 282.845 372.577ZM283.132 371.733C283.35 371.733 283.536 371.674 283.689 371.557C283.842 371.437 283.959 371.272 284.038 371.06C284.118 370.848 284.158 370.6 284.158 370.318C284.158 370.036 284.118 369.791 284.038 369.582C283.961 369.374 283.845 369.212 283.692 369.097C283.54 368.981 283.354 368.923 283.132 368.923C282.903 368.923 282.712 368.983 282.558 369.102C282.405 369.222 282.289 369.386 282.212 369.597C282.134 369.807 282.095 370.047 282.095 370.318C282.095 370.591 282.134 370.834 282.212 371.048C282.291 371.26 282.408 371.428 282.561 371.551C282.716 371.672 282.907 371.733 283.132 371.733ZM288.135 372.5V366.682H291.919V367.565H289.189V369.145H291.723V370.028H289.189V371.616H291.942V372.5H288.135ZM292.869 372.5V368.136H293.852V368.878H293.903C293.994 368.628 294.144 368.433 294.355 368.293C294.565 368.151 294.816 368.08 295.107 368.08C295.403 368.08 295.652 368.152 295.855 368.295C296.059 368.437 296.203 368.632 296.286 368.878H296.332C296.428 368.635 296.591 368.442 296.82 368.298C297.051 368.152 297.325 368.08 297.641 368.08C298.043 368.08 298.371 368.206 298.624 368.46C298.878 368.714 299.005 369.084 299.005 369.571V372.5H297.974V369.73C297.974 369.459 297.902 369.261 297.758 369.136C297.614 369.009 297.438 368.946 297.23 368.946C296.981 368.946 296.787 369.024 296.647 369.179C296.509 369.332 296.44 369.532 296.44 369.778V372.5H295.431V369.688C295.431 369.462 295.363 369.282 295.227 369.148C295.092 369.013 294.916 368.946 294.698 368.946C294.551 368.946 294.416 368.984 294.295 369.06C294.174 369.134 294.077 369.239 294.005 369.375C293.933 369.509 293.897 369.667 293.897 369.847V372.5H292.869ZM301.224 372.588C300.948 372.588 300.699 372.539 300.477 372.44C300.257 372.34 300.083 372.192 299.954 371.997C299.827 371.802 299.764 371.562 299.764 371.276C299.764 371.029 299.809 370.826 299.9 370.665C299.991 370.504 300.115 370.375 300.272 370.278C300.43 370.182 300.607 370.109 300.804 370.06C301.002 370.009 301.208 369.972 301.42 369.949C301.676 369.922 301.883 369.899 302.042 369.878C302.201 369.855 302.317 369.821 302.389 369.776C302.463 369.728 302.5 369.655 302.5 369.557V369.54C302.5 369.326 302.436 369.16 302.309 369.043C302.182 368.925 302 368.866 301.761 368.866C301.509 368.866 301.309 368.921 301.162 369.031C301.016 369.141 300.917 369.271 300.866 369.42L299.906 369.284C299.982 369.019 300.107 368.797 300.281 368.619C300.455 368.439 300.668 368.305 300.92 368.216C301.172 368.125 301.45 368.08 301.755 368.08C301.966 368.08 302.175 368.104 302.383 368.153C302.592 368.203 302.782 368.284 302.954 368.398C303.127 368.509 303.265 368.662 303.369 368.855C303.475 369.048 303.528 369.29 303.528 369.58V372.5H302.539V371.901H302.505C302.443 372.022 302.355 372.135 302.241 372.241C302.129 372.346 301.988 372.43 301.818 372.494C301.649 372.557 301.451 372.588 301.224 372.588ZM301.491 371.832C301.698 371.832 301.877 371.792 302.028 371.71C302.18 371.627 302.296 371.517 302.377 371.381C302.461 371.244 302.502 371.096 302.502 370.935V370.42C302.47 370.447 302.415 370.472 302.338 370.494C302.262 370.517 302.177 370.537 302.082 370.554C301.987 370.571 301.894 370.586 301.801 370.599C301.708 370.613 301.627 370.624 301.559 370.634C301.406 370.654 301.269 370.688 301.147 370.736C301.026 370.783 300.931 370.849 300.86 370.935C300.79 371.018 300.755 371.126 300.755 371.259C300.755 371.448 300.824 371.591 300.963 371.688C301.101 371.784 301.277 371.832 301.491 371.832ZM304.482 372.5V368.136H305.511V372.5H304.482ZM304.999 367.517C304.836 367.517 304.696 367.463 304.579 367.355C304.461 367.245 304.403 367.114 304.403 366.96C304.403 366.805 304.461 366.673 304.579 366.565C304.696 366.455 304.836 366.401 304.999 366.401C305.164 366.401 305.304 366.455 305.42 366.565C305.537 366.673 305.596 366.805 305.596 366.96C305.596 367.114 305.537 367.245 305.42 367.355C305.304 367.463 305.164 367.517 304.999 367.517ZM307.517 366.682V372.5H306.488V366.682H307.517Z" fill="#636369"/>
<line x1="266.125" y1="379.244" x2="397.688" y2="379.244" stroke="#121212"/>
<rect x="211" y="364.5" width="40" height="40" rx="4" fill="#E3FEF2"/>
<g clip-path="url(#clip1_6202_39146)">
<path d="M221.556 383.945L226 380.056L234.889 380.611L235.445 389.5L231.556 393.945C231.556 393.945 231.556 390.612 228.222 387.278C224.888 383.944 221.556 383.945 221.556 383.945Z" fill="#A0041E"/>
<path d="M221.541 393.944C221.541 393.944 221.521 389.511 223.199 387.833C224.877 386.155 229.333 386.27 229.333 386.27C229.333 386.27 229.333 390.611 227.666 392.277C225.999 393.944 221.541 393.944 221.541 393.944Z" fill="#FFAC33"/>
<path d="M226 391.722C227.227 391.722 228.222 390.727 228.222 389.5C228.222 388.272 227.227 387.277 226 387.277C224.772 387.277 223.777 388.272 223.777 389.5C223.777 390.727 224.772 391.722 226 391.722Z" fill="#FFCC4D"/>
<path d="M241 374.5C241 374.5 235.444 374.5 228.777 380.056C225.444 382.833 225.444 387.833 226.555 388.944C227.666 390.056 232.666 390.056 235.444 386.722C241 380.056 241 374.5 241 374.5Z" fill="#55ACEE"/>
<path d="M235.999 377.277C235.098 377.277 234.325 377.817 233.977 378.588C234.255 378.462 234.563 378.388 234.888 378.388C236.115 378.388 237.11 379.383 237.11 380.611C237.11 380.936 237.037 381.243 236.911 381.522C237.683 381.173 238.222 380.401 238.222 379.5C238.222 378.272 237.227 377.277 235.999 377.277Z" fill="black"/>
<path d="M225.444 390.056C225.444 390.056 225.444 387.834 226 387.278C226.555 386.723 233.223 381.168 233.778 381.723C234.333 382.278 228.777 388.945 228.222 389.5C227.666 390.056 225.444 390.056 225.444 390.056Z" fill="#A0041E"/>
</g>
<rect x="356.688" y="368" width="41" height="4" rx="2" fill="#EEF1F7"/>
<rect x="199" y="352.5" width="215" height="64" rx="7.5" stroke="#121212"/>
<rect x="303.5" y="281.564" width="6" height="6" rx="3" fill="#121212"/>
<path d="M306.844 343.834C306.69 344.1 306.306 344.1 306.152 343.834L303.38 339.034C303.226 338.767 303.419 338.434 303.727 338.434L309.269 338.434C309.577 338.434 309.77 338.767 309.616 339.034L306.844 343.834Z" fill="#121212"/>
<line x1="306.461" y1="287.139" x2="306.461" y2="341.324" stroke="#121212"/>
<rect x="454.148" y="145" width="30" height="30" rx="4" fill="white"/>
<path d="M470.148 154C470.148 153.448 469.701 153 469.148 153C468.596 153 468.148 153.448 468.148 154H470.148ZM468.148 166C468.148 166.552 468.596 167 469.148 167C469.701 167 470.148 166.552 470.148 166H468.148ZM468.148 154V166H470.148V154H468.148Z" fill="#B3C2D8"/>
<path d="M475.148 161C475.701 161 476.148 160.552 476.148 160C476.148 159.448 475.701 159 475.148 159L475.148 161ZM463.148 159C462.596 159 462.148 159.448 462.148 160C462.148 160.552 462.596 161 463.148 161L463.148 159ZM475.148 159L463.148 159L463.148 161L475.148 161L475.148 159Z" fill="#B3C2D8"/>
<rect x="-1" y="1" width="419" height="345" rx="7" transform="matrix(-1 0 0 1 515 125)" stroke="#E1E8F2" stroke-width="2" stroke-dasharray="8 8"/>
<defs>
<clipPath id="clip0_6202_39146">
<rect width="20" height="20" fill="white" transform="translate(221 231.5)"/>
</clipPath>
<clipPath id="clip1_6202_39146">
<rect width="20" height="20" fill="white" transform="translate(221 374.5)"/>
</clipPath>
</defs>
</svg>
