<svg width="1145" height="413" viewBox="0 0 1145 413" fill="none" xmlns="http://www.w3.org/2000/svg">
<path d="M804.467 62.7012L804.467 277.685M804.467 296.53L804.467 290.128" stroke="#97969C" stroke-dasharray="4 4"/>
<path d="M1101.43 62.7012L1101.43 137.355M1101.43 296.53L1101.43 153.586" stroke="#97969C" stroke-dasharray="4 4"/>
<path d="M878.457 33.8154L878.457 132.926M878.457 325.416L878.457 157.296" stroke="#97969C" stroke-dasharray="4 4"/>
<path d="M1027.44 33.8154L1027.44 190.977M1027.44 325.416L1027.44 237.075" stroke="#97969C" stroke-dasharray="4 4"/>
<path d="M953.447 0.530273L953.447 37.1373M953.447 358.701L953.447 307.047M953.447 115.562L953.447 260.97" stroke="#97969C" stroke-dasharray="4 4"/>
<path d="M1115.58 283.999H976.202M790.317 283.999L798.182 283.999M810.728 283.999L930.222 283.999" stroke="#97969C" stroke-dasharray="4 4"/>
<path d="M1115.58 76.2329L992.295 76.2329M790.317 76.2329L914.264 76.2329" stroke="#97969C" stroke-dasharray="4 4"/>
<path d="M1144.89 214.743L1050.61 214.743M761.001 214.743L1004.19 214.743" stroke="#97969C" stroke-dasharray="4 4"/>
<path d="M1144.89 145.488L1109.7 145.488M761.001 145.488L866.616 145.488M1093.26 145.488H890.788" stroke="#97969C" stroke-dasharray="4 4"/>
<path d="M957.227 302.741L954.681 306.195L954.278 305.899L953.408 307.08L952.538 305.899L952.135 306.195L949.59 302.741L949.992 302.444L947.447 298.99L947.044 299.286L944.499 295.832L944.901 295.535L943.628 293.808L943.583 293.747L943.522 293.702L941.795 292.429L941.499 292.832L938.044 290.286L938.341 289.884L934.886 287.338L934.59 287.741L931.135 285.195L931.432 284.793L930.251 283.922L931.432 283.052L931.135 282.65L934.59 280.104L934.886 280.507L938.341 277.961L938.044 277.558L941.499 275.013L941.795 275.415L943.522 274.143L943.583 274.098L943.628 274.037L944.901 272.309L944.499 272.013L947.044 268.558L947.447 268.855L949.992 265.401L949.59 265.104L952.135 261.65L952.538 261.946L953.408 260.765L954.278 261.946L954.681 261.65L957.227 265.104L956.824 265.401L959.37 268.855L959.772 268.558L962.318 272.013L961.915 272.309L963.188 274.037L963.233 274.098L963.294 274.143L965.021 275.415L965.318 275.013L968.772 277.558L968.476 277.961L971.93 280.507L972.227 280.104L975.681 282.65L975.384 283.052L976.565 283.922L975.384 284.793L975.681 285.195L972.227 287.741L971.93 287.338L968.476 289.884L968.772 290.286L965.318 292.832L965.021 292.429L963.294 293.702L963.233 293.747L963.188 293.808L961.915 295.535L962.318 295.832L959.772 299.286L959.37 298.99L956.824 302.444L957.227 302.741Z" stroke="#97969C" stroke-dasharray="4 4"/>
<path d="M1031.26 233.575L1028.71 237.03L1028.31 236.733L1027.44 237.914L1026.57 236.733L1026.16 237.03L1023.62 233.575L1024.02 233.279L1021.48 229.824L1021.07 230.121L1018.53 226.666L1018.93 226.37L1017.66 224.643L1017.61 224.582L1017.55 224.537L1015.82 223.264L1015.53 223.666L1012.07 221.121L1012.37 220.718L1008.92 218.173L1008.62 218.575L1005.16 216.03L1005.46 215.627L1004.28 214.757L1005.46 213.887L1005.16 213.484L1008.62 210.938L1008.92 211.341L1012.37 208.795L1012.07 208.393L1015.53 205.847L1015.82 206.25L1017.55 204.977L1017.61 204.932L1017.66 204.871L1018.93 203.144L1018.53 202.847L1021.07 199.393L1021.48 199.689L1024.02 196.235L1023.62 195.938L1026.16 192.484L1026.57 192.781L1027.44 191.6L1028.31 192.781L1028.71 192.484L1031.26 195.938L1030.85 196.235L1033.4 199.689L1033.8 199.393L1036.35 202.847L1035.94 203.144L1037.22 204.871L1037.26 204.932L1037.32 204.977L1039.05 206.25L1039.35 205.847L1042.8 208.393L1042.5 208.795L1045.96 211.341L1046.26 210.938L1049.71 213.484L1049.41 213.887L1050.59 214.757L1049.41 215.627L1049.71 216.03L1046.26 218.575L1045.96 218.173L1042.5 220.718L1042.8 221.121L1039.35 223.666L1039.05 223.264L1037.32 224.537L1037.26 224.582L1037.22 224.643L1035.94 226.37L1036.35 226.666L1033.8 230.121L1033.4 229.824L1030.85 233.279L1031.26 233.575Z" stroke="#97969C" stroke-dasharray="4 4"/>
<path d="M956.573 111.802L954.451 114.68L954.049 114.384L953.391 115.277L952.732 114.384L952.33 114.68L950.209 111.802L950.611 111.505L948.49 108.626L948.087 108.923L945.966 106.044L946.369 105.748L944.247 102.869L943.845 103.166L941.723 100.287L942.126 99.9903L940.005 97.1116L939.602 97.4082L937.481 94.5295L937.883 94.2329L936.823 92.7936L936.778 92.7326L936.717 92.6877L935.277 91.627L934.981 92.0295L932.102 89.9082L932.399 89.5057L929.52 87.3844L929.223 87.7869L926.345 85.6656L926.641 85.2631L923.763 83.1417L923.466 83.5443L920.587 81.4229L920.884 81.0204L918.005 78.8991L917.709 79.3016L914.83 77.1803L915.127 76.7778L914.233 76.1196L915.127 75.4615L914.83 75.059L917.709 72.9376L918.005 73.3402L920.884 71.2188L920.587 70.8163L923.466 68.695L923.763 69.0975L926.641 66.9762L926.345 66.5737L929.223 64.4524L929.52 64.8549L932.399 62.7336L932.102 62.331L934.981 60.2097L935.277 60.6122L936.717 59.5516L936.778 59.5066L936.823 59.4457L937.883 58.0063L937.481 57.7097L939.602 54.831L940.005 55.1277L942.126 52.249L941.723 51.9524L943.845 49.0737L944.247 49.3703L946.369 46.4916L945.966 46.195L948.087 43.3163L948.49 43.6129L950.611 40.7343L950.209 40.4376L952.33 37.559L952.732 37.8556L953.391 36.9625L954.049 37.8556L954.451 37.559L956.573 40.4376L956.17 40.7343L958.291 43.6129L958.694 43.3163L960.815 46.195L960.413 46.4916L962.534 49.3703L962.937 49.0737L965.058 51.9524L964.655 52.249L966.777 55.1277L967.179 54.831L969.301 57.7097L968.898 58.0063L969.959 59.4457L970.004 59.5066L970.065 59.5516L971.504 60.6122L971.801 60.2097L974.679 62.331L974.383 62.7336L977.261 64.8549L977.558 64.4524L980.437 66.5737L980.14 66.9762L983.019 69.0975L983.315 68.695L986.194 70.8163L985.897 71.2188L988.776 73.3402L989.073 72.9376L991.951 75.059L991.655 75.4615L992.548 76.1196L991.655 76.7778L991.951 77.1803L989.073 79.3016L988.776 78.8991L985.897 81.0204L986.194 81.4229L983.315 83.5443L983.019 83.1417L980.14 85.2631L980.437 85.6656L977.558 87.7869L977.261 87.3844L974.383 89.5057L974.679 89.9082L971.801 92.0295L971.504 91.627L970.065 92.6877L970.004 92.7326L969.959 92.7936L968.898 94.2329L969.301 94.5295L967.179 97.4082L966.777 97.1116L964.655 99.9903L965.058 100.287L962.937 103.166L962.534 102.869L960.413 105.748L960.815 106.044L958.694 108.923L958.291 108.626L956.17 111.505L956.573 111.802Z" stroke="#97969C" stroke-dasharray="4 4"/>
<circle cx="878.701" cy="145.201" r="12" transform="rotate(-180 878.701 145.201)" stroke="#97969C" stroke-dasharray="4 4"/>
<circle cx="804.508" cy="283.923" r="6.16763" transform="rotate(-180 804.508 283.923)" stroke="#97969C" stroke-dasharray="4 4"/>
<circle cx="1101.35" cy="145.457" r="8" transform="rotate(-180 1101.35 145.457)" stroke="#97969C" stroke-dasharray="4 4"/>
<path d="M340.428 350.701L340.428 135.717M340.428 116.872L340.428 123.275" stroke="#97969C" stroke-dasharray="4 4"/>
<path d="M43.4658 350.701L43.4658 276.048M43.4658 116.872L43.4658 259.816" stroke="#97969C" stroke-dasharray="4 4"/>
<path d="M266.438 379.587L266.438 280.476M266.438 87.9861L266.438 256.106" stroke="#97969C" stroke-dasharray="4 4"/>
<path d="M117.457 379.587L117.457 222.426M117.457 87.9861L117.457 176.327" stroke="#97969C" stroke-dasharray="4 4"/>
<path d="M191.447 412.872L191.447 376.265M191.447 54.7013L191.447 106.355M191.447 297.841L191.447 152.432" stroke="#97969C" stroke-dasharray="4 4"/>
<path d="M29.3154 129.404L168.693 129.404M354.578 129.404L346.713 129.404M334.166 129.404L214.673 129.404" stroke="#97969C" stroke-dasharray="4 4"/>
<path d="M29.3154 337.169L152.6 337.169M354.578 337.169H230.631" stroke="#97969C" stroke-dasharray="4 4"/>
<path d="M0 198.659L94.2833 198.659M383.894 198.659L140.702 198.659" stroke="#97969C" stroke-dasharray="4 4"/>
<path d="M0 267.914L35.1974 267.914M383.894 267.914L278.278 267.914M51.6395 267.914H254.107" stroke="#97969C" stroke-dasharray="4 4"/>
<path d="M187.668 110.662L190.214 107.207L190.616 107.504L191.486 106.323L192.357 107.504L192.759 107.207L195.305 110.662L194.902 110.958L197.448 114.413L197.85 114.116L200.396 117.57L199.993 117.867L201.266 119.594L201.311 119.655L201.372 119.7L203.099 120.973L203.396 120.57L206.85 123.116L206.554 123.519L210.008 126.064L210.305 125.662L213.759 128.207L213.463 128.61L214.643 129.48L213.463 130.35L213.759 130.753L210.305 133.298L210.008 132.896L206.554 135.441L206.85 135.844L203.396 138.39L203.099 137.987L201.372 139.26L201.311 139.305L201.266 139.366L199.993 141.093L200.396 141.39L197.85 144.844L197.448 144.547L194.902 148.002L195.305 148.298L192.759 151.753L192.357 151.456L191.486 152.637L190.616 151.456L190.214 151.753L187.668 148.298L188.07 148.002L185.525 144.547L185.122 144.844L182.577 141.39L182.979 141.093L181.707 139.366L181.662 139.305L181.601 139.26L179.873 137.987L179.577 138.39L176.122 135.844L176.419 135.441L172.965 132.896L172.668 133.298L169.214 130.753L169.51 130.35L168.329 129.48L169.51 128.61L169.214 128.207L172.668 125.662L172.965 126.064L176.419 123.519L176.122 123.116L179.577 120.57L179.873 120.973L181.601 119.7L181.662 119.655L181.707 119.594L182.979 117.867L182.577 117.57L185.122 114.116L185.525 114.413L188.07 110.958L187.668 110.662Z" stroke="#97969C" stroke-dasharray="4 4"/>
<path d="M113.639 179.827L116.184 176.373L116.587 176.669L117.457 175.488L118.327 176.669L118.73 176.373L121.275 179.827L120.873 180.124L123.418 183.578L123.821 183.282L126.367 186.736L125.964 187.033L127.237 188.76L127.282 188.821L127.343 188.866L129.07 190.138L129.367 189.736L132.821 192.282L132.524 192.684L135.979 195.23L136.275 194.827L139.73 197.373L139.433 197.775L140.614 198.646L139.433 199.516L139.73 199.918L136.275 202.464L135.979 202.061L132.524 204.607L132.821 205.009L129.367 207.555L129.07 207.153L127.343 208.425L127.282 208.47L127.237 208.531L125.964 210.258L126.367 210.555L123.821 214.009L123.418 213.713L120.873 217.167L121.275 217.464L118.73 220.918L118.327 220.622L117.457 221.803L116.587 220.622L116.184 220.918L113.639 217.464L114.041 217.167L111.496 213.713L111.093 214.009L108.547 210.555L108.95 210.258L107.677 208.531L107.632 208.47L107.571 208.425L105.844 207.153L105.547 207.555L102.093 205.009L102.39 204.607L98.9353 202.061L98.6387 202.464L95.1842 199.918L95.4809 199.516L94.2999 198.646L95.4809 197.775L95.1842 197.373L98.6387 194.827L98.9353 195.23L102.39 192.684L102.093 192.282L105.547 189.736L105.844 190.138L107.571 188.866L107.632 188.821L107.677 188.76L108.95 187.033L108.547 186.736L111.093 183.282L111.496 183.578L114.041 180.124L113.639 179.827Z" stroke="#97969C" stroke-dasharray="4 4"/>
<path d="M188.322 301.601L190.443 298.722L190.846 299.019L191.504 298.126L192.162 299.019L192.565 298.722L194.686 301.601L194.283 301.897L196.405 304.776L196.807 304.479L198.929 307.358L198.526 307.655L200.647 310.533L201.05 310.237L203.171 313.115L202.769 313.412L204.89 316.291L205.292 315.994L207.414 318.873L207.011 319.169L208.072 320.609L208.117 320.67L208.178 320.715L209.617 321.775L209.914 321.373L212.792 323.494L212.496 323.897L215.375 326.018L215.671 325.615L218.55 327.737L218.253 328.139L221.132 330.261L221.429 329.858L224.307 331.979L224.011 332.382L226.889 334.503L227.186 334.101L230.065 336.222L229.768 336.625L230.661 337.283L229.768 337.941L230.065 338.343L227.186 340.465L226.889 340.062L224.011 342.184L224.307 342.586L221.429 344.707L221.132 344.305L218.253 346.426L218.55 346.829L215.671 348.95L215.375 348.547L212.496 350.669L212.792 351.071L209.914 353.193L209.617 352.79L208.178 353.851L208.117 353.896L208.072 353.957L207.011 355.396L207.414 355.693L205.292 358.571L204.89 358.275L202.769 361.153L203.171 361.45L201.05 364.329L200.647 364.032L198.526 366.911L198.929 367.207L196.807 370.086L196.405 369.789L194.283 372.668L194.686 372.965L192.565 375.843L192.162 375.547L191.504 376.44L190.846 375.547L190.443 375.843L188.322 372.965L188.724 372.668L186.603 369.789L186.201 370.086L184.079 367.207L184.482 366.911L182.36 364.032L181.958 364.329L179.837 361.45L180.239 361.153L178.118 358.275L177.715 358.571L175.594 355.693L175.997 355.396L174.936 353.957L174.891 353.896L174.83 353.851L173.391 352.79L173.094 353.193L170.215 351.071L170.512 350.669L167.633 348.547L167.337 348.95L164.458 346.829L164.755 346.426L161.876 344.305L161.579 344.707L158.701 342.586L158.997 342.184L156.119 340.062L155.822 340.465L152.943 338.343L153.24 337.941L152.347 337.283L153.24 336.625L152.943 336.222L155.822 334.101L156.119 334.503L158.997 332.382L158.701 331.979L161.579 329.858L161.876 330.261L164.755 328.139L164.458 327.737L167.337 325.615L167.633 326.018L170.512 323.897L170.215 323.494L173.094 321.373L173.391 321.775L174.83 320.715L174.891 320.67L174.936 320.609L175.997 319.169L175.594 318.873L177.715 315.994L178.118 316.291L180.239 313.412L179.837 313.115L181.958 310.237L182.36 310.533L184.482 307.655L184.079 307.358L186.201 304.479L186.603 304.776L188.724 301.897L188.322 301.601Z" stroke="#97969C" stroke-dasharray="4 4"/>
<circle cx="266.193" cy="268.201" r="12" stroke="#97969C" stroke-dasharray="4 4"/>
<circle cx="340.386" cy="129.479" r="6.16763" stroke="#97969C" stroke-dasharray="4 4"/>
<circle cx="43.5469" cy="267.945" r="8" stroke="#97969C" stroke-dasharray="4 4"/>
</svg>
