<svg width="18" height="21" viewBox="0 0 18 21" fill="none" xmlns="http://www.w3.org/2000/svg">
<path d="M6.6 15.1957L8 13.7457L5.85 11.5957L8 9.4457L6.6 7.9957L3 11.5957L6.6 15.1957ZM11.4 15.1957L15 11.5957L11.4 7.9957L10 9.4457L12.15 11.5957L10 13.7457L11.4 15.1957ZM2 18.5957H16V4.5957H2V18.5957ZM2 20.5957C1.45 20.5957 0.979 20.4 0.587 20.0087C0.195667 19.6167 0 19.1457 0 18.5957V4.5957C0 4.0457 0.195667 3.5747 0.587 3.1827C0.979 2.79137 1.45 2.5957 2 2.5957H6.2C6.41667 1.9957 6.77933 1.51237 7.288 1.1457C7.796 0.779036 8.36667 0.595703 9 0.595703C9.63333 0.595703 10.2043 0.779036 10.713 1.1457C11.221 1.51237 11.5833 1.9957 11.8 2.5957H16C16.55 2.5957 17.021 2.79137 17.413 3.1827C17.8043 3.5747 18 4.0457 18 4.5957V18.5957C18 19.1457 17.8043 19.6167 17.413 20.0087C17.021 20.4 16.55 20.5957 16 20.5957H2ZM9 3.8457C9.21667 3.8457 9.396 3.7747 9.538 3.6327C9.67933 3.49137 9.75 3.31237 9.75 3.0957C9.75 2.87904 9.67933 2.6997 9.538 2.5577C9.396 2.41637 9.21667 2.3457 9 2.3457C8.78333 2.3457 8.60433 2.41637 8.463 2.5577C8.321 2.6997 8.25 2.87904 8.25 3.0957C8.25 3.31237 8.321 3.49137 8.463 3.6327C8.60433 3.7747 8.78333 3.8457 9 3.8457Z" fill="#1C1B1F"/>
</svg>
