<svg width="355" height="71" viewBox="0 0 355 71" fill="none" xmlns="http://www.w3.org/2000/svg">
<path d="M47.6689 35.2822C47.6844 34.9991 47.6875 34.7191 47.6875 34.4329C47.6875 33.9352 47.6689 33.4344 47.6315 32.946C46.7823 21.8003 36.4547 13 23.8407 13C10.676 13 0 22.5966 0 34.4361C0 43.5256 6.29301 51.2931 15.1742 54.4132C17.7903 55.3308 19.2243 58.1429 18.4404 60.8026L17.9209 62.5664C24.0988 59.2535 30.6874 56.2641 36.5013 52.3414C41.3883 49.0472 46.0762 44.182 47.3111 38.2311H25.4116C23.7473 41.9018 19.7407 44.4868 15.0591 44.4868C10.1254 44.4868 5.93528 41.6125 4.45457 37.6246C4.17771 36.8842 3.99418 36.1003 3.91641 35.2853V35.2822H47.6689V35.2822ZM15.0591 24.3822C20.4344 24.3822 24.9263 27.7946 25.9964 32.3425H4.11861C5.19181 27.7946 9.67749 24.3822 15.0591 24.3822Z" fill="#00CC74"/>
<path d="M67.8251 24.4991V32.7259H78.8725V37.944H67.8251V46.6408H80.2828V52H61.2437V19.1399H80.2828V24.4991H67.8251ZM100.696 25.5803C103.798 25.5803 106.306 26.5675 108.217 28.542C110.129 30.485 111.085 33.2116 111.085 36.7217V52H104.504V37.6149C104.504 35.5465 103.987 33.9638 102.952 32.8669C101.918 31.7386 100.508 31.1745 98.7214 31.1745C96.9037 31.1745 95.462 31.7386 94.3965 32.8669C93.3623 33.9638 92.8451 35.5465 92.8451 37.6149V52H86.2637V25.9564H92.8451V29.2001C93.7227 28.0719 94.8352 27.1943 96.1829 26.5675C97.5618 25.9094 99.0661 25.5803 100.696 25.5803ZM127.545 25.5333C129.488 25.5333 131.196 25.9251 132.669 26.7086C134.142 27.4607 135.302 28.4479 136.148 29.6702V25.9564H142.776V52.188C142.776 54.6012 142.29 56.748 141.319 58.6284C140.347 60.5402 138.89 62.0445 136.947 63.1414C135.004 64.2696 132.653 64.8338 129.895 64.8338C126.197 64.8338 123.157 63.9719 120.775 62.2482C118.425 60.5245 117.093 58.174 116.78 55.1967H123.314C123.659 56.3876 124.395 57.3278 125.523 58.0173C126.683 58.7381 128.078 59.0985 129.707 59.0985C131.619 59.0985 133.17 58.5187 134.361 57.3592C135.552 56.2309 136.148 54.5072 136.148 52.188V48.1452C135.302 49.3674 134.126 50.386 132.622 51.2008C131.149 52.0157 129.457 52.4231 127.545 52.4231C125.351 52.4231 123.345 51.859 121.528 50.7307C119.71 49.6025 118.268 48.0198 117.203 45.9827C116.168 43.9143 115.651 41.5481 115.651 38.8842C115.651 36.2516 116.168 33.9168 117.203 31.8797C118.268 29.8426 119.694 28.2756 121.481 27.1787C123.298 26.0818 125.32 25.5333 127.545 25.5333ZM136.148 38.9782C136.148 37.3799 135.834 36.0166 135.207 34.8883C134.581 33.7287 133.735 32.8512 132.669 32.2558C131.603 31.629 130.459 31.3156 129.237 31.3156C128.015 31.3156 126.887 31.6133 125.852 32.2087C124.818 32.8042 123.972 33.6817 123.314 34.8413C122.687 35.9696 122.374 37.3172 122.374 38.8842C122.374 40.4512 122.687 41.8301 123.314 43.0211C123.972 44.1807 124.818 45.0738 125.852 45.7006C126.918 46.3274 128.046 46.6408 129.237 46.6408C130.459 46.6408 131.603 46.3431 132.669 45.7477C133.735 45.1209 134.581 44.2433 135.207 43.1151C135.834 41.9555 136.148 40.5765 136.148 38.9782ZM147.512 38.8842C147.512 36.2516 148.029 33.9168 149.063 31.8797C150.129 29.8426 151.555 28.2756 153.341 27.1787C155.159 26.0818 157.18 25.5333 159.405 25.5333C161.348 25.5333 163.041 25.9251 164.482 26.7086C165.955 27.4921 167.131 28.4793 168.008 29.6702V25.9564H174.636V52H168.008V48.1922C167.162 49.4144 165.987 50.433 164.482 51.2478C163.009 52.0313 161.301 52.4231 159.358 52.4231C157.164 52.4231 155.159 51.859 153.341 50.7307C151.555 49.6025 150.129 48.0198 149.063 45.9827C148.029 43.9143 147.512 41.5481 147.512 38.8842ZM168.008 38.9782C168.008 37.3799 167.695 36.0166 167.068 34.8883C166.441 33.7287 165.595 32.8512 164.529 32.2558C163.464 31.629 162.32 31.3156 161.098 31.3156C159.875 31.3156 158.747 31.6133 157.713 32.2087C156.679 32.8042 155.832 33.6817 155.174 34.8413C154.548 35.9696 154.234 37.3172 154.234 38.8842C154.234 40.4512 154.548 41.8301 155.174 43.0211C155.832 44.1807 156.679 45.0738 157.713 45.7006C158.778 46.3274 159.907 46.6408 161.098 46.6408C162.32 46.6408 163.464 46.3431 164.529 45.7477C165.595 45.1209 166.441 44.2433 167.068 43.1151C167.695 41.9555 168.008 40.5765 168.008 38.9782ZM191.266 25.5333C193.209 25.5333 194.917 25.9251 196.39 26.7086C197.863 27.4607 199.022 28.4479 199.868 29.6702V25.9564H206.497V52.188C206.497 54.6012 206.011 56.748 205.04 58.6284C204.068 60.5402 202.611 62.0445 200.668 63.1414C198.725 64.2696 196.374 64.8338 193.616 64.8338C189.918 64.8338 186.878 63.9719 184.496 62.2482C182.146 60.5245 180.814 58.174 180.5 55.1967H187.035C187.379 56.3876 188.116 57.3278 189.244 58.0173C190.404 58.7381 191.798 59.0985 193.428 59.0985C195.34 59.0985 196.891 58.5187 198.082 57.3592C199.273 56.2309 199.868 54.5072 199.868 52.188V48.1452C199.022 49.3674 197.847 50.386 196.343 51.2008C194.87 52.0157 193.177 52.4231 191.266 52.4231C189.072 52.4231 187.066 51.859 185.248 50.7307C183.431 49.6025 181.989 48.0198 180.923 45.9827C179.889 43.9143 179.372 41.5481 179.372 38.8842C179.372 36.2516 179.889 33.9168 180.923 31.8797C181.989 29.8426 183.415 28.2756 185.201 27.1787C187.019 26.0818 189.04 25.5333 191.266 25.5333ZM199.868 38.9782C199.868 37.3799 199.555 36.0166 198.928 34.8883C198.301 33.7287 197.455 32.8512 196.39 32.2558C195.324 31.629 194.18 31.3156 192.958 31.3156C191.736 31.3156 190.607 31.6133 189.573 32.2087C188.539 32.8042 187.693 33.6817 187.035 34.8413C186.408 35.9696 186.094 37.3172 186.094 38.8842C186.094 40.4512 186.408 41.8301 187.035 43.0211C187.693 44.1807 188.539 45.0738 189.573 45.7006C190.639 46.3274 191.767 46.6408 192.958 46.6408C194.18 46.6408 195.324 46.3431 196.39 45.7477C197.455 45.1209 198.301 44.2433 198.928 43.1151C199.555 41.9555 199.868 40.5765 199.868 38.9782ZM237.135 38.4141C237.135 39.3543 237.072 40.2005 236.947 40.9526H217.908C218.065 42.833 218.723 44.306 219.882 45.3716C221.042 46.4371 222.468 46.9699 224.16 46.9699C226.605 46.9699 228.344 45.92 229.378 43.8202H236.477C235.725 46.3274 234.283 48.3959 232.152 50.0256C230.021 51.6239 227.404 52.4231 224.301 52.4231C221.794 52.4231 219.538 51.8746 217.532 50.7777C215.557 49.6495 214.006 48.0668 212.878 46.0297C211.781 43.9926 211.232 41.6421 211.232 38.9782C211.232 36.283 211.781 33.9168 212.878 31.8797C213.975 29.8426 215.51 28.2756 217.485 27.1787C219.459 26.0818 221.731 25.5333 224.301 25.5333C226.777 25.5333 228.987 26.0661 230.93 27.1317C232.904 28.1972 234.424 29.7172 235.49 31.6916C236.587 33.6347 237.135 35.8755 237.135 38.4141ZM230.318 36.5337C230.287 34.8413 229.676 33.4937 228.485 32.4908C227.294 31.4566 225.837 30.9395 224.113 30.9395C222.483 30.9395 221.105 31.4409 219.976 32.4438C218.879 33.4153 218.206 34.7786 217.955 36.5337H230.318Z" fill="#001A41"/>
<path d="M240.246 38.8842C240.246 36.2516 240.764 33.9168 241.798 31.8797C242.863 29.8426 244.305 28.2756 246.123 27.1787C247.94 26.0818 249.962 25.5333 252.187 25.5333C253.879 25.5333 255.493 25.9094 257.029 26.6615C258.565 27.3824 259.787 28.3539 260.696 29.5762V17.2125H267.371V52H260.696V48.1452C259.881 49.4301 258.737 50.4643 257.264 51.2478C255.791 52.0313 254.083 52.4231 252.14 52.4231C249.946 52.4231 247.94 51.859 246.123 50.7307C244.305 49.6025 242.863 48.0198 241.798 45.9827C240.764 43.9143 240.246 41.5481 240.246 38.8842ZM260.743 38.9782C260.743 37.3799 260.429 36.0166 259.803 34.8883C259.176 33.7287 258.33 32.8512 257.264 32.2558C256.199 31.629 255.055 31.3156 253.832 31.3156C252.61 31.3156 251.482 31.6133 250.448 32.2087C249.413 32.8042 248.567 33.6817 247.909 34.8413C247.282 35.9696 246.969 37.3172 246.969 38.8842C246.969 40.4512 247.282 41.8301 247.909 43.0211C248.567 44.1807 249.413 45.0738 250.448 45.7006C251.513 46.3274 252.641 46.6408 253.832 46.6408C255.055 46.6408 256.199 46.3431 257.264 45.7477C258.33 45.1209 259.176 44.2433 259.803 43.1151C260.429 41.9555 260.743 40.5765 260.743 38.9782ZM285.364 52.4231C282.856 52.4231 280.6 51.8746 278.594 50.7777C276.588 49.6495 275.006 48.0668 273.846 46.0297C272.718 43.9926 272.154 41.6421 272.154 38.9782C272.154 36.3143 272.734 33.9638 273.893 31.9267C275.084 29.8896 276.698 28.3226 278.735 27.2257C280.772 26.0974 283.045 25.5333 285.552 25.5333C288.059 25.5333 290.331 26.0974 292.368 27.2257C294.405 28.3226 296.004 29.8896 297.163 31.9267C298.354 33.9638 298.95 36.3143 298.95 38.9782C298.95 41.6421 298.338 43.9926 297.116 46.0297C295.925 48.0668 294.296 49.6495 292.227 50.7777C290.19 51.8746 287.902 52.4231 285.364 52.4231ZM285.364 46.6879C286.555 46.6879 287.667 46.4058 288.701 45.8417C289.767 45.2462 290.613 44.3687 291.24 43.2091C291.867 42.0495 292.18 40.6392 292.18 38.9782C292.18 36.5023 291.522 34.6063 290.206 33.29C288.921 31.9424 287.338 31.2685 285.458 31.2685C283.577 31.2685 281.995 31.9424 280.71 33.29C279.456 34.6063 278.829 36.5023 278.829 38.9782C278.829 41.4541 279.44 43.3658 280.663 44.7134C281.916 46.0297 283.483 46.6879 285.364 46.6879ZM302.085 38.9782C302.085 36.283 302.633 33.9324 303.73 31.9267C304.827 29.8896 306.347 28.3226 308.29 27.2257C310.233 26.0974 312.458 25.5333 314.966 25.5333C318.194 25.5333 320.858 26.3481 322.957 27.9778C325.089 29.5762 326.515 31.8327 327.235 34.7473H320.137C319.761 33.619 319.118 32.7415 318.209 32.1147C317.332 31.4566 316.235 31.1275 314.919 31.1275C313.038 31.1275 311.55 31.817 310.453 33.196C309.356 34.5436 308.807 36.471 308.807 38.9782C308.807 41.4541 309.356 43.3815 310.453 44.7604C311.55 46.1081 313.038 46.7819 314.919 46.7819C317.583 46.7819 319.322 45.591 320.137 43.2091H327.235C326.515 46.0297 325.089 48.2705 322.957 49.9316C320.826 51.5926 318.162 52.4231 314.966 52.4231C312.458 52.4231 310.233 51.8746 308.29 50.7777C306.347 49.6495 304.827 48.0825 303.73 46.0767C302.633 44.0396 302.085 41.6734 302.085 38.9782ZM342.023 52.4231C339.892 52.4231 337.98 52.047 336.288 51.2948C334.595 50.5113 333.248 49.4615 332.245 48.1452C331.273 46.8289 330.741 45.3716 330.647 43.7732H337.275C337.4 44.7761 337.886 45.6066 338.732 46.2648C339.61 46.9229 340.691 47.252 341.976 47.252C343.23 47.252 344.201 47.0013 344.891 46.4998C345.611 45.9984 345.972 45.3559 345.972 44.5724C345.972 43.7262 345.533 43.0994 344.656 42.692C343.809 42.2532 342.446 41.7831 340.566 41.2817C338.623 40.8116 337.024 40.3258 335.771 39.8244C334.548 39.3229 333.483 38.5551 332.574 37.5209C331.696 36.4867 331.258 35.092 331.258 33.337C331.258 31.8953 331.665 30.5791 332.48 29.3881C333.326 28.1972 334.517 27.257 336.053 26.5675C337.62 25.878 339.453 25.5333 341.553 25.5333C344.656 25.5333 347.131 26.3168 348.98 27.8838C350.83 29.4195 351.848 31.5036 352.036 34.1362H345.737C345.643 33.1019 345.204 32.2871 344.42 31.6916C343.668 31.0648 342.65 30.7514 341.365 30.7514C340.174 30.7514 339.249 30.9708 338.591 31.4096C337.964 31.8483 337.651 32.4595 337.651 33.243C337.651 34.1205 338.09 34.7943 338.967 35.2644C339.845 35.7032 341.208 36.1576 343.057 36.6277C344.938 37.0978 346.489 37.5836 347.711 38.085C348.933 38.5864 349.983 39.37 350.861 40.4355C351.77 41.4697 352.24 42.8487 352.271 44.5724C352.271 46.0767 351.848 47.4243 351.002 48.6153C350.187 49.8062 348.996 50.7464 347.429 51.4359C345.893 52.094 344.091 52.4231 342.023 52.4231Z" fill="#00CC74"/>
</svg>
