<svg width="160px" height="35px" viewBox="0 0 160 35" fill="#53BD95" xmlns="http://www.w3.org/2000/svg"><rect id="Rectangle" fill-rule="nonzero" x="12.0053981" y="11.402969" width="19.1136302" height="3.31659919" rx="1.6582996"></rect><rect id="Rectangle" fill-rule="nonzero" x="0.179217274" y="19.6901484" width="19.1136302" height="3.31659919" rx="1.6582996"></rect><path d="M2.47233468,13.6723347 C2.79855578,13.7565886 3.13232203,13.564769 3.22375169,13.2404858 C5.27547469,6.81826278 11.8826464,3.01719684 18.465857,4.47179487 C18.7850449,4.53756951 19.0999264,4.34219127 19.182726,4.02699055 L19.7225371,2.01241565 C19.7651978,1.84899417 19.7393077,1.67524044 19.6508569,1.53135514 C19.5624062,1.38746985 19.419059,1.2859206 19.2539811,1.25020243 C10.9295268,-0.623569708 2.5630466,4.21582802 0.0367071525,12.3659919 C-0.00962590681,12.5252283 0.0100346304,12.6964085 0.0912625308,12.8409942 C0.172490431,12.9855798 0.308458555,13.0914187 0.468556005,13.1346829 L2.47233468,13.6723347 Z" id="Path"></path><path d="M28.8302294,20.7287449 C28.5013706,20.6403019 28.1625453,20.8328163 28.0701754,21.1605938 C26.0228159,27.5871434 19.4143779,31.3936187 12.8280702,29.940081 C12.5086768,29.8731464 12.1930527,30.0689855 12.1112011,30.3848853 L11.5821862,32.388664 C11.5388504,32.552386 11.5644096,32.7267108 11.6529204,32.8711016 C11.7414312,33.0154925 11.8851808,33.1173673 12.0507422,33.1530364 C20.3751472,35.0221921 28.7390716,30.1833329 31.2680162,22.0350877 C31.3149267,21.8761204 31.2954905,21.7049338 31.2141359,21.5605294 C31.1327813,21.416125 30.9964374,21.3108019 30.8361673,21.268556 L28.8302294,20.7287449 Z" id="Path"></path><circle id="Oval" fill-rule="nonzero" cx="25.0990553" cy="5.94439946" r="1.81808367"></circle><circle id="Oval" fill-rule="nonzero" cx="6.20350877" cy="28.4631579" r="1.81808367"></circle><path d="M75.6448043,13.9076923 C76.985801,12.4350815 78.8937922,11.6080494 80.8852901,11.6361673 C82.7983806,11.6361673 84.2882591,12.2278003 85.2296896,13.3635628 L85.2296896,12.4221323 C85.2425324,12.1526161 85.4569209,11.9363634 85.7263158,11.9211876 L88.2483131,11.9211876 C88.5172719,11.9373298 88.7311263,12.1530438 88.7449393,12.4221323 L88.7449393,26.4248313 C88.8231693,28.400731 88.2125679,30.3424434 87.0175439,31.9179487 C85.65722,33.5719298 83.5929825,34.4097166 80.8809717,34.4097166 C77.1109312,34.4097166 74.1354926,32.0237517 73.6453441,28.6164642 C73.6208155,28.3628567 73.7805493,28.127794 74.0253711,28.05722 L76.4890688,27.4785425 C76.5020037,27.477509 76.5150004,27.477509 76.5279352,27.4785425 C76.6577309,27.458783 76.7900422,27.4916871 76.8954631,27.5699418 C77.0008839,27.6481965 77.0706798,27.7653182 77.0893387,27.8952767 C77.3172256,29.8057293 78.9619234,31.2287017 80.8852901,31.1794872 C83.8304993,31.1794872 85.2037787,29.6680162 85.2037787,26.5090418 L85.2037787,25.2825911 C84.1096013,26.5086148 82.5276534,27.1856885 80.8852901,27.1309042 C76.694197,27.1309042 73.6539811,23.8769231 73.6539811,19.3986505 C73.6167388,17.3852859 74.3258862,15.429362 75.6448043,13.9076923 Z M124.549528,11.4439946 L124.681242,11.4439946 C129.187584,11.5044534 131.979487,14.6418354 131.979487,19.6620783 C131.979097,19.9282395 131.964682,20.1941952 131.936302,20.4588394 C131.906927,20.7040985 131.699639,20.8891767 131.452632,20.8906883 L120.740621,20.8906883 C120.807626,23.1406336 122.668055,24.9202999 124.918758,24.8874494 C126.663268,24.9964238 128.252256,23.8872658 128.751417,22.2121457 C128.844615,21.965008 129.115589,21.8347504 129.366802,21.9163293 L131.497976,22.6720648 C131.622581,22.7127363 131.723912,22.8046416 131.776518,22.9246964 C131.835442,23.0405502 131.844794,23.1753659 131.802429,23.2982456 C130.809932,26.2385193 128.012003,28.1844473 124.910121,28.0917679 C122.876492,28.1115864 120.919464,27.3169565 119.475304,25.8850202 C117.899051,24.2273073 117.057592,22.0041762 117.141161,19.7182186 C117.141161,14.5360324 120.906883,11.4331984 124.545209,11.4331984 L124.549528,11.4439946 Z M63.9438596,11.4439946 C68.5300945,11.4439946 71.3802969,14.594332 71.3802969,19.6642375 C71.3799065,19.9303987 71.3654915,20.1963545 71.337112,20.4609987 C71.3105304,20.7077039 71.1015703,20.8942754 70.8534413,20.8928475 L60.1414305,20.8928475 C60.2038419,23.15647 62.0814872,24.9453924 64.3454791,24.8982456 C66.0904465,25.0088531 67.6803514,23.8990548 68.1781377,22.222942 C68.2686431,21.9733532 68.5420773,21.8419129 68.7935223,21.9271255 L70.9333333,22.6807018 C71.058224,22.72088 71.1597328,22.8129462 71.2118758,22.9333333 C71.26142,23.0529214 71.26142,23.1872945 71.2118758,23.3068826 C70.2198447,26.2455927 67.4241943,28.1911551 64.3238866,28.1004049 C62.2866655,28.1223932 60.3254792,27.3276539 58.8782726,25.8936572 C57.3049662,24.2340942 56.4639945,22.0122485 56.5441296,19.7268556 C56.5441296,14.5446694 60.3098516,11.4418354 63.9503374,11.4418354 L63.9438596,11.4439946 Z M47.7192982,11.4439946 C49.777058,11.4439946 51.4418354,11.94278 52.6747638,12.9295547 C53.5073334,13.5936295 54.1248722,14.4891359 54.4496626,15.5033738 L54.4496626,15.5033738 C54.4702965,15.5904602 54.4551914,15.6821828 54.4077214,15.7580536 C54.3602514,15.8339245 54.2843715,15.8876223 54.197031,15.9071525 L51.6426451,16.751417 C51.5292968,16.7945834 51.4040365,16.7945834 51.2906883,16.751417 C51.19318,16.7063787 51.1199451,16.6213318 51.0898785,16.5182186 C50.8739541,15.6912281 50.1311741,14.302834 47.7149798,14.302834 C46.02861,14.302834 45.0180837,15.2701754 45.0180837,16.2072874 C45.0180837,16.8291498 45.3398111,17.6302294 46.859919,17.9195682 L49.6669366,18.4464238 C52.8043185,19.0790823 54.6008097,20.7956815 54.6008097,23.1859649 L54.6008097,23.1449393 C54.6008097,25.520108 52.3163293,28.05722 48.0712551,28.05722 C43.1481781,28.05722 41.2134953,25.2717949 40.85722,23.62861 C40.832806,23.4509778 40.9450142,23.283129 41.1184885,23.2377868 L43.7527665,22.417274 C43.7998773,22.408637 43.8481659,22.408637 43.8952767,22.417274 C43.9704855,22.4159207 44.0447986,22.4337559 44.1112011,22.4690958 C44.2079272,22.5156193 44.2790845,22.6025894 44.3055331,22.7066127 C44.6380567,24.2871795 46.0653171,25.22861 48.1187584,25.22861 C50.0296896,25.22861 50.899865,24.2288799 50.899865,23.3219973 C50.899865,22.4151147 50.1246964,21.7479082 48.7924426,21.4801619 L45.8385965,20.905803 C43.0834008,20.3854251 41.3668016,18.6731444 41.3668016,16.4448043 C41.3668016,13.7327935 44.2796221,11.4439946 47.7192982,11.4439946 Z M156.232119,7.04993252 C156.510373,7.06707024 156.727113,7.29800697 156.726586,7.57678812 L156.726586,11.8952767 L159.496896,11.8952767 C159.772956,11.9156133 159.986663,12.145325 159.987058,12.4221323 L159.987058,14.7238866 C159.988253,14.9964963 159.769485,15.2191189 159.496896,15.2226721 L156.726586,15.2226721 L156.726586,22.9074224 C156.726586,24.1813765 157.231849,24.7082321 158.531714,24.7082321 C158.828104,24.7032644 159.123844,24.6787397 159.417004,24.6348178 C159.560576,24.6103084 159.707631,24.65063 159.818623,24.7449393 C159.924475,24.8431786 159.985361,24.9805617 159.987058,25.1249663 L159.987058,27.2842105 C159.988648,27.5049347 159.844377,27.7002287 159.632928,27.7635628 C159.00068,27.940812 158.346162,28.0258993 157.689609,28.0161943 C154.912821,28.0161943 153.191903,26.2304993 153.191903,23.3500675 L153.191903,15.2550607 L150.795142,15.2550607 C150.526591,15.2388232 150.313416,15.0228553 150.300666,14.7541161 L150.300666,12.4480432 C150.299062,12.1688349 150.516392,11.9372693 150.795142,11.9211876 L151.417004,11.9211876 C152.17058,11.9211876 153.440216,11.6577598 153.440216,9.86126856 L153.440216,7.57678812 C153.438603,7.29757987 153.655933,7.06601421 153.934683,7.04993252 L156.232119,7.04993252 Z M104.237517,14.0178138 C105.339321,12.3338955 107.247349,11.3556725 109.25776,11.4439946 L109.25776,11.4439946 C111.995682,11.4439946 114.761673,13.3721997 114.761673,17.5848853 L114.761673,27.3360324 C114.74786,27.6051208 114.534006,27.8208349 114.265047,27.8369771 L111.740891,27.8369771 C111.472776,27.8197813 111.260129,27.6043481 111.246424,27.3360324 L111.246424,17.8979757 C111.246424,16.7039136 110.872874,14.691498 108.344399,14.691498 C106.496086,14.691498 105.183266,16.1446694 105.183266,18.2520918 L105.183266,27.3360324 C105.170525,27.6047716 104.95735,27.8207395 104.688799,27.8369771 L102.132254,27.8369771 C101.863295,27.8208349 101.649441,27.6051208 101.635628,27.3360324 L101.635628,17.8979757 C101.639946,16.7039136 101.268556,14.682861 98.7379217,14.682861 C96.8161943,14.682861 95.5206478,16.1252362 95.5206478,18.2736842 L95.5206478,27.3360324 C95.5069429,27.6043481 95.2942954,27.8197813 95.0261808,27.8369771 L92.5041835,27.8369771 C92.2373231,27.8186339 92.0265607,27.6032291 92.0140351,27.3360324 L92.0140351,12.3897436 C92.0275118,12.1229621 92.2377589,11.908084 92.5041835,11.8887989 L94.9311741,11.8887989 C95.1992887,11.9059946 95.4119362,12.1214279 95.425641,12.3897436 L95.425641,13.2901484 C96.5191123,12.0939063 98.0717538,11.4220903 99.6923077,11.4439946 C101.568338,11.3890791 103.319596,12.3807657 104.237517,14.0178138 Z M142.695816,11.4439946 C144.331459,11.3740474 145.908546,12.0594952 146.973279,13.3031039 C147.953597,14.593591 148.452319,16.1859894 148.383266,17.8051282 L148.383266,27.3360324 C148.371813,27.6028785 148.161731,27.8185373 147.895277,27.8369771 L145.340891,27.8369771 C145.072364,27.8198822 144.859034,27.6046971 144.844265,27.3360324 L144.844265,18.3147099 C144.844265,15.9546559 143.734413,14.7541161 141.626991,14.7541161 C140.696658,14.7241271 139.807569,15.1386079 139.232389,15.8704453 C138.661147,16.6922083 138.372424,17.6773525 138.409717,18.6774629 L138.409717,27.3360324 C138.396012,27.6043481 138.183364,27.8197813 137.91525,27.8369771 L135.365182,27.8369771 C135.097068,27.8197813 134.88442,27.6043481 134.870715,27.3360324 L134.870715,12.3789474 C134.881399,12.10894 135.0954,11.8912003 135.365182,11.8758435 L137.85695,11.8758435 C138.123465,11.8931299 138.33447,12.1078529 138.347099,12.3746289 L138.347099,13.4283401 C139.417211,12.1370213 141.019152,11.4060463 142.695816,11.4439946 Z M81.3236167,14.7865047 C78.8361673,14.7865047 77.2577598,16.5549258 77.2577598,19.3986505 C77.2577598,22.2423752 78.8167341,24.008637 81.3236167,24.008637 C83.7139001,24.008637 85.3246964,22.1538462 85.3246964,19.3986505 C85.3246964,16.6434548 83.7139001,14.7865047 81.3236167,14.7865047 Z M63.9697706,14.6439946 C62.0677934,14.6111569 60.4532509,16.0311311 60.242915,17.9217274 L67.7354926,17.9217274 C67.5562753,15.8985155 66.1182186,14.6439946 63.9697706,14.6439946 L63.9697706,14.6439946 Z M124.590553,14.6439946 C122.690594,14.6144263 121.079166,16.0333057 120.868016,17.9217274 L128.362753,17.9217274 C128.177058,15.8985155 126.747638,14.6439946 124.588394,14.6439946 L124.590553,14.6439946 Z" id="Shape"></path><polygon id="Path" fill-rule="nonzero" points="45.082861 1.3365722 45.082861 6.35897436 43.659919 6.35897436 43.659919 1.3365722 41.6928475 1.3365722 41.6928475 0.118758435 47.071525 0.118758435 47.071525 1.3365722"></polygon><polygon id="Path" fill-rule="nonzero" points="55.9524966 6.3805668 54.4734143 6.3805668 53.1174089 1.78137652 51.7376518 6.3805668 50.2887989 6.3805668 48.4534413 0.118758435 49.9649123 0.118758435 51.1287449 4.6294197 52.4415655 0.118758435 53.9530364 0.118758435 55.248583 4.6294197 56.3757085 0.118758435 57.7662618 0.118758435"></polygon><polygon id="Path" fill-rule="nonzero" points="59.7246964 6.35897436 59.7246964 0.118758435 61.1260459 0.118758435 61.1260459 6.35897436"></polygon><polygon id="Path" fill-rule="nonzero" points="63.6480432 6.35897436 63.6480432 0.118758435 65.0709852 0.118758435 65.0709852 5.13036437 67.5066127 5.13036437 67.5066127 6.35897436"></polygon><polygon id="Path" fill-rule="nonzero" points="69.6269906 6.35897436 69.6269906 0.118758435 71.0391363 0.118758435 71.0391363 6.35897436"></polygon><path d="M76.322807,6.47773279 C74.5954116,6.47773279 73.2134953,5.23832659 73.2134953,3.24966262 C73.2134953,1.26099865 74.6148448,0.0107962213 76.3336032,0.0107962213 C78.0523617,0.0107962213 79.4407557,1.25020243 79.4407557,3.24966262 C79.4407557,5.24912281 78.0502024,6.47773279 76.322807,6.47773279 Z M76.322807,1.15303644 C75.2431849,1.15303644 74.6148448,2.04264507 74.6148448,3.2388664 C74.6148448,4.43508772 75.2626181,5.33549258 76.322807,5.33549258 C77.382996,5.33549258 78.0070175,4.4242915 78.0070175,3.24966262 C78.0070175,2.07503374 77.3765182,1.15303644 76.3336032,1.15303644 L76.322807,1.15303644 Z" id="Shape" fill-rule="nonzero"></path></svg>