<svg width="319" height="223" viewBox="0 0 319 223" fill="none" xmlns="http://www.w3.org/2000/svg">
<path opacity="0.5" d="M180.46 222.487C256.498 222.487 318.138 220.255 318.138 217.502C318.138 214.749 256.498 212.518 180.46 212.518C104.423 212.518 42.7823 214.749 42.7823 217.502C42.7823 220.255 104.423 222.487 180.46 222.487Z" fill="#F0932B"/>
<path fill-rule="evenodd" clip-rule="evenodd" d="M164.938 40.7359L269.267 106.177L167.233 154.166L62.9048 103.881L164.938 40.7359Z" fill="#DDB0C8"/>
<path d="M250.244 78.9649H82.1434V208.221H250.244V78.9649Z" fill="#E6D3FF"/>
<path fill-rule="evenodd" clip-rule="evenodd" d="M82.1434 78.9649H250.244V199.626C250.244 204.373 246.397 208.221 241.65 208.221H82.1434V78.9649Z" fill="#FCEBEC"/>
<path d="M236.182 93.904H96.6387V95.9647H236.182V93.904Z" fill="#DDB0C8"/>
<path d="M236.182 139.615H96.6387V141.676H236.182V139.615Z" fill="#DDB0C8"/>
<path d="M236.182 105.332H96.6387V107.392H236.182V105.332Z" fill="#DDB0C8"/>
<path d="M236.182 151.043H96.6387V153.103H236.182V151.043Z" fill="#DDB0C8"/>
<path d="M236.182 116.759H96.6387V118.82H236.182V116.759Z" fill="#DDB0C8"/>
<path d="M236.182 162.47H96.6387V164.531H236.182V162.47Z" fill="#DDB0C8"/>
<path d="M236.182 128.187H96.6387V130.248H236.182V128.187Z" fill="#DDB0C8"/>
<path d="M236.182 173.898H96.6387V175.959H236.182V173.898Z" fill="#DDB0C8"/>
<path d="M236.182 190.571H170.689V192.632H236.182V190.571Z" fill="#DDB0C8"/>
<rect x="84.2512" y="16.9373" width="65.4408" height="65.4408" rx="25" transform="rotate(-15 84.2512 16.9373)" fill="black"/>
<g clip-path="url(#clip0)">
<path d="M138.334 46.732C127.172 56.2488 117.867 53.2821 111.955 51.5498C111.588 51.4391 111.118 51.8229 111.725 52.2314C113.968 53.8308 120.843 57.2925 128.086 55.3516C135.335 53.4094 138.587 48.299 138.942 47.4646C139.294 46.6369 138.815 46.361 138.334 46.7321L138.334 46.732ZM141.395 43.7849C140.932 43.4296 139.164 43.8139 138.102 44.2432C137.036 44.6691 135.565 45.784 135.817 46.1493C135.931 46.2808 136.063 46.1727 136.801 45.9022C137.539 45.6235 139.59 44.7866 140.187 45.2464C140.788 45.7096 140.409 48.7842 140.324 49.2865C140.246 49.7869 140.551 49.829 140.843 49.4314C141.13 49.0353 141.587 48.0861 141.74 46.8751C141.888 45.659 141.748 44.0556 141.395 43.785L141.395 43.7849Z" fill="#FF9900"/>
<path fill-rule="evenodd" clip-rule="evenodd" d="M126.402 36.6128C126.83 38.2104 127.228 39.532 126.8 41.1671C126.458 42.4953 125.616 43.4814 124.462 43.7904C122.887 44.2124 121.649 43.2584 121.174 41.4878C120.238 37.9925 123.2 36.519 126.164 35.7246L126.402 36.6128ZM133.216 45.5001C133.01 45.8149 132.622 45.9374 132.273 45.8577C130.609 45.092 130.226 44.6321 129.188 43.7544C127.553 46.6527 126.145 47.7655 123.227 48.5475C119.778 49.4717 116.52 48.0636 115.378 43.8013C114.486 40.4735 115.684 37.723 117.954 35.928C119.917 34.3508 122.98 33.3448 125.284 32.4371L125.141 31.9065C124.88 30.9317 124.646 29.7581 123.849 29.0691C123.145 28.448 122.104 28.393 121.262 28.6187C119.699 29.0375 118.518 30.2131 118.623 31.9654C118.653 32.3532 118.479 32.7891 118.115 32.9053L114.02 33.5449C113.666 33.5594 113.224 33.3873 113.179 32.8492C112.804 27.7819 116.769 25.1616 120.668 24.1169C122.663 23.5821 125.412 23.4143 127.392 24.5035C129.887 25.8317 130.363 28.3685 131.087 31.0735L132.8 37.4641C133.314 39.3847 134.336 40.0135 135.364 40.8508C135.728 41.1488 135.905 41.5776 135.644 41.9439C134.995 42.8659 133.855 44.5624 133.23 45.5086L133.216 45.5001" fill="white"/>
<path d="M138.334 46.732C127.172 56.2488 117.867 53.2821 111.955 51.5498C111.588 51.4391 111.118 51.8229 111.725 52.2314C113.968 53.8308 120.843 57.2925 128.086 55.3516C135.335 53.4094 138.587 48.299 138.942 47.4646C139.294 46.6369 138.815 46.361 138.334 46.7321L138.334 46.732ZM141.395 43.7849C140.932 43.4296 139.164 43.8139 138.102 44.2432C137.036 44.6691 135.565 45.784 135.817 46.1493C135.931 46.2808 136.063 46.1727 136.801 45.9022C137.539 45.6235 139.59 44.7866 140.187 45.2464C140.788 45.7096 140.409 48.7842 140.324 49.2865C140.246 49.7869 140.551 49.829 140.843 49.4314C141.13 49.0353 141.587 48.0861 141.74 46.8751C141.888 45.659 141.748 44.0556 141.395 43.785L141.395 43.7849Z" fill="#FF9900"/>
<path fill-rule="evenodd" clip-rule="evenodd" d="M126.402 36.6128C126.83 38.2104 127.228 39.532 126.8 41.1671C126.458 42.4953 125.616 43.4814 124.462 43.7904C122.887 44.2124 121.649 43.2584 121.174 41.4878C120.238 37.9925 123.2 36.519 126.164 35.7246L126.402 36.6128ZM133.216 45.5001C133.01 45.8149 132.622 45.9374 132.273 45.8577C130.609 45.092 130.226 44.6321 129.188 43.7544C127.553 46.6527 126.145 47.7655 123.227 48.5475C119.778 49.4717 116.52 48.0636 115.378 43.8013C114.486 40.4735 115.684 37.723 117.954 35.928C119.917 34.3508 122.98 33.3448 125.284 32.4371L125.141 31.9065C124.88 30.9317 124.646 29.7581 123.849 29.0691C123.145 28.448 122.104 28.393 121.262 28.6187C119.699 29.0375 118.518 30.2131 118.623 31.9654C118.653 32.3532 118.479 32.7891 118.115 32.9053L114.02 33.5449C113.666 33.5594 113.224 33.3873 113.179 32.8492C112.804 27.7819 116.769 25.1616 120.668 24.1169C122.663 23.5821 125.412 23.4143 127.392 24.5035C129.887 25.8317 130.363 28.3685 131.087 31.0735L132.8 37.4641C133.314 39.3847 134.336 40.0135 135.364 40.8508C135.728 41.1488 135.905 41.5776 135.644 41.9439C134.995 42.8659 133.855 44.5624 133.23 45.5086L133.216 45.5001" fill="white"/>
</g>
<rect x="215.427" y="50.1923" width="65.4408" height="65.4408" rx="25" transform="rotate(30 215.427 50.1923)" fill="white"/>
<g clip-path="url(#clip1)">
<path d="M228.818 92.4371C230.173 93.2192 230.637 94.9508 229.855 96.3049C229.073 97.6595 227.342 98.1235 225.987 97.3414C224.633 96.5596 224.169 94.8274 224.951 93.4732C225.733 92.119 227.464 91.6552 228.818 92.4371ZM219.047 90.0649C221.712 85.4503 227.612 83.8693 232.227 86.5335C236.842 89.1981 238.423 95.0985 235.759 99.7132C235.582 100.019 235.392 100.311 235.189 100.589C234.655 101.366 234.894 102.333 235.703 102.801C237.077 103.594 238.246 101.907 238.574 101.339C242.136 95.1687 240.022 87.28 233.853 83.7179C227.683 80.1558 219.794 82.2696 216.232 88.4394C212.67 94.6088 214.784 102.498 220.953 106.06C224.23 107.952 227.991 108.243 231.332 107.176L232.515 110.431C228.247 111.833 223.42 111.482 219.222 109.058C211.398 104.54 208.717 94.534 213.235 86.709C217.753 78.884 227.758 76.203 235.583 80.7207C243.408 85.2387 246.089 95.2442 241.571 103.069C239.755 106.215 236.783 107.904 233.775 106.167C232.451 105.403 231.997 104.332 231.948 103.401C229.107 104.914 225.572 104.974 222.578 103.245C217.964 100.581 216.383 94.6796 219.047 90.065L219.047 90.0649ZM230.497 89.5304C227.537 87.822 223.753 88.8357 222.044 91.7952C220.336 94.7547 221.35 98.5392 224.309 100.248C227.268 101.956 231.053 100.942 232.762 97.9829C234.47 95.0234 233.456 91.2391 230.497 89.5304Z" fill="#AF252A"/>
</g>
<path fill-rule="evenodd" clip-rule="evenodd" d="M269.495 103.888V216.643H62.8926V103.888L62.9735 103.888L62.9048 103.93L167.233 154.194L269.267 106.227L265.536 103.888L269.495 103.888Z" fill="#EECCDC"/>
<path fill-rule="evenodd" clip-rule="evenodd" d="M62.8926 216.643L167.139 154.193L62.8926 103.888V216.643Z" fill="#EECCDC"/>
<mask id="mask0" mask-type="alpha" maskUnits="userSpaceOnUse" x="0" y="146" width="126" height="72">
<path fill-rule="evenodd" clip-rule="evenodd" d="M125.164 146H3.8147e-05V217.802H125.164V146Z" fill="white"/>
</mask>
<g mask="url(#mask0)">
<path fill-rule="evenodd" clip-rule="evenodd" d="M7.62939e-06 214.962V216.485C5.49257 217.851 14.1419 217.799 14.1419 217.799C14.1419 217.799 104.304 217.816 110.888 217.769C117.47 217.721 125.164 216.485 125.164 216.485V214.962H113.049C113.207 214.571 113.295 214.142 113.295 213.695V149.377C113.295 147.511 111.783 146 109.918 146H14.4522C12.5878 146 11.0766 147.511 11.0766 149.377V213.695C11.0766 214.142 11.1638 214.571 11.3224 214.962H7.62939e-06Z" fill="#56ACF6"/>
</g>
<mask id="mask1" mask-type="alpha" maskUnits="userSpaceOnUse" x="0" y="146" width="126" height="72">
<path fill-rule="evenodd" clip-rule="evenodd" d="M125.164 217.802H7.62939e-06V146H125.164V217.802Z" fill="white"/>
</mask>
<g mask="url(#mask1)">
<path fill-rule="evenodd" clip-rule="evenodd" d="M110.914 210.972H13.7499V150.215H110.914V210.972Z" fill="black"/>
</g>
<defs>
<clipPath id="clip0">
<rect width="32.7204" height="32.7204" fill="white" transform="translate(104.288 28.5057) rotate(-15)"/>
</clipPath>
<clipPath id="clip1">
<rect width="32.7204" height="32.7204" fill="white" transform="translate(221.415 72.5407) rotate(30)"/>
</clipPath>
</defs>
</svg>
