<svg width="117" height="32" viewBox="0 0 117 32" fill="none" xmlns="http://www.w3.org/2000/svg">
<circle cx="14.4697" cy="14.167" r="14.167" fill="url(#paint0_linear)"/>
<circle cx="14.4702" cy="24.7915" r="7.08351" fill="url(#paint1_linear)"/>
<path d="M40.1626 11.0075V14.7264H45.1564V17.0852H40.1626V21.0165H45.794V23.4391H37.1875V8.58496H45.794V11.0075H40.1626Z" fill="#001A41"/>
<path d="M55.0215 11.4963C56.424 11.4963 57.5574 11.9425 58.4216 12.8351C59.2858 13.7134 59.7179 14.946 59.7179 16.5327V23.4391H56.7428V16.9364C56.7428 16.0014 56.509 15.286 56.0415 14.7901C55.574 14.2801 54.9365 14.0251 54.129 14.0251C53.3073 14.0251 52.6556 14.2801 52.1739 14.7901C51.7064 15.286 51.4727 16.0014 51.4727 16.9364V23.4391H48.4976V11.6663H51.4727V13.1326C51.8693 12.6226 52.3723 12.2259 52.9815 11.9425C53.6048 11.645 54.2848 11.4963 55.0215 11.4963Z" fill="#001A41"/>
<path d="M67.1584 11.475C68.0367 11.475 68.8088 11.6521 69.4747 12.0063C70.1405 12.3463 70.6647 12.7926 71.0472 13.3451V11.6663H74.0435V23.5241C74.0435 24.6149 73.8239 25.5854 73.3848 26.4354C72.9456 27.2996 72.2868 27.9796 71.4085 28.4755C70.5301 28.9855 69.4676 29.2405 68.2209 29.2405C66.5492 29.2405 65.175 28.8509 64.0983 28.0717C63.0358 27.2925 62.4337 26.23 62.292 24.8841H65.2458C65.4017 25.4225 65.7346 25.8475 66.2446 26.1591C66.7688 26.485 67.3992 26.6479 68.1359 26.6479C69.0001 26.6479 69.7013 26.3858 70.2397 25.8616C70.778 25.3516 71.0472 24.5724 71.0472 23.5241V21.6965C70.6647 22.249 70.1334 22.7095 69.4534 23.0778C68.7876 23.4462 68.0226 23.6303 67.1584 23.6303C66.1667 23.6303 65.26 23.3753 64.4383 22.8653C63.6166 22.3553 62.9649 21.6399 62.4833 20.719C62.0157 19.784 61.782 18.7144 61.782 17.5102C61.782 16.3202 62.0157 15.2647 62.4833 14.3439C62.9649 13.423 63.6095 12.7146 64.4171 12.2188C65.2387 11.723 66.1525 11.475 67.1584 11.475ZM71.0472 17.5527C71.0472 16.8302 70.9055 16.2139 70.6222 15.7039C70.3389 15.1797 69.9564 14.783 69.4747 14.5139C68.993 14.2305 68.4759 14.0888 67.9234 14.0888C67.3709 14.0888 66.8609 14.2234 66.3933 14.4926C65.9258 14.7618 65.5433 15.1585 65.2458 15.6826C64.9625 16.1926 64.8208 16.8018 64.8208 17.5102C64.8208 18.2185 64.9625 18.8419 65.2458 19.3802C65.5433 19.9044 65.9258 20.3082 66.3933 20.5915C66.875 20.8748 67.385 21.0165 67.9234 21.0165C68.4759 21.0165 68.993 20.8819 69.4747 20.6128C69.9564 20.3294 70.3389 19.9327 70.6222 19.4227C70.9055 18.8985 71.0472 18.2752 71.0472 17.5527Z" fill="#001A41"/>
<path d="M76.1842 17.5102C76.1842 16.3202 76.4179 15.2647 76.8855 14.3439C77.3671 13.423 78.0117 12.7146 78.8193 12.2188C79.6409 11.723 80.5547 11.475 81.5606 11.475C82.4389 11.475 83.2039 11.6521 83.8556 12.0063C84.5215 12.3605 85.0527 12.8067 85.4494 13.3451V11.6663H88.4457V23.4391H85.4494V21.7178C85.0669 22.2703 84.5356 22.7307 83.8556 23.0991C83.1898 23.4532 82.4177 23.6303 81.5393 23.6303C80.5476 23.6303 79.6409 23.3753 78.8193 22.8653C78.0117 22.3553 77.3671 21.6399 76.8855 20.719C76.4179 19.784 76.1842 18.7144 76.1842 17.5102ZM85.4494 17.5527C85.4494 16.8302 85.3078 16.2139 85.0244 15.7039C84.7411 15.1797 84.3586 14.783 83.8769 14.5139C83.3952 14.2305 82.8781 14.0888 82.3256 14.0888C81.7731 14.0888 81.2631 14.2234 80.7956 14.4926C80.328 14.7618 79.9455 15.1585 79.648 15.6826C79.3647 16.1926 79.223 16.8018 79.223 17.5102C79.223 18.2185 79.3647 18.8419 79.648 19.3802C79.9455 19.9044 80.328 20.3082 80.7956 20.5915C81.2772 20.8748 81.7872 21.0165 82.3256 21.0165C82.8781 21.0165 83.3952 20.8819 83.8769 20.6128C84.3586 20.3294 84.7411 19.9327 85.0244 19.4227C85.3078 18.8985 85.4494 18.2752 85.4494 17.5527Z" fill="#001A41"/>
<path d="M95.9628 11.475C96.8411 11.475 97.6132 11.6521 98.2791 12.0063C98.9449 12.3463 99.4691 12.7926 99.8516 13.3451V11.6663H102.848V23.5241C102.848 24.6149 102.628 25.5854 102.189 26.4354C101.75 27.2996 101.091 27.9796 100.213 28.4755C99.3345 28.9855 98.272 29.2405 97.0253 29.2405C95.3536 29.2405 93.9794 28.8509 92.9027 28.0717C91.8402 27.2925 91.2381 26.23 91.0964 24.8841H94.0502C94.2061 25.4225 94.539 25.8475 95.049 26.1591C95.5732 26.485 96.2036 26.6479 96.9403 26.6479C97.8045 26.6479 98.5058 26.3858 99.0441 25.8616C99.5825 25.3516 99.8516 24.5724 99.8516 23.5241V21.6965C99.4691 22.249 98.9379 22.7095 98.2578 23.0778C97.592 23.4462 96.827 23.6303 95.9628 23.6303C94.9711 23.6303 94.0644 23.3753 93.2427 22.8653C92.421 22.3553 91.7693 21.6399 91.2877 20.719C90.8202 19.784 90.5864 18.7144 90.5864 17.5102C90.5864 16.3202 90.8202 15.2647 91.2877 14.3439C91.7693 13.423 92.4139 12.7146 93.2215 12.2188C94.0432 11.723 94.9569 11.475 95.9628 11.475ZM99.8516 17.5527C99.8516 16.8302 99.71 16.2139 99.4266 15.7039C99.1433 15.1797 98.7608 14.783 98.2791 14.5139C97.7974 14.2305 97.2803 14.0888 96.7278 14.0888C96.1753 14.0888 95.6653 14.2234 95.1978 14.4926C94.7303 14.7618 94.3477 15.1585 94.0502 15.6826C93.7669 16.1926 93.6252 16.8018 93.6252 17.5102C93.6252 18.2185 93.7669 18.8419 94.0502 19.3802C94.3477 19.9044 94.7303 20.3082 95.1978 20.5915C95.6794 20.8748 96.1895 21.0165 96.7278 21.0165C97.2803 21.0165 97.7974 20.8819 98.2791 20.6128C98.7608 20.3294 99.1433 19.9327 99.4266 19.4227C99.71 18.8985 99.8516 18.2752 99.8516 17.5527Z" fill="#001A41"/>
<path d="M116.698 17.2977C116.698 17.7227 116.669 18.1052 116.613 18.4452H108.006C108.077 19.2952 108.375 19.9611 108.899 20.4428C109.423 20.9244 110.067 21.1653 110.833 21.1653C111.938 21.1653 112.724 20.6907 113.191 19.7415H116.4C116.06 20.8748 115.408 21.8099 114.445 22.5466C113.482 23.2691 112.299 23.6303 110.896 23.6303C109.763 23.6303 108.743 23.3824 107.836 22.8866C106.944 22.3766 106.242 21.6611 105.732 20.7403C105.237 19.8194 104.989 18.7569 104.989 17.5527C104.989 16.3343 105.237 15.2647 105.732 14.3439C106.228 13.423 106.922 12.7146 107.815 12.2188C108.707 11.723 109.735 11.475 110.896 11.475C112.015 11.475 113.014 11.7159 113.893 12.1975C114.785 12.6792 115.472 13.3663 115.954 14.2589C116.45 15.1372 116.698 16.1501 116.698 17.2977ZM113.616 16.4477C113.602 15.6826 113.326 15.0735 112.788 14.6201C112.249 14.1526 111.59 13.9188 110.811 13.9188C110.075 13.9188 109.451 14.1455 108.941 14.5989C108.445 15.038 108.141 15.6543 108.027 16.4477H113.616Z" fill="#001A41"/>
<defs>
<linearGradient id="paint0_linear" x1="14.4697" y1="0" x2="14.4697" y2="28.334" gradientUnits="userSpaceOnUse">
<stop stop-color="#32BA85"/>
<stop offset="1" stop-color="#32BA85" stop-opacity="0.7"/>
<stop offset="1" stop-color="#32BA85" stop-opacity="0.7"/>
</linearGradient>
<linearGradient id="paint1_linear" x1="14.4702" y1="17.708" x2="14.4702" y2="31.875" gradientUnits="userSpaceOnUse">
<stop stop-color="#0C56C2" stop-opacity="0.3"/>
<stop offset="1" stop-color="#0C56C2"/>
</linearGradient>
</defs>
</svg>
