<svg width="83" height="83" viewBox="0 0 83 83" fill="none" xmlns="http://www.w3.org/2000/svg">
<path fill-rule="evenodd" clip-rule="evenodd" d="M10.4437 77.7781C10.4437 74.8942 8.10581 72.5563 5.22185 72.5563C2.3379 72.5563 -3.54316e-07 74.8942 -2.28255e-07 77.7781C-1.02193e-07 80.6621 2.3379 83 5.22186 83C8.10581 83 10.4437 80.6621 10.4437 77.7781ZM34.6287 77.7781C34.6287 74.8942 32.2908 72.5563 29.4068 72.5563C26.5229 72.5563 24.185 74.8942 24.185 77.7781C24.185 80.6621 26.5229 83 29.4068 83C32.2908 83 34.6287 80.6621 34.6287 77.7781ZM53.5932 72.5563C56.4772 72.5563 58.8151 74.8942 58.8151 77.7781C58.8151 80.6621 56.4772 83 53.5933 83C50.7093 83 48.3714 80.6621 48.3714 77.7781C48.3714 74.8942 50.7093 72.5563 53.5932 72.5563ZM83.0001 77.7781C83.0001 74.8942 80.6622 72.5563 77.7782 72.5563C74.8943 72.5563 72.5564 74.8942 72.5564 77.7781C72.5564 80.6621 74.8943 83 77.7782 83C80.6622 83 83.0001 80.6621 83.0001 77.7781ZM29.4068 48.3706C32.2908 48.3706 34.6287 50.7085 34.6287 53.5924C34.6287 56.4764 32.2908 58.8143 29.4068 58.8143C26.5229 58.8143 24.185 56.4764 24.185 53.5924C24.185 50.7085 26.5229 48.3706 29.4068 48.3706ZM58.8151 53.5924C58.8151 50.7085 56.4772 48.3706 53.5932 48.3706C50.7093 48.3706 48.3714 50.7085 48.3714 53.5924C48.3714 56.4764 50.7093 58.8143 53.5932 58.8143C56.4772 58.8143 58.8151 56.4764 58.8151 53.5924ZM77.7782 48.3706C80.6622 48.3706 83.0001 50.7085 83.0001 53.5924C83.0001 56.4764 80.6622 58.8143 77.7782 58.8143C74.8943 58.8143 72.5564 56.4764 72.5564 53.5924C72.5564 50.7085 74.8943 48.3706 77.7782 48.3706ZM58.8151 29.4075C58.8151 26.5235 56.4772 24.1856 53.5932 24.1856C50.7093 24.1856 48.3714 26.5235 48.3714 29.4075C48.3714 32.2914 50.7093 34.6293 53.5932 34.6293C56.4772 34.6293 58.8151 32.2914 58.8151 29.4075ZM77.7782 24.1856C80.6622 24.1856 83.0001 26.5235 83.0001 29.4075C83.0001 32.2914 80.6622 34.6293 77.7782 34.6293C74.8943 34.6293 72.5564 32.2914 72.5564 29.4075C72.5564 26.5235 74.8943 24.1856 77.7782 24.1856ZM83.0001 5.22178C83.0001 2.33783 80.6622 -7.98198e-05 77.7782 -7.96937e-05C74.8943 -7.95677e-05 72.5564 2.33783 72.5564 5.22178C72.5564 8.10572 74.8943 10.4436 77.7782 10.4436C80.6622 10.4436 83.0001 8.10572 83.0001 5.22178Z" fill="url(#paint0_linear)"/>
<defs>
<linearGradient id="paint0_linear" x1="-56.8288" y1="-47.8559" x2="229.212" y2="245.152" gradientUnits="userSpaceOnUse">
<stop stop-color="white" stop-opacity="0"/>
<stop offset="1" stop-color="#32BA85"/>
<stop offset="1" stop-color="white"/>
</linearGradient>
</defs>
</svg>
