<svg width="143" height="45" viewBox="0 0 143 45" fill="none" xmlns="http://www.w3.org/2000/svg">
<g clip-path="url(#clip0_6345_40342)">
<path d="M20.7864 16.266C20.7619 16.9997 20.8598 17.7334 21.0554 18.4427C21.2755 19.0541 21.5446 19.6411 21.8381 20.2037C21.9359 20.3749 22.0093 20.5705 22.0093 20.7662C21.9848 21.0597 21.8136 21.3532 21.5446 21.4999L20.0038 22.5271C19.8081 22.6494 19.588 22.7473 19.3679 22.7473C19.0988 22.7228 18.8298 22.6005 18.6341 22.4048C18.3162 22.0624 17.9982 21.6711 17.7536 21.2553C17.5091 20.8396 17.2645 20.3749 16.9955 19.8123C15.0878 22.0624 12.6909 23.1875 9.80491 23.1875C7.75047 23.1875 6.11181 22.6005 4.91338 21.4265C3.71496 20.2526 3.10352 18.6873 3.10352 16.7307C3.10352 14.6518 3.83725 12.9642 5.32916 11.6924C6.82108 10.4206 8.80215 9.7847 11.3213 9.7847C12.1773 9.7847 13.0578 9.85807 13.9138 9.98036C14.8187 10.1026 15.7481 10.2983 16.7264 10.5184V8.73302C16.7264 6.87424 16.3351 5.57799 15.5769 4.8198C14.8187 4.06161 13.4736 3.69475 11.5903 3.69475C10.7098 3.69475 9.80491 3.79258 8.94889 4.0127C8.04396 4.23281 7.16349 4.50185 6.30747 4.84426C6.03843 4.96654 5.74494 5.06437 5.45145 5.16221C5.32916 5.21112 5.18242 5.23558 5.06013 5.23558C4.71772 5.23558 4.54652 4.991 4.54652 4.47739V3.27897C4.52206 2.98547 4.59543 2.69198 4.71772 2.42295C4.91338 2.20283 5.1335 2.03163 5.40253 1.90934C6.38084 1.42018 7.40806 1.05332 8.4842 0.808743C9.73154 0.490794 11.0278 0.344048 12.2996 0.344048C15.2101 0.344048 17.3379 1.0044 18.7075 2.32512C20.0771 3.64583 20.7375 5.65136 20.7375 8.3417V16.266H20.7864ZM10.8566 19.9835C11.7126 19.9835 12.5686 19.8368 13.3757 19.5433C14.2807 19.2254 15.0633 18.6873 15.6992 17.978C16.0905 17.5378 16.384 16.9997 16.5308 16.4127C16.702 15.7279 16.7753 14.9942 16.7753 14.2849V13.2577C16.0416 13.0865 15.2834 12.9397 14.5252 12.8419C13.767 12.7441 12.9844 12.6952 12.2262 12.6952C10.5876 12.6952 9.38913 13.0131 8.58203 13.6735C7.77493 14.3338 7.3836 15.2632 7.3836 16.4861C7.3836 17.6356 7.6771 18.4916 8.28854 19.0786C8.89998 19.6656 9.73154 19.9835 10.8566 19.9835ZM30.4961 22.625C30.1781 22.6494 29.8357 22.5761 29.5667 22.3804C29.3221 22.1114 29.1265 21.7934 29.0531 21.4265L23.3055 2.52078C23.1832 2.20283 23.1099 1.88488 23.0854 1.54247C23.061 1.24898 23.2566 0.979947 23.5501 0.931032H26.0937C26.5584 0.931032 26.8764 1.0044 27.0476 1.17561C27.2188 1.34681 27.39 1.66476 27.5367 2.12946L31.6211 18.3204L35.4365 2.12946C35.5588 1.6403 35.7056 1.32235 35.9012 1.17561C36.1947 1.0044 36.5371 0.906574 36.8795 0.931032H38.8361C39.3008 0.931032 39.6188 1.0044 39.8144 1.17561C40.059 1.44464 40.2302 1.76259 40.2791 2.12946L44.1435 18.5161L48.3746 2.12946C48.448 1.76259 48.6192 1.44464 48.8638 1.17561C49.1573 1.0044 49.4752 0.906574 49.8176 0.931032H52.0922C52.3857 0.882116 52.6547 1.10224 52.7036 1.39573V1.54247C52.7036 1.66476 52.6792 1.81151 52.6547 1.9338C52.6058 2.15391 52.5569 2.34958 52.4835 2.54524L46.5892 21.451C46.4425 21.9402 46.2713 22.2581 46.0756 22.4048C45.8066 22.5761 45.4642 22.6739 45.1462 22.6494H43.0429C42.5782 22.6494 42.2602 22.5761 42.0646 22.4048C41.82 22.1358 41.6488 21.7934 41.5999 21.4265L37.8089 5.65136L34.0424 21.4021C33.9935 21.7689 33.8223 22.1114 33.5777 22.3804C33.2843 22.5761 32.9418 22.6494 32.5994 22.625H30.4961ZM61.9242 23.2853C60.6524 23.2853 59.3806 23.1386 58.1577 22.8451C56.9348 22.5516 55.981 22.2336 55.3451 21.8668C55.0271 21.72 54.7581 21.4755 54.5869 21.182C54.489 20.9618 54.4401 20.7417 54.4401 20.4972V19.2498C54.4401 18.7362 54.6358 18.4916 55.0027 18.4916C55.1494 18.4916 55.2961 18.5161 55.4429 18.565C55.5896 18.6139 55.8097 18.7117 56.0543 18.8096C56.9103 19.2009 57.8153 19.4699 58.7447 19.6656C59.6985 19.8613 60.6768 19.9591 61.6551 19.9591C63.196 19.9591 64.3944 19.69 65.2259 19.152C66.0331 18.6628 66.5222 17.7824 66.4977 16.8285C66.5222 16.1926 66.2776 15.5812 65.8374 15.1165C65.3971 14.6518 64.5656 14.236 63.3672 13.8447L59.8208 12.7441C58.0354 12.1816 56.7147 11.35 55.9076 10.2494C55.1249 9.22217 54.6847 7.99929 54.6847 6.70304C54.6602 5.74919 54.8804 4.8198 55.3451 3.98824C55.7853 3.20559 56.3723 2.52078 57.106 1.98271C57.8642 1.39573 58.7202 0.979947 59.6496 0.710913C60.6524 0.417421 61.6796 0.270675 62.7313 0.295133C63.2693 0.295133 63.8319 0.31959 64.3699 0.392963C64.9325 0.466336 65.4461 0.564167 65.9597 0.661998C66.4733 0.759828 66.9135 0.906574 67.3538 1.05332C67.7206 1.17561 68.063 1.32235 68.381 1.49356C68.6745 1.6403 68.9191 1.83596 69.1147 2.105C69.2859 2.34958 69.3593 2.61861 69.3348 2.9121V4.06161C69.3348 4.57522 69.1392 4.84426 68.7723 4.84426C68.4544 4.79534 68.1364 4.69751 67.8429 4.55076C66.3755 3.89041 64.7612 3.57246 63.147 3.59692C61.753 3.59692 60.6524 3.81703 59.8942 4.28173C59.136 4.74643 58.7447 5.4557 58.7447 6.45846C58.7202 7.11882 58.9892 7.75472 59.4784 8.19495C59.9676 8.65965 60.8725 9.12434 62.1687 9.54012L65.6417 10.6407C67.4027 11.2032 68.6745 11.9859 69.4327 12.9887C70.1908 13.967 70.5822 15.1898 70.5577 16.4127C70.5822 17.391 70.3621 18.3693 69.9218 19.2498C69.4816 20.0814 68.8701 20.8151 68.1364 21.4021C67.3293 22.038 66.3999 22.5027 65.4216 22.7717C64.2966 23.1141 63.1226 23.2853 61.9242 23.2853Z" fill="#252F3E"/>
<path d="M66.5462 35.1717C58.4997 41.115 46.8089 44.27 36.7568 44.27C22.6692 44.27 9.97568 39.0605 0.38828 30.4025C-0.369907 29.7177 0.314907 28.7883 1.21984 29.3264C11.5899 35.3429 24.3812 38.9871 37.6128 38.9871C47.1513 38.9382 56.592 37.0061 65.3723 33.313C66.7174 32.7015 67.8669 34.1934 66.5462 35.1717Z" fill="#FF9900"/>
<path d="M69.8962 31.3564C68.869 30.0356 63.097 30.7205 60.48 31.0384C59.6974 31.1362 59.5751 30.4514 60.2844 29.9378C64.8824 26.7094 72.4398 27.6388 73.3203 28.7149C74.2008 29.7911 73.0757 37.3729 68.7712 40.9927C68.1108 41.5552 67.4749 41.2617 67.7684 40.528C68.7467 38.1067 70.9235 32.6526 69.8962 31.3564Z" fill="#FF9900"/>
<path d="M112.723 27.7855C112.967 28.2747 113.334 28.6905 113.774 29.0084C114.239 29.3264 114.753 29.5709 115.315 29.6932C115.902 29.84 116.514 29.9133 117.125 29.9133C117.59 29.9133 118.03 29.8644 118.495 29.8155C118.959 29.7421 119.424 29.6199 119.864 29.3997C120.28 29.2041 120.647 28.9106 120.916 28.5682C121.209 28.1769 121.356 27.7122 121.332 27.223C121.356 26.6849 121.136 26.1713 120.769 25.8045C120.353 25.4131 119.84 25.1196 119.302 24.8995C118.641 24.6305 117.957 24.4348 117.247 24.2636C116.489 24.0924 115.707 23.8723 114.924 23.6522C114.117 23.4565 113.334 23.212 112.551 22.9185C111.818 22.6494 111.108 22.2581 110.497 21.769C109.886 21.3043 109.396 20.7173 109.03 20.0325C108.638 19.2498 108.443 18.3938 108.467 17.5133C108.443 16.5106 108.687 15.5078 109.201 14.6273C109.665 13.8202 110.301 13.1109 111.06 12.5729C111.842 12.0103 112.723 11.619 113.652 11.35C114.606 11.081 115.584 10.9587 116.563 10.9587C117.663 10.9587 118.739 11.081 119.815 11.3255C120.818 11.5457 121.748 11.9614 122.579 12.5484C123.386 13.1109 124.047 13.8447 124.511 14.7007C125 15.679 125.245 16.7796 125.221 17.8802H120.623C120.598 17.3177 120.451 16.7796 120.207 16.2904C119.987 15.8747 119.669 15.5323 119.277 15.2877C118.862 15.0431 118.421 14.8719 117.957 14.7741C117.419 14.6762 116.88 14.6273 116.342 14.6273C115.951 14.6273 115.56 14.6762 115.193 14.7496C114.826 14.823 114.459 14.9697 114.141 15.1654C113.823 15.361 113.579 15.6301 113.383 15.9236C113.163 16.266 113.065 16.6573 113.09 17.0731C113.065 17.4399 113.163 17.7824 113.334 18.1003C113.579 18.4427 113.897 18.6873 114.288 18.834C114.924 19.1031 115.584 19.3232 116.245 19.4944C117.076 19.7145 118.177 20.008 119.522 20.3504C119.913 20.4238 120.476 20.5705 121.209 20.7906C121.968 21.0108 122.677 21.3532 123.337 21.7934C124.071 22.2826 124.707 22.894 125.172 23.6277C125.685 24.4104 125.954 25.3887 125.954 26.6116C125.954 27.5654 125.759 28.4948 125.367 29.3753C124.976 30.2313 124.389 30.9895 123.655 31.5765C122.824 32.2368 121.87 32.726 120.843 33.0195C119.571 33.3863 118.275 33.5575 116.954 33.5331C115.78 33.5331 114.63 33.3863 113.481 33.0928C112.405 32.8238 111.402 32.3591 110.521 31.6988C109.665 31.0629 108.956 30.2558 108.467 29.3019C107.929 28.2258 107.684 27.0518 107.733 25.8534H112.331C112.307 26.5627 112.454 27.1985 112.723 27.7855ZM135.028 20.4727C135.542 20.4482 136.031 20.3259 136.496 20.1303C136.936 19.9591 137.327 19.6656 137.621 19.2987C137.939 18.8829 138.085 18.3693 138.061 17.8557C138.061 16.9508 137.767 16.2415 137.156 15.7768C136.569 15.2877 135.835 15.0431 135.077 15.0431C133.976 15.0431 133.169 15.41 132.607 16.1192C132.02 16.9019 131.751 17.8557 131.8 18.834H127.715C127.74 17.8068 127.935 16.804 128.302 15.8502C128.645 14.9942 129.134 14.1871 129.794 13.5267C130.454 12.8664 131.213 12.3528 132.069 12.0348C133.023 11.6679 134.025 11.4967 135.028 11.4967C135.884 11.4967 136.74 11.619 137.572 11.8636C138.403 12.1082 139.161 12.4995 139.846 12.9887C140.507 13.4778 141.069 14.1137 141.485 14.823C141.925 15.5812 142.145 16.4616 142.121 17.3421C142.145 18.296 141.876 19.2498 141.387 20.0569C140.873 20.864 140.091 21.4265 139.161 21.6711V21.7445C140.238 21.9646 141.216 22.5516 141.901 23.4321C142.585 24.337 142.928 25.4376 142.903 26.5382C142.928 27.5654 142.708 28.5926 142.268 29.4976C141.852 30.3536 141.265 31.0873 140.531 31.6743C139.773 32.2613 138.941 32.726 138.012 32.995C137.058 33.2885 136.055 33.4597 135.053 33.4597C133.952 33.4842 132.851 33.2885 131.8 32.9461C130.87 32.6281 130.014 32.1145 129.305 31.4542C128.596 30.7694 128.058 29.9623 127.715 29.0329C127.324 27.9812 127.153 26.8806 127.177 25.7555H131.262C131.286 26.2936 131.359 26.8561 131.531 27.3698C131.677 27.8589 131.922 28.2991 132.24 28.7149C132.558 29.0818 132.925 29.3997 133.365 29.5954C133.879 29.84 134.417 29.9378 134.979 29.9378C135.884 29.9623 136.765 29.6443 137.425 29.0573C138.085 28.4703 138.428 27.6388 138.428 26.6116C138.428 25.8045 138.281 25.193 137.963 24.7772C137.669 24.3615 137.254 24.0435 136.765 23.8479C136.251 23.6522 135.713 23.5544 135.175 23.5299C134.588 23.5054 134.05 23.481 133.536 23.481V20.4727C134.025 20.5216 134.539 20.5216 135.028 20.4727ZM91.8848 0.75983H93.5968V43.8053H91.8848V0.75983Z" fill="#252F3E"/>
</g>
<defs>
<clipPath id="clip0_6345_40342">
<rect width="142.857" height="44" fill="white" transform="translate(0.0703125 0.282562)"/>
</clipPath>
</defs>
</svg>
