<svg width="105" height="32" fill="none" xmlns="http://www.w3.org/2000/svg"><path fill-rule="evenodd" clip-rule="evenodd" d="M49.9213 7.48787C52.468 7.48787 54.724 8.7676 56.1418 10.7844V0H59.0423V24.0002H56.1418V21.2156C54.724 23.2363 52.468 24.5121 49.9213 24.5121C45.1514 24.5121 41.123 20.7682 41.123 16.0005C41.123 11.2328 45.1514 7.48787 49.9213 7.48787ZM49.9213 21.9517C53.692 21.9517 56.1418 19.424 56.1418 16.0005C56.1418 12.577 53.692 10.0483 49.9213 10.0483C46.5702 10.0483 44.0234 12.448 44.0234 16.0005C44.0234 19.5529 46.5702 21.9517 49.9213 21.9517ZM36.2891 10.7843C34.8713 8.76752 32.6153 7.48779 30.0695 7.48779C25.2987 7.48779 21.2703 11.2327 21.2703 16.0004C21.2703 20.7681 25.2987 24.5121 30.0695 24.5121C32.5833 24.5121 34.8355 23.2362 36.2891 21.2156V24.0002H39.1896V7.99969H36.2891V10.7843ZM36.2891 16.0004C36.2891 19.3922 33.8073 21.9516 30.0695 21.9516C26.7175 21.9516 24.1707 19.5529 24.1707 16.0004C24.1707 12.448 26.7175 10.0482 30.0695 10.0482C33.8402 10.0482 36.2891 12.5759 36.2891 16.0004ZM0 15.5818V16.4478C0.529481 16.4479 1.05375 16.5517 1.54282 16.7531C2.0319 16.9545 2.47621 17.2497 2.85034 17.6217C3.22446 17.9937 3.52108 18.4353 3.72324 18.9212C3.92539 19.4071 4.02911 19.9277 4.02848 20.4535H4.83475C4.83501 19.3927 5.25952 18.3755 6.01495 17.6254C6.77038 16.8753 7.79489 16.4538 8.86323 16.4536V15.5876C8.33375 15.5875 7.80948 15.4837 7.3204 15.2823C6.83133 15.0809 6.38702 14.7858 6.01289 14.4137C5.63876 14.0417 5.34214 13.6002 5.13999 13.1143C4.93784 12.6284 4.83412 12.1077 4.83475 11.582H4.02848C4.02822 12.6427 3.60371 13.6599 2.84828 14.41C2.09285 15.1601 1.06834 15.5816 0 15.5818ZM10.9574 10.08H4.02848V7.51953H10.9574C15.8241 7.51953 19.6598 11.3289 19.6598 16.0004C19.6598 20.6719 15.8241 24.4803 10.9574 24.4803H6.92894V31.9999H4.02848V21.9199H10.9574C14.3424 21.9199 16.7593 19.5211 16.7593 16.0004C16.7593 12.4797 14.3415 10.08 10.9574 10.08ZM76.3185 10.7844C74.8998 8.7676 72.6437 7.48787 70.098 7.48787C65.3281 7.48787 61.2997 11.2328 61.2997 16.0005C61.2997 20.7682 65.3281 24.5121 70.098 24.5121C72.6437 24.5121 74.8998 23.2363 76.3185 21.2156V24.0002H79.219V0H76.3185V10.7844ZM76.3185 16.0005C76.3185 19.424 73.8687 21.9517 70.098 21.9517C66.7459 21.9517 64.2001 19.5529 64.2001 16.0005C64.2001 12.448 66.7459 10.0483 70.098 10.0483C73.8687 10.0483 76.3185 12.577 76.3185 16.0005ZM82.116 24.0002V0H85.0175V24.0002H82.116ZM104.001 17.1214C104.001 11.8408 101.326 7.52051 95.7513 7.52051C90.8846 7.52051 87.1139 11.3943 87.1139 16.0014C87.1139 20.6084 90.8846 24.4813 95.7513 24.4813C99.6189 24.4813 102.486 22.0488 103.582 19.5846H100.456C99.2962 21.3445 97.7496 22.2413 95.7513 22.2413C92.8508 22.2413 90.5299 20.2245 90.0793 17.1214H104.001ZM95.7513 9.76052C98.8446 9.76052 101.101 12.2565 101.101 14.8814H90.0793C90.5299 11.7811 92.8508 9.76052 95.7513 9.76052Z" fill="#222222"></path></svg>