<svg width="189" height="35" viewBox="0 0 189 35" fill="none" xmlns="http://www.w3.org/2000/svg">
<path d="M30.7337 0.601196H2.61765C1.67346 0.601196 0.869141 1.40893 0.869141 2.39225V5.58804C0.869141 6.57137 1.67346 7.3791 2.61765 7.3791H30.7337C31.7129 7.3791 32.4823 6.57137 32.5172 5.58804V2.42737C32.5172 1.40892 31.7129 0.601196 30.7337 0.601196ZM30.7337 18.3361H2.61765C2.16304 18.3361 1.70843 18.5117 1.39369 18.8629C1.04399 19.2141 0.869141 19.6355 0.869141 20.1272V23.323C0.869141 24.3063 1.67346 25.114 2.61765 25.114H30.7337C31.7129 25.114 32.4823 24.3414 32.5172 23.323V20.1272C32.4823 19.1087 31.7129 18.3361 30.7337 18.3361ZM18.4592 27.186H2.61765C2.16304 27.186 1.70843 27.3616 1.39369 27.7128C1.07896 28.064 0.869141 28.4854 0.869141 28.9771V32.1729C0.869141 33.1562 1.67346 33.9639 2.61765 33.9639H18.4242C19.4034 33.9639 20.1727 33.1562 20.1727 32.208V29.0122C20.2077 27.9586 19.4383 27.1509 18.4592 27.186ZM32.5172 9.4511H2.61765C2.16304 9.4511 1.70843 9.62669 1.39369 9.97787C1.07896 10.3291 0.869141 10.7505 0.869141 11.2421V14.4379C0.869141 15.4213 1.67346 16.229 2.61765 16.229H32.4823C33.4614 16.229 34.2308 15.4213 34.2308 14.4379V11.2421C34.2657 10.2588 33.4614 9.48621 32.5172 9.4511Z" fill="#00C3F7"/>
<path d="M56.7534 10.0664C55.9639 9.2453 55.0481 8.61368 54.0059 8.17155C52.9637 7.72943 51.8584 7.50836 50.7215 7.50836C49.6162 7.47678 48.5425 7.72942 47.5319 8.20313C46.8687 8.51894 46.2687 8.96107 45.7634 9.49794V8.99265C45.7634 8.74 45.6686 8.48736 45.5107 8.29787C45.3528 8.10839 45.1002 7.98207 44.8159 7.98207H41.3105C41.0578 7.98207 40.8052 8.07681 40.6473 8.29787C40.4578 8.48736 40.3631 8.74 40.3947 8.99265V32.6149C40.3947 32.8676 40.4894 33.1202 40.6473 33.3097C40.8368 33.4992 41.0578 33.5939 41.3105 33.5939H44.9107C45.1633 33.5939 45.3844 33.4992 45.5739 33.3097C45.7634 33.1518 45.8897 32.8992 45.8581 32.6149V24.5303C46.3634 25.0988 47.0266 25.5093 47.7529 25.7619C48.7004 26.1093 49.6794 26.2988 50.6899 26.2988C51.8268 26.2988 52.9637 26.0778 54.0059 25.6356C55.0481 25.1935 55.9955 24.5619 56.785 23.7408C57.6061 22.8881 58.2377 21.8775 58.6798 20.7722C59.1851 19.5406 59.4062 18.2142 59.3746 16.8878C59.4062 15.5614 59.1535 14.235 58.6798 12.9718C58.2061 11.9296 57.5745 10.9191 56.7534 10.0664ZM53.5322 18.6247C53.3427 19.13 53.0585 19.5722 52.6795 19.9827C51.9532 20.7722 50.911 21.2143 49.8373 21.2143C49.3004 21.2143 48.7635 21.1196 48.2582 20.867C47.7845 20.6459 47.3424 20.3617 46.9634 19.9827C46.5845 19.6037 46.3002 19.13 46.1107 18.6247C45.7002 17.551 45.7002 16.3825 46.1107 15.3088C46.3002 14.8035 46.616 14.3614 46.9634 13.9824C47.3424 13.6034 47.7845 13.2876 48.2582 13.0666C48.7635 12.8455 49.3004 12.7192 49.8373 12.7192C50.4057 12.7192 50.911 12.8139 51.4479 13.0666C51.9216 13.2876 52.3637 13.5718 52.7111 13.9508C53.0901 14.3298 53.3427 14.7719 53.5638 15.2772C53.9427 16.3825 53.9112 17.551 53.5322 18.6247ZM78.6704 8.01365H75.1018C74.8491 8.01365 74.5965 8.10839 74.4386 8.29787C74.2491 8.48736 74.1543 8.74 74.1543 9.02423V9.46636C73.7122 8.92949 73.1438 8.51894 72.5437 8.23471C71.5647 7.76101 70.491 7.53994 69.4172 7.53994C67.1119 7.53994 64.9328 8.45578 63.2906 10.0664C62.4379 10.9191 61.7747 11.9296 61.3326 13.035C60.8273 14.2666 60.5747 15.593 60.6062 16.951C60.5747 18.2773 60.8273 19.6037 61.3326 20.867C61.8063 21.9723 62.4379 22.9829 63.2906 23.8355C64.9012 25.4777 67.1119 26.3936 69.3857 26.3936C70.4594 26.4251 71.5331 26.1725 72.5121 25.6988C73.1122 25.383 73.7122 24.9724 74.1543 24.4672V24.9409C74.1543 25.1935 74.2491 25.4461 74.4386 25.6356C74.628 25.7935 74.8491 25.9199 75.1018 25.9199H78.6704C78.923 25.9199 79.1757 25.8251 79.3336 25.6356C79.523 25.4461 79.6178 25.1935 79.6178 24.9409V9.05581C79.6178 8.80316 79.523 8.55052 79.3651 8.36104C79.1757 8.13997 78.923 8.01365 78.6704 8.01365ZM73.8385 18.6247C73.649 19.13 73.3648 19.5722 72.9859 19.9827C72.6069 20.3617 72.1963 20.6775 71.7226 20.8985C70.712 21.3722 69.5436 21.3722 68.533 20.8985C68.0593 20.6775 67.6171 20.3617 67.2382 19.9827C66.8592 19.6037 66.575 19.13 66.3855 18.6247C66.0065 17.551 66.0065 16.3825 66.3855 15.3088C66.575 14.8035 66.8592 14.3929 67.2382 13.9824C67.6171 13.6034 68.0277 13.2876 68.533 13.0666C69.5436 12.5928 70.712 12.5928 71.691 13.0666C72.1648 13.2876 72.6069 13.5718 72.9543 13.9508C73.3017 14.3298 73.5859 14.7719 73.8069 15.2772C74.2491 16.3825 74.2491 17.551 73.8385 18.6247ZM114.23 16.4773C113.725 16.0351 113.125 15.6562 112.493 15.4035C111.83 15.1193 111.104 14.9298 110.409 14.7719L107.693 14.235C106.998 14.1087 106.493 13.9192 106.24 13.6982C106.019 13.5403 105.861 13.2876 105.861 13.0034C105.861 12.7192 106.019 12.4665 106.367 12.2455C106.84 11.9928 107.346 11.8665 107.882 11.8981C108.577 11.8981 109.272 12.056 109.904 12.3086C110.535 12.5928 111.135 12.8771 111.704 13.256C112.493 13.7613 113.188 13.6666 113.662 13.0981L114.956 11.6138C115.209 11.3612 115.335 11.0454 115.367 10.698C115.335 10.319 115.146 10.0032 114.862 9.75059C114.325 9.27688 113.441 8.77158 112.272 8.26629C111.104 7.761 109.619 7.50836 107.882 7.50836C106.809 7.47678 105.767 7.63468 104.756 7.95049C103.903 8.23471 103.082 8.64526 102.356 9.18213C101.693 9.68742 101.187 10.319 100.808 11.077C100.461 11.8033 100.271 12.5928 100.271 13.3824C100.271 14.8666 100.714 16.0667 101.598 16.951C102.482 17.8352 103.651 18.4353 105.103 18.7195L107.946 19.3511C108.546 19.4458 109.177 19.6353 109.746 19.9195C110.061 20.0459 110.251 20.3617 110.251 20.7091C110.251 21.0249 110.093 21.3091 109.746 21.5617C109.398 21.8144 108.83 21.9723 108.072 21.9723C107.314 21.9723 106.524 21.8144 105.83 21.467C105.166 21.1512 104.566 20.7406 103.998 20.2669C103.745 20.0774 103.493 19.9195 103.177 19.7932C102.861 19.6985 102.451 19.7932 102.04 20.1406L100.493 21.3091C100.05 21.6249 99.8294 22.1618 99.9557 22.6671C100.05 23.2039 100.461 23.7092 101.25 24.3092C103.208 25.6356 105.545 26.3304 107.914 26.2672C109.019 26.2672 110.125 26.1409 111.167 25.8251C112.083 25.5409 112.935 25.1303 113.693 24.5619C114.388 24.0566 114.956 23.3934 115.335 22.6039C115.714 21.846 115.904 21.0249 115.904 20.1722C115.935 19.4143 115.778 18.6563 115.462 17.9615C115.146 17.4563 114.735 16.9194 114.23 16.4773ZM129.831 20.8038C129.673 20.5196 129.389 20.3301 129.041 20.2669C128.726 20.2669 128.378 20.3617 128.126 20.5511C127.683 20.8354 127.178 20.9933 126.673 21.0249C126.515 21.0249 126.326 20.9933 126.168 20.9617C125.978 20.9301 125.82 20.8354 125.694 20.7091C125.536 20.5511 125.41 20.3617 125.315 20.1722C125.189 19.8564 125.125 19.5406 125.157 19.2248V12.7507H129.768C130.052 12.7507 130.305 12.6244 130.494 12.4349C130.684 12.2455 130.81 12.0244 130.81 11.7402V8.99265C130.81 8.70842 130.715 8.45578 130.494 8.29787C130.305 8.10839 130.052 8.01365 129.799 8.01365H125.157V3.59237C125.157 3.33972 125.062 3.05549 124.873 2.89759C124.683 2.73968 124.462 2.64494 124.21 2.61336H120.609C120.357 2.61336 120.104 2.7081 119.915 2.89759C119.725 3.08707 119.599 3.33972 119.599 3.59237V8.01365H117.546C117.293 8.01365 117.041 8.10839 116.851 8.32946C116.693 8.51894 116.599 8.77159 116.599 9.02423V11.7717C116.599 12.0244 116.693 12.277 116.851 12.4665C117.009 12.6876 117.262 12.7823 117.546 12.7823H119.599V20.488C119.567 21.4038 119.757 22.3197 120.136 23.1408C120.483 23.8355 120.925 24.4356 121.525 24.9409C122.094 25.4146 122.757 25.762 123.483 25.9514C124.21 26.1725 124.968 26.2988 125.725 26.2988C126.704 26.2988 127.715 26.1409 128.662 25.8251C129.547 25.5409 130.336 25.0356 130.968 24.3724C131.378 23.9619 131.41 23.2987 131.094 22.825L129.831 20.8038ZM149.348 8.01365H145.779C145.527 8.01365 145.305 8.10839 145.116 8.29787C144.926 8.48736 144.832 8.74 144.832 9.02423V9.46636C144.39 8.92949 143.853 8.51894 143.221 8.23471C142.242 7.76101 141.168 7.53994 140.095 7.53994C137.789 7.53994 135.61 8.45578 133.968 10.0664C133.115 10.9191 132.452 11.9296 132.01 13.035C131.505 14.2666 131.252 15.593 131.284 16.9194C131.252 18.2458 131.505 19.5722 132.01 20.8354C132.452 21.9407 133.147 22.9513 133.968 23.804C135.579 25.4461 137.758 26.362 140.063 26.362C141.137 26.3936 142.211 26.1409 143.19 25.6988C143.821 25.383 144.39 24.9724 144.832 24.4672V24.9409C144.832 25.1935 144.926 25.4461 145.116 25.604C145.305 25.7935 145.527 25.8883 145.779 25.8883H149.348C149.885 25.8883 150.295 25.4777 150.295 24.9409V9.05581C150.295 8.80316 150.2 8.55052 150.043 8.36104C149.885 8.13997 149.632 8.01365 149.348 8.01365ZM144.548 18.6247C144.358 19.13 144.074 19.5722 143.695 19.9827C143.316 20.3617 142.905 20.6775 142.432 20.8985C141.926 21.1196 141.389 21.2459 140.821 21.2459C140.253 21.2459 139.747 21.1196 139.242 20.8985C138.768 20.6775 138.326 20.3617 137.947 19.9827C137.568 19.6037 137.284 19.13 137.126 18.6247C136.747 17.551 136.747 16.3825 137.126 15.3088C137.316 14.8035 137.6 14.3614 137.947 13.9824C138.326 13.6034 138.768 13.2876 139.242 13.0666C139.747 12.8455 140.284 12.7192 140.821 12.7192C141.358 12.7192 141.895 12.8139 142.432 13.0666C142.905 13.2876 143.316 13.5718 143.695 13.9508C144.074 14.3298 144.358 14.7719 144.548 15.2772C144.958 16.3509 144.958 17.551 144.548 18.6247ZM168.928 20.5511L166.875 18.9721C166.496 18.6563 166.117 18.5616 165.801 18.6879C165.517 18.8142 165.264 19.0037 165.043 19.2248C164.601 19.7616 164.064 20.2353 163.496 20.6459C162.864 20.9933 162.201 21.1828 161.506 21.1196C160.685 21.1196 159.927 20.8985 159.264 20.4248C158.601 19.9511 158.096 19.3195 157.843 18.53C157.653 17.9931 157.559 17.4562 157.559 16.9194C157.559 16.3509 157.653 15.8141 157.843 15.2456C158.032 14.7403 158.285 14.2982 158.664 13.9192C159.043 13.5403 159.454 13.2245 159.927 13.035C160.433 12.8139 160.969 12.6876 161.538 12.6876C162.233 12.656 162.927 12.8455 163.527 13.1929C164.128 13.5718 164.633 14.0455 165.075 14.614C165.264 14.8351 165.517 15.0245 165.801 15.1509C166.117 15.2772 166.496 15.1824 166.875 14.8666L168.928 13.3192C169.18 13.1613 169.37 12.9086 169.465 12.6244C169.591 12.3086 169.559 11.9612 169.37 11.677C168.58 10.4454 167.507 9.43478 166.212 8.70842C164.854 7.95049 163.243 7.53994 161.443 7.53994C160.18 7.53994 158.917 7.79258 157.717 8.26629C156.58 8.74 155.569 9.4032 154.716 10.2559C153.864 11.1085 153.169 12.1191 152.695 13.256C151.716 15.6246 151.716 18.2774 152.695 20.6459C153.169 21.7512 153.832 22.7934 154.716 23.6145C156.517 25.383 158.917 26.3304 161.443 26.3304C163.243 26.3304 164.854 25.9199 166.212 25.1619C167.507 24.4356 168.612 23.425 169.401 22.1618C169.559 21.8775 169.591 21.5302 169.496 21.2459C169.37 20.9933 169.18 20.7406 168.928 20.5511ZM187.939 24.2461L182.286 15.972L187.118 9.59268C187.339 9.30846 187.434 8.89791 187.308 8.55052C187.213 8.29788 186.992 8.04523 186.392 8.04523H182.571C182.35 8.04523 182.128 8.10839 181.939 8.20313C181.686 8.32945 181.497 8.51894 181.371 8.74L177.518 14.1403H176.602V1.38172C176.602 1.12908 176.507 0.876429 176.318 0.686945C176.128 0.497461 175.907 0.402721 175.654 0.402721H172.086C171.833 0.402721 171.581 0.497461 171.391 0.686945C171.202 0.876429 171.107 1.0975 171.107 1.38172V24.9093C171.107 25.1935 171.202 25.4146 171.391 25.604C171.581 25.7935 171.833 25.8883 172.086 25.8883H175.654C175.907 25.8883 176.16 25.7935 176.318 25.604C176.507 25.4146 176.602 25.1619 176.602 24.9093V18.6879H177.612L181.813 25.1303C182.065 25.604 182.539 25.8883 183.044 25.8883H187.055C187.655 25.8883 187.908 25.604 188.034 25.3514C188.192 24.9724 188.16 24.5619 187.939 24.2461ZM98.9451 8.01365H94.9344C94.6186 8.01365 94.3343 8.10839 94.1133 8.32946C93.9238 8.51894 93.7975 8.74 93.7343 8.99265L90.7657 19.9827H90.0394L86.8813 8.99265C86.8182 8.77158 86.7234 8.55052 86.5655 8.32946C86.376 8.10839 86.1234 7.98207 85.8392 7.98207H81.7653C81.2284 7.98207 80.9126 8.13997 80.7547 8.51894C80.6599 8.83474 80.6599 9.18213 80.7547 9.49794L85.8076 24.9724C85.9023 25.1935 85.9971 25.4461 86.1866 25.604C86.376 25.7935 86.6603 25.8883 86.9445 25.8883H89.092L88.9025 26.3936L88.4288 27.8147C88.2709 28.2568 88.0182 28.6358 87.6393 28.92C87.2919 29.1727 86.8813 29.3306 86.4392 29.299C86.0602 29.299 85.7128 29.2042 85.3655 29.0779C85.0181 28.92 84.7023 28.7305 84.418 28.5095C84.1654 28.32 83.8496 28.2252 83.5022 28.2252H83.4706C83.0916 28.2568 82.7443 28.4463 82.5548 28.7937L81.2916 30.6569C80.7863 31.478 81.0705 31.9833 81.3863 32.2676C82.0811 32.8992 82.8706 33.3729 83.7548 33.6571C84.7338 34.0045 85.7444 34.1624 86.755 34.1624C88.5867 34.1624 90.1025 33.6571 91.271 32.6781C92.4711 31.6044 93.3869 30.2148 93.8291 28.6358L99.703 9.49794C99.8294 9.15055 99.861 8.80317 99.7346 8.48736C99.7031 8.2663 99.482 8.01365 98.9451 8.01365Z" fill="#011B33"/>
</svg>
