<svg width="315" height="220" viewBox="0 0 315 220" fill="none" xmlns="http://www.w3.org/2000/svg">
<path opacity="0.5" d="M167.526 219.998C245.98 219.998 309.58 217.695 309.58 214.855C309.58 212.014 245.98 209.712 167.526 209.712C89.0717 209.712 25.4719 212.014 25.4719 214.855C25.4719 217.695 89.0717 219.998 167.526 219.998Z" fill="#27AE60"/>
<path fill-rule="evenodd" clip-rule="evenodd" d="M296.102 179.933C296.102 182.766 294.163 185.06 291.773 185.06H226.67V203.953C231.486 204.316 235.296 209.059 235.296 214.855H160.388C160.388 211.837 161.42 209.107 163.089 207.129C164.679 205.246 166.844 204.047 169.246 203.939V185.06H102.336C99.9451 185.06 98.0065 182.766 98.0065 179.933V153.404H295.898C296.011 153.404 296.102 153.513 296.102 153.646V179.933Z" fill="#DDB0C8"/>
<path fill-rule="evenodd" clip-rule="evenodd" d="M307.496 185.061H86.701C82.8565 185.061 79.7398 181.944 79.7398 178.099V41.9875C79.7398 38.1426 82.8565 35.0258 86.701 35.0258H307.496C311.341 35.0258 314.457 38.1426 314.457 41.9875V178.099C314.457 181.944 311.341 185.061 307.496 185.061Z" fill="#EECCDC"/>
<path fill-rule="evenodd" clip-rule="evenodd" d="M203.173 169.676C203.173 172.834 200.612 175.395 197.453 175.395C194.295 175.395 191.734 172.834 191.734 169.676C191.734 166.517 194.295 163.956 197.453 163.956C200.612 163.956 203.173 166.517 203.173 169.676Z" fill="#FCEBEC"/>
<path fill-rule="evenodd" clip-rule="evenodd" d="M88.9618 153.316V47.691C88.9618 44.8589 91.2578 42.563 94.0899 42.563H299.752C302.585 42.563 304.881 44.8589 304.881 47.691V153.074C304.881 153.207 304.772 153.316 304.639 153.316H88.9618Z" fill="#FCEBEC"/>
<path fill-rule="evenodd" clip-rule="evenodd" d="M291.799 104.942V137.506C291.799 139.514 290.171 141.142 288.163 141.142L179.716 141.142C177.708 141.142 176.08 139.514 176.08 137.506V104.942C176.08 102.934 177.708 101.306 179.716 101.306L288.163 101.306C290.171 101.306 291.799 102.934 291.799 104.942Z" fill="white"/>
<g clip-path="url(#clip0)">
<path d="M279.31 128.035C270.45 132.252 264.951 128.724 261.431 126.581C261.213 126.446 260.843 126.612 261.164 126.981C262.337 128.403 266.18 131.83 271.196 131.83C276.216 131.83 279.202 129.091 279.576 128.614C279.947 128.14 279.685 127.878 279.31 128.035H279.31ZM281.798 126.661C281.56 126.351 280.351 126.293 279.591 126.387C278.829 126.477 277.685 126.943 277.784 127.223C277.835 127.327 277.939 127.28 278.463 127.233C278.988 127.181 280.458 126.995 280.765 127.396C281.072 127.799 280.296 129.72 280.154 130.03C280.017 130.34 280.206 130.42 280.464 130.214C280.717 130.007 281.177 129.473 281.486 128.717C281.792 127.957 281.979 126.897 281.798 126.661H281.798Z" fill="#FF9900"/>
<path fill-rule="evenodd" clip-rule="evenodd" d="M273.352 119.431C273.352 120.537 273.38 121.46 272.821 122.442C272.37 123.241 271.655 123.733 270.856 123.733C269.765 123.733 269.13 122.902 269.13 121.676C269.13 119.255 271.299 118.816 273.352 118.816V119.431ZM276.216 126.353C276.028 126.521 275.757 126.533 275.545 126.421C274.602 125.638 274.435 125.274 273.915 124.527C272.358 126.117 271.255 126.592 269.234 126.592C266.846 126.592 264.984 125.119 264.984 122.167C264.984 119.862 266.234 118.292 268.012 117.525C269.554 116.846 271.707 116.727 273.352 116.539V116.171C273.352 115.496 273.404 114.697 273.009 114.114C272.661 113.591 271.998 113.375 271.415 113.375C270.333 113.375 269.366 113.931 269.13 115.081C269.082 115.337 268.895 115.588 268.639 115.6L265.883 115.305C265.651 115.253 265.396 115.065 265.46 114.709C266.095 111.37 269.11 110.364 271.81 110.364C273.192 110.364 274.998 110.731 276.088 111.778C277.47 113.068 277.338 114.789 277.338 116.663V121.088C277.338 122.418 277.89 123.002 278.409 123.721C278.593 123.976 278.633 124.284 278.401 124.475C277.822 124.959 276.791 125.858 276.224 126.361L276.216 126.353" fill="black"/>
<path d="M279.31 128.035C270.45 132.252 264.951 128.724 261.431 126.581C261.213 126.446 260.843 126.612 261.164 126.981C262.337 128.403 266.18 131.83 271.196 131.83C276.216 131.83 279.202 129.091 279.576 128.614C279.947 128.14 279.685 127.878 279.31 128.035H279.31ZM281.798 126.661C281.56 126.351 280.351 126.293 279.591 126.387C278.829 126.477 277.685 126.943 277.784 127.223C277.835 127.327 277.939 127.28 278.463 127.233C278.988 127.181 280.458 126.995 280.765 127.396C281.072 127.799 280.296 129.72 280.154 130.03C280.017 130.34 280.206 130.42 280.464 130.214C280.717 130.007 281.177 129.473 281.486 128.717C281.792 127.957 281.979 126.897 281.798 126.661H281.798Z" fill="#FF9900"/>
<path fill-rule="evenodd" clip-rule="evenodd" d="M273.352 119.431C273.352 120.537 273.38 121.46 272.821 122.442C272.37 123.241 271.655 123.733 270.856 123.733C269.765 123.733 269.13 122.902 269.13 121.676C269.13 119.255 271.299 118.816 273.352 118.816V119.431ZM276.216 126.353C276.028 126.521 275.757 126.533 275.545 126.421C274.602 125.638 274.435 125.274 273.915 124.527C272.358 126.117 271.255 126.592 269.234 126.592C266.846 126.592 264.984 125.119 264.984 122.167C264.984 119.862 266.234 118.292 268.012 117.525C269.554 116.846 271.707 116.727 273.352 116.539V116.171C273.352 115.496 273.404 114.697 273.009 114.114C272.661 113.591 271.998 113.375 271.415 113.375C270.333 113.375 269.366 113.931 269.13 115.081C269.082 115.337 268.895 115.588 268.639 115.6L265.883 115.305C265.651 115.253 265.396 115.065 265.46 114.709C266.095 111.37 269.11 110.364 271.81 110.364C273.192 110.364 274.998 110.731 276.088 111.778C277.47 113.068 277.338 114.789 277.338 116.663V121.088C277.338 122.418 277.89 123.002 278.409 123.721C278.593 123.976 278.633 124.284 278.401 124.475C277.822 124.959 276.791 125.858 276.224 126.361L276.216 126.353" fill="black"/>
</g>
<path fill-rule="evenodd" clip-rule="evenodd" d="M186.048 107.445H245.834C246.662 107.445 247.334 108.425 247.334 109.634C247.334 110.843 246.662 111.823 245.834 111.823H186.048V107.445Z" fill="#EECCDC"/>
<path fill-rule="evenodd" clip-rule="evenodd" d="M186.048 119.119H213.018C213.838 119.119 214.502 120.099 214.502 121.308C214.502 122.516 213.838 123.496 213.018 123.496H186.048V119.119Z" fill="#EECCDC"/>
<path fill-rule="evenodd" clip-rule="evenodd" d="M186.048 130.792H229.725C230.585 130.792 231.283 131.772 231.283 132.981C231.283 134.19 230.585 135.17 229.725 135.17H186.048V130.792Z" fill="#EECCDC"/>
<path fill-rule="evenodd" clip-rule="evenodd" d="M231.552 56.4811V92.4895C231.552 94.1546 230.202 95.5044 228.537 95.5044H179.057C177.392 95.5044 176.042 94.1546 176.042 92.4895V56.4811C176.042 54.816 177.392 53.4662 179.057 53.4662L228.537 53.4662C230.202 53.4662 231.552 54.816 231.552 56.4811Z" fill="white"/>
<path fill-rule="evenodd" clip-rule="evenodd" d="M291.849 56.4811V92.4895C291.849 94.1546 290.499 95.5044 288.834 95.5044H239.355C237.69 95.5044 236.34 94.1546 236.34 92.4895V56.4811C236.34 54.816 237.69 53.4662 239.355 53.4662L288.834 53.4662C290.499 53.4662 291.849 54.816 291.849 56.4811Z" fill="white"/>
<path fill-rule="evenodd" clip-rule="evenodd" d="M203.828 56.4847C213.25 56.4847 220.888 64.0938 220.888 73.48C220.888 82.8663 213.25 90.4753 203.828 90.4753C194.406 90.4753 186.768 82.8663 186.768 73.48C186.768 64.0938 194.406 56.4847 203.828 56.4847ZM203.828 64.2729C198.716 64.2729 194.571 68.395 194.571 73.48C194.571 78.565 198.716 82.6872 203.828 82.6872C208.941 82.6872 213.086 78.565 213.086 73.48C213.086 68.395 208.941 64.2729 203.828 64.2729Z" fill="#DDB0C8"/>
<path fill-rule="evenodd" clip-rule="evenodd" d="M220.092 68.4265L212.632 70.7303C211.809 68.0864 209.828 65.9512 207.28 64.9154L210.226 57.6773C214.925 59.5917 218.579 63.5392 220.092 68.4265Z" fill="#E93737"/>
<path fill-rule="evenodd" clip-rule="evenodd" d="M197.057 79.778L191.351 85.1084C189.494 83.1217 188.107 80.6908 187.366 77.9925L194.885 75.8985C195.286 77.3703 196.043 78.696 197.057 79.778Z" fill="#1BC0D7"/>
<path d="M264.129 78.0547C262.178 78.0547 260.6 76.5347 260.6 74.6256C260.6 72.7165 262.178 71.1843 264.129 71.1843C266.081 71.1843 267.621 72.7165 267.621 74.6256C267.621 76.5347 266.081 78.0547 264.129 78.0547Z" fill="#2F80ED"/>
<path opacity="0.4" d="M275.339 77.4953C275.103 77.1305 274.767 76.7657 274.332 76.5347C273.984 76.3645 273.76 76.0848 273.562 75.7565C272.928 74.7107 273.301 73.3366 274.357 72.7165C275.6 72.0233 275.997 70.479 275.277 69.2752L274.444 67.8403C273.736 66.6365 272.182 66.2109 270.952 66.9161C269.858 67.4998 268.454 67.1107 267.82 66.0771C267.621 65.7366 267.51 65.3718 267.535 65.007C267.572 64.5328 267.423 64.0829 267.199 63.7181C266.739 62.9641 265.907 62.4534 264.987 62.4534H263.235C262.328 62.4778 261.495 62.9641 261.035 63.7181C260.799 64.0829 260.662 64.5328 260.687 65.007C260.712 65.3718 260.6 65.7366 260.401 66.0771C259.768 67.1107 258.363 67.4998 257.282 66.9161C256.04 66.2109 254.499 66.6365 253.778 67.8403L252.945 69.2752C252.237 70.479 252.635 72.0233 253.865 72.7165C254.921 73.3366 255.294 74.7107 254.673 75.7565C254.461 76.0848 254.238 76.3645 253.89 76.5347C253.467 76.7657 253.094 77.1305 252.896 77.4953C252.436 78.2493 252.461 79.1977 252.92 79.9881L253.778 81.4473C254.238 82.2256 255.095 82.712 255.99 82.712C256.412 82.712 256.909 82.5904 257.307 82.3472C257.618 82.1404 257.991 82.0675 258.401 82.0675C259.631 82.0675 260.662 83.0768 260.687 84.2806C260.687 85.679 261.831 86.7734 263.272 86.7734H264.962C266.391 86.7734 267.535 85.679 267.535 84.2806C267.572 83.0768 268.603 82.0675 269.833 82.0675C270.231 82.0675 270.604 82.1404 270.927 82.3472C271.325 82.5904 271.809 82.712 272.244 82.712C273.127 82.712 273.984 82.2256 274.444 81.4473L275.314 79.9881C275.761 79.1734 275.798 78.2493 275.339 77.4953Z" fill="#2F80ED"/>
<path fill-rule="evenodd" clip-rule="evenodd" d="M165.221 57.5488L165.221 136.822C165.221 139.222 163.275 141.167 160.876 141.167H108.027C105.627 141.167 103.682 139.222 103.682 136.822L103.682 57.5488C103.682 55.1491 105.627 53.2038 108.027 53.2038L160.876 53.2038C163.275 53.2038 165.221 55.1491 165.221 57.5488Z" fill="white"/>
<path d="M153.375 73.4212H115.564C113.801 73.4212 112.371 74.8504 112.371 76.6135V107.258C112.371 109.021 113.801 110.45 115.564 110.45H153.375C155.138 110.45 156.567 109.021 156.567 107.258V76.6135C156.567 74.8504 155.138 73.4212 153.375 73.4212Z" fill="#FCEBEC"/>
<path d="M114.411 108.172C118.949 98.2347 122.58 93.2659 125.304 93.2659C129.39 93.2659 128.308 100.163 132.761 100.719C137.214 101.275 142.496 86.3027 145.521 85.4214C148.547 84.54 146.822 89.7884 148.334 89.7884C149.342 89.7884 151.379 85.515 154.445 76.9682" stroke="#56ACF6" stroke-width="5.70247" stroke-linecap="round" stroke-linejoin="round"/>
<path d="M114.411 109.353C118.148 105.179 121.073 103.457 123.186 104.186C126.354 105.28 131.34 107.415 134.889 101.103C138.438 94.7914 142.951 101.562 145.869 102.694C147.815 103.449 150.673 100.815 154.445 94.7914" stroke="#E93737" stroke-width="5.70247" stroke-linecap="round" stroke-linejoin="round"/>
<path d="M151.934 60.741H116.894V68.646H151.934V60.741Z" fill="#EECCDC"/>
<path d="M156.567 118.112H112.371V119.943H156.567V118.112Z" fill="#EECCDC"/>
<path d="M156.567 128.576H112.371V130.407H156.567V128.576Z" fill="#EECCDC"/>
<defs>
<clipPath id="clip0">
<rect width="21.888" height="21.888" fill="white" transform="translate(260.467 110.364)"/>
</clipPath>
</defs>
</svg>
