<svg width="21" height="22" viewBox="0 0 21 22" fill="none" xmlns="http://www.w3.org/2000/svg">
<path d="M9.7 16.5957C8.1 16.5124 6.75 15.8957 5.65 14.7457C4.55 13.5957 4 12.2124 4 10.5957C4 8.92904 4.58333 7.51237 5.75 6.3457C6.91667 5.17904 8.33333 4.5957 10 4.5957C11.6167 4.5957 13 5.1457 14.15 6.2457C15.3 7.3457 15.9167 8.6957 16 10.2957L13.9 9.6707C13.6833 8.7707 13.2167 8.03337 12.5 7.4587C11.7833 6.88337 10.95 6.5957 10 6.5957C8.9 6.5957 7.95833 6.98737 7.175 7.7707C6.39167 8.55404 6 9.4957 6 10.5957C6 11.5457 6.28767 12.379 6.863 13.0957C7.43767 13.8124 8.175 14.279 9.075 14.4957L9.7 16.5957ZM10.9 20.5457C10.75 20.579 10.6 20.5957 10.45 20.5957H10C8.61667 20.5957 7.31667 20.333 6.1 19.8077C4.88333 19.283 3.825 18.5707 2.925 17.6707C2.025 16.7707 1.31267 15.7124 0.788 14.4957C0.262667 13.279 0 11.979 0 10.5957C0 9.21237 0.262667 7.91237 0.788 6.6957C1.31267 5.47904 2.025 4.4207 2.925 3.5207C3.825 2.6207 4.88333 1.90804 6.1 1.3827C7.31667 0.858036 8.61667 0.595703 10 0.595703C11.3833 0.595703 12.6833 0.858036 13.9 1.3827C15.1167 1.90804 16.175 2.6207 17.075 3.5207C17.975 4.4207 18.6873 5.47904 19.212 6.6957C19.7373 7.91237 20 9.21237 20 10.5957V11.0457C20 11.1957 19.9833 11.3457 19.95 11.4957L18 10.8957V10.5957C18 8.36237 17.225 6.4707 15.675 4.9207C14.125 3.3707 12.2333 2.5957 10 2.5957C7.76667 2.5957 5.875 3.3707 4.325 4.9207C2.775 6.4707 2 8.36237 2 10.5957C2 12.829 2.775 14.7207 4.325 16.2707C5.875 17.8207 7.76667 18.5957 10 18.5957H10.3L10.9 20.5457ZM18.525 21.0957L14.25 16.8207L13 20.5957L10 10.5957L20 13.5957L16.225 14.8457L20.5 19.1207L18.525 21.0957Z" fill="#1C1B1F"/>
</svg>
