<svg width="608" height="560" viewBox="0 0 608 560" fill="none" xmlns="http://www.w3.org/2000/svg">
<path d="M559.504 -31.5557L559.504 47.0839M559.504 591.557L559.504 311.247M559.504 245.505L559.504 97.2869" stroke="#97969C" stroke-dasharray="4 4"/>
<path d="M457.312 -31.1787L457.313 370.867M457.313 591.382L457.313 395.539" stroke="#97969C" stroke-dasharray="4 4"/>
<path d="M355.621 -31.3682L355.621 133.425M355.621 591.379L355.621 510.133M355.621 216.14L355.621 460.535" stroke="#97969C" stroke-dasharray="4 4"/>
<path d="M252.93 -31.1787L252.93 59.5647M252.93 591.375L252.93 83.8671" stroke="#97969C" stroke-dasharray="4 4"/>
<path d="M150.739 -31.3662L150.738 342.326M150.738 591.383L150.738 425.4" stroke="#97969C" stroke-dasharray="4 4"/>
<path d="M48.547 -31.5576L48.5469 152.27M48.5469 591.372L48.5469 288.354M48.5469 198.289L48.5469 271.121" stroke="#97969C" stroke-dasharray="4 4"/>
<path d="M0 487.054L330.227 487.054M608 487.054L379.607 487.054" stroke="#97969C" stroke-dasharray="4 4"/>
<path d="M0 383.261H112.263M608 383.261L469.346 383.261M190.468 383.261H444.674" stroke="#97969C" stroke-dasharray="4 4"/>
<path d="M0 175.675H25.6723M608 175.675L396.708 175.675M316 175.675L73.3582 175.675" stroke="#97969C" stroke-dasharray="4 4"/>
<path d="M0 279.468H39.4795M608 279.468H592.678M527.354 279.468L57.1204 279.468" stroke="#97969C" stroke-dasharray="4 4"/>
<path d="M0 71.8818L239.558 71.8818M608 71.8818H582.879M534.54 71.8818L265.522 71.8818" stroke="#97969C" stroke-dasharray="4 4"/>
<path d="M355.621 511.034L365.803 497.217L379.621 487.034L365.803 476.852L355.621 463.034L345.439 476.852L331.621 487.034L345.439 497.217L355.621 511.034Z" stroke="#97969C" stroke-dasharray="4 4"/>
<path d="M559.48 95.7998L569.663 81.9821L583.48 71.7998L569.663 61.6175L559.48 47.7998L549.298 61.6175L535.48 71.7998L549.298 81.9821L559.48 95.7998Z" stroke="#97969C" stroke-dasharray="4 4"/>
<path d="M48.6016 199.53L58.7839 185.713L72.6016 175.53L58.7839 165.348L48.6016 151.53L38.4192 165.348L24.6016 175.53L38.4192 185.713L48.6016 199.53Z" stroke="#97969C" stroke-dasharray="4 4"/>
<path d="M559.469 311.384L573.045 292.96L591.469 279.384L573.045 265.807L559.469 247.384L545.892 265.807L527.469 279.384L545.892 292.96L559.469 311.384Z" stroke="#97969C" stroke-dasharray="4 4"/>
<path d="M150.754 423.29L167.724 400.261L190.754 383.29L167.724 366.319L150.754 343.29L133.783 366.319L110.754 383.29L133.783 400.261L150.754 423.29Z" stroke="#97969C" stroke-dasharray="4 4"/>
<path d="M355.621 215.681L372.592 192.651L395.621 175.681L372.592 158.71L355.621 135.681L338.651 158.71L315.621 175.681L338.651 192.651L355.621 215.681Z" stroke="#97969C" stroke-dasharray="4 4"/>
<circle cx="12" cy="12" r="12" transform="matrix(1 0 0 -1 445.246 395.261)" stroke="#97969C" stroke-dasharray="4 4"/>
<circle cx="8" cy="8" r="8" transform="matrix(1 0 0 -1 40.5469 287.468)" stroke="#97969C" stroke-dasharray="4 4"/>
<circle cx="12" cy="12" r="12" transform="matrix(1 0 0 -1 240.598 83.8818)" stroke="#97969C" stroke-dasharray="4 4"/>
<rect x="-2" y="2" width="370" height="422" rx="6" transform="matrix(-1 0 0 1 507 74)" fill="#121212"/>
<rect x="-2" y="2" width="370" height="422" rx="6" transform="matrix(-1 0 0 1 507 74)" stroke="#121212" stroke-width="4"/>
<rect x="-2" y="2" width="369" height="419" rx="6" transform="matrix(-1 0 0 1 489 61)" fill="#F5F6F8"/>
<rect x="-2" y="2" width="369" height="419" rx="6" transform="matrix(-1 0 0 1 489 61)" stroke="#121212" stroke-width="4"/>
<g clip-path="url(#clip0_514_16981)">
<rect x="132" y="74" width="333" height="38" rx="4" fill="white"/>
<rect x="149" y="88" width="10" height="10" rx="5" fill="#EB5757"/>
<rect x="167" y="88" width="10" height="10" rx="5" fill="#F2C94C"/>
<rect x="185" y="88" width="10" height="10" rx="5" fill="#27AE60"/>
</g>
<rect x="-1" y="1" width="316" height="336" rx="7" transform="matrix(-1 0 0 1 463 125)" fill="#F5F6F8"/>
<path d="M207.044 170.338V167.908H200.546V165.478H206.774V163.066H200.546V160.708H207.044V158.278H197.846V170.338H207.044ZM211.47 170.518C213.144 170.518 214.062 169.78 214.548 169.114H214.656V170.338H217.158V164.974C217.158 162.562 215.754 161.104 213.09 161.104C210.534 161.104 208.86 162.526 208.86 164.686V164.884H211.434V164.686C211.434 163.768 211.866 163.462 212.964 163.462C214.026 163.462 214.602 163.66 214.602 164.722V165.01L211.506 165.478C209.634 165.766 208.626 166.63 208.626 168.034C208.626 169.672 209.868 170.518 211.47 170.518ZM211.2 167.818C211.2 167.44 211.452 167.26 212.01 167.17L214.602 166.774C214.602 168.178 213.468 168.466 212.37 168.466C211.578 168.466 211.2 168.304 211.2 167.818ZM221.981 170.338V164.668C221.981 163.678 222.377 163.39 223.205 163.39C224.051 163.39 224.357 163.696 224.357 164.668V165.154H227.039V164.326C227.039 162.508 226.337 161.104 224.447 161.104C223.169 161.104 222.359 161.824 221.909 162.742H221.801V161.284H219.299V170.338H221.981ZM231.292 170.338V165.208C231.292 163.84 231.85 163.426 233.146 163.426C234.514 163.426 234.928 163.876 234.928 165.136V170.338H237.628V164.596C237.628 162.67 236.62 161.104 234.262 161.104C232.678 161.104 231.706 161.842 231.22 162.868H231.112V161.284H228.61V170.338H231.292ZM242.288 160.258V158.278H239.606L239.642 160.258H242.288ZM242.342 170.338V161.284H239.642V170.338H242.342ZM247.067 170.338V165.208C247.067 163.84 247.625 163.426 248.921 163.426C250.289 163.426 250.703 163.876 250.703 165.136V170.338H253.403V164.596C253.403 162.67 252.395 161.104 250.037 161.104C248.453 161.104 247.481 161.842 246.995 162.868H246.887V161.284H244.385V170.338H247.067ZM258.982 169.384C260.35 169.384 261.304 168.772 261.7 168.07H261.808V169.474C261.808 170.878 261.52 171.202 260.098 171.202C258.55 171.202 258.28 170.968 258.28 170.032H255.598C255.598 172.336 257.182 173.578 260.008 173.578C262.924 173.578 264.49 172.282 264.49 169.33V161.284H261.988V162.598H261.898C261.412 161.608 260.386 161.104 259.09 161.104C256.516 161.104 255.148 162.742 255.148 165.262C255.148 167.782 256.48 169.384 258.982 169.384ZM257.83 165.262C257.83 163.984 258.28 163.39 259.828 163.39C261.124 163.39 261.808 163.84 261.808 164.992V165.532C261.808 166.684 261.106 167.134 259.81 167.134C258.28 167.134 257.83 166.54 257.83 165.262ZM270.625 170.518C273.127 170.518 274.513 169.438 274.513 167.746C274.513 166.27 273.721 165.406 271.813 165.046L270.157 164.704C269.077 164.488 268.915 164.362 268.915 163.93C268.915 163.498 269.167 163.264 270.247 163.264C271.399 163.264 271.651 163.588 271.651 164.182V164.434H274.225V164.182C274.225 162.148 272.533 161.104 270.319 161.104C267.745 161.104 266.377 162.292 266.377 163.966C266.377 165.64 267.349 166.396 269.131 166.72L270.499 166.972C271.705 167.188 271.957 167.296 271.957 167.782C271.957 168.232 271.777 168.394 270.679 168.394C269.365 168.394 268.969 168.25 268.969 167.584V167.206H266.395V167.26C266.395 169.456 267.781 170.518 270.625 170.518Z" fill="black"/>
<g clip-path="url(#clip1_514_16981)">
<path d="M190.721 167.637C190.389 163.96 188.556 162.116 188.556 162.116L185.222 157.671H180.778L177.444 162.116C177.444 162.116 176.656 162.912 176.018 164.491C174.913 164.857 174.111 165.887 174.111 167.116C174.111 167.92 174.458 168.639 175.005 169.146C174.796 169.536 174.667 169.975 174.667 170.449C174.667 171.537 175.298 172.469 176.208 172.925C176.921 173.992 177.873 174.338 178.556 174.338H187.444C188.211 174.338 189.318 173.905 190.043 172.499C191.116 172.115 191.889 171.099 191.889 169.893C191.889 168.961 191.426 168.141 190.721 167.637ZM183 157.671C183.306 157.671 183.588 157.583 183.833 157.44C184.079 157.583 184.362 157.671 184.667 157.671C185.587 157.671 186.889 156.369 186.889 155.449C186.889 155.449 186.889 154.338 185.778 154.338C185.34 154.338 185.222 154.893 184.667 154.893C184.111 154.893 184.111 154.338 183 154.338C181.889 154.338 181.889 154.893 181.333 154.893C180.778 154.893 180.661 154.338 180.222 154.338C179.111 154.338 179.111 155.449 179.111 155.449C179.111 156.369 180.413 157.671 181.333 157.671C181.638 157.671 181.921 157.583 182.167 157.44C182.413 157.583 182.695 157.671 183 157.671Z" fill="#FDD888"/>
<path d="M186.333 157.671C186.333 157.977 186.085 158.226 185.778 158.226H180.222C179.916 158.226 179.667 157.977 179.667 157.671C179.667 157.364 179.916 157.115 180.222 157.115H185.778C186.085 157.115 186.333 157.364 186.333 157.671Z" fill="#BF6952"/>
<path d="M186.278 167.973C186.278 165.485 181.511 165.648 181.511 164.147C181.511 163.42 182.234 163.065 183.073 163.065C184.483 163.065 184.734 163.937 185.372 163.937C185.824 163.937 186.042 163.663 186.042 163.356C186.042 162.643 184.917 162.103 183.839 161.916V161.227C183.839 160.798 183.478 160.449 183.031 160.449C182.584 160.449 182.222 160.798 182.222 161.227V161.94C181.047 162.197 180.035 162.981 180.035 164.26C180.035 166.648 184.801 166.551 184.801 168.229C184.801 168.811 184.147 169.392 183.073 169.392C181.461 169.392 180.924 168.343 180.27 168.343C179.951 168.343 179.666 168.6 179.666 168.989C179.666 169.608 180.743 170.351 182.223 170.558L182.223 170.564V171.34C182.223 171.769 182.585 172.118 183.032 172.118C183.478 172.118 183.84 171.769 183.84 171.34V170.564C183.84 170.554 183.836 170.547 183.835 170.539C185.167 170.3 186.278 169.465 186.278 167.973Z" fill="#67757F"/>
</g>
<rect x="-1" y="1" width="316" height="336" rx="7" transform="matrix(-1 0 0 1 463 125)" stroke="#E1E8F2" stroke-width="2" stroke-dasharray="8 8"/>
<rect x="172" y="192" width="121" height="80" rx="8" fill="#DAEFE6"/>
<path d="M187 248.085L189.028 249.336C191.056 250.588 195.111 253.091 199.167 251.379C203.222 249.668 207.278 243.742 211.333 243.898C215.389 244.054 219.444 250.293 223.5 253.374C227.556 256.456 231.611 256.38 235.667 255.391C239.722 254.403 243.778 252.502 247.833 248.681C251.889 244.861 255.944 239.12 260 235" stroke="#95DABC" stroke-width="2" stroke-linecap="round"/>
<path d="M199.936 228.015V225.687H190.792C190.792 224.367 192.04 223.599 193.672 222.759L196.024 221.559C198.088 220.503 199.888 219.087 199.888 216.447C199.888 213.783 198.232 211.695 194.272 211.695C189.832 211.695 187.96 214.191 187.96 217.191V217.575H190.552V217.239C190.552 215.031 191.152 214.071 194.08 214.071C196.744 214.071 197.296 215.055 197.296 216.543C197.296 217.911 196.6 218.631 194.872 219.543L192.4 220.815C190.144 221.967 188.08 223.359 188.08 226.407V228.015H199.936ZM208.09 228.255C212.53 228.255 214.522 226.095 214.522 222.759C214.522 219.519 212.434 217.599 209.002 217.599C206.89 217.599 205.378 218.247 204.538 218.943H204.466L204.85 214.263H213.658V211.935H202.57L202.018 220.479L204.298 220.839C205.09 220.383 206.242 219.831 208.21 219.831C210.922 219.831 211.954 220.671 211.954 222.831C211.954 225.087 211.018 225.879 208.186 225.879C205.522 225.879 204.322 225.255 204.322 223.455V223.311H201.754V223.455C201.754 226.407 203.914 228.255 208.09 228.255ZM217.126 230.847C218.638 230.847 219.502 230.079 219.502 228.471V224.295H216.214V228.015H217.678V228.519C217.678 229.047 217.462 229.143 217.054 229.143H216.262V230.847H217.126ZM228.026 228.255C232.346 228.255 234.986 225.063 234.986 219.975C234.986 214.887 232.346 211.695 228.026 211.695C223.706 211.695 221.09 214.887 221.09 219.975C221.09 225.063 223.706 228.255 228.026 228.255ZM228.026 225.759C225.17 225.759 223.85 224.223 223.85 219.975C223.85 215.727 225.17 214.191 228.026 214.191C230.882 214.191 232.226 215.727 232.226 219.975C232.226 224.223 230.882 225.759 228.026 225.759ZM244.398 228.255C248.718 228.255 251.358 225.063 251.358 219.975C251.358 214.887 248.718 211.695 244.398 211.695C240.078 211.695 237.462 214.887 237.462 219.975C237.462 225.063 240.078 228.255 244.398 228.255ZM244.398 225.759C241.542 225.759 240.222 224.223 240.222 219.975C240.222 215.727 241.542 214.191 244.398 214.191C247.254 214.191 248.598 215.727 248.598 219.975C248.598 224.223 247.254 225.759 244.398 225.759ZM260.769 228.255C265.089 228.255 267.729 225.063 267.729 219.975C267.729 214.887 265.089 211.695 260.769 211.695C256.449 211.695 253.833 214.887 253.833 219.975C253.833 225.063 256.449 228.255 260.769 228.255ZM260.769 225.759C257.913 225.759 256.593 224.223 256.593 219.975C256.593 215.727 257.913 214.191 260.769 214.191C263.625 214.191 264.969 215.727 264.969 219.975C264.969 224.223 263.625 225.759 260.769 225.759Z" fill="black"/>
<rect x="322" y="192" width="121" height="80" rx="8" fill="#E8EDFE"/>
<path d="M337 248.085L339.028 249.336C341.056 250.588 345.111 253.091 349.167 251.379C353.222 249.668 357.278 243.742 361.333 243.898C365.389 244.054 369.444 250.293 373.5 253.374C377.556 256.456 381.611 256.38 385.667 255.391C389.722 254.403 393.778 252.502 397.833 248.681C401.889 244.861 405.944 239.12 410 235" stroke="#C6D1FD" stroke-width="2" stroke-linecap="round"/>
<path d="M343.192 228.015V211.935H340.912C340.24 213.375 339.352 213.927 337.84 213.927H337.216V215.775H340.6V228.015H343.192ZM352.877 228.255C357.197 228.255 359.837 225.063 359.837 219.975C359.837 214.887 357.197 211.695 352.877 211.695C348.557 211.695 345.941 214.887 345.941 219.975C345.941 225.063 348.557 228.255 352.877 228.255ZM352.877 225.759C350.021 225.759 348.701 224.223 348.701 219.975C348.701 215.727 350.021 214.191 352.877 214.191C355.733 214.191 357.077 215.727 357.077 219.975C357.077 224.223 355.733 225.759 352.877 225.759ZM368.274 228.255C372.714 228.255 374.706 226.095 374.706 222.759C374.706 219.519 372.618 217.599 369.186 217.599C367.074 217.599 365.562 218.247 364.722 218.943H364.65L365.034 214.263H373.842V211.935H362.754L362.202 220.479L364.482 220.839C365.274 220.383 366.426 219.831 368.394 219.831C371.106 219.831 372.138 220.671 372.138 222.831C372.138 225.087 371.202 225.879 368.37 225.879C365.706 225.879 364.506 225.255 364.506 223.455V223.311H361.938V223.455C361.938 226.407 364.098 228.255 368.274 228.255Z" fill="black"/>
<rect x="172" y="298" width="272" height="10" rx="5" fill="#E3E7EF"/>
<rect x="172" y="358" width="272" height="10" rx="5" fill="#E3E7EF"/>
<rect x="172" y="418" width="272" height="10" rx="5" fill="#E3E7EF"/>
<defs>
<clipPath id="clip0_514_16981">
<rect x="132" y="74" width="333" height="38" rx="4" fill="white"/>
</clipPath>
<clipPath id="clip1_514_16981">
<rect width="20" height="20" fill="white" transform="translate(173 154.338)"/>
</clipPath>
</defs>
</svg>
