<svg width="608" height="560" viewBox="0 0 608 560" fill="none" xmlns="http://www.w3.org/2000/svg">
<path d="M48.4961 -31.5557L48.496 47.0839M48.496 591.557L48.496 311.247M48.496 245.505L48.496 97.2869" stroke="#97969C" stroke-dasharray="4 4"/>
<path d="M150.688 -31.1787L150.687 370.867M150.687 591.382L150.687 395.539" stroke="#97969C" stroke-dasharray="4 4"/>
<path d="M252.379 -31.3682L252.379 133.425M252.379 591.379L252.379 510.133M252.379 216.14L252.379 460.535" stroke="#97969C" stroke-dasharray="4 4"/>
<path d="M355.07 -31.1787L355.07 59.5647M355.07 591.375L355.07 83.8671" stroke="#97969C" stroke-dasharray="4 4"/>
<path d="M457.261 -31.3662L457.262 342.326M457.262 591.383L457.262 425.4" stroke="#97969C" stroke-dasharray="4 4"/>
<path d="M559.453 -31.5576L559.453 152.27M559.453 591.372L559.453 288.354M559.453 198.289L559.453 271.121" stroke="#97969C" stroke-dasharray="4 4"/>
<path d="M608 487.054L277.773 487.054M0 487.054L228.393 487.054" stroke="#97969C" stroke-dasharray="4 4"/>
<path d="M608 383.261H495.737M0 383.261L138.654 383.261M417.532 383.261H163.326" stroke="#97969C" stroke-dasharray="4 4"/>
<path d="M608 175.675H582.328M0 175.675L211.292 175.675M292 175.675L534.642 175.675" stroke="#97969C" stroke-dasharray="4 4"/>
<path d="M608 279.468H568.52M0 279.468H15.3224M80.6456 279.468L550.88 279.468" stroke="#97969C" stroke-dasharray="4 4"/>
<path d="M608 71.8818L368.442 71.8818M0 71.8818H25.1209M73.46 71.8818L342.478 71.8818" stroke="#97969C" stroke-dasharray="4 4"/>
<path d="M252.379 511.034L242.197 497.217L228.379 487.034L242.197 476.852L252.379 463.034L262.561 476.852L276.379 487.034L262.561 497.217L252.379 511.034Z" stroke="#97969C" stroke-dasharray="4 4"/>
<path d="M48.5195 95.7998L38.3372 81.9821L24.5195 71.7998L38.3372 61.6175L48.5195 47.7998L58.7019 61.6175L72.5195 71.7998L58.7019 81.9821L48.5195 95.7998Z" stroke="#97969C" stroke-dasharray="4 4"/>
<path d="M559.398 199.53L549.216 185.713L535.398 175.53L549.216 165.348L559.398 151.53L569.581 165.348L583.398 175.53L569.581 185.713L559.398 199.53Z" stroke="#97969C" stroke-dasharray="4 4"/>
<path d="M48.5312 311.384L34.9548 292.96L16.5312 279.384L34.9548 265.807L48.5312 247.384L62.1077 265.807L80.5312 279.384L62.1077 292.96L48.5312 311.384Z" stroke="#97969C" stroke-dasharray="4 4"/>
<path d="M457.246 423.29L440.276 400.261L417.246 383.29L440.276 366.319L457.246 343.29L474.217 366.319L497.246 383.29L474.217 400.261L457.246 423.29Z" stroke="#97969C" stroke-dasharray="4 4"/>
<path d="M252.379 215.681L235.408 192.651L212.379 175.681L235.408 158.71L252.379 135.681L269.349 158.71L292.379 175.681L269.349 192.651L252.379 215.681Z" stroke="#97969C" stroke-dasharray="4 4"/>
<circle cx="150.754" cy="383.261" r="12" transform="rotate(180 150.754 383.261)" stroke="#97969C" stroke-dasharray="4 4"/>
<circle cx="559.453" cy="279.468" r="8" transform="rotate(180 559.453 279.468)" stroke="#97969C" stroke-dasharray="4 4"/>
<circle cx="355.402" cy="71.8818" r="12" transform="rotate(180 355.402 71.8818)" stroke="#97969C" stroke-dasharray="4 4"/>
<rect x="-2" y="2" width="437" height="234" rx="6" transform="matrix(-1 0 0 1 502 73)" fill="#121212"/>
<rect x="-2" y="2" width="437" height="234" rx="6" transform="matrix(-1 0 0 1 502 73)" stroke="#121212" stroke-width="4"/>
<rect x="-2" y="2" width="441" height="235" rx="6" transform="matrix(-1 0 0 1 521 60)" fill="#F5F6F8"/>
<rect x="-2" y="2" width="441" height="235" rx="6" transform="matrix(-1 0 0 1 521 60)" stroke="#121212" stroke-width="4"/>
<rect x="103" y="84" width="394" height="38" rx="4" fill="white"/>
<rect x="120" y="98" width="10" height="10" rx="5" fill="#EB5757"/>
<rect x="138" y="98" width="10" height="10" rx="5" fill="#F2C94C"/>
<rect x="156" y="98" width="10" height="10" rx="5" fill="#27AE60"/>
<rect x="-1" y="1" width="392" height="135" rx="7" transform="matrix(-1 0 0 1 495 135)" fill="#F5F6F8"/>
<path d="M154.03 176.18C157.45 176.18 158.746 174.452 158.746 172.526C158.746 170.762 157.882 169.43 155.344 168.944L153.202 168.53C151.798 168.26 151.474 168.08 151.474 167.306C151.474 166.55 151.96 166.208 153.508 166.208C155.29 166.208 155.812 166.622 155.812 167.882V168.08H158.476V167.936C158.476 165.542 157.036 163.76 153.598 163.76C150.142 163.76 148.792 165.578 148.792 167.414C148.792 169.286 149.764 170.456 152.068 170.852L154.192 171.23C155.884 171.518 156.064 171.806 156.064 172.616C156.064 173.426 155.686 173.732 154.156 173.732C151.978 173.732 151.492 173.354 151.492 172.022V171.842H148.846V172.076C148.846 174.74 150.484 176.18 154.03 176.18ZM163.195 176V170.888C163.195 169.52 163.753 169.088 165.049 169.088C166.417 169.088 166.831 169.538 166.831 170.798V176H169.531V170.258C169.531 168.332 168.559 166.766 166.219 166.766C164.779 166.766 163.789 167.504 163.303 168.35H163.195V163.94H160.513V176H163.195ZM174.119 176.18C175.793 176.18 176.711 175.442 177.197 174.776H177.305V176H179.807V170.636C179.807 168.224 178.403 166.766 175.739 166.766C173.183 166.766 171.509 168.188 171.509 170.348V170.546H174.083V170.348C174.083 169.43 174.515 169.124 175.613 169.124C176.675 169.124 177.251 169.322 177.251 170.384V170.672L174.155 171.14C172.283 171.428 171.275 172.292 171.275 173.696C171.275 175.334 172.517 176.18 174.119 176.18ZM173.849 173.48C173.849 173.102 174.101 172.922 174.659 172.832L177.251 172.436C177.251 173.84 176.117 174.128 175.019 174.128C174.227 174.128 173.849 173.966 173.849 173.48ZM184.63 176V170.33C184.63 169.34 185.026 169.052 185.854 169.052C186.7 169.052 187.006 169.358 187.006 170.33V170.816H189.688V169.988C189.688 168.17 188.986 166.766 187.096 166.766C185.818 166.766 185.008 167.486 184.558 168.404H184.45V166.946H181.948V176H184.63ZM195.507 176.18C198.099 176.18 199.755 175.046 199.755 173.12V172.94H197.091V173.048C197.091 173.606 196.623 173.84 195.543 173.84C194.067 173.84 193.563 173.336 193.509 172.076H199.719C199.773 171.77 199.845 171.248 199.845 170.744C199.845 168.386 198.243 166.766 195.525 166.766C192.699 166.766 190.971 168.602 190.971 171.5C190.971 174.362 192.393 176.18 195.507 176.18ZM195.435 168.98C196.695 168.98 197.307 169.502 197.253 170.438H193.527C193.635 169.484 194.139 168.98 195.435 168.98Z" fill="black"/>
<g clip-path="url(#clip0_514_17032)">
<path d="M132.333 165L135.667 161.667C135.667 161.667 139 158.334 142.333 161.667C145.667 165 142.333 168.334 142.333 168.334L137.889 172.778C137.889 172.778 134.556 176.111 131.222 172.778C130.597 172.153 130.21 171.323 130.21 171.323L132.073 169.463C132.073 169.463 131.998 170.22 132.889 171.111C132.889 171.111 134.556 172.778 136.222 171.111L140.667 166.667C140.667 166.667 142.333 165 140.667 163.334C139 161.667 137.333 163.334 137.333 163.334L135.262 165.405C135.262 165.405 134.232 164.56 132.125 165.209L132.333 165Z" fill="#8899A6"/>
<path d="M135.581 175L132.247 178.334C132.247 178.334 128.914 181.667 125.581 178.334C122.247 175 125.581 171.667 125.581 171.667L130.025 167.223C130.025 167.223 133.358 163.889 136.692 167.223C137.317 167.848 137.704 168.678 137.704 168.678L135.841 170.539C135.841 170.539 135.916 169.78 135.024 168.889C135.024 168.889 133.358 167.223 131.691 168.889L127.247 173.334C127.247 173.334 125.58 175 127.247 176.667C128.913 178.334 130.58 176.667 130.58 176.667L132.652 174.595C132.652 174.595 133.682 175.44 135.788 174.792L135.581 175Z" fill="#8899A6"/>
</g>
<rect x="119.5" y="198.5" width="304" height="48" rx="3.5" fill="white"/>
<rect x="144" y="218.5" width="113" height="8" rx="4" fill="#EEF1F7"/>
<rect x="119.5" y="198.5" width="304" height="48" rx="3.5" stroke="#DFE7F2"/>
<rect x="434.5" y="198.5" width="48" height="48" rx="3.5" fill="#030303"/>
<rect x="434.5" y="198.5" width="48" height="48" rx="3.5" stroke="#DFE7F2"/>
<rect x="-1" y="1" width="392" height="135" rx="7" transform="matrix(-1 0 0 1 495 135)" stroke="#E1E8F2" stroke-width="2" stroke-dasharray="8 8"/>
<rect x="-2" y="2" width="437" height="112" rx="6" transform="matrix(-1 0 0 1 502 389)" fill="#121212"/>
<rect x="-2" y="2" width="437" height="112" rx="6" transform="matrix(-1 0 0 1 502 389)" stroke="#121212" stroke-width="4"/>
<rect x="-2" y="2" width="447" height="108" rx="6" transform="matrix(-1 0 0 1 525 378)" fill="#F5F6F8"/>
<rect x="-1" y="1" width="421" height="84" rx="7" transform="matrix(-1 0 0 1 513 391)" fill="#F5F6F8"/>
<rect x="-1" y="1" width="421" height="84" rx="7" transform="matrix(-1 0 0 1 513 391)" stroke="#E1E8F2" stroke-width="2" stroke-dasharray="8 8"/>
<rect x="119.5" y="410.5" width="375" height="48" rx="3.5" fill="white"/>
<rect x="144" y="430.5" width="113" height="8" rx="4" fill="#EEF1F7"/>
<rect x="119.5" y="410.5" width="375" height="48" rx="3.5" stroke="#DFE7F2"/>
<rect x="-2" y="2" width="447" height="108" rx="6" transform="matrix(-1 0 0 1 525 378)" stroke="#121212" stroke-width="4"/>
<rect x="288.914" y="322" width="6" height="6" rx="3" fill="#121212"/>
<path d="M292.26 370.974C292.107 371.241 291.722 371.241 291.568 370.974L288.796 366.174C288.642 365.908 288.835 365.574 289.143 365.574L294.685 365.574C294.993 365.574 295.186 365.908 295.032 366.174L292.26 370.974Z" fill="#121212"/>
<line x1="291.963" y1="327.574" x2="291.963" y2="367.574" stroke="#121212" stroke-width="2"/>
<defs>
<clipPath id="clip0_514_17032">
<rect width="20" height="20" fill="white" transform="translate(124 160)"/>
</clipPath>
</defs>
</svg>
