<svg width="608" height="560" viewBox="0 0 608 560" fill="none" xmlns="http://www.w3.org/2000/svg">
<path d="M559.504 -31.5557L559.504 47.0839M559.504 591.557L559.504 311.247M559.504 245.505L559.504 97.2869" stroke="#97969C" stroke-dasharray="4 4"/>
<path d="M457.312 -31.1787L457.313 370.867M457.313 591.382L457.313 395.539" stroke="#97969C" stroke-dasharray="4 4"/>
<path d="M355.621 -31.3682L355.621 133.425M355.621 591.379L355.621 510.133M355.621 216.14L355.621 460.535" stroke="#97969C" stroke-dasharray="4 4"/>
<path d="M252.93 -31.1787L252.93 59.5647M252.93 591.375L252.93 83.8671" stroke="#97969C" stroke-dasharray="4 4"/>
<path d="M150.739 -31.3662L150.738 342.326M150.738 591.383L150.738 425.4" stroke="#97969C" stroke-dasharray="4 4"/>
<path d="M48.547 -31.5576L48.5469 152.27M48.5469 591.372L48.5469 288.354M48.5469 198.289L48.5469 271.121" stroke="#97969C" stroke-dasharray="4 4"/>
<path d="M0 487.054L330.227 487.054M608 487.054L379.607 487.054" stroke="#97969C" stroke-dasharray="4 4"/>
<path d="M0 383.261H112.263M608 383.261L469.346 383.261M190.468 383.261H444.674" stroke="#97969C" stroke-dasharray="4 4"/>
<path d="M0 175.675H25.6723M608 175.675L396.708 175.675M316 175.675L73.3582 175.675" stroke="#97969C" stroke-dasharray="4 4"/>
<path d="M0 279.468H39.4795M608 279.468H592.678M527.354 279.468L57.1204 279.468" stroke="#97969C" stroke-dasharray="4 4"/>
<path d="M0 71.8818L239.558 71.8818M608 71.8818H582.879M534.54 71.8818L265.522 71.8818" stroke="#97969C" stroke-dasharray="4 4"/>
<path d="M355.621 511.034L365.803 497.217L379.621 487.034L365.803 476.852L355.621 463.034L345.439 476.852L331.621 487.034L345.439 497.217L355.621 511.034Z" stroke="#97969C" stroke-dasharray="4 4"/>
<path d="M559.48 95.7998L569.663 81.9821L583.48 71.7998L569.663 61.6175L559.48 47.7998L549.298 61.6175L535.48 71.7998L549.298 81.9821L559.48 95.7998Z" stroke="#97969C" stroke-dasharray="4 4"/>
<path d="M48.6016 199.53L58.7839 185.713L72.6016 175.53L58.7839 165.348L48.6016 151.53L38.4192 165.348L24.6016 175.53L38.4192 185.713L48.6016 199.53Z" stroke="#97969C" stroke-dasharray="4 4"/>
<path d="M559.469 311.384L573.045 292.96L591.469 279.384L573.045 265.807L559.469 247.384L545.892 265.807L527.469 279.384L545.892 292.96L559.469 311.384Z" stroke="#97969C" stroke-dasharray="4 4"/>
<path d="M150.754 423.29L167.724 400.261L190.754 383.29L167.724 366.319L150.754 343.29L133.783 366.319L110.754 383.29L133.783 400.261L150.754 423.29Z" stroke="#97969C" stroke-dasharray="4 4"/>
<path d="M355.621 215.681L372.592 192.651L395.621 175.681L372.592 158.71L355.621 135.681L338.651 158.71L315.621 175.681L338.651 192.651L355.621 215.681Z" stroke="#97969C" stroke-dasharray="4 4"/>
<circle cx="12" cy="12" r="12" transform="matrix(1 0 0 -1 445.246 395.261)" stroke="#97969C" stroke-dasharray="4 4"/>
<circle cx="8" cy="8" r="8" transform="matrix(1 0 0 -1 40.5469 287.468)" stroke="#97969C" stroke-dasharray="4 4"/>
<circle cx="12" cy="12" r="12" transform="matrix(1 0 0 -1 240.598 83.8818)" stroke="#97969C" stroke-dasharray="4 4"/>
<rect x="-2" y="2" width="407" height="370" rx="6" transform="matrix(-1 0 0 1 508 65)" fill="#121212"/>
<rect x="-2" y="2" width="407" height="370" rx="6" transform="matrix(-1 0 0 1 508 65)" stroke="#121212" stroke-width="4"/>
<rect x="-2" y="2" width="413" height="364" rx="6" transform="matrix(-1 0 0 1 497 60)" fill="#F5F6F8"/>
<g clip-path="url(#clip0_514_16919)">
<rect x="111" y="84" width="363" height="38" rx="4" fill="white"/>
<rect x="128" y="98" width="10" height="10" rx="5" fill="#EB5757"/>
<rect x="146" y="98" width="10" height="10" rx="5" fill="#F2C94C"/>
<rect x="164" y="98" width="10" height="10" rx="5" fill="#27AE60"/>
</g>
<rect x="-1" y="1" width="361" height="61" rx="7" transform="matrix(-1 0 0 1 472 132)" fill="#F5F6F8"/>
<path d="M162.03 169.18C165.45 169.18 166.746 167.452 166.746 165.526C166.746 163.762 165.882 162.43 163.344 161.944L161.202 161.53C159.798 161.26 159.474 161.08 159.474 160.306C159.474 159.55 159.96 159.208 161.508 159.208C163.29 159.208 163.812 159.622 163.812 160.882V161.08H166.476V160.936C166.476 158.542 165.036 156.76 161.598 156.76C158.142 156.76 156.792 158.578 156.792 160.414C156.792 162.286 157.764 163.456 160.068 163.852L162.192 164.23C163.884 164.518 164.064 164.806 164.064 165.616C164.064 166.426 163.686 166.732 162.156 166.732C159.978 166.732 159.492 166.354 159.492 165.022V164.842H156.846V165.076C156.846 167.74 158.484 169.18 162.03 169.18ZM171.051 158.92V156.94H168.369L168.405 158.92H171.051ZM171.105 169V159.946H168.405V169H171.105ZM176.553 168.046C177.921 168.046 178.875 167.434 179.271 166.732H179.379V168.136C179.379 169.54 179.091 169.864 177.669 169.864C176.121 169.864 175.851 169.63 175.851 168.694H173.169C173.169 170.998 174.753 172.24 177.579 172.24C180.495 172.24 182.061 170.944 182.061 167.992V159.946H179.559V161.26H179.469C178.983 160.27 177.957 159.766 176.661 159.766C174.087 159.766 172.719 161.404 172.719 163.924C172.719 166.444 174.051 168.046 176.553 168.046ZM175.401 163.924C175.401 162.646 175.851 162.052 177.399 162.052C178.695 162.052 179.379 162.502 179.379 163.654V164.194C179.379 165.346 178.677 165.796 177.381 165.796C175.851 165.796 175.401 165.202 175.401 163.924ZM186.935 169V163.87C186.935 162.502 187.493 162.088 188.789 162.088C190.157 162.088 190.571 162.538 190.571 163.798V169H193.271V163.258C193.271 161.332 192.263 159.766 189.905 159.766C188.321 159.766 187.349 160.504 186.863 161.53H186.755V159.946H184.253V169H186.935ZM204.616 169.18C208.126 169.18 209.908 167.308 209.908 164.302V156.94H207.208V164.266C207.208 165.994 206.596 166.57 204.616 166.57C202.618 166.57 202.006 165.994 202.006 164.266V156.94H199.324V164.302C199.324 167.308 201.106 169.18 204.616 169.18ZM214.62 172.024V167.812H214.71C215.124 168.586 216.006 169.18 217.446 169.18C219.894 169.18 221.28 167.326 221.28 164.482C221.28 161.62 219.948 159.766 217.392 159.766C216.042 159.766 214.998 160.306 214.512 161.278H214.422V159.946H211.92V172.024H214.62ZM214.62 165.202V163.744C214.62 162.52 215.322 162.07 216.6 162.07C218.166 162.07 218.58 162.826 218.58 164.482C218.58 166.12 218.166 166.876 216.6 166.876C215.322 166.876 214.62 166.426 214.62 165.202Z" fill="black"/>
<path d="M147.889 169.164C147.657 168.629 147.391 168.049 146.778 168.049H146.222C146.836 168.049 147.333 167.549 147.333 166.933V157.449C147.333 156.832 146.836 156.333 146.222 156.333H131.778C131.164 156.333 130.667 156.832 130.667 157.449V166.933C130.667 167.549 131.164 168.049 131.778 168.049H131.222C130.609 168.049 130.296 168.606 130.111 169.164L129 171.884C129 172.5 129.498 173 130.111 173H147.889C148.502 173 149 172.5 149 171.884L147.889 169.164Z" fill="#CCD6DD"/>
<path d="M129.004 171.931L129.008 171.962L129.102 172.347C129.278 172.731 129.662 173 130.111 173H147.889C148.487 173 148.971 172.525 148.996 171.931H129.004Z" fill="#9AAAB4"/>
<path d="M146.222 166.375C146.222 166.683 145.974 166.933 145.667 166.933H132.333C132.027 166.933 131.778 166.683 131.778 166.375V158.007C131.778 157.699 132.027 157.449 132.333 157.449H145.667C145.974 157.449 146.222 157.699 146.222 158.007V166.375Z" fill="#5DADEC"/>
<path d="M147.281 170.246L146.859 169.037C146.726 168.782 146.506 168.572 146.199 168.572H131.839C131.532 168.572 131.336 168.799 131.197 169.148L130.814 170.246C130.693 170.577 131.063 170.804 131.37 170.804H135.58C135.58 170.804 136.101 170.778 136.193 170.466C136.299 170.106 136.423 169.564 136.45 169.468C136.491 169.322 136.666 169.173 136.926 169.173H141.691C141.969 169.173 142.106 169.314 142.142 169.488C142.165 169.601 142.315 170.122 142.385 170.478C142.447 170.795 143.063 170.803 143.063 170.803H146.727C147.033 170.803 147.403 170.542 147.281 170.246Z" fill="#AEBBC1"/>
<path d="M141.431 171.397H137.108C136.899 171.397 136.809 171.206 136.839 171.022C136.869 170.838 137.038 170.025 137.052 169.931C137.064 169.836 137.204 169.723 137.343 169.723H141.24C141.405 169.723 141.512 169.813 141.546 169.994C141.578 170.176 141.713 170.906 141.724 171.073C141.734 171.24 141.63 171.397 141.431 171.397Z" fill="#9AAAB4"/>
<rect x="-1" y="1" width="361" height="61" rx="7" transform="matrix(-1 0 0 1 472 132)" stroke="#E1E8F2" stroke-width="2" stroke-dasharray="8 8"/>
<rect x="111.5" y="224.5" width="362" height="48" rx="3.5" fill="white"/>
<rect x="136" y="244.5" width="113" height="8" rx="4" fill="#EEF1F7"/>
<rect x="111.5" y="224.5" width="362" height="48" rx="3.5" stroke="#DFE7F2"/>
<rect x="111.5" y="285.5" width="362" height="48" rx="3.5" fill="white"/>
<rect x="136" y="305.5" width="113" height="8" rx="4" fill="#EEF1F7"/>
<rect x="111.5" y="285.5" width="362" height="48" rx="3.5" stroke="#DFE7F2"/>
<rect x="111.5" y="356.5" width="362" height="48" rx="3.5" fill="black"/>
<path d="M266.03 386.68C269.45 386.68 270.746 384.952 270.746 383.026C270.746 381.262 269.882 379.93 267.344 379.444L265.202 379.03C263.798 378.76 263.474 378.58 263.474 377.806C263.474 377.05 263.96 376.708 265.508 376.708C267.29 376.708 267.812 377.122 267.812 378.382V378.58H270.476V378.436C270.476 376.042 269.036 374.26 265.598 374.26C262.142 374.26 260.792 376.078 260.792 377.914C260.792 379.786 261.764 380.956 264.068 381.352L266.192 381.73C267.884 382.018 268.064 382.306 268.064 383.116C268.064 383.926 267.686 384.232 266.156 384.232C263.978 384.232 263.492 383.854 263.492 382.522V382.342H260.846V382.576C260.846 385.24 262.484 386.68 266.03 386.68ZM275.051 376.42V374.44H272.369L272.405 376.42H275.051ZM275.105 386.5V377.446H272.405V386.5H275.105ZM280.553 385.546C281.921 385.546 282.875 384.934 283.271 384.232H283.379V385.636C283.379 387.04 283.091 387.364 281.669 387.364C280.121 387.364 279.851 387.13 279.851 386.194H277.169C277.169 388.498 278.753 389.74 281.579 389.74C284.495 389.74 286.061 388.444 286.061 385.492V377.446H283.559V378.76H283.469C282.983 377.77 281.957 377.266 280.661 377.266C278.087 377.266 276.719 378.904 276.719 381.424C276.719 383.944 278.051 385.546 280.553 385.546ZM279.401 381.424C279.401 380.146 279.851 379.552 281.399 379.552C282.695 379.552 283.379 380.002 283.379 381.154V381.694C283.379 382.846 282.677 383.296 281.381 383.296C279.851 383.296 279.401 382.702 279.401 381.424ZM290.935 386.5V381.37C290.935 380.002 291.493 379.588 292.789 379.588C294.157 379.588 294.571 380.038 294.571 381.298V386.5H297.271V380.758C297.271 378.832 296.263 377.266 293.905 377.266C292.321 377.266 291.349 378.004 290.863 379.03H290.755V377.446H288.253V386.5H290.935ZM306.672 386.68C308.256 386.68 309.21 385.96 309.714 384.916H309.804V386.5H312.306V377.446H309.624V382.576C309.624 383.944 309.066 384.358 307.77 384.358C306.42 384.358 305.988 383.908 305.988 382.648V377.446H303.306V383.188C303.306 385.114 304.296 386.68 306.672 386.68ZM317.038 389.524V385.312H317.128C317.542 386.086 318.424 386.68 319.864 386.68C322.312 386.68 323.698 384.826 323.698 381.982C323.698 379.12 322.366 377.266 319.81 377.266C318.46 377.266 317.416 377.806 316.93 378.778H316.84V377.446H314.338V389.524H317.038ZM317.038 382.702V381.244C317.038 380.02 317.74 379.57 319.018 379.57C320.584 379.57 320.998 380.326 320.998 381.982C320.998 383.62 320.584 384.376 319.018 384.376C317.74 384.376 317.038 383.926 317.038 382.702Z" fill="white"/>
<rect x="111.5" y="356.5" width="362" height="48" rx="3.5" stroke="#DFE7F2"/>
<rect x="-2" y="2" width="413" height="364" rx="6" transform="matrix(-1 0 0 1 497 60)" stroke="#121212" stroke-width="4"/>
<defs>
<clipPath id="clip0_514_16919">
<rect x="111" y="84" width="363" height="38" rx="4" fill="white"/>
</clipPath>
</defs>
</svg>
