<svg width="24" height="24" viewBox="0 0 24 24" fill="none" xmlns="http://www.w3.org/2000/svg">
<path d="M12.05 22.9996V21.4996H19.5V20.1496H15.8V12.7496H19.5V11.0496C19.5 8.98294 18.775 7.20378 17.325 5.71211C15.875 4.22044 14.1167 3.47461 12.05 3.47461C9.98333 3.47461 8.20833 4.22044 6.725 5.71211C5.24167 7.20378 4.5 8.98294 4.5 11.0496V12.7496H8.2V20.1496H4.5C4.1 20.1496 3.75 19.9996 3.45 19.6996C3.15 19.3996 3 19.0496 3 18.6496V11.0496C3 9.79961 3.2375 8.62461 3.7125 7.52461C4.1875 6.42461 4.83333 5.46211 5.65 4.63711C6.46667 3.81211 7.425 3.16211 8.525 2.68711C9.625 2.21211 10.8 1.97461 12.05 1.97461C13.3 1.97461 14.4708 2.21211 15.5625 2.68711C16.6542 3.16211 17.6 3.81211 18.4 4.63711C19.2 5.46211 19.8333 6.42461 20.3 7.52461C20.7667 8.62461 21 9.79961 21 11.0496V21.4996C21 21.8996 20.85 22.2496 20.55 22.5496C20.25 22.8496 19.9 22.9996 19.5 22.9996H12.05ZM4.5 18.6496H6.7V14.2496H4.5V18.6496ZM17.3 18.6496H19.5V14.2496H17.3V18.6496Z" fill="#1C1B1F"/>
</svg>
