<svg width="608" height="561" viewBox="0 0 608 561" fill="none" xmlns="http://www.w3.org/2000/svg">
<path d="M48.4961 -30.96L48.496 47.6796M48.496 592.153L48.496 311.843M48.496 246.101L48.496 97.8826" stroke="#97969C" stroke-dasharray="4 4"/>
<path d="M150.688 -30.583L150.687 371.462M150.687 591.978L150.687 396.135" stroke="#97969C" stroke-dasharray="4 4"/>
<path d="M252.379 -30.7725L252.379 134.021M252.379 591.975L252.379 510.729M252.379 216.736L252.379 461.13" stroke="#97969C" stroke-dasharray="4 4"/>
<path d="M355.07 -30.583L355.07 60.1604M355.07 591.971L355.07 84.4628" stroke="#97969C" stroke-dasharray="4 4"/>
<path d="M457.261 -30.7705L457.262 342.922M457.262 591.979L457.262 425.995" stroke="#97969C" stroke-dasharray="4 4"/>
<path d="M559.453 -30.9619L559.453 152.866M559.453 591.968L559.453 288.95M559.453 198.885L559.453 271.716" stroke="#97969C" stroke-dasharray="4 4"/>
<path d="M608 487.649L277.773 487.649M0 487.649L228.393 487.649" stroke="#97969C" stroke-dasharray="4 4"/>
<path d="M608 383.856H495.737M0 383.856L138.654 383.856M417.532 383.856H163.326" stroke="#97969C" stroke-dasharray="4 4"/>
<path d="M608 176.271H582.328M0 176.271L211.292 176.271M292 176.271L534.642 176.271" stroke="#97969C" stroke-dasharray="4 4"/>
<path d="M608 280.063H568.52M0 280.063H15.3224M80.6456 280.063L550.88 280.063" stroke="#97969C" stroke-dasharray="4 4"/>
<path d="M608 72.4775L368.442 72.4775M0 72.4775H25.1209M73.46 72.4775L342.478 72.4775" stroke="#97969C" stroke-dasharray="4 4"/>
<path d="M252.379 511.63L242.197 497.812L228.379 487.63L242.197 477.448L252.379 463.63L262.561 477.448L276.379 487.63L262.561 497.812L252.379 511.63Z" stroke="#97969C" stroke-dasharray="4 4"/>
<path d="M48.5195 96.3955L38.3372 82.5778L24.5195 72.3955L38.3372 62.2132L48.5195 48.3955L58.7019 62.2132L72.5195 72.3955L58.7019 82.5778L48.5195 96.3955Z" stroke="#97969C" stroke-dasharray="4 4"/>
<path d="M559.398 200.126L549.216 186.308L535.398 176.126L549.216 165.944L559.398 152.126L569.581 165.944L583.398 176.126L569.581 186.308L559.398 200.126Z" stroke="#97969C" stroke-dasharray="4 4"/>
<path d="M48.5312 311.979L34.9548 293.556L16.5312 279.979L34.9548 266.403L48.5312 247.979L62.1077 266.403L80.5312 279.979L62.1077 293.556L48.5312 311.979Z" stroke="#97969C" stroke-dasharray="4 4"/>
<path d="M457.246 423.886L440.276 400.856L417.246 383.886L440.276 366.915L457.246 343.886L474.217 366.915L497.246 383.886L474.217 400.856L457.246 423.886Z" stroke="#97969C" stroke-dasharray="4 4"/>
<path d="M252.379 216.276L235.408 193.247L212.379 176.276L235.408 159.306L252.379 136.276L269.349 159.306L292.379 176.276L269.349 193.247L252.379 216.276Z" stroke="#97969C" stroke-dasharray="4 4"/>
<circle cx="150.754" cy="383.856" r="12" transform="rotate(180 150.754 383.856)" stroke="#97969C" stroke-dasharray="4 4"/>
<circle cx="559.453" cy="280.063" r="8" transform="rotate(180 559.453 280.063)" stroke="#97969C" stroke-dasharray="4 4"/>
<circle cx="355.402" cy="72.4775" r="12" transform="rotate(180 355.402 72.4775)" stroke="#97969C" stroke-dasharray="4 4"/>
<rect x="-2" y="2" width="442" height="273" rx="6" transform="matrix(-1 0 0 1 502 74)" fill="#121212"/>
<rect x="-2" y="2" width="442" height="273" rx="6" transform="matrix(-1 0 0 1 502 74)" stroke="#121212" stroke-width="4"/>
<rect x="-2" y="2" width="441" height="262" rx="6" transform="matrix(-1 0 0 1 521 61)" fill="#F5F6F8"/>
<rect x="-2" y="2" width="441" height="262" rx="6" transform="matrix(-1 0 0 1 521 61)" stroke="#121212" stroke-width="4"/>
<rect x="91.7861" y="74" width="422" height="38" rx="4" fill="white"/>
<rect x="108.786" y="88" width="10" height="10" rx="5" fill="#EB5757"/>
<rect x="126.786" y="88" width="10" height="10" rx="5" fill="#F2C94C"/>
<rect x="144.786" y="88" width="10" height="10" rx="5" fill="#27AE60"/>
<path d="M488.224 87C488.224 86.4477 487.776 86 487.224 86C486.671 86 486.224 86.4477 486.224 87H488.224ZM486.224 99C486.224 99.5523 486.671 100 487.224 100C487.776 100 488.224 99.5523 488.224 99H486.224ZM486.224 87V99H488.224V87H486.224Z" fill="#E7EDF5"/>
<path d="M493.224 94C493.776 94 494.224 93.5523 494.224 93C494.224 92.4477 493.776 92 493.224 92L493.224 94ZM481.224 92C480.671 92 480.224 92.4477 480.224 93C480.224 93.5523 480.671 94 481.224 94L481.224 92ZM493.224 92L481.224 92L481.224 94L493.224 94L493.224 92Z" fill="#E7EDF5"/>
<rect x="-1" y="1" width="419" height="185" rx="7" transform="matrix(-1 0 0 1 511 125)" fill="#F5F6F8"/>
<path d="M148.084 166.18C151.594 166.18 153.376 164.308 153.376 161.302V153.94H150.676V161.266C150.676 162.994 150.064 163.57 148.084 163.57C146.086 163.57 145.474 162.994 145.474 161.266V153.94H142.792V161.302C142.792 164.308 144.574 166.18 148.084 166.18ZM159.528 166.18C162.03 166.18 163.416 165.1 163.416 163.408C163.416 161.932 162.624 161.068 160.716 160.708L159.06 160.366C157.98 160.15 157.818 160.024 157.818 159.592C157.818 159.16 158.07 158.926 159.15 158.926C160.302 158.926 160.554 159.25 160.554 159.844V160.096H163.128V159.844C163.128 157.81 161.436 156.766 159.222 156.766C156.648 156.766 155.28 157.954 155.28 159.628C155.28 161.302 156.252 162.058 158.034 162.382L159.402 162.634C160.608 162.85 160.86 162.958 160.86 163.444C160.86 163.894 160.68 164.056 159.582 164.056C158.268 164.056 157.872 163.912 157.872 163.246V162.868H155.298V162.922C155.298 165.118 156.684 166.18 159.528 166.18ZM169.39 166.18C171.982 166.18 173.638 165.046 173.638 163.12V162.94H170.974V163.048C170.974 163.606 170.506 163.84 169.426 163.84C167.95 163.84 167.446 163.336 167.392 162.076H173.602C173.656 161.77 173.728 161.248 173.728 160.744C173.728 158.386 172.126 156.766 169.408 156.766C166.582 156.766 164.854 158.602 164.854 161.5C164.854 164.362 166.276 166.18 169.39 166.18ZM169.318 158.98C170.578 158.98 171.19 159.502 171.136 160.438H167.41C167.518 159.484 168.022 158.98 169.318 158.98ZM178.243 166V160.33C178.243 159.34 178.639 159.052 179.467 159.052C180.313 159.052 180.619 159.358 180.619 160.33V160.816H183.301V159.988C183.301 158.17 182.599 156.766 180.709 156.766C179.431 156.766 178.621 157.486 178.171 158.404H178.063V156.946H175.561V166H178.243ZM194.472 166.18C198.036 166.18 199.962 164.308 199.962 161.32V161.158H197.082V161.248C197.082 162.976 196.362 163.57 194.454 163.57C192.42 163.57 191.574 162.832 191.574 159.97C191.574 157.108 192.42 156.37 194.454 156.37C196.362 156.37 197.082 156.964 197.082 158.692V158.782H199.962V158.62C199.962 155.632 198.036 153.76 194.472 153.76C190.854 153.76 188.694 156.208 188.694 159.97C188.694 163.732 190.854 166.18 194.472 166.18ZM204.631 166V153.94H201.949V166H204.631ZM209.369 155.92V153.94H206.687L206.723 155.92H209.369ZM209.423 166V156.946H206.723V166H209.423ZM215.627 166.18C218.129 166.18 219.947 164.704 219.947 162.472V162.256H217.247V162.4C217.247 163.426 216.671 163.768 215.555 163.768C214.259 163.768 213.701 163.156 213.701 161.482C213.701 159.79 214.259 159.178 215.555 159.178C216.671 159.178 217.247 159.52 217.247 160.546V160.69H219.947V160.474C219.947 158.242 218.183 156.766 215.771 156.766C212.747 156.766 211.037 158.602 211.037 161.5C211.037 164.362 212.639 166.18 215.627 166.18ZM224.409 166V162.706H225.795L227.775 166H230.871L227.937 161.266L230.889 156.946H227.793L225.741 160.294H224.409V153.94H221.727V166H224.409ZM235.878 166.18C238.38 166.18 239.766 165.1 239.766 163.408C239.766 161.932 238.974 161.068 237.066 160.708L235.41 160.366C234.33 160.15 234.168 160.024 234.168 159.592C234.168 159.16 234.42 158.926 235.5 158.926C236.652 158.926 236.904 159.25 236.904 159.844V160.096H239.478V159.844C239.478 157.81 237.786 156.766 235.572 156.766C232.998 156.766 231.63 157.954 231.63 159.628C231.63 161.302 232.602 162.058 234.384 162.382L235.752 162.634C236.958 162.85 237.21 162.958 237.21 163.444C237.21 163.894 237.03 164.056 235.932 164.056C234.618 164.056 234.222 163.912 234.222 163.246V162.868H231.648V162.922C231.648 165.118 233.034 166.18 235.878 166.18Z" fill="black"/>
<path d="M116.611 159.389L121.5 155.111L131.278 155.722L131.889 165.5L127.611 170.389C127.611 170.389 127.612 166.723 123.945 163.056C120.277 159.388 116.611 159.389 116.611 159.389Z" fill="#A0041E"/>
<path d="M116.595 170.389C116.595 170.389 116.573 165.513 118.419 163.667C120.265 161.821 125.167 161.948 125.167 161.948C125.167 161.948 125.166 166.722 123.333 168.556C121.5 170.389 116.595 170.389 116.595 170.389Z" fill="#FFAC33"/>
<path d="M121.499 167.945C122.849 167.945 123.944 166.85 123.944 165.5C123.944 164.15 122.849 163.056 121.499 163.056C120.149 163.056 119.055 164.15 119.055 165.5C119.055 166.85 120.149 167.945 121.499 167.945Z" fill="#FFCC4D"/>
<path d="M138 149C138 149 131.889 149 124.555 155.111C120.889 158.167 120.889 163.667 122.111 164.889C123.333 166.111 128.833 166.111 131.889 162.444C138 155.111 138 149 138 149Z" fill="#55ACEE"/>
<path d="M132.499 152.056C131.508 152.056 130.658 152.649 130.274 153.498C130.581 153.359 130.919 153.278 131.277 153.278C132.627 153.278 133.722 154.372 133.722 155.722C133.722 156.08 133.64 156.418 133.502 156.725C134.351 156.341 134.944 155.492 134.944 154.5C134.944 153.15 133.849 152.056 132.499 152.056Z" fill="black"/>
<path d="M120.889 166.111C120.889 166.111 120.889 163.667 121.5 163.056C122.111 162.445 129.445 156.334 130.055 156.945C130.666 157.555 124.555 164.889 123.944 165.5C123.333 166.111 120.889 166.111 120.889 166.111Z" fill="#A0041E"/>
<line x1="116" y1="186.021" x2="480.145" y2="186.021" stroke="#DFE7F2" stroke-width="2"/>
<rect x="118.214" y="214" width="362" height="64" rx="8" fill="white"/>
<rect x="269.214" y="239" width="92" height="14" rx="7" fill="#EEF1F7"/>
<rect x="395.214" y="239" width="61" height="14" rx="7" fill="#EEF1F7"/>
<g clip-path="url(#clip0_6587_41931)">
<rect x="189.645" y="230" width="32" height="32" rx="16" fill="#B3C2FE"/>
<path d="M200.376 239.406C200.376 240.776 200.376 242.047 200.376 242.862C199.636 242.862 199.031 242.084 199.031 241.134C199.031 240.184 199.636 239.406 200.376 239.406Z" fill="#BD6446"/>
<path d="M213.977 241.134C213.977 241.159 213.977 241.184 213.977 241.208C213.977 241.221 213.977 241.233 213.977 241.245C213.977 241.258 213.977 241.282 213.977 241.295C213.977 241.307 213.977 241.319 213.977 241.344C213.977 241.356 213.977 241.381 213.977 241.393C213.977 241.406 213.977 241.431 213.965 241.443C213.965 241.455 213.965 241.48 213.952 241.492C213.952 241.505 213.952 241.529 213.94 241.542C213.94 241.554 213.94 241.554 213.94 241.566C213.94 241.591 213.928 241.603 213.928 241.628C213.928 241.653 213.915 241.665 213.915 241.69C213.915 241.714 213.903 241.727 213.903 241.751C213.903 241.764 213.891 241.788 213.891 241.801C213.891 241.825 213.878 241.838 213.878 241.85C213.866 241.887 213.854 241.924 213.829 241.961C213.817 241.974 213.817 241.998 213.804 242.011C213.743 242.159 213.656 242.282 213.557 242.405C213.545 242.418 213.533 242.43 213.52 242.443C213.52 242.443 213.52 242.443 213.508 242.455C213.496 242.467 213.471 242.492 213.459 242.504C213.434 242.529 213.397 242.566 213.372 242.591C213.36 242.603 213.348 242.603 213.348 242.615C213.323 242.628 213.311 242.652 213.286 242.665L213.274 242.677C213.261 242.689 213.237 242.702 213.224 242.714C213.212 242.726 213.2 242.726 213.175 242.739C213.163 242.751 213.15 242.751 213.126 242.763C213.064 242.788 213.002 242.813 212.94 242.837C212.928 242.837 212.916 242.85 212.903 242.85C212.879 242.85 212.854 242.862 212.842 242.862C212.829 242.862 212.805 242.874 212.792 242.874C212.78 242.874 212.78 242.874 212.768 242.874C212.743 242.874 212.731 242.874 212.706 242.874C212.694 242.874 212.681 242.874 212.669 242.874C212.657 242.874 212.657 242.874 212.644 242.874H212.632C212.632 242.319 212.644 241.579 212.644 240.801C212.644 240.344 212.644 239.875 212.644 239.431C212.657 239.431 212.669 239.431 212.681 239.431C212.694 239.431 212.706 239.431 212.718 239.431C212.731 239.431 212.743 239.431 212.755 239.431C212.768 239.431 212.78 239.431 212.792 239.431C212.842 239.443 212.879 239.443 212.928 239.456C212.94 239.456 212.94 239.456 212.953 239.468C212.965 239.468 212.977 239.481 212.977 239.481C212.99 239.481 212.99 239.481 213.002 239.493C213.014 239.493 213.014 239.505 213.027 239.505C213.051 239.518 213.076 239.53 213.088 239.53C213.113 239.542 213.125 239.555 213.15 239.555C213.175 239.567 213.187 239.579 213.212 239.592C213.237 239.604 213.249 239.616 213.274 239.629C213.311 239.653 213.348 239.69 213.385 239.715C213.397 239.727 213.422 239.752 213.434 239.764C213.446 239.777 213.459 239.789 213.471 239.801C213.483 239.814 213.496 239.826 213.508 239.838C213.508 239.838 213.508 239.838 213.52 239.851C213.533 239.863 213.545 239.875 213.557 239.9C213.594 239.95 213.632 239.999 213.669 240.061C213.681 240.073 213.693 240.085 213.693 240.11C213.792 240.283 213.878 240.48 213.915 240.69C213.915 240.715 213.928 240.739 213.928 240.776C213.928 240.789 213.928 240.801 213.94 240.826C213.94 240.838 213.94 240.863 213.952 240.875C213.952 240.9 213.965 240.937 213.965 240.962C213.965 240.986 213.965 241.011 213.977 241.036C213.977 241.06 213.977 241.085 213.977 241.11C213.977 241.097 213.977 241.122 213.977 241.134Z" fill="#BD6446"/>
<path d="M211.348 252.501C211.324 255.154 209.176 257.289 206.523 257.289C203.869 257.289 201.722 255.154 201.697 252.501C202.166 252.501 202.598 252.303 202.907 251.995C203.104 251.797 203.252 251.55 203.339 251.279C203.388 251.118 203.413 250.958 203.413 250.773V247.07H209.633V250.773C209.633 251.735 210.398 252.501 211.348 252.501Z" fill="#C67250"/>
<path d="M209.633 247.095V249.267C208.51 250.612 206.782 251.476 204.844 251.476C204.326 251.476 203.807 251.414 203.326 251.291C203.376 251.131 203.4 250.97 203.4 250.785V247.083H209.633V247.095Z" fill="#A15235"/>
<path d="M211.62 236.111C212.176 237.296 212.669 237.666 212.669 239.073C212.669 239.209 212.669 239.32 212.669 239.406C212.669 239.85 212.669 240.319 212.669 240.776C212.669 241.554 212.657 242.306 212.657 242.849C212.657 243.405 212.645 243.763 212.645 243.763C212.645 245.922 211.435 247.823 209.633 248.847C209.337 249.02 209.028 249.156 208.708 249.279C208.708 249.279 208.708 249.279 208.695 249.279C208.103 249.502 207.473 249.625 206.807 249.662C206.708 249.662 206.609 249.674 206.511 249.674C205.672 249.674 204.869 249.514 204.153 249.218C203.894 249.119 203.647 248.996 203.413 248.86C201.599 247.835 200.377 245.935 200.377 243.763C200.377 243.763 200.377 243.417 200.377 242.849C200.377 242.035 200.377 240.764 200.377 239.394V239.073C200.377 237.456 200.957 236.888 201.562 235.778C202.549 233.963 204.45 232.84 206.511 232.84L208.103 233.075C208.165 233.1 208.226 233.112 208.288 233.137C208.732 233.285 209.152 233.482 209.534 233.729C209.559 233.741 209.596 233.766 209.621 233.778C209.67 233.815 209.732 233.852 209.781 233.889C209.831 233.926 209.892 233.963 209.942 234.013C210.152 234.173 210.349 234.346 210.534 234.543C210.559 234.568 210.584 234.593 210.608 234.618C210.658 234.667 210.695 234.716 210.744 234.766C210.88 234.914 211.003 235.074 211.114 235.235C211.176 235.321 211.225 235.395 211.287 235.481C211.398 235.679 211.521 235.889 211.62 236.111Z" fill="#C67250"/>
<path d="M212.656 239.073C212.656 239.209 212.656 239.32 212.656 239.406C212.656 239.542 212.656 239.678 212.656 239.814C212.483 239.345 212.113 238.32 211.817 237.826C211.607 237.456 211.583 236.864 211.471 236.345C211.36 235.815 210.891 235.432 210.361 235.432H202.647C202.104 235.432 201.635 235.815 201.536 236.345C201.425 236.864 201.413 237.456 201.191 237.826C200.919 238.295 200.561 239.233 200.389 239.727C200.389 239.505 200.389 239.283 200.389 239.061C200.389 237.444 200.969 236.876 201.573 235.765C202.561 233.951 204.461 232.828 206.522 232.828C207.621 232.828 208.67 233.149 209.559 233.717C210.447 234.284 211.175 235.099 211.644 236.099C212.175 237.296 212.656 237.666 212.656 239.073Z" fill="#77403A"/>
<path d="M200.377 240.813C200.377 240.813 199.797 240.122 199.414 240.715" stroke="#FDBFD9" stroke-width="0.123417" stroke-miterlimit="10" stroke-linecap="round" stroke-linejoin="round"/>
<path d="M212.645 240.813C212.645 240.813 213.064 240.085 213.644 240.64" stroke="#FDBFD9" stroke-width="0.123417" stroke-miterlimit="10" stroke-linecap="round" stroke-linejoin="round"/>
<path d="M204.141 249.23C204.424 249.366 204.622 249.539 204.856 249.662C205.116 249.81 205.338 250.057 205.609 250.119C205.893 250.181 206.202 250.02 206.473 250.008C206.769 249.983 207.09 250.094 207.349 250.02C207.646 249.934 207.868 249.675 208.102 249.564C208.374 249.44 208.744 249.28 208.917 249.193C208.905 249.193 206.436 250.292 204.141 249.23Z" fill="#121212"/>
<path d="M188.911 266.188L191.799 256.228C192.083 255.24 192.885 254.475 193.885 254.228L200.364 252.624C200.525 255.895 203.215 258.486 206.523 258.486C209.83 258.486 212.533 255.882 212.681 252.624L219.173 254.228C220.173 254.475 220.975 255.24 221.259 256.24L224.122 266.188H188.911Z" fill="#121212"/>
<path d="M212.681 252.624C212.521 255.894 209.83 258.486 206.523 258.486C203.215 258.486 200.525 255.882 200.364 252.624L201.697 252.5C201.722 255.154 203.869 257.289 206.523 257.289C209.176 257.289 211.324 255.154 211.348 252.5L212.681 252.624Z" fill="#333333"/>
<path d="M201.216 254.216C201.216 254.216 201.549 254.315 201.981 254.118" stroke="#333333" stroke-width="0.123417" stroke-miterlimit="10" stroke-linecap="round" stroke-linejoin="round"/>
<path d="M208.448 256.907C208.448 256.907 208.769 257.326 208.67 257.573" stroke="#333333" stroke-width="0.123417" stroke-miterlimit="10" stroke-linecap="round" stroke-linejoin="round"/>
<path d="M210.607 255.092C210.607 255.092 210.657 255.327 211.138 255.426" stroke="#333333" stroke-width="0.123417" stroke-miterlimit="10" stroke-linecap="round" stroke-linejoin="round"/>
<path d="M212.509 253.76C212.509 253.76 212.126 253.562 211.793 253.661" stroke="#333333" stroke-width="0.123417" stroke-miterlimit="10" stroke-linecap="round" stroke-linejoin="round"/>
<path d="M203.276 257.585C203.276 257.585 203.758 257.351 203.906 256.919" stroke="#333333" stroke-width="0.123417" stroke-miterlimit="10" stroke-linecap="round" stroke-linejoin="round"/>
<path d="M205.018 238.234C205.03 238.332 204.524 238.481 203.882 238.555C203.401 238.616 202.846 238.592 202.438 238.888C202.661 238.295 203.29 238.246 203.845 238.184C204.475 238.11 205.006 238.123 205.018 238.234Z" fill="#121212"/>
<path d="M203.031 239.542C203.031 239.542 203.821 238.95 204.611 239.542" stroke="#121212" stroke-width="0.123417" stroke-linecap="round" stroke-linejoin="round"/>
<path d="M208.017 238.234C208.004 238.332 208.51 238.481 209.152 238.555C209.634 238.616 210.189 238.592 210.596 238.888C210.374 238.295 209.745 238.246 209.189 238.184C208.56 238.11 208.029 238.123 208.017 238.234Z" fill="#121212"/>
<path d="M210.004 239.542C210.004 239.542 209.214 238.95 208.424 239.542" stroke="#121212" stroke-width="0.123417" stroke-linecap="round" stroke-linejoin="round"/>
<path d="M212.657 239.406C212.657 239.85 212.657 240.319 212.657 240.776C212.657 241.554 212.644 242.306 212.644 242.849C212.644 243.405 212.632 243.763 212.632 243.763C212.632 247.021 209.892 249.674 206.498 249.674C203.116 249.674 200.364 247.033 200.364 243.763C200.364 243.763 200.364 241.517 200.364 239.073C200.364 237.456 200.944 236.888 201.549 235.778C202.536 233.963 204.437 232.84 206.498 232.84C208.695 232.84 210.682 234.112 211.608 236.099C212.163 237.283 212.657 237.654 212.657 239.061C212.657 239.209 212.657 239.332 212.657 239.406Z" stroke="#121212" stroke-width="0.123417" stroke-linecap="round" stroke-linejoin="round"/>
<path d="M200.376 242.862C199.636 242.862 199.031 242.084 199.031 241.134C199.031 240.184 199.636 239.406 200.376 239.406" stroke="#121212" stroke-width="0.123417" stroke-linecap="round" stroke-linejoin="round"/>
<path d="M200.377 240.813C200.377 240.813 199.797 240.122 199.414 240.715" stroke="#121212" stroke-width="0.123417" stroke-linecap="round" stroke-linejoin="round"/>
<path d="M212.645 242.862C213.385 242.862 213.99 242.084 213.99 241.134C213.99 240.184 213.385 239.406 212.645 239.406" stroke="#121212" stroke-width="0.123417" stroke-linecap="round" stroke-linejoin="round"/>
<path d="M212.645 240.813C212.645 240.813 213.064 240.085 213.644 240.64" stroke="#121212" stroke-width="0.123417" stroke-linecap="round" stroke-linejoin="round"/>
<path d="M206.51 238.962L206.843 241.122C206.942 241.418 206.868 241.751 206.658 241.986L206.152 242.516" stroke="#121212" stroke-width="0.123417" stroke-linecap="round" stroke-linejoin="round"/>
<path d="M204.968 244.331C204.968 244.331 207.029 245.565 208.053 243.257" stroke="#121212" stroke-width="0.123417" stroke-linecap="round" stroke-linejoin="round"/>
<path d="M204.141 249.23C204.424 249.366 204.622 249.538 204.856 249.662C205.116 249.81 205.338 250.057 205.609 250.118C205.893 250.18 206.202 250.02 206.473 250.007C206.769 249.983 207.09 250.094 207.349 250.02C207.646 249.933 207.868 249.674 208.102 249.563C208.374 249.44 208.744 249.279 208.917 249.193C208.905 249.193 206.436 250.291 204.141 249.23Z" stroke="#121212" stroke-width="0.123417" stroke-linecap="round" stroke-linejoin="round"/>
<path d="M209.633 248.86V250.798C209.633 251.748 210.398 252.513 211.348 252.513C211.324 255.166 209.176 257.302 206.523 257.302C203.869 257.302 201.722 255.166 201.697 252.513C202.648 252.513 203.413 251.748 203.413 250.798V248.872" stroke="#121212" stroke-width="0.123417" stroke-linecap="round" stroke-linejoin="round"/>
<path d="M188.911 266.188L191.799 256.228C192.083 255.24 192.885 254.475 193.885 254.228L200.364 252.624C200.525 255.895 203.215 258.486 206.523 258.486C209.83 258.486 212.533 255.882 212.681 252.624L219.173 254.228C220.173 254.475 220.975 255.24 221.259 256.24L224.122 266.188H188.911Z" stroke="#121212" stroke-width="0.123417" stroke-linecap="round" stroke-linejoin="round"/>
<path d="M212.681 252.624C212.521 255.894 209.83 258.486 206.523 258.486C203.215 258.486 200.525 255.882 200.364 252.624L201.697 252.5C201.722 255.154 203.869 257.289 206.523 257.289C209.176 257.289 211.324 255.154 211.348 252.5L212.681 252.624Z" stroke="#121212" stroke-width="0.123417" stroke-linecap="round" stroke-linejoin="round"/>
<path d="M201.216 254.216C201.216 254.216 201.549 254.315 201.981 254.117" stroke="#121212" stroke-width="0.123417" stroke-linecap="round" stroke-linejoin="round"/>
<path d="M208.448 256.907C208.448 256.907 208.769 257.326 208.67 257.573" stroke="#121212" stroke-width="0.123417" stroke-linecap="round" stroke-linejoin="round"/>
<path d="M210.607 255.092C210.607 255.092 210.657 255.327 211.138 255.426" stroke="#121212" stroke-width="0.123417" stroke-linecap="round" stroke-linejoin="round"/>
<path d="M212.509 253.759C212.509 253.759 212.126 253.562 211.793 253.66" stroke="#121212" stroke-width="0.123417" stroke-linecap="round" stroke-linejoin="round"/>
<path d="M203.276 257.585C203.276 257.585 203.758 257.351 203.906 256.919" stroke="#121212" stroke-width="0.123417" stroke-linecap="round" stroke-linejoin="round"/>
<path d="M205.018 238.234C205.03 238.332 204.524 238.481 203.882 238.555C203.401 238.616 202.846 238.592 202.438 238.888C202.661 238.295 203.29 238.246 203.845 238.184C204.475 238.11 205.006 238.123 205.018 238.234Z" stroke="#121212" stroke-width="0.123417" stroke-linecap="round" stroke-linejoin="round"/>
<path d="M203.031 239.542C203.031 239.542 203.821 238.95 204.611 239.542" stroke="#121212" stroke-width="0.123417" stroke-linecap="round" stroke-linejoin="round"/>
<path d="M208.016 238.234C208.004 238.332 208.51 238.481 209.151 238.555C209.633 238.616 210.188 238.592 210.595 238.888C210.373 238.295 209.744 238.246 209.188 238.184C208.559 238.11 208.028 238.123 208.016 238.234Z" stroke="#121212" stroke-width="0.123417" stroke-linecap="round" stroke-linejoin="round"/>
<path d="M210.003 239.542C210.003 239.542 209.213 238.95 208.423 239.542" stroke="#121212" stroke-width="0.123417" stroke-linecap="round" stroke-linejoin="round"/>
<path opacity="0.13" d="M203.055 242.862C203.43 242.862 203.734 242.558 203.734 242.183C203.734 241.808 203.43 241.504 203.055 241.504C202.68 241.504 202.376 241.808 202.376 242.183C202.376 242.558 202.68 242.862 203.055 242.862Z" fill="white"/>
</g>
<g clip-path="url(#clip1_6587_41931)">
<rect x="165.645" y="230" width="32" height="32" rx="16" fill="#FDF4DB"/>
<path d="M191.323 256.788C191.178 256.715 191.033 256.642 190.887 256.57C190.294 256.279 189.737 256.049 189.204 255.855C188.441 255.589 187.75 255.395 187.145 255.274C185.679 254.983 184.625 253.687 184.625 252.185V249.193C185.291 248.503 185.643 247.813 185.643 247.813C185.643 247.813 187.581 244.712 187.532 240.642C187.532 240.642 187.508 240.594 187.459 240.509C185.752 239.867 183.814 238.28 182.845 237.432C182.457 237.093 182.227 236.863 182.227 236.863C182.033 237.057 181.815 237.239 181.585 237.42C179.744 238.898 177.079 240.061 175.953 240.521C175.916 240.569 175.892 240.606 175.856 240.642C175.856 240.642 175.638 246.141 178.957 249.193V252.185C178.957 253.687 177.903 254.983 176.437 255.274C175.832 255.395 175.141 255.577 174.378 255.855C173.7 256.097 172.973 256.412 172.21 256.812C172.053 256.897 171.895 256.982 171.726 257.079C171.75 256.691 171.98 253.639 173.773 248.6C174.851 245.596 174.015 241.248 175.347 237.408C177.394 231.522 186.139 230.407 188.319 237.214C190.039 242.507 191.251 255.904 191.323 256.788Z" fill="#121212" stroke="#001432" stroke-width="0.121123" stroke-linecap="round" stroke-linejoin="round"/>
<path d="M189.202 255.855C181.729 261.294 174.462 255.916 174.377 255.855C175.14 255.577 175.83 255.395 176.436 255.274C177.902 254.983 178.955 253.687 178.955 252.185V249.194C175.625 246.141 175.855 240.642 175.855 240.642C175.891 240.606 175.927 240.558 175.952 240.521C177.078 240.061 179.743 238.886 181.584 237.42C181.814 237.239 182.02 237.057 182.226 236.863C182.226 236.863 182.456 237.093 182.843 237.433C183.812 238.293 185.75 239.879 187.458 240.509C187.495 240.594 187.531 240.642 187.531 240.642C187.579 244.712 185.641 247.813 185.641 247.813C185.641 247.813 185.278 248.503 184.624 249.194V252.197C184.624 253.699 185.678 254.995 187.143 255.286C187.749 255.395 188.439 255.589 189.202 255.855Z" fill="#C77250"/>
<path d="M179.15 249.92C179.634 250.744 181.136 252.561 184.612 252.197V249.193C184.612 249.193 183.51 250.514 181.875 250.538C181.875 250.538 180.337 250.526 178.956 249.193C178.956 249.448 179.029 249.702 179.15 249.92Z" fill="#A35235"/>
<path d="M189.202 255.855C181.729 261.294 174.462 255.916 174.377 255.855C175.14 255.577 175.83 255.395 176.436 255.274C177.902 254.983 178.955 253.687 178.955 252.185V249.194C175.625 246.141 175.855 240.642 175.855 240.642C175.891 240.606 175.927 240.558 175.952 240.521C177.078 240.061 179.743 238.886 181.584 237.42C181.814 237.239 182.02 237.057 182.226 236.863C182.226 236.863 182.456 237.093 182.843 237.433C183.812 238.293 185.75 239.879 187.458 240.509C187.495 240.594 187.531 240.642 187.531 240.642C187.579 244.712 185.641 247.813 185.641 247.813C185.641 247.813 185.278 248.503 184.624 249.194V252.197C184.624 253.699 185.678 254.995 187.143 255.286C187.749 255.395 188.439 255.589 189.202 255.855Z" stroke="#001432" stroke-width="0.121123" stroke-linecap="round" stroke-linejoin="round"/>
<path d="M185.643 247.813C185.643 247.813 185.279 248.503 184.625 249.193C183.559 250.296 181.73 251.386 179.393 249.557C179.247 249.436 179.102 249.315 178.957 249.193C177.443 247.801 176.667 245.911 176.268 244.252C176.062 244.276 175.868 244.276 175.686 244.264C175.589 244.252 175.492 244.252 175.396 244.227C174.972 244.155 174.657 243.985 174.427 243.767C174.354 243.695 174.281 243.61 174.233 243.525C173.966 243.113 173.942 242.617 174.087 242.253C174.511 241.163 175.832 241.744 175.892 241.769C175.844 241.066 175.856 240.63 175.856 240.63C175.892 240.594 175.928 240.545 175.953 240.509C177.079 240.049 179.744 238.874 181.585 237.408C181.815 237.227 182.021 237.045 182.227 236.851C182.227 236.851 182.457 237.081 182.845 237.42C183.814 238.28 185.752 239.867 187.459 240.497C187.496 240.582 187.532 240.63 187.532 240.63C187.58 244.712 185.643 247.813 185.643 247.813Z" fill="#C77250" stroke="#001432" stroke-width="0.121123" stroke-linecap="round" stroke-linejoin="round"/>
<path d="M176.449 241.696L175.892 241.78L175.855 241.405L176.364 241.248V241.635L176.449 241.684C176.437 241.696 176.449 241.696 176.449 241.696Z" fill="#A82200" stroke="#121212" stroke-width="0.121123" stroke-miterlimit="10"/>
<path d="M187.543 241.405L187.507 241.78L186.938 241.696L186.95 241.684L187.034 241.635V241.248L187.543 241.405Z" fill="#A82200" stroke="#121212" stroke-width="0.121123" stroke-miterlimit="10"/>
<path d="M187.035 241.26C187.035 241.175 186.974 241.102 186.902 241.078L186.502 240.957C186.502 240.957 186.114 240.327 185.484 240.182C184.867 240.036 183.377 239.903 182.456 240.521C182.166 240.388 181.911 240.351 181.693 240.363C181.475 240.351 181.221 240.388 180.93 240.521C179.998 239.903 178.52 240.036 177.902 240.182C177.272 240.327 176.885 240.957 176.885 240.957L176.497 241.066C176.412 241.09 176.352 241.163 176.364 241.247V241.635L176.449 241.684L176.461 241.696C176.667 241.817 176.824 241.998 176.909 242.229C177.127 242.822 177.696 243.973 178.883 243.973C180.421 243.973 181.124 242.253 181.33 241.599C181.366 241.49 181.342 241.357 181.269 241.272C181.269 241.26 181.257 241.26 181.257 241.247C181.16 241.114 181.221 240.933 181.354 240.848C181.39 240.824 181.439 240.811 181.487 240.811H181.935C181.984 240.811 182.032 240.824 182.069 240.848C182.202 240.92 182.263 241.102 182.166 241.247C182.166 241.26 182.154 241.26 182.154 241.272C182.081 241.357 182.057 241.49 182.093 241.599C182.299 242.253 183.001 243.973 184.54 243.973C185.727 243.973 186.296 242.822 186.514 242.229C186.599 242.011 186.756 241.817 186.962 241.696L186.974 241.684L187.059 241.635L187.035 241.26ZM180.954 241.732C180.809 242.459 179.695 244.106 178.387 243.573C177.466 243.198 177.296 242.168 177.26 241.575C177.236 241.054 177.563 240.557 178.06 240.4C178.532 240.242 179.15 240.254 179.731 240.327C180.809 240.472 181.1 241.005 180.954 241.732ZM186.114 241.575C186.09 242.168 185.908 243.21 185 243.573C183.692 244.106 182.577 242.459 182.432 241.732C182.287 241.005 182.577 240.472 183.643 240.327C184.225 240.242 184.842 240.242 185.315 240.4C185.824 240.569 186.138 241.054 186.114 241.575Z" fill="#FF3000" stroke="#121212" stroke-width="0.121123" stroke-miterlimit="10"/>
<path d="M178.047 239.576C178.592 239.383 179.9 239.891 180.699 239.601C180.699 239.601 179.743 239.189 178.761 239.201L178.047 239.576Z" fill="#380E03"/>
<path d="M174.571 242.846C174.571 242.846 174.959 242.459 175.589 242.943" stroke="#001432" stroke-width="0.121123" stroke-linecap="round" stroke-linejoin="round"/>
<path d="M175.685 244.251V244.263C175.673 244.845 175.31 245.317 174.849 245.317C174.389 245.317 174.014 244.845 174.014 244.251C174.014 243.973 174.098 243.731 174.232 243.537C174.28 243.622 174.353 243.694 174.425 243.779C174.353 243.912 174.304 244.082 174.304 244.251C174.304 244.675 174.559 245.027 174.849 245.027C175.14 245.027 175.394 244.675 175.394 244.251V244.239C175.394 244.106 175.37 243.973 175.322 243.864C175.273 243.743 175.189 243.646 175.092 243.561C175.019 243.5 174.983 243.404 175.055 243.331C175.128 243.27 175.213 243.295 175.285 243.343C175.37 243.404 175.443 243.488 175.491 243.573C175.564 243.67 175.612 243.791 175.637 243.912C175.673 244.021 175.685 244.142 175.685 244.251Z" fill="#F9C833" stroke="#121212" stroke-width="0.121123" stroke-miterlimit="10"/>
<path d="M171.726 257.079C171.726 257.103 171.726 257.127 171.726 257.127" stroke="#D20023" stroke-width="0.121123" stroke-miterlimit="10"/>
<path d="M191.334 256.836C191.334 256.836 191.334 256.824 191.334 256.788" stroke="#D20023" stroke-width="0.121123" stroke-miterlimit="10"/>
<path d="M188.21 240.727C187.968 240.678 187.725 240.606 187.459 240.509" stroke="#C77250" stroke-width="0.121123" stroke-linecap="round" stroke-linejoin="round"/>
<path d="M196.846 264.031C196.846 264.031 182.444 273.769 166.735 264.031C166.662 263.244 166.795 262.481 167.001 261.839C167.353 260.749 168.019 259.78 168.903 259.041C169.86 258.241 171.313 257.333 172.222 256.812C172.343 256.861 178.254 259.162 181.706 259.586C181.706 259.586 188.549 258.75 190.899 256.57C191.941 257.127 193.515 258.072 194.629 258.992C195.744 259.901 196.507 261.172 196.785 262.578C196.858 263.038 196.894 263.522 196.846 264.031Z" fill="#F9C833" stroke="#121212" stroke-width="0.121123" stroke-miterlimit="10"/>
<path d="M172.258 256.788C172.258 256.788 172.246 256.788 172.258 256.788C172.246 256.8 172.234 256.8 172.222 256.812" stroke="#D20023" stroke-width="0.121123" stroke-miterlimit="10"/>
<path d="M190.887 256.57C190.863 256.558 190.838 256.545 190.814 256.533C190.814 256.533 190.814 256.533 190.802 256.533" stroke="#D20023" stroke-width="0.121123" stroke-miterlimit="10"/>
<path d="M181.693 242.822L181.027 245.184C181.003 245.269 181.027 245.366 181.076 245.426L181.524 245.947" stroke="#001432" stroke-width="0.121123" stroke-linecap="round" stroke-linejoin="round"/>
<path d="M180.701 246.892C180.701 246.892 182.639 247.57 183.233 245.705" stroke="#001432" stroke-width="0.121123" stroke-linecap="round" stroke-linejoin="round"/>
<path d="M179.017 242.265C179.264 242.265 179.465 242.048 179.465 241.781C179.465 241.513 179.264 241.296 179.017 241.296C178.769 241.296 178.568 241.513 178.568 241.781C178.568 242.048 178.769 242.265 179.017 242.265Z" fill="#121212"/>
<path d="M184.347 242.265C184.594 242.265 184.795 242.048 184.795 241.781C184.795 241.513 184.594 241.296 184.347 241.296C184.099 241.296 183.898 241.513 183.898 241.781C183.898 242.048 184.099 242.265 184.347 242.265Z" fill="#121212"/>
<path d="M190.886 256.57C188.524 258.75 181.693 259.586 181.693 259.586C178.241 259.162 172.33 256.86 172.209 256.812C172.221 256.8 172.233 256.8 172.245 256.788C172.996 256.4 173.711 256.085 174.377 255.855C174.45 255.916 181.729 261.293 189.202 255.855C189.711 256.037 190.244 256.255 190.801 256.521C190.801 256.521 190.801 256.521 190.813 256.521C190.838 256.545 190.862 256.557 190.886 256.57Z" fill="#F9C833" stroke="#121212" stroke-width="0.121123" stroke-miterlimit="10"/>
<path d="M182.251 261.73H181.33L181.536 260.276H182.045L182.251 261.73Z" fill="#FF404C"/>
<path d="M182.493 239.6C182.493 239.6 183.717 239.225 184.395 239.201C185.073 239.176 185.848 239.625 186.115 240C186.115 240 185.933 239.746 184.988 239.6C184.104 239.455 183.135 239.879 182.493 239.6Z" fill="#380E03"/>
<path opacity="0.13" d="M180.954 241.732C180.809 242.459 179.695 244.106 178.386 243.573C177.466 243.198 177.296 242.168 177.26 241.575C177.236 241.054 177.563 240.558 178.059 240.4C178.532 240.243 179.15 240.255 179.731 240.327C180.809 240.473 181.1 241.006 180.954 241.732Z" fill="white"/>
<path opacity="0.13" d="M186.114 241.575C186.09 242.168 185.909 243.21 185 243.573C183.692 244.106 182.578 242.459 182.432 241.732C182.287 241.005 182.578 240.472 183.644 240.327C184.225 240.242 184.843 240.242 185.315 240.4C185.824 240.569 186.139 241.054 186.114 241.575Z" fill="white"/>
<path d="M175.431 240.727C175.431 240.727 181.22 238.583 182.977 235.991" stroke="#C77250" stroke-width="0.121123" stroke-linecap="round" stroke-linejoin="round"/>
</g>
<g clip-path="url(#clip2_6587_41931)">
<rect x="141.645" y="230" width="32" height="32" rx="16" fill="#DDCBFF"/>
<path d="M165.351 236.994C164.472 237.211 161.04 237.934 158.414 236.802C158.246 237.091 156.367 240.114 154.633 240.114C154.633 240.114 154.247 239.042 152.79 238.813C154.271 232.165 158.077 231.948 160.968 232.9C162.967 233.55 164.556 235.067 165.351 236.994Z" fill="#7C1700" stroke="#121212" stroke-width="0.120434" stroke-miterlimit="10"/>
<path d="M165.351 236.994C165.46 237.271 165.556 237.56 165.64 237.849C166.315 240.342 166.808 243.859 165.327 246.34C165.026 246.834 164.653 247.255 164.207 247.58C163.737 247.93 163.207 248.195 162.641 248.339C162.051 248.496 161.413 248.532 160.775 248.436L160.931 250.061C161.064 251.278 161.57 252.386 162.352 253.253C162.882 253.843 163.533 254.325 164.279 254.65C164.279 254.867 164.267 255.336 164.171 255.914C163.822 257.866 162.401 261.129 156.861 261.057C149.767 260.973 147.25 254.493 146.816 253.217C146.828 253.217 146.84 253.217 146.853 253.217C147.599 253.144 148.322 252.94 148.972 252.615C150.514 251.856 151.706 250.447 152.152 248.713L152.248 248.327L153.777 242.354C153.428 242.39 152.983 242.402 152.561 242.305C152.32 242.245 152.079 242.161 151.863 242.016C151.465 241.751 151.152 241.306 151.08 240.583C150.923 239.078 151.923 238.789 152.754 238.813C154.211 239.042 154.608 240.101 154.608 240.101C156.343 240.101 158.222 237.067 158.39 236.79C161.028 237.934 164.472 237.211 165.351 236.994Z" fill="#C77250" stroke="#121212" stroke-width="0.120434" stroke-linecap="round" stroke-linejoin="round"/>
<path d="M175.179 265.754C173.204 266.826 171.265 267.729 169.386 268.464C165.4 262.635 166.544 256.938 166.929 255.505C170.868 256.974 173.854 260.298 174.854 264.429L175.179 265.754Z" fill="#C77250" stroke="#001432" stroke-width="0.120434" stroke-linecap="round" stroke-linejoin="round"/>
<path d="M142.842 269.572C137.892 267.922 135.074 265.754 135.074 265.754L136.568 261.346C137.326 259.094 138.723 257.179 140.506 255.77C141.542 254.951 142.722 254.301 143.974 253.855C144.432 255.3 146.455 262.851 142.842 269.572Z" fill="#C77250" stroke="#001432" stroke-width="0.120434" stroke-linecap="round" stroke-linejoin="round"/>
<path d="M154.477 242.245C154.477 242.245 154.2 242.329 153.79 242.366" stroke="#121212" stroke-width="0.120434" stroke-linecap="round" stroke-linejoin="round"/>
<path d="M169.385 268.464C158.173 272.872 148.912 271.595 142.842 269.572C146.455 262.852 144.419 255.3 143.986 253.855C144.889 253.542 145.841 253.325 146.828 253.229C147.262 254.518 149.779 260.985 156.872 261.069C164.062 261.154 164.303 255.614 164.291 254.65C164.532 254.759 164.785 254.855 165.05 254.927L165.917 255.168C166.266 255.264 166.603 255.373 166.929 255.493C166.543 256.938 165.399 262.635 169.385 268.464Z" fill="#121212" stroke="#001432" stroke-width="0.120434" stroke-linecap="round" stroke-linejoin="round"/>
<path d="M150.971 254.577C150.815 254.541 150.694 254.457 150.574 254.373C149.899 253.867 149.321 253.289 148.924 252.675C148.514 252.06 148.273 251.422 148.213 250.784C148.129 249.832 148.442 248.857 148.695 248.074C149.285 246.267 150.465 243.1 151.778 242.04L151.814 242.016L151.923 242.076C152.031 242.149 152.272 242.293 152.549 242.329L152.621 242.438C152.513 242.859 151.573 246.665 152.296 248.327C152.501 248.809 152.814 249.206 153.223 249.495C153.753 249.868 154.271 250.254 154.789 250.639C155.451 251.121 155.849 251.615 156.005 252.145C156.198 252.759 156.017 253.578 155.391 253.903C155.162 254.023 154.921 254.072 154.644 254.072C154.331 254.072 154.006 253.999 153.693 253.927C153.524 253.891 153.356 253.843 153.175 253.819C153.067 253.807 152.958 253.795 152.85 253.795C152.525 253.795 152.212 253.879 151.947 254.035C151.85 254.096 151.766 254.168 151.682 254.252C151.513 254.409 151.332 254.577 151.068 254.577H150.971Z" fill="#7C1700"/>
<path d="M151.839 242.076C151.875 242.076 152.176 242.317 152.561 242.378C152.585 242.378 152.585 242.402 152.585 242.414C152.489 242.811 151.537 246.653 152.26 248.351C152.465 248.821 152.766 249.23 153.211 249.543C153.741 249.917 154.259 250.302 154.777 250.688C155.295 251.073 155.789 251.555 155.981 252.169C156.174 252.783 155.969 253.566 155.403 253.855C155.163 253.975 154.922 254.024 154.681 254.024C154.199 254.024 153.705 253.855 153.224 253.771C153.115 253.759 153.007 253.747 152.886 253.747C152.561 253.747 152.236 253.819 151.947 253.987C151.658 254.156 151.465 254.517 151.104 254.517C151.068 254.517 151.032 254.517 150.983 254.505C150.851 254.481 150.731 254.397 150.61 254.313C149.996 253.855 149.406 253.289 148.972 252.627C148.599 252.06 148.334 251.434 148.274 250.76C148.189 249.844 148.466 248.941 148.755 248.074C149.454 245.991 150.598 243.076 151.839 242.076C151.826 242.076 151.826 242.076 151.839 242.076ZM151.839 241.956H151.79L151.754 241.992C150.429 243.064 149.237 246.256 148.647 248.062C148.394 248.845 148.069 249.832 148.153 250.796C148.213 251.446 148.454 252.085 148.864 252.711C149.273 253.325 149.851 253.915 150.538 254.421C150.658 254.517 150.791 254.602 150.959 254.638C151.008 254.65 151.056 254.65 151.104 254.65C151.381 254.65 151.586 254.469 151.754 254.313C151.839 254.228 151.923 254.156 152.007 254.108C152.26 253.963 152.561 253.879 152.874 253.879C152.983 253.879 153.079 253.891 153.187 253.903C153.356 253.927 153.525 253.963 153.693 254.012C154.006 254.084 154.332 254.156 154.657 254.156C154.946 254.156 155.199 254.096 155.427 253.975C156.078 253.638 156.271 252.783 156.066 252.145C155.897 251.603 155.488 251.097 154.825 250.603C154.307 250.218 153.778 249.844 153.26 249.459C152.862 249.17 152.549 248.785 152.356 248.315C151.646 246.665 152.573 242.883 152.682 242.462L152.694 242.414L152.657 242.341C152.633 242.305 152.597 242.281 152.549 242.269C152.272 242.221 152.043 242.089 151.935 242.016C151.899 241.98 151.875 241.956 151.839 241.956Z" fill="#121212"/>
<path d="M161.353 251.507C161.353 251.579 161.425 251.928 161.425 252.001C161.257 251.555 160.992 250.555 160.944 250.074L160.787 248.448C160.98 248.472 161.172 248.496 161.353 248.496C161.606 249.375 161.365 250.567 161.353 251.507Z" fill="#4A1305" stroke="#121212" stroke-width="0.120434" stroke-miterlimit="10"/>
<path d="M166.893 255.758C166.748 256.107 166.447 256.42 166.062 256.457C165.737 256.493 165.424 256.336 165.135 256.204C164.834 256.059 164.496 255.951 164.171 255.939C164.075 255.939 163.991 255.939 163.894 255.963C163.412 256.047 162.991 256.432 162.497 256.396C161.991 256.36 161.594 255.866 161.546 255.361C161.486 254.855 161.69 254.349 161.955 253.915C162.015 253.807 162.088 253.699 162.16 253.59C162.232 253.482 162.292 253.386 162.365 253.277C162.509 253.06 162.642 252.844 162.75 252.603C162.834 252.41 162.907 252.217 162.967 252.025C162.967 252.013 162.979 252.001 162.979 251.988C163.28 250.844 163.015 249.58 162.666 248.412C162.654 248.388 162.654 248.363 162.642 248.339C163.208 248.243 164.87 247.653 165.665 245.678C166.965 247.894 166.905 252.073 167.025 254.638C167.05 255.011 167.038 255.409 166.893 255.758Z" fill="#7C1700" stroke="#121212" stroke-width="0.120434" stroke-miterlimit="10"/>
<path d="M162.641 248.339C162.653 248.363 162.653 248.388 162.665 248.412C162.641 248.363 162.641 248.339 162.641 248.339Z" fill="#7C1700" stroke="#121212" stroke-width="0.120434" stroke-miterlimit="10"/>
<path d="M167.025 255.168C167.025 255.168 166.989 255.288 166.929 255.505" stroke="#001432" stroke-width="0.120434" stroke-linecap="round" stroke-linejoin="round"/>
<path d="M155.102 250.928C155.089 250.928 155.077 250.928 155.065 250.916C154.776 250.711 154.391 250.434 154.018 250.182C153.717 249.977 153.415 249.76 153.175 249.591C152.753 249.29 152.428 248.881 152.211 248.363C151.476 246.641 152.03 244.184 152.392 242.57L152.44 242.341C152.717 242.341 152.97 242.365 153.259 242.365C153.452 242.365 153.632 242.353 153.789 242.341C153.849 242.474 153.138 248.399 155.15 250.82C155.174 250.844 155.174 250.88 155.15 250.904C155.138 250.916 155.114 250.928 155.102 250.928Z" fill="#7C1700"/>
<path d="M152.488 242.366C152.729 242.426 152.994 242.438 153.247 242.438C153.44 242.438 153.632 242.426 153.777 242.414C153.777 242.414 153.042 248.399 155.09 250.868C154.572 250.483 153.717 249.929 153.199 249.543C152.753 249.23 152.452 248.821 152.247 248.351C151.489 246.569 152.127 243.967 152.488 242.366ZM152.488 242.245C152.464 242.245 152.44 242.257 152.428 242.269C152.404 242.281 152.38 242.317 152.38 242.341L152.332 242.57C151.958 244.196 151.404 246.665 152.151 248.399C152.368 248.917 152.705 249.339 153.139 249.652C153.367 249.82 153.669 250.025 153.97 250.23C154.355 250.495 154.74 250.76 155.029 250.977C155.054 250.989 155.078 251.001 155.102 251.001C155.138 251.001 155.162 250.989 155.186 250.965C155.222 250.916 155.234 250.856 155.186 250.808C153.187 248.399 153.897 242.498 153.897 242.438C153.897 242.402 153.885 242.366 153.861 242.341C153.837 242.317 153.813 242.305 153.777 242.305H153.765C153.644 242.317 153.464 242.329 153.247 242.329C152.97 242.329 152.717 242.305 152.512 242.257C152.512 242.245 152.5 242.245 152.488 242.245Z" fill="#121212"/>
<path d="M149.683 247.761C149.647 248.568 149.707 249.435 150.189 250.098C150.406 250.435 150.755 250.676 151.141 250.784C151.526 250.917 151.935 250.905 152.357 250.893C151.947 250.953 151.526 250.989 151.129 250.856C150.719 250.76 150.346 250.519 150.093 250.17C149.623 249.459 149.539 248.568 149.683 247.761Z" fill="#590600"/>
<path d="M151.464 250.904C151.536 251.531 151.765 252.181 152.319 252.494C152.572 252.663 152.885 252.759 153.186 252.783C153.5 252.807 153.813 252.783 154.138 252.759C153.825 252.831 153.512 252.891 153.186 252.867C152.861 252.843 152.536 252.771 152.259 252.59C151.693 252.217 151.428 251.531 151.464 250.904Z" fill="#590600"/>
<path d="M163.232 253.759C163.582 253.819 163.859 254.12 164.003 254.433C164.124 254.77 164.148 255.132 164.051 255.469C164.039 255.12 164.039 254.782 163.883 254.469C163.774 254.168 163.534 253.915 163.232 253.759Z" fill="#590600"/>
<path d="M163.786 254.18C164.208 253.964 164.641 253.723 164.894 253.325C165.195 252.952 165.292 252.482 165.34 252C165.388 252.482 165.267 252.988 164.99 253.398C164.689 253.783 164.256 254.06 163.786 254.18Z" fill="#590600"/>
<path d="M164.749 252.891C164.122 252.301 163.869 251.326 164.122 250.507C164.026 251.35 164.243 252.193 164.749 252.891Z" fill="#590600"/>
<path d="M150.621 249.206C151.019 248.701 151.211 248.062 151.223 247.424C151.259 246.798 151.091 246.135 150.633 245.678C151.175 246.063 151.344 246.798 151.344 247.436C151.296 248.074 151.103 248.749 150.621 249.206Z" fill="#590600"/>
<path d="M155.489 237.753C155.875 237.934 156.26 238.247 156.344 238.704C156.38 238.933 156.332 239.162 156.236 239.367C156.14 239.571 155.995 239.74 155.839 239.909L155.754 239.824C156.055 239.535 156.332 239.15 156.284 238.716C156.236 238.283 155.875 237.946 155.489 237.753Z" fill="#C77250"/>
<path d="M165.317 237.055C164.498 237.271 163.667 237.392 162.824 237.452C161.981 237.512 161.138 237.512 160.295 237.392C159.452 237.271 158.633 237.018 157.898 236.585C157.164 236.163 156.537 235.549 156.128 234.814C157.055 236.248 158.681 237.03 160.319 237.211C161.969 237.452 163.655 237.295 165.293 236.946L165.317 237.055Z" fill="#C77250"/>
<path d="M154.223 236.79C154.235 237.211 154.284 237.645 154.512 238.006C154.705 238.367 155.066 238.632 155.488 238.704C155.042 238.741 154.633 238.427 154.404 238.066C154.199 237.669 154.139 237.211 154.223 236.79Z" fill="#590600"/>
<path d="M159.27 240.113C159.27 240.113 160.426 238.668 162.076 239.487C162.076 239.487 162.63 240.053 160.667 239.668C160.667 239.668 160.185 239.559 159.27 240.113Z" fill="#121212"/>
<path d="M165.977 239.692C165.977 239.692 164.99 238.704 163.822 239.451C163.822 239.451 163.448 239.921 164.894 239.475C164.881 239.475 165.243 239.355 165.977 239.692Z" fill="#121212"/>
<path d="M163.279 240.21L164.291 242.45C164.327 242.57 164.303 242.703 164.219 242.799L163.966 243.088" stroke="#121212" stroke-width="0.120434" stroke-miterlimit="10"/>
<path d="M159.669 244.485C159.693 244.967 159.934 245.449 160.343 245.702C160.873 246.051 161.62 245.93 162.126 245.545C162.126 245.545 161.644 243.967 159.813 243.618C159.705 243.883 159.657 244.172 159.669 244.485Z" fill="#FD8A9B" stroke="#121212" stroke-width="0.120434" stroke-linecap="round" stroke-linejoin="round"/>
<path d="M159.8 243.606C161.642 243.955 162.112 245.533 162.112 245.533C162.485 245.244 162.714 244.811 162.835 244.353C162.955 243.883 162.233 243.751 161.956 243.594C161.679 243.45 161.414 243.257 161.173 243.052C161.004 242.908 160.703 242.438 160.426 242.546C160.318 242.582 160.257 242.679 160.197 242.775C160.173 242.847 159.8 243.606 159.8 243.606Z" fill="#A35235" stroke="#121212" stroke-width="0.120434" stroke-linecap="round" stroke-linejoin="round"/>
<path d="M160.342 240.547C160.342 240.547 160.98 239.981 161.775 240.547" stroke="#121212" stroke-width="0.120434" stroke-miterlimit="10"/>
<path d="M164.388 240.439C164.388 240.439 165.038 240.053 165.484 240.547" stroke="#121212" stroke-width="0.120434" stroke-miterlimit="10"/>
<path opacity="0.13" d="M157.415 242.643C157.887 242.643 158.27 242.26 158.27 241.788C158.27 241.315 157.887 240.933 157.415 240.933C156.942 240.933 156.56 241.315 156.56 241.788C156.56 242.26 156.942 242.643 157.415 242.643Z" fill="white"/>
<path d="M152.91 239.861L153.175 240.066C153.199 240.09 153.247 240.102 153.283 240.102C153.332 240.102 153.368 240.114 153.404 240.138C153.488 240.198 153.5 240.331 153.416 240.403C153.368 240.451 153.283 240.463 153.223 240.427C153.175 240.403 153.139 240.355 153.127 240.306C153.115 240.27 153.103 240.234 153.067 240.21L152.657 239.885" fill="#BAE2FF"/>
<path d="M152.91 239.861L153.175 240.066C153.199 240.09 153.247 240.102 153.283 240.102C153.332 240.102 153.368 240.114 153.404 240.138C153.488 240.198 153.5 240.331 153.416 240.403C153.368 240.451 153.283 240.463 153.223 240.427C153.175 240.403 153.139 240.355 153.127 240.306C153.115 240.27 153.103 240.234 153.067 240.21L152.657 239.885" stroke="#121212" stroke-width="0.060217" stroke-linecap="round" stroke-linejoin="round"/>
<path d="M151.995 240.114C151.995 240.114 152.959 239.439 153.85 240.27" stroke="#121212" stroke-width="0.120434" stroke-linecap="round" stroke-linejoin="round"/>
<path d="M152.056 241.499C152.182 241.499 152.285 241.396 152.285 241.27C152.285 241.143 152.182 241.041 152.056 241.041C151.93 241.041 151.827 241.143 151.827 241.27C151.827 241.396 151.93 241.499 152.056 241.499Z" fill="#BAE2FF" stroke="#121212" stroke-width="0.060217" stroke-linecap="round" stroke-linejoin="round"/>
<path d="M152.597 241.92C152.683 241.92 152.754 241.85 152.754 241.763C152.754 241.677 152.683 241.607 152.597 241.607C152.511 241.607 152.44 241.677 152.44 241.763C152.44 241.85 152.511 241.92 152.597 241.92Z" fill="#BAE2FF" stroke="#121212" stroke-width="0.060217" stroke-linecap="round" stroke-linejoin="round"/>
<path d="M153.199 242.064C153.259 242.064 153.308 242.016 153.308 241.956C153.308 241.896 153.259 241.848 153.199 241.848C153.139 241.848 153.091 241.896 153.091 241.956C153.091 242.016 153.139 242.064 153.199 242.064Z" fill="#BAE2FF" stroke="#121212" stroke-width="0.060217" stroke-linecap="round" stroke-linejoin="round"/>
<path d="M156.668 245.822C156.668 245.822 156.391 250.122 161.329 251.736C161.329 251.736 160.823 250.844 160.775 248.436C160.775 248.436 158.402 248.375 156.668 245.822Z" fill="#A35235"/>
<path d="M156.391 245.389C157.607 247.496 159.365 248.231 160.774 248.436" stroke="#121212" stroke-width="0.120434" stroke-linecap="round" stroke-linejoin="round"/>
<path d="M162.978 251.976C162.978 251.988 162.978 252 162.966 252.012C162.918 252.205 162.845 252.41 162.749 252.591C162.568 253 162.279 253.361 162.05 253.747C162.038 253.771 162.002 253.807 161.966 253.783C161.954 253.771 161.954 253.759 161.954 253.747C161.894 253.518 161.87 253.265 161.701 253.108C161.533 252.94 161.244 252.88 161.171 252.651C161.147 252.578 161.147 252.506 161.159 252.434C161.171 252.289 161.183 252.133 161.219 251.988C161.28 251.675 161.328 251.422 161.28 251.109C161.244 250.832 161.316 250.519 161.352 250.242C161.424 249.652 161.509 249.05 161.34 248.472C161.773 248.484 162.207 248.436 162.629 248.327C162.629 248.327 162.629 248.327 162.641 248.327C162.653 248.351 162.653 248.375 162.665 248.399C163.002 249.568 163.267 250.832 162.978 251.976Z" fill="#7C1700" stroke="#121212" stroke-width="0.120434" stroke-miterlimit="10"/>
</g>
<path d="M410.298 157.182V163H409.244V158.207H409.21L407.849 159.077V158.111L409.295 157.182H410.298ZM412.593 162.205L412.556 162.517C412.53 162.756 412.483 162.998 412.414 163.244C412.348 163.492 412.278 163.721 412.204 163.929C412.13 164.137 412.071 164.301 412.025 164.42H411.332C411.358 164.305 411.394 164.148 411.44 163.949C411.487 163.75 411.533 163.527 411.576 163.278C411.62 163.03 411.649 162.778 411.664 162.523L411.684 162.205H412.593ZM413.654 163V162.239L415.674 160.259C415.867 160.063 416.028 159.89 416.157 159.739C416.286 159.587 416.382 159.44 416.447 159.298C416.511 159.156 416.543 159.005 416.543 158.844C416.543 158.66 416.501 158.503 416.418 158.372C416.335 158.24 416.22 158.137 416.074 158.065C415.929 157.993 415.763 157.957 415.577 157.957C415.386 157.957 415.218 157.997 415.074 158.077C414.93 158.154 414.819 158.265 414.739 158.409C414.661 158.553 414.623 158.724 414.623 158.923H413.62C413.62 158.554 413.704 158.233 413.873 157.96C414.041 157.687 414.273 157.476 414.569 157.327C414.866 157.177 415.207 157.102 415.591 157.102C415.982 157.102 416.324 157.175 416.62 157.321C416.915 157.467 417.144 157.667 417.307 157.92C417.472 158.174 417.554 158.464 417.554 158.79C417.554 159.008 417.513 159.222 417.429 159.432C417.346 159.642 417.199 159.875 416.989 160.131C416.781 160.386 416.488 160.696 416.111 161.06L415.108 162.08V162.119H417.643V163H413.654ZM420.565 163.08C420.187 163.08 419.848 163.009 419.548 162.866C419.249 162.723 419.011 162.526 418.835 162.276C418.661 162.026 418.568 161.74 418.557 161.418H419.58C419.599 161.656 419.702 161.851 419.889 162.003C420.077 162.152 420.302 162.227 420.565 162.227C420.772 162.227 420.956 162.18 421.117 162.085C421.278 161.991 421.404 161.859 421.497 161.69C421.59 161.522 421.635 161.33 421.634 161.114C421.635 160.894 421.589 160.699 421.494 160.528C421.4 160.358 421.27 160.224 421.105 160.128C420.94 160.029 420.751 159.98 420.537 159.98C420.363 159.978 420.191 160.01 420.023 160.077C419.854 160.143 419.721 160.23 419.622 160.338L418.671 160.182L418.974 157.182H422.349V158.062H419.847L419.679 159.605H419.713C419.821 159.478 419.974 159.373 420.171 159.29C420.367 159.205 420.583 159.162 420.818 159.162C421.171 159.162 421.485 159.245 421.761 159.412C422.038 159.577 422.256 159.804 422.415 160.094C422.574 160.384 422.653 160.715 422.653 161.088C422.653 161.473 422.564 161.815 422.386 162.116C422.21 162.416 421.965 162.652 421.651 162.824C421.338 162.994 420.976 163.08 420.565 163.08ZM425.593 163.08C425.171 163.08 424.796 163.009 424.468 162.866C424.143 162.724 423.887 162.53 423.701 162.284C423.518 162.036 423.427 161.755 423.429 161.44C423.427 161.196 423.48 160.972 423.588 160.767C423.696 160.562 423.841 160.392 424.025 160.256C424.211 160.117 424.417 160.029 424.644 159.991V159.952C424.345 159.885 424.103 159.733 423.917 159.494C423.734 159.254 423.643 158.976 423.644 158.662C423.643 158.363 423.726 158.096 423.894 157.861C424.063 157.626 424.294 157.441 424.588 157.307C424.881 157.17 425.216 157.102 425.593 157.102C425.966 157.102 426.299 157.17 426.591 157.307C426.884 157.441 427.115 157.626 427.284 157.861C427.454 158.096 427.539 158.363 427.539 158.662C427.539 158.976 427.446 159.254 427.258 159.494C427.073 159.733 426.833 159.885 426.539 159.952V159.991C426.767 160.029 426.971 160.117 427.153 160.256C427.337 160.392 427.483 160.562 427.591 160.767C427.7 160.972 427.755 161.196 427.755 161.44C427.755 161.755 427.662 162.036 427.477 162.284C427.291 162.53 427.036 162.724 426.71 162.866C426.386 163.009 426.014 163.08 425.593 163.08ZM425.593 162.267C425.811 162.267 426.001 162.23 426.162 162.156C426.323 162.08 426.448 161.974 426.537 161.838C426.626 161.702 426.671 161.545 426.673 161.366C426.671 161.181 426.623 161.017 426.528 160.875C426.435 160.731 426.307 160.618 426.144 160.537C425.984 160.455 425.8 160.415 425.593 160.415C425.385 160.415 425.199 160.455 425.037 160.537C424.874 160.618 424.745 160.731 424.65 160.875C424.557 161.017 424.512 161.181 424.514 161.366C424.512 161.545 424.555 161.702 424.644 161.838C424.734 161.973 424.859 162.078 425.019 162.153C425.182 162.229 425.374 162.267 425.593 162.267ZM425.593 159.616C425.771 159.616 425.929 159.58 426.065 159.509C426.203 159.437 426.312 159.336 426.392 159.207C426.471 159.079 426.512 158.93 426.514 158.761C426.512 158.595 426.472 158.449 426.394 158.324C426.317 158.197 426.209 158.099 426.071 158.031C425.932 157.961 425.773 157.926 425.593 157.926C425.41 157.926 425.248 157.961 425.108 158.031C424.969 158.099 424.861 158.197 424.784 158.324C424.708 158.449 424.671 158.595 424.673 158.761C424.671 158.93 424.709 159.079 424.787 159.207C424.866 159.334 424.975 159.435 425.113 159.509C425.253 159.58 425.413 159.616 425.593 159.616ZM433.306 161.165V158.636H434.335V163H433.337V162.224H433.292C433.194 162.469 433.032 162.669 432.806 162.824C432.583 162.979 432.307 163.057 431.98 163.057C431.694 163.057 431.441 162.993 431.221 162.866C431.003 162.738 430.833 162.551 430.71 162.307C430.587 162.061 430.525 161.763 430.525 161.415V158.636H431.553V161.256C431.553 161.532 431.629 161.752 431.781 161.915C431.932 162.078 432.131 162.159 432.377 162.159C432.529 162.159 432.676 162.122 432.818 162.048C432.96 161.974 433.076 161.865 433.167 161.719C433.26 161.571 433.306 161.386 433.306 161.165ZM438.761 159.79L437.824 159.892C437.797 159.797 437.751 159.708 437.684 159.625C437.62 159.542 437.533 159.474 437.423 159.423C437.313 159.372 437.179 159.347 437.02 159.347C436.806 159.347 436.626 159.393 436.48 159.486C436.336 159.579 436.265 159.699 436.267 159.847C436.265 159.973 436.311 160.077 436.406 160.156C436.503 160.236 436.662 160.301 436.883 160.352L437.628 160.511C438.04 160.6 438.347 160.741 438.548 160.935C438.751 161.128 438.853 161.381 438.855 161.693C438.853 161.968 438.772 162.21 438.613 162.42C438.456 162.629 438.237 162.792 437.957 162.909C437.677 163.027 437.355 163.085 436.991 163.085C436.457 163.085 436.027 162.973 435.701 162.75C435.376 162.525 435.181 162.211 435.119 161.81L436.122 161.713C436.167 161.91 436.264 162.059 436.412 162.159C436.559 162.259 436.752 162.31 436.988 162.31C437.233 162.31 437.429 162.259 437.576 162.159C437.726 162.059 437.801 161.935 437.801 161.787C437.801 161.662 437.753 161.559 437.656 161.477C437.561 161.396 437.413 161.333 437.213 161.29L436.468 161.134C436.05 161.046 435.74 160.9 435.539 160.693C435.339 160.485 435.239 160.222 435.241 159.903C435.239 159.634 435.312 159.402 435.46 159.205C435.61 159.006 435.817 158.852 436.082 158.744C436.349 158.634 436.657 158.58 437.005 158.58C437.517 158.58 437.919 158.688 438.213 158.906C438.508 159.124 438.691 159.419 438.761 159.79ZM441.555 163.085C441.117 163.085 440.739 162.994 440.421 162.812C440.105 162.629 439.861 162.369 439.691 162.034C439.521 161.697 439.435 161.3 439.435 160.844C439.435 160.395 439.521 160.001 439.691 159.662C439.863 159.321 440.104 159.056 440.413 158.866C440.721 158.675 441.084 158.58 441.501 158.58C441.77 158.58 442.023 158.623 442.262 158.71C442.503 158.795 442.715 158.928 442.898 159.108C443.084 159.288 443.23 159.517 443.336 159.795C443.442 160.072 443.495 160.402 443.495 160.784V161.099H439.918V160.406H442.509C442.507 160.209 442.465 160.034 442.381 159.881C442.298 159.725 442.181 159.603 442.032 159.514C441.884 159.425 441.712 159.381 441.515 159.381C441.305 159.381 441.12 159.432 440.961 159.534C440.802 159.634 440.678 159.767 440.589 159.932C440.502 160.095 440.457 160.274 440.455 160.469V161.074C440.455 161.328 440.502 161.545 440.594 161.727C440.687 161.907 440.817 162.045 440.984 162.142C441.15 162.237 441.345 162.284 441.569 162.284C441.718 162.284 441.854 162.263 441.975 162.222C442.096 162.178 442.201 162.115 442.29 162.031C442.379 161.948 442.447 161.845 442.492 161.722L443.452 161.83C443.392 162.083 443.276 162.305 443.106 162.494C442.937 162.682 442.721 162.828 442.458 162.932C442.195 163.034 441.894 163.085 441.555 163.085ZM444.285 163V158.636H445.282V159.364H445.328C445.407 159.112 445.543 158.918 445.737 158.781C445.932 158.643 446.154 158.574 446.404 158.574C446.461 158.574 446.525 158.577 446.595 158.582C446.667 158.586 446.726 158.593 446.774 158.602V159.548C446.73 159.533 446.661 159.52 446.566 159.509C446.473 159.495 446.383 159.489 446.296 159.489C446.109 159.489 445.94 159.529 445.791 159.611C445.643 159.69 445.526 159.801 445.441 159.943C445.356 160.085 445.313 160.249 445.313 160.435V163H444.285ZM450.826 159.79L449.888 159.892C449.862 159.797 449.815 159.708 449.749 159.625C449.685 159.542 449.597 159.474 449.488 159.423C449.378 159.372 449.243 159.347 449.084 159.347C448.87 159.347 448.69 159.393 448.544 159.486C448.401 159.579 448.329 159.699 448.331 159.847C448.329 159.973 448.376 160.077 448.471 160.156C448.567 160.236 448.726 160.301 448.948 160.352L449.692 160.511C450.105 160.6 450.412 160.741 450.613 160.935C450.815 161.128 450.918 161.381 450.919 161.693C450.918 161.968 450.837 162.21 450.678 162.42C450.521 162.629 450.302 162.792 450.022 162.909C449.741 163.027 449.419 163.085 449.056 163.085C448.522 163.085 448.092 162.973 447.766 162.75C447.44 162.525 447.246 162.211 447.184 161.81L448.187 161.713C448.232 161.91 448.329 162.059 448.476 162.159C448.624 162.259 448.816 162.31 449.053 162.31C449.297 162.31 449.493 162.259 449.641 162.159C449.791 162.059 449.865 161.935 449.865 161.787C449.865 161.662 449.817 161.559 449.721 161.477C449.626 161.396 449.478 161.333 449.277 161.29L448.533 161.134C448.115 161.046 447.805 160.9 447.604 160.693C447.403 160.485 447.304 160.222 447.306 159.903C447.304 159.634 447.377 159.402 447.525 159.205C447.674 159.006 447.882 158.852 448.147 158.744C448.414 158.634 448.722 158.58 449.07 158.58C449.581 158.58 449.984 158.688 450.277 158.906C450.573 159.124 450.756 159.419 450.826 159.79ZM455.495 163.085C455.06 163.085 454.686 162.99 454.373 162.798C454.062 162.607 453.823 162.343 453.654 162.006C453.488 161.667 453.404 161.277 453.404 160.835C453.404 160.392 453.49 160.001 453.66 159.662C453.83 159.321 454.071 159.056 454.382 158.866C454.694 158.675 455.063 158.58 455.49 158.58C455.844 158.58 456.157 158.645 456.43 158.776C456.705 158.904 456.923 159.087 457.086 159.324C457.249 159.559 457.342 159.833 457.365 160.148H456.382C456.342 159.937 456.247 159.762 456.098 159.622C455.95 159.48 455.752 159.409 455.504 159.409C455.294 159.409 455.109 159.466 454.95 159.58C454.791 159.691 454.667 159.852 454.578 160.062C454.491 160.273 454.447 160.525 454.447 160.818C454.447 161.116 454.491 161.371 454.578 161.585C454.665 161.797 454.787 161.961 454.944 162.077C455.103 162.19 455.29 162.247 455.504 162.247C455.655 162.247 455.791 162.219 455.91 162.162C456.031 162.103 456.133 162.019 456.214 161.909C456.295 161.799 456.351 161.666 456.382 161.509H457.365C457.34 161.817 457.249 162.091 457.092 162.33C456.935 162.566 456.721 162.752 456.45 162.886C456.179 163.019 455.861 163.085 455.495 163.085ZM459.157 157.182V163H458.129V157.182H459.157ZM460.135 163V158.636H461.163V163H460.135ZM460.652 158.017C460.489 158.017 460.349 157.963 460.232 157.855C460.114 157.745 460.055 157.614 460.055 157.46C460.055 157.305 460.114 157.173 460.232 157.065C460.349 156.955 460.489 156.901 460.652 156.901C460.817 156.901 460.957 156.955 461.072 157.065C461.19 157.173 461.249 157.305 461.249 157.46C461.249 157.614 461.19 157.745 461.072 157.855C460.957 157.963 460.817 158.017 460.652 158.017ZM464.044 163.085C463.609 163.085 463.235 162.99 462.922 162.798C462.612 162.607 462.372 162.343 462.203 162.006C462.037 161.667 461.953 161.277 461.953 160.835C461.953 160.392 462.039 160.001 462.209 159.662C462.38 159.321 462.62 159.056 462.931 158.866C463.243 158.675 463.612 158.58 464.039 158.58C464.393 158.58 464.706 158.645 464.979 158.776C465.254 158.904 465.472 159.087 465.635 159.324C465.798 159.559 465.891 159.833 465.914 160.148H464.931C464.891 159.937 464.796 159.762 464.647 159.622C464.499 159.48 464.301 159.409 464.053 159.409C463.843 159.409 463.658 159.466 463.499 159.58C463.34 159.691 463.216 159.852 463.127 160.062C463.04 160.273 462.996 160.525 462.996 160.818C462.996 161.116 463.04 161.371 463.127 161.585C463.214 161.797 463.336 161.961 463.493 162.077C463.652 162.19 463.839 162.247 464.053 162.247C464.204 162.247 464.34 162.219 464.459 162.162C464.58 162.103 464.682 162.019 464.763 161.909C464.845 161.799 464.9 161.666 464.931 161.509H465.914C465.889 161.817 465.798 162.091 465.641 162.33C465.484 162.566 465.27 162.752 464.999 162.886C464.728 163.019 464.41 163.085 464.044 163.085ZM467.616 161.631L467.613 160.389H467.778L469.346 158.636H470.547L468.618 160.784H468.405L467.616 161.631ZM466.678 163V157.182H467.707V163H466.678ZM469.417 163L467.996 161.014L468.689 160.29L470.647 163H469.417ZM472.905 163.085C472.467 163.085 472.09 162.994 471.771 162.812C471.455 162.629 471.212 162.369 471.041 162.034C470.871 161.697 470.786 161.3 470.786 160.844C470.786 160.395 470.871 160.001 471.041 159.662C471.214 159.321 471.454 159.056 471.763 158.866C472.072 158.675 472.434 158.58 472.851 158.58C473.12 158.58 473.374 158.623 473.612 158.71C473.853 158.795 474.065 158.928 474.249 159.108C474.434 159.288 474.58 159.517 474.686 159.795C474.792 160.072 474.845 160.402 474.845 160.784V161.099H471.269V160.406H473.859C473.858 160.209 473.815 160.034 473.732 159.881C473.648 159.725 473.532 159.603 473.382 159.514C473.234 159.425 473.062 159.381 472.865 159.381C472.655 159.381 472.47 159.432 472.311 159.534C472.152 159.634 472.028 159.767 471.939 159.932C471.852 160.095 471.807 160.274 471.805 160.469V161.074C471.805 161.328 471.852 161.545 471.945 161.727C472.037 161.907 472.167 162.045 472.334 162.142C472.501 162.237 472.696 162.284 472.919 162.284C473.069 162.284 473.204 162.263 473.325 162.222C473.447 162.178 473.552 162.115 473.641 162.031C473.73 161.948 473.797 161.845 473.842 161.722L474.803 161.83C474.742 162.083 474.627 162.305 474.456 162.494C474.287 162.682 474.072 162.828 473.808 162.932C473.545 163.034 473.244 163.085 472.905 163.085ZM477.255 163.077C476.912 163.077 476.605 162.989 476.334 162.812C476.063 162.636 475.849 162.381 475.692 162.045C475.535 161.71 475.456 161.303 475.456 160.824C475.456 160.339 475.536 159.93 475.695 159.597C475.856 159.261 476.073 159.009 476.346 158.838C476.618 158.666 476.922 158.58 477.257 158.58C477.513 158.58 477.723 158.623 477.888 158.71C478.053 158.795 478.184 158.899 478.28 159.02C478.377 159.139 478.452 159.252 478.505 159.358H478.547V157.182H479.578V163H478.567V162.312H478.505C478.452 162.419 478.375 162.531 478.274 162.651C478.174 162.768 478.042 162.868 477.877 162.952C477.712 163.035 477.505 163.077 477.255 163.077ZM477.542 162.233C477.759 162.233 477.945 162.174 478.098 162.057C478.252 161.937 478.368 161.772 478.448 161.56C478.527 161.348 478.567 161.1 478.567 160.818C478.567 160.536 478.527 160.291 478.448 160.082C478.37 159.874 478.255 159.712 478.101 159.597C477.95 159.481 477.763 159.423 477.542 159.423C477.312 159.423 477.121 159.483 476.968 159.602C476.814 159.722 476.699 159.886 476.621 160.097C476.543 160.307 476.505 160.547 476.505 160.818C476.505 161.091 476.543 161.334 476.621 161.548C476.701 161.76 476.817 161.928 476.971 162.051C477.126 162.172 477.316 162.233 477.542 162.233Z" fill="#636369"/>
<rect x="-1" y="1" width="419" height="185" rx="7" transform="matrix(-1 0 0 1 511 125)" stroke="#E1E8F2" stroke-width="2" stroke-dasharray="8 8"/>
<rect x="-2" y="2" width="442" height="208" rx="6" transform="matrix(-1 0 0 1 502 396)" fill="#121212"/>
<rect x="-2" y="2" width="442" height="208" rx="6" transform="matrix(-1 0 0 1 502 396)" stroke="#121212" stroke-width="4"/>
<rect x="-2" y="2" width="441" height="199" rx="6" transform="matrix(-1 0 0 1 521 383)" fill="#F5F6F8"/>
<rect x="-2" y="2" width="441" height="199" rx="6" transform="matrix(-1 0 0 1 521 383)" stroke="#121212" stroke-width="4"/>
<rect x="-1" y="1" width="419" height="157" rx="7" transform="matrix(-1 0 0 1 511 400)" fill="#F5F6F8"/>
<path d="M148.084 441.18C151.594 441.18 153.376 439.308 153.376 436.302V428.94H150.676V436.266C150.676 437.994 150.064 438.57 148.084 438.57C146.086 438.57 145.474 437.994 145.474 436.266V428.94H142.792V436.302C142.792 439.308 144.574 441.18 148.084 441.18ZM159.528 441.18C162.03 441.18 163.416 440.1 163.416 438.408C163.416 436.932 162.624 436.068 160.716 435.708L159.06 435.366C157.98 435.15 157.818 435.024 157.818 434.592C157.818 434.16 158.07 433.926 159.15 433.926C160.302 433.926 160.554 434.25 160.554 434.844V435.096H163.128V434.844C163.128 432.81 161.436 431.766 159.222 431.766C156.648 431.766 155.28 432.954 155.28 434.628C155.28 436.302 156.252 437.058 158.034 437.382L159.402 437.634C160.608 437.85 160.86 437.958 160.86 438.444C160.86 438.894 160.68 439.056 159.582 439.056C158.268 439.056 157.872 438.912 157.872 438.246V437.868H155.298V437.922C155.298 440.118 156.684 441.18 159.528 441.18ZM169.39 441.18C171.982 441.18 173.638 440.046 173.638 438.12V437.94H170.974V438.048C170.974 438.606 170.506 438.84 169.426 438.84C167.95 438.84 167.446 438.336 167.392 437.076H173.602C173.656 436.77 173.728 436.248 173.728 435.744C173.728 433.386 172.126 431.766 169.408 431.766C166.582 431.766 164.854 433.602 164.854 436.5C164.854 439.362 166.276 441.18 169.39 441.18ZM169.318 433.98C170.578 433.98 171.19 434.502 171.136 435.438H167.41C167.518 434.484 168.022 433.98 169.318 433.98ZM178.243 441V435.33C178.243 434.34 178.639 434.052 179.467 434.052C180.313 434.052 180.619 434.358 180.619 435.33V435.816H183.301V434.988C183.301 433.17 182.599 431.766 180.709 431.766C179.431 431.766 178.621 432.486 178.171 433.404H178.063V431.946H175.561V441H178.243ZM194.49 441.18C198.09 441.18 200.268 438.732 200.268 434.97C200.268 431.208 198.09 428.76 194.49 428.76C190.89 428.76 188.694 431.208 188.694 434.97C188.694 438.732 190.89 441.18 194.49 441.18ZM194.49 438.57C192.42 438.57 191.574 437.796 191.574 434.97C191.574 432.144 192.42 431.37 194.49 431.37C196.56 431.37 197.388 432.144 197.388 434.97C197.388 437.796 196.56 438.57 194.49 438.57ZM204.751 444.024V439.812H204.841C205.255 440.586 206.137 441.18 207.577 441.18C210.025 441.18 211.411 439.326 211.411 436.482C211.411 433.62 210.079 431.766 207.523 431.766C206.173 431.766 205.129 432.306 204.643 433.278H204.553V431.946H202.051V444.024H204.751ZM204.751 437.202V435.744C204.751 434.52 205.453 434.07 206.731 434.07C208.297 434.07 208.711 434.826 208.711 436.482C208.711 438.12 208.297 438.876 206.731 438.876C205.453 438.876 204.751 438.426 204.751 437.202ZM217.634 441.18C220.226 441.18 221.882 440.046 221.882 438.12V437.94H219.218V438.048C219.218 438.606 218.75 438.84 217.67 438.84C216.194 438.84 215.69 438.336 215.636 437.076H221.846C221.9 436.77 221.972 436.248 221.972 435.744C221.972 433.386 220.37 431.766 217.652 431.766C214.826 431.766 213.098 433.602 213.098 436.5C213.098 439.362 214.52 441.18 217.634 441.18ZM217.562 433.98C218.822 433.98 219.434 434.502 219.38 435.438H215.654C215.762 434.484 216.266 433.98 217.562 433.98ZM226.488 441V435.87C226.488 434.502 227.046 434.088 228.342 434.088C229.71 434.088 230.124 434.538 230.124 435.798V441H232.824V435.258C232.824 433.332 231.816 431.766 229.458 431.766C227.874 431.766 226.902 432.504 226.416 433.53H226.308V431.946H223.806V441H226.488ZM238.889 441.18C241.391 441.18 242.777 440.1 242.777 438.408C242.777 436.932 241.985 436.068 240.077 435.708L238.421 435.366C237.341 435.15 237.179 435.024 237.179 434.592C237.179 434.16 237.431 433.926 238.511 433.926C239.663 433.926 239.915 434.25 239.915 434.844V435.096H242.489V434.844C242.489 432.81 240.797 431.766 238.583 431.766C236.009 431.766 234.641 432.954 234.641 434.628C234.641 436.302 235.613 437.058 237.395 437.382L238.763 437.634C239.969 437.85 240.221 437.958 240.221 438.444C240.221 438.894 240.041 439.056 238.943 439.056C237.629 439.056 237.233 438.912 237.233 438.246V437.868H234.659V437.922C234.659 440.118 236.045 441.18 238.889 441.18Z" fill="black"/>
<g clip-path="url(#clip3_6587_41931)">
<path d="M133.64 428.36C138.138 432.857 139.354 438.934 136.355 441.932C133.356 444.931 127.28 443.715 122.782 439.218C122.63 439.065 122.49 438.906 122.345 438.75L125.044 436.051C128.542 439.549 132.998 440.765 134.997 438.765C136.996 436.766 135.78 432.31 132.283 428.812L132.296 428.825L132.283 428.811C128.286 424.813 122.817 423.801 120.068 426.549C118.739 427.878 118.298 429.845 118.64 431.971C118.115 429.476 118.548 427.164 120.068 425.645C123.066 422.646 129.143 423.862 133.64 428.36Z" fill="#FDD888"/>
<path d="M127.857 444.778C127.703 444.778 127.55 444.731 127.418 444.637L124.316 442.412L121.214 444.637C120.949 444.826 120.595 444.826 120.332 444.634C120.069 444.443 119.958 444.106 120.057 443.797L121.214 440.063L118.14 437.897C117.878 437.704 117.77 437.366 117.87 437.057C117.97 436.749 118.257 436.539 118.582 436.537L122.338 436.529L123.601 432.889C123.704 432.581 123.992 432.373 124.316 432.373C124.641 432.373 124.929 432.581 125.031 432.889L126.172 436.529L130.05 436.537C130.375 436.539 130.663 436.749 130.762 437.057C130.862 437.366 130.754 437.704 130.492 437.897L127.418 440.063L128.574 443.797C128.673 444.106 128.562 444.444 128.3 444.634C128.167 444.73 128.012 444.778 127.857 444.778Z" fill="#FFAC33"/>
</g>
<line x1="116" y1="461.021" x2="480.145" y2="461.021" stroke="#DFE7F2" stroke-width="2"/>
<rect x="118.214" y="489" width="362" height="64" rx="8" fill="white"/>
<rect x="148" y="514" width="181" height="14" rx="7" fill="#EEF1F7"/>
<rect x="395.214" y="514" width="61" height="14" rx="7" fill="#EEF1F7"/>
<path d="M405.751 438.08C405.342 438.08 404.978 438.009 404.66 437.869C404.343 437.729 404.093 437.534 403.91 437.284C403.726 437.034 403.628 436.745 403.617 436.418H404.685C404.695 436.575 404.747 436.712 404.842 436.83C404.936 436.945 405.062 437.035 405.219 437.099C405.377 437.164 405.553 437.196 405.748 437.196C405.956 437.196 406.141 437.16 406.302 437.088C406.463 437.014 406.589 436.912 406.68 436.781C406.771 436.651 406.815 436.5 406.813 436.33C406.815 436.153 406.77 435.998 406.677 435.864C406.584 435.729 406.449 435.624 406.273 435.548C406.099 435.473 405.889 435.435 405.643 435.435H405.128V434.622H405.643C405.845 434.622 406.022 434.587 406.174 434.517C406.327 434.447 406.448 434.348 406.535 434.222C406.622 434.093 406.664 433.944 406.663 433.776C406.664 433.611 406.628 433.468 406.552 433.347C406.478 433.223 406.373 433.128 406.236 433.06C406.102 432.991 405.944 432.957 405.762 432.957C405.584 432.957 405.419 432.99 405.268 433.054C405.116 433.118 404.994 433.21 404.901 433.33C404.808 433.447 404.759 433.587 404.753 433.75H403.739C403.747 433.424 403.841 433.138 404.021 432.892C404.202 432.644 404.445 432.451 404.748 432.312C405.051 432.172 405.391 432.102 405.768 432.102C406.156 432.102 406.493 432.175 406.779 432.321C407.067 432.465 407.289 432.659 407.447 432.903C407.604 433.148 407.682 433.418 407.682 433.713C407.684 434.041 407.588 434.315 407.393 434.537C407.199 434.759 406.946 434.903 406.631 434.972V435.017C407.04 435.074 407.354 435.225 407.572 435.472C407.791 435.716 407.9 436.02 407.898 436.384C407.898 436.709 407.806 437.001 407.62 437.259C407.436 437.514 407.182 437.715 406.859 437.861C406.537 438.007 406.167 438.08 405.751 438.08ZM409.84 437.205L409.803 437.517C409.777 437.756 409.73 437.998 409.661 438.244C409.595 438.492 409.525 438.721 409.451 438.929C409.377 439.137 409.318 439.301 409.272 439.42H408.579C408.606 439.305 408.642 439.148 408.687 438.949C408.734 438.75 408.78 438.527 408.823 438.278C408.867 438.03 408.896 437.778 408.911 437.523L408.931 437.205H409.84ZM412.835 432.102C413.113 432.104 413.384 432.153 413.647 432.25C413.913 432.345 414.151 432.5 414.363 432.716C414.575 432.93 414.744 433.217 414.869 433.577C414.994 433.937 415.057 434.382 415.057 434.912C415.058 435.412 415.005 435.859 414.897 436.253C414.791 436.645 414.639 436.976 414.44 437.247C414.241 437.518 414.002 437.724 413.721 437.866C413.441 438.009 413.126 438.08 412.775 438.08C412.408 438.08 412.082 438.008 411.798 437.864C411.516 437.72 411.288 437.523 411.113 437.273C410.939 437.023 410.832 436.737 410.792 436.415H411.829C411.882 436.646 411.99 436.83 412.153 436.966C412.318 437.1 412.525 437.168 412.775 437.168C413.179 437.168 413.489 436.992 413.707 436.642C413.925 436.292 414.034 435.805 414.034 435.182H413.994C413.901 435.348 413.781 435.492 413.633 435.614C413.486 435.733 413.318 435.825 413.13 435.889C412.945 435.954 412.748 435.986 412.539 435.986C412.199 435.986 411.892 435.904 411.619 435.741C411.348 435.579 411.133 435.355 410.974 435.071C410.817 434.787 410.737 434.462 410.736 434.097C410.736 433.718 410.823 433.378 410.997 433.077C411.173 432.774 411.418 432.535 411.733 432.361C412.047 432.185 412.414 432.098 412.835 432.102ZM412.838 432.955C412.633 432.955 412.449 433.005 412.284 433.105C412.121 433.204 411.992 433.338 411.897 433.509C411.805 433.677 411.758 433.866 411.758 434.074C411.76 434.28 411.807 434.468 411.897 434.636C411.99 434.805 412.116 434.938 412.275 435.037C412.436 435.135 412.62 435.185 412.826 435.185C412.98 435.185 413.123 435.155 413.255 435.097C413.388 435.038 413.504 434.956 413.602 434.852C413.702 434.746 413.78 434.626 413.835 434.491C413.892 434.357 413.919 434.215 413.917 434.065C413.917 433.866 413.87 433.683 413.775 433.514C413.682 433.346 413.555 433.21 413.392 433.108C413.231 433.006 413.046 432.955 412.838 432.955ZM418.011 438.08C417.602 438.08 417.238 438.009 416.92 437.869C416.603 437.729 416.353 437.534 416.17 437.284C415.986 437.034 415.888 436.745 415.877 436.418H416.945C416.955 436.575 417.007 436.712 417.102 436.83C417.196 436.945 417.322 437.035 417.479 437.099C417.637 437.164 417.813 437.196 418.008 437.196C418.216 437.196 418.401 437.16 418.562 437.088C418.723 437.014 418.849 436.912 418.94 436.781C419.031 436.651 419.075 436.5 419.073 436.33C419.075 436.153 419.03 435.998 418.937 435.864C418.844 435.729 418.709 435.624 418.533 435.548C418.359 435.473 418.149 435.435 417.903 435.435H417.388V434.622H417.903C418.105 434.622 418.282 434.587 418.434 434.517C418.587 434.447 418.708 434.348 418.795 434.222C418.882 434.093 418.924 433.944 418.923 433.776C418.924 433.611 418.888 433.468 418.812 433.347C418.738 433.223 418.633 433.128 418.496 433.06C418.362 432.991 418.204 432.957 418.022 432.957C417.844 432.957 417.679 432.99 417.528 433.054C417.376 433.118 417.254 433.21 417.161 433.33C417.068 433.447 417.019 433.587 417.013 433.75H415.999C416.007 433.424 416.101 433.138 416.281 432.892C416.462 432.644 416.705 432.451 417.008 432.312C417.311 432.172 417.651 432.102 418.028 432.102C418.416 432.102 418.753 432.175 419.039 432.321C419.327 432.465 419.549 432.659 419.707 432.903C419.864 433.148 419.942 433.418 419.942 433.713C419.944 434.041 419.848 434.315 419.653 434.537C419.459 434.759 419.206 434.903 418.891 434.972V435.017C419.3 435.074 419.614 435.225 419.832 435.472C420.051 435.716 420.16 436.02 420.158 436.384C420.158 436.709 420.066 437.001 419.88 437.259C419.696 437.514 419.442 437.715 419.119 437.861C418.797 438.007 418.427 438.08 418.011 438.08ZM423.076 438.08C422.697 438.08 422.358 438.009 422.059 437.866C421.76 437.723 421.522 437.526 421.346 437.276C421.172 437.026 421.079 436.74 421.068 436.418H422.09C422.109 436.656 422.213 436.851 422.4 437.003C422.588 437.152 422.813 437.227 423.076 437.227C423.283 437.227 423.466 437.18 423.627 437.085C423.788 436.991 423.915 436.859 424.008 436.69C424.101 436.522 424.146 436.33 424.144 436.114C424.146 435.894 424.1 435.699 424.005 435.528C423.91 435.358 423.781 435.224 423.616 435.128C423.451 435.029 423.262 434.98 423.048 434.98C422.874 434.978 422.702 435.01 422.534 435.077C422.365 435.143 422.232 435.23 422.133 435.338L421.181 435.182L421.485 432.182H424.86V433.062H422.357L422.19 434.605H422.224C422.332 434.478 422.484 434.373 422.681 434.29C422.878 434.205 423.094 434.162 423.329 434.162C423.681 434.162 423.996 434.245 424.272 434.412C424.549 434.577 424.767 434.804 424.926 435.094C425.085 435.384 425.164 435.715 425.164 436.088C425.164 436.473 425.075 436.815 424.897 437.116C424.721 437.416 424.476 437.652 424.161 437.824C423.849 437.994 423.487 438.08 423.076 438.08ZM430.733 436.165V433.636H431.761V438H430.764V437.224H430.719C430.62 437.469 430.458 437.669 430.233 437.824C430.009 437.979 429.734 438.057 429.406 438.057C429.12 438.057 428.867 437.993 428.648 437.866C428.43 437.738 428.259 437.551 428.136 437.307C428.013 437.061 427.952 436.763 427.952 436.415V433.636H428.98V436.256C428.98 436.532 429.056 436.752 429.207 436.915C429.359 437.078 429.558 437.159 429.804 437.159C429.956 437.159 430.102 437.122 430.244 437.048C430.386 436.974 430.503 436.865 430.594 436.719C430.687 436.571 430.733 436.386 430.733 436.165ZM436.188 434.79L435.25 434.892C435.224 434.797 435.177 434.708 435.111 434.625C435.047 434.542 434.96 434.474 434.85 434.423C434.74 434.372 434.605 434.347 434.446 434.347C434.232 434.347 434.052 434.393 433.907 434.486C433.763 434.579 433.692 434.699 433.693 434.847C433.692 434.973 433.738 435.077 433.833 435.156C433.929 435.236 434.088 435.301 434.31 435.352L435.054 435.511C435.467 435.6 435.774 435.741 435.975 435.935C436.177 436.128 436.28 436.381 436.282 436.693C436.28 436.968 436.199 437.21 436.04 437.42C435.883 437.629 435.664 437.792 435.384 437.909C435.104 438.027 434.782 438.085 434.418 438.085C433.884 438.085 433.454 437.973 433.128 437.75C432.802 437.525 432.608 437.211 432.546 436.81L433.549 436.713C433.594 436.91 433.691 437.059 433.838 437.159C433.986 437.259 434.178 437.31 434.415 437.31C434.659 437.31 434.855 437.259 435.003 437.159C435.153 437.059 435.228 436.935 435.228 436.787C435.228 436.662 435.179 436.559 435.083 436.477C434.988 436.396 434.84 436.333 434.639 436.29L433.895 436.134C433.477 436.046 433.167 435.9 432.966 435.693C432.765 435.485 432.666 435.222 432.668 434.903C432.666 434.634 432.739 434.402 432.887 434.205C433.036 434.006 433.244 433.852 433.509 433.744C433.776 433.634 434.084 433.58 434.432 433.58C434.943 433.58 435.346 433.688 435.639 433.906C435.935 434.124 436.118 434.419 436.188 434.79ZM438.981 438.085C438.544 438.085 438.166 437.994 437.848 437.812C437.532 437.629 437.288 437.369 437.118 437.034C436.947 436.697 436.862 436.3 436.862 435.844C436.862 435.395 436.947 435.001 437.118 434.662C437.29 434.321 437.531 434.056 437.839 433.866C438.148 433.675 438.511 433.58 438.927 433.58C439.196 433.58 439.45 433.623 439.689 433.71C439.929 433.795 440.141 433.928 440.325 434.108C440.511 434.288 440.657 434.517 440.763 434.795C440.869 435.072 440.922 435.402 440.922 435.784V436.099H437.345V435.406H439.936C439.934 435.209 439.891 435.034 439.808 434.881C439.725 434.725 439.608 434.603 439.459 434.514C439.311 434.425 439.139 434.381 438.942 434.381C438.731 434.381 438.547 434.432 438.388 434.534C438.229 434.634 438.104 434.767 438.015 434.932C437.928 435.095 437.884 435.274 437.882 435.469V436.074C437.882 436.328 437.928 436.545 438.021 436.727C438.114 436.907 438.244 437.045 438.41 437.142C438.577 437.237 438.772 437.284 438.996 437.284C439.145 437.284 439.281 437.263 439.402 437.222C439.523 437.178 439.628 437.115 439.717 437.031C439.806 436.948 439.873 436.845 439.919 436.722L440.879 436.83C440.818 437.083 440.703 437.305 440.532 437.494C440.364 437.682 440.148 437.828 439.885 437.932C439.622 438.034 439.32 438.085 438.981 438.085ZM441.712 438V433.636H442.709V434.364H442.754C442.834 434.112 442.97 433.918 443.163 433.781C443.359 433.643 443.581 433.574 443.831 433.574C443.888 433.574 443.951 433.577 444.021 433.582C444.093 433.586 444.153 433.593 444.2 433.602V434.548C444.157 434.533 444.088 434.52 443.993 434.509C443.9 434.495 443.81 434.489 443.723 434.489C443.536 434.489 443.367 434.529 443.217 434.611C443.07 434.69 442.953 434.801 442.868 434.943C442.783 435.085 442.74 435.249 442.74 435.435V438H441.712ZM448.252 434.79L447.315 434.892C447.288 434.797 447.242 434.708 447.176 434.625C447.111 434.542 447.024 434.474 446.914 434.423C446.805 434.372 446.67 434.347 446.511 434.347C446.297 434.347 446.117 434.393 445.971 434.486C445.827 434.579 445.756 434.699 445.758 434.847C445.756 434.973 445.803 435.077 445.897 435.156C445.994 435.236 446.153 435.301 446.375 435.352L447.119 435.511C447.532 435.6 447.839 435.741 448.039 435.935C448.242 436.128 448.344 436.381 448.346 436.693C448.344 436.968 448.264 437.21 448.105 437.42C447.948 437.629 447.729 437.792 447.448 437.909C447.168 438.027 446.846 438.085 446.483 438.085C445.948 438.085 445.519 437.973 445.193 437.75C444.867 437.525 444.673 437.211 444.61 436.81L445.613 436.713C445.659 436.91 445.755 437.059 445.903 437.159C446.051 437.259 446.243 437.31 446.48 437.31C446.724 437.31 446.92 437.259 447.068 437.159C447.217 437.059 447.292 436.935 447.292 436.787C447.292 436.662 447.244 436.559 447.147 436.477C447.053 436.396 446.905 436.333 446.704 436.29L445.96 436.134C445.541 436.046 445.232 435.9 445.031 435.693C444.83 435.485 444.731 435.222 444.733 434.903C444.731 434.634 444.804 434.402 444.951 434.205C445.101 434.006 445.308 433.852 445.573 433.744C445.841 433.634 446.148 433.58 446.497 433.58C447.008 433.58 447.411 433.688 447.704 433.906C448 434.124 448.182 434.419 448.252 434.79ZM452.922 438.085C452.496 438.085 452.127 437.991 451.814 437.804C451.502 437.616 451.259 437.354 451.087 437.017C450.916 436.68 450.831 436.286 450.831 435.835C450.831 435.384 450.916 434.99 451.087 434.651C451.259 434.312 451.502 434.048 451.814 433.861C452.127 433.673 452.496 433.58 452.922 433.58C453.348 433.58 453.717 433.673 454.03 433.861C454.342 434.048 454.584 434.312 454.754 434.651C454.927 434.99 455.013 435.384 455.013 435.835C455.013 436.286 454.927 436.68 454.754 437.017C454.584 437.354 454.342 437.616 454.03 437.804C453.717 437.991 453.348 438.085 452.922 438.085ZM452.928 437.261C453.159 437.261 453.352 437.198 453.507 437.071C453.663 436.942 453.778 436.77 453.854 436.554C453.931 436.338 453.97 436.098 453.97 435.832C453.97 435.565 453.931 435.324 453.854 435.108C453.778 434.89 453.663 434.717 453.507 434.588C453.352 434.459 453.159 434.395 452.928 434.395C452.691 434.395 452.494 434.459 452.337 434.588C452.181 434.717 452.065 434.89 451.987 435.108C451.912 435.324 451.874 435.565 451.874 435.832C451.874 436.098 451.912 436.338 451.987 436.554C452.065 436.77 452.181 436.942 452.337 437.071C452.494 437.198 452.691 437.261 452.928 437.261ZM455.806 439.636V433.636H456.817V434.358H456.877C456.93 434.252 457.005 434.139 457.101 434.02C457.198 433.899 457.329 433.795 457.493 433.71C457.658 433.623 457.868 433.58 458.124 433.58C458.461 433.58 458.765 433.666 459.036 433.838C459.309 434.009 459.525 434.261 459.684 434.597C459.845 434.93 459.925 435.339 459.925 435.824C459.925 436.303 459.847 436.71 459.689 437.045C459.532 437.381 459.318 437.636 459.047 437.812C458.776 437.989 458.47 438.077 458.127 438.077C457.877 438.077 457.669 438.035 457.505 437.952C457.34 437.868 457.207 437.768 457.107 437.651C457.008 437.531 456.932 437.419 456.877 437.312H456.834V439.636H455.806ZM456.814 435.818C456.814 436.1 456.854 436.348 456.934 436.56C457.015 436.772 457.132 436.937 457.283 437.057C457.436 437.174 457.622 437.233 457.84 437.233C458.067 437.233 458.257 437.172 458.411 437.051C458.564 436.928 458.68 436.76 458.757 436.548C458.837 436.334 458.877 436.091 458.877 435.818C458.877 435.547 458.838 435.307 458.76 435.097C458.683 434.886 458.567 434.722 458.414 434.602C458.26 434.483 458.069 434.423 457.84 434.423C457.62 434.423 457.434 434.481 457.28 434.597C457.127 434.712 457.01 434.874 456.931 435.082C456.853 435.291 456.814 435.536 456.814 435.818ZM462.658 438.085C462.22 438.085 461.842 437.994 461.524 437.812C461.208 437.629 460.964 437.369 460.794 437.034C460.624 436.697 460.538 436.3 460.538 435.844C460.538 435.395 460.624 435.001 460.794 434.662C460.966 434.321 461.207 434.056 461.516 433.866C461.824 433.675 462.187 433.58 462.604 433.58C462.873 433.58 463.126 433.623 463.365 433.71C463.606 433.795 463.818 433.928 464.001 434.108C464.187 434.288 464.333 434.517 464.439 434.795C464.545 435.072 464.598 435.402 464.598 435.784V436.099H461.021V435.406H463.612C463.61 435.209 463.568 435.034 463.484 434.881C463.401 434.725 463.285 434.603 463.135 434.514C462.987 434.425 462.815 434.381 462.618 434.381C462.408 434.381 462.223 434.432 462.064 434.534C461.905 434.634 461.781 434.767 461.692 434.932C461.605 435.095 461.56 435.274 461.558 435.469V436.074C461.558 436.328 461.605 436.545 461.697 436.727C461.79 436.907 461.92 437.045 462.087 437.142C462.253 437.237 462.448 437.284 462.672 437.284C462.821 437.284 462.957 437.263 463.078 437.222C463.199 437.178 463.304 437.115 463.393 437.031C463.482 436.948 463.55 436.845 463.595 436.722L464.555 436.83C464.495 437.083 464.379 437.305 464.209 437.494C464.04 437.682 463.824 437.828 463.561 437.932C463.298 438.034 462.997 438.085 462.658 438.085ZM466.416 435.443V438H465.388V433.636H466.371V434.378H466.422C466.522 434.134 466.682 433.939 466.902 433.795C467.124 433.652 467.397 433.58 467.723 433.58C468.024 433.58 468.287 433.644 468.51 433.773C468.736 433.902 468.91 434.088 469.033 434.332C469.158 434.577 469.219 434.873 469.218 435.222V438H468.189V435.381C468.189 435.089 468.113 434.861 467.962 434.696C467.812 434.531 467.605 434.449 467.34 434.449C467.16 434.449 467 434.489 466.86 434.568C466.721 434.646 466.612 434.759 466.533 434.906C466.455 435.054 466.416 435.233 466.416 435.443ZM472.115 438.085C471.677 438.085 471.299 437.994 470.981 437.812C470.665 437.629 470.422 437.369 470.251 437.034C470.081 436.697 469.995 436.3 469.995 435.844C469.995 435.395 470.081 435.001 470.251 434.662C470.424 434.321 470.664 434.056 470.973 433.866C471.281 433.675 471.644 433.58 472.061 433.58C472.33 433.58 472.584 433.623 472.822 433.71C473.063 433.795 473.275 433.928 473.459 434.108C473.644 434.288 473.79 434.517 473.896 434.795C474.002 435.072 474.055 435.402 474.055 435.784V436.099H470.478V435.406H473.069C473.067 435.209 473.025 435.034 472.942 434.881C472.858 434.725 472.742 434.603 472.592 434.514C472.444 434.425 472.272 434.381 472.075 434.381C471.865 434.381 471.68 434.432 471.521 434.534C471.362 434.634 471.238 434.767 471.149 434.932C471.062 435.095 471.017 435.274 471.015 435.469V436.074C471.015 436.328 471.062 436.545 471.155 436.727C471.247 436.907 471.377 437.045 471.544 437.142C471.71 437.237 471.906 437.284 472.129 437.284C472.279 437.284 472.414 437.263 472.535 437.222C472.656 437.178 472.762 437.115 472.851 437.031C472.94 436.948 473.007 436.845 473.052 436.722L474.013 436.83C473.952 437.083 473.836 437.305 473.666 437.494C473.497 437.682 473.281 437.828 473.018 437.932C472.755 438.034 472.454 438.085 472.115 438.085ZM476.464 438.077C476.122 438.077 475.815 437.989 475.544 437.812C475.273 437.636 475.059 437.381 474.902 437.045C474.745 436.71 474.666 436.303 474.666 435.824C474.666 435.339 474.746 434.93 474.905 434.597C475.066 434.261 475.283 434.009 475.555 433.838C475.828 433.666 476.132 433.58 476.467 433.58C476.723 433.58 476.933 433.623 477.098 433.71C477.263 433.795 477.393 433.899 477.49 434.02C477.587 434.139 477.661 434.252 477.714 434.358H477.757V432.182H478.788V438H477.777V437.312H477.714C477.661 437.419 477.585 437.531 477.484 437.651C477.384 437.768 477.251 437.868 477.087 437.952C476.922 438.035 476.714 438.077 476.464 438.077ZM476.751 437.233C476.969 437.233 477.155 437.174 477.308 437.057C477.462 436.937 477.578 436.772 477.658 436.56C477.737 436.348 477.777 436.1 477.777 435.818C477.777 435.536 477.737 435.291 477.658 435.082C477.58 434.874 477.464 434.712 477.311 434.597C477.16 434.481 476.973 434.423 476.751 434.423C476.522 434.423 476.331 434.483 476.178 434.602C476.024 434.722 475.909 434.886 475.831 435.097C475.753 435.307 475.714 435.547 475.714 435.818C475.714 436.091 475.753 436.334 475.831 436.548C475.911 436.76 476.027 436.928 476.18 437.051C476.336 437.172 476.526 437.233 476.751 437.233Z" fill="#636369"/>
<rect x="-1" y="1" width="419" height="157" rx="7" transform="matrix(-1 0 0 1 511 400)" stroke="#E1E8F2" stroke-width="2" stroke-dasharray="8 8"/>
<defs>
<clipPath id="clip0_6587_41931">
<rect x="189.645" y="230" width="32" height="32" rx="16" fill="white"/>
</clipPath>
<clipPath id="clip1_6587_41931">
<rect x="165.645" y="230" width="32" height="32" rx="16" fill="white"/>
</clipPath>
<clipPath id="clip2_6587_41931">
<rect x="141.645" y="230" width="32" height="32" rx="16" fill="white"/>
</clipPath>
<clipPath id="clip3_6587_41931">
<rect width="22" height="22" fill="white" transform="translate(116 424)"/>
</clipPath>
</defs>
</svg>
