<svg xmlns="http://www.w3.org/2000/svg" xmlns:xlink="http://www.w3.org/1999/xlink" width="608" height="560" fill="none" xmlns:v="https://vecta.io/nano"><g stroke="#97969c" stroke-dasharray="4 4"><path d="M559.504-31.556v78.64m0 544.473v-280.31m0-65.742V97.287M457.312-31.179l.001 402.046m0 220.515V395.539M355.621-31.368v164.793m0 457.954v-81.246m0-293.993v244.395M252.93-31.179v90.743m0 531.81V83.867M150.739-31.366l-.001 373.692m0 249.057V425.4M48.547-31.558V152.27m0 439.102V288.354m0-90.065v72.832"/><path d="M0 487.054h330.227m277.773 0H379.607M0 383.261h112.263m495.737 0H469.346m-278.878 0h254.206M0 175.675h25.672m582.328 0H396.708m-80.708 0H73.358M0 279.468h39.48m568.521 0h-15.322m-65.324 0H57.12M0 71.882h239.558m368.442 0h-25.121m-48.339 0H265.522"/><use xlink:href="#D"/><path d="M559.48 95.8l10.183-13.818L583.48 71.8l-13.817-10.182L559.48 47.8l-10.182 13.818L535.48 71.8l13.818 10.182L559.48 95.8z"/><use xlink:href="#D" x="-307.019" y="-311.504"/><path d="M559.469 311.384l13.576-18.424 18.424-13.576-18.424-13.577-13.576-18.423-13.577 18.423-18.423 13.577 18.423 13.576 13.577 18.424zM150.754 423.29l16.97-23.029 23.03-16.971-23.03-16.971-16.97-23.029-16.971 23.029-23.029 16.971 23.029 16.971 16.971 23.029zm204.867-207.609l16.971-23.03 23.029-16.97-23.029-16.971-16.971-23.029-16.97 23.029-23.03 16.971 23.03 16.97 16.97 23.03z"/><circle r="12" transform="matrix(1 0 0 -1 457.246 383.261)"/><circle r="8" transform="matrix(1 0 0 -1 48.5469 279.468)"/><circle r="12" transform="matrix(1 0 0 -1 252.598 71.8818)"/></g><g transform="matrix(-1 0 0 1 543.328 73.4058)"><rect x="-2" y="2" width="441.955" height="422.315" rx="6" fill="#121212"/><rect x="-2" y="2" width="441.955" height="422.315" rx="6" stroke="#121212" stroke-width="4"/></g><g transform="matrix(-1 0 0 1 525.039 60.4863)"><rect x="-2" y="2" width="441.12" height="419.085" rx="6" fill="#f5f6f8"/><rect x="-2" y="2" width="441.12" height="419.085" rx="6" stroke="#121212" stroke-width="4"/></g><rect x="96" y="73.404" width="422" height="38" rx="4" fill="#fff"/><rect x="113" y="87.404" width="10" height="10" rx="5" fill="#eb5757"/><rect x="131" y="87.404" width="10" height="10" rx="5" fill="#f2c94c"/><rect x="149" y="87.404" width="10" height="10" rx="5" fill="#27ae60"/><g fill="#e7edf5"><path d="M492.438 86.404a1 1 0 1 0-2 0h2zm-2 12a1 1 0 1 0 2 0h-2zm0-12v12h2v-12h-2z"/><path d="M497.437 93.404a1 1 0 1 0 .001-2l-.001 2zm-11.999-2a1 1 0 1 0-.001 2l.001-2zm12 0h-12l-.001 2h12l.001-2z"/></g><rect x="-1" y="1" width="419" height="345" rx="7" transform="matrix(-1 0 0 1 514.836 124.438)" fill="#f5f6f8"/><path d="M149.382 161.938v-5.707l-.144-2.322h.18l.72 2.358 1.818 4.842h3.276l1.818-4.842.702-2.358h.198l-.144 2.322v5.707h2.7v-12.061h-3.798l-2.016 5.634-.954 3.096h-.18l-.972-3.096-2.106-5.634h-3.798v12.061h2.7zm17.397.18c2.592 0 4.248-1.135 4.248-3.061v-.18h-2.664v.108c0 .558-.468.792-1.548.792-1.476 0-1.98-.504-2.034-1.764h6.21c.054-.306.126-.827.126-1.332 0-2.358-1.602-3.978-4.32-3.978-2.826 0-4.554 1.836-4.554 4.735 0 2.861 1.422 4.68 4.536 4.68zm-.072-7.201c1.26 0 1.872.522 1.818 1.458h-3.726c.108-.954.612-1.458 1.908-1.458zm10.327 7.201c2.502 0 3.888-1.081 3.888-2.773 0-1.476-.792-2.34-2.7-2.699l-1.656-.343c-1.08-.216-1.242-.342-1.242-.774s.252-.666 1.332-.666c1.152 0 1.404.324 1.404.918v.252h2.574v-.252c0-2.034-1.692-3.078-3.906-3.078-2.574 0-3.942 1.188-3.942 2.862s.972 2.43 2.754 2.754l1.368.252c1.206.216 1.458.324 1.458.81 0 .45-.18.612-1.278.612-1.314 0-1.71-.144-1.71-.81v-.378h-2.574v.054c0 2.196 1.386 3.259 4.23 3.259zm9.628 0c2.502 0 3.888-1.081 3.888-2.773 0-1.476-.792-2.34-2.7-2.699l-1.656-.343c-1.08-.216-1.242-.342-1.242-.774s.252-.666 1.332-.666c1.152 0 1.404.324 1.404.918v.252h2.574v-.252c0-2.034-1.692-3.078-3.906-3.078-2.574 0-3.942 1.188-3.942 2.862s.972 2.43 2.754 2.754l1.368.252c1.206.216 1.458.324 1.458.81 0 .45-.18.612-1.278.612-1.314 0-1.71-.144-1.71-.81v-.378h-2.574v.054c0 2.196 1.386 3.259 4.23 3.259zm8.187 0c1.674 0 2.592-.739 3.078-1.405h.108v1.225h2.502v-5.365c0-2.412-1.404-3.87-4.068-3.87-2.556 0-4.23 1.422-4.23 3.582v.198h2.574v-.198c0-.918.432-1.224 1.53-1.224 1.062 0 1.638.198 1.638 1.26v.288l-3.096.468c-1.872.288-2.88 1.152-2.88 2.556 0 1.638 1.242 2.485 2.844 2.485zm-.27-2.701c0-.378.252-.558.81-.648l2.592-.396c0 1.404-1.134 1.692-2.232 1.692-.792 0-1.17-.162-1.17-.648zm11.557 1.566c1.368 0 2.322-.612 2.718-1.314h.108v1.404c0 1.405-.288 1.729-1.71 1.729-1.548 0-1.818-.234-1.818-1.171h-2.682c0 2.305 1.584 3.547 4.41 3.547 2.916 0 4.482-1.296 4.482-4.249v-8.046h-2.502v1.314h-.09c-.486-.99-1.512-1.494-2.808-1.494-2.574 0-3.942 1.638-3.942 4.158s1.332 4.122 3.834 4.122zm-1.152-4.122c0-1.278.45-1.872 1.998-1.872 1.296 0 1.98.45 1.98 1.602v.54c0 1.152-.702 1.602-1.998 1.602-1.53 0-1.98-.594-1.98-1.872zm12.958 5.257c2.592 0 4.248-1.135 4.248-3.061v-.18h-2.664v.108c0 .558-.468.792-1.548.792-1.476 0-1.98-.504-2.034-1.764h6.21c.054-.306.126-.827.126-1.332 0-2.358-1.602-3.978-4.32-3.978-2.826 0-4.554 1.836-4.554 4.735 0 2.861 1.422 4.68 4.536 4.68zm-.072-7.201c1.26 0 1.872.522 1.818 1.458h-3.726c.108-.954.612-1.458 1.908-1.458zm10.327 7.201c2.502 0 3.888-1.081 3.888-2.773 0-1.476-.792-2.34-2.7-2.699l-1.656-.343c-1.08-.216-1.242-.342-1.242-.774s.252-.666 1.332-.666c1.152 0 1.404.324 1.404.918v.252h2.574v-.252c0-2.034-1.692-3.078-3.906-3.078-2.574 0-3.942 1.188-3.942 2.862s.972 2.43 2.754 2.754l1.368.252c1.206.216 1.458.324 1.458.81 0 .45-.18.612-1.278.612-1.314 0-1.71-.144-1.71-.81v-.378h-2.574v.054c0 2.196 1.386 3.259 4.23 3.259z" fill="#000"/><g clip-path="url(#A)"><path d="M124.114 152.271a.61.61 0 0 1-.611.611h-3.056a.61.61 0 1 1 0-1.222h3.056a.61.61 0 0 1 .611.611zm-1.223 3.055a.61.61 0 0 1-.611.611h-1.833a.61.61 0 1 1 0-1.222h1.833a.61.61 0 0 1 .611.611zm-1.222 3.056a.61.61 0 0 1-.611.611h-.611a.61.61 0 1 1 0-1.222h.611a.61.61 0 0 1 .611.611z" fill="#55acee"/><path d="M139.575 160.215c-.382 1.35-1.787 2.445-3.137 2.445h-12.222c-1.35 0-2.134-1.095-1.752-2.445l2.077-7.333c.382-1.35 1.787-2.444 3.136-2.444H139.9c1.35 0 2.134 1.094 1.752 2.444l-2.077 7.333z" fill="#ccd6dd"/><g fill="#99aab5"><path d="M130.43 155.715l-7.915 5.691c-.021.017-.033.039-.052.056.109.348.316.637.606.846.022-.015.045-.021.066-.037l7.915-5.692c.306-.239.416-.625.245-.864s-.558-.239-.865 0zm8.439 5.747c-.009-.017-.009-.039-.02-.055l-4.69-5.692c-.172-.239-.558-.239-.865 0s-.416.625-.245.864l4.691 5.692c.011.016.031.022.044.037a3.69 3.69 0 0 0 1.085-.846z"/><path d="M141.652 152.882c.383-1.35-.402-2.444-1.752-2.444h-12.222c-1.35 0-2.754 1.094-3.137 2.444l-.013.045 5.382 5.165c.996.968 2.315.902 3.498.227l8.084-4.867.16-.57z"/></g><path d="M139.9 150.438h-12.222c-.965 0-1.949.562-2.577 1.373l5.632 5.374c.458.44 1.488.446 2.234 0l8.736-5.358c-.163-.819-.833-1.389-1.803-1.389z" fill="#e1e8ed"/></g><path stroke="#dfe7f2" stroke-width="2" d="M119.836 181.959h364.145"/><rect x="453.984" y="140.938" width="30" height="30" rx="4" fill="#fff"/><g fill="#b3c2d8"><path d="M469.984 149.938a1 1 0 1 0-2 0h2zm-2 12a1 1 0 1 0 2 0h-2zm0-12v12h2v-12h-2z"/><path d="M474.984 156.938a1 1 0 1 0 0-2v2zm-12-2.001a1 1 0 1 0 0 2v-2zm12 .001l-12-.001v2l12 .001v-2z"/></g><rect x="119.836" y="223.98" width="170" height="122" rx="8" fill="#f1eaff"/><path d="M134.503 312.762l3.408 2.082c3.407 2.082 10.222 6.246 17.037 3.398s13.631-12.705 20.446-12.445 13.63 10.638 20.445 15.764 13.631 5 20.446 3.356 13.63-4.807 20.445-11.163 13.63-15.905 20.446-22.759" stroke="#c6a9ff" stroke-width="2" stroke-linecap="round"/><path d="M146.66 279.395c6.2 0 10.36-2.52 10.36-7.68 0-3.84-2.24-6.24-5.92-6.76v-.16c3.4-.48 4.96-2.76 4.96-5.84 0-4.68-3.6-7.16-9.64-7.16-6.72 0-10.32 3.48-10.32 8.6v.36h4.24v-.32c0-3.36 1.4-4.68 6.04-4.68 3.76 0 5.36 1.08 5.36 3.88s-1.36 3.68-4.88 3.68h-4.76v3.6h5.36c3.72 0 5.2 1 5.2 4.36 0 3.12-1.68 4.16-5.92 4.16-5.28 0-6.4-1.32-6.4-4.68v-.6h-4.24v.64c0 5.12 2.92 8.6 10.56 8.6zm23.823 0c7.4 0 10.72-3.6 10.72-9.16 0-5.4-3.48-8.6-9.2-8.6-3.52 0-6.04 1.08-7.44 2.24h-.12l.64-7.8h14.68v-3.88h-18.48l-.92 14.24 3.8.6c1.32-.76 3.24-1.68 6.52-1.68 4.52 0 6.24 1.4 6.24 5 0 3.76-1.56 5.08-6.28 5.08-4.44 0-6.44-1.04-6.44-4.04v-.24h-4.28v.24c0 4.92 3.6 8 10.56 8zm25.473 0c7.2 0 11.6-5.32 11.6-13.8s-4.4-13.8-11.6-13.8-11.56 5.32-11.56 13.8 4.36 13.8 11.56 13.8zm0-4.16c-4.76 0-6.96-2.56-6.96-9.64s2.2-9.64 6.96-9.64 7 2.56 7 9.64-2.24 9.64-7 9.64zm-50.43-63.115c2.66 0 3.668-1.344 3.668-2.842 0-1.372-.672-2.408-2.646-2.786l-1.666-.322c-1.092-.21-1.344-.35-1.344-.952 0-.588.378-.854 1.582-.854 1.386 0 1.792.322 1.792 1.302v.154h2.072v-.112c0-1.862-1.12-3.248-3.794-3.248-2.688 0-3.738 1.414-3.738 2.842 0 1.456.756 2.366 2.548 2.674l1.652.294c1.316.224 1.456.448 1.456 1.078s-.294.868-1.484.868c-1.694 0-2.072-.294-2.072-1.33v-.14h-2.058v.182c0 2.072 1.274 3.192 4.032 3.192zm8.39 0c2.016 0 3.304-.882 3.304-2.38v-.14h-2.072v.084c0 .434-.364.616-1.204.616-1.148 0-1.54-.392-1.582-1.372h4.83c.042-.238.098-.644.098-1.036 0-1.834-1.246-3.094-3.36-3.094-2.198 0-3.542 1.428-3.542 3.682 0 2.226 1.106 3.64 3.528 3.64zm-.056-5.6c.98 0 1.456.406 1.414 1.134h-2.898c.084-.742.476-1.134 1.484-1.134zm7.082 5.46v-3.99c0-1.064.434-1.386 1.442-1.386 1.064 0 1.386.35 1.386 1.33v4.046h2.1v-4.466c0-1.498-.784-2.716-2.618-2.716-1.232 0-1.988.574-2.366 1.372h-.084v-1.232h-1.946v7.042h2.086zm9.911.028c.49 0 1.036-.07 1.372-.14v-1.75h-.868c-.91 0-1.12-.07-1.12-.686v-2.758h1.988v-1.736h-1.988V203.3h-1.652l-.392 1.638h-1.176v1.736h1.12v2.996c0 1.666.882 2.338 2.716 2.338z" fill="#000"/><g clip-path="url(#B)"><path d="M136.055 206.957l-4.202-1.555-1.569-5.143c-.061-.199-.245-.335-.452-.335a.47.47 0 0 0-.451.335l-1.569 5.143-4.203 1.555c-.185.069-.308.245-.308.443s.123.375.308.443l4.201 1.555 1.569 5.3c.06.2.244.337.453.337s.393-.137.453-.338l1.57-5.299 4.201-1.555a.47.47 0 0 0 .307-.443c0-.197-.123-.374-.308-.443z" fill="#ffac33"/><path d="M126.611 212.152l-1.092-.404-.425-1.558c-.056-.206-.243-.349-.456-.349a.47.47 0 0 0-.455.348l-.425 1.558-1.093.405a.47.47 0 0 0-.308.443c0 .197.123.374.308.443l1.087.402.428 1.711c.053.209.242.357.458.357a.47.47 0 0 0 .458-.358l.429-1.71 1.086-.403a.47.47 0 0 0 0-.885zm-2.048-10.23l-1.116-.413-.414-1.117c-.069-.185-.245-.308-.443-.308s-.374.123-.443.308l-.413 1.117-1.117.413a.47.47 0 0 0-.308.443.47.47 0 0 0 .308.443l1.117.413.413 1.117c.069.186.246.309.443.309s.374-.123.443-.309l.413-1.117 1.117-.413c.185-.069.308-.245.308-.443s-.123-.374-.308-.443z" fill="#ffcc4d"/></g><path d="M339.292 211.98c3.01 0 4.858-1.75 4.858-4.69s-1.848-4.69-4.858-4.69h-3.584v9.38h3.584zm-.028-7.49c1.904 0 2.632.574 2.632 2.8s-.728 2.8-2.632 2.8h-1.456v-5.6h1.456zm9.754 7.63c2.016 0 3.304-.882 3.304-2.38v-.14h-2.072v.084c0 .434-.364.616-1.204.616-1.148 0-1.54-.392-1.582-1.372h4.83c.042-.238.098-.644.098-1.036 0-1.834-1.246-3.094-3.36-3.094-2.198 0-3.542 1.428-3.542 3.682 0 2.226 1.106 3.64 3.528 3.64zm-.056-5.6c.98 0 1.456.406 1.414 1.134h-2.898c.084-.742.476-1.134 1.484-1.134zm7.096 5.46v-9.38h-2.086v9.38h2.086zm3.825-7.84v-1.54h-2.086l.028 1.54h2.058zm.042 7.84v-7.042h-2.1v7.042h2.1zm6.312 0l2.744-7.042h-2.296l-1.68 5.026h-.154l-1.68-5.026h-2.338l2.73 7.042h2.674zm6.855.14c2.016 0 3.304-.882 3.304-2.38v-.14h-2.072v.084c0 .434-.364.616-1.204.616-1.148 0-1.54-.392-1.582-1.372h4.83c.042-.238.098-.644.098-1.036 0-1.834-1.246-3.094-3.36-3.094-2.198 0-3.542 1.428-3.542 3.682 0 2.226 1.106 3.64 3.528 3.64zm-.056-5.6c.98 0 1.456.406 1.414 1.134h-2.898c.084-.742.476-1.134 1.484-1.134zm7.082 5.46v-4.41c0-.77.308-.994.952-.994.658 0 .896.238.896.994v.378h2.086v-.644c0-1.414-.546-2.506-2.016-2.506-.994 0-1.624.56-1.974 1.274h-.084v-1.134h-1.946v7.042h2.086zm8.6.14c2.016 0 3.304-.882 3.304-2.38v-.14h-2.072v.084c0 .434-.364.616-1.204.616-1.148 0-1.54-.392-1.582-1.372h4.83c.042-.238.098-.644.098-1.036 0-1.834-1.246-3.094-3.36-3.094-2.198 0-3.542 1.428-3.542 3.682 0 2.226 1.106 3.64 3.528 3.64zm-.056-5.6c.98 0 1.456.406 1.414 1.134h-2.898c.084-.742.476-1.134 1.484-1.134zm7.878 5.6c1.036 0 1.834-.42 2.198-1.176h.07v1.036h1.946v-9.38h-2.086v3.262h-.084c-.322-.588-.966-1.064-2.044-1.064-1.918 0-3.052 1.442-3.052 3.668 0 2.212 1.064 3.654 3.052 3.654zm-.966-3.654c0-1.288.336-1.876 1.554-1.876.994 0 1.54.35 1.54 1.302v1.134c0 .952-.546 1.302-1.54 1.302-1.218 0-1.554-.588-1.554-1.862z" fill="#000"/><g clip-path="url(#C)"><path d="M324.439 214.563c0 1.043-3.778 1.043-3.778 0v-4.722a1.89 1.89 0 0 1 1.889-1.889 1.89 1.89 0 0 1 1.889 1.889v4.722z" fill="#c1694f"/><path d="M318.772 200.396a3.78 3.78 0 0 0-3.778 3.778v5.667h7.556v-5.667a3.78 3.78 0 0 0-3.778-3.778z" fill="#292f33"/><path d="M323.494 207.84c0 .583-.503 1.057-1.083 1.057h-7.278c-.581 0-1.083-.474-1.083-1.057v-4.969c0-.584.502-1.058 1.083-1.058h7.278c.58 0 1.083.474 1.083 1.058v4.969z" fill="#ccd6dd"/><path d="M323.494 202.871c0-.584-.503-1.058-1.083-1.058h-7.278c-.581 0-1.083.474-1.083 1.058v.67l2.304 2.316-2.257 2.269c.052.178.149.338.281.464l2.348-2.36 1.137 1.142a1.27 1.27 0 0 0 1.804 0l1.145-1.148 2.354 2.366a1.06 1.06 0 0 0 .281-.464l-2.262-2.275 2.309-2.316v-.664z" fill="#99aab5"/><path d="M322.412 201.813h-7.279c-.551 0-1.026.428-1.073.971l3.97 3.965c.41.413 1.075.397 1.485-.016l3.972-3.942c-.045-.546-.523-.978-1.075-.978z" fill="#e1e8ed"/><path d="M326.328 200.396h-7.556a3.78 3.78 0 0 1 3.778 3.778v5.667h7.556v-5.667a3.78 3.78 0 0 0-3.778-3.778z" fill="#99aab5"/><path d="M326.327 199.452h-1.888c-.522 0-.945.423-.945.945v5.666c0 .522.423.945.945.945s.944-.423.944-.945v-3.778h.944c.522 0 .945-.423.945-.944v-.944c0-.522-.423-.945-.945-.945z" fill="#dd2e44"/></g><rect x="314.05" y="223.98" width="170" height="122" rx="8" fill="#eaeeff"/><path d="M328.714 312.761l3.612 2.082c3.612 2.082 10.835 6.246 18.059 3.399s14.447-12.705 21.671-12.445 14.447 10.638 21.671 15.764 14.447 4.999 21.671 3.355 14.447-4.806 21.671-11.162 14.447-15.905 21.671-22.759" stroke="#8199fd" stroke-width="2" stroke-linecap="round"/><path d="M340.874 279.395c6.2 0 10.36-2.52 10.36-7.68 0-3.84-2.24-6.24-5.92-6.76v-.16c3.4-.48 4.96-2.76 4.96-5.84 0-4.68-3.6-7.16-9.64-7.16-6.72 0-10.32 3.48-10.32 8.6v.36h4.24v-.32c0-3.36 1.4-4.68 6.04-4.68 3.76 0 5.36 1.08 5.36 3.88s-1.36 3.68-4.88 3.68h-4.76v3.6h5.36c3.72 0 5.2 1 5.2 4.36 0 3.12-1.68 4.16-5.92 4.16-5.28 0-6.4-1.32-6.4-4.68v-.6h-4.24v.64c0 5.12 2.92 8.6 10.56 8.6zm21.475-.4v-26.8h-3.8c-1.12 2.4-2.6 3.32-5.12 3.32h-1.04v3.08h5.64v20.4h4.32zm16.141.4c7.2 0 11.6-5.32 11.6-13.8s-4.4-13.8-11.6-13.8-11.56 5.32-11.56 13.8 4.36 13.8 11.56 13.8zm0-4.16c-4.76 0-6.96-2.56-6.96-9.64s2.2-9.64 6.96-9.64 7 2.56 7 9.64-2.24 9.64-7 9.64z" fill="#000"/><rect x="120.05" y="361.938" width="364" height="93" rx="8" fill="#fff"/><g fill="#eef1f7"><rect x="146.815" y="384.938" width="79" height="10" rx="5"/><rect x="246.05" y="384.938" width="203" height="10" rx="5"/><rect x="147.05" y="418.938" width="258" height="10" rx="5"/></g><rect x="-1" y="1" width="419" height="345" rx="7" transform="matrix(-1 0 0 1 514.836 124.438)" stroke="#e1e8f2" stroke-width="2" stroke-dasharray="8 8"/><defs><clipPath id="A"><path fill="#fff" transform="translate(119.836 144.938)" d="M0 0h22v22H0z"/></clipPath><clipPath id="B"><path fill="#fff" transform="translate(119.836 198.98)" d="M0 0h17v17H0z"/></clipPath><clipPath id="C"><path fill="#fff" transform="translate(314.05 198.98)" d="M0 0h17v17H0z"/></clipPath><path id="D" d="M355.621 511.034l10.182-13.817 13.818-10.183-13.818-10.182-10.182-13.818-10.182 13.818-13.818 10.182 13.818 10.183 10.182 13.817z"/></defs></svg>