<svg xmlns="http://www.w3.org/2000/svg" xmlns:xlink="http://www.w3.org/1999/xlink" width="608" height="561" fill="none" xmlns:v="https://vecta.io/nano"><style><![CDATA[.B{stroke-linejoin:round}.C{stroke:#121212}.D{stroke-linecap:round}.E{stroke-miterlimit:10}.F{fill:#121212}.G{fill:#fff}.H{stroke-width:.12}.I{stroke:#001432}.J{stroke-width:.121}.K{fill:#c77250}.L{fill:#7c1700}.M{stroke-width:4}.N{fill:#f5f6f8}.O{stroke-width:2}.P{stroke-width:.123}.Q{fill:#a35235}.R{fill:#f9c833}.S{stroke-dasharray:8 8}]]></style><g stroke="#97969c" stroke-dasharray="4 4"><path d="M48.496-30.96v78.64m0 544.473v-280.31m0-65.742V97.883M150.688-30.583l-.001 402.045m0 220.516V396.135M252.379-30.772v164.794m0 457.954V510.73m0-293.993V461.13M355.07-30.583V60.16m0 531.811V84.463M457.261-30.77l.001 373.693m0 249.057V425.995M559.453-30.962v183.828m0 439.102V288.95m0-90.065v72.831"/><path d="M608 487.649H277.773M0 487.649h228.393M608 383.856H495.737M0 383.856h138.654m278.878 0H163.326M608 176.271h-25.672M0 176.271h211.292m80.708 0h242.642M608 280.063h-39.48m-568.52 0h15.322m65.323 0H550.88M608 72.478H368.442M0 72.478h25.121m48.339 0h269.018"/><path d="M252.379 511.63l-10.182-13.818-13.818-10.182 13.818-10.182 10.182-13.818 10.182 13.818 13.818 10.182-13.818 10.182-10.182 13.818zM48.52 96.396L38.337 82.578 24.52 72.396l13.818-10.182L48.52 48.396l10.182 13.818L72.52 72.396 58.702 82.578 48.52 96.396zm510.878 103.73l-10.182-13.818-13.818-10.182 13.818-10.182 10.182-13.818 10.183 13.818 13.817 10.182-13.817 10.182-10.183 13.818zM48.531 311.979l-13.576-18.423-18.424-13.577 18.424-13.576 13.576-18.424 13.577 18.424 18.423 13.576-18.423 13.577-13.577 18.423zm408.715 111.907l-16.97-23.03-23.03-16.97 23.03-16.971 16.97-23.029 16.971 23.029 23.029 16.971-23.029 16.97-16.971 23.03zm-204.867-207.61l-16.971-23.029-23.029-16.971 23.029-16.97 16.971-23.03 16.97 23.03 23.03 16.97-23.03 16.971-16.97 23.029z"/><circle cx="150.754" cy="383.856" r="12" transform="rotate(180 150.754 383.856)"/><circle cx="559.453" cy="280.063" r="8" transform="rotate(180 559.453 280.063)"/><circle cx="355.402" cy="72.478" r="12" transform="rotate(180 355.402 72.478)"/></g><g transform="matrix(-1 0 0 1 502 74)"><rect x="-2" y="2" width="442" height="273" rx="6" class="F"/><rect x="-2" y="2" width="442" height="273" rx="6" class="C M"/></g><g transform="matrix(-1 0 0 1 521 61)"><rect x="-2" y="2" width="441" height="262" rx="6" class="N"/><rect x="-2" y="2" width="441" height="262" rx="6" class="C M"/></g><rect x="91.786" y="74" width="422" height="38" rx="4" class="G"/><rect x="108.786" y="88" width="10" height="10" rx="5" fill="#eb5757"/><rect x="126.786" y="88" width="10" height="10" rx="5" fill="#f2c94c"/><rect x="144.786" y="88" width="10" height="10" rx="5" fill="#27ae60"/><g fill="#e7edf5"><path d="M488.224 87a1 1 0 1 0-2 0h2zm-2 12a1 1 0 1 0 2 0h-2zm0-12v12h2V87h-2z"/><path d="M493.224 94a1 1 0 1 0 0-2v2zm-12-2a1 1 0 1 0 0 2v-2zm12 0h-12v2h12v-2z"/></g><rect x="-1" y="1" width="419" height="185" rx="7" transform="matrix(-1 0 0 1 511 125)" class="N"/><path d="M148.084 166.18c3.51 0 5.292-1.872 5.292-4.878v-7.362h-2.7v7.326c0 1.728-.612 2.304-2.592 2.304-1.998 0-2.61-.576-2.61-2.304v-7.326h-2.682v7.362c0 3.006 1.782 4.878 5.292 4.878zm11.444 0c2.502 0 3.888-1.08 3.888-2.772 0-1.476-.792-2.34-2.7-2.7l-1.656-.342c-1.08-.216-1.242-.342-1.242-.774s.252-.666 1.332-.666c1.152 0 1.404.324 1.404.918v.252h2.574v-.252c0-2.034-1.692-3.078-3.906-3.078-2.574 0-3.942 1.188-3.942 2.862s.972 2.43 2.754 2.754l1.368.252c1.206.216 1.458.324 1.458.81 0 .45-.18.612-1.278.612-1.314 0-1.71-.144-1.71-.81v-.378h-2.574v.054c0 2.196 1.386 3.258 4.23 3.258zm9.862 0c2.592 0 4.248-1.134 4.248-3.06v-.18h-2.664v.108c0 .558-.468.792-1.548.792-1.476 0-1.98-.504-2.034-1.764h6.21a8.16 8.16 0 0 0 .126-1.332c0-2.358-1.602-3.978-4.32-3.978-2.826 0-4.554 1.836-4.554 4.734 0 2.862 1.422 4.68 4.536 4.68zm-.072-7.2c1.26 0 1.872.522 1.818 1.458h-3.726c.108-.954.612-1.458 1.908-1.458zm8.925 7.02v-5.67c0-.99.396-1.278 1.224-1.278.846 0 1.152.306 1.152 1.278v.486h2.682v-.828c0-1.818-.702-3.222-2.592-3.222-1.278 0-2.088.72-2.538 1.638h-.108v-1.458h-2.502V166h2.682zm16.229.18c3.564 0 5.49-1.872 5.49-4.86v-.162h-2.88v.09c0 1.728-.72 2.322-2.628 2.322-2.034 0-2.88-.738-2.88-3.6s.846-3.6 2.88-3.6c1.908 0 2.628.594 2.628 2.322v.09h2.88v-.162c0-2.988-1.926-4.86-5.49-4.86-3.618 0-5.778 2.448-5.778 6.21s2.16 6.21 5.778 6.21zm10.159-.18v-12.06h-2.682V166h2.682zm4.738-10.08v-1.98h-2.682l.036 1.98h2.646zm.054 10.08v-9.054h-2.7V166h2.7zm6.204.18c2.502 0 4.32-1.476 4.32-3.708v-.216h-2.7v.144c0 1.026-.576 1.368-1.692 1.368-1.296 0-1.854-.612-1.854-2.286 0-1.692.558-2.304 1.854-2.304 1.116 0 1.692.342 1.692 1.368v.144h2.7v-.216c0-2.232-1.764-3.708-4.176-3.708-3.024 0-4.734 1.836-4.734 4.734 0 2.862 1.602 4.68 4.59 4.68zm8.782-.18v-3.294h1.386l1.98 3.294h3.096l-2.934-4.734 2.952-4.32h-3.096l-2.052 3.348h-1.332v-6.354h-2.682V166h2.682zm11.469.18c2.502 0 3.888-1.08 3.888-2.772 0-1.476-.792-2.34-2.7-2.7l-1.656-.342c-1.08-.216-1.242-.342-1.242-.774s.252-.666 1.332-.666c1.152 0 1.404.324 1.404.918v.252h2.574v-.252c0-2.034-1.692-3.078-3.906-3.078-2.574 0-3.942 1.188-3.942 2.862s.972 2.43 2.754 2.754l1.368.252c1.206.216 1.458.324 1.458.81 0 .45-.18.612-1.278.612-1.314 0-1.71-.144-1.71-.81v-.378h-2.574v.054c0 2.196 1.386 3.258 4.23 3.258z" fill="#000"/><path d="M116.611 159.389l4.889-4.278 9.778.611.611 9.778-4.278 4.889s.001-3.666-3.666-7.333-7.334-3.667-7.334-3.667z" fill="#a0041e"/><path d="M116.595 170.389s-.022-4.876 1.824-6.722 6.748-1.719 6.748-1.719-.001 4.774-1.834 6.608-6.738 1.833-6.738 1.833z" fill="#ffac33"/><path d="M121.499 167.945c1.35 0 2.445-1.095 2.445-2.445s-1.095-2.444-2.445-2.444-2.444 1.094-2.444 2.444 1.094 2.445 2.444 2.445z" fill="#ffcc4d"/><path d="M138 149s-6.111 0-13.445 6.111c-3.666 3.056-3.666 8.556-2.444 9.778s6.722 1.222 9.778-2.445C138 155.111 138 149 138 149z" fill="#55acee"/><path d="M132.499 152.056c-.991 0-1.841.593-2.225 1.442.307-.139.645-.22 1.003-.22 1.35 0 2.445 1.094 2.445 2.444a2.44 2.44 0 0 1-.22 1.003c.849-.384 1.442-1.233 1.442-2.225 0-1.35-1.095-2.444-2.445-2.444z" fill="#000"/><path d="M120.889 166.111s0-2.444.611-3.055 7.945-6.722 8.555-6.111-5.5 7.944-6.111 8.555-3.055.611-3.055.611z" fill="#a0041e"/><path stroke="#dfe7f2" d="M116 186.021h364.145" class="O"/><rect x="118.214" y="214" width="362" height="64" rx="8" class="G"/><g fill="#eef1f7"><rect x="269.214" y="239" width="92" height="14" rx="7"/><rect x="395.214" y="239" width="61" height="14" rx="7"/></g><g clip-path="url(#A)"><rect x="189.645" y="230" width="32" height="32" rx="16" fill="#b3c2fe"/><g fill="#bd6446"><path d="M200.376 239.406v3.456c-.74 0-1.345-.778-1.345-1.728s.605-1.728 1.345-1.728zm13.601 1.728v.074.037.05.049.049c0 .013 0 .038-.012.05 0 .012 0 .037-.013.049 0 .013 0 .037-.012.05v.024c0 .025-.012.037-.012.062s-.013.037-.013.062-.012.037-.012.061c0 .013-.012.037-.012.05 0 .024-.013.037-.013.049-.012.037-.024.074-.049.111-.012.013-.012.037-.025.05-.061.148-.148.271-.247.394l-.037.038-.061.061-.087.087c-.012.012-.024.012-.024.024-.025.013-.037.037-.062.05l-.012.012c-.013.012-.037.025-.05.037s-.024.012-.049.025c-.012.012-.025.012-.049.024l-.186.074c-.012 0-.024.013-.037.013-.024 0-.049.012-.061.012s-.037.012-.05.012h-.024-.062-.037-.025-.012l.012-2.073v-1.37h.037.037.037.037c.05.012.087.012.136.025.012 0 .012 0 .025.012.012 0 .024.013.024.013.013 0 .013 0 .025.012.012 0 .012.012.025.012.024.013.049.025.061.025.025.012.037.025.062.025.025.012.037.024.062.037s.037.024.062.037c.037.024.074.061.111.086l.049.049.037.037.037.037c.025.025.037.037.049.062l.112.161c.012.012.024.024.024.049a1.82 1.82 0 0 1 .222.58c0 .025.013.049.013.086 0 .013 0 .025.012.05 0 .012 0 .037.012.049 0 .025.013.062.013.087a.16.16 0 0 0 .012.074v.074c0-.013 0 .012 0 .024z"/></g><path d="M211.348 252.501c-.024 2.653-2.172 4.788-4.825 4.788s-4.801-2.135-4.826-4.788c.469 0 .901-.198 1.21-.506a1.79 1.79 0 0 0 .432-.716c.049-.161.074-.321.074-.506v-3.703h6.22v3.703c0 .962.765 1.728 1.715 1.728z" fill="#c67250"/><path d="M209.633 247.095v2.172c-1.123 1.345-2.851 2.209-4.789 2.209a6.18 6.18 0 0 1-1.518-.185 1.65 1.65 0 0 0 .074-.506v-3.702h6.233v.012z" fill="#a15235"/><path d="M211.62 236.111c.556 1.185 1.049 1.555 1.049 2.962v.333 1.37l-.012 2.073-.012.914c0 2.159-1.21 4.06-3.012 5.084-.296.173-.605.309-.925.432-.605.223-1.235.346-1.901.383l-.296.012a6.18 6.18 0 0 1-2.358-.456c-.259-.099-.506-.222-.74-.358-1.814-1.025-3.036-2.925-3.036-5.097v-.914-3.455-.321c0-1.617.58-2.185 1.185-3.295a5.63 5.63 0 0 1 4.949-2.938l1.592.235c.062.025.123.037.185.062a5.49 5.49 0 0 1 1.246.592c.025.012.062.037.087.049l.16.111c.05.037.111.074.161.124.21.16.407.333.592.53l.074.075c.05.049.087.098.136.148.136.148.259.308.37.469l.173.246.333.63z" fill="#c67250"/><path d="M212.656 239.073v.333.408c-.173-.469-.543-1.494-.839-1.988-.21-.37-.234-.962-.346-1.481-.111-.53-.58-.913-1.11-.913h-7.714c-.543 0-1.012.383-1.111.913-.111.519-.123 1.111-.345 1.481-.272.469-.63 1.407-.802 1.901v-.666c0-1.617.58-2.185 1.184-3.296.988-1.814 2.888-2.937 4.949-2.937a5.64 5.64 0 0 1 3.037.889c.888.567 1.616 1.382 2.085 2.382.531 1.197 1.012 1.567 1.012 2.974z" fill="#77403a"/><g stroke="#fdbfd9" class="B D E P"><path d="M200.377 240.813s-.58-.691-.963-.098m13.231.098s.419-.728.999-.173"/></g><g class="F"><path d="M204.141 249.23c.283.136.481.309.715.432.26.148.482.395.753.457.284.062.593-.099.864-.111.296-.025.617.086.876.012.297-.086.519-.345.753-.456l.815-.371c-.012 0-2.481 1.099-4.776.037z"/><use xlink:href="#E"/></g><use xlink:href="#F" fill="#333"/><g stroke="#333" class="B D E P"><path d="M201.216 254.216s.333.099.765-.098m6.467 2.789s.321.419.222.666m1.937-2.481s.05.235.531.334m1.371-1.666s-.383-.198-.716-.099m-8.517 3.924s.482-.234.63-.666"/></g><use xlink:href="#G" class="F"/><path d="M203.031 239.542s.79-.592 1.58 0" class="B C D P"/><path d="M208.017 238.234c-.013.098.493.247 1.135.321.482.061 1.037.037 1.444.333-.222-.593-.851-.642-1.407-.704-.629-.074-1.16-.061-1.172.05z" class="F"/><g class="B C P"><path d="M210.004 239.542s-.79-.592-1.58 0" class="D"/><path d="M212.657 239.406v1.37l-.013 2.073-.012.914c0 3.258-2.74 5.911-6.134 5.911-3.382 0-6.134-2.641-6.134-5.911v-4.69c0-1.617.58-2.185 1.185-3.295a5.63 5.63 0 0 1 4.949-2.938c2.197 0 4.184 1.272 5.11 3.259.555 1.184 1.049 1.555 1.049 2.962v.345z"/><g class="D"><path d="M200.376 242.862c-.74 0-1.345-.778-1.345-1.728s.605-1.728 1.345-1.728m.001 1.407s-.58-.691-.963-.098m13.231 2.147c.74 0 1.345-.778 1.345-1.728s-.605-1.728-1.345-1.728"/><path d="M212.645 240.813s.419-.728.999-.173m-7.134-1.678l.333 2.16c.099.296.025.629-.185.864l-.506.53m-1.184 1.815s2.061 1.234 3.085-1.074"/></g><path d="M204.141 249.23c.283.136.481.308.715.432.26.148.482.395.753.456.284.062.593-.098.864-.111.296-.024.617.087.876.013.297-.087.519-.346.753-.457l.815-.37c-.012 0-2.481 1.098-4.776.037z"/><path d="M209.633 248.86v1.938a1.71 1.71 0 0 0 1.715 1.715c-.024 2.653-2.172 4.789-4.825 4.789s-4.801-2.136-4.826-4.789a1.71 1.71 0 0 0 1.716-1.715v-1.926" class="D"/><use xlink:href="#E"/><use xlink:href="#F"/><g class="D"><path d="M201.216 254.216s.333.099.765-.099m6.467 2.79s.321.419.222.666m1.937-2.481s.05.235.531.334m1.371-1.667s-.383-.197-.716-.099m-8.517 3.925s.482-.234.63-.666"/></g><use xlink:href="#G"/><path d="M203.031 239.542s.79-.592 1.58 0" class="D"/><path d="M208.016 238.234c-.012.098.494.247 1.135.321.482.061 1.037.037 1.444.333-.222-.593-.851-.642-1.407-.704-.629-.074-1.16-.061-1.172.05z"/><path d="M210.003 239.542s-.79-.592-1.58 0" class="D"/></g><path opacity=".13" d="M203.055 242.862a.68.68 0 0 0 .679-.679.68.68 0 0 0-.679-.679.68.68 0 0 0-.679.679.68.68 0 0 0 .679.679z" class="G"/></g><g clip-path="url(#B)"><rect x="165.645" y="230" width="32" height="32" rx="16" fill="#fdf4db"/><path d="M191.323 256.788l-.436-.218a16.92 16.92 0 0 0-1.683-.715c-.763-.266-1.454-.46-2.059-.581-1.466-.291-2.52-1.587-2.52-3.089v-2.992c.666-.69 1.018-1.38 1.018-1.38s1.938-3.101 1.889-7.171l-.073-.133c-1.707-.642-3.645-2.229-4.614-3.077l-.618-.569a7.21 7.21 0 0 1-.642.557c-1.841 1.478-4.506 2.641-5.632 3.101-.037.048-.061.085-.097.121 0 0-.218 5.499 3.101 8.551v2.992c0 1.502-1.054 2.798-2.52 3.089-.605.121-1.296.303-2.059.581a16.97 16.97 0 0 0-2.168.957l-.484.267c.024-.388.254-3.44 2.047-8.479 1.078-3.004.242-7.352 1.574-11.192 2.047-5.886 10.792-7.001 12.972-.194 1.72 5.293 2.932 18.69 3.004 19.574z" class="B F I J"/><use xlink:href="#H" class="K"/><path d="M179.15 249.92c.484.824 1.986 2.641 5.462 2.277v-3.004s-1.102 1.321-2.737 1.345c0 0-1.538-.012-2.919-1.345 0 .255.073.509.194.727z" class="Q"/><g class="B I J"><use xlink:href="#H"/><path d="M185.643 247.813s-.364.69-1.018 1.38c-1.066 1.103-2.895 2.193-5.232.364l-.436-.364c-1.514-1.392-2.29-3.282-2.689-4.941-.206.024-.4.024-.582.012-.097-.012-.194-.012-.29-.037-.424-.072-.739-.242-.969-.46-.073-.072-.146-.157-.194-.242-.267-.412-.291-.908-.146-1.272.424-1.09 1.745-.509 1.805-.484l-.036-1.139c.036-.036.072-.085.097-.121 1.126-.46 3.791-1.635 5.632-3.101l.642-.557.618.569c.969.86 2.907 2.447 4.614 3.077a.72.72 0 0 0 .073.133c.048 4.082-1.889 7.183-1.889 7.183z" class="K"/></g><g fill="#a82200" class="C E J"><path d="M176.449 241.696l-.557.084-.037-.375.509-.157v.387l.085.049zm11.094-.291l-.036.375-.569-.084.012-.012.084-.049v-.387l.509.157z"/></g><path d="M187.035 241.26c0-.085-.061-.158-.133-.182l-.4-.121s-.388-.63-1.018-.775c-.617-.146-2.107-.279-3.028.339-.29-.133-.545-.17-.763-.158a1.6 1.6 0 0 0-.763.158c-.932-.618-2.41-.485-3.028-.339-.63.145-1.017.775-1.017.775l-.388.109c-.085.024-.145.097-.133.181v.388l.085.049.012.012a1.02 1.02 0 0 1 .448.533c.218.593.787 1.744 1.974 1.744 1.538 0 2.241-1.72 2.447-2.374.036-.109.012-.242-.061-.327 0-.012-.012-.012-.012-.025-.097-.133-.036-.314.097-.399.036-.024.085-.037.133-.037h.448a.25.25 0 0 1 .134.037c.133.072.194.254.097.399 0 .013-.012.013-.012.025-.073.085-.097.218-.061.327.206.654.908 2.374 2.447 2.374 1.187 0 1.756-1.151 1.974-1.744a1.07 1.07 0 0 1 .448-.533l.012-.012.085-.049-.024-.375zm-6.081.472c-.145.727-1.259 2.374-2.567 1.841-.921-.375-1.091-1.405-1.127-1.998a1.18 1.18 0 0 1 .8-1.175c.472-.158 1.09-.146 1.671-.073 1.078.145 1.369.678 1.223 1.405zm5.16-.157c-.024.593-.206 1.635-1.114 1.998-1.308.533-2.423-1.114-2.568-1.841s.145-1.26 1.211-1.405c.582-.085 1.199-.085 1.672.073.509.169.823.654.799 1.175z" fill="#ff3000" class="C E J"/><path d="M178.047 239.576c.545-.193 1.853.315 2.652.025 0 0-.956-.412-1.938-.4l-.714.375z" fill="#380e03"/><g class="J"><path d="M174.571 242.846s.388-.387 1.018.097" class="B D I"/><g class="E"><path d="M175.685 244.251v.012c-.012.582-.375 1.054-.836 1.054s-.835-.472-.835-1.066c0-.278.084-.52.218-.714.048.085.121.157.193.242a1.02 1.02 0 0 0-.121.472c0 .424.255.776.545.776s.545-.352.545-.776v-.012a.95.95 0 0 0-.072-.375c-.049-.121-.133-.218-.23-.303-.073-.061-.109-.157-.037-.23.073-.061.158-.036.23.012.085.061.158.145.206.23.073.097.121.218.146.339.036.109.048.23.048.339z" class="C R"/><g stroke="#d20023"><path d="M171.726 257.079v.048m19.608-.291v-.048"/></g></g><path d="M188.21 240.727c-.242-.049-.485-.121-.751-.218" stroke="#c77250" class="B D"/><g class="E"><path d="M196.846 264.031s-14.402 9.738-30.111 0c-.073-.787.06-1.55.266-2.192.352-1.09 1.018-2.059 1.902-2.798.957-.8 2.41-1.708 3.319-2.229.121.049 6.032 2.35 9.484 2.774 0 0 6.843-.836 9.193-3.016 1.042.557 2.616 1.502 3.73 2.422a6.18 6.18 0 0 1 2.156 3.586c.073.46.109.944.061 1.453z" class="C R"/><g stroke="#d20023"><path d="M172.258 256.788c-.012.012-.024.012-.036.024m18.665-.242l-.073-.037"/></g></g><g class="B D I"><path d="M181.693 242.822l-.666 2.362a.28.28 0 0 0 .049.242l.448.521m-.823.945s1.938.678 2.532-1.187"/></g></g><g class="F"><use xlink:href="#I"/><path d="M184.347 242.265c.247 0 .448-.217.448-.484s-.201-.485-.448-.485-.449.217-.449.485.201.484.449.484z"/></g><path d="M190.886 256.57c-2.362 2.18-9.193 3.016-9.193 3.016-3.452-.424-9.363-2.726-9.484-2.774.012-.012.024-.012.036-.024a16.3 16.3 0 0 1 2.132-.933c.073.061 7.352 5.438 14.825 0a16.92 16.92 0 0 1 1.599.666c.037.024.061.036.085.049z" class="C E J R"/><path d="M182.251 261.73h-.921l.206-1.454h.509l.206 1.454z" fill="#ff404c"/><path d="M182.493 239.6s1.224-.375 1.902-.399 1.453.424 1.72.799c0 0-.182-.254-1.127-.4-.884-.145-1.853.279-2.495 0z" fill="#380e03"/><g class="G"><path opacity=".13" d="M180.954 241.732c-.145.727-1.259 2.374-2.568 1.841-.92-.375-1.09-1.405-1.126-1.998-.024-.521.303-1.017.799-1.175.473-.157 1.091-.145 1.672-.073 1.078.146 1.369.679 1.223 1.405zm5.16-.157c-.024.593-.205 1.635-1.114 1.998-1.308.533-2.422-1.114-2.568-1.841s.146-1.26 1.212-1.405c.581-.085 1.199-.085 1.671.073.509.169.824.654.799 1.175z"/></g><path d="M175.431 240.727s5.789-2.144 7.546-4.736" stroke="#c77250" class="B D J"/></g><g clip-path="url(#C)"><rect x="141.645" y="230" width="32" height="32" rx="16" fill="#ddcbff"/><g class="C H"><path d="M165.351 236.994c-.879.217-4.311.94-6.937-.192-.168.289-2.047 3.312-3.781 3.312 0 0-.386-1.072-1.843-1.301 1.481-6.648 5.287-6.865 8.178-5.913 1.999.65 3.588 2.167 4.383 4.094z" class="E L"/><g class="B K"><path d="M165.351 236.994l.289.855c.675 2.493 1.168 6.01-.313 8.491-.301.494-.674.915-1.12 1.24-.47.35-1 .615-1.566.759a4.61 4.61 0 0 1-1.866.097l.156 1.625c.133 1.217.639 2.325 1.421 3.192.53.59 1.181 1.072 1.927 1.397 0 .217-.012.686-.108 1.264-.349 1.952-1.77 5.215-7.31 5.143-7.094-.084-9.611-6.564-10.045-7.84h.037a6.07 6.07 0 0 0 2.119-.602c1.542-.759 2.734-2.168 3.18-3.902l.096-.386 1.529-5.973c-.349.036-.794.048-1.216-.049-.241-.06-.482-.144-.698-.289-.398-.265-.711-.71-.783-1.433-.157-1.505.843-1.794 1.674-1.77 1.457.229 1.854 1.288 1.854 1.288 1.735 0 3.614-3.034 3.782-3.311 2.638 1.144 6.082.421 6.961.204z"/></g></g><g class="I B H K"><path d="M175.179 265.754c-1.975 1.072-3.914 1.975-5.793 2.71-3.986-5.829-2.842-11.526-2.457-12.959 3.939 1.469 6.925 4.793 7.925 8.924l.325 1.325zm-32.337 3.818c-4.95-1.65-7.768-3.818-7.768-3.818l1.494-4.408c.758-2.252 2.155-4.167 3.938-5.576a12.22 12.22 0 0 1 3.468-1.915c.458 1.445 2.481 8.996-1.132 15.717z"/></g><path d="M154.477 242.245s-.277.084-.687.121" class="B C D H"/><path d="M169.385 268.464c-11.212 4.408-20.473 3.131-26.543 1.108 3.613-6.72 1.577-14.272 1.144-15.717.903-.313 1.855-.53 2.842-.626.434 1.289 2.951 7.756 10.044 7.84 7.19.085 7.431-5.455 7.419-6.419a5.07 5.07 0 0 0 .759.277l.867.241c.349.096.686.205 1.012.325-.386 1.445-1.53 7.142 2.456 12.971z" class="B F H I"/><path d="M150.971 254.577c-.156-.036-.277-.12-.397-.204-.675-.506-1.253-1.084-1.65-1.698-.41-.615-.651-1.253-.711-1.891-.084-.952.229-1.927.482-2.71.59-1.807 1.77-4.974 3.083-6.034l.036-.024.109.06c.108.073.349.217.626.253l.072.109c-.108.421-1.048 4.227-.325 5.889a2.7 2.7 0 0 0 .927 1.168l1.566 1.144c.662.482 1.06.976 1.216 1.506.193.614.012 1.433-.614 1.758-.229.12-.47.169-.747.169-.313 0-.638-.073-.951-.145l-.518-.108-.325-.024c-.325 0-.638.084-.903.24-.097.061-.181.133-.265.217-.169.157-.35.325-.614.325h-.097z" class="L"/><path d="M151.839 242.076c.036 0 .337.241.722.302.024 0 .024.024.024.036-.096.397-1.048 4.239-.325 5.937.205.47.506.879.951 1.192l1.566 1.145c.518.385 1.012.867 1.204 1.481s-.012 1.397-.578 1.686c-.24.12-.481.169-.722.169-.482 0-.976-.169-1.457-.253l-.338-.024c-.325 0-.65.072-.939.24s-.482.53-.843.53c-.036 0-.072 0-.121-.012-.132-.024-.252-.108-.373-.192-.614-.458-1.204-1.024-1.638-1.686-.373-.567-.638-1.193-.698-1.867-.085-.916.192-1.819.481-2.686.699-2.083 1.843-4.998 3.084-5.998zm0-.12h-.049l-.036.036c-1.325 1.072-2.517 4.264-3.107 6.07-.253.783-.578 1.77-.494 2.734.06.65.301 1.289.711 1.915.409.614.987 1.204 1.674 1.71.12.096.253.181.421.217.049.012.097.012.145.012.277 0 .482-.181.65-.337a1.26 1.26 0 0 1 .253-.205 1.75 1.75 0 0 1 .867-.229c.109 0 .205.012.313.024.169.024.338.06.506.109.313.072.639.144.964.144.289 0 .542-.06.77-.181.651-.337.844-1.192.639-1.83-.169-.542-.578-1.048-1.241-1.542l-1.565-1.144c-.398-.289-.711-.674-.904-1.144-.71-1.65.217-5.432.326-5.853l.012-.048-.037-.073c-.024-.036-.06-.06-.108-.072a1.65 1.65 0 0 1-.614-.253c-.036-.036-.06-.06-.096-.06z" class="F"/><g class="C E H"><path d="M161.353 251.507c0 .072.072.421.072.494-.168-.446-.433-1.446-.481-1.927l-.157-1.626.566.048c.253.879.012 2.071 0 3.011z" fill="#4a1305"/><g class="L"><path d="M166.893 255.758c-.145.349-.446.662-.831.699-.325.036-.638-.121-.927-.253-.301-.145-.639-.253-.964-.265-.096 0-.18 0-.277.024-.482.084-.903.469-1.397.433-.506-.036-.903-.53-.951-1.035-.06-.506.144-1.012.409-1.446.06-.108.133-.216.205-.325l.205-.313a4.66 4.66 0 0 0 .385-.674 5.75 5.75 0 0 0 .217-.578c0-.012.012-.024.012-.037.301-1.144.036-2.408-.313-3.576-.012-.024-.012-.049-.024-.073.566-.096 2.228-.686 3.023-2.661 1.3 2.216 1.24 6.395 1.36 8.96.025.373.013.771-.132 1.12z"/><path d="M162.641 248.339c.012.024.012.049.024.073-.024-.049-.024-.073-.024-.073z"/></g></g><path d="M167.025 255.168l-.096.337" class="B D H I"/><path d="M155.102 250.928c-.013 0-.025 0-.037-.012l-1.047-.734-.843-.591c-.422-.301-.747-.71-.964-1.228-.735-1.722-.181-4.179.181-5.793l.048-.229.819.024.53-.024c.06.133-.651 6.058 1.361 8.479.024.024.024.06 0 .084-.012.012-.036.024-.048.024z" class="L"/><path d="M152.488 242.366c.241.06.506.072.759.072l.53-.024s-.735 5.985 1.313 8.454l-1.891-1.325c-.446-.313-.747-.722-.952-1.192-.758-1.782-.12-4.384.241-5.985zm0-.121c-.024 0-.048.012-.06.024-.024.012-.048.048-.048.072l-.048.229c-.374 1.626-.928 4.095-.181 5.829a2.91 2.91 0 0 0 .988 1.253l.831.578 1.059.747c.025.012.049.024.073.024.036 0 .06-.012.084-.036.036-.049.048-.109 0-.157-1.999-2.409-1.289-8.31-1.289-8.37 0-.036-.012-.072-.036-.097s-.048-.036-.084-.036h-.012c-.121.012-.301.024-.518.024-.277 0-.53-.024-.735-.072 0-.012-.012-.012-.024-.012z" class="F"/><g fill="#590600"><path d="M149.683 247.761c-.036.807.024 1.674.506 2.337.217.337.566.578.952.686.385.133.794.121 1.216.109-.41.06-.831.096-1.228-.037-.41-.096-.783-.337-1.036-.686-.47-.711-.554-1.602-.41-2.409z"/><path d="M151.464 250.904c.072.627.301 1.277.855 1.59.253.169.566.265.867.289.314.024.627 0 .952-.024-.313.072-.626.132-.952.108s-.65-.096-.927-.277c-.566-.373-.831-1.059-.795-1.686zm11.768 2.855c.35.06.627.361.771.674.121.337.145.699.048 1.036-.012-.349-.012-.687-.168-1-.109-.301-.349-.554-.651-.71z"/><path d="M163.786 254.18c.422-.216.855-.457 1.108-.855.301-.373.398-.843.446-1.325.048.482-.073.988-.35 1.398-.301.385-.734.662-1.204.782zm.963-1.289a2.4 2.4 0 0 1-.627-2.384 3.39 3.39 0 0 0 .627 2.384zm-14.128-3.685c.398-.505.59-1.144.602-1.782.036-.626-.132-1.289-.59-1.746.542.385.711 1.12.711 1.758-.048.638-.241 1.313-.723 1.77z"/></g><g class="K"><path d="M155.489 237.753c.386.181.771.494.855.951.036.229-.012.458-.108.663s-.241.373-.397.542l-.085-.085c.301-.289.578-.674.53-1.108s-.409-.77-.795-.963zm9.828-.698c-.819.216-1.65.337-2.493.397s-1.686.06-2.529-.06-1.662-.374-2.397-.807c-.734-.422-1.361-1.036-1.77-1.771.927 1.434 2.553 2.216 4.191 2.397 1.65.241 3.336.084 4.974-.265l.024.109z"/></g><path d="M154.223 236.79c.012.421.061.855.289 1.216.193.361.554.626.976.698-.446.037-.855-.277-1.084-.638-.205-.397-.265-.855-.181-1.276z" fill="#590600"/><g class="F"><path d="M159.27 240.113s1.156-1.445 2.806-.626c0 0 .554.566-1.409.181 0 0-.482-.109-1.397.445zm6.707-.421s-.987-.988-2.155-.241c0 0-.374.47 1.072.024-.013 0 .349-.12 1.083.217z"/></g><g class="C H"><path d="M163.279 240.21l1.012 2.24a.37.37 0 0 1-.072.349l-.253.289" class="E"/><g class="B"><path d="M159.669 244.485c.024.482.265.964.674 1.217.53.349 1.277.228 1.783-.157 0 0-.482-1.578-2.313-1.927-.108.265-.156.554-.144.867z" fill="#fd8a9b"/><path d="M159.8 243.606c1.842.349 2.312 1.927 2.312 1.927.373-.289.602-.722.723-1.18.12-.47-.602-.602-.879-.759-.277-.144-.542-.337-.783-.542-.169-.144-.47-.614-.747-.506-.108.036-.169.133-.229.229-.024.072-.397.831-.397.831z" class="Q"/></g><g class="E"><path d="M160.342 240.547s.638-.566 1.433 0m2.613-.108s.65-.386 1.096.108"/></g></g><path opacity=".13" d="M157.415 242.643c.472 0 .855-.383.855-.855s-.383-.855-.855-.855-.855.382-.855.855.382.855.855.855z" class="G"/><use xlink:href="#J" fill="#bae2ff"/><g class="B C"><g class="D"><use xlink:href="#J" stroke-width=".06"/><path d="M151.995 240.114s.964-.675 1.855.156" class="H"/></g><g fill="#bae2ff" stroke-width=".06"><path d="M152.056 241.499a.23.23 0 0 0 .229-.229.23.23 0 0 0-.229-.229.23.23 0 0 0-.229.229.23.23 0 0 0 .229.229zm.541.421c.086 0 .157-.07.157-.157s-.071-.156-.157-.156-.157.07-.157.156.071.157.157.157zm.602.144c.06 0 .109-.048.109-.108s-.049-.108-.109-.108-.108.048-.108.108.048.108.108.108z"/></g></g><path d="M156.668 245.822s-.277 4.3 4.661 5.914c0 0-.506-.892-.554-3.3 0 0-2.373-.061-4.107-2.614z" class="Q"/><g class="C H"><path d="M156.391 245.389c1.216 2.107 2.974 2.842 4.383 3.047" class="B D"/><path d="M162.978 251.976c0 .012 0 .024-.012.036a2.6 2.6 0 0 1-.217.579c-.181.409-.47.77-.699 1.156-.012.024-.048.06-.084.036-.012-.012-.012-.024-.012-.036-.06-.229-.084-.482-.253-.639-.168-.168-.457-.228-.53-.457-.024-.073-.024-.145-.012-.217.012-.145.024-.301.06-.446.061-.313.109-.566.061-.879-.036-.277.036-.59.072-.867.072-.59.157-1.192-.012-1.77a4.64 4.64 0 0 0 1.289-.145c.024.024.024.048.036.072.337 1.169.602 2.433.313 3.577z" class="E L"/></g></g><path d="M410.298 157.182V163h-1.054v-4.793h-.034l-1.361.87v-.966l1.446-.929h1.003zm2.295 5.023l-.037.312c-.026.239-.073.481-.142.727l-.21.685-.179.491h-.693l.108-.471.136-.671a6.51 6.51 0 0 0 .088-.755l.02-.318h.909zm1.061.795v-.761l2.02-1.98.483-.52c.129-.152.225-.299.29-.441a1.09 1.09 0 0 0 .096-.454c0-.184-.042-.341-.125-.472s-.198-.235-.344-.307-.311-.108-.497-.108a1.02 1.02 0 0 0-.503.12c-.144.077-.255.188-.335.332s-.116.315-.116.514h-1.003c0-.369.084-.69.253-.963a1.69 1.69 0 0 1 .696-.633c.297-.15.638-.225 1.022-.225.391 0 .733.073 1.029.219s.524.346.687.599a1.56 1.56 0 0 1 .247.87c0 .218-.041.432-.125.642s-.23.443-.44.699-.501.565-.878.929l-1.003 1.02v.039h2.535V163h-3.989zm6.911.08c-.378 0-.717-.071-1.017-.214s-.537-.34-.713-.59-.267-.536-.278-.858h1.023a.81.81 0 0 0 .309.585c.188.149.413.224.676.224.207 0 .391-.047.552-.142a1.01 1.01 0 0 0 .38-.395c.093-.168.138-.36.137-.576s-.045-.415-.14-.586a1.03 1.03 0 0 0-.389-.4 1.08 1.08 0 0 0-.568-.148c-.174-.002-.346.03-.514.097a1.05 1.05 0 0 0-.401.261l-.951-.156.303-3h3.375v.88h-2.502l-.168 1.543h.034a1.2 1.2 0 0 1 .458-.315 1.61 1.61 0 0 1 .647-.128c.353 0 .667.083.943.25s.495.392.654.682.238.621.238.994a1.98 1.98 0 0 1-.267 1.028c-.176.3-.421.536-.735.708a2.24 2.24 0 0 1-1.086.256zm5.028 0a2.79 2.79 0 0 1-1.125-.214 1.88 1.88 0 0 1-.767-.582 1.37 1.37 0 0 1-.272-.844c-.002-.244.051-.468.159-.673a1.49 1.49 0 0 1 .437-.511c.186-.139.392-.227.619-.265v-.039c-.299-.067-.541-.219-.727-.458s-.274-.518-.273-.832c-.001-.299.082-.566.25-.801s.4-.42.694-.554.628-.205 1.005-.205.706.068.998.205.524.319.693.554a1.33 1.33 0 0 1 .255.801 1.31 1.31 0 0 1-.281.832c-.185.239-.425.391-.719.458v.039c.228.038.432.126.614.265a1.49 1.49 0 0 1 .438.511 1.41 1.41 0 0 1 .164.673c0 .315-.093.596-.278.844s-.441.44-.767.582-.696.214-1.117.214zm0-.813c.218 0 .408-.037.569-.111a.89.89 0 0 0 .375-.318.86.86 0 0 0 .136-.472.88.88 0 0 0-.145-.491.95.95 0 0 0-.384-.338c-.16-.082-.344-.122-.551-.122s-.394.04-.556.122a.97.97 0 0 0-.387.338.86.86 0 0 0-.136.491c-.002.179.041.336.13.472s.215.24.375.315.355.114.574.114zm0-2.651c.178 0 .336-.036.472-.107a.83.83 0 0 0 .327-.302c.079-.128.12-.277.122-.446a.83.83 0 0 0-.12-.437c-.077-.127-.185-.225-.323-.293s-.298-.105-.478-.105-.345.035-.485.105a.76.76 0 0 0-.324.293c-.076.125-.113.271-.111.437a.82.82 0 0 0 .114.446.85.85 0 0 0 .326.302c.14.071.3.107.48.107zm7.713 1.549v-2.529h1.029V163h-.998v-.776h-.045a1.3 1.3 0 0 1-.486.6c-.223.155-.499.233-.826.233a1.49 1.49 0 0 1-.759-.191c-.218-.128-.388-.315-.511-.559s-.185-.544-.185-.892v-2.779h1.028v2.62c0 .276.076.496.228.659s.35.244.596.244c.152 0 .299-.037.441-.111s.258-.183.349-.329.139-.333.139-.554zm5.455-1.375l-.937.102c-.027-.095-.073-.184-.14-.267a.69.69 0 0 0-.261-.202c-.11-.051-.244-.076-.403-.076-.214 0-.394.046-.54.139s-.215.213-.213.361c-.002.126.044.23.139.309s.256.145.477.196l.745.159c.412.089.719.23.92.424s.305.446.307.758c-.002.275-.083.517-.242.727a1.54 1.54 0 0 1-.656.489 2.47 2.47 0 0 1-.966.176c-.534 0-.964-.112-1.29-.335s-.52-.539-.582-.94l1.003-.097c.045.197.142.346.29.446s.34.151.576.151c.245 0 .441-.051.588-.151s.225-.224.225-.372c0-.125-.048-.228-.145-.31s-.243-.144-.443-.187l-.745-.156c-.418-.088-.728-.234-.929-.441s-.3-.471-.298-.79c-.002-.269.071-.501.219-.698s.357-.353.622-.461.575-.164.923-.164c.512 0 .914.108 1.208.326s.478.513.548.884zm2.794 3.295c-.438 0-.816-.091-1.134-.273a1.84 1.84 0 0 1-.73-.778c-.17-.337-.256-.734-.256-1.19 0-.449.086-.843.256-1.182s.413-.606.722-.796.671-.286 1.088-.286c.269 0 .522.043.761.13s.453.218.636.398.332.409.438.687.159.607.159.989v.315h-3.577v-.693h2.591c-.002-.197-.044-.372-.128-.525s-.2-.278-.349-.367-.32-.133-.517-.133c-.21 0-.395.051-.554.153s-.283.233-.372.398a1.15 1.15 0 0 0-.134.537v.605a1.43 1.43 0 0 0 .139.653c.093.18.223.318.39.415s.361.142.585.142c.149 0 .285-.021.406-.062a.9.9 0 0 0 .315-.191c.089-.083.157-.186.202-.309l.96.108c-.06.253-.176.475-.346.664a1.69 1.69 0 0 1-.648.438c-.263.102-.564.153-.903.153zm2.73-.085v-4.364h.997v.728h.046c.079-.252.215-.446.409-.583s.417-.207.667-.207l.191.008c.072.004.131.011.179.02v.946a1.09 1.09 0 0 0-.208-.039 1.81 1.81 0 0 0-.27-.02 1.03 1.03 0 0 0-.505.122c-.148.079-.265.19-.35.332a.94.94 0 0 0-.128.492V163h-1.028zm6.541-3.21l-.938.102c-.026-.095-.073-.184-.139-.267s-.152-.151-.261-.202-.245-.076-.404-.076c-.214 0-.394.046-.54.139s-.215.213-.213.361c-.002.126.045.23.14.309s.255.145.477.196l.744.159c.413.089.72.23.921.424s.305.446.306.758a1.18 1.18 0 0 1-.241.727 1.54 1.54 0 0 1-.656.489c-.281.118-.603.176-.966.176-.534 0-.964-.112-1.29-.335s-.52-.539-.582-.94l1.003-.097c.045.197.142.346.289.446s.34.151.577.151c.244 0 .44-.051.588-.151s.224-.224.224-.372a.39.39 0 0 0-.144-.31c-.095-.081-.243-.144-.444-.187l-.744-.156c-.418-.088-.728-.234-.929-.441s-.3-.471-.298-.79c-.002-.269.071-.501.219-.698a1.43 1.43 0 0 1 .622-.461c.267-.11.575-.164.923-.164.511 0 .914.108 1.207.326s.479.513.549.884zm4.669 3.295c-.435 0-.809-.095-1.122-.287s-.55-.455-.719-.792-.25-.729-.25-1.171.086-.834.256-1.173.411-.606.722-.796.681-.286 1.108-.286c.354 0 .667.065.94.196s.493.311.656.548.256.509.279.824h-.983c-.04-.211-.135-.386-.284-.526s-.346-.213-.594-.213c-.21 0-.395.057-.554.171s-.283.272-.372.482-.131.463-.131.756a2.03 2.03 0 0 0 .131.767c.087.212.209.376.366.492s.346.17.56.17a.93.93 0 0 0 .406-.085c.121-.059.223-.143.304-.253s.137-.243.168-.4h.983c-.025.308-.116.582-.273.821s-.371.422-.642.556-.589.199-.955.199zm3.662-5.903V163h-1.028v-5.818h1.028zm.978 5.818v-4.364h1.028V163h-1.028zm.517-4.983c-.163 0-.303-.054-.42-.162a.52.52 0 0 1-.177-.395c0-.155.059-.287.177-.395a.59.59 0 0 1 .42-.164c.165 0 .305.054.42.164s.177.24.177.395a.52.52 0 0 1-.177.395.59.59 0 0 1-.42.162zm3.392 5.068c-.435 0-.809-.095-1.122-.287a1.92 1.92 0 0 1-.719-.792c-.166-.339-.25-.729-.25-1.171s.086-.834.256-1.173.411-.606.722-.796.681-.286 1.108-.286c.354 0 .667.065.94.196s.493.311.656.548.256.509.279.824h-.983c-.04-.211-.135-.386-.284-.526s-.346-.213-.594-.213c-.21 0-.395.057-.554.171s-.283.272-.372.482-.131.463-.131.756a2.03 2.03 0 0 0 .131.767c.087.212.209.376.366.492s.346.17.56.17a.93.93 0 0 0 .406-.085c.121-.059.223-.143.304-.253s.137-.243.168-.4h.983c-.025.308-.116.582-.273.821s-.371.422-.642.556-.589.199-.955.199zm3.572-1.454l-.003-1.242h.165l1.568-1.753h1.201l-1.929 2.148h-.213l-.789.847zm-.938 1.369v-5.818h1.029V163h-1.029zm2.739 0l-1.421-1.986.693-.724 1.958 2.71h-1.23zm3.488.085c-.438 0-.815-.091-1.134-.273s-.559-.443-.73-.778-.255-.734-.255-1.19c0-.449.085-.843.255-1.182a1.94 1.94 0 0 1 .722-.796c.309-.191.671-.286 1.088-.286a2.2 2.2 0 0 1 .761.13 1.72 1.72 0 0 1 .637.398c.185.18.331.409.437.687s.159.607.159.989v.315h-3.576v-.693h2.59c-.001-.197-.044-.372-.127-.525a.93.93 0 0 0-.35-.367c-.148-.089-.32-.133-.517-.133-.21 0-.395.051-.554.153s-.283.233-.372.398a1.15 1.15 0 0 0-.134.537v.605c0 .254.047.471.14.653a.99.99 0 0 0 .389.415c.167.095.362.142.585.142a1.26 1.26 0 0 0 .406-.062c.122-.044.227-.107.316-.191s.156-.186.201-.309l.961.108c-.061.253-.176.475-.347.664s-.384.334-.648.438-.564.153-.903.153zm4.35-.008c-.343 0-.65-.088-.921-.265s-.485-.431-.642-.767-.236-.742-.236-1.221c0-.485.08-.894.239-1.227s.378-.588.651-.759a1.67 1.67 0 0 1 .911-.258c.256 0 .466.043.631.13s.296.189.392.31.172.232.225.338h.042v-2.176h1.031V163h-1.011v-.688h-.062c-.053.107-.13.219-.231.339a1.27 1.27 0 0 1-.397.301c-.165.083-.372.125-.622.125zm.287-.844a.89.89 0 0 0 .556-.176c.154-.12.27-.285.35-.497s.119-.46.119-.742-.04-.527-.119-.736-.193-.37-.347-.485-.338-.174-.559-.174c-.23 0-.421.06-.574.179s-.269.284-.347.495-.116.45-.116.721.038.516.116.73a1.14 1.14 0 0 0 .35.503.9.9 0 0 0 .571.182z" fill="#636369"/><rect x="-1" y="1" width="419" height="185" rx="7" transform="matrix(-1 0 0 1 511 125)" stroke="#e1e8f2" class="O S"/><g transform="matrix(-1 0 0 1 502 396)"><rect x="-2" y="2" width="442" height="208" rx="6" class="F"/><rect x="-2" y="2" width="442" height="208" rx="6" class="C M"/></g><g transform="matrix(-1 0 0 1 521 383)"><rect x="-2" y="2" width="441" height="199" rx="6" class="N"/><rect x="-2" y="2" width="441" height="199" rx="6" class="C M"/></g><rect x="-1" y="1" width="419" height="157" rx="7" transform="matrix(-1 0 0 1 511 400)" class="N"/><path d="M148.084 441.18c3.51 0 5.292-1.872 5.292-4.878v-7.362h-2.7v7.326c0 1.728-.612 2.304-2.592 2.304-1.998 0-2.61-.576-2.61-2.304v-7.326h-2.682v7.362c0 3.006 1.782 4.878 5.292 4.878zm11.444 0c2.502 0 3.888-1.08 3.888-2.772 0-1.476-.792-2.34-2.7-2.7l-1.656-.342c-1.08-.216-1.242-.342-1.242-.774s.252-.666 1.332-.666c1.152 0 1.404.324 1.404.918v.252h2.574v-.252c0-2.034-1.692-3.078-3.906-3.078-2.574 0-3.942 1.188-3.942 2.862s.972 2.43 2.754 2.754l1.368.252c1.206.216 1.458.324 1.458.81 0 .45-.18.612-1.278.612-1.314 0-1.71-.144-1.71-.81v-.378h-2.574v.054c0 2.196 1.386 3.258 4.23 3.258zm9.862 0c2.592 0 4.248-1.134 4.248-3.06v-.18h-2.664v.108c0 .558-.468.792-1.548.792-1.476 0-1.98-.504-2.034-1.764h6.21a8.16 8.16 0 0 0 .126-1.332c0-2.358-1.602-3.978-4.32-3.978-2.826 0-4.554 1.836-4.554 4.734 0 2.862 1.422 4.68 4.536 4.68zm-.072-7.2c1.26 0 1.872.522 1.818 1.458h-3.726c.108-.954.612-1.458 1.908-1.458zm8.925 7.02v-5.67c0-.99.396-1.278 1.224-1.278.846 0 1.152.306 1.152 1.278v.486h2.682v-.828c0-1.818-.702-3.222-2.592-3.222-1.278 0-2.088.72-2.538 1.638h-.108v-1.458h-2.502V441h2.682zm16.247.18c3.6 0 5.778-2.448 5.778-6.21s-2.178-6.21-5.778-6.21-5.796 2.448-5.796 6.21 2.196 6.21 5.796 6.21zm0-2.61c-2.07 0-2.916-.774-2.916-3.6s.846-3.6 2.916-3.6 2.898.774 2.898 3.6-.828 3.6-2.898 3.6zm10.261 5.454v-4.212h.09c.414.774 1.296 1.368 2.736 1.368 2.448 0 3.834-1.854 3.834-4.698 0-2.862-1.332-4.716-3.888-4.716-1.35 0-2.394.54-2.88 1.512h-.09v-1.332h-2.502v12.078h2.7zm0-6.822v-1.458c0-1.224.702-1.674 1.98-1.674 1.566 0 1.98.756 1.98 2.412 0 1.638-.414 2.394-1.98 2.394-1.278 0-1.98-.45-1.98-1.674zm12.883 3.978c2.592 0 4.248-1.134 4.248-3.06v-.18h-2.664v.108c0 .558-.468.792-1.548.792-1.476 0-1.98-.504-2.034-1.764h6.21a8.16 8.16 0 0 0 .126-1.332c0-2.358-1.602-3.978-4.32-3.978-2.826 0-4.554 1.836-4.554 4.734 0 2.862 1.422 4.68 4.536 4.68zm-.072-7.2c1.26 0 1.872.522 1.818 1.458h-3.726c.108-.954.612-1.458 1.908-1.458zm8.926 7.02v-5.13c0-1.368.558-1.782 1.854-1.782 1.368 0 1.782.45 1.782 1.71V441h2.7v-5.742c0-1.926-1.008-3.492-3.366-3.492-1.584 0-2.556.738-3.042 1.764h-.108v-1.584h-2.502V441h2.682zm12.401.18c2.502 0 3.888-1.08 3.888-2.772 0-1.476-.792-2.34-2.7-2.7l-1.656-.342c-1.08-.216-1.242-.342-1.242-.774s.252-.666 1.332-.666c1.152 0 1.404.324 1.404.918v.252h2.574v-.252c0-2.034-1.692-3.078-3.906-3.078-2.574 0-3.942 1.188-3.942 2.862s.972 2.43 2.754 2.754l1.368.252c1.206.216 1.458.324 1.458.81 0 .45-.18.612-1.278.612-1.314 0-1.71-.144-1.71-.81v-.378h-2.574v.054c0 2.196 1.386 3.258 4.23 3.258z" fill="#000"/><g clip-path="url(#D)"><path d="M133.64 428.36c4.498 4.497 5.714 10.574 2.715 13.572s-9.075 1.783-13.573-2.714c-.152-.153-.292-.312-.437-.468l2.699-2.699c3.498 3.498 7.954 4.714 9.953 2.714s.783-6.455-2.714-9.953l.013.013-.013-.014c-3.997-3.998-9.466-5.01-12.215-2.262-1.329 1.329-1.77 3.296-1.428 5.422-.525-2.495-.092-4.807 1.428-6.326 2.998-2.999 9.075-1.783 13.572 2.715z" fill="#fdd888"/><path d="M127.857 444.778c-.154 0-.307-.047-.439-.141l-3.102-2.225-3.102 2.225a.75.75 0 0 1-1.157-.84l1.157-3.734-3.074-2.166c-.262-.193-.37-.531-.27-.84s.387-.518.712-.52l3.756-.008 1.263-3.64c.103-.308.391-.516.715-.516s.613.208.715.516l1.141 3.64 3.878.008c.325.002.613.212.712.52s-.008.647-.27.84l-3.074 2.166 1.156 3.734a.75.75 0 0 1-.274.837c-.133.096-.288.144-.443.144z" fill="#ffac33"/></g><path stroke="#dfe7f2" d="M116 461.021h364.145" class="O"/><rect x="118.214" y="489" width="362" height="64" rx="8" class="G"/><g fill="#eef1f7"><rect x="148" y="514" width="181" height="14" rx="7"/><rect x="395.214" y="514" width="61" height="14" rx="7"/></g><path d="M405.751 438.08c-.409 0-.773-.071-1.091-.211s-.567-.335-.75-.585-.282-.539-.293-.866h1.068a.71.71 0 0 0 .157.412.93.93 0 0 0 .377.269c.158.065.334.097.529.097.208 0 .393-.036.554-.108a.91.91 0 0 0 .378-.307.75.75 0 0 0 .133-.451.78.78 0 0 0-.136-.466c-.093-.135-.228-.24-.404-.316s-.384-.113-.63-.113h-.515v-.813h.515c.202 0 .379-.035.531-.105s.274-.169.361-.295a.77.77 0 0 0 .128-.446.78.78 0 0 0-.111-.429.74.74 0 0 0-.316-.287c-.134-.069-.292-.103-.474-.103s-.343.033-.494.097a.89.89 0 0 0-.367.276c-.093.117-.142.257-.148.42h-1.014c.008-.326.102-.612.282-.858s.424-.441.727-.58.643-.21 1.02-.21c.388 0 .725.073 1.011.219s.51.338.668.582a1.47 1.47 0 0 1 .235.81 1.19 1.19 0 0 1-.289.824c-.194.222-.447.366-.762.435v.045c.409.057.723.208.941.455s.328.548.326.912a1.46 1.46 0 0 1-.278.875c-.184.255-.438.456-.761.602s-.692.219-1.108.219zm4.089-.875l-.037.312c-.026.239-.073.481-.142.727l-.21.685-.179.491h-.693l.108-.471.136-.671a6.51 6.51 0 0 0 .088-.755l.02-.318h.909zm2.995-5.103a2.38 2.38 0 0 1 .812.148c.266.095.504.25.716.466s.381.501.506.861.188.805.188 1.335c.001.5-.052.947-.16 1.341s-.258.723-.457.994a2.01 2.01 0 0 1-.719.619c-.28.143-.595.214-.946.214-.367 0-.693-.072-.977-.216s-.51-.341-.685-.591-.281-.536-.321-.858h1.037c.053.231.161.415.324.551s.372.202.622.202c.404 0 .714-.176.932-.526s.327-.837.327-1.46h-.04c-.093.166-.213.31-.361.432s-.315.211-.503.275a1.77 1.77 0 0 1-.591.097 1.76 1.76 0 0 1-.92-.245c-.271-.162-.486-.386-.645-.67s-.237-.609-.238-.974a2 2 0 0 1 .261-1.02 1.89 1.89 0 0 1 .736-.716c.314-.176.681-.263 1.102-.259zm.003.853c-.205 0-.389.05-.554.15s-.292.233-.387.404a1.16 1.16 0 0 0-.139.565 1.2 1.2 0 0 0 .139.562 1.07 1.07 0 0 0 .378.401 1.04 1.04 0 0 0 .551.148c.154 0 .297-.03.429-.088s.249-.141.347-.245a1.16 1.16 0 0 0 .233-.361 1.04 1.04 0 0 0 .082-.426c0-.199-.047-.382-.142-.551s-.22-.304-.383-.406-.346-.153-.554-.153zm5.173 5.125c-.409 0-.773-.071-1.091-.211s-.567-.335-.75-.585-.282-.539-.293-.866h1.068a.71.71 0 0 0 .157.412.93.93 0 0 0 .377.269c.158.065.334.097.529.097.208 0 .393-.036.554-.108a.91.91 0 0 0 .378-.307.75.75 0 0 0 .133-.451.78.78 0 0 0-.136-.466c-.093-.135-.228-.24-.404-.316s-.384-.113-.63-.113h-.515v-.813h.515c.202 0 .379-.035.531-.105s.274-.169.361-.295a.77.77 0 0 0 .128-.446.78.78 0 0 0-.111-.429.74.74 0 0 0-.316-.287c-.134-.069-.292-.103-.474-.103s-.343.033-.494.097a.89.89 0 0 0-.367.276c-.093.117-.142.257-.148.42h-1.014c.008-.326.102-.612.282-.858s.424-.441.727-.58.643-.21 1.02-.21c.388 0 .725.073 1.011.219s.51.338.668.582a1.47 1.47 0 0 1 .235.81 1.19 1.19 0 0 1-.289.824c-.194.222-.447.366-.762.435v.045c.409.057.723.208.941.455s.328.548.326.912a1.46 1.46 0 0 1-.278.875c-.184.255-.438.456-.761.602s-.692.219-1.108.219zm5.065 0c-.379 0-.718-.071-1.017-.214s-.537-.34-.713-.59-.267-.536-.278-.858h1.022a.81.81 0 0 0 .31.585c.188.149.413.224.676.224a1.06 1.06 0 0 0 .551-.142c.161-.094.288-.226.381-.395s.138-.36.136-.576-.044-.415-.139-.586a1.04 1.04 0 0 0-.389-.4 1.08 1.08 0 0 0-.568-.148c-.174-.002-.346.03-.514.097a1.05 1.05 0 0 0-.401.261l-.952-.156.304-3h3.375v.88h-2.503l-.167 1.543h.034c.108-.127.26-.232.457-.315a1.62 1.62 0 0 1 .648-.128c.352 0 .667.083.943.25s.495.392.654.682.238.621.238.994a1.98 1.98 0 0 1-.267 1.028 1.88 1.88 0 0 1-.736.708c-.312.17-.674.256-1.085.256zm7.657-1.915v-2.529h1.028V438h-.997v-.776h-.045c-.099.245-.261.445-.486.6s-.499.233-.827.233c-.286 0-.539-.064-.758-.191s-.389-.315-.512-.559-.184-.544-.184-.892v-2.779h1.028v2.62c0 .276.076.496.227.659s.351.244.597.244a.94.94 0 0 0 .44-.111c.142-.074.259-.183.35-.329s.139-.333.139-.554zm5.455-1.375l-.938.102c-.026-.095-.073-.184-.139-.267a.69.69 0 0 0-.261-.202c-.11-.051-.245-.076-.404-.076a.98.98 0 0 0-.539.139c-.144.093-.215.213-.214.361a.38.38 0 0 0 .14.309c.096.08.255.145.477.196l.744.159c.413.089.72.23.921.424s.305.446.307.758c-.002.275-.083.517-.242.727a1.54 1.54 0 0 1-.656.489 2.47 2.47 0 0 1-.966.176c-.534 0-.964-.112-1.29-.335s-.52-.539-.582-.94l1.003-.097c.045.197.142.346.289.446s.34.151.577.151c.244 0 .44-.051.588-.151s.225-.224.225-.372a.39.39 0 0 0-.145-.31c-.095-.081-.243-.144-.444-.187l-.744-.156c-.418-.088-.728-.234-.929-.441s-.3-.471-.298-.79c-.002-.269.071-.501.219-.698a1.43 1.43 0 0 1 .622-.461c.267-.11.575-.164.923-.164.511 0 .914.108 1.207.326s.479.513.549.884zm2.793 3.295c-.437 0-.815-.091-1.133-.273a1.84 1.84 0 0 1-.73-.778c-.171-.337-.256-.734-.256-1.19 0-.449.085-.843.256-1.182a1.94 1.94 0 0 1 .721-.796c.309-.191.672-.286 1.088-.286a2.21 2.21 0 0 1 .762.13c.24.085.452.218.636.398s.332.409.438.687.159.607.159.989v.315h-3.577v-.693h2.591c-.002-.197-.045-.372-.128-.525s-.2-.278-.349-.367-.32-.133-.517-.133c-.211 0-.395.051-.554.153s-.284.233-.373.398-.131.342-.133.537v.605c0 .254.046.471.139.653a1 1 0 0 0 .389.415c.167.095.362.142.586.142.149 0 .285-.021.406-.062a.9.9 0 0 0 .315-.191c.089-.083.156-.186.202-.309l.96.108c-.061.253-.176.475-.347.664s-.384.334-.647.438a2.49 2.49 0 0 1-.904.153zm2.731-.085v-4.364h.997v.728h.045c.08-.252.216-.446.409-.583a1.13 1.13 0 0 1 .668-.207l.19.008c.072.004.132.011.179.02v.946a1.06 1.06 0 0 0-.207-.039 1.81 1.81 0 0 0-.27-.02c-.187 0-.356.04-.506.122a.89.89 0 0 0-.349.332.94.94 0 0 0-.128.492V438h-1.028zm6.54-3.21l-.937.102a.76.76 0 0 0-.139-.267.7.7 0 0 0-.262-.202.95.95 0 0 0-.403-.076c-.214 0-.394.046-.54.139s-.215.213-.213.361c-.002.126.045.23.139.309s.256.145.478.196l.744.159c.413.089.72.23.92.424s.305.446.307.758c-.002.275-.082.517-.241.727s-.376.372-.657.489-.602.176-.965.176c-.535 0-.964-.112-1.29-.335s-.52-.539-.583-.94l1.003-.097c.046.197.142.346.29.446s.34.151.577.151c.244 0 .44-.051.588-.151s.224-.224.224-.372c0-.125-.048-.228-.145-.31s-.242-.144-.443-.187l-.744-.156c-.419-.088-.728-.234-.929-.441s-.3-.471-.298-.79a1.12 1.12 0 0 1 .218-.698c.15-.199.357-.353.622-.461s.575-.164.924-.164c.511 0 .914.108 1.207.326s.478.513.548.884zm4.67 3.295c-.426 0-.795-.094-1.108-.281s-.555-.45-.727-.787-.256-.731-.256-1.182.085-.845.256-1.184.415-.603.727-.79.682-.281 1.108-.281.795.093 1.108.281.554.451.724.79.259.733.259 1.184-.086.845-.259 1.182-.412.599-.724.787-.682.281-1.108.281zm.006-.824c.231 0 .424-.063.579-.19s.271-.301.347-.517.116-.456.116-.722-.039-.508-.116-.724-.191-.391-.347-.52-.348-.193-.579-.193a.9.9 0 0 0-.591.193c-.156.129-.272.302-.35.52s-.113.457-.113.724.038.506.113.722.194.388.35.517.354.19.591.19zm2.878 2.375v-6h1.011v.722h.06a1.91 1.91 0 0 1 .224-.338c.097-.121.228-.225.392-.31s.375-.13.631-.13c.337 0 .641.086.912.258s.489.423.648.759.241.742.241 1.227c0 .479-.078.886-.236 1.221s-.371.591-.642.767-.577.265-.92.265c-.25 0-.458-.042-.622-.125s-.298-.184-.398-.301a1.92 1.92 0 0 1-.23-.339h-.043v2.324h-1.028zm1.008-3.818a2.1 2.1 0 0 0 .12.742c.081.212.198.377.349.497a.89.89 0 0 0 .557.176c.227 0 .417-.061.571-.182s.269-.291.346-.503.12-.457.12-.73a2.06 2.06 0 0 0-.117-.721c-.077-.211-.193-.375-.346-.495a.91.91 0 0 0-.574-.179c-.22 0-.406.058-.56.174a1.06 1.06 0 0 0-.349.485c-.078.209-.117.454-.117.736zm5.844 2.267c-.438 0-.816-.091-1.134-.273a1.84 1.84 0 0 1-.73-.778c-.17-.337-.256-.734-.256-1.19 0-.449.086-.843.256-1.182s.413-.606.722-.796.671-.286 1.088-.286c.269 0 .522.043.761.13s.453.218.636.398.332.409.438.687.159.607.159.989v.315h-3.577v-.693h2.591c-.002-.197-.044-.372-.128-.525a.92.92 0 0 0-.349-.367c-.148-.089-.32-.133-.517-.133-.21 0-.395.051-.554.153s-.283.233-.372.398a1.15 1.15 0 0 0-.134.537v.605a1.43 1.43 0 0 0 .139.653c.093.18.223.318.39.415s.361.142.585.142c.149 0 .285-.021.406-.062a.9.9 0 0 0 .315-.191c.089-.083.157-.186.202-.309l.96.108c-.06.253-.176.475-.346.664a1.69 1.69 0 0 1-.648.438c-.263.102-.564.153-.903.153zm3.758-2.642V438h-1.028v-4.364h.983v.742h.051c.1-.244.26-.439.48-.583s.495-.215.821-.215c.301 0 .564.064.787.193a1.3 1.3 0 0 1 .523.559c.125.245.186.541.185.89V438h-1.029v-2.619c0-.292-.076-.52-.227-.685s-.357-.247-.622-.247a.96.96 0 0 0-.48.119c-.139.078-.248.191-.327.338s-.117.327-.117.537zm5.699 2.642c-.438 0-.816-.091-1.134-.273s-.559-.443-.73-.778-.256-.734-.256-1.19c0-.449.086-.843.256-1.182a1.94 1.94 0 0 1 .722-.796c.308-.191.671-.286 1.088-.286a2.2 2.2 0 0 1 .761.13 1.72 1.72 0 0 1 .637.398c.185.18.331.409.437.687s.159.607.159.989v.315h-3.577v-.693h2.591c-.002-.197-.044-.372-.127-.525a.93.93 0 0 0-.35-.367c-.148-.089-.32-.133-.517-.133-.21 0-.395.051-.554.153s-.283.233-.372.398a1.15 1.15 0 0 0-.134.537v.605c0 .254.047.471.14.653a.99.99 0 0 0 .389.415 1.16 1.16 0 0 0 .585.142 1.26 1.26 0 0 0 .406-.062c.121-.044.227-.107.316-.191s.156-.186.201-.309l.961.108c-.061.253-.177.475-.347.664a1.69 1.69 0 0 1-.648.438c-.263.102-.564.153-.903.153zm4.349-.008c-.342 0-.649-.088-.92-.265s-.485-.431-.642-.767-.236-.742-.236-1.221c0-.485.08-.894.239-1.227a1.77 1.77 0 0 1 .65-.759c.273-.172.577-.258.912-.258.256 0 .466.043.631.13s.295.189.392.31.171.232.224.338h.043v-2.176h1.031V438h-1.011v-.688h-.063c-.053.107-.129.219-.23.339s-.233.217-.397.301-.373.125-.623.125zm.287-.844a.89.89 0 0 0 .557-.176c.154-.12.27-.285.35-.497s.119-.46.119-.742-.04-.527-.119-.736a1.05 1.05 0 0 0-.347-.485c-.151-.116-.338-.174-.56-.174-.229 0-.42.06-.573.179s-.269.284-.347.495a2.06 2.06 0 0 0-.117.721c0 .273.039.516.117.73s.196.38.349.503.346.182.571.182z" fill="#636369"/><rect x="-1" y="1" width="419" height="157" rx="7" transform="matrix(-1 0 0 1 511 400)" stroke="#e1e8f2" class="O S"/><defs><clipPath id="A"><rect x="189.645" y="230" width="32" height="32" rx="16" class="G"/></clipPath><clipPath id="B"><rect x="165.645" y="230" width="32" height="32" rx="16" class="G"/></clipPath><clipPath id="C"><rect x="141.645" y="230" width="32" height="32" rx="16" class="G"/></clipPath><clipPath id="D"><path transform="translate(116 424)" d="M0 0h22v22H0z" class="G"/></clipPath><path id="E" d="M188.911 266.188l2.888-9.96c.284-.988 1.086-1.753 2.086-2l6.479-1.604a6.16 6.16 0 0 0 6.159 5.862c3.307 0 6.01-2.604 6.158-5.862l6.492 1.604a2.89 2.89 0 0 1 2.086 2.012l2.863 9.948h-35.211z"/><path id="F" d="M212.681 252.624a6.16 6.16 0 0 1-6.158 5.862 6.17 6.17 0 0 1-6.159-5.862l1.333-.124c.025 2.654 2.172 4.789 4.826 4.789s4.801-2.135 4.825-4.789l1.333.124z"/><path id="G" d="M205.018 238.234c.012.098-.494.247-1.136.321-.481.061-1.036.037-1.444.333.223-.593.852-.642 1.407-.704.63-.074 1.161-.061 1.173.05z"/><path id="H" d="M189.202 255.855c-7.473 5.439-14.74.061-14.825 0a14.02 14.02 0 0 1 2.059-.581c1.466-.291 2.519-1.587 2.519-3.089v-2.991c-3.33-3.053-3.1-8.552-3.1-8.552a.87.87 0 0 0 .097-.121c1.126-.46 3.791-1.635 5.632-3.101a9.43 9.43 0 0 0 .642-.557s.23.23.617.57c.969.86 2.907 2.446 4.615 3.076a.72.72 0 0 0 .073.133c.048 4.07-1.89 7.171-1.89 7.171s-.363.69-1.017 1.381v3.003c0 1.502 1.054 2.798 2.519 3.089.606.109 1.296.303 2.059.569z"/><path id="I" d="M179.017 242.265c.247 0 .448-.217.448-.484s-.201-.485-.448-.485-.449.217-.449.485.201.484.449.484z"/><path id="J" d="M152.91 239.861l.265.205c.024.024.072.036.108.036.049 0 .085.012.121.036.084.06.096.193.012.265-.048.048-.133.06-.193.024a.19.19 0 0 1-.096-.121c-.012-.036-.024-.072-.06-.096l-.41-.325"/></defs></svg>