<svg width="24" height="25" viewBox="0 0 24 25" fill="none" xmlns="http://www.w3.org/2000/svg">
<mask id="mask0_6237_38931" style="mask-type:alpha" maskUnits="userSpaceOnUse" x="0" y="0" width="24" height="25">
<rect y="0.595703" width="24" height="24" fill="#D9D9D9"/>
</mask>
<g mask="url(#mask0_6237_38931)">
<path d="M8 20.5957C7.45 20.5957 6.97933 20.4 6.588 20.0087C6.196 19.6167 6 19.1457 6 18.5957V15.5957H9V13.3457C8.41667 13.3124 7.86267 13.183 7.338 12.9577C6.81267 12.733 6.33333 12.3957 5.9 11.9457V10.8457H4.75L1.5 7.5957C2.1 6.82904 2.84167 6.28737 3.725 5.9707C4.60833 5.65404 5.5 5.4957 6.4 5.4957C6.85 5.4957 7.28767 5.52904 7.713 5.5957C8.13767 5.66237 8.56667 5.78737 9 5.9707V4.5957H21V17.5957C21 18.429 20.7083 19.1374 20.125 19.7207C19.5417 20.304 18.8333 20.5957 18 20.5957H8ZM11 15.5957H17V17.5957C17 17.879 17.096 18.1164 17.288 18.3077C17.4793 18.4997 17.7167 18.5957 18 18.5957C18.2833 18.5957 18.5207 18.4997 18.712 18.3077C18.904 18.1164 19 17.879 19 17.5957V6.5957H11V7.1957L17 13.1957V14.5957H15.6L12.75 11.7457L12.55 11.9457C12.3167 12.179 12.0707 12.3874 11.812 12.5707C11.554 12.754 11.2833 12.8957 11 12.9957V15.5957ZM5.6 8.8457H7.9V10.9957C8.1 11.129 8.30833 11.2207 8.525 11.2707C8.74167 11.3207 8.96667 11.3457 9.2 11.3457C9.58333 11.3457 9.92933 11.2874 10.238 11.1707C10.546 11.054 10.85 10.8457 11.15 10.5457L11.35 10.3457L9.95 8.9457C9.46667 8.46237 8.925 8.0997 8.325 7.8577C7.725 7.61637 7.08333 7.4957 6.4 7.4957C6.06667 7.4957 5.75 7.5207 5.45 7.5707C5.15 7.6207 4.85 7.6957 4.55 7.7957L5.6 8.8457ZM8 18.5957H15.15C15.1 18.4457 15.0627 18.2874 15.038 18.1207C15.0127 17.954 15 17.779 15 17.5957H8V18.5957Z" fill="#1C1B1F"/>
</g>
</svg>
