<svg width="24" height="25" viewBox="0 0 24 25" fill="none" xmlns="http://www.w3.org/2000/svg">
<mask id="mask0_6237_38925" style="mask-type:alpha" maskUnits="userSpaceOnUse" x="0" y="0" width="24" height="25">
<rect y="0.595703" width="24" height="24" fill="#D9D9D9"/>
</mask>
<g mask="url(#mask0_6237_38925)">
<path d="M11 21.5957V19.5957H19V12.4957C19 11.529 18.8167 10.6207 18.45 9.7707C18.0833 8.9207 17.5833 8.17904 16.95 7.5457C16.3167 6.91237 15.575 6.41237 14.725 6.0457C13.875 5.67904 12.9667 5.4957 12 5.4957C11.0333 5.4957 10.125 5.67904 9.275 6.0457C8.425 6.41237 7.68333 6.91237 7.05 7.5457C6.41667 8.17904 5.91667 8.9207 5.55 9.7707C5.18333 10.6207 5 11.529 5 12.4957V18.5957H4C3.45 18.5957 2.97933 18.4 2.588 18.0087C2.196 17.6167 2 17.1457 2 16.5957V14.5957C2 14.2124 2.09167 13.8747 2.275 13.5827C2.45833 13.2914 2.7 13.054 3 12.8707L3.075 11.5457C3.225 10.329 3.571 9.22904 4.113 8.2457C4.65433 7.26237 5.32933 6.42904 6.138 5.7457C6.946 5.06237 7.85433 4.53304 8.863 4.1577C9.871 3.78304 10.9167 3.5957 12 3.5957C13.1 3.5957 14.1543 3.78304 15.163 4.1577C16.171 4.53304 17.075 5.06637 17.875 5.7577C18.675 6.4497 19.346 7.28304 19.888 8.2577C20.4293 9.23304 20.775 10.3207 20.925 11.5207L21 12.8207C21.3 12.9707 21.5417 13.1914 21.725 13.4827C21.9083 13.7747 22 14.0957 22 14.4457V16.7457C22 17.1124 21.9083 17.4374 21.725 17.7207C21.5417 18.004 21.3 18.2207 21 18.3707V19.5957C21 20.1457 20.8043 20.6167 20.413 21.0087C20.021 21.4 19.55 21.5957 19 21.5957H11ZM9 14.5957C8.71667 14.5957 8.47933 14.4997 8.288 14.3077C8.096 14.1164 8 13.879 8 13.5957C8 13.3124 8.096 13.0747 8.288 12.8827C8.47933 12.6914 8.71667 12.5957 9 12.5957C9.28333 12.5957 9.521 12.6914 9.713 12.8827C9.90433 13.0747 10 13.3124 10 13.5957C10 13.879 9.90433 14.1164 9.713 14.3077C9.521 14.4997 9.28333 14.5957 9 14.5957ZM15 14.5957C14.7167 14.5957 14.4793 14.4997 14.288 14.3077C14.096 14.1164 14 13.879 14 13.5957C14 13.3124 14.096 13.0747 14.288 12.8827C14.4793 12.6914 14.7167 12.5957 15 12.5957C15.2833 12.5957 15.521 12.6914 15.713 12.8827C15.9043 13.0747 16 13.3124 16 13.5957C16 13.879 15.9043 14.1164 15.713 14.3077C15.521 14.4997 15.2833 14.5957 15 14.5957ZM6.025 13.0457C5.95833 12.0624 6.096 11.1707 6.438 10.3707C6.77933 9.5707 7.23733 8.89137 7.812 8.3327C8.38733 7.7747 9.05 7.3457 9.8 7.0457C10.55 6.7457 11.3 6.5957 12.05 6.5957C13.5667 6.5957 14.8793 7.07504 15.988 8.0337C17.096 8.9917 17.7667 10.1874 18 11.6207C16.4333 11.604 15.0167 11.183 13.75 10.3577C12.4833 9.53304 11.525 8.46237 10.875 7.1457C10.6083 8.4957 10.046 9.69137 9.188 10.7327C8.32933 11.7747 7.275 12.5457 6.025 13.0457Z" fill="#1C1B1F"/>
</g>
</svg>
