<svg width="24" height="25" viewBox="0 0 24 25" fill="none" xmlns="http://www.w3.org/2000/svg">
<mask id="mask0_6237_38928" style="mask-type:alpha" maskUnits="userSpaceOnUse" x="0" y="0" width="24" height="25">
<rect y="0.595703" width="24" height="24" fill="#D9D9D9"/>
</mask>
<g mask="url(#mask0_6237_38928)">
<path d="M6 20.5957L7 16.5957H3.5L4 14.5957H7.5L8.5 10.5957H4.5L5 8.5957H9L10 4.5957H12L11 8.5957H15L16 4.5957H18L17 8.5957H20.5L20 10.5957H16.5L15.5 14.5957H19.5L19 16.5957H15L14 20.5957H12L13 16.5957H9L8 20.5957H6ZM9.5 14.5957H13.5L14.5 10.5957H10.5L9.5 14.5957Z" fill="#1C1B1F"/>
</g>
</svg>
