<svg xmlns="http://www.w3.org/2000/svg" xmlns:xlink="http://www.w3.org/1999/xlink" width="608" height="560" fill="none" xmlns:v="https://vecta.io/nano"><g stroke="#97969c" stroke-dasharray="4 4"><path d="M559.504-31.556v78.64m0 544.473v-280.31m0-65.742V97.287M457.312-31.179l.001 402.046m0 220.515V395.539M355.621-31.368v164.793m0 457.954v-81.246m0-293.993v244.395M252.93-31.179v90.743m0 531.81V83.867M150.739-31.366l-.001 373.692m0 249.057V425.4M48.547-31.558V152.27m0 439.102V288.354m0-90.065v72.832"/><path d="M0 487.054h330.227m277.773 0H379.607M0 383.261h112.263m495.737 0H469.346m-278.878 0h254.206M0 175.675h25.672m582.328 0H396.708m-80.708 0H73.358M0 279.468h39.48m568.521 0h-15.322m-65.324 0H57.12M0 71.882h239.558m368.442 0h-25.121m-48.339 0H265.522"/><use xlink:href="#E"/><path d="M559.48 95.8l10.183-13.818L583.48 71.8l-13.817-10.182L559.48 47.8l-10.182 13.818L535.48 71.8l13.818 10.182L559.48 95.8z"/><use xlink:href="#E" x="-307.019" y="-311.504"/><path d="M559.469 311.384l13.576-18.424 18.424-13.576-18.424-13.577-13.576-18.423-13.577 18.423-18.423 13.577 18.423 13.576 13.577 18.424zM150.754 423.29l16.97-23.029 23.03-16.971-23.03-16.971-16.97-23.029-16.971 23.029-23.029 16.971 23.029 16.971 16.971 23.029zm204.867-207.609l16.971-23.03 23.029-16.97-23.029-16.971-16.971-23.029-16.97 23.029-23.03 16.971 23.03 16.97 16.97 23.03z"/><circle r="12" transform="matrix(1 0 0 -1 457.246 383.261)"/><circle r="8" transform="matrix(1 0 0 -1 48.5469 279.468)"/><circle r="12" transform="matrix(1 0 0 -1 252.598 71.8818)"/></g><g transform="matrix(-1 0 0 1 543.328 73.4053)"><rect x="-2" y="2" width="441.955" height="422.315" rx="6" fill="#121212"/><rect x="-2" y="2" width="441.955" height="422.315" rx="6" stroke="#121212" stroke-width="4"/></g><g transform="matrix(-1 0 0 1 525.039 60.4863)"><rect x="-2" y="2" width="441.12" height="419.085" rx="6" fill="#f5f6f8"/><rect x="-2" y="2" width="441.12" height="419.085" rx="6" stroke="#121212" stroke-width="4"/></g><rect x="96" y="73.404" width="422" height="38" rx="4" fill="#fff"/><rect x="113" y="87.404" width="10" height="10" rx="5" fill="#eb5757"/><rect x="131" y="87.404" width="10" height="10" rx="5" fill="#f2c94c"/><rect x="149" y="87.404" width="10" height="10" rx="5" fill="#27ae60"/><g fill="#e7edf5"><path d="M492.438 86.404a1 1 0 1 0-2 0h2zm-2 12a1 1 0 1 0 2 0h-2zm0-12v12h2v-12h-2z"/><path d="M497.437 93.404a1 1 0 1 0 .001-2l-.001 2zm-11.999-2a1 1 0 1 0-.001 2l.001-2zm12 0h-12l-.001 2h12l.001-2z"/></g><rect x="-1" y="1" width="419" height="345" rx="7" transform="matrix(-1 0 0 1 515 124.404)" fill="#f5f6f8"/><rect x="120.5" y="346.5" width="104.33" height="103" rx="7.5" fill="#fff"/><path d="M151.181 428.32c5.408 0 8.832-2.048 8.832-6.208 0-3.168-1.856-5.024-4.928-5.312v-.192c2.816-.32 4.032-2.048 4.032-4.576 0-3.84-3.072-5.792-8.128-5.792-5.504 0-8.672 2.624-8.672 6.88v.352h4.704v-.288c0-1.952.992-2.528 3.84-2.528 2.24 0 3.456.576 3.456 2.272 0 1.728-.736 2.112-2.656 2.112h-4v3.904h4.512c2.08 0 2.976.416 2.976 2.528 0 1.984-1.344 2.432-3.968 2.432-3.424 0-4.16-.576-4.16-2.528v-.64h-4.704v.704c0 4.256 2.4 6.88 8.864 6.88zm19.745 0c6.496 0 9.024-3.136 9.024-7.52 0-4.256-2.528-6.912-7.264-6.912-2.912 0-4.768.896-5.6 1.664h-.128l.352-4.672h11.488v-4.32h-15.744l-.64 11.904 4.256.576c.704-.416 2.272-1.088 4.416-1.088 3.008 0 4.16.768 4.16 3.008 0 2.176-1.056 2.976-4.096 2.976-2.848 0-4.128-.512-4.128-2.08v-.256h-4.768v.256c0 3.968 2.88 6.464 8.672 6.464zm21.13 0c6.144 0 9.6-4.352 9.6-11.04 0-6.656-3.456-11.04-9.6-11.04-6.176 0-9.632 4.384-9.632 11.04 0 6.688 3.456 11.04 9.632 11.04zm0-4.64c-3.296 0-4.512-1.312-4.512-6.4s1.216-6.4 4.512-6.4c3.264 0 4.48 1.312 4.48 6.4s-1.216 6.4-4.48 6.4z" fill="#000"/><g clip-path="url(#A)"><path d="M155.476 368.134l-3.708-1.372-1.384-4.538c-.053-.175-.216-.295-.398-.295a.42.42 0 0 0-.399.295l-1.384 4.538-3.708 1.372c-.164.061-.272.216-.272.391s.108.33.272.391l3.706 1.372 1.385 4.676c.052.177.215.298.4.298s.347-.121.399-.298l1.385-4.677 3.707-1.372c.163-.06.271-.215.271-.39s-.108-.33-.272-.391z" fill="#ffac33"/><path d="M147.143 372.719l-.964-.357-.375-1.375c-.049-.182-.214-.308-.402-.308a.42.42 0 0 0-.402.308l-.375 1.375-.963.356c-.164.061-.272.217-.272.391s.108.33.272.391l.958.355.378 1.509c.047.185.213.315.404.315s.358-.13.405-.315l.378-1.509.958-.356c.164-.06.272-.216.272-.39s-.108-.33-.272-.39zm-1.807-9.027l-.985-.364-.365-.986c-.061-.163-.216-.272-.391-.272a.42.42 0 0 0-.391.272l-.364.986-.986.364c-.164.061-.272.217-.272.391s.108.331.272.391l.986.365.364.985c.061.164.217.272.391.272s.33-.108.391-.272l.364-.985.986-.365c.164-.061.272-.217.272-.391s-.108-.33-.272-.391z" fill="#ffcc4d"/></g><path d="M162.835 367.322a.97.97 0 0 0-.419-.724c-.244-.173-.561-.259-.952-.259-.275 0-.51.041-.707.124s-.346.195-.451.337a.82.82 0 0 0-.159.487c0 .151.034.283.103.394s.166.206.287.284.255.14.401.192.295.096.444.131l.682.171c.275.064.539.15.792.259s.484.246.685.412.365.366.483.6.178.509.178.824c0 .426-.109.801-.327 1.126s-.532.574-.944.756-.906.27-1.488.27c-.566 0-1.057-.088-1.474-.263s-.739-.431-.973-.767-.357-.746-.376-1.229h1.296c.019.254.097.464.234.632s.316.294.536.377.471.124.746.124c.287 0 .537-.043.753-.128a1.21 1.21 0 0 0 .511-.362c.123-.156.186-.339.188-.547a.7.7 0 0 0-.166-.469 1.23 1.23 0 0 0-.459-.312c-.194-.085-.421-.161-.681-.227l-.828-.213c-.599-.154-1.072-.388-1.42-.7s-.519-.733-.519-1.254c0-.428.116-.803.348-1.125s.553-.572.956-.75.858-.269 1.367-.269c.516 0 .968.09 1.356.269s.698.425.92.743.337.677.345 1.086h-1.268zm4.799 5.38c-.546 0-1.019-.113-1.416-.341a2.3 2.3 0 0 1-.913-.973c-.213-.421-.32-.917-.32-1.488 0-.561.107-1.053.32-1.477s.516-.757.902-.994.839-.359 1.36-.359a2.78 2.78 0 0 1 .952.163c.3.107.566.273.795.498s.414.511.547.859.199.758.199 1.236v.394h-4.471v-.866h3.239c-.003-.247-.056-.466-.16-.657s-.25-.347-.437-.459a1.23 1.23 0 0 0-.646-.166c-.263 0-.494.063-.693.191a1.33 1.33 0 0 0-.465.497 1.44 1.44 0 0 0-.167.672v.756c0 .317.058.59.174.817s.278.398.487.518.452.178.731.178c.187 0 .357-.026.508-.078a1.13 1.13 0 0 0 .394-.238c.111-.104.196-.233.252-.387l1.201.135a1.88 1.88 0 0 1-.434.831c-.21.234-.48.416-.809.546s-.706.192-1.13.192zm4.699-3.302v3.196h-1.286v-5.455h1.229v.927h.064c.126-.305.326-.548.6-.728s.619-.27 1.026-.27c.377 0 .705.081.984.242s.5.394.654.699.233.676.23 1.112v3.473h-1.285v-3.274c0-.365-.095-.65-.284-.856s-.447-.309-.778-.309c-.225 0-.425.049-.6.149s-.309.238-.408.423-.146.408-.146.671zm7.432-2.259v.994h-3.136v-.994h3.136zm-2.362-1.307h1.286v5.121c0 .173.026.305.078.398a.42.42 0 0 0 .213.184.8.8 0 0 0 .291.05 1.23 1.23 0 0 0 .22-.018l.157-.032.216 1.005a2.89 2.89 0 0 1-.294.079c-.126.028-.28.045-.462.049-.322.01-.612-.039-.87-.145s-.463-.277-.614-.505-.223-.511-.221-.852v-5.334z" fill="#747486"/><rect x="120.5" y="346.5" width="104.33" height="103" rx="7.5" stroke="#dfe7f2"/><rect x="249.835" y="346.5" width="104.33" height="103" rx="7.5" fill="#fff"/><path d="M288.996 428v-4.32h-8.192l-3.456.064c0-1.024 1.312-1.696 3.072-2.496l3.232-1.408c2.784-1.248 5.408-3.136 5.408-6.848 0-3.872-2.272-6.752-7.936-6.752-6.368 0-8.928 3.424-8.928 7.584v.512h4.8v-.544c0-2.304.64-3.168 3.744-3.168 2.848 0 3.552.864 3.552 2.4 0 1.408-.672 2.112-2.56 3.008l-3.712 1.76c-2.976 1.44-5.792 3.168-5.792 7.328V428h16.768zm11.705.32c6.08 0 9.12-3.648 9.12-10.944 0-7.616-2.464-11.136-9.312-11.136-5.728 0-8.736 2.752-8.736 7.072 0 4.064 2.4 6.496 7.072 6.496 3.2 0 4.896-1.088 5.856-2.496h.16v1.856c0 3.328-.704 4.576-3.84 4.576-2.368 0-3.36-.64-3.36-2.24v-.192h-5.088v.192c0 4.128 3.072 6.816 8.128 6.816zm-.224-12.384c-3.072 0-4-.704-4-2.528 0-1.856.928-2.56 4-2.56 3.008 0 3.968.704 3.968 2.56 0 1.824-.96 2.528-3.968 2.528zm20.072 12.384c5.824 0 9.184-2.048 9.184-6.24 0-3.136-2.08-4.672-4.16-5.28v-.192c2.016-.352 3.456-2.048 3.456-4.576 0-3.392-2.656-5.792-8.448-5.792s-8.448 2.4-8.448 5.792c0 2.528 1.44 4.224 3.456 4.576v.192c-2.112.608-4.16 2.144-4.16 5.28 0 4.192 3.328 6.24 9.12 6.24zm.032-12.992c-2.784 0-3.68-.736-3.68-2.368s.896-2.368 3.68-2.368c2.752 0 3.648.736 3.648 2.368s-.896 2.368-3.648 2.368zm0 8.672c-3.488 0-4.288-.864-4.288-2.72s.8-2.688 4.288-2.688c3.456 0 4.288.832 4.288 2.688s-.832 2.72-4.288 2.72z" fill="#000"/><g clip-path="url(#B)"><path d="M279.331 374.846c0 .92-3.333.92-3.333 0v-4.167c0-.92.746-1.666 1.667-1.666s1.666.746 1.666 1.666v4.167z" fill="#c1694f"/><path d="M274.331 362.346c-1.84 0-3.333 1.492-3.333 3.333v5h6.667v-5c0-1.841-1.493-3.333-3.334-3.333z" fill="#292f33"/><path d="M278.498 368.913c0 .515-.443.933-.955.933h-6.423c-.512 0-.955-.418-.955-.933v-4.384c0-.515.443-.933.955-.933h6.423c.512 0 .955.418.955.933v4.384h0z" fill="#ccd6dd"/><path d="M278.498 364.529c0-.515-.443-.933-.955-.933h-6.423c-.512 0-.955.418-.955.933v.591l2.033 2.043-1.992 2.003c.047.156.132.298.249.409l2.071-2.082 1.003 1.008c.439.441 1.154.441 1.592 0l1.011-1.014 2.077 2.088a.94.94 0 0 0 .248-.409l-1.997-2.008 2.038-2.043v-.586z" fill="#99aab5"/><path d="M277.543 363.596h-6.422c-.486 0-.905.377-.947.856l3.503 3.499c.362.364.949.35 1.311-.015l3.504-3.477c-.039-.482-.461-.863-.949-.863z" fill="#e1e8ed"/><path d="M280.999 362.346h-6.667c1.841 0 3.333 1.492 3.333 3.333v5h6.667v-5c0-1.841-1.492-3.333-3.333-3.333z" fill="#99aab5"/><path d="M280.998 361.513h-1.667c-.46 0-.833.373-.833.833v5c0 .46.373.833.833.833s.834-.373.834-.833v-3.333h.833c.46 0 .833-.374.833-.834v-.833c0-.46-.373-.833-.833-.833z" fill="#dd2e44"/></g><path d="M290.347 372.596h-2.465v-7.273h2.515c.722 0 1.342.146 1.86.437s.921.704 1.201 1.246.419 1.191.419 1.946-.141 1.409-.423 1.953-.683.963-1.211 1.254-1.158.437-1.896.437zm-1.147-1.14h1.083c.507 0 .929-.093 1.268-.277a1.77 1.77 0 0 0 .763-.835c.171-.371.256-.835.256-1.392s-.085-1.018-.256-1.385-.422-.645-.756-.827-.744-.277-1.236-.277H289.2v4.993zm8.186 1.246c-.546 0-1.019-.113-1.416-.341a2.3 2.3 0 0 1-.913-.973c-.213-.421-.32-.917-.32-1.488 0-.561.107-1.053.32-1.477s.516-.757.902-.994.839-.359 1.36-.359a2.78 2.78 0 0 1 .952.163c.3.107.565.273.795.498s.414.511.547.859.199.758.199 1.236v.394h-4.471v-.866h3.239c-.003-.247-.056-.466-.16-.657s-.25-.347-.437-.459a1.23 1.23 0 0 0-.646-.166c-.263 0-.494.063-.693.191a1.33 1.33 0 0 0-.465.497 1.43 1.43 0 0 0-.167.672v.756c0 .317.058.59.174.817s.278.398.487.518.452.178.731.178a1.56 1.56 0 0 0 .508-.078 1.13 1.13 0 0 0 .394-.238c.111-.104.195-.233.252-.387l1.201.135a1.88 1.88 0 0 1-.434.831c-.21.234-.48.416-.809.546s-.706.192-1.13.192zm4.699-7.379v7.273h-1.286v-7.273h1.286zm1.222 7.273v-5.455h1.285v5.455h-1.285zm.646-6.229c-.203 0-.379-.067-.525-.202s-.221-.302-.221-.494.074-.359.221-.494a.74.74 0 0 1 .525-.206c.206 0 .381.069.526.206a.65.65 0 0 1 .22.494c0 .192-.074.356-.22.494s-.32.202-.526.202zm6.733.774l-1.942 5.455h-1.421l-1.942-5.455h1.371l1.253 4.052h.057l1.257-4.052h1.367zm3.019 5.561c-.547 0-1.019-.113-1.417-.341s-.699-.554-.912-.973-.32-.917-.32-1.488c0-.561.107-1.053.32-1.477s.516-.757.902-.994.839-.359 1.36-.359a2.77 2.77 0 0 1 .951.163 2.16 2.16 0 0 1 .796.498c.232.225.414.511.547.859s.199.758.199 1.236v.394h-4.471v-.866h3.238c-.002-.247-.055-.466-.159-.657a1.17 1.17 0 0 0-.437-.459 1.23 1.23 0 0 0-.647-.166 1.25 1.25 0 0 0-.692.191 1.33 1.33 0 0 0-.465.497 1.43 1.43 0 0 0-.167.672v.756c0 .317.058.59.174.817s.278.398.486.518.453.178.732.178a1.56 1.56 0 0 0 .508-.078 1.14 1.14 0 0 0 .394-.238c.111-.104.195-.233.252-.387l1.2.135c-.075.317-.22.594-.433.831a2.11 2.11 0 0 1-.81.546c-.329.128-.705.192-1.129.192zm3.413-.106v-5.455h1.247v.909h.056c.1-.315.27-.557.512-.728s.522-.259.834-.259l.238.011c.09.004.165.013.224.025v1.182a1.42 1.42 0 0 0-.259-.05 2.48 2.48 0 0 0-.338-.025 1.3 1.3 0 0 0-.632.153c-.184.1-.33.238-.437.416s-.159.382-.159.614v3.207h-1.286zm6.055.106c-.547 0-1.019-.113-1.417-.341s-.699-.554-.912-.973-.32-.917-.32-1.488c0-.561.107-1.053.32-1.477s.516-.757.902-.994.839-.359 1.36-.359a2.77 2.77 0 0 1 .951.163 2.16 2.16 0 0 1 .796.498c.232.225.414.511.547.859s.199.758.199 1.236v.394h-4.471v-.866h3.238c-.002-.247-.055-.466-.159-.657a1.17 1.17 0 0 0-.437-.459 1.23 1.23 0 0 0-.647-.166 1.25 1.25 0 0 0-.692.191 1.33 1.33 0 0 0-.465.497 1.43 1.43 0 0 0-.167.672v.756c0 .317.058.59.174.817s.278.398.486.518.453.178.732.178a1.56 1.56 0 0 0 .508-.078 1.14 1.14 0 0 0 .394-.238c.111-.104.195-.233.252-.387l1.2.135c-.075.317-.22.594-.433.831s-.481.416-.81.546-.705.192-1.129.192zm5.437-.01c-.428 0-.812-.111-1.15-.331s-.606-.539-.803-.958-.295-.929-.295-1.527c0-.607.1-1.118.299-1.535s.472-.735.813-.948.721-.323 1.14-.323c.319 0 .582.055.788.163s.369.236.49.388a2.41 2.41 0 0 1 .281.422h.053v-2.72h1.289v7.273h-1.264v-.86h-.078c-.067.133-.162.274-.288.423a1.57 1.57 0 0 1-.497.376c-.206.105-.465.157-.778.157zm.359-1.055a1.11 1.11 0 0 0 .696-.22c.192-.149.337-.357.437-.622s.149-.574.149-.927-.05-.659-.149-.919a1.31 1.31 0 0 0-.434-.608c-.189-.144-.422-.216-.699-.216-.287 0-.526.074-.717.224s-.337.355-.434.617-.145.564-.145.902.048.646.145.913.245.475.437.629.432.227.714.227z" fill="#747486"/><rect x="249.835" y="346.5" width="104.33" height="103" rx="7.5" stroke="#dfe7f2"/><rect x="379.17" y="346.5" width="104.33" height="103" rx="7.5" fill="#fff"/><path d="M418.661 428v-4.32h-8.192l-3.456.064c0-1.024 1.312-1.696 3.072-2.496l3.232-1.408c2.784-1.248 5.408-3.136 5.408-6.848 0-3.872-2.272-6.752-7.936-6.752-6.368 0-8.928 3.424-8.928 7.584v.512h4.8v-.544c0-2.304.64-3.168 3.744-3.168 2.848 0 3.552.864 3.552 2.4 0 1.408-.672 2.112-2.56 3.008l-3.712 1.76c-2.976 1.44-5.792 3.168-5.792 7.328V428h16.768zm11.705.32c6.08 0 9.12-3.648 9.12-10.944 0-7.616-2.464-11.136-9.312-11.136-5.728 0-8.736 2.752-8.736 7.072 0 4.064 2.4 6.496 7.072 6.496 3.2 0 4.896-1.088 5.856-2.496h.16v1.856c0 3.328-.704 4.576-3.84 4.576-2.368 0-3.36-.64-3.36-2.24v-.192h-5.088v.192c0 4.128 3.072 6.816 8.128 6.816zm-.224-12.384c-3.072 0-4-.704-4-2.528 0-1.856.928-2.56 4-2.56 3.008 0 3.968.704 3.968 2.56 0 1.824-.96 2.528-3.968 2.528zM458.475 428v-4.32h-8.192l-3.456.064c0-1.024 1.312-1.696 3.072-2.496l3.232-1.408c2.784-1.248 5.408-3.136 5.408-6.848 0-3.872-2.272-6.752-7.936-6.752-6.368 0-8.928 3.424-8.928 7.584v.512h4.8v-.544c0-2.304.64-3.168 3.744-3.168 2.848 0 3.552.864 3.552 2.4 0 1.408-.672 2.112-2.56 3.008l-3.712 1.76c-2.976 1.44-5.792 3.168-5.792 7.328V428h16.768z" fill="#000"/><g clip-path="url(#C)"><path d="M411.192 364.068c3.067 3.066 3.896 7.21 1.851 9.254s-6.187 1.216-9.254-1.85l-.298-.32 1.84-1.84c2.385 2.385 5.423 3.214 6.786 1.851s.534-4.401-1.85-6.786l.009.008-.009-.009c-2.725-2.726-6.455-3.416-8.328-1.542-.907.906-1.207 2.247-.975 3.697-.357-1.702-.062-3.278.975-4.314 2.044-2.044 6.187-1.215 9.253 1.851z" fill="#fdd888"/><path d="M407.25 375.263a.51.51 0 0 1-.3-.097l-2.115-1.517-2.115 1.517a.51.51 0 0 1-.601-.002c-.179-.13-.255-.36-.188-.57l.789-2.546-2.096-1.477c-.178-.131-.252-.362-.184-.573s.264-.353.485-.355l2.562-.005.861-2.482c.07-.21.266-.351.487-.351s.418.141.488.351l.777 2.482 2.645.005c.222.002.417.145.485.355a.51.51 0 0 1-.184.573l-2.096 1.477.789 2.546c.067.21-.009.441-.187.57-.091.066-.197.099-.302.099h0z" fill="#ffac33"/></g><path d="M423.381 368.959c0 .784-.147 1.455-.44 2.014s-.689.982-1.194 1.278-1.071.444-1.708.444-1.207-.148-1.711-.444-.9-.725-1.194-1.282-.436-1.228-.436-2.01.145-1.453.436-2.01.692-.986 1.194-1.282 1.074-.443 1.711-.443 1.207.148 1.708.443a3.12 3.12 0 0 1 1.194 1.282c.293.557.44 1.227.44 2.01zm-1.325 0c0-.551-.086-1.016-.259-1.395s-.407-.669-.71-.863-.652-.295-1.048-.295-.744.098-1.047.295-.541.482-.714.863-.256.844-.256 1.395.086 1.018.256 1.399.411.667.714.863.652.292 1.047.292.745-.097 1.048-.292.54-.484.71-.863.259-.847.259-1.399zm2.414 5.682v-7.5h1.264v.902h.074a2.41 2.41 0 0 1 .281-.422c.121-.152.284-.281.49-.388s.469-.163.788-.163a2.08 2.08 0 0 1 1.14.323c.341.213.611.529.81.948s.302.928.302 1.535c0 .598-.098 1.107-.295 1.527a2.24 2.24 0 0 1-.802.958 2.07 2.07 0 0 1-1.151.331c-.313 0-.572-.052-.778-.157a1.58 1.58 0 0 1-.497-.376c-.123-.149-.219-.29-.288-.423h-.053v2.905h-1.285zm1.26-4.773c0 .353.05.662.149.927a1.42 1.42 0 0 0 .437.622 1.11 1.11 0 0 0 .696.22c.284 0 .522-.076.714-.227s.336-.364.433-.629.149-.572.149-.913-.048-.639-.145-.902a1.36 1.36 0 0 0-.433-.617c-.192-.15-.431-.224-.718-.224a1.13 1.13 0 0 0-.699.216 1.33 1.33 0 0 0-.437.608c-.097.26-.146.567-.146.919zm7.304 2.834c-.546 0-1.019-.113-1.416-.341a2.3 2.3 0 0 1-.913-.973c-.213-.421-.32-.917-.32-1.488 0-.561.107-1.053.32-1.477s.516-.757.902-.994.839-.359 1.36-.359a2.78 2.78 0 0 1 .952.163c.3.107.566.273.795.498s.414.511.547.859.199.758.199 1.236v.394h-4.471v-.866h3.239c-.003-.247-.056-.466-.16-.657s-.25-.347-.437-.459a1.23 1.23 0 0 0-.646-.166c-.263 0-.494.063-.693.191a1.33 1.33 0 0 0-.465.497 1.44 1.44 0 0 0-.167.672v.756c0 .317.058.59.174.817s.278.398.487.518.452.178.731.178c.187 0 .357-.026.508-.078a1.13 1.13 0 0 0 .394-.238c.111-.104.196-.233.252-.387l1.201.135a1.88 1.88 0 0 1-.434.831c-.21.234-.48.416-.809.546s-.706.192-1.13.192zm4.699-3.302v3.196h-1.286v-5.455h1.229v.927h.064c.126-.305.326-.548.6-.728s.619-.27 1.026-.27c.377 0 .705.081.984.242s.5.394.654.699.233.676.23 1.112v3.473h-1.285v-3.274c0-.365-.095-.65-.284-.856s-.447-.309-.778-.309c-.225 0-.425.049-.6.149s-.309.238-.408.423-.146.408-.146.671zm9.019-.817l-1.172.128a.93.93 0 0 0-.174-.334c-.08-.104-.189-.188-.326-.252s-.306-.096-.505-.096a1.23 1.23 0 0 0-.674.174c-.18.116-.269.266-.267.451-.002.159.056.288.174.387s.32.181.597.245l.93.199c.516.111.9.288 1.151.529s.381.558.383.948c-.002.343-.103.646-.301.909s-.47.464-.821.611-.753.22-1.207.22c-.668 0-1.205-.139-1.612-.419a1.68 1.68 0 0 1-.728-1.175l1.253-.121c.057.246.178.432.362.558s.425.188.721.188c.306 0 .551-.063.735-.188s.281-.281.281-.466c0-.156-.06-.285-.181-.387s-.303-.18-.554-.234l-.931-.195c-.523-.109-.91-.293-1.161-.551s-.375-.589-.373-.987a1.4 1.4 0 0 1 .274-.874c.187-.248.446-.44.778-.575s.718-.206 1.154-.206c.639 0 1.142.136 1.509.409s.598.64.685 1.104z" fill="#747486"/><rect x="379.17" y="346.5" width="104.33" height="103" rx="7.5" stroke="#dfe7f2"/><rect x="120" y="188" width="364" height="125" rx="8" fill="#fff"/><g fill="#eef1f7"><rect x="146.766" y="211" width="79" height="10" rx="5"/><rect x="246" y="211" width="203" height="10" rx="5"/><rect x="147" y="245" width="258" height="10" rx="5"/><rect x="147" y="279" width="286" height="10" rx="5"/></g><path d="M151.312 161.938v-5.707l-.144-2.322h.18l.72 2.358 1.818 4.842h3.276l1.818-4.842.702-2.358h.198l-.144 2.322v5.707h2.7v-12.061h-3.798l-2.016 5.634-.954 3.096h-.18l-.972-3.096-2.106-5.634h-3.798v12.061h2.7zm17.397.18c2.592 0 4.248-1.135 4.248-3.061v-.18h-2.664v.108c0 .558-.468.792-1.548.792-1.476 0-1.98-.504-2.034-1.764h6.21c.054-.306.126-.827.126-1.332 0-2.358-1.602-3.978-4.32-3.978-2.826 0-4.554 1.836-4.554 4.735 0 2.861 1.422 4.68 4.536 4.68zm-.072-7.201c1.26 0 1.872.522 1.818 1.458h-3.726c.108-.954.612-1.458 1.908-1.458zm10.327 7.201c2.502 0 3.888-1.081 3.888-2.773 0-1.476-.792-2.34-2.7-2.699l-1.656-.343c-1.08-.216-1.242-.342-1.242-.774s.252-.666 1.332-.666c1.152 0 1.404.324 1.404.918v.252h2.574v-.252c0-2.034-1.692-3.078-3.906-3.078-2.574 0-3.942 1.188-3.942 2.862s.972 2.43 2.754 2.754l1.368.252c1.206.216 1.458.324 1.458.81 0 .45-.18.612-1.278.612-1.314 0-1.71-.144-1.71-.81v-.378h-2.574v.054c0 2.196 1.386 3.259 4.23 3.259zm9.628 0c2.502 0 3.888-1.081 3.888-2.773 0-1.476-.792-2.34-2.7-2.699l-1.656-.343c-1.08-.216-1.242-.342-1.242-.774s.252-.666 1.332-.666c1.152 0 1.404.324 1.404.918v.252h2.574v-.252c0-2.034-1.692-3.078-3.906-3.078-2.574 0-3.942 1.188-3.942 2.862s.972 2.43 2.754 2.754l1.368.252c1.206.216 1.458.324 1.458.81 0 .45-.18.612-1.278.612-1.314 0-1.71-.144-1.71-.81v-.378h-2.574v.054c0 2.196 1.386 3.259 4.23 3.259zm8.187 0c1.674 0 2.592-.739 3.078-1.405h.108v1.225h2.502v-5.365c0-2.412-1.404-3.87-4.068-3.87-2.556 0-4.23 1.422-4.23 3.582v.198h2.574v-.198c0-.918.432-1.224 1.53-1.224 1.062 0 1.638.198 1.638 1.26v.288l-3.096.468c-1.872.288-2.88 1.152-2.88 2.556 0 1.638 1.242 2.485 2.844 2.485zm-.27-2.701c0-.378.252-.558.81-.648l2.592-.396c0 1.404-1.134 1.692-2.232 1.692-.792 0-1.17-.162-1.17-.648zm11.556 1.566c1.368 0 2.322-.612 2.718-1.314h.108v1.404c0 1.405-.288 1.729-1.71 1.729-1.548 0-1.818-.234-1.818-1.171h-2.682c0 2.305 1.584 3.547 4.41 3.547 2.916 0 4.482-1.296 4.482-4.249v-8.046h-2.502v1.314h-.09c-.486-.99-1.512-1.494-2.808-1.494-2.574 0-3.942 1.638-3.942 4.158s1.332 4.122 3.834 4.122zm-1.152-4.122c0-1.278.45-1.872 1.998-1.872 1.296 0 1.98.45 1.98 1.602v.54c0 1.152-.702 1.602-1.998 1.602-1.53 0-1.98-.594-1.98-1.872zm12.959 5.257c2.592 0 4.248-1.135 4.248-3.061v-.18h-2.664v.108c0 .558-.468.792-1.548.792-1.476 0-1.98-.504-2.034-1.764h6.21c.054-.306.126-.827.126-1.332 0-2.358-1.602-3.978-4.32-3.978-2.826 0-4.554 1.836-4.554 4.735 0 2.861 1.422 4.68 4.536 4.68zm-.072-7.201c1.26 0 1.872.522 1.818 1.458h-3.726c.108-.954.612-1.458 1.908-1.458z" fill="#000"/><g clip-path="url(#D)"><path d="M126.043 152.271a.61.61 0 0 1-.611.611h-3.055a.61.61 0 1 1 0-1.222h3.055a.61.61 0 0 1 .611.611zm-1.222 3.056a.61.61 0 0 1-.611.611h-1.833a.61.61 0 1 1 0-1.222h1.833a.61.61 0 0 1 .611.611zm-1.222 3.055a.61.61 0 0 1-.611.611h-.611a.61.61 0 1 1 0-1.222h.611a.61.61 0 0 1 .611.611z" fill="#55acee"/><path d="M141.505 160.215c-.383 1.35-1.788 2.445-3.138 2.445h-12.222c-1.35 0-2.134-1.095-1.751-2.445l2.076-7.333c.383-1.35 1.787-2.444 3.137-2.444h12.222c1.35 0 2.135 1.094 1.752 2.444l-2.076 7.333z" fill="#ccd6dd"/><g fill="#99aab5"><path d="M132.36 155.715l-7.915 5.692c-.021.017-.033.038-.052.055.109.349.316.638.606.846.021-.014.044-.02.065-.037l7.915-5.692c.306-.238.416-.625.245-.864s-.558-.239-.864 0zm8.439 5.747c-.009-.017-.01-.038-.021-.055l-4.689-5.692c-.172-.239-.558-.239-.866 0s-.415.626-.244.864l4.691 5.692c.011.016.031.023.044.037.407-.208.778-.497 1.085-.846z"/><path d="M143.582 152.882c.383-1.35-.402-2.444-1.752-2.444h-12.222c-1.35 0-2.755 1.094-3.137 2.444l-.013.045 5.381 5.165c.997.968 2.315.902 3.499.227l8.083-4.867.161-.57z"/></g><path d="M141.83 150.438h-12.223c-.964 0-1.949.562-2.577 1.373l5.633 5.374c.458.44 1.487.446 2.234 0l8.735-5.358c-.162-.819-.832-1.389-1.802-1.389z" fill="#e1e8ed"/></g><rect x="-1" y="1" width="419" height="345" rx="7" transform="matrix(-1 0 0 1 515 124.404)" stroke="#e1e8f2" stroke-width="2" stroke-dasharray="8 8"/><defs><clipPath id="A"><path fill="#fff" transform="translate(141.165 361.096)" d="M0 0h15v15H0z"/></clipPath><clipPath id="B"><path fill="#fff" transform="translate(270.165 361.096)" d="M0 0h15v15H0z"/></clipPath><clipPath id="C"><path fill="#fff" transform="translate(399.165 361.096)" d="M0 0h15v15H0z"/></clipPath><clipPath id="D"><path fill="#fff" transform="translate(121.766 144.938)" d="M0 0h22v22H0z"/></clipPath><path id="E" d="M355.621 511.034l10.182-13.817 13.818-10.183-13.818-10.182-10.182-13.818-10.182 13.818-13.818 10.182 13.818 10.183 10.182 13.817z"/></defs></svg>