<svg width="608" height="560" viewBox="0 0 608 560" fill="none" xmlns="http://www.w3.org/2000/svg">
<path d="M559.504 -31.5557L559.504 47.0839M559.504 591.557L559.504 311.247M559.504 245.505L559.504 97.2869" stroke="#97969C" stroke-dasharray="4 4"/>
<path d="M457.312 -31.1787L457.313 370.867M457.313 591.382L457.313 395.539" stroke="#97969C" stroke-dasharray="4 4"/>
<path d="M355.621 -31.3682L355.621 133.425M355.621 591.379L355.621 510.133M355.621 216.14L355.621 460.535" stroke="#97969C" stroke-dasharray="4 4"/>
<path d="M252.93 -31.1787L252.93 59.5647M252.93 591.375L252.93 83.8671" stroke="#97969C" stroke-dasharray="4 4"/>
<path d="M150.739 -31.3662L150.738 342.326M150.738 591.383L150.738 425.4" stroke="#97969C" stroke-dasharray="4 4"/>
<path d="M48.547 -31.5576L48.5469 152.27M48.5469 591.372L48.5469 288.354M48.5469 198.289L48.5469 271.121" stroke="#97969C" stroke-dasharray="4 4"/>
<path d="M0 487.054L330.227 487.054M608 487.054L379.607 487.054" stroke="#97969C" stroke-dasharray="4 4"/>
<path d="M0 383.261H112.263M608 383.261L469.346 383.261M190.468 383.261H444.674" stroke="#97969C" stroke-dasharray="4 4"/>
<path d="M0 175.675H25.6723M608 175.675L396.708 175.675M316 175.675L73.3582 175.675" stroke="#97969C" stroke-dasharray="4 4"/>
<path d="M0 279.468H39.4795M608 279.468H592.678M527.354 279.468L57.1204 279.468" stroke="#97969C" stroke-dasharray="4 4"/>
<path d="M0 71.8818L239.558 71.8818M608 71.8818H582.879M534.54 71.8818L265.522 71.8818" stroke="#97969C" stroke-dasharray="4 4"/>
<path d="M355.621 511.034L365.803 497.217L379.621 487.034L365.803 476.852L355.621 463.034L345.439 476.852L331.621 487.034L345.439 497.217L355.621 511.034Z" stroke="#97969C" stroke-dasharray="4 4"/>
<path d="M559.48 95.7998L569.663 81.9821L583.48 71.7998L569.663 61.6175L559.48 47.7998L549.298 61.6175L535.48 71.7998L549.298 81.9821L559.48 95.7998Z" stroke="#97969C" stroke-dasharray="4 4"/>
<path d="M48.6016 199.53L58.7839 185.713L72.6016 175.53L58.7839 165.348L48.6016 151.53L38.4192 165.348L24.6016 175.53L38.4192 185.713L48.6016 199.53Z" stroke="#97969C" stroke-dasharray="4 4"/>
<path d="M559.469 311.384L573.045 292.96L591.469 279.384L573.045 265.807L559.469 247.384L545.892 265.807L527.469 279.384L545.892 292.96L559.469 311.384Z" stroke="#97969C" stroke-dasharray="4 4"/>
<path d="M150.754 423.29L167.724 400.261L190.754 383.29L167.724 366.319L150.754 343.29L133.783 366.319L110.754 383.29L133.783 400.261L150.754 423.29Z" stroke="#97969C" stroke-dasharray="4 4"/>
<path d="M355.621 215.681L372.592 192.651L395.621 175.681L372.592 158.71L355.621 135.681L338.651 158.71L315.621 175.681L338.651 192.651L355.621 215.681Z" stroke="#97969C" stroke-dasharray="4 4"/>
<circle r="12" transform="matrix(1 0 0 -1 457.246 383.261)" stroke="#97969C" stroke-dasharray="4 4"/>
<circle r="8" transform="matrix(1 0 0 -1 48.5469 279.468)" stroke="#97969C" stroke-dasharray="4 4"/>
<circle r="12" transform="matrix(1 0 0 -1 252.598 71.8818)" stroke="#97969C" stroke-dasharray="4 4"/>
<rect x="-2" y="2" width="441.955" height="422.315" rx="6" transform="matrix(-1 0 0 1 543.328 73.4058)" fill="#121212"/>
<rect x="-2" y="2" width="441.955" height="422.315" rx="6" transform="matrix(-1 0 0 1 543.328 73.4058)" stroke="#121212" stroke-width="4"/>
<rect x="-2" y="2" width="441.12" height="419.085" rx="6" transform="matrix(-1 0 0 1 525.039 60.4863)" fill="#F5F6F8"/>
<rect x="-2" y="2" width="441.12" height="419.085" rx="6" transform="matrix(-1 0 0 1 525.039 60.4863)" stroke="#121212" stroke-width="4"/>
<rect x="96" y="73.4043" width="422" height="38" rx="4" fill="white"/>
<rect x="113" y="87.4043" width="10" height="10" rx="5" fill="#EB5757"/>
<rect x="131" y="87.4043" width="10" height="10" rx="5" fill="#F2C94C"/>
<rect x="149" y="87.4043" width="10" height="10" rx="5" fill="#27AE60"/>
<path d="M492.438 86.4043C492.438 85.852 491.99 85.4043 491.438 85.4043C490.885 85.4043 490.438 85.852 490.438 86.4043H492.438ZM490.438 98.4043C490.438 98.9566 490.885 99.4043 491.438 99.4043C491.99 99.4043 492.438 98.9566 492.438 98.4043H490.438ZM490.438 86.4043V98.4043H492.438V86.4043H490.438Z" fill="#E7EDF5"/>
<path d="M497.437 93.4043C497.99 93.4043 498.437 92.9566 498.438 92.4043C498.438 91.852 497.99 91.4043 497.438 91.4043L497.437 93.4043ZM485.438 91.4043C484.885 91.4043 484.438 91.852 484.438 92.4043C484.437 92.9566 484.885 93.4043 485.437 93.4043L485.438 91.4043ZM497.438 91.4043L485.438 91.4043L485.437 93.4043L497.437 93.4043L497.438 91.4043Z" fill="#E7EDF5"/>
<rect x="-1" y="1" width="419" height="345" rx="7" transform="matrix(-1 0 0 1 514.836 124.438)" fill="#F5F6F8"/>
<path d="M149.382 161.938V156.231L149.238 153.909H149.418L150.138 156.267L151.956 161.109H155.232L157.05 156.267L157.752 153.909H157.95L157.806 156.231V161.938H160.506V149.877H156.708L154.692 155.511L153.738 158.607H153.558L152.586 155.511L150.48 149.877H146.682V161.938H149.382ZM166.779 162.118C169.371 162.118 171.027 160.983 171.027 159.057V158.877H168.363V158.985C168.363 159.543 167.895 159.777 166.815 159.777C165.339 159.777 164.835 159.273 164.781 158.013H170.991C171.045 157.707 171.117 157.186 171.117 156.681C171.117 154.323 169.515 152.703 166.797 152.703C163.971 152.703 162.243 154.539 162.243 157.438C162.243 160.299 163.665 162.118 166.779 162.118ZM166.707 154.917C167.967 154.917 168.579 155.439 168.525 156.375H164.799C164.907 155.421 165.411 154.917 166.707 154.917ZM177.034 162.118C179.536 162.118 180.922 161.037 180.922 159.345C180.922 157.869 180.13 157.005 178.222 156.646L176.566 156.303C175.486 156.087 175.324 155.961 175.324 155.529C175.324 155.097 175.576 154.863 176.656 154.863C177.808 154.863 178.06 155.187 178.06 155.781V156.033H180.634V155.781C180.634 153.747 178.942 152.703 176.728 152.703C174.154 152.703 172.786 153.891 172.786 155.565C172.786 157.239 173.758 157.995 175.54 158.319L176.908 158.571C178.114 158.787 178.366 158.895 178.366 159.381C178.366 159.831 178.186 159.993 177.088 159.993C175.774 159.993 175.378 159.849 175.378 159.183V158.805H172.804V158.859C172.804 161.055 174.19 162.118 177.034 162.118ZM186.662 162.118C189.164 162.118 190.55 161.037 190.55 159.345C190.55 157.869 189.758 157.005 187.85 156.646L186.194 156.303C185.114 156.087 184.952 155.961 184.952 155.529C184.952 155.097 185.204 154.863 186.284 154.863C187.436 154.863 187.688 155.187 187.688 155.781V156.033H190.262V155.781C190.262 153.747 188.57 152.703 186.356 152.703C183.782 152.703 182.414 153.891 182.414 155.565C182.414 157.239 183.386 157.995 185.168 158.319L186.536 158.571C187.742 158.787 187.994 158.895 187.994 159.381C187.994 159.831 187.814 159.993 186.716 159.993C185.402 159.993 185.006 159.849 185.006 159.183V158.805H182.432V158.859C182.432 161.055 183.818 162.118 186.662 162.118ZM194.849 162.118C196.523 162.118 197.441 161.379 197.927 160.713H198.035V161.938H200.537V156.573C200.537 154.161 199.133 152.703 196.469 152.703C193.913 152.703 192.239 154.125 192.239 156.285V156.483H194.813V156.285C194.813 155.367 195.245 155.061 196.343 155.061C197.405 155.061 197.981 155.259 197.981 156.321V156.609L194.885 157.077C193.013 157.365 192.005 158.229 192.005 159.633C192.005 161.271 193.247 162.118 194.849 162.118ZM194.579 159.417C194.579 159.039 194.831 158.859 195.389 158.769L197.981 158.373C197.981 159.777 196.847 160.065 195.749 160.065C194.957 160.065 194.579 159.903 194.579 159.417ZM206.136 160.983C207.504 160.983 208.458 160.371 208.854 159.669H208.962V161.073C208.962 162.478 208.674 162.802 207.252 162.802C205.704 162.802 205.434 162.568 205.434 161.631H202.752C202.752 163.936 204.336 165.178 207.162 165.178C210.078 165.178 211.644 163.882 211.644 160.929V152.883H209.142V154.197H209.052C208.566 153.207 207.54 152.703 206.244 152.703C203.67 152.703 202.302 154.341 202.302 156.861C202.302 159.381 203.634 160.983 206.136 160.983ZM204.984 156.861C204.984 155.583 205.434 154.989 206.982 154.989C208.278 154.989 208.962 155.439 208.962 156.591V157.131C208.962 158.283 208.26 158.733 206.964 158.733C205.434 158.733 204.984 158.139 204.984 156.861ZM217.942 162.118C220.534 162.118 222.19 160.983 222.19 159.057V158.877H219.526V158.985C219.526 159.543 219.058 159.777 217.978 159.777C216.502 159.777 215.998 159.273 215.944 158.013H222.154C222.208 157.707 222.28 157.186 222.28 156.681C222.28 154.323 220.678 152.703 217.96 152.703C215.134 152.703 213.406 154.539 213.406 157.438C213.406 160.299 214.828 162.118 217.942 162.118ZM217.87 154.917C219.13 154.917 219.742 155.439 219.688 156.375H215.962C216.07 155.421 216.574 154.917 217.87 154.917ZM228.197 162.118C230.699 162.118 232.085 161.037 232.085 159.345C232.085 157.869 231.293 157.005 229.385 156.646L227.729 156.303C226.649 156.087 226.487 155.961 226.487 155.529C226.487 155.097 226.739 154.863 227.819 154.863C228.971 154.863 229.223 155.187 229.223 155.781V156.033H231.797V155.781C231.797 153.747 230.105 152.703 227.891 152.703C225.317 152.703 223.949 153.891 223.949 155.565C223.949 157.239 224.921 157.995 226.703 158.319L228.071 158.571C229.277 158.787 229.529 158.895 229.529 159.381C229.529 159.831 229.349 159.993 228.251 159.993C226.937 159.993 226.541 159.849 226.541 159.183V158.805H223.967V158.859C223.967 161.055 225.353 162.118 228.197 162.118Z" fill="black"/>
<g clip-path="url(#clip0_6587_41930)">
<path d="M124.114 152.271C124.114 152.608 123.84 152.882 123.503 152.882H120.447C120.11 152.882 119.836 152.608 119.836 152.271C119.836 151.933 120.11 151.66 120.447 151.66H123.503C123.84 151.66 124.114 151.933 124.114 152.271ZM122.891 155.326C122.891 155.664 122.618 155.937 122.28 155.937H120.447C120.11 155.937 119.836 155.664 119.836 155.326C119.836 154.989 120.11 154.715 120.447 154.715H122.28C122.618 154.715 122.891 154.989 122.891 155.326ZM121.669 158.382C121.669 158.72 121.395 158.993 121.058 158.993H120.447C120.11 158.993 119.836 158.72 119.836 158.382C119.836 158.044 120.11 157.771 120.447 157.771H121.058C121.395 157.771 121.669 158.044 121.669 158.382Z" fill="#55ACEE"/>
<path d="M139.575 160.215C139.193 161.565 137.788 162.66 136.438 162.66H124.216C122.866 162.66 122.082 161.565 122.464 160.215L124.541 152.882C124.923 151.532 126.328 150.438 127.677 150.438H139.9C141.25 150.438 142.034 151.532 141.652 152.882L139.575 160.215Z" fill="#CCD6DD"/>
<path d="M130.43 155.715L122.515 161.406C122.494 161.423 122.482 161.445 122.463 161.462C122.572 161.81 122.779 162.099 123.069 162.308C123.091 162.293 123.114 162.287 123.135 162.271L131.05 156.579C131.356 156.34 131.466 155.954 131.295 155.715C131.123 155.476 130.737 155.476 130.43 155.715ZM138.869 161.462C138.86 161.445 138.86 161.423 138.849 161.407L134.159 155.715C133.987 155.476 133.601 155.476 133.294 155.715C132.987 155.954 132.878 156.34 133.049 156.579L137.74 162.271C137.751 162.287 137.771 162.293 137.784 162.308C138.191 162.1 138.563 161.81 138.869 161.462Z" fill="#99AAB5"/>
<path d="M141.652 152.882C142.035 151.532 141.25 150.438 139.9 150.438H127.678C126.328 150.438 124.924 151.532 124.541 152.882L124.528 152.927L129.91 158.092C130.906 159.06 132.225 158.994 133.408 158.319L141.492 153.452L141.652 152.882Z" fill="#99AAB5"/>
<path d="M139.9 150.438H127.678C126.713 150.438 125.729 151 125.101 151.811L130.733 157.185C131.191 157.625 132.221 157.631 132.967 157.185L141.703 151.827C141.54 151.008 140.87 150.438 139.9 150.438Z" fill="#E1E8ED"/>
</g>
<line x1="119.836" y1="181.959" x2="483.981" y2="181.959" stroke="#DFE7F2" stroke-width="2"/>
<rect x="453.984" y="140.938" width="30" height="30" rx="4" fill="white"/>
<path d="M469.984 149.938C469.984 149.385 469.537 148.938 468.984 148.938C468.432 148.938 467.984 149.385 467.984 149.938H469.984ZM467.984 161.938C467.984 162.49 468.432 162.938 468.984 162.938C469.537 162.938 469.984 162.49 469.984 161.938H467.984ZM467.984 149.938V161.938H469.984V149.938H467.984Z" fill="#B3C2D8"/>
<path d="M474.984 156.938C475.537 156.938 475.984 156.49 475.984 155.938C475.984 155.385 475.537 154.938 474.984 154.938L474.984 156.938ZM462.984 154.937C462.432 154.937 461.984 155.385 461.984 155.937C461.984 156.49 462.432 156.937 462.984 156.937L462.984 154.937ZM474.984 154.938L462.984 154.937L462.984 156.937L474.984 156.938L474.984 154.938Z" fill="#B3C2D8"/>
<rect x="119.836" y="223.98" width="170" height="122" rx="8" fill="#F1EAFF"/>
<path d="M134.503 312.762L137.911 314.844C141.318 316.926 148.133 321.09 154.948 318.242C161.764 315.395 168.579 305.537 175.394 305.797C182.209 306.057 189.024 316.435 195.839 321.561C202.654 326.687 209.47 326.561 216.285 324.917C223.1 323.272 229.915 320.11 236.73 313.754C243.545 307.399 250.36 297.849 257.176 290.995" stroke="#C6A9FF" stroke-width="2" stroke-linecap="round"/>
<path d="M146.66 279.395C152.86 279.395 157.02 276.875 157.02 271.715C157.02 267.875 154.78 265.475 151.1 264.955V264.795C154.5 264.315 156.06 262.035 156.06 258.955C156.06 254.275 152.46 251.795 146.42 251.795C139.7 251.795 136.1 255.275 136.1 260.395V260.755H140.34V260.435C140.34 257.075 141.74 255.755 146.38 255.755C150.14 255.755 151.74 256.835 151.74 259.635C151.74 262.435 150.38 263.315 146.86 263.315H142.1V266.915H147.46C151.18 266.915 152.66 267.915 152.66 271.275C152.66 274.395 150.98 275.435 146.74 275.435C141.46 275.435 140.34 274.115 140.34 270.755V270.155H136.1V270.795C136.1 275.915 139.02 279.395 146.66 279.395ZM170.483 279.395C177.883 279.395 181.203 275.795 181.203 270.235C181.203 264.835 177.723 261.635 172.003 261.635C168.483 261.635 165.963 262.715 164.563 263.875H164.443L165.083 256.075H179.763V252.195H161.283L160.363 266.435L164.163 267.035C165.483 266.275 167.403 265.355 170.683 265.355C175.203 265.355 176.923 266.755 176.923 270.355C176.923 274.115 175.363 275.435 170.643 275.435C166.203 275.435 164.203 274.395 164.203 271.395V271.155H159.923V271.395C159.923 276.315 163.523 279.395 170.483 279.395ZM195.956 279.395C203.156 279.395 207.556 274.075 207.556 265.595C207.556 257.115 203.156 251.795 195.956 251.795C188.756 251.795 184.396 257.115 184.396 265.595C184.396 274.075 188.756 279.395 195.956 279.395ZM195.956 275.235C191.196 275.235 188.996 272.675 188.996 265.595C188.996 258.515 191.196 255.955 195.956 255.955C200.716 255.955 202.956 258.515 202.956 265.595C202.956 272.675 200.716 275.235 195.956 275.235Z" fill="black"/>
<path d="M145.526 212.12C148.186 212.12 149.194 210.776 149.194 209.278C149.194 207.906 148.522 206.87 146.548 206.492L144.882 206.17C143.79 205.96 143.538 205.82 143.538 205.218C143.538 204.63 143.916 204.364 145.12 204.364C146.506 204.364 146.912 204.686 146.912 205.666V205.82H148.984V205.708C148.984 203.846 147.864 202.46 145.19 202.46C142.502 202.46 141.452 203.874 141.452 205.302C141.452 206.758 142.208 207.668 144 207.976L145.652 208.27C146.968 208.494 147.108 208.718 147.108 209.348C147.108 209.978 146.814 210.216 145.624 210.216C143.93 210.216 143.552 209.922 143.552 208.886V208.746H141.494V208.928C141.494 211 142.768 212.12 145.526 212.12ZM153.916 212.12C155.932 212.12 157.22 211.238 157.22 209.74V209.6H155.148V209.684C155.148 210.118 154.784 210.3 153.944 210.3C152.796 210.3 152.404 209.908 152.362 208.928H157.192C157.234 208.69 157.29 208.284 157.29 207.892C157.29 206.058 156.044 204.798 153.93 204.798C151.732 204.798 150.388 206.226 150.388 208.48C150.388 210.706 151.494 212.12 153.916 212.12ZM153.86 206.52C154.84 206.52 155.316 206.926 155.274 207.654H152.376C152.46 206.912 152.852 206.52 153.86 206.52ZM160.942 211.98V207.99C160.942 206.926 161.376 206.604 162.384 206.604C163.448 206.604 163.77 206.954 163.77 207.934V211.98H165.87V207.514C165.87 206.016 165.086 204.798 163.252 204.798C162.02 204.798 161.264 205.372 160.886 206.17H160.802V204.938H158.856V211.98H160.942ZM170.853 212.008C171.343 212.008 171.889 211.938 172.225 211.868V210.118H171.357C170.447 210.118 170.237 210.048 170.237 209.432V206.674H172.225V204.938H170.237V203.3H168.585L168.193 204.938H167.017V206.674H168.137V209.67C168.137 211.336 169.019 212.008 170.853 212.008Z" fill="black"/>
<g clip-path="url(#clip1_6587_41930)">
<path d="M136.055 206.957L131.853 205.402L130.284 200.259C130.223 200.06 130.039 199.924 129.832 199.924C129.625 199.924 129.441 200.06 129.381 200.259L127.812 205.402L123.609 206.957C123.424 207.026 123.301 207.202 123.301 207.4C123.301 207.597 123.424 207.775 123.609 207.843L127.81 209.398L129.379 214.698C129.439 214.898 129.623 215.035 129.832 215.035C130.041 215.035 130.225 214.898 130.285 214.697L131.855 209.398L136.056 207.843C136.24 207.775 136.363 207.598 136.363 207.4C136.363 207.203 136.24 207.026 136.055 206.957Z" fill="#FFAC33"/>
<path d="M126.611 212.152L125.519 211.748L125.094 210.19C125.038 209.984 124.851 209.841 124.638 209.841C124.425 209.841 124.239 209.984 124.183 210.189L123.758 211.747L122.665 212.152C122.48 212.22 122.357 212.397 122.357 212.595C122.357 212.792 122.48 212.969 122.665 213.038L123.752 213.44L124.18 215.151C124.233 215.36 124.422 215.508 124.638 215.508C124.855 215.508 125.044 215.36 125.096 215.15L125.525 213.44L126.611 213.037C126.797 212.969 126.92 212.792 126.92 212.595C126.92 212.397 126.797 212.22 126.611 212.152ZM124.563 201.922L123.447 201.509L123.033 200.392C122.964 200.207 122.788 200.084 122.59 200.084C122.393 200.084 122.216 200.207 122.147 200.392L121.734 201.509L120.617 201.922C120.431 201.991 120.309 202.168 120.309 202.365C120.309 202.563 120.431 202.74 120.617 202.808L121.734 203.221L122.147 204.338C122.216 204.524 122.393 204.647 122.59 204.647C122.787 204.647 122.964 204.524 123.033 204.338L123.446 203.221L124.563 202.808C124.748 202.739 124.871 202.563 124.871 202.365C124.871 202.168 124.748 201.991 124.563 201.922Z" fill="#FFCC4D"/>
</g>
<path d="M339.292 211.98C342.302 211.98 344.15 210.23 344.15 207.29C344.15 204.35 342.302 202.6 339.292 202.6H335.708V211.98H339.292ZM339.264 204.49C341.168 204.49 341.896 205.064 341.896 207.29C341.896 209.516 341.168 210.09 339.264 210.09H337.808V204.49H339.264ZM349.018 212.12C351.034 212.12 352.322 211.238 352.322 209.74V209.6H350.25V209.684C350.25 210.118 349.886 210.3 349.046 210.3C347.898 210.3 347.506 209.908 347.464 208.928H352.294C352.336 208.69 352.392 208.284 352.392 207.892C352.392 206.058 351.146 204.798 349.032 204.798C346.834 204.798 345.49 206.226 345.49 208.48C345.49 210.706 346.596 212.12 349.018 212.12ZM348.962 206.52C349.942 206.52 350.418 206.926 350.376 207.654H347.478C347.562 206.912 347.954 206.52 348.962 206.52ZM356.058 211.98V202.6H353.972V211.98H356.058ZM359.883 204.14V202.6H357.797L357.825 204.14H359.883ZM359.925 211.98V204.938H357.825V211.98H359.925ZM366.237 211.98L368.981 204.938H366.685L365.005 209.964H364.851L363.171 204.938H360.833L363.563 211.98H366.237ZM373.092 212.12C375.108 212.12 376.396 211.238 376.396 209.74V209.6H374.324V209.684C374.324 210.118 373.96 210.3 373.12 210.3C371.972 210.3 371.58 209.908 371.538 208.928H376.368C376.41 208.69 376.466 208.284 376.466 207.892C376.466 206.058 375.22 204.798 373.106 204.798C370.908 204.798 369.564 206.226 369.564 208.48C369.564 210.706 370.67 212.12 373.092 212.12ZM373.036 206.52C374.016 206.52 374.492 206.926 374.45 207.654H371.552C371.636 206.912 372.028 206.52 373.036 206.52ZM380.118 211.98V207.57C380.118 206.8 380.426 206.576 381.07 206.576C381.728 206.576 381.966 206.814 381.966 207.57V207.948H384.052V207.304C384.052 205.89 383.506 204.798 382.036 204.798C381.042 204.798 380.412 205.358 380.062 206.072H379.978V204.938H378.032V211.98H380.118ZM388.718 212.12C390.734 212.12 392.022 211.238 392.022 209.74V209.6H389.95V209.684C389.95 210.118 389.586 210.3 388.746 210.3C387.598 210.3 387.206 209.908 387.164 208.928H391.994C392.036 208.69 392.092 208.284 392.092 207.892C392.092 206.058 390.846 204.798 388.732 204.798C386.534 204.798 385.19 206.226 385.19 208.48C385.19 210.706 386.296 212.12 388.718 212.12ZM388.662 206.52C389.642 206.52 390.118 206.926 390.076 207.654H387.178C387.262 206.912 387.654 206.52 388.662 206.52ZM396.54 212.12C397.576 212.12 398.374 211.7 398.738 210.944H398.808V211.98H400.754V202.6H398.668V205.862H398.584C398.262 205.274 397.618 204.798 396.54 204.798C394.622 204.798 393.488 206.24 393.488 208.466C393.488 210.678 394.552 212.12 396.54 212.12ZM395.574 208.466C395.574 207.178 395.91 206.59 397.128 206.59C398.122 206.59 398.668 206.94 398.668 207.892V209.026C398.668 209.978 398.122 210.328 397.128 210.328C395.91 210.328 395.574 209.74 395.574 208.466Z" fill="black"/>
<g clip-path="url(#clip2_6587_41930)">
<path d="M324.439 214.563C324.439 215.606 320.661 215.606 320.661 214.563V209.841C320.661 208.798 321.507 207.952 322.55 207.952C323.593 207.952 324.439 208.798 324.439 209.841V214.563Z" fill="#C1694F"/>
<path d="M318.772 200.396C316.686 200.396 314.994 202.088 314.994 204.174V209.841H322.55V204.174C322.55 202.088 320.858 200.396 318.772 200.396Z" fill="#292F33"/>
<path d="M323.494 207.84C323.494 208.423 322.991 208.897 322.411 208.897H315.133C314.552 208.897 314.05 208.423 314.05 207.84V202.871C314.05 202.287 314.552 201.813 315.133 201.813H322.411C322.991 201.813 323.494 202.287 323.494 202.871V207.84Z" fill="#CCD6DD"/>
<path d="M323.494 202.871C323.494 202.287 322.991 201.813 322.411 201.813H315.133C314.552 201.813 314.05 202.287 314.05 202.871V203.541L316.354 205.857L314.097 208.126C314.149 208.304 314.246 208.464 314.378 208.59L316.726 206.23L317.863 207.372C318.359 207.873 319.17 207.873 319.667 207.372L320.812 206.224L323.166 208.59C323.298 208.464 323.394 208.303 323.447 208.126L321.185 205.851L323.494 203.535V202.871Z" fill="#99AAB5"/>
<path d="M322.412 201.813H315.133C314.582 201.813 314.107 202.241 314.06 202.784L318.03 206.749C318.44 207.162 319.105 207.146 319.515 206.733L323.487 202.791C323.442 202.245 322.964 201.813 322.412 201.813Z" fill="#E1E8ED"/>
<path d="M326.328 200.396H318.772C320.859 200.396 322.55 202.088 322.55 204.174V209.841H330.106V204.174C330.106 202.088 328.414 200.396 326.328 200.396Z" fill="#99AAB5"/>
<path d="M326.327 199.452H324.439C323.917 199.452 323.494 199.875 323.494 200.397V206.063C323.494 206.585 323.917 207.008 324.439 207.008C324.96 207.008 325.383 206.585 325.383 206.063V202.285H326.327C326.849 202.285 327.272 201.862 327.272 201.341V200.397C327.272 199.875 326.849 199.452 326.327 199.452Z" fill="#DD2E44"/>
</g>
<rect x="314.05" y="223.98" width="170" height="122" rx="8" fill="#EAEEFF"/>
<path d="M328.714 312.761L332.326 314.843C335.938 316.925 343.161 321.089 350.385 318.242C357.608 315.395 364.832 305.537 372.056 305.797C379.279 306.057 386.503 316.435 393.727 321.561C400.95 326.687 408.174 326.56 415.398 324.916C422.621 323.272 429.845 320.11 437.069 313.754C444.292 307.398 451.516 297.849 458.74 290.995" stroke="#8199FD" stroke-width="2" stroke-linecap="round"/>
<path d="M340.874 279.395C347.074 279.395 351.234 276.875 351.234 271.715C351.234 267.875 348.994 265.475 345.314 264.955V264.795C348.714 264.315 350.274 262.035 350.274 258.955C350.274 254.275 346.674 251.795 340.634 251.795C333.914 251.795 330.314 255.275 330.314 260.395V260.755H334.554V260.435C334.554 257.075 335.954 255.755 340.594 255.755C344.354 255.755 345.954 256.835 345.954 259.635C345.954 262.435 344.594 263.315 341.074 263.315H336.314V266.915H341.674C345.394 266.915 346.874 267.915 346.874 271.275C346.874 274.395 345.194 275.435 340.954 275.435C335.674 275.435 334.554 274.115 334.554 270.755V270.155H330.314V270.795C330.314 275.915 333.234 279.395 340.874 279.395ZM362.349 278.995V252.195H358.549C357.429 254.595 355.949 255.515 353.429 255.515H352.389V258.595H358.029V278.995H362.349ZM378.49 279.395C385.69 279.395 390.09 274.075 390.09 265.595C390.09 257.115 385.69 251.795 378.49 251.795C371.29 251.795 366.93 257.115 366.93 265.595C366.93 274.075 371.29 279.395 378.49 279.395ZM378.49 275.235C373.73 275.235 371.53 272.675 371.53 265.595C371.53 258.515 373.73 255.955 378.49 255.955C383.25 255.955 385.49 258.515 385.49 265.595C385.49 272.675 383.25 275.235 378.49 275.235Z" fill="black"/>
<rect x="120.05" y="361.938" width="364" height="93" rx="8" fill="white"/>
<rect x="146.815" y="384.938" width="79" height="10" rx="5" fill="#EEF1F7"/>
<rect x="246.05" y="384.938" width="203" height="10" rx="5" fill="#EEF1F7"/>
<rect x="147.05" y="418.938" width="258" height="10" rx="5" fill="#EEF1F7"/>
<rect x="-1" y="1" width="419" height="345" rx="7" transform="matrix(-1 0 0 1 514.836 124.438)" stroke="#E1E8F2" stroke-width="2" stroke-dasharray="8 8"/>
<defs>
<clipPath id="clip0_6587_41930">
<rect width="22" height="22" fill="white" transform="translate(119.836 144.938)"/>
</clipPath>
<clipPath id="clip1_6587_41930">
<rect width="17" height="17" fill="white" transform="translate(119.836 198.98)"/>
</clipPath>
<clipPath id="clip2_6587_41930">
<rect width="17" height="17" fill="white" transform="translate(314.05 198.98)"/>
</clipPath>
</defs>
</svg>
