<svg xmlns="http://www.w3.org/2000/svg" xmlns:xlink="http://www.w3.org/1999/xlink" width="608" height="560" fill="none" xmlns:v="https://vecta.io/nano"><style><![CDATA[.B{fill:#fff}.C{stroke:#121212}.D{fill:#636369}.E{fill:#121212}.F{stroke-width:4}.G{fill:#f5f6f8}.H{fill:#66757f}.I{fill:#dd2e44}.J{stroke:#dfe7f2}.K{stroke-width:2}.L{stroke-dasharray:8 8}]]></style><g stroke="#97969c" stroke-dasharray="4 4"><path d="M559.504-31.556v78.64m0 544.473v-280.31m0-65.742V97.287M457.312-31.179l.001 402.046m0 220.515V395.539M355.621-31.368v164.793m0 457.954v-81.246m0-293.993v244.395M252.93-31.179v90.743m0 531.81V83.867M150.739-31.366l-.001 373.692m0 249.057V425.4M48.547-31.558V152.27m0 439.102V288.354m0-90.065v72.832"/><path d="M0 487.054h330.227m277.773 0H379.607M0 383.261h112.263m495.737 0H469.346m-278.878 0h254.206M0 175.675h25.672m582.328 0H396.708m-80.708 0H73.358M0 279.468h39.48m568.521 0h-15.322m-65.324 0H57.12M0 71.882h239.558m368.442 0h-25.121m-48.339 0H265.522"/><use xlink:href="#E"/><path d="M559.48 95.8l10.183-13.818L583.48 71.8l-13.817-10.182L559.48 47.8l-10.182 13.818L535.48 71.8l13.818 10.182L559.48 95.8z"/><use xlink:href="#E" x="-307.019" y="-311.504"/><path d="M559.469 311.384l13.576-18.424 18.424-13.576-18.424-13.577-13.576-18.423-13.577 18.423-18.423 13.577 18.423 13.576 13.577 18.424zM150.754 423.29l16.97-23.029 23.03-16.971-23.03-16.971-16.97-23.029-16.971 23.029-23.029 16.971 23.029 16.971 16.971 23.029zm204.867-207.609l16.971-23.03 23.029-16.97-23.029-16.971-16.971-23.029-16.97 23.029-23.03 16.971 23.03 16.97 16.97 23.03z"/><circle r="12" transform="matrix(1 0 0 -1 457.246 383.261)"/><circle r="8" transform="matrix(1 0 0 -1 48.5469 279.468)"/><circle r="12" transform="matrix(1 0 0 -1 252.598 71.8818)"/></g><g transform="matrix(-1 0 0 1 543 72.8818)"><rect x="-2" y="2" width="442" height="239" rx="6" class="E"/><rect x="-2" y="2" width="442" height="239" rx="6" class="C F"/></g><g transform="matrix(-1 0 0 1 525 59.8818)"><rect x="-2" y="2" width="441" height="232" rx="6" class="G"/><rect x="-2" y="2" width="441" height="232" rx="6" class="C F"/></g><rect x="96" y="73.286" width="422" height="38" rx="4" class="B"/><rect x="113" y="87.286" width="10" height="10" rx="5" fill="#eb5757"/><rect x="131" y="87.286" width="10" height="10" rx="5" fill="#f2c94c"/><rect x="149" y="87.286" width="10" height="10" rx="5" fill="#27ae60"/><g fill="#e7edf5"><path d="M492.438 86.286a1 1 0 1 0-2 0h2zm-2 12a1 1 0 1 0 2 0h-2zm0-12v12h2v-12h-2z"/><path d="M497.437 93.286a1 1 0 1 0 .001-2l-.001 2zm-11.999-2a1 1 0 1 0-.001 2l.001-2zm12 0h-12l-.001 2h12l.001-2z"/></g><rect x="-1" y="1" width="419" height="153" rx="7" transform="matrix(-1 0 0 1 515 124.384)" class="G"/><path d="M152.288 165.09c3.42 0 4.716-1.728 4.716-3.654 0-1.764-.864-3.096-3.402-3.582l-2.142-.414c-1.404-.27-1.728-.45-1.728-1.224 0-.756.486-1.098 2.034-1.098 1.782 0 2.304.414 2.304 1.674v.198h2.664v-.144c0-2.394-1.44-4.176-4.878-4.176-3.456 0-4.806 1.818-4.806 3.654 0 1.872.972 3.042 3.276 3.438l2.124.378c1.692.288 1.872.576 1.872 1.386s-.378 1.116-1.908 1.116c-2.178 0-2.664-.378-2.664-1.71v-.18h-2.646v.234c0 2.664 1.638 4.104 5.184 4.104zm10.606 0c2.592 0 4.248-1.134 4.248-3.06v-.18h-2.664v.108c0 .558-.468.792-1.548.792-1.476 0-1.98-.504-2.034-1.764h6.21a8.16 8.16 0 0 0 .126-1.332c0-2.358-1.602-3.978-4.32-3.978-2.826 0-4.554 1.836-4.554 4.734 0 2.862 1.422 4.68 4.536 4.68zm-.072-7.2c1.26 0 1.872.522 1.818 1.458h-3.726c.108-.954.612-1.458 1.908-1.458zm9.86 6.066c1.368 0 2.322-.612 2.718-1.314h.108v1.404c0 1.404-.288 1.728-1.71 1.728-1.548 0-1.818-.234-1.818-1.17h-2.682c0 2.304 1.584 3.546 4.41 3.546 2.916 0 4.482-1.296 4.482-4.248v-8.046h-2.502v1.314h-.09c-.486-.99-1.512-1.494-2.808-1.494-2.574 0-3.942 1.638-3.942 4.158s1.332 4.122 3.834 4.122zm-1.152-4.122c0-1.278.45-1.872 1.998-1.872 1.296 0 1.98.45 1.98 1.602v.54c0 1.152-.702 1.602-1.998 1.602-1.53 0-1.98-.594-1.98-1.872zm11.534 5.076v-5.238c0-1.278.54-1.674 1.764-1.674 1.296 0 1.692.45 1.692 1.71v5.202h2.7v-5.202c0-1.314.522-1.71 1.746-1.71 1.314 0 1.692.45 1.692 1.71v5.202h2.7v-5.742c0-1.926-.954-3.492-3.294-3.492-1.674 0-2.574.774-3.078 1.764h-.09c-.45-1.062-1.386-1.764-2.934-1.764s-2.484.738-2.97 1.764h-.108v-1.584h-2.502v9.054h2.682zm18.593.18c2.592 0 4.248-1.134 4.248-3.06v-.18h-2.664v.108c0 .558-.468.792-1.548.792-1.476 0-1.98-.504-2.034-1.764h6.21a8.16 8.16 0 0 0 .126-1.332c0-2.358-1.602-3.978-4.32-3.978-2.826 0-4.554 1.836-4.554 4.734 0 2.862 1.422 4.68 4.536 4.68zm-.072-7.2c1.26 0 1.872.522 1.818 1.458h-3.726c.108-.954.612-1.458 1.908-1.458zm8.926 7.02v-5.13c0-1.368.558-1.782 1.854-1.782 1.368 0 1.782.45 1.782 1.71v5.202h2.7v-5.742c0-1.926-1.008-3.492-3.366-3.492-1.584 0-2.556.738-3.042 1.764h-.108v-1.584h-2.502v9.054h2.682zm12.563.036a9.52 9.52 0 0 0 1.764-.18v-2.25h-1.116c-1.17 0-1.44-.09-1.44-.882v-3.546h2.556v-2.232h-2.556v-2.106h-2.124l-.504 2.106h-1.512v2.232h1.44v3.852c0 2.142 1.134 3.006 3.492 3.006zm7.496.144c2.502 0 3.888-1.08 3.888-2.772 0-1.476-.792-2.34-2.7-2.7l-1.656-.342c-1.08-.216-1.242-.342-1.242-.774s.252-.666 1.332-.666c1.152 0 1.404.324 1.404.918v.252h2.574v-.252c0-2.034-1.692-3.078-3.906-3.078-2.574 0-3.942 1.188-3.942 2.862s.972 2.43 2.754 2.754l1.368.252c1.206.216 1.458.324 1.458.81 0 .45-.18.612-1.278.612-1.314 0-1.71-.144-1.71-.81v-.378h-2.574v.054c0 2.196 1.386 3.258 4.23 3.258z" fill="#000"/><g clip-path="url(#A)"><path d="M122.091 149.743h1.222v20.167h-1.222v-20.167z" fill="#ccd6dd"/><path d="M122.702 151.577c1.013 0 1.834-.821 1.834-1.834s-.821-1.833-1.834-1.833-1.833.821-1.833 1.833.821 1.834 1.833 1.834z" fill="#f4900c"/><path d="M125.757 165.021h-3.055a.61.61 0 1 1 0-1.222h3.055a.61.61 0 1 1 0 1.222z" class="H"/><path d="M139.202 164.41c0-1.35 3.794-3.667 2.444-3.667h-5.162c-.735-.894-2.808-1.833-4.31-1.833s-1.974.939-2.099 1.833h-3.707c-1.349 0-1.833 1.095-1.833 2.445v2.444c0 1.35.484 2.445 1.833 2.445h15.278c1.35 0-2.444-2.317-2.444-3.667z" class="I"/><path d="M127.591 165.021c1.013 0 1.833-.821 1.833-1.833s-.82-1.834-1.833-1.834-1.833.821-1.833 1.834.821 1.833 1.833 1.833z" class="B"/><path d="M127.286 163.799c.506 0 .916-.41.916-.917s-.41-.916-.916-.916-.917.41-.917.916.411.917.917.917z" fill="#000"/><path d="M141.647 160.743h-11.634c1.264 1.397 2.898 3.951-.023 7.333h11.657c1.35 0-2.444-2.316-2.444-3.666s3.794-3.667 2.444-3.667z" fill="#f4abba"/><path d="M125.757 155.244h-3.055a.61.61 0 1 1 0-1.223h3.055a.61.61 0 1 1 0 1.223z" class="H"/><path d="M139.202 154.633c0-1.35 3.794-3.667 2.444-3.667h-5.161c-.735-.895-2.808-1.833-4.311-1.833s-1.974.938-2.099 1.833h-3.707c-1.349 0-1.833 1.095-1.833 2.445v2.444c0 1.35.484 2.444 1.833 2.444h15.278c1.35 0-2.444-2.316-2.444-3.666z" fill="#55acee"/><path d="M127.591 155.244c1.013 0 1.833-.821 1.833-1.834s-.82-1.833-1.833-1.833-1.833.821-1.833 1.833.821 1.834 1.833 1.834z" class="B"/><path d="M127.286 154.021c.506 0 .916-.411.916-.917s-.41-.916-.916-.916-.917.41-.917.916a.92.92 0 0 0 .917.917z" fill="#000"/><path d="M141.647 150.966h-11.634c1.264 1.397 2.898 3.951-.023 7.333h11.657c1.35 0-2.444-2.317-2.444-3.667s3.794-3.666 2.444-3.666z" fill="#bbddf5"/></g><rect x="121.369" y="229.884" width="223" height="30" rx="3.5" class="B"/><g clip-path="url(#B)"><path d="M145.869 244.884c0 4.141-3.358 7.5-7.5 7.5s-7.5-3.359-7.5-7.5a7.5 7.5 0 1 1 15 0z" class="H"/><g fill="#5b6876"><use xlink:href="#F"/><path d="M141.077 250.717a1.46 1.46 0 0 0 1.459-1.458 1.46 1.46 0 0 0-1.459-1.458 1.46 1.46 0 0 0-1.458 1.458 1.46 1.46 0 0 0 1.458 1.458z"/><use xlink:href="#G"/><use xlink:href="#H"/><path d="M143.369 241.55c.23 0 .416-.186.416-.417s-.186-.416-.416-.416-.417.186-.417.416.187.417.417.417zm-5.833 9.167c.23 0 .416-.186.416-.417s-.186-.416-.416-.416-.417.186-.417.416.187.417.417.417zm6.666-4.584c.461 0 .834-.373.834-.833s-.373-.833-.834-.833-.833.373-.833.833.373.833.833.833zm-10.834 2.917c.461 0 .834-.373.834-.833s-.373-.833-.834-.833-.833.373-.833.833.373.833.833.833z"/></g><path d="M138.369 247.76c-2.917 0-3.75-1.09-3.75-.575s1.667 1.865 3.75 1.865 3.75-1.349 3.75-1.865-.833.575-3.75.575zm3.75-4.126a1.25 1.25 0 1 1-2.5 0 1.25 1.25 0 1 1 2.5 0zm-5 0a1.25 1.25 0 1 1-2.5 0 1.25 1.25 0 1 1 2.5 0z" fill="#292f33"/></g><path d="M158.409 245.02c0 .932-.171 1.733-.511 2.404s-.809 1.181-1.402 1.542-1.263.537-2.016.537-1.43-.179-2.024-.537-1.057-.876-1.398-1.547-.511-1.47-.511-2.399.17-1.731.511-2.399.807-1.185 1.398-1.543 1.268-.541 2.024-.541 1.425.181 2.016.541 1.061.873 1.402 1.543.511 1.467.511 2.399zm-1.304 0c0-.71-.115-1.308-.345-1.794s-.54-.858-.938-1.108-.842-.379-1.342-.379-.952.126-1.347.379-.707.619-.937 1.108-.341 1.084-.341 1.794.114 1.31.341 1.798.542.856.937 1.108.844.375 1.347.375.947-.125 1.342-.375.71-.622.938-1.108.345-1.088.345-1.798zm2.723 6.818v-9h1.245v1.061h.106c.074-.136.181-.294.32-.473s.332-.335.579-.468.574-.205.98-.205c.529 0 1 .134 1.415.401s.74.652.976 1.155.358 1.107.358 1.815-.118 1.314-.354 1.819-.559.891-.971 1.164-.882.405-1.411.405c-.397 0-.723-.067-.976-.201s-.446-.289-.588-.468a3.53 3.53 0 0 1-.328-.478h-.077v3.473h-1.274zm1.249-5.727c0 .46.067.864.2 1.21s.327.618.58.814.562.29.929.29c.38 0 .699-.101.954-.303s.449-.481.58-.831.2-.742.2-1.18c0-.432-.065-.82-.196-1.163s-.321-.615-.579-.814-.576-.299-.959-.299c-.37 0-.682.096-.938.286s-.444.456-.575.797-.196.739-.196 1.193zm8.859 3.405c-.645 0-1.201-.138-1.667-.413a2.8 2.8 0 0 1-1.073-1.172c-.25-.506-.375-1.098-.375-1.777 0-.671.125-1.262.375-1.773s.605-.911 1.056-1.197.986-.431 1.594-.431c.369 0 .727.061 1.074.183s.658.314.933.576.493.6.652 1.018.239.919.239 1.513v.452h-5.203v-.955h3.954c0-.335-.068-.632-.204-.891s-.328-.467-.576-.617-.531-.226-.86-.226c-.358 0-.671.088-.938.264a1.76 1.76 0 0 0-.613.682c-.143.278-.214.581-.214.907v.746c0 .438.077.81.231 1.117s.373.541.652.703a1.93 1.93 0 0 0 .975.238c.242 0 .462-.034.661-.102a1.43 1.43 0 0 0 .516-.315 1.38 1.38 0 0 0 .332-.516l1.206.217c-.097.356-.27.667-.52.934s-.558.47-.933.618-.797.217-1.274.217zm5.376-4.019v3.887h-1.274v-6.546h1.223v1.066h.081a1.87 1.87 0 0 1 .707-.836c.324-.21.731-.315 1.223-.315.446 0 .837.094 1.172.281a1.89 1.89 0 0 1 .78.827c.184.367.277.82.277 1.359v4.164h-1.275v-4.01c0-.475-.123-.845-.37-1.112s-.587-.405-1.019-.405c-.295 0-.558.064-.788.192a1.37 1.37 0 0 0-.541.562c-.131.244-.196.54-.196.886zm8.598 4.019c-.644 0-1.2-.138-1.666-.413s-.821-.669-1.074-1.172-.375-1.098-.375-1.777c0-.671.125-1.262.375-1.773s.606-.911 1.057-1.197.986-.431 1.594-.431c.369 0 .727.061 1.074.183s.657.314.933.576.493.6.652 1.018.239.919.239 1.513v.452h-5.203v-.955h3.954c0-.335-.068-.632-.204-.891a1.55 1.55 0 0 0-.576-.617c-.244-.151-.531-.226-.861-.226-.357 0-.67.088-.937.264a1.77 1.77 0 0 0-.614.682c-.142.278-.213.581-.213.907v.746c0 .438.077.81.23 1.117s.374.541.652.703.604.238.976.238c.242 0 .462-.034.661-.102s.37-.176.515-.315a1.37 1.37 0 0 0 .333-.516l1.206.217c-.097.356-.27.667-.52.934s-.558.47-.933.618-.797.217-1.275.217zm6.553-.004c-.529 0-1-.135-1.415-.405s-.736-.661-.972-1.164-.349-1.112-.349-1.819.118-1.313.354-1.815.565-.888.98-1.155.885-.401 1.41-.401c.406 0 .733.068.98.205s.443.289.58.468a4.05 4.05 0 0 1 .324.473h.076v-3.242h1.275v8.727h-1.245v-1.019h-.106c-.077.14-.188.299-.333.478s-.338.335-.588.468-.574.201-.971.201zm.281-1.087c.366 0 .676-.097.929-.29s.449-.467.579-.814.201-.75.201-1.21c0-.454-.066-.852-.196-1.193s-.323-.607-.576-.797-.565-.286-.937-.286c-.384 0-.703.1-.959.299s-.449.47-.579.814a3.31 3.31 0 0 0-.192 1.163c0 .438.065.831.196 1.18s.324.627.579.831.577.303.955.303zm8.555.959h-1.397l3.14-8.727h1.522l3.14 8.727h-1.398l-2.467-7.142h-.068l-2.472 7.142zm.235-3.418h4.534v1.108h-4.534v-1.108zm7.208 5.872v-9h1.245v1.061h.106a3.53 3.53 0 0 1 .32-.473c.139-.179.332-.335.579-.468s.574-.205.98-.205c.529 0 1 .134 1.415.401s.74.652.976 1.155.358 1.107.358 1.815-.118 1.314-.354 1.819-.559.891-.971 1.164-.882.405-1.411.405c-.398 0-.723-.067-.976-.201s-.446-.289-.588-.468a3.53 3.53 0 0 1-.328-.478h-.077v3.473h-1.274zm1.249-5.727c0 .46.067.864.2 1.21s.327.618.58.814.562.29.929.29c.38 0 .698-.101.954-.303s.449-.481.58-.831.2-.742.2-1.18c0-.432-.065-.82-.196-1.163s-.321-.615-.58-.814-.575-.299-.958-.299c-.37 0-.682.096-.938.286s-.444.456-.575.797-.196.739-.196 1.193zm6.037 5.727v-9h1.245v1.061h.106c.074-.136.181-.294.32-.473s.332-.335.579-.468.574-.205.981-.205c.528 0 1 .134 1.414.401s.74.652.976 1.155.358 1.107.358 1.815-.118 1.314-.354 1.819-.559.891-.971 1.164-.882.405-1.411.405c-.397 0-.723-.067-.975-.201s-.446-.289-.589-.468a3.53 3.53 0 0 1-.328-.478h-.076v3.473h-1.275zm1.249-5.727c0 .46.067.864.2 1.21s.327.618.58.814.562.29.929.29c.381 0 .699-.101.954-.303s.449-.481.58-.831.2-.742.2-1.18c0-.432-.065-.82-.196-1.163s-.321-.615-.579-.814-.576-.299-.959-.299c-.369 0-.682.096-.938.286s-.444.456-.575.797-.196.739-.196 1.193zm7.312-5.454v8.727h-1.274v-8.727h1.274zm1.594 8.727v-6.546h1.274v6.546h-1.274zm.643-7.556a.81.81 0 0 1-.571-.221c-.156-.151-.234-.33-.234-.537s.078-.389.234-.537a.8.8 0 0 1 .571-.226c.222 0 .411.075.567.226s.239.327.239.537-.08.386-.239.537-.345.221-.567.221zm4.982 7.688c-.633 0-1.179-.144-1.636-.431s-.804-.688-1.048-1.197-.367-1.091-.367-1.747c0-.665.125-1.252.375-1.76s.603-.911 1.057-1.197.99-.431 1.607-.431c.497 0 .94.092 1.329.277s.703.438.942.767a2.32 2.32 0 0 1 .43 1.155h-1.24c-.068-.307-.224-.571-.468-.793s-.566-.332-.972-.332c-.355 0-.666.094-.933.281s-.47.449-.618.793-.222.744-.222 1.21c0 .477.073.889.218 1.236s.349.615.613.805.581.286.942.286c.241 0 .46-.044.656-.132a1.35 1.35 0 0 0 .499-.388c.136-.168.231-.369.285-.605h1.24c-.045.423-.183.801-.413 1.133s-.538.594-.925.784-.834.286-1.351.286zm5.837.013c-.415 0-.79-.077-1.125-.23a1.9 1.9 0 0 1-.797-.678c-.193-.295-.29-.658-.29-1.087 0-.369.071-.673.213-.912s.334-.427.575-.566a2.99 2.99 0 0 1 .81-.316c.298-.071.602-.125.912-.162l.955-.11c.244-.032.421-.081.532-.15s.166-.179.166-.332v-.03c0-.372-.105-.66-.315-.865s-.517-.307-.929-.307c-.429 0-.767.096-1.014.286s-.413.396-.507.626l-1.198-.272c.142-.398.35-.719.623-.964s.592-.426.95-.536.734-.171 1.129-.171c.261 0 .538.031.831.094s.571.17.827.332.47.394.635.695.247.686.247 1.163v4.347h-1.244v-.895h-.052c-.082.165-.206.327-.37.486s-.377.291-.635.396-.568.158-.929.158zm.277-1.023c.352 0 .653-.07.903-.209s.445-.321.575-.545.201-.47.201-.729v-.844c-.046.046-.134.088-.265.128s-.274.07-.438.098l-.482.073-.392.051a3.15 3.15 0 0 0-.678.157c-.201.074-.363.181-.485.32s-.179.318-.179.545c0 .316.116.554.349.716s.53.239.891.239zm7.585-5.668v1.023h-3.575v-1.023h3.575zm-2.616-1.568h1.274v6.192c0 .247.037.433.111.558s.169.206.285.252.249.063.388.063c.102 0 .192-.007.269-.021l.179-.034.23 1.053c-.074.028-.179.056-.316.085s-.307.048-.511.051c-.335.006-.648-.054-.938-.179a1.61 1.61 0 0 1-.703-.58c-.179-.261-.268-.589-.268-.984v-6.456zm3.906 8.114v-6.546h1.274v6.546h-1.274zm.643-7.556a.81.81 0 0 1-.571-.221c-.156-.151-.234-.33-.234-.537s.078-.389.234-.537a.8.8 0 0 1 .571-.226c.222 0 .411.075.567.226s.239.327.239.537-.08.386-.239.537-.345.221-.567.221zm4.982 7.688c-.613 0-1.149-.141-1.606-.422s-.813-.675-1.066-1.18-.379-1.097-.379-1.773.126-1.273.379-1.781.608-.904 1.066-1.185.993-.422 1.606-.422 1.149.141 1.607.422.812.676 1.065 1.185.379 1.102.379 1.781-.126 1.267-.379 1.773a2.85 2.85 0 0 1-1.065 1.18c-.458.281-.993.422-1.607.422zm.004-1.07c.398 0 .728-.105.989-.315s.455-.49.58-.84.191-.734.191-1.154-.064-.802-.191-1.151-.319-.635-.58-.848-.591-.32-.989-.32-.733.107-.997.32a1.91 1.91 0 0 0-.584.848c-.125.349-.187.733-.187 1.151s.062.805.187 1.154.323.63.584.84.597.315.997.315zm5.624-2.949v3.887h-1.274v-6.546h1.223v1.066h.08a1.88 1.88 0 0 1 .708-.836c.324-.21.731-.315 1.223-.315.446 0 .837.094 1.172.281a1.89 1.89 0 0 1 .78.827c.184.367.277.82.277 1.359v4.164h-1.275v-4.01c0-.475-.123-.845-.37-1.112s-.587-.405-1.019-.405c-.295 0-.558.064-.788.192a1.37 1.37 0 0 0-.541.562c-.131.244-.196.54-.196.886z" class="D"/><path d="M267.934 249.503c-.613 0-1.159-.105-1.636-.315a2.74 2.74 0 0 1-1.125-.878 2.27 2.27 0 0 1-.439-1.3h1.602c.015.236.093.442.235.618s.331.308.566.405.5.145.793.145c.313 0 .59-.054.831-.162s.43-.264.567-.46.203-.422.2-.678c.003-.264-.065-.497-.204-.699s-.341-.359-.606-.473-.576-.17-.946-.17h-.771v-1.219h.771c.304 0 .57-.053.797-.158s.411-.252.541-.443.195-.416.192-.669c.003-.247-.052-.462-.166-.643s-.268-.328-.473-.431a1.56 1.56 0 0 0-.712-.153c-.267 0-.514.048-.741.145s-.411.234-.55.413-.213.386-.221.631h-1.522c.012-.489.152-.918.422-1.287s.637-.662 1.091-.869.965-.316 1.53-.316c.582 0 1.088.11 1.517.328s.766.507 1.001.874.354.771.354 1.214c.003.492-.142.904-.435 1.236s-.67.55-1.142.652v.068c.614.086 1.084.313 1.411.682s.493.823.49 1.368c0 .489-.139.926-.418 1.313s-.656.684-1.142.903-1.037.328-1.662.328zm7.79.047c-.701 0-1.304-.178-1.806-.533s-.885-.873-1.155-1.547-.401-1.49-.401-2.441.138-1.762.405-2.429.655-1.182 1.155-1.534 1.104-.529 1.802-.529 1.3.176 1.803.529.888.863 1.155 1.534.405 1.48.405 2.429c0 .954-.135 1.77-.405 2.446s-.652 1.187-1.155 1.542-1.101.533-1.803.533zm0-1.334c.546 0 .976-.268 1.292-.805s.477-1.334.477-2.382c0-.694-.073-1.276-.217-1.747s-.35-.827-.614-1.066-.577-.362-.938-.362c-.542 0-.971.27-1.286.81s-.475 1.325-.478 2.365c-.003.696.067 1.281.209 1.755s.349.833.614 1.074.578.358.941.358zm9.961 1.283a2.48 2.48 0 0 1-1.381-.396c-.406-.265-.727-.648-.963-1.151s-.353-1.114-.353-1.832c0-.728.119-1.341.358-1.841s.566-.882.975-1.138.866-.388 1.368-.388c.384 0 .699.065.946.196s.444.283.588.465a2.81 2.81 0 0 1 .337.507h.064v-3.264h1.547v8.727h-1.517v-1.031h-.094c-.079.159-.194.328-.345.507s-.349.326-.597.451-.558.188-.933.188zm.431-1.266c.326 0 .605-.088.835-.264s.405-.428.524-.746.179-.689.179-1.112-.06-.791-.179-1.104-.29-.555-.52-.728-.507-.26-.839-.26c-.344 0-.631.089-.861.268s-.404.426-.52.742-.175.676-.175 1.082.058.774.175 1.095.294.57.524.754.518.273.857.273zm6.462 1.283a2.72 2.72 0 0 1-1.12-.222 1.83 1.83 0 0 1-.785-.664c-.19-.293-.285-.654-.285-1.083 0-.369.068-.675.204-.916s.323-.435.559-.58a2.83 2.83 0 0 1 .797-.328c.298-.076.606-.132.924-.166l.934-.106c.238-.035.411-.086.519-.154s.167-.18.167-.328v-.026c0-.321-.096-.569-.286-.745s-.464-.264-.822-.264c-.378 0-.678.082-.899.247s-.367.359-.444.583l-1.44-.204c.114-.398.301-.73.562-.997s.581-.472.959-.605.796-.205 1.253-.205a4.08 4.08 0 0 1 .942.111 2.66 2.66 0 0 1 .856.366c.259.168.466.397.623.686s.238.652.238 1.087v4.381h-1.483v-.899h-.051c-.094.181-.226.352-.396.511a1.9 1.9 0 0 1-.635.379c-.253.094-.55.141-.891.141zm.401-1.134c.309 0 .578-.061.805-.183s.402-.29.524-.494a1.26 1.26 0 0 0 .188-.669v-.772a.72.72 0 0 1-.247.111 3.65 3.65 0 0 1-.384.09l-.422.068-.362.051c-.23.031-.436.082-.618.153s-.325.171-.43.299a.73.73 0 0 0-.158.486c0 .284.104.498.311.643s.472.217.793.217zm5.211 3.456c-.21 0-.405-.017-.584-.051s-.317-.068-.422-.111l.358-1.201a2.06 2.06 0 0 0 .601.093.73.73 0 0 0 .464-.166c.137-.105.252-.281.346-.528l.132-.354-2.374-6.682h1.636l1.509 4.944h.068l1.513-4.944h1.641l-2.621 7.338c-.122.347-.284.644-.486.891s-.449.44-.741.571-.637.2-1.04.2zm11.008-7.27l-1.406.154c-.04-.142-.109-.276-.209-.401s-.227-.226-.392-.302-.366-.115-.605-.115c-.321 0-.591.069-.81.208s-.322.32-.319.542c-.003.19.067.345.209.464s.383.217.716.294l1.116.239c.619.133 1.08.345 1.381.635s.457.669.46 1.138c-.003.411-.124.775-.362 1.09s-.564.557-.985.733-.903.265-1.448.265c-.802 0-1.447-.168-1.935-.503a2.02 2.02 0 0 1-.874-1.411l1.505-.145c.068.296.213.519.434.669s.51.226.865.226c.367 0 .661-.075.882-.226s.337-.336.337-.558a.58.58 0 0 0-.217-.464c-.142-.122-.364-.216-.665-.282l-1.117-.234c-.627-.131-1.092-.351-1.393-.66s-.45-.708-.447-1.185a1.67 1.67 0 0 1 .328-1.048 2.14 2.14 0 0 1 .933-.691c.4-.165.862-.247 1.385-.247.767 0 1.371.163 1.811.49s.717.769.822 1.325zm6.033 4.948c-.415 0-.788-.074-1.121-.222a1.83 1.83 0 0 1-.784-.664c-.19-.293-.285-.654-.285-1.083 0-.369.068-.675.204-.916a1.59 1.59 0 0 1 .558-.58c.236-.144.502-.254.797-.328s.607-.132.925-.166l.933-.106c.239-.035.412-.086.52-.154s.166-.18.166-.328v-.026c0-.321-.095-.569-.285-.745s-.465-.264-.823-.264c-.377 0-.677.082-.899.247s-.366.359-.443.583l-1.44-.204c.113-.398.301-.73.562-.997s.581-.472.959-.605.796-.205 1.253-.205a4.08 4.08 0 0 1 .942.111 2.66 2.66 0 0 1 .856.366c.259.168.466.397.622.686s.239.652.239 1.087v4.381h-1.483v-.899h-.051c-.094.181-.226.352-.396.511a1.91 1.91 0 0 1-.635.379c-.253.094-.55.141-.891.141zm.401-1.134c.309 0 .578-.061.805-.183s.402-.29.524-.494a1.26 1.26 0 0 0 .188-.669v-.772c-.049.04-.131.077-.247.111a3.65 3.65 0 0 1-.384.09l-.422.068-.362.051c-.23.031-.436.082-.618.153s-.325.171-.43.299-.158.287-.158.486c0 .284.104.498.311.643s.472.217.793.217zm7.333 3.593c-.554 0-1.03-.076-1.428-.226s-.717-.347-.959-.597a2.06 2.06 0 0 1-.502-.831l1.389-.336c.062.127.153.254.272.379s.28.233.482.315.462.128.771.128c.438 0 .8-.106 1.087-.32s.43-.556.43-1.039v-1.24h-.076a2.2 2.2 0 0 1-.35.49c-.15.167-.351.308-.601.422s-.558.17-.933.17c-.503 0-.959-.118-1.368-.354s-.73-.593-.971-1.065-.358-1.068-.358-1.781c0-.719.119-1.326.358-1.82s.566-.873.976-1.129.865-.388 1.367-.388c.384 0 .699.065.946.196s.449.283.597.465.26.348.337.507h.085v-1.083h1.521v6.652c0 .56-.133 1.023-.4 1.39s-.632.64-1.096.822-.988.273-1.576.273zm.013-3.895c.326 0 .605-.08.835-.239a1.47 1.47 0 0 0 .524-.686c.119-.298.179-.656.179-1.074 0-.412-.06-.772-.179-1.082s-.29-.55-.52-.72-.507-.26-.839-.26c-.344 0-.631.089-.861.268s-.404.425-.52.737-.175.662-.175 1.057c0 .401.058.752.175 1.053s.294.531.524.699a1.45 1.45 0 0 0 .857.247zm7.375 1.432c-.639 0-1.193-.141-1.662-.422a2.87 2.87 0 0 1-1.091-1.181c-.255-.505-.383-1.096-.383-1.772s.128-1.269.383-1.777.623-.904 1.091-1.185 1.023-.422 1.662-.422 1.193.141 1.662.422.831.676 1.087 1.185.388 1.1.388 1.777-.13 1.267-.388 1.772-.618.9-1.087 1.181-1.023.422-1.662.422zm.009-1.236c.346 0 .636-.095.869-.286a1.72 1.72 0 0 0 .52-.775c.116-.324.175-.685.175-1.083s-.059-.762-.175-1.086a1.72 1.72 0 0 0-.52-.78c-.233-.193-.523-.29-.869-.29-.355 0-.651.097-.887.29a1.75 1.75 0 0 0-.524.78c-.113.324-.17.686-.17 1.086s.057.759.17 1.083.291.582.524.775.532.286.887.286z" fill="#eb5757"/><rect x="121.369" y="229.884" width="223" height="30" rx="3.5" class="J"/><rect x="121.5" y="190.884" width="200" height="30" rx="3.5" class="B"/><g clip-path="url(#C)"><path d="M135.844 201.504a.59.59 0 0 0-.112.164l-.003-.003-4.674 10.528.005.004c-.087.168.058.51.355.807s.639.442.807.356l.004.004 10.528-4.674-.004-.004c.062-.029.118-.064.165-.112.651-.651-.405-2.761-2.357-4.714s-4.063-3.007-4.714-2.356h0z" class="I"/><path d="M136.416 203.384l-5.243 8.544-.118.265.005.004c-.087.168.058.51.355.807.097.097.198.17.296.232l6.372-7.769-1.667-2.083z" fill="#ea596e"/><path d="M140.589 203.828c1.945 1.947 3.026 4.022 2.412 4.635s-2.689-.466-4.636-2.412-3.026-4.022-2.413-4.636 2.69.466 4.637 2.413h0z" fill="#a0041e"/><path d="M138.746 204.054c-.083.067-.191.102-.306.09-.362-.039-.666-.165-.879-.364-.225-.21-.336-.493-.306-.776.053-.496.552-.952 1.401-.861.331.036.478-.07.483-.121s-.115-.186-.446-.222c-.361-.039-.666-.165-.879-.364-.225-.21-.337-.493-.306-.775.054-.497.552-.953 1.401-.861.241.026.368-.024.421-.056.043-.026.06-.051.062-.066.005-.05-.115-.185-.446-.221-.229-.025-.394-.23-.369-.459s.229-.395.459-.37c.849.092 1.239.643 1.185 1.14s-.552.953-1.402.861c-.241-.026-.367.024-.421.056-.043.026-.06.051-.062.066-.005.05.115.185.446.221.849.092 1.239.643 1.185 1.14s-.551.952-1.4.86c-.241-.026-.368.024-.422.056-.043.027-.06.052-.062.066-.005.05.115.186.446.222.228.025.395.23.369.459-.011.114-.069.213-.152.279h0z" fill="#aa8dd8"/><path d="M143.776 207.907c.822-.232 1.389.135 1.524.616s-.158 1.09-.979 1.321c-.321.09-.418.243-.405.292s.177.13.497.04c.822-.231 1.389.135 1.524.616s-.157 1.089-.979 1.321c-.321.09-.417.244-.403.292s.176.13.496.04c.221-.062.452.067.514.288s-.067.452-.289.514c-.821.231-1.388-.135-1.524-.616s.158-1.089.98-1.321c.321-.09.417-.243.403-.292s-.176-.13-.496-.04c-.822.232-1.389-.134-1.524-.616s.157-1.089.979-1.321c.32-.09.417-.244.403-.292s-.176-.13-.496-.04c-.222.062-.452-.067-.514-.288s.067-.451.289-.514h0z" fill="#77b255"/><path d="M140.584 206.783c-.122 0-.243-.053-.326-.156-.144-.18-.114-.442.065-.586.091-.073 2.258-1.774 5.32-1.336.228.032.386.243.354.471s-.242.387-.472.353c-2.706-.384-4.661 1.148-4.681 1.163-.077.062-.169.091-.26.091h0z" fill="#aa8dd8"/><path d="M133.398 205.051c-.04 0-.08-.006-.12-.018-.221-.066-.346-.298-.279-.519.472-1.572.9-4.08.374-4.735-.059-.074-.148-.147-.351-.131-.391.03-.354.854-.353.863.017.229-.155.429-.385.446s-.429-.155-.446-.384c-.043-.575.136-1.681 1.121-1.756.44-.033.806.12 1.064.44.988 1.23-.015 4.795-.226 5.497-.054.18-.22.297-.399.297z" fill="#77b255"/><use xlink:href="#I" fill="#5c913b"/><path d="M131.833 206.717c.461 0 .834-.373.834-.833s-.373-.833-.834-.833-.833.373-.833.833.373.833.833.833z" fill="#9266cc"/><g fill="#5c913b"><path d="M144.542 207.134c.345 0 .625-.28.625-.625s-.28-.625-.625-.625-.625.28-.625.625.28.625.625.625zm-3.75 5c.345 0 .625-.28.625-.625s-.28-.625-.625-.625-.625.28-.625.625.28.625.625.625z"/></g><g fill="#ffcc4d"><path d="M142.666 200.883c.461 0 .834-.373.834-.833s-.373-.833-.834-.833-.833.373-.833.833.373.833.833.833zm1.876 1.668c.345 0 .625-.28.625-.625s-.28-.625-.625-.625-.625.28-.625.625.28.625.625.625zm-1.25 1.666c.345 0 .625-.28.625-.625s-.28-.625-.625-.625-.625.28-.625.625.28.625.625.625zm-9.167 4.584c.345 0 .625-.28.625-.625s-.28-.625-.625-.625-.625.28-.625.625.28.625.625.625z"/></g></g><path d="M151.696 210.384h-1.398l3.141-8.727h1.521l3.141 8.727h-1.398l-2.467-7.142h-.068l-2.472 7.142zm.234-3.418h4.534v1.108h-4.534v-1.108zm7.209 5.872v-9h1.244v1.061h.107a3.61 3.61 0 0 1 .319-.473c.14-.179.333-.335.58-.468s.574-.205.98-.205c.528 0 1 .134 1.415.401s.74.652.976 1.155.358 1.107.358 1.815-.118 1.314-.354 1.819-.56.891-.972 1.164-.882.405-1.41.405c-.398 0-.723-.067-.976-.201s-.446-.289-.588-.468a3.44 3.44 0 0 1-.328-.478h-.077v3.473h-1.274zm1.248-5.727c0 .46.067.864.201 1.21s.326.618.579.814.563.29.929.29c.381 0 .699-.101.955-.303a1.87 1.87 0 0 0 .579-.831 3.27 3.27 0 0 0 .201-1.18c0-.432-.066-.82-.196-1.163s-.321-.615-.58-.814-.575-.299-.959-.299c-.369 0-.682.096-.937.286s-.445.456-.576.797-.196.739-.196 1.193zm6.038 5.727v-9h1.244v1.061h.107a3.53 3.53 0 0 1 .32-.473c.139-.179.332-.335.579-.468s.574-.205.98-.205c.529 0 1 .134 1.415.401s.74.652.976 1.155.358 1.107.358 1.815-.118 1.314-.354 1.819-.56.891-.971 1.164-.883.405-1.411.405c-.398 0-.723-.067-.976-.201s-.446-.289-.588-.468a3.53 3.53 0 0 1-.328-.478h-.077v3.473h-1.274zm1.249-5.727c0 .46.066.864.2 1.21s.327.618.58.814.562.29.929.29c.38 0 .698-.101.954-.303s.449-.481.58-.831.2-.742.2-1.18c0-.432-.065-.82-.196-1.163s-.321-.615-.58-.814-.575-.299-.958-.299c-.37 0-.682.096-.938.286s-.445.456-.575.797-.196.739-.196 1.193zm7.312-5.454v8.727h-1.275v-8.727h1.275zm1.594 8.727v-6.546h1.274v6.546h-1.274zm.643-7.556a.81.81 0 0 1-.571-.221c-.156-.151-.234-.33-.234-.537s.078-.389.234-.537a.8.8 0 0 1 .571-.226c.222 0 .411.075.567.226s.239.327.239.537-.08.386-.239.537-.345.221-.567.221zm4.982 7.688c-.633 0-1.179-.144-1.636-.431s-.804-.688-1.049-1.197-.366-1.091-.366-1.747c0-.665.125-1.252.375-1.76s.602-.911 1.057-1.197.99-.431 1.606-.431c.497 0 .941.092 1.33.277s.703.438.942.767a2.32 2.32 0 0 1 .43 1.155h-1.24a1.49 1.49 0 0 0-.469-.793c-.241-.221-.565-.332-.971-.332-.356 0-.667.094-.934.281s-.47.449-.618.793-.221.744-.221 1.21c0 .477.072.889.217 1.236s.35.615.614.805.581.286.942.286c.241 0 .46-.044.656-.132a1.34 1.34 0 0 0 .498-.388c.137-.168.232-.369.286-.605h1.24c-.045.423-.183.801-.413 1.133a2.38 2.38 0 0 1-.925.784c-.384.191-.834.286-1.351.286zm5.836.013c-.414 0-.789-.077-1.125-.23s-.6-.383-.797-.678-.289-.658-.289-1.087c0-.369.071-.673.213-.912s.334-.427.575-.566a2.98 2.98 0 0 1 .81-.316c.298-.071.602-.125.912-.162l.954-.11c.245-.032.422-.081.533-.15s.166-.179.166-.332v-.03c0-.372-.105-.66-.315-.865s-.517-.307-.929-.307c-.429 0-.767.096-1.014.286s-.414.396-.508.626l-1.197-.272c.142-.398.349-.719.622-.964s.592-.426.95-.536.735-.171 1.13-.171c.261 0 .538.031.831.094a2.43 2.43 0 0 1 .826.332c.259.162.471.394.635.695s.247.686.247 1.163v4.347h-1.244v-.895h-.051c-.082.165-.206.327-.371.486s-.376.291-.635.396-.568.158-.929.158zm.277-1.023c.353 0 .654-.07.904-.209s.444-.321.575-.545a1.41 1.41 0 0 0 .2-.729v-.844c-.045.046-.133.088-.264.128s-.274.07-.439.098l-.481.073-.392.051c-.248.031-.473.083-.678.157s-.364.181-.486.32-.179.318-.179.545c0 .316.117.554.35.716s.53.239.89.239zm7.586-5.668v1.023h-3.575v-1.023h3.575zm-2.617-1.568h1.275v6.192c0 .247.037.433.11.558s.169.206.286.252a1.16 1.16 0 0 0 .388.063 1.51 1.51 0 0 0 .268-.021l.179-.034.23 1.053c-.074.028-.179.056-.315.085s-.307.048-.511.051a2.24 2.24 0 0 1-.938-.179c-.29-.125-.524-.318-.703-.58s-.269-.589-.269-.984v-6.456zm3.906 8.114v-6.546h1.275v6.546h-1.275zm.644-7.556c-.222 0-.412-.073-.571-.221s-.235-.33-.235-.537.079-.389.235-.537a.8.8 0 0 1 .571-.226c.221 0 .41.075.567.226s.238.327.238.537-.079.386-.238.537-.346.221-.567.221zm4.982 7.688c-.614 0-1.149-.141-1.607-.422a2.85 2.85 0 0 1-1.065-1.18c-.253-.506-.379-1.097-.379-1.773s.126-1.273.379-1.781.608-.904 1.065-1.185.993-.422 1.607-.422 1.149.141 1.606.422.813.676 1.066 1.185.379 1.102.379 1.781-.126 1.267-.379 1.773-.608.899-1.066 1.18-.993.422-1.606.422zm.004-1.07c.398 0 .727-.105.989-.315s.454-.49.579-.84a3.33 3.33 0 0 0 .192-1.154 3.32 3.32 0 0 0-.192-1.151c-.125-.352-.318-.635-.579-.848s-.591-.32-.989-.32-.733.107-.997.32a1.91 1.91 0 0 0-.584.848c-.125.349-.187.733-.187 1.151s.062.805.187 1.154.323.63.584.84.596.315.997.315zm5.623-2.949v3.887h-1.274v-6.546h1.223v1.066h.081c.151-.347.386-.625.708-.836s.731-.315 1.223-.315c.446 0 .836.094 1.171.281s.596.461.78.827.277.82.277 1.359v4.164h-1.274v-4.01c0-.475-.124-.845-.371-1.112s-.586-.405-1.018-.405a1.59 1.59 0 0 0-.788.192c-.228.127-.408.315-.542.562s-.196.54-.196.886zm16.517-.477c0 .932-.17 1.733-.511 2.404s-.809 1.181-1.402 1.542-1.263.537-2.016.537-1.43-.179-2.024-.537-1.057-.876-1.398-1.547-.511-1.47-.511-2.399.17-1.731.511-2.399.807-1.185 1.398-1.543 1.268-.541 2.024-.541 1.425.181 2.016.541 1.061.873 1.402 1.543.511 1.467.511 2.399zm-1.304 0c0-.71-.115-1.308-.345-1.794s-.54-.858-.938-1.108a2.43 2.43 0 0 0-1.342-.379c-.503 0-.952.126-1.347.379s-.707.619-.937 1.108-.341 1.084-.341 1.794.114 1.31.341 1.798.543.856.937 1.108.844.375 1.347.375.948-.125 1.342-.375.711-.622.938-1.108.345-1.088.345-1.798zm2.723 6.818v-9h1.245v1.061h.106c.074-.136.181-.294.32-.473s.332-.335.579-.468.574-.205.981-.205c.528 0 1 .134 1.414.401s.74.652.976 1.155.358 1.107.358 1.815-.118 1.314-.354 1.819-.559.891-.971 1.164-.882.405-1.411.405c-.397 0-.723-.067-.975-.201s-.447-.289-.589-.468a3.53 3.53 0 0 1-.328-.478h-.076v3.473h-1.275zm1.249-5.727c0 .46.067.864.2 1.21s.327.618.58.814.562.29.929.29c.381 0 .699-.101.954-.303s.449-.481.58-.831.2-.742.2-1.18c0-.432-.065-.82-.196-1.163s-.321-.615-.579-.814-.576-.299-.959-.299c-.369 0-.682.096-.938.286s-.444.456-.575.797-.196.739-.196 1.193zm8.859 3.405c-.645 0-1.201-.138-1.666-.413a2.8 2.8 0 0 1-1.074-1.172c-.25-.506-.375-1.098-.375-1.777 0-.671.125-1.262.375-1.773s.605-.911 1.057-1.197.985-.431 1.593-.431c.37 0 .728.061 1.074.183s.658.314.933.576.493.6.652 1.018.239.919.239 1.513v.452h-5.203v-.955h3.954c0-.335-.068-.632-.204-.891s-.328-.467-.575-.617-.532-.226-.861-.226c-.358 0-.671.088-.938.264s-.468.4-.613.682-.213.581-.213.907v.746c0 .438.076.81.23 1.117s.373.541.652.703.603.238.976.238a2.03 2.03 0 0 0 .66-.102 1.43 1.43 0 0 0 .516-.315c.145-.139.255-.311.332-.516l1.206.217c-.097.356-.27.667-.52.934s-.558.47-.933.618-.797.217-1.274.217zm5.376-4.019v3.887h-1.274v-6.546h1.223v1.066h.081a1.87 1.87 0 0 1 .707-.836c.324-.21.732-.315 1.223-.315.446 0 .837.094 1.172.281a1.89 1.89 0 0 1 .78.827c.184.367.277.82.277 1.359v4.164h-1.274v-4.01c0-.475-.124-.845-.371-1.112s-.587-.405-1.019-.405c-.295 0-.558.064-.788.192a1.37 1.37 0 0 0-.541.562c-.131.244-.196.54-.196.886zm8.599 4.019c-.645 0-1.201-.138-1.667-.413a2.8 2.8 0 0 1-1.073-1.172c-.25-.506-.375-1.098-.375-1.777 0-.671.125-1.262.375-1.773s.605-.911 1.056-1.197.986-.431 1.594-.431c.369 0 .727.061 1.074.183s.658.314.933.576.493.6.652 1.018.239.919.239 1.513v.452h-5.203v-.955h3.954c0-.335-.068-.632-.204-.891s-.328-.467-.576-.617-.531-.226-.86-.226c-.358 0-.671.088-.938.264a1.77 1.77 0 0 0-.614.682c-.142.278-.213.581-.213.907v.746c0 .438.077.81.231 1.117s.373.541.652.703a1.93 1.93 0 0 0 .975.238c.242 0 .462-.034.661-.102a1.43 1.43 0 0 0 .516-.315 1.38 1.38 0 0 0 .332-.516l1.206.217c-.097.356-.27.667-.52.934s-.558.47-.933.618-.797.217-1.274.217zm6.552-.004c-.529 0-1-.135-1.415-.405s-.736-.661-.972-1.164-.349-1.112-.349-1.819.118-1.313.354-1.815.565-.888.98-1.155a2.55 2.55 0 0 1 1.41-.401c.407 0 .733.068.98.205s.444.289.58.468a4.05 4.05 0 0 1 .324.473h.077v-3.242h1.274v8.727h-1.245v-1.019h-.106c-.077.14-.188.299-.333.478s-.338.335-.588.468-.573.201-.971.201zm.281-1.087c.367 0 .676-.097.929-.29s.449-.467.58-.814.2-.75.2-1.21c0-.454-.065-.852-.196-1.193s-.323-.607-.575-.797-.566-.286-.938-.286c-.383 0-.703.1-.959.299s-.449.47-.579.814a3.31 3.31 0 0 0-.192 1.163c0 .438.065.831.196 1.18s.324.627.58.831.576.303.954.303z" class="D"/><path d="M267.805 210.512c-.639 0-1.193-.141-1.662-.422a2.87 2.87 0 0 1-1.091-1.181c-.255-.505-.383-1.096-.383-1.772s.128-1.269.383-1.777.623-.904 1.091-1.185 1.023-.422 1.662-.422 1.193.141 1.662.422.831.676 1.087 1.185.388 1.1.388 1.777-.13 1.267-.388 1.772-.618.9-1.087 1.181-1.023.422-1.662.422zm.009-1.236c.346 0 .636-.095.869-.286a1.72 1.72 0 0 0 .52-.775c.116-.324.175-.685.175-1.083s-.059-.762-.175-1.086a1.72 1.72 0 0 0-.52-.78c-.233-.193-.523-.29-.869-.29-.355 0-.651.097-.887.29a1.75 1.75 0 0 0-.524.78c-.113.324-.17.686-.17 1.086s.057.759.17 1.083.291.582.524.775.532.286.887.286zm7.172 1.236c-.653 0-1.214-.144-1.683-.431s-.826-.683-1.078-1.189-.375-1.093-.375-1.755.127-1.252.383-1.76a2.86 2.86 0 0 1 1.083-1.193c.468-.287 1.022-.431 1.661-.431.532 0 1.002.098 1.411.294a2.4 2.4 0 0 1 .984.823c.245.352.384.764.418 1.235h-1.474a1.41 1.41 0 0 0-.427-.788c-.221-.213-.518-.32-.89-.32-.316 0-.593.086-.831.256s-.425.409-.558.725-.196.693-.196 1.133c0 .446.065.83.196 1.151s.314.564.549.737.519.256.84.256c.227 0 .43-.043.609-.128a1.22 1.22 0 0 0 .456-.38c.122-.164.206-.365.252-.6h1.474c-.037.463-.173.873-.409 1.231a2.42 2.42 0 0 1-.963.835c-.406.199-.884.299-1.432.299zm6.806 0c-.654 0-1.215-.144-1.683-.431s-.826-.683-1.079-1.189-.375-1.093-.375-1.755.128-1.252.384-1.76.616-.909 1.082-1.193 1.023-.431 1.662-.431c.532 0 1.002.098 1.411.294a2.4 2.4 0 0 1 .984.823c.244.352.384.764.418 1.235h-1.475a1.4 1.4 0 0 0-.426-.788c-.221-.213-.518-.32-.89-.32-.316 0-.593.086-.831.256s-.425.409-.559.725-.196.693-.196 1.133c0 .446.066.83.196 1.151s.314.564.55.737.519.256.84.256c.227 0 .43-.043.609-.128a1.22 1.22 0 0 0 .456-.38c.122-.164.206-.365.251-.6h1.475c-.037.463-.174.873-.409 1.231a2.42 2.42 0 0 1-.963.835c-.407.199-.884.299-1.432.299zm8.122-2.881v-3.793h1.543v6.546h-1.496v-1.164h-.068a1.97 1.97 0 0 1-.729.9c-.335.233-.748.349-1.24.349-.429 0-.808-.095-1.138-.285a2 2 0 0 1-.767-.84c-.184-.369-.277-.815-.277-1.338v-4.168h1.543v3.929c0 .415.114.745.341.989s.526.366.895.366a1.41 1.41 0 0 0 .66-.166 1.35 1.35 0 0 0 .525-.494c.139-.222.208-.499.208-.831zm3.009 2.753v-6.546h1.496v1.091h.068c.119-.378.324-.669.614-.873s.626-.311 1.001-.311l.286.012a1.99 1.99 0 0 1 .268.03v1.419c-.065-.022-.169-.042-.311-.059s-.274-.03-.405-.03a1.56 1.56 0 0 0-.758.183c-.222.119-.397.285-.524.499a1.4 1.4 0 0 0-.192.737v3.848h-1.543zm7.266.128c-.656 0-1.223-.137-1.7-.409a2.77 2.77 0 0 1-1.095-1.168c-.256-.506-.384-1.101-.384-1.786 0-.673.128-1.264.384-1.772a2.89 2.89 0 0 1 1.082-1.193c.463-.287 1.007-.431 1.632-.431.404 0 .784.065 1.142.196s.679.327.955.597.497.613.656 1.031.239.909.239 1.483v.473h-5.365v-1.04h3.886a1.66 1.66 0 0 0-.192-.788c-.125-.233-.299-.416-.524-.55s-.48-.2-.775-.2c-.316 0-.593.077-.831.23a1.58 1.58 0 0 0-.559.597c-.13.244-.197.512-.2.805v.908c0 .38.07.707.209.98a1.49 1.49 0 0 0 .584.622c.25.142.542.213.878.213.224 0 .427-.031.609-.094a1.35 1.35 0 0 0 .473-.285 1.19 1.19 0 0 0 .302-.465l1.441.162a2.24 2.24 0 0 1-.52.997c-.253.282-.577.5-.972.657s-.846.23-1.355.23zm6.525-.013c-.514 0-.975-.132-1.381-.396s-.727-.648-.963-1.151-.354-1.114-.354-1.832c0-.728.12-1.341.358-1.841s.567-.882.976-1.138.865-.388 1.368-.388c.384 0 .699.065.946.196a1.79 1.79 0 0 1 .588.465c.145.179.257.348.337.507h.064v-3.264h1.547v8.727h-1.517v-1.031h-.094c-.08.159-.195.328-.345.507s-.35.326-.597.451-.558.188-.933.188zm.43-1.266c.327 0 .605-.088.835-.264s.405-.428.525-.746.179-.689.179-1.112-.06-.791-.179-1.104-.29-.555-.52-.728-.507-.26-.84-.26c-.344 0-.631.089-.861.268s-.403.426-.52.742a3.12 3.12 0 0 0-.174 1.082 3.21 3.21 0 0 0 .174 1.095c.12.318.295.57.525.754s.518.273.856.273z" fill="#00cc74"/><rect x="121.5" y="190.884" width="200" height="30" rx="3.5" class="J"/><rect x="330.5" y="190.884" width="168" height="30" rx="3.5" class="B"/><path d="M354.311 205.422l-3.708-1.372-1.384-4.538c-.053-.175-.216-.295-.398-.295a.42.42 0 0 0-.399.295l-1.384 4.538-3.708 1.372c-.164.061-.272.216-.272.391s.108.33.272.391l3.706 1.372 1.385 4.676c.052.177.215.298.4.298s.347-.121.399-.298l1.385-4.676 3.707-1.373c.163-.06.271-.215.271-.39s-.108-.33-.272-.391z" fill="#ffac33"/><path d="M345.978 210.007l-.964-.357-.375-1.375c-.049-.182-.214-.307-.402-.307s-.352.125-.402.307l-.375 1.375-.963.356c-.164.061-.273.217-.273.391s.109.331.273.391l.958.355.378 1.51c.047.185.213.315.404.315s.358-.13.405-.316l.377-1.509.959-.355c.164-.06.272-.217.272-.391s-.108-.33-.272-.39zm-1.807-9.027l-.985-.364-.365-.986a.42.42 0 0 0-.391-.272.42.42 0 0 0-.391.272l-.365.986-.985.364c-.164.061-.272.217-.272.391s.108.331.272.391l.985.365.365.985c.061.164.217.272.391.272s.33-.108.391-.272l.364-.985.986-.365a.42.42 0 0 0 .272-.391.42.42 0 0 0-.272-.391z" fill="#ffcc4d"/><path d="M367.207 204.495h-1.329c-.051-.285-.146-.535-.286-.75a2.08 2.08 0 0 0-.511-.55c-.202-.151-.428-.264-.678-.341s-.51-.115-.788-.115c-.503 0-.953.126-1.351.379s-.707.624-.937 1.112-.341 1.086-.341 1.79c0 .71.113 1.31.341 1.798s.544.858.941 1.108.846.375 1.343.375c.275 0 .537-.037.784-.11a2.25 2.25 0 0 0 .677-.337 2.06 2.06 0 0 0 .512-.541 2.04 2.04 0 0 0 .294-.742l1.329.005c-.071.429-.208.823-.413 1.184a3.27 3.27 0 0 1-.78.929c-.315.259-.676.459-1.082.601s-.85.213-1.33.213c-.755 0-1.429-.179-2.02-.537s-1.056-.876-1.397-1.547-.507-1.47-.507-2.399.17-1.731.511-2.399.807-1.185 1.398-1.543 1.262-.541 2.015-.541c.463 0 .895.067 1.296.2a3.42 3.42 0 0 1 1.086.58c.321.253.587.563.797.929s.353.78.426 1.249zm4.111 6.021c-.614 0-1.149-.141-1.607-.422a2.85 2.85 0 0 1-1.065-1.18c-.253-.506-.379-1.097-.379-1.773s.126-1.273.379-1.781.608-.904 1.065-1.185.993-.422 1.607-.422 1.149.141 1.606.422.813.676 1.066 1.185.379 1.102.379 1.781-.126 1.267-.379 1.773-.608.899-1.066 1.18-.993.422-1.606.422zm.004-1.07c.398 0 .727-.105.989-.315s.454-.49.579-.84a3.33 3.33 0 0 0 .192-1.154 3.32 3.32 0 0 0-.192-1.151c-.125-.352-.318-.635-.579-.848s-.591-.32-.989-.32-.733.107-.997.32a1.91 1.91 0 0 0-.584.848c-.125.349-.187.733-.187 1.151s.062.805.187 1.154.323.63.584.84.597.315.997.315zm4.349.938v-6.546h1.223v1.066h.081a1.7 1.7 0 0 1 .669-.844c.31-.205.681-.307 1.112-.307.438 0 .804.102 1.1.307s.518.486.66.844h.069a1.84 1.84 0 0 1 .745-.836c.341-.21.747-.315 1.219-.315.594 0 1.078.186 1.453.558s.567.934.567 1.684v4.389h-1.274v-4.27c0-.443-.121-.764-.362-.963s-.53-.298-.865-.298c-.415 0-.738.127-.968.383s-.345.578-.345.976v4.172h-1.27v-4.351c0-.355-.111-.641-.332-.857s-.51-.323-.865-.323c-.242 0-.465.063-.669.191s-.365.3-.49.524a1.6 1.6 0 0 0-.184.78v4.036h-1.274zm10.486 2.454v-9h1.244v1.061h.107a3.51 3.51 0 0 1 .319-.473 1.8 1.8 0 0 1 .58-.468c.247-.137.574-.205.98-.205.528 0 1 .134 1.415.401s.74.652.975 1.155.358 1.107.358 1.815-.118 1.314-.353 1.819-.56.891-.972 1.164-.882.405-1.41.405c-.398 0-.723-.067-.976-.201s-.446-.289-.588-.468a3.44 3.44 0 0 1-.328-.478h-.077v3.473h-1.274zm1.248-5.727c0 .46.067.864.201 1.21s.326.618.579.814.563.29.929.29c.381 0 .699-.101.955-.303s.448-.481.579-.831a3.27 3.27 0 0 0 .2-1.18c0-.432-.065-.82-.196-1.163s-.321-.615-.579-.814-.575-.299-.959-.299c-.369 0-.682.096-.937.286s-.445.456-.576.797-.196.739-.196 1.193zm7.312-5.454v8.727h-1.274v-8.727h1.274zm4.415 8.859c-.645 0-1.2-.138-1.666-.413s-.821-.669-1.074-1.172-.375-1.098-.375-1.777c0-.671.125-1.262.375-1.773s.605-.911 1.057-1.197.986-.431 1.594-.431c.369 0 .727.061 1.074.183s.657.314.933.576.493.6.652 1.018.238.919.238 1.513v.452h-5.203v-.955h3.955c0-.335-.068-.632-.205-.891a1.54 1.54 0 0 0-.575-.617c-.244-.151-.531-.226-.861-.226-.358 0-.67.088-.937.264a1.77 1.77 0 0 0-.614.682c-.142.278-.213.581-.213.907v.746c0 .438.077.81.23 1.117a1.67 1.67 0 0 0 .652.703c.279.159.604.238.976.238.242 0 .462-.034.661-.102s.37-.176.515-.315a1.37 1.37 0 0 0 .333-.516l1.206.217c-.097.356-.27.667-.52.934s-.559.47-.934.618-.796.217-1.274.217zm7.158-6.678v1.023h-3.576v-1.023h3.576zm-2.617-1.568h1.274v6.192c0 .247.037.433.111.558s.169.206.286.252.248.063.387.063c.103 0 .192-.007.269-.021l.179-.034.23 1.053c-.074.028-.179.056-.315.085s-.307.048-.512.051c-.335.006-.648-.054-.937-.179s-.524-.318-.703-.58-.269-.589-.269-.984v-6.456zm6.657 8.246c-.645 0-1.201-.138-1.666-.413a2.8 2.8 0 0 1-1.074-1.172c-.25-.506-.375-1.098-.375-1.777 0-.671.125-1.262.375-1.773s.605-.911 1.057-1.197.985-.431 1.593-.431c.37 0 .728.061 1.074.183s.658.314.933.576.493.6.652 1.018.239.919.239 1.513v.452h-5.203v-.955h3.954c0-.335-.068-.632-.204-.891s-.328-.467-.575-.617-.532-.226-.861-.226c-.358 0-.671.088-.938.264s-.468.4-.613.682-.213.581-.213.907v.746c0 .438.076.81.23 1.117s.373.541.652.703.603.238.976.238a2.03 2.03 0 0 0 .66-.102 1.43 1.43 0 0 0 .516-.315c.145-.139.255-.311.332-.516l1.206.217c-.097.356-.27.667-.52.934s-.558.47-.933.618-.797.217-1.274.217zm6.552-.004c-.528 0-1-.135-1.415-.405s-.736-.661-.971-1.164-.35-1.112-.35-1.819.118-1.313.354-1.815.565-.888.98-1.155a2.55 2.55 0 0 1 1.41-.401c.407 0 .733.068.981.205s.443.289.579.468a4.05 4.05 0 0 1 .324.473h.077v-3.242h1.274v8.727h-1.244v-1.019h-.107a3.34 3.34 0 0 1-.332.478c-.142.179-.338.335-.588.468s-.574.201-.972.201zm.281-1.087c.367 0 .676-.097.929-.29s.449-.467.58-.814.2-.75.2-1.21c0-.454-.065-.852-.196-1.193s-.322-.607-.575-.797-.566-.286-.938-.286c-.383 0-.703.1-.959.299a1.83 1.83 0 0 0-.579.814 3.31 3.31 0 0 0-.192 1.163c0 .438.065.831.196 1.18s.324.627.58.831.576.303.954.303zm7.716.959v-6.546h1.232v1.04h.068a1.58 1.58 0 0 1 .631-.831c.304-.204.647-.307 1.031-.307l.281.009.26.021v1.219a2.3 2.3 0 0 0-.273-.047c-.13-.02-.261-.03-.392-.03a1.66 1.66 0 0 0-.805.192c-.233.125-.418.3-.554.524s-.205.475-.205.759v3.997h-1.274zm7.072.132c-.645 0-1.2-.138-1.666-.413s-.821-.669-1.074-1.172-.375-1.098-.375-1.777c0-.671.125-1.262.375-1.773s.605-.911 1.057-1.197.986-.431 1.594-.431c.369 0 .727.061 1.074.183s.657.314.933.576.493.6.652 1.018.239.919.239 1.513v.452h-5.204v-.955h3.955c0-.335-.068-.632-.205-.891a1.54 1.54 0 0 0-.575-.617c-.244-.151-.531-.226-.861-.226-.358 0-.67.088-.937.264a1.77 1.77 0 0 0-.614.682c-.142.278-.213.581-.213.907v.746c0 .438.077.81.23 1.117s.374.541.652.703.604.238.976.238c.242 0 .462-.034.661-.102s.37-.176.515-.315a1.37 1.37 0 0 0 .333-.516l1.206.217c-.097.356-.27.667-.52.934s-.559.47-.934.618-.796.217-1.274.217zm6.847 2.459c-.52 0-.968-.068-1.343-.205s-.676-.317-.912-.541a2.27 2.27 0 0 1-.528-.737l1.095-.452c.077.125.179.257.307.396a1.61 1.61 0 0 0 .528.363c.225.099.513.149.865.149.483 0 .882-.118 1.198-.354s.473-.605.473-1.116v-1.287h-.081a2.91 2.91 0 0 1-.333.464c-.142.171-.338.318-.588.443s-.575.188-.975.188a2.73 2.73 0 0 1-1.398-.362c-.412-.245-.739-.604-.98-1.079s-.358-1.063-.358-1.76.118-1.292.353-1.789.566-.878.981-1.142.884-.401 1.41-.401c.406 0 .734.068.984.205s.445.289.584.468.252.337.328.473h.094v-1.061h1.249v6.691c0 .562-.131 1.024-.392 1.385a2.32 2.32 0 0 1-1.061.801c-.444.173-.944.26-1.5.26zm-.013-3.746c.366 0 .676-.085.929-.256s.449-.42.579-.741.201-.712.201-1.164c0-.44-.066-.828-.196-1.163s-.323-.596-.576-.784-.565-.286-.937-.286c-.384 0-.703.1-.959.299a1.8 1.8 0 0 0-.58.801c-.127.338-.191.716-.191 1.133 0 .429.065.806.196 1.13s.324.576.579.758.577.273.955.273zm4.555 1.155v-6.546h1.274v6.546h-1.274zm.643-7.556c-.222 0-.412-.073-.571-.221s-.234-.33-.234-.537.078-.389.234-.537a.8.8 0 0 1 .571-.226c.222 0 .41.075.567.226s.238.327.238.537-.079.386-.238.537-.345.221-.567.221zm7.13 2.608l-1.155.205a1.39 1.39 0 0 0-.23-.422 1.14 1.14 0 0 0-.418-.328c-.176-.085-.396-.128-.66-.128-.361 0-.662.081-.904.243s-.362.365-.362.618a.65.65 0 0 0 .243.528c.162.134.423.243.784.328l1.04.239c.602.139 1.051.354 1.346.643s.443.667.443 1.13c0 .392-.113.741-.34 1.048s-.539.543-.942.716-.865.26-1.394.26c-.733 0-1.331-.156-1.794-.469a1.98 1.98 0 0 1-.852-1.342l1.232-.188c.076.321.234.564.473.729s.549.243.933.243c.417 0 .751-.087 1.001-.26s.375-.391.375-.644c0-.204-.076-.376-.23-.515s-.382-.244-.695-.315l-1.107-.243c-.611-.14-1.063-.361-1.356-.665s-.434-.689-.434-1.155a1.65 1.65 0 0 1 .324-1.014c.216-.29.514-.516.895-.678s.816-.247 1.308-.247c.707 0 1.264.154 1.67.46s.675.712.806 1.223zm4.464-1.598v1.023h-3.576v-1.023h3.576zm-2.617-1.568h1.274v6.192c0 .247.037.433.111.558s.169.206.286.252.248.063.388.063a1.51 1.51 0 0 0 .268-.021l.179-.034.23 1.053c-.074.028-.179.056-.315.085s-.307.048-.512.051c-.335.006-.647-.054-.937-.179s-.524-.318-.703-.58-.269-.589-.269-.984v-6.456zm3.906 8.114v-6.546h1.232v1.04h.068a1.58 1.58 0 0 1 .631-.831c.304-.204.647-.307 1.031-.307l.281.009.26.021v1.219a2.3 2.3 0 0 0-.273-.047c-.13-.02-.261-.03-.392-.03a1.66 1.66 0 0 0-.805.192c-.233.125-.418.3-.554.524s-.205.475-.205.759v3.997h-1.274zm6.332.145c-.415 0-.79-.077-1.125-.23s-.601-.383-.797-.678-.29-.658-.29-1.087c0-.369.071-.673.213-.912a1.57 1.57 0 0 1 .576-.566c.241-.14.511-.245.809-.316s.603-.125.912-.162l.955-.11c.244-.032.422-.081.532-.15s.167-.179.167-.332v-.03c0-.372-.105-.66-.316-.865s-.517-.307-.929-.307c-.429 0-.767.096-1.014.286s-.413.396-.507.626l-1.197-.272c.142-.398.349-.719.622-.964s.592-.426.95-.536.734-.171 1.129-.171c.262 0 .539.031.831.094s.571.17.827.332.47.394.635.695.247.686.247 1.163v4.347h-1.244v-.895h-.051c-.083.165-.206.327-.371.486s-.377.291-.635.396-.568.158-.929.158zm.277-1.023c.352 0 .653-.07.903-.209s.445-.321.576-.545a1.42 1.42 0 0 0 .2-.729v-.844c-.046.046-.134.088-.264.128s-.274.07-.439.098l-.482.073-.392.051c-.247.031-.473.083-.677.157s-.364.181-.486.32-.179.318-.179.545c0 .316.116.554.349.716s.53.239.891.239zm7.586-5.668v1.023h-3.576v-1.023h3.576zm-2.617-1.568h1.274v6.192c0 .247.037.433.111.558s.169.206.285.252.249.063.388.063c.103 0 .192-.007.269-.021l.179-.034.23 1.053c-.074.028-.179.056-.316.085s-.306.048-.511.051c-.335.006-.648-.054-.937-.179a1.6 1.6 0 0 1-.703-.58c-.179-.261-.269-.589-.269-.984v-6.456zm3.906 8.114v-6.546h1.274v6.546h-1.274zm.643-7.556a.81.81 0 0 1-.571-.221c-.156-.151-.234-.33-.234-.537s.078-.389.234-.537a.8.8 0 0 1 .571-.226c.222 0 .411.075.567.226s.239.327.239.537-.08.386-.239.537-.345.221-.567.221zm4.982 7.688c-.613 0-1.149-.141-1.606-.422s-.813-.675-1.066-1.18-.379-1.097-.379-1.773.127-1.273.379-1.781.608-.904 1.066-1.185.993-.422 1.606-.422 1.15.141 1.607.422.812.676 1.065 1.185.379 1.102.379 1.781-.126 1.267-.379 1.773a2.85 2.85 0 0 1-1.065 1.18c-.457.281-.993.422-1.607.422zm.005-1.07c.397 0 .727-.105.988-.315a1.84 1.84 0 0 0 .58-.84 3.33 3.33 0 0 0 .192-1.154 3.32 3.32 0 0 0-.192-1.151c-.125-.352-.318-.635-.58-.848s-.591-.32-.988-.32-.733.107-.998.32a1.9 1.9 0 0 0-.583.848c-.125.349-.188.733-.188 1.151s.063.805.188 1.154a1.87 1.87 0 0 0 .583.84c.265.21.597.315.998.315zm5.623-2.949v3.887h-1.274v-6.546h1.223v1.066h.081a1.87 1.87 0 0 1 .707-.836c.324-.21.732-.315 1.223-.315.446 0 .837.094 1.172.281a1.89 1.89 0 0 1 .78.827c.184.367.277.82.277 1.359v4.164h-1.274v-4.01c0-.475-.124-.845-.371-1.112s-.587-.405-1.019-.405c-.295 0-.558.064-.788.192a1.37 1.37 0 0 0-.541.562c-.131.244-.196.54-.196.886z" class="D"/><rect x="330.5" y="190.884" width="168" height="30" rx="3.5" class="J"/><rect x="-1" y="1" width="419" height="153" rx="7" transform="matrix(-1 0 0 1 515 124.384)" stroke="#e1e8f2" class="K L"/><g transform="matrix(-1 0 0 1 543 391.034)"><rect x="-2" y="2" width="442" height="112" rx="6" class="E"/><rect x="-2" y="2" width="442" height="112" rx="6" class="C F"/></g><g class="G"><rect x="-2" y="2" width="447" height="108" rx="6" transform="matrix(-1 0 0 1 531 382.034)"/><rect x="-1" y="1" width="421" height="84" rx="7" transform="matrix(-1 0 0 1 519 395.034)"/></g><rect width="329" height="56" rx="6" transform="matrix(-1 0 0 1 507.75 409.784)" class="B"/><rect x="456.75" y="420.784" width="41" height="4" rx="2" fill="#eef1f7"/><path d="M191.068 420.85v-.884h4.642v.884h-1.798v4.934h-1.046v-4.934h-1.798zm6.44 2.377v2.557h-1.028v-5.818h1.005v2.196h.051c.103-.246.261-.44.475-.582s.49-.216.824-.216c.303 0 .567.063.792.19s.4.313.523.557.188.542.188.895v2.778h-1.029v-2.619c0-.294-.076-.522-.227-.685s-.36-.247-.631-.247c-.182 0-.344.04-.488.119s-.254.191-.336.338-.119.327-.119.537zm5.73 2.642c-.438 0-.816-.091-1.134-.272s-.559-.444-.73-.779-.256-.734-.256-1.19c0-.449.086-.843.256-1.182s.413-.606.722-.795.671-.287 1.088-.287c.269 0 .522.043.761.13a1.72 1.72 0 0 1 .636.398c.186.18.332.409.438.688s.159.606.159.988v.316h-3.577v-.694h2.591c-.002-.197-.044-.372-.128-.525s-.199-.278-.349-.367-.32-.133-.517-.133c-.21 0-.395.051-.554.153a1.06 1.06 0 0 0-.372.398 1.15 1.15 0 0 0-.134.537v.605c0 .254.047.472.14.653s.222.319.389.415.361.142.585.142a1.26 1.26 0 0 0 .406-.062c.121-.044.227-.107.316-.191s.156-.186.201-.309l.96.108a1.49 1.49 0 0 1-.346.664 1.69 1.69 0 0 1-.648.438c-.263.102-.564.153-.903.153zm3.759-2.642v2.557h-1.029v-4.363h.983v.741h.051c.101-.244.261-.438.48-.582s.496-.216.821-.216c.301 0 .564.064.787.193s.4.315.523.56.187.54.185.889v2.778h-1.029v-2.619c0-.292-.076-.52-.227-.685s-.357-.247-.622-.247a.96.96 0 0 0-.48.119c-.139.078-.247.191-.327.338s-.116.327-.116.537z" class="D"/><path d="M190.75 432.284h307" class="C"/><path d="M197.422 447.277c-.053-.471-.272-.835-.656-1.094s-.869-.392-1.452-.392c-.418 0-.779.066-1.084.198s-.542.309-.711.537a1.27 1.27 0 0 0-.248.771 1.13 1.13 0 0 0 .169.626c.116.176.266.324.452.443a3.37 3.37 0 0 0 .607.293l.621.189.994.259c.325.079.658.187 1 .323s.658.315.949.537a2.57 2.57 0 0 1 .706.825c.182.328.274.721.274 1.178 0 .577-.15 1.089-.448 1.536s-.724.801-1.287 1.059-1.238.388-2.034.388c-.762 0-1.422-.121-1.979-.363s-.992-.585-1.307-1.029-.489-.978-.522-1.591h1.541c.03.368.149.675.358.92a1.93 1.93 0 0 0 .81.542 3.28 3.28 0 0 0 1.089.174c.434 0 .821-.068 1.159-.204s.609-.331.805-.577a1.36 1.36 0 0 0 .293-.87c0-.301-.086-.548-.258-.74s-.4-.352-.691-.478-.615-.237-.98-.333l-1.203-.328c-.815-.222-1.461-.548-1.939-.979s-.711-1.001-.711-1.711c0-.586.159-1.098.478-1.536s.749-.777 1.292-1.019 1.157-.368 1.84-.368c.689 0 1.297.121 1.824.363s.948.575 1.253.999.464.905.477 1.452h-1.481zm6.488 7.661c-.752 0-1.4-.16-1.944-.482s-.958-.78-1.252-1.367-.438-1.281-.438-2.073c0-.782.146-1.472.438-2.068a3.38 3.38 0 0 1 1.232-1.397c.531-.335 1.151-.503 1.86-.503a3.76 3.76 0 0 1 1.253.214c.404.143.767.366 1.088.671s.576.701.761 1.189.279 1.072.279 1.764v.527h-6.071V450.3h4.614c0-.391-.08-.738-.239-1.039s-.383-.545-.671-.721-.62-.264-1.004-.264c-.418 0-.782.103-1.094.309a2.07 2.07 0 0 0-.716.795c-.166.325-.248.678-.248 1.059v.87c0 .51.089.945.268 1.303s.436.631.761.82.704.278 1.138.278c.282 0 .539-.039.771-.119s.432-.205.601-.368.299-.363.388-.601l1.407.253a2.56 2.56 0 0 1-.606 1.089 2.96 2.96 0 0 1-1.089.721c-.434.169-.93.253-1.487.253zm6.272-4.688v4.534h-1.486v-7.636h1.427v1.243h.094a2.19 2.19 0 0 1 .825-.975c.378-.245.854-.368 1.427-.368.521 0 .976.11 1.367.329s.695.536.91.964.323.956.323 1.586v4.857h-1.486v-4.678c0-.554-.144-.986-.433-1.298s-.684-.472-1.188-.472c-.345 0-.651.075-.92.224a1.61 1.61 0 0 0-.631.656c-.152.285-.229.63-.229 1.034zm9.6 4.683c-.617 0-1.167-.157-1.651-.472s-.858-.771-1.133-1.357-.408-1.298-.408-2.123.137-1.531.413-2.118.659-1.036 1.143-1.347a2.97 2.97 0 0 1 1.646-.468c.474 0 .855.08 1.143.239s.517.338.676.547.289.393.378.552h.09v-3.784h1.486v10.182h-1.452v-1.188h-.124c-.089.162-.219.348-.388.557s-.394.391-.686.547-.669.233-1.133.233zm.328-1.267c.427 0 .789-.113 1.084-.338s.523-.546.676-.95.233-.875.233-1.412c0-.53-.076-.994-.228-1.392s-.376-.708-.671-.93-.66-.333-1.094-.333c-.448 0-.82.116-1.119.348s-.523.549-.676.95-.224.853-.224 1.357c0 .51.077.969.229 1.377s.378.731.676.97.673.353 1.114.353zm9.002 1.118v-7.636h1.427v1.243h.094c.159-.421.419-.749.781-.985s.793-.358 1.297-.358c.511 0 .938.12 1.283.358s.605.567.77.985h.08c.182-.408.472-.733.87-.975s.872-.368 1.422-.368c.693 0 1.258.217 1.695.652s.661 1.088.661 1.963v5.121h-1.486v-4.981c0-.517-.141-.892-.423-1.124s-.618-.348-1.009-.348c-.484 0-.86.149-1.128.447s-.403.675-.403 1.139v4.867h-1.482v-5.076c0-.414-.129-.747-.387-.999s-.595-.378-1.01-.378c-.281 0-.542.075-.78.224s-.426.349-.572.611a1.88 1.88 0 0 0-.214.91v4.708h-1.486zm14.455.169c-.484 0-.921-.089-1.312-.268s-.701-.446-.93-.791-.338-.767-.338-1.267c0-.431.083-.786.248-1.064a1.84 1.84 0 0 1 .672-.662 3.51 3.51 0 0 1 .944-.368c.348-.082.703-.145 1.064-.188l1.114-.13c.285-.036.492-.094.621-.174s.194-.209.194-.388v-.034c0-.434-.123-.771-.368-1.01s-.603-.357-1.084-.357c-.5 0-.894.111-1.183.333s-.482.462-.591.73l-1.397-.318c.165-.464.407-.838.725-1.123a2.95 2.95 0 0 1 1.109-.627 4.35 4.35 0 0 1 1.318-.199c.304 0 .628.037.969.11s.666.199.964.388.549.459.741.81.289.8.289 1.357v5.071h-1.452v-1.044h-.06c-.096.192-.24.381-.432.567s-.439.34-.741.462-.663.184-1.084.184zm.323-1.193c.411 0 .763-.081 1.054-.244s.519-.374.671-.636.234-.548.234-.85v-.984c-.053.053-.156.102-.308.149a4.79 4.79 0 0 1-.512.114l-.562.085-.457.059a3.73 3.73 0 0 0-.791.184c-.235.086-.424.211-.567.373s-.208.371-.208.636c0 .368.135.647.407.836s.618.278 1.039.278zm5.286 1.024v-7.636h1.486v7.636h-1.486zm.75-8.814c-.258 0-.48-.087-.666-.259a.84.84 0 0 1-.273-.626.83.83 0 0 1 .273-.627.94.94 0 0 1 .666-.263.92.92 0 0 1 .661.263c.186.173.279.381.279.627s-.093.45-.279.626-.402.259-.661.259zm4.082-1.368v10.182h-1.486v-10.182h1.486z" class="D"/><path d="M259.206 454.784v-10.182h1.844v4.311h4.718v-4.311h1.85v10.182h-1.85v-4.325h-4.718v4.325h-1.844zm13.579.149c-.766 0-1.427-.159-1.984-.477s-.979-.776-1.277-1.362-.448-1.284-.448-2.083c0-.786.149-1.475.448-2.068s.722-1.061 1.262-1.392 1.175-.503 1.904-.503a3.87 3.87 0 0 1 1.333.229 3 3 0 0 1 1.113.696c.325.315.581.716.766 1.203s.279 1.061.279 1.73v.552h-6.26v-1.213h4.534c-.003-.345-.078-.651-.223-.92s-.35-.485-.612-.641-.56-.234-.905-.234a1.75 1.75 0 0 0-.969.269c-.279.176-.496.408-.651.696a1.99 1.99 0 0 0-.234.939v1.059c0 .445.081.826.244 1.144s.389.557.681.726.633.248 1.024.248c.262 0 .499-.036.711-.109s.396-.187.552-.333.273-.327.353-.542l1.68.189a2.61 2.61 0 0 1-.607 1.163c-.295.328-.672.584-1.133.766s-.988.268-1.581.268zm6.578-10.331v10.182h-1.8v-10.182h1.8zm3.51 0v10.182h-1.8v-10.182h1.8zm5.042 10.331c-.746 0-1.392-.164-1.939-.492s-.971-.787-1.273-1.377-.447-1.279-.447-2.068.149-1.48.447-2.073.726-1.054 1.273-1.382 1.193-.493 1.939-.493 1.392.164 1.939.493.969.788 1.267 1.382.453 1.284.453 2.073-.151 1.478-.453 2.068-.72 1.049-1.267 1.377-1.193.492-1.939.492zm.01-1.441c.404 0 .742-.111 1.014-.334a2.01 2.01 0 0 0 .607-.904c.135-.378.203-.799.203-1.263s-.068-.89-.203-1.268-.335-.684-.607-.91-.61-.338-1.014-.338c-.415 0-.759.113-1.034.338s-.476.529-.612.91a3.83 3.83 0 0 0-.199 1.268c0 .464.067.885.199 1.263s.34.679.612.904.619.334 1.034.334zm8.986 3.455v-12.633h3.594v1.382h-1.864v9.874h1.864v1.377h-3.594zm8.621-9.799v1.392h-4.514v-1.392h4.514zm-3.386 7.636v-8.357c0-.514.106-.941.318-1.283a2.02 2.02 0 0 1 .865-.765 2.81 2.81 0 0 1 1.203-.254c.312 0 .589.025.831.075l.537.134-.358 1.392a3.56 3.56 0 0 0-.289-.07c-.116-.026-.245-.039-.387-.039-.335 0-.572.081-.711.243s-.204.388-.204.686v8.238h-1.805zm10.093 0v1.437h-6.578v-1.437h6.578zm3.208-4.474v4.474h-1.799v-7.636h1.72v1.297h.089a2.19 2.19 0 0 1 .84-1.019c.388-.252.867-.378 1.437-.378.527 0 .986.113 1.377.338s.7.552.915.98.327.946.323 1.556v4.862h-1.799V450.2c0-.51-.133-.909-.398-1.198s-.625-.432-1.089-.432c-.315 0-.595.069-.84.208a1.45 1.45 0 0 0-.572.592c-.136.259-.204.572-.204.94zm8.789 4.628c-.484 0-.92-.086-1.307-.258s-.69-.434-.915-.776-.333-.762-.333-1.263c0-.43.079-.787.238-1.068s.377-.508.652-.677.585-.296.929-.382a7.39 7.39 0 0 1 1.079-.194l1.089-.125c.278-.039.481-.099.607-.179a.42.42 0 0 0 .193-.382v-.03c0-.375-.111-.665-.333-.87s-.542-.308-.959-.308c-.441 0-.791.096-1.049.288s-.428.419-.517.681l-1.681-.239c.133-.464.352-.851.657-1.163s.677-.55 1.118-.706.928-.239 1.462-.239a4.72 4.72 0 0 1 1.099.13 3.09 3.09 0 0 1 .999.427c.302.196.543.463.726.801s.278.76.278 1.267v5.111h-1.73v-1.049h-.06c-.109.212-.263.411-.462.597s-.442.33-.741.442a2.97 2.97 0 0 1-1.039.164zm.468-1.322c.361 0 .674-.071.939-.214s.469-.338.612-.577.218-.498.218-.78v-.9c-.056.046-.152.089-.288.129a4.06 4.06 0 0 1-.447.105l-.493.079-.422.06c-.269.036-.509.096-.721.179s-.38.199-.502.348-.184.335-.184.567c0 .331.121.581.363.75s.55.254.925.254zm5.234 1.168v-7.636h1.72v1.297h.089c.16-.437.423-.778.791-1.024s.807-.373 1.317-.373c.517 0 .953.126 1.308.378a1.98 1.98 0 0 1 .756 1.019h.079c.169-.424.454-.762.855-1.014s.884-.383 1.437-.383c.703 0 1.276.222 1.72.667s.666 1.092.666 1.943v5.126h-1.804v-4.847c0-.474-.126-.82-.378-1.039s-.56-.333-.925-.333c-.434 0-.774.136-1.019.407s-.363.619-.363 1.049v4.763h-1.765v-4.922c0-.394-.119-.709-.358-.944s-.543-.353-.924-.353a1.3 1.3 0 0 0-.706.199c-.213.129-.382.313-.508.551s-.188.511-.188.826v4.643h-1.8zm15.805.149c-.766 0-1.427-.159-1.984-.477s-.979-.776-1.277-1.362-.448-1.284-.448-2.083c0-.786.149-1.475.448-2.068s.722-1.061 1.262-1.392 1.175-.503 1.905-.503c.47 0 .914.077 1.332.229s.792.381 1.114.696.58.716.765 1.203.279 1.061.279 1.73v.552h-6.26v-1.213h4.534c-.003-.345-.077-.651-.223-.92s-.35-.485-.612-.641-.56-.234-.905-.234a1.75 1.75 0 0 0-.969.269 1.85 1.85 0 0 0-.651.696 1.99 1.99 0 0 0-.234.939v1.059c0 .445.081.826.244 1.144s.389.557.681.726.633.248 1.024.248c.262 0 .499-.036.711-.109s.396-.187.552-.333.273-.327.353-.542l1.68.189a2.61 2.61 0 0 1-.607 1.163c-.295.328-.672.584-1.133.766s-.988.268-1.581.268zm7.821-10.619v12.633h-3.595v-1.377h1.865v-9.874h-1.865v-1.382h3.595zm4.44 9.078l-.065.547c-.046.418-.129.842-.248 1.273l-.368 1.198-.314.86h-1.213l.189-.825.239-1.174a11.55 11.55 0 0 0 .154-1.322l.035-.557h1.591zm7.116 1.392l-2.873-10.182h1.983l1.835 7.483h.094l1.959-7.483h1.805l1.964 7.488h.089l1.835-7.488h1.983l-2.873 10.182h-1.82l-2.038-7.144h-.08l-2.043 7.144h-1.82zm14.335.149c-.766 0-1.427-.159-1.984-.477s-.979-.776-1.277-1.362-.448-1.284-.448-2.083c0-.786.149-1.475.448-2.068a3.37 3.37 0 0 1 1.263-1.392c.54-.335 1.174-.503 1.904-.503.47 0 .914.077 1.332.229s.792.381 1.114.696.58.716.765 1.203.279 1.061.279 1.73v.552h-6.26v-1.213h4.535c-.004-.345-.078-.651-.224-.92s-.35-.485-.612-.641-.56-.234-.905-.234c-.367 0-.691.09-.969.269a1.86 1.86 0 0 0-.651.696 1.99 1.99 0 0 0-.234.939v1.059c0 .445.081.826.244 1.144s.389.557.681.726.633.248 1.024.248c.262 0 .499-.036.711-.109s.396-.187.552-.333.273-.327.353-.542l1.68.189a2.62 2.62 0 0 1-.606 1.163c-.295.328-.673.584-1.134.766s-.988.268-1.581.268zm6.305-10.331v1.015a2.69 2.69 0 0 1-.17.909 3.9 3.9 0 0 1-.452.895 3.45 3.45 0 0 1-.656.726l-.835-.542c.182-.275.341-.572.477-.89s.204-.684.204-1.088v-1.025h1.432zm8.436 2.546l-2.72 7.636h-1.989l-2.719-7.636h1.919l1.755 5.672h.08l1.759-5.672h1.915zm4.226 7.785c-.766 0-1.427-.159-1.984-.477a3.24 3.24 0 0 1-1.278-1.362c-.298-.59-.447-1.284-.447-2.083 0-.786.149-1.475.447-2.068s.723-1.061 1.263-1.392 1.175-.503 1.904-.503a3.87 3.87 0 0 1 1.333.229 3 3 0 0 1 1.113.696c.325.315.58.716.766 1.203s.278 1.061.278 1.73v.552h-6.259v-1.213h4.534c-.003-.345-.078-.651-.223-.92s-.35-.485-.612-.641-.56-.234-.905-.234a1.75 1.75 0 0 0-.969.269c-.279.176-.496.408-.652.696s-.23.598-.233.939v1.059c0 .445.081.826.243 1.144a1.74 1.74 0 0 0 .682.726c.291.165.633.248 1.024.248a2.18 2.18 0 0 0 .711-.109 1.56 1.56 0 0 0 .551-.333c.156-.146.274-.327.353-.542l1.681.189a2.61 2.61 0 0 1-.607 1.163 2.96 2.96 0 0 1-1.133.766c-.461.179-.988.268-1.581.268zm8.111-.149v-7.636h1.72v1.297h.089a2.03 2.03 0 0 1 .791-1.024c.368-.248.807-.373 1.317-.373.517 0 .953.126 1.308.378s.61.589.755 1.019h.08c.169-.424.454-.762.855-1.014s.883-.383 1.437-.383c.703 0 1.276.222 1.72.667s.666 1.092.666 1.943v5.126h-1.804v-4.847c0-.474-.126-.82-.378-1.039s-.56-.333-.925-.333c-.434 0-.774.136-1.019.407s-.363.619-.363 1.049v4.763h-1.765v-4.922c0-.394-.119-.709-.358-.944s-.544-.353-.925-.353c-.258 0-.494.066-.706.199s-.381.313-.507.551-.189.511-.189.826v4.643h-1.799zm12.424 0v-7.636h1.8v7.636h-1.8zm.905-8.72a1.05 1.05 0 0 1-.736-.283c-.205-.193-.308-.423-.308-.691s.103-.503.308-.691a1.04 1.04 0 0 1 .736-.289c.288 0 .534.096.736.289s.308.419.308.691-.103.498-.308.691-.448.283-.736.283zm8.641 3.102l-1.641.179c-.046-.165-.127-.321-.243-.467s-.265-.264-.458-.353-.427-.134-.706-.134c-.374 0-.689.081-.944.243s-.376.373-.373.632a.66.66 0 0 0 .244.542c.169.139.447.253.835.343l1.302.278c.723.156 1.26.403 1.611.741s.534.78.537 1.327a2.07 2.07 0 0 1-.423 1.273c-.275.365-.657.65-1.148.855s-1.054.308-1.69.308c-.935 0-1.687-.195-2.257-.586s-.91-.943-1.02-1.646l1.755-.169c.08.345.249.605.507.781s.595.263 1.01.263c.427 0 .77-.088 1.029-.263s.393-.393.393-.652a.68.68 0 0 0-.254-.542c-.166-.142-.424-.251-.776-.328l-1.302-.273c-.733-.153-1.274-.409-1.626-.771s-.525-.825-.522-1.382c-.003-.47.124-.878.383-1.223s.625-.616 1.089-.805 1.006-.289 1.616-.289c.894 0 1.599.191 2.112.572s.837.897.96 1.546zm7.544 0l-1.641.179a1.32 1.32 0 0 0-.244-.467c-.112-.146-.265-.264-.457-.353s-.428-.134-.706-.134c-.375 0-.689.081-.945.243s-.376.373-.372.632a.66.66 0 0 0 .243.542c.169.139.448.253.835.343l1.303.278c.722.156 1.259.403 1.611.741s.533.78.537 1.327c-.004.481-.145.905-.423 1.273s-.658.65-1.148.855-1.054.308-1.691.308c-.934 0-1.687-.195-2.257-.586s-.91-.943-1.019-1.646l1.755-.169c.079.345.249.605.507.781s.595.263 1.009.263c.428 0 .771-.088 1.029-.263s.393-.393.393-.652a.68.68 0 0 0-.253-.542c-.166-.142-.425-.251-.776-.328l-1.303-.273c-.732-.153-1.274-.409-1.625-.771s-.526-.825-.522-1.382c-.004-.47.124-.878.383-1.223s.624-.616 1.088-.805 1.006-.289 1.616-.289c.895 0 1.599.191 2.113.572s.837.897.96 1.546zm4.888 5.767c-.765 0-1.427-.159-1.983-.477s-.98-.776-1.278-1.362-.447-1.284-.447-2.083c0-.786.149-1.475.447-2.068s.723-1.061 1.263-1.392 1.175-.503 1.904-.503a3.86 3.86 0 0 1 1.332.229c.421.149.792.381 1.114.696s.58.716.766 1.203.278 1.061.278 1.73v.552h-6.259v-1.213h4.534c-.004-.345-.078-.651-.224-.92a1.64 1.64 0 0 0-.611-.641 1.72 1.72 0 0 0-.905-.234c-.368 0-.691.09-.97.269a1.86 1.86 0 0 0-.651.696c-.152.285-.23.598-.234.939v1.059c0 .445.082.826.244 1.144s.389.557.681.726.633.248 1.024.248c.262 0 .499-.036.711-.109s.396-.187.552-.333.273-.327.353-.542l1.68.189a2.62 2.62 0 0 1-.606 1.163c-.295.328-.673.584-1.134.766s-.987.268-1.581.268zm7.612-.015c-.6 0-1.137-.154-1.611-.462s-.848-.756-1.123-1.342-.413-1.3-.413-2.138c0-.849.139-1.564.418-2.148s.661-1.029 1.138-1.327 1.01-.453 1.596-.453c.448 0 .816.077 1.104.229s.517.33.686.542.3.406.393.592h.074v-3.809h1.805v10.182h-1.77v-1.203h-.109c-.093.186-.227.383-.403.592s-.408.381-.696.527-.651.218-1.089.218zm.502-1.476c.382 0 .706-.103.975-.308a1.93 1.93 0 0 0 .611-.87c.14-.372.209-.804.209-1.298s-.069-.923-.209-1.288-.338-.648-.606-.85-.592-.303-.98-.303c-.401 0-.735.104-1.004.313a1.9 1.9 0 0 0-.606.865c-.136.368-.204.789-.204 1.263s.068.903.204 1.278.343.664.611.88.605.318.999.318zm9.794 4.206c-.245 0-.472-.02-.681-.06a2.45 2.45 0 0 1-.492-.129l.417-1.402c.262.076.496.113.701.109s.387-.068.542-.194.294-.328.403-.616l.154-.413-2.769-7.795h1.909l1.76 5.767h.08l1.764-5.767h1.915l-3.058 8.561c-.143.404-.331.751-.567 1.039s-.523.514-.865.666-.742.234-1.213.234zm9.879-2.715c-.746 0-1.392-.164-1.939-.492s-.971-.787-1.273-1.377-.447-1.279-.447-2.068.149-1.48.447-2.073.726-1.054 1.273-1.382 1.193-.493 1.939-.493 1.392.164 1.939.493a3.3 3.3 0 0 1 1.268 1.382c.301.593.452 1.284.452 2.073s-.151 1.478-.452 2.068-.721 1.049-1.268 1.377-1.193.492-1.939.492zm.01-1.441c.404 0 .742-.111 1.014-.334a2.01 2.01 0 0 0 .607-.904 3.71 3.71 0 0 0 .204-1.263c0-.467-.068-.89-.204-1.268s-.335-.684-.607-.91-.61-.338-1.014-.338c-.414 0-.759.113-1.034.338s-.476.529-.612.91a3.83 3.83 0 0 0-.198 1.268c0 .464.066.885.198 1.263s.34.679.612.904.62.334 1.034.334zm9.904-1.919v-4.425h1.8v7.636h-1.745v-1.357h-.08a2.3 2.3 0 0 1-.85 1.049c-.391.272-.873.408-1.447.408-.5 0-.943-.111-1.327-.333s-.68-.552-.895-.98-.323-.951-.323-1.561v-4.862h1.799v4.584c0 .484.133.868.398 1.153s.613.428 1.044.428c.265 0 .522-.065.771-.194s.452-.322.611-.577.244-.582.244-.969zm5.713-6.971l-.164 7.189h-1.601l-.159-7.189h1.924zm-.965 10.292c-.301 0-.56-.107-.775-.319s-.319-.47-.319-.775c0-.298.107-.554.319-.766s.474-.318.775-.318c.295 0 .55.106.766.318s.328.468.328.766c0 .202-.051.386-.154.552s-.232.298-.398.397-.343.145-.542.145zm5.145-10.292l-.164 7.189h-1.601l-.159-7.189h1.924zm-.964 10.292c-.302 0-.561-.107-.776-.319s-.318-.47-.318-.775c0-.298.106-.554.318-.766s.474-.318.776-.318a1.05 1.05 0 0 1 .765.318c.219.212.328.468.328.766 0 .202-.051.386-.154.552a1.14 1.14 0 0 1-.398.397c-.162.096-.343.145-.541.145z" class="E"/><rect x="111.25" y="410.284" width="56" height="56" rx="6" fill="#f1eaff"/><g clip-path="url(#D)"><path d="M141.231 447.667c0 1.35-4.889 1.35-4.889 0v-6.111c0-1.35 1.094-2.445 2.444-2.445s2.445 1.095 2.445 2.445v6.111z" fill="#c1694f"/><path d="M133.898 429.333a4.89 4.89 0 0 0-4.889 4.889v7.333h9.778v-7.333a4.89 4.89 0 0 0-4.889-4.889z" fill="#292f33"/><path d="M140.008 438.965c0 .756-.65 1.369-1.401 1.369h-9.42c-.751 0-1.401-.613-1.401-1.369v-6.43c0-.755.65-1.368 1.401-1.368h9.42c.751 0 1.401.613 1.401 1.368v6.43h0z" fill="#ccd6dd"/><path d="M140.008 432.535c0-.755-.65-1.368-1.401-1.368h-9.42c-.751 0-1.401.613-1.401 1.368v.867l2.982 2.997-2.921 2.937c.068.23.193.438.364.601l3.038-3.054 1.471 1.478c.643.648 1.692.648 2.335 0l1.483-1.486 3.046 3.062c.171-.164.295-.372.364-.601l-2.929-2.944 2.989-2.997v-.86z" fill="#99aab5"/><path d="M138.608 431.167h-9.42c-.713 0-1.327.554-1.389 1.256l5.138 5.131c.531.534 1.392.514 1.922-.021l5.139-5.1c-.057-.707-.675-1.266-1.39-1.266z" fill="#e1e8ed"/><path d="M143.675 429.333h-9.778a4.89 4.89 0 0 1 4.889 4.889v7.333h9.778v-7.333a4.89 4.89 0 0 0-4.889-4.889z" fill="#99aab5"/><path d="M143.675 428.111h-2.444c-.675 0-1.222.548-1.222 1.223v7.333a1.22 1.22 0 1 0 2.444 0v-4.889h1.222c.675 0 1.223-.548 1.223-1.222v-1.222c0-.675-.548-1.223-1.223-1.223z" class="I"/></g><rect x="-1" y="1" width="421" height="84" rx="7" transform="matrix(-1 0 0 1 519 395.034)" stroke="#e1e8f2" class="K L"/><rect x="-2" y="2" width="447" height="108" rx="6" transform="matrix(-1 0 0 1 531 382.034)" class="C F"/><g class="E"><rect x="312.914" y="324.46" width="6" height="6" rx="3"/><path d="M316.26 373.434a.4.4 0 0 1-.692 0l-2.772-4.8a.4.4 0 0 1 .347-.6h5.542a.4.4 0 0 1 .347.6l-2.772 4.8z"/></g><path d="M315.963 330.034v40" class="C K"/><defs><clipPath id="A"><path transform="translate(120.258 147.91)" d="M0 0h22v22H0z" class="B"/></clipPath><clipPath id="B"><path transform="translate(130.869 237.384)" d="M0 0h15v15H0z" class="B"/></clipPath><clipPath id="C"><path transform="translate(131 198.384)" d="M0 0h15v15H0z" class="B"/></clipPath><clipPath id="D"><path transform="translate(127.786 427.5)" d="M0 0h22v22H0z" class="B"/></clipPath><path id="E" d="M355.621 511.034l10.182-13.817 13.818-10.183-13.818-10.182-10.182-13.818-10.182 13.818-13.818 10.182 13.818 10.183 10.182 13.817z"/><path id="F" d="M134.827 241.967a1.46 1.46 0 0 0 1.459-1.458 1.46 1.46 0 0 0-1.459-1.458 1.46 1.46 0 0 0-1.458 1.458 1.46 1.46 0 0 0 1.458 1.458z"/><path id="G" d="M140.035 240.3c.461 0 .834-.373.834-.833s-.373-.833-.834-.833-.833.373-.833.833.373.833.833.833z"/><path id="H" d="M132.119 245.3c.23 0 .416-.186.416-.417s-.186-.416-.416-.416-.417.186-.417.416.187.417.417.417z"/><path id="I" d="M141.625 202.967c.345 0 .625-.28.625-.625s-.28-.625-.625-.625-.625.28-.625.625.28.625.625.625z"/></defs></svg>