<svg width="608" height="560" viewBox="0 0 608 560" fill="none" xmlns="http://www.w3.org/2000/svg">
<path d="M559.504 -31.5557L559.504 47.0839M559.504 591.557L559.504 311.247M559.504 245.505L559.504 97.2869" stroke="#97969C" stroke-dasharray="4 4"/>
<path d="M457.312 -31.1787L457.313 370.867M457.313 591.382L457.313 395.539" stroke="#97969C" stroke-dasharray="4 4"/>
<path d="M355.621 -31.3682L355.621 133.425M355.621 591.379L355.621 510.133M355.621 216.14L355.621 460.535" stroke="#97969C" stroke-dasharray="4 4"/>
<path d="M252.93 -31.1787L252.93 59.5647M252.93 591.375L252.93 83.8671" stroke="#97969C" stroke-dasharray="4 4"/>
<path d="M150.739 -31.3662L150.738 342.326M150.738 591.383L150.738 425.4" stroke="#97969C" stroke-dasharray="4 4"/>
<path d="M48.547 -31.5576L48.5469 152.27M48.5469 591.372L48.5469 288.354M48.5469 198.289L48.5469 271.121" stroke="#97969C" stroke-dasharray="4 4"/>
<path d="M0 487.054L330.227 487.054M608 487.054L379.607 487.054" stroke="#97969C" stroke-dasharray="4 4"/>
<path d="M0 383.261H112.263M608 383.261L469.346 383.261M190.468 383.261H444.674" stroke="#97969C" stroke-dasharray="4 4"/>
<path d="M0 175.675H25.6723M608 175.675L396.708 175.675M316 175.675L73.3582 175.675" stroke="#97969C" stroke-dasharray="4 4"/>
<path d="M0 279.468H39.4795M608 279.468H592.678M527.354 279.468L57.1204 279.468" stroke="#97969C" stroke-dasharray="4 4"/>
<path d="M0 71.8818L239.558 71.8818M608 71.8818H582.879M534.54 71.8818L265.522 71.8818" stroke="#97969C" stroke-dasharray="4 4"/>
<path d="M355.621 511.034L365.803 497.217L379.621 487.034L365.803 476.852L355.621 463.034L345.439 476.852L331.621 487.034L345.439 497.217L355.621 511.034Z" stroke="#97969C" stroke-dasharray="4 4"/>
<path d="M559.48 95.7998L569.663 81.9821L583.48 71.7998L569.663 61.6175L559.48 47.7998L549.298 61.6175L535.48 71.7998L549.298 81.9821L559.48 95.7998Z" stroke="#97969C" stroke-dasharray="4 4"/>
<path d="M48.6016 199.53L58.7839 185.713L72.6016 175.53L58.7839 165.348L48.6016 151.53L38.4192 165.348L24.6016 175.53L38.4192 185.713L48.6016 199.53Z" stroke="#97969C" stroke-dasharray="4 4"/>
<path d="M559.469 311.384L573.045 292.96L591.469 279.384L573.045 265.807L559.469 247.384L545.892 265.807L527.469 279.384L545.892 292.96L559.469 311.384Z" stroke="#97969C" stroke-dasharray="4 4"/>
<path d="M150.754 423.29L167.724 400.261L190.754 383.29L167.724 366.319L150.754 343.29L133.783 366.319L110.754 383.29L133.783 400.261L150.754 423.29Z" stroke="#97969C" stroke-dasharray="4 4"/>
<path d="M355.621 215.681L372.592 192.651L395.621 175.681L372.592 158.71L355.621 135.681L338.651 158.71L315.621 175.681L338.651 192.651L355.621 215.681Z" stroke="#97969C" stroke-dasharray="4 4"/>
<circle r="12" transform="matrix(1 0 0 -1 457.246 383.261)" stroke="#97969C" stroke-dasharray="4 4"/>
<circle r="8" transform="matrix(1 0 0 -1 48.5469 279.468)" stroke="#97969C" stroke-dasharray="4 4"/>
<circle r="12" transform="matrix(1 0 0 -1 252.598 71.8818)" stroke="#97969C" stroke-dasharray="4 4"/>
<rect x="-2" y="2" width="442" height="151" rx="6" transform="matrix(-1 0 0 1 543 65.4043)" fill="#121212"/>
<rect x="-2" y="2" width="442" height="151" rx="6" transform="matrix(-1 0 0 1 543 65.4043)" stroke="#121212" stroke-width="4"/>
<rect x="-2" y="2" width="447" height="144" rx="6" transform="matrix(-1 0 0 1 531 60.4043)" fill="#F5F6F8"/>
<rect x="98.5" y="76.7998" width="422" height="38" rx="4" fill="white"/>
<rect x="115.5" y="90.7998" width="10" height="10" rx="5" fill="#EB5757"/>
<rect x="133.5" y="90.7998" width="10" height="10" rx="5" fill="#F2C94C"/>
<rect x="151.5" y="90.7998" width="10" height="10" rx="5" fill="#27AE60"/>
<path d="M494.938 89.7998C494.938 89.2475 494.49 88.7998 493.938 88.7998C493.385 88.7998 492.938 89.2475 492.938 89.7998H494.938ZM492.938 101.8C492.938 102.352 493.385 102.8 493.938 102.8C494.49 102.8 494.938 102.352 494.938 101.8H492.938ZM492.938 89.7998V101.8H494.938V89.7998H492.938Z" fill="#E7EDF5"/>
<path d="M499.937 96.7998C500.49 96.7998 500.937 96.3521 500.938 95.7998C500.938 95.2475 500.49 94.7998 499.938 94.7998L499.937 96.7998ZM487.938 94.7998C487.385 94.7998 486.938 95.2475 486.938 95.7998C486.937 96.3521 487.385 96.7998 487.937 96.7998L487.938 94.7998ZM499.938 94.7998L487.938 94.7998L487.937 96.7998L499.937 96.7998L499.938 94.7998Z" fill="#E7EDF5"/>
<rect x="-1" y="1" width="419" height="61" rx="7" transform="matrix(-1 0 0 1 518 126.404)" fill="#F5F6F8"/>
<path d="M138.546 163.904V158.198L138.51 156.344H138.69L139.86 158.198L143.604 163.904H146.484V151.844H143.784V157.892L143.82 159.512H143.64L142.632 157.892L138.726 151.844H135.846V163.904H138.546ZM152.744 164.084C155.336 164.084 156.992 162.95 156.992 161.024V160.844H154.328V160.952C154.328 161.51 153.86 161.744 152.78 161.744C151.304 161.744 150.8 161.24 150.746 159.98H156.956C157.01 159.674 157.082 159.152 157.082 158.648C157.082 156.29 155.48 154.67 152.762 154.67C149.936 154.67 148.208 156.506 148.208 159.404C148.208 162.266 149.63 164.084 152.744 164.084ZM152.672 156.884C153.932 156.884 154.544 157.406 154.49 158.342H150.764C150.872 157.388 151.376 156.884 152.672 156.884ZM163.497 163.904L164.685 159.602L165.135 157.226H165.333L165.783 159.602L166.953 163.904H170.481L172.587 154.85H169.743L169.113 159.044L168.789 161.744H168.609L168.123 159.044L167.007 154.85H163.569L162.471 159.026L161.967 161.744H161.769L161.427 159.026L160.833 154.85H157.863L159.969 163.904H163.497ZM180.568 164.084C182.242 164.084 183.16 163.346 183.646 162.68H183.754V163.904H186.256V158.54C186.256 156.128 184.852 154.67 182.188 154.67C179.632 154.67 177.958 156.092 177.958 158.252V158.45H180.532V158.252C180.532 157.334 180.964 157.028 182.062 157.028C183.124 157.028 183.7 157.226 183.7 158.288V158.576L180.604 159.044C178.732 159.332 177.724 160.196 177.724 161.6C177.724 163.238 178.966 164.084 180.568 164.084ZM180.298 161.384C180.298 161.006 180.55 160.826 181.108 160.736L183.7 160.34C183.7 161.744 182.566 162.032 181.468 162.032C180.676 162.032 180.298 161.87 180.298 161.384ZM191.709 164.084C193.293 164.084 194.247 163.364 194.751 162.32H194.841V163.904H197.343V154.85H194.661V159.98C194.661 161.348 194.103 161.762 192.807 161.762C191.457 161.762 191.025 161.312 191.025 160.052V154.85H188.343V160.592C188.343 162.518 189.333 164.084 191.709 164.084ZM203.642 163.94C204.272 163.94 204.974 163.85 205.406 163.76V161.51H204.29C203.12 161.51 202.85 161.42 202.85 160.628V157.082H205.406V154.85H202.85V152.744H200.726L200.222 154.85H198.71V157.082H200.15V160.934C200.15 163.076 201.284 163.94 203.642 163.94ZM211.27 164.084C214.168 164.084 215.86 162.248 215.86 159.386C215.86 156.506 214.168 154.67 211.27 154.67C208.354 154.67 206.626 156.506 206.626 159.386C206.626 162.248 208.354 164.084 211.27 164.084ZM211.27 161.708C209.794 161.708 209.29 161.132 209.29 159.386C209.29 157.622 209.794 157.046 211.27 157.046C212.728 157.046 213.232 157.622 213.232 159.386C213.232 161.132 212.728 161.708 211.27 161.708ZM220.314 163.904V158.666C220.314 157.388 220.854 156.992 222.078 156.992C223.374 156.992 223.77 157.442 223.77 158.702V163.904H226.47V158.702C226.47 157.388 226.992 156.992 228.216 156.992C229.53 156.992 229.908 157.442 229.908 158.702V163.904H232.608V158.162C232.608 156.236 231.654 154.67 229.314 154.67C227.64 154.67 226.74 155.444 226.236 156.434H226.146C225.696 155.372 224.76 154.67 223.212 154.67C221.664 154.67 220.728 155.408 220.242 156.434H220.134V154.85H217.632V163.904H220.314ZM237.215 164.084C238.889 164.084 239.807 163.346 240.293 162.68H240.401V163.904H242.903V158.54C242.903 156.128 241.499 154.67 238.835 154.67C236.279 154.67 234.605 156.092 234.605 158.252V158.45H237.179V158.252C237.179 157.334 237.611 157.028 238.709 157.028C239.771 157.028 240.347 157.226 240.347 158.288V158.576L237.251 159.044C235.379 159.332 234.371 160.196 234.371 161.6C234.371 163.238 235.613 164.084 237.215 164.084ZM236.945 161.384C236.945 161.006 237.197 160.826 237.755 160.736L240.347 160.34C240.347 161.744 239.213 162.032 238.115 162.032C237.323 162.032 236.945 161.87 236.945 161.384ZM249.15 163.94C249.78 163.94 250.482 163.85 250.914 163.76V161.51H249.798C248.628 161.51 248.358 161.42 248.358 160.628V157.082H250.914V154.85H248.358V152.744H246.234L245.73 154.85H244.218V157.082H245.658V160.934C245.658 163.076 246.792 163.94 249.15 163.94ZM255.206 153.824V151.844H252.524L252.56 153.824H255.206ZM255.26 163.904V154.85H252.56V163.904H255.26ZM261.519 164.084C264.417 164.084 266.109 162.248 266.109 159.386C266.109 156.506 264.417 154.67 261.519 154.67C258.603 154.67 256.875 156.506 256.875 159.386C256.875 162.248 258.603 164.084 261.519 164.084ZM261.519 161.708C260.043 161.708 259.539 161.132 259.539 159.386C259.539 157.622 260.043 157.046 261.519 157.046C262.977 157.046 263.481 157.622 263.481 159.386C263.481 161.132 262.977 161.708 261.519 161.708ZM270.563 163.904V158.774C270.563 157.406 271.121 156.992 272.417 156.992C273.785 156.992 274.199 157.442 274.199 158.702V163.904H276.899V158.162C276.899 156.236 275.891 154.67 273.533 154.67C271.949 154.67 270.977 155.408 270.491 156.434H270.383V154.85H267.881V163.904H270.563ZM286.247 163.904V157.082H288.263V154.85H286.139V154.688C286.139 154.076 286.463 153.86 287.147 153.86H288.263V151.844C287.975 151.808 287.705 151.808 287.417 151.808C285.005 151.808 283.727 152.942 283.565 154.85H282.233V157.082H283.547V163.904H286.247ZM291.971 163.904V151.844H289.289V163.904H291.971ZM298.413 164.084C301.311 164.084 303.003 162.248 303.003 159.386C303.003 156.506 301.311 154.67 298.413 154.67C295.497 154.67 293.769 156.506 293.769 159.386C293.769 162.248 295.497 164.084 298.413 164.084ZM298.413 161.708C296.937 161.708 296.433 161.132 296.433 159.386C296.433 157.622 296.937 157.046 298.413 157.046C299.871 157.046 300.375 157.622 300.375 159.386C300.375 161.132 299.871 161.708 298.413 161.708ZM309.356 163.904L310.544 159.602L310.994 157.226H311.192L311.642 159.602L312.812 163.904H316.34L318.446 154.85H315.602L314.972 159.044L314.648 161.744H314.468L313.982 159.044L312.866 154.85H309.428L308.33 159.026L307.826 161.744H307.628L307.286 159.026L306.692 154.85H303.722L305.828 163.904H309.356Z" fill="black"/>
<g clip-path="url(#clip0_351_7052)">
<path d="M129.167 167.682V168.905H127.321V167.682C127.321 166.67 126.494 165.849 125.475 165.849V164.016C127.514 164.016 129.167 165.658 129.167 167.682Z" fill="#C6D5DB"/>
<path d="M125.833 165.238C125.728 165.238 125.627 165.254 125.525 165.269V165.854C126.52 165.881 127.32 166.687 127.32 167.682V168.905H127.987V167.377C127.987 166.195 127.023 165.238 125.833 165.238ZM121.833 167.682V168.905H123.679V167.682C123.679 166.67 124.506 165.849 125.525 165.849V164.016C123.486 164.016 121.833 165.658 121.833 167.682Z" fill="#E1E8ED"/>
<path d="M125.218 165.238C125.323 165.238 125.424 165.254 125.525 165.269V165.854C124.53 165.881 123.73 166.687 123.73 167.682V168.904H123.063V167.377C123.064 166.195 124.028 165.238 125.218 165.238ZM129.167 148.127V146.904H127.32V148.127C127.32 149.139 126.494 149.96 125.474 149.96V151.793C127.513 151.793 129.167 150.151 129.167 148.127Z" fill="#C6D5DB"/>
<path d="M125.833 150.571C125.728 150.571 125.627 150.555 125.525 150.54V149.955C126.52 149.927 127.32 149.122 127.32 148.127V146.904H127.987V148.432C127.987 149.613 127.022 150.571 125.833 150.571ZM121.833 148.127V146.904H123.679V148.127C123.679 149.139 124.506 149.96 125.525 149.96V151.793C123.486 151.793 121.833 150.151 121.833 148.127Z" fill="#E1E8ED"/>
<path d="M125.218 150.571C125.323 150.571 125.424 150.555 125.525 150.54V149.955C124.531 149.927 123.731 149.122 123.731 148.127V146.904H123.064V148.432C123.064 149.613 124.029 150.571 125.218 150.571ZM125.475 153.015V154.849C126.494 154.849 127.321 155.669 127.321 156.682V159.127C127.321 160.139 126.494 160.96 125.475 160.96V162.793C127.514 162.793 129.167 161.151 129.167 159.127V156.682C129.167 154.657 127.514 153.015 125.475 153.015Z" fill="#C6D5DB"/>
<path d="M125.833 154.237C125.728 154.237 125.627 154.253 125.525 154.268V154.853C126.52 154.881 127.32 155.686 127.32 156.682V159.126C127.32 160.122 126.52 160.927 125.525 160.955V161.539C125.627 161.555 125.728 161.571 125.833 161.571C127.023 161.571 127.987 160.613 127.987 159.432V156.376C127.988 155.195 127.023 154.237 125.833 154.237Z" fill="#E1E8ED"/>
<path d="M123.679 156.682C123.679 155.67 124.506 154.849 125.525 154.849V153.016C123.486 153.016 121.833 154.658 121.833 156.682V159.127C121.833 161.151 123.486 162.793 125.525 162.793V160.96C124.506 160.96 123.679 160.139 123.679 159.127V156.682Z" fill="#E1E8ED"/>
<path d="M125.218 154.237C124.029 154.237 123.064 155.195 123.064 156.376V159.432C123.064 160.613 124.029 161.571 125.218 161.571C125.323 161.571 125.424 161.555 125.525 161.539V160.955C124.53 160.927 123.73 160.122 123.73 159.126V156.682C123.73 155.686 124.53 154.881 125.525 154.853V154.268C125.424 154.253 125.324 154.237 125.218 154.237ZM114.475 158.515V160.348C115.494 160.348 116.321 161.169 116.321 162.182V164.626C116.321 165.639 115.494 166.46 114.475 166.46V168.293C116.514 168.293 118.167 166.651 118.167 164.626V162.182C118.167 160.157 116.514 158.515 114.475 158.515Z" fill="#C6D5DB"/>
<path d="M114.833 159.737C114.728 159.737 114.627 159.753 114.525 159.768V160.353C115.52 160.381 116.32 161.186 116.32 162.182V164.626C116.32 165.622 115.52 166.427 114.525 166.455V167.039C114.627 167.055 114.728 167.071 114.833 167.071C116.023 167.071 116.987 166.113 116.987 164.932V161.876C116.988 160.695 116.023 159.737 114.833 159.737Z" fill="#E1E8ED"/>
<path d="M112.679 162.182C112.679 161.17 113.506 160.349 114.525 160.349V158.516C112.486 158.516 110.833 160.158 110.833 162.182V164.627C110.833 166.651 112.486 168.293 114.525 168.293V166.46C113.506 166.46 112.679 165.639 112.679 164.627V162.182Z" fill="#E1E8ED"/>
<path d="M114.218 159.738C113.029 159.738 112.064 160.695 112.064 161.877V164.932C112.064 166.114 113.029 167.071 114.218 167.071C114.323 167.071 114.424 167.055 114.525 167.04V166.455C113.531 166.427 112.731 165.622 112.731 164.627V162.182C112.731 161.187 113.531 160.382 114.526 160.354V159.769C114.425 159.754 114.324 159.738 114.218 159.738ZM114.475 147.516V149.349C115.494 149.349 116.321 150.17 116.321 151.182V153.627C116.321 154.639 115.494 155.46 114.475 155.46V157.293C116.514 157.293 118.167 155.651 118.167 153.627V151.182C118.167 149.158 116.514 147.516 114.475 147.516Z" fill="#C6D5DB"/>
<path d="M114.833 148.738C114.728 148.738 114.627 148.754 114.525 148.769V149.354C115.52 149.382 116.32 150.187 116.32 151.182V153.627C116.32 154.622 115.52 155.427 114.525 155.455V156.04C114.627 156.055 114.728 156.071 114.833 156.071C116.022 156.071 116.986 155.114 116.986 153.932V150.877C116.987 149.695 116.023 148.738 114.833 148.738ZM112.679 151.182C112.679 150.17 113.506 149.349 114.525 149.349V147.516C112.486 147.516 110.833 149.158 110.833 151.182V153.627C110.833 155.651 112.486 157.293 114.525 157.293V155.46C113.506 155.46 112.679 154.639 112.679 153.627V151.182Z" fill="#E1E8ED"/>
<path d="M114.218 148.737C113.029 148.737 112.064 149.695 112.064 150.876V153.932C112.064 155.113 113.029 156.071 114.218 156.071C114.323 156.071 114.424 156.055 114.525 156.039V155.455C113.531 155.427 112.731 154.622 112.731 153.626V151.182C112.731 150.186 113.531 149.381 114.526 149.353V148.768C114.425 148.753 114.324 148.737 114.218 148.737ZM126.723 167.071C126.723 167.745 126.175 168.293 125.5 168.293C124.826 168.293 124.278 167.745 124.278 167.071V159.737C124.278 159.063 124.826 158.515 125.5 158.515C126.175 158.515 126.723 159.063 126.723 159.737V167.071Z" fill="#C6D5DB"/>
<path d="M124.277 159.738V167.071C124.277 167.746 124.825 168.293 125.5 168.293V158.516C124.825 158.516 124.277 159.063 124.277 159.738Z" fill="#EDF1F4"/>
<path d="M126.722 156.071C126.722 156.746 126.174 157.293 125.5 157.293C124.825 157.293 124.277 156.746 124.277 156.071V148.738C124.277 148.063 124.825 147.516 125.5 147.516C126.174 147.516 126.722 148.063 126.722 148.738V156.071Z" fill="#C6D5DB"/>
<path d="M124.277 148.738V156.071C124.277 156.746 124.825 157.293 125.5 157.293V147.516C124.825 147.516 124.277 148.063 124.277 148.738Z" fill="#EDF1F4"/>
<path d="M115.722 168.905H113.277V165.238C113.277 164.563 113.825 164.016 114.5 164.016C115.174 164.016 115.722 164.563 115.722 165.238V168.905Z" fill="#C6D5DB"/>
<path d="M114.5 164.016C113.825 164.016 113.277 164.563 113.277 165.238V168.905H114.5V164.016Z" fill="#EDF1F4"/>
<path d="M115.722 161.571C115.722 162.246 115.174 162.793 114.5 162.793C113.825 162.793 113.277 162.246 113.277 161.571V154.238C113.277 153.563 113.825 153.016 114.5 153.016C115.174 153.016 115.722 153.563 115.722 154.238V161.571Z" fill="#C6D5DB"/>
<path d="M113.277 154.238V161.571C113.277 162.246 113.825 162.793 114.5 162.793V153.016C113.825 153.016 113.277 153.563 113.277 154.238Z" fill="#EDF1F4"/>
<path d="M115.722 146.904H113.277V150.571C113.277 151.246 113.825 151.793 114.5 151.793C115.174 151.793 115.722 151.246 115.722 150.571V146.904Z" fill="#C6D5DB"/>
<path d="M114.5 151.793C113.825 151.793 113.277 151.246 113.277 150.571V146.904H114.5V151.793Z" fill="#EDF1F4"/>
</g>
<rect x="-1" y="1" width="419" height="61" rx="7" transform="matrix(-1 0 0 1 518 126.404)" stroke="#E1E8F2" stroke-width="2" stroke-dasharray="8 8"/>
<rect x="-2" y="2" width="447" height="144" rx="6" transform="matrix(-1 0 0 1 531 60.4043)" stroke="#121212" stroke-width="4"/>
<rect x="-2" y="2" width="442" height="112" rx="6" transform="matrix(-1 0 0 1 543 294.979)" fill="#121212"/>
<rect x="-2" y="2" width="442" height="112" rx="6" transform="matrix(-1 0 0 1 543 294.979)" stroke="#121212" stroke-width="4"/>
<rect x="-2" y="2" width="447" height="108" rx="6" transform="matrix(-1 0 0 1 531 285.979)" fill="#F5F6F8"/>
<rect x="-1" y="1" width="421" height="84" rx="7" transform="matrix(-1 0 0 1 519 298.979)" fill="#F5F6F8"/>
<rect width="329" height="56" rx="6" transform="matrix(-1 0 0 1 507.75 313.729)" fill="white"/>
<rect x="456.75" y="324.729" width="41" height="4" rx="2" fill="#EEF1F7"/>
<path d="M191.068 324.794V323.91H195.71V324.794H193.912V329.729H192.866V324.794H191.068ZM196.027 329.729V325.365H197.024V326.092H197.069C197.149 325.84 197.285 325.646 197.478 325.51C197.673 325.372 197.896 325.302 198.146 325.302C198.203 325.302 198.266 325.305 198.336 325.311C198.408 325.315 198.468 325.321 198.515 325.331V326.277C198.472 326.262 198.402 326.248 198.308 326.237C198.215 326.224 198.125 326.217 198.038 326.217C197.85 326.217 197.682 326.258 197.532 326.339C197.384 326.419 197.268 326.53 197.183 326.672C197.098 326.814 197.055 326.978 197.055 327.163V329.729H196.027ZM199.118 329.729V325.365H200.147V329.729H199.118ZM199.635 324.746C199.473 324.746 199.332 324.692 199.215 324.584C199.098 324.474 199.039 324.342 199.039 324.189C199.039 324.033 199.098 323.902 199.215 323.794C199.332 323.684 199.473 323.629 199.635 323.629C199.8 323.629 199.94 323.684 200.056 323.794C200.173 323.902 200.232 324.033 200.232 324.189C200.232 324.342 200.173 324.474 200.056 324.584C199.94 324.692 199.8 324.746 199.635 324.746ZM203.022 331.456C202.653 331.456 202.336 331.406 202.07 331.305C201.805 331.207 201.592 331.074 201.431 330.907C201.27 330.741 201.158 330.556 201.096 330.354L202.022 330.129C202.064 330.214 202.124 330.299 202.204 330.382C202.283 330.467 202.39 330.537 202.525 330.592C202.661 330.649 202.833 330.677 203.039 330.677C203.331 330.677 203.572 330.606 203.764 330.464C203.955 330.324 204.05 330.093 204.05 329.771V328.944H203.999C203.946 329.05 203.869 329.159 203.766 329.271C203.666 329.383 203.532 329.477 203.366 329.552C203.201 329.628 202.994 329.666 202.744 329.666C202.408 329.666 202.104 329.587 201.832 329.43C201.561 329.271 201.345 329.034 201.184 328.72C201.025 328.404 200.945 328.008 200.945 327.532C200.945 327.053 201.025 326.649 201.184 326.319C201.345 325.988 201.562 325.737 201.835 325.567C202.107 325.394 202.411 325.308 202.747 325.308C203.002 325.308 203.212 325.352 203.377 325.439C203.544 325.524 203.676 325.627 203.775 325.748C203.873 325.868 203.948 325.98 203.999 326.086H204.056V325.365H205.07V329.8C205.07 330.173 204.981 330.481 204.803 330.726C204.625 330.97 204.382 331.153 204.073 331.274C203.764 331.395 203.414 331.456 203.022 331.456ZM203.031 328.859C203.248 328.859 203.434 328.806 203.587 328.7C203.741 328.594 203.857 328.442 203.937 328.243C204.016 328.044 204.056 327.805 204.056 327.527C204.056 327.252 204.016 327.012 203.937 326.805C203.859 326.599 203.744 326.439 203.59 326.325C203.439 326.21 203.252 326.152 203.031 326.152C202.801 326.152 202.61 326.211 202.457 326.331C202.303 326.45 202.188 326.614 202.11 326.822C202.032 327.029 201.994 327.264 201.994 327.527C201.994 327.794 202.032 328.028 202.11 328.229C202.19 328.427 202.306 328.583 202.46 328.694C202.615 328.804 202.805 328.859 203.031 328.859ZM207.942 331.456C207.573 331.456 207.256 331.406 206.99 331.305C206.725 331.207 206.512 331.074 206.351 330.907C206.19 330.741 206.078 330.556 206.016 330.354L206.942 330.129C206.984 330.214 207.044 330.299 207.124 330.382C207.203 330.467 207.31 330.537 207.445 330.592C207.581 330.649 207.753 330.677 207.959 330.677C208.251 330.677 208.492 330.606 208.684 330.464C208.875 330.324 208.97 330.093 208.97 329.771V328.944H208.919C208.866 329.05 208.789 329.159 208.686 329.271C208.586 329.383 208.452 329.477 208.286 329.552C208.121 329.628 207.914 329.666 207.664 329.666C207.328 329.666 207.024 329.587 206.752 329.43C206.481 329.271 206.265 329.034 206.104 328.72C205.945 328.404 205.865 328.008 205.865 327.532C205.865 327.053 205.945 326.649 206.104 326.319C206.265 325.988 206.482 325.737 206.755 325.567C207.027 325.394 207.331 325.308 207.667 325.308C207.922 325.308 208.132 325.352 208.297 325.439C208.464 325.524 208.596 325.627 208.695 325.748C208.793 325.868 208.868 325.98 208.919 326.086H208.976V325.365H209.99V329.8C209.99 330.173 209.901 330.481 209.723 330.726C209.545 330.97 209.302 331.153 208.993 331.274C208.684 331.395 208.334 331.456 207.942 331.456ZM207.951 328.859C208.168 328.859 208.354 328.806 208.507 328.7C208.661 328.594 208.777 328.442 208.857 328.243C208.936 328.044 208.976 327.805 208.976 327.527C208.976 327.252 208.936 327.012 208.857 326.805C208.779 326.599 208.664 326.439 208.51 326.325C208.359 326.21 208.172 326.152 207.951 326.152C207.721 326.152 207.53 326.211 207.377 326.331C207.223 326.45 207.108 326.614 207.03 326.822C206.952 327.029 206.914 327.264 206.914 327.527C206.914 327.794 206.952 328.028 207.03 328.229C207.11 328.427 207.226 328.583 207.38 328.694C207.535 328.804 207.725 328.859 207.951 328.859ZM212.896 329.814C212.459 329.814 212.081 329.723 211.763 329.541C211.446 329.357 211.203 329.098 211.033 328.763C210.862 328.425 210.777 328.029 210.777 327.572C210.777 327.123 210.862 326.729 211.033 326.39C211.205 326.05 211.445 325.784 211.754 325.595C212.063 325.404 212.426 325.308 212.842 325.308C213.111 325.308 213.365 325.352 213.604 325.439C213.844 325.524 214.056 325.657 214.24 325.836C214.426 326.016 214.571 326.246 214.677 326.524C214.783 326.8 214.837 327.13 214.837 327.513V327.828H211.26V327.135H213.851C213.849 326.938 213.806 326.763 213.723 326.609C213.64 326.454 213.523 326.332 213.373 326.243C213.226 326.154 213.053 326.109 212.856 326.109C212.646 326.109 212.462 326.16 212.302 326.263C212.143 326.363 212.019 326.496 211.93 326.66C211.843 326.823 211.799 327.002 211.797 327.197V327.802C211.797 328.056 211.843 328.274 211.936 328.456C212.029 328.636 212.158 328.774 212.325 328.871C212.492 328.965 212.687 329.013 212.91 329.013C213.06 329.013 213.195 328.992 213.317 328.95C213.438 328.907 213.543 328.843 213.632 328.76C213.721 328.676 213.788 328.573 213.834 328.45L214.794 328.558C214.733 328.812 214.618 329.033 214.447 329.223C214.279 329.41 214.063 329.556 213.8 329.66C213.536 329.763 213.235 329.814 212.896 329.814ZM215.627 329.729V325.365H216.624V326.092H216.669C216.749 325.84 216.885 325.646 217.078 325.51C217.273 325.372 217.496 325.302 217.746 325.302C217.803 325.302 217.866 325.305 217.936 325.311C218.008 325.315 218.068 325.321 218.115 325.331V326.277C218.072 326.262 218.002 326.248 217.908 326.237C217.815 326.224 217.725 326.217 217.638 326.217C217.45 326.217 217.282 326.258 217.132 326.339C216.984 326.419 216.868 326.53 216.783 326.672C216.698 326.814 216.655 326.978 216.655 327.163V329.729H215.627ZM222.555 329.814C222.117 329.814 221.739 329.723 221.421 329.541C221.105 329.357 220.861 329.098 220.691 328.763C220.521 328.425 220.435 328.029 220.435 327.572C220.435 327.123 220.521 326.729 220.691 326.39C220.863 326.05 221.104 325.784 221.413 325.595C221.721 325.404 222.084 325.308 222.501 325.308C222.77 325.308 223.023 325.352 223.262 325.439C223.503 325.524 223.715 325.657 223.898 325.836C224.084 326.016 224.23 326.246 224.336 326.524C224.442 326.8 224.495 327.13 224.495 327.513V327.828H220.918V327.135H223.509C223.507 326.938 223.465 326.763 223.381 326.609C223.298 326.454 223.181 326.332 223.032 326.243C222.884 326.154 222.712 326.109 222.515 326.109C222.305 326.109 222.12 326.16 221.961 326.263C221.802 326.363 221.678 326.496 221.589 326.66C221.502 326.823 221.457 327.002 221.455 327.197V327.802C221.455 328.056 221.502 328.274 221.594 328.456C221.687 328.636 221.817 328.774 221.984 328.871C222.15 328.965 222.345 329.013 222.569 329.013C222.718 329.013 222.854 328.992 222.975 328.95C223.096 328.907 223.201 328.843 223.29 328.76C223.379 328.676 223.447 328.573 223.492 328.45L224.452 328.558C224.392 328.812 224.276 329.033 224.106 329.223C223.937 329.41 223.721 329.556 223.458 329.66C223.195 329.763 222.894 329.814 222.555 329.814ZM229.058 325.365L227.504 329.729H226.367L224.813 325.365H225.91L226.913 328.606H226.958L227.964 325.365H229.058ZM231.473 329.814C231.035 329.814 230.657 329.723 230.339 329.541C230.023 329.357 229.78 329.098 229.609 328.763C229.439 328.425 229.353 328.029 229.353 327.572C229.353 327.123 229.439 326.729 229.609 326.39C229.781 326.05 230.022 325.784 230.331 325.595C230.639 325.404 231.002 325.308 231.419 325.308C231.688 325.308 231.941 325.352 232.18 325.439C232.421 325.524 232.633 325.657 232.816 325.836C233.002 326.016 233.148 326.246 233.254 326.524C233.36 326.8 233.413 327.13 233.413 327.513V327.828H229.836V327.135H232.427C232.425 326.938 232.383 326.763 232.299 326.609C232.216 326.454 232.1 326.332 231.95 326.243C231.802 326.154 231.63 326.109 231.433 326.109C231.223 326.109 231.038 326.16 230.879 326.263C230.72 326.363 230.596 326.496 230.507 326.66C230.42 326.823 230.375 327.002 230.373 327.197V327.802C230.373 328.056 230.42 328.274 230.513 328.456C230.605 328.636 230.735 328.774 230.902 328.871C231.068 328.965 231.263 329.013 231.487 329.013C231.637 329.013 231.772 328.992 231.893 328.95C232.014 328.907 232.12 328.843 232.209 328.76C232.298 328.676 232.365 328.573 232.41 328.45L233.37 328.558C233.31 328.812 233.194 329.033 233.024 329.223C232.855 329.41 232.639 329.556 232.376 329.66C232.113 329.763 231.812 329.814 231.473 329.814ZM235.232 327.172V329.729H234.203V325.365H235.186V326.106H235.237C235.338 325.862 235.498 325.668 235.717 325.524C235.939 325.38 236.213 325.308 236.538 325.308C236.839 325.308 237.102 325.372 237.325 325.501C237.551 325.63 237.725 325.817 237.848 326.061C237.973 326.305 238.035 326.602 238.033 326.95V329.729H237.004V327.109C237.004 326.818 236.928 326.589 236.777 326.425C236.627 326.26 236.42 326.177 236.155 326.177C235.975 326.177 235.815 326.217 235.675 326.297C235.536 326.374 235.428 326.487 235.348 326.635C235.27 326.782 235.232 326.961 235.232 327.172ZM241.177 325.365V326.16H238.669V325.365H241.177ZM239.288 324.319H240.316V328.416C240.316 328.554 240.337 328.66 240.379 328.734C240.422 328.806 240.479 328.855 240.549 328.882C240.619 328.908 240.697 328.922 240.782 328.922C240.847 328.922 240.905 328.917 240.958 328.907C241.013 328.898 241.055 328.89 241.083 328.882L241.257 329.686C241.202 329.705 241.123 329.726 241.021 329.748C240.92 329.771 240.797 329.784 240.652 329.788C240.394 329.796 240.162 329.757 239.955 329.672C239.749 329.585 239.585 329.45 239.464 329.268C239.345 329.086 239.286 328.859 239.288 328.586V324.319ZM244.762 329.729L243.529 325.365H244.577L245.344 328.433H245.384L246.168 325.365H247.205L247.989 328.416H248.032L248.788 325.365H249.839L248.603 329.729H247.532L246.714 326.78H246.654L245.836 329.729H244.762ZM251.505 327.172V329.729H250.477V323.91H251.483V326.106H251.534C251.636 325.86 251.794 325.666 252.008 325.524C252.224 325.38 252.499 325.308 252.832 325.308C253.135 325.308 253.399 325.372 253.625 325.498C253.85 325.625 254.024 325.811 254.147 326.055C254.272 326.3 254.335 326.598 254.335 326.95V329.729H253.306V327.109C253.306 326.816 253.231 326.587 253.079 326.425C252.929 326.26 252.719 326.177 252.448 326.177C252.267 326.177 252.104 326.217 251.96 326.297C251.818 326.374 251.706 326.487 251.625 326.635C251.545 326.782 251.505 326.961 251.505 327.172ZM257.235 329.814C256.797 329.814 256.42 329.723 256.101 329.541C255.785 329.357 255.542 329.098 255.371 328.763C255.201 328.425 255.116 328.029 255.116 327.572C255.116 327.123 255.201 326.729 255.371 326.39C255.544 326.05 255.784 325.784 256.093 325.595C256.402 325.404 256.764 325.308 257.181 325.308C257.45 325.308 257.704 325.352 257.942 325.439C258.183 325.524 258.395 325.657 258.579 325.836C258.764 326.016 258.91 326.246 259.016 326.524C259.122 326.8 259.175 327.13 259.175 327.513V327.828H255.599V327.135H258.189C258.188 326.938 258.145 326.763 258.062 326.609C257.978 326.454 257.862 326.332 257.712 326.243C257.564 326.154 257.392 326.109 257.195 326.109C256.985 326.109 256.8 326.16 256.641 326.263C256.482 326.363 256.358 326.496 256.269 326.66C256.182 326.823 256.137 327.002 256.135 327.197V327.802C256.135 328.056 256.182 328.274 256.275 328.456C256.367 328.636 256.497 328.774 256.664 328.871C256.831 328.965 257.026 329.013 257.249 329.013C257.399 329.013 257.534 328.992 257.655 328.95C257.777 328.907 257.882 328.843 257.971 328.76C258.06 328.676 258.127 328.573 258.172 328.45L259.133 328.558C259.072 328.812 258.957 329.033 258.786 329.223C258.617 329.41 258.402 329.556 258.138 329.66C257.875 329.763 257.574 329.814 257.235 329.814ZM260.994 327.172V329.729H259.965V325.365H260.948V326.106H260.999C261.1 325.862 261.26 325.668 261.479 325.524C261.701 325.38 261.975 325.308 262.301 325.308C262.602 325.308 262.864 325.372 263.087 325.501C263.313 325.63 263.487 325.817 263.61 326.061C263.735 326.305 263.797 326.602 263.795 326.95V329.729H262.766V327.109C262.766 326.818 262.691 326.589 262.539 326.425C262.39 326.26 262.182 326.177 261.917 326.177C261.737 326.177 261.577 326.217 261.437 326.297C261.299 326.374 261.19 326.487 261.11 326.635C261.033 326.782 260.994 326.961 260.994 327.172Z" fill="#636369"/>
<line x1="190.75" y1="336.229" x2="497.75" y2="336.229" stroke="#121212"/>
<path d="M200.325 351.858H198.774C198.714 351.526 198.603 351.235 198.441 350.983C198.279 350.731 198.08 350.517 197.844 350.341C197.609 350.166 197.346 350.033 197.054 349.944C196.766 349.854 196.459 349.809 196.134 349.809C195.548 349.809 195.022 349.957 194.558 350.252C194.098 350.547 193.733 350.979 193.464 351.55C193.199 352.12 193.067 352.816 193.067 353.638C193.067 354.466 193.199 355.166 193.464 355.736C193.733 356.306 194.099 356.737 194.563 357.028C195.027 357.32 195.549 357.466 196.129 357.466C196.451 357.466 196.756 357.423 197.044 357.336C197.336 357.247 197.599 357.116 197.835 356.944C198.07 356.771 198.269 356.561 198.431 356.312C198.597 356.06 198.711 355.772 198.774 355.447L200.325 355.452C200.242 355.953 200.082 356.413 199.843 356.834C199.608 357.252 199.304 357.613 198.933 357.918C198.565 358.22 198.144 358.453 197.67 358.619C197.196 358.785 196.679 358.868 196.119 358.868C195.238 358.868 194.452 358.659 193.763 358.241C193.073 357.82 192.53 357.219 192.132 356.437C191.738 355.654 191.54 354.721 191.54 353.638C191.54 352.55 191.739 351.617 192.137 350.839C192.535 350.056 193.078 349.456 193.768 349.039C194.457 348.618 195.241 348.407 196.119 348.407C196.66 348.407 197.163 348.485 197.631 348.641C198.101 348.794 198.524 349.019 198.898 349.317C199.273 349.612 199.583 349.974 199.828 350.401C200.073 350.825 200.239 351.311 200.325 351.858ZM206.742 355.562V351.092H208.233V358.729H206.771V357.406H206.692C206.516 357.814 206.234 358.153 205.847 358.425C205.462 358.694 204.983 358.828 204.41 358.828C203.919 358.828 203.485 358.72 203.107 358.505C202.733 358.286 202.438 357.963 202.222 357.535C202.01 357.108 201.904 356.579 201.904 355.949V351.092H203.391V355.77C203.391 356.291 203.535 356.705 203.823 357.013C204.112 357.322 204.486 357.476 204.947 357.476C205.225 357.476 205.502 357.406 205.777 357.267C206.055 357.128 206.286 356.917 206.468 356.635C206.654 356.354 206.745 355.996 206.742 355.562ZM215.813 352.956L214.465 353.195C214.409 353.023 214.32 352.859 214.197 352.703C214.078 352.547 213.915 352.42 213.71 352.32C213.504 352.221 213.247 352.171 212.939 352.171C212.518 352.171 212.167 352.265 211.885 352.454C211.603 352.64 211.463 352.88 211.463 353.175C211.463 353.43 211.557 353.636 211.746 353.792C211.935 353.948 212.24 354.075 212.661 354.175L213.874 354.453C214.576 354.615 215.1 354.866 215.445 355.204C215.789 355.542 215.962 355.981 215.962 356.521C215.962 356.979 215.829 357.386 215.564 357.744C215.302 358.099 214.936 358.377 214.465 358.579C213.998 358.782 213.456 358.883 212.84 358.883C211.985 358.883 211.287 358.7 210.747 358.336C210.206 357.968 209.875 357.446 209.752 356.77L211.189 356.551C211.279 356.925 211.463 357.209 211.741 357.401C212.019 357.59 212.382 357.684 212.83 357.684C213.317 357.684 213.706 357.583 213.998 357.381C214.29 357.176 214.436 356.925 214.436 356.631C214.436 356.392 214.346 356.191 214.167 356.029C213.991 355.867 213.721 355.744 213.357 355.661L212.064 355.378C211.352 355.215 210.825 354.957 210.483 354.602C210.145 354.247 209.976 353.798 209.976 353.255C209.976 352.804 210.102 352.41 210.354 352.072C210.606 351.733 210.954 351.47 211.398 351.281C211.842 351.089 212.351 350.993 212.924 350.993C213.749 350.993 214.399 351.172 214.873 351.53C215.347 351.884 215.66 352.36 215.813 352.956ZM221.021 351.092V352.285H216.85V351.092H221.021ZM217.968 349.263H219.455V356.486C219.455 356.775 219.498 356.992 219.584 357.138C219.67 357.28 219.781 357.378 219.917 357.431C220.056 357.481 220.207 357.506 220.37 357.506C220.489 357.506 220.593 357.497 220.683 357.481C220.772 357.464 220.842 357.451 220.892 357.441L221.16 358.669C221.074 358.702 220.951 358.735 220.792 358.768C220.633 358.805 220.434 358.825 220.196 358.828C219.804 358.835 219.44 358.765 219.102 358.619C218.764 358.473 218.49 358.248 218.282 357.943C218.073 357.638 217.968 357.255 217.968 356.795V349.263ZM225.66 358.883C224.944 358.883 224.319 358.719 223.786 358.39C223.252 358.062 222.838 357.603 222.543 357.013C222.248 356.423 222.1 355.734 222.1 354.945C222.1 354.153 222.248 353.46 222.543 352.867C222.838 352.274 223.252 351.813 223.786 351.485C224.319 351.157 224.944 350.993 225.66 350.993C226.376 350.993 227 351.157 227.534 351.485C228.068 351.813 228.482 352.274 228.777 352.867C229.072 353.46 229.219 354.153 229.219 354.945C229.219 355.734 229.072 356.423 228.777 357.013C228.482 357.603 228.068 358.062 227.534 358.39C227 358.719 226.376 358.883 225.66 358.883ZM225.665 357.635C226.129 357.635 226.513 357.512 226.818 357.267C227.123 357.022 227.348 356.695 227.494 356.287C227.643 355.88 227.718 355.431 227.718 354.94C227.718 354.453 227.643 354.006 227.494 353.598C227.348 353.187 227.123 352.857 226.818 352.608C226.513 352.36 226.129 352.236 225.665 352.236C225.197 352.236 224.81 352.36 224.501 352.608C224.197 352.857 223.969 353.187 223.82 353.598C223.674 354.006 223.602 354.453 223.602 354.94C223.602 355.431 223.674 355.88 223.82 356.287C223.969 356.695 224.197 357.022 224.501 357.267C224.81 357.512 225.197 357.635 225.665 357.635ZM230.739 358.729V351.092H232.166V352.335H232.26C232.419 351.914 232.679 351.586 233.041 351.351C233.402 351.112 233.834 350.993 234.338 350.993C234.849 350.993 235.276 351.112 235.621 351.351C235.969 351.589 236.226 351.917 236.391 352.335H236.471C236.653 351.927 236.943 351.603 237.341 351.361C237.739 351.115 238.213 350.993 238.763 350.993C239.456 350.993 240.021 351.21 240.458 351.644C240.899 352.078 241.119 352.733 241.119 353.608V358.729H239.633V353.747C239.633 353.23 239.492 352.855 239.21 352.623C238.929 352.391 238.592 352.275 238.201 352.275C237.717 352.275 237.341 352.425 237.073 352.723C236.804 353.018 236.67 353.397 236.67 353.861V358.729H235.188V353.653C235.188 353.238 235.059 352.905 234.801 352.653C234.542 352.401 234.206 352.275 233.791 352.275C233.51 352.275 233.249 352.35 233.011 352.499C232.775 352.645 232.585 352.849 232.439 353.111C232.297 353.372 232.225 353.676 232.225 354.02V358.729H230.739ZM246.263 358.883C245.511 358.883 244.863 358.722 244.319 358.4C243.779 358.076 243.361 357.62 243.066 357.033C242.775 356.443 242.629 355.752 242.629 354.96C242.629 354.178 242.775 353.488 243.066 352.892C243.361 352.295 243.772 351.83 244.299 351.495C244.83 351.16 245.449 350.993 246.159 350.993C246.589 350.993 247.007 351.064 247.411 351.206C247.816 351.349 248.179 351.573 248.5 351.878C248.822 352.183 249.075 352.579 249.261 353.066C249.446 353.55 249.539 354.138 249.539 354.831V355.358H243.469V354.244H248.083C248.083 353.853 248.003 353.507 247.844 353.205C247.685 352.9 247.461 352.66 247.173 352.484C246.888 352.309 246.553 352.221 246.169 352.221C245.751 352.221 245.386 352.323 245.075 352.529C244.767 352.731 244.528 352.996 244.359 353.324C244.193 353.649 244.11 354.002 244.11 354.383V355.253C244.11 355.764 244.2 356.198 244.379 356.556C244.561 356.914 244.815 357.187 245.139 357.376C245.464 357.562 245.844 357.655 246.278 357.655C246.56 357.655 246.816 357.615 247.048 357.535C247.281 357.452 247.481 357.33 247.65 357.167C247.819 357.005 247.948 356.805 248.038 356.566L249.445 356.819C249.332 357.234 249.13 357.597 248.838 357.908C248.55 358.216 248.187 358.457 247.749 358.629C247.315 358.798 246.82 358.883 246.263 358.883ZM251.049 358.729V351.092H252.485V352.305H252.565C252.704 351.894 252.949 351.571 253.301 351.336C253.655 351.097 254.056 350.978 254.504 350.978C254.597 350.978 254.706 350.981 254.832 350.988C254.961 350.994 255.062 351.003 255.135 351.013V352.434C255.076 352.418 254.97 352.4 254.817 352.38C254.665 352.357 254.512 352.345 254.36 352.345C254.008 352.345 253.695 352.42 253.42 352.569C253.148 352.715 252.933 352.918 252.774 353.18C252.615 353.439 252.535 353.734 252.535 354.065V358.729H251.049ZM265.569 352.956L264.222 353.195C264.165 353.023 264.076 352.859 263.953 352.703C263.834 352.547 263.672 352.42 263.466 352.32C263.261 352.221 263.004 352.171 262.695 352.171C262.275 352.171 261.923 352.265 261.641 352.454C261.36 352.64 261.219 352.88 261.219 353.175C261.219 353.43 261.313 353.636 261.502 353.792C261.691 353.948 261.996 354.075 262.417 354.175L263.63 354.453C264.333 354.615 264.856 354.866 265.201 355.204C265.546 355.542 265.718 355.981 265.718 356.521C265.718 356.979 265.586 357.386 265.32 357.744C265.059 358.099 264.692 358.377 264.222 358.579C263.754 358.782 263.212 358.883 262.596 358.883C261.741 358.883 261.043 358.7 260.503 358.336C259.963 357.968 259.631 357.446 259.509 356.77L260.945 356.551C261.035 356.925 261.219 357.209 261.497 357.401C261.776 357.59 262.139 357.684 262.586 357.684C263.073 357.684 263.463 357.583 263.754 357.381C264.046 357.176 264.192 356.925 264.192 356.631C264.192 356.392 264.102 356.191 263.923 356.029C263.748 355.867 263.478 355.744 263.113 355.661L261.82 355.378C261.108 355.215 260.581 354.957 260.239 354.602C259.901 354.247 259.732 353.798 259.732 353.255C259.732 352.804 259.858 352.41 260.11 352.072C260.362 351.733 260.71 351.47 261.154 351.281C261.598 351.089 262.107 350.993 262.681 350.993C263.506 350.993 264.155 351.172 264.629 351.53C265.103 351.884 265.417 352.36 265.569 352.956ZM267.213 358.729V351.092H268.699V358.729H267.213ZM267.963 349.914C267.705 349.914 267.483 349.828 267.297 349.655C267.115 349.48 267.024 349.271 267.024 349.029C267.024 348.784 267.115 348.575 267.297 348.403C267.483 348.227 267.705 348.139 267.963 348.139C268.222 348.139 268.442 348.227 268.625 348.403C268.81 348.575 268.903 348.784 268.903 349.029C268.903 349.271 268.81 349.48 268.625 349.655C268.442 349.828 268.222 349.914 267.963 349.914ZM273.761 361.751C273.154 361.751 272.632 361.672 272.195 361.513C271.76 361.354 271.406 361.143 271.131 360.881C270.856 360.619 270.65 360.333 270.514 360.021L271.792 359.494C271.881 359.64 272.001 359.794 272.15 359.956C272.302 360.122 272.508 360.263 272.766 360.379C273.028 360.495 273.365 360.553 273.776 360.553C274.339 360.553 274.805 360.416 275.173 360.14C275.54 359.869 275.724 359.434 275.724 358.838V357.336H275.63C275.54 357.499 275.411 357.68 275.242 357.878C275.076 358.077 274.848 358.25 274.556 358.395C274.264 358.541 273.885 358.614 273.418 358.614C272.814 358.614 272.271 358.473 271.787 358.192C271.306 357.907 270.925 357.487 270.643 356.934C270.365 356.377 270.226 355.693 270.226 354.881C270.226 354.068 270.363 353.372 270.638 352.792C270.917 352.212 271.298 351.768 271.782 351.46C272.266 351.148 272.814 350.993 273.428 350.993C273.901 350.993 274.284 351.072 274.576 351.231C274.868 351.387 275.095 351.569 275.257 351.778C275.423 351.987 275.55 352.171 275.64 352.33H275.749V351.092H277.206V358.898C277.206 359.554 277.053 360.092 276.749 360.513C276.444 360.934 276.031 361.246 275.511 361.448C274.994 361.65 274.41 361.751 273.761 361.751ZM273.746 357.381C274.173 357.381 274.535 357.282 274.829 357.083C275.128 356.881 275.353 356.592 275.506 356.218C275.661 355.84 275.739 355.388 275.739 354.861C275.739 354.347 275.663 353.894 275.511 353.503C275.358 353.112 275.134 352.807 274.839 352.589C274.544 352.367 274.18 352.256 273.746 352.256C273.298 352.256 272.925 352.372 272.627 352.604C272.329 352.832 272.103 353.144 271.951 353.538C271.802 353.933 271.727 354.373 271.727 354.861C271.727 355.361 271.803 355.8 271.956 356.178C272.108 356.556 272.334 356.851 272.632 357.063C272.934 357.275 273.305 357.381 273.746 357.381ZM280.546 354.194V358.729H279.06V351.092H280.486V352.335H280.581C280.756 351.931 281.032 351.606 281.406 351.361C281.784 351.115 282.26 350.993 282.833 350.993C283.353 350.993 283.809 351.102 284.2 351.321C284.591 351.536 284.895 351.858 285.11 352.285C285.325 352.713 285.433 353.242 285.433 353.871V358.729H283.947V354.05C283.947 353.497 283.802 353.064 283.514 352.753C283.226 352.438 282.83 352.28 282.326 352.28C281.981 352.28 281.675 352.355 281.406 352.504C281.141 352.653 280.93 352.872 280.775 353.16C280.622 353.445 280.546 353.79 280.546 354.194ZM290.578 358.883C289.826 358.883 289.178 358.722 288.634 358.4C288.094 358.076 287.676 357.62 287.381 357.033C287.09 356.443 286.944 355.752 286.944 354.96C286.944 354.178 287.09 353.488 287.381 352.892C287.676 352.295 288.087 351.83 288.614 351.495C289.144 351.16 289.764 350.993 290.474 350.993C290.904 350.993 291.322 351.064 291.726 351.206C292.131 351.349 292.494 351.573 292.815 351.878C293.137 352.183 293.39 352.579 293.576 353.066C293.761 353.55 293.854 354.138 293.854 354.831V355.358H287.784V354.244H292.398C292.398 353.853 292.318 353.507 292.159 353.205C292 352.9 291.776 352.66 291.488 352.484C291.203 352.309 290.868 352.221 290.483 352.221C290.066 352.221 289.701 352.323 289.39 352.529C289.081 352.731 288.843 352.996 288.674 353.324C288.508 353.649 288.425 354.002 288.425 354.383V355.253C288.425 355.764 288.515 356.198 288.694 356.556C288.876 356.914 289.13 357.187 289.454 357.376C289.779 357.562 290.159 357.655 290.593 357.655C290.875 357.655 291.131 357.615 291.363 357.535C291.595 357.452 291.796 357.33 291.965 357.167C292.134 357.005 292.263 356.805 292.353 356.566L293.76 356.819C293.647 357.234 293.445 357.597 293.153 357.908C292.865 358.216 292.502 358.457 292.064 358.629C291.63 358.798 291.135 358.883 290.578 358.883ZM298.222 358.878C297.606 358.878 297.056 358.72 296.572 358.405C296.091 358.087 295.713 357.635 295.438 357.048C295.166 356.458 295.03 355.751 295.03 354.925C295.03 354.1 295.168 353.394 295.443 352.807C295.721 352.221 296.103 351.772 296.587 351.46C297.07 351.148 297.619 350.993 298.232 350.993C298.706 350.993 299.087 351.072 299.376 351.231C299.667 351.387 299.893 351.569 300.052 351.778C300.214 351.987 300.34 352.171 300.43 352.33H300.519V348.547H302.006V358.729H300.554V357.54H300.43C300.34 357.703 300.211 357.888 300.042 358.097C299.876 358.306 299.647 358.488 299.356 358.644C299.064 358.8 298.686 358.878 298.222 358.878ZM298.55 357.61C298.978 357.61 299.339 357.497 299.634 357.272C299.932 357.043 300.158 356.727 300.31 356.322C300.466 355.918 300.544 355.447 300.544 354.91C300.544 354.38 300.468 353.916 300.315 353.518C300.163 353.121 299.939 352.811 299.644 352.589C299.349 352.367 298.984 352.256 298.55 352.256C298.103 352.256 297.73 352.372 297.432 352.604C297.133 352.836 296.908 353.152 296.756 353.553C296.606 353.954 296.532 354.407 296.532 354.91C296.532 355.421 296.608 355.88 296.761 356.287C296.913 356.695 297.138 357.018 297.437 357.257C297.738 357.492 298.109 357.61 298.55 357.61ZM312.39 355.562V351.092H313.881V358.729H312.419V357.406H312.34C312.164 357.814 311.883 358.153 311.495 358.425C311.11 358.694 310.631 358.828 310.058 358.828C309.567 358.828 309.133 358.72 308.755 358.505C308.381 358.286 308.086 357.963 307.87 357.535C307.658 357.108 307.552 356.579 307.552 355.949V351.092H309.039V355.77C309.039 356.291 309.183 356.705 309.471 357.013C309.76 357.322 310.134 357.476 310.595 357.476C310.873 357.476 311.15 357.406 311.425 357.267C311.704 357.128 311.934 356.917 312.116 356.635C312.302 356.354 312.393 355.996 312.39 355.562ZM315.738 361.592V351.092H317.19V352.33H317.314C317.401 352.171 317.525 351.987 317.687 351.778C317.85 351.569 318.075 351.387 318.363 351.231C318.652 351.072 319.033 350.993 319.507 350.993C320.123 350.993 320.674 351.148 321.157 351.46C321.641 351.772 322.021 352.221 322.296 352.807C322.574 353.394 322.714 354.1 322.714 354.925C322.714 355.751 322.576 356.458 322.301 357.048C322.026 357.635 321.648 358.087 321.167 358.405C320.687 358.72 320.138 358.878 319.522 358.878C319.058 358.878 318.678 358.8 318.383 358.644C318.092 358.488 317.863 358.306 317.697 358.097C317.532 357.888 317.404 357.703 317.314 357.54H317.225V361.592H315.738ZM317.195 354.91C317.195 355.447 317.273 355.918 317.429 356.322C317.585 356.727 317.81 357.043 318.105 357.272C318.4 357.497 318.761 357.61 319.189 357.61C319.633 357.61 320.004 357.492 320.302 357.257C320.601 357.018 320.826 356.695 320.978 356.287C321.134 355.88 321.212 355.421 321.212 354.91C321.212 354.407 321.136 353.954 320.983 353.553C320.834 353.152 320.609 352.836 320.307 352.604C320.009 352.372 319.636 352.256 319.189 352.256C318.758 352.256 318.393 352.367 318.095 352.589C317.8 352.811 317.576 353.121 317.424 353.518C317.271 353.916 317.195 354.38 317.195 354.91Z" fill="#636369"/>
<path d="M333.533 353.111L331.892 353.29C331.846 353.124 331.764 352.968 331.648 352.822C331.536 352.676 331.383 352.559 331.191 352.469C330.999 352.38 330.763 352.335 330.485 352.335C330.111 352.335 329.796 352.416 329.54 352.579C329.289 352.741 329.164 352.952 329.168 353.21C329.164 353.432 329.245 353.613 329.411 353.752C329.58 353.891 329.859 354.006 330.246 354.095L331.549 354.373C332.272 354.529 332.808 354.776 333.16 355.114C333.514 355.452 333.693 355.895 333.697 356.442C333.693 356.922 333.553 357.346 333.274 357.714C332.999 358.079 332.616 358.364 332.126 358.569C331.635 358.775 331.072 358.878 330.435 358.878C329.501 358.878 328.748 358.682 328.178 358.291C327.608 357.897 327.268 357.348 327.159 356.645L328.914 356.476C328.994 356.821 329.163 357.081 329.421 357.257C329.68 357.433 330.016 357.52 330.43 357.52C330.858 357.52 331.201 357.433 331.459 357.257C331.721 357.081 331.852 356.864 331.852 356.606C331.852 356.387 331.768 356.206 331.599 356.064C331.433 355.921 331.174 355.812 330.823 355.736L329.521 355.462C328.788 355.31 328.246 355.053 327.895 354.692C327.544 354.327 327.37 353.866 327.373 353.309C327.37 352.839 327.497 352.431 327.756 352.086C328.017 351.738 328.38 351.47 328.844 351.281C329.312 351.089 329.85 350.993 330.46 350.993C331.355 350.993 332.059 351.183 332.573 351.564C333.09 351.946 333.41 352.461 333.533 353.111ZM335.041 358.729V351.092H336.84V358.729H335.041ZM335.946 350.008C335.661 350.008 335.415 349.914 335.21 349.725C335.004 349.533 334.902 349.302 334.902 349.034C334.902 348.762 335.004 348.532 335.21 348.343C335.415 348.151 335.661 348.055 335.946 348.055C336.234 348.055 336.479 348.151 336.681 348.343C336.887 348.532 336.99 348.762 336.99 349.034C336.99 349.302 336.887 349.533 336.681 349.725C336.479 349.914 336.234 350.008 335.946 350.008ZM340.351 354.254V358.729H338.551V351.092H340.271V352.39H340.361C340.536 351.962 340.817 351.622 341.201 351.371C341.589 351.119 342.068 350.993 342.638 350.993C343.165 350.993 343.624 351.105 344.015 351.331C344.409 351.556 344.714 351.883 344.93 352.31C345.148 352.738 345.256 353.256 345.253 353.866V358.729H343.453V354.145C343.453 353.634 343.321 353.235 343.055 352.947C342.794 352.658 342.431 352.514 341.967 352.514C341.652 352.514 341.372 352.584 341.126 352.723C340.884 352.859 340.694 353.056 340.555 353.314C340.419 353.573 340.351 353.886 340.351 354.254ZM350.273 358.878C349.511 358.878 348.856 358.71 348.31 358.376C347.766 358.041 347.347 357.578 347.052 356.988C346.76 356.395 346.614 355.712 346.614 354.94C346.614 354.165 346.763 353.48 347.062 352.887C347.36 352.29 347.781 351.826 348.324 351.495C348.871 351.16 349.518 350.993 350.263 350.993C350.883 350.993 351.432 351.107 351.909 351.336C352.39 351.561 352.772 351.881 353.057 352.295C353.342 352.706 353.505 353.187 353.545 353.737H351.824C351.755 353.369 351.589 353.063 351.327 352.817C351.069 352.569 350.722 352.444 350.288 352.444C349.92 352.444 349.597 352.544 349.319 352.743C349.04 352.938 348.823 353.22 348.668 353.588C348.515 353.956 348.439 354.397 348.439 354.91C348.439 355.431 348.515 355.878 348.668 356.253C348.82 356.624 349.034 356.911 349.309 357.113C349.587 357.312 349.914 357.411 350.288 357.411C350.553 357.411 350.79 357.361 350.999 357.262C351.211 357.159 351.389 357.012 351.531 356.819C351.674 356.627 351.771 356.394 351.824 356.118H353.545C353.502 356.659 353.342 357.138 353.067 357.555C352.792 357.97 352.418 358.294 351.944 358.53C351.47 358.762 350.913 358.878 350.273 358.878ZM358.263 358.878C357.498 358.878 356.836 358.719 356.279 358.4C355.726 358.079 355.3 357.625 355.002 357.038C354.703 356.448 354.554 355.754 354.554 354.955C354.554 354.17 354.703 353.48 355.002 352.887C355.303 352.29 355.724 351.826 356.265 351.495C356.805 351.16 357.44 350.993 358.169 350.993C358.639 350.993 359.083 351.069 359.501 351.221C359.922 351.371 360.293 351.603 360.615 351.917C360.94 352.232 361.195 352.633 361.38 353.121C361.566 353.604 361.659 354.181 361.659 354.851V355.403H355.399V354.189H359.934C359.93 353.845 359.856 353.538 359.71 353.27C359.564 352.998 359.36 352.784 359.098 352.628C358.84 352.473 358.538 352.395 358.194 352.395C357.826 352.395 357.502 352.484 357.224 352.663C356.946 352.839 356.729 353.071 356.573 353.359C356.42 353.644 356.342 353.957 356.339 354.299V355.358C356.339 355.802 356.42 356.183 356.583 356.501C356.745 356.816 356.972 357.058 357.264 357.227C357.556 357.393 357.897 357.476 358.288 357.476C358.55 357.476 358.787 357.439 358.999 357.366C359.211 357.29 359.395 357.179 359.551 357.033C359.707 356.887 359.824 356.707 359.904 356.491L361.584 356.68C361.478 357.124 361.276 357.512 360.978 357.844C360.683 358.172 360.305 358.427 359.844 358.609C359.383 358.788 358.856 358.878 358.263 358.878ZM370.495 348.547V358.729H368.651V350.341H368.591L366.21 351.863V350.172L368.74 348.547H370.495ZM379.127 358.863C378.527 358.863 377.99 358.709 377.516 358.4C377.042 358.092 376.668 357.645 376.393 357.058C376.117 356.471 375.98 355.759 375.98 354.92C375.98 354.072 376.119 353.356 376.398 352.773C376.679 352.186 377.059 351.743 377.536 351.445C378.013 351.144 378.545 350.993 379.132 350.993C379.579 350.993 379.947 351.069 380.236 351.221C380.524 351.371 380.753 351.551 380.922 351.763C381.091 351.972 381.222 352.169 381.314 352.355H381.389V348.547H383.194V358.729H381.424V357.525H381.314C381.222 357.711 381.087 357.908 380.912 358.117C380.736 358.323 380.504 358.498 380.216 358.644C379.927 358.79 379.564 358.863 379.127 358.863ZM379.629 357.386C380.01 357.386 380.335 357.283 380.604 357.078C380.872 356.869 381.076 356.579 381.215 356.208C381.354 355.837 381.424 355.404 381.424 354.91C381.424 354.416 381.354 353.987 381.215 353.623C381.079 353.258 380.877 352.975 380.608 352.773C380.343 352.57 380.017 352.469 379.629 352.469C379.228 352.469 378.893 352.574 378.625 352.782C378.356 352.991 378.154 353.28 378.018 353.648C377.882 354.015 377.814 354.436 377.814 354.91C377.814 355.388 377.882 355.814 378.018 356.188C378.158 356.559 378.361 356.853 378.63 357.068C378.902 357.28 379.235 357.386 379.629 357.386ZM387.169 358.883C386.685 358.883 386.249 358.796 385.861 358.624C385.477 358.448 385.172 358.19 384.947 357.849C384.725 357.507 384.614 357.086 384.614 356.586C384.614 356.155 384.693 355.799 384.852 355.517C385.011 355.235 385.228 355.01 385.503 354.841C385.779 354.672 386.088 354.544 386.433 354.458C386.781 354.368 387.141 354.304 387.512 354.264C387.959 354.218 388.322 354.176 388.601 354.14C388.879 354.1 389.081 354.04 389.207 353.961C389.337 353.878 389.401 353.75 389.401 353.578V353.548C389.401 353.174 389.29 352.884 389.068 352.678C388.846 352.473 388.526 352.37 388.109 352.37C387.668 352.37 387.318 352.466 387.06 352.658C386.804 352.85 386.632 353.077 386.543 353.339L384.862 353.101C384.995 352.637 385.213 352.249 385.518 351.937C385.823 351.622 386.196 351.387 386.637 351.231C387.078 351.072 387.565 350.993 388.099 350.993C388.467 350.993 388.833 351.036 389.197 351.122C389.562 351.208 389.895 351.351 390.197 351.55C390.498 351.745 390.74 352.012 390.923 352.35C391.108 352.688 391.201 353.111 391.201 353.618V358.729H389.471V357.68H389.411C389.302 357.892 389.148 358.09 388.949 358.276C388.753 358.458 388.506 358.606 388.208 358.719C387.913 358.828 387.567 358.883 387.169 358.883ZM387.636 357.56C387.998 357.56 388.311 357.489 388.576 357.346C388.841 357.201 389.045 357.008 389.187 356.77C389.333 356.531 389.406 356.271 389.406 355.989V355.089C389.35 355.136 389.254 355.179 389.118 355.219C388.985 355.258 388.836 355.293 388.67 355.323C388.505 355.353 388.341 355.379 388.178 355.403C388.016 355.426 387.875 355.446 387.756 355.462C387.487 355.499 387.247 355.558 387.035 355.641C386.823 355.724 386.655 355.84 386.533 355.989C386.41 356.135 386.349 356.324 386.349 356.556C386.349 356.887 386.47 357.138 386.712 357.307C386.954 357.476 387.262 357.56 387.636 357.56ZM393.716 361.592C393.47 361.592 393.243 361.572 393.035 361.532C392.829 361.496 392.665 361.453 392.542 361.403L392.96 360.001C393.222 360.077 393.456 360.114 393.661 360.111C393.867 360.107 394.047 360.043 394.203 359.917C394.362 359.794 394.496 359.589 394.606 359.3L394.76 358.888L391.991 351.092H393.9L395.66 356.859H395.739L397.504 351.092H399.418L396.361 359.653C396.218 360.058 396.029 360.404 395.794 360.692C395.559 360.984 395.27 361.206 394.929 361.358C394.591 361.514 394.186 361.592 393.716 361.592ZM406.054 358.883C405.57 358.883 405.134 358.796 404.746 358.624C404.362 358.448 404.057 358.19 403.831 357.849C403.609 357.507 403.498 357.086 403.498 356.586C403.498 356.155 403.578 355.799 403.737 355.517C403.896 355.235 404.113 355.01 404.388 354.841C404.663 354.672 404.973 354.544 405.318 354.458C405.666 354.368 406.025 354.304 406.397 354.264C406.844 354.218 407.207 354.176 407.485 354.14C407.764 354.1 407.966 354.04 408.092 353.961C408.221 353.878 408.286 353.75 408.286 353.578V353.548C408.286 353.174 408.175 352.884 407.953 352.678C407.731 352.473 407.411 352.37 406.993 352.37C406.552 352.37 406.203 352.466 405.944 352.658C405.689 352.85 405.517 353.077 405.427 353.339L403.747 353.101C403.879 352.637 404.098 352.249 404.403 351.937C404.708 351.622 405.081 351.387 405.522 351.231C405.963 351.072 406.45 350.993 406.983 350.993C407.351 350.993 407.717 351.036 408.082 351.122C408.447 351.208 408.78 351.351 409.081 351.55C409.383 351.745 409.625 352.012 409.807 352.35C409.993 352.688 410.086 353.111 410.086 353.618V358.729H408.355V357.68H408.296C408.186 357.892 408.032 358.09 407.833 358.276C407.638 358.458 407.391 358.606 407.093 358.719C406.798 358.828 406.451 358.883 406.054 358.883ZM406.521 357.56C406.882 357.56 407.195 357.489 407.461 357.346C407.726 357.201 407.93 357.008 408.072 356.77C408.218 356.531 408.291 356.271 408.291 355.989V355.089C408.235 355.136 408.138 355.179 408.003 355.219C407.87 355.258 407.721 355.293 407.555 355.323C407.389 355.353 407.225 355.379 407.063 355.403C406.9 355.426 406.76 355.446 406.64 355.462C406.372 355.499 406.132 355.558 405.919 355.641C405.707 355.724 405.54 355.84 405.417 355.989C405.295 356.135 405.233 356.324 405.233 356.556C405.233 356.887 405.354 357.138 405.596 357.307C405.838 357.476 406.146 357.56 406.521 357.56ZM415.076 361.751C414.43 361.751 413.875 361.663 413.411 361.488C412.947 361.315 412.574 361.083 412.292 360.792C412.01 360.5 411.815 360.177 411.706 359.822L413.326 359.43C413.399 359.579 413.505 359.726 413.644 359.872C413.784 360.021 413.971 360.144 414.206 360.24C414.445 360.339 414.745 360.389 415.106 360.389C415.617 360.389 416.039 360.265 416.374 360.016C416.709 359.771 416.876 359.367 416.876 358.803V357.356H416.787C416.694 357.542 416.558 357.733 416.379 357.928C416.203 358.124 415.97 358.288 415.678 358.42C415.39 358.553 415.027 358.619 414.589 358.619C414.002 358.619 413.47 358.482 412.993 358.206C412.519 357.928 412.141 357.514 411.86 356.964C411.581 356.41 411.442 355.717 411.442 354.885C411.442 354.047 411.581 353.339 411.86 352.763C412.141 352.183 412.521 351.743 412.998 351.445C413.475 351.144 414.007 350.993 414.594 350.993C415.041 350.993 415.409 351.069 415.698 351.221C415.989 351.371 416.221 351.551 416.394 351.763C416.566 351.972 416.697 352.169 416.787 352.355H416.886V351.092H418.661V358.853C418.661 359.506 418.505 360.046 418.193 360.474C417.882 360.901 417.456 361.221 416.916 361.433C416.376 361.645 415.762 361.751 415.076 361.751ZM415.091 357.207C415.472 357.207 415.797 357.114 416.066 356.929C416.334 356.743 416.538 356.476 416.677 356.128C416.816 355.78 416.886 355.363 416.886 354.876C416.886 354.395 416.816 353.974 416.677 353.613C416.541 353.251 416.339 352.971 416.071 352.773C415.805 352.57 415.479 352.469 415.091 352.469C414.69 352.469 414.355 352.574 414.087 352.782C413.818 352.991 413.616 353.278 413.48 353.643C413.345 354.004 413.277 354.415 413.277 354.876C413.277 355.343 413.345 355.752 413.48 356.104C413.62 356.452 413.823 356.723 414.092 356.919C414.364 357.111 414.697 357.207 415.091 357.207ZM423.696 358.878C422.95 358.878 422.304 358.714 421.757 358.385C421.21 358.057 420.786 357.598 420.485 357.008C420.186 356.418 420.037 355.729 420.037 354.94C420.037 354.151 420.186 353.46 420.485 352.867C420.786 352.274 421.21 351.813 421.757 351.485C422.304 351.157 422.95 350.993 423.696 350.993C424.442 350.993 425.088 351.157 425.635 351.485C426.182 351.813 426.605 352.274 426.903 352.867C427.205 353.46 427.355 354.151 427.355 354.94C427.355 355.729 427.205 356.418 426.903 357.008C426.605 357.598 426.182 358.057 425.635 358.385C425.088 358.714 424.442 358.878 423.696 358.878ZM423.706 357.436C424.111 357.436 424.449 357.325 424.72 357.103C424.992 356.877 425.194 356.576 425.327 356.198C425.463 355.82 425.531 355.399 425.531 354.935C425.531 354.468 425.463 354.045 425.327 353.667C425.194 353.286 424.992 352.983 424.72 352.758C424.449 352.532 424.111 352.42 423.706 352.42C423.292 352.42 422.947 352.532 422.672 352.758C422.4 352.983 422.196 353.286 422.061 353.667C421.928 354.045 421.862 354.468 421.862 354.935C421.862 355.399 421.928 355.82 422.061 356.198C422.196 356.576 422.4 356.877 422.672 357.103C422.947 357.325 423.292 357.436 423.706 357.436Z" fill="#121212"/>
<rect x="111.25" y="314.229" width="56" height="56" rx="6" fill="#F1EAFF"/>
<g clip-path="url(#clip1_351_7052)">
<path d="M152.472 343.006C152.472 341.402 152.186 339.864 151.663 338.442C151.305 342.633 149.071 344.786 146.736 343.784C144.549 342.844 146.022 339.182 146.131 337.434C146.315 334.471 146.122 331.08 140.741 328.261C142.977 332.539 141 335.196 138.926 335.358C136.625 335.538 134.518 333.381 135.296 329.881C132.778 331.737 132.705 334.86 133.482 336.881C134.292 338.987 133.449 340.737 131.473 340.932C129.264 341.149 128.036 338.566 129.168 334.45C127.21 336.756 126.027 339.743 126.027 343.006C126.027 350.308 131.947 356.228 139.25 356.228C146.552 356.228 152.472 350.308 152.472 343.006Z" fill="#F4900C"/>
<path d="M147.335 346.895C147.45 349.294 145.343 350.234 144.209 349.78C142.571 349.124 143.01 347.998 142.589 345.665C142.167 343.331 140.547 341.711 138.149 340.998C139.899 345.924 137.179 347.739 135.753 348.063C134.297 348.395 132.834 348.063 132.667 344.947C130.969 346.638 129.917 348.977 129.917 351.563C129.917 351.849 129.935 352.13 129.96 352.41C132.348 354.77 135.627 356.229 139.25 356.229C142.873 356.229 146.153 354.77 148.541 352.41C148.566 352.13 148.584 351.849 148.584 351.563C148.584 349.862 148.129 348.268 147.335 346.895Z" fill="#FFCC4D"/>
</g>
<rect x="-1" y="1" width="421" height="84" rx="7" transform="matrix(-1 0 0 1 519 298.979)" stroke="#E1E8F2" stroke-width="2" stroke-dasharray="8 8"/>
<rect x="-2" y="2" width="447" height="108" rx="6" transform="matrix(-1 0 0 1 531 285.979)" stroke="#121212" stroke-width="4"/>
<rect x="-2" y="2" width="442" height="112" rx="6" transform="matrix(-1 0 0 1 543 485.553)" fill="#121212"/>
<rect x="-2" y="2" width="442" height="112" rx="6" transform="matrix(-1 0 0 1 543 485.553)" stroke="#121212" stroke-width="4"/>
<rect x="-2" y="2" width="447" height="108" rx="6" transform="matrix(-1 0 0 1 531 476.553)" fill="#F5F6F8"/>
<rect x="-1" y="1" width="421" height="84" rx="7" transform="matrix(-1 0 0 1 519 489.553)" fill="#F5F6F8"/>
<rect width="329" height="56" rx="6" transform="matrix(-1 0 0 1 507.75 504.303)" fill="white"/>
<rect x="456.75" y="515.303" width="41" height="4" rx="2" fill="#EEF1F7"/>
<path d="M191.068 515.368V514.485H195.71V515.368H193.912V520.303H192.866V515.368H191.068ZM197.508 517.746V520.303H196.48V514.485H197.485V516.681H197.536C197.639 516.434 197.797 516.24 198.011 516.098C198.227 515.954 198.501 515.882 198.835 515.882C199.138 515.882 199.402 515.946 199.627 516.073C199.853 516.2 200.027 516.385 200.15 516.629C200.275 516.874 200.338 517.172 200.338 517.524V520.303H199.309V517.683C199.309 517.39 199.233 517.162 199.082 516.999C198.932 516.834 198.722 516.752 198.451 516.752C198.269 516.752 198.107 516.791 197.963 516.871C197.821 516.949 197.709 517.061 197.627 517.209C197.548 517.357 197.508 517.536 197.508 517.746ZM203.238 520.388C202.8 520.388 202.422 520.297 202.104 520.115C201.788 519.932 201.545 519.672 201.374 519.337C201.204 519 201.118 518.603 201.118 518.146C201.118 517.698 201.204 517.304 201.374 516.965C201.546 516.624 201.787 516.359 202.096 516.169C202.404 515.978 202.767 515.882 203.184 515.882C203.453 515.882 203.706 515.926 203.945 516.013C204.186 516.098 204.398 516.231 204.581 516.411C204.767 516.591 204.913 516.82 205.019 517.098C205.125 517.375 205.178 517.704 205.178 518.087V518.402H201.601V517.709H204.192C204.19 517.512 204.148 517.337 204.064 517.183C203.981 517.028 203.865 516.906 203.715 516.817C203.567 516.728 203.395 516.683 203.198 516.683C202.988 516.683 202.803 516.735 202.644 516.837C202.485 516.937 202.361 517.07 202.272 517.235C202.185 517.397 202.14 517.576 202.138 517.771V518.377C202.138 518.63 202.185 518.848 202.278 519.03C202.37 519.21 202.5 519.348 202.667 519.445C202.833 519.539 203.028 519.587 203.252 519.587C203.402 519.587 203.537 519.566 203.658 519.524C203.779 519.481 203.885 519.417 203.974 519.334C204.063 519.251 204.13 519.147 204.175 519.024L205.135 519.132C205.075 519.386 204.959 519.608 204.789 519.797C204.62 519.985 204.404 520.13 204.141 520.235C203.878 520.337 203.577 520.388 203.238 520.388ZM206.997 517.746V520.303H205.968V515.939H206.951V516.681H207.002C207.103 516.436 207.263 516.242 207.482 516.098C207.704 515.954 207.978 515.882 208.303 515.882C208.604 515.882 208.867 515.947 209.09 516.075C209.316 516.204 209.49 516.391 209.613 516.635C209.738 516.879 209.8 517.176 209.798 517.524V520.303H208.769V517.683C208.769 517.392 208.693 517.164 208.542 516.999C208.392 516.834 208.185 516.752 207.92 516.752C207.74 516.752 207.58 516.791 207.44 516.871C207.301 516.949 207.193 517.061 207.113 517.209C207.035 517.357 206.997 517.536 206.997 517.746Z" fill="#636369"/>
<line x1="190.75" y1="526.803" x2="497.75" y2="526.803" stroke="#121212"/>
<path d="M197.422 541.796C197.369 541.325 197.15 540.96 196.766 540.702C196.381 540.44 195.897 540.309 195.314 540.309C194.896 540.309 194.535 540.375 194.23 540.508C193.925 540.637 193.688 540.816 193.519 541.045C193.353 541.27 193.271 541.527 193.271 541.816C193.271 542.057 193.327 542.266 193.44 542.442C193.556 542.618 193.706 542.765 193.892 542.884C194.081 543 194.283 543.098 194.499 543.178C194.714 543.254 194.921 543.317 195.12 543.367L196.114 543.625C196.439 543.705 196.772 543.812 197.114 543.948C197.455 544.084 197.772 544.263 198.063 544.485C198.355 544.707 198.59 544.982 198.769 545.311C198.951 545.639 199.043 546.031 199.043 546.489C199.043 547.066 198.893 547.578 198.595 548.025C198.3 548.472 197.871 548.825 197.308 549.084C196.747 549.343 196.07 549.472 195.274 549.472C194.512 549.472 193.852 549.351 193.295 549.109C192.739 548.867 192.303 548.524 191.988 548.08C191.673 547.632 191.499 547.102 191.466 546.489H193.007C193.037 546.857 193.156 547.163 193.365 547.409C193.577 547.651 193.847 547.831 194.175 547.95C194.507 548.066 194.87 548.124 195.264 548.124C195.698 548.124 196.085 548.057 196.423 547.921C196.764 547.781 197.032 547.589 197.228 547.344C197.424 547.095 197.521 546.805 197.521 546.474C197.521 546.172 197.435 545.925 197.263 545.733C197.094 545.541 196.863 545.382 196.572 545.256C196.283 545.13 195.957 545.019 195.592 544.923L194.389 544.595C193.574 544.373 192.928 544.046 192.45 543.615C191.976 543.184 191.739 542.614 191.739 541.905C191.739 541.318 191.898 540.806 192.217 540.369C192.535 539.931 192.966 539.592 193.509 539.35C194.053 539.104 194.666 538.982 195.349 538.982C196.038 538.982 196.646 539.103 197.173 539.345C197.704 539.587 198.121 539.92 198.426 540.344C198.731 540.765 198.89 541.249 198.903 541.796H197.422ZM203.91 549.457C203.158 549.457 202.51 549.296 201.966 548.975C201.426 548.65 201.008 548.194 200.714 547.607C200.422 547.017 200.276 546.326 200.276 545.534C200.276 544.752 200.422 544.063 200.714 543.466C201.008 542.869 201.419 542.404 201.946 542.069C202.477 541.734 203.097 541.567 203.806 541.567C204.237 541.567 204.654 541.638 205.059 541.781C205.463 541.923 205.826 542.147 206.147 542.452C206.469 542.757 206.723 543.153 206.908 543.64C207.094 544.124 207.187 544.712 207.187 545.405V545.932H201.116V544.818H205.73C205.73 544.427 205.65 544.081 205.491 543.779C205.332 543.474 205.108 543.234 204.82 543.058C204.535 542.883 204.2 542.795 203.816 542.795C203.398 542.795 203.034 542.898 202.722 543.103C202.414 543.305 202.175 543.57 202.006 543.899C201.84 544.223 201.758 544.576 201.758 544.958V545.828C201.758 546.338 201.847 546.772 202.026 547.13C202.208 547.488 202.462 547.762 202.787 547.95C203.111 548.136 203.491 548.229 203.925 548.229C204.207 548.229 204.464 548.189 204.696 548.11C204.928 548.027 205.128 547.904 205.297 547.742C205.466 547.579 205.596 547.379 205.685 547.14L207.092 547.394C206.979 547.808 206.777 548.171 206.486 548.482C206.197 548.791 205.834 549.031 205.397 549.203C204.963 549.372 204.467 549.457 203.91 549.457ZM210.182 544.769V549.303H208.696V541.666H210.123V542.909H210.217C210.393 542.505 210.668 542.18 211.042 541.935C211.42 541.69 211.896 541.567 212.469 541.567C212.99 541.567 213.445 541.676 213.836 541.895C214.228 542.11 214.531 542.432 214.746 542.86C214.962 543.287 215.069 543.816 215.069 544.445V549.303H213.583V544.624C213.583 544.071 213.439 543.638 213.15 543.327C212.862 543.012 212.466 542.855 211.962 542.855C211.617 542.855 211.311 542.929 211.042 543.078C210.777 543.227 210.567 543.446 210.411 543.735C210.259 544.02 210.182 544.364 210.182 544.769ZM219.782 549.452C219.165 549.452 218.615 549.294 218.131 548.98C217.651 548.661 217.273 548.209 216.998 547.622C216.726 547.032 216.59 546.325 216.59 545.499C216.59 544.674 216.727 543.968 217.003 543.382C217.281 542.795 217.662 542.346 218.146 542.034C218.63 541.723 219.178 541.567 219.792 541.567C220.266 541.567 220.647 541.646 220.935 541.806C221.227 541.961 221.452 542.144 221.611 542.352C221.774 542.561 221.9 542.745 221.989 542.904H222.079V539.121H223.565V549.303H222.113V548.115H221.989C221.9 548.277 221.77 548.463 221.601 548.671C221.436 548.88 221.207 549.062 220.915 549.218C220.624 549.374 220.246 549.452 219.782 549.452ZM220.11 548.184C220.537 548.184 220.899 548.071 221.194 547.846C221.492 547.617 221.717 547.301 221.87 546.896C222.026 546.492 222.103 546.021 222.103 545.485C222.103 544.954 222.027 544.49 221.875 544.093C221.722 543.695 221.499 543.385 221.204 543.163C220.909 542.941 220.544 542.83 220.11 542.83C219.662 542.83 219.29 542.946 218.991 543.178C218.693 543.41 218.468 543.726 218.315 544.127C218.166 544.528 218.091 544.981 218.091 545.485C218.091 545.995 218.168 546.454 218.32 546.862C218.473 547.269 218.698 547.593 218.996 547.831C219.298 548.066 219.669 548.184 220.11 548.184ZM232.403 549.457C231.651 549.457 231.003 549.296 230.459 548.975C229.919 548.65 229.501 548.194 229.206 547.607C228.915 547.017 228.769 546.326 228.769 545.534C228.769 544.752 228.915 544.063 229.206 543.466C229.501 542.869 229.912 542.404 230.439 542.069C230.97 541.734 231.589 541.567 232.299 541.567C232.729 541.567 233.147 541.638 233.551 541.781C233.956 541.923 234.319 542.147 234.64 542.452C234.962 542.757 235.215 543.153 235.401 543.64C235.586 544.124 235.679 544.712 235.679 545.405V545.932H229.609V544.818H234.223C234.223 544.427 234.143 544.081 233.984 543.779C233.825 543.474 233.601 543.234 233.313 543.058C233.028 542.883 232.693 542.795 232.309 542.795C231.891 542.795 231.526 542.898 231.215 543.103C230.907 543.305 230.668 543.57 230.499 543.899C230.333 544.223 230.25 544.576 230.25 544.958V545.828C230.25 546.338 230.34 546.772 230.519 547.13C230.701 547.488 230.955 547.762 231.279 547.95C231.604 548.136 231.984 548.229 232.418 548.229C232.7 548.229 232.956 548.189 233.188 548.11C233.421 548.027 233.621 547.904 233.79 547.742C233.959 547.579 234.088 547.379 234.178 547.14L235.585 547.394C235.472 547.808 235.27 548.171 234.978 548.482C234.69 548.791 234.327 549.031 233.889 549.203C233.455 549.372 232.96 549.457 232.403 549.457ZM237.189 549.303V541.666H238.615V542.909H238.71C238.869 542.488 239.129 542.16 239.49 541.925C239.852 541.686 240.284 541.567 240.788 541.567C241.298 541.567 241.726 541.686 242.071 541.925C242.419 542.164 242.676 542.492 242.841 542.909H242.921C243.103 542.502 243.393 542.177 243.791 541.935C244.189 541.69 244.663 541.567 245.213 541.567C245.905 541.567 246.471 541.784 246.908 542.218C247.349 542.652 247.569 543.307 247.569 544.182V549.303H246.083V544.321C246.083 543.804 245.942 543.43 245.66 543.198C245.378 542.966 245.042 542.85 244.651 542.85C244.167 542.85 243.791 542.999 243.522 543.297C243.254 543.592 243.12 543.972 243.12 544.436V549.303H241.638V544.227C241.638 543.812 241.509 543.479 241.25 543.227C240.992 542.976 240.655 542.85 240.241 542.85C239.959 542.85 239.699 542.924 239.461 543.073C239.225 543.219 239.035 543.423 238.889 543.685C238.746 543.947 238.675 544.25 238.675 544.595V549.303H237.189ZM251.644 549.472C251.16 549.472 250.723 549.382 250.331 549.203C249.94 549.021 249.63 548.758 249.402 548.413C249.176 548.068 249.064 547.646 249.064 547.145C249.064 546.714 249.147 546.36 249.312 546.081C249.478 545.803 249.702 545.582 249.983 545.42C250.265 545.258 250.58 545.135 250.928 545.052C251.276 544.969 251.631 544.906 251.992 544.863C252.449 544.81 252.821 544.767 253.106 544.734C253.391 544.697 253.598 544.639 253.727 544.56C253.856 544.48 253.921 544.351 253.921 544.172V544.137C253.921 543.703 253.798 543.367 253.553 543.128C253.311 542.889 252.95 542.77 252.469 542.77C251.969 542.77 251.574 542.881 251.286 543.103C251.001 543.322 250.804 543.566 250.694 543.834L249.297 543.516C249.463 543.052 249.705 542.677 250.023 542.392C250.345 542.104 250.714 541.895 251.132 541.766C251.549 541.633 251.989 541.567 252.449 541.567C252.754 541.567 253.077 541.603 253.419 541.676C253.763 541.746 254.085 541.875 254.383 542.064C254.685 542.253 254.932 542.523 255.124 542.874C255.316 543.222 255.412 543.675 255.412 544.232V549.303H253.961V548.259H253.901C253.805 548.451 253.661 548.64 253.469 548.825C253.276 549.011 253.029 549.165 252.728 549.288C252.426 549.41 252.065 549.472 251.644 549.472ZM251.967 548.279C252.378 548.279 252.729 548.197 253.021 548.035C253.316 547.873 253.54 547.66 253.692 547.399C253.848 547.133 253.926 546.85 253.926 546.548V545.564C253.873 545.617 253.77 545.667 253.618 545.713C253.469 545.756 253.298 545.794 253.106 545.828C252.913 545.857 252.726 545.886 252.544 545.912C252.362 545.935 252.209 545.955 252.086 545.972C251.798 546.008 251.535 546.07 251.296 546.156C251.061 546.242 250.872 546.366 250.729 546.529C250.59 546.688 250.52 546.9 250.52 547.165C250.52 547.533 250.656 547.811 250.928 548C251.2 548.186 251.546 548.279 251.967 548.279ZM257.252 549.303V541.666H258.739V549.303H257.252ZM258.003 540.488C257.745 540.488 257.522 540.402 257.337 540.23C257.155 540.054 257.063 539.845 257.063 539.603C257.063 539.358 257.155 539.149 257.337 538.977C257.522 538.801 257.745 538.713 258.003 538.713C258.262 538.713 258.482 538.801 258.664 538.977C258.85 539.149 258.943 539.358 258.943 539.603C258.943 539.845 258.85 540.054 258.664 540.23C258.482 540.402 258.262 540.488 258.003 540.488ZM262.085 539.121V549.303H260.599V539.121H262.085Z" fill="#636369"/>
<path d="M269.425 549.303L266.552 539.121H268.535L270.37 546.603H270.464L272.423 539.121H274.228L276.192 546.608H276.281L278.116 539.121H280.099L277.226 549.303H275.406L273.368 542.159H273.288L271.245 549.303H269.425ZM283.76 549.452C282.995 549.452 282.333 549.293 281.776 548.975C281.223 548.653 280.797 548.199 280.499 547.612C280.201 547.022 280.051 546.328 280.051 545.529C280.051 544.744 280.201 544.054 280.499 543.461C280.8 542.865 281.221 542.401 281.762 542.069C282.302 541.734 282.937 541.567 283.666 541.567C284.136 541.567 284.58 541.643 284.998 541.796C285.419 541.945 285.79 542.177 286.112 542.492C286.437 542.807 286.692 543.208 286.877 543.695C287.063 544.179 287.156 544.755 287.156 545.425V545.977H280.897V544.764H285.431C285.427 544.419 285.353 544.112 285.207 543.844C285.061 543.572 284.857 543.358 284.595 543.203C284.337 543.047 284.035 542.969 283.691 542.969C283.323 542.969 283 543.058 282.721 543.237C282.443 543.413 282.226 543.645 282.07 543.933C281.917 544.218 281.839 544.532 281.836 544.873V545.932C281.836 546.376 281.917 546.757 282.08 547.075C282.242 547.39 282.469 547.632 282.761 547.801C283.053 547.967 283.394 548.05 283.785 548.05C284.047 548.05 284.284 548.013 284.496 547.941C284.708 547.864 284.892 547.753 285.048 547.607C285.204 547.462 285.321 547.281 285.401 547.066L287.081 547.254C286.975 547.699 286.773 548.086 286.475 548.418C286.18 548.746 285.802 549.001 285.341 549.183C284.88 549.362 284.353 549.452 283.76 549.452ZM290.338 539.121V549.303H288.538V539.121H290.338ZM295.38 549.452C294.617 549.452 293.963 549.285 293.416 548.95C292.872 548.615 292.453 548.153 292.158 547.563C291.866 546.969 291.721 546.287 291.721 545.514C291.721 544.739 291.87 544.054 292.168 543.461C292.466 542.865 292.887 542.401 293.431 542.069C293.978 541.734 294.624 541.567 295.37 541.567C295.99 541.567 296.538 541.681 297.015 541.91C297.496 542.135 297.879 542.455 298.164 542.869C298.449 543.28 298.611 543.761 298.651 544.311H296.931C296.861 543.943 296.695 543.637 296.434 543.392C296.175 543.143 295.829 543.019 295.395 543.019C295.027 543.019 294.704 543.118 294.425 543.317C294.147 543.512 293.93 543.794 293.774 544.162C293.621 544.53 293.545 544.971 293.545 545.485C293.545 546.005 293.621 546.452 293.774 546.827C293.926 547.198 294.14 547.485 294.415 547.687C294.694 547.886 295.02 547.985 295.395 547.985C295.66 547.985 295.897 547.936 296.106 547.836C296.318 547.733 296.495 547.586 296.637 547.394C296.78 547.201 296.878 546.968 296.931 546.693H298.651C298.608 547.233 298.449 547.712 298.174 548.129C297.899 548.544 297.524 548.869 297.05 549.104C296.576 549.336 296.019 549.452 295.38 549.452ZM303.32 549.452C302.574 549.452 301.928 549.288 301.381 548.96C300.834 548.632 300.41 548.173 300.108 547.583C299.81 546.993 299.661 546.303 299.661 545.514C299.661 544.726 299.81 544.035 300.108 543.441C300.41 542.848 300.834 542.387 301.381 542.059C301.928 541.731 302.574 541.567 303.32 541.567C304.065 541.567 304.712 541.731 305.259 542.059C305.806 542.387 306.228 542.848 306.526 543.441C306.828 544.035 306.979 544.726 306.979 545.514C306.979 546.303 306.828 546.993 306.526 547.583C306.228 548.173 305.806 548.632 305.259 548.96C304.712 549.288 304.065 549.452 303.32 549.452ZM303.33 548.01C303.734 548.01 304.072 547.899 304.344 547.677C304.616 547.452 304.818 547.15 304.95 546.772C305.086 546.394 305.154 545.973 305.154 545.509C305.154 545.042 305.086 544.619 304.95 544.242C304.818 543.86 304.616 543.557 304.344 543.332C304.072 543.106 303.734 542.994 303.33 542.994C302.915 542.994 302.571 543.106 302.296 543.332C302.024 543.557 301.82 543.86 301.684 544.242C301.552 544.619 301.485 545.042 301.485 545.509C301.485 545.973 301.552 546.394 301.684 546.772C301.82 547.15 302.024 547.452 302.296 547.677C302.571 547.899 302.915 548.01 303.33 548.01ZM308.366 549.303V541.666H310.087V542.964H310.176C310.335 542.526 310.599 542.185 310.967 541.94C311.334 541.691 311.774 541.567 312.284 541.567C312.801 541.567 313.237 541.693 313.592 541.945C313.949 542.193 314.201 542.533 314.347 542.964H314.427C314.596 542.54 314.881 542.202 315.282 541.95C315.686 541.695 316.165 541.567 316.719 541.567C317.421 541.567 317.995 541.789 318.439 542.233C318.883 542.677 319.105 543.325 319.105 544.177V549.303H317.3V544.455C317.3 543.981 317.174 543.635 316.922 543.416C316.671 543.194 316.362 543.083 315.998 543.083C315.564 543.083 315.224 543.219 314.979 543.491C314.737 543.759 314.616 544.109 314.616 544.54V549.303H312.851V544.381C312.851 543.986 312.731 543.672 312.493 543.436C312.257 543.201 311.949 543.083 311.568 543.083C311.31 543.083 311.074 543.15 310.862 543.282C310.65 543.411 310.481 543.595 310.355 543.834C310.229 544.069 310.166 544.344 310.166 544.659V549.303H308.366ZM324.171 549.452C323.406 549.452 322.745 549.293 322.188 548.975C321.634 548.653 321.208 548.199 320.91 547.612C320.612 547.022 320.463 546.328 320.463 545.529C320.463 544.744 320.612 544.054 320.91 543.461C321.212 542.865 321.633 542.401 322.173 542.069C322.713 541.734 323.348 541.567 324.077 541.567C324.548 541.567 324.992 541.643 325.409 541.796C325.83 541.945 326.202 542.177 326.523 542.492C326.848 542.807 327.103 543.208 327.289 543.695C327.474 544.179 327.567 544.755 327.567 545.425V545.977H321.308V544.764H325.842C325.839 544.419 325.764 544.112 325.618 543.844C325.472 543.572 325.269 543.358 325.007 543.203C324.748 543.047 324.447 542.969 324.102 542.969C323.734 542.969 323.411 543.058 323.132 543.237C322.854 543.413 322.637 543.645 322.481 543.933C322.329 544.218 322.251 544.532 322.247 544.873V545.932C322.247 546.376 322.329 546.757 322.491 547.075C322.653 547.39 322.881 547.632 323.172 547.801C323.464 547.967 323.805 548.05 324.196 548.05C324.458 548.05 324.695 548.013 324.907 547.941C325.119 547.864 325.303 547.753 325.459 547.607C325.615 547.462 325.733 547.281 325.812 547.066L327.493 547.254C327.386 547.699 327.184 548.086 326.886 548.418C326.591 548.746 326.213 549.001 325.752 549.183C325.292 549.362 324.765 549.452 324.171 549.452ZM334.48 549.457C333.996 549.457 333.56 549.371 333.172 549.198C332.788 549.023 332.483 548.764 332.257 548.423C332.035 548.081 331.924 547.66 331.924 547.16C331.924 546.729 332.004 546.373 332.163 546.091C332.322 545.809 332.539 545.584 332.814 545.415C333.089 545.246 333.399 545.118 333.744 545.032C334.092 544.943 334.452 544.878 334.823 544.838C335.27 544.792 335.633 544.75 335.912 544.714C336.19 544.674 336.392 544.615 336.518 544.535C336.647 544.452 336.712 544.325 336.712 544.152V544.122C336.712 543.748 336.601 543.458 336.379 543.252C336.157 543.047 335.837 542.944 335.419 542.944C334.979 542.944 334.629 543.04 334.37 543.232C334.115 543.425 333.943 543.652 333.853 543.914L332.173 543.675C332.305 543.211 332.524 542.823 332.829 542.512C333.134 542.197 333.507 541.961 333.948 541.806C334.389 541.646 334.876 541.567 335.409 541.567C335.777 541.567 336.144 541.61 336.508 541.696C336.873 541.782 337.206 541.925 337.507 542.124C337.809 542.319 338.051 542.586 338.233 542.924C338.419 543.262 338.512 543.685 338.512 544.192V549.303H336.782V548.254H336.722C336.613 548.466 336.458 548.665 336.26 548.85C336.064 549.033 335.817 549.18 335.519 549.293C335.224 549.402 334.877 549.457 334.48 549.457ZM334.947 548.134C335.308 548.134 335.622 548.063 335.887 547.921C336.152 547.775 336.356 547.583 336.498 547.344C336.644 547.105 336.717 546.845 336.717 546.563V545.664C336.661 545.71 336.564 545.753 336.429 545.793C336.296 545.833 336.147 545.867 335.981 545.897C335.815 545.927 335.651 545.954 335.489 545.977C335.327 546 335.186 546.02 335.066 546.036C334.798 546.073 334.558 546.133 334.346 546.215C334.133 546.298 333.966 546.414 333.843 546.563C333.721 546.709 333.659 546.898 333.659 547.13C333.659 547.462 333.78 547.712 334.022 547.881C334.264 548.05 334.573 548.134 334.947 548.134ZM341.981 544.828V549.303H340.181V541.666H341.902V542.964H341.991C342.167 542.536 342.447 542.197 342.831 541.945C343.219 541.693 343.698 541.567 344.268 541.567C344.795 541.567 345.254 541.68 345.645 541.905C346.04 542.13 346.344 542.457 346.56 542.884C346.779 543.312 346.886 543.831 346.883 544.441V549.303H345.083V544.719C345.083 544.209 344.951 543.809 344.686 543.521C344.424 543.232 344.061 543.088 343.597 543.088C343.282 543.088 343.002 543.158 342.757 543.297C342.515 543.433 342.324 543.63 342.185 543.889C342.049 544.147 341.981 544.46 341.981 544.828ZM351.406 549.437C350.807 549.437 350.27 549.283 349.796 548.975C349.322 548.666 348.947 548.219 348.672 547.632C348.397 547.046 348.259 546.333 348.259 545.494C348.259 544.646 348.399 543.93 348.677 543.347C348.959 542.76 349.338 542.318 349.816 542.019C350.293 541.718 350.825 541.567 351.411 541.567C351.859 541.567 352.227 541.643 352.515 541.796C352.803 541.945 353.032 542.125 353.201 542.338C353.37 542.546 353.501 542.744 353.594 542.929H353.668V539.121H355.473V549.303H353.703V548.1H353.594C353.501 548.285 353.367 548.482 353.191 548.691C353.016 548.897 352.784 549.072 352.495 549.218C352.207 549.364 351.844 549.437 351.406 549.437ZM351.909 547.96C352.29 547.96 352.615 547.858 352.883 547.652C353.151 547.443 353.355 547.153 353.494 546.782C353.634 546.411 353.703 545.978 353.703 545.485C353.703 544.991 353.634 544.561 353.494 544.197C353.359 543.832 353.156 543.549 352.888 543.347C352.623 543.145 352.296 543.044 351.909 543.044C351.508 543.044 351.173 543.148 350.904 543.357C350.636 543.566 350.434 543.854 350.298 544.222C350.162 544.59 350.094 545.011 350.094 545.485C350.094 545.962 350.162 546.388 350.298 546.762C350.437 547.133 350.641 547.427 350.909 547.642C351.181 547.854 351.514 547.96 351.909 547.96ZM369.761 544.212C369.761 545.309 369.556 546.249 369.145 547.031C368.737 547.81 368.18 548.406 367.474 548.82C366.772 549.235 365.974 549.442 365.083 549.442C364.191 549.442 363.393 549.235 362.687 548.82C361.984 548.403 361.427 547.805 361.016 547.026C360.608 546.244 360.405 545.306 360.405 544.212C360.405 543.115 360.608 542.177 361.016 541.398C361.427 540.616 361.984 540.017 362.687 539.603C363.393 539.189 364.191 538.982 365.083 538.982C365.974 538.982 366.772 539.189 367.474 539.603C368.18 540.017 368.737 540.616 369.145 541.398C369.556 542.177 369.761 543.115 369.761 544.212ZM367.907 544.212C367.907 543.44 367.786 542.788 367.544 542.258C367.305 541.724 366.974 541.322 366.55 541.05C366.125 540.775 365.636 540.637 365.083 540.637C364.529 540.637 364.041 540.775 363.616 541.05C363.192 541.322 362.859 541.724 362.617 542.258C362.378 542.788 362.259 543.44 362.259 544.212C362.259 544.984 362.378 545.637 362.617 546.171C362.859 546.701 363.192 547.104 363.616 547.379C364.041 547.651 364.529 547.786 365.083 547.786C365.636 547.786 366.125 547.651 366.55 547.379C366.974 547.104 367.305 546.701 367.544 546.171C367.786 545.637 367.907 544.984 367.907 544.212ZM373.085 544.828V549.303H371.285V541.666H373.006V542.964H373.095C373.271 542.536 373.551 542.197 373.935 541.945C374.323 541.693 374.802 541.567 375.372 541.567C375.899 541.567 376.358 541.68 376.749 541.905C377.144 542.13 377.449 542.457 377.664 542.884C377.883 543.312 377.99 543.831 377.987 544.441V549.303H376.187V544.719C376.187 544.209 376.055 543.809 375.79 543.521C375.528 543.232 375.165 543.088 374.701 543.088C374.386 543.088 374.106 543.158 373.861 543.297C373.619 543.433 373.428 543.63 373.289 543.889C373.153 544.147 373.085 544.46 373.085 544.828ZM379.756 549.303V539.121H381.556V542.929H381.631C381.723 542.744 381.854 542.546 382.023 542.338C382.192 542.125 382.421 541.945 382.709 541.796C382.998 541.643 383.366 541.567 383.813 541.567C384.403 541.567 384.935 541.718 385.409 542.019C385.886 542.318 386.264 542.76 386.542 543.347C386.824 543.93 386.965 544.646 386.965 545.494C386.965 546.333 386.827 547.046 386.552 547.632C386.277 548.219 385.903 548.666 385.429 548.975C384.955 549.283 384.418 549.437 383.818 549.437C383.381 549.437 383.018 549.364 382.729 549.218C382.441 549.072 382.209 548.897 382.033 548.691C381.861 548.482 381.727 548.285 381.631 548.1H381.526V549.303H379.756ZM381.521 545.485C381.521 545.978 381.591 546.411 381.73 546.782C381.872 547.153 382.076 547.443 382.341 547.652C382.61 547.858 382.935 547.96 383.316 547.96C383.714 547.96 384.047 547.854 384.315 547.642C384.584 547.427 384.786 547.133 384.922 546.762C385.061 546.388 385.131 545.962 385.131 545.485C385.131 545.011 385.063 544.59 384.927 544.222C384.791 543.854 384.589 543.566 384.32 543.357C384.052 543.148 383.717 543.044 383.316 543.044C382.931 543.044 382.605 543.145 382.336 543.347C382.068 543.549 381.864 543.832 381.725 544.197C381.589 544.561 381.521 544.991 381.521 545.485ZM391.686 549.452C390.94 549.452 390.294 549.288 389.747 548.96C389.2 548.632 388.776 548.173 388.474 547.583C388.176 546.993 388.027 546.303 388.027 545.514C388.027 544.726 388.176 544.035 388.474 543.441C388.776 542.848 389.2 542.387 389.747 542.059C390.294 541.731 390.94 541.567 391.686 541.567C392.432 541.567 393.078 541.731 393.625 542.059C394.172 542.387 394.594 542.848 394.893 543.441C395.194 544.035 395.345 544.726 395.345 545.514C395.345 546.303 395.194 546.993 394.893 547.583C394.594 548.173 394.172 548.632 393.625 548.96C393.078 549.288 392.432 549.452 391.686 549.452ZM391.696 548.01C392.1 548.01 392.438 547.899 392.71 547.677C392.982 547.452 393.184 547.15 393.317 546.772C393.453 546.394 393.521 545.973 393.521 545.509C393.521 545.042 393.453 544.619 393.317 544.242C393.184 543.86 392.982 543.557 392.71 543.332C392.438 543.106 392.1 542.994 391.696 542.994C391.282 542.994 390.937 543.106 390.662 543.332C390.39 543.557 390.186 543.86 390.05 544.242C389.918 544.619 389.851 545.042 389.851 545.509C389.851 545.973 389.918 546.394 390.05 546.772C390.186 547.15 390.39 547.452 390.662 547.677C390.937 547.899 391.282 548.01 391.696 548.01ZM398.93 549.457C398.446 549.457 398.01 549.371 397.623 549.198C397.238 549.023 396.933 548.764 396.708 548.423C396.486 548.081 396.375 547.66 396.375 547.16C396.375 546.729 396.454 546.373 396.613 546.091C396.772 545.809 396.989 545.584 397.265 545.415C397.54 545.246 397.85 545.118 398.194 545.032C398.542 544.943 398.902 544.878 399.273 544.838C399.721 544.792 400.083 544.75 400.362 544.714C400.64 544.674 400.842 544.615 400.968 544.535C401.098 544.452 401.162 544.325 401.162 544.152V544.122C401.162 543.748 401.051 543.458 400.829 543.252C400.607 543.047 400.287 542.944 399.87 542.944C399.429 542.944 399.079 543.04 398.821 543.232C398.565 543.425 398.393 543.652 398.304 543.914L396.623 543.675C396.756 543.211 396.975 542.823 397.279 542.512C397.584 542.197 397.957 541.961 398.398 541.806C398.839 541.646 399.326 541.567 399.86 541.567C400.228 541.567 400.594 541.61 400.958 541.696C401.323 541.782 401.656 541.925 401.958 542.124C402.259 542.319 402.501 542.586 402.684 542.924C402.869 543.262 402.962 543.685 402.962 544.192V549.303H401.232V548.254H401.172C401.063 548.466 400.909 548.665 400.71 548.85C400.514 549.033 400.267 549.18 399.969 549.293C399.674 549.402 399.328 549.457 398.93 549.457ZM399.397 548.134C399.759 548.134 400.072 548.063 400.337 547.921C400.602 547.775 400.806 547.583 400.949 547.344C401.094 547.105 401.167 546.845 401.167 546.563V545.664C401.111 545.71 401.015 545.753 400.879 545.793C400.746 545.833 400.597 545.867 400.431 545.897C400.266 545.927 400.102 545.954 399.939 545.977C399.777 546 399.636 546.02 399.517 546.036C399.248 546.073 399.008 546.133 398.796 546.215C398.584 546.298 398.416 546.414 398.294 546.563C398.171 546.709 398.11 546.898 398.11 547.13C398.11 547.462 398.231 547.712 398.473 547.881C398.715 548.05 399.023 548.134 399.397 548.134ZM404.632 549.303V541.666H406.377V542.939H406.456C406.595 542.498 406.834 542.159 407.172 541.92C407.514 541.678 407.903 541.557 408.34 541.557C408.44 541.557 408.551 541.562 408.674 541.572C408.8 541.579 408.904 541.59 408.987 541.607V543.262C408.911 543.236 408.79 543.213 408.624 543.193C408.461 543.169 408.304 543.158 408.152 543.158C407.823 543.158 407.528 543.229 407.267 543.372C407.008 543.511 406.804 543.705 406.655 543.953C406.506 544.202 406.431 544.489 406.431 544.813V549.303H404.632ZM412.562 549.437C411.962 549.437 411.425 549.283 410.951 548.975C410.477 548.666 410.103 548.219 409.827 547.632C409.552 547.046 409.415 546.333 409.415 545.494C409.415 544.646 409.554 543.93 409.832 543.347C410.114 542.76 410.494 542.318 410.971 542.019C411.448 541.718 411.98 541.567 412.567 541.567C413.014 541.567 413.382 541.643 413.67 541.796C413.959 541.945 414.188 542.125 414.357 542.338C414.526 542.546 414.657 542.744 414.749 542.929H414.824V539.121H416.629V549.303H414.859V548.1H414.749C414.657 548.285 414.522 548.482 414.347 548.691C414.171 548.897 413.939 549.072 413.651 549.218C413.362 549.364 412.999 549.437 412.562 549.437ZM413.064 547.96C413.445 547.96 413.77 547.858 414.038 547.652C414.307 547.443 414.511 547.153 414.65 546.782C414.789 546.411 414.859 545.978 414.859 545.485C414.859 544.991 414.789 544.561 414.65 544.197C414.514 543.832 414.312 543.549 414.043 543.347C413.778 543.145 413.452 543.044 413.064 543.044C412.663 543.044 412.328 543.148 412.06 543.357C411.791 543.566 411.589 543.854 411.453 544.222C411.317 544.59 411.249 545.011 411.249 545.485C411.249 545.962 411.317 546.388 411.453 546.762C411.592 547.133 411.796 547.427 412.065 547.642C412.336 547.854 412.67 547.96 413.064 547.96ZM418.406 549.303V541.666H420.206V549.303H418.406ZM419.311 540.583C419.026 540.583 418.781 540.488 418.575 540.299C418.37 540.107 418.267 539.877 418.267 539.608C418.267 539.336 418.37 539.106 418.575 538.917C418.781 538.725 419.026 538.629 419.311 538.629C419.6 538.629 419.845 538.725 420.047 538.917C420.252 539.106 420.355 539.336 420.355 539.608C420.355 539.877 420.252 540.107 420.047 540.299C419.845 540.488 419.6 540.583 419.311 540.583ZM423.716 544.828V549.303H421.917V541.666H423.637V542.964H423.726C423.902 542.536 424.182 542.197 424.567 541.945C424.954 541.693 425.433 541.567 426.003 541.567C426.53 541.567 426.989 541.68 427.381 541.905C427.775 542.13 428.08 542.457 428.295 542.884C428.514 543.312 428.622 543.831 428.618 544.441V549.303H426.819V544.719C426.819 544.209 426.686 543.809 426.421 543.521C426.159 543.232 425.796 543.088 425.332 543.088C425.017 543.088 424.737 543.158 424.492 543.297C424.25 543.433 424.06 543.63 423.92 543.889C423.784 544.147 423.716 544.46 423.716 544.828ZM433.629 552.325C432.983 552.325 432.428 552.238 431.964 552.062C431.5 551.89 431.127 551.658 430.845 551.366C430.563 551.074 430.368 550.751 430.258 550.396L431.879 550.004C431.952 550.153 432.058 550.3 432.197 550.446C432.336 550.595 432.524 550.718 432.759 550.814C432.998 550.914 433.298 550.963 433.659 550.963C434.169 550.963 434.592 550.839 434.927 550.59C435.261 550.345 435.429 549.941 435.429 549.377V547.931H435.339C435.246 548.116 435.111 548.307 434.932 548.502C434.756 548.698 434.522 548.862 434.231 548.994C433.942 549.127 433.579 549.193 433.142 549.193C432.555 549.193 432.023 549.056 431.546 548.781C431.072 548.502 430.694 548.088 430.412 547.538C430.134 546.984 429.995 546.292 429.995 545.46C429.995 544.621 430.134 543.914 430.412 543.337C430.694 542.757 431.074 542.318 431.551 542.019C432.028 541.718 432.56 541.567 433.147 541.567C433.594 541.567 433.962 541.643 434.25 541.796C434.542 541.945 434.774 542.125 434.946 542.338C435.119 542.546 435.25 542.744 435.339 542.929H435.439V541.666H437.214V549.427C437.214 550.08 437.058 550.62 436.746 551.048C436.435 551.475 436.009 551.795 435.469 552.007C434.928 552.219 434.315 552.325 433.629 552.325ZM433.644 547.781C434.025 547.781 434.35 547.689 434.618 547.503C434.887 547.317 435.091 547.051 435.23 546.703C435.369 546.355 435.439 545.937 435.439 545.45C435.439 544.969 435.369 544.548 435.23 544.187C435.094 543.826 434.892 543.546 434.623 543.347C434.358 543.145 434.032 543.044 433.644 543.044C433.243 543.044 432.908 543.148 432.64 543.357C432.371 543.566 432.169 543.852 432.033 544.217C431.897 544.578 431.829 544.989 431.829 545.45C431.829 545.917 431.897 546.326 432.033 546.678C432.172 547.026 432.376 547.298 432.645 547.493C432.916 547.685 433.25 547.781 433.644 547.781ZM440.027 549.412C439.725 549.412 439.467 549.306 439.251 549.094C439.036 548.882 438.93 548.623 438.933 548.318C438.93 548.02 439.036 547.765 439.251 547.553C439.467 547.341 439.725 547.235 440.027 547.235C440.318 547.235 440.572 547.341 440.787 547.553C441.006 547.765 441.117 548.02 441.12 548.318C441.117 548.521 441.064 548.704 440.961 548.87C440.862 549.036 440.729 549.169 440.564 549.268C440.401 549.364 440.222 549.412 440.027 549.412Z" fill="#121212"/>
<rect x="111.25" y="504.803" width="56" height="56" rx="6" fill="#FBEDC3"/>
<g clip-path="url(#clip2_351_7052)">
<path d="M142.361 544.469C142.361 546.187 136.139 546.187 136.139 544.469V536.691C136.139 534.973 137.532 533.58 139.25 533.58C140.968 533.58 142.361 534.973 142.361 536.691V544.469Z" fill="#C1694F"/>
<path d="M133.028 521.136C129.592 521.136 126.806 523.922 126.806 527.358V536.691H139.25V527.358C139.25 523.922 136.464 521.136 133.028 521.136Z" fill="#292F33"/>
<path d="M140.806 533.395C140.806 534.356 139.977 535.136 139.022 535.136H127.033C126.078 535.136 125.25 534.356 125.25 533.395V525.211C125.25 524.25 126.078 523.47 127.033 523.47H139.022C139.977 523.47 140.806 524.25 140.806 525.211V533.395V533.395Z" fill="#CCD6DD"/>
<path d="M140.806 525.211C140.806 524.25 139.977 523.47 139.022 523.47H127.033C126.078 523.47 125.25 524.25 125.25 525.211V526.315L129.045 530.129L125.327 533.867C125.414 534.16 125.573 534.424 125.791 534.632L129.658 530.744L131.53 532.626C132.348 533.45 133.683 533.45 134.502 532.626L136.389 530.734L140.265 534.632C140.483 534.423 140.641 534.159 140.729 533.867L137.001 530.12L140.806 526.306V525.211Z" fill="#99AAB5"/>
<path d="M139.022 523.47H127.034C126.127 523.47 125.344 524.174 125.266 525.068L131.805 531.599C132.481 532.279 133.576 532.252 134.251 531.572L140.792 525.081C140.719 524.181 139.932 523.47 139.022 523.47Z" fill="#E1E8ED"/>
<path d="M145.472 521.136H133.027C136.464 521.136 139.25 523.922 139.25 527.358V536.691H151.694V527.358C151.694 523.922 148.908 521.136 145.472 521.136Z" fill="#99AAB5"/>
<path d="M145.472 519.58H142.361C141.503 519.58 140.806 520.277 140.806 521.136V530.469C140.806 531.328 141.503 532.025 142.361 532.025C143.22 532.025 143.917 531.328 143.917 530.469V524.247H145.472C146.331 524.247 147.028 523.55 147.028 522.691V521.136C147.028 520.277 146.331 519.58 145.472 519.58Z" fill="#DD2E44"/>
</g>
<rect x="-1" y="1" width="421" height="84" rx="7" transform="matrix(-1 0 0 1 519 489.553)" stroke="#E1E8F2" stroke-width="2" stroke-dasharray="8 8"/>
<rect x="-2" y="2" width="447" height="108" rx="6" transform="matrix(-1 0 0 1 531 476.553)" stroke="#121212" stroke-width="4"/>
<rect x="312.914" y="228.404" width="6" height="6" rx="3" fill="#121212"/>
<path d="M316.26 277.379C316.107 277.645 315.722 277.645 315.568 277.379L312.796 272.579C312.642 272.312 312.835 271.979 313.143 271.979L318.685 271.979C318.993 271.979 319.186 272.312 319.032 272.579L316.26 277.379Z" fill="#121212"/>
<line x1="315.963" y1="233.979" x2="315.963" y2="273.979" stroke="#121212" stroke-width="2"/>
<rect x="312.914" y="418.979" width="6" height="6" rx="3" fill="#121212"/>
<path d="M316.26 467.953C316.107 468.219 315.722 468.219 315.568 467.953L312.796 463.153C312.642 462.886 312.835 462.553 313.143 462.553L318.685 462.553C318.993 462.553 319.186 462.886 319.032 463.153L316.26 467.953Z" fill="#121212"/>
<line x1="315.963" y1="424.553" x2="315.963" y2="464.553" stroke="#121212" stroke-width="2"/>
<defs>
<clipPath id="clip0_351_7052">
<rect width="22" height="22" fill="white" transform="translate(109 146.904)"/>
</clipPath>
<clipPath id="clip1_351_7052">
<rect width="28" height="28" fill="white" transform="translate(125.25 328.229)"/>
</clipPath>
<clipPath id="clip2_351_7052">
<rect width="28" height="28" fill="white" transform="translate(125.25 518.803)"/>
</clipPath>
</defs>
</svg>
