<svg xmlns="http://www.w3.org/2000/svg" width="608" height="560" fill="none" xmlns:v="https://vecta.io/nano"><style><![CDATA[.B{stroke:#121212}.C{fill:#fff}.D{fill:#121212}.E{fill:#636369}]]></style><g stroke="#97969c" stroke-dasharray="4 4"><path d="M48.496-31.556v78.64m0 544.473v-280.31m0-65.742V97.287M150.688-31.179l-.001 402.046m0 220.515V395.539M252.379-31.368v164.793m0 457.954v-81.246m0-293.993v244.395M355.07-31.179v90.743m0 531.81V83.867M457.261-31.366l.001 373.692m0 249.057V425.4M559.453-31.558V152.27m0 439.102V288.354m0-90.065v72.832"/><path d="M608 487.054H277.773M0 487.054h228.393M608 383.261H495.737M0 383.261h138.654m278.878 0H163.326M608 175.675h-25.672M0 175.675h211.292m80.708 0h242.642M608 279.468h-39.48m-568.52 0h15.322m65.323 0H550.88M608 71.882H368.442M0 71.882h25.121m48.339 0h269.018"/><path d="M252.379 511.034l-10.182-13.817-13.818-10.183 13.818-10.182 10.182-13.818 10.182 13.818 13.818 10.182-13.818 10.183-10.182 13.817zM48.52 95.8L38.337 81.982 24.52 71.8l13.818-10.182L48.52 47.8l10.182 13.818L72.52 71.8 58.702 81.982 48.52 95.8zm510.878 103.73l-10.182-13.817-13.818-10.183 13.818-10.182 10.182-13.818 10.183 13.818 13.817 10.182-13.817 10.183-10.183 13.817zM48.531 311.384L34.955 292.96l-18.424-13.576 18.424-13.577 13.576-18.423 13.577 18.423 18.423 13.577-18.423 13.576-13.577 18.424zM457.246 423.29l-16.97-23.029-23.03-16.971 23.03-16.971 16.97-23.029 16.971 23.029 23.029 16.971-23.029 16.971-16.971 23.029zM252.379 215.681l-16.971-23.03-23.029-16.97 23.029-16.971 16.971-23.029 16.97 23.029 23.03 16.971-23.03 16.97-16.97 23.03z"/><circle cx="150.754" cy="383.261" r="12" transform="rotate(180 150.754 383.261)"/><circle cx="559.453" cy="279.468" r="8" transform="rotate(180 559.453 279.468)"/><circle cx="355.402" cy="71.882" r="12" transform="rotate(180 355.402 71.882)"/></g><g transform="matrix(-1 0 0 1 501.889 73.4053)"><rect x="-2" y="2" width="441.955" height="422.315" rx="6" class="D"/><rect x="-2" y="2" width="441.955" height="422.315" rx="6" stroke-width="4" class="B"/></g><g transform="matrix(-1 0 0 1 520.825 60.4863)"><rect x="-2" y="2" width="441.12" height="419.085" rx="6" fill="#f5f6f8"/><rect x="-2" y="2" width="441.12" height="419.085" rx="6" stroke-width="4" class="B"/></g><rect x="91.786" y="73.404" width="422" height="38" rx="4" class="C"/><rect x="108.786" y="87.404" width="10" height="10" rx="5" fill="#eb5757"/><rect x="126.786" y="87.404" width="10" height="10" rx="5" fill="#f2c94c"/><rect x="144.786" y="87.404" width="10" height="10" rx="5" fill="#27ae60"/><g fill="#e7edf5"><path d="M488.224 86.404a1 1 0 1 0-2 0h2zm-2 12a1 1 0 1 0 2 0h-2zm0-12v12h2v-12h-2z"/><path d="M493.224 93.404a1 1 0 1 0 0-2v2zm-12-2a1 1 0 1 0 0 2v-2zm12 0h-12v2h12v-2z"/></g><rect x="-1" y="1" width="419" height="345" rx="7" transform="matrix(-1 0 0 1 510.786 124.404)" fill="#f5f6f8"/><path d="M148.86 165.309c2.754 0 4.158-1.278 4.158-3.312 0-1.62-.954-2.844-2.898-2.988v-.18c1.602-.198 2.412-1.134 2.412-2.574 0-2.088-1.386-3.006-3.96-3.006h-5.94v12.06h6.228zm-3.528-9.63h3.06c.99 0 1.44.198 1.44 1.17 0 .954-.432 1.17-1.44 1.17h-3.06v-2.34zm0 4.536h3.438c1.008 0 1.53.18 1.53 1.35 0 1.134-.54 1.314-1.53 1.314h-3.438v-2.664zm12.067-4.986v-1.98h-2.682l.036 1.98h2.646zm.054 10.08v-9.054h-2.7v9.054h2.7zm4.726 0v-5.67c0-.99.396-1.278 1.224-1.278.846 0 1.152.306 1.152 1.278v.486h2.682v-.828c0-1.818-.702-3.222-2.592-3.222-1.278 0-2.088.72-2.538 1.638h-.108v-1.458h-2.502v9.054h2.682zm10.999.036a9.52 9.52 0 0 0 1.764-.18v-2.25h-1.116c-1.17 0-1.44-.09-1.44-.882v-3.546h2.556v-2.232h-2.556v-2.106h-2.124l-.504 2.106h-1.512v2.232h1.44v3.852c0 2.142 1.134 3.006 3.492 3.006zm6.288-.036v-5.112c0-1.368.558-1.8 1.854-1.8 1.368 0 1.782.45 1.782 1.71v5.202h2.7v-5.742c0-1.926-.972-3.492-3.312-3.492-1.44 0-2.43.738-2.916 1.584h-.108v-4.41h-2.682v12.06h2.682zm12.005.18c1.332 0 2.358-.54 2.826-1.512h.09v1.332h2.502v-12.06h-2.682v4.194h-.108c-.414-.756-1.242-1.368-2.628-1.368-2.466 0-3.924 1.854-3.924 4.716 0 2.844 1.368 4.698 3.924 4.698zm-1.242-4.698c0-1.656.432-2.412 1.998-2.412 1.278 0 1.98.45 1.98 1.674v1.458c0 1.224-.702 1.674-1.98 1.674-1.566 0-1.998-.756-1.998-2.394zm11.248 4.698c1.674 0 2.592-.738 3.078-1.404h.108v1.224h2.502v-5.364c0-2.412-1.404-3.87-4.068-3.87-2.556 0-4.23 1.422-4.23 3.582v.198h2.574v-.198c0-.918.432-1.224 1.53-1.224 1.062 0 1.638.198 1.638 1.26v.288l-3.096.468c-1.872.288-2.88 1.152-2.88 2.556 0 1.638 1.242 2.484 2.844 2.484zm-.27-2.7c0-.378.252-.558.81-.648l2.592-.396c0 1.404-1.134 1.692-2.232 1.692-.792 0-1.17-.162-1.17-.648zm9.427 5.58c1.782 0 2.79-.576 3.564-2.43l4.032-9.684h-3.006l-1.278 3.78-.558 1.746h-.198l-.648-1.746-1.476-3.78h-3.006l3.798 8.676-.162.342c-.27.576-.522.666-1.206.666h-1.512v2.232a7.86 7.86 0 0 0 1.656.198zm15.543-2.88c1.674 0 2.592-.738 3.078-1.404h.108v1.224h2.502v-5.364c0-2.412-1.404-3.87-4.068-3.87-2.556 0-4.23 1.422-4.23 3.582v.198h2.574v-.198c0-.918.432-1.224 1.53-1.224 1.062 0 1.638.198 1.638 1.26v.288l-3.096.468c-1.872.288-2.88 1.152-2.88 2.556 0 1.638 1.242 2.484 2.844 2.484zm-.27-2.7c0-.378.252-.558.81-.648l2.592-.396c0 1.404-1.134 1.692-2.232 1.692-.792 0-1.17-.162-1.17-.648zm11.411 2.7c1.584 0 2.538-.72 3.042-1.764h.09v1.584h2.502v-9.054h-2.682v5.13c0 1.368-.558 1.782-1.854 1.782-1.35 0-1.782-.45-1.782-1.71v-5.202h-2.682v5.742c0 1.926.99 3.492 3.366 3.492zm11.934-.144a9.52 9.52 0 0 0 1.764-.18v-2.25H249.9c-1.17 0-1.44-.09-1.44-.882v-3.546h2.556v-2.232h-2.556v-2.106h-2.124l-.504 2.106h-1.512v2.232h1.44v3.852c0 2.142 1.134 3.006 3.492 3.006zm7.627.144c2.898 0 4.59-1.836 4.59-4.698 0-2.88-1.692-4.716-4.59-4.716-2.916 0-4.644 1.836-4.644 4.716 0 2.862 1.728 4.698 4.644 4.698zm0-2.376c-1.476 0-1.98-.576-1.98-2.322 0-1.764.504-2.34 1.98-2.34 1.458 0 1.962.576 1.962 2.34 0 1.746-.504 2.322-1.962 2.322zm9.045 2.196v-5.238c0-1.278.54-1.674 1.764-1.674 1.296 0 1.692.45 1.692 1.71v5.202h2.7v-5.202c0-1.314.522-1.71 1.746-1.71 1.314 0 1.692.45 1.692 1.71v5.202h2.7v-5.742c0-1.926-.954-3.492-3.294-3.492-1.674 0-2.574.774-3.078 1.764h-.09c-.45-1.062-1.386-1.764-2.934-1.764s-2.484.738-2.97 1.764h-.108v-1.584h-2.502v9.054h2.682zm16.901.18c1.674 0 2.592-.738 3.078-1.404h.108v1.224h2.502v-5.364c0-2.412-1.404-3.87-4.068-3.87-2.556 0-4.23 1.422-4.23 3.582v.198h2.574v-.198c0-.918.432-1.224 1.53-1.224 1.062 0 1.638.198 1.638 1.26v.288l-3.096.468c-1.872.288-2.88 1.152-2.88 2.556 0 1.638 1.242 2.484 2.844 2.484zm-.27-2.7c0-.378.252-.558.81-.648l2.592-.396c0 1.404-1.134 1.692-2.232 1.692-.792 0-1.17-.162-1.17-.648zm12.204 2.556a9.52 9.52 0 0 0 1.764-.18v-2.25h-1.116c-1.17 0-1.44-.09-1.44-.882v-3.546h2.556v-2.232h-2.556v-2.106h-2.124l-.504 2.106h-1.512v2.232h1.44v3.852c0 2.142 1.134 3.006 3.492 3.006zm6.057-10.116v-1.98h-2.682l.036 1.98h2.646zm.054 10.08v-9.054h-2.7v9.054h2.7zm6.258.18c2.898 0 4.59-1.836 4.59-4.698 0-2.88-1.692-4.716-4.59-4.716-2.916 0-4.644 1.836-4.644 4.716 0 2.862 1.728 4.698 4.644 4.698zm0-2.376c-1.476 0-1.98-.576-1.98-2.322 0-1.764.504-2.34 1.98-2.34 1.458 0 1.962.576 1.962 2.34 0 1.746-.504 2.322-1.962 2.322zm9.044 2.196v-5.13c0-1.368.558-1.782 1.854-1.782 1.368 0 1.782.45 1.782 1.71v5.202h2.7v-5.742c0-1.926-1.008-3.492-3.366-3.492-1.584 0-2.556.738-3.042 1.764h-.108v-1.584h-2.502v9.054h2.682zm15.684 0v-6.822h2.016v-2.232h-2.124v-.162c0-.612.324-.828 1.008-.828h1.116v-2.016c-.288-.036-.558-.036-.846-.036-2.412 0-3.69 1.134-3.852 3.042h-1.332v2.232h1.314v6.822h2.7zm5.724 0v-12.06h-2.682v12.06h2.682zm6.442.18c2.898 0 4.59-1.836 4.59-4.698 0-2.88-1.692-4.716-4.59-4.716-2.916 0-4.644 1.836-4.644 4.716 0 2.862 1.728 4.698 4.644 4.698zm0-2.376c-1.476 0-1.98-.576-1.98-2.322 0-1.764.504-2.34 1.98-2.34 1.458 0 1.962.576 1.962 2.34 0 1.746-.504 2.322-1.962 2.322zm10.944 2.196l1.188-4.302.45-2.376h.198l.45 2.376 1.17 4.302h3.528l2.106-9.054h-2.844l-.63 4.194-.324 2.7h-.18l-.486-2.7-1.116-4.194h-3.438l-1.098 4.176-.504 2.718h-.198l-.342-2.718-.594-4.176h-2.97l2.106 9.054h3.528z" fill="#000"/><g clip-path="url(#A)"><g fill="#fdd888"><path d="M135.952 167.253c0 1.345-1.1 2.445-2.444 2.445h-13.444c-1.345 0-2.445-1.1-2.445-2.445v-10.389c0-1.344 1.1-2.444 2.445-2.444h13.444c1.344 0 2.444 1.1 2.444 2.444v10.389z"/><path d="M137.786 155.03c0 1.345-1.1 2.445-2.444 2.445h-17.111c-1.345 0-2.445-1.1-2.445-2.445s1.1-2.444 2.445-2.444h17.111c1.344 0 2.444 1.1 2.444 2.444z"/></g><path d="M117.619 157.476h18.333v1.222h-18.333v-1.222z" fill="#fcab40"/><g fill="#da2f47"><path d="M127.397 150.142h-1.222c-1.012 0-1.833.82-1.833 1.833v17.722h4.889v-17.722c0-1.012-.821-1.833-1.834-1.833z"/><path d="M125.564 152.586c.672 0 .772-.315.22-.701l-4.107-2.876c-.552-.385-1.275-.223-1.608.36l-1.232 2.156c-.334.584-.057 1.061.616 1.061h6.111zm2.444 0c-.672 0-.772-.315-.22-.701l4.108-2.876c.551-.385 1.274-.223 1.608.36l1.232 2.156c.333.584.056 1.061-.617 1.061h-6.111z"/></g></g><path stroke="#dfe7f2" stroke-width="2" d="M115.786 185.426h364.146"/><rect x="160.786" y="208.5" width="283" height="64" rx="7.5" class="C"/><path d="M237.631 250.754h-1.86a2.33 2.33 0 0 0-.293-.811c-.143-.238-.32-.441-.532-.606a2.21 2.21 0 0 0-.726-.373c-.268-.086-.558-.129-.87-.129-.553 0-1.044.139-1.472.417s-.762.68-1.004 1.213-.363 1.178-.363 1.944c0 .779.121 1.435.363 1.969s.58.931 1.004 1.203.917.403 1.467.403c.305 0 .59-.04.855-.12s.509-.203.721-.363.396-.354.542-.586a2.21 2.21 0 0 0 .308-.796l1.86.01a4.01 4.01 0 0 1-.453 1.362 4 4 0 0 1-.9 1.124 4.15 4.15 0 0 1-1.302.756c-.497.179-1.049.268-1.656.268-.895 0-1.693-.207-2.396-.621s-1.256-1.013-1.661-1.795-.606-1.72-.606-2.814.204-2.035.611-2.814.963-1.38 1.666-1.795 1.498-.621 2.386-.621c.567 0 1.094.08 1.581.239s.922.392 1.303.701.694.679.939 1.123.411.945.488 1.512zm6.336 3.534v-4.424h1.8v7.636h-1.745v-1.357h-.08c-.172.427-.455.777-.85 1.049s-.873.407-1.446.407c-.501 0-.943-.111-1.328-.333a2.32 2.32 0 0 1-.895-.979c-.215-.431-.323-.951-.323-1.561v-4.862h1.8v4.583c0 .484.132.869.398 1.154s.613.427 1.044.427a1.65 1.65 0 0 0 .77-.193c.249-.13.453-.322.612-.577s.243-.582.243-.97zm9.546-2.406l-1.64.179c-.047-.166-.128-.321-.244-.467s-.265-.264-.457-.353-.428-.134-.706-.134c-.375 0-.69.081-.945.243s-.376.373-.373.632a.66.66 0 0 0 .244.541c.169.14.447.254.835.343l1.303.279c.722.156 1.259.403 1.61.741s.534.78.537 1.327c-.003.481-.144.905-.422 1.273s-.658.649-1.149.855-1.054.308-1.69.308c-.935 0-1.687-.195-2.257-.587s-.91-.942-1.019-1.645l1.755-.169c.079.345.248.605.507.78s.595.264 1.009.264c.428 0 .771-.088 1.029-.264s.393-.392.393-.651a.68.68 0 0 0-.254-.542c-.165-.142-.424-.252-.775-.328l-1.303-.273c-.732-.153-1.274-.41-1.626-.771s-.525-.825-.522-1.382c-.003-.471.125-.878.383-1.223s.625-.617 1.089-.805 1.006-.289 1.616-.289c.895 0 1.599.191 2.113.572a2.4 2.4 0 0 1 .959 1.546zm5.322-2.018v1.392h-4.39v-1.392h4.39zm-3.307-1.83h1.8v7.169c0 .242.037.428.11.557s.175.212.298.258.258.07.407.07c.113 0 .216-.008.309-.025l.218-.045.304 1.407c-.096.034-.234.07-.413.11s-.391.063-.646.069c-.451.014-.857-.054-1.218-.203s-.648-.388-.86-.706-.312-.716-.309-1.194v-7.467zm7.921 9.615c-.746 0-1.392-.164-1.939-.492s-.971-.787-1.273-1.377-.447-1.28-.447-2.068.149-1.48.447-2.074.726-1.053 1.273-1.382 1.193-.492 1.939-.492 1.392.164 1.939.492a3.31 3.31 0 0 1 1.267 1.382c.302.594.453 1.285.453 2.074s-.151 1.478-.453 2.068a3.31 3.31 0 0 1-1.267 1.377c-.547.328-1.194.492-1.939.492zm.01-1.442c.404 0 .742-.111 1.014-.333s.474-.527.606-.905a3.7 3.7 0 0 0 .204-1.262c0-.468-.068-.89-.204-1.268s-.334-.685-.606-.91-.61-.338-1.014-.338c-.415 0-.759.113-1.035.338-.271.225-.475.529-.611.91a3.8 3.8 0 0 0-.199 1.268c0 .464.066.885.199 1.262s.34.68.611.905c.276.222.62.333 1.035.333zm5.036 1.293v-7.636h1.72v1.297h.09c.159-.437.422-.779.79-1.024s.807-.373 1.318-.373c.517 0 .953.126 1.307.378s.61.588.756 1.019h.08c.169-.424.454-.762.855-1.014s.883-.383 1.436-.383c.703 0 1.277.222 1.721.666s.666 1.092.666 1.944v5.126h-1.805v-4.847c0-.474-.126-.821-.378-1.039s-.56-.333-.924-.333c-.435 0-.774.135-1.02.407s-.362.618-.362 1.049v4.763h-1.765v-4.922c0-.394-.12-.709-.358-.944s-.544-.353-.925-.353a1.31 1.31 0 0 0-.706.198c-.212.13-.381.314-.507.552s-.189.511-.189.826v4.643h-1.8zm15.805.149c-.765 0-1.426-.159-1.983-.477s-.98-.776-1.278-1.362-.447-1.285-.447-2.083c0-.786.149-1.475.447-2.069s.723-1.06 1.263-1.392 1.175-.502 1.904-.502c.471 0 .915.076 1.332.229s.792.381 1.114.696.58.716.766 1.203.278 1.061.278 1.73v.552h-6.259v-1.213h4.534c-.004-.345-.078-.651-.224-.92a1.63 1.63 0 0 0-.611-.641 1.72 1.72 0 0 0-.905-.234c-.368 0-.691.09-.97.269s-.495.407-.651.696-.23.598-.234.939v1.059c0 .444.082.826.244 1.144s.389.557.681.726.633.248 1.024.248c.262 0 .499-.036.711-.109s.396-.187.552-.333.273-.327.353-.542l1.68.189a2.62 2.62 0 0 1-.606 1.163c-.295.328-.673.583-1.134.766s-.987.268-1.581.268zm4.779-.149v-7.636h1.745v1.272h.079c.139-.44.378-.78.716-1.019a1.97 1.97 0 0 1 1.168-.363l.333.015c.126.007.231.018.314.035v1.656c-.077-.027-.198-.05-.363-.07a3.38 3.38 0 0 0-.473-.035c-.328 0-.623.071-.885.214a1.56 1.56 0 0 0-.611.582c-.149.248-.224.535-.224.86v4.489h-1.799zm11.577.134c-.6 0-1.137-.154-1.611-.462s-.849-.756-1.124-1.342-.412-1.3-.412-2.138c0-.849.139-1.565.417-2.148s.662-1.029 1.139-1.327a2.92 2.92 0 0 1 1.596-.453c.447 0 .815.076 1.103.229s.517.33.686.542a3.3 3.3 0 0 1 .393.591h.075v-3.808h1.805V257.5h-1.77v-1.203h-.11a3.1 3.1 0 0 1-.402.591c-.176.206-.408.382-.696.527s-.652.219-1.089.219zm.502-1.476c.381 0 .706-.103.974-.309s.473-.498.612-.87.209-.803.209-1.297-.07-.923-.209-1.288-.338-.648-.607-.85-.591-.303-.979-.303c-.401 0-.736.104-1.004.313s-.471.497-.607.865-.204.789-.204 1.263.068.903.204 1.278.343.664.612.879.604.319.999.319zm7.54 1.496c-.484 0-.92-.086-1.308-.258s-.689-.435-.915-.776-.333-.762-.333-1.263c0-.431.08-.787.239-1.069a1.85 1.85 0 0 1 .651-.676c.275-.169.585-.296.93-.383a7.53 7.53 0 0 1 1.079-.193l1.089-.125c.278-.04.48-.099.606-.179s.194-.21.194-.383v-.029c0-.375-.111-.665-.333-.87s-.542-.309-.96-.309c-.44 0-.79.096-1.049.289s-.427.419-.517.681l-1.68-.239c.133-.464.351-.852.656-1.163s.678-.55 1.119-.706a4.28 4.28 0 0 1 1.461-.239 4.77 4.77 0 0 1 1.099.129c.365.087.698.229.999.428s.544.462.726.8.279.761.279 1.268v5.111H311v-1.049h-.06c-.109.212-.264.411-.462.597s-.443.329-.741.442-.642.164-1.039.164zm.467-1.322c.361 0 .675-.072.94-.214s.469-.338.611-.577.219-.499.219-.78v-.9c-.056.046-.153.089-.288.129s-.282.075-.448.104l-.492.08-.423.06a3.11 3.11 0 0 0-.72.179 1.2 1.2 0 0 0-.503.348.85.85 0 0 0-.184.566c0 .332.121.582.363.751s.551.254.925.254zm9.048-6.468v1.392h-4.39v-1.392h4.39zm-3.307-1.83h1.8v7.169c0 .242.037.428.11.557s.175.212.298.258.258.07.408.07c.112 0 .215-.008.308-.025l.219-.045.303 1.407c-.096.034-.234.07-.413.11s-.391.063-.646.069c-.451.014-.857-.054-1.218-.203a1.9 1.9 0 0 1-.86-.706c-.209-.319-.312-.716-.309-1.194v-7.467zm7.97 9.615c-.765 0-1.426-.159-1.983-.477s-.98-.776-1.278-1.362-.447-1.285-.447-2.083c0-.786.149-1.475.447-2.069s.723-1.06 1.263-1.392 1.175-.502 1.904-.502c.471 0 .915.076 1.332.229s.792.381 1.114.696.58.716.766 1.203.278 1.061.278 1.73v.552h-6.259v-1.213h4.534c-.003-.345-.078-.651-.224-.92a1.63 1.63 0 0 0-.611-.641 1.72 1.72 0 0 0-.905-.234c-.368 0-.691.09-.97.269s-.495.407-.651.696-.23.598-.234.939v1.059c0 .444.082.826.244 1.144s.389.557.681.726.633.248 1.024.248c.262 0 .499-.036.711-.109s.396-.187.552-.333.273-.327.353-.542l1.68.189a2.62 2.62 0 0 1-.606 1.163c-.295.328-.673.583-1.134.766s-.987.268-1.581.268zm11.442 0c-.746 0-1.392-.164-1.939-.492s-.971-.787-1.273-1.377-.447-1.28-.447-2.068.149-1.48.447-2.074.726-1.053 1.273-1.382 1.193-.492 1.939-.492 1.392.164 1.939.492.97.789 1.268 1.382.452 1.285.452 2.074-.151 1.478-.452 2.068-.721 1.049-1.268 1.377-1.193.492-1.939.492zm.01-1.442c.404 0 .743-.111 1.014-.333s.474-.527.607-.905a3.7 3.7 0 0 0 .204-1.262c0-.468-.068-.89-.204-1.268s-.335-.685-.607-.91-.61-.338-1.014-.338c-.414 0-.759.113-1.034.338a2.04 2.04 0 0 0-.612.91c-.132.378-.198.8-.198 1.268s.066.885.198 1.262a2.04 2.04 0 0 0 .612.905c.275.222.62.333 1.034.333zm8.905-6.343v1.392h-4.515v-1.392h4.515zm-3.386 7.636v-8.357c0-.514.106-.942.318-1.283a2.02 2.02 0 0 1 .865-.766c.362-.169.763-.253 1.203-.253.312 0 .589.025.831.074l.537.135-.358 1.392c-.077-.023-.173-.047-.289-.07s-.245-.04-.388-.04c-.334 0-.571.082-.71.244s-.204.388-.204.686v8.238h-1.805zm8.067 0v-10.182h1.8v3.808h.075a3.29 3.29 0 0 1 .392-.591c.169-.212.398-.393.686-.542s.657-.229 1.104-.229c.59 0 1.122.151 1.596.453s.855.74 1.134 1.327.422 1.299.422 2.148c0 .838-.137 1.551-.413 2.138s-.649 1.034-1.123 1.342-1.011.462-1.611.462c-.437 0-.8-.073-1.089-.219s-.52-.321-.696-.527-.306-.406-.402-.591h-.105v1.203h-1.77zm1.765-3.818c0 .494.07.926.209 1.297s.346.662.612.87.593.309.974.309c.398 0 .731-.106.999-.319s.471-.508.607-.879a3.66 3.66 0 0 0 .209-1.278c0-.474-.068-.895-.204-1.263s-.338-.656-.607-.865-.603-.313-1.004-.313c-.385 0-.711.101-.979.303s-.473.486-.612.85-.204.794-.204 1.288zm6.834 3.818v-7.636h1.8v7.636h-1.8zm.905-8.72a1.05 1.05 0 0 1-.736-.284c-.205-.192-.308-.422-.308-.691s.103-.502.308-.691a1.04 1.04 0 0 1 .736-.288 1.03 1.03 0 0 1 .736.288c.205.189.308.42.308.691s-.103.499-.308.691a1.04 1.04 0 0 1-.736.284zm2.606 8.72v-7.636h1.745v1.272h.079c.139-.44.378-.78.716-1.019a1.97 1.97 0 0 1 1.168-.363l.333.015c.126.007.231.018.314.035v1.656c-.077-.027-.198-.05-.363-.07a3.38 3.38 0 0 0-.473-.035c-.328 0-.623.071-.885.214a1.56 1.56 0 0 0-.611.582c-.149.248-.224.535-.224.86v4.489h-1.799zm9.634-7.636v1.392h-4.39v-1.392h4.39zm-3.306-1.83h1.799v7.169c0 .242.037.428.11.557s.175.212.298.258a1.13 1.13 0 0 0 .408.07c.112 0 .215-.008.308-.025l.219-.045.303 1.407c-.096.034-.234.07-.413.11s-.391.063-.646.069c-.451.014-.857-.054-1.218-.203a1.9 1.9 0 0 1-.86-.706c-.209-.319-.312-.716-.308-1.194v-7.467zm6.635 4.992v4.474h-1.8v-10.182h1.76v3.843h.089a2.21 2.21 0 0 1 .831-1.019c.377-.252.858-.378 1.441-.378.531 0 .993.111 1.387.333a2.24 2.24 0 0 1 .915.975c.219.427.328.949.328 1.566v4.862h-1.799v-4.584c0-.514-.133-.913-.398-1.198s-.63-.432-1.104-.432a1.74 1.74 0 0 0-.855.208 1.46 1.46 0 0 0-.587.592c-.139.258-.208.572-.208.94z" class="D"/><path d="M228.485 228.5v-5.818h3.784v.883h-2.73v1.58h2.534v.883h-2.534v1.588h2.753v.884h-3.807zm8.632-4.364l-1.554 4.364h-1.137l-1.554-4.364h1.097l1.003 3.242h.045l1.006-3.242h1.094zm2.415 4.449c-.438 0-.816-.091-1.134-.273a1.84 1.84 0 0 1-.73-.778c-.17-.337-.256-.734-.256-1.19 0-.449.086-.843.256-1.182s.413-.606.722-.796.671-.286 1.088-.286c.269 0 .522.043.761.13s.453.218.636.398.332.409.438.687.159.607.159.989v.315h-3.577v-.693h2.591c-.002-.197-.044-.372-.128-.525a.92.92 0 0 0-.349-.367c-.148-.089-.32-.133-.517-.133-.21 0-.395.051-.554.153s-.283.233-.372.398a1.15 1.15 0 0 0-.134.537v.605a1.43 1.43 0 0 0 .139.653c.093.18.223.318.39.415s.361.142.585.142c.149 0 .285-.021.406-.062a.9.9 0 0 0 .315-.191c.089-.083.157-.186.202-.309l.96.108c-.06.253-.176.475-.346.664a1.69 1.69 0 0 1-.648.438c-.263.102-.564.153-.903.153zm3.758-2.642v2.557h-1.028v-4.364h.983v.742h.051a1.26 1.26 0 0 1 .48-.583c.222-.143.496-.215.821-.215.301 0 .564.064.787.193a1.3 1.3 0 0 1 .523.559c.125.245.186.541.185.89v2.778h-1.029v-2.619c0-.292-.076-.52-.227-.685s-.357-.247-.622-.247a.96.96 0 0 0-.48.119c-.139.078-.248.191-.327.338s-.117.327-.117.537zm5.946-1.807v.796h-2.509v-.796h2.509zm-1.889-1.045h1.028v4.097c0 .138.021.244.063.318a.33.33 0 0 0 .17.147c.07.027.148.04.233.04.065 0 .123-.005.176-.014l.125-.026.174.804a2.36 2.36 0 0 1-.236.063c-.101.023-.224.036-.37.04-.257.007-.489-.032-.696-.117a1.08 1.08 0 0 1-.491-.403c-.119-.182-.178-.409-.176-.682v-4.267z" class="E"/><path d="M227.911 235.244h198.636" class="B"/><rect x="172.786" y="220.5" width="40" height="40" rx="4" fill="#f1eaff"/><g clip-path="url(#B)"><path d="M202.231 241.056c0-1.146-.204-2.244-.578-3.26-.256 2.994-1.852 4.531-3.52 3.815-1.562-.671-.509-3.287-.431-4.535.131-2.116-.007-4.539-3.851-6.553 1.597 3.056.185 4.954-1.296 5.07-1.643.128-3.148-1.412-2.593-3.912-1.799 1.325-1.851 3.556-1.296 5 .579 1.504-.023 2.754-1.435 2.893-1.578.156-2.454-1.689-1.646-4.629-1.399 1.647-2.243 3.78-2.243 6.111 0 5.216 4.228 9.444 9.444 9.444s9.445-4.228 9.445-9.444z" fill="#f4900c"/><path d="M198.56 243.832c.082 1.714-1.423 2.385-2.233 2.061-1.17-.468-.856-1.273-1.157-2.94s-1.458-2.823-3.171-3.333c1.25 3.518-.693 4.815-1.711 5.047-1.04.236-2.085-.001-2.204-2.226-1.214 1.207-1.965 2.879-1.965 4.725 0 .205.013.406.031.606a9.41 9.41 0 0 0 6.636 2.728c2.588 0 4.93-1.043 6.636-2.728l.03-.606a6.63 6.63 0 0 0-.892-3.334z" fill="#ffcc4d"/></g><rect x="385.547" y="224" width="41" height="4" rx="2" fill="#eef1f7"/><rect x="160.786" y="208.5" width="283" height="64" rx="7.5" class="B"/><rect x="160.786" y="351.5" width="283" height="64" rx="7.5" class="C"/><path d="M234.583 392.993c-.053-.471-.272-.835-.656-1.094s-.869-.393-1.452-.393c-.418 0-.779.067-1.084.199s-.542.308-.711.537-.248.482-.248.771a1.13 1.13 0 0 0 .169.626 1.53 1.53 0 0 0 .452.443c.189.116.391.213.607.293l.621.189.994.258c.325.08.658.188 1 .324s.658.314.949.537a2.57 2.57 0 0 1 .706.825c.183.328.274.721.274 1.178 0 .577-.149 1.089-.448 1.536s-.724.801-1.287 1.059-1.238.388-2.034.388c-.762 0-1.422-.121-1.978-.363s-.993-.585-1.308-1.029-.489-.978-.522-1.591h1.541c.03.368.149.675.358.92s.482.422.811.542a3.27 3.27 0 0 0 1.088.174c.435 0 .821-.068 1.159-.204s.61-.332.805-.577a1.36 1.36 0 0 0 .293-.87c0-.301-.086-.548-.258-.741s-.399-.351-.691-.477a6.71 6.71 0 0 0-.98-.333l-1.203-.328c-.815-.222-1.461-.549-1.939-.98s-.711-1-.711-1.71c0-.586.16-1.098.478-1.536s.749-.777 1.292-1.019 1.157-.368 1.84-.368c.689 0 1.297.121 1.824.363s.948.575 1.253.999.464.905.478 1.452h-1.482zm6.488 7.661c-.752 0-1.4-.161-1.944-.482s-.957-.781-1.252-1.367-.438-1.281-.438-2.073c0-.783.146-1.472.438-2.069s.706-1.062 1.233-1.397 1.15-.502 1.859-.502c.431 0 .848.071 1.253.214s.767.366 1.089.671.575.701.76 1.188.279 1.073.279 1.765v.527h-6.071v-1.113h4.614c0-.391-.08-.738-.239-1.039s-.382-.546-.671-.721-.62-.264-1.004-.264c-.418 0-.782.103-1.094.308a2.08 2.08 0 0 0-.716.796c-.165.325-.248.678-.248 1.059v.87c0 .51.089.944.268 1.302a1.94 1.94 0 0 0 .761.821 2.26 2.26 0 0 0 1.138.278 2.38 2.38 0 0 0 .771-.119 1.67 1.67 0 0 0 .601-.368 1.59 1.59 0 0 0 .388-.602l1.407.254a2.55 2.55 0 0 1-.606 1.089 2.96 2.96 0 0 1-1.089.721c-.434.169-.93.253-1.487.253zm6.272-4.688v4.534h-1.486v-7.636h1.427v1.243h.094a2.18 2.18 0 0 1 .826-.975c.377-.245.853-.368 1.426-.368.521 0 .977.11 1.368.328s.694.537.909.965.324.956.324 1.586v4.857h-1.487v-4.678c0-.554-.144-.986-.432-1.298s-.685-.472-1.189-.472a1.85 1.85 0 0 0-.919.224 1.6 1.6 0 0 0-.632.656c-.152.285-.229.63-.229 1.034zm9.6 4.683c-.617 0-1.167-.157-1.651-.472s-.858-.771-1.133-1.357-.408-1.298-.408-2.123.138-1.532.413-2.118.659-1.036 1.143-1.347 1.033-.468 1.646-.468c.474 0 .855.08 1.143.239s.517.338.676.547a4.44 4.44 0 0 1 .378.552h.09v-3.784h1.486V400.5h-1.451v-1.188h-.125c-.089.162-.219.348-.388.557s-.394.391-.686.546-.669.234-1.133.234zm.328-1.268c.428 0 .789-.112 1.084-.338s.523-.545.676-.949.234-.875.234-1.412c0-.53-.077-.995-.229-1.392s-.376-.708-.671-.93-.66-.333-1.094-.333c-.447 0-.82.116-1.119.348s-.523.549-.676.95-.224.853-.224 1.357c0 .51.077.969.229 1.377a2.19 2.19 0 0 0 .676.969c.302.236.673.353 1.114.353zm12.293 1.273c-.752 0-1.4-.161-1.944-.482s-.958-.781-1.253-1.367-.437-1.281-.437-2.073c0-.783.146-1.472.437-2.069s.706-1.062 1.233-1.397 1.15-.502 1.86-.502c.431 0 .848.071 1.253.214s.767.366 1.088.671.575.701.761 1.188.278 1.073.278 1.765v.527h-6.07v-1.113h4.614c0-.391-.08-.738-.239-1.039a1.8 1.8 0 0 0-.671-.721c-.285-.176-.62-.264-1.004-.264-.418 0-.783.103-1.094.308a2.08 2.08 0 0 0-.716.796c-.166.325-.249.678-.249 1.059v.87c0 .51.09.944.269 1.302a1.94 1.94 0 0 0 .761.821c.324.185.704.278 1.138.278a2.38 2.38 0 0 0 .771-.119 1.67 1.67 0 0 0 .601-.368 1.6 1.6 0 0 0 .388-.602l1.407.254c-.113.414-.315.777-.607 1.089s-.651.548-1.088.721-.93.253-1.487.253zm4.786-.154v-7.636h1.427v1.243h.094a1.97 1.97 0 0 1 .781-.985c.361-.238.793-.358 1.297-.358.511 0 .938.12 1.283.358s.605.567.77.985h.08c.182-.408.472-.733.87-.975s.872-.368 1.422-.368c.693 0 1.258.217 1.695.651s.661 1.089.661 1.964v5.121h-1.486v-4.982c0-.517-.141-.891-.423-1.123s-.618-.348-1.009-.348c-.484 0-.86.149-1.128.447s-.403.675-.403 1.139v4.867h-1.482v-5.076c0-.414-.129-.747-.387-.999s-.595-.378-1.01-.378c-.281 0-.542.074-.78.224a1.63 1.63 0 0 0-.572.611c-.143.262-.214.565-.214.91v4.708h-1.486zm14.455.169c-.484 0-.921-.089-1.312-.268s-.701-.446-.93-.791-.338-.767-.338-1.268c0-.431.083-.785.248-1.064s.39-.498.672-.661a3.51 3.51 0 0 1 .944-.368 9.35 9.35 0 0 1 1.064-.189l1.114-.129c.285-.036.492-.094.621-.174s.194-.209.194-.388v-.034c0-.435-.123-.771-.368-1.01s-.603-.358-1.084-.358c-.5 0-.895.111-1.183.333s-.482.463-.592.731l-1.397-.318c.166-.464.408-.838.726-1.124s.691-.497 1.109-.626.857-.199 1.317-.199c.305 0 .629.037.97.11s.666.198.964.387.549.459.741.811.289.8.289 1.357v5.071h-1.452v-1.044h-.06c-.096.192-.24.381-.432.567a2.33 2.33 0 0 1-.741.462c-.302.123-.663.184-1.084.184zm.323-1.193c.411 0 .763-.081 1.054-.244s.519-.374.671-.636a1.65 1.65 0 0 0 .234-.85v-.985c-.053.053-.156.103-.308.15a4.79 4.79 0 0 1-.512.114l-.562.084-.457.06a3.67 3.67 0 0 0-.791.184c-.235.086-.424.21-.567.373s-.209.371-.209.636c0 .368.136.647.408.835s.618.279 1.039.279zm5.285 1.024v-7.636h1.487v7.636h-1.487zm.751-8.815c-.258 0-.48-.086-.666-.258s-.273-.385-.273-.627a.83.83 0 0 1 .273-.626c.186-.176.408-.263.666-.263s.479.087.661.263a.82.82 0 0 1 .279.626c0 .242-.093.451-.279.627s-.402.258-.661.258zm4.082-1.367V400.5h-1.486v-10.182h1.486z" class="E"/><path d="M304.444 400.5v-10.182h1.844v4.311h4.718v-4.311h1.85V400.5h-1.85v-4.325h-4.718v4.325h-1.844zm12.396.154c-.484 0-.92-.086-1.308-.258s-.689-.435-.915-.776-.333-.762-.333-1.263c0-.431.08-.787.239-1.069a1.85 1.85 0 0 1 .651-.676c.275-.169.585-.296.93-.383s.707-.154 1.079-.193l1.088-.125c.279-.04.481-.099.607-.179s.194-.21.194-.383v-.029c0-.375-.111-.665-.333-.87s-.542-.309-.96-.309c-.441 0-.79.096-1.049.289s-.427.419-.517.681l-1.68-.239c.132-.464.351-.852.656-1.163s.678-.55 1.119-.706.928-.239 1.461-.239c.368 0 .734.043 1.099.129s.698.229.999.428.544.462.726.8.279.761.279 1.268v5.111h-1.731v-1.049h-.059a2.22 2.22 0 0 1-.463.597c-.195.182-.442.329-.74.442s-.642.164-1.039.164zm.467-1.322c.361 0 .674-.072.94-.214s.469-.338.611-.577.219-.499.219-.78v-.9a.87.87 0 0 1-.289.129c-.132.04-.281.075-.447.104l-.492.08-.423.06a3.13 3.13 0 0 0-.721.179c-.212.083-.379.199-.502.348a.85.85 0 0 0-.184.566c0 .332.121.582.363.751s.55.254.925.254zm5.234 4.032v-10.5h1.77v1.262h.105a3.29 3.29 0 0 1 .392-.591c.169-.212.398-.393.686-.542s.657-.229 1.104-.229c.59 0 1.122.151 1.596.453s.855.74 1.133 1.327.423 1.299.423 2.148c0 .838-.138 1.551-.413 2.138s-.649 1.034-1.123 1.342-1.011.462-1.611.462c-.437 0-.8-.073-1.089-.219s-.52-.321-.696-.527-.306-.406-.402-.591h-.075v4.067h-1.8zm1.765-6.682c0 .494.07.926.209 1.297s.346.662.611.87.594.309.975.309c.398 0 .731-.106.999-.319s.471-.508.607-.879a3.66 3.66 0 0 0 .209-1.278c0-.474-.068-.895-.204-1.263s-.338-.656-.607-.865-.603-.313-1.004-.313c-.385 0-.711.101-.98.303s-.472.486-.611.85-.204.794-.204 1.288zm6.845 6.682v-10.5h1.77v1.262h.105a3.29 3.29 0 0 1 .392-.591c.169-.212.398-.393.686-.542s.657-.229 1.104-.229c.59 0 1.122.151 1.596.453s.855.74 1.133 1.327.423 1.299.423 2.148c0 .838-.137 1.551-.413 2.138s-.649 1.034-1.123 1.342-1.011.462-1.611.462c-.437 0-.8-.073-1.089-.219s-.52-.321-.696-.527-.306-.406-.402-.591h-.075v4.067h-1.8zm1.765-6.682c0 .494.07.926.209 1.297s.346.662.611.87.594.309.975.309c.398 0 .731-.106.999-.319s.471-.508.607-.879a3.66 3.66 0 0 0 .209-1.278c0-.474-.068-.895-.204-1.263s-.338-.656-.607-.865-.603-.313-1.004-.313c-.385 0-.711.101-.98.303s-.472.486-.611.85-.204.794-.204 1.288zm7.704 6.682c-.245 0-.472-.02-.681-.06s-.37-.08-.492-.129l.417-1.402a2.42 2.42 0 0 0 .701.109c.206-.003.387-.068.542-.194s.294-.328.403-.616l.154-.413-2.769-7.795h1.909l1.76 5.767h.08l1.764-5.767h1.914l-3.057 8.561c-.143.404-.331.75-.567 1.039s-.523.514-.865.666-.742.234-1.213.234zm10.22-2.864v-10.182h1.8v3.808h.074c.093-.185.224-.382.393-.591s.398-.393.686-.542.656-.229 1.104-.229c.59 0 1.122.151 1.596.453s.855.74 1.133 1.327.423 1.299.423 2.148c0 .838-.138 1.551-.413 2.138s-.649 1.034-1.123 1.342-1.011.462-1.611.462c-.438 0-.801-.073-1.089-.219s-.52-.321-.696-.527-.307-.406-.403-.591h-.104v1.203h-1.77zm1.765-3.818c0 .494.07.926.209 1.297s.346.662.611.87.594.309.975.309c.397 0 .731-.106.999-.319s.471-.508.607-.879a3.66 3.66 0 0 0 .208-1.278c0-.474-.068-.895-.203-1.263s-.339-.656-.607-.865-.603-.313-1.004-.313c-.385 0-.711.101-.98.303s-.472.486-.611.85-.204.794-.204 1.288zm6.834 3.818v-7.636h1.8v7.636h-1.8zm.905-8.72a1.05 1.05 0 0 1-.736-.284.91.91 0 0 1-.308-.691.9.9 0 0 1 .308-.691 1.04 1.04 0 0 1 .736-.288 1.03 1.03 0 0 1 .736.288c.205.189.308.42.308.691s-.103.499-.308.691a1.04 1.04 0 0 1-.736.284zm2.605 8.72v-7.636h1.745v1.272h.08c.139-.44.378-.78.716-1.019a1.97 1.97 0 0 1 1.168-.363l.333.015a2.21 2.21 0 0 1 .313.035v1.656a1.85 1.85 0 0 0-.363-.07c-.162-.023-.319-.035-.472-.035-.328 0-.623.071-.885.214a1.56 1.56 0 0 0-.611.582c-.149.248-.224.535-.224.86v4.489h-1.8zm9.634-7.636v1.392h-4.389v-1.392h4.389zm-3.306-1.83h1.8v7.169c0 .242.036.428.109.557a.59.59 0 0 0 .299.258c.122.047.258.07.407.07.113 0 .216-.008.309-.025l.218-.045.304 1.407c-.096.034-.234.07-.413.11s-.391.063-.646.069c-.451.014-.857-.054-1.218-.203s-.648-.388-.86-.706-.312-.716-.309-1.194v-7.467zm6.635 4.992v4.474h-1.799v-10.182h1.76v3.843h.089c.179-.431.456-.77.83-1.019s.859-.378 1.442-.378c.53 0 .993.111 1.387.333a2.24 2.24 0 0 1 .915.975c.219.427.328.949.328 1.566v4.862h-1.8v-4.584c0-.514-.132-.913-.397-1.198s-.63-.432-1.104-.432a1.74 1.74 0 0 0-.855.208 1.46 1.46 0 0 0-.587.592c-.139.258-.209.572-.209.94zm9.48 4.608c-.6 0-1.136-.154-1.61-.462s-.849-.756-1.124-1.342-.413-1.3-.413-2.138c0-.849.14-1.565.418-2.148s.661-1.029 1.138-1.327 1.01-.453 1.596-.453c.448 0 .816.076 1.104.229s.517.33.686.542.3.406.393.591h.074v-3.808h1.805V400.5h-1.77v-1.203h-.109c-.093.185-.227.383-.403.591a2.18 2.18 0 0 1-.696.527c-.288.146-.651.219-1.089.219zm.503-1.476c.381 0 .705-.103.974-.309s.472-.498.611-.87.209-.803.209-1.297-.069-.923-.209-1.288a1.83 1.83 0 0 0-.606-.85c-.265-.202-.592-.303-.979-.303-.402 0-.736.104-1.005.313a1.9 1.9 0 0 0-.606.865c-.136.368-.204.789-.204 1.263s.068.903.204 1.278.343.664.611.879.605.319 1 .319zm7.539 1.496a3.19 3.19 0 0 1-1.307-.258c-.385-.176-.69-.435-.915-.776s-.333-.762-.333-1.263c0-.431.08-.787.239-1.069a1.85 1.85 0 0 1 .651-.676c.275-.169.585-.296.93-.383s.707-.154 1.078-.193l1.089-.125c.279-.04.481-.099.607-.179s.194-.21.194-.383v-.029c0-.375-.111-.665-.333-.87s-.542-.309-.96-.309c-.441 0-.79.096-1.049.289s-.428.419-.517.681l-1.68-.239c.132-.464.351-.852.656-1.163a2.86 2.86 0 0 1 1.118-.706c.441-.159.928-.239 1.462-.239.368 0 .734.043 1.099.129s.697.229.999.428.544.462.726.8.278.761.278 1.268v5.111h-1.73v-1.049h-.059a2.22 2.22 0 0 1-.463.597c-.195.182-.442.329-.741.442s-.641.164-1.039.164zm.468-1.322a1.96 1.96 0 0 0 .939-.214c.265-.146.469-.338.612-.577s.219-.499.219-.78v-.9a.87.87 0 0 1-.289.129c-.132.04-.281.075-.447.104l-.492.08-.423.06c-.268.036-.509.096-.721.179s-.379.199-.502.348-.184.334-.184.566c0 .332.121.582.363.751s.55.254.925.254zm6.079 4.032c-.245 0-.472-.02-.681-.06s-.369-.08-.492-.129l.417-1.402a2.42 2.42 0 0 0 .701.109c.206-.003.387-.068.542-.194s.294-.328.403-.616l.154-.413-2.769-7.795h1.909l1.76 5.767h.08l1.765-5.767h1.914l-3.058 8.561c-.142.404-.331.75-.567 1.039s-.523.514-.865.666-.742.234-1.213.234z" class="D"/><g clip-path="url(#C)"><path d="M416.453 390.828c-.049.05-.087.11-.119.176l-.003-.004-4.985 11.229.005.005c-.093.179.062.544.379.861s.681.472.86.379l.005.005 11.229-4.986-.003-.004c.065-.031.125-.068.175-.119.694-.694-.431-2.945-2.514-5.028s-4.334-3.208-5.029-2.514z" fill="#dd2e44"/><path d="M417.064 392.833l-5.593 9.114-.125.282.005.005c-.093.179.062.543.379.861.103.103.21.181.315.247l6.797-8.287-1.778-2.222z" fill="#ea596e"/><path d="M421.514 393.307c2.075 2.077 3.228 4.29 2.573 4.944s-2.868-.497-4.945-2.572-3.228-4.291-2.574-4.946 2.869.498 4.946 2.574z" fill="#a0041e"/><path d="M419.549 393.548a.44.44 0 0 1-.327.096c-.385-.042-.71-.176-.937-.388-.24-.225-.359-.526-.327-.828.057-.53.589-1.016 1.495-.918.352.038.51-.076.515-.13s-.123-.198-.475-.236c-.386-.042-.711-.176-.938-.388-.241-.225-.36-.526-.327-.828.058-.53.589-1.016 1.494-.918.257.028.393-.025.45-.059.046-.028.064-.055.066-.071.005-.053-.122-.198-.476-.236-.244-.027-.421-.245-.393-.49s.244-.42.489-.394c.905.098 1.321.686 1.264 1.216s-.589 1.016-1.495.919c-.257-.028-.391.025-.449.059-.046.028-.065.055-.066.07-.006.054.122.198.476.236.905.098 1.321.686 1.264 1.216s-.589 1.016-1.495.918c-.256-.028-.392.026-.449.059-.047.029-.064.055-.066.071-.006.053.123.198.475.236.244.027.421.246.394.49-.012.122-.074.227-.162.298z" fill="#aa8dd8"/><path d="M424.914 397.658c.876-.247 1.481.144 1.625.657s-.168 1.162-1.044 1.409c-.342.096-.445.26-.431.312s.189.138.53.042c.876-.247 1.481.144 1.625.657s-.168 1.162-1.045 1.409c-.341.096-.444.26-.429.312s.188.138.529.042c.236-.066.482.071.548.307s-.071.482-.308.549c-.876.247-1.481-.144-1.626-.657s.169-1.162 1.046-1.409c.342-.096.445-.259.43-.312s-.188-.139-.529-.043c-.877.248-1.482-.143-1.626-.657s.168-1.161 1.045-1.409c.341-.095.444-.26.429-.311s-.188-.139-.529-.043c-.237.067-.482-.071-.548-.307s.071-.481.308-.548z" fill="#77b255"/><path d="M421.509 396.46c-.13 0-.259-.057-.347-.167-.154-.192-.122-.471.069-.624a7.85 7.85 0 0 1 5.674-1.426c.243.034.412.259.378.502s-.258.414-.504.377a7.05 7.05 0 0 0-4.992 1.241.44.44 0 0 1-.278.097z" fill="#aa8dd8"/><path d="M413.843 394.611a.44.44 0 0 1-.128-.019c-.235-.07-.368-.318-.298-.553.504-1.677.96-4.353.399-5.051-.062-.079-.157-.156-.374-.14-.417.032-.377.912-.377.92.019.245-.165.459-.41.477s-.458-.165-.476-.41c-.046-.613.145-1.794 1.196-1.873.47-.036.86.127 1.135.47 1.053 1.311-.016 5.113-.241 5.863-.058.192-.235.316-.426.316z" fill="#77b255"/><path d="M422.62 392.389c.368 0 .666-.298.666-.667s-.298-.666-.666-.666-.667.298-.667.666.299.667.667.667z" fill="#5c913b"/><path d="M412.175 396.389a.89.89 0 0 0 .889-.889.89.89 0 0 0-.889-.889.89.89 0 0 0-.889.889.89.89 0 0 0 .889.889z" fill="#9266cc"/><g fill="#5c913b"><path d="M425.73 396.833c.368 0 .667-.298.667-.666a.67.67 0 0 0-.667-.667c-.368 0-.667.298-.667.667s.299.666.667.666zm-4 5.333c.368 0 .667-.298.667-.666a.67.67 0 0 0-.667-.667c-.368 0-.667.298-.667.667s.299.666.667.666z"/></g><g fill="#ffcc4d"><path d="M423.731 390.166a.89.89 0 0 0 .889-.888.89.89 0 0 0-.889-.889.89.89 0 0 0-.889.889.89.89 0 0 0 .889.888zm1.999 1.779a.67.67 0 0 0 .667-.667.67.67 0 0 0-.667-.667.67.67 0 0 0-.667.667.67.67 0 0 0 .667.667zm-1.333 1.777c.368 0 .667-.298.667-.667s-.299-.666-.667-.666-.667.298-.667.666a.67.67 0 0 0 .667.667zm-9.777 4.889c.368 0 .666-.299.666-.667s-.298-.667-.666-.667a.67.67 0 0 0-.667.667.67.67 0 0 0 .667.667z"/></g></g><path d="M228.229 366.565v-.883h4.642v.883h-1.798v4.935h-1.045v-4.935h-1.799zm6.44 2.378v2.557h-1.028v-5.818h1.005v2.196h.052c.102-.246.26-.441.474-.583s.491-.215.824-.215a1.59 1.59 0 0 1 .793.19 1.28 1.28 0 0 1 .522.557c.125.244.188.542.188.895v2.778h-1.029v-2.619c0-.294-.075-.522-.227-.685s-.36-.247-.631-.247a1 1 0 0 0-.488.119.84.84 0 0 0-.335.338c-.08.148-.12.327-.12.537zm5.73 2.642c-.438 0-.815-.091-1.134-.273s-.559-.443-.73-.778-.255-.734-.255-1.19c0-.449.085-.843.255-1.182a1.94 1.94 0 0 1 .722-.796c.309-.191.671-.286 1.088-.286a2.2 2.2 0 0 1 .761.13 1.72 1.72 0 0 1 .637.398c.185.18.331.409.437.687s.159.607.159.989v.315h-3.577v-.693h2.591c-.001-.197-.044-.372-.127-.525a.93.93 0 0 0-.35-.367c-.148-.089-.32-.133-.517-.133-.21 0-.395.051-.554.153s-.283.233-.372.398a1.15 1.15 0 0 0-.134.537v.605c0 .254.047.471.14.653a.99.99 0 0 0 .389.415c.167.095.362.142.585.142a1.26 1.26 0 0 0 .406-.062c.122-.044.227-.107.316-.191s.156-.186.201-.309l.961.108c-.061.253-.177.475-.347.664s-.384.334-.648.438-.564.153-.903.153zm3.759-2.642v2.557h-1.029v-4.364h.983v.742h.051a1.26 1.26 0 0 1 .48-.583c.222-.143.496-.215.821-.215.302 0 .564.064.787.193a1.3 1.3 0 0 1 .523.559c.125.245.187.541.185.89v2.778h-1.029v-2.619c0-.292-.075-.52-.227-.685s-.357-.247-.622-.247a.96.96 0 0 0-.48.119.84.84 0 0 0-.327.338c-.078.148-.116.327-.116.537z" class="E"/><path d="M227.911 378.244h199.376" class="B"/><rect x="172.786" y="363.5" width="40" height="40" rx="4" fill="#e6ebff"/><g clip-path="url(#D)"><path d="M195.231 392.667c0 1.35-4.889 1.35-4.889 0v-6.111c0-1.35 1.094-2.445 2.444-2.445s2.445 1.095 2.445 2.445v6.111z" fill="#c1694f"/><path d="M187.898 374.333a4.89 4.89 0 0 0-4.889 4.889v7.333h9.778v-7.333a4.89 4.89 0 0 0-4.889-4.889z" fill="#292f33"/><path d="M194.008 383.965c0 .756-.65 1.369-1.401 1.369h-9.42c-.751 0-1.401-.613-1.401-1.369v-6.43c0-.755.65-1.368 1.401-1.368h9.42c.751 0 1.401.613 1.401 1.368v6.43h0z" fill="#ccd6dd"/><path d="M194.008 377.535c0-.755-.65-1.368-1.401-1.368h-9.42c-.751 0-1.401.613-1.401 1.368v.867l2.982 2.997-2.921 2.937c.068.23.193.438.364.601l3.038-3.054 1.471 1.478c.643.648 1.692.648 2.335 0l1.483-1.486 3.046 3.062c.171-.164.295-.372.364-.601l-2.929-2.944 2.989-2.997v-.86z" fill="#99aab5"/><path d="M192.608 376.167h-9.42c-.713 0-1.327.554-1.389 1.256l5.138 5.131c.531.534 1.392.514 1.922-.021l5.139-5.1c-.057-.707-.675-1.266-1.39-1.266z" fill="#e1e8ed"/><path d="M197.675 374.333h-9.778a4.89 4.89 0 0 1 4.889 4.889v7.333h9.778v-7.333a4.89 4.89 0 0 0-4.889-4.889z" fill="#99aab5"/><path d="M197.675 373.111h-2.444c-.675 0-1.222.548-1.222 1.223v7.333a1.22 1.22 0 1 0 2.444 0v-4.889h1.222c.675 0 1.223-.548 1.223-1.222v-1.222c0-.675-.548-1.223-1.223-1.223z" fill="#dd2e44"/></g><rect x="386.286" y="367" width="41" height="4" rx="2" fill="#eef1f7"/><rect x="160.786" y="351.5" width="283" height="64" rx="7.5" class="B"/><g class="D"><rect x="299.288" y="280.969" width="6" height="6" rx="3"/><path d="M302.633 343.238a.4.4 0 0 1-.693 0l-2.772-4.8a.4.4 0 0 1 .347-.6h5.542a.4.4 0 0 1 .347.6l-2.771 4.8z"/></g><path d="M302.249 286.543v54.186" class="B"/><path d="M202.64 435.484c-15.296-3.66-22.993-14.024-22.993-14.024l8.307-13.638s7.697 10.363 22.993 14.024l-8.307 13.638z" fill="#f2c94c"/><path opacity=".96" d="M440.089 193.236c9.626-.036 15.666-5.141 15.666-5.141l-3.059-9.296s-6.04 5.105-15.666 5.141l3.059 9.296z" fill="#fedf82"/><rect x="-1" y="1" width="419" height="345" rx="7" transform="matrix(-1 0 0 1 510.786 124.404)" stroke="#e1e8f2" stroke-width="2" stroke-dasharray="8 8"/><path d="M427.506 289.985c-5.067 9.901-13.471 13.465-13.471 13.465l-7.988-7.985s8.404-3.564 13.47-13.465l7.989 7.985z" fill="#eb5757"/><path opacity=".82" d="M471.624 372.947c-12.986.501-20.894 7.674-20.894 7.674l4.566 12.398s7.908-7.173 20.894-7.674l-4.566-12.398z" fill="#c6a9ff"/><path opacity=".9" d="M143.446 284.362c6.931-8.939 6.573-18.225 6.573-18.225l-10.82-3.892s.358 9.286-6.573 18.225l10.82 3.892z" fill="#8199fd"/><defs><clipPath id="A"><path transform="translate(115.786 148.309)" d="M0 0h22v22H0z" class="C"/></clipPath><clipPath id="B"><path transform="translate(182.786 230.5)" d="M0 0h20v20H0z" class="C"/></clipPath><clipPath id="C"><path transform="translate(411.286 387.5)" d="M0 0h16v16H0z" class="C"/></clipPath><clipPath id="D"><path transform="translate(181.786 372.5)" d="M0 0h22v22H0z" class="C"/></clipPath></defs></svg>