<svg xmlns="http://www.w3.org/2000/svg" xmlns:xlink="http://www.w3.org/1999/xlink" width="608" height="560" fill="none" xmlns:v="https://vecta.io/nano"><style><![CDATA[.B{stroke:#121212}.C{fill:#c6d5db}.D{fill:#121212}.E{stroke-width:4}.F{fill:#fff}.G{fill:#e1e8ed}.H{fill:#edf1f4}.I{stroke-width:2}.J{fill:#f5f6f8}.K{fill:#636369}.L{stroke:#e1e8f2}.M{stroke-dasharray:8 8}]]></style><g stroke="#97969c" stroke-dasharray="4 4"><path d="M559.504-31.556v78.64m0 544.473v-280.31m0-65.742V97.287M457.312-31.179l.001 402.046m0 220.515V395.539M355.621-31.368v164.793m0 457.954v-81.246m0-293.993v244.395M252.93-31.179v90.743m0 531.81V83.867M150.739-31.366l-.001 373.692m0 249.057V425.4M48.547-31.558V152.27m0 439.102V288.354m0-90.065v72.832"/><path d="M0 487.054h330.227m277.773 0H379.607M0 383.261h112.263m495.737 0H469.346m-278.878 0h254.206M0 175.675h25.672m582.328 0H396.708m-80.708 0H73.358M0 279.468h39.48m568.521 0h-15.322m-65.324 0H57.12M0 71.882h239.558m368.442 0h-25.121m-48.339 0H265.522"/><use xlink:href="#D"/><path d="M559.48 95.8l10.183-13.818L583.48 71.8l-13.817-10.182L559.48 47.8l-10.182 13.818L535.48 71.8l13.818 10.182L559.48 95.8z"/><use xlink:href="#D" x="-307.019" y="-311.504"/><path d="M559.469 311.384l13.576-18.424 18.424-13.576-18.424-13.577-13.576-18.423-13.577 18.423-18.423 13.577 18.423 13.576 13.577 18.424zM150.754 423.29l16.97-23.029 23.03-16.971-23.03-16.971-16.97-23.029-16.971 23.029-23.029 16.971 23.029 16.971 16.971 23.029zm204.867-207.609l16.971-23.03 23.029-16.97-23.029-16.971-16.971-23.029-16.97 23.029-23.03 16.971 23.03 16.97 16.97 23.03z"/><circle r="12" transform="matrix(1 0 0 -1 457.246 383.261)"/><circle r="8" transform="matrix(1 0 0 -1 48.5469 279.468)"/><circle r="12" transform="matrix(1 0 0 -1 252.598 71.8818)"/></g><g transform="matrix(-1 0 0 1 543 65.4043)"><rect x="-2" y="2" width="442" height="151" rx="6" class="D"/><rect x="-2" y="2" width="442" height="151" rx="6" class="B E"/></g><rect x="-2" y="2" width="447" height="144" rx="6" transform="matrix(-1 0 0 1 531 60.4043)" class="J"/><rect x="98.5" y="76.8" width="422" height="38" rx="4" class="F"/><rect x="115.5" y="90.8" width="10" height="10" rx="5" fill="#eb5757"/><rect x="133.5" y="90.8" width="10" height="10" rx="5" fill="#f2c94c"/><rect x="151.5" y="90.8" width="10" height="10" rx="5" fill="#27ae60"/><g fill="#e7edf5"><path d="M494.938 89.8a1 1 0 1 0-2 0h2zm-2 12a1 1 0 1 0 2 0h-2zm0-12v12h2v-12h-2z"/><path d="M499.937 96.8a1 1 0 1 0 .001-2l-.001 2zm-11.999-2a1 1 0 1 0-.001 2l.001-2zm12 0h-12l-.001 2h12l.001-2z"/></g><rect x="-1" y="1" width="419" height="61" rx="7" transform="matrix(-1 0 0 1 518 126.404)" class="J"/><path d="M138.546 163.904v-5.706l-.036-1.854h.18l1.17 1.854 3.744 5.706h2.88v-12.06h-2.7v6.048l.036 1.62h-.18l-1.008-1.62-3.906-6.048h-2.88v12.06h2.7zm14.198.18c2.592 0 4.248-1.134 4.248-3.06v-.18h-2.664v.108c0 .558-.468.792-1.548.792-1.476 0-1.98-.504-2.034-1.764h6.21a8.16 8.16 0 0 0 .126-1.332c0-2.358-1.602-3.978-4.32-3.978-2.826 0-4.554 1.836-4.554 4.734 0 2.862 1.422 4.68 4.536 4.68zm-.072-7.2c1.26 0 1.872.522 1.818 1.458h-3.726c.108-.954.612-1.458 1.908-1.458zm10.825 7.02l1.188-4.302.45-2.376h.198l.45 2.376 1.17 4.302h3.528l2.106-9.054h-2.844l-.63 4.194-.324 2.7h-.18l-.486-2.7-1.116-4.194h-3.438l-1.098 4.176-.504 2.718h-.198l-.342-2.718-.594-4.176h-2.97l2.106 9.054h3.528zm17.071.18c1.674 0 2.592-.738 3.078-1.404h.108v1.224h2.502v-5.364c0-2.412-1.404-3.87-4.068-3.87-2.556 0-4.23 1.422-4.23 3.582v.198h2.574v-.198c0-.918.432-1.224 1.53-1.224 1.062 0 1.638.198 1.638 1.26v.288l-3.096.468c-1.872.288-2.88 1.152-2.88 2.556 0 1.638 1.242 2.484 2.844 2.484zm-.27-2.7c0-.378.252-.558.81-.648l2.592-.396c0 1.404-1.134 1.692-2.232 1.692-.792 0-1.17-.162-1.17-.648zm11.411 2.7c1.584 0 2.538-.72 3.042-1.764h.09v1.584h2.502v-9.054h-2.682v5.13c0 1.368-.558 1.782-1.854 1.782-1.35 0-1.782-.45-1.782-1.71v-5.202h-2.682v5.742c0 1.926.99 3.492 3.366 3.492zm11.933-.144a9.52 9.52 0 0 0 1.764-.18v-2.25h-1.116c-1.17 0-1.44-.09-1.44-.882v-3.546h2.556v-2.232h-2.556v-2.106h-2.124l-.504 2.106h-1.512v2.232h1.44v3.852c0 2.142 1.134 3.006 3.492 3.006zm7.628.144c2.898 0 4.59-1.836 4.59-4.698 0-2.88-1.692-4.716-4.59-4.716-2.916 0-4.644 1.836-4.644 4.716 0 2.862 1.728 4.698 4.644 4.698zm0-2.376c-1.476 0-1.98-.576-1.98-2.322 0-1.764.504-2.34 1.98-2.34 1.458 0 1.962.576 1.962 2.34 0 1.746-.504 2.322-1.962 2.322zm9.044 2.196v-5.238c0-1.278.54-1.674 1.764-1.674 1.296 0 1.692.45 1.692 1.71v5.202h2.7v-5.202c0-1.314.522-1.71 1.746-1.71 1.314 0 1.692.45 1.692 1.71v5.202h2.7v-5.742c0-1.926-.954-3.492-3.294-3.492-1.674 0-2.574.774-3.078 1.764h-.09c-.45-1.062-1.386-1.764-2.934-1.764s-2.484.738-2.97 1.764h-.108v-1.584h-2.502v9.054h2.682zm16.901.18c1.674 0 2.592-.738 3.078-1.404h.108v1.224h2.502v-5.364c0-2.412-1.404-3.87-4.068-3.87-2.556 0-4.23 1.422-4.23 3.582v.198h2.574v-.198c0-.918.432-1.224 1.53-1.224 1.062 0 1.638.198 1.638 1.26v.288l-3.096.468c-1.872.288-2.88 1.152-2.88 2.556 0 1.638 1.242 2.484 2.844 2.484zm-.27-2.7c0-.378.252-.558.81-.648l2.592-.396c0 1.404-1.134 1.692-2.232 1.692-.792 0-1.17-.162-1.17-.648zm12.205 2.556a9.52 9.52 0 0 0 1.764-.18v-2.25h-1.116c-1.17 0-1.44-.09-1.44-.882v-3.546h2.556v-2.232h-2.556v-2.106h-2.124l-.504 2.106h-1.512v2.232h1.44v3.852c0 2.142 1.134 3.006 3.492 3.006zm6.056-10.116v-1.98h-2.682l.036 1.98h2.646zm.054 10.08v-9.054h-2.7v9.054h2.7zm6.259.18c2.898 0 4.59-1.836 4.59-4.698 0-2.88-1.692-4.716-4.59-4.716-2.916 0-4.644 1.836-4.644 4.716 0 2.862 1.728 4.698 4.644 4.698zm0-2.376c-1.476 0-1.98-.576-1.98-2.322 0-1.764.504-2.34 1.98-2.34 1.458 0 1.962.576 1.962 2.34 0 1.746-.504 2.322-1.962 2.322zm9.044 2.196v-5.13c0-1.368.558-1.782 1.854-1.782 1.368 0 1.782.45 1.782 1.71v5.202h2.7v-5.742c0-1.926-1.008-3.492-3.366-3.492-1.584 0-2.556.738-3.042 1.764h-.108v-1.584h-2.502v9.054h2.682zm15.684 0v-6.822h2.016v-2.232h-2.124v-.162c0-.612.324-.828 1.008-.828h1.116v-2.016c-.288-.036-.558-.036-.846-.036-2.412 0-3.69 1.134-3.852 3.042h-1.332v2.232h1.314v6.822h2.7zm5.724 0v-12.06h-2.682v12.06h2.682zm6.442.18c2.898 0 4.59-1.836 4.59-4.698 0-2.88-1.692-4.716-4.59-4.716-2.916 0-4.644 1.836-4.644 4.716 0 2.862 1.728 4.698 4.644 4.698zm0-2.376c-1.476 0-1.98-.576-1.98-2.322 0-1.764.504-2.34 1.98-2.34 1.458 0 1.962.576 1.962 2.34 0 1.746-.504 2.322-1.962 2.322zm10.943 2.196l1.188-4.302.45-2.376h.198l.45 2.376 1.17 4.302h3.528l2.106-9.054h-2.844l-.63 4.194-.324 2.7h-.18l-.486-2.7-1.116-4.194h-3.438l-1.098 4.176-.504 2.718h-.198l-.342-2.718-.594-4.176h-2.97l2.106 9.054h3.528z" fill="#000"/><g clip-path="url(#A)"><path d="M129.167 167.682v1.223h-1.846v-1.223a1.84 1.84 0 0 0-1.846-1.833v-1.833c2.039 0 3.692 1.642 3.692 3.666z" class="C"/><path d="M125.833 165.238c-.105 0-.206.016-.308.031v.585c.995.027 1.795.833 1.795 1.828v1.223h.667v-1.528c0-1.182-.964-2.139-2.154-2.139zm-4 2.444v1.223h1.846v-1.223a1.84 1.84 0 0 1 1.846-1.833v-1.833c-2.039 0-3.692 1.642-3.692 3.666z" class="G"/><path d="M125.218 165.238c.105 0 .206.016.307.031v.585c-.995.027-1.795.833-1.795 1.828v1.222h-.667v-1.527c.001-1.182.965-2.139 2.155-2.139zm3.949-17.111v-1.223h-1.847v1.223a1.84 1.84 0 0 1-1.846 1.833v1.833c2.039 0 3.693-1.642 3.693-3.666z" class="C"/><path d="M125.833 150.571c-.105 0-.206-.016-.308-.031v-.585c.995-.028 1.795-.833 1.795-1.828v-1.223h.667v1.528c0 1.181-.965 2.139-2.154 2.139zm-4-2.444v-1.223h1.846v1.223a1.84 1.84 0 0 0 1.846 1.833v1.833c-2.039 0-3.692-1.642-3.692-3.666z" class="G"/><path d="M125.218 150.571c.105 0 .206-.016.307-.031v-.585c-.994-.028-1.794-.833-1.794-1.828v-1.223h-.667v1.528c0 1.181.965 2.139 2.154 2.139zm.257 2.444v1.834a1.84 1.84 0 0 1 1.846 1.833v2.445a1.84 1.84 0 0 1-1.846 1.833v1.833c2.039 0 3.692-1.642 3.692-3.666v-2.445c0-2.025-1.653-3.667-3.692-3.667z" class="C"/><g class="G"><use xlink:href="#E"/><use xlink:href="#F"/></g><path d="M125.218 154.237c-1.189 0-2.154.958-2.154 2.139v3.056c0 1.181.965 2.139 2.154 2.139.105 0 .206-.016.307-.032v-.584c-.995-.028-1.795-.833-1.795-1.829v-2.444c0-.996.8-1.801 1.795-1.829v-.585c-.101-.015-.201-.031-.307-.031zm-10.743 4.278v1.833a1.84 1.84 0 0 1 1.846 1.834v2.444a1.84 1.84 0 0 1-1.846 1.834v1.833c2.039 0 3.692-1.642 3.692-3.667v-2.444c0-2.025-1.653-3.667-3.692-3.667z" class="C"/><g class="G"><path d="M114.833 159.737c-.105 0-.206.016-.308.031v.585c.995.028 1.795.833 1.795 1.829v2.444c0 .996-.8 1.801-1.795 1.829v.584c.102.016.203.032.308.032 1.19 0 2.154-.958 2.154-2.139v-3.056c.001-1.181-.964-2.139-2.154-2.139z"/><path d="M112.679 162.182a1.84 1.84 0 0 1 1.846-1.833v-1.833c-2.039 0-3.692 1.642-3.692 3.666v2.445c0 2.024 1.653 3.666 3.692 3.666v-1.833a1.84 1.84 0 0 1-1.846-1.833v-2.445z"/></g><path d="M114.218 159.738c-1.189 0-2.154.957-2.154 2.139v3.055c0 1.182.965 2.139 2.154 2.139.105 0 .206-.016.307-.031v-.585c-.994-.028-1.794-.833-1.794-1.828v-2.445c0-.995.8-1.8 1.795-1.828v-.585c-.101-.015-.202-.031-.308-.031zm.257-12.222v1.833a1.84 1.84 0 0 1 1.846 1.833v2.445a1.84 1.84 0 0 1-1.846 1.833v1.833c2.039 0 3.692-1.642 3.692-3.666v-2.445c0-2.024-1.653-3.666-3.692-3.666z" class="C"/><path d="M114.833 148.738c-.105 0-.206.016-.308.031v.585c.995.028 1.795.833 1.795 1.828v2.445c0 .995-.8 1.8-1.795 1.828v.585c.102.015.203.031.308.031 1.189 0 2.153-.957 2.153-2.139v-3.055c.001-1.182-.963-2.139-2.153-2.139zm-2.154 2.444a1.84 1.84 0 0 1 1.846-1.833v-1.833c-2.039 0-3.692 1.642-3.692 3.666v2.445c0 2.024 1.653 3.666 3.692 3.666v-1.833a1.84 1.84 0 0 1-1.846-1.833v-2.445z" class="G"/><path d="M114.218 148.737c-1.189 0-2.154.958-2.154 2.139v3.056c0 1.181.965 2.139 2.154 2.139.105 0 .206-.016.307-.032v-.584c-.994-.028-1.794-.833-1.794-1.829v-2.444c0-.996.8-1.801 1.795-1.829v-.585c-.101-.015-.202-.031-.308-.031zm12.505 18.334c0 .674-.548 1.222-1.223 1.222s-1.222-.548-1.222-1.222v-7.334c0-.674.548-1.222 1.222-1.222s1.223.548 1.223 1.222v7.334z" class="C"/><use xlink:href="#G" class="H"/><use xlink:href="#H" class="C"/><path d="M124.277 148.738v7.333c0 .675.548 1.222 1.223 1.222v-9.777c-.675 0-1.223.547-1.223 1.222z" class="H"/><path d="M115.722 168.905h-2.445v-3.667c0-.675.548-1.222 1.223-1.222s1.222.547 1.222 1.222v3.667z" class="C"/><path d="M114.5 164.016c-.675 0-1.223.547-1.223 1.222v3.667h1.223v-4.889z" class="H"/><path d="M115.722 161.571c0 .675-.548 1.222-1.222 1.222s-1.223-.547-1.223-1.222v-7.333c0-.675.548-1.222 1.223-1.222s1.222.547 1.222 1.222v7.333z" class="C"/><path d="M113.277 154.238v7.333c0 .675.548 1.222 1.223 1.222v-9.777c-.675 0-1.223.547-1.223 1.222z" class="H"/><path d="M115.722 146.904h-2.445v3.667c0 .675.548 1.222 1.223 1.222s1.222-.547 1.222-1.222v-3.667z" class="C"/><path d="M114.5 151.793c-.675 0-1.223-.547-1.223-1.222v-3.667h1.223v4.889z" class="H"/></g><rect x="-1" y="1" width="419" height="61" rx="7" transform="matrix(-1 0 0 1 518 126.404)" class="I L M"/><rect x="-2" y="2" width="447" height="144" rx="6" transform="matrix(-1 0 0 1 531 60.4043)" class="B E"/><g transform="matrix(-1 0 0 1 543 294.979)"><rect x="-2" y="2" width="442" height="112" rx="6" class="D"/><rect x="-2" y="2" width="442" height="112" rx="6" class="B E"/></g><g class="J"><rect x="-2" y="2" width="447" height="108" rx="6" transform="matrix(-1 0 0 1 531 285.979)"/><rect x="-1" y="1" width="421" height="84" rx="7" transform="matrix(-1 0 0 1 519 298.979)"/></g><rect width="329" height="56" rx="6" transform="matrix(-1 0 0 1 507.75 313.729)" class="F"/><rect x="456.75" y="324.729" width="41" height="4" rx="2" fill="#eef1f7"/><path d="M191.068 324.794v-.884h4.642v.884h-1.798v4.935h-1.046v-4.935h-1.798zm4.959 4.935v-4.364h.997v.727h.045c.08-.252.216-.446.409-.582a1.13 1.13 0 0 1 .668-.208l.19.009c.072.004.132.01.179.02v.946a1.06 1.06 0 0 0-.207-.04c-.093-.013-.183-.02-.27-.02-.188 0-.356.041-.506.122s-.264.191-.349.333a.94.94 0 0 0-.128.491v2.566h-1.028zm3.091 0v-4.364h1.029v4.364h-1.029zm.517-4.983a.6.6 0 0 1-.42-.162c-.117-.11-.176-.242-.176-.395s.059-.287.176-.395.258-.165.42-.165a.59.59 0 0 1 .421.165c.117.108.176.239.176.395s-.059.285-.176.395-.256.162-.421.162zm3.387 6.71c-.369 0-.686-.05-.952-.151a1.68 1.68 0 0 1-.639-.398c-.161-.166-.273-.351-.335-.553l.926-.225c.042.085.102.17.182.253s.186.155.321.21a1.34 1.34 0 0 0 .514.085c.292 0 .533-.071.725-.213s.286-.371.286-.693v-.827h-.051c-.053.106-.13.215-.233.327s-.234.206-.4.281-.372.114-.622.114a1.79 1.79 0 0 1-.912-.236c-.271-.159-.487-.396-.648-.71s-.239-.712-.239-1.188.08-.883.239-1.213.378-.582.651-.752.576-.259.912-.259c.255 0 .465.044.63.131s.299.188.398.309a1.74 1.74 0 0 1 .224.338h.057v-.721h1.014v4.435c0 .373-.089.681-.267.926a1.6 1.6 0 0 1-.73.548c-.309.121-.659.182-1.051.182zm.009-2.597c.217 0 .403-.053.556-.159s.27-.258.35-.457a1.94 1.94 0 0 0 .119-.716c0-.275-.04-.515-.119-.722s-.193-.366-.347-.48-.338-.173-.559-.173a.9.9 0 0 0-.574.179c-.154.119-.269.283-.347.491a1.99 1.99 0 0 0-.116.705c0 .267.038.501.116.702s.196.354.35.465a.96.96 0 0 0 .571.165zm4.911 2.597c-.369 0-.686-.05-.952-.151a1.68 1.68 0 0 1-.639-.398c-.161-.166-.273-.351-.335-.553l.926-.225c.042.085.102.17.182.253s.186.155.321.21a1.34 1.34 0 0 0 .514.085c.292 0 .533-.071.725-.213s.286-.371.286-.693v-.827h-.051c-.053.106-.13.215-.233.327s-.234.206-.4.281-.372.114-.622.114a1.79 1.79 0 0 1-.912-.236c-.271-.159-.487-.396-.648-.71s-.239-.712-.239-1.188.08-.883.239-1.213.378-.582.651-.752.576-.259.912-.259c.255 0 .465.044.63.131s.299.188.398.309a1.74 1.74 0 0 1 .224.338h.057v-.721h1.014v4.435c0 .373-.089.681-.267.926a1.6 1.6 0 0 1-.73.548c-.309.121-.659.182-1.051.182zm.009-2.597c.217 0 .403-.053.556-.159s.27-.258.35-.457a1.94 1.94 0 0 0 .119-.716c0-.275-.04-.515-.119-.722s-.193-.366-.347-.48-.338-.173-.559-.173a.9.9 0 0 0-.574.179c-.154.119-.269.283-.347.491a1.99 1.99 0 0 0-.116.705c0 .267.038.501.116.702s.196.354.35.465a.96.96 0 0 0 .571.165zm4.945.955c-.437 0-.815-.091-1.133-.273a1.84 1.84 0 0 1-.73-.778c-.171-.338-.256-.734-.256-1.191 0-.449.085-.843.256-1.182a1.93 1.93 0 0 1 .721-.795c.309-.191.672-.287 1.088-.287a2.21 2.21 0 0 1 .762.131c.24.085.452.218.636.397s.331.41.437.688.16.606.16.989v.315h-3.577v-.693h2.591c-.002-.197-.045-.372-.128-.526s-.2-.277-.35-.366a.98.98 0 0 0-.517-.134 1 1 0 0 0-.554.154 1.06 1.06 0 0 0-.372.397c-.087.163-.131.342-.133.537v.605c0 .254.046.472.139.654s.222.318.389.415.362.142.585.142a1.24 1.24 0 0 0 .407-.063.9.9 0 0 0 .315-.19c.089-.084.156-.187.202-.31l.96.108a1.5 1.5 0 0 1-.347.665c-.168.187-.384.333-.647.437s-.565.154-.904.154zm2.731-.085v-4.364h.997v.727h.045c.08-.252.216-.446.409-.582a1.13 1.13 0 0 1 .668-.208l.19.009c.072.004.132.01.179.02v.946a1.06 1.06 0 0 0-.207-.04c-.093-.013-.183-.02-.27-.02-.188 0-.356.041-.506.122s-.264.191-.349.333a.94.94 0 0 0-.128.491v2.566h-1.028zm6.928.085c-.438 0-.816-.091-1.134-.273s-.56-.443-.73-.778-.256-.734-.256-1.191c0-.449.086-.843.256-1.182s.413-.606.722-.795.671-.287 1.088-.287c.269 0 .522.044.761.131s.453.218.636.397.332.41.438.688.159.606.159.989v.315h-3.577v-.693h2.591c-.002-.197-.044-.372-.128-.526a.93.93 0 0 0-.349-.366c-.148-.089-.32-.134-.517-.134-.21 0-.395.051-.554.154a1.06 1.06 0 0 0-.372.397 1.15 1.15 0 0 0-.134.537v.605c0 .254.047.472.139.654s.223.318.39.415.361.142.585.142c.149 0 .285-.021.406-.063a.9.9 0 0 0 .315-.19c.089-.084.157-.187.202-.31l.96.108c-.06.254-.176.475-.346.665a1.7 1.7 0 0 1-.648.437c-.263.103-.564.154-.903.154zm6.503-4.449l-1.554 4.364h-1.137l-1.554-4.364h1.097l1.003 3.241h.045l1.006-3.241h1.094zm2.415 4.449c-.438 0-.816-.091-1.134-.273s-.559-.443-.73-.778-.256-.734-.256-1.191c0-.449.086-.843.256-1.182s.413-.606.722-.795.671-.287 1.088-.287c.269 0 .522.044.761.131s.453.218.636.397.332.41.438.688.159.606.159.989v.315h-3.577v-.693h2.591c-.002-.197-.044-.372-.128-.526s-.199-.277-.349-.366-.32-.134-.517-.134c-.21 0-.395.051-.554.154a1.06 1.06 0 0 0-.372.397 1.15 1.15 0 0 0-.134.537v.605c0 .254.047.472.14.654a.99.99 0 0 0 .389.415c.166.094.361.142.585.142a1.23 1.23 0 0 0 .406-.063.9.9 0 0 0 .316-.19c.089-.084.156-.187.201-.31l.96.108c-.06.254-.176.475-.346.665a1.7 1.7 0 0 1-.648.437c-.263.103-.564.154-.903.154zm3.759-2.642v2.557h-1.029v-4.364h.983v.741h.051c.101-.244.261-.438.48-.582s.496-.216.821-.216c.301 0 .564.064.787.193a1.3 1.3 0 0 1 .523.56c.125.244.187.541.185.889v2.779h-1.029v-2.62c0-.291-.076-.52-.227-.684s-.357-.248-.622-.248a.95.95 0 0 0-.48.12.82.82 0 0 0-.327.338c-.078.147-.116.326-.116.537zm5.945-1.807v.795h-2.508v-.795h2.508zm-1.889-1.046h1.028v4.097c0 .138.021.244.063.318s.1.121.17.148.148.04.233.04c.065 0 .123-.005.176-.015l.125-.025.174.804c-.055.019-.134.04-.236.062s-.224.036-.369.04a1.68 1.68 0 0 1-.697-.116 1.08 1.08 0 0 1-.491-.404c-.119-.182-.178-.409-.176-.682v-4.267zm5.474 5.41l-1.233-4.364h1.048l.767 3.068h.04l.784-3.068h1.037l.784 3.051h.043l.756-3.051h1.051l-1.236 4.364h-1.071l-.818-2.949h-.06l-.818 2.949h-1.074zm6.743-2.557v2.557h-1.028v-5.819h1.006v2.196h.051a1.26 1.26 0 0 1 .474-.582c.216-.144.491-.216.824-.216.303 0 .567.064.793.19s.399.313.522.557.188.543.188.895v2.779h-1.029v-2.62c0-.293-.075-.522-.227-.684s-.36-.248-.631-.248a.99.99 0 0 0-.488.12c-.142.077-.254.19-.335.338a1.11 1.11 0 0 0-.12.537zm5.73 2.642c-.438 0-.815-.091-1.134-.273s-.559-.443-.73-.778-.255-.734-.255-1.191c0-.449.085-.843.255-1.182a1.94 1.94 0 0 1 .722-.795c.309-.191.671-.287 1.088-.287a2.2 2.2 0 0 1 .761.131 1.73 1.73 0 0 1 .637.397c.185.18.331.41.437.688s.159.606.159.989v.315h-3.576v-.693h2.59c-.001-.197-.044-.372-.127-.526s-.2-.277-.35-.366-.32-.134-.517-.134c-.21 0-.395.051-.554.154a1.06 1.06 0 0 0-.372.397 1.15 1.15 0 0 0-.134.537v.605c0 .254.047.472.14.654a.99.99 0 0 0 .389.415c.167.094.362.142.585.142a1.23 1.23 0 0 0 .406-.063c.122-.043.227-.107.316-.19s.156-.187.201-.31l.961.108a1.5 1.5 0 0 1-.347.665 1.69 1.69 0 0 1-.648.437c-.263.103-.564.154-.903.154zm3.759-2.642v2.557h-1.029v-4.364h.983v.741h.051c.101-.244.261-.438.48-.582s.496-.216.822-.216c.301 0 .563.064.786.193a1.3 1.3 0 0 1 .523.56c.125.244.187.541.185.889v2.779h-1.029v-2.62c0-.291-.075-.52-.227-.684s-.357-.248-.622-.248a.95.95 0 0 0-.48.12c-.138.077-.247.19-.327.338s-.116.326-.116.537z" class="K"/><path d="M190.75 336.229h307" class="B"/><path d="M200.325 351.858h-1.551a2.38 2.38 0 0 0-.333-.875 2.44 2.44 0 0 0-.597-.642c-.235-.175-.498-.308-.79-.397a3.07 3.07 0 0 0-.92-.135c-.586 0-1.112.148-1.576.443s-.825.727-1.094 1.298-.397 1.266-.397 2.088c0 .828.132 1.528.397 2.098s.635 1.001 1.099 1.292.986.438 1.566.438c.322 0 .627-.043.915-.13s.555-.22.791-.392a2.41 2.41 0 0 0 .596-.632c.166-.252.28-.54.343-.865l1.551.005c-.083.501-.243.961-.482 1.382a3.81 3.81 0 0 1-.91 1.084c-.368.302-.789.535-1.263.701s-.991.249-1.551.249c-.881 0-1.667-.209-2.356-.627s-1.233-1.022-1.631-1.804-.592-1.716-.592-2.799.199-2.021.597-2.799.941-1.383 1.631-1.8 1.473-.632 2.351-.632c.541 0 1.044.078 1.512.234s.893.378 1.267.676.685.657.93 1.084.411.91.497 1.457zm6.417 3.704v-4.47h1.491v7.637h-1.462v-1.323h-.079a2.39 2.39 0 0 1-.845 1.019c-.385.269-.864.403-1.437.403-.491 0-.925-.108-1.303-.323s-.669-.542-.885-.97-.318-.956-.318-1.586v-4.857h1.487v4.678c0 .521.144.935.432 1.243s.663.463 1.124.463c.278 0 .555-.07.83-.209s.509-.35.691-.632.277-.639.274-1.073zm9.071-2.606l-1.348.239c-.056-.172-.145-.336-.268-.492s-.282-.283-.487-.383-.463-.149-.771-.149c-.421 0-.772.094-1.054.283s-.422.426-.422.721a.76.76 0 0 0 .283.617c.189.156.494.283.915.383l1.213.278c.702.162 1.226.413 1.571.751s.517.777.517 1.317a2 2 0 0 1-.398 1.223c-.262.355-.628.633-1.099.835s-1.009.304-1.625.304c-.855 0-1.553-.183-2.093-.547a2.31 2.31 0 0 1-.995-1.566l1.437-.219c.09.374.274.658.552.85s.641.283 1.089.283c.487 0 .876-.101 1.168-.303s.438-.456.438-.75a.78.78 0 0 0-.269-.602c-.176-.162-.446-.285-.81-.368l-1.293-.283c-.712-.163-1.239-.421-1.581-.776s-.507-.804-.507-1.347c0-.451.126-.845.378-1.183s.6-.602 1.044-.791.953-.288 1.526-.288c.825 0 1.475.179 1.949.537s.787.83.94 1.426zm5.208-1.864v1.193h-4.171v-1.193h4.171zm-3.053-1.829h1.487v7.223c0 .289.043.506.129.652s.197.24.333.293a1.33 1.33 0 0 0 .453.075c.119 0 .223-.009.313-.025l.209-.04.268 1.228c-.086.033-.209.066-.368.099s-.358.057-.596.06c-.392.007-.756-.063-1.094-.209a1.87 1.87 0 0 1-.82-.676c-.209-.305-.314-.688-.314-1.148v-7.532zm7.692 9.62c-.716 0-1.341-.164-1.874-.493s-.948-.787-1.243-1.377-.443-1.279-.443-2.068.148-1.485.443-2.078a3.31 3.31 0 0 1 1.243-1.382c.533-.328 1.158-.492 1.874-.492s1.34.164 1.874.492a3.31 3.31 0 0 1 1.243 1.382c.295.593.442 1.286.442 2.078s-.147 1.478-.442 2.068-.709 1.049-1.243 1.377-1.158.493-1.874.493zm.005-1.248c.464 0 .848-.123 1.153-.368s.53-.572.676-.98.224-.856.224-1.347-.075-.934-.224-1.342-.371-.741-.676-.99-.689-.372-1.153-.372-.855.124-1.164.372-.532.579-.681.99-.218.855-.218 1.342.072.94.218 1.347.377.735.681.98.696.368 1.164.368zm5.074 1.094v-7.637h1.427v1.243h.094c.159-.421.419-.749.781-.984s.793-.358 1.297-.358c.511 0 .938.119 1.283.358s.605.566.77.984h.08c.182-.408.472-.732.87-.974s.872-.368 1.422-.368c.693 0 1.258.217 1.695.651s.661 1.089.661 1.964v5.121h-1.486v-4.982c0-.517-.141-.892-.423-1.124s-.618-.348-1.009-.348c-.484 0-.86.15-1.128.448s-.403.674-.403 1.138v4.868h-1.482v-5.076c0-.415-.129-.748-.387-1s-.595-.378-1.01-.378c-.281 0-.542.075-.78.224a1.64 1.64 0 0 0-.572.612c-.142.261-.214.565-.214.909v4.709h-1.486zm15.524.154c-.752 0-1.4-.161-1.944-.483s-.958-.78-1.253-1.367-.437-1.281-.437-2.073c0-.782.146-1.472.437-2.068s.706-1.062 1.233-1.397 1.15-.502 1.86-.502a3.75 3.75 0 0 1 1.252.213c.405.143.768.367 1.089.672s.575.701.761 1.188.278 1.072.278 1.765v.527h-6.07v-1.114h4.614c0-.391-.08-.737-.239-1.039s-.383-.545-.671-.721-.62-.263-1.004-.263c-.418 0-.783.102-1.094.308a2.07 2.07 0 0 0-.716.795c-.166.325-.249.678-.249 1.059v.87c0 .511.09.945.269 1.303s.436.631.76.82.705.279 1.139.279c.282 0 .538-.04.77-.12a1.65 1.65 0 0 0 .602-.368c.169-.162.298-.362.388-.601l1.407.253a2.54 2.54 0 0 1-.607 1.089c-.288.308-.651.549-1.089.721s-.929.254-1.486.254zm4.786-.154v-7.637h1.436v1.213h.08a1.84 1.84 0 0 1 .736-.969 2.1 2.1 0 0 1 1.203-.358l.328.01.303.025v1.421c-.059-.016-.165-.034-.318-.054a3.06 3.06 0 0 0-.457-.035 1.94 1.94 0 0 0-.94.224 1.66 1.66 0 0 0-.646.611c-.159.259-.239.554-.239.885v4.664h-1.486zm14.52-5.773l-1.347.239a1.61 1.61 0 0 0-.269-.492c-.119-.156-.281-.283-.487-.383s-.462-.149-.771-.149c-.42 0-.772.094-1.054.283s-.422.426-.422.721a.76.76 0 0 0 .283.617c.189.156.494.283.915.383l1.213.278c.703.162 1.226.413 1.571.751s.517.777.517 1.317c0 .458-.132.865-.398 1.223-.261.355-.628.633-1.098.835s-1.01.304-1.626.304c-.855 0-1.553-.183-2.093-.547s-.872-.89-.994-1.566l1.436-.219c.09.374.274.658.552.85s.642.283 1.089.283c.487 0 .877-.101 1.168-.303s.438-.456.438-.75a.78.78 0 0 0-.269-.602c-.175-.162-.445-.285-.81-.368l-1.293-.283c-.712-.163-1.239-.421-1.581-.776s-.507-.804-.507-1.347c0-.451.126-.845.378-1.183s.6-.602 1.044-.791.953-.288 1.527-.288c.825 0 1.474.179 1.948.537s.788.83.94 1.426zm1.644 5.773v-7.637h1.486v7.637h-1.486zm.75-8.815c-.258 0-.48-.086-.666-.259a.84.84 0 0 1-.273-.626.83.83 0 0 1 .273-.626c.186-.176.408-.264.666-.264a.92.92 0 0 1 .662.264c.185.172.278.381.278.626s-.093.451-.278.626-.403.259-.662.259zm5.798 11.837c-.607 0-1.129-.079-1.566-.238s-.789-.37-1.064-.632-.481-.548-.617-.86l1.278-.527a3.02 3.02 0 0 0 .358.462c.152.166.358.307.616.423s.599.174 1.01.174c.563 0 1.029-.137 1.397-.413.367-.271.551-.706.551-1.302v-1.502h-.094a3.36 3.36 0 0 1-.388.542c-.166.199-.394.372-.686.517s-.671.219-1.138.219c-.604 0-1.147-.141-1.631-.422s-.862-.705-1.144-1.258-.417-1.241-.417-2.053.137-1.509.412-2.089.66-1.024 1.144-1.332 1.032-.467 1.646-.467c.473 0 .856.079 1.148.238s.519.338.681.547a4.4 4.4 0 0 1 .383.552h.109v-1.238h1.457v7.806c0 .656-.153 1.194-.457 1.615s-.718.733-1.238.935-1.101.303-1.75.303zm-.015-4.37c.427 0 .789-.099 1.083-.298s.524-.491.677-.865.233-.83.233-1.357c0-.514-.076-.967-.228-1.358s-.377-.696-.672-.914-.659-.333-1.093-.333c-.448 0-.821.116-1.119.348s-.524.54-.676.934a3.72 3.72 0 0 0-.224 1.323c0 .5.076.939.229 1.317s.378.673.676.885.673.318 1.114.318zm6.8-3.187v4.535h-1.486v-7.637h1.426v1.243h.095a2.18 2.18 0 0 1 .825-.974c.378-.246.854-.368 1.427-.368.52 0 .976.109 1.367.328s.695.537.91.964.323.957.323 1.586v4.858h-1.486v-4.679c0-.553-.145-.986-.433-1.297s-.684-.473-1.188-.473c-.345 0-.651.075-.92.224s-.476.368-.631.656-.229.63-.229 1.034zm10.032 4.689c-.752 0-1.4-.161-1.944-.483s-.958-.78-1.253-1.367-.437-1.281-.437-2.073c0-.782.146-1.472.437-2.068s.706-1.062 1.233-1.397 1.15-.502 1.86-.502a3.75 3.75 0 0 1 1.252.213c.405.143.768.367 1.089.672s.575.701.761 1.188.278 1.072.278 1.765v.527h-6.07v-1.114h4.614c0-.391-.08-.737-.239-1.039s-.383-.545-.671-.721-.62-.263-1.005-.263c-.417 0-.782.102-1.093.308a2.06 2.06 0 0 0-.716.795c-.166.325-.249.678-.249 1.059v.87c0 .511.09.945.269 1.303s.436.631.76.82.705.279 1.139.279c.282 0 .538-.04.77-.12a1.66 1.66 0 0 0 .602-.368c.169-.162.298-.362.388-.601l1.407.253a2.54 2.54 0 0 1-.607 1.089c-.288.308-.651.549-1.089.721s-.929.254-1.486.254zm7.644-.005c-.616 0-1.166-.158-1.65-.473s-.859-.77-1.134-1.357-.408-1.297-.408-2.123.138-1.531.413-2.118.66-1.035 1.144-1.347 1.032-.467 1.645-.467c.474 0 .855.079 1.144.238s.517.338.676.547.288.393.378.552h.089v-3.783h1.487v10.182h-1.452v-1.189h-.124a3.96 3.96 0 0 1-.388.557c-.166.209-.395.391-.686.547s-.67.234-1.134.234zm.328-1.268c.428 0 .789-.113 1.084-.338s.524-.545.676-.95.234-.875.234-1.412c0-.53-.076-.994-.229-1.392s-.376-.707-.671-.929-.66-.333-1.094-.333c-.447 0-.82.116-1.118.348s-.524.548-.676.949-.224.854-.224 1.357c0 .511.076.97.229 1.377s.377.731.676.97.672.353 1.113.353zm13.84-2.048v-4.47h1.491v7.637h-1.462v-1.323h-.079c-.176.408-.457.747-.845 1.019s-.864.403-1.437.403c-.491 0-.925-.108-1.303-.323s-.669-.542-.885-.97-.318-.956-.318-1.586v-4.857h1.487v4.678c0 .521.144.935.432 1.243s.663.463 1.124.463c.278 0 .555-.07.83-.209a1.74 1.74 0 0 0 .691-.632c.186-.281.277-.639.274-1.073zm3.348 6.03v-10.5h1.452v1.238h.124a4.3 4.3 0 0 1 .373-.552 2.12 2.12 0 0 1 .676-.547c.289-.159.67-.238 1.144-.238.616 0 1.167.155 1.65.467s.864.761 1.139 1.347.418 1.293.418 2.118-.138 1.533-.413 2.123-.653 1.039-1.134 1.357-1.029.473-1.645.473c-.464 0-.844-.078-1.139-.234s-.52-.338-.686-.547-.293-.394-.383-.557h-.089v4.052h-1.487zm1.457-6.682c0 .537.078 1.008.234 1.412s.381.721.676.95.656.338 1.084.338c.444 0 .815-.118 1.113-.353s.524-.562.676-.97.234-.866.234-1.377c0-.503-.076-.956-.229-1.357s-.374-.717-.676-.949-.671-.348-1.118-.348c-.431 0-.796.111-1.094.333s-.519.532-.671.929-.229.862-.229 1.392z" class="K"/><path d="M333.533 353.111l-1.641.179c-.046-.166-.128-.322-.244-.468s-.265-.263-.457-.353-.428-.134-.706-.134c-.374 0-.689.081-.945.244s-.376.373-.372.631c-.004.222.077.403.243.542s.448.254.835.343l1.303.278c.723.156 1.259.403 1.611.741s.533.781.537 1.328c-.004.48-.144.904-.423 1.272s-.658.65-1.148.855-1.054.309-1.691.309c-.934 0-1.687-.196-2.257-.587s-.91-.943-1.019-1.646l1.755-.169c.08.345.249.605.507.781s.595.263 1.009.263c.428 0 .771-.087 1.029-.263s.393-.393.393-.651c0-.219-.084-.4-.253-.542s-.425-.252-.776-.328l-1.302-.274c-.733-.152-1.275-.409-1.626-.77s-.525-.826-.522-1.383c-.003-.47.124-.878.383-1.223s.624-.616 1.088-.805 1.006-.288 1.616-.288c.895 0 1.599.19 2.113.571a2.41 2.41 0 0 1 .96 1.547zm1.508 5.618v-7.637h1.799v7.637h-1.799zm.905-8.721a1.05 1.05 0 0 1-.736-.283.91.91 0 0 1-.308-.691.9.9 0 0 1 .308-.691 1.04 1.04 0 0 1 .736-.288c.288 0 .533.096.735.288a.9.9 0 0 1 .309.691c0 .268-.103.499-.309.691s-.447.283-.735.283zm4.405 4.246v4.475h-1.8v-7.637h1.72v1.298h.09c.175-.428.456-.768.84-1.019s.867-.378 1.437-.378c.527 0 .986.112 1.377.338s.699.552.915.979.326.946.323 1.556v4.863h-1.8v-4.584c0-.511-.132-.91-.398-1.198s-.624-.433-1.088-.433a1.68 1.68 0 0 0-.841.209c-.242.136-.432.333-.571.591s-.204.572-.204.94zm9.922 4.624c-.762 0-1.417-.168-1.963-.502s-.963-.798-1.258-1.388-.438-1.276-.438-2.048.149-1.46.448-2.053.719-1.061 1.262-1.392 1.194-.502 1.939-.502c.62 0 1.169.114 1.646.343s.863.545 1.148.959.448.892.488 1.442h-1.721c-.069-.368-.235-.674-.497-.92s-.605-.373-1.039-.373c-.368 0-.691.1-.969.299s-.496.477-.651.845-.229.809-.229 1.322c0 .521.076.968.229 1.343s.366.658.641.86.605.298.979.298a1.64 1.64 0 0 0 .711-.149c.212-.103.39-.25.532-.443s.24-.425.293-.701h1.721c-.043.541-.203 1.02-.478 1.437s-.649.739-1.123.975-1.031.348-1.671.348zm7.99 0c-.765 0-1.427-.159-1.984-.478s-.979-.775-1.277-1.362-.448-1.284-.448-2.083c0-.785.149-1.475.448-2.068a3.37 3.37 0 0 1 1.263-1.392c.54-.335 1.175-.502 1.904-.502.47 0 .914.076 1.332.228a3.04 3.04 0 0 1 1.114.696c.325.315.58.716.765 1.204s.279 1.06.279 1.73v.552h-6.26v-1.214h4.535a1.94 1.94 0 0 0-.224-.919 1.63 1.63 0 0 0-.612-.642c-.258-.155-.56-.233-.904-.233-.368 0-.692.089-.97.268a1.86 1.86 0 0 0-.651.696c-.153.285-.231.598-.234.94v1.059c0 .444.081.825.244 1.143s.389.557.681.726.633.249 1.024.249c.262 0 .499-.037.711-.11s.396-.187.552-.333.273-.326.353-.542l1.68.189c-.106.444-.308.832-.606 1.164s-.673.583-1.134.765-.988.269-1.581.269zm12.232-10.331v10.182h-1.844v-8.388h-.06l-2.381 1.522v-1.691l2.53-1.625h1.755zm8.632 10.316c-.6 0-1.137-.154-1.611-.463s-.848-.755-1.123-1.342-.413-1.299-.413-2.138c0-.848.139-1.564.418-2.147s.661-1.03 1.138-1.328a2.93 2.93 0 0 1 1.596-.452c.447 0 .815.076 1.104.228a2.1 2.1 0 0 1 .686.542 3.26 3.26 0 0 1 .392.592h.075v-3.808h1.805v10.182h-1.77v-1.204h-.11c-.092.186-.227.383-.402.592s-.408.381-.696.527-.652.219-1.089.219zm.502-1.477c.381 0 .706-.103.975-.308a1.93 1.93 0 0 0 .611-.87c.139-.371.209-.804.209-1.298s-.07-.923-.209-1.287-.338-.648-.607-.85-.591-.304-.979-.304c-.401 0-.736.105-1.004.313s-.471.498-.607.866-.204.788-.204 1.262.068.904.204 1.278.343.665.612.88.605.318.999.318zm7.54 1.497c-.484 0-.92-.087-1.308-.259s-.689-.434-.914-.775-.333-.763-.333-1.263c0-.431.079-.787.238-1.069s.376-.507.651-.676a3.29 3.29 0 0 1 .93-.383 7.53 7.53 0 0 1 1.079-.194l1.089-.124c.278-.04.48-.1.606-.179s.194-.211.194-.383v-.03c0-.374-.111-.664-.333-.87s-.542-.308-.959-.308c-.441 0-.791.096-1.049.288a1.42 1.42 0 0 0-.517.681l-1.681-.238c.133-.464.351-.852.656-1.164s.678-.55 1.119-.706.928-.238 1.462-.238a4.76 4.76 0 0 1 1.098.129 3.09 3.09 0 0 1 1 .428c.301.195.543.462.726.8s.278.761.278 1.268v5.111h-1.73v-1.049h-.06a2.19 2.19 0 0 1-.462.596c-.196.182-.443.33-.741.443s-.641.164-1.039.164zm.467-1.323a1.95 1.95 0 0 0 .94-.214c.265-.145.469-.338.611-.576a1.47 1.47 0 0 0 .219-.781v-.9c-.056.047-.152.09-.288.13s-.282.074-.448.104l-.492.08-.422.059c-.269.037-.509.096-.721.179s-.38.199-.502.348-.184.335-.184.567c0 .331.121.582.363.751s.55.253.924.253zm6.08 4.032a3.61 3.61 0 0 1-.681-.06 2.48 2.48 0 0 1-.493-.129l.418-1.402c.262.076.496.113.701.11s.386-.068.542-.194.293-.328.403-.617l.154-.412-2.769-7.796h1.909l1.76 5.767h.079l1.765-5.767h1.914l-3.057 8.561c-.143.405-.332.751-.567 1.039s-.524.514-.865.666-.743.234-1.213.234zm12.338-2.709c-.484 0-.92-.087-1.308-.259s-.689-.434-.915-.775-.333-.763-.333-1.263c0-.431.08-.787.239-1.069s.376-.507.651-.676a3.28 3.28 0 0 1 .93-.383c.348-.09.707-.154 1.079-.194l1.088-.124c.279-.04.481-.1.607-.179s.194-.211.194-.383v-.03c0-.374-.111-.664-.333-.87s-.542-.308-.96-.308c-.441 0-.79.096-1.049.288s-.427.419-.517.681l-1.68-.238c.132-.464.351-.852.656-1.164s.678-.55 1.119-.706a4.28 4.28 0 0 1 1.461-.238c.368 0 .734.043 1.099.129s.698.229.999.428.544.462.726.8.279.761.279 1.268v5.111h-1.731v-1.049h-.059c-.11.212-.264.41-.463.596s-.442.33-.74.443-.642.164-1.039.164zm.467-1.323c.361 0 .674-.071.94-.214s.469-.338.611-.576a1.47 1.47 0 0 0 .219-.781v-.9a.84.84 0 0 1-.288.13c-.133.039-.282.074-.448.104l-.492.08-.423.059c-.268.037-.508.096-.721.179s-.379.199-.502.348-.184.335-.184.567c0 .331.121.582.363.751s.55.253.925.253zm8.555 4.191c-.646 0-1.201-.088-1.665-.263s-.837-.405-1.119-.696-.477-.615-.586-.97l1.62-.392c.073.149.179.296.318.442s.327.272.562.368.539.149.9.149c.511 0 .933-.124 1.268-.373s.502-.649.502-1.213v-1.447h-.089c-.093.186-.229.377-.408.572s-.409.36-.701.492-.651.199-1.089.199c-.587 0-1.119-.137-1.596-.413s-.852-.692-1.133-1.242-.418-1.247-.418-2.079c0-.838.139-1.546.418-2.122s.661-1.02 1.138-1.318a2.93 2.93 0 0 1 1.596-.452c.447 0 .815.076 1.104.228s.523.33.696.542.303.406.393.592h.099v-1.263h1.775v7.761c0 .653-.156 1.193-.468 1.621s-.737.747-1.277.959-1.154.318-1.84.318zm.015-4.544c.381 0 .706-.093.975-.278a1.72 1.72 0 0 0 .611-.801c.139-.348.209-.765.209-1.252 0-.481-.07-.902-.209-1.263s-.338-.642-.606-.84c-.266-.203-.592-.304-.98-.304-.401 0-.736.105-1.004.313s-.471.496-.607.861-.203.772-.203 1.233c0 .467.068.876.203 1.228s.343.619.612.815.605.288.999.288zm8.605 1.671c-.746 0-1.392-.164-1.939-.493s-.971-.787-1.272-1.377-.448-1.279-.448-2.068.149-1.48.448-2.073a3.33 3.33 0 0 1 1.272-1.382c.547-.328 1.193-.492 1.939-.492s1.392.164 1.939.492a3.3 3.3 0 0 1 1.268 1.382c.302.593.452 1.284.452 2.073s-.15 1.478-.452 2.068-.721 1.049-1.268 1.377-1.193.493-1.939.493zm.01-1.442c.405 0 .743-.111 1.014-.333s.474-.527.607-.905a3.71 3.71 0 0 0 .204-1.263c0-.467-.068-.89-.204-1.268s-.335-.684-.607-.909-.609-.338-1.014-.338c-.414 0-.759.112-1.034.338s-.476.528-.611.909-.199.801-.199 1.268.066.885.199 1.263.339.679.611.905.62.333 1.034.333z" class="D"/><rect x="111.25" y="314.229" width="56" height="56" rx="6" fill="#f1eaff"/><g clip-path="url(#B)"><path d="M152.472 343.006a13.2 13.2 0 0 0-.809-4.564c-.358 4.191-2.592 6.344-4.927 5.342-2.187-.94-.714-4.602-.605-6.35.184-2.963-.009-6.354-5.39-9.173 2.236 4.278.259 6.935-1.815 7.097-2.301.18-4.408-1.977-3.63-5.477-2.518 1.856-2.591 4.979-1.814 7 .81 2.106-.033 3.856-2.009 4.051-2.209.217-3.437-2.366-2.305-6.482-1.958 2.306-3.141 5.293-3.141 8.556 0 7.302 5.92 13.222 13.223 13.222s13.222-5.92 13.222-13.222z" fill="#f4900c"/><path d="M147.335 346.895c.115 2.399-1.992 3.339-3.126 2.885-1.638-.656-1.199-1.782-1.62-4.115s-2.042-3.954-4.44-4.667c1.75 4.926-.97 6.741-2.396 7.065-1.456.332-2.919 0-3.086-3.116-1.698 1.691-2.75 4.03-2.75 6.616a9.49 9.49 0 0 0 .043.847c2.388 2.36 5.667 3.819 9.29 3.819s6.903-1.459 9.291-3.819a9.49 9.49 0 0 0 .043-.847c0-1.701-.455-3.295-1.249-4.668z" fill="#ffcc4d"/></g><rect x="-1" y="1" width="421" height="84" rx="7" transform="matrix(-1 0 0 1 519 298.979)" class="I L M"/><rect x="-2" y="2" width="447" height="108" rx="6" transform="matrix(-1 0 0 1 531 285.979)" class="B E"/><g transform="matrix(-1 0 0 1 543 485.553)"><rect x="-2" y="2" width="442" height="112" rx="6" class="D"/><rect x="-2" y="2" width="442" height="112" rx="6" class="B E"/></g><g class="J"><rect x="-2" y="2" width="447" height="108" rx="6" transform="matrix(-1 0 0 1 531 476.553)"/><rect x="-1" y="1" width="421" height="84" rx="7" transform="matrix(-1 0 0 1 519 489.553)"/></g><rect width="329" height="56" rx="6" transform="matrix(-1 0 0 1 507.75 504.303)" class="F"/><rect x="456.75" y="515.303" width="41" height="4" rx="2" fill="#eef1f7"/><path d="M191.068 515.368v-.883h4.642v.883h-1.798v4.935h-1.046v-4.935h-1.798zm6.44 2.378v2.557h-1.028v-5.818h1.005v2.196h.051c.103-.247.261-.441.475-.583s.49-.216.824-.216c.303 0 .567.064.792.191a1.28 1.28 0 0 1 .523.556c.125.245.188.543.188.895v2.779h-1.029v-2.62c0-.293-.076-.521-.227-.684s-.36-.247-.631-.247c-.182 0-.344.039-.488.119a.84.84 0 0 0-.336.338c-.079.148-.119.327-.119.537zm5.73 2.642c-.438 0-.816-.091-1.134-.273s-.559-.443-.73-.778-.256-.734-.256-1.191c0-.448.086-.842.256-1.181s.413-.606.722-.796.671-.287 1.088-.287c.269 0 .522.044.761.131s.453.218.636.398.332.409.438.687.159.606.159.989v.315h-3.577v-.693h2.591c-.002-.197-.044-.372-.128-.526s-.199-.277-.349-.366-.32-.134-.517-.134c-.21 0-.395.052-.554.154s-.283.233-.372.398a1.14 1.14 0 0 0-.134.536v.606a1.42 1.42 0 0 0 .14.653.99.99 0 0 0 .389.415c.166.094.361.142.585.142a1.23 1.23 0 0 0 .406-.063.9.9 0 0 0 .316-.19c.089-.083.156-.187.201-.31l.96.108a1.49 1.49 0 0 1-.346.665 1.7 1.7 0 0 1-.648.438c-.263.102-.564.153-.903.153zm3.759-2.642v2.557h-1.029v-4.364h.983v.742h.051c.101-.245.261-.439.48-.583s.496-.216.821-.216c.301 0 .564.065.787.193a1.3 1.3 0 0 1 .523.56c.125.244.187.541.185.889v2.779h-1.029v-2.62c0-.291-.076-.519-.227-.684s-.357-.247-.622-.247a.95.95 0 0 0-.48.119c-.139.078-.247.19-.327.338s-.116.327-.116.537z" class="K"/><path d="M190.75 526.803h307" class="B"/><path d="M197.422 541.796a1.45 1.45 0 0 0-.656-1.094c-.385-.262-.869-.393-1.452-.393-.418 0-.779.066-1.084.199s-.542.308-.711.537-.248.482-.248.771c0 .241.056.45.169.626a1.5 1.5 0 0 0 .452.442 3.44 3.44 0 0 0 .607.294l.621.189.994.258c.325.08.658.187 1 .323s.658.315.949.537a2.56 2.56 0 0 1 .706.826c.182.328.274.72.274 1.178 0 .577-.15 1.089-.448 1.536s-.724.8-1.287 1.059-1.238.388-2.034.388c-.762 0-1.422-.121-1.979-.363s-.992-.585-1.307-1.029-.489-.978-.522-1.591h1.541c.03.368.149.674.358.92s.482.422.81.541a3.28 3.28 0 0 0 1.089.174c.434 0 .821-.067 1.159-.203s.609-.332.805-.577.293-.539.293-.87c0-.302-.086-.549-.258-.741s-.4-.351-.691-.477-.615-.237-.98-.333l-1.203-.328c-.815-.222-1.461-.549-1.939-.98s-.711-1.001-.711-1.71c0-.587.159-1.099.478-1.536s.749-.777 1.292-1.019 1.157-.368 1.84-.368c.689 0 1.297.121 1.824.363s.948.575 1.253.999.464.905.477 1.452h-1.481zm6.488 7.661c-.752 0-1.4-.161-1.944-.482s-.958-.781-1.252-1.368-.438-1.281-.438-2.073c0-.782.146-1.471.438-2.068s.705-1.062 1.232-1.397 1.151-.502 1.86-.502c.431 0 .848.071 1.253.214a3.02 3.02 0 0 1 1.088.671c.322.305.576.701.761 1.188s.279 1.072.279 1.765v.527h-6.071v-1.114h4.614c0-.391-.08-.737-.239-1.039s-.383-.545-.671-.721-.62-.263-1.004-.263c-.418 0-.782.103-1.094.308s-.547.467-.716.796-.248.677-.248 1.059v.87c0 .51.089.944.268 1.302s.436.632.761.82.704.279 1.138.279a2.38 2.38 0 0 0 .771-.119 1.67 1.67 0 0 0 .601-.368c.169-.163.299-.363.388-.602l1.407.254c-.113.414-.315.777-.606 1.088s-.652.549-1.089.721-.93.254-1.487.254zm6.272-4.688v4.534h-1.486v-7.637h1.427v1.243h.094c.176-.404.451-.729.825-.974s.854-.368 1.427-.368c.521 0 .976.109 1.367.328s.695.537.91.965.323.956.323 1.585v4.858h-1.486v-4.679c0-.553-.144-.986-.433-1.297s-.684-.472-1.188-.472c-.345 0-.651.074-.92.223s-.475.368-.631.657-.229.629-.229 1.034zm9.6 4.683c-.617 0-1.167-.158-1.651-.472-.48-.319-.858-.771-1.133-1.358s-.408-1.297-.408-2.123.137-1.531.413-2.117.659-1.036 1.143-1.348 1.032-.467 1.646-.467c.474 0 .855.079 1.143.239.292.155.517.338.676.546s.289.393.378.552h.09v-3.783h1.486v10.182h-1.452v-1.188h-.124c-.089.162-.219.348-.388.556s-.394.391-.686.547-.669.234-1.133.234zm.328-1.268c.427 0 .789-.113 1.084-.338s.523-.545.676-.95.233-.875.233-1.411-.076-.995-.228-1.392-.376-.708-.671-.93-.66-.333-1.094-.333c-.448 0-.82.116-1.119.348s-.523.548-.676.949-.224.854-.224 1.358c0 .51.077.969.229 1.377s.378.731.676.969.673.353 1.114.353zm12.293 1.273c-.752 0-1.4-.161-1.944-.482s-.958-.781-1.253-1.368-.437-1.281-.437-2.073c0-.782.146-1.471.437-2.068s.706-1.062 1.233-1.397 1.15-.502 1.86-.502c.43 0 .848.071 1.252.214s.768.366 1.089.671.575.701.761 1.188.278 1.072.278 1.765v.527h-6.07v-1.114h4.614c0-.391-.08-.737-.239-1.039s-.383-.545-.671-.721-.62-.263-1.004-.263c-.418 0-.783.103-1.094.308s-.547.467-.716.796a2.29 2.29 0 0 0-.249 1.059v.87c0 .51.09.944.269 1.302s.436.632.76.82.705.279 1.139.279c.282 0 .538-.04.77-.119s.433-.206.602-.368a1.61 1.61 0 0 0 .388-.602l1.407.254c-.113.414-.315.777-.607 1.088a2.92 2.92 0 0 1-1.089.721c-.434.169-.929.254-1.486.254zm4.786-.154v-7.637h1.426v1.243h.095a1.97 1.97 0 0 1 .78-.984c.362-.239.794-.358 1.298-.358.51 0 .938.119 1.283.358s.605.567.77.984h.08c.182-.407.472-.732.87-.974s.872-.368 1.422-.368c.692 0 1.258.217 1.695.651s.661 1.089.661 1.964v5.121h-1.486v-4.982c0-.517-.141-.891-.423-1.123s-.618-.348-1.009-.348c-.484 0-.86.149-1.129.447s-.402.675-.402 1.139v4.867h-1.482v-5.076c0-.415-.129-.748-.388-1s-.595-.377-1.009-.377a1.44 1.44 0 0 0-.78.223 1.64 1.64 0 0 0-.572.612c-.143.262-.214.565-.214.91v4.708h-1.486zm14.455.169c-.484 0-.921-.09-1.313-.269a2.2 2.2 0 0 1-.929-.79c-.226-.345-.338-.767-.338-1.268 0-.431.083-.785.248-1.064a1.84 1.84 0 0 1 .671-.661 3.53 3.53 0 0 1 .945-.368 9.35 9.35 0 0 1 1.064-.189l1.114-.129c.285-.037.492-.095.621-.174s.194-.209.194-.388v-.035c0-.434-.123-.77-.368-1.009s-.603-.358-1.084-.358c-.5 0-.895.111-1.183.333s-.482.463-.592.731l-1.397-.318c.166-.464.408-.839.726-1.124s.691-.497 1.109-.626.857-.199 1.317-.199a4.65 4.65 0 0 1 .97.109c.344.07.666.199.964.388s.549.459.741.81.288.801.288 1.358v5.071h-1.451v-1.044h-.06c-.096.192-.24.381-.432.566s-.44.34-.741.463-.663.184-1.084.184zm.323-1.193c.411 0 .762-.082 1.054-.244s.519-.375.671-.636.234-.549.234-.851v-.984c-.053.053-.156.103-.308.149a5.03 5.03 0 0 1-.512.115l-.562.084-.458.06c-.288.036-.551.098-.79.184s-.424.21-.567.373-.209.371-.209.636c0 .368.136.646.408.835s.618.279 1.039.279zm5.285 1.024v-7.637h1.487v7.637h-1.487zm.751-8.815c-.258 0-.481-.086-.666-.258s-.274-.385-.274-.627a.83.83 0 0 1 .274-.626c.185-.176.408-.264.666-.264s.479.088.661.264a.82.82 0 0 1 .279.626c0 .242-.093.451-.279.627s-.402.258-.661.258zm4.082-1.367v10.182h-1.486v-10.182h1.486z" class="K"/><path d="M269.425 549.303l-2.873-10.182h1.983l1.835 7.482h.094l1.959-7.482h1.805l1.964 7.487h.089l1.835-7.487h1.983l-2.873 10.182h-1.82l-2.038-7.144h-.08l-2.043 7.144h-1.82zm14.335.149c-.765 0-1.427-.159-1.984-.477s-.979-.776-1.277-1.363-.448-1.284-.448-2.083c0-.785.15-1.475.448-2.068s.722-1.06 1.263-1.392 1.175-.502 1.904-.502c.47 0 .914.076 1.332.229s.792.381 1.114.696.58.716.765 1.203.279 1.06.279 1.73v.552h-6.259v-1.213h4.534a1.94 1.94 0 0 0-.224-.92 1.62 1.62 0 0 0-.612-.641c-.258-.156-.56-.234-.904-.234-.368 0-.691.089-.97.268a1.86 1.86 0 0 0-.651.696c-.153.285-.231.599-.234.94v1.059c0 .444.081.825.244 1.143s.389.557.681.726.633.249 1.024.249a2.2 2.2 0 0 0 .711-.109c.212-.077.396-.188.552-.334s.273-.326.353-.541l1.68.188a2.62 2.62 0 0 1-.606 1.164c-.295.328-.673.583-1.134.765s-.988.269-1.581.269zm6.578-10.331v10.182h-1.8v-10.182h1.8zm5.042 10.331c-.763 0-1.417-.167-1.964-.502a3.35 3.35 0 0 1-1.258-1.387c-.292-.594-.437-1.276-.437-2.049s.149-1.46.447-2.053.719-1.06 1.263-1.392 1.193-.502 1.939-.502c.62 0 1.168.114 1.645.343s.864.545 1.149.959.447.892.487 1.442h-1.72c-.07-.368-.236-.674-.497-.919s-.605-.373-1.039-.373c-.368 0-.691.099-.97.298s-.495.477-.651.845-.229.809-.229 1.323c0 .52.076.967.229 1.342s.366.658.641.86.605.298.98.298c.265 0 .502-.049.711-.149s.389-.25.531-.442.241-.426.294-.701h1.72c-.043.54-.202 1.019-.477 1.436a2.82 2.82 0 0 1-1.124.975c-.474.232-1.031.348-1.67.348zm7.94 0c-.746 0-1.392-.164-1.939-.492s-.971-.787-1.273-1.377-.447-1.28-.447-2.069.149-1.479.447-2.073.726-1.054 1.273-1.382 1.193-.492 1.939-.492 1.392.164 1.939.492.969.789 1.267 1.382.453 1.285.453 2.073-.151 1.479-.453 2.069-.72 1.049-1.267 1.377-1.194.492-1.939.492zm.01-1.442c.404 0 .742-.111 1.014-.333s.474-.527.606-.905a3.71 3.71 0 0 0 .204-1.263c0-.467-.068-.89-.204-1.267s-.334-.685-.606-.91-.61-.338-1.014-.338c-.415 0-.759.112-1.034.338s-.476.528-.612.91-.199.8-.199 1.267.067.885.199 1.263a2.04 2.04 0 0 0 .612.905c.275.222.619.333 1.034.333zm5.036 1.293v-7.637h1.721v1.298h.089c.159-.438.423-.779.791-1.024s.807-.373 1.317-.373c.517 0 .953.126 1.308.378s.609.588.755 1.019h.08c.169-.424.454-.762.855-1.014s.883-.383 1.437-.383c.702 0 1.276.222 1.72.666s.666 1.092.666 1.944v5.126H317.3v-4.848c0-.474-.126-.82-.378-1.039s-.56-.333-.924-.333c-.434 0-.774.136-1.019.408s-.363.618-.363 1.049v4.763h-1.765v-4.922c0-.395-.12-.709-.358-.945s-.544-.353-.925-.353a1.31 1.31 0 0 0-.706.199c-.212.129-.381.313-.507.552a1.72 1.72 0 0 0-.189.825v4.644h-1.8zm15.805.149c-.765 0-1.426-.159-1.983-.477a3.23 3.23 0 0 1-1.278-1.363c-.298-.59-.447-1.284-.447-2.083 0-.785.149-1.475.447-2.068s.723-1.06 1.263-1.392 1.175-.502 1.904-.502c.471 0 .915.076 1.332.229s.793.381 1.114.696.58.716.766 1.203.278 1.06.278 1.73v.552h-6.259v-1.213h4.534a1.93 1.93 0 0 0-.224-.92 1.62 1.62 0 0 0-.611-.641c-.259-.156-.56-.234-.905-.234-.368 0-.691.089-.97.268a1.86 1.86 0 0 0-.651.696 2.02 2.02 0 0 0-.234.94v1.059c0 .444.082.825.244 1.143a1.74 1.74 0 0 0 .681.726c.292.166.633.249 1.024.249a2.2 2.2 0 0 0 .711-.109c.212-.077.396-.188.552-.334s.274-.326.353-.541l1.681.188c-.107.445-.309.832-.607 1.164s-.673.583-1.134.765-.987.269-1.581.269zm10.309.005c-.484 0-.92-.086-1.308-.259s-.689-.434-.915-.775-.333-.763-.333-1.263c0-.431.08-.787.239-1.069s.376-.507.651-.676a3.28 3.28 0 0 1 .93-.383 7.67 7.67 0 0 1 1.079-.194l1.089-.124c.278-.04.48-.099.606-.179s.194-.21.194-.383v-.03c0-.374-.111-.664-.333-.87s-.542-.308-.96-.308c-.44 0-.79.096-1.049.288a1.44 1.44 0 0 0-.517.682l-1.68-.239c.132-.464.351-.852.656-1.163s.678-.551 1.119-.706c.441-.16.928-.239 1.461-.239a4.77 4.77 0 0 1 1.099.129c.365.086.698.229.999.428s.544.462.726.8.279.761.279 1.268v5.111h-1.73v-1.049h-.06c-.109.212-.264.411-.462.596s-.443.33-.741.443-.642.164-1.039.164zm.467-1.323c.361 0 .675-.071.94-.213s.469-.338.611-.577a1.47 1.47 0 0 0 .219-.781v-.899c-.056.046-.153.089-.288.129a4.09 4.09 0 0 1-.448.104l-.492.08-.423.059c-.268.037-.508.097-.72.179a1.2 1.2 0 0 0-.503.348c-.122.146-.184.335-.184.567 0 .332.121.582.363.751s.551.253.925.253zm7.034-3.306v4.475h-1.8v-7.637h1.721v1.298h.089c.176-.428.456-.767.84-1.019s.867-.378 1.437-.378c.527 0 .986.113 1.377.338s.699.552.915.979.326.947.323 1.557v4.862h-1.8v-4.584c0-.51-.132-.91-.397-1.198s-.625-.433-1.089-.433c-.315 0-.595.07-.84.209s-.433.333-.572.592-.204.571-.204.939zm9.425 4.609a2.89 2.89 0 0 1-1.61-.462c-.474-.309-.849-.756-1.124-1.343s-.413-1.299-.413-2.138c0-.848.14-1.564.418-2.147s.661-1.029 1.139-1.328 1.009-.452 1.595-.452c.448 0 .816.076 1.104.229s.517.329.686.542.3.406.393.591h.074v-3.808h1.805v10.182h-1.77V548.1h-.109c-.093.185-.227.382-.403.591s-.407.381-.696.527-.651.219-1.089.219zm.503-1.477c.381 0 .706-.102.974-.308a1.93 1.93 0 0 0 .611-.87c.14-.371.209-.804.209-1.297s-.069-.924-.209-1.288-.338-.648-.606-.85-.592-.303-.979-.303c-.401 0-.736.104-1.005.313a1.9 1.9 0 0 0-.606.865c-.136.368-.204.789-.204 1.263s.068.903.204 1.277.343.665.611.88.605.318 1 .318zm17.852-3.748c0 1.097-.205 2.037-.616 2.819s-.965 1.375-1.671 1.789-1.5.622-2.391.622-1.69-.207-2.396-.622-1.26-1.015-1.671-1.794-.611-1.72-.611-2.814.203-2.035.611-2.814.968-1.381 1.671-1.795 1.504-.621 2.396-.621 1.689.207 2.391.621 1.263 1.013 1.671 1.795.616 1.717.616 2.814zm-1.854 0c0-.772-.121-1.424-.363-1.954s-.57-.936-.994-1.208a2.64 2.64 0 0 0-1.467-.413c-.554 0-1.042.138-1.467.413s-.757.674-.999 1.208-.358 1.182-.358 1.954.119 1.425.358 1.959.575.933.999 1.208.913.407 1.467.407 1.042-.135 1.467-.407.755-.678.994-1.208.363-1.187.363-1.959zm5.178.616v4.475h-1.8v-7.637h1.721v1.298h.089c.176-.428.456-.767.84-1.019s.867-.378 1.437-.378c.527 0 .986.113 1.377.338a2.27 2.27 0 0 1 .915.979c.219.428.326.947.323 1.557v4.862h-1.8v-4.584c0-.51-.132-.91-.397-1.198s-.625-.433-1.089-.433c-.315 0-.595.07-.84.209s-.433.333-.572.592-.204.571-.204.939zm6.671 4.475v-10.182h1.8v3.808h.075c.092-.185.223-.383.392-.591s.398-.393.686-.542.657-.229 1.104-.229c.59 0 1.122.151 1.596.452s.855.741 1.133 1.328.423 1.299.423 2.147c0 .839-.138 1.552-.413 2.138s-.649 1.034-1.123 1.343-1.011.462-1.611.462c-.437 0-.8-.073-1.089-.219s-.52-.321-.696-.527-.306-.406-.402-.591h-.105v1.203h-1.77zm1.765-3.818c0 .493.07.926.209 1.297s.346.661.611.87.594.308.975.308c.398 0 .731-.106.999-.318s.471-.509.607-.88a3.65 3.65 0 0 0 .209-1.277c0-.474-.068-.895-.204-1.263s-.338-.656-.607-.865-.603-.313-1.004-.313c-.385 0-.711.101-.98.303s-.472.485-.611.85-.204.794-.204 1.288zm10.165 3.967c-.746 0-1.392-.164-1.939-.492s-.971-.787-1.273-1.377-.447-1.28-.447-2.069.149-1.479.447-2.073.726-1.054 1.273-1.382 1.193-.492 1.939-.492 1.392.164 1.939.492.969.789 1.268 1.382.452 1.285.452 2.073-.151 1.479-.452 2.069-.721 1.049-1.268 1.377-1.193.492-1.939.492zm.01-1.442c.404 0 .742-.111 1.014-.333s.474-.527.607-.905a3.71 3.71 0 0 0 .204-1.263c0-.467-.068-.89-.204-1.267s-.335-.685-.607-.91-.61-.338-1.014-.338c-.414 0-.759.112-1.034.338s-.476.528-.612.91-.199.8-.199 1.267.067.885.199 1.263a2.04 2.04 0 0 0 .612.905c.275.222.62.333 1.034.333zm7.234 1.447a3.17 3.17 0 0 1-1.307-.259c-.385-.175-.69-.434-.915-.775s-.333-.763-.333-1.263c0-.431.079-.787.238-1.069a1.84 1.84 0 0 1 .652-.676c.275-.169.585-.297.929-.383a7.67 7.67 0 0 1 1.079-.194l1.089-.124c.278-.04.48-.099.606-.179a.42.42 0 0 0 .194-.383v-.03c0-.374-.111-.664-.333-.87s-.542-.308-.959-.308c-.441 0-.791.096-1.049.288s-.428.42-.517.682l-1.681-.239c.133-.464.352-.852.656-1.163s.678-.551 1.119-.706c.441-.16.928-.239 1.462-.239a4.76 4.76 0 0 1 1.098.129 3.09 3.09 0 0 1 1 .428c.301.195.543.462.726.8s.278.761.278 1.268v5.111h-1.73v-1.049h-.06c-.109.212-.263.411-.462.596s-.443.33-.741.443-.641.164-1.039.164zm.467-1.323c.362 0 .675-.071.94-.213s.469-.338.612-.577.218-.499.218-.781v-.899c-.056.046-.152.089-.288.129a4.09 4.09 0 0 1-.448.104l-.492.08-.422.059a3.21 3.21 0 0 0-.721.179c-.212.083-.38.199-.502.348s-.184.335-.184.567c0 .332.121.582.363.751s.55.253.924.253zm5.235 1.169v-7.637h1.745v1.273h.079c.139-.441.378-.78.716-1.019a1.97 1.97 0 0 1 1.168-.363l.334.015c.126.007.23.018.313.035v1.655c-.076-.026-.197-.049-.363-.069s-.32-.035-.472-.035a1.81 1.81 0 0 0-.885.214 1.56 1.56 0 0 0-.612.581c-.149.249-.224.536-.224.86v4.49h-1.799zm7.93.134c-.6 0-1.137-.154-1.611-.462s-.848-.756-1.124-1.343-.412-1.299-.412-2.138c0-.848.139-1.564.417-2.147s.662-1.029 1.139-1.328a2.93 2.93 0 0 1 1.596-.452c.447 0 .815.076 1.103.229s.518.329.687.542.3.406.392.591h.075v-3.808h1.805v10.182h-1.77V548.1h-.11c-.092.185-.227.382-.402.591s-.408.381-.696.527-.652.219-1.089.219zm.502-1.477c.381 0 .706-.102.974-.308s.473-.499.612-.87.209-.804.209-1.297-.07-.924-.209-1.288-.338-.648-.607-.85-.591-.303-.979-.303c-.401 0-.736.104-1.004.313s-.471.497-.607.865-.204.789-.204 1.263.068.903.204 1.277a1.99 1.99 0 0 0 .612.88c.271.212.605.318.999.318zm5.342 1.343v-7.637h1.8v7.637h-1.8zm.905-8.72a1.05 1.05 0 0 1-.736-.284c-.205-.192-.308-.422-.308-.691s.103-.502.308-.691a1.04 1.04 0 0 1 .736-.288c.289 0 .534.096.736.288s.308.419.308.691-.103.499-.308.691-.447.284-.736.284zm4.405 4.245v4.475h-1.799v-7.637h1.72v1.298h.089a2.18 2.18 0 0 1 .841-1.019c.387-.252.866-.378 1.436-.378.527 0 .986.113 1.378.338s.699.552.914.979.327.947.323 1.557v4.862h-1.799v-4.584c0-.51-.133-.91-.398-1.198s-.625-.433-1.089-.433c-.315 0-.595.07-.84.209a1.45 1.45 0 0 0-.572.592c-.136.258-.204.571-.204.939zm9.913 7.497c-.646 0-1.201-.087-1.665-.263s-.837-.404-1.119-.696-.477-.615-.587-.97l1.621-.392c.073.149.179.296.318.442s.327.272.562.368.539.149.9.149c.51 0 .933-.124 1.268-.373s.502-.649.502-1.213v-1.446h-.09c-.093.185-.228.376-.407.571s-.41.36-.701.492-.652.199-1.089.199c-.587 0-1.119-.137-1.596-.412s-.852-.693-1.134-1.243-.417-1.246-.417-2.078c0-.839.139-1.546.417-2.123s.662-1.019 1.139-1.318a2.93 2.93 0 0 1 1.596-.452c.447 0 .815.076 1.103.229s.524.329.696.542.304.406.393.591h.1v-1.263h1.775v7.761c0 .653-.156 1.193-.468 1.621s-.737.747-1.277.959-1.154.318-1.84.318zm.015-4.544c.381 0 .706-.092.974-.278s.473-.452.612-.8.209-.766.209-1.253c0-.481-.07-.902-.209-1.263s-.338-.641-.607-.84-.591-.303-.979-.303c-.401 0-.736.104-1.004.313s-.471.495-.607.86a3.48 3.48 0 0 0-.204 1.233c0 .467.068.876.204 1.228s.343.62.612.815.605.288.999.288zm6.383 1.631c-.302 0-.56-.106-.776-.318s-.321-.471-.318-.776a1.02 1.02 0 0 1 .318-.765c.216-.212.474-.318.776-.318.291 0 .545.106.76.318a1.04 1.04 0 0 1 .333.765c-.003.203-.056.386-.159.552a1.14 1.14 0 0 1-.397.398 1.04 1.04 0 0 1-.537.144z" class="D"/><rect x="111.25" y="504.803" width="56" height="56" rx="6" fill="#fbedc3"/><g clip-path="url(#C)"><path d="M142.361 544.469c0 1.718-6.222 1.718-6.222 0v-7.778a3.11 3.11 0 1 1 6.222 0v7.778z" fill="#c1694f"/><path d="M133.028 521.136c-3.436 0-6.222 2.786-6.222 6.222v9.333h12.444v-9.333c0-3.436-2.786-6.222-6.222-6.222z" fill="#292f33"/><path d="M140.806 533.395c0 .961-.829 1.741-1.784 1.741h-11.989c-.955 0-1.783-.78-1.783-1.741v-8.184c0-.961.828-1.741 1.783-1.741h11.989c.955 0 1.784.78 1.784 1.741v8.184h0z" fill="#ccd6dd"/><path d="M140.806 525.211c0-.961-.829-1.741-1.784-1.741h-11.989c-.955 0-1.783.78-1.783 1.741v1.104l3.795 3.814-3.718 3.738a1.74 1.74 0 0 0 .464.765l3.867-3.888 1.872 1.882c.818.824 2.153.824 2.972 0l1.887-1.892 3.876 3.898a1.76 1.76 0 0 0 .464-.765l-3.728-3.747 3.805-3.814v-1.095z" fill="#99aab5"/><path d="M139.022 523.47h-11.988c-.907 0-1.69.704-1.768 1.598l6.539 6.531c.676.68 1.771.653 2.446-.027l6.541-6.491c-.073-.9-.86-1.611-1.77-1.611z" class="G"/><path d="M145.472 521.136h-12.445c3.437 0 6.223 2.786 6.223 6.222v9.333h12.444v-9.333c0-3.436-2.786-6.222-6.222-6.222z" fill="#99aab5"/><path d="M145.472 519.58h-3.111c-.858 0-1.555.697-1.555 1.556v9.333c0 .859.697 1.556 1.555 1.556s1.556-.697 1.556-1.556v-6.222h1.555c.859 0 1.556-.697 1.556-1.556v-1.555c0-.859-.697-1.556-1.556-1.556z" fill="#dd2e44"/></g><rect x="-1" y="1" width="421" height="84" rx="7" transform="matrix(-1 0 0 1 519 489.553)" class="I L M"/><rect x="-2" y="2" width="447" height="108" rx="6" transform="matrix(-1 0 0 1 531 476.553)" class="B E"/><g class="D"><rect x="312.914" y="228.404" width="6" height="6" rx="3"/><use xlink:href="#I"/></g><path d="M315.963 233.979v40" class="B I"/><g class="D"><rect x="312.914" y="418.979" width="6" height="6" rx="3"/><use xlink:href="#I" y="190.574"/></g><path d="M315.963 424.553v40" class="B I"/><defs><clipPath id="A"><path transform="translate(109 146.904)" d="M0 0h22v22H0z" class="F"/></clipPath><clipPath id="B"><path transform="translate(125.25 328.229)" d="M0 0h28v28H0z" class="F"/></clipPath><clipPath id="C"><path transform="translate(125.25 518.803)" d="M0 0h28v28H0z" class="F"/></clipPath><path id="D" d="M355.621 511.034l10.182-13.817 13.818-10.183-13.818-10.182-10.182-13.818-10.182 13.818-13.818 10.182 13.818 10.183 10.182 13.817z"/><path id="E" d="M125.833 154.237c-.105 0-.206.016-.308.031v.585c.995.028 1.795.833 1.795 1.829v2.444c0 .996-.8 1.801-1.795 1.829v.584c.102.016.203.032.308.032 1.19 0 2.154-.958 2.154-2.139v-3.056c.001-1.181-.964-2.139-2.154-2.139z"/><path id="F" d="M123.679 156.682a1.84 1.84 0 0 1 1.846-1.833v-1.833c-2.039 0-3.692 1.642-3.692 3.666v2.445c0 2.024 1.653 3.666 3.692 3.666v-1.833a1.84 1.84 0 0 1-1.846-1.833v-2.445z"/><path id="G" d="M124.277 159.738v7.333c0 .675.548 1.222 1.223 1.222v-9.777c-.675 0-1.223.547-1.223 1.222z"/><path id="H" d="M126.722 156.071c0 .675-.548 1.222-1.222 1.222s-1.223-.547-1.223-1.222v-7.333c0-.675.548-1.222 1.223-1.222s1.222.547 1.222 1.222v7.333z"/><path id="I" d="M316.26 277.379a.4.4 0 0 1-.692 0l-2.772-4.8a.4.4 0 0 1 .347-.6h5.542a.4.4 0 0 1 .347.6l-2.772 4.8z"/></defs></svg>