<svg width="608" height="560" viewBox="0 0 608 560" fill="none" xmlns="http://www.w3.org/2000/svg">
<path d="M48.4961 -31.5557L48.496 47.0839M48.496 591.557L48.496 311.247M48.496 245.505L48.496 97.2869" stroke="#97969C" stroke-dasharray="4 4"/>
<path d="M150.688 -31.1787L150.687 370.867M150.687 591.382L150.687 395.539" stroke="#97969C" stroke-dasharray="4 4"/>
<path d="M252.379 -31.3682L252.379 133.425M252.379 591.379L252.379 510.133M252.379 216.14L252.379 460.535" stroke="#97969C" stroke-dasharray="4 4"/>
<path d="M355.07 -31.1787L355.07 59.5647M355.07 591.375L355.07 83.8671" stroke="#97969C" stroke-dasharray="4 4"/>
<path d="M457.261 -31.3662L457.262 342.326M457.262 591.383L457.262 425.4" stroke="#97969C" stroke-dasharray="4 4"/>
<path d="M559.453 -31.5576L559.453 152.27M559.453 591.372L559.453 288.354M559.453 198.289L559.453 271.121" stroke="#97969C" stroke-dasharray="4 4"/>
<path d="M608 487.054L277.773 487.054M0 487.054L228.393 487.054" stroke="#97969C" stroke-dasharray="4 4"/>
<path d="M608 383.261H495.737M0 383.261L138.654 383.261M417.532 383.261H163.326" stroke="#97969C" stroke-dasharray="4 4"/>
<path d="M608 175.675H582.328M0 175.675L211.292 175.675M292 175.675L534.642 175.675" stroke="#97969C" stroke-dasharray="4 4"/>
<path d="M608 279.468H568.52M0 279.468H15.3224M80.6456 279.468L550.88 279.468" stroke="#97969C" stroke-dasharray="4 4"/>
<path d="M608 71.8818L368.442 71.8818M0 71.8818H25.1209M73.46 71.8818L342.478 71.8818" stroke="#97969C" stroke-dasharray="4 4"/>
<path d="M252.379 511.034L242.197 497.217L228.379 487.034L242.197 476.852L252.379 463.034L262.561 476.852L276.379 487.034L262.561 497.217L252.379 511.034Z" stroke="#97969C" stroke-dasharray="4 4"/>
<path d="M48.5195 95.7998L38.3372 81.9821L24.5195 71.7998L38.3372 61.6175L48.5195 47.7998L58.7019 61.6175L72.5195 71.7998L58.7019 81.9821L48.5195 95.7998Z" stroke="#97969C" stroke-dasharray="4 4"/>
<path d="M559.398 199.53L549.216 185.713L535.398 175.53L549.216 165.348L559.398 151.53L569.581 165.348L583.398 175.53L569.581 185.713L559.398 199.53Z" stroke="#97969C" stroke-dasharray="4 4"/>
<path d="M48.5312 311.384L34.9548 292.96L16.5312 279.384L34.9548 265.807L48.5312 247.384L62.1077 265.807L80.5312 279.384L62.1077 292.96L48.5312 311.384Z" stroke="#97969C" stroke-dasharray="4 4"/>
<path d="M457.246 423.29L440.276 400.261L417.246 383.29L440.276 366.319L457.246 343.29L474.217 366.319L497.246 383.29L474.217 400.261L457.246 423.29Z" stroke="#97969C" stroke-dasharray="4 4"/>
<path d="M252.379 215.681L235.408 192.651L212.379 175.681L235.408 158.71L252.379 135.681L269.349 158.71L292.379 175.681L269.349 192.651L252.379 215.681Z" stroke="#97969C" stroke-dasharray="4 4"/>
<circle cx="150.754" cy="383.261" r="12" transform="rotate(180 150.754 383.261)" stroke="#97969C" stroke-dasharray="4 4"/>
<circle cx="559.453" cy="279.468" r="8" transform="rotate(180 559.453 279.468)" stroke="#97969C" stroke-dasharray="4 4"/>
<circle cx="355.402" cy="71.8818" r="12" transform="rotate(180 355.402 71.8818)" stroke="#97969C" stroke-dasharray="4 4"/>
<rect x="-2" y="2" width="441.955" height="422.315" rx="6" transform="matrix(-1 0 0 1 501.889 73.4053)" fill="#121212"/>
<rect x="-2" y="2" width="441.955" height="422.315" rx="6" transform="matrix(-1 0 0 1 501.889 73.4053)" stroke="#121212" stroke-width="4"/>
<rect x="-2" y="2" width="441.12" height="419.085" rx="6" transform="matrix(-1 0 0 1 520.825 60.4863)" fill="#F5F6F8"/>
<rect x="-2" y="2" width="441.12" height="419.085" rx="6" transform="matrix(-1 0 0 1 520.825 60.4863)" stroke="#121212" stroke-width="4"/>
<rect x="91.7861" y="73.4043" width="422" height="38" rx="4" fill="white"/>
<rect x="108.786" y="87.4043" width="10" height="10" rx="5" fill="#EB5757"/>
<rect x="126.786" y="87.4043" width="10" height="10" rx="5" fill="#F2C94C"/>
<rect x="144.786" y="87.4043" width="10" height="10" rx="5" fill="#27AE60"/>
<path d="M488.224 86.4043C488.224 85.852 487.776 85.4043 487.224 85.4043C486.671 85.4043 486.224 85.852 486.224 86.4043H488.224ZM486.224 98.4043C486.224 98.9566 486.671 99.4043 487.224 99.4043C487.776 99.4043 488.224 98.9566 488.224 98.4043H486.224ZM486.224 86.4043V98.4043H488.224V86.4043H486.224Z" fill="#E7EDF5"/>
<path d="M493.224 93.4043C493.776 93.4043 494.224 92.9566 494.224 92.4043C494.224 91.852 493.776 91.4043 493.224 91.4043L493.224 93.4043ZM481.224 91.4043C480.671 91.4043 480.224 91.852 480.224 92.4043C480.224 92.9566 480.671 93.4043 481.224 93.4043L481.224 91.4043ZM493.224 91.4043L481.224 91.4043L481.224 93.4043L493.224 93.4043L493.224 91.4043Z" fill="#E7EDF5"/>
<rect x="-1" y="1" width="419" height="345" rx="7" transform="matrix(-1 0 0 1 510.786 124.404)" fill="#F5F6F8"/>
<path d="M148.86 165.309C151.614 165.309 153.018 164.031 153.018 161.997C153.018 160.377 152.064 159.153 150.12 159.009V158.829C151.722 158.631 152.532 157.695 152.532 156.255C152.532 154.167 151.146 153.249 148.572 153.249H142.632V165.309H148.86ZM145.332 155.679H148.392C149.382 155.679 149.832 155.877 149.832 156.849C149.832 157.803 149.4 158.019 148.392 158.019H145.332V155.679ZM145.332 160.215H148.77C149.778 160.215 150.3 160.395 150.3 161.565C150.3 162.699 149.76 162.879 148.77 162.879H145.332V160.215ZM157.399 155.229V153.249H154.717L154.753 155.229H157.399ZM157.453 165.309V156.255H154.753V165.309H157.453ZM162.179 165.309V159.639C162.179 158.649 162.575 158.361 163.403 158.361C164.249 158.361 164.555 158.667 164.555 159.639V160.125H167.237V159.297C167.237 157.479 166.535 156.075 164.645 156.075C163.367 156.075 162.557 156.795 162.107 157.713H161.999V156.255H159.497V165.309H162.179ZM173.178 165.345C173.808 165.345 174.51 165.255 174.942 165.165V162.915H173.826C172.656 162.915 172.386 162.825 172.386 162.033V158.487H174.942V156.255H172.386V154.149H170.262L169.758 156.255H168.246V158.487H169.686V162.339C169.686 164.481 170.82 165.345 173.178 165.345ZM179.466 165.309V160.197C179.466 158.829 180.024 158.397 181.32 158.397C182.688 158.397 183.102 158.847 183.102 160.107V165.309H185.802V159.567C185.802 157.641 184.83 156.075 182.49 156.075C181.05 156.075 180.06 156.813 179.574 157.659H179.466V153.249H176.784V165.309H179.466ZM191.471 165.489C192.803 165.489 193.829 164.949 194.297 163.977H194.387V165.309H196.889V153.249H194.207V157.443H194.099C193.685 156.687 192.857 156.075 191.471 156.075C189.005 156.075 187.547 157.929 187.547 160.791C187.547 163.635 188.915 165.489 191.471 165.489ZM190.229 160.791C190.229 159.135 190.661 158.379 192.227 158.379C193.505 158.379 194.207 158.829 194.207 160.053V161.511C194.207 162.735 193.505 163.185 192.227 163.185C190.661 163.185 190.229 162.429 190.229 160.791ZM201.477 165.489C203.151 165.489 204.069 164.751 204.555 164.085H204.663V165.309H207.165V159.945C207.165 157.533 205.761 156.075 203.097 156.075C200.541 156.075 198.867 157.497 198.867 159.657V159.855H201.441V159.657C201.441 158.739 201.873 158.433 202.971 158.433C204.033 158.433 204.609 158.631 204.609 159.693V159.981L201.513 160.449C199.641 160.737 198.633 161.601 198.633 163.005C198.633 164.643 199.875 165.489 201.477 165.489ZM201.207 162.789C201.207 162.411 201.459 162.231 202.017 162.141L204.609 161.745C204.609 163.149 203.475 163.437 202.377 163.437C201.585 163.437 201.207 163.275 201.207 162.789ZM210.634 168.369C212.416 168.369 213.424 167.793 214.198 165.939L218.23 156.255H215.224L213.946 160.035L213.388 161.781H213.19L212.542 160.035L211.066 156.255H208.06L211.858 164.931L211.696 165.273C211.426 165.849 211.174 165.939 210.49 165.939H208.978V168.171C209.356 168.261 210.022 168.369 210.634 168.369ZM226.177 165.489C227.851 165.489 228.769 164.751 229.255 164.085H229.363V165.309H231.865V159.945C231.865 157.533 230.461 156.075 227.797 156.075C225.241 156.075 223.567 157.497 223.567 159.657V159.855H226.141V159.657C226.141 158.739 226.573 158.433 227.671 158.433C228.733 158.433 229.309 158.631 229.309 159.693V159.981L226.213 160.449C224.341 160.737 223.333 161.601 223.333 163.005C223.333 164.643 224.575 165.489 226.177 165.489ZM225.907 162.789C225.907 162.411 226.159 162.231 226.717 162.141L229.309 161.745C229.309 163.149 228.175 163.437 227.077 163.437C226.285 163.437 225.907 163.275 225.907 162.789ZM237.318 165.489C238.902 165.489 239.856 164.769 240.36 163.725H240.45V165.309H242.952V156.255H240.27V161.385C240.27 162.753 239.712 163.167 238.416 163.167C237.066 163.167 236.634 162.717 236.634 161.457V156.255H233.952V161.997C233.952 163.923 234.942 165.489 237.318 165.489ZM249.252 165.345C249.882 165.345 250.584 165.255 251.016 165.165V162.915H249.9C248.73 162.915 248.46 162.825 248.46 162.033V158.487H251.016V156.255H248.46V154.149H246.336L245.832 156.255H244.32V158.487H245.76V162.339C245.76 164.481 246.894 165.345 249.252 165.345ZM256.879 165.489C259.777 165.489 261.469 163.653 261.469 160.791C261.469 157.911 259.777 156.075 256.879 156.075C253.963 156.075 252.235 157.911 252.235 160.791C252.235 163.653 253.963 165.489 256.879 165.489ZM256.879 163.113C255.403 163.113 254.899 162.537 254.899 160.791C254.899 159.027 255.403 158.451 256.879 158.451C258.337 158.451 258.841 159.027 258.841 160.791C258.841 162.537 258.337 163.113 256.879 163.113ZM265.924 165.309V160.071C265.924 158.793 266.464 158.397 267.688 158.397C268.984 158.397 269.38 158.847 269.38 160.107V165.309H272.08V160.107C272.08 158.793 272.602 158.397 273.826 158.397C275.14 158.397 275.518 158.847 275.518 160.107V165.309H278.218V159.567C278.218 157.641 277.264 156.075 274.924 156.075C273.25 156.075 272.35 156.849 271.846 157.839H271.756C271.306 156.777 270.37 156.075 268.822 156.075C267.274 156.075 266.338 156.813 265.852 157.839H265.744V156.255H263.242V165.309H265.924ZM282.825 165.489C284.499 165.489 285.417 164.751 285.903 164.085H286.011V165.309H288.513V159.945C288.513 157.533 287.109 156.075 284.445 156.075C281.889 156.075 280.215 157.497 280.215 159.657V159.855H282.789V159.657C282.789 158.739 283.221 158.433 284.319 158.433C285.381 158.433 285.957 158.631 285.957 159.693V159.981L282.861 160.449C280.989 160.737 279.981 161.601 279.981 163.005C279.981 164.643 281.223 165.489 282.825 165.489ZM282.555 162.789C282.555 162.411 282.807 162.231 283.365 162.141L285.957 161.745C285.957 163.149 284.823 163.437 283.725 163.437C282.933 163.437 282.555 163.275 282.555 162.789ZM294.759 165.345C295.389 165.345 296.091 165.255 296.523 165.165V162.915H295.407C294.237 162.915 293.967 162.825 293.967 162.033V158.487H296.523V156.255H293.967V154.149H291.843L291.339 156.255H289.827V158.487H291.267V162.339C291.267 164.481 292.401 165.345 294.759 165.345ZM300.816 155.229V153.249H298.134L298.17 155.229H300.816ZM300.87 165.309V156.255H298.17V165.309H300.87ZM307.128 165.489C310.026 165.489 311.718 163.653 311.718 160.791C311.718 157.911 310.026 156.075 307.128 156.075C304.212 156.075 302.484 157.911 302.484 160.791C302.484 163.653 304.212 165.489 307.128 165.489ZM307.128 163.113C305.652 163.113 305.148 162.537 305.148 160.791C305.148 159.027 305.652 158.451 307.128 158.451C308.586 158.451 309.09 159.027 309.09 160.791C309.09 162.537 308.586 163.113 307.128 163.113ZM316.172 165.309V160.179C316.172 158.811 316.73 158.397 318.026 158.397C319.394 158.397 319.808 158.847 319.808 160.107V165.309H322.508V159.567C322.508 157.641 321.5 156.075 319.142 156.075C317.558 156.075 316.586 156.813 316.1 157.839H315.992V156.255H313.49V165.309H316.172ZM331.856 165.309V158.487H333.872V156.255H331.748V156.093C331.748 155.481 332.072 155.265 332.756 155.265H333.872V153.249C333.584 153.213 333.314 153.213 333.026 153.213C330.614 153.213 329.336 154.347 329.174 156.255H327.842V158.487H329.156V165.309H331.856ZM337.58 165.309V153.249H334.898V165.309H337.58ZM344.022 165.489C346.92 165.489 348.612 163.653 348.612 160.791C348.612 157.911 346.92 156.075 344.022 156.075C341.106 156.075 339.378 157.911 339.378 160.791C339.378 163.653 341.106 165.489 344.022 165.489ZM344.022 163.113C342.546 163.113 342.042 162.537 342.042 160.791C342.042 159.027 342.546 158.451 344.022 158.451C345.48 158.451 345.984 159.027 345.984 160.791C345.984 162.537 345.48 163.113 344.022 163.113ZM354.966 165.309L356.154 161.007L356.604 158.631H356.802L357.252 161.007L358.422 165.309H361.95L364.056 156.255H361.212L360.582 160.449L360.258 163.149H360.078L359.592 160.449L358.476 156.255H355.038L353.94 160.431L353.436 163.149H353.238L352.896 160.431L352.302 156.255H349.332L351.438 165.309H354.966Z" fill="black"/>
<g clip-path="url(#clip0_351_7207)">
<path d="M135.952 167.253C135.952 168.598 134.852 169.698 133.508 169.698H120.064C118.719 169.698 117.619 168.598 117.619 167.253V156.864C117.619 155.52 118.719 154.42 120.064 154.42H133.508C134.852 154.42 135.952 155.52 135.952 156.864V167.253Z" fill="#FDD888"/>
<path d="M137.786 155.03C137.786 156.375 136.686 157.475 135.342 157.475H118.231C116.886 157.475 115.786 156.375 115.786 155.03C115.786 153.686 116.886 152.586 118.231 152.586H135.342C136.686 152.586 137.786 153.686 137.786 155.03Z" fill="#FDD888"/>
<path d="M117.619 157.476H135.952V158.698H117.619V157.476Z" fill="#FCAB40"/>
<path d="M127.397 150.142H126.175C125.163 150.142 124.342 150.962 124.342 151.975V169.697H129.231V151.975C129.231 150.963 128.41 150.142 127.397 150.142Z" fill="#DA2F47"/>
<path d="M125.564 152.586C126.236 152.586 126.336 152.271 125.784 151.885L121.677 149.009C121.125 148.624 120.402 148.786 120.069 149.369L118.837 151.525C118.503 152.109 118.78 152.586 119.453 152.586H125.564ZM128.008 152.586C127.336 152.586 127.236 152.271 127.788 151.885L131.896 149.009C132.447 148.624 133.17 148.786 133.504 149.369L134.736 151.525C135.069 152.109 134.792 152.586 134.119 152.586H128.008Z" fill="#DA2F47"/>
</g>
<line x1="115.786" y1="185.426" x2="479.932" y2="185.426" stroke="#DFE7F2" stroke-width="2"/>
<rect x="160.786" y="208.5" width="283" height="64" rx="7.5" fill="white"/>
<path d="M237.631 250.754H235.771C235.718 250.449 235.62 250.179 235.478 249.943C235.335 249.705 235.158 249.502 234.946 249.337C234.734 249.171 234.492 249.047 234.22 248.964C233.952 248.878 233.662 248.835 233.35 248.835C232.797 248.835 232.306 248.974 231.878 249.252C231.451 249.527 231.116 249.932 230.874 250.465C230.632 250.996 230.511 251.643 230.511 252.409C230.511 253.188 230.632 253.844 230.874 254.378C231.119 254.908 231.454 255.309 231.878 255.581C232.306 255.849 232.795 255.984 233.345 255.984C233.65 255.984 233.935 255.944 234.2 255.864C234.469 255.781 234.709 255.661 234.921 255.501C235.137 255.342 235.317 255.147 235.463 254.915C235.612 254.683 235.715 254.418 235.771 254.119L237.631 254.129C237.561 254.613 237.41 255.067 237.178 255.491C236.949 255.916 236.65 256.29 236.278 256.615C235.907 256.937 235.473 257.188 234.976 257.371C234.479 257.55 233.927 257.639 233.32 257.639C232.425 257.639 231.627 257.432 230.924 257.018C230.221 256.603 229.668 256.005 229.263 255.223C228.859 254.441 228.657 253.503 228.657 252.409C228.657 251.312 228.861 250.374 229.268 249.595C229.676 248.813 230.231 248.215 230.934 247.8C231.637 247.386 232.432 247.179 233.32 247.179C233.887 247.179 234.414 247.259 234.901 247.418C235.388 247.577 235.823 247.81 236.204 248.119C236.585 248.424 236.898 248.798 237.143 249.242C237.392 249.683 237.554 250.187 237.631 250.754ZM243.967 254.288V249.864H245.767V257.5H244.022V256.143H243.942C243.77 256.57 243.487 256.92 243.092 257.192C242.701 257.464 242.219 257.599 241.646 257.599C241.145 257.599 240.703 257.488 240.318 257.266C239.937 257.041 239.639 256.714 239.423 256.287C239.208 255.856 239.1 255.336 239.1 254.726V249.864H240.9V254.447C240.9 254.931 241.032 255.316 241.298 255.601C241.563 255.886 241.911 256.028 242.342 256.028C242.607 256.028 242.864 255.964 243.112 255.835C243.361 255.705 243.565 255.513 243.724 255.258C243.886 254.999 243.967 254.676 243.967 254.288ZM253.513 251.882L251.873 252.061C251.826 251.895 251.745 251.74 251.629 251.594C251.516 251.448 251.364 251.33 251.172 251.241C250.979 251.151 250.744 251.107 250.466 251.107C250.091 251.107 249.776 251.188 249.521 251.35C249.269 251.513 249.145 251.723 249.148 251.982C249.145 252.204 249.226 252.384 249.392 252.523C249.561 252.663 249.839 252.777 250.227 252.866L251.53 253.145C252.252 253.301 252.789 253.548 253.14 253.886C253.495 254.224 253.674 254.666 253.677 255.213C253.674 255.694 253.533 256.118 253.255 256.486C252.98 256.85 252.597 257.135 252.106 257.341C251.616 257.546 251.052 257.649 250.416 257.649C249.481 257.649 248.729 257.454 248.159 257.062C247.589 256.668 247.249 256.12 247.14 255.417L248.895 255.248C248.974 255.593 249.143 255.853 249.402 256.028C249.66 256.204 249.997 256.292 250.411 256.292C250.839 256.292 251.182 256.204 251.44 256.028C251.702 255.853 251.833 255.636 251.833 255.377C251.833 255.158 251.748 254.978 251.579 254.835C251.414 254.693 251.155 254.583 250.804 254.507L249.501 254.234C248.769 254.081 248.227 253.824 247.875 253.463C247.524 253.098 247.35 252.638 247.353 252.081C247.35 251.61 247.478 251.203 247.736 250.858C247.998 250.51 248.361 250.241 248.825 250.053C249.292 249.86 249.831 249.764 250.441 249.764C251.336 249.764 252.04 249.955 252.554 250.336C253.071 250.717 253.391 251.232 253.513 251.882ZM258.835 249.864V251.256H254.445V249.864H258.835ZM255.528 248.034H257.328V255.203C257.328 255.445 257.365 255.631 257.438 255.76C257.514 255.886 257.613 255.972 257.736 256.018C257.858 256.065 257.994 256.088 258.143 256.088C258.256 256.088 258.359 256.08 258.452 256.063C258.548 256.047 258.621 256.032 258.67 256.018L258.974 257.425C258.878 257.459 258.74 257.495 258.561 257.535C258.385 257.575 258.17 257.598 257.915 257.604C257.464 257.618 257.058 257.55 256.697 257.401C256.335 257.248 256.049 257.013 255.837 256.695C255.628 256.376 255.525 255.979 255.528 255.501V248.034ZM263.449 257.649C262.703 257.649 262.057 257.485 261.51 257.157C260.963 256.829 260.539 256.37 260.237 255.78C259.939 255.19 259.79 254.5 259.79 253.712C259.79 252.923 259.939 252.232 260.237 251.638C260.539 251.045 260.963 250.585 261.51 250.256C262.057 249.928 262.703 249.764 263.449 249.764C264.194 249.764 264.841 249.928 265.388 250.256C265.934 250.585 266.357 251.045 266.655 251.638C266.957 252.232 267.108 252.923 267.108 253.712C267.108 254.5 266.957 255.19 266.655 255.78C266.357 256.37 265.934 256.829 265.388 257.157C264.841 257.485 264.194 257.649 263.449 257.649ZM263.459 256.207C263.863 256.207 264.201 256.096 264.473 255.874C264.745 255.649 264.947 255.347 265.079 254.969C265.215 254.592 265.283 254.171 265.283 253.707C265.283 253.239 265.215 252.817 265.079 252.439C264.947 252.058 264.745 251.754 264.473 251.529C264.201 251.304 263.863 251.191 263.459 251.191C263.044 251.191 262.7 251.304 262.424 251.529C262.153 251.754 261.949 252.058 261.813 252.439C261.68 252.817 261.614 253.239 261.614 253.707C261.614 254.171 261.68 254.592 261.813 254.969C261.949 255.347 262.153 255.649 262.424 255.874C262.7 256.096 263.044 256.207 263.459 256.207ZM268.495 257.5V249.864H270.215V251.161H270.305C270.464 250.724 270.727 250.382 271.095 250.137C271.463 249.888 271.902 249.764 272.413 249.764C272.93 249.764 273.366 249.89 273.72 250.142C274.078 250.391 274.33 250.73 274.476 251.161H274.556C274.725 250.737 275.01 250.399 275.411 250.147C275.815 249.892 276.294 249.764 276.847 249.764C277.55 249.764 278.124 249.986 278.568 250.43C279.012 250.875 279.234 251.522 279.234 252.374V257.5H277.429V252.653C277.429 252.179 277.303 251.832 277.051 251.614C276.799 251.392 276.491 251.281 276.127 251.281C275.692 251.281 275.353 251.416 275.107 251.688C274.865 251.957 274.745 252.306 274.745 252.737V257.5H272.98V252.578C272.98 252.184 272.86 251.869 272.622 251.634C272.386 251.398 272.078 251.281 271.697 251.281C271.438 251.281 271.203 251.347 270.991 251.479C270.779 251.609 270.61 251.793 270.484 252.031C270.358 252.267 270.295 252.542 270.295 252.857V257.5H268.495ZM284.3 257.649C283.535 257.649 282.874 257.49 282.317 257.172C281.763 256.85 281.337 256.396 281.039 255.81C280.741 255.22 280.592 254.525 280.592 253.727C280.592 252.941 280.741 252.252 281.039 251.658C281.341 251.062 281.762 250.598 282.302 250.266C282.842 249.932 283.477 249.764 284.206 249.764C284.677 249.764 285.121 249.84 285.538 249.993C285.959 250.142 286.33 250.374 286.652 250.689C286.977 251.004 287.232 251.405 287.418 251.892C287.603 252.376 287.696 252.953 287.696 253.622V254.174H281.437V252.961H285.971C285.967 252.616 285.893 252.31 285.747 252.041C285.601 251.769 285.397 251.556 285.136 251.4C284.877 251.244 284.575 251.166 284.231 251.166C283.863 251.166 283.54 251.256 283.261 251.435C282.983 251.61 282.766 251.842 282.61 252.131C282.458 252.416 282.38 252.729 282.376 253.07V254.129C282.376 254.573 282.458 254.955 282.62 255.273C282.782 255.588 283.009 255.83 283.301 255.999C283.593 256.164 283.934 256.247 284.325 256.247C284.587 256.247 284.824 256.211 285.036 256.138C285.248 256.062 285.432 255.951 285.588 255.805C285.744 255.659 285.861 255.478 285.941 255.263L287.621 255.452C287.515 255.896 287.313 256.284 287.015 256.615C286.72 256.943 286.342 257.198 285.881 257.381C285.421 257.56 284.894 257.649 284.3 257.649ZM289.079 257.5V249.864H290.824V251.136H290.903C291.042 250.696 291.281 250.356 291.619 250.117C291.96 249.875 292.35 249.754 292.787 249.754C292.887 249.754 292.998 249.759 293.12 249.769C293.246 249.776 293.351 249.787 293.434 249.804V251.46C293.357 251.433 293.236 251.41 293.071 251.39C292.908 251.367 292.751 251.355 292.598 251.355C292.27 251.355 291.975 251.426 291.713 251.569C291.455 251.708 291.251 251.902 291.102 252.151C290.953 252.399 290.878 252.686 290.878 253.011V257.5H289.079ZM300.656 257.634C300.056 257.634 299.519 257.48 299.045 257.172C298.571 256.864 298.196 256.416 297.921 255.83C297.646 255.243 297.509 254.53 297.509 253.692C297.509 252.843 297.648 252.127 297.926 251.544C298.208 250.957 298.588 250.515 299.065 250.217C299.542 249.915 300.074 249.764 300.661 249.764C301.108 249.764 301.476 249.84 301.764 249.993C302.053 250.142 302.281 250.323 302.45 250.535C302.62 250.744 302.75 250.941 302.843 251.126H302.918V247.318H304.723V257.5H302.953V256.297H302.843C302.75 256.482 302.616 256.68 302.441 256.888C302.265 257.094 302.033 257.27 301.745 257.415C301.456 257.561 301.093 257.634 300.656 257.634ZM301.158 256.158C301.539 256.158 301.864 256.055 302.132 255.849C302.401 255.641 302.605 255.351 302.744 254.979C302.883 254.608 302.953 254.176 302.953 253.682C302.953 253.188 302.883 252.759 302.744 252.394C302.608 252.03 302.406 251.746 302.137 251.544C301.872 251.342 301.546 251.241 301.158 251.241C300.757 251.241 300.422 251.345 300.154 251.554C299.885 251.763 299.683 252.051 299.547 252.419C299.411 252.787 299.343 253.208 299.343 253.682C299.343 254.159 299.411 254.585 299.547 254.96C299.686 255.331 299.89 255.624 300.159 255.839C300.43 256.052 300.763 256.158 301.158 256.158ZM308.698 257.654C308.214 257.654 307.778 257.568 307.39 257.396C307.006 257.22 306.701 256.961 306.475 256.62C306.253 256.279 306.142 255.858 306.142 255.357C306.142 254.926 306.222 254.57 306.381 254.288C306.54 254.007 306.757 253.781 307.032 253.612C307.307 253.443 307.617 253.316 307.962 253.229C308.31 253.14 308.67 253.075 309.041 253.036C309.488 252.989 309.851 252.948 310.13 252.911C310.408 252.871 310.61 252.812 310.736 252.732C310.865 252.649 310.93 252.522 310.93 252.349V252.32C310.93 251.945 310.819 251.655 310.597 251.45C310.375 251.244 310.055 251.141 309.637 251.141C309.197 251.141 308.847 251.237 308.588 251.43C308.333 251.622 308.161 251.849 308.071 252.111L306.391 251.872C306.524 251.408 306.742 251.02 307.047 250.709C307.352 250.394 307.725 250.159 308.166 250.003C308.607 249.844 309.094 249.764 309.627 249.764C309.995 249.764 310.362 249.807 310.726 249.893C311.091 249.98 311.424 250.122 311.725 250.321C312.027 250.517 312.269 250.783 312.451 251.121C312.637 251.46 312.73 251.882 312.73 252.389V257.5H311V256.451H310.94C310.831 256.663 310.676 256.862 310.478 257.048C310.282 257.23 310.035 257.377 309.737 257.49C309.442 257.599 309.095 257.654 308.698 257.654ZM309.165 256.332C309.526 256.332 309.84 256.26 310.105 256.118C310.37 255.972 310.574 255.78 310.716 255.541C310.862 255.303 310.935 255.042 310.935 254.761V253.861C310.879 253.907 310.782 253.95 310.647 253.99C310.514 254.03 310.365 254.065 310.199 254.094C310.033 254.124 309.869 254.151 309.707 254.174C309.545 254.197 309.404 254.217 309.284 254.234C309.016 254.27 308.776 254.33 308.564 254.413C308.351 254.496 308.184 254.612 308.061 254.761C307.939 254.906 307.877 255.095 307.877 255.327C307.877 255.659 307.998 255.909 308.24 256.078C308.482 256.247 308.791 256.332 309.165 256.332ZM318.213 249.864V251.256H313.823V249.864H318.213ZM314.906 248.034H316.706V255.203C316.706 255.445 316.743 255.631 316.816 255.76C316.892 255.886 316.991 255.972 317.114 256.018C317.236 256.065 317.372 256.088 317.522 256.088C317.634 256.088 317.737 256.08 317.83 256.063C317.926 256.047 317.999 256.032 318.049 256.018L318.352 257.425C318.256 257.459 318.118 257.495 317.939 257.535C317.763 257.575 317.548 257.598 317.293 257.604C316.842 257.618 316.436 257.55 316.075 257.401C315.714 257.248 315.427 257.013 315.215 256.695C315.006 256.376 314.903 255.979 314.906 255.501V248.034ZM322.876 257.649C322.111 257.649 321.45 257.49 320.893 257.172C320.339 256.85 319.913 256.396 319.615 255.81C319.317 255.22 319.168 254.525 319.168 253.727C319.168 252.941 319.317 252.252 319.615 251.658C319.917 251.062 320.338 250.598 320.878 250.266C321.418 249.932 322.053 249.764 322.782 249.764C323.253 249.764 323.697 249.84 324.114 249.993C324.535 250.142 324.906 250.374 325.228 250.689C325.553 251.004 325.808 251.405 325.994 251.892C326.179 252.376 326.272 252.953 326.272 253.622V254.174H320.013V252.961H324.547C324.544 252.616 324.469 252.31 324.323 252.041C324.177 251.769 323.973 251.556 323.712 251.4C323.453 251.244 323.151 251.166 322.807 251.166C322.439 251.166 322.116 251.256 321.837 251.435C321.559 251.61 321.342 251.842 321.186 252.131C321.034 252.416 320.956 252.729 320.952 253.07V254.129C320.952 254.573 321.034 254.955 321.196 255.273C321.358 255.588 321.585 255.83 321.877 255.999C322.169 256.164 322.51 256.247 322.901 256.247C323.163 256.247 323.4 256.211 323.612 256.138C323.824 256.062 324.008 255.951 324.164 255.805C324.32 255.659 324.437 255.478 324.517 255.263L326.197 255.452C326.091 255.896 325.889 256.284 325.591 256.615C325.296 256.943 324.918 257.198 324.457 257.381C323.997 257.56 323.47 257.649 322.876 257.649ZM334.318 257.649C333.572 257.649 332.926 257.485 332.379 257.157C331.832 256.829 331.408 256.37 331.106 255.78C330.808 255.19 330.659 254.5 330.659 253.712C330.659 252.923 330.808 252.232 331.106 251.638C331.408 251.045 331.832 250.585 332.379 250.256C332.926 249.928 333.572 249.764 334.318 249.764C335.064 249.764 335.71 249.928 336.257 250.256C336.804 250.585 337.227 251.045 337.525 251.638C337.826 252.232 337.977 252.923 337.977 253.712C337.977 254.5 337.826 255.19 337.525 255.78C337.227 256.37 336.804 256.829 336.257 257.157C335.71 257.485 335.064 257.649 334.318 257.649ZM334.328 256.207C334.732 256.207 335.071 256.096 335.342 255.874C335.614 255.649 335.816 255.347 335.949 254.969C336.085 254.592 336.153 254.171 336.153 253.707C336.153 253.239 336.085 252.817 335.949 252.439C335.816 252.058 335.614 251.754 335.342 251.529C335.071 251.304 334.732 251.191 334.328 251.191C333.914 251.191 333.569 251.304 333.294 251.529C333.022 251.754 332.818 252.058 332.682 252.439C332.55 252.817 332.484 253.239 332.484 253.707C332.484 254.171 332.55 254.592 332.682 254.969C332.818 255.347 333.022 255.649 333.294 255.874C333.569 256.096 333.914 256.207 334.328 256.207ZM343.233 249.864V251.256H338.718V249.864H343.233ZM339.847 257.5V249.143C339.847 248.629 339.953 248.201 340.165 247.86C340.381 247.519 340.669 247.263 341.03 247.094C341.392 246.925 341.793 246.841 342.233 246.841C342.545 246.841 342.822 246.866 343.064 246.915C343.306 246.965 343.485 247.01 343.601 247.05L343.243 248.442C343.166 248.419 343.07 248.395 342.954 248.372C342.838 248.346 342.709 248.332 342.566 248.332C342.232 248.332 341.995 248.414 341.856 248.576C341.72 248.735 341.652 248.964 341.652 249.262V257.5H339.847ZM347.914 257.5V247.318H349.714V251.126H349.789C349.881 250.941 350.012 250.744 350.181 250.535C350.35 250.323 350.579 250.142 350.867 249.993C351.156 249.84 351.524 249.764 351.971 249.764C352.561 249.764 353.093 249.915 353.567 250.217C354.044 250.515 354.422 250.957 354.701 251.544C354.982 252.127 355.123 252.843 355.123 253.692C355.123 254.53 354.986 255.243 354.71 255.83C354.435 256.416 354.061 256.864 353.587 257.172C353.113 257.48 352.576 257.634 351.976 257.634C351.539 257.634 351.176 257.561 350.887 257.415C350.599 257.27 350.367 257.094 350.191 256.888C350.019 256.68 349.885 256.482 349.789 256.297H349.684V257.5H347.914ZM349.679 253.682C349.679 254.176 349.749 254.608 349.888 254.979C350.031 255.351 350.234 255.641 350.5 255.849C350.768 256.055 351.093 256.158 351.474 256.158C351.872 256.158 352.205 256.052 352.473 255.839C352.742 255.624 352.944 255.331 353.08 254.96C353.219 254.585 353.289 254.159 353.289 253.682C353.289 253.208 353.221 252.787 353.085 252.419C352.949 252.051 352.747 251.763 352.478 251.554C352.21 251.345 351.875 251.241 351.474 251.241C351.089 251.241 350.763 251.342 350.495 251.544C350.226 251.746 350.022 252.03 349.883 252.394C349.747 252.759 349.679 253.188 349.679 253.682ZM356.513 257.5V249.864H358.313V257.5H356.513ZM357.418 248.78C357.133 248.78 356.888 248.685 356.682 248.496C356.477 248.304 356.374 248.074 356.374 247.805C356.374 247.534 356.477 247.303 356.682 247.114C356.888 246.922 357.133 246.826 357.418 246.826C357.706 246.826 357.952 246.922 358.154 247.114C358.359 247.303 358.462 247.534 358.462 247.805C358.462 248.074 358.359 248.304 358.154 248.496C357.952 248.685 357.706 248.78 357.418 248.78ZM360.024 257.5V249.864H361.769V251.136H361.848C361.987 250.696 362.226 250.356 362.564 250.117C362.905 249.875 363.295 249.754 363.732 249.754C363.832 249.754 363.943 249.759 364.065 249.769C364.191 249.776 364.296 249.787 364.379 249.804V251.46C364.302 251.433 364.181 251.41 364.016 251.39C363.853 251.367 363.696 251.355 363.543 251.355C363.215 251.355 362.92 251.426 362.658 251.569C362.4 251.708 362.196 251.902 362.047 252.151C361.898 252.399 361.823 252.686 361.823 253.011V257.5H360.024ZM369.658 249.864V251.256H365.268V249.864H369.658ZM366.352 248.034H368.151V255.203C368.151 255.445 368.188 255.631 368.261 255.76C368.337 255.886 368.436 255.972 368.559 256.018C368.682 256.065 368.817 256.088 368.967 256.088C369.079 256.088 369.182 256.08 369.275 256.063C369.371 256.047 369.444 256.032 369.494 256.018L369.797 257.425C369.701 257.459 369.563 257.495 369.384 257.535C369.209 257.575 368.993 257.598 368.738 257.604C368.287 257.618 367.881 257.55 367.52 257.401C367.159 257.248 366.872 257.013 366.66 256.695C366.451 256.376 366.348 255.979 366.352 255.501V248.034ZM372.987 253.026V257.5H371.187V247.318H372.947V251.161H373.036C373.215 250.73 373.492 250.391 373.867 250.142C374.244 249.89 374.725 249.764 375.308 249.764C375.839 249.764 376.301 249.875 376.695 250.097C377.09 250.319 377.395 250.644 377.61 251.072C377.829 251.499 377.938 252.021 377.938 252.638V257.5H376.139V252.916C376.139 252.402 376.006 252.003 375.741 251.718C375.479 251.43 375.111 251.286 374.637 251.286C374.319 251.286 374.034 251.355 373.782 251.494C373.533 251.63 373.338 251.827 373.195 252.086C373.056 252.344 372.987 252.658 372.987 253.026Z" fill="#121212"/>
<path d="M228.485 228.5V222.682H232.269V223.565H229.539V225.145H232.073V226.028H229.539V227.616H232.292V228.5H228.485ZM237.117 224.136L235.563 228.5H234.426L232.872 224.136H233.969L234.972 227.378H235.017L236.023 224.136H237.117ZM239.532 228.585C239.094 228.585 238.716 228.494 238.398 228.312C238.082 228.129 237.838 227.869 237.668 227.534C237.498 227.197 237.412 226.8 237.412 226.344C237.412 225.895 237.498 225.501 237.668 225.162C237.84 224.821 238.081 224.556 238.39 224.366C238.698 224.175 239.061 224.08 239.478 224.08C239.747 224.08 240 224.123 240.239 224.21C240.48 224.295 240.692 224.428 240.875 224.608C241.061 224.788 241.207 225.017 241.313 225.295C241.419 225.572 241.472 225.902 241.472 226.284V226.599H237.895V225.906H240.486C240.484 225.709 240.442 225.534 240.358 225.381C240.275 225.225 240.159 225.103 240.009 225.014C239.861 224.925 239.689 224.881 239.492 224.881C239.282 224.881 239.097 224.932 238.938 225.034C238.779 225.134 238.655 225.267 238.566 225.432C238.479 225.595 238.434 225.774 238.432 225.969V226.574C238.432 226.828 238.479 227.045 238.571 227.227C238.664 227.407 238.794 227.545 238.961 227.642C239.127 227.737 239.322 227.784 239.546 227.784C239.695 227.784 239.831 227.763 239.952 227.722C240.073 227.678 240.178 227.615 240.267 227.531C240.356 227.448 240.424 227.345 240.469 227.222L241.429 227.33C241.369 227.583 241.253 227.805 241.083 227.994C240.914 228.182 240.698 228.328 240.435 228.432C240.172 228.534 239.871 228.585 239.532 228.585ZM243.29 225.943V228.5H242.262V224.136H243.245V224.878H243.296C243.397 224.634 243.557 224.439 243.776 224.295C243.998 224.152 244.272 224.08 244.597 224.08C244.898 224.08 245.161 224.144 245.384 224.273C245.61 224.402 245.784 224.588 245.907 224.832C246.032 225.077 246.093 225.373 246.092 225.722V228.5H245.063V225.881C245.063 225.589 244.987 225.361 244.836 225.196C244.686 225.031 244.479 224.949 244.214 224.949C244.034 224.949 243.874 224.989 243.734 225.068C243.595 225.146 243.486 225.259 243.407 225.406C243.329 225.554 243.29 225.733 243.29 225.943ZM249.236 224.136V224.932H246.727V224.136H249.236ZM247.347 223.091H248.375V227.188C248.375 227.326 248.396 227.432 248.438 227.506C248.481 227.578 248.538 227.627 248.608 227.653C248.678 227.68 248.756 227.693 248.841 227.693C248.906 227.693 248.964 227.688 249.017 227.679C249.072 227.67 249.114 227.661 249.142 227.653L249.316 228.457C249.261 228.476 249.182 228.497 249.08 228.52C248.979 228.543 248.856 228.556 248.71 228.56C248.453 228.567 248.221 228.528 248.014 228.443C247.808 228.356 247.644 228.222 247.523 228.04C247.404 227.858 247.345 227.631 247.347 227.358V223.091Z" fill="#636369"/>
<line x1="227.911" y1="235.244" x2="426.547" y2="235.244" stroke="#121212"/>
<rect x="172.786" y="220.5" width="40" height="40" rx="4" fill="#F1EAFF"/>
<g clip-path="url(#clip1_351_7207)">
<path d="M202.231 241.056C202.231 239.91 202.027 238.812 201.653 237.796C201.397 240.79 199.801 242.327 198.133 241.611C196.571 240.94 197.624 238.324 197.702 237.076C197.833 234.96 197.695 232.537 193.851 230.523C195.448 233.579 194.036 235.477 192.555 235.593C190.912 235.721 189.407 234.181 189.962 231.681C188.163 233.006 188.111 235.237 188.666 236.681C189.245 238.185 188.643 239.435 187.231 239.574C185.653 239.73 184.777 237.885 185.585 234.945C184.186 236.592 183.342 238.725 183.342 241.056C183.342 246.272 187.57 250.5 192.786 250.5C198.002 250.5 202.231 246.272 202.231 241.056Z" fill="#F4900C"/>
<path d="M198.56 243.832C198.642 245.546 197.137 246.217 196.327 245.893C195.157 245.425 195.471 244.62 195.17 242.953C194.869 241.287 193.712 240.13 191.999 239.62C193.249 243.138 191.306 244.435 190.288 244.667C189.248 244.903 188.203 244.666 188.084 242.441C186.87 243.648 186.119 245.32 186.119 247.166C186.119 247.371 186.132 247.572 186.15 247.772C187.855 249.457 190.198 250.5 192.786 250.5C195.374 250.5 197.716 249.457 199.422 247.772C199.44 247.572 199.452 247.371 199.452 247.166C199.452 245.951 199.128 244.813 198.56 243.832Z" fill="#FFCC4D"/>
</g>
<rect x="385.547" y="224" width="41" height="4" rx="2" fill="#EEF1F7"/>
<rect x="160.786" y="208.5" width="283" height="64" rx="7.5" stroke="#121212"/>
<rect x="160.786" y="351.5" width="283" height="64" rx="7.5" fill="white"/>
<path d="M234.583 392.993C234.53 392.522 234.311 392.158 233.927 391.899C233.542 391.637 233.058 391.506 232.475 391.506C232.057 391.506 231.696 391.573 231.391 391.705C231.086 391.835 230.849 392.013 230.68 392.242C230.515 392.468 230.432 392.724 230.432 393.013C230.432 393.255 230.488 393.464 230.601 393.639C230.717 393.815 230.868 393.962 231.053 394.082C231.242 394.198 231.444 394.295 231.66 394.375C231.875 394.451 232.082 394.514 232.281 394.564L233.275 394.822C233.6 394.902 233.933 395.01 234.275 395.146C234.616 395.281 234.933 395.46 235.224 395.683C235.516 395.905 235.751 396.18 235.93 396.508C236.113 396.836 236.204 397.229 236.204 397.686C236.204 398.263 236.055 398.775 235.756 399.222C235.461 399.67 235.032 400.023 234.469 400.281C233.909 400.54 233.231 400.669 232.435 400.669C231.673 400.669 231.013 400.548 230.457 400.306C229.9 400.064 229.464 399.721 229.149 399.277C228.834 398.83 228.66 398.299 228.627 397.686H230.168C230.198 398.054 230.317 398.361 230.526 398.606C230.738 398.848 231.008 399.028 231.337 399.148C231.668 399.264 232.031 399.322 232.425 399.322C232.86 399.322 233.246 399.254 233.584 399.118C233.925 398.979 234.194 398.786 234.389 398.541C234.585 398.293 234.682 398.003 234.682 397.671C234.682 397.37 234.596 397.123 234.424 396.93C234.255 396.738 234.025 396.579 233.733 396.453C233.445 396.327 233.118 396.216 232.753 396.12L231.55 395.792C230.735 395.57 230.089 395.243 229.611 394.812C229.137 394.382 228.9 393.812 228.9 393.102C228.9 392.516 229.06 392.004 229.378 391.566C229.696 391.129 230.127 390.789 230.67 390.547C231.214 390.302 231.827 390.179 232.51 390.179C233.199 390.179 233.807 390.3 234.334 390.542C234.865 390.784 235.282 391.117 235.587 391.541C235.892 391.962 236.051 392.446 236.065 392.993H234.583ZM241.071 400.654C240.319 400.654 239.671 400.493 239.127 400.172C238.587 399.847 238.17 399.391 237.875 398.805C237.583 398.215 237.437 397.524 237.437 396.732C237.437 395.949 237.583 395.26 237.875 394.663C238.17 394.067 238.581 393.601 239.108 393.266C239.638 392.932 240.258 392.764 240.967 392.764C241.398 392.764 241.815 392.835 242.22 392.978C242.624 393.121 242.987 393.344 243.309 393.649C243.63 393.954 243.884 394.35 244.069 394.837C244.255 395.321 244.348 395.91 244.348 396.602V397.129H238.277V396.016H242.891C242.891 395.625 242.811 395.278 242.652 394.977C242.493 394.672 242.27 394.431 241.981 394.256C241.696 394.08 241.361 393.992 240.977 393.992C240.559 393.992 240.195 394.095 239.883 394.3C239.575 394.503 239.336 394.768 239.167 395.096C239.002 395.421 238.919 395.774 238.919 396.155V397.025C238.919 397.535 239.008 397.969 239.187 398.327C239.369 398.685 239.623 398.959 239.948 399.148C240.273 399.333 240.652 399.426 241.086 399.426C241.368 399.426 241.625 399.386 241.857 399.307C242.089 399.224 242.289 399.101 242.458 398.939C242.627 398.777 242.757 398.576 242.846 398.337L244.253 398.591C244.141 399.005 243.938 399.368 243.647 399.68C243.358 399.988 242.995 400.228 242.558 400.401C242.124 400.57 241.628 400.654 241.071 400.654ZM247.343 395.966V400.5H245.857V392.864H247.284V394.107H247.378C247.554 393.702 247.829 393.377 248.204 393.132C248.581 392.887 249.057 392.764 249.63 392.764C250.151 392.764 250.607 392.874 250.998 393.092C251.389 393.308 251.692 393.629 251.907 394.057C252.123 394.484 252.231 395.013 252.231 395.643V400.5H250.744V395.822C250.744 395.268 250.6 394.836 250.312 394.524C250.023 394.209 249.627 394.052 249.123 394.052C248.779 394.052 248.472 394.126 248.204 394.276C247.938 394.425 247.728 394.643 247.572 394.932C247.42 395.217 247.343 395.562 247.343 395.966ZM256.943 400.649C256.326 400.649 255.776 400.492 255.292 400.177C254.812 399.859 254.434 399.406 254.159 398.82C253.887 398.23 253.751 397.522 253.751 396.697C253.751 395.871 253.889 395.165 254.164 394.579C254.442 393.992 254.823 393.543 255.307 393.232C255.791 392.92 256.34 392.764 256.953 392.764C257.427 392.764 257.808 392.844 258.096 393.003C258.388 393.159 258.613 393.341 258.772 393.55C258.935 393.759 259.061 393.942 259.15 394.102H259.24V390.318H260.726V400.5H259.275V399.312H259.15C259.061 399.474 258.931 399.66 258.762 399.869C258.597 400.077 258.368 400.26 258.076 400.415C257.785 400.571 257.407 400.649 256.943 400.649ZM257.271 399.381C257.699 399.381 258.06 399.269 258.355 399.043C258.653 398.815 258.878 398.498 259.031 398.094C259.187 397.689 259.265 397.219 259.265 396.682C259.265 396.152 259.188 395.687 259.036 395.29C258.883 394.892 258.66 394.582 258.365 394.36C258.07 394.138 257.705 394.027 257.271 394.027C256.824 394.027 256.451 394.143 256.152 394.375C255.854 394.607 255.629 394.924 255.476 395.325C255.327 395.726 255.252 396.178 255.252 396.682C255.252 397.192 255.329 397.651 255.481 398.059C255.634 398.467 255.859 398.79 256.157 399.028C256.459 399.264 256.83 399.381 257.271 399.381ZM269.564 400.654C268.812 400.654 268.164 400.493 267.62 400.172C267.08 399.847 266.662 399.391 266.367 398.805C266.076 398.215 265.93 397.524 265.93 396.732C265.93 395.949 266.076 395.26 266.367 394.663C266.662 394.067 267.073 393.601 267.6 393.266C268.131 392.932 268.75 392.764 269.46 392.764C269.891 392.764 270.308 392.835 270.713 392.978C271.117 393.121 271.48 393.344 271.801 393.649C272.123 393.954 272.376 394.35 272.562 394.837C272.748 395.321 272.84 395.91 272.84 396.602V397.129H266.77V396.016H271.384C271.384 395.625 271.304 395.278 271.145 394.977C270.986 394.672 270.762 394.431 270.474 394.256C270.189 394.08 269.854 393.992 269.47 393.992C269.052 393.992 268.687 394.095 268.376 394.3C268.068 394.503 267.829 394.768 267.66 395.096C267.494 395.421 267.411 395.774 267.411 396.155V397.025C267.411 397.535 267.501 397.969 267.68 398.327C267.862 398.685 268.116 398.959 268.441 399.148C268.765 399.333 269.145 399.426 269.579 399.426C269.861 399.426 270.118 399.386 270.35 399.307C270.582 399.224 270.782 399.101 270.951 398.939C271.12 398.777 271.249 398.576 271.339 398.337L272.746 398.591C272.633 399.005 272.431 399.368 272.139 399.68C271.851 399.988 271.488 400.228 271.051 400.401C270.616 400.57 270.121 400.654 269.564 400.654ZM274.35 400.5V392.864H275.777V394.107H275.871C276.03 393.686 276.29 393.357 276.652 393.122C277.013 392.884 277.445 392.764 277.949 392.764C278.46 392.764 278.887 392.884 279.232 393.122C279.58 393.361 279.837 393.689 280.002 394.107H280.082C280.264 393.699 280.554 393.374 280.952 393.132C281.35 392.887 281.824 392.764 282.374 392.764C283.067 392.764 283.632 392.981 284.069 393.415C284.51 393.85 284.73 394.504 284.73 395.379V400.5H283.244V395.518C283.244 395.001 283.103 394.627 282.821 394.395C282.54 394.163 282.203 394.047 281.812 394.047C281.328 394.047 280.952 394.196 280.684 394.494C280.415 394.789 280.281 395.169 280.281 395.633V400.5H278.799V395.424C278.799 395.01 278.67 394.677 278.412 394.425C278.153 394.173 277.817 394.047 277.402 394.047C277.121 394.047 276.86 394.121 276.622 394.271C276.386 394.416 276.196 394.62 276.05 394.882C275.907 395.144 275.836 395.447 275.836 395.792V400.5H274.35ZM288.805 400.669C288.321 400.669 287.884 400.58 287.493 400.401C287.101 400.218 286.792 399.955 286.563 399.61C286.338 399.265 286.225 398.843 286.225 398.342C286.225 397.911 286.308 397.557 286.473 397.278C286.639 397 286.863 396.78 287.145 396.617C287.426 396.455 287.741 396.332 288.089 396.249C288.437 396.166 288.792 396.103 289.153 396.06C289.61 396.007 289.982 395.964 290.267 395.931C290.552 395.895 290.759 395.837 290.888 395.757C291.017 395.678 291.082 395.548 291.082 395.369V395.335C291.082 394.9 290.959 394.564 290.714 394.325C290.472 394.087 290.111 393.967 289.63 393.967C289.13 393.967 288.735 394.078 288.447 394.3C288.162 394.519 287.965 394.763 287.855 395.031L286.458 394.713C286.624 394.249 286.866 393.875 287.184 393.589C287.506 393.301 287.875 393.092 288.293 392.963C288.711 392.83 289.15 392.764 289.61 392.764C289.915 392.764 290.239 392.801 290.58 392.874C290.925 392.943 291.246 393.072 291.544 393.261C291.846 393.45 292.093 393.72 292.285 394.072C292.477 394.42 292.574 394.872 292.574 395.429V400.5H291.122V399.456H291.062C290.966 399.648 290.822 399.837 290.63 400.023C290.437 400.208 290.19 400.362 289.889 400.485C289.587 400.608 289.226 400.669 288.805 400.669ZM289.128 399.476C289.539 399.476 289.891 399.395 290.182 399.232C290.477 399.07 290.701 398.858 290.853 398.596C291.009 398.331 291.087 398.047 291.087 397.746V396.761C291.034 396.814 290.931 396.864 290.779 396.911C290.63 396.954 290.459 396.992 290.267 397.025C290.074 397.055 289.887 397.083 289.705 397.109C289.523 397.133 289.37 397.152 289.248 397.169C288.959 397.205 288.696 397.267 288.457 397.353C288.222 397.439 288.033 397.563 287.89 397.726C287.751 397.885 287.681 398.097 287.681 398.362C287.681 398.73 287.817 399.009 288.089 399.197C288.361 399.383 288.707 399.476 289.128 399.476ZM294.413 400.5V392.864H295.9V400.5H294.413ZM295.164 391.685C294.906 391.685 294.684 391.599 294.498 391.427C294.316 391.251 294.225 391.042 294.225 390.8C294.225 390.555 294.316 390.346 294.498 390.174C294.684 389.998 294.906 389.911 295.164 389.911C295.423 389.911 295.643 389.998 295.825 390.174C296.011 390.346 296.104 390.555 296.104 390.8C296.104 391.042 296.011 391.251 295.825 391.427C295.643 391.599 295.423 391.685 295.164 391.685ZM299.246 390.318V400.5H297.76V390.318H299.246Z" fill="#636369"/>
<path d="M304.444 400.5V390.318H306.288V394.629H311.006V390.318H312.856V400.5H311.006V396.175H306.288V400.5H304.444ZM316.84 400.654C316.356 400.654 315.92 400.568 315.532 400.396C315.148 400.22 314.843 399.961 314.617 399.62C314.395 399.279 314.284 398.858 314.284 398.357C314.284 397.926 314.364 397.57 314.523 397.288C314.682 397.007 314.899 396.781 315.174 396.612C315.449 396.443 315.759 396.316 316.104 396.229C316.452 396.14 316.811 396.075 317.183 396.036C317.63 395.989 317.993 395.948 318.271 395.911C318.55 395.871 318.752 395.812 318.878 395.732C319.007 395.649 319.072 395.522 319.072 395.349V395.32C319.072 394.945 318.961 394.655 318.739 394.45C318.517 394.244 318.197 394.141 317.779 394.141C317.338 394.141 316.989 394.237 316.73 394.43C316.475 394.622 316.303 394.849 316.213 395.111L314.533 394.872C314.665 394.408 314.884 394.02 315.189 393.709C315.494 393.394 315.867 393.159 316.308 393.003C316.748 392.844 317.236 392.764 317.769 392.764C318.137 392.764 318.503 392.807 318.868 392.893C319.233 392.98 319.566 393.122 319.867 393.321C320.169 393.517 320.411 393.783 320.593 394.121C320.779 394.46 320.872 394.882 320.872 395.389V400.5H319.141V399.451H319.082C318.972 399.663 318.818 399.862 318.619 400.048C318.424 400.23 318.177 400.377 317.879 400.49C317.584 400.599 317.237 400.654 316.84 400.654ZM317.307 399.332C317.668 399.332 317.981 399.26 318.247 399.118C318.512 398.972 318.716 398.78 318.858 398.541C319.004 398.303 319.077 398.042 319.077 397.761V396.861C319.02 396.907 318.924 396.95 318.788 396.99C318.656 397.03 318.507 397.065 318.341 397.094C318.175 397.124 318.011 397.151 317.849 397.174C317.686 397.197 317.546 397.217 317.426 397.234C317.158 397.27 316.918 397.33 316.705 397.413C316.493 397.496 316.326 397.612 316.203 397.761C316.081 397.906 316.019 398.095 316.019 398.327C316.019 398.659 316.14 398.909 316.382 399.078C316.624 399.247 316.932 399.332 317.307 399.332ZM322.541 403.364V392.864H324.311V394.126H324.416C324.508 393.941 324.639 393.744 324.808 393.535C324.977 393.323 325.206 393.142 325.494 392.993C325.783 392.84 326.151 392.764 326.598 392.764C327.188 392.764 327.72 392.915 328.194 393.217C328.671 393.515 329.049 393.957 329.327 394.544C329.609 395.127 329.75 395.843 329.75 396.692C329.75 397.53 329.612 398.243 329.337 398.83C329.062 399.416 328.688 399.864 328.214 400.172C327.74 400.48 327.203 400.634 326.603 400.634C326.166 400.634 325.803 400.561 325.514 400.415C325.226 400.27 324.994 400.094 324.818 399.888C324.646 399.68 324.512 399.482 324.416 399.297H324.341V403.364H322.541ZM324.306 396.682C324.306 397.176 324.376 397.608 324.515 397.979C324.657 398.351 324.861 398.641 325.126 398.849C325.395 399.055 325.72 399.158 326.101 399.158C326.499 399.158 326.832 399.052 327.1 398.839C327.369 398.624 327.571 398.331 327.707 397.96C327.846 397.585 327.916 397.159 327.916 396.682C327.916 396.208 327.848 395.787 327.712 395.419C327.576 395.051 327.374 394.763 327.105 394.554C326.837 394.345 326.502 394.241 326.101 394.241C325.716 394.241 325.39 394.342 325.121 394.544C324.853 394.746 324.649 395.03 324.51 395.394C324.374 395.759 324.306 396.188 324.306 396.682ZM331.151 403.364V392.864H332.921V394.126H333.026C333.118 393.941 333.249 393.744 333.418 393.535C333.587 393.323 333.816 393.142 334.104 392.993C334.393 392.84 334.761 392.764 335.208 392.764C335.798 392.764 336.33 392.915 336.804 393.217C337.281 393.515 337.659 393.957 337.937 394.544C338.219 395.127 338.36 395.843 338.36 396.692C338.36 397.53 338.223 398.243 337.947 398.83C337.672 399.416 337.298 399.864 336.824 400.172C336.35 400.48 335.813 400.634 335.213 400.634C334.776 400.634 334.413 400.561 334.124 400.415C333.836 400.27 333.604 400.094 333.428 399.888C333.256 399.68 333.122 399.482 333.026 399.297H332.951V403.364H331.151ZM332.916 396.682C332.916 397.176 332.986 397.608 333.125 397.979C333.267 398.351 333.471 398.641 333.736 398.849C334.005 399.055 334.33 399.158 334.711 399.158C335.109 399.158 335.442 399.052 335.71 398.839C335.979 398.624 336.181 398.331 336.317 397.96C336.456 397.585 336.526 397.159 336.526 396.682C336.526 396.208 336.458 395.787 336.322 395.419C336.186 395.051 335.984 394.763 335.715 394.554C335.447 394.345 335.112 394.241 334.711 394.241C334.326 394.241 334 394.342 333.731 394.544C333.463 394.746 333.259 395.03 333.12 395.394C332.984 395.759 332.916 396.188 332.916 396.682ZM340.62 403.364C340.375 403.364 340.148 403.344 339.939 403.304C339.733 403.268 339.569 403.224 339.447 403.175L339.864 401.773C340.126 401.849 340.36 401.885 340.565 401.882C340.771 401.879 340.952 401.814 341.107 401.688C341.266 401.566 341.401 401.36 341.51 401.072L341.664 400.659L338.895 392.864H340.804L342.564 398.631H342.644L344.408 392.864H346.322L343.265 401.425C343.122 401.829 342.934 402.175 342.698 402.464C342.463 402.755 342.175 402.978 341.833 403.13C341.495 403.286 341.091 403.364 340.62 403.364ZM350.84 400.5V390.318H352.64V394.126H352.714C352.807 393.941 352.938 393.744 353.107 393.535C353.276 393.323 353.505 393.142 353.793 392.993C354.082 392.84 354.449 392.764 354.897 392.764C355.487 392.764 356.019 392.915 356.493 393.217C356.97 393.515 357.348 393.957 357.626 394.544C357.908 395.127 358.049 395.843 358.049 396.692C358.049 397.53 357.911 398.243 357.636 398.83C357.361 399.416 356.987 399.864 356.513 400.172C356.039 400.48 355.502 400.634 354.902 400.634C354.464 400.634 354.101 400.561 353.813 400.415C353.525 400.27 353.293 400.094 353.117 399.888C352.945 399.68 352.81 399.482 352.714 399.297H352.61V400.5H350.84ZM352.605 396.682C352.605 397.176 352.675 397.608 352.814 397.979C352.956 398.351 353.16 398.641 353.425 398.849C353.694 399.055 354.019 399.158 354.4 399.158C354.797 399.158 355.131 399.052 355.399 398.839C355.667 398.624 355.87 398.331 356.006 397.96C356.145 397.585 356.214 397.159 356.214 396.682C356.214 396.208 356.146 395.787 356.011 395.419C355.875 395.051 355.672 394.763 355.404 394.554C355.136 394.345 354.801 394.241 354.4 394.241C354.015 394.241 353.689 394.342 353.42 394.544C353.152 394.746 352.948 395.03 352.809 395.394C352.673 395.759 352.605 396.188 352.605 396.682ZM359.439 400.5V392.864H361.239V400.5H359.439ZM360.344 391.78C360.059 391.78 359.813 391.685 359.608 391.496C359.402 391.304 359.3 391.074 359.3 390.805C359.3 390.534 359.402 390.303 359.608 390.114C359.813 389.922 360.059 389.826 360.344 389.826C360.632 389.826 360.877 389.922 361.08 390.114C361.285 390.303 361.388 390.534 361.388 390.805C361.388 391.074 361.285 391.304 361.08 391.496C360.877 391.685 360.632 391.78 360.344 391.78ZM362.949 400.5V392.864H364.694V394.136H364.774C364.913 393.696 365.152 393.356 365.49 393.117C365.831 392.875 366.221 392.754 366.658 392.754C366.758 392.754 366.869 392.759 366.991 392.769C367.117 392.776 367.222 392.787 367.304 392.804V394.46C367.228 394.433 367.107 394.41 366.941 394.39C366.779 394.367 366.622 394.355 366.469 394.355C366.141 394.355 365.846 394.426 365.584 394.569C365.326 394.708 365.122 394.902 364.973 395.151C364.824 395.399 364.749 395.686 364.749 396.011V400.5H362.949ZM372.583 392.864V394.256H368.194V392.864H372.583ZM369.277 391.034H371.077V398.203C371.077 398.445 371.113 398.631 371.186 398.76C371.263 398.886 371.362 398.972 371.485 399.018C371.607 399.065 371.743 399.088 371.892 399.088C372.005 399.088 372.108 399.08 372.201 399.063C372.297 399.047 372.37 399.032 372.419 399.018L372.723 400.425C372.627 400.459 372.489 400.495 372.31 400.535C372.134 400.575 371.919 400.598 371.664 400.604C371.213 400.618 370.807 400.55 370.446 400.401C370.084 400.248 369.798 400.013 369.586 399.695C369.377 399.376 369.274 398.979 369.277 398.501V391.034ZM375.912 396.026V400.5H374.113V390.318H375.873V394.161H375.962C376.141 393.73 376.418 393.391 376.792 393.142C377.17 392.89 377.651 392.764 378.234 392.764C378.764 392.764 379.227 392.875 379.621 393.097C380.016 393.319 380.321 393.644 380.536 394.072C380.755 394.499 380.864 395.021 380.864 395.638V400.5H379.064V395.916C379.064 395.402 378.932 395.003 378.667 394.718C378.405 394.43 378.037 394.286 377.563 394.286C377.245 394.286 376.96 394.355 376.708 394.494C376.459 394.63 376.264 394.827 376.121 395.086C375.982 395.344 375.912 395.658 375.912 396.026ZM385.392 400.634C384.792 400.634 384.256 400.48 383.782 400.172C383.308 399.864 382.933 399.416 382.658 398.83C382.383 398.243 382.245 397.53 382.245 396.692C382.245 395.843 382.385 395.127 382.663 394.544C382.945 393.957 383.324 393.515 383.801 393.217C384.279 392.915 384.811 392.764 385.397 392.764C385.845 392.764 386.213 392.84 386.501 392.993C386.789 393.142 387.018 393.323 387.187 393.535C387.356 393.744 387.487 393.941 387.58 394.126H387.654V390.318H389.459V400.5H387.689V399.297H387.58C387.487 399.482 387.353 399.68 387.177 399.888C387.002 400.094 386.77 400.27 386.481 400.415C386.193 400.561 385.83 400.634 385.392 400.634ZM385.895 399.158C386.276 399.158 386.6 399.055 386.869 398.849C387.137 398.641 387.341 398.351 387.48 397.979C387.62 397.608 387.689 397.176 387.689 396.682C387.689 396.188 387.62 395.759 387.48 395.394C387.345 395.03 387.142 394.746 386.874 394.544C386.609 394.342 386.282 394.241 385.895 394.241C385.493 394.241 385.159 394.345 384.89 394.554C384.622 394.763 384.42 395.051 384.284 395.419C384.148 395.787 384.08 396.208 384.08 396.682C384.08 397.159 384.148 397.585 384.284 397.96C384.423 398.331 384.627 398.624 384.895 398.839C385.167 399.052 385.5 399.158 385.895 399.158ZM393.434 400.654C392.95 400.654 392.515 400.568 392.127 400.396C391.742 400.22 391.437 399.961 391.212 399.62C390.99 399.279 390.879 398.858 390.879 398.357C390.879 397.926 390.959 397.57 391.118 397.288C391.277 397.007 391.494 396.781 391.769 396.612C392.044 396.443 392.354 396.316 392.699 396.229C393.047 396.14 393.406 396.075 393.777 396.036C394.225 395.989 394.588 395.948 394.866 395.911C395.145 395.871 395.347 395.812 395.473 395.732C395.602 395.649 395.667 395.522 395.667 395.349V395.32C395.667 394.945 395.556 394.655 395.334 394.45C395.111 394.244 394.792 394.141 394.374 394.141C393.933 394.141 393.584 394.237 393.325 394.43C393.07 394.622 392.897 394.849 392.808 395.111L391.128 394.872C391.26 394.408 391.479 394.02 391.784 393.709C392.089 393.394 392.462 393.159 392.902 393.003C393.343 392.844 393.83 392.764 394.364 392.764C394.732 392.764 395.098 392.807 395.463 392.893C395.827 392.98 396.16 393.122 396.462 393.321C396.764 393.517 397.006 393.783 397.188 394.121C397.374 394.46 397.466 394.882 397.466 395.389V400.5H395.736V399.451H395.677C395.567 399.663 395.413 399.862 395.214 400.048C395.019 400.23 394.772 400.377 394.473 400.49C394.178 400.599 393.832 400.654 393.434 400.654ZM393.902 399.332C394.263 399.332 394.576 399.26 394.841 399.118C395.106 398.972 395.31 398.78 395.453 398.541C395.599 398.303 395.672 398.042 395.672 397.761V396.861C395.615 396.907 395.519 396.95 395.383 396.99C395.251 397.03 395.102 397.065 394.936 397.094C394.77 397.124 394.606 397.151 394.444 397.174C394.281 397.197 394.14 397.217 394.021 397.234C393.753 397.27 393.512 397.33 393.3 397.413C393.088 397.496 392.921 397.612 392.798 397.761C392.675 397.906 392.614 398.095 392.614 398.327C392.614 398.659 392.735 398.909 392.977 399.078C393.219 399.247 393.527 399.332 393.902 399.332ZM399.981 403.364C399.736 403.364 399.509 403.344 399.3 403.304C399.095 403.268 398.931 403.224 398.808 403.175L399.225 401.773C399.487 401.849 399.721 401.885 399.926 401.882C400.132 401.879 400.313 401.814 400.468 401.688C400.627 401.566 400.762 401.36 400.871 401.072L401.025 400.659L398.256 392.864H400.165L401.925 398.631H402.005L403.77 392.864H405.684L402.626 401.425C402.484 401.829 402.295 402.175 402.059 402.464C401.824 402.755 401.536 402.978 401.194 403.13C400.856 403.286 400.452 403.364 399.981 403.364Z" fill="#121212"/>
<g clip-path="url(#clip2_351_7207)">
<path d="M416.453 390.828C416.404 390.878 416.366 390.938 416.334 391.004L416.331 391L411.346 402.229L411.351 402.234C411.258 402.413 411.413 402.778 411.73 403.095C412.047 403.412 412.411 403.567 412.59 403.474L412.595 403.479L423.824 398.493L423.821 398.489C423.886 398.458 423.946 398.421 423.996 398.37C424.69 397.676 423.565 395.425 421.482 393.342C419.399 391.259 417.148 390.134 416.453 390.828Z" fill="#DD2E44"/>
<path d="M417.064 392.833L411.471 401.947L411.346 402.229L411.351 402.234C411.258 402.413 411.413 402.777 411.73 403.095C411.833 403.198 411.94 403.276 412.045 403.342L418.842 395.055L417.064 392.833Z" fill="#EA596E"/>
<path d="M421.514 393.307C423.589 395.384 424.742 397.597 424.087 398.251C423.432 398.906 421.219 397.754 419.142 395.679C417.066 393.602 415.914 391.388 416.568 390.733C417.223 390.079 419.437 391.231 421.514 393.307Z" fill="#A0041E"/>
<path d="M419.549 393.548C419.46 393.62 419.345 393.657 419.222 393.644C418.837 393.602 418.512 393.468 418.285 393.256C418.045 393.031 417.926 392.73 417.958 392.428C418.015 391.898 418.547 391.412 419.453 391.51C419.805 391.548 419.963 391.434 419.968 391.38C419.974 391.326 419.845 391.182 419.493 391.144C419.107 391.102 418.782 390.968 418.555 390.756C418.314 390.531 418.195 390.23 418.228 389.928C418.286 389.398 418.817 388.912 419.722 389.01C419.979 389.038 420.115 388.985 420.172 388.951C420.218 388.923 420.236 388.896 420.238 388.88C420.243 388.827 420.116 388.682 419.762 388.644C419.518 388.617 419.341 388.399 419.369 388.154C419.395 387.91 419.613 387.734 419.858 387.76C420.763 387.858 421.179 388.446 421.122 388.976C421.064 389.507 420.533 389.992 419.627 389.895C419.37 389.867 419.236 389.92 419.178 389.954C419.132 389.982 419.113 390.009 419.112 390.024C419.106 390.078 419.234 390.222 419.588 390.26C420.493 390.358 420.909 390.946 420.852 391.476C420.794 392.006 420.263 392.492 419.357 392.394C419.101 392.366 418.965 392.42 418.908 392.453C418.861 392.482 418.844 392.508 418.842 392.524C418.836 392.577 418.965 392.722 419.317 392.76C419.561 392.787 419.738 393.006 419.711 393.25C419.699 393.372 419.637 393.477 419.549 393.548Z" fill="#AA8DD8"/>
<path d="M424.914 397.658C425.79 397.411 426.395 397.802 426.539 398.315C426.683 398.828 426.371 399.477 425.495 399.724C425.153 399.82 425.05 399.984 425.064 400.036C425.079 400.088 425.253 400.174 425.594 400.078C426.47 399.831 427.075 400.222 427.219 400.735C427.364 401.249 427.051 401.897 426.174 402.144C425.833 402.24 425.73 402.404 425.745 402.456C425.759 402.508 425.933 402.594 426.274 402.498C426.51 402.432 426.756 402.569 426.822 402.805C426.888 403.042 426.751 403.287 426.514 403.354C425.638 403.601 425.033 403.21 424.888 402.697C424.744 402.184 425.057 401.535 425.934 401.288C426.276 401.192 426.379 401.029 426.364 400.976C426.35 400.924 426.176 400.837 425.835 400.933C424.958 401.181 424.353 400.79 424.209 400.276C424.064 399.763 424.377 399.115 425.254 398.867C425.595 398.772 425.698 398.607 425.683 398.556C425.668 398.503 425.495 398.417 425.154 398.513C424.917 398.58 424.672 398.442 424.606 398.206C424.539 397.97 424.677 397.725 424.914 397.658Z" fill="#77B255"/>
<path d="M421.509 396.46C421.379 396.46 421.25 396.403 421.162 396.293C421.008 396.101 421.04 395.822 421.231 395.669C421.328 395.591 423.639 393.776 426.905 394.243C427.148 394.277 427.317 394.502 427.283 394.745C427.248 394.988 427.025 395.159 426.779 395.122C423.894 394.713 421.807 396.346 421.787 396.363C421.704 396.429 421.607 396.46 421.509 396.46Z" fill="#AA8DD8"/>
<path d="M413.843 394.611C413.801 394.611 413.758 394.605 413.715 394.592C413.48 394.522 413.347 394.274 413.417 394.039C413.921 392.362 414.377 389.686 413.816 388.988C413.754 388.909 413.659 388.832 413.442 388.848C413.025 388.88 413.065 389.76 413.065 389.768C413.084 390.013 412.9 390.227 412.655 390.245C412.407 390.26 412.197 390.08 412.179 389.835C412.133 389.222 412.324 388.041 413.375 387.962C413.845 387.926 414.235 388.089 414.51 388.432C415.563 389.743 414.494 393.545 414.269 394.295C414.211 394.487 414.034 394.611 413.843 394.611Z" fill="#77B255"/>
<path d="M422.62 392.389C422.988 392.389 423.286 392.091 423.286 391.722C423.286 391.354 422.988 391.056 422.62 391.056C422.252 391.056 421.953 391.354 421.953 391.722C421.953 392.091 422.252 392.389 422.62 392.389Z" fill="#5C913B"/>
<path d="M412.175 396.389C412.666 396.389 413.064 395.991 413.064 395.5C413.064 395.009 412.666 394.611 412.175 394.611C411.684 394.611 411.286 395.009 411.286 395.5C411.286 395.991 411.684 396.389 412.175 396.389Z" fill="#9266CC"/>
<path d="M425.73 396.833C426.098 396.833 426.397 396.535 426.397 396.167C426.397 395.798 426.098 395.5 425.73 395.5C425.362 395.5 425.063 395.798 425.063 396.167C425.063 396.535 425.362 396.833 425.73 396.833Z" fill="#5C913B"/>
<path d="M421.73 402.166C422.098 402.166 422.397 401.868 422.397 401.5C422.397 401.131 422.098 400.833 421.73 400.833C421.362 400.833 421.063 401.131 421.063 401.5C421.063 401.868 421.362 402.166 421.73 402.166Z" fill="#5C913B"/>
<path d="M423.731 390.166C424.222 390.166 424.62 389.768 424.62 389.278C424.62 388.787 424.222 388.389 423.731 388.389C423.24 388.389 422.842 388.787 422.842 389.278C422.842 389.768 423.24 390.166 423.731 390.166Z" fill="#FFCC4D"/>
<path d="M425.73 391.945C426.098 391.945 426.397 391.646 426.397 391.278C426.397 390.91 426.098 390.611 425.73 390.611C425.362 390.611 425.063 390.91 425.063 391.278C425.063 391.646 425.362 391.945 425.73 391.945Z" fill="#FFCC4D"/>
<path d="M424.397 393.722C424.765 393.722 425.064 393.424 425.064 393.055C425.064 392.687 424.765 392.389 424.397 392.389C424.029 392.389 423.73 392.687 423.73 393.055C423.73 393.424 424.029 393.722 424.397 393.722Z" fill="#FFCC4D"/>
<path d="M414.62 398.611C414.988 398.611 415.286 398.312 415.286 397.944C415.286 397.576 414.988 397.277 414.62 397.277C414.252 397.277 413.953 397.576 413.953 397.944C413.953 398.312 414.252 398.611 414.62 398.611Z" fill="#FFCC4D"/>
</g>
<path d="M228.229 366.565V365.682H232.871V366.565H231.073V371.5H230.028V366.565H228.229ZM234.669 368.943V371.5H233.641V365.682H234.646V367.878H234.698C234.8 367.632 234.958 367.437 235.172 367.295C235.388 367.152 235.663 367.08 235.996 367.08C236.299 367.08 236.563 367.143 236.789 367.27C237.014 367.397 237.188 367.582 237.311 367.827C237.436 368.071 237.499 368.369 237.499 368.722V371.5H236.47V368.881C236.47 368.587 236.395 368.359 236.243 368.196C236.093 368.031 235.883 367.949 235.612 367.949C235.431 367.949 235.268 367.989 235.124 368.068C234.982 368.146 234.87 368.259 234.789 368.406C234.709 368.554 234.669 368.733 234.669 368.943ZM240.399 371.585C239.961 371.585 239.584 371.494 239.265 371.312C238.949 371.129 238.706 370.869 238.535 370.534C238.365 370.197 238.28 369.8 238.28 369.344C238.28 368.895 238.365 368.501 238.535 368.162C238.708 367.821 238.948 367.556 239.257 367.366C239.566 367.175 239.928 367.08 240.345 367.08C240.614 367.08 240.868 367.123 241.106 367.21C241.347 367.295 241.559 367.428 241.743 367.608C241.928 367.788 242.074 368.017 242.18 368.295C242.286 368.572 242.339 368.902 242.339 369.284V369.599H238.762V368.906H241.353C241.352 368.709 241.309 368.534 241.226 368.381C241.142 368.225 241.026 368.103 240.876 368.014C240.728 367.925 240.556 367.881 240.359 367.881C240.149 367.881 239.964 367.932 239.805 368.034C239.646 368.134 239.522 368.267 239.433 368.432C239.346 368.595 239.301 368.774 239.299 368.969V369.574C239.299 369.828 239.346 370.045 239.439 370.227C239.531 370.407 239.661 370.545 239.828 370.642C239.995 370.737 240.19 370.784 240.413 370.784C240.563 370.784 240.698 370.763 240.819 370.722C240.941 370.678 241.046 370.615 241.135 370.531C241.224 370.448 241.291 370.345 241.336 370.222L242.297 370.33C242.236 370.583 242.12 370.805 241.95 370.994C241.781 371.182 241.566 371.328 241.302 371.432C241.039 371.534 240.738 371.585 240.399 371.585ZM244.158 368.943V371.5H243.129V367.136H244.112V367.878H244.163C244.264 367.634 244.424 367.439 244.643 367.295C244.865 367.152 245.139 367.08 245.464 367.08C245.766 367.08 246.028 367.144 246.251 367.273C246.477 367.402 246.651 367.588 246.774 367.832C246.899 368.077 246.961 368.373 246.959 368.722V371.5H245.93V368.881C245.93 368.589 245.855 368.361 245.703 368.196C245.553 368.031 245.346 367.949 245.081 367.949C244.901 367.949 244.741 367.989 244.601 368.068C244.463 368.146 244.354 368.259 244.274 368.406C244.196 368.554 244.158 368.733 244.158 368.943Z" fill="#636369"/>
<line x1="227.911" y1="378.244" x2="427.287" y2="378.244" stroke="#121212"/>
<rect x="172.786" y="363.5" width="40" height="40" rx="4" fill="#E6EBFF"/>
<g clip-path="url(#clip3_351_7207)">
<path d="M195.231 392.667C195.231 394.017 190.342 394.017 190.342 392.667V386.556C190.342 385.206 191.436 384.111 192.786 384.111C194.136 384.111 195.231 385.206 195.231 386.556V392.667Z" fill="#C1694F"/>
<path d="M187.898 374.333C185.198 374.333 183.009 376.522 183.009 379.222V386.555H192.787V379.222C192.787 376.522 190.598 374.333 187.898 374.333Z" fill="#292F33"/>
<path d="M194.008 383.965C194.008 384.721 193.358 385.334 192.607 385.334H183.187C182.436 385.334 181.786 384.721 181.786 383.965V377.535C181.786 376.78 182.436 376.167 183.187 376.167H192.607C193.358 376.167 194.008 376.78 194.008 377.535V383.965V383.965Z" fill="#CCD6DD"/>
<path d="M194.008 377.535C194.008 376.78 193.358 376.167 192.607 376.167H183.187C182.436 376.167 181.786 376.78 181.786 377.535V378.402L184.768 381.399L181.847 384.336C181.915 384.566 182.04 384.774 182.211 384.937L185.249 381.883L186.72 383.361C187.363 384.009 188.412 384.009 189.055 383.361L190.538 381.875L193.584 384.937C193.755 384.773 193.879 384.565 193.948 384.336L191.019 381.392L194.008 378.395V377.535Z" fill="#99AAB5"/>
<path d="M192.608 376.167H183.188C182.475 376.167 181.861 376.721 181.799 377.423L186.937 382.554C187.468 383.088 188.329 383.068 188.859 382.533L193.998 377.433C193.941 376.726 193.323 376.167 192.608 376.167Z" fill="#E1E8ED"/>
<path d="M197.675 374.333H187.897C190.597 374.333 192.786 376.522 192.786 379.222V386.555H202.564V379.222C202.564 376.522 200.375 374.333 197.675 374.333Z" fill="#99AAB5"/>
<path d="M197.675 373.111H195.231C194.556 373.111 194.009 373.659 194.009 374.334V381.667C194.009 382.342 194.556 382.889 195.231 382.889C195.906 382.889 196.453 382.342 196.453 381.667V376.778H197.675C198.35 376.778 198.898 376.23 198.898 375.556V374.334C198.898 373.659 198.35 373.111 197.675 373.111Z" fill="#DD2E44"/>
</g>
<rect x="386.286" y="367" width="41" height="4" rx="2" fill="#EEF1F7"/>
<rect x="160.786" y="351.5" width="283" height="64" rx="7.5" stroke="#121212"/>
<rect x="299.288" y="280.969" width="6" height="6" rx="3" fill="#121212"/>
<path d="M302.633 343.238C302.479 343.505 302.094 343.505 301.94 343.238L299.168 338.438C299.014 338.171 299.207 337.838 299.515 337.838L305.057 337.838C305.365 337.838 305.558 338.171 305.404 338.438L302.633 343.238Z" fill="#121212"/>
<line x1="302.249" y1="286.543" x2="302.249" y2="340.729" stroke="#121212"/>
<path d="M202.64 435.484C187.344 431.824 179.647 421.46 179.647 421.46L187.954 407.822C187.954 407.822 195.651 418.185 210.947 421.846L202.64 435.484Z" fill="#F2C94C"/>
<path opacity="0.96" d="M440.089 193.236C449.715 193.2 455.755 188.095 455.755 188.095L452.696 178.799C452.696 178.799 446.656 183.904 437.03 183.94L440.089 193.236Z" fill="#FEDF82"/>
<rect x="-1" y="1" width="419" height="345" rx="7" transform="matrix(-1 0 0 1 510.786 124.404)" stroke="#E1E8F2" stroke-width="2" stroke-dasharray="8 8"/>
<path d="M427.506 289.985C422.439 299.886 414.035 303.45 414.035 303.45L406.047 295.465C406.047 295.465 414.451 291.901 419.517 282L427.506 289.985Z" fill="#EB5757"/>
<path opacity="0.82" d="M471.624 372.947C458.638 373.448 450.73 380.621 450.73 380.621L455.296 393.019C455.296 393.019 463.204 385.846 476.19 385.345L471.624 372.947Z" fill="#C6A9FF"/>
<path opacity="0.9" d="M143.446 284.362C150.377 275.423 150.019 266.137 150.019 266.137L139.199 262.245C139.199 262.245 139.557 271.531 132.626 280.47L143.446 284.362Z" fill="#8199FD"/>
<defs>
<clipPath id="clip0_351_7207">
<rect width="22" height="22" fill="white" transform="translate(115.786 148.309)"/>
</clipPath>
<clipPath id="clip1_351_7207">
<rect width="20" height="20" fill="white" transform="translate(182.786 230.5)"/>
</clipPath>
<clipPath id="clip2_351_7207">
<rect width="16" height="16" fill="white" transform="translate(411.286 387.5)"/>
</clipPath>
<clipPath id="clip3_351_7207">
<rect width="22" height="22" fill="white" transform="translate(181.786 372.5)"/>
</clipPath>
</defs>
</svg>
