<svg width="138" height="41" viewBox="0 0 138 41" fill="none" xmlns="http://www.w3.org/2000/svg">
<path d="M12.2251 10.0126C13.3124 10.2153 14.2061 10.7589 14.9064 11.6435C15.6067 12.528 15.9568 13.5416 15.9568 14.6841C15.9568 15.7161 15.6988 16.6283 15.1828 17.4207C14.6853 18.1947 13.9574 18.8028 12.9991 19.2451C12.0408 19.6874 10.9075 19.9085 9.59911 19.9085H1.27881V0.614251H9.23976C10.5482 0.614251 11.6723 0.826175 12.6121 1.25002C13.5704 1.67387 14.2891 2.26357 14.7682 3.01912C15.2658 3.77468 15.5145 4.63159 15.5145 5.58985C15.5145 6.71397 15.2105 7.6538 14.6024 8.40935C14.0127 9.16491 13.2202 9.69932 12.2251 10.0126ZM5.14872 8.57521H8.68692C9.60833 8.57521 10.3178 8.3725 10.8154 7.96708C11.3129 7.54323 11.5617 6.94432 11.5617 6.17034C11.5617 5.39635 11.3129 4.79744 10.8154 4.37359C10.3178 3.94974 9.60833 3.73782 8.68692 3.73782H5.14872V8.57521ZM9.04627 16.7573C9.9861 16.7573 10.714 16.5362 11.23 16.0939C11.7644 15.6516 12.0316 15.0251 12.0316 14.2142C12.0316 13.385 11.7552 12.74 11.2024 12.2793C10.6495 11.8001 9.90318 11.5606 8.96334 11.5606H5.14872V16.7573H9.04627Z" fill="#636369"/>
<path d="M28.4394 3.73782V8.57521H34.9354V11.6435H28.4394V16.7573H35.7646V19.9085H24.5695V0.586608H35.7646V3.73782H28.4394Z" fill="#636369"/>
<path d="M60.1513 0.614251L53.6277 13.1915V19.9085H49.7578V13.1915L43.2066 0.614251H47.5741L51.7204 9.43212L55.8391 0.614251H60.1513Z" fill="#636369"/>
<path d="M76.8677 20.102C75.0618 20.102 73.4032 19.6782 71.8921 18.8305C70.381 17.9828 69.1832 16.8126 68.2986 15.3199C67.4141 13.8088 66.9718 12.1042 66.9718 10.2061C66.9718 8.32643 67.4141 6.64025 68.2986 5.14757C69.1832 3.63647 70.381 2.45706 71.8921 1.60937C73.4032 0.761676 75.0618 0.33783 76.8677 0.33783C78.6921 0.33783 80.3506 0.761676 81.8433 1.60937C83.3544 2.45706 84.543 3.63647 85.4091 5.14757C86.2937 6.64025 86.736 8.32643 86.736 10.2061C86.736 12.1042 86.2937 13.8088 85.4091 15.3199C84.543 16.8126 83.3544 17.9828 81.8433 18.8305C80.3322 19.6782 78.6737 20.102 76.8677 20.102ZM76.8677 16.6467C78.0287 16.6467 79.0514 16.3887 79.936 15.8727C80.8205 15.3383 81.5116 14.5828 82.0092 13.6061C82.5067 12.6294 82.7555 11.4961 82.7555 10.2061C82.7555 8.91613 82.5067 7.79201 82.0092 6.83375C81.5116 5.85706 80.8205 5.11072 79.936 4.59473C79.0514 4.07874 78.0287 3.82075 76.8677 3.82075C75.7067 3.82075 74.6748 4.07874 73.7718 4.59473C72.8872 5.11072 72.1962 5.85706 71.6986 6.83375C71.2011 7.79201 70.9523 8.91613 70.9523 10.2061C70.9523 11.4961 71.2011 12.6294 71.6986 13.6061C72.1962 14.5828 72.8872 15.3383 73.7718 15.8727C74.6748 16.3887 75.7067 16.6467 76.8677 16.6467Z" fill="#636369"/>
<path d="M111.646 19.9085H107.776L99.0134 6.66789V19.9085H95.1435V0.586608H99.0134L107.776 13.8549V0.586608H111.646V19.9085Z" fill="#636369"/>
<path d="M127.743 0.614251C129.77 0.614251 131.549 1.01046 133.078 1.80287C134.626 2.59528 135.815 3.72861 136.644 5.20286C137.492 6.65868 137.916 8.35407 137.916 10.289C137.916 12.224 137.492 13.9194 136.644 15.3752C135.815 16.8126 134.626 17.9275 133.078 18.7199C131.549 19.5123 129.77 19.9085 127.743 19.9085H120.999V0.614251H127.743ZM127.605 16.6191C129.632 16.6191 131.199 16.0662 132.304 14.9606C133.41 13.8549 133.963 12.2977 133.963 10.289C133.963 8.28036 133.41 6.71397 132.304 5.58985C131.199 4.4473 129.632 3.87603 127.605 3.87603H124.869V16.6191H127.605Z" fill="#636369"/>
<path d="M3.6617 40.3375C2.98907 40.3375 2.38094 40.2223 1.83731 39.992C1.3029 39.7616 0.879048 39.4299 0.56577 38.9968C0.252491 38.5638 0.0912453 38.0524 0.0820312 37.4627H2.1552C2.18284 37.8589 2.32105 38.1722 2.56983 38.4025C2.82782 38.6329 3.17796 38.7481 3.62023 38.7481C4.07172 38.7481 4.42646 38.6421 4.68446 38.4302C4.94245 38.209 5.07145 37.9234 5.07145 37.5733C5.07145 37.2876 4.98392 37.0527 4.80885 36.8684C4.63378 36.6841 4.41264 36.5413 4.14544 36.4399C3.88744 36.3294 3.52809 36.2096 3.06739 36.0806C2.44083 35.8963 1.92945 35.7166 1.53325 35.5416C1.14626 35.3573 0.809943 35.0855 0.524307 34.7261C0.247884 34.3576 0.109673 33.8692 0.109673 33.2611C0.109673 32.6898 0.252492 32.1923 0.538128 31.7684C0.823764 31.3446 1.22458 31.0221 1.74056 30.8009C2.25655 30.5706 2.84625 30.4554 3.50966 30.4554C4.50478 30.4554 5.31101 30.6996 5.92836 31.1879C6.55491 31.667 6.90044 32.3397 6.96494 33.2058H4.83649C4.81806 32.8741 4.67524 32.6023 4.40804 32.3904C4.15004 32.1692 3.80451 32.0586 3.37145 32.0586C2.99368 32.0586 2.68961 32.1554 2.45926 32.3489C2.23812 32.5424 2.12755 32.8234 2.12755 33.192C2.12755 33.45 2.21048 33.6665 2.37633 33.8416C2.5514 34.0074 2.76332 34.1456 3.0121 34.2562C3.2701 34.3576 3.62945 34.4773 4.09015 34.6156C4.71671 34.7998 5.22809 34.9841 5.62429 35.1684C6.0205 35.3527 6.36142 35.6291 6.64705 35.9977C6.93269 36.3662 7.07551 36.85 7.07551 37.4489C7.07551 37.9649 6.94191 38.444 6.6747 38.8863C6.40749 39.3285 6.01589 39.6833 5.4999 39.9505C4.98392 40.2085 4.37118 40.3375 3.6617 40.3375Z" fill="#636369"/>
<path d="M15.9953 40.3375C15.0923 40.3375 14.2631 40.1256 13.5075 39.7017C12.752 39.2779 12.153 38.6928 11.7108 37.9464C11.2685 37.1909 11.0473 36.3386 11.0473 35.3895C11.0473 34.4497 11.2685 33.6066 11.7108 32.8603C12.153 32.1047 12.752 31.515 13.5075 31.0912C14.2631 30.6673 15.0923 30.4554 15.9953 30.4554C16.9075 30.4554 17.7368 30.6673 18.4831 31.0912C19.2387 31.515 19.833 32.1047 20.266 32.8603C20.7083 33.6066 20.9294 34.4497 20.9294 35.3895C20.9294 36.3386 20.7083 37.1909 20.266 37.9464C19.833 38.6928 19.2387 39.2779 18.4831 39.7017C17.7275 40.1256 16.8983 40.3375 15.9953 40.3375ZM15.9953 38.6098C16.5758 38.6098 17.0872 38.4809 17.5294 38.2229C17.9717 37.9557 18.3172 37.5779 18.566 37.0895C18.8148 36.6012 18.9392 36.0345 18.9392 35.3895C18.9392 34.7445 18.8148 34.1825 18.566 33.7034C18.3172 33.215 17.9717 32.8418 17.5294 32.5838C17.0872 32.3259 16.5758 32.1969 15.9953 32.1969C15.4148 32.1969 14.8988 32.3259 14.4473 32.5838C14.0051 32.8418 13.6595 33.215 13.4108 33.7034C13.162 34.1825 13.0376 34.7445 13.0376 35.3895C13.0376 36.0345 13.162 36.6012 13.4108 37.0895C13.6595 37.5779 14.0051 37.9557 14.4473 38.2229C14.8988 38.4809 15.4148 38.6098 15.9953 38.6098Z" fill="#636369"/>
<path d="M24.6633 35.4034C24.6633 34.4543 24.8752 33.6066 25.2991 32.8603C25.7321 32.1047 26.3172 31.5196 27.0543 31.105C27.8007 30.6811 28.6346 30.4692 29.556 30.4692C30.634 30.4692 31.5785 30.7456 32.3893 31.2985C33.2001 31.8513 33.7668 32.6161 34.0893 33.5928H31.8641C31.6429 33.1321 31.3297 32.7866 30.9243 32.5562C30.528 32.3259 30.0673 32.2107 29.5421 32.2107C28.9801 32.2107 28.4779 32.3443 28.0356 32.6115C27.6026 32.8695 27.2617 33.238 27.0129 33.7172C26.7733 34.1963 26.6535 34.7584 26.6535 35.4034C26.6535 36.0391 26.7733 36.6012 27.0129 37.0895C27.2617 37.5687 27.6026 37.9418 28.0356 38.209C28.4779 38.467 28.9801 38.596 29.5421 38.596C30.0673 38.596 30.528 38.4809 30.9243 38.2505C31.3297 38.0109 31.6429 37.6608 31.8641 37.2001H34.0893C33.7668 38.186 33.2001 38.9554 32.3893 39.5082C31.5877 40.0519 30.6432 40.3237 29.556 40.3237C28.6346 40.3237 27.8007 40.1164 27.0543 39.7017C26.3172 39.2779 25.7321 38.6928 25.2991 37.9464C24.8752 37.2001 24.6633 36.3524 24.6633 35.4034Z" fill="#636369"/>
<path d="M40.4412 30.5936V40.2407H38.5062V30.5936H40.4412Z" fill="#636369"/>
<path d="M51.0326 38.4025H47.1903L46.5545 40.2407H44.5228L47.9919 30.5798H50.2447L53.7138 40.2407H51.6683L51.0326 38.4025ZM50.5073 36.8546L49.1114 32.8188L47.7155 36.8546H50.5073Z" fill="#636369"/>
<path d="M59.7097 38.7066H62.8886V40.2407H57.7748V30.5936H59.7097V38.7066Z" fill="#636369"/>
<path d="M93.7918 30.595V40.2421H91.8568V33.9673L89.2723 40.2421H87.8072L85.2089 33.9673V40.2421H83.2739V30.595H85.4715L88.5398 37.7681L91.6081 30.595H93.7918Z" fill="#636369"/>
<path d="M100.404 32.1568V34.5755H103.652V36.1096H100.404V38.6665H104.067V40.2421H98.469V30.5812H104.067V32.1568H100.404Z" fill="#636369"/>
<path d="M111.962 30.595C112.975 30.595 113.864 30.7931 114.629 31.1893C115.403 31.5855 115.997 32.1522 116.412 32.8893C116.836 33.6172 117.048 34.4649 117.048 35.4324C117.048 36.3998 116.836 37.2475 116.412 37.9755C115.997 38.6942 115.403 39.2516 114.629 39.6478C113.864 40.044 112.975 40.2421 111.962 40.2421H108.589V30.595H111.962ZM111.892 38.5974C112.906 38.5974 113.689 38.321 114.242 37.7681C114.795 37.2153 115.071 36.4367 115.071 35.4324C115.071 34.428 114.795 33.6448 114.242 33.0828C113.689 32.5115 112.906 32.2259 111.892 32.2259H110.524V38.5974H111.892Z" fill="#636369"/>
<path d="M123.195 30.595V40.2421H121.26V30.595H123.195Z" fill="#636369"/>
<path d="M133.787 38.4039H129.944L129.309 40.2421H127.277L130.746 30.5812H132.999L136.468 40.2421H134.422L133.787 38.4039ZM133.262 36.8559L131.866 32.8202L130.47 36.8559H133.262Z" fill="#636369"/>
<circle cx="73.1082" cy="36.2611" r="2.30352" fill="#636369"/>
</svg>
