<svg width="608" height="560" viewBox="0 0 608 560" fill="none" xmlns="http://www.w3.org/2000/svg">
<path d="M559.504 -31.5557L559.504 47.0839M559.504 591.557L559.504 311.247M559.504 245.505L559.504 97.2869" stroke="#97969C" stroke-dasharray="4 4"/>
<path d="M457.312 -31.1787L457.313 370.867M457.313 591.382L457.313 395.539" stroke="#97969C" stroke-dasharray="4 4"/>
<path d="M355.621 -31.3682L355.621 133.425M355.621 591.379L355.621 510.133M355.621 216.14L355.621 460.535" stroke="#97969C" stroke-dasharray="4 4"/>
<path d="M252.93 -31.1787L252.93 59.5647M252.93 591.375L252.93 83.8671" stroke="#97969C" stroke-dasharray="4 4"/>
<path d="M150.739 -31.3662L150.738 342.326M150.738 591.383L150.738 425.4" stroke="#97969C" stroke-dasharray="4 4"/>
<path d="M48.547 -31.5576L48.5469 152.27M48.5469 591.372L48.5469 288.354M48.5469 198.289L48.5469 271.121" stroke="#97969C" stroke-dasharray="4 4"/>
<path d="M0 487.054L330.227 487.054M608 487.054L379.607 487.054" stroke="#97969C" stroke-dasharray="4 4"/>
<path d="M0 383.261H112.263M608 383.261L469.346 383.261M190.468 383.261H444.674" stroke="#97969C" stroke-dasharray="4 4"/>
<path d="M0 175.675H25.6723M608 175.675L396.708 175.675M316 175.675L73.3582 175.675" stroke="#97969C" stroke-dasharray="4 4"/>
<path d="M0 279.468H39.4795M608 279.468H592.678M527.354 279.468L57.1204 279.468" stroke="#97969C" stroke-dasharray="4 4"/>
<path d="M0 71.8818L239.558 71.8818M608 71.8818H582.879M534.54 71.8818L265.522 71.8818" stroke="#97969C" stroke-dasharray="4 4"/>
<path d="M355.621 511.034L365.803 497.217L379.621 487.034L365.803 476.852L355.621 463.034L345.439 476.852L331.621 487.034L345.439 497.217L355.621 511.034Z" stroke="#97969C" stroke-dasharray="4 4"/>
<path d="M559.48 95.7998L569.663 81.9821L583.48 71.7998L569.663 61.6175L559.48 47.7998L549.298 61.6175L535.48 71.7998L549.298 81.9821L559.48 95.7998Z" stroke="#97969C" stroke-dasharray="4 4"/>
<path d="M48.6016 199.53L58.7839 185.713L72.6016 175.53L58.7839 165.348L48.6016 151.53L38.4192 165.348L24.6016 175.53L38.4192 185.713L48.6016 199.53Z" stroke="#97969C" stroke-dasharray="4 4"/>
<path d="M559.469 311.384L573.045 292.96L591.469 279.384L573.045 265.807L559.469 247.384L545.892 265.807L527.469 279.384L545.892 292.96L559.469 311.384Z" stroke="#97969C" stroke-dasharray="4 4"/>
<path d="M150.754 423.29L167.724 400.261L190.754 383.29L167.724 366.319L150.754 343.29L133.783 366.319L110.754 383.29L133.783 400.261L150.754 423.29Z" stroke="#97969C" stroke-dasharray="4 4"/>
<path d="M355.621 215.681L372.592 192.651L395.621 175.681L372.592 158.71L355.621 135.681L338.651 158.71L315.621 175.681L338.651 192.651L355.621 215.681Z" stroke="#97969C" stroke-dasharray="4 4"/>
<circle r="12" transform="matrix(1 0 0 -1 457.246 383.261)" stroke="#97969C" stroke-dasharray="4 4"/>
<circle r="8" transform="matrix(1 0 0 -1 48.5469 279.468)" stroke="#97969C" stroke-dasharray="4 4"/>
<circle r="12" transform="matrix(1 0 0 -1 252.598 71.8818)" stroke="#97969C" stroke-dasharray="4 4"/>
<rect x="-2" y="2" width="441.955" height="422.315" rx="6" transform="matrix(-1 0 0 1 543.328 73.4058)" fill="#121212"/>
<rect x="-2" y="2" width="441.955" height="422.315" rx="6" transform="matrix(-1 0 0 1 543.328 73.4058)" stroke="#121212" stroke-width="4"/>
<rect x="-2" y="2" width="441.12" height="419.085" rx="6" transform="matrix(-1 0 0 1 525.039 60.4863)" fill="#F5F6F8"/>
<rect x="-2" y="2" width="441.12" height="419.085" rx="6" transform="matrix(-1 0 0 1 525.039 60.4863)" stroke="#121212" stroke-width="4"/>
<rect x="96" y="73.4043" width="422" height="38" rx="4" fill="white"/>
<rect x="113" y="87.4043" width="10" height="10" rx="5" fill="#EB5757"/>
<rect x="131" y="87.4043" width="10" height="10" rx="5" fill="#F2C94C"/>
<rect x="149" y="87.4043" width="10" height="10" rx="5" fill="#27AE60"/>
<path d="M492.438 86.4043C492.438 85.852 491.99 85.4043 491.438 85.4043C490.885 85.4043 490.438 85.852 490.438 86.4043H492.438ZM490.438 98.4043C490.438 98.9566 490.885 99.4043 491.438 99.4043C491.99 99.4043 492.438 98.9566 492.438 98.4043H490.438ZM490.438 86.4043V98.4043H492.438V86.4043H490.438Z" fill="#E7EDF5"/>
<path d="M497.437 93.4043C497.99 93.4043 498.437 92.9566 498.438 92.4043C498.438 91.852 497.99 91.4043 497.438 91.4043L497.437 93.4043ZM485.438 91.4043C484.885 91.4043 484.438 91.852 484.438 92.4043C484.437 92.9566 484.885 93.4043 485.437 93.4043L485.438 91.4043ZM497.438 91.4043L485.438 91.4043L485.437 93.4043L497.437 93.4043L497.438 91.4043Z" fill="#E7EDF5"/>
<rect x="-1" y="1" width="419" height="345" rx="7" transform="matrix(-1 0 0 1 514.979 124)" fill="#F5F6F8"/>
<path d="M150.025 228.596V216.536H147.325V228.596H150.025ZM154.958 228.596V223.466C154.958 222.098 155.516 221.684 156.812 221.684C158.18 221.684 158.594 222.134 158.594 223.394V228.596H161.294V222.854C161.294 220.928 160.286 219.362 157.928 219.362C156.344 219.362 155.372 220.1 154.886 221.126H154.778V219.542H152.276V228.596H154.958ZM167.522 228.632C168.152 228.632 168.854 228.542 169.286 228.452V226.202H168.17C167 226.202 166.73 226.112 166.73 225.32V221.774H169.286V219.542H166.73V217.436H164.605L164.102 219.542H162.589V221.774H164.03V225.626C164.03 227.768 165.163 228.632 167.522 228.632ZM175.041 228.776C177.633 228.776 179.289 227.642 179.289 225.716V225.536H176.625V225.644C176.625 226.202 176.157 226.436 175.077 226.436C173.601 226.436 173.097 225.932 173.043 224.672H179.253C179.307 224.366 179.379 223.844 179.379 223.34C179.379 220.982 177.777 219.362 175.059 219.362C172.233 219.362 170.505 221.198 170.505 224.096C170.505 226.958 171.927 228.776 175.041 228.776ZM174.969 221.576C176.229 221.576 176.841 222.098 176.787 223.034H173.061C173.169 222.08 173.673 221.576 174.969 221.576ZM184.828 227.642C186.196 227.642 187.15 227.03 187.546 226.328H187.654V227.732C187.654 229.136 187.366 229.46 185.944 229.46C184.396 229.46 184.126 229.226 184.126 228.29H181.444C181.444 230.594 183.028 231.836 185.854 231.836C188.77 231.836 190.336 230.54 190.336 227.588V219.542H187.834V220.856H187.744C187.258 219.866 186.232 219.362 184.936 219.362C182.362 219.362 180.994 221 180.994 223.52C180.994 226.04 182.326 227.642 184.828 227.642ZM183.676 223.52C183.676 222.242 184.126 221.648 185.674 221.648C186.97 221.648 187.654 222.098 187.654 223.25V223.79C187.654 224.942 186.952 225.392 185.656 225.392C184.126 225.392 183.676 224.798 183.676 223.52ZM195.21 228.596V222.926C195.21 221.936 195.606 221.648 196.434 221.648C197.28 221.648 197.586 221.954 197.586 222.926V223.412H200.268V222.584C200.268 220.766 199.566 219.362 197.676 219.362C196.398 219.362 195.588 220.082 195.138 221H195.03V219.542H192.528V228.596H195.21ZM204.166 228.776C205.84 228.776 206.758 228.038 207.244 227.372H207.352V228.596H209.854V223.232C209.854 220.82 208.45 219.362 205.786 219.362C203.23 219.362 201.556 220.784 201.556 222.944V223.142H204.13V222.944C204.13 222.026 204.562 221.72 205.66 221.72C206.722 221.72 207.298 221.918 207.298 222.98V223.268L204.202 223.736C202.33 224.024 201.322 224.888 201.322 226.292C201.322 227.93 202.564 228.776 204.166 228.776ZM203.896 226.076C203.896 225.698 204.148 225.518 204.706 225.428L207.298 225.032C207.298 226.436 206.164 226.724 205.066 226.724C204.274 226.724 203.896 226.562 203.896 226.076ZM216.1 228.632C216.73 228.632 217.432 228.542 217.864 228.452V226.202H216.748C215.578 226.202 215.308 226.112 215.308 225.32V221.774H217.864V219.542H215.308V217.436H213.184L212.68 219.542H211.168V221.774H212.608V225.626C212.608 227.768 213.742 228.632 216.1 228.632ZM222.157 218.516V216.536H219.475L219.511 218.516H222.157ZM222.211 228.596V219.542H219.511V228.596H222.211ZM228.469 228.776C231.367 228.776 233.059 226.94 233.059 224.078C233.059 221.198 231.367 219.362 228.469 219.362C225.553 219.362 223.825 221.198 223.825 224.078C223.825 226.94 225.553 228.776 228.469 228.776ZM228.469 226.4C226.993 226.4 226.489 225.824 226.489 224.078C226.489 222.314 226.993 221.738 228.469 221.738C229.927 221.738 230.431 222.314 230.431 224.078C230.431 225.824 229.927 226.4 228.469 226.4ZM237.514 228.596V223.466C237.514 222.098 238.072 221.684 239.368 221.684C240.736 221.684 241.15 222.134 241.15 223.394V228.596H243.85V222.854C243.85 220.928 242.842 219.362 240.484 219.362C238.9 219.362 237.928 220.1 237.442 221.126H237.334V219.542H234.832V228.596H237.514ZM249.914 228.776C252.416 228.776 253.802 227.696 253.802 226.004C253.802 224.528 253.01 223.664 251.102 223.304L249.446 222.962C248.366 222.746 248.204 222.62 248.204 222.188C248.204 221.756 248.456 221.522 249.536 221.522C250.688 221.522 250.94 221.846 250.94 222.44V222.692H253.514V222.44C253.514 220.406 251.822 219.362 249.608 219.362C247.034 219.362 245.666 220.55 245.666 222.224C245.666 223.898 246.638 224.654 248.42 224.978L249.788 225.23C250.994 225.446 251.246 225.554 251.246 226.04C251.246 226.49 251.066 226.652 249.968 226.652C248.654 226.652 248.258 226.508 248.258 225.842V225.464H245.684V225.518C245.684 227.714 247.07 228.776 249.914 228.776Z" fill="black"/>
<g clip-path="url(#clip0_6584_41818)">
<path d="M127.725 221.535C127.962 221.773 127.962 222.161 127.725 222.399C127.487 222.637 127.098 222.637 126.861 222.399L121.675 217.213C121.438 216.975 121.438 216.587 121.675 216.349C121.913 216.111 122.302 216.111 122.539 216.349L127.725 221.535ZM132.047 217.214C132.284 217.452 132.284 217.84 132.047 218.078C131.809 218.316 131.42 218.316 131.182 218.078L125.996 212.892C125.758 212.654 125.758 212.266 125.996 212.028C126.234 211.79 126.622 211.79 126.86 212.028L132.047 217.214Z" fill="#9AAAB4"/>
<path d="M141.256 233.596C141.256 230.561 139.692 228.352 138.468 227.087C139.017 226.151 138.898 224.931 138.095 224.127L137.424 223.455C137.639 222.641 137.437 221.741 136.799 221.102L133.775 218.077C134.252 217.6 134.252 216.826 133.775 216.349C133.298 215.871 132.523 215.871 132.046 216.348L130.319 218.075L130.317 218.076L127.725 220.669L125.997 222.398C125.519 222.875 125.519 223.648 125.997 224.126C126.474 224.603 127.248 224.603 127.725 224.126L130.75 227.151C131.388 227.789 132.289 227.99 133.103 227.775L133.775 228.448C134.581 229.253 135.806 229.37 136.744 228.815C137.65 229.761 138.812 231.398 138.812 233.596H141.256Z" fill="#31373D"/>
</g>
<rect x="119.979" y="251.596" width="372" height="189" rx="8" fill="white"/>
<path d="M295.371 332.596V329.356H286.707V326.116H295.011V322.9H286.707V319.756H295.371V316.516H283.107V332.596H295.371ZM301.675 332.596V325.756C301.675 323.932 302.419 323.38 304.147 323.38C305.971 323.38 306.523 323.98 306.523 325.66V332.596H310.123V324.94C310.123 322.372 308.779 320.284 305.635 320.284C303.523 320.284 302.227 321.268 301.579 322.636H301.435V320.524H298.099V332.596H301.675ZM317.562 331.324C319.386 331.324 320.658 330.508 321.186 329.572H321.33V331.444C321.33 333.316 320.946 333.748 319.05 333.748C316.986 333.748 316.626 333.436 316.626 332.188H313.05C313.05 335.26 315.162 336.916 318.93 336.916C322.818 336.916 324.906 335.188 324.906 331.252V320.524H321.57V322.276H321.45C320.802 320.956 319.434 320.284 317.706 320.284C314.274 320.284 312.45 322.468 312.45 325.828C312.45 329.188 314.226 331.324 317.562 331.324ZM316.026 325.828C316.026 324.124 316.626 323.332 318.69 323.332C320.418 323.332 321.33 323.932 321.33 325.468V326.188C321.33 327.724 320.394 328.324 318.666 328.324C316.626 328.324 316.026 327.532 316.026 325.828ZM331.164 332.836C333.396 332.836 334.62 331.852 335.268 330.964H335.412V332.596H338.748V325.444C338.748 322.228 336.876 320.284 333.324 320.284C329.916 320.284 327.684 322.18 327.684 325.06V325.324H331.116V325.06C331.116 323.836 331.692 323.428 333.156 323.428C334.572 323.428 335.34 323.692 335.34 325.108V325.492L331.212 326.116C328.716 326.5 327.372 327.652 327.372 329.524C327.372 331.708 329.028 332.836 331.164 332.836ZM330.804 329.236C330.804 328.732 331.14 328.492 331.884 328.372L335.34 327.844C335.34 329.716 333.828 330.1 332.364 330.1C331.308 330.1 330.804 329.884 330.804 329.236ZM346.213 331.324C348.037 331.324 349.309 330.508 349.837 329.572H349.981V331.444C349.981 333.316 349.597 333.748 347.701 333.748C345.637 333.748 345.277 333.436 345.277 332.188H341.701C341.701 335.26 343.813 336.916 347.581 336.916C351.469 336.916 353.557 335.188 353.557 331.252V320.524H350.221V322.276H350.101C349.453 320.956 348.085 320.284 346.357 320.284C342.925 320.284 341.101 322.468 341.101 325.828C341.101 329.188 342.877 331.324 346.213 331.324ZM344.677 325.828C344.677 324.124 345.277 323.332 347.341 323.332C349.069 323.332 349.981 323.932 349.981 325.468V326.188C349.981 327.724 349.045 328.324 347.317 328.324C345.277 328.324 344.677 327.532 344.677 325.828ZM361.955 332.836C365.411 332.836 367.619 331.324 367.619 328.756V328.516H364.067V328.66C364.067 329.404 363.443 329.716 362.003 329.716C360.035 329.716 359.363 329.044 359.291 327.364H367.571C367.643 326.956 367.739 326.26 367.739 325.588C367.739 322.444 365.603 320.284 361.979 320.284C358.211 320.284 355.907 322.732 355.907 326.596C355.907 330.412 357.803 332.836 361.955 332.836ZM361.859 323.236C363.539 323.236 364.355 323.932 364.283 325.18H359.315C359.459 323.908 360.131 323.236 361.859 323.236Z" fill="black"/>
<rect width="72" height="31" rx="4" transform="matrix(-1 0 0 1 353.979 351.596)" fill="#8199FD"/>
<path d="M298.167 370.716C300.327 370.716 301.635 369.516 301.635 367.584V367.512H300.255V367.584C300.255 368.904 299.643 369.468 298.131 369.468C296.463 369.468 295.791 368.664 295.791 366.576C295.791 364.488 296.463 363.684 298.131 363.684C299.643 363.684 300.255 364.248 300.255 365.568V365.64H301.635V365.568C301.635 363.636 300.327 362.436 298.167 362.436C295.827 362.436 294.411 364.068 294.411 366.576C294.411 369.084 295.827 370.716 298.167 370.716ZM305.796 370.716C307.62 370.716 308.724 369.468 308.724 367.608C308.724 365.76 307.62 364.512 305.796 364.512C303.96 364.512 302.82 365.76 302.82 367.608C302.82 369.468 303.96 370.716 305.796 370.716ZM305.796 369.564C304.536 369.564 304.092 368.952 304.092 367.608C304.092 366.276 304.536 365.664 305.796 365.664C307.044 365.664 307.476 366.276 307.476 367.608C307.476 368.952 307.044 369.564 305.796 369.564ZM311.349 370.596V367.152C311.349 366.036 311.829 365.628 312.885 365.628C313.977 365.628 314.313 366.072 314.313 367.14V370.596H315.609V366.852C315.609 365.496 314.913 364.512 313.365 364.512C312.201 364.512 311.565 365.112 311.289 365.748H311.241V364.632H310.053V370.596H311.349ZM318.506 370.596V367.152C318.506 366.036 318.986 365.628 320.042 365.628C321.134 365.628 321.47 366.072 321.47 367.14V370.596H322.766V366.852C322.766 365.496 322.07 364.512 320.522 364.512C319.358 364.512 318.722 365.112 318.446 365.748H318.398V364.632H317.21V370.596H318.506ZM326.996 370.716C328.604 370.716 329.672 369.924 329.672 368.7V368.592H328.388V368.688C328.388 369.228 328.004 369.564 327.008 369.564C325.76 369.564 325.364 369.012 325.316 367.92H329.648C329.684 367.74 329.72 367.416 329.72 367.104C329.72 365.472 328.592 364.512 326.984 364.512C325.208 364.512 324.104 365.76 324.104 367.608C324.104 369.468 325.028 370.716 326.996 370.716ZM326.96 365.604C327.98 365.604 328.532 366.036 328.484 367.056H325.328C325.4 366.132 325.832 365.604 326.96 365.604ZM333.848 370.728C335.456 370.728 336.548 369.744 336.548 368.328V368.22H335.264V368.292C335.264 369.168 334.808 369.552 333.812 369.552C332.66 369.552 332.216 368.916 332.216 367.62C332.216 366.324 332.66 365.676 333.812 365.676C334.808 365.676 335.264 366.072 335.264 366.948V367.02H336.548V366.912C336.548 365.484 335.468 364.512 333.896 364.512C332.024 364.512 330.932 365.76 330.932 367.62C330.932 369.468 331.988 370.728 333.848 370.728ZM340.321 370.596C340.729 370.596 341.137 370.548 341.389 370.488V369.432H340.657C339.853 369.432 339.589 369.324 339.589 368.7V365.712H341.389V364.632H339.589V363.156H338.593L338.317 364.632H337.297V365.712H338.293V368.76C338.293 370.104 338.989 370.596 340.321 370.596Z" fill="white"/>
<rect x="157.979" y="296.096" width="100" height="100" rx="50" fill="#F2F5FF"/>
<path d="M231.051 343.674C231.066 343.4 231.069 343.128 231.069 342.851C231.069 342.369 231.051 341.884 231.015 341.411C230.193 330.618 220.191 322.096 207.976 322.096C195.227 322.096 184.889 331.389 184.889 342.854C184.889 351.657 190.983 359.179 199.583 362.2C202.117 363.089 203.505 365.812 202.746 368.388L202.243 370.096C208.226 366.887 214.606 363.993 220.236 360.194C224.969 357.004 229.509 352.292 230.705 346.529H209.497C207.886 350.084 204.006 352.587 199.472 352.587C194.694 352.587 190.636 349.804 189.202 345.942C188.934 345.225 188.757 344.466 188.681 343.677V343.674H231.051ZM199.472 333.118C204.677 333.118 209.027 336.423 210.064 340.827H188.877C189.916 336.423 194.26 333.118 199.472 333.118Z" fill="#00CC74"/>
<rect x="415.979" y="279.596" width="48" height="8" rx="4" fill="#EEF1F7"/>
<rect x="-0.5" y="0.5" width="60" height="39" rx="3.5" transform="matrix(-1 0 0 1 490.979 146.596)" fill="white"/>
<path d="M476.978 169.595L472.735 165.352L474.15 163.938L476.978 166.767L479.806 163.938L481.221 165.352L476.978 169.595Z" fill="#B7C9E3"/>
<g clip-path="url(#clip1_6584_41818)">
<rect x="440.979" y="154.596" width="24" height="24" rx="12" fill="#EAEEFF"/>
<path d="M449.027 161.65C449.027 162.678 449.027 163.631 449.027 164.242C448.472 164.242 448.019 163.659 448.019 162.946C448.019 162.234 448.472 161.65 449.027 161.65Z" fill="#BD6446"/>
<path d="M459.228 162.946C459.228 162.965 459.228 162.983 459.228 163.002C459.228 163.011 459.228 163.02 459.228 163.03C459.228 163.039 459.228 163.057 459.228 163.067C459.228 163.076 459.228 163.085 459.228 163.104C459.228 163.113 459.228 163.131 459.228 163.141C459.228 163.15 459.228 163.168 459.218 163.178C459.218 163.187 459.218 163.205 459.209 163.215C459.209 163.224 459.209 163.243 459.2 163.252C459.2 163.261 459.2 163.261 459.2 163.27C459.2 163.289 459.191 163.298 459.191 163.317C459.191 163.335 459.181 163.344 459.181 163.363C459.181 163.381 459.172 163.391 459.172 163.409C459.172 163.418 459.163 163.437 459.163 163.446C459.163 163.465 459.154 163.474 459.154 163.483C459.144 163.511 459.135 163.539 459.117 163.566C459.107 163.576 459.107 163.594 459.098 163.604C459.052 163.715 458.987 163.807 458.913 163.9C458.904 163.909 458.894 163.918 458.885 163.927C458.885 163.927 458.885 163.927 458.876 163.937C458.867 163.946 458.848 163.964 458.839 163.974C458.82 163.992 458.793 164.02 458.774 164.039C458.765 164.048 458.756 164.048 458.756 164.057C458.737 164.066 458.728 164.085 458.709 164.094L458.7 164.103C458.691 164.113 458.672 164.122 458.663 164.131C458.654 164.14 458.645 164.14 458.626 164.15C458.617 164.159 458.608 164.159 458.589 164.168C458.543 164.187 458.496 164.205 458.45 164.224C458.441 164.224 458.432 164.233 458.422 164.233C458.404 164.233 458.385 164.242 458.376 164.242C458.367 164.242 458.348 164.251 458.339 164.251C458.33 164.251 458.33 164.251 458.321 164.251C458.302 164.251 458.293 164.251 458.274 164.251C458.265 164.251 458.256 164.251 458.247 164.251C458.237 164.251 458.237 164.251 458.228 164.251H458.219C458.219 163.835 458.228 163.28 458.228 162.696C458.228 162.354 458.228 162.002 458.228 161.669C458.237 161.669 458.247 161.669 458.256 161.669C458.265 161.669 458.274 161.669 458.284 161.669C458.293 161.669 458.302 161.669 458.311 161.669C458.321 161.669 458.33 161.669 458.339 161.669C458.376 161.678 458.404 161.678 458.441 161.687C458.45 161.687 458.45 161.687 458.459 161.697C458.469 161.697 458.478 161.706 458.478 161.706C458.487 161.706 458.487 161.706 458.496 161.715C458.506 161.715 458.506 161.724 458.515 161.724C458.533 161.734 458.552 161.743 458.561 161.743C458.58 161.752 458.589 161.762 458.608 161.762C458.626 161.771 458.635 161.78 458.654 161.789C458.672 161.799 458.682 161.808 458.7 161.817C458.728 161.836 458.756 161.863 458.783 161.882C458.793 161.891 458.811 161.91 458.82 161.919C458.83 161.928 458.839 161.937 458.848 161.947C458.857 161.956 458.867 161.965 458.876 161.974C458.876 161.974 458.876 161.974 458.885 161.984C458.894 161.993 458.904 162.002 458.913 162.021C458.941 162.058 458.969 162.095 458.996 162.141C459.006 162.15 459.015 162.16 459.015 162.178C459.089 162.308 459.154 162.456 459.181 162.613C459.181 162.632 459.191 162.65 459.191 162.678C459.191 162.687 459.191 162.696 459.2 162.715C459.2 162.724 459.2 162.743 459.209 162.752C459.209 162.77 459.218 162.798 459.218 162.817C459.218 162.835 459.218 162.854 459.228 162.872C459.228 162.891 459.228 162.909 459.228 162.928C459.228 162.919 459.228 162.937 459.228 162.946Z" fill="#BD6446"/>
<path d="M457.257 171.471C457.238 173.461 455.628 175.063 453.638 175.063C451.648 175.063 450.037 173.461 450.019 171.471C450.37 171.471 450.694 171.323 450.926 171.092C451.074 170.944 451.185 170.758 451.25 170.555C451.287 170.434 451.305 170.314 451.305 170.175V167.398H455.97V170.175C455.97 170.897 456.544 171.471 457.257 171.471Z" fill="#C67250"/>
<path d="M455.969 167.417V169.046C455.127 170.055 453.831 170.703 452.378 170.703C451.989 170.703 451.6 170.657 451.239 170.564C451.276 170.444 451.295 170.323 451.295 170.185V167.408H455.969V167.417Z" fill="#A15235"/>
<path d="M457.46 159.179C457.876 160.068 458.247 160.345 458.247 161.4C458.247 161.502 458.247 161.586 458.247 161.65C458.247 161.984 458.247 162.335 458.247 162.678C458.247 163.261 458.237 163.826 458.237 164.233C458.237 164.649 458.228 164.918 458.228 164.918C458.228 166.538 457.321 167.963 455.97 168.731C455.747 168.861 455.516 168.963 455.275 169.055C455.275 169.055 455.275 169.055 455.266 169.055C454.822 169.222 454.35 169.315 453.85 169.342C453.776 169.342 453.702 169.352 453.628 169.352C452.998 169.352 452.397 169.231 451.86 169.009C451.665 168.935 451.48 168.842 451.304 168.741C449.944 167.972 449.027 166.547 449.027 164.918C449.027 164.918 449.027 164.659 449.027 164.233C449.027 163.622 449.027 162.669 449.027 161.641V161.4C449.027 160.188 449.462 159.762 449.916 158.929C450.656 157.568 452.082 156.726 453.628 156.726L454.822 156.902C454.868 156.92 454.914 156.93 454.961 156.948C455.294 157.059 455.609 157.207 455.895 157.393C455.914 157.402 455.942 157.42 455.96 157.43C455.997 157.457 456.044 157.485 456.081 157.513C456.118 157.541 456.164 157.568 456.201 157.605C456.358 157.726 456.506 157.855 456.645 158.003C456.664 158.022 456.682 158.04 456.701 158.059C456.738 158.096 456.766 158.133 456.803 158.17C456.904 158.281 456.997 158.401 457.08 158.522C457.127 158.587 457.164 158.642 457.21 158.707C457.293 158.855 457.386 159.012 457.46 159.179Z" fill="#C67250"/>
<path d="M458.238 161.4C458.238 161.502 458.238 161.586 458.238 161.65C458.238 161.752 458.238 161.854 458.238 161.956C458.108 161.604 457.831 160.836 457.608 160.466C457.451 160.188 457.433 159.744 457.349 159.355C457.266 158.957 456.914 158.67 456.516 158.67H450.731C450.324 158.67 449.972 158.957 449.898 159.355C449.815 159.744 449.805 160.188 449.639 160.466C449.435 160.817 449.167 161.521 449.037 161.891C449.037 161.724 449.037 161.558 449.037 161.391C449.037 160.179 449.472 159.753 449.926 158.92C450.666 157.559 452.092 156.717 453.637 156.717C454.461 156.717 455.248 156.957 455.914 157.383C456.581 157.809 457.127 158.42 457.479 159.17C457.877 160.068 458.238 160.345 458.238 161.4Z" fill="#77403A"/>
<path d="M449.028 162.706C449.028 162.706 448.593 162.187 448.306 162.632" stroke="#FDBFD9" stroke-width="0.123417" stroke-miterlimit="10" stroke-linecap="round" stroke-linejoin="round"/>
<path d="M458.229 162.706C458.229 162.706 458.543 162.16 458.978 162.576" stroke="#FDBFD9" stroke-width="0.123417" stroke-miterlimit="10" stroke-linecap="round" stroke-linejoin="round"/>
<path d="M451.851 169.018C452.063 169.12 452.212 169.25 452.387 169.342C452.582 169.454 452.748 169.639 452.952 169.685C453.165 169.731 453.396 169.611 453.6 169.602C453.822 169.583 454.063 169.666 454.257 169.611C454.479 169.546 454.646 169.352 454.822 169.268C455.025 169.176 455.303 169.056 455.433 168.991C455.423 168.991 453.572 169.815 451.851 169.018Z" fill="#121212"/>
<path d="M440.429 181.737L442.595 174.267C442.808 173.526 443.409 172.952 444.159 172.767L449.019 171.564C449.139 174.017 451.157 175.961 453.637 175.961C456.118 175.961 458.145 174.008 458.256 171.564L463.125 172.767C463.875 172.952 464.476 173.526 464.689 174.276L466.837 181.737H440.429Z" fill="#121212"/>
<path d="M458.256 171.564C458.136 174.017 456.118 175.96 453.637 175.96C451.157 175.96 449.139 174.007 449.019 171.564L450.018 171.471C450.037 173.461 451.647 175.063 453.637 175.063C455.628 175.063 457.238 173.461 457.257 171.471L458.256 171.564Z" fill="#333333"/>
<path d="M449.657 172.758C449.657 172.758 449.907 172.832 450.231 172.684" stroke="#333333" stroke-width="0.123417" stroke-miterlimit="10" stroke-linecap="round" stroke-linejoin="round"/>
<path d="M455.081 174.776C455.081 174.776 455.322 175.091 455.248 175.276" stroke="#333333" stroke-width="0.123417" stroke-miterlimit="10" stroke-linecap="round" stroke-linejoin="round"/>
<path d="M456.701 173.415C456.701 173.415 456.738 173.591 457.099 173.665" stroke="#333333" stroke-width="0.123417" stroke-miterlimit="10" stroke-linecap="round" stroke-linejoin="round"/>
<path d="M458.127 172.416C458.127 172.416 457.84 172.267 457.59 172.342" stroke="#333333" stroke-width="0.123417" stroke-miterlimit="10" stroke-linecap="round" stroke-linejoin="round"/>
<path d="M451.203 175.285C451.203 175.285 451.564 175.109 451.675 174.785" stroke="#333333" stroke-width="0.123417" stroke-miterlimit="10" stroke-linecap="round" stroke-linejoin="round"/>
<path d="M452.509 160.771C452.518 160.845 452.139 160.956 451.657 161.012C451.296 161.058 450.88 161.04 450.574 161.262C450.741 160.818 451.213 160.781 451.629 160.734C452.101 160.679 452.5 160.688 452.509 160.771Z" fill="#121212"/>
<path d="M451.019 161.753C451.019 161.753 451.611 161.308 452.203 161.753" stroke="#121212" stroke-width="0.123417" stroke-linecap="round" stroke-linejoin="round"/>
<path d="M454.758 160.771C454.749 160.845 455.128 160.956 455.61 161.012C455.971 161.058 456.387 161.04 456.693 161.262C456.526 160.818 456.054 160.781 455.637 160.734C455.165 160.679 454.767 160.688 454.758 160.771Z" fill="#121212"/>
<path d="M456.248 161.753C456.248 161.753 455.656 161.308 455.063 161.753" stroke="#121212" stroke-width="0.123417" stroke-linecap="round" stroke-linejoin="round"/>
<path d="M458.238 161.65C458.238 161.984 458.238 162.335 458.238 162.678C458.238 163.261 458.229 163.826 458.229 164.233C458.229 164.649 458.219 164.918 458.219 164.918C458.219 167.361 456.164 169.352 453.619 169.352C451.083 169.352 449.019 167.371 449.019 164.918C449.019 164.918 449.019 163.233 449.019 161.4C449.019 160.188 449.454 159.762 449.907 158.929C450.648 157.568 452.073 156.726 453.619 156.726C455.267 156.726 456.757 157.679 457.451 159.17C457.868 160.058 458.238 160.336 458.238 161.391C458.238 161.502 458.238 161.595 458.238 161.65Z" stroke="#121212" stroke-width="0.123417" stroke-linecap="round" stroke-linejoin="round"/>
<path d="M449.027 164.242C448.472 164.242 448.019 163.659 448.019 162.946C448.019 162.234 448.472 161.65 449.027 161.65" stroke="#121212" stroke-width="0.123417" stroke-linecap="round" stroke-linejoin="round"/>
<path d="M449.028 162.706C449.028 162.706 448.593 162.187 448.306 162.632" stroke="#121212" stroke-width="0.123417" stroke-linecap="round" stroke-linejoin="round"/>
<path d="M458.229 164.242C458.784 164.242 459.237 163.659 459.237 162.946C459.237 162.234 458.784 161.65 458.229 161.65" stroke="#121212" stroke-width="0.123417" stroke-linecap="round" stroke-linejoin="round"/>
<path d="M458.229 162.706C458.229 162.706 458.543 162.16 458.978 162.576" stroke="#121212" stroke-width="0.123417" stroke-linecap="round" stroke-linejoin="round"/>
<path d="M453.628 161.317L453.878 162.937C453.952 163.159 453.896 163.409 453.739 163.585L453.359 163.983" stroke="#121212" stroke-width="0.123417" stroke-linecap="round" stroke-linejoin="round"/>
<path d="M452.471 165.344C452.471 165.344 454.016 166.269 454.785 164.539" stroke="#121212" stroke-width="0.123417" stroke-linecap="round" stroke-linejoin="round"/>
<path d="M451.851 169.018C452.063 169.12 452.212 169.25 452.387 169.342C452.582 169.454 452.748 169.639 452.952 169.685C453.165 169.731 453.396 169.611 453.6 169.602C453.822 169.583 454.063 169.666 454.257 169.611C454.479 169.546 454.646 169.352 454.822 169.268C455.025 169.176 455.303 169.056 455.433 168.991C455.423 168.991 453.572 169.815 451.851 169.018Z" stroke="#121212" stroke-width="0.123417" stroke-linecap="round" stroke-linejoin="round"/>
<path d="M455.97 168.741V170.194C455.97 170.907 456.544 171.481 457.257 171.481C457.238 173.471 455.628 175.072 453.638 175.072C451.648 175.072 450.037 173.471 450.019 171.481C450.731 171.481 451.305 170.907 451.305 170.194V168.75" stroke="#121212" stroke-width="0.123417" stroke-linecap="round" stroke-linejoin="round"/>
<path d="M440.429 181.737L442.595 174.267C442.808 173.526 443.409 172.952 444.159 172.767L449.019 171.564C449.139 174.017 451.157 175.961 453.637 175.961C456.118 175.961 458.145 174.008 458.256 171.564L463.125 172.767C463.875 172.952 464.476 173.526 464.689 174.276L466.837 181.737H440.429Z" stroke="#121212" stroke-width="0.123417" stroke-linecap="round" stroke-linejoin="round"/>
<path d="M458.256 171.564C458.136 174.017 456.118 175.96 453.637 175.96C451.157 175.96 449.139 174.007 449.019 171.564L450.018 171.471C450.037 173.461 451.647 175.063 453.637 175.063C455.628 175.063 457.238 173.461 457.257 171.471L458.256 171.564Z" stroke="#121212" stroke-width="0.123417" stroke-linecap="round" stroke-linejoin="round"/>
<path d="M449.657 172.758C449.657 172.758 449.907 172.832 450.231 172.684" stroke="#121212" stroke-width="0.123417" stroke-linecap="round" stroke-linejoin="round"/>
<path d="M455.081 174.776C455.081 174.776 455.322 175.091 455.248 175.276" stroke="#121212" stroke-width="0.123417" stroke-linecap="round" stroke-linejoin="round"/>
<path d="M456.701 173.415C456.701 173.415 456.738 173.591 457.099 173.665" stroke="#121212" stroke-width="0.123417" stroke-linecap="round" stroke-linejoin="round"/>
<path d="M458.127 172.416C458.127 172.416 457.84 172.267 457.59 172.342" stroke="#121212" stroke-width="0.123417" stroke-linecap="round" stroke-linejoin="round"/>
<path d="M451.203 175.285C451.203 175.285 451.564 175.109 451.675 174.785" stroke="#121212" stroke-width="0.123417" stroke-linecap="round" stroke-linejoin="round"/>
<path d="M452.509 160.771C452.518 160.845 452.139 160.956 451.657 161.012C451.296 161.058 450.88 161.04 450.574 161.262C450.741 160.818 451.213 160.781 451.629 160.734C452.101 160.679 452.5 160.688 452.509 160.771Z" stroke="#121212" stroke-width="0.123417" stroke-linecap="round" stroke-linejoin="round"/>
<path d="M451.019 161.753C451.019 161.753 451.611 161.308 452.203 161.753" stroke="#121212" stroke-width="0.123417" stroke-linecap="round" stroke-linejoin="round"/>
<path d="M454.757 160.771C454.748 160.845 455.127 160.956 455.609 161.012C455.97 161.058 456.386 161.04 456.692 161.262C456.525 160.818 456.053 160.781 455.636 160.734C455.164 160.679 454.766 160.688 454.757 160.771Z" stroke="#121212" stroke-width="0.123417" stroke-linecap="round" stroke-linejoin="round"/>
<path d="M456.247 161.753C456.247 161.753 455.655 161.308 455.062 161.753" stroke="#121212" stroke-width="0.123417" stroke-linecap="round" stroke-linejoin="round"/>
<path opacity="0.13" d="M451.036 164.242C451.318 164.242 451.546 164.014 451.546 163.733C451.546 163.452 451.318 163.224 451.036 163.224C450.755 163.224 450.527 163.452 450.527 163.733C450.527 164.014 450.755 164.242 451.036 164.242Z" fill="white"/>
</g>
<rect x="-0.5" y="0.5" width="60" height="39" rx="3.5" transform="matrix(-1 0 0 1 490.979 146.596)" stroke="#DFE7F2"/>
<rect x="-1" y="1" width="419" height="345" rx="7" transform="matrix(-1 0 0 1 514.979 124)" stroke="#E1E8F2" stroke-width="2" stroke-dasharray="8 8"/>
<g clip-path="url(#clip2_6584_41818)">
<path d="M127.568 164.033C127.568 163.334 128.146 163.064 129.103 163.064C130.475 163.064 132.208 163.477 133.581 164.213V159.996C132.082 159.404 130.601 159.171 129.103 159.171C125.437 159.171 123 161.073 123 164.249C123 169.201 129.861 168.411 129.861 170.547C129.861 171.372 129.139 171.641 128.128 171.641C126.629 171.641 124.715 171.031 123.199 170.206V174.476C124.878 175.194 126.575 175.499 128.128 175.499C131.883 175.499 134.465 173.651 134.465 170.439C134.447 165.092 127.568 166.043 127.568 164.033ZM139.774 155.582L135.368 156.515L135.35 170.887C135.35 173.543 137.354 175.499 140.026 175.499C141.507 175.499 142.59 175.229 143.186 174.906V171.264C142.608 171.497 139.756 172.323 139.756 169.667V163.298H143.186V159.476H139.756L139.774 155.582ZM148.801 160.804L148.513 159.476H144.613V175.176H149.126V164.536C150.192 163.154 151.997 163.405 152.557 163.603V159.476C151.979 159.261 149.867 158.866 148.801 160.804ZM153.658 159.476H158.19V175.176H153.658V159.476ZM153.658 158.112L158.19 157.143V153.501L153.658 154.452V158.112V158.112ZM167.615 159.171C165.846 159.171 164.708 159.996 164.076 160.57L163.842 159.458H159.869V180.379L164.383 179.428L164.401 174.35C165.051 174.817 166.008 175.481 167.597 175.481C170.829 175.481 173.772 172.897 173.772 167.209C173.754 162.006 170.775 159.171 167.615 159.171ZM166.532 171.533C165.467 171.533 164.835 171.157 164.401 170.69L164.383 164.033C164.853 163.513 165.503 163.154 166.532 163.154C168.175 163.154 169.312 164.984 169.312 167.335C169.312 169.739 168.193 171.533 166.532 171.533ZM188 167.389C188 162.795 185.761 159.171 181.482 159.171C177.185 159.171 174.585 162.795 174.585 167.353C174.585 172.753 177.654 175.481 182.06 175.481C184.208 175.481 185.833 174.996 187.061 174.314V170.726C185.833 171.336 184.425 171.713 182.638 171.713C180.886 171.713 179.333 171.103 179.135 168.985H187.964C187.964 168.752 188 167.819 188 167.389ZM179.081 165.684C179.081 163.657 180.326 162.813 181.464 162.813C182.565 162.813 183.739 163.657 183.739 165.684H179.081Z" fill="#6772E5"/>
</g>
<defs>
<clipPath id="clip0_6584_41818">
<rect width="22" height="22" fill="white" transform="translate(120.479 211.596)"/>
</clipPath>
<clipPath id="clip1_6584_41818">
<rect x="440.979" y="154.596" width="24" height="24" rx="12" fill="white"/>
</clipPath>
<clipPath id="clip2_6584_41818">
<rect width="65" height="27" fill="white" transform="translate(123 153.5)"/>
</clipPath>
</defs>
</svg>
