<svg xmlns="http://www.w3.org/2000/svg" xmlns:xlink="http://www.w3.org/1999/xlink" width="608" height="561" fill="none" xmlns:v="https://vecta.io/nano"><style><![CDATA[.B{fill:#fff}.C{stroke:#121212}.D{stroke-width:4}.E{fill:#5c913b}.F{stroke:#dfe7f2}.G{fill:#f5f6f8}.H{fill:#ffac33}.I{fill:#636369}.J{fill:#121212}.K{fill:#ccd6dd}.L{stroke:#e1e8f2}.M{stroke-width:2}.N{stroke-dasharray:8 8}]]></style><g stroke="#97969c" stroke-dasharray="4 4"><path d="M48.496-30.96v78.64m0 544.473v-280.31m0-65.742V97.883M150.688-30.583l-.001 402.045m0 220.516V396.135M252.379-30.772v164.794m0 457.954V510.73m0-293.993V461.13M355.07-30.583V60.16m0 531.811V84.463M457.261-30.77l.001 373.693m0 249.057V425.995M559.453-30.962v183.828m0 439.102V288.95m0-90.065v72.831"/><path d="M608 487.649H277.773M0 487.649h228.393M608 383.856H495.737M0 383.856h138.654m278.878 0H163.326M608 176.271h-25.672M0 176.271h211.292m80.708 0h242.642M608 280.063h-39.48m-568.52 0h15.322m65.323 0H550.88M608 72.478H368.442M0 72.478h25.121m48.339 0h269.018"/><path d="M252.379 511.63l-10.182-13.818-13.818-10.182 13.818-10.182 10.182-13.818 10.182 13.818 13.818 10.182-13.818 10.182-10.182 13.818zM48.52 96.396L38.337 82.578 24.52 72.396l13.818-10.182L48.52 48.396l10.182 13.818L72.52 72.396 58.702 82.578 48.52 96.396zm510.878 103.73l-10.182-13.818-13.818-10.182 13.818-10.182 10.182-13.818 10.183 13.818 13.817 10.182-13.817 10.182-10.183 13.818zM48.531 311.979l-13.576-18.423-18.424-13.577 18.424-13.576 13.576-18.424 13.577 18.424 18.423 13.576-18.423 13.577-13.577 18.423zm408.715 111.907l-16.97-23.03-23.03-16.97 23.03-16.971 16.97-23.029 16.971 23.029 23.029 16.971-23.029 16.97-16.971 23.03zm-204.867-207.61l-16.971-23.029-23.029-16.971 23.029-16.97 16.971-23.03 16.97 23.03 23.03 16.97-23.03 16.971-16.97 23.029z"/><circle cx="150.754" cy="383.856" r="12" transform="rotate(180 150.754 383.856)"/><circle cx="559.453" cy="280.063" r="8" transform="rotate(180 559.453 280.063)"/><circle cx="355.402" cy="72.478" r="12" transform="rotate(180 355.402 72.478)"/></g><g transform="matrix(-1 0 0 1 504 74)"><rect x="-2" y="2" width="444" height="239" rx="6" class="J"/><rect x="-2" y="2" width="444" height="239" rx="6" class="C D"/></g><g transform="matrix(-1 0 0 1 514.747 60.8823)"><rect x="-2" y="2" width="441" height="232" rx="6" class="G"/><rect x="-2" y="2" width="441" height="232" rx="6" class="C D"/></g><rect x="85.747" y="74.287" width="422" height="38" rx="4" class="B"/><rect x="102.747" y="88.287" width="10" height="10" rx="5" fill="#eb5757"/><rect x="120.747" y="88.287" width="10" height="10" rx="5" fill="#f2c94c"/><rect x="138.747" y="88.287" width="10" height="10" rx="5" fill="#27ae60"/><g fill="#e7edf5"><path d="M482.185 87.287a1 1 0 1 0-2 0h2zm-2 12a1 1 0 1 0 2 0h-2zm0-12v12h2v-12h-2z"/><path d="M487.185 94.287a1 1 0 1 0 0-2v2zm-12-2a1 1 0 1 0 0 2v-2zm12 0h-12v2h12v-2z"/></g><rect x="-1" y="1" width="419" height="153" rx="7" transform="matrix(-1 0 0 1 504.747 125.384)" class="G"/><path d="M142.035 166.091c3.42 0 4.716-1.728 4.716-3.654 0-1.764-.864-3.096-3.402-3.582l-2.142-.414c-1.404-.27-1.728-.45-1.728-1.224 0-.756.486-1.098 2.034-1.098 1.782 0 2.304.414 2.304 1.674v.198h2.664v-.144c0-2.394-1.44-4.176-4.878-4.176-3.456 0-4.806 1.818-4.806 3.654 0 1.872.972 3.042 3.276 3.438l2.124.378c1.692.288 1.872.576 1.872 1.386s-.378 1.116-1.908 1.116c-2.178 0-2.664-.378-2.664-1.71v-.18h-2.646v.234c0 2.664 1.638 4.104 5.184 4.104zm10.607 0c2.592 0 4.248-1.134 4.248-3.06v-.18h-2.664v.108c0 .558-.468.792-1.548.792-1.476 0-1.98-.504-2.034-1.764h6.21a8.16 8.16 0 0 0 .126-1.332c0-2.358-1.602-3.978-4.32-3.978-2.826 0-4.554 1.836-4.554 4.734 0 2.862 1.422 4.68 4.536 4.68zm-.072-7.2c1.26 0 1.872.522 1.818 1.458h-3.726c.108-.954.612-1.458 1.908-1.458zm9.859 6.066c1.368 0 2.322-.612 2.718-1.314h.108v1.404c0 1.404-.288 1.728-1.71 1.728-1.548 0-1.818-.234-1.818-1.17h-2.682c0 2.304 1.584 3.546 4.41 3.546 2.916 0 4.482-1.296 4.482-4.248v-8.046h-2.502v1.314h-.09c-.486-.99-1.512-1.494-2.808-1.494-2.574 0-3.942 1.638-3.942 4.158s1.332 4.122 3.834 4.122zm-1.152-4.122c0-1.278.45-1.872 1.998-1.872 1.296 0 1.98.45 1.98 1.602v.54c0 1.152-.702 1.602-1.998 1.602-1.53 0-1.98-.594-1.98-1.872zm11.534 5.076v-5.238c0-1.278.54-1.674 1.764-1.674 1.296 0 1.692.45 1.692 1.71v5.202h2.7v-5.202c0-1.314.522-1.71 1.746-1.71 1.314 0 1.692.45 1.692 1.71v5.202h2.7v-5.742c0-1.926-.954-3.492-3.294-3.492-1.674 0-2.574.774-3.078 1.764h-.09c-.45-1.062-1.386-1.764-2.934-1.764s-2.484.738-2.97 1.764h-.108v-1.584h-2.502v9.054h2.682zm18.593.18c2.592 0 4.248-1.134 4.248-3.06v-.18h-2.664v.108c0 .558-.468.792-1.548.792-1.476 0-1.98-.504-2.034-1.764h6.21a8.16 8.16 0 0 0 .126-1.332c0-2.358-1.602-3.978-4.32-3.978-2.826 0-4.554 1.836-4.554 4.734 0 2.862 1.422 4.68 4.536 4.68zm-.072-7.2c1.26 0 1.872.522 1.818 1.458h-3.726c.108-.954.612-1.458 1.908-1.458zm8.926 7.02v-5.13c0-1.368.558-1.782 1.854-1.782 1.368 0 1.782.45 1.782 1.71v5.202h2.7v-5.742c0-1.926-1.008-3.492-3.366-3.492-1.584 0-2.556.738-3.042 1.764h-.108v-1.584h-2.502v9.054h2.682zm12.563.036a9.52 9.52 0 0 0 1.764-.18v-2.25h-1.116c-1.17 0-1.44-.09-1.44-.882v-3.546h2.556v-2.232h-2.556v-2.106h-2.124l-.504 2.106h-1.512v2.232h1.44v3.852c0 2.142 1.134 3.006 3.492 3.006zm7.496.144c2.502 0 3.888-1.08 3.888-2.772 0-1.476-.792-2.34-2.7-2.7l-1.656-.342c-1.08-.216-1.242-.342-1.242-.774s.252-.666 1.332-.666c1.152 0 1.404.324 1.404.918v.252h2.574v-.252c0-2.034-1.692-3.078-3.906-3.078-2.574 0-3.942 1.188-3.942 2.862s.972 2.43 2.754 2.754l1.368.252c1.206.216 1.458.324 1.458.81 0 .45-.18.612-1.278.612-1.314 0-1.71-.144-1.71-.81v-.378h-2.574v.054c0 2.196 1.386 3.258 4.23 3.258z" fill="#000"/><g clip-path="url(#A)"><path d="M111.838 150.744h1.222v20.167h-1.222v-20.167z" class="K"/><path d="M112.45 152.577c1.012 0 1.833-.82 1.833-1.833s-.821-1.833-1.833-1.833-1.834.82-1.834 1.833.821 1.833 1.834 1.833z" fill="#f4900c"/><path d="M115.505 166.022h-3.056a.61.61 0 1 1 0-1.223h3.056a.61.61 0 1 1 0 1.223z" fill="#66757f"/><path d="M128.949 165.411c0-1.35 3.794-3.667 2.444-3.667h-5.162c-.735-.895-2.808-1.833-4.31-1.833s-1.974.938-2.099 1.833h-3.706c-1.35 0-1.834 1.094-1.834 2.444v2.445c0 1.35.484 2.444 1.834 2.444h15.277c1.35 0-2.444-2.316-2.444-3.666z" fill="#dd2e44"/><use xlink:href="#F" class="B"/><use xlink:href="#G" fill="#000"/><path d="M131.394 161.744H119.76c1.264 1.397 2.898 3.951-.023 7.333h11.657c1.35 0-2.444-2.316-2.444-3.666s3.794-3.667 2.444-3.667z" fill="#f4abba"/><path d="M115.505 156.244h-3.056a.61.61 0 1 1 0-1.222h3.056a.61.61 0 1 1 0 1.222z" fill="#66757f"/><path d="M128.949 155.633c0-1.35 3.794-3.667 2.444-3.667h-5.161c-.735-.895-2.808-1.833-4.311-1.833s-1.974.938-2.099 1.833h-3.706c-1.35 0-1.834 1.095-1.834 2.445v2.444c0 1.35.484 2.444 1.834 2.444h15.277c1.35 0-2.444-2.316-2.444-3.666z" fill="#55acee"/><path d="M117.338 156.244c1.013 0 1.834-.821 1.834-1.834s-.821-1.833-1.834-1.833-1.833.821-1.833 1.833.821 1.834 1.833 1.834z" class="B"/><path d="M117.033 155.022a.92.92 0 0 0 .917-.917.92.92 0 0 0-.917-.917.92.92 0 0 0-.917.917.92.92 0 0 0 .917.917z" fill="#000"/><path d="M131.394 151.966H119.76c1.264 1.397 2.898 3.951-.023 7.334h11.657c1.35 0-2.444-2.317-2.444-3.667s3.794-3.667 2.444-3.667z" fill="#bbddf5"/></g><rect x="107.247" y="230.884" width="172" height="30" rx="3.5" class="B"/><g clip-path="url(#B)"><path d="M131.058 245.423l-3.707-1.372-1.385-4.538c-.053-.175-.215-.295-.398-.295a.42.42 0 0 0-.399.295l-1.384 4.538-3.708 1.372c-.164.061-.272.216-.272.391s.108.33.272.391l3.706 1.372 1.385 4.676c.053.177.215.298.4.298s.347-.121.399-.298l1.385-4.676 3.707-1.373c.163-.06.272-.215.272-.39s-.109-.33-.273-.391z" class="H"/><path d="M122.725 250.007l-.964-.357-.375-1.375c-.049-.182-.214-.307-.402-.307s-.352.125-.402.307l-.375 1.375-.963.356c-.164.061-.272.217-.272.391s.108.331.272.391l.958.355.378 1.51c.047.185.213.315.404.315s.358-.13.405-.316l.378-1.509.958-.355c.164-.06.272-.217.272-.391s-.108-.33-.272-.39zm-1.807-9.027l-.985-.364-.365-.986c-.061-.163-.216-.272-.391-.272a.42.42 0 0 0-.391.272l-.364.986-.986.364c-.164.061-.272.217-.272.391s.108.331.272.391l.986.365.364.985c.061.164.217.272.391.272s.33-.108.391-.272l.364-.985.986-.365c.164-.061.272-.217.272-.391s-.108-.33-.272-.391z" fill="#ffcc4d"/></g><path d="M144.206 244.712h-1.867c-.034-.241-.103-.456-.208-.643a1.66 1.66 0 0 0-.405-.486c-.165-.133-.355-.236-.571-.307s-.445-.106-.695-.106c-.452 0-.845.112-1.18.336s-.595.546-.78.972-.277.938-.277 1.543c0 .622.092 1.145.277 1.568s.449.743.784.959.723.323 1.163.323c.248 0 .476-.032.686-.098a1.79 1.79 0 0 0 .567-.285c.165-.128.301-.283.409-.465s.188-.389.23-.622l1.867.009c-.048.4-.169.787-.362 1.159s-.448.7-.772.993-.704.52-1.15.69-.945.252-1.504.252c-.779 0-1.475-.177-2.089-.529s-1.093-.862-1.448-1.53-.529-1.475-.529-2.424.179-1.762.537-2.429.844-1.176 1.458-1.526 1.303-.528 2.071-.528a4.48 4.48 0 0 1 1.406.213c.434.142.819.349 1.155.622s.608.601.818.993a3.71 3.71 0 0 1 .409 1.346zm4.126 5.8c-.662 0-1.234-.141-1.717-.422s-.851-.679-1.112-1.184-.392-1.098-.392-1.769.13-1.267.392-1.773a2.85 2.85 0 0 1 1.112-1.184c.483-.284 1.055-.426 1.717-.426s1.233.142 1.713.426.856.676 1.117 1.184.392 1.097.392 1.773-.131 1.26-.392 1.769a2.88 2.88 0 0 1-1.117 1.184c-.48.281-1.051.422-1.713.422zm.009-1.406c.301 0 .552-.085.754-.256a1.58 1.58 0 0 0 .456-.707c.105-.298.158-.638.158-1.019s-.053-.72-.158-1.018-.254-.534-.456-.708-.453-.259-.754-.259-.56.086-.767.259-.36.41-.465.708-.153.638-.153 1.018a3.14 3.14 0 0 0 .153 1.019c.105.298.26.534.465.707s.463.256.767.256zm4.273 1.278v-6.545h1.73v1.155h.077c.136-.384.364-.686.682-.908s.699-.332 1.142-.332c.449 0 .831.112 1.146.336s.526.523.631.904h.068a1.74 1.74 0 0 1 .725-.899c.352-.228.768-.341 1.248-.341.611 0 1.107.194 1.487.583s.576.935.576 1.645v4.402h-1.811v-4.044c0-.363-.097-.636-.29-.818s-.435-.273-.725-.273c-.329 0-.586.105-.771.316s-.277.481-.277.822v3.997h-1.76v-4.082c0-.321-.092-.577-.277-.767s-.422-.286-.72-.286a.99.99 0 0 0-.545.154c-.16.099-.286.24-.38.422s-.14.389-.14.63v3.929h-1.816zm10.826 2.455v-9h1.789v1.099h.081c.08-.176.195-.355.346-.537s.352-.338.596-.46.554-.187.921-.187a2.46 2.46 0 0 1 1.321.375c.403.247.725.62.967 1.12s.362 1.121.362 1.871c0 .73-.118 1.347-.354 1.85s-.551.879-.954 1.137a2.45 2.45 0 0 1-1.347.384c-.352 0-.652-.058-.899-.175s-.444-.263-.601-.439a2.25 2.25 0 0 1-.358-.541h-.055v3.503h-1.815zm1.777-5.727c0 .389.054.728.162 1.018s.264.516.468.678.453.238.746.238.545-.081.75-.243.359-.392.465-.682.161-.629.161-1.009a2.9 2.9 0 0 0-.157-.998c-.105-.287-.26-.511-.465-.673s-.456-.243-.754-.243-.545.078-.75.235-.356.377-.464.664-.162.625-.162 1.015zm7.512-5.455v8.727h-1.816v-8.727h1.816zm4.317 8.855c-.673 0-1.253-.136-1.739-.409a2.8 2.8 0 0 1-1.116-1.168c-.262-.505-.392-1.103-.392-1.794 0-.673.13-1.264.392-1.772s.629-.905 1.103-1.189 1.037-.426 1.679-.426c.432 0 .834.069 1.206.208a2.7 2.7 0 0 1 .981.618c.281.276.5.622.656 1.04s.234.901.234 1.457v.499h-5.527v-1.125h3.818a1.39 1.39 0 0 0-.17-.695 1.23 1.23 0 0 0-.473-.473c-.199-.116-.431-.174-.695-.174-.275 0-.52.064-.733.191s-.375.295-.494.508-.18.444-.183.703v1.069c0 .324.059.604.179.84a1.31 1.31 0 0 0 .515.545c.222.128.485.192.789.192.201 0 .386-.028.554-.085a1.15 1.15 0 0 0 .43-.256c.119-.114.21-.253.273-.418l1.679.111a2.29 2.29 0 0 1-.524 1.057c-.262.298-.6.531-1.015.699s-.887.247-1.427.247zm7.55-6.673v1.363h-3.941v-1.363h3.941zm-3.047-1.568h1.816v6.102c0 .168.025.298.076.392s.123.155.214.192a.87.87 0 0 0 .323.055 1.57 1.57 0 0 0 .256-.021l.196-.039.286 1.351a4.87 4.87 0 0 1-.384.098c-.165.04-.365.064-.601.073-.437.017-.821-.041-1.15-.175s-.581-.341-.763-.622-.271-.636-.269-1.065v-6.341zm7.022 8.241c-.673 0-1.252-.136-1.738-.409a2.81 2.81 0 0 1-1.117-1.168c-.261-.505-.392-1.103-.392-1.794 0-.673.131-1.264.392-1.772s.63-.905 1.104-1.189 1.037-.426 1.679-.426c.432 0 .834.069 1.206.208s.702.343.98.618.5.622.656 1.04.235.901.235 1.457v.499h-5.527v-1.125h3.818a1.39 1.39 0 0 0-.171-.695 1.22 1.22 0 0 0-.473-.473 1.35 1.35 0 0 0-.694-.174c-.276 0-.52.064-.733.191s-.375.295-.494.508-.181.444-.184.703v1.069c0 .324.06.604.179.84s.294.417.516.545.484.192.788.192c.202 0 .387-.028.554-.085s.311-.142.431-.256a1.11 1.11 0 0 0 .272-.418l1.679.111a2.29 2.29 0 0 1-.524 1.057c-.261.298-.599.531-1.014.699s-.888.247-1.428.247zm6.481-.021a2.47 2.47 0 0 1-1.351-.384c-.4-.258-.718-.637-.954-1.137s-.349-1.12-.349-1.85c0-.75.12-1.374.362-1.871s.562-.873.963-1.12.845-.375 1.325-.375c.367 0 .672.062.916.187s.446.276.597.46a2.33 2.33 0 0 1 .349.537h.056v-3.281h1.811v8.727h-1.79v-1.048h-.077c-.085.182-.206.362-.362.541s-.354.323-.601.439-.542.175-.895.175zm.576-1.445a1.16 1.16 0 0 0 .741-.238 1.51 1.51 0 0 0 .469-.678 2.84 2.84 0 0 0 .166-1.018c0-.39-.054-.728-.162-1.015s-.264-.508-.469-.664-.453-.235-.745-.235c-.299 0-.55.081-.755.243s-.359.386-.464.673-.158.62-.158.998.053.717.158 1.009.263.518.464.682.456.243.755.243zm7.179 1.338v-6.545h1.76v1.142h.068c.119-.406.319-.713.601-.921a1.58 1.58 0 0 1 .971-.315 2.84 2.84 0 0 1 .294.017c.105.011.198.027.277.047v1.611c-.085-.026-.203-.049-.353-.068s-.289-.03-.414-.03a1.46 1.46 0 0 0-.716.174 1.29 1.29 0 0 0-.494.478c-.119.204-.179.44-.179.707v3.703h-1.815zm7.468.128c-.673 0-1.253-.136-1.739-.409a2.8 2.8 0 0 1-1.116-1.168c-.261-.505-.392-1.103-.392-1.794 0-.673.131-1.264.392-1.772a2.89 2.89 0 0 1 1.104-1.189c.477-.284 1.037-.426 1.679-.426.431 0 .833.069 1.206.208s.701.343.98.618.5.622.656 1.04.234.901.234 1.457v.499h-5.527v-1.125h3.819a1.39 1.39 0 0 0-.171-.695 1.23 1.23 0 0 0-.473-.473c-.199-.116-.43-.174-.695-.174-.275 0-.519.064-.732.191a1.35 1.35 0 0 0-.495.508c-.119.21-.18.444-.183.703v1.069c0 .324.06.604.179.84s.294.417.516.545.484.192.788.192c.202 0 .386-.028.554-.085a1.14 1.14 0 0 0 .43-.256 1.1 1.1 0 0 0 .273-.418l1.679.111a2.29 2.29 0 0 1-.524 1.057c-.262.298-.6.531-1.014.699s-.888.247-1.428.247zm7.018 2.463c-.588 0-1.092-.081-1.513-.243s-.75-.376-.997-.652-.408-.585-.482-.929l1.679-.226c.051.131.132.253.243.367s.257.204.439.273.409.106.673.106c.395 0 .721-.096.976-.29s.388-.51.388-.958v-1.198h-.077a1.7 1.7 0 0 1-.358.516c-.159.162-.363.294-.613.396s-.548.154-.895.154c-.492 0-.939-.114-1.342-.341s-.721-.581-.959-1.053-.354-1.074-.354-1.798c0-.742.121-1.361.362-1.858s.563-.87.963-1.117.846-.37 1.326-.37c.366 0 .673.062.92.187s.446.276.597.46a2.46 2.46 0 0 1 .353.537h.069v-1.099h1.802v6.609c0 .557-.136 1.023-.409 1.398a2.47 2.47 0 0 1-1.133.844c-.481.19-1.033.285-1.658.285zm.038-4.048c.293 0 .54-.073.742-.217s.36-.358.468-.631.167-.605.167-.989-.054-.716-.162-.997a1.46 1.46 0 0 0-.469-.66c-.205-.157-.453-.235-.746-.235s-.55.081-.754.243-.359.381-.465.665a2.83 2.83 0 0 0-.157.984c0 .378.052.705.157.98s.263.485.465.635.456.222.754.222zm4.487 1.457v-6.545h1.815v6.545h-1.815zm.912-7.389c-.27 0-.502-.089-.695-.268s-.285-.4-.285-.652.095-.465.285-.644.425-.273.695-.273a.96.96 0 0 1 .69.273c.193.179.29.394.29.644s-.097.47-.29.652a.97.97 0 0 1-.69.268zm7.683 2.71l-1.662.103c-.028-.142-.089-.27-.183-.384s-.217-.209-.371-.277-.331-.106-.541-.106c-.281 0-.518.059-.711.179s-.29.272-.29.468c0 .157.062.289.187.397s.34.194.644.26l1.184.238c.637.131 1.111.341 1.424.631s.468.67.468 1.142a1.78 1.78 0 0 1-.379 1.129c-.25.324-.594.577-1.031.759s-.936.268-1.504.268c-.867 0-1.557-.18-2.071-.541s-.811-.858-.899-1.483l1.785-.094c.054.264.185.466.392.605s.473.205.797.205c.318 0 .574-.061.767-.183s.295-.286.298-.482a.5.5 0 0 0-.209-.405c-.136-.108-.346-.19-.63-.247l-1.134-.226c-.639-.128-1.115-.349-1.427-.665s-.465-.717-.465-1.205c0-.421.114-.783.341-1.087s.553-.538.967-.703.907-.247 1.466-.247c.827 0 1.478.174 1.952.524a2.02 2.02 0 0 1 .835 1.427zm4.654-1.866v1.363h-3.942v-1.363h3.942zm-3.047-1.568h1.816v6.102c0 .168.025.298.076.392s.122.155.213.192a.88.88 0 0 0 .324.055 1.58 1.58 0 0 0 .256-.021l.196-.039.285 1.351a4.71 4.71 0 0 1-.383.098c-.165.04-.365.064-.601.073-.437.017-.821-.041-1.151-.175s-.58-.341-.762-.622-.272-.636-.269-1.065v-6.341zm4.11 8.113v-6.545h1.76v1.142h.068c.119-.406.319-.713.601-.921a1.58 1.58 0 0 1 .971-.315 2.84 2.84 0 0 1 .294.017c.105.011.198.027.277.047v1.611c-.085-.026-.203-.049-.353-.068s-.289-.03-.414-.03c-.267 0-.506.058-.716.174a1.29 1.29 0 0 0-.494.478c-.119.204-.179.44-.179.707v3.703h-1.815zm6.469.124c-.418 0-.79-.073-1.117-.217s-.585-.366-.775-.652-.282-.651-.282-1.083c0-.363.067-.669.201-.916s.315-.446.545-.597.492-.264.784-.341a6.04 6.04 0 0 1 .929-.161l.921-.111c.233-.037.402-.091.507-.162s.157-.176.157-.316v-.025c0-.27-.085-.479-.255-.627s-.406-.221-.716-.221c-.327 0-.587.072-.78.217s-.321.321-.383.537l-1.679-.136a2.27 2.27 0 0 1 .502-1.031 2.41 2.41 0 0 1 .968-.674c.397-.159.858-.238 1.38-.238.364 0 .712.042 1.044.127s.633.218.891.397.467.409.618.69.226.612.226 1.002v4.414h-1.722v-.907h-.051a1.85 1.85 0 0 1-.422.541 1.96 1.96 0 0 1-.635.362c-.247.085-.532.128-.856.128zm.52-1.253c.267 0 .502-.053.707-.158s.365-.252.482-.434.174-.388.174-.618v-.695c-.057.037-.135.071-.234.102l-.328.081-.367.064-.332.047a2.24 2.24 0 0 0-.558.149c-.159.069-.283.161-.371.277s-.132.256-.132.426c0 .248.089.437.268.567s.412.192.691.192zm7.936-5.416v1.363h-3.942v-1.363h3.942zm-3.047-1.568h1.815v6.102c0 .168.026.298.077.392s.122.155.213.192a.88.88 0 0 0 .324.055 1.59 1.59 0 0 0 .256-.021l.196-.039.285 1.351a4.94 4.94 0 0 1-.383.098c-.165.04-.366.064-.601.073-.438.017-.821-.041-1.151-.175s-.581-.341-.763-.622-.271-.636-.268-1.065v-6.341zm4.109 8.113v-6.545h1.816v6.545h-1.816zm.912-7.389c-.27 0-.501-.089-.694-.268a.87.87 0 0 1-.286-.652.85.85 0 0 1 .286-.644c.193-.182.424-.273.694-.273s.5.091.691.273.289.394.289.644-.096.47-.289.652-.421.268-.691.268zm5.195 7.517c-.662 0-1.234-.141-1.717-.422s-.851-.679-1.112-1.184-.392-1.098-.392-1.769.13-1.267.392-1.773a2.85 2.85 0 0 1 1.112-1.184c.483-.284 1.055-.426 1.717-.426s1.233.142 1.713.426a2.85 2.85 0 0 1 1.117 1.184c.261.506.392 1.097.392 1.773s-.131 1.26-.392 1.769-.634.9-1.117 1.184-1.051.422-1.713.422zm.009-1.406c.301 0 .552-.085.754-.256a1.58 1.58 0 0 0 .456-.707c.105-.298.158-.638.158-1.019s-.053-.72-.158-1.018-.254-.534-.456-.708-.453-.259-.754-.259-.56.086-.767.259-.36.41-.465.708-.153.638-.153 1.018a3.14 3.14 0 0 0 .153 1.019c.105.298.26.534.465.707s.463.256.767.256zm6.089-2.506v3.784h-1.816v-6.545h1.73v1.155h.077a1.83 1.83 0 0 1 .729-.904c.341-.224.754-.336 1.24-.336.454 0 .851.099 1.189.298s.601.483.788.852.281.804.281 1.313v4.167h-1.815v-3.843c.003-.401-.099-.714-.307-.938s-.493-.341-.856-.341a1.3 1.3 0 0 0-.648.158c-.185.105-.33.258-.435.46s-.155.439-.157.72z" class="I"/><rect x="107.247" y="230.884" width="172" height="30" rx="3.5" class="F"/><rect x="108.591" y="191.5" width="139" height="30" rx="3.5" class="B"/><g clip-path="url(#C)"><path d="M132.925 205.783c-1.076-1.567-3.3.74-7.36 1.208-1.503.174-2.857 1.429-4.603 1.309-.715-.049-1.715-2.109-2.463-1.78-.385.169-.562.733-.166 1.158l4.395 5.244s.223.257.976.079c.185.055 2.973-1.063 4.584-3.299.386-.535.846-.981 1.322-1.354 1.547-1.143 3.227-1.541 3.227-1.541.215-.178.266-.366.254-.53.014-.274-.166-.494-.166-.494z" class="E"/><path d="M122.872 203.281c-1.576 2.187-4.336 3.224-4.336 3.224-.515.436-.08.95-.08.95l4.349 5.15s.217.257.95.078c0 0 2.76-1.034 4.336-3.221 1.625-2.255 4.554-2.966 4.554-2.966.515-.436.08-.951.08-.951l-4.349-5.149s-.217-.258-.95-.08c0 0-2.929.71-4.554 2.965z" fill="#a7d28b"/><path d="M127.257 207.125a2.29 2.29 0 1 0 0-4.583 2.29 2.29 0 1 0 0 4.583z" fill="#77b255"/><path d="M123.455 212.304c-.367 0-.502-.137-.52-.158l-3.921-4.576c-.007-.009-.206-.236-.182-.525.015-.176.106-.332.27-.465l.026-.016c.025-.01 2.568-1.055 3.993-2.943l.083.062-.083-.062c1.507-1.999 4.108-2.856 4.134-2.865.727-.169.965.073.99.101l3.869 4.602c.007.007.205.236.181.525-.015.175-.105.332-.27.464l-.041.021c-.025.006-2.554.634-4.018 2.575-1.458 1.934-4.003 3.184-4.028 3.197-.194.045-.353.063-.483.063zm-.363-.295s.188.174.777.037c.003-.005 2.504-1.234 3.931-3.127 1.433-1.898 3.844-2.576 4.112-2.646.107-.092.166-.194.176-.304.017-.2-.13-.372-.132-.373l-3.868-4.603c-.001 0-.188-.172-.777-.036-.017.006-2.556.844-4.023 2.789-1.403 1.859-3.85 2.915-4.066 3.005-.112.094-.173.199-.182.311-.017.198.13.369.131.371l3.921 4.576z" class="E"/><path d="M126.956 208.236l-.003 2.475.207.246c.404-.369.792-.783 1.127-1.249.348-.482.752-.895 1.179-1.244l-.202-.239-2.308.011z" class="H"/><path d="M129.257 208.216l-5.211-6.172a6.63 6.63 0 0 0-1.176 1.235c-.338.469-.731.882-1.14 1.246l.61.721-.001.001 4.615 5.464c.408-.365.797-.782 1.135-1.251.346-.48.752-.886 1.175-1.234l-.008-.01h.001z" fill="#ffe8b6"/><path d="M124.124 208.398c-.649-.769-2.022.478-2.414.014-.189-.224-.067-.515.182-.725.419-.355.721-.148.91-.309.135-.113.128-.252.048-.347-.186-.22-.661-.105-1.03.108l-.18-.212c-.112-.133-.31-.15-.443-.038s-.149.31-.037.443l.186.22c-.282.374-.378.871-.044 1.265.623.738 2.014-.488 2.451.03.152.18.109.524-.21.793-.478.404-.912.215-1.106.379-.095.08-.112.231-.011.352.161.19.675.149 1.169-.158l.204.242c.112.133.31.149.443.038s.149-.311.037-.444l-.203-.24c.325-.414.438-.951.048-1.411z" class="E"/><path d="M131.614 212.578c.04-.037.063-.069.088-.101l.053-.064.04-.063c.592-.912.204-2.457-.967-3.628s-2.717-1.56-3.628-.967a.62.62 0 0 0-.064.04c-.022.016-.043.035-.064.052l-.092.076c-.014.017-.019.019-.024.024l.002.003c-.416.442-.421 1.127-.002 1.546s1.104.414 1.547-.002l.004.005c-.008.008-.018.013-.026.022-.442.441-.452 1.145-.025 1.573s1.132.416 1.573-.025c.008-.008.014-.018.022-.027l.005.005c-.417.443-.422 1.128-.002 1.548s1.103.414 1.546-.003l.002.003c.005-.006.008-.012.012-.017z" fill="#e1e8ed"/><path d="M126.956 209.513c.377.377.967.408 1.404.109.183-.313.235-.61.235-.703-.919.686-1.74.004-1.924-.404a1.08 1.08 0 0 0 .285.998zm3.041 1.6c.124-.175.221-.343.266-.457-.586.536-1.705.143-2.044-.708-.149.396-.073.852.238 1.163.417.417 1.097.414 1.54.002zm1.606 1.498l.012-.015c.04-.038.063-.07.087-.101l.053-.065c.015-.02.028-.042.041-.063.027-.042.042-.091.064-.135-1.053.471-1.839-.329-2.06-.727-.122.382-.042.81.254 1.107.419.419 1.104.414 1.546-.003l.003.002z" class="K"/><path d="M123.906 204.208l.012-.01c.029-.028.051-.06.075-.091l.053-.065.041-.063c.591-.911.203-2.457-.968-3.628s-2.716-1.56-3.628-.968l-.063.04-.065.053-.092.076c-.013.016-.019.019-.024.024l.002.002c-.416.443-.421 1.127-.002 1.547s1.104.414 1.547-.002l.004.004c-.008.008-.018.014-.026.022-.442.442-.452 1.145-.024 1.573s1.131.417 1.572-.024c.009-.008.014-.018.023-.027l.004.005c-.417.442-.422 1.127-.002 1.547s1.104.414 1.546-.003l.002.003z" fill="#e1e8ed"/><path d="M119.246 201.125c.377.378.967.409 1.404.109.183-.313.235-.61.235-.703-.919.686-1.74.003-1.924-.405-.076.353.017.73.285.999zm3.042 1.599c.124-.174.22-.342.265-.456-.586.536-1.705.143-2.044-.708-.149.396-.073.851.237 1.162.419.418 1.099.414 1.542.002zm1.605 1.499l.024-.024c.028-.028.051-.061.075-.092l.053-.064c.015-.021.027-.042.04-.064.028-.041.042-.091.065-.135-1.053.471-1.84-.328-2.06-.727-.123.382-.043.81.254 1.107.419.42 1.104.415 1.546-.003l.003.002z" class="K"/></g><path d="M137.849 211v-8.727h3.444c.661 0 1.225.126 1.691.379s.821.598 1.066 1.044.37.955.37 1.534-.125 1.091-.375 1.534-.612.789-1.086 1.036-1.043.37-1.713.37h-2.195v-1.478h1.896c.355 0 .648-.061.878-.183s.406-.297.52-.516a1.61 1.61 0 0 0 .175-.763c0-.29-.058-.543-.175-.758s-.287-.388-.52-.508-.528-.183-.886-.183h-1.244V211h-1.846zm9.306.124c-.417 0-.789-.073-1.116-.218s-.585-.365-.776-.652-.281-.65-.281-1.082c0-.364.067-.669.2-.916s.316-.446.546-.597a2.66 2.66 0 0 1 .784-.341 6.02 6.02 0 0 1 .929-.162l.92-.111c.233-.036.402-.09.508-.161s.157-.177.157-.316v-.025c0-.27-.085-.479-.255-.627s-.407-.221-.716-.221c-.327 0-.587.072-.78.217s-.321.321-.384.537l-1.679-.137c.086-.397.253-.741.503-1.031a2.42 2.42 0 0 1 .967-.673c.398-.159.858-.239 1.381-.239.364 0 .712.043 1.044.128s.632.217.891.396a1.94 1.94 0 0 1 .618.691c.15.278.226.612.226 1.001V211h-1.722v-.908h-.051c-.105.205-.246.385-.422.542a1.96 1.96 0 0 1-.635.362c-.247.085-.533.128-.857.128zm.52-1.253c.267 0 .503-.053.708-.158a1.25 1.25 0 0 0 .481-.435c.117-.181.175-.387.175-.617v-.695c-.057.037-.135.071-.234.102l-.328.081-.367.064-.332.047a2.25 2.25 0 0 0-.559.149c-.159.068-.282.161-.37.277s-.132.256-.132.426c0 .247.089.436.268.567s.412.192.69.192zM152.13 211v-6.545h1.815V211h-1.815zm.912-7.389c-.27 0-.502-.09-.695-.269a.87.87 0 0 1-.285-.652.85.85 0 0 1 .285-.643c.193-.182.425-.273.695-.273a.96.96 0 0 1 .69.273c.193.179.29.393.29.643s-.097.471-.29.652a.97.97 0 0 1-.69.269zm4.649 7.496c-.497 0-.947-.128-1.35-.384s-.719-.638-.955-1.138-.349-1.119-.349-1.849c0-.75.12-1.374.362-1.871s.562-.874.963-1.121.845-.375 1.325-.375c.367 0 .672.063.916.188s.446.275.597.46a2.33 2.33 0 0 1 .349.537h.056v-3.281h1.811V211h-1.79v-1.048h-.077c-.085.182-.206.362-.362.541s-.354.322-.601.439-.542.175-.895.175zm.576-1.445c.292 0 .539-.08.741-.239s.361-.387.469-.677.166-.63.166-1.019-.054-.727-.162-1.014-.264-.508-.469-.665-.453-.234-.745-.234c-.299 0-.55.081-.755.243s-.359.386-.464.673-.158.619-.158.997.053.718.158 1.01.263.517.464.682.456.243.755.243zm12.625-3.341l-1.662.102a.87.87 0 0 0-.183-.383.97.97 0 0 0-.371-.277 1.26 1.26 0 0 0-.541-.107c-.282 0-.519.06-.712.179s-.29.273-.29.469c0 .156.063.288.188.396s.339.195.643.26l1.185.239c.636.131 1.111.341 1.423.631s.469.67.469 1.142c0 .429-.127.805-.379 1.129s-.594.577-1.032.758-.936.269-1.504.269c-.866 0-1.557-.181-2.071-.541a2.11 2.11 0 0 1-.899-1.483l1.785-.094c.054.264.185.466.393.605s.473.205.796.205.574-.061.767-.184.296-.285.299-.481a.5.5 0 0 0-.209-.405c-.136-.108-.347-.19-.631-.247l-1.133-.226c-.639-.128-1.115-.349-1.428-.665s-.464-.717-.464-1.206c0-.42.113-.782.341-1.086s.552-.539.967-.704.906-.247 1.466-.247c.827 0 1.477.175 1.952.524s.755.826.835 1.428zm5.369 1.892v-3.758h1.816V211h-1.743v-1.189h-.068c-.148.384-.394.692-.738.925s-.757.349-1.248.349c-.438 0-.823-.099-1.155-.298a2.06 2.06 0 0 1-.78-.848c-.184-.367-.278-.805-.281-1.317v-4.167h1.815v3.843c.003.387.107.692.311.916s.479.337.823.337c.219 0 .423-.05.614-.149s.343-.253.46-.452.177-.444.174-.737zm3.182 2.787v-8.727h1.815v3.281h.056c.079-.176.194-.355.345-.537a1.81 1.81 0 0 1 .596-.46c.248-.125.554-.188.921-.188a2.46 2.46 0 0 1 1.321.375c.403.247.726.621.967 1.121s.362 1.121.362 1.871c0 .73-.117 1.346-.353 1.849s-.551.879-.955 1.138-.849.384-1.346.384c-.353 0-.652-.059-.9-.175s-.444-.263-.6-.439-.276-.359-.358-.541h-.081V211h-1.79zm1.777-3.273c0 .389.054.729.162 1.019s.264.515.469.677.453.239.745.239.546-.081.75-.243a1.51 1.51 0 0 0 .465-.682c.108-.292.162-.629.162-1.01s-.053-.71-.158-.997-.26-.511-.464-.673-.456-.243-.755-.243-.545.078-.75.234-.356.378-.464.665-.162.625-.162 1.014zm11.144-1.406l-1.662.102a.87.87 0 0 0-.183-.383.97.97 0 0 0-.371-.277 1.26 1.26 0 0 0-.541-.107c-.282 0-.519.06-.712.179s-.29.273-.29.469c0 .156.063.288.188.396s.339.195.643.26l1.185.239c.636.131 1.111.341 1.423.631s.469.67.469 1.142a1.78 1.78 0 0 1-.379 1.129c-.25.324-.594.577-1.032.758s-.936.269-1.504.269c-.866 0-1.557-.181-2.071-.541a2.11 2.11 0 0 1-.899-1.483l1.785-.094c.054.264.185.466.393.605s.473.205.796.205.574-.061.767-.184.296-.285.299-.481a.5.5 0 0 0-.209-.405c-.136-.108-.347-.19-.631-.247l-1.133-.226c-.639-.128-1.115-.349-1.428-.665s-.464-.717-.464-1.206c0-.42.113-.782.341-1.086s.552-.539.967-.704.906-.247 1.466-.247c.827 0 1.477.175 1.952.524s.755.826.835 1.428zm4.129 4.807c-.67 0-1.247-.142-1.73-.426s-.849-.685-1.108-1.193-.383-1.094-.383-1.756c0-.671.129-1.259.388-1.764s.632-.905 1.112-1.189 1.051-.431 1.713-.431c.571 0 1.071.104 1.5.311a2.51 2.51 0 0 1 1.018.874c.25.375.388.815.414 1.321h-1.713c-.049-.327-.176-.589-.384-.788s-.473-.303-.805-.303c-.282 0-.527.077-.737.23s-.37.371-.486.661-.175.64-.175 1.052c0 .418.057.773.17 1.066s.28.515.491.669.455.23.737.23a1.2 1.2 0 0 0 .558-.128c.168-.085.305-.209.413-.371s.184-.362.218-.592h1.713c-.029.5-.165.94-.409 1.321s-.576.673-1.002.886-.93.32-1.513.32zm3.966-.128v-6.545h1.76v1.142h.068c.119-.407.32-.713.601-.921a1.58 1.58 0 0 1 .972-.315 2.61 2.61 0 0 1 .294.017 2.01 2.01 0 0 1 .277.047v1.611c-.086-.026-.204-.049-.354-.069s-.288-.029-.413-.029c-.267 0-.506.058-.716.174a1.29 1.29 0 0 0-.495.477c-.119.205-.179.441-.179.708V211h-1.815zm4.79 0v-6.545h1.815V211h-1.815zm.912-7.389a.99.99 0 0 1-.695-.269.87.87 0 0 1-.285-.652.85.85 0 0 1 .285-.643.98.98 0 0 1 .695-.273.96.96 0 0 1 .69.273c.194.179.29.393.29.643a.86.86 0 0 1-.29.652.97.97 0 0 1-.69.269zm2.238 9.844v-9h1.789v1.099h.081c.08-.176.195-.355.346-.537a1.81 1.81 0 0 1 .596-.46c.247-.125.554-.188.921-.188a2.46 2.46 0 0 1 1.321.375c.403.247.726.621.967 1.121s.362 1.121.362 1.871c0 .73-.118 1.346-.353 1.849s-.552.879-.955 1.138-.849.384-1.347.384c-.352 0-.652-.059-.899-.175s-.444-.263-.601-.439a2.25 2.25 0 0 1-.358-.541h-.055v3.503h-1.815zm1.777-5.728c0 .389.054.729.162 1.019s.264.515.468.677a1.18 1.18 0 0 0 .746.239c.296 0 .546-.081.75-.243s.359-.392.465-.682.162-.629.162-1.01-.053-.71-.158-.997-.26-.511-.465-.673-.456-.243-.754-.243-.545.078-.75.234-.356.378-.464.665-.162.625-.162 1.014zm9.178-3.272v1.363h-3.942v-1.363h3.942zm-3.047-1.569h1.815v6.103c0 .167.026.298.077.392s.122.155.213.191a.88.88 0 0 0 .324.056 1.58 1.58 0 0 0 .256-.021l.196-.039.285 1.351-.383.098c-.165.04-.365.064-.601.072-.438.018-.821-.041-1.151-.174s-.581-.341-.762-.622-.272-.637-.269-1.066v-6.341zm4.11 8.114v-6.545h1.815V211h-1.815zm.911-7.389c-.269 0-.501-.09-.694-.269s-.286-.399-.286-.652a.85.85 0 0 1 .286-.643c.193-.182.425-.273.694-.273s.5.091.691.273.29.393.29.643-.097.471-.29.652-.421.269-.691.269zm5.195 7.517c-.662 0-1.234-.141-1.717-.422s-.851-.679-1.112-1.185-.392-1.098-.392-1.768c0-.676.131-1.267.392-1.773a2.86 2.86 0 0 1 1.112-1.185c.483-.284 1.055-.426 1.717-.426s1.233.142 1.713.426a2.85 2.85 0 0 1 1.117 1.185c.261.506.392 1.097.392 1.773 0 .67-.131 1.26-.392 1.768s-.634.901-1.117 1.185-1.051.422-1.713.422zm.009-1.406a1.13 1.13 0 0 0 .754-.256 1.58 1.58 0 0 0 .456-.707c.105-.299.158-.638.158-1.019s-.053-.72-.158-1.018-.254-.535-.456-.708-.453-.26-.754-.26-.56.087-.767.26-.359.409-.465.708-.153.637-.153 1.018.051.72.153 1.019.26.534.465.707a1.17 1.17 0 0 0 .767.256zm6.089-2.506V211h-1.816v-6.545h1.731v1.154h.076a1.83 1.83 0 0 1 .729-.903c.341-.224.754-.337 1.24-.337.455 0 .851.1 1.189.299a2.02 2.02 0 0 1 .788.852c.188.366.282.804.282 1.312V211h-1.816v-3.844c.003-.4-.099-.713-.307-.937s-.493-.341-.856-.341c-.245 0-.46.052-.648.158a1.1 1.1 0 0 0-.435.46c-.102.199-.154.439-.157.72z" class="I"/><rect x="108.591" y="191.5" width="139" height="30" rx="3.5" class="F"/><rect x="257.5" y="191.5" width="228" height="30" rx="3.5" class="B"/><g clip-path="url(#D)"><path d="M267.833 203.583c-.833 0-.833.834-.833.834v8.75s0 .833.833.833h13.334c.833 0 .833-.833.833-.833v-8.75s0-.834-.833-.834h-13.334z" class="E"/><path d="M267.833 201.5c-.833 0-.833.833-.833.833v8.334s0 .833.833.833h13.334c.833 0 .833-.833.833-.833v-8.334s0-.833-.833-.833h-13.334z" fill="#a7d28b"/><path d="M277.416 209.208a2.71 2.71 0 0 0 2.709-2.708 2.71 2.71 0 0 0-2.709-2.708 2.71 2.71 0 0 0-2.708 2.708 2.71 2.71 0 0 0 2.708 2.708z" fill="#77b255"/><path d="M280.75 210.875h-12.5c-.345 0-.625-.28-.625-.625v-7.5c0-.345.28-.625.625-.625h12.5c.345 0 .625.28.625.625v7.5c0 .345-.28.625-.625.625zm-12.5-8.333c-.115 0-.208.093-.208.208v7.5c0 .115.093.208.208.208h12.5c.115 0 .208-.093.208-.208v-7.5c0-.115-.093-.208-.208-.208h-12.5z" class="E"/><path d="M272.833 201.5h3.333v10.026h-3.333V201.5z" fill="#ffe8b6"/><path d="M272.833 211.5h3.333v2.5h-3.333v-2.5z" class="H"/><path d="M271.921 207.343c0-1.242-2.289-1.161-2.289-1.91 0-.363.347-.54.75-.54.677 0 .797.435 1.104.435.217 0 .322-.137.322-.29 0-.357-.54-.626-1.058-.719v-.344a.39.39 0 0 0-.388-.389.39.39 0 0 0-.389.389v.355c-.564.129-1.05.521-1.05 1.159 0 1.192 2.289 1.144 2.289 1.982 0 .29-.315.58-.83.58-.774 0-1.032-.524-1.346-.524-.153 0-.29.129-.29.323 0 .309.517.68 1.228.784v.002.389a.39.39 0 0 0 .388.388c.215 0 .388-.174.388-.388v-.389c.637-.132 1.171-.548 1.171-1.293z" class="E"/></g><path d="M294.459 205.328h-1.867c-.034-.241-.103-.456-.208-.643a1.65 1.65 0 0 0-.405-.486c-.165-.134-.355-.236-.571-.307s-.445-.106-.695-.106c-.452 0-.845.112-1.18.336s-.595.546-.78.972-.277.937-.277 1.542c0 .623.092 1.145.277 1.569s.449.742.784.958.723.324 1.163.324a2.28 2.28 0 0 0 .686-.098 1.8 1.8 0 0 0 .567-.285c.165-.128.301-.283.409-.465s.188-.389.23-.622l1.867.009c-.048.4-.169.786-.362 1.159s-.448.7-.772.993a3.65 3.65 0 0 1-1.15.69c-.443.168-.945.251-1.505.251-.778 0-1.474-.176-2.088-.528s-1.093-.862-1.448-1.53-.529-1.476-.529-2.425.179-1.761.537-2.429.844-1.176 1.457-1.525 1.304-.529 2.071-.529a4.48 4.48 0 0 1 1.407.213c.434.143.819.35 1.155.623s.607.6.818.993.349.84.409 1.346zm5.366 2.885v-3.758h1.816V211h-1.743v-1.189h-.068c-.148.384-.394.692-.738.925s-.757.349-1.248.349c-.438 0-.823-.099-1.155-.298a2.06 2.06 0 0 1-.78-.848c-.185-.367-.278-.805-.281-1.317v-4.167h1.815v3.843c.003.387.107.692.311.916s.479.337.823.337a1.31 1.31 0 0 0 .613-.149 1.17 1.17 0 0 0 .461-.452c.119-.199.177-.444.174-.737zm8.594-1.892l-1.662.102a.87.87 0 0 0-.183-.383.97.97 0 0 0-.371-.277 1.26 1.26 0 0 0-.541-.107c-.282 0-.519.06-.712.179s-.29.273-.29.469c0 .156.063.288.188.396s.339.195.643.26l1.185.239c.636.131 1.111.341 1.423.631s.469.67.469 1.142c0 .429-.127.805-.379 1.129s-.594.577-1.032.758-.936.269-1.504.269c-.866 0-1.557-.181-2.071-.541a2.11 2.11 0 0 1-.899-1.483l1.785-.094c.054.264.185.466.392.605s.474.205.797.205.574-.061.767-.184.296-.285.299-.481a.5.5 0 0 0-.209-.405c-.136-.108-.347-.19-.631-.247l-1.133-.226c-.64-.128-1.115-.349-1.428-.665s-.464-.717-.464-1.206c0-.42.113-.782.341-1.086s.552-.539.967-.704.906-.247 1.466-.247c.827 0 1.477.175 1.952.524s.755.826.835 1.428zm4.654-1.866v1.363h-3.942v-1.363h3.942zm-3.047-1.569h1.815v6.103c0 .167.026.298.077.392s.122.155.213.191.201.056.324.056c.085 0 .17-.007.255-.021l.196-.039.286 1.351-.384.098c-.164.04-.365.064-.601.072-.437.018-.821-.041-1.15-.174a1.61 1.61 0 0 1-.763-.622c-.182-.282-.271-.637-.268-1.066v-6.341zm6.996 8.242c-.662 0-1.234-.141-1.717-.422s-.851-.679-1.112-1.185-.392-1.098-.392-1.768c0-.676.13-1.267.392-1.773a2.86 2.86 0 0 1 1.112-1.185c.483-.284 1.055-.426 1.717-.426s1.233.142 1.713.426.855.677 1.117 1.185.392 1.097.392 1.773c0 .67-.131 1.26-.392 1.768a2.88 2.88 0 0 1-1.117 1.185c-.48.281-1.051.422-1.713.422zm.009-1.406a1.13 1.13 0 0 0 .754-.256 1.58 1.58 0 0 0 .456-.707c.105-.299.158-.638.158-1.019s-.053-.72-.158-1.018-.254-.535-.456-.708-.453-.26-.754-.26-.56.087-.767.26-.36.409-.465.708-.153.637-.153 1.018.051.72.153 1.019.26.534.465.707a1.17 1.17 0 0 0 .767.256zm4.273 1.278v-6.545h1.73v1.154h.077c.136-.383.364-.686.682-.907s.699-.333 1.142-.333c.449 0 .831.113 1.146.337a1.59 1.59 0 0 1 .631.903h.068c.133-.375.375-.674.724-.899s.769-.341 1.249-.341c.611 0 1.107.195 1.487.584s.575.935.575 1.645V211h-1.811v-4.044c0-.364-.096-.636-.289-.818s-.435-.273-.725-.273c-.329 0-.586.105-.771.315s-.277.482-.277.823V211h-1.76v-4.082c0-.321-.092-.577-.277-.767s-.422-.286-.72-.286c-.202 0-.384.051-.546.153s-.285.241-.379.422a1.34 1.34 0 0 0-.141.631V211h-1.815zm13.808.128c-.673 0-1.252-.137-1.738-.409a2.81 2.81 0 0 1-1.117-1.168c-.261-.506-.392-1.104-.392-1.794 0-.673.131-1.264.392-1.773s.63-.904 1.104-1.189 1.037-.426 1.679-.426c.432 0 .834.07 1.206.209a2.66 2.66 0 0 1 .98.618c.281.276.5.622.656 1.04s.235.9.235 1.457v.499h-5.527v-1.125h3.818c0-.262-.057-.493-.171-.695s-.271-.359-.473-.473a1.35 1.35 0 0 0-.694-.175c-.276 0-.52.064-.733.192s-.375.294-.495.507a1.44 1.44 0 0 0-.183.703v1.07c0 .324.06.604.179.84a1.31 1.31 0 0 0 .516.545c.221.128.484.192.788.192.202 0 .387-.029.554-.085s.311-.143.431-.256a1.11 1.11 0 0 0 .272-.418l1.679.111c-.085.403-.26.756-.524 1.057s-.599.531-1.014.699-.888.247-1.428.247zm4.069-.128v-6.545h1.76v1.142h.068c.12-.407.32-.713.601-.921a1.58 1.58 0 0 1 .972-.315c.091 0 .189.005.294.017a2.01 2.01 0 0 1 .277.047v1.611c-.085-.026-.203-.049-.354-.069s-.288-.029-.413-.029c-.267 0-.506.058-.716.174s-.372.273-.494.477-.179.441-.179.708V211h-1.816zm12.894-4.679l-1.662.102a.87.87 0 0 0-.183-.383.97.97 0 0 0-.371-.277 1.26 1.26 0 0 0-.541-.107c-.282 0-.519.06-.712.179s-.29.273-.29.469c0 .156.063.288.188.396s.339.195.643.26l1.185.239c.636.131 1.111.341 1.423.631s.469.67.469 1.142a1.78 1.78 0 0 1-.379 1.129c-.25.324-.594.577-1.032.758s-.936.269-1.504.269c-.866 0-1.557-.181-2.071-.541a2.11 2.11 0 0 1-.899-1.483l1.786-.094c.054.264.184.466.392.605s.473.205.796.205.574-.061.768-.184.295-.285.298-.481a.5.5 0 0 0-.209-.405c-.136-.108-.347-.19-.631-.247l-1.133-.226c-.639-.128-1.115-.349-1.428-.665s-.464-.717-.464-1.206c0-.42.113-.782.341-1.086s.552-.539.967-.704.906-.247 1.466-.247c.827 0 1.477.175 1.952.524s.755.826.835 1.428zm1.172 7.134v-9h1.79v1.099h.081c.079-.176.194-.355.345-.537s.352-.338.597-.46.554-.188.92-.188a2.46 2.46 0 0 1 1.321.375c.403.247.726.621.967 1.121s.363 1.121.363 1.871c0 .73-.118 1.346-.354 1.849s-.551.879-.955 1.138-.849.384-1.346.384c-.352 0-.652-.059-.899-.175a1.86 1.86 0 0 1-.601-.439 2.22 2.22 0 0 1-.358-.541h-.056v3.503h-1.815zm1.777-5.728c0 .389.054.729.162 1.019s.264.515.469.677.453.239.746.239.545-.081.75-.243.359-.392.464-.682.162-.629.162-1.01-.053-.71-.158-.997-.26-.511-.464-.673-.456-.243-.754-.243-.546.078-.75.234-.357.378-.465.665-.162.625-.162 1.014zm8.68 3.401c-.674 0-1.253-.137-1.739-.409a2.8 2.8 0 0 1-1.116-1.168c-.262-.506-.392-1.104-.392-1.794 0-.673.13-1.264.392-1.773s.629-.904 1.103-1.189 1.037-.426 1.679-.426c.432 0 .834.07 1.206.209a2.66 2.66 0 0 1 .98.618 2.81 2.81 0 0 1 .657 1.04c.156.415.234.9.234 1.457v.499h-5.527v-1.125h3.818c0-.262-.057-.493-.17-.695a1.23 1.23 0 0 0-.473-.473c-.199-.116-.431-.175-.695-.175-.275 0-.52.064-.733.192s-.375.294-.494.507a1.44 1.44 0 0 0-.183.703v1.07c0 .324.059.604.179.84s.294.417.515.545.485.192.789.192c.201 0 .386-.029.554-.085a1.16 1.16 0 0 0 .43-.256c.119-.114.21-.253.273-.418l1.679.111c-.086.403-.26.756-.524 1.057s-.6.531-1.015.699-.887.247-1.427.247zm5.884-3.912V211h-1.815v-6.545h1.73v1.154h.077c.144-.38.387-.681.728-.903s.754-.337 1.24-.337c.455 0 .851.1 1.189.299s.601.483.789.852.281.804.281 1.312V211h-1.816v-3.844c.003-.4-.099-.713-.306-.937s-.493-.341-.857-.341c-.244 0-.46.052-.648.158s-.329.258-.434.46-.155.439-.158.72zm9.011-2.761v1.363h-3.942v-1.363h3.942zm-3.047-1.569h1.816v6.103c0 .167.025.298.076.392s.122.155.213.191a.88.88 0 0 0 .324.056 1.58 1.58 0 0 0 .256-.021l.196-.039.285 1.351c-.09.028-.218.061-.383.098s-.365.064-.601.072c-.437.018-.821-.041-1.151-.174a1.61 1.61 0 0 1-.762-.622c-.182-.282-.272-.637-.269-1.066v-6.341zm8.633 8.238c-.417 0-.789-.073-1.116-.218s-.585-.365-.776-.652-.281-.65-.281-1.082c0-.364.067-.669.2-.916s.316-.446.546-.597a2.66 2.66 0 0 1 .784-.341 6.02 6.02 0 0 1 .929-.162l.92-.111c.233-.036.402-.09.508-.161s.157-.177.157-.316v-.025c0-.27-.085-.479-.256-.627s-.406-.221-.715-.221c-.327 0-.587.072-.78.217s-.321.321-.384.537l-1.679-.137c.085-.397.253-.741.503-1.031a2.42 2.42 0 0 1 .967-.673c.398-.159.858-.239 1.381-.239.364 0 .712.043 1.044.128s.632.217.891.396a1.94 1.94 0 0 1 .618.691c.15.278.226.612.226 1.001V211h-1.722v-.908h-.051c-.105.205-.246.385-.422.542a1.96 1.96 0 0 1-.635.362c-.247.085-.533.128-.857.128zm.52-1.253c.267 0 .503-.053.708-.158a1.25 1.25 0 0 0 .481-.435c.117-.181.175-.387.175-.617v-.695c-.057.037-.135.071-.234.102l-.329.081-.366.064-.332.047a2.25 2.25 0 0 0-.559.149c-.159.068-.282.161-.37.277s-.132.256-.132.426c0 .247.089.436.268.567s.412.192.69.192zm10.594-5.416v1.363h-3.942v-1.363h3.942zm-3.047-1.569h1.815v6.103c0 .167.026.298.077.392s.122.155.213.191a.88.88 0 0 0 .324.056 1.59 1.59 0 0 0 .256-.021l.196-.039.285 1.351-.383.098c-.165.04-.365.064-.601.072-.438.018-.821-.041-1.151-.174a1.61 1.61 0 0 1-.763-.622c-.181-.282-.271-.637-.268-1.066v-6.341zm6.996 8.242c-.662 0-1.234-.141-1.717-.422s-.851-.679-1.112-1.185-.392-1.098-.392-1.768c0-.676.13-1.267.392-1.773a2.86 2.86 0 0 1 1.112-1.185c.483-.284 1.055-.426 1.717-.426s1.233.142 1.713.426a2.85 2.85 0 0 1 1.117 1.185c.261.506.392 1.097.392 1.773 0 .67-.131 1.26-.392 1.768s-.634.901-1.117 1.185-1.051.422-1.713.422zm.009-1.406a1.13 1.13 0 0 0 .754-.256 1.58 1.58 0 0 0 .456-.707c.105-.299.158-.638.158-1.019s-.053-.72-.158-1.018-.254-.535-.456-.708-.453-.26-.754-.26-.56.087-.767.26-.36.409-.465.708-.153.637-.153 1.018.051.72.153 1.019.26.534.465.707a1.17 1.17 0 0 0 .767.256zm7.755-5.267v1.363h-3.942v-1.363h3.942zm-3.047-1.569h1.815v6.103c0 .167.026.298.077.392s.122.155.213.191a.88.88 0 0 0 .324.056 1.59 1.59 0 0 0 .256-.021l.196-.039.285 1.351-.383.098c-.165.04-.365.064-.601.072-.438.018-.821-.041-1.151-.174s-.581-.341-.763-.622-.271-.637-.268-1.066v-6.341zm5.976 8.238c-.418 0-.79-.073-1.117-.218s-.585-.365-.775-.652-.281-.65-.281-1.082c0-.364.066-.669.2-.916s.315-.446.545-.597.492-.264.784-.341a6.06 6.06 0 0 1 .929-.162l.921-.111c.233-.036.402-.09.507-.161s.158-.177.158-.316v-.025c0-.27-.086-.479-.256-.627s-.406-.221-.716-.221c-.327 0-.587.072-.78.217s-.321.321-.383.537l-1.679-.137c.085-.397.253-.741.503-1.031s.572-.517.967-.673.858-.239 1.381-.239c.363 0 .711.043 1.044.128a2.72 2.72 0 0 1 .89.396 1.92 1.92 0 0 1 .618.691c.151.278.226.612.226 1.001V211h-1.722v-.908h-.051a1.84 1.84 0 0 1-.422.542 1.95 1.95 0 0 1-.635.362c-.247.085-.532.128-.856.128zm.52-1.253c.267 0 .503-.053.707-.158s.365-.253.482-.435a1.12 1.12 0 0 0 .174-.617v-.695a.95.95 0 0 1-.234.102l-.328.081-.367.064-.332.047a2.24 2.24 0 0 0-.558.149c-.159.068-.283.161-.371.277s-.132.256-.132.426c0 .247.089.436.268.567s.412.192.691.192zm6.27-7.598V211h-1.816v-8.727h1.816zm6.949 8.855c-.662 0-1.235-.141-1.718-.422s-.851-.679-1.112-1.185-.392-1.098-.392-1.768c0-.676.131-1.267.392-1.773a2.86 2.86 0 0 1 1.112-1.185c.483-.284 1.056-.426 1.718-.426s1.233.142 1.713.426a2.85 2.85 0 0 1 1.116 1.185c.262.506.392 1.097.392 1.773 0 .67-.13 1.26-.392 1.768s-.633.901-1.116 1.185-1.051.422-1.713.422zm.008-1.406c.301 0 .553-.086.754-.256a1.58 1.58 0 0 0 .456-.707c.105-.299.158-.638.158-1.019s-.053-.72-.158-1.018-.254-.535-.456-.708-.453-.26-.754-.26-.56.087-.767.26-.359.409-.464.708-.154.637-.154 1.018.051.72.154 1.019a1.6 1.6 0 0 0 .464.707 1.17 1.17 0 0 0 .767.256zm7.794-5.267v1.363h-4.04v-1.363h4.04zM428.366 211v-7.018c0-.475.093-.868.277-1.181a1.79 1.79 0 0 1 .767-.703c.324-.156.692-.234 1.104-.234.279 0 .533.021.763.064l.52.115-.324 1.363c-.071-.022-.159-.044-.264-.064s-.208-.03-.316-.03c-.267 0-.453.063-.558.188s-.157.294-.157.516V211h-1.812z" class="I"/><path d="M438.043 212.091v-10.909h.699v10.909h-.699zm1.853-7.308c-.034-.344-.18-.611-.439-.801s-.609-.286-1.052-.286c-.301 0-.556.043-.763.128a1.07 1.07 0 0 0-.477.345.83.83 0 0 0-.162.503c-.006.156.027.292.098.409a1.05 1.05 0 0 0 .302.303c.128.082.276.154.444.217s.346.111.537.153l.784.188c.38.085.73.199 1.048.341s.594.316.827.524a2.18 2.18 0 0 1 .541.733c.131.281.197.603.2.967-.003.534-.139.997-.409 1.389s-.653.692-1.159.908-1.109.32-1.82.32c-.704 0-1.318-.108-1.841-.324s-.926-.536-1.218-.959-.442-.953-.456-1.581h1.785c.02.293.104.537.252.733s.35.339.6.439.539.145.857.145.584-.046.814-.137.413-.217.541-.379.192-.348.192-.558a.72.72 0 0 0-.175-.494c-.113-.134-.281-.248-.503-.341a5.09 5.09 0 0 0-.805-.256l-.95-.239c-.736-.179-1.317-.459-1.743-.839s-.638-.894-.635-1.539c-.003-.528.138-.99.422-1.384a2.84 2.84 0 0 1 1.18-.925c.5-.222 1.068-.333 1.705-.333.647 0 1.213.111 1.696.333s.863.53 1.133.925.409.852.418 1.372h-1.769zm6.755-2.51V211h-1.845v-6.976h-.051l-1.999 1.253v-1.636l2.161-1.368h1.734zm3.476 7.534l-.047.469c-.037.375-.108.748-.213 1.12l-.324 1.019-.269.716h-1.176l.175-.703.209-1.006a8.88 8.88 0 0 0 .123-1.138l.022-.477h1.5zm4.593 1.385c-.733-.003-1.364-.183-1.892-.541s-.931-.877-1.215-1.556-.42-1.496-.418-2.45.141-1.763.422-2.433.689-1.181 1.215-1.53 1.157-.529 1.888-.529 1.358.177 1.883.529.935.863 1.219 1.534.425 1.477.422 2.429-.142 1.775-.426 2.454-.685 1.198-1.211 1.556-1.154.537-1.887.537zm0-1.53c.5 0 .899-.251 1.197-.754s.446-1.257.443-2.263c0-.662-.068-1.213-.204-1.654s-.324-.771-.571-.992-.533-.333-.865-.333c-.498 0-.895.249-1.194.746s-.448 1.241-.451 2.233c0 .67.066 1.23.2 1.679s.328.781.575 1.006.537.332.87.332zm8.141 1.53c-.733-.003-1.363-.183-1.892-.541s-.93-.877-1.214-1.556-.421-1.496-.418-2.45.141-1.763.422-2.433.689-1.181 1.215-1.53 1.157-.529 1.887-.529 1.358.177 1.884.529.934.863 1.219 1.534.424 1.477.421 2.429-.142 1.775-.426 2.454-.684 1.198-1.21 1.556-1.155.537-1.888.537zm0-1.53c.5 0 .899-.251 1.198-.754s.446-1.257.443-2.263c0-.662-.068-1.213-.205-1.654s-.323-.771-.571-.992a1.24 1.24 0 0 0-.865-.333c-.497 0-.895.249-1.193.746s-.449 1.241-.452 2.233c0 .67.067 1.23.201 1.679s.328.781.575 1.006a1.26 1.26 0 0 0 .869.332zm8.142 1.53c-.733-.003-1.364-.183-1.892-.541s-.93-.877-1.215-1.556-.42-1.496-.417-2.45.14-1.763.422-2.433.689-1.181 1.214-1.53 1.158-.529 1.888-.529 1.358.177 1.884.529.934.863 1.218 1.534.425 1.477.422 2.429-.142 1.775-.426 2.454-.685 1.198-1.21 1.556-1.155.537-1.888.537zm0-1.53c.5 0 .899-.251 1.197-.754s.446-1.257.444-2.263c0-.662-.069-1.213-.205-1.654s-.324-.771-.571-.992-.533-.333-.865-.333c-.497 0-.895.249-1.193.746s-.449 1.241-.452 2.233c0 .67.067 1.23.2 1.679s.329.781.576 1.006a1.26 1.26 0 0 0 .869.332z" fill="#05c46b"/><rect x="257.5" y="191.5" width="228" height="30" rx="3.5" class="F"/><rect x="-1" y="1" width="419" height="153" rx="7" transform="matrix(-1 0 0 1 504.747 125.384)" class="L M N"/><g transform="matrix(-1 0 0 1 502 357.649)"><rect x="-2" y="2" width="442" height="112" rx="6" class="J"/><rect x="-2" y="2" width="442" height="112" rx="6" class="C D"/></g><g class="G"><rect x="-2" y="2" width="447" height="108" rx="6" transform="matrix(-1 0 0 1 516 348.649)"/><rect x="-1" y="1" width="421" height="84" rx="7" transform="matrix(-1 0 0 1 504 361.649)"/></g><rect x="108.5" y="381.149" width="372" height="47" rx="3.5" class="B"/><rect x="127.389" y="398.149" width="13" height="13" rx="1.5" class="F"/><rect x="343.889" y="400.649" width="105" height="8" rx="4" fill="#eef1f7"/><g clip-path="url(#E)"><path d="M163.25 404.289l2.889-2.528 5.778.361.361 5.778-2.528 2.889s0-2.167-2.167-4.334-4.333-2.166-4.333-2.166z" fill="#a0041e"/><path d="M163.24 410.788s-.013-2.881 1.078-3.972 3.988-1.016 3.988-1.016-.001 2.822-1.084 3.905-3.982 1.083-3.982 1.083z" class="H"/><path d="M166.139 409.344c.798 0 1.444-.647 1.444-1.444s-.646-1.445-1.444-1.445-1.445.647-1.445 1.445.647 1.444 1.445 1.444z" fill="#ffcc4d"/><path d="M175.888 398.149s-3.611 0-7.944 3.612c-2.167 1.805-2.167 5.055-1.445 5.777s3.973.723 5.778-1.444c3.611-4.333 3.611-7.945 3.611-7.945z" fill="#55acee"/><path d="M172.638 399.955c-.586 0-1.088.351-1.315.852.182-.082.381-.13.593-.13.798 0 1.444.647 1.444 1.445 0 .211-.048.411-.129.592a1.44 1.44 0 0 0 .851-1.314c0-.798-.646-1.445-1.444-1.445z" fill="#000"/><path d="M165.777 408.26s0-1.444.361-1.805 4.695-3.972 5.056-3.611-3.25 4.694-3.611 5.055-1.806.361-1.806.361z" fill="#a0041e"/></g><path d="M181.647 409.149v-8.727h3.443c.662 0 1.226.127 1.692.379s.821.598 1.065 1.044.371.955.371 1.535-.125 1.09-.375 1.534-.612.788-1.086 1.035-1.043.371-1.713.371h-2.195v-1.479h1.896c.355 0 .648-.061.878-.183s.406-.297.52-.516.175-.476.175-.762a1.58 1.58 0 0 0-.175-.759c-.114-.219-.287-.388-.52-.507s-.528-.183-.886-.183h-1.245v7.218h-1.845zm7.616 0v-6.545h1.76v1.142h.068c.119-.406.319-.713.601-.92s.605-.316.971-.316a2.84 2.84 0 0 1 .294.017c.105.012.198.027.277.047v1.611a2.33 2.33 0 0 0-.353-.068c-.151-.02-.289-.03-.414-.03-.267 0-.506.058-.716.175a1.28 1.28 0 0 0-.494.477c-.119.204-.179.44-.179.707v3.703h-1.815zm7.468.128c-.673 0-1.253-.136-1.739-.409s-.855-.665-1.116-1.167-.392-1.104-.392-1.794c0-.674.131-1.265.392-1.773a2.89 2.89 0 0 1 1.104-1.189c.477-.284 1.037-.426 1.679-.426.431 0 .833.069 1.206.209a2.68 2.68 0 0 1 .98.617c.281.276.5.623.656 1.04s.234.901.234 1.458v.498h-5.527v-1.125h3.819c0-.261-.057-.493-.171-.694s-.271-.36-.473-.473-.43-.175-.695-.175a1.4 1.4 0 0 0-.733.192c-.21.125-.375.294-.494.507s-.18.444-.183.703v1.069c0 .324.06.604.179.84a1.3 1.3 0 0 0 .516.545c.221.128.484.192.788.192.202 0 .386-.028.554-.085a1.15 1.15 0 0 0 .43-.256 1.11 1.11 0 0 0 .273-.417l1.679.11a2.29 2.29 0 0 1-.524 1.057c-.262.299-.6.531-1.014.699s-.888.247-1.428.247zm4.069-.128v-6.545h1.73v1.155h.077a1.81 1.81 0 0 1 .682-.908c.318-.221.698-.332 1.142-.332s.831.112 1.146.336a1.59 1.59 0 0 1 .631.904h.068c.133-.375.375-.675.724-.899s.769-.341 1.249-.341c.611 0 1.106.194 1.487.584s.575.934.575 1.644v4.402H208.5v-4.044c0-.363-.096-.636-.29-.818s-.434-.273-.724-.273c-.329 0-.587.106-.771.316s-.277.481-.277.822v3.997h-1.76v-4.082c0-.321-.093-.577-.277-.767s-.422-.286-.72-.286c-.202 0-.384.052-.546.154a1.05 1.05 0 0 0-.379.422c-.094.179-.141.389-.141.63v3.929H200.8zm10.825 0v-6.545h1.816v6.545h-1.816zm.912-7.389c-.27 0-.501-.089-.694-.268s-.286-.399-.286-.652a.85.85 0 0 1 .286-.644c.193-.182.424-.272.694-.272s.5.09.691.272.289.394.289.644-.096.47-.289.652-.421.268-.691.268zm6.435 4.602v-3.758h1.816v6.545h-1.743v-1.189h-.068c-.148.384-.394.692-.738.925s-.757.35-1.248.35c-.438 0-.823-.1-1.155-.299s-.592-.481-.78-.848-.278-.805-.281-1.316v-4.168h1.815v3.844c.003.386.107.691.311.916s.479.337.823.337a1.3 1.3 0 0 0 .613-.15c.191-.102.344-.252.461-.451s.177-.445.174-.738zm3.148 2.787v-6.545h1.73v1.155h.076a1.82 1.82 0 0 1 .682-.908c.318-.221.699-.332 1.142-.332.449 0 .831.112 1.147.336s.525.523.63.904h.069c.133-.375.375-.675.724-.899s.768-.341 1.249-.341c.61 0 1.106.194 1.487.584s.575.934.575 1.644v4.402h-1.811v-4.044c0-.363-.097-.636-.29-.818s-.434-.273-.724-.273c-.33 0-.587.106-.772.316s-.277.481-.277.822v3.997h-1.759v-4.082c0-.321-.093-.577-.277-.767s-.422-.286-.721-.286c-.201 0-.383.052-.545.154s-.286.24-.379.422-.141.389-.141.63v3.929h-1.815zm16.44.128c-.671 0-1.247-.142-1.73-.426s-.85-.685-1.108-1.193-.384-1.094-.384-1.756c0-.67.129-1.258.388-1.764a2.88 2.88 0 0 1 1.112-1.189c.48-.287 1.051-.43 1.713-.43.571 0 1.071.103 1.5.311s.769.498 1.019.873.387.816.413 1.321h-1.713c-.048-.326-.176-.589-.384-.788s-.473-.302-.805-.302c-.281 0-.527.076-.737.23s-.37.37-.486.66-.175.641-.175 1.053.057.772.171 1.065.28.516.49.669a1.22 1.22 0 0 0 .737.23 1.19 1.19 0 0 0 .558-.128c.168-.085.306-.208.414-.37s.183-.363.217-.593h1.713c-.028.5-.165.941-.409 1.321a2.47 2.47 0 0 1-1.002.887c-.426.213-.93.319-1.512.319zm8.163-2.915v-3.758h1.815v6.545h-1.743v-1.189h-.068a1.93 1.93 0 0 1-.737.925c-.341.233-.757.35-1.249.35-.437 0-.822-.1-1.155-.299s-.592-.481-.779-.848-.279-.805-.282-1.316v-4.168h1.816v3.844c.002.386.106.691.311.916s.478.337.822.337a1.3 1.3 0 0 0 .614-.15c.19-.102.344-.252.46-.451s.178-.445.175-.738zm8.593-1.892l-1.662.103c-.028-.142-.089-.27-.183-.384s-.217-.209-.371-.277-.331-.106-.541-.106c-.281 0-.518.059-.712.179s-.289.272-.289.468c0 .157.062.289.187.397s.34.194.644.26l1.184.238c.637.131 1.111.341 1.424.631s.468.67.468 1.142a1.78 1.78 0 0 1-.379 1.129c-.25.324-.594.577-1.031.759s-.936.268-1.504.268c-.867 0-1.557-.18-2.071-.541s-.812-.858-.9-1.483l1.786-.094c.054.265.185.466.392.605s.473.205.797.205c.318 0 .574-.061.767-.183s.295-.286.298-.482a.5.5 0 0 0-.209-.405c-.136-.108-.346-.19-.63-.247l-1.134-.226c-.639-.127-1.115-.349-1.427-.664s-.465-.718-.465-1.206c0-.421.114-.783.341-1.087s.553-.538.967-.703.907-.247 1.466-.247c.827 0 1.478.174 1.952.524a2.02 2.02 0 0 1 .835 1.427zm4.654-1.866v1.364h-3.942v-1.364h3.942zm-3.047-1.568h1.815v6.102c0 .168.026.298.077.392s.122.155.213.192a.88.88 0 0 0 .324.055 1.58 1.58 0 0 0 .256-.021l.196-.038.285 1.35a4.42 4.42 0 0 1-.383.098c-.165.04-.365.064-.601.073-.438.017-.821-.041-1.151-.175a1.6 1.6 0 0 1-.762-.622c-.182-.281-.272-.636-.269-1.065v-6.341zm6.997 8.241c-.662 0-1.235-.14-1.718-.422s-.851-.679-1.112-1.184-.392-1.098-.392-1.769.131-1.267.392-1.772.632-.904 1.112-1.185 1.056-.426 1.718-.426 1.233.142 1.713.426.855.676 1.116 1.185.392 1.096.392 1.772-.131 1.26-.392 1.769-.633.9-1.116 1.184-1.052.422-1.713.422zm.008-1.406c.301 0 .553-.085.754-.256a1.58 1.58 0 0 0 .456-.707c.105-.298.158-.638.158-1.019s-.053-.72-.158-1.018a1.58 1.58 0 0 0-.456-.707c-.201-.174-.453-.26-.754-.26s-.56.086-.767.26-.359.409-.464.707-.154.638-.154 1.018.051.721.154 1.019.259.534.464.707.463.256.767.256zm4.274 1.278v-6.545h1.73v1.155h.076a1.82 1.82 0 0 1 .682-.908c.318-.221.699-.332 1.142-.332.449 0 .831.112 1.147.336s.525.523.63.904h.068a1.74 1.74 0 0 1 .725-.899c.352-.228.768-.341 1.248-.341.611 0 1.107.194 1.488.584s.575.934.575 1.644v4.402h-1.811v-4.044c0-.363-.097-.636-.29-.818s-.435-.273-.724-.273c-.33 0-.587.106-.772.316s-.277.481-.277.822v3.997h-1.76v-4.082c0-.321-.092-.577-.277-.767s-.421-.286-.72-.286c-.201 0-.383.052-.545.154s-.286.24-.379.422-.141.389-.141.63v3.929h-1.815zm13.808.128c-.673 0-1.253-.136-1.739-.409s-.855-.665-1.116-1.167-.392-1.104-.392-1.794c0-.674.13-1.265.392-1.773s.629-.905 1.103-1.189 1.037-.426 1.679-.426c.432 0 .834.069 1.206.209a2.67 2.67 0 0 1 .98.617c.282.276.5.623.657 1.04s.234.901.234 1.458v.498h-5.527v-1.125h3.818c0-.261-.057-.493-.17-.694s-.271-.36-.473-.473-.431-.175-.695-.175c-.275 0-.52.064-.733.192s-.375.294-.494.507-.18.444-.183.703v1.069c0 .324.059.604.179.84s.294.418.515.545.485.192.789.192c.201 0 .386-.028.554-.085a1.15 1.15 0 0 0 .43-.256 1.12 1.12 0 0 0 .273-.417l1.679.11a2.3 2.3 0 0 1-.524 1.057c-.262.299-.6.531-1.015.699s-.887.247-1.427.247zm4.069-.128v-6.545h1.76v1.142h.068c.119-.406.319-.713.601-.92s.605-.316.971-.316a2.84 2.84 0 0 1 .294.017c.105.012.198.027.277.047v1.611a2.33 2.33 0 0 0-.353-.068c-.151-.02-.289-.03-.414-.03a1.45 1.45 0 0 0-.716.175 1.28 1.28 0 0 0-.494.477c-.119.204-.179.44-.179.707v3.703h-1.815zm10.236-4.679l-1.662.103c-.028-.142-.09-.27-.183-.384a.98.98 0 0 0-.371-.277 1.26 1.26 0 0 0-.541-.106c-.281 0-.519.059-.712.179s-.29.272-.29.468c0 .157.063.289.188.397s.339.194.643.26l1.185.238c.636.131 1.111.341 1.423.631s.469.67.469 1.142a1.78 1.78 0 0 1-.379 1.129c-.25.324-.594.577-1.031.759s-.937.268-1.505.268c-.866 0-1.557-.18-2.071-.541a2.11 2.11 0 0 1-.899-1.483l1.786-.094c.054.265.184.466.392.605s.473.205.797.205c.318 0 .573-.061.767-.183s.295-.286.298-.482c-.003-.165-.073-.299-.209-.405s-.347-.19-.631-.247l-1.133-.226c-.639-.127-1.115-.349-1.428-.664s-.464-.718-.464-1.206c0-.421.113-.783.341-1.087s.552-.538.967-.703.906-.247 1.466-.247c.827 0 1.477.174 1.952.524s.755.825.835 1.427z" class="I"/><rect x="108.5" y="381.149" width="372" height="47" rx="3.5" stroke="#000"/><rect x="-1" y="1" width="421" height="84" rx="7" transform="matrix(-1 0 0 1 504 361.649)" class="L M N"/><rect x="-2" y="2" width="447" height="108" rx="6" transform="matrix(-1 0 0 1 516 348.649)" class="C D"/><g transform="matrix(-1 0 0 1 502 510.649)"><rect x="-2" y="2" width="442" height="112" rx="6" class="J"/><rect x="-2" y="2" width="442" height="112" rx="6" class="C D"/></g><g class="G"><rect x="-2" y="2" width="447" height="108" rx="6" transform="matrix(-1 0 0 1 516 501.649)"/><rect x="-1" y="1" width="421" height="84" rx="7" transform="matrix(-1 0 0 1 504 514.649)"/></g><rect x="108.161" y="534.049" width="372" height="47" rx="3.5" class="B"/><rect x="127.05" y="551.049" width="13" height="13" rx="1.5" class="F"/><g fill="#eef1f7"><rect x="163.55" y="546.549" width="115" height="22" rx="11"/><rect x="343.55" y="553.549" width="113" height="8" rx="4"/></g><rect x="108.161" y="534.049" width="372" height="47" rx="3.5" stroke="#000"/><rect x="-1" y="1" width="421" height="84" rx="7" transform="matrix(-1 0 0 1 504 514.649)" class="L M N"/><rect x="-2" y="2" width="447" height="108" rx="6" transform="matrix(-1 0 0 1 516 501.649)" class="C D"/><defs><clipPath id="A"><path transform="translate(110.005 148.911)" d="M0 0h22v22H0z" class="B"/></clipPath><clipPath id="B"><path transform="translate(116.747 238.384)" d="M0 0h15v15H0z" class="B"/></clipPath><clipPath id="C"><path transform="translate(118.091 199)" d="M0 0h15v15H0z" class="B"/></clipPath><clipPath id="D"><path transform="translate(267 199)" d="M0 0h15v15H0z" class="B"/></clipPath><clipPath id="E"><path transform="translate(162.889 398.149)" d="M0 0h13v13H0z" class="B"/></clipPath><path id="F" d="M117.338 166.022c1.013 0 1.834-.821 1.834-1.834s-.821-1.833-1.834-1.833-1.833.821-1.833 1.833.821 1.834 1.833 1.834z"/><path id="G" d="M117.033 164.8a.92.92 0 0 0 .917-.917.92.92 0 0 0-.917-.917.92.92 0 0 0-.917.917.92.92 0 0 0 .917.917z"/></defs></svg>