<svg xmlns="http://www.w3.org/2000/svg" xmlns:xlink="http://www.w3.org/1999/xlink" width="608" height="561" fill="none" xmlns:v="https://vecta.io/nano"><style><![CDATA[.B{stroke:#121212}.C{fill:#fff}.D{fill:#121212}.E{fill:#636369}]]></style><g stroke="#97969c" stroke-dasharray="4 4"><path d="M559.504-30.96v78.64m0 544.473v-280.31m0-65.742V97.883M457.312-30.583l.001 402.045m0 220.516V396.135M355.621-30.772v164.794m0 457.954V510.73m0-293.993V461.13M252.93-30.583V60.16m0 531.811V84.463M150.739-30.77l-.001 373.693m0 249.057V425.995M48.547-30.962v183.828m0 439.102V288.95m0-90.065v72.831"/><path d="M0 487.649h330.227m277.773 0H379.607M0 383.856h112.263m495.737 0H469.346m-278.878 0h254.206M0 176.271h25.672m582.328 0H396.708m-80.708 0H73.358M0 280.063h39.48m568.521 0h-15.322m-65.324 0H57.12M0 72.478h239.558m368.442 0h-25.121m-48.339 0H265.522"/><use xlink:href="#D"/><path d="M559.48 96.396l10.183-13.818 13.817-10.182-13.817-10.182-10.183-13.818-10.182 13.818-13.818 10.182 13.818 10.182 10.182 13.818z"/><use xlink:href="#D" x="-307.019" y="-311.504"/><path d="M559.469 311.979l13.576-18.423 18.424-13.577-18.424-13.576-13.576-18.424-13.577 18.424-18.423 13.576 18.423 13.577 13.577 18.423zM150.754 423.886l16.97-23.03 23.03-16.97-23.03-16.971-16.97-23.029-16.971 23.029-23.029 16.971 23.029 16.97 16.971 23.03zm204.867-207.61l16.971-23.029 23.029-16.971-23.029-16.97-16.971-23.03-16.97 23.03-23.03 16.97 23.03 16.971 16.97 23.029z"/><circle r="12" transform="matrix(1 0 0 -1 457.246 383.856)"/><circle r="8" transform="matrix(1 0 0 -1 48.5469 280.063)"/><circle r="12" transform="matrix(1 0 0 -1 252.598 72.4775)"/></g><g transform="matrix(-1 0 0 1 552.389 74.4053)"><rect x="-2" y="2" width="441.955" height="422.315" rx="6" class="D"/><rect x="-2" y="2" width="441.955" height="422.315" rx="6" stroke-width="4" class="B"/></g><g transform="matrix(-1 0 0 1 536.82 61.4863)"><rect x="-2" y="2" width="441.12" height="419.085" rx="6" fill="#f5f6f8"/><rect x="-2" y="2" width="441.12" height="419.085" rx="6" stroke-width="4" class="B"/></g><rect x="107.781" y="74.404" width="422" height="38" rx="4" class="C"/><rect x="124.781" y="88.404" width="10" height="10" rx="5" fill="#eb5757"/><rect x="142.781" y="88.404" width="10" height="10" rx="5" fill="#f2c94c"/><rect x="160.781" y="88.404" width="10" height="10" rx="5" fill="#27ae60"/><g fill="#e7edf5"><path d="M504.219 87.404a1 1 0 1 0-2 0h2zm-2 12a1 1 0 1 0 2 0h-2zm0-12v12h2v-12h-2z"/><path d="M509.219 94.404a1 1 0 1 0 0-2v2zm-12-2a1 1 0 1 0 0 2v-2zm12 0h-12v2h12v-2z"/></g><rect x="-1" y="1" width="419" height="345" rx="7" transform="matrix(-1 0 0 1 526.781 125.404)" fill="#f5f6f8"/><path d="M161.327 166.309v-4.284h1.08c1.278 0 1.638.45 2.178 1.494l1.422 2.79h3.15l-1.53-3.024c-.468-.918-.972-1.548-2.016-1.872v-.18c2.07-.18 3.042-1.35 3.042-3.312 0-2.34-1.602-3.672-4.482-3.672h-5.544v12.06h2.7zm0-9.63h2.97c1.26 0 1.674.396 1.674 1.548 0 1.188-.414 1.566-1.674 1.566h-2.97v-3.114zm13.091 9.81c2.592 0 4.248-1.134 4.248-3.06v-.18h-2.664v.108c0 .558-.468.792-1.548.792-1.476 0-1.98-.504-2.034-1.764h6.21a8.16 8.16 0 0 0 .126-1.332c0-2.358-1.602-3.978-4.32-3.978-2.826 0-4.554 1.836-4.554 4.734 0 2.862 1.422 4.68 4.536 4.68zm-.072-7.2c1.26 0 1.872.522 1.818 1.458h-3.726c.108-.954.612-1.458 1.908-1.458zm8.926 7.02v-5.238c0-1.278.54-1.674 1.764-1.674 1.296 0 1.692.45 1.692 1.71v5.202h2.7v-5.202c0-1.314.522-1.71 1.746-1.71 1.314 0 1.692.45 1.692 1.71v5.202h2.7v-5.742c0-1.926-.954-3.492-3.294-3.492-1.674 0-2.574.774-3.078 1.764h-.09c-.45-1.062-1.386-1.764-2.934-1.764s-2.484.738-2.97 1.764h-.108v-1.584h-2.502v9.054h2.682zm16.972-10.08v-1.98h-2.682l.036 1.98h2.646zm.054 10.08v-9.054h-2.7v9.054h2.7zm4.726 0v-5.13c0-1.368.558-1.782 1.854-1.782 1.368 0 1.782.45 1.782 1.71v5.202h2.7v-5.742c0-1.926-1.008-3.492-3.366-3.492-1.584 0-2.556.738-3.042 1.764h-.108v-1.584h-2.502v9.054h2.682zm12.004.18c1.332 0 2.358-.54 2.826-1.512h.09v1.332h2.502v-12.06h-2.682v4.194h-.108c-.414-.756-1.242-1.368-2.628-1.368-2.466 0-3.924 1.854-3.924 4.716 0 2.844 1.368 4.698 3.924 4.698zm-1.242-4.698c0-1.656.432-2.412 1.998-2.412 1.278 0 1.98.45 1.98 1.674v1.458c0 1.224-.702 1.674-1.98 1.674-1.566 0-1.998-.756-1.998-2.394zm12.976 4.698c2.592 0 4.248-1.134 4.248-3.06v-.18h-2.664v.108c0 .558-.468.792-1.548.792-1.476 0-1.98-.504-2.034-1.764h6.21a8.16 8.16 0 0 0 .126-1.332c0-2.358-1.602-3.978-4.32-3.978-2.826 0-4.554 1.836-4.554 4.734 0 2.862 1.422 4.68 4.536 4.68zm-.072-7.2c1.26 0 1.872.522 1.818 1.458h-3.726c.108-.954.612-1.458 1.908-1.458zm8.926 7.02v-5.67c0-.99.396-1.278 1.224-1.278.846 0 1.152.306 1.152 1.278v.486h2.682v-.828c0-1.818-.702-3.222-2.592-3.222-1.278 0-2.088.72-2.538 1.638h-.108v-1.458h-2.502v9.054h2.682zm13.205.18c1.674 0 2.592-.738 3.078-1.404h.108v1.224h2.502v-5.364c0-2.412-1.404-3.87-4.068-3.87-2.556 0-4.23 1.422-4.23 3.582v.198h2.574v-.198c0-.918.432-1.224 1.53-1.224 1.062 0 1.638.198 1.638 1.26v.288l-3.096.468c-1.872.288-2.88 1.152-2.88 2.556 0 1.638 1.242 2.484 2.844 2.484zm-.27-2.7c0-.378.252-.558.81-.648l2.592-.396c0 1.404-1.134 1.692-2.232 1.692-.792 0-1.17-.162-1.17-.648zm11.411 2.7c1.584 0 2.538-.72 3.042-1.764h.09v1.584h2.502v-9.054h-2.682v5.13c0 1.368-.558 1.782-1.854 1.782-1.35 0-1.782-.45-1.782-1.71v-5.202h-2.682v5.742c0 1.926.99 3.492 3.366 3.492zm11.933-.144a9.52 9.52 0 0 0 1.764-.18v-2.25h-1.116c-1.17 0-1.44-.09-1.44-.882v-3.546h2.556v-2.232h-2.556v-2.106h-2.124l-.504 2.106h-1.512v2.232h1.44v3.852c0 2.142 1.134 3.006 3.492 3.006zm7.628.144c2.898 0 4.59-1.836 4.59-4.698 0-2.88-1.692-4.716-4.59-4.716-2.916 0-4.644 1.836-4.644 4.716 0 2.862 1.728 4.698 4.644 4.698zm0-2.376c-1.476 0-1.98-.576-1.98-2.322 0-1.764.504-2.34 1.98-2.34 1.458 0 1.962.576 1.962 2.34 0 1.746-.504 2.322-1.962 2.322zm9.044 2.196v-5.238c0-1.278.54-1.674 1.764-1.674 1.296 0 1.692.45 1.692 1.71v5.202h2.7v-5.202c0-1.314.522-1.71 1.746-1.71 1.314 0 1.692.45 1.692 1.71v5.202h2.7v-5.742c0-1.926-.954-3.492-3.294-3.492-1.674 0-2.574.774-3.078 1.764h-.09c-.45-1.062-1.386-1.764-2.934-1.764s-2.484.738-2.97 1.764h-.108v-1.584h-2.502v9.054h2.682zm16.901.18c1.674 0 2.592-.738 3.078-1.404h.108v1.224h2.502v-5.364c0-2.412-1.404-3.87-4.068-3.87-2.556 0-4.23 1.422-4.23 3.582v.198h2.574v-.198c0-.918.432-1.224 1.53-1.224 1.062 0 1.638.198 1.638 1.26v.288l-3.096.468c-1.872.288-2.88 1.152-2.88 2.556 0 1.638 1.242 2.484 2.844 2.484zm-.27-2.7c0-.378.252-.558.81-.648l2.592-.396c0 1.404-1.134 1.692-2.232 1.692-.792 0-1.17-.162-1.17-.648zm12.205 2.556a9.52 9.52 0 0 0 1.764-.18v-2.25h-1.116c-1.17 0-1.44-.09-1.44-.882v-3.546h2.556v-2.232h-2.556v-2.106h-2.124l-.504 2.106h-1.512v2.232h1.44v3.852c0 2.142 1.134 3.006 3.492 3.006zm6.056-10.116v-1.98h-2.682l.036 1.98h2.646zm.054 10.08v-9.054h-2.7v9.054h2.7zm6.258.18c2.898 0 4.59-1.836 4.59-4.698 0-2.88-1.692-4.716-4.59-4.716-2.916 0-4.644 1.836-4.644 4.716 0 2.862 1.728 4.698 4.644 4.698zm0-2.376c-1.476 0-1.98-.576-1.98-2.322 0-1.764.504-2.34 1.98-2.34 1.458 0 1.962.576 1.962 2.34 0 1.746-.504 2.322-1.962 2.322zm9.045 2.196v-5.13c0-1.368.558-1.782 1.854-1.782 1.368 0 1.782.45 1.782 1.71v5.202h2.7v-5.742c0-1.926-1.008-3.492-3.366-3.492-1.584 0-2.556.738-3.042 1.764h-.108v-1.584h-2.502v9.054h2.682zm15.683 0v-6.822h2.016v-2.232h-2.124v-.162c0-.612.324-.828 1.008-.828h1.116v-2.016c-.288-.036-.558-.036-.846-.036-2.412 0-3.69 1.134-3.852 3.042h-1.332v2.232h1.314v6.822h2.7zm5.724 0v-12.06h-2.682v12.06h2.682zm6.443.18c2.898 0 4.59-1.836 4.59-4.698 0-2.88-1.692-4.716-4.59-4.716-2.916 0-4.644 1.836-4.644 4.716 0 2.862 1.728 4.698 4.644 4.698zm0-2.376c-1.476 0-1.98-.576-1.98-2.322 0-1.764.504-2.34 1.98-2.34 1.458 0 1.962.576 1.962 2.34 0 1.746-.504 2.322-1.962 2.322zm10.943 2.196l1.188-4.302.45-2.376h.198l.45 2.376 1.17 4.302h3.528l2.106-9.054h-2.844l-.63 4.194-.324 2.7h-.18l-.486-2.7-1.116-4.194h-3.438l-1.098 4.176-.504 2.718h-.198l-.342-2.718-.594-4.176h-2.97l2.106 9.054h3.528z" fill="#000"/><g clip-path="url(#A)"><path d="M145.5 169.041l-13.357-8.273 3.641-11.025 11.025 3.641-1.309 15.657z" fill="#55acee"/><g fill="#269"><path d="M144.335 167.337a.61.61 0 0 1-.546-.337l-7.773-15.438a.61.61 0 0 1 1.091-.55l7.774 15.439a.61.61 0 0 1-.272.821c-.087.044-.181.065-.274.065z"/><path d="M133.688 160.602a.61.61 0 0 1-.275-1.157l11.578-5.83a.61.61 0 0 1 .55 1.091l-11.578 5.83a.61.61 0 0 1-.275.066z"/></g><path d="M148.506 170.905c-1.492 0-2.763-.775-3.789-2.313a.61.61 0 1 1 1.017-.678c.956 1.432 2.053 1.972 3.449 1.699.578-.112 1.096-.599 1.387-1.303.429-1.034.288-2.241-.378-3.228-1.226-1.815-1.697-4.147-1.261-6.239.376-1.806 1.369-3.266 2.871-4.22a.61.61 0 0 1 .655 1.032c-1.538.976-2.116 2.408-2.33 3.437-.369 1.776.033 3.759 1.078 5.307.896 1.327 1.081 2.964.496 4.379-.449 1.083-1.302 1.845-2.283 2.035-.314.061-.617.092-.912.092z" fill="#3b88c3"/><path d="M151.05 168.248c-.477-1.518-1.715-2.739-2.54-1.268-.82 1.462.636 2.112 2.272 1.675.477 1.518 1.715 2.739 2.54 1.268.82-1.462-.635-2.112-2.272-1.675zm-.87-4.301c1.452.651 3.187.535 2.634-1.058-.549-1.584-2.001-.927-2.76.587-1.453-.651-3.187-.535-2.635 1.058.549 1.584 2.002.927 2.761-.587zm-.771-4.032c.828 1.36 2.323 2.247 2.771.62.444-1.616-1.125-1.897-2.608-1.079-.828-1.359-2.323-2.246-2.771-.62-.444 1.616 1.125 1.897 2.608 1.079zm1.77-4.007c-.08 1.59.657 3.164 1.942 2.072 1.277-1.086.138-2.202-1.549-2.36.081-1.59-.656-3.164-1.941-2.071-1.277 1.085-.138 2.201 1.548 2.359z" fill="#9266cc"/></g><path stroke="#dfe7f2" stroke-width="2" d="M131.781 186.426h364.146"/><rect x="176.781" y="209.5" width="283" height="64" rx="7.5" class="C"/><path d="M244.811 258.5v-1.332l3.535-3.466.845-.909c.225-.266.394-.522.507-.771a1.9 1.9 0 0 0 .169-.795c0-.322-.073-.597-.219-.826a1.45 1.45 0 0 0-.601-.537c-.255-.126-.545-.189-.87-.189-.335 0-.628.07-.88.209s-.448.33-.587.582-.204.552-.204.9h-1.755c0-.647.148-1.208.443-1.686s.701-.846 1.218-1.108 1.117-.393 1.79-.393c.682 0 1.282.128 1.799.383s.919.605 1.204 1.049.432.951.432 1.521c0 .381-.073.756-.219 1.124s-.402.775-.77 1.223-.877.989-1.536 1.625l-1.755 1.785v.07h4.434v1.541h-6.98zm14.742.134c-.6 0-1.137-.154-1.611-.462s-.849-.756-1.124-1.342-.412-1.3-.412-2.138c0-.849.139-1.565.417-2.148s.662-1.029 1.139-1.327a2.92 2.92 0 0 1 1.596-.453c.447 0 .815.076 1.103.229s.517.33.686.542a3.3 3.3 0 0 1 .393.591h.075v-3.808h1.805V258.5h-1.77v-1.203h-.11a3.1 3.1 0 0 1-.402.591c-.176.206-.408.382-.696.527s-.652.219-1.089.219zm.502-1.476c.381 0 .706-.103.974-.309s.473-.498.612-.87.209-.803.209-1.297-.07-.923-.209-1.288-.338-.648-.607-.85-.591-.303-.979-.303c-.401 0-.736.104-1.004.313s-.471.497-.607.865-.204.789-.204 1.263.068.903.204 1.278.343.664.612.879.604.319.999.319zm7.54 1.496c-.484 0-.92-.086-1.308-.258s-.689-.435-.915-.776-.333-.762-.333-1.263c0-.431.08-.787.239-1.069a1.85 1.85 0 0 1 .651-.676c.275-.169.585-.296.93-.383a7.53 7.53 0 0 1 1.079-.193l1.089-.125c.278-.04.48-.099.606-.179s.194-.21.194-.383v-.029c0-.375-.111-.665-.333-.87s-.542-.309-.96-.309c-.44 0-.79.096-1.049.289s-.427.419-.517.681l-1.68-.239c.132-.464.351-.852.656-1.163s.678-.55 1.119-.706a4.28 4.28 0 0 1 1.461-.239 4.77 4.77 0 0 1 1.099.129c.365.087.698.229.999.428s.544.462.726.8.279.761.279 1.268v5.111h-1.73v-1.049h-.06c-.109.212-.264.411-.462.597s-.443.329-.741.442-.642.164-1.039.164zm.467-1.322c.361 0 .675-.072.94-.214s.469-.338.611-.577.219-.499.219-.78v-.9c-.056.046-.153.089-.288.129s-.282.075-.448.104l-.492.08-.423.06a3.11 3.11 0 0 0-.72.179 1.2 1.2 0 0 0-.503.348.85.85 0 0 0-.184.566c0 .332.121.582.363.751s.551.254.925.254zm6.08 4.032a3.63 3.63 0 0 1-.682-.06c-.205-.036-.369-.08-.492-.129l.418-1.402c.262.076.495.112.701.109a.86.86 0 0 0 .542-.194c.159-.122.293-.328.402-.616l.155-.413-2.77-7.795h1.909l1.76 5.767h.08l1.765-5.767h1.914l-3.058 8.561c-.142.404-.331.75-.566 1.039s-.524.514-.865.666-.743.234-1.213.234zm12.843-8.482l-1.641.179c-.046-.166-.127-.321-.243-.467a1.21 1.21 0 0 0-.458-.353c-.192-.09-.427-.134-.706-.134-.374 0-.689.081-.944.243s-.377.373-.373.632c-.004.222.078.402.243.541s.448.254.836.343l1.302.279c.723.156 1.26.403 1.611.741s.534.78.537 1.327a2.07 2.07 0 0 1-.423 1.273c-.275.364-.658.649-1.148.855s-1.054.308-1.69.308c-.935 0-1.687-.195-2.258-.587s-.909-.942-1.019-1.645l1.755-.169c.08.345.249.605.507.78s.595.264 1.01.264c.427 0 .77-.088 1.029-.264s.392-.392.392-.651a.68.68 0 0 0-.253-.542c-.166-.142-.424-.252-.776-.328l-1.302-.273c-.733-.153-1.275-.41-1.626-.771s-.525-.825-.522-1.382c-.003-.471.124-.878.383-1.223s.625-.617 1.089-.805 1.006-.289 1.615-.289c.895 0 1.6.191 2.113.572s.837.896.96 1.546zm8.654-2.018v1.392h-4.39v-1.392h4.39zm-3.306-1.83h1.799v7.169c0 .242.037.428.11.557s.175.212.298.258.259.07.408.07c.112 0 .215-.008.308-.025l.219-.045.303 1.407c-.096.034-.234.07-.413.11s-.391.063-.646.069c-.451.014-.857-.054-1.218-.203a1.9 1.9 0 0 1-.86-.706c-.209-.319-.312-.716-.308-1.194v-7.467zm7.92 9.615c-.746 0-1.392-.164-1.939-.492s-.971-.787-1.273-1.377-.447-1.28-.447-2.068.149-1.48.447-2.074.726-1.053 1.273-1.382 1.193-.492 1.939-.492 1.392.164 1.939.492.969.789 1.268 1.382.452 1.285.452 2.074-.151 1.478-.452 2.068-.721 1.049-1.268 1.377-1.193.492-1.939.492zm.01-1.442c.404 0 .742-.111 1.014-.333s.474-.527.607-.905.203-.798.203-1.262-.068-.89-.203-1.268-.335-.685-.607-.91-.61-.338-1.014-.338c-.414 0-.759.113-1.034.338a2.04 2.04 0 0 0-.612.91c-.132.378-.199.8-.199 1.268s.067.885.199 1.262a2.04 2.04 0 0 0 .612.905c.275.222.62.333 1.034.333zm10.169-3.181v4.474h-1.8v-7.636h1.72v1.297h.09c.175-.427.456-.767.84-1.019s.867-.378 1.437-.378c.527 0 .986.113 1.377.338s.699.552.915.98.326.946.323 1.556v4.862h-1.8v-4.584c0-.51-.132-.91-.398-1.198s-.624-.432-1.088-.432c-.315 0-.595.069-.841.208s-.432.333-.571.592-.204.572-.204.94zm9.972 4.623c-.766 0-1.427-.159-1.984-.477s-.979-.776-1.277-1.362-.448-1.285-.448-2.083c0-.786.149-1.475.448-2.069s.722-1.06 1.262-1.392 1.175-.502 1.905-.502c.47 0 .914.076 1.332.229s.792.381 1.114.696.58.716.765 1.203.279 1.061.279 1.73v.552h-6.26v-1.213h4.535c-.004-.345-.078-.651-.224-.92s-.35-.485-.612-.641-.56-.234-.905-.234c-.367 0-.691.09-.969.269s-.495.407-.651.696a1.99 1.99 0 0 0-.234.939v1.059c0 .444.081.826.244 1.144s.389.557.681.726.633.248 1.024.248c.262 0 .499-.036.711-.109s.396-.187.552-.333.273-.327.353-.542l1.68.189a2.62 2.62 0 0 1-.606 1.163c-.295.328-.673.583-1.134.766s-.988.268-1.581.268zm6.086-7.785l1.541 2.819 1.566-2.819h1.904l-2.302 3.818 2.342 3.818h-1.894l-1.616-2.749-1.601 2.749h-1.909l2.327-3.818-2.267-3.818h1.909zm10.076 0v1.392h-4.39v-1.392h4.39zm-3.306-1.83h1.8v7.169c0 .242.036.428.109.557a.59.59 0 0 0 .299.258c.122.047.258.07.407.07.113 0 .216-.008.309-.025l.218-.045.304 1.407a3.9 3.9 0 0 1-.413.11c-.176.04-.391.063-.646.069-.451.014-.857-.054-1.218-.203s-.648-.388-.861-.706c-.208-.319-.311-.716-.308-1.194v-7.467zm14.04 3.848l-1.641.179a1.31 1.31 0 0 0-.244-.467c-.112-.146-.265-.264-.457-.353s-.427-.134-.706-.134c-.374 0-.689.081-.945.243s-.376.373-.372.632c-.004.222.078.402.243.541s.448.254.835.343l1.303.279c.723.156 1.259.403 1.611.741s.533.78.537 1.327c-.004.481-.144.905-.423 1.273s-.658.649-1.148.855-1.054.308-1.691.308c-.934 0-1.687-.195-2.257-.587s-.91-.942-1.019-1.645l1.755-.169c.08.345.249.605.507.78s.595.264 1.009.264c.428 0 .771-.088 1.03-.264s.392-.392.392-.651a.68.68 0 0 0-.253-.542c-.166-.142-.425-.252-.776-.328l-1.302-.273c-.733-.153-1.275-.41-1.626-.771s-.525-.825-.522-1.382c-.003-.471.124-.878.383-1.223s.624-.617 1.088-.805 1.006-.289 1.616-.289c.895 0 1.599.191 2.113.572s.837.896.96 1.546zm6.375 2.406v-4.424h1.8v7.636h-1.745v-1.357h-.08a2.3 2.3 0 0 1-.85 1.049c-.391.272-.873.407-1.447.407-.5 0-.943-.111-1.327-.333s-.68-.552-.895-.979-.323-.951-.323-1.561v-4.862h1.799v4.583c0 .484.133.869.398 1.154s.613.427 1.044.427c.265 0 .522-.064.771-.193s.452-.322.611-.577.244-.582.244-.97zm3.59 3.212v-10.182h1.8v3.808h.074c.093-.185.224-.382.393-.591s.398-.393.686-.542.656-.229 1.104-.229c.59 0 1.122.151 1.596.453s.855.74 1.133 1.327.423 1.299.423 2.148c0 .838-.138 1.551-.413 2.138s-.65 1.034-1.124 1.342-1.01.462-1.61.462c-.438 0-.801-.073-1.089-.219s-.52-.321-.696-.527-.307-.406-.403-.591h-.104v1.203h-1.77zm1.765-3.818c0 .494.069.926.209 1.297s.346.662.611.87.593.309.975.309c.397 0 .73-.106.999-.319s.47-.508.606-.879.209-.801.209-1.278-.068-.895-.204-1.263a1.9 1.9 0 0 0-.606-.865c-.269-.209-.603-.313-1.004-.313-.385 0-.711.101-.98.303s-.472.486-.611.85-.204.794-.204 1.288zm12.869-1.8l-1.64.179c-.047-.166-.128-.321-.244-.467s-.265-.264-.457-.353-.428-.134-.706-.134c-.375 0-.69.081-.945.243s-.376.373-.373.632a.66.66 0 0 0 .244.541c.169.14.447.254.835.343l1.303.279c.722.156 1.259.403 1.61.741s.534.78.537 1.327c-.003.481-.144.905-.422 1.273s-.658.649-1.149.855-1.054.308-1.69.308c-.935 0-1.687-.195-2.257-.587s-.91-.942-1.019-1.645l1.755-.169c.079.345.248.605.507.78s.595.264 1.009.264c.427 0 .771-.088 1.029-.264s.393-.392.393-.651a.68.68 0 0 0-.254-.542c-.165-.142-.424-.252-.775-.328l-1.303-.273c-.732-.153-1.274-.41-1.626-.771s-.525-.825-.522-1.382c-.003-.471.125-.878.383-1.223s.625-.617 1.089-.805 1.006-.289 1.616-.289c.895 0 1.599.191 2.113.572a2.4 2.4 0 0 1 .959 1.546zm4.839 5.767c-.762 0-1.417-.167-1.964-.502s-.962-.797-1.257-1.387-.438-1.276-.438-2.048.149-1.46.448-2.054.719-1.06 1.262-1.392 1.194-.502 1.939-.502c.62 0 1.169.115 1.646.343s.863.545 1.148.96.448.891.488 1.442h-1.721a1.64 1.64 0 0 0-.497-.92c-.258-.249-.605-.373-1.039-.373a1.62 1.62 0 0 0-.969.298c-.279.196-.496.477-.652.845s-.228.809-.228 1.323c0 .52.076.968.228 1.342s.367.658.642.86a1.64 1.64 0 0 0 .979.299c.265 0 .502-.05.711-.15a1.42 1.42 0 0 0 .532-.442c.143-.192.24-.426.293-.701h1.721c-.044.54-.203 1.019-.478 1.437s-.649.739-1.123.974-1.031.348-1.671.348zm4.609-.149v-7.636h1.745v1.272h.08c.139-.44.378-.78.716-1.019a1.97 1.97 0 0 1 1.168-.363l.333.015a2.21 2.21 0 0 1 .313.035v1.656c-.076-.027-.197-.05-.362-.07a3.38 3.38 0 0 0-.473-.035c-.328 0-.623.071-.885.214a1.56 1.56 0 0 0-.611.582c-.149.248-.224.535-.224.86v4.489h-1.8zm5.411 0v-7.636h1.8v7.636h-1.8zm.905-8.72a1.05 1.05 0 0 1-.736-.284c-.205-.192-.308-.422-.308-.691s.103-.502.308-.691a1.04 1.04 0 0 1 .736-.288 1.03 1.03 0 0 1 .736.288c.205.189.308.42.308.691s-.103.499-.308.691a1.04 1.04 0 0 1-.736.284zm2.606 11.584v-10.5h1.769v1.262h.105c.093-.185.224-.382.393-.591s.397-.393.686-.542.656-.229 1.103-.229c.59 0 1.122.151 1.596.453s.855.74 1.134 1.327.422 1.299.422 2.148c0 .838-.137 1.551-.412 2.138s-.65 1.034-1.124 1.342-1.011.462-1.611.462c-.437 0-.8-.073-1.088-.219a2.18 2.18 0 0 1-.696-.527c-.173-.208-.307-.406-.403-.591h-.075v4.067h-1.799zm1.764-6.682c0 .494.07.926.209 1.297s.347.662.612.87.593.309.974.309c.398 0 .731-.106.999-.319s.471-.508.607-.879a3.66 3.66 0 0 0 .209-1.278c0-.474-.068-.895-.204-1.263s-.338-.656-.607-.865-.603-.313-1.004-.313c-.384 0-.711.101-.979.303s-.473.486-.612.85-.204.794-.204 1.288zm10.659-3.818v1.392h-4.39v-1.392h4.39zm-3.306-1.83h1.799v7.169c0 .242.037.428.11.557s.175.212.298.258.259.07.408.07c.112 0 .215-.008.308-.025l.219-.045.303 1.407c-.096.034-.234.07-.413.11s-.391.063-.646.069c-.451.014-.857-.054-1.218-.203a1.9 1.9 0 0 1-.86-.706c-.209-.319-.312-.716-.308-1.194v-7.467zm4.671 9.466v-7.636h1.8v7.636h-1.8zm.905-8.72a1.05 1.05 0 0 1-.736-.284.91.91 0 0 1-.308-.691.9.9 0 0 1 .308-.691 1.04 1.04 0 0 1 .736-.288 1.03 1.03 0 0 1 .736.288c.205.189.308.42.308.691s-.103.499-.308.691a1.04 1.04 0 0 1-.736.284zm5.936 8.869c-.745 0-1.392-.164-1.939-.492s-.971-.787-1.272-1.377-.448-1.28-.448-2.068.149-1.48.448-2.074.725-1.053 1.272-1.382 1.194-.492 1.939-.492 1.392.164 1.939.492.97.789 1.268 1.382.452 1.285.452 2.074-.15 1.478-.452 2.068-.721 1.049-1.268 1.377-1.193.492-1.939.492zm.01-1.442c.405 0 .743-.111 1.014-.333s.474-.527.607-.905a3.7 3.7 0 0 0 .204-1.262c0-.468-.068-.89-.204-1.268s-.335-.685-.607-.91-.609-.338-1.014-.338c-.414 0-.759.113-1.034.338a2.03 2.03 0 0 0-.611.91 3.8 3.8 0 0 0-.199 1.268c0 .464.066.885.199 1.262a2.03 2.03 0 0 0 .611.905c.275.222.62.333 1.034.333zm6.837-3.181v4.474h-1.8v-7.636h1.72v1.297h.09c.175-.427.455-.767.84-1.019s.866-.378 1.437-.378c.527 0 .986.113 1.377.338s.699.552.914.98.327.946.324 1.556v4.862h-1.8v-4.584c0-.51-.133-.91-.398-1.198s-.625-.432-1.089-.432c-.315 0-.595.069-.84.208a1.45 1.45 0 0 0-.572.592c-.135.258-.203.572-.203.94z" class="D"/><path d="M244.48 229.5v-5.818h3.784v.883h-2.73v1.58h2.534v.883h-2.534v1.588h2.753v.884h-3.807zm8.632-4.364l-1.554 4.364h-1.137l-1.554-4.364h1.097l1.003 3.242h.045l1.006-3.242h1.094zm2.415 4.449c-.438 0-.816-.091-1.134-.273s-.559-.443-.73-.778-.256-.734-.256-1.19c0-.449.086-.843.256-1.182a1.94 1.94 0 0 1 .722-.796c.308-.191.671-.286 1.088-.286a2.2 2.2 0 0 1 .761.13 1.72 1.72 0 0 1 .637.398c.185.18.331.409.437.687s.159.607.159.989v.315h-3.577v-.693h2.591c-.002-.197-.044-.372-.128-.525a.92.92 0 0 0-.349-.367c-.148-.089-.32-.133-.517-.133-.21 0-.395.051-.554.153s-.283.233-.372.398a1.15 1.15 0 0 0-.134.537v.605c0 .254.047.471.14.653a.99.99 0 0 0 .389.415 1.16 1.16 0 0 0 .585.142 1.26 1.26 0 0 0 .406-.062c.121-.044.227-.107.316-.191s.156-.186.201-.309l.961.108c-.061.253-.177.475-.347.664a1.69 1.69 0 0 1-.648.438c-.263.102-.564.153-.903.153zm3.759-2.642v2.557h-1.029v-4.364h.983v.742h.051a1.26 1.26 0 0 1 .48-.583c.222-.143.496-.215.821-.215.302 0 .564.064.787.193a1.3 1.3 0 0 1 .523.559c.125.245.187.541.185.89v2.778h-1.029v-2.619c0-.292-.075-.52-.227-.685s-.357-.247-.622-.247a.96.96 0 0 0-.48.119c-.139.078-.247.191-.327.338s-.116.327-.116.537zm5.945-1.807v.796h-2.508v-.796h2.508zm-1.889-1.045h1.028v4.097c0 .138.021.244.063.318a.33.33 0 0 0 .17.147c.07.027.148.04.233.04.065 0 .123-.005.176-.014l.125-.026.174.804a2.36 2.36 0 0 1-.236.063c-.1.023-.224.036-.369.04-.258.007-.49-.032-.696-.117s-.371-.221-.492-.403-.178-.409-.176-.682v-4.267z" class="E"/><path d="M243.906 236.244h198.636" class="B"/><rect x="188.781" y="221.5" width="40" height="40" rx="4" fill="#f1eaff"/><g clip-path="url(#B)"><path d="M218.226 242.056c0-1.146-.204-2.244-.578-3.26-.256 2.994-1.852 4.531-3.519 3.815-1.563-.671-.51-3.287-.432-4.535.131-2.116-.007-4.539-3.851-6.553 1.598 3.056.185 4.954-1.296 5.07-1.643.128-3.148-1.412-2.593-3.912-1.798 1.325-1.851 3.556-1.296 5 .579 1.504-.023 2.754-1.435 2.893-1.577.156-2.454-1.689-1.646-4.629-1.399 1.647-2.243 3.78-2.243 6.111 0 5.216 4.228 9.444 9.444 9.444s9.445-4.228 9.445-9.444z" fill="#f4900c"/><path d="M214.555 244.832c.083 1.714-1.422 2.385-2.232 2.061-1.17-.468-.857-1.273-1.158-2.94s-1.458-2.823-3.171-3.333c1.25 3.518-.693 4.815-1.711 5.047-1.04.236-2.085-.001-2.204-2.226-1.214 1.207-1.965 2.879-1.965 4.725 0 .205.013.406.031.606a9.41 9.41 0 0 0 6.636 2.728c2.588 0 4.93-1.043 6.636-2.728l.031-.606a6.63 6.63 0 0 0-.893-3.334z" fill="#ffcc4d"/></g><rect x="401.542" y="225" width="41" height="4" rx="2" fill="#eef1f7"/><rect x="176.781" y="209.5" width="283" height="64" rx="7.5" class="B"/><rect x="176.781" y="352.5" width="283" height="64" rx="7.5" class="C"/><path d="M250.578 393.993c-.053-.471-.272-.835-.656-1.094s-.868-.393-1.452-.393c-.417 0-.779.067-1.084.199s-.542.308-.711.537-.248.482-.248.771a1.13 1.13 0 0 0 .169.626 1.53 1.53 0 0 0 .452.443c.189.116.391.213.607.293l.621.189.995.258a7.66 7.66 0 0 1 .999.324c.341.135.658.314.949.537a2.57 2.57 0 0 1 .706.825c.183.328.274.721.274 1.178 0 .577-.149 1.089-.448 1.536s-.724.801-1.287 1.059-1.238.388-2.034.388c-.762 0-1.421-.121-1.978-.363s-.993-.585-1.308-1.029-.489-.978-.522-1.591h1.541a1.58 1.58 0 0 0 .358.92c.212.242.483.422.811.542a3.27 3.27 0 0 0 1.088.174c.435 0 .821-.068 1.159-.204s.61-.332.805-.577a1.36 1.36 0 0 0 .294-.87c0-.301-.087-.548-.259-.741s-.399-.351-.691-.477-.615-.237-.979-.333l-1.204-.328c-.815-.222-1.461-.549-1.938-.98s-.711-1-.711-1.71c0-.586.159-1.098.477-1.536s.749-.777 1.292-1.019 1.157-.368 1.84-.368c.689 0 1.298.121 1.825.363s.947.575 1.252.999.464.905.478 1.452h-1.482zm6.488 7.661c-.752 0-1.4-.161-1.943-.482a3.27 3.27 0 0 1-1.253-1.367c-.292-.59-.438-1.281-.438-2.073 0-.783.146-1.472.438-2.069s.706-1.062 1.233-1.397 1.15-.502 1.859-.502a3.73 3.73 0 0 1 1.253.214c.404.143.767.366 1.089.671s.575.701.76 1.188.279 1.073.279 1.765v.527h-6.071v-1.113h4.614c0-.391-.079-.738-.239-1.039s-.382-.546-.671-.721a1.87 1.87 0 0 0-1.004-.264c-.418 0-.782.103-1.094.308a2.08 2.08 0 0 0-.716.796c-.165.325-.248.678-.248 1.059v.87c0 .51.089.944.268 1.302s.436.632.761.821a2.26 2.26 0 0 0 1.138.278 2.38 2.38 0 0 0 .771-.119c.232-.083.433-.206.602-.368s.298-.363.387-.602l1.407.254a2.55 2.55 0 0 1-.606 1.089c-.289.308-.651.548-1.089.721s-.93.253-1.487.253zm6.273-4.688v4.534h-1.487v-7.636h1.427v1.243h.094a2.18 2.18 0 0 1 .826-.975c.378-.245.853-.368 1.427-.368.52 0 .976.11 1.367.328a2.2 2.2 0 0 1 .91.965c.215.427.323.956.323 1.586v4.857h-1.487v-4.678c0-.554-.144-.986-.432-1.298s-.685-.472-1.189-.472a1.85 1.85 0 0 0-.919.224c-.265.149-.476.367-.632.656s-.228.63-.228 1.034zm9.599 4.683c-.617 0-1.167-.157-1.651-.472s-.858-.771-1.133-1.357-.408-1.298-.408-2.123.138-1.532.413-2.118.659-1.036 1.143-1.347 1.033-.468 1.646-.468c.474 0 .855.08 1.143.239s.517.338.676.547a4.44 4.44 0 0 1 .378.552h.09v-3.784h1.486V401.5h-1.451v-1.188h-.125c-.089.162-.218.348-.387.557s-.395.391-.687.546-.669.234-1.133.234zm.328-1.268c.428 0 .789-.112 1.084-.338s.524-.545.676-.949.234-.875.234-1.412c0-.53-.077-.995-.229-1.392a2.04 2.04 0 0 0-.671-.93c-.295-.222-.66-.333-1.094-.333-.447 0-.82.116-1.119.348s-.523.549-.676.95-.223.853-.223 1.357c0 .51.076.969.228 1.377a2.19 2.19 0 0 0 .676.969c.302.236.673.353 1.114.353zm12.293 1.273c-.752 0-1.4-.161-1.944-.482s-.958-.781-1.253-1.367-.437-1.281-.437-2.073c0-.783.146-1.472.437-2.069s.706-1.062 1.233-1.397 1.151-.502 1.86-.502c.431 0 .848.071 1.253.214s.767.366 1.088.671.575.701.761 1.188.279 1.073.279 1.765v.527h-6.071v-1.113h4.614c0-.391-.08-.738-.239-1.039a1.8 1.8 0 0 0-.671-.721c-.285-.176-.62-.264-1.004-.264-.418 0-.782.103-1.094.308a2.08 2.08 0 0 0-.716.796c-.166.325-.248.678-.248 1.059v.87c0 .51.089.944.268 1.302a1.94 1.94 0 0 0 .761.821c.324.185.704.278 1.138.278a2.38 2.38 0 0 0 .771-.119 1.67 1.67 0 0 0 .601-.368 1.59 1.59 0 0 0 .388-.602l1.407.254a2.56 2.56 0 0 1-.606 1.089 2.96 2.96 0 0 1-1.089.721c-.434.169-.93.253-1.487.253zm4.786-.154v-7.636h1.427v1.243h.094a1.97 1.97 0 0 1 .781-.985c.361-.238.793-.358 1.297-.358.511 0 .938.12 1.283.358s.605.567.771.985h.079c.182-.408.472-.733.87-.975s.872-.368 1.422-.368c.693 0 1.258.217 1.695.651s.662 1.089.662 1.964v5.121h-1.487v-4.982c0-.517-.141-.891-.423-1.123s-.618-.348-1.009-.348c-.484 0-.86.149-1.128.447s-.403.675-.403 1.139v4.867h-1.482v-5.076c0-.414-.129-.747-.387-.999s-.595-.378-1.01-.378c-.281 0-.542.074-.78.224-.235.145-.426.349-.572.611a1.88 1.88 0 0 0-.214.91v4.708h-1.486zm14.455.169c-.484 0-.921-.089-1.312-.268s-.701-.446-.93-.791-.338-.767-.338-1.268c0-.431.083-.785.249-1.064s.389-.498.671-.661a3.51 3.51 0 0 1 .944-.368 9.35 9.35 0 0 1 1.064-.189l1.114-.129c.285-.036.492-.094.621-.174s.194-.209.194-.388v-.034c0-.435-.122-.771-.368-1.01s-.603-.358-1.084-.358c-.5 0-.894.111-1.183.333s-.482.463-.591.731l-1.397-.318c.165-.464.407-.838.725-1.124s.691-.497 1.109-.626a4.32 4.32 0 0 1 1.318-.199c.305 0 .628.037.969.11a2.83 2.83 0 0 1 .965.387c.301.189.548.459.74.811s.289.8.289 1.357v5.071h-1.452v-1.044h-.06c-.096.192-.24.381-.432.567s-.439.339-.741.462-.663.184-1.084.184zm.323-1.193c.411 0 .763-.081 1.054-.244s.519-.374.671-.636a1.65 1.65 0 0 0 .234-.85v-.985c-.053.053-.156.103-.308.15a4.79 4.79 0 0 1-.512.114l-.562.084-.457.06a3.67 3.67 0 0 0-.791.184c-.235.086-.424.21-.567.373s-.208.371-.208.636c0 .368.135.647.407.835s.618.279 1.039.279zm5.286 1.024v-7.636h1.486v7.636h-1.486zm.75-8.815c-.258 0-.48-.086-.666-.258s-.273-.385-.273-.627a.83.83 0 0 1 .273-.626c.186-.176.408-.263.666-.263a.92.92 0 0 1 .662.263c.185.172.278.381.278.626s-.093.451-.278.627a.93.93 0 0 1-.662.258zm4.082-1.367V401.5h-1.486v-10.182h1.486z" class="E"/><path d="M326.857 391.318h1.845v6.652c0 .729-.173 1.371-.517 1.924s-.822.986-1.442 1.298-1.344.462-2.173.462-1.558-.154-2.177-.462a3.49 3.49 0 0 1-1.442-1.298c-.341-.553-.512-1.195-.512-1.924v-6.652h1.844v6.498a2.28 2.28 0 0 0 .279 1.134 2.03 2.03 0 0 0 .795.78c.342.186.746.279 1.213.279s.872-.093 1.213-.279.61-.449.796-.78a2.29 2.29 0 0 0 .278-1.134v-6.498zm3.63 13.046v-10.5h1.77v1.262h.104c.093-.185.224-.382.393-.591s.398-.393.686-.542.656-.229 1.104-.229c.59 0 1.122.151 1.596.453s.855.74 1.133 1.327.423 1.299.423 2.148c0 .838-.138 1.551-.413 2.138s-.65 1.034-1.124 1.342-1.01.462-1.61.462c-.438 0-.801-.073-1.089-.219s-.52-.321-.696-.527-.307-.406-.403-.591h-.074v4.067h-1.8zm1.765-6.682c0 .494.069.926.209 1.297s.346.662.611.87.593.309.975.309c.397 0 .73-.106.999-.319s.47-.508.606-.879.209-.801.209-1.278-.068-.895-.204-1.263a1.9 1.9 0 0 0-.606-.865c-.269-.209-.603-.313-1.004-.313-.385 0-.711.101-.98.303s-.472.486-.611.85-.204.794-.204 1.288zm10.176 3.967c-.762 0-1.417-.167-1.964-.502s-.963-.797-1.258-1.387-.437-1.276-.437-2.048.149-1.46.447-2.054.719-1.06 1.263-1.392 1.193-.502 1.939-.502c.62 0 1.168.115 1.646.343s.863.545 1.148.96.447.891.487 1.442h-1.72c-.07-.368-.235-.675-.497-.92s-.605-.373-1.039-.373c-.368 0-.691.099-.97.298s-.495.477-.651.845-.229.809-.229 1.323c0 .52.077.968.229 1.342s.366.658.641.86.605.299.98.299c.265 0 .502-.05.711-.15a1.43 1.43 0 0 0 .532-.442c.142-.192.24-.426.293-.701h1.72c-.043.54-.202 1.019-.477 1.437s-.65.739-1.124.974-1.03.348-1.67.348zm7.94 0c-.746 0-1.392-.164-1.939-.492s-.971-.787-1.273-1.377-.447-1.28-.447-2.068.149-1.48.447-2.074.726-1.053 1.273-1.382 1.193-.492 1.939-.492 1.392.164 1.939.492.969.789 1.268 1.382.452 1.285.452 2.074-.151 1.478-.452 2.068-.721 1.049-1.268 1.377-1.193.492-1.939.492zm.01-1.442c.404 0 .742-.111 1.014-.333s.474-.527.607-.905a3.7 3.7 0 0 0 .203-1.262c0-.468-.067-.89-.203-1.268s-.335-.685-.607-.91-.61-.338-1.014-.338c-.414 0-.759.113-1.034.338a2.04 2.04 0 0 0-.612.91c-.132.378-.199.8-.199 1.268s.067.885.199 1.262a2.04 2.04 0 0 0 .612.905c.275.222.62.333 1.034.333zm5.037 1.293v-7.636h1.72v1.297h.089c.159-.437.423-.779.791-1.024s.807-.373 1.317-.373c.517 0 .953.126 1.308.378a1.97 1.97 0 0 1 .755 1.019h.08c.169-.424.454-.762.855-1.014s.883-.383 1.437-.383c.702 0 1.276.222 1.72.666s.666 1.092.666 1.944v5.126h-1.804v-4.847c0-.474-.126-.821-.378-1.039s-.56-.333-.925-.333c-.434 0-.774.135-1.019.407s-.363.618-.363 1.049v4.763h-1.765v-4.922c0-.394-.119-.709-.358-.944s-.544-.353-.925-.353a1.31 1.31 0 0 0-.706.198c-.212.13-.381.314-.507.552s-.189.511-.189.826v4.643h-1.799zm12.424 0v-7.636h1.8v7.636h-1.8zm.905-8.72a1.05 1.05 0 0 1-.736-.284c-.205-.192-.308-.422-.308-.691s.103-.502.308-.691a1.04 1.04 0 0 1 .736-.288 1.03 1.03 0 0 1 .736.288c.205.189.308.42.308.691s-.103.499-.308.691a1.04 1.04 0 0 1-.736.284zm4.405 4.246v4.474h-1.8v-7.636h1.721v1.297h.089a2.19 2.19 0 0 1 .84-1.019c.388-.252.867-.378 1.437-.378.527 0 .986.113 1.377.338s.7.552.915.98.326.946.323 1.556v4.862h-1.8v-4.584c0-.51-.132-.91-.397-1.198s-.625-.432-1.089-.432c-.315 0-.595.069-.84.208s-.433.333-.572.592-.204.572-.204.94zm9.913 7.497c-.647 0-1.202-.088-1.666-.264s-.837-.404-1.118-.696a2.4 2.4 0 0 1-.587-.969l1.621-.393c.073.149.179.297.318.442.139.15.326.272.562.368s.538.15.9.15c.51 0 .933-.125 1.267-.373s.502-.65.502-1.213v-1.447h-.089c-.093.185-.229.376-.408.572s-.409.359-.701.492-.651.199-1.089.199c-.586 0-1.118-.138-1.595-.413s-.852-.693-1.134-1.243-.418-1.246-.418-2.078c0-.839.14-1.546.418-2.123s.661-1.019 1.139-1.317a2.92 2.92 0 0 1 1.595-.453c.448 0 .816.076 1.104.229a2.12 2.12 0 0 1 .696.542 3.05 3.05 0 0 1 .393.591h.099v-1.262h1.775v7.76c0 .653-.156 1.193-.467 1.621s-.738.747-1.278.96-1.153.318-1.839.318zm.015-4.544c.381 0 .706-.093.974-.279a1.72 1.72 0 0 0 .612-.8c.139-.348.208-.766.208-1.253 0-.481-.069-.901-.208-1.263s-.339-.641-.607-.84-.592-.303-.979-.303c-.401 0-.736.104-1.005.313a1.9 1.9 0 0 0-.606.86 3.48 3.48 0 0 0-.204 1.233c0 .467.068.877.204 1.228s.343.62.611.815.605.289 1 .289zm8.606 4.385v-10.5h1.77v1.262h.105a3.29 3.29 0 0 1 .392-.591c.169-.212.398-.393.686-.542s.657-.229 1.104-.229c.59 0 1.122.151 1.596.453s.855.74 1.134 1.327.422 1.299.422 2.148c0 .838-.137 1.551-.413 2.138s-.649 1.034-1.123 1.342-1.011.462-1.611.462c-.437 0-.8-.073-1.089-.219s-.52-.321-.696-.527-.306-.406-.402-.591h-.075v4.067h-1.8zm1.765-6.682c0 .494.07.926.209 1.297s.346.662.612.87.593.309.974.309c.398 0 .731-.106.999-.319s.471-.508.607-.879a3.66 3.66 0 0 0 .209-1.278c0-.474-.068-.895-.204-1.263s-.338-.656-.607-.865-.603-.313-1.004-.313c-.385 0-.711.101-.979.303s-.473.486-.612.85-.204.794-.204 1.288zm8.645-6.364V401.5h-1.8v-10.182h1.8zm3.908 10.336c-.484 0-.92-.086-1.307-.258s-.69-.435-.915-.776-.333-.762-.333-1.263c0-.431.079-.787.238-1.069s.377-.507.652-.676.585-.296.929-.383a7.53 7.53 0 0 1 1.079-.193l1.089-.125c.278-.04.481-.099.606-.179a.42.42 0 0 0 .194-.383v-.029c0-.375-.111-.665-.333-.87s-.542-.309-.959-.309c-.441 0-.791.096-1.049.289s-.428.419-.517.681l-1.681-.239c.133-.464.352-.852.657-1.163s.677-.55 1.118-.706.928-.239 1.462-.239c.368 0 .734.043 1.099.129s.697.229.999.428a2.16 2.16 0 0 1 .726.8c.185.339.278.761.278 1.268v5.111h-1.73v-1.049h-.06c-.109.212-.263.411-.462.597s-.443.329-.741.442-.641.164-1.039.164zm.467-1.322c.362 0 .675-.072.94-.214s.469-.338.612-.577.218-.499.218-.78v-.9c-.056.046-.152.089-.288.129s-.282.075-.447.104l-.493.08-.422.06c-.269.036-.509.096-.721.179s-.38.199-.502.348-.184.334-.184.566c0 .332.121.582.363.751s.55.254.924.254zm7.034-3.306v4.474h-1.799v-7.636h1.72v1.297h.089c.176-.427.456-.767.841-1.019s.866-.378 1.436-.378c.527 0 .986.113 1.378.338s.699.552.914.98.327.946.323 1.556v4.862h-1.799v-4.584c0-.51-.133-.91-.398-1.198s-.625-.432-1.089-.432c-.315 0-.595.069-.84.208a1.45 1.45 0 0 0-.572.592c-.136.258-.204.572-.204.94zm7.701 4.583c-.302 0-.56-.106-.776-.318a1.03 1.03 0 0 1-.318-.775 1.02 1.02 0 0 1 .318-.766c.216-.212.474-.318.776-.318.291 0 .545.106.76.318a1.04 1.04 0 0 1 .333.766 1.05 1.05 0 0 1-.159.551 1.14 1.14 0 0 1-.397.398 1.04 1.04 0 0 1-.537.144z" class="D"/><path d="M244.224 367.565v-.883h4.642v.883h-1.798v4.935h-1.045v-4.935h-1.799zm6.44 2.378v2.557h-1.028v-5.818h1.006v2.196h.051c.102-.246.26-.441.474-.583s.491-.215.824-.215a1.59 1.59 0 0 1 .793.19 1.28 1.28 0 0 1 .522.557c.125.244.188.542.188.895v2.778h-1.029v-2.619c0-.294-.075-.522-.227-.685s-.36-.247-.63-.247a1 1 0 0 0-.489.119.84.84 0 0 0-.335.338c-.08.148-.12.327-.12.537zm5.73 2.642c-.438 0-.815-.091-1.134-.273s-.559-.443-.73-.778-.255-.734-.255-1.19c0-.449.085-.843.255-1.182a1.94 1.94 0 0 1 .722-.796c.309-.191.671-.286 1.088-.286a2.2 2.2 0 0 1 .761.13 1.72 1.72 0 0 1 .637.398c.185.18.331.409.437.687s.159.607.159.989v.315h-3.576v-.693h2.591c-.002-.197-.045-.372-.128-.525a.93.93 0 0 0-.35-.367.98.98 0 0 0-.517-.133c-.21 0-.395.051-.554.153s-.283.233-.372.398-.132.342-.133.537v.605c0 .254.046.471.139.653s.222.318.389.415.362.142.585.142a1.26 1.26 0 0 0 .406-.062c.122-.044.227-.107.316-.191s.156-.186.201-.309l.961.108c-.061.253-.176.475-.347.664s-.384.334-.648.438-.564.153-.903.153zm3.759-2.642v2.557h-1.029v-4.364h.983v.742h.051c.101-.244.261-.439.481-.583s.495-.215.821-.215c.301 0 .563.064.787.193s.399.315.522.559.187.541.185.89v2.778h-1.029v-2.619c0-.292-.075-.52-.227-.685s-.357-.247-.622-.247a.96.96 0 0 0-.48.119.84.84 0 0 0-.327.338c-.077.148-.116.327-.116.537z" class="E"/><path d="M243.906 379.244h199.376" class="B"/><rect x="188.781" y="364.5" width="40" height="40" rx="4" fill="#e6ebff"/><g clip-path="url(#C)"><path d="M211.226 393.667c0 1.35-4.889 1.35-4.889 0v-6.111c0-1.35 1.094-2.445 2.444-2.445s2.445 1.095 2.445 2.445v6.111z" fill="#c1694f"/><path d="M203.893 375.333a4.89 4.89 0 0 0-4.889 4.889v7.333h9.778v-7.333a4.89 4.89 0 0 0-4.889-4.889z" fill="#292f33"/><path d="M210.003 384.965c0 .756-.65 1.369-1.401 1.369h-9.419c-.752 0-1.402-.613-1.402-1.369v-6.43c0-.755.65-1.368 1.402-1.368h9.419c.751 0 1.401.613 1.401 1.368v6.43h0z" fill="#ccd6dd"/><path d="M210.003 378.535c0-.755-.65-1.368-1.401-1.368h-9.419c-.752 0-1.402.613-1.402 1.368v.867l2.982 2.997-2.921 2.937c.068.23.193.438.364.601l3.038-3.054 1.471 1.478c.643.648 1.692.648 2.335 0l1.483-1.486 3.046 3.062c.171-.164.295-.372.364-.601l-2.928-2.944 2.988-2.997v-.86z" fill="#99aab5"/><path d="M208.603 377.167h-9.42c-.713 0-1.327.554-1.389 1.256l5.138 5.131c.531.534 1.392.514 1.922-.021l5.14-5.1c-.058-.707-.676-1.266-1.391-1.266z" fill="#e1e8ed"/><path d="M213.67 375.333h-9.777a4.89 4.89 0 0 1 4.888 4.889v7.333h9.778v-7.333a4.89 4.89 0 0 0-4.889-4.889z" fill="#99aab5"/><path d="M213.671 374.111h-2.445c-.675 0-1.222.548-1.222 1.223v7.333a1.22 1.22 0 1 0 2.444 0v-4.889h1.223c.674 0 1.222-.548 1.222-1.222v-1.222c0-.675-.548-1.223-1.222-1.223z" fill="#dd2e44"/></g><rect x="402.281" y="368" width="41" height="4" rx="2" fill="#eef1f7"/><rect x="176.781" y="352.5" width="283" height="64" rx="7.5" class="B"/><g class="D"><rect x="315.283" y="281.969" width="6" height="6" rx="3"/><path d="M318.628 344.238a.4.4 0 0 1-.693 0l-2.771-4.8a.4.4 0 0 1 .346-.6h5.543a.4.4 0 0 1 .346.6l-2.771 4.8z"/></g><path d="M318.244 287.543v54.186" class="B"/><rect x="-1" y="1" width="419" height="345" rx="7" transform="matrix(-1 0 0 1 526.781 125.404)" stroke="#e1e8f2" stroke-width="2" stroke-dasharray="8 8"/><defs><clipPath id="A"><path transform="translate(131.781 149.309)" d="M0 0h22v22H0z" class="C"/></clipPath><clipPath id="B"><path transform="translate(198.781 231.5)" d="M0 0h20v20H0z" class="C"/></clipPath><clipPath id="C"><path transform="translate(197.781 373.5)" d="M0 0h22v22H0z" class="C"/></clipPath><path id="D" d="M355.621 511.63l10.182-13.818 13.818-10.182-13.818-10.182-10.182-13.818-10.182 13.818-13.818 10.182 13.818 10.182 10.182 13.818z"/></defs></svg>