<svg xmlns="http://www.w3.org/2000/svg" xmlns:xlink="http://www.w3.org/1999/xlink" width="608" height="560" fill="none" xmlns:v="https://vecta.io/nano"><style><![CDATA[.B{stroke-linecap:round}.C{fill:#fff}.D{fill:#121212}.E{stroke:#121212}.F{stroke-width:.123}.G{stroke-linejoin:round}.H{stroke-miterlimit:10}]]></style><g stroke="#97969c" stroke-dasharray="4 4"><path d="M559.504-31.556v78.64m0 544.473v-280.31m0-65.742V97.287M457.312-31.179l.001 402.046m0 220.515V395.539M355.621-31.368v164.793m0 457.954v-81.246m0-293.993v244.395M252.93-31.179v90.743m0 531.81V83.867M150.739-31.366l-.001 373.692m0 249.057V425.4M48.547-31.558V152.27m0 439.102V288.354m0-90.065v72.832"/><path d="M0 487.054h330.227m277.773 0H379.607M0 383.261h112.263m495.737 0H469.346m-278.878 0h254.206M0 175.675h25.672m582.328 0H396.708m-80.708 0H73.358M0 279.468h39.48m568.521 0h-15.322m-65.324 0H57.12M0 71.882h239.558m368.442 0h-25.121m-48.339 0H265.522"/><use xlink:href="#D"/><path d="M559.48 95.8l10.183-13.818L583.48 71.8l-13.817-10.182L559.48 47.8l-10.182 13.818L535.48 71.8l13.818 10.182L559.48 95.8z"/><use xlink:href="#D" x="-307.019" y="-311.504"/><path d="M559.469 311.384l13.576-18.424 18.424-13.576-18.424-13.577-13.576-18.423-13.577 18.423-18.423 13.577 18.423 13.576 13.577 18.424zM150.754 423.29l16.97-23.029 23.03-16.971-23.03-16.971-16.97-23.029-16.971 23.029-23.029 16.971 23.029 16.971 16.971 23.029zm204.867-207.609l16.971-23.03 23.029-16.97-23.029-16.971-16.971-23.029-16.97 23.029-23.03 16.971 23.03 16.97 16.97 23.03z"/><circle r="12" transform="matrix(1 0 0 -1 457.246 383.261)"/><circle r="8" transform="matrix(1 0 0 -1 48.5469 279.468)"/><circle r="12" transform="matrix(1 0 0 -1 252.598 71.8818)"/></g><g transform="matrix(-1 0 0 1 543.328 73.4058)"><rect x="-2" y="2" width="441.955" height="422.315" rx="6" class="D"/><rect x="-2" y="2" width="441.955" height="422.315" rx="6" stroke-width="4" class="E"/></g><g transform="matrix(-1 0 0 1 525.039 60.4863)"><rect x="-2" y="2" width="441.12" height="419.085" rx="6" fill="#f5f6f8"/><rect x="-2" y="2" width="441.12" height="419.085" rx="6" stroke-width="4" class="E"/></g><rect x="96" y="73.404" width="422" height="38" rx="4" class="C"/><rect x="113" y="87.404" width="10" height="10" rx="5" fill="#eb5757"/><rect x="131" y="87.404" width="10" height="10" rx="5" fill="#f2c94c"/><rect x="149" y="87.404" width="10" height="10" rx="5" fill="#27ae60"/><g fill="#e7edf5"><path d="M492.438 86.404a1 1 0 1 0-2 0h2zm-2 12a1 1 0 1 0 2 0h-2zm0-12v12h2v-12h-2z"/><path d="M497.437 93.404a1 1 0 1 0 .001-2l-.001 2zm-11.999-2a1 1 0 1 0-.001 2l.001-2zm12 0h-12l-.001 2h12l.001-2z"/></g><rect x="-1" y="1" width="419" height="345" rx="7" transform="matrix(-1 0 0 1 514.979 124)" fill="#f5f6f8"/><path d="M150.025 228.596v-12.06h-2.7v12.06h2.7zm4.933 0v-5.13c0-1.368.558-1.782 1.854-1.782 1.368 0 1.782.45 1.782 1.71v5.202h2.7v-5.742c0-1.926-1.008-3.492-3.366-3.492-1.584 0-2.556.738-3.042 1.764h-.108v-1.584h-2.502v9.054h2.682zm12.564.036a9.52 9.52 0 0 0 1.764-.18v-2.25h-1.116c-1.17 0-1.44-.09-1.44-.882v-3.546h2.556v-2.232h-2.556v-2.106h-2.125l-.503 2.106h-1.513v2.232h1.441v3.852c0 2.142 1.133 3.006 3.492 3.006zm7.519.144c2.592 0 4.248-1.134 4.248-3.06v-.18h-2.664v.108c0 .558-.468.792-1.548.792-1.476 0-1.98-.504-2.034-1.764h6.21a8.16 8.16 0 0 0 .126-1.332c0-2.358-1.602-3.978-4.32-3.978-2.826 0-4.554 1.836-4.554 4.734 0 2.862 1.422 4.68 4.536 4.68zm-.072-7.2c1.26 0 1.872.522 1.818 1.458h-3.726c.108-.954.612-1.458 1.908-1.458zm9.859 6.066c1.368 0 2.322-.612 2.718-1.314h.108v1.404c0 1.404-.288 1.728-1.71 1.728-1.548 0-1.818-.234-1.818-1.17h-2.682c0 2.304 1.584 3.546 4.41 3.546 2.916 0 4.482-1.296 4.482-4.248v-8.046h-2.502v1.314h-.09c-.486-.99-1.512-1.494-2.808-1.494-2.574 0-3.942 1.638-3.942 4.158s1.332 4.122 3.834 4.122zm-1.152-4.122c0-1.278.45-1.872 1.998-1.872 1.296 0 1.98.45 1.98 1.602v.54c0 1.152-.702 1.602-1.998 1.602-1.53 0-1.98-.594-1.98-1.872zm11.534 5.076v-5.67c0-.99.396-1.278 1.224-1.278.846 0 1.152.306 1.152 1.278v.486h2.682v-.828c0-1.818-.702-3.222-2.592-3.222-1.278 0-2.088.72-2.538 1.638h-.108v-1.458h-2.502v9.054h2.682zm8.956.18c1.674 0 2.592-.738 3.078-1.404h.108v1.224h2.502v-5.364c0-2.412-1.404-3.87-4.068-3.87-2.556 0-4.23 1.422-4.23 3.582v.198h2.574v-.198c0-.918.432-1.224 1.53-1.224 1.062 0 1.638.198 1.638 1.26v.288l-3.096.468c-1.872.288-2.88 1.152-2.88 2.556 0 1.638 1.242 2.484 2.844 2.484zm-.27-2.7c0-.378.252-.558.81-.648l2.592-.396c0 1.404-1.134 1.692-2.232 1.692-.792 0-1.17-.162-1.17-.648zm12.204 2.556a9.52 9.52 0 0 0 1.764-.18v-2.25h-1.116c-1.17 0-1.44-.09-1.44-.882v-3.546h2.556v-2.232h-2.556v-2.106h-2.124l-.504 2.106h-1.512v2.232h1.44v3.852c0 2.142 1.134 3.006 3.492 3.006zm6.057-10.116v-1.98h-2.682l.036 1.98h2.646zm.054 10.08v-9.054h-2.7v9.054h2.7zm6.258.18c2.898 0 4.59-1.836 4.59-4.698 0-2.88-1.692-4.716-4.59-4.716-2.916 0-4.644 1.836-4.644 4.716 0 2.862 1.728 4.698 4.644 4.698zm0-2.376c-1.476 0-1.98-.576-1.98-2.322 0-1.764.504-2.34 1.98-2.34 1.458 0 1.962.576 1.962 2.34 0 1.746-.504 2.322-1.962 2.322zm9.045 2.196v-5.13c0-1.368.558-1.782 1.854-1.782 1.368 0 1.782.45 1.782 1.71v5.202h2.7v-5.742c0-1.926-1.008-3.492-3.366-3.492-1.584 0-2.556.738-3.042 1.764h-.108v-1.584h-2.502v9.054h2.682zm12.4.18c2.502 0 3.888-1.08 3.888-2.772 0-1.476-.792-2.34-2.7-2.7l-1.656-.342c-1.08-.216-1.242-.342-1.242-.774s.252-.666 1.332-.666c1.152 0 1.404.324 1.404.918v.252h2.574v-.252c0-2.034-1.692-3.078-3.906-3.078-2.574 0-3.942 1.188-3.942 2.862s.972 2.43 2.754 2.754l1.368.252c1.206.216 1.458.324 1.458.81 0 .45-.18.612-1.278.612-1.314 0-1.71-.144-1.71-.81v-.378h-2.574v.054c0 2.196 1.386 3.258 4.23 3.258z" fill="#000"/><g clip-path="url(#A)"><path d="M127.725 221.535c.237.238.237.626 0 .864a.61.61 0 0 1-.864 0l-5.186-5.186c-.237-.238-.237-.626 0-.864a.61.61 0 0 1 .864 0l5.186 5.186zm4.322-4.321c.237.238.237.626 0 .864s-.627.238-.865 0l-5.186-5.186a.61.61 0 1 1 .864-.864l5.187 5.186z" fill="#9aaab4"/><path d="M141.256 233.596c0-3.035-1.564-5.244-2.788-6.509a2.44 2.44 0 0 0-.373-2.96l-.671-.672c.215-.814.013-1.714-.625-2.353l-3.024-3.025c.477-.477.477-1.251 0-1.728s-1.252-.478-1.729-.001l-1.727 1.727-.002.001-2.592 2.593-1.728 1.729a1.22 1.22 0 0 0 0 1.728c.477.477 1.251.477 1.728 0l3.025 3.025c.638.638 1.539.839 2.353.624l.672.673a2.44 2.44 0 0 0 2.969.367c.906.946 2.068 2.583 2.068 4.781h2.444z" fill="#31373d"/></g><rect x="119.979" y="251.596" width="372" height="189" rx="8" class="C"/><path d="M295.371 332.596v-3.24h-8.664v-3.24h8.304V322.9h-8.304v-3.144h8.664v-3.24h-12.264v16.08h12.264zm6.304 0v-6.84c0-1.824.744-2.376 2.472-2.376 1.824 0 2.376.6 2.376 2.28v6.936h3.6v-7.656c0-2.568-1.344-4.656-4.488-4.656-2.112 0-3.408.984-4.056 2.352h-.144v-2.112h-3.336v12.072h3.576zm15.887-1.272c1.824 0 3.096-.816 3.624-1.752h.144v1.872c0 1.872-.384 2.304-2.28 2.304-2.064 0-2.424-.312-2.424-1.56h-3.576c0 3.072 2.112 4.728 5.88 4.728 3.888 0 5.976-1.728 5.976-5.664v-10.728h-3.336v1.752h-.12c-.648-1.32-2.016-1.992-3.744-1.992-3.432 0-5.256 2.184-5.256 5.544s1.776 5.496 5.112 5.496zm-1.536-5.496c0-1.704.6-2.496 2.664-2.496 1.728 0 2.64.6 2.64 2.136v.72c0 1.536-.936 2.136-2.664 2.136-2.04 0-2.64-.792-2.64-2.496zm15.138 7.008c2.232 0 3.456-.984 4.104-1.872h.144v1.632h3.336v-7.152c0-3.216-1.872-5.16-5.424-5.16-3.408 0-5.64 1.896-5.64 4.776v.264h3.432v-.264c0-1.224.576-1.632 2.04-1.632 1.416 0 2.184.264 2.184 1.68v.384l-4.128.624c-2.496.384-3.84 1.536-3.84 3.408 0 2.184 1.656 3.312 3.792 3.312zm-.36-3.6c0-.504.336-.744 1.08-.864l3.456-.528c0 1.872-1.512 2.256-2.976 2.256-1.056 0-1.56-.216-1.56-.864zm15.409 2.088c1.824 0 3.096-.816 3.624-1.752h.144v1.872c0 1.872-.384 2.304-2.28 2.304-2.064 0-2.424-.312-2.424-1.56h-3.576c0 3.072 2.112 4.728 5.88 4.728 3.888 0 5.976-1.728 5.976-5.664v-10.728h-3.336v1.752h-.12c-.648-1.32-2.016-1.992-3.744-1.992-3.432 0-5.256 2.184-5.256 5.544s1.776 5.496 5.112 5.496zm-1.536-5.496c0-1.704.6-2.496 2.664-2.496 1.728 0 2.64.6 2.64 2.136v.72c0 1.536-.936 2.136-2.664 2.136-2.04 0-2.64-.792-2.64-2.496zm17.278 7.008c3.456 0 5.664-1.512 5.664-4.08v-.24h-3.552v.144c0 .744-.624 1.056-2.064 1.056-1.968 0-2.64-.672-2.712-2.352h8.28a10.88 10.88 0 0 0 .168-1.776c0-3.144-2.136-5.304-5.76-5.304-3.768 0-6.072 2.448-6.072 6.312 0 3.816 1.896 6.24 6.048 6.24zm-.096-9.6c1.68 0 2.496.696 2.424 1.944h-4.968c.144-1.272.816-1.944 2.544-1.944z" fill="#000"/><rect width="72" height="31" rx="4" transform="matrix(-1 0 0 1 353.979 351.596)" fill="#8199fd"/><path d="M298.167 370.716c2.16 0 3.468-1.2 3.468-3.132v-.072h-1.38v.072c0 1.32-.612 1.884-2.124 1.884-1.668 0-2.34-.804-2.34-2.892s.672-2.892 2.34-2.892c1.512 0 2.124.564 2.124 1.884v.072h1.38v-.072c0-1.932-1.308-3.132-3.468-3.132-2.34 0-3.756 1.632-3.756 4.14s1.416 4.14 3.756 4.14zm7.629 0c1.824 0 2.928-1.248 2.928-3.108 0-1.848-1.104-3.096-2.928-3.096-1.836 0-2.976 1.248-2.976 3.096 0 1.86 1.14 3.108 2.976 3.108zm0-1.152c-1.26 0-1.704-.612-1.704-1.956 0-1.332.444-1.944 1.704-1.944 1.248 0 1.68.612 1.68 1.944 0 1.344-.432 1.956-1.68 1.956zm5.553 1.032v-3.444c0-1.116.48-1.524 1.536-1.524 1.092 0 1.428.444 1.428 1.512v3.456h1.296v-3.744c0-1.356-.696-2.34-2.244-2.34-1.164 0-1.8.6-2.076 1.236h-.048v-1.116h-1.188v5.964h1.296zm7.157 0v-3.444c0-1.116.48-1.524 1.536-1.524 1.092 0 1.428.444 1.428 1.512v3.456h1.296v-3.744c0-1.356-.696-2.34-2.244-2.34-1.164 0-1.8.6-2.076 1.236h-.048v-1.116h-1.188v5.964h1.296zm8.49.12c1.608 0 2.676-.792 2.676-2.016v-.108h-1.284v.096c0 .54-.384.876-1.38.876-1.248 0-1.644-.552-1.692-1.644h4.332c.036-.18.072-.504.072-.816 0-1.632-1.128-2.592-2.736-2.592-1.776 0-2.88 1.248-2.88 3.096 0 1.86.924 3.108 2.892 3.108zm-.036-5.112c1.02 0 1.572.432 1.524 1.452h-3.156c.072-.924.504-1.452 1.632-1.452zm6.888 5.124c1.608 0 2.7-.984 2.7-2.4v-.108h-1.284v.072c0 .876-.456 1.26-1.452 1.26-1.152 0-1.596-.636-1.596-1.932s.444-1.944 1.596-1.944c.996 0 1.452.396 1.452 1.272v.072h1.284v-.108c0-1.428-1.08-2.4-2.652-2.4-1.872 0-2.964 1.248-2.964 3.108 0 1.848 1.056 3.108 2.916 3.108zm6.473-.132c.408 0 .816-.048 1.068-.108v-1.056h-.732c-.804 0-1.068-.108-1.068-.732v-2.988h1.8v-1.08h-1.8v-1.476h-.996l-.276 1.476h-1.02v1.08h.996v3.048c0 1.344.696 1.836 2.028 1.836z" class="C"/><rect x="157.979" y="296.096" width="100" height="100" rx="50" fill="#f2f5ff"/><path d="M231.051 343.674l.018-.823-.054-1.44c-.822-10.793-10.824-19.315-23.039-19.315-12.749 0-23.087 9.293-23.087 20.758 0 8.803 6.094 16.325 14.694 19.346 2.534.889 3.922 3.612 3.163 6.188l-.503 1.708c5.983-3.209 12.363-6.103 17.993-9.902 4.733-3.19 9.273-7.902 10.469-13.665h-21.208c-1.611 3.555-5.491 6.058-10.025 6.058-4.778 0-8.836-2.783-10.27-6.645-.268-.717-.445-1.476-.521-2.265v-.003h42.37zm-31.579-10.556c5.205 0 9.555 3.305 10.592 7.709h-21.187c1.039-4.404 5.383-7.709 10.595-7.709z" fill="#00cc74"/><rect x="415.979" y="279.596" width="48" height="8" rx="4" fill="#eef1f7"/><rect x="-.5" y=".5" width="60" height="39" rx="3.5" transform="matrix(-1 0 0 1 490.979 146.596)" class="C"/><path d="M476.978 169.595l-4.243-4.243 1.415-1.414 2.828 2.829 2.828-2.829 1.415 1.414-4.243 4.243z" fill="#b7c9e3"/><g clip-path="url(#B)"><rect x="440.979" y="154.596" width="24" height="24" rx="12" fill="#eaeeff"/><g fill="#bd6446"><path d="M449.027 161.65v2.592c-.555 0-1.008-.583-1.008-1.296s.453-1.296 1.008-1.296zm10.201 1.296v.056.028.037.037.037c0 .009 0 .027-.01.037 0 .009 0 .027-.009.037 0 .009 0 .028-.009.037 0 .037-.009.046-.009.065s-.01.027-.01.046-.009.028-.009.046c0 .009-.009.028-.009.037 0 .019-.009.028-.009.037-.01.028-.019.056-.037.083-.01.01-.01.028-.019.038-.046.111-.111.203-.185.296l-.028.027-.046.047-.065.065c-.009.009-.018.009-.018.018-.019.009-.028.028-.047.037l-.009.009c-.009.01-.028.019-.037.028s-.018.009-.037.019c-.009.009-.018.009-.037.018l-.139.056c-.009 0-.018.009-.028.009-.018 0-.037.009-.046.009s-.028.009-.037.009h-.065-.027-.028l.009-1.555v-1.027h.028.028.027.028c.037.009.065.009.102.018.009 0 .009 0 .018.01.01 0 .019.009.019.009.009 0 .009 0 .018.009.01 0 .01.009.019.009.018.01.037.019.046.019.019.009.028.019.047.019.018.009.027.018.046.027l.046.028c.028.019.056.046.083.065.01.009.028.028.037.037a.37.37 0 0 1 .028.028l.028.027c.018.019.028.028.037.047l.083.12c.01.009.019.019.019.037a1.36 1.36 0 0 1 .166.435c0 .019.01.037.01.065 0 .009 0 .018.009.037 0 .009 0 .028.009.037 0 .018.009.046.009.065s0 .037.01.055v.056z"/></g><path d="M457.257 171.471a3.62 3.62 0 0 1-3.619 3.592 3.62 3.62 0 0 1-3.619-3.592 1.29 1.29 0 0 0 .907-.379c.148-.148.259-.334.324-.537a1.26 1.26 0 0 0 .055-.38v-2.777h4.665v2.777c0 .722.574 1.296 1.287 1.296z" fill="#c67250"/><path d="M455.969 167.417v1.629c-.842 1.009-2.138 1.657-3.591 1.657-.389 0-.778-.046-1.139-.139.037-.12.056-.241.056-.379v-2.777h4.674v.009z" fill="#a15235"/><path d="M457.46 159.179c.416.889.787 1.166.787 2.221v.25 1.028l-.01 1.555-.009.685c0 1.62-.907 3.045-2.258 3.813a4.67 4.67 0 0 1-.695.324c-.453.167-.925.26-1.425.287l-.222.01a4.63 4.63 0 0 1-1.768-.343c-.195-.074-.38-.167-.556-.268-1.36-.769-2.277-2.194-2.277-3.823v-.685-2.592-.241c0-1.212.435-1.638.889-2.471.74-1.361 2.166-2.203 3.712-2.203l1.194.176c.046.018.092.028.139.046.333.111.648.259.934.445.019.009.047.027.065.037l.121.083c.037.028.083.055.12.092.157.121.305.25.444.398l.056.056.102.111c.101.111.194.231.277.352l.13.185.25.472z" fill="#c67250"/><path d="M458.238 161.4v.25.306c-.13-.352-.407-1.12-.63-1.49-.157-.278-.175-.722-.259-1.111a.86.86 0 0 0-.833-.685h-5.785c-.407 0-.759.287-.833.685-.083.389-.093.833-.259 1.111-.204.351-.472 1.055-.602 1.425v-.5c0-1.212.435-1.638.889-2.471.74-1.361 2.166-2.203 3.711-2.203.824 0 1.611.24 2.277.666a4.26 4.26 0 0 1 1.565 1.787c.398.898.759 1.175.759 2.23z" fill="#77403a"/><g stroke="#fdbfd9" class="B F G H"><path d="M449.028 162.706s-.435-.519-.722-.074m9.923.074s.314-.546.749-.13"/></g><g class="D"><use xlink:href="#E"/><use xlink:href="#F"/></g><use xlink:href="#G" fill="#333"/><g stroke="#333" class="B F G H"><path d="M449.657 172.758s.25.074.574-.074m4.85 2.092s.241.315.167.5m1.453-1.861s.037.176.398.25m1.028-1.249s-.287-.149-.537-.074m-6.387 2.943s.361-.176.472-.5"/></g><use xlink:href="#H" class="D"/><path d="M451.019 161.753s.592-.445 1.184 0" class="B E F G"/><use xlink:href="#I" class="D"/><g class="E F G"><path d="M456.248 161.753s-.592-.445-1.185 0" class="B"/><path d="M458.238 161.65v1.028l-.009 1.555-.01.685c0 2.443-2.055 4.434-4.6 4.434-2.536 0-4.6-1.981-4.6-4.434V161.4c0-1.212.435-1.638.888-2.471.741-1.361 2.166-2.203 3.712-2.203a4.22 4.22 0 0 1 3.832 2.444c.417.888.787 1.166.787 2.221v.259z"/><g class="B"><path d="M449.027 164.242c-.555 0-1.008-.583-1.008-1.296s.453-1.296 1.008-1.296m.001 1.056s-.435-.519-.722-.074m9.923 1.61c.555 0 1.008-.583 1.008-1.296s-.453-1.296-1.008-1.296m0 1.056s.314-.546.749-.13m-5.35-1.259l.25 1.62c.074.222.018.472-.139.648l-.38.398m-.888 1.361s1.545.925 2.314-.805"/></g><use xlink:href="#E"/><path d="M455.97 168.741v1.453c0 .713.574 1.287 1.287 1.287a3.62 3.62 0 0 1-3.619 3.591 3.62 3.62 0 0 1-3.619-3.591c.712 0 1.286-.574 1.286-1.287v-1.444" class="B"/><use xlink:href="#F"/><use xlink:href="#G"/><g class="B"><path d="M449.657 172.758s.25.074.574-.074m4.85 2.092s.241.315.167.5m1.453-1.861s.037.176.398.25m1.028-1.249s-.287-.149-.537-.074m-6.387 2.943s.361-.176.472-.5"/></g><use xlink:href="#H"/><path d="M451.019 161.753s.592-.445 1.184 0" class="B"/><path d="M454.757 160.771c-.009.074.37.185.852.241.361.046.777.028 1.083.25-.167-.444-.639-.481-1.056-.528-.472-.055-.87-.046-.879.037z"/><path d="M456.247 161.753s-.592-.445-1.185 0" class="B"/></g><path opacity=".13" d="M451.036 164.242a.51.51 0 0 0 .51-.509.51.51 0 0 0-.51-.509.51.51 0 0 0-.509.509.51.51 0 0 0 .509.509z" class="C"/></g><rect x="-.5" y=".5" width="60" height="39" rx="3.5" transform="matrix(-1 0 0 1 490.979 146.596)" stroke="#dfe7f2"/><rect x="-1" y="1" width="419" height="345" rx="7" transform="matrix(-1 0 0 1 514.979 124)" stroke="#e1e8f2" stroke-width="2" stroke-dasharray="8 8"/><g clip-path="url(#C)"><path d="M127.568 164.033c0-.699.578-.969 1.535-.969 1.372 0 3.105.413 4.478 1.149v-4.217c-1.499-.592-2.98-.825-4.478-.825-3.666 0-6.103 1.902-6.103 5.078 0 4.952 6.861 4.162 6.861 6.298 0 .825-.722 1.094-1.733 1.094-1.499 0-3.413-.61-4.929-1.435v4.27c1.679.718 3.376 1.023 4.929 1.023 3.755 0 6.337-1.848 6.337-5.06-.018-5.347-6.897-4.396-6.897-6.406zm12.206-8.451l-4.406.933-.018 14.372c0 2.656 2.004 4.612 4.676 4.612 1.481 0 2.564-.27 3.16-.593v-3.642c-.578.233-3.43 1.059-3.43-1.597v-6.369h3.43v-3.822h-3.43l.018-3.894zm9.027 5.222l-.288-1.328h-3.9v15.7h4.513v-10.64c1.066-1.382 2.871-1.131 3.431-.933v-4.127c-.578-.215-2.69-.61-3.756 1.328zm4.857-1.328h4.532v15.7h-4.532v-15.7zm0-1.364l4.532-.969v-3.642l-4.532.951v3.66h0zm13.957 1.059c-1.769 0-2.907.825-3.539 1.399l-.234-1.112h-3.973v20.921l4.514-.951.018-5.078c.65.467 1.607 1.131 3.196 1.131 3.232 0 6.175-2.584 6.175-8.272-.018-5.203-2.997-8.038-6.157-8.038zm-1.083 12.362c-1.065 0-1.697-.376-2.131-.843l-.018-6.657c.47-.52 1.12-.879 2.149-.879 1.643 0 2.78 1.83 2.78 4.181 0 2.404-1.119 4.198-2.78 4.198zM188 167.389c0-4.594-2.239-8.218-6.518-8.218-4.297 0-6.897 3.624-6.897 8.182 0 5.4 3.069 8.128 7.475 8.128 2.148 0 3.773-.485 5.001-1.167v-3.588c-1.228.61-2.636.987-4.423.987-1.752 0-3.305-.61-3.503-2.728h8.829c0-.233.036-1.166.036-1.596zm-8.919-1.705c0-2.027 1.245-2.871 2.383-2.871 1.101 0 2.275.844 2.275 2.871h-4.658z" fill="#6772e5"/></g><defs><clipPath id="A"><path transform="translate(120.479 211.596)" d="M0 0h22v22H0z" class="C"/></clipPath><clipPath id="B"><rect x="440.979" y="154.596" width="24" height="24" rx="12" class="C"/></clipPath><clipPath id="C"><path transform="translate(123 153.5)" d="M0 0h65v27H0z" class="C"/></clipPath><path id="D" d="M355.621 511.034l10.182-13.817 13.818-10.183-13.818-10.182-10.182-13.818-10.182 13.818-13.818 10.182 13.818 10.183 10.182 13.817z"/><path id="E" d="M451.851 169.018c.212.102.361.232.536.324.195.112.361.297.565.343.213.046.444-.074.648-.083.222-.019.463.064.657.009.222-.065.389-.259.565-.343l.611-.277c-.01 0-1.861.824-3.582.027z"/><path id="F" d="M440.429 181.737l2.166-7.47a2.17 2.17 0 0 1 1.564-1.5l4.86-1.203a4.62 4.62 0 0 0 4.618 4.397c2.481 0 4.508-1.953 4.619-4.397l4.869 1.203c.75.185 1.351.759 1.564 1.509l2.148 7.461h-26.408z"/><path id="G" d="M458.256 171.564a4.62 4.62 0 0 1-4.619 4.396c-2.48 0-4.498-1.953-4.618-4.396l.999-.093a3.62 3.62 0 0 0 7.239 0l.999.093z"/><path id="H" d="M452.509 160.771c.009.074-.37.185-.852.241-.361.046-.777.028-1.083.25.167-.444.639-.481 1.055-.528.472-.055.871-.046.88.037z"/><path id="I" d="M454.758 160.771c-.009.074.37.185.852.241.361.046.777.028 1.083.25-.167-.444-.639-.481-1.056-.528-.472-.055-.87-.046-.879.037z"/></defs></svg>