<svg width="608" height="561" viewBox="0 0 608 561" fill="none" xmlns="http://www.w3.org/2000/svg">
<path d="M559.504 -31.3209L559.504 47.3187M559.504 591.792L559.504 311.482M559.504 245.74L559.504 97.5217" stroke="#97969C" stroke-dasharray="4 4"/>
<path d="M457.312 -30.944L457.313 371.101M457.313 591.617L457.313 395.774" stroke="#97969C" stroke-dasharray="4 4"/>
<path d="M355.621 -31.1334L355.621 133.66M355.621 591.614L355.621 510.368M355.621 216.375L355.621 460.769" stroke="#97969C" stroke-dasharray="4 4"/>
<path d="M252.93 -30.944L252.93 59.7994M252.93 591.61L252.93 84.1019" stroke="#97969C" stroke-dasharray="4 4"/>
<path d="M150.739 -31.1315L150.738 342.561M150.738 591.618L150.738 425.634" stroke="#97969C" stroke-dasharray="4 4"/>
<path d="M48.547 -31.3229L48.5469 152.505M48.5469 591.607L48.5469 288.589M48.5469 198.524L48.5469 271.355" stroke="#97969C" stroke-dasharray="4 4"/>
<path d="M0 487.288L330.227 487.288M608 487.288L379.607 487.288" stroke="#97969C" stroke-dasharray="4 4"/>
<path d="M0 383.495H112.263M608 383.495L469.346 383.495M190.468 383.495H444.674" stroke="#97969C" stroke-dasharray="4 4"/>
<path d="M0 175.91H25.6723M608 175.91L396.708 175.91M316 175.91L73.3582 175.91" stroke="#97969C" stroke-dasharray="4 4"/>
<path d="M0 279.703H39.4795M608 279.703H592.678M527.354 279.703L57.1204 279.703" stroke="#97969C" stroke-dasharray="4 4"/>
<path d="M0 72.1166L239.558 72.1166M608 72.1166H582.879M534.54 72.1166L265.522 72.1166" stroke="#97969C" stroke-dasharray="4 4"/>
<path d="M355.621 511.269L365.803 497.451L379.621 487.269L365.803 477.087L355.621 463.269L345.439 477.087L331.621 487.269L345.439 497.451L355.621 511.269Z" stroke="#97969C" stroke-dasharray="4 4"/>
<path d="M559.48 96.0345L569.663 82.2169L583.48 72.0345L569.663 61.8522L559.48 48.0345L549.298 61.8522L535.48 72.0345L549.298 82.2169L559.48 96.0345Z" stroke="#97969C" stroke-dasharray="4 4"/>
<path d="M48.6016 199.765L58.7839 185.947L72.6016 175.765L58.7839 165.583L48.6016 151.765L38.4192 165.583L24.6016 175.765L38.4192 185.947L48.6016 199.765Z" stroke="#97969C" stroke-dasharray="4 4"/>
<path d="M559.469 311.619L573.045 293.195L591.469 279.619L573.045 266.042L559.469 247.619L545.892 266.042L527.469 279.619L545.892 293.195L559.469 311.619Z" stroke="#97969C" stroke-dasharray="4 4"/>
<path d="M150.754 423.525L167.724 400.495L190.754 383.525L167.724 366.554L150.754 343.525L133.783 366.554L110.754 383.525L133.783 400.495L150.754 423.525Z" stroke="#97969C" stroke-dasharray="4 4"/>
<path d="M355.621 215.915L372.592 192.886L395.621 175.915L372.592 158.945L355.621 135.915L338.651 158.945L315.621 175.915L338.651 192.886L355.621 215.915Z" stroke="#97969C" stroke-dasharray="4 4"/>
<circle r="12" transform="matrix(1 0 0 -1 457.246 383.495)" stroke="#97969C" stroke-dasharray="4 4"/>
<circle r="8" transform="matrix(1 0 0 -1 48.5469 279.703)" stroke="#97969C" stroke-dasharray="4 4"/>
<circle r="12" transform="matrix(1 0 0 -1 252.598 72.1166)" stroke="#97969C" stroke-dasharray="4 4"/>
<rect x="-2" y="2" width="442" height="102.971" rx="6" transform="matrix(-1 0 0 1 543 68.9385)" fill="#121212"/>
<rect x="-2" y="2" width="442" height="102.971" rx="6" transform="matrix(-1 0 0 1 543 68.9385)" stroke="#121212" stroke-width="4"/>
<rect x="-2" y="2" width="447" height="99.2824" rx="6" transform="matrix(-1 0 0 1 531 60.639)" fill="#F5F6F8"/>
<rect x="-1" y="1" width="421" height="75" rx="7" transform="matrix(-1 0 0 1 519 73.639)" fill="#F5F6F8"/>
<rect x="123.5" y="93.139" width="372" height="47" rx="3.5" fill="white"/>
<rect x="142.389" y="110.139" width="13" height="13" rx="1.5" stroke="#DFE7F2"/>
<rect x="358.889" y="112.639" width="105" height="8" rx="4" fill="#EEF1F7"/>
<path d="M191.112 122.139L188.288 111.957H189.904L191.888 119.842H191.982L194.045 111.957H195.646L197.71 119.847H197.804L199.783 111.957H201.403L198.575 122.139H197.028L194.886 114.513H194.806L192.663 122.139H191.112ZM205.084 122.293C204.332 122.293 203.684 122.132 203.14 121.811C202.6 121.486 202.182 121.03 201.887 120.444C201.596 119.854 201.45 119.163 201.45 118.371C201.45 117.588 201.596 116.899 201.887 116.302C202.182 115.706 202.593 115.24 203.12 114.905C203.651 114.571 204.27 114.403 204.98 114.403C205.411 114.403 205.828 114.475 206.233 114.617C206.637 114.76 207 114.983 207.321 115.288C207.643 115.593 207.896 115.989 208.082 116.476C208.268 116.96 208.36 117.549 208.36 118.241V118.768H202.29V117.655H206.904C206.904 117.264 206.824 116.917 206.665 116.616C206.506 116.311 206.282 116.07 205.994 115.895C205.709 115.719 205.374 115.631 204.99 115.631C204.572 115.631 204.207 115.734 203.896 115.939C203.588 116.142 203.349 116.407 203.18 116.735C203.014 117.06 202.931 117.413 202.931 117.794V118.664C202.931 119.174 203.021 119.608 203.2 119.966C203.382 120.324 203.636 120.598 203.96 120.787C204.285 120.972 204.665 121.065 205.099 121.065C205.381 121.065 205.638 121.025 205.87 120.946C206.102 120.863 206.302 120.74 206.471 120.578C206.64 120.416 206.769 120.215 206.859 119.976L208.266 120.23C208.153 120.644 207.951 121.007 207.659 121.319C207.371 121.627 207.008 121.867 206.571 122.04C206.136 122.209 205.641 122.293 205.084 122.293ZM209.989 122.139V111.957H211.476V115.741H211.565C211.651 115.582 211.775 115.398 211.938 115.189C212.1 114.98 212.326 114.798 212.614 114.642C212.902 114.483 213.284 114.403 213.757 114.403C214.374 114.403 214.924 114.559 215.408 114.871C215.892 115.182 216.271 115.631 216.547 116.218C216.825 116.805 216.964 117.51 216.964 118.336C216.964 119.161 216.827 119.869 216.551 120.459C216.276 121.045 215.899 121.498 215.418 121.816C214.937 122.131 214.389 122.288 213.772 122.288C213.308 122.288 212.929 122.21 212.634 122.055C212.342 121.899 212.114 121.716 211.948 121.508C211.782 121.299 211.654 121.113 211.565 120.951H211.441V122.139H209.989ZM211.446 118.321C211.446 118.858 211.524 119.328 211.679 119.733C211.835 120.137 212.06 120.454 212.355 120.682C212.65 120.908 213.012 121.02 213.439 121.02C213.883 121.02 214.255 120.903 214.553 120.667C214.851 120.429 215.077 120.106 215.229 119.698C215.385 119.29 215.463 118.831 215.463 118.321C215.463 117.817 215.386 117.365 215.234 116.964C215.085 116.563 214.859 116.246 214.558 116.014C214.26 115.782 213.887 115.666 213.439 115.666C213.008 115.666 212.644 115.777 212.346 115.999C212.051 116.221 211.827 116.531 211.674 116.929C211.522 117.327 211.446 117.791 211.446 118.321ZM230.396 111.957V122.139H228.984L223.808 114.672H223.714V122.139H222.178V111.957H223.6L228.78 119.434H228.874V111.957H230.396ZM235.594 122.293C234.878 122.293 234.253 122.129 233.72 121.801C233.186 121.473 232.772 121.014 232.477 120.424C232.182 119.834 232.034 119.144 232.034 118.356C232.034 117.564 232.182 116.871 232.477 116.278C232.772 115.684 233.186 115.224 233.72 114.895C234.253 114.567 234.878 114.403 235.594 114.403C236.31 114.403 236.935 114.567 237.468 114.895C238.002 115.224 238.416 115.684 238.711 116.278C239.006 116.871 239.154 117.564 239.154 118.356C239.154 119.144 239.006 119.834 238.711 120.424C238.416 121.014 238.002 121.473 237.468 121.801C236.935 122.129 236.31 122.293 235.594 122.293ZM235.599 121.045C236.063 121.045 236.447 120.923 236.752 120.677C237.057 120.432 237.283 120.106 237.429 119.698C237.578 119.29 237.652 118.841 237.652 118.351C237.652 117.863 237.578 117.416 237.429 117.008C237.283 116.597 237.057 116.268 236.752 116.019C236.447 115.77 236.063 115.646 235.599 115.646C235.132 115.646 234.744 115.77 234.436 116.019C234.131 116.268 233.904 116.597 233.755 117.008C233.609 117.416 233.536 117.863 233.536 118.351C233.536 118.841 233.609 119.29 233.755 119.698C233.904 120.106 234.131 120.432 234.436 120.677C234.744 120.923 235.132 121.045 235.599 121.045ZM244.238 114.503V115.696H240.066V114.503H244.238ZM241.185 112.673H242.672V119.897C242.672 120.185 242.715 120.402 242.801 120.548C242.887 120.691 242.998 120.788 243.134 120.841C243.273 120.891 243.424 120.916 243.586 120.916C243.706 120.916 243.81 120.908 243.9 120.891C243.989 120.875 244.059 120.861 244.108 120.851L244.377 122.079C244.291 122.113 244.168 122.146 244.009 122.179C243.85 122.215 243.651 122.235 243.412 122.238C243.021 122.245 242.657 122.175 242.319 122.03C241.98 121.884 241.707 121.658 241.498 121.354C241.289 121.049 241.185 120.666 241.185 120.205V112.673ZM245.742 122.139V114.503H247.228V122.139H245.742ZM246.493 113.324C246.234 113.324 246.012 113.238 245.826 113.066C245.644 112.89 245.553 112.681 245.553 112.439C245.553 112.194 245.644 111.985 245.826 111.813C246.012 111.637 246.234 111.55 246.493 111.55C246.751 111.55 246.972 111.637 247.154 111.813C247.339 111.985 247.432 112.194 247.432 112.439C247.432 112.681 247.339 112.89 247.154 113.066C246.972 113.238 246.751 113.324 246.493 113.324ZM252.723 114.503V115.696H248.407V114.503H252.723ZM249.59 122.139V113.618C249.59 113.14 249.695 112.744 249.904 112.43C250.112 112.111 250.389 111.874 250.734 111.719C251.079 111.559 251.453 111.48 251.857 111.48C252.156 111.48 252.411 111.505 252.623 111.555C252.835 111.601 252.993 111.644 253.095 111.684L252.747 112.887C252.678 112.867 252.588 112.844 252.479 112.817C252.37 112.787 252.237 112.773 252.081 112.773C251.72 112.773 251.461 112.862 251.306 113.041C251.153 113.22 251.077 113.479 251.077 113.817V122.139H249.59ZM254.116 122.139V114.503H255.603V122.139H254.116ZM254.867 113.324C254.608 113.324 254.386 113.238 254.201 113.066C254.018 112.89 253.927 112.681 253.927 112.439C253.927 112.194 254.018 111.985 254.201 111.813C254.386 111.637 254.608 111.55 254.867 111.55C255.125 111.55 255.346 111.637 255.528 111.813C255.714 111.985 255.807 112.194 255.807 112.439C255.807 112.681 255.714 112.89 255.528 113.066C255.346 113.238 255.125 113.324 254.867 113.324ZM260.679 122.293C259.94 122.293 259.304 122.126 258.77 121.791C258.24 121.453 257.832 120.987 257.547 120.394C257.262 119.801 257.12 119.121 257.12 118.356C257.12 117.58 257.265 116.896 257.557 116.302C257.849 115.706 258.26 115.24 258.79 114.905C259.32 114.571 259.945 114.403 260.664 114.403C261.244 114.403 261.761 114.511 262.215 114.726C262.669 114.939 263.036 115.237 263.314 115.621C263.596 116.006 263.763 116.455 263.816 116.969H262.37C262.29 116.611 262.108 116.302 261.823 116.044C261.541 115.785 261.163 115.656 260.689 115.656C260.275 115.656 259.912 115.765 259.6 115.984C259.292 116.2 259.052 116.508 258.879 116.909C258.707 117.307 258.621 117.777 258.621 118.321C258.621 118.878 258.705 119.358 258.875 119.763C259.044 120.167 259.282 120.48 259.59 120.702C259.902 120.924 260.268 121.035 260.689 121.035C260.971 121.035 261.226 120.984 261.455 120.881C261.687 120.775 261.881 120.624 262.036 120.429C262.196 120.233 262.307 119.998 262.37 119.723H263.816C263.763 120.217 263.602 120.658 263.334 121.045C263.066 121.433 262.706 121.738 262.255 121.96C261.808 122.182 261.282 122.293 260.679 122.293ZM267.488 122.308C267.004 122.308 266.567 122.219 266.176 122.04C265.785 121.857 265.475 121.594 265.246 121.249C265.021 120.904 264.908 120.482 264.908 119.981C264.908 119.55 264.991 119.196 265.157 118.917C265.322 118.639 265.546 118.419 265.828 118.256C266.109 118.094 266.424 117.971 266.772 117.888C267.12 117.805 267.475 117.742 267.836 117.699C268.294 117.646 268.665 117.603 268.95 117.57C269.235 117.534 269.442 117.476 269.571 117.396C269.701 117.317 269.765 117.187 269.765 117.008V116.974C269.765 116.539 269.643 116.203 269.397 115.964C269.155 115.726 268.794 115.606 268.314 115.606C267.813 115.606 267.419 115.717 267.13 115.939C266.845 116.158 266.648 116.402 266.539 116.67L265.142 116.352C265.307 115.888 265.549 115.514 265.867 115.229C266.189 114.94 266.559 114.731 266.976 114.602C267.394 114.47 267.833 114.403 268.294 114.403C268.599 114.403 268.922 114.44 269.263 114.513C269.608 114.582 269.929 114.711 270.228 114.9C270.529 115.089 270.776 115.359 270.968 115.711C271.161 116.059 271.257 116.511 271.257 117.068V122.139H269.805V121.095H269.745C269.649 121.287 269.505 121.476 269.313 121.662C269.121 121.847 268.874 122.001 268.572 122.124C268.27 122.247 267.909 122.308 267.488 122.308ZM267.811 121.115C268.222 121.115 268.574 121.034 268.865 120.871C269.16 120.709 269.384 120.497 269.537 120.235C269.692 119.97 269.77 119.686 269.77 119.385V118.4C269.717 118.453 269.614 118.503 269.462 118.55C269.313 118.593 269.142 118.631 268.95 118.664C268.758 118.694 268.57 118.722 268.388 118.748C268.206 118.772 268.053 118.792 267.931 118.808C267.642 118.845 267.379 118.906 267.14 118.992C266.905 119.078 266.716 119.202 266.573 119.365C266.434 119.524 266.365 119.736 266.365 120.001C266.365 120.369 266.501 120.648 266.772 120.836C267.044 121.022 267.39 121.115 267.811 121.115ZM276.661 114.503V115.696H272.49V114.503H276.661ZM273.609 112.673H275.095V119.897C275.095 120.185 275.138 120.402 275.224 120.548C275.311 120.691 275.422 120.788 275.558 120.841C275.697 120.891 275.848 120.916 276.01 120.916C276.129 120.916 276.234 120.908 276.323 120.891C276.413 120.875 276.482 120.861 276.532 120.851L276.8 122.079C276.714 122.113 276.592 122.146 276.433 122.179C276.273 122.215 276.075 122.235 275.836 122.238C275.445 122.245 275.08 122.175 274.742 122.03C274.404 121.884 274.131 121.658 273.922 121.354C273.713 121.049 273.609 120.666 273.609 120.205V112.673ZM278.166 122.139V114.503H279.652V122.139H278.166ZM278.916 113.324C278.658 113.324 278.436 113.238 278.25 113.066C278.068 112.89 277.977 112.681 277.977 112.439C277.977 112.194 278.068 111.985 278.25 111.813C278.436 111.637 278.658 111.55 278.916 111.55C279.175 111.55 279.395 111.637 279.578 111.813C279.763 111.985 279.856 112.194 279.856 112.439C279.856 112.681 279.763 112.89 279.578 113.066C279.395 113.238 279.175 113.324 278.916 113.324ZM284.729 122.293C284.013 122.293 283.388 122.129 282.854 121.801C282.321 121.473 281.906 121.014 281.611 120.424C281.316 119.834 281.169 119.144 281.169 118.356C281.169 117.564 281.316 116.871 281.611 116.278C281.906 115.684 282.321 115.224 282.854 114.895C283.388 114.567 284.013 114.403 284.729 114.403C285.444 114.403 286.069 114.567 286.603 114.895C287.136 115.224 287.551 115.684 287.846 116.278C288.141 116.871 288.288 117.564 288.288 118.356C288.288 119.144 288.141 119.834 287.846 120.424C287.551 121.014 287.136 121.473 286.603 121.801C286.069 122.129 285.444 122.293 284.729 122.293ZM284.734 121.045C285.198 121.045 285.582 120.923 285.887 120.677C286.192 120.432 286.417 120.106 286.563 119.698C286.712 119.29 286.787 118.841 286.787 118.351C286.787 117.863 286.712 117.416 286.563 117.008C286.417 116.597 286.192 116.268 285.887 116.019C285.582 115.77 285.198 115.646 284.734 115.646C284.266 115.646 283.878 115.77 283.57 116.019C283.265 116.268 283.038 116.597 282.889 117.008C282.743 117.416 282.67 117.863 282.67 118.351C282.67 118.841 282.743 119.29 282.889 119.698C283.038 120.106 283.265 120.432 283.57 120.677C283.878 120.923 284.266 121.045 284.734 121.045ZM291.294 117.605V122.139H289.807V114.503H291.234V115.746H291.329C291.504 115.341 291.78 115.016 292.154 114.771C292.532 114.526 293.008 114.403 293.581 114.403C294.101 114.403 294.557 114.513 294.948 114.731C295.339 114.947 295.642 115.268 295.858 115.696C296.073 116.123 296.181 116.652 296.181 117.282V122.139H294.695V117.461C294.695 116.907 294.55 116.475 294.262 116.163C293.974 115.848 293.578 115.691 293.074 115.691C292.729 115.691 292.423 115.765 292.154 115.915C291.889 116.064 291.678 116.283 291.523 116.571C291.37 116.856 291.294 117.201 291.294 117.605ZM303.757 116.367L302.41 116.606C302.353 116.433 302.264 116.269 302.141 116.113C302.022 115.958 301.859 115.83 301.654 115.731C301.449 115.631 301.192 115.582 300.883 115.582C300.462 115.582 300.111 115.676 299.829 115.865C299.548 116.05 299.407 116.291 299.407 116.586C299.407 116.841 299.501 117.046 299.69 117.202C299.879 117.358 300.184 117.486 300.605 117.585L301.818 117.863C302.521 118.026 303.044 118.276 303.389 118.614C303.734 118.952 303.906 119.391 303.906 119.932C303.906 120.389 303.774 120.797 303.508 121.155C303.247 121.509 302.88 121.788 302.41 121.99C301.942 122.192 301.4 122.293 300.784 122.293C299.929 122.293 299.231 122.111 298.691 121.746C298.151 121.378 297.819 120.856 297.697 120.18L299.133 119.961C299.223 120.336 299.407 120.619 299.685 120.812C299.964 121.001 300.327 121.095 300.774 121.095C301.261 121.095 301.651 120.994 301.942 120.792C302.234 120.586 302.38 120.336 302.38 120.041C302.38 119.802 302.29 119.602 302.111 119.439C301.936 119.277 301.666 119.154 301.301 119.072L300.008 118.788C299.296 118.626 298.769 118.367 298.427 118.013C298.089 117.658 297.92 117.209 297.92 116.665C297.92 116.215 298.046 115.82 298.298 115.482C298.55 115.144 298.898 114.881 299.342 114.692C299.786 114.499 300.295 114.403 300.868 114.403C301.694 114.403 302.343 114.582 302.817 114.94C303.291 115.295 303.605 115.77 303.757 116.367Z" fill="#636369"/>
<rect x="178" y="113.639" width="6" height="6" rx="3" fill="#00CC74"/>
<rect x="123.5" y="93.139" width="372" height="47" rx="3.5" stroke="black"/>
<rect x="-1" y="1" width="421" height="75" rx="7" transform="matrix(-1 0 0 1 519 73.639)" stroke="#E1E8F2" stroke-width="2" stroke-dasharray="8 8"/>
<rect x="-2" y="2" width="447" height="99.2824" rx="6" transform="matrix(-1 0 0 1 531 60.639)" stroke="#121212" stroke-width="4"/>
<rect x="-2" y="2" width="442" height="102.971" rx="6" transform="matrix(-1 0 0 1 543 208.209)" fill="#121212"/>
<rect x="-2" y="2" width="442" height="102.971" rx="6" transform="matrix(-1 0 0 1 543 208.209)" stroke="#121212" stroke-width="4"/>
<rect x="-2" y="2" width="447" height="99.2824" rx="6" transform="matrix(-1 0 0 1 531 199.91)" fill="#F5F6F8"/>
<rect x="-1" y="1" width="421" height="75" rx="7" transform="matrix(-1 0 0 1 519 212.91)" fill="#F5F6F8"/>
<rect x="123.5" y="232.41" width="372" height="47" rx="3.5" fill="white"/>
<rect x="142.389" y="249.41" width="13" height="13" rx="1.5" stroke="#DFE7F2"/>
<rect x="295" y="251.639" width="169" height="8" rx="4" fill="#EEF1F7"/>
<path d="M194.672 254.374C194.619 253.903 194.4 253.538 194.016 253.28C193.631 253.018 193.147 252.887 192.564 252.887C192.146 252.887 191.785 252.953 191.48 253.086C191.175 253.215 190.938 253.394 190.769 253.623C190.603 253.848 190.521 254.105 190.521 254.394C190.521 254.635 190.577 254.844 190.69 255.02C190.806 255.196 190.956 255.343 191.142 255.462C191.331 255.578 191.533 255.676 191.749 255.756C191.964 255.832 192.171 255.895 192.37 255.945L193.364 256.203C193.689 256.283 194.022 256.39 194.364 256.526C194.705 256.662 195.022 256.841 195.313 257.063C195.605 257.285 195.84 257.56 196.019 257.889C196.201 258.217 196.293 258.609 196.293 259.067C196.293 259.644 196.143 260.156 195.845 260.603C195.55 261.05 195.121 261.403 194.558 261.662C193.997 261.921 193.32 262.05 192.524 262.05C191.762 262.05 191.102 261.929 190.545 261.687C189.989 261.445 189.553 261.102 189.238 260.658C188.923 260.21 188.749 259.68 188.716 259.067H190.257C190.287 259.435 190.406 259.741 190.615 259.987C190.827 260.229 191.097 260.409 191.425 260.528C191.757 260.644 192.12 260.702 192.514 260.702C192.948 260.702 193.335 260.635 193.673 260.499C194.014 260.359 194.282 260.167 194.478 259.922C194.674 259.673 194.771 259.383 194.771 259.052C194.771 258.75 194.685 258.503 194.513 258.311C194.344 258.119 194.113 257.96 193.822 257.834C193.533 257.708 193.207 257.597 192.842 257.501L191.639 257.173C190.824 256.951 190.178 256.624 189.7 256.193C189.226 255.762 188.989 255.192 188.989 254.483C188.989 253.896 189.148 253.384 189.467 252.947C189.785 252.509 190.216 252.17 190.759 251.928C191.303 251.682 191.916 251.56 192.599 251.56C193.288 251.56 193.896 251.681 194.423 251.923C194.954 252.165 195.371 252.498 195.676 252.922C195.981 253.343 196.14 253.827 196.153 254.374H194.672ZM197.988 251.699H199.853L203.094 259.614H203.214L206.455 251.699H208.319V261.881H206.858V254.513H206.763L203.76 261.866H202.547L199.544 254.508H199.45V261.881H197.988V251.699ZM215.966 254.374C215.913 253.903 215.694 253.538 215.31 253.28C214.925 253.018 214.441 252.887 213.858 252.887C213.441 252.887 213.079 252.953 212.774 253.086C212.469 253.215 212.232 253.394 212.063 253.623C211.898 253.848 211.815 254.105 211.815 254.394C211.815 254.635 211.871 254.844 211.984 255.02C212.1 255.196 212.251 255.343 212.436 255.462C212.625 255.578 212.827 255.676 213.043 255.756C213.258 255.832 213.465 255.895 213.664 255.945L214.659 256.203C214.983 256.283 215.316 256.39 215.658 256.526C215.999 256.662 216.316 256.841 216.607 257.063C216.899 257.285 217.134 257.56 217.313 257.889C217.496 258.217 217.587 258.609 217.587 259.067C217.587 259.644 217.438 260.156 217.139 260.603C216.844 261.05 216.415 261.403 215.852 261.662C215.292 261.921 214.614 262.05 213.818 262.05C213.056 262.05 212.396 261.929 211.84 261.687C211.283 261.445 210.847 261.102 210.532 260.658C210.217 260.21 210.043 259.68 210.01 259.067H211.551C211.581 259.435 211.7 259.741 211.909 259.987C212.121 260.229 212.392 260.409 212.72 260.528C213.051 260.644 213.414 260.702 213.808 260.702C214.243 260.702 214.629 260.635 214.967 260.499C215.308 260.359 215.577 260.167 215.772 259.922C215.968 259.673 216.066 259.383 216.066 259.052C216.066 258.75 215.979 258.503 215.807 258.311C215.638 258.119 215.408 257.96 215.116 257.834C214.828 257.708 214.501 257.597 214.137 257.501L212.933 257.173C212.118 256.951 211.472 256.624 210.995 256.193C210.521 255.762 210.284 255.192 210.284 254.483C210.284 253.896 210.443 253.384 210.761 252.947C211.079 252.509 211.51 252.17 212.053 251.928C212.597 251.682 213.21 251.56 213.893 251.56C214.582 251.56 215.191 251.681 215.718 251.923C216.248 252.165 216.665 252.498 216.97 252.922C217.275 253.343 217.434 253.827 217.448 254.374H215.966Z" fill="#636369"/>
<rect x="178" y="253.381" width="6" height="6" rx="3" fill="#C6A9FF"/>
<rect x="123.5" y="232.41" width="372" height="47" rx="3.5" stroke="black"/>
<rect x="-1" y="1" width="421" height="75" rx="7" transform="matrix(-1 0 0 1 519 212.91)" stroke="#E1E8F2" stroke-width="2" stroke-dasharray="8 8"/>
<rect x="-2" y="2" width="447" height="99.2824" rx="6" transform="matrix(-1 0 0 1 531 199.91)" stroke="#121212" stroke-width="4"/>
<rect x="-2" y="2" width="442" height="102.971" rx="6" transform="matrix(-1 0 0 1 543 347.48)" fill="#121212"/>
<rect x="-2" y="2" width="442" height="102.971" rx="6" transform="matrix(-1 0 0 1 543 347.48)" stroke="#121212" stroke-width="4"/>
<rect x="-2" y="2" width="447" height="99.2824" rx="6" transform="matrix(-1 0 0 1 531 339.18)" fill="#F5F6F8"/>
<rect x="-1" y="1" width="421" height="75" rx="7" transform="matrix(-1 0 0 1 519 352.18)" fill="#F5F6F8"/>
<rect x="123.5" y="371.68" width="372" height="47" rx="3.5" fill="white"/>
<rect x="142.389" y="388.68" width="13" height="13" rx="1.5" stroke="#DFE7F2"/>
<rect x="284" y="391.639" width="180" height="8" rx="4" fill="#EEF1F7"/>
<path d="M189.119 400.881V390.699H195.502V392.021H190.655V395.124H195.169V396.441H190.655V399.558H195.562V400.881H189.119ZM197.295 400.881V393.244H198.722V394.487H198.816C198.975 394.066 199.235 393.738 199.597 393.503C199.958 393.264 200.39 393.145 200.894 393.145C201.405 393.145 201.832 393.264 202.177 393.503C202.525 393.742 202.782 394.07 202.948 394.487H203.027C203.209 394.08 203.499 393.755 203.897 393.513C204.295 393.268 204.769 393.145 205.319 393.145C206.012 393.145 206.577 393.362 207.014 393.796C207.455 394.23 207.676 394.885 207.676 395.76V400.881H206.189V395.899C206.189 395.382 206.048 395.008 205.766 394.776C205.485 394.544 205.148 394.428 204.757 394.428C204.273 394.428 203.897 394.577 203.629 394.875C203.36 395.17 203.226 395.55 203.226 396.014V400.881H201.744V395.805C201.744 395.39 201.615 395.057 201.357 394.805C201.098 394.554 200.762 394.428 200.347 394.428C200.066 394.428 199.805 394.502 199.567 394.651C199.332 394.797 199.141 395.001 198.995 395.263C198.853 395.525 198.781 395.828 198.781 396.173V400.881H197.295ZM211.75 401.05C211.266 401.05 210.829 400.96 210.438 400.781C210.047 400.599 209.737 400.336 209.508 399.991C209.283 399.646 209.17 399.224 209.17 398.723C209.17 398.292 209.253 397.938 209.419 397.659C209.584 397.381 209.808 397.16 210.09 396.998C210.371 396.836 210.686 396.713 211.034 396.63C211.382 396.547 211.737 396.484 212.098 396.441C212.556 396.388 212.927 396.345 213.212 396.312C213.497 396.275 213.704 396.217 213.833 396.138C213.963 396.058 214.027 395.929 214.027 395.75V395.715C214.027 395.281 213.905 394.945 213.659 394.706C213.417 394.467 213.056 394.348 212.575 394.348C212.075 394.348 211.681 394.459 211.392 394.681C211.107 394.9 210.91 395.144 210.801 395.412L209.404 395.094C209.569 394.63 209.811 394.255 210.129 393.97C210.451 393.682 210.82 393.473 211.238 393.344C211.656 393.211 212.095 393.145 212.556 393.145C212.861 393.145 213.184 393.181 213.525 393.254C213.87 393.324 214.191 393.453 214.49 393.642C214.791 393.831 215.038 394.101 215.23 394.452C215.423 394.8 215.519 395.253 215.519 395.81V400.881H214.067V399.837H214.007C213.911 400.029 213.767 400.218 213.575 400.403C213.383 400.589 213.136 400.743 212.834 400.866C212.532 400.988 212.171 401.05 211.75 401.05ZM212.073 399.857C212.484 399.857 212.836 399.775 213.127 399.613C213.422 399.451 213.646 399.238 213.798 398.977C213.954 398.711 214.032 398.428 214.032 398.126V397.142C213.979 397.195 213.876 397.245 213.724 397.291C213.575 397.334 213.404 397.372 213.212 397.406C213.02 397.435 212.832 397.464 212.65 397.49C212.468 397.513 212.315 397.533 212.193 397.55C211.904 397.586 211.641 397.648 211.402 397.734C211.167 397.82 210.978 397.944 210.835 398.107C210.696 398.266 210.627 398.478 210.627 398.743C210.627 399.111 210.762 399.389 211.034 399.578C211.306 399.764 211.652 399.857 212.073 399.857ZM217.359 400.881V393.244H218.845V400.881H217.359ZM218.109 392.066C217.851 392.066 217.629 391.98 217.443 391.808C217.261 391.632 217.17 391.423 217.17 391.181C217.17 390.936 217.261 390.727 217.443 390.555C217.629 390.379 217.851 390.291 218.109 390.291C218.368 390.291 218.588 390.379 218.771 390.555C218.956 390.727 219.049 390.936 219.049 391.181C219.049 391.423 218.956 391.632 218.771 391.808C218.588 391.98 218.368 392.066 218.109 392.066ZM222.191 390.699V400.881H220.705V390.699H222.191Z" fill="#636369"/>
<rect x="178" y="392.381" width="6" height="6" rx="3" fill="#869CF9"/>
<rect x="123.5" y="371.68" width="372" height="47" rx="3.5" stroke="black"/>
<rect x="-1" y="1" width="421" height="75" rx="7" transform="matrix(-1 0 0 1 519 352.18)" stroke="#E1E8F2" stroke-width="2" stroke-dasharray="8 8"/>
<rect x="-2" y="2" width="447" height="99.2824" rx="6" transform="matrix(-1 0 0 1 531 339.18)" stroke="#121212" stroke-width="4"/>
<rect x="-2" y="2" width="442" height="102.971" rx="6" transform="matrix(-1 0 0 1 543 486.75)" fill="#121212"/>
<rect x="-2" y="2" width="442" height="102.971" rx="6" transform="matrix(-1 0 0 1 543 486.75)" stroke="#121212" stroke-width="4"/>
<rect x="-2" y="2" width="447" height="99.2824" rx="6" transform="matrix(-1 0 0 1 531 478.451)" fill="#F5F6F8"/>
<rect x="-1" y="1" width="421" height="75" rx="7" transform="matrix(-1 0 0 1 519 491.451)" fill="#F5F6F8"/>
<rect x="123.5" y="510.951" width="372" height="47" rx="3.5" fill="white"/>
<rect x="142.389" y="527.951" width="13" height="13" rx="1.5" stroke="#DFE7F2"/>
<rect x="394" y="530.639" width="70" height="8" rx="4" fill="#EEF1F7"/>
<path d="M190.655 529.699V539.881H189.119V529.699H190.655ZM194.119 535.347V539.881H192.633V532.244H194.06V533.487H194.154C194.33 533.083 194.605 532.758 194.979 532.513C195.357 532.268 195.833 532.145 196.406 532.145C196.927 532.145 197.382 532.254 197.773 532.473C198.164 532.689 198.468 533.01 198.683 533.438C198.899 533.865 199.006 534.394 199.006 535.023V539.881H197.52V535.202C197.52 534.649 197.376 534.216 197.087 533.905C196.799 533.59 196.403 533.433 195.899 533.433C195.554 533.433 195.248 533.507 194.979 533.656C194.714 533.805 194.504 534.024 194.348 534.313C194.195 534.598 194.119 534.942 194.119 535.347ZM205.359 534.934V536.222H200.845V534.934H205.359ZM208.18 539.881H206.549L210.213 529.699H211.988L215.652 539.881H214.021L211.143 531.548H211.063L208.18 539.881ZM208.453 535.894H213.743V537.186H208.453V535.894ZM216.863 542.744V532.244H218.315V533.482H218.439C218.525 533.323 218.65 533.139 218.812 532.93C218.974 532.722 219.2 532.539 219.488 532.384C219.776 532.224 220.158 532.145 220.632 532.145C221.248 532.145 221.798 532.301 222.282 532.612C222.766 532.924 223.146 533.373 223.421 533.96C223.699 534.546 223.838 535.252 223.838 536.077C223.838 536.903 223.701 537.61 223.426 538.2C223.151 538.787 222.773 539.239 222.292 539.558C221.812 539.872 221.263 540.03 220.646 540.03C220.182 540.03 219.803 539.952 219.508 539.796C219.216 539.64 218.988 539.458 218.822 539.249C218.656 539.041 218.529 538.855 218.439 538.693H218.35V542.744H216.863ZM218.32 536.063C218.32 536.599 218.398 537.07 218.553 537.474C218.709 537.879 218.935 538.195 219.23 538.424C219.525 538.649 219.886 538.762 220.313 538.762C220.758 538.762 221.129 538.644 221.427 538.409C221.725 538.171 221.951 537.847 222.103 537.44C222.259 537.032 222.337 536.573 222.337 536.063C222.337 535.559 222.261 535.106 222.108 534.705C221.959 534.304 221.734 533.988 221.432 533.756C221.134 533.524 220.761 533.408 220.313 533.408C219.883 533.408 219.518 533.519 219.22 533.741C218.925 533.963 218.701 534.273 218.548 534.671C218.396 535.068 218.32 535.532 218.32 536.063ZM225.364 542.744V532.244H226.815V533.482H226.94C227.026 533.323 227.15 533.139 227.313 532.93C227.475 532.722 227.7 532.539 227.989 532.384C228.277 532.224 228.658 532.145 229.132 532.145C229.749 532.145 230.299 532.301 230.783 532.612C231.267 532.924 231.646 533.373 231.921 533.96C232.2 534.546 232.339 535.252 232.339 536.077C232.339 536.903 232.201 537.61 231.926 538.2C231.651 538.787 231.273 539.239 230.793 539.558C230.312 539.872 229.764 540.03 229.147 540.03C228.683 540.03 228.304 539.952 228.009 539.796C227.717 539.64 227.488 539.458 227.323 539.249C227.157 539.041 227.029 538.855 226.94 538.693H226.85V542.744H225.364ZM226.82 536.063C226.82 536.599 226.898 537.07 227.054 537.474C227.21 537.879 227.435 538.195 227.73 538.424C228.025 538.649 228.386 538.762 228.814 538.762C229.258 538.762 229.629 538.644 229.928 538.409C230.226 538.171 230.451 537.847 230.604 537.44C230.76 537.032 230.837 536.573 230.837 536.063C230.837 535.559 230.761 535.106 230.609 534.705C230.46 534.304 230.234 533.988 229.933 533.756C229.634 533.524 229.261 533.408 228.814 533.408C228.383 533.408 228.019 533.519 227.72 533.741C227.425 533.963 227.202 534.273 227.049 534.671C226.897 535.068 226.82 535.532 226.82 536.063ZM237.549 539.881V529.699H241.178C241.97 529.699 242.626 529.843 243.147 530.131C243.667 530.42 244.057 530.814 244.315 531.315C244.574 531.812 244.703 532.372 244.703 532.995C244.703 533.622 244.572 534.185 244.31 534.685C244.052 535.183 243.661 535.577 243.137 535.869C242.616 536.157 241.962 536.301 241.173 536.301H238.677V534.999H241.034C241.534 534.999 241.94 534.912 242.252 534.74C242.563 534.564 242.792 534.326 242.938 534.024C243.084 533.723 243.157 533.38 243.157 532.995C243.157 532.611 243.084 532.269 242.938 531.971C242.792 531.673 242.562 531.439 242.247 531.27C241.935 531.101 241.524 531.016 241.014 531.016H239.085V539.881H237.549ZM251.082 536.714V532.244H252.573V539.881H251.112V538.558H251.032C250.857 538.966 250.575 539.306 250.187 539.577C249.803 539.846 249.324 539.98 248.75 539.98C248.26 539.98 247.825 539.872 247.448 539.657C247.073 539.438 246.778 539.115 246.563 538.688C246.351 538.26 246.245 537.731 246.245 537.102V532.244H247.731V536.923C247.731 537.443 247.875 537.857 248.164 538.166C248.452 538.474 248.826 538.628 249.287 538.628C249.566 538.628 249.842 538.558 250.117 538.419C250.396 538.28 250.626 538.069 250.808 537.788C250.994 537.506 251.085 537.148 251.082 536.714ZM260.153 534.109L258.806 534.347C258.749 534.175 258.66 534.011 258.537 533.855C258.418 533.699 258.256 533.572 258.05 533.472C257.845 533.373 257.588 533.323 257.279 533.323C256.858 533.323 256.507 533.418 256.225 533.607C255.944 533.792 255.803 534.032 255.803 534.327C255.803 534.583 255.897 534.788 256.086 534.944C256.275 535.1 256.58 535.227 257.001 535.327L258.214 535.605C258.917 535.768 259.44 536.018 259.785 536.356C260.13 536.694 260.302 537.133 260.302 537.673C260.302 538.131 260.17 538.538 259.904 538.896C259.643 539.251 259.276 539.529 258.806 539.732C258.338 539.934 257.796 540.035 257.18 540.035C256.325 540.035 255.627 539.853 255.087 539.488C254.547 539.12 254.215 538.598 254.093 537.922L255.529 537.703C255.619 538.078 255.803 538.361 256.081 538.553C256.36 538.742 256.723 538.837 257.17 538.837C257.657 538.837 258.047 538.736 258.338 538.533C258.63 538.328 258.776 538.078 258.776 537.783C258.776 537.544 258.686 537.344 258.507 537.181C258.332 537.019 258.062 536.896 257.697 536.813L256.404 536.53C255.692 536.367 255.165 536.109 254.823 535.754C254.485 535.4 254.316 534.951 254.316 534.407C254.316 533.956 254.442 533.562 254.694 533.224C254.946 532.886 255.294 532.622 255.738 532.433C256.182 532.241 256.691 532.145 257.265 532.145C258.09 532.145 258.739 532.324 259.213 532.682C259.687 533.037 260.001 533.512 260.153 534.109ZM263.283 535.347V539.881H261.797V529.699H263.263V533.487H263.358C263.537 533.076 263.81 532.75 264.178 532.508C264.546 532.266 265.026 532.145 265.62 532.145C266.143 532.145 266.601 532.253 266.992 532.468C267.386 532.684 267.691 533.005 267.907 533.433C268.125 533.857 268.235 534.387 268.235 535.023V539.881H266.748V535.202C266.748 534.642 266.604 534.208 266.316 533.9C266.027 533.588 265.626 533.433 265.113 533.433C264.761 533.433 264.446 533.507 264.168 533.656C263.893 533.805 263.676 534.024 263.517 534.313C263.361 534.598 263.283 534.942 263.283 535.347ZM281.981 529.699V539.881H280.569L275.394 532.413H275.299V539.881H273.763V529.699H275.185L280.365 537.176H280.46V529.699H281.981ZM287.179 540.035C286.463 540.035 285.838 539.871 285.305 539.543C284.771 539.215 284.357 538.756 284.062 538.166C283.767 537.576 283.619 536.886 283.619 536.097C283.619 535.305 283.767 534.613 284.062 534.019C284.357 533.426 284.771 532.965 285.305 532.637C285.838 532.309 286.463 532.145 287.179 532.145C287.895 532.145 288.52 532.309 289.053 532.637C289.587 532.965 290.001 533.426 290.296 534.019C290.591 534.613 290.739 535.305 290.739 536.097C290.739 536.886 290.591 537.576 290.296 538.166C290.001 538.756 289.587 539.215 289.053 539.543C288.52 539.871 287.895 540.035 287.179 540.035ZM287.184 538.787C287.648 538.787 288.033 538.664 288.337 538.419C288.642 538.174 288.868 537.847 289.014 537.44C289.163 537.032 289.237 536.583 289.237 536.092C289.237 535.605 289.163 535.158 289.014 534.75C288.868 534.339 288.642 534.009 288.337 533.761C288.033 533.512 287.648 533.388 287.184 533.388C286.717 533.388 286.329 533.512 286.021 533.761C285.716 534.009 285.489 534.339 285.34 534.75C285.194 535.158 285.121 535.605 285.121 536.092C285.121 536.583 285.194 537.032 285.34 537.44C285.489 537.847 285.716 538.174 286.021 538.419C286.329 538.664 286.717 538.787 287.184 538.787ZM295.823 532.244V533.438H291.652V532.244H295.823ZM292.77 530.415H294.257V537.639C294.257 537.927 294.3 538.144 294.386 538.29C294.472 538.432 294.583 538.53 294.719 538.583C294.858 538.633 295.009 538.658 295.171 538.658C295.291 538.658 295.395 538.649 295.485 538.633C295.574 538.616 295.644 538.603 295.693 538.593L295.962 539.821C295.876 539.854 295.753 539.887 295.594 539.921C295.435 539.957 295.236 539.977 294.997 539.98C294.606 539.987 294.242 539.917 293.904 539.771C293.566 539.626 293.292 539.4 293.083 539.095C292.875 538.79 292.77 538.407 292.77 537.947V530.415ZM297.327 539.881V532.244H298.814V539.881H297.327ZM298.078 531.066C297.819 531.066 297.597 530.98 297.412 530.808C297.229 530.632 297.138 530.423 297.138 530.181C297.138 529.936 297.229 529.727 297.412 529.555C297.597 529.379 297.819 529.291 298.078 529.291C298.336 529.291 298.557 529.379 298.739 529.555C298.925 529.727 299.017 529.936 299.017 530.181C299.017 530.423 298.925 530.632 298.739 530.808C298.557 530.98 298.336 531.066 298.078 531.066ZM304.308 532.244V533.438H299.992V532.244H304.308ZM301.175 539.881V531.359C301.175 530.882 301.28 530.486 301.489 530.171C301.698 529.853 301.974 529.616 302.319 529.46C302.664 529.301 303.038 529.222 303.443 529.222C303.741 529.222 303.996 529.247 304.208 529.296C304.42 529.343 304.578 529.386 304.68 529.425L304.332 530.629C304.263 530.609 304.173 530.586 304.064 530.559C303.955 530.529 303.822 530.514 303.666 530.514C303.305 530.514 303.046 530.604 302.891 530.783C302.738 530.962 302.662 531.22 302.662 531.558V539.881H301.175ZM305.701 539.881V532.244H307.188V539.881H305.701ZM306.452 531.066C306.194 531.066 305.971 530.98 305.786 530.808C305.604 530.632 305.512 530.423 305.512 530.181C305.512 529.936 305.604 529.727 305.786 529.555C305.971 529.379 306.194 529.291 306.452 529.291C306.711 529.291 306.931 529.379 307.113 529.555C307.299 529.727 307.392 529.936 307.392 530.181C307.392 530.423 307.299 530.632 307.113 530.808C306.931 530.98 306.711 531.066 306.452 531.066ZM312.264 540.035C311.525 540.035 310.889 539.867 310.355 539.533C309.825 539.195 309.417 538.729 309.132 538.136C308.847 537.542 308.705 536.863 308.705 536.097C308.705 535.322 308.85 534.637 309.142 534.044C309.434 533.447 309.845 532.982 310.375 532.647C310.905 532.312 311.53 532.145 312.249 532.145C312.829 532.145 313.346 532.253 313.8 532.468C314.255 532.68 314.621 532.979 314.899 533.363C315.181 533.747 315.348 534.197 315.401 534.71H313.955C313.875 534.352 313.693 534.044 313.408 533.786C313.126 533.527 312.748 533.398 312.274 533.398C311.86 533.398 311.497 533.507 311.185 533.726C310.877 533.941 310.637 534.25 310.465 534.651C310.292 535.048 310.206 535.519 310.206 536.063C310.206 536.619 310.291 537.1 310.46 537.504C310.629 537.909 310.867 538.222 311.175 538.444C311.487 538.666 311.853 538.777 312.274 538.777C312.556 538.777 312.811 538.726 313.04 538.623C313.272 538.517 313.466 538.366 313.622 538.171C313.781 537.975 313.892 537.74 313.955 537.465H315.401C315.348 537.958 315.188 538.399 314.919 538.787C314.651 539.175 314.291 539.48 313.84 539.702C313.393 539.924 312.867 540.035 312.264 540.035ZM319.073 540.05C318.589 540.05 318.152 539.96 317.761 539.781C317.37 539.599 317.06 539.336 316.831 538.991C316.606 538.646 316.493 538.224 316.493 537.723C316.493 537.292 316.576 536.938 316.742 536.659C316.907 536.381 317.131 536.16 317.413 535.998C317.695 535.836 318.009 535.713 318.357 535.63C318.705 535.547 319.06 535.484 319.421 535.441C319.879 535.388 320.25 535.345 320.535 535.312C320.82 535.275 321.027 535.217 321.156 535.138C321.286 535.058 321.35 534.929 321.35 534.75V534.715C321.35 534.281 321.228 533.945 320.982 533.706C320.74 533.467 320.379 533.348 319.899 533.348C319.398 533.348 319.004 533.459 318.715 533.681C318.43 533.9 318.233 534.144 318.124 534.412L316.727 534.094C316.892 533.63 317.134 533.255 317.453 532.97C317.774 532.682 318.144 532.473 318.561 532.344C318.979 532.211 319.418 532.145 319.879 532.145C320.184 532.145 320.507 532.181 320.848 532.254C321.193 532.324 321.514 532.453 321.813 532.642C322.114 532.831 322.361 533.101 322.553 533.452C322.746 533.8 322.842 534.253 322.842 534.81V539.881H321.39V538.837H321.33C321.234 539.029 321.09 539.218 320.898 539.403C320.706 539.589 320.459 539.743 320.157 539.866C319.856 539.988 319.494 540.05 319.073 540.05ZM319.396 538.857C319.807 538.857 320.159 538.775 320.45 538.613C320.745 538.451 320.969 538.238 321.122 537.977C321.277 537.711 321.355 537.428 321.355 537.126V536.142C321.302 536.195 321.199 536.245 321.047 536.291C320.898 536.334 320.727 536.372 320.535 536.406C320.343 536.435 320.155 536.464 319.973 536.49C319.791 536.513 319.638 536.533 319.516 536.55C319.227 536.586 318.964 536.648 318.725 536.734C318.49 536.82 318.301 536.944 318.159 537.107C318.019 537.266 317.95 537.478 317.95 537.743C317.95 538.111 318.086 538.389 318.357 538.578C318.629 538.764 318.976 538.857 319.396 538.857ZM328.246 532.244V533.438H324.075V532.244H328.246ZM325.194 530.415H326.68V537.639C326.68 537.927 326.723 538.144 326.81 538.29C326.896 538.432 327.007 538.53 327.143 538.583C327.282 538.633 327.433 538.658 327.595 538.658C327.714 538.658 327.819 538.649 327.908 538.633C327.998 538.616 328.067 538.603 328.117 538.593L328.386 539.821C328.299 539.854 328.177 539.887 328.018 539.921C327.859 539.957 327.66 539.977 327.421 539.98C327.03 539.987 326.665 539.917 326.327 539.771C325.989 539.626 325.716 539.4 325.507 539.095C325.298 538.79 325.194 538.407 325.194 537.947V530.415ZM329.751 539.881V532.244H331.237V539.881H329.751ZM330.501 531.066C330.243 531.066 330.021 530.98 329.835 530.808C329.653 530.632 329.562 530.423 329.562 530.181C329.562 529.936 329.653 529.727 329.835 529.555C330.021 529.379 330.243 529.291 330.501 529.291C330.76 529.291 330.98 529.379 331.163 529.555C331.348 529.727 331.441 529.936 331.441 530.181C331.441 530.423 331.348 530.632 331.163 530.808C330.98 530.98 330.76 531.066 330.501 531.066ZM336.314 540.035C335.598 540.035 334.973 539.871 334.439 539.543C333.906 539.215 333.491 538.756 333.196 538.166C332.901 537.576 332.754 536.886 332.754 536.097C332.754 535.305 332.901 534.613 333.196 534.019C333.491 533.426 333.906 532.965 334.439 532.637C334.973 532.309 335.598 532.145 336.314 532.145C337.03 532.145 337.654 532.309 338.188 532.637C338.722 532.965 339.136 533.426 339.431 534.019C339.726 534.613 339.873 535.305 339.873 536.097C339.873 536.886 339.726 537.576 339.431 538.166C339.136 538.756 338.722 539.215 338.188 539.543C337.654 539.871 337.03 540.035 336.314 540.035ZM336.319 538.787C336.783 538.787 337.167 538.664 337.472 538.419C337.777 538.174 338.002 537.847 338.148 537.44C338.297 537.032 338.372 536.583 338.372 536.092C338.372 535.605 338.297 535.158 338.148 534.75C338.002 534.339 337.777 534.009 337.472 533.761C337.167 533.512 336.783 533.388 336.319 533.388C335.851 533.388 335.463 533.512 335.155 533.761C334.85 534.009 334.623 534.339 334.474 534.75C334.328 535.158 334.255 535.605 334.255 536.092C334.255 536.583 334.328 537.032 334.474 537.44C334.623 537.847 334.85 538.174 335.155 538.419C335.463 538.664 335.851 538.787 336.319 538.787ZM342.879 535.347V539.881H341.393V532.244H342.819V533.487H342.914C343.09 533.083 343.365 532.758 343.739 532.513C344.117 532.268 344.593 532.145 345.166 532.145C345.686 532.145 346.142 532.254 346.533 532.473C346.924 532.689 347.228 533.01 347.443 533.438C347.658 533.865 347.766 534.394 347.766 535.023V539.881H346.28V535.202C346.28 534.649 346.135 534.216 345.847 533.905C345.559 533.59 345.163 533.433 344.659 533.433C344.314 533.433 344.008 533.507 343.739 533.656C343.474 533.805 343.264 534.024 343.108 534.313C342.955 534.598 342.879 534.942 342.879 535.347ZM355.342 534.109L353.995 534.347C353.938 534.175 353.849 534.011 353.726 533.855C353.607 533.699 353.445 533.572 353.239 533.472C353.034 533.373 352.777 533.323 352.468 533.323C352.048 533.323 351.696 533.418 351.415 533.607C351.133 533.792 350.992 534.032 350.992 534.327C350.992 534.583 351.086 534.788 351.275 534.944C351.464 535.1 351.769 535.227 352.19 535.327L353.403 535.605C354.106 535.768 354.629 536.018 354.974 536.356C355.319 536.694 355.491 537.133 355.491 537.673C355.491 538.131 355.359 538.538 355.093 538.896C354.832 539.251 354.465 539.529 353.995 539.732C353.527 539.934 352.986 540.035 352.369 540.035C351.514 540.035 350.816 539.853 350.276 539.488C349.736 539.12 349.404 538.598 349.282 537.922L350.718 537.703C350.808 538.078 350.992 538.361 351.27 538.553C351.549 538.742 351.912 538.837 352.359 538.837C352.846 538.837 353.236 538.736 353.527 538.533C353.819 538.328 353.965 538.078 353.965 537.783C353.965 537.544 353.875 537.344 353.696 537.181C353.521 537.019 353.251 536.896 352.886 536.813L351.593 536.53C350.881 536.367 350.354 536.109 350.013 535.754C349.674 535.4 349.505 534.951 349.505 534.407C349.505 533.956 349.631 533.562 349.883 533.224C350.135 532.886 350.483 532.622 350.927 532.433C351.371 532.241 351.88 532.145 352.454 532.145C353.279 532.145 353.928 532.324 354.402 532.682C354.876 533.037 355.19 533.512 355.342 534.109Z" fill="#636369"/>
<rect x="178" y="531.381" width="6" height="6" rx="3" fill="#F9DD88"/>
<rect x="123.5" y="510.951" width="372" height="47" rx="3.5" stroke="black"/>
<rect x="-1" y="1" width="421" height="75" rx="7" transform="matrix(-1 0 0 1 519 491.451)" stroke="#E1E8F2" stroke-width="2" stroke-dasharray="8 8"/>
<rect x="-2" y="2" width="447" height="99.2824" rx="6" transform="matrix(-1 0 0 1 531 478.451)" stroke="#121212" stroke-width="4"/>
</svg>
