<svg xmlns="http://www.w3.org/2000/svg" width="608" height="561" fill="none" xmlns:v="https://vecta.io/nano"><g stroke="#97969c" stroke-dasharray="4 4"><path d="M48.496-31.321v78.64m0 544.473v-280.31m0-65.742V97.522M150.688-30.944l-.001 402.045m0 220.516V395.774M252.379-31.133V133.66m0 457.954v-81.246m0-293.993v244.394M355.07-30.944v90.743m0 531.811V84.102M457.261-31.131l.001 373.693m0 249.057V425.634M559.453-31.323v183.828m0 439.102V288.589m0-90.065v72.831"/><path d="M608 487.288H277.773M0 487.288h228.393M608 383.495H495.737M0 383.495h138.654m278.878 0H163.326M608 175.91h-25.672M0 175.91h211.292m80.708 0h242.642M608 279.703h-39.48m-568.52 0h15.322m65.323 0H550.88M608 72.117H368.442M0 72.117h25.121m48.339 0h269.018"/><path d="M252.379 511.269l-10.182-13.818-13.818-10.182 13.818-10.182 10.182-13.818 10.182 13.818 13.818 10.182-13.818 10.182-10.182 13.818zM48.52 96.035L38.337 82.217 24.52 72.035l13.818-10.182L48.52 48.035l10.182 13.818L72.52 72.035 58.702 82.217 48.52 96.035zm510.878 103.73l-10.182-13.818-13.818-10.182 13.818-10.182 10.182-13.818 10.183 13.818 13.817 10.182-13.817 10.182-10.183 13.818zM48.531 311.619l-13.576-18.424-18.424-13.576 18.424-13.577 13.576-18.423 13.577 18.423 18.423 13.577-18.423 13.576-13.577 18.424zm408.715 111.906l-16.97-23.03-23.03-16.97 23.03-16.971 16.97-23.029 16.971 23.029 23.029 16.971-23.029 16.97-16.971 23.03zm-204.867-207.61l-16.971-23.029-23.029-16.971 23.029-16.97 16.971-23.03 16.97 23.03 23.03 16.97-23.03 16.971-16.97 23.029z"/><circle cx="150.754" cy="383.495" r="12" transform="rotate(180 150.754 383.495)"/><circle cx="559.453" cy="279.703" r="8" transform="rotate(180 559.453 279.703)"/><circle cx="355.402" cy="72.117" r="12" transform="rotate(180 355.402 72.117)"/></g><g transform="matrix(-1 0 0 1 501.889 73.6403)"><rect x="-2" y="2" width="441.955" height="422.315" rx="6" fill="#121212"/><rect x="-2" y="2" width="441.955" height="422.315" rx="6" stroke="#121212" stroke-width="4"/></g><g transform="matrix(-1 0 0 1 520.825 60.7211)"><rect x="-2" y="2" width="441.12" height="419.085" rx="6" fill="#f5f6f8"/><rect x="-2" y="2" width="441.12" height="419.085" rx="6" stroke="#121212" stroke-width="4"/></g><rect x="91.786" y="73.639" width="422" height="38" rx="4" fill="#fff"/><rect x="108.786" y="87.639" width="10" height="10" rx="5" fill="#eb5757"/><rect x="126.786" y="87.639" width="10" height="10" rx="5" fill="#f2c94c"/><rect x="144.786" y="87.639" width="10" height="10" rx="5" fill="#27ae60"/><g fill="#e7edf5"><path d="M488.224 86.639a1 1 0 1 0-2 0h2zm-2 12a1 1 0 1 0 2 0h-2zm0-12v12h2v-12h-2z"/><path d="M493.224 93.639a1 1 0 1 0 0-2v2zm-12-2a1 1 0 1 0 0 2v-2zm12 0h-12v2h12v-2z"/></g><rect x="-1" y="1" width="419" height="345" rx="7" transform="matrix(-1 0 0 1 510.786 124.639)" fill="#f5f6f8"/><path d="M145.332 165.639v-5.706l-.144-2.322h.18l.72 2.358 1.818 4.842h3.276l1.818-4.842.702-2.358h.198l-.144 2.322v5.706h2.7v-12.06h-3.798l-2.016 5.634-.954 3.096h-.18l-.972-3.096-2.106-5.634h-3.798v12.06h2.7zm17.397.18c2.592 0 4.248-1.134 4.248-3.06v-.18h-2.664v.108c0 .558-.468.792-1.548.792-1.476 0-1.98-.504-2.034-1.764h6.21a8.16 8.16 0 0 0 .126-1.332c0-2.358-1.602-3.978-4.32-3.978-2.826 0-4.554 1.836-4.554 4.734 0 2.862 1.422 4.68 4.536 4.68zm-.072-7.2c1.26 0 1.872.522 1.818 1.458h-3.726c.108-.954.612-1.458 1.908-1.458zm10.328 7.2c2.502 0 3.888-1.08 3.888-2.772 0-1.476-.792-2.34-2.7-2.7l-1.656-.342c-1.08-.216-1.242-.342-1.242-.774s.252-.666 1.332-.666c1.152 0 1.404.324 1.404.918v.252h2.574v-.252c0-2.034-1.692-3.078-3.906-3.078-2.574 0-3.942 1.188-3.942 2.862s.972 2.43 2.754 2.754l1.368.252c1.206.216 1.458.324 1.458.81 0 .45-.18.612-1.278.612-1.314 0-1.71-.144-1.71-.81v-.378h-2.574v.054c0 2.196 1.386 3.258 4.23 3.258zm9.628 0c2.502 0 3.888-1.08 3.888-2.772 0-1.476-.792-2.34-2.7-2.7l-1.656-.342c-1.08-.216-1.242-.342-1.242-.774s.252-.666 1.332-.666c1.152 0 1.404.324 1.404.918v.252h2.574v-.252c0-2.034-1.692-3.078-3.906-3.078-2.574 0-3.942 1.188-3.942 2.862s.972 2.43 2.754 2.754l1.368.252c1.206.216 1.458.324 1.458.81 0 .45-.18.612-1.278.612-1.314 0-1.71-.144-1.71-.81v-.378h-2.574v.054c0 2.196 1.386 3.258 4.23 3.258zm8.187 0c1.674 0 2.592-.738 3.078-1.404h.108v1.224h2.502v-5.364c0-2.412-1.404-3.87-4.068-3.87-2.556 0-4.23 1.422-4.23 3.582v.198h2.574v-.198c0-.918.432-1.224 1.53-1.224 1.062 0 1.638.198 1.638 1.26v.288l-3.096.468c-1.872.288-2.88 1.152-2.88 2.556 0 1.638 1.242 2.484 2.844 2.484zm-.27-2.7c0-.378.252-.558.81-.648l2.592-.396c0 1.404-1.134 1.692-2.232 1.692-.792 0-1.17-.162-1.17-.648zm11.556 1.566c1.368 0 2.322-.612 2.718-1.314h.108v1.404c0 1.404-.288 1.728-1.71 1.728-1.548 0-1.818-.234-1.818-1.17h-2.682c0 2.304 1.584 3.546 4.41 3.546 2.916 0 4.482-1.296 4.482-4.248v-8.046h-2.502v1.314h-.09c-.486-.99-1.512-1.494-2.808-1.494-2.574 0-3.942 1.638-3.942 4.158s1.332 4.122 3.834 4.122zm-1.152-4.122c0-1.278.45-1.872 1.998-1.872 1.296 0 1.98.45 1.98 1.602v.54c0 1.152-.702 1.602-1.998 1.602-1.53 0-1.98-.594-1.98-1.872zm12.958 5.256c2.592 0 4.248-1.134 4.248-3.06v-.18h-2.664v.108c0 .558-.468.792-1.548.792-1.476 0-1.98-.504-2.034-1.764h6.21a8.16 8.16 0 0 0 .126-1.332c0-2.358-1.602-3.978-4.32-3.978-2.826 0-4.554 1.836-4.554 4.734 0 2.862 1.422 4.68 4.536 4.68zm-.072-7.2c1.26 0 1.872.522 1.818 1.458h-3.726c.108-.954.612-1.458 1.908-1.458zm10.328 7.2c2.502 0 3.888-1.08 3.888-2.772 0-1.476-.792-2.34-2.7-2.7l-1.656-.342c-1.08-.216-1.242-.342-1.242-.774s.252-.666 1.332-.666c1.152 0 1.404.324 1.404.918v.252h2.574v-.252c0-2.034-1.692-3.078-3.906-3.078-2.574 0-3.942 1.188-3.942 2.862s.972 2.43 2.754 2.754l1.368.252c1.206.216 1.458.324 1.458.81 0 .45-.18.612-1.278.612-1.314 0-1.71-.144-1.71-.81v-.378h-2.574v.054c0 2.196 1.386 3.258 4.23 3.258z" fill="#000"/><g clip-path="url(#A)"><path d="M120.064 155.972a.61.61 0 0 1-.611.611h-3.056a.61.61 0 1 1 0-1.222h3.056a.61.61 0 0 1 .611.611zm-1.222 3.056a.61.61 0 0 1-.611.611h-1.834a.61.61 0 1 1 0-1.222h1.834a.61.61 0 0 1 .611.611zm-1.223 3.055a.61.61 0 0 1-.611.612h-.611a.61.61 0 1 1 0-1.223h.611a.61.61 0 0 1 .611.611z" fill="#55acee"/><path d="M135.525 163.917c-.382 1.35-1.787 2.444-3.137 2.444h-12.222c-1.35 0-2.134-1.094-1.752-2.444l2.077-7.334c.382-1.349 1.787-2.444 3.137-2.444h12.222c1.35 0 2.135 1.095 1.752 2.444l-2.077 7.334z" fill="#ccd6dd"/><g fill="#99aab5"><path d="M126.38 159.417l-7.915 5.691c-.021.017-.033.038-.052.055.109.349.317.638.606.846.022-.014.045-.02.066-.036l7.915-5.692c.306-.239.416-.625.245-.864s-.558-.239-.865 0zm8.44 5.746c-.01-.017-.01-.038-.021-.055l-4.69-5.691c-.172-.239-.558-.239-.865 0s-.416.625-.245.864l4.691 5.692c.011.015.031.022.044.036a3.69 3.69 0 0 0 1.086-.846z"/><path d="M137.602 156.583c.383-1.349-.402-2.444-1.752-2.444h-12.222c-1.35 0-2.754 1.095-3.137 2.444l-.012.046 5.381 5.165c.997.968 2.315.901 3.499.227l8.083-4.867.16-.571z"/></g><path d="M135.85 154.139h-12.222c-.964 0-1.949.563-2.577 1.374l5.632 5.374c.458.439 1.488.445 2.235 0l8.735-5.358c-.163-.82-.832-1.39-1.803-1.39z" fill="#e1e8ed"/></g><path stroke="#dfe7f2" stroke-width="2" d="M115.786 185.661h364.146"/><rect x="449.935" y="144.639" width="30" height="30" rx="4" fill="#fff"/><g fill="#b3c2d8"><path d="M465.935 153.639a1 1 0 1 0-2 0h2zm-2 12a1 1 0 1 0 2 0h-2zm0-12v12h2v-12h-2z"/><path d="M470.935 160.639a1 1 0 1 0 0-2v2zm-12-2a1 1 0 1 0 0 2v-2zm12 0h-12v2h12v-2z"/></g><rect x="115.786" y="227.682" width="170" height="122" rx="8" fill="#f1eaff"/><path d="M130.453 316.463l3.408 2.082c3.407 2.082 10.222 6.246 17.038 3.399s13.63-12.705 20.445-12.445 13.63 10.638 20.445 15.764 13.631 4.999 20.446 3.355 13.63-4.806 20.445-11.162 13.631-15.905 20.446-22.759" stroke="#c6a9ff" stroke-width="2" stroke-linecap="round"/><path d="M142.61 283.096c6.2 0 10.36-2.52 10.36-7.68 0-3.84-2.24-6.24-5.92-6.76v-.16c3.4-.48 4.96-2.76 4.96-5.84 0-4.68-3.6-7.16-9.64-7.16-6.72 0-10.32 3.48-10.32 8.6v.36h4.24v-.32c0-3.36 1.4-4.68 6.04-4.68 3.76 0 5.36 1.08 5.36 3.88s-1.36 3.68-4.88 3.68h-4.76v3.6h5.36c3.72 0 5.2 1 5.2 4.36 0 3.12-1.68 4.16-5.92 4.16-5.28 0-6.4-1.32-6.4-4.68v-.6h-4.24v.64c0 5.12 2.92 8.6 10.56 8.6zm23.823 0c7.4 0 10.72-3.6 10.72-9.16 0-5.4-3.48-8.6-9.2-8.6-3.52 0-6.04 1.08-7.44 2.24h-.12l.64-7.8h14.68v-3.88h-18.48l-.92 14.24 3.8.6c1.32-.76 3.24-1.68 6.52-1.68 4.52 0 6.24 1.4 6.24 5 0 3.76-1.56 5.08-6.28 5.08-4.44 0-6.44-1.04-6.44-4.04v-.24h-4.28v.24c0 4.92 3.6 8 10.56 8zm25.473 0c7.2 0 11.6-5.32 11.6-13.8s-4.4-13.8-11.6-13.8-11.56 5.32-11.56 13.8 4.36 13.8 11.56 13.8zm0-4.16c-4.76 0-6.96-2.56-6.96-9.64s2.2-9.64 6.96-9.64 7 2.56 7 9.64-2.24 9.64-7 9.64zm-50.43-63.114c2.66 0 3.668-1.344 3.668-2.842 0-1.372-.672-2.408-2.646-2.786l-1.666-.322c-1.092-.21-1.344-.35-1.344-.952 0-.588.378-.854 1.582-.854 1.386 0 1.792.322 1.792 1.302v.154h2.072v-.112c0-1.862-1.12-3.248-3.794-3.248-2.688 0-3.738 1.414-3.738 2.842 0 1.456.756 2.366 2.548 2.674l1.652.294c1.316.224 1.456.448 1.456 1.078s-.294.868-1.484.868c-1.694 0-2.072-.294-2.072-1.33v-.14h-2.058v.182c0 2.072 1.274 3.192 4.032 3.192zm8.39 0c2.016 0 3.304-.882 3.304-2.38v-.14h-2.072v.084c0 .434-.364.616-1.204.616-1.148 0-1.54-.392-1.582-1.372h4.83c.042-.238.098-.644.098-1.036 0-1.834-1.246-3.094-3.36-3.094-2.198 0-3.542 1.428-3.542 3.682 0 2.226 1.106 3.64 3.528 3.64zm-.056-5.6c.98 0 1.456.406 1.414 1.134h-2.898c.084-.742.476-1.134 1.484-1.134zm7.082 5.46v-3.99c0-1.064.434-1.386 1.442-1.386 1.064 0 1.386.35 1.386 1.33v4.046h2.1v-4.466c0-1.498-.784-2.716-2.618-2.716-1.232 0-1.988.574-2.366 1.372h-.084v-1.232h-1.946v7.042h2.086zm9.911.028c.49 0 1.036-.07 1.372-.14v-1.75h-.868c-.91 0-1.12-.07-1.12-.686v-2.758h1.988v-1.736h-1.988v-1.638h-1.652l-.392 1.638h-1.176v1.736h1.12v2.996c0 1.666.882 2.338 2.716 2.338z" fill="#000"/><g clip-path="url(#B)"><path d="M132.005 210.659l-4.202-1.556-1.569-5.143c-.061-.198-.244-.334-.452-.334a.47.47 0 0 0-.451.334l-1.569 5.143-4.203 1.556c-.185.069-.308.245-.308.443s.123.374.308.443l4.201 1.555 1.569 5.299c.06.201.244.338.453.338a.47.47 0 0 0 .453-.338l1.57-5.3 4.201-1.555a.47.47 0 0 0 .308-.442c0-.198-.124-.374-.309-.443z" fill="#ffac33"/><path d="M122.562 215.854l-1.093-.405-.425-1.558a.47.47 0 0 0-.455-.348.47.47 0 0 0-.456.348l-.425 1.558-1.092.404c-.186.069-.309.246-.309.443a.47.47 0 0 0 .309.443l1.086.403.429 1.71a.47.47 0 0 0 .458.357c.216 0 .405-.147.458-.357l.428-1.711 1.087-.402a.47.47 0 0 0 .308-.443.47.47 0 0 0-.308-.442zm-2.049-10.23l-1.116-.413-.414-1.117a.47.47 0 0 0-.443-.308.47.47 0 0 0-.443.308l-.413 1.117-1.117.413c-.185.069-.308.246-.308.443s.123.374.308.443l1.117.413.413 1.117c.069.185.246.308.443.308s.374-.123.443-.308l.413-1.117 1.117-.413a.47.47 0 0 0 .308-.443.47.47 0 0 0-.308-.443z" fill="#ffcc4d"/></g><path d="M335.242 215.682c3.01 0 4.858-1.75 4.858-4.69s-1.848-4.69-4.858-4.69h-3.584v9.38h3.584zm-.028-7.49c1.904 0 2.632.574 2.632 2.8s-.728 2.8-2.632 2.8h-1.456v-5.6h1.456zm9.754 7.63c2.016 0 3.304-.882 3.304-2.38v-.14H346.2v.084c0 .434-.364.616-1.204.616-1.148 0-1.54-.392-1.582-1.372h4.83c.042-.238.098-.644.098-1.036 0-1.834-1.246-3.094-3.36-3.094-2.198 0-3.542 1.428-3.542 3.682 0 2.226 1.106 3.64 3.528 3.64zm-.056-5.6c.98 0 1.456.406 1.414 1.134h-2.898c.084-.742.476-1.134 1.484-1.134zm7.096 5.46v-9.38h-2.086v9.38h2.086zm3.825-7.84v-1.54h-2.086l.028 1.54h2.058zm.042 7.84v-7.042h-2.1v7.042h2.1zm6.313 0l2.744-7.042h-2.296l-1.68 5.026h-.154l-1.68-5.026h-2.338l2.73 7.042h2.674zm6.854.14c2.016 0 3.304-.882 3.304-2.38v-.14h-2.072v.084c0 .434-.364.616-1.204.616-1.148 0-1.54-.392-1.582-1.372h4.83c.042-.238.098-.644.098-1.036 0-1.834-1.246-3.094-3.36-3.094-2.198 0-3.542 1.428-3.542 3.682 0 2.226 1.106 3.64 3.528 3.64zm-.056-5.6c.98 0 1.456.406 1.414 1.134h-2.898c.084-.742.476-1.134 1.484-1.134zm7.083 5.46v-4.41c0-.77.308-.994.952-.994.658 0 .896.238.896.994v.378h2.086v-.644c0-1.414-.546-2.506-2.016-2.506-.994 0-1.624.56-1.974 1.274h-.084v-1.134h-1.946v7.042h2.086zm8.599.14c2.016 0 3.304-.882 3.304-2.38v-.14H385.9v.084c0 .434-.364.616-1.204.616-1.148 0-1.54-.392-1.582-1.372h4.83c.042-.238.098-.644.098-1.036 0-1.834-1.246-3.094-3.36-3.094-2.198 0-3.542 1.428-3.542 3.682 0 2.226 1.106 3.64 3.528 3.64zm-.056-5.6c.98 0 1.456.406 1.414 1.134h-2.898c.084-.742.476-1.134 1.484-1.134zm7.878 5.6c1.036 0 1.834-.42 2.198-1.176h.07v1.036h1.946v-9.38h-2.086v3.262h-.084c-.322-.588-.966-1.064-2.044-1.064-1.918 0-3.052 1.442-3.052 3.668 0 2.212 1.064 3.654 3.052 3.654zm-.966-3.654c0-1.288.336-1.876 1.554-1.876.994 0 1.54.35 1.54 1.302v1.134c0 .952-.546 1.302-1.54 1.302-1.218 0-1.554-.588-1.554-1.862z" fill="#000"/><g clip-path="url(#C)"><path d="M320.389 218.265c0 1.043-3.778 1.043-3.778 0v-4.722a1.89 1.89 0 0 1 1.889-1.889 1.89 1.89 0 0 1 1.889 1.889v4.722z" fill="#c1694f"/><path d="M314.722 204.098a3.78 3.78 0 0 0-3.778 3.778v5.667h7.556v-5.667a3.78 3.78 0 0 0-3.778-3.778z" fill="#292f33"/><path d="M319.444 211.541c0 .584-.502 1.057-1.082 1.057h-7.279c-.581 0-1.083-.473-1.083-1.057v-4.969c0-.584.502-1.057 1.083-1.057h7.279c.58 0 1.082.473 1.082 1.057v4.969z" fill="#ccd6dd"/><path d="M319.444 206.572c0-.584-.502-1.057-1.082-1.057h-7.279c-.581 0-1.083.473-1.083 1.057v.67l2.304 2.316-2.257 2.269a1.06 1.06 0 0 0 .281.465l2.348-2.36 1.137 1.142c.497.5 1.307.5 1.804 0l1.146-1.149 2.353 2.367c.132-.127.228-.287.282-.465l-2.263-2.275 2.309-2.315v-.665z" fill="#99aab5"/><path d="M318.362 205.515h-7.279c-.55 0-1.026.428-1.073.97l3.97 3.965c.411.413 1.075.397 1.485-.016l3.972-3.941c-.045-.547-.523-.978-1.075-.978z" fill="#e1e8ed"/><path d="M322.278 204.098h-7.555a3.78 3.78 0 0 1 3.777 3.778v5.667h7.556v-5.667a3.78 3.78 0 0 0-3.778-3.778z" fill="#99aab5"/><path d="M322.278 203.154h-1.889c-.522 0-.945.423-.945.944v5.667c0 .521.423.944.945.944s.944-.423.944-.944v-3.778h.945c.521 0 .944-.423.944-.944v-.945c0-.521-.423-.944-.944-.944z" fill="#dd2e44"/></g><rect x="310" y="227.682" width="170" height="122" rx="8" fill="#eaeeff"/><path d="M324.664 316.463l3.612 2.082c3.612 2.082 10.835 6.246 18.059 3.399s14.447-12.706 21.671-12.446 14.447 10.638 21.671 15.764 14.447 5 21.671 3.356 14.447-4.807 21.671-11.163 14.447-15.905 21.671-22.759" stroke="#8199fd" stroke-width="2" stroke-linecap="round"/><path d="M336.824 283.096c6.2 0 10.36-2.52 10.36-7.68 0-3.84-2.24-6.24-5.92-6.76v-.16c3.4-.48 4.96-2.76 4.96-5.84 0-4.68-3.6-7.16-9.64-7.16-6.72 0-10.32 3.48-10.32 8.6v.36h4.24v-.32c0-3.36 1.4-4.68 6.04-4.68 3.76 0 5.36 1.08 5.36 3.88s-1.36 3.68-4.88 3.68h-4.76v3.6h5.36c3.72 0 5.2 1 5.2 4.36 0 3.12-1.68 4.16-5.92 4.16-5.28 0-6.4-1.32-6.4-4.68v-.6h-4.24v.64c0 5.12 2.92 8.6 10.56 8.6zm21.475-.4v-26.8h-3.8c-1.12 2.4-2.6 3.32-5.12 3.32h-1.04v3.08h5.64v20.4h4.32zm16.141.4c7.2 0 11.6-5.32 11.6-13.8s-4.4-13.8-11.6-13.8-11.56 5.32-11.56 13.8 4.36 13.8 11.56 13.8zm0-4.16c-4.76 0-6.96-2.56-6.96-9.64s2.2-9.64 6.96-9.64 7 2.56 7 9.64-2.24 9.64-7 9.64z" fill="#000"/><rect x="116" y="365.639" width="364" height="93" rx="8" fill="#fff"/><g fill="#eef1f7"><rect x="142.766" y="388.639" width="79" height="10" rx="5"/><rect x="242" y="388.639" width="203" height="10" rx="5"/><rect x="143" y="422.639" width="258" height="10" rx="5"/></g><rect x="-1" y="1" width="419" height="345" rx="7" transform="matrix(-1 0 0 1 510.786 124.639)" stroke="#e1e8f2" stroke-width="2" stroke-dasharray="8 8"/><defs><clipPath id="A"><path fill="#fff" transform="translate(115.786 148.639)" d="M0 0h22v22H0z"/></clipPath><clipPath id="B"><path fill="#fff" transform="translate(115.786 202.682)" d="M0 0h17v17H0z"/></clipPath><clipPath id="C"><path fill="#fff" transform="translate(310 202.682)" d="M0 0h17v17H0z"/></clipPath></defs></svg>