<svg width="16" height="16" viewBox="0 0 16 16" fill="none" xmlns="http://www.w3.org/2000/svg">
<g clip-path="url(#clip0_5932_34896)">
<mask id="mask0_5932_34896" style="mask-type:alpha" maskUnits="userSpaceOnUse" x="2" y="2" width="24" height="24">
<rect x="2" y="2" width="24" height="24" fill="#C4C4C4"/>
</mask>
<g mask="url(#mask0_5932_34896)">
<path d="M8.0002 9.5002L8.7752 7.7752L10.5002 7.0002L8.7752 6.2252L8.0002 4.5002L7.2252 6.2252L5.5002 7.0002L7.2252 7.7752L8.0002 9.5002ZM2.7627 13.2377V4.0877C2.7627 3.7127 2.88986 3.39803 3.1442 3.1437C3.3982 2.8897 3.7127 2.7627 4.0877 2.7627H11.9127C12.2877 2.7627 12.6024 2.8897 12.8567 3.1437C13.1107 3.39803 13.2377 3.7127 13.2377 4.0877V9.9127C13.2377 10.2877 13.1107 10.6022 12.8567 10.8562C12.6024 11.1105 12.2877 11.2377 11.9127 11.2377H4.7627L2.7627 13.2377Z" fill="white"/>
</g>
</g>
<rect x="0.5" y="0.5" width="15" height="15" rx="1.5" stroke="white"/>
<defs>
<clipPath id="clip0_5932_34896">
<rect width="12" height="12" fill="white" transform="translate(2 2)"/>
</clipPath>
</defs>
</svg>
