<svg width="24" height="25" viewBox="0 0 24 25" fill="none" xmlns="http://www.w3.org/2000/svg">
<mask id="mask0_6237_38975" style="mask-type:alpha" maskUnits="userSpaceOnUse" x="0" y="0" width="24" height="25">
<rect y="0.234863" width="24" height="24" fill="#D9D9D9"/>
</mask>
<g mask="url(#mask0_6237_38975)">
<path d="M3 20.2349V4.23486L17.3 10.2349H17C16.4167 10.2349 15.8667 10.3015 15.35 10.4349C14.8333 10.5682 14.3333 10.7515 13.85 10.9849L5 7.23486V10.7349L11 12.2349L5 13.7349V17.2349L10.4 14.9349C10.2667 15.3182 10.1667 15.6972 10.1 16.0719C10.0333 16.4472 10 16.8349 10 17.2349V17.2849L3 20.2349ZM17 22.2349C15.6167 22.2349 14.4377 21.7475 13.463 20.7729C12.4877 19.7975 12 18.6182 12 17.2349C12 15.8515 12.4877 14.6722 13.463 13.6969C14.4377 12.7222 15.6167 12.2349 17 12.2349C18.3833 12.2349 19.5627 12.7222 20.538 13.6969C21.5127 14.6722 22 15.8515 22 17.2349C22 18.6182 21.5127 19.7975 20.538 20.7729C19.5627 21.7475 18.3833 22.2349 17 22.2349ZM18.65 19.5849L19.35 18.8849L17.5 17.0349V14.2349H16.5V17.4349L18.65 19.5849Z" fill="#1C1B1F"/>
</g>
</svg>
