<svg width="16" height="16" viewBox="0 0 16 16" fill="none" xmlns="http://www.w3.org/2000/svg">
<path d="M9.33366 15.0007L7.46699 12.6673H4.00033C3.82351 12.6673 3.65395 12.5971 3.52892 12.4721C3.4039 12.347 3.33366 12.1775 3.33366 12.0007V4.73598C3.33366 4.55917 3.4039 4.3896 3.52892 4.26458C3.65395 4.13956 3.82351 4.06932 4.00033 4.06932H14.667C14.8438 4.06932 15.0134 4.13956 15.1384 4.26458C15.2634 4.3896 15.3337 4.55917 15.3337 4.73598V12.0007C15.3337 12.1775 15.2634 12.347 15.1384 12.4721C15.0134 12.5971 14.8438 12.6673 14.667 12.6673H11.2003L9.33366 15.0007ZM10.5597 11.334H14.0003V5.40265H4.66699V11.334H8.10766L9.33366 12.866L10.5597 11.334ZM1.33366 1.33398H12.667V2.66732H2.00033V10.0007H0.666992V2.00065C0.666992 1.82384 0.73723 1.65427 0.862254 1.52925C0.987279 1.40422 1.15685 1.33398 1.33366 1.33398Z" fill="white"/>
</svg>
