<svg xmlns="http://www.w3.org/2000/svg" xmlns:xlink="http://www.w3.org/1999/xlink" width="608" height="561" fill="none" xmlns:v="https://vecta.io/nano"><g stroke="#97969c" stroke-dasharray="4 4"><path d="M559.504-31.321v78.64m0 544.473v-280.31m0-65.742V97.522M457.312-30.944l.001 402.045m0 220.516V395.774M355.621-31.133V133.66m0 457.954v-81.246m0-293.993v244.394M252.93-30.944V59.8m0 531.811V84.102M150.739-31.131l-.001 373.692m0 249.057V425.635M48.547-31.323v183.828m0 439.102V288.589m0-90.065v72.831"/><path d="M0 487.289h330.227m277.773 0H379.607M0 383.496h112.263m495.737 0H469.346m-278.878 0h254.206M0 175.91h25.672m582.328 0H396.708m-80.708 0H73.358M0 279.703h39.48m568.521 0h-15.322m-65.324 0H57.12M0 72.117h239.558m368.442 0h-25.121m-48.339 0H265.522"/><use xlink:href="#B"/><path d="M559.48 96.035l10.183-13.818 13.817-10.182-13.817-10.182-10.183-13.818-10.182 13.818-13.818 10.182 13.818 10.182 10.182 13.818z"/><use xlink:href="#B" x="-307.019" y="-311.504"/><path d="M559.469 311.619l13.576-18.424 18.424-13.576-18.424-13.577-13.576-18.423-13.577 18.423-18.423 13.577 18.423 13.576 13.577 18.424zM150.754 423.525l16.97-23.03 23.03-16.97-23.03-16.971-16.97-23.029-16.971 23.029-23.029 16.971 23.029 16.97 16.971 23.03zm204.867-207.609l16.971-23.03 23.029-16.97-23.029-16.971-16.971-23.029-16.97 23.029-23.03 16.971 23.03 16.97 16.97 23.03z"/><circle r="12" transform="matrix(1 0 0 -1 457.246 383.496)"/><circle r="8" transform="matrix(1 0 0 -1 48.5469 279.703)"/><circle r="12" transform="matrix(1 0 0 -1 252.598 72.1167)"/></g><g transform="matrix(-1 0 0 1 543.328 73.6404)"><rect x="-2" y="2" width="441.955" height="422.315" rx="6" fill="#121212"/><rect x="-2" y="2" width="441.955" height="422.315" rx="6" stroke="#121212" stroke-width="4"/></g><g transform="matrix(-1 0 0 1 525.039 60.7212)"><rect x="-2" y="2" width="441.12" height="419.085" rx="6" fill="#f5f6f8"/><rect x="-2" y="2" width="441.12" height="419.085" rx="6" stroke="#121212" stroke-width="4"/></g><rect x="96" y="73.639" width="422" height="38" rx="4" fill="#fff"/><rect x="113" y="87.639" width="10" height="10" rx="5" fill="#eb5757"/><rect x="131" y="87.639" width="10" height="10" rx="5" fill="#f2c94c"/><rect x="149" y="87.639" width="10" height="10" rx="5" fill="#27ae60"/><g fill="#e7edf5"><path d="M492.438 86.639a1 1 0 1 0-2 0h2zm-2 12a1 1 0 1 0 2 0h-2zm0-12v12h2v-12h-2z"/><path d="M497.437 93.639a1 1 0 1 0 .001-2l-.001 2zm-11.999-2a1 1 0 1 0-.001 2l.001-2zm12 0h-12l-.001 2h12l.001-2z"/></g><rect x="-1" y="1" width="419" height="345" rx="7" transform="matrix(-1 0 0 1 514.572 124.662)" fill="#f5f6f8"/><path d="M148.259 162.842c3.564 0 5.49-1.872 5.49-4.86v-.162h-2.88v.09c0 1.728-.72 2.322-2.628 2.322-2.034 0-2.88-.738-2.88-3.6s.846-3.6 2.88-3.6c1.908 0 2.628.594 2.628 2.322v.09h2.88v-.162c0-2.988-1.926-4.86-5.49-4.86-3.618 0-5.778 2.448-5.778 6.21s2.16 6.21 5.778 6.21zm10.159-.18v-5.112c0-1.368.558-1.8 1.854-1.8 1.368 0 1.782.45 1.782 1.71v5.202h2.7v-5.742c0-1.926-.972-3.492-3.312-3.492-1.44 0-2.43.738-2.916 1.584h-.108v-4.41h-2.682v12.06h2.682zm10.925.18c1.674 0 2.592-.738 3.078-1.404h.108v1.224h2.502v-5.364c0-2.412-1.404-3.87-4.068-3.87-2.556 0-4.23 1.422-4.23 3.582v.198h2.574v-.198c0-.918.432-1.224 1.53-1.224 1.062 0 1.638.198 1.638 1.26v.288l-3.096.468c-1.872.288-2.88 1.152-2.88 2.556 0 1.638 1.242 2.484 2.844 2.484zm-.27-2.7c0-.378.252-.558.81-.648l2.592-.396c0 1.404-1.134 1.692-2.232 1.692-.792 0-1.17-.162-1.17-.648zm10.781 2.52v-5.13c0-1.368.558-1.782 1.854-1.782 1.368 0 1.782.45 1.782 1.71v5.202h2.7v-5.742c0-1.926-1.008-3.492-3.366-3.492-1.584 0-2.556.738-3.042 1.764h-.108v-1.584h-2.502v9.054h2.682zm11.139 0v-5.13c0-1.368.558-1.782 1.854-1.782 1.368 0 1.782.45 1.782 1.71v5.202h2.7v-5.742c0-1.926-1.008-3.492-3.366-3.492-1.584 0-2.556.738-3.042 1.764h-.108v-1.584h-2.502v9.054h2.682zm12.617.18c2.592 0 4.248-1.134 4.248-3.06v-.18h-2.664v.108c0 .558-.468.792-1.548.792-1.476 0-1.98-.504-2.034-1.764h6.21a8.16 8.16 0 0 0 .126-1.332c0-2.358-1.602-3.978-4.32-3.978-2.826 0-4.554 1.836-4.554 4.734 0 2.862 1.422 4.68 4.536 4.68zm-.072-7.2c1.26 0 1.872.522 1.818 1.458h-3.726c.108-.954.612-1.458 1.908-1.458zm8.943 7.02v-12.06h-2.682v12.06h2.682zm6.143.18c2.502 0 3.888-1.08 3.888-2.772 0-1.476-.792-2.34-2.7-2.7l-1.656-.342c-1.08-.216-1.242-.342-1.242-.774s.252-.666 1.332-.666c1.152 0 1.404.324 1.404.918v.252h2.574v-.252c0-2.034-1.692-3.078-3.906-3.078-2.574 0-3.942 1.188-3.942 2.862s.972 2.43 2.754 2.754l1.368.252c1.206.216 1.458.324 1.458.81 0 .45-.18.612-1.278.612-1.314 0-1.71-.144-1.71-.81v-.378h-2.574v.054c0 2.196 1.386 3.258 4.23 3.258z" fill="#000"/><g clip-path="url(#A)"><path d="M133.545 150.022c4.499 4.497 5.714 10.575 2.715 13.572s-9.075 1.783-13.572-2.714c-.153-.153-.293-.311-.438-.468l2.699-2.699c3.498 3.498 7.955 4.714 9.953 2.714s.783-6.455-2.714-9.953l.013.013-.012-.013c-3.998-3.998-9.467-5.011-12.215-2.263-1.33 1.329-1.771 3.296-1.429 5.423-.524-2.496-.092-4.807 1.429-6.327 2.998-2.998 9.074-1.783 13.571 2.715z" fill="#fdd888"/><path d="M127.762 166.44c-.154 0-.307-.047-.439-.141l-3.102-2.225-3.102 2.225a.75.75 0 0 1-.882-.003c-.263-.191-.373-.528-.275-.837l1.157-3.734-3.074-2.166c-.262-.193-.37-.531-.27-.84s.387-.518.712-.52l3.756-.008 1.263-3.64c.103-.308.391-.516.715-.516s.613.208.715.516l1.141 3.64 3.879.008a.75.75 0 0 1 .711.52c.101.309-.008.647-.27.84l-3.074 2.166 1.157 3.734a.75.75 0 0 1-.275.837c-.132.096-.288.144-.443.144z" fill="#ffac33"/></g><rect width="91" height="33" rx="4" transform="matrix(-1 0 0 1 206.905 201.732)" fill="#fff"/><rect x="183.405" y="211.732" width="13" height="13" rx="1.5" stroke="#dfe7f2"/><path d="M142.577 216.224a1.45 1.45 0 0 0-.656-1.093c-.385-.262-.868-.393-1.452-.393-.417 0-.779.066-1.084.199s-.542.308-.711.537a1.27 1.27 0 0 0-.248.77c0 .242.056.451.169.627s.267.323.452.442a3.44 3.44 0 0 0 .607.294l.621.188.995.259a7.65 7.65 0 0 1 .999.323c.341.136.658.315.949.537a2.57 2.57 0 0 1 .706.825c.183.329.274.721.274 1.179 0 .576-.149 1.088-.448 1.536s-.724.8-1.287 1.059-1.238.388-2.034.388c-.762 0-1.421-.121-1.978-.363s-.993-.585-1.308-1.029-.489-.978-.522-1.591h1.541c.03.368.15.674.358.919s.483.423.811.542a3.27 3.27 0 0 0 1.088.174c.435 0 .821-.068 1.159-.204s.61-.331.805-.576.294-.539.294-.87c0-.302-.087-.549-.259-.741s-.399-.351-.691-.477-.615-.237-.979-.333l-1.204-.329c-.815-.222-1.461-.548-1.938-.979s-.711-1.001-.711-1.71a2.54 2.54 0 0 1 .477-1.536c.318-.438.749-.778 1.293-1.02s1.156-.367 1.839-.367c.689 0 1.298.121 1.825.362s.947.576 1.252 1 .464.905.478 1.451h-1.482zm3.317-2.674h1.864l3.241 7.915h.12l3.241-7.915h1.865v10.182h-1.462v-7.368h-.094l-3.003 7.353h-1.213l-3.003-7.358h-.095v7.373h-1.461V213.55zm17.977 2.674c-.053-.47-.271-.835-.656-1.093s-.868-.393-1.452-.393c-.417 0-.778.066-1.083.199s-.542.308-.711.537-.249.482-.249.77c0 .242.056.451.169.627s.267.323.453.442a3.43 3.43 0 0 0 .606.294l.622.188.994.259c.325.08.658.187.999.323a4.01 4.01 0 0 1 .95.537 2.58 2.58 0 0 1 .706.825c.182.329.273.721.273 1.179 0 .576-.149 1.088-.447 1.536s-.725.8-1.288 1.059-1.238.388-2.033.388c-.763 0-1.422-.121-1.979-.363s-.993-.585-1.308-1.029-.488-.978-.522-1.591h1.542c.029.368.149.674.358.919a1.93 1.93 0 0 0 .81.542c.331.116.694.174 1.089.174.434 0 .82-.068 1.158-.204s.61-.331.805-.576.294-.539.294-.87c0-.302-.086-.549-.259-.741s-.399-.351-.691-.477-.615-.237-.979-.333l-1.203-.329c-.816-.222-1.462-.548-1.939-.979s-.711-1.001-.711-1.71a2.54 2.54 0 0 1 .477-1.536c.318-.438.749-.778 1.293-1.02s1.156-.367 1.839-.367c.69 0 1.298.121 1.825.362s.948.576 1.253 1 .464.905.477 1.451h-1.482z" fill="#636369"/><rect x="125.905" y="215.232" width="6" height="6" rx="3" fill="#c6a9ff"/><rect width="142" height="33" rx="4" transform="matrix(-1 0 0 1 364.905 201.732)" fill="#fff"/><rect x="341.405" y="211.732" width="13" height="13" rx="1.5" stroke="#dfe7f2"/><path d="M245.56 213.55v10.182h-1.536V213.55h1.536zm3.465 5.647v4.535h-1.487v-7.637h1.427v1.243h.094c.176-.404.451-.729.826-.974s.853-.368 1.426-.368c.521 0 .977.109 1.368.328a2.19 2.19 0 0 1 .909.964c.216.428.324.957.324 1.586v4.858h-1.487v-4.679c0-.553-.144-.986-.432-1.297s-.685-.473-1.189-.473a1.86 1.86 0 0 0-.919.224c-.266.149-.476.368-.632.656s-.228.63-.228 1.034zm11.239-.412v1.287h-4.514v-1.287h4.514zm2.821 4.947h-1.631l3.664-10.182h1.775l3.664 10.182h-1.63l-2.879-8.333h-.079l-2.884 8.333zm.273-3.988h5.29v1.293h-5.29v-1.293zm8.41 6.851v-10.5h1.452v1.238h.124a4.3 4.3 0 0 1 .373-.552 2.12 2.12 0 0 1 .676-.547c.289-.159.67-.238 1.144-.238.616 0 1.167.156 1.65.467s.864.761 1.139 1.347.418 1.293.418 2.118-.138 1.533-.413 2.123-.653 1.039-1.134 1.357-1.029.473-1.645.473c-.464 0-.844-.078-1.139-.234s-.52-.338-.686-.547a4.14 4.14 0 0 1-.383-.557h-.089v4.052h-1.487zm1.457-6.682c0 .537.078 1.008.234 1.412s.381.721.676.95.656.338 1.084.338c.444 0 .815-.118 1.113-.353s.524-.562.676-.969.234-.867.234-1.378c0-.503-.076-.956-.229-1.357s-.374-.717-.676-.949-.671-.348-1.118-.348c-.431 0-.796.111-1.094.333s-.519.532-.671.929-.229.862-.229 1.392zm7.044 6.682v-10.5h1.452v1.238h.124a4.1 4.1 0 0 1 .373-.552c.162-.209.388-.391.676-.547s.67-.238 1.143-.238c.617 0 1.167.156 1.651.467s.863.761 1.139 1.347.417 1.293.417 2.118-.137 1.533-.412 2.123-.653 1.039-1.134 1.357-1.029.473-1.646.473c-.464 0-.843-.078-1.138-.234s-.52-.338-.686-.547-.294-.394-.383-.557h-.089v4.052h-1.487zm1.457-6.682c0 .537.078 1.008.233 1.412s.382.721.676.95.657.338 1.084.338c.444 0 .816-.118 1.114-.353s.524-.562.676-.969.234-.867.234-1.378c0-.503-.076-.956-.229-1.357s-.374-.717-.676-.949-.671-.348-1.119-.348c-.431 0-.795.111-1.093.333s-.519.532-.672.929-.228.862-.228 1.392zm10.728 3.819V213.55h3.629c.792 0 1.449.144 1.969.432a2.81 2.81 0 0 1 1.168 1.184 3.58 3.58 0 0 1 .388 1.68c0 .626-.131 1.19-.393 1.69s-.649.892-1.173 1.183-1.175.433-1.964.433h-2.495v-1.303h2.356c.501 0 .907-.086 1.218-.258a1.62 1.62 0 0 0 .686-.716c.146-.302.219-.645.219-1.029s-.073-.726-.219-1.024-.376-.532-.691-.701-.722-.254-1.233-.254h-1.929v8.865h-1.536zm13.533-3.167v-4.47h1.492v7.637h-1.462v-1.323h-.08a2.37 2.37 0 0 1-.845 1.019c-.384.269-.863.403-1.437.403-.49 0-.924-.108-1.302-.323s-.67-.542-.885-.97-.318-.956-.318-1.586v-4.857h1.486v4.678c0 .521.144.935.433 1.243s.663.463 1.123.463c.279 0 .556-.07.831-.209a1.76 1.76 0 0 0 .691-.631c.185-.282.276-.64.273-1.074zm9.071-2.605l-1.347.238c-.056-.172-.146-.336-.268-.492s-.282-.283-.488-.383-.462-.149-.77-.149c-.421 0-.773.094-1.054.283s-.423.426-.423.721a.76.76 0 0 0 .284.617c.188.156.493.283.914.383l1.213.278c.703.162 1.227.413 1.571.751s.517.777.517 1.317a2 2 0 0 1-.397 1.223c-.262.355-.628.633-1.099.835s-1.009.304-1.626.304c-.855 0-1.553-.183-2.093-.547s-.871-.89-.994-1.566l1.437-.219c.089.375.273.658.552.85s.641.284 1.088.284c.488 0 .877-.102 1.169-.304s.437-.455.437-.75a.78.78 0 0 0-.268-.602c-.176-.162-.446-.285-.811-.368l-1.292-.283c-.713-.163-1.24-.421-1.581-.776s-.507-.804-.507-1.347a1.93 1.93 0 0 1 .377-1.183c.252-.338.6-.602 1.044-.791s.953-.288 1.527-.288c.825 0 1.475.179 1.949.537a2.49 2.49 0 0 1 .939 1.427zm3.13 1.237v4.535h-1.486V213.55h1.466v3.788h.095c.179-.411.452-.737.82-.979s.849-.363 1.442-.363c.524 0 .981.107 1.372.323s.699.537.915.964.328.955.328 1.591v4.858h-1.486v-4.679c0-.56-.145-.994-.433-1.302s-.689-.468-1.203-.468c-.351 0-.666.075-.945.224s-.492.368-.651.656-.234.63-.234 1.034z" fill="#636369"/><rect x="232.905" y="215.232" width="6" height="6" rx="3" fill="#f9dd88"/><rect width="170" height="33" rx="4" transform="matrix(-1 0 0 1 285.905 250.732)" fill="#fff"/><rect x="262.405" y="260.732" width="13" height="13" rx="1.5" stroke="#dfe7f2"/><path d="M139.017 272.732l-2.823-10.182h1.615l1.984 7.885h.095l2.063-7.885h1.601l2.063 7.89h.094l1.979-7.89h1.621l-2.829 10.182h-1.546l-2.143-7.627h-.08l-2.142 7.627h-1.552zm13.972.154c-.752 0-1.4-.161-1.944-.483s-.957-.78-1.252-1.367-.438-1.281-.438-2.073c0-.782.146-1.471.438-2.068s.706-1.062 1.233-1.397 1.15-.502 1.859-.502c.431 0 .848.071 1.253.214s.767.366 1.089.671.575.701.76 1.188.279 1.072.279 1.765v.527h-6.071v-1.114h4.614c0-.391-.08-.737-.239-1.039a1.8 1.8 0 0 0-.671-.721c-.285-.175-.62-.263-1.004-.263-.418 0-.782.103-1.094.308a2.07 2.07 0 0 0-.716.795c-.165.325-.248.678-.248 1.059v.87c0 .511.089.945.268 1.303s.436.631.761.82a2.25 2.25 0 0 0 1.138.279c.282 0 .539-.04.771-.12a1.64 1.64 0 0 0 .601-.368c.169-.162.299-.362.388-.601l1.407.253a2.55 2.55 0 0 1-.606 1.089c-.289.308-.652.549-1.089.721s-.93.254-1.487.254zm4.905-.154V262.55h1.487v3.783h.089a4.2 4.2 0 0 1 .373-.552 2.12 2.12 0 0 1 .676-.547c.289-.159.67-.238 1.144-.238.616 0 1.166.156 1.65.467s.864.761 1.139 1.347.417 1.293.417 2.118-.137 1.533-.412 2.123-.653 1.039-1.134 1.357-1.029.473-1.645.473c-.464 0-.844-.078-1.139-.234s-.52-.338-.686-.547a4.14 4.14 0 0 1-.383-.557h-.124v1.189h-1.452zm1.457-3.819c0 .537.078 1.008.234 1.412s.381.721.676.95.656.338 1.084.338c.444 0 .815-.118 1.113-.353s.524-.562.676-.969.234-.867.234-1.378c0-.503-.076-.956-.229-1.357s-.374-.717-.676-.949-.671-.348-1.118-.348c-.431 0-.796.111-1.094.333s-.519.532-.671.929-.229.862-.229 1.392zm18.95-6.363v10.182h-1.412l-5.175-7.468h-.095v7.468h-1.536V262.55h1.422l5.18 7.477h.095v-7.477h1.521zm5.198 10.336c-.716 0-1.34-.164-1.874-.493s-.948-.787-1.243-1.377-.442-1.279-.442-2.068.147-1.485.442-2.078a3.31 3.31 0 0 1 1.243-1.382c.534-.328 1.158-.492 1.874-.492s1.341.164 1.875.492.948.789 1.242 1.382.443 1.286.443 2.078-.148 1.478-.443 2.068-.709 1.049-1.242 1.377-1.159.493-1.875.493zm.005-1.248c.464 0 .849-.123 1.154-.368s.53-.572.676-.979.224-.857.224-1.348-.075-.934-.224-1.342-.371-.741-.676-.989-.69-.373-1.154-.373-.855.124-1.163.373-.532.578-.681.989-.219.855-.219 1.342.073.94.219 1.348.376.734.681.979.696.368 1.163.368zm8.639-6.543v1.193h-4.171v-1.193h4.171zm-3.053-1.829h1.487v7.223c0 .289.043.506.129.652s.197.24.333.293a1.33 1.33 0 0 0 .453.075c.119 0 .223-.009.313-.025l.209-.04.268 1.228c-.086.033-.209.066-.368.099s-.358.057-.596.06c-.392.007-.756-.063-1.094-.209a1.87 1.87 0 0 1-.82-.676c-.209-.305-.314-.688-.314-1.148v-7.532zm4.557 9.466v-7.637h1.487v7.637h-1.487zm.751-8.815a.94.94 0 0 1-.666-.259c-.183-.175-.274-.384-.274-.626s.091-.454.274-.626a.93.93 0 0 1 .666-.264c.258 0 .479.088.661.264a.82.82 0 0 1 .279.626.83.83 0 0 1-.279.626c-.182.173-.403.259-.661.259zm6.23 1.178v1.193h-4.316v-1.193h4.316zm-3.132 7.637v-8.522c0-.477.104-.873.313-1.188a1.92 1.92 0 0 1 .83-.711 2.65 2.65 0 0 1 1.124-.239c.298 0 .553.025.765.075a3.56 3.56 0 0 1 .473.129l-.348 1.203-.269-.069a1.52 1.52 0 0 0-.398-.045c-.361 0-.619.09-.775.269s-.229.437-.229.775v8.323h-1.486zm4.526 0v-7.637h1.486v7.637h-1.486zm.75-8.815c-.258 0-.48-.086-.666-.259a.84.84 0 0 1-.273-.626.83.83 0 0 1 .273-.626c.186-.176.408-.264.666-.264s.479.088.661.264a.82.82 0 0 1 .279.626.83.83 0 0 1-.279.626c-.182.173-.402.259-.661.259zm5.812 8.969c-.739 0-1.375-.168-1.909-.502s-.938-.804-1.223-1.397-.427-1.273-.427-2.039c0-.775.146-1.46.437-2.053s.703-1.062 1.233-1.397 1.155-.502 1.875-.502c.58 0 1.097.107 1.551.323s.82.51 1.098.895.45.833.503 1.347h-1.447a1.74 1.74 0 0 0-.547-.925c-.282-.258-.66-.387-1.134-.387-.414 0-.777.109-1.088.328s-.549.523-.721.924-.259.869-.259 1.412c0 .557.085 1.038.254 1.442s.407.718.716.94a1.84 1.84 0 0 0 1.098.333c.282 0 .537-.051.766-.154a1.56 1.56 0 0 0 .582-.453 1.7 1.7 0 0 0 .333-.706h1.447c-.053.494-.214.935-.483 1.323s-.628.693-1.079.915-.972.333-1.576.333zm6.81.015a3.12 3.12 0 0 1-1.313-.269c-.391-.182-.701-.446-.93-.79s-.338-.768-.338-1.268c0-.431.083-.786.249-1.064s.389-.499.671-.661.597-.285.945-.368.702-.146 1.064-.189l1.113-.129c.285-.037.492-.095.622-.174s.193-.209.193-.388v-.035c0-.434-.122-.771-.367-1.009s-.604-.358-1.084-.358c-.501 0-.895.111-1.183.333s-.483.462-.592.731l-1.397-.318c.166-.464.408-.839.726-1.124s.691-.497 1.108-.626a4.32 4.32 0 0 1 1.318-.199c.305 0 .628.036.969.109a2.84 2.84 0 0 1 .965.388c.301.189.548.459.741.81s.288.801.288 1.358v5.071h-1.452v-1.044h-.059c-.097.192-.241.381-.433.566s-.439.34-.741.463-.663.184-1.083.184zm.323-1.194c.411 0 .762-.081 1.054-.243s.518-.375.671-.637.233-.548.233-.85v-.984c-.053.053-.155.103-.308.149a4.79 4.79 0 0 1-.512.114l-.562.085-.457.06c-.288.036-.552.097-.791.184s-.424.21-.566.372-.209.372-.209.637c0 .368.136.646.408.835s.618.278 1.039.278zm8.85-6.612v1.193h-4.172v-1.193h4.172zm-3.053-1.829H223v7.223c0 .289.044.506.13.652s.197.24.333.293.29.075.452.075a1.78 1.78 0 0 0 .313-.025l.209-.04.269 1.228c-.086.033-.209.066-.368.099a2.85 2.85 0 0 1-.597.06c-.391.007-.755-.063-1.093-.209s-.612-.371-.821-.676-.313-.688-.313-1.148v-7.532zm4.557 9.466v-7.637h1.486v7.637h-1.486zm.751-8.815c-.259 0-.481-.086-.667-.259a.84.84 0 0 1-.273-.626.83.83 0 0 1 .273-.626c.186-.176.408-.264.667-.264s.479.088.661.264.278.381.278.626-.093.451-.278.626-.403.259-.661.259zm5.812 8.969c-.716 0-1.341-.164-1.874-.493s-.948-.787-1.243-1.377-.443-1.279-.443-2.068.148-1.485.443-2.078a3.31 3.31 0 0 1 1.243-1.382c.533-.328 1.158-.492 1.874-.492s1.341.164 1.874.492a3.31 3.31 0 0 1 1.243 1.382c.295.593.442 1.286.442 2.078s-.147 1.478-.442 2.068-.709 1.049-1.243 1.377-1.158.493-1.874.493zm.005-1.248c.464 0 .848-.123 1.153-.368a2.15 2.15 0 0 0 .676-.979c.15-.408.224-.857.224-1.348a3.86 3.86 0 0 0-.224-1.342c-.145-.411-.371-.741-.676-.989s-.689-.373-1.153-.373-.855.124-1.164.373-.532.578-.681.989a3.98 3.98 0 0 0-.218 1.342 4 4 0 0 0 .218 1.348c.149.407.377.734.681.979s.696.368 1.164.368zm6.56-3.441v4.535h-1.486v-7.637h1.427v1.243h.094c.176-.404.451-.729.825-.974s.854-.368 1.427-.368c.521 0 .976.109 1.367.328s.695.537.91.964.323.957.323 1.586v4.858H242.6v-4.679c0-.553-.144-.986-.433-1.297s-.684-.473-1.188-.473c-.345 0-.651.075-.92.224a1.61 1.61 0 0 0-.631.656c-.152.285-.229.63-.229 1.034z" fill="#636369"/><rect x="125.905" y="264.232" width="6" height="6" rx="3" fill="#00cc74"/><rect width="96" height="33" rx="4" transform="matrix(-1 0 0 1 476.905 201.732)" fill="#fff"/><rect x="453.405" y="211.732" width="13" height="13" rx="1.5" stroke="#dfe7f2"/><path d="M402.024 223.732V213.55h6.383v1.322h-4.847v3.102h4.514v1.318h-4.514v3.117h4.907v1.323h-6.443zm8.176 0v-7.637h1.427v1.243h.094c.16-.421.42-.749.781-.984s.794-.358 1.298-.358c.51 0 .938.119 1.282.358s.605.566.771.984h.079c.183-.408.473-.732.87-.974s.872-.368 1.422-.368c.693 0 1.258.217 1.696.651s.661 1.089.661 1.964v5.121h-1.487v-4.982c0-.517-.141-.892-.422-1.124s-.618-.348-1.01-.348c-.483 0-.86.15-1.128.448s-.403.674-.403 1.138v4.868h-1.481v-5.076c0-.415-.13-.748-.388-1s-.595-.378-1.009-.378a1.45 1.45 0 0 0-.781.224c-.235.146-.426.35-.572.612s-.213.565-.213.909v4.709H410.2zm14.455.169c-.483 0-.921-.09-1.312-.269s-.701-.446-.93-.79-.338-.768-.338-1.268c0-.431.083-.786.249-1.064s.389-.499.671-.661.597-.285.945-.368.702-.146 1.063-.189l1.114-.129c.285-.037.492-.095.622-.174s.193-.209.193-.388v-.035c0-.434-.122-.771-.367-1.009s-.604-.358-1.084-.358c-.501 0-.895.111-1.183.333s-.483.462-.592.731l-1.397-.318c.166-.464.408-.839.726-1.124s.691-.497 1.108-.626a4.32 4.32 0 0 1 1.318-.199c.305 0 .628.036.969.109a2.84 2.84 0 0 1 .965.388c.301.189.548.459.741.81s.288.801.288 1.358v5.071h-1.452v-1.044h-.059c-.097.192-.241.381-.433.566s-.439.34-.741.463-.663.184-1.084.184zm.324-1.194c.411 0 .762-.081 1.054-.243s.518-.375.671-.637.233-.548.233-.85v-.984c-.053.053-.155.103-.308.149a4.79 4.79 0 0 1-.512.114l-.562.085-.457.06c-.288.036-.552.097-.791.184s-.424.21-.566.372-.209.372-.209.637c0 .368.136.646.408.835s.618.278 1.039.278zm5.285 1.025v-7.637h1.486v7.637h-1.486zm.751-8.815c-.259 0-.481-.086-.667-.259a.84.84 0 0 1-.273-.626.83.83 0 0 1 .273-.626c.186-.176.408-.264.667-.264s.479.088.661.264.278.381.278.626-.093.451-.278.626-.403.259-.661.259zm4.082-1.367v10.182h-1.487V213.55h1.487z" fill="#636369"/><rect x="390.905" y="215.232" width="6" height="6" rx="3" fill="#8199fd"/><rect x="115.786" y="310.662" width="381" height="139" rx="8" fill="#fff"/><g fill="#eef1f7"><rect x="142.552" y="385.662" width="79" height="10" rx="5"/><rect x="142.552" y="357.662" width="203" height="10" rx="5"/><rect x="244.052" y="385.662" width="203" height="10" rx="5"/><rect x="142.552" y="413.662" width="203" height="10" rx="5"/></g><path d="M146.723 337.662h-2.355v-7.272h2.429c.713 0 1.325.145 1.836.436s.903.705 1.176 1.247.412 1.187.412 1.942-.139 1.409-.416 1.953-.672.964-1.193 1.257-1.151.437-1.889.437zm-1.257-.959h1.196c.554 0 1.015-.104 1.382-.312s.641-.515.824-.913.273-.888.273-1.463-.091-1.054-.273-1.452-.449-.7-.806-.906-.802-.309-1.332-.309h-1.264v5.355zm8.285 1.069c-.538 0-1-.115-1.389-.344a2.34 2.34 0 0 1-.895-.977c-.208-.421-.312-.915-.312-1.481 0-.558.104-1.051.312-1.477s.505-.759.881-.998.822-.358 1.328-.358c.308 0 .606.051.895.152a2.17 2.17 0 0 1 .778.48c.229.218.411.5.543.848s.199.766.199 1.261v.377h-4.336v-.796h3.295c0-.279-.056-.527-.17-.742s-.273-.39-.479-.515-.443-.188-.718-.188c-.298 0-.558.073-.781.22a1.47 1.47 0 0 0-.511.568c-.119.232-.178.484-.178.757v.621c0 .365.064.675.192.93s.311.451.543.586.503.199.813.199c.202 0 .385-.028.551-.085a1.19 1.19 0 0 0 .43-.263 1.15 1.15 0 0 0 .277-.43l1.004.182a1.8 1.8 0 0 1-.433.777c-.206.22-.465.392-.777.515s-.665.181-1.062.181zm5.005.011c-.345 0-.658-.064-.937-.192s-.501-.318-.664-.564-.242-.548-.242-.906c0-.308.06-.561.178-.76s.278-.356.479-.472.426-.204.675-.263a6.82 6.82 0 0 1 .76-.135l.795-.092c.204-.026.352-.068.444-.125s.139-.149.139-.277v-.024c0-.311-.088-.551-.263-.721s-.431-.256-.774-.256c-.358 0-.639.079-.845.238s-.345.33-.423.522l-.998-.227a1.92 1.92 0 0 1 .519-.803c.229-.206.493-.355.792-.447a3.08 3.08 0 0 1 .941-.142c.217 0 .448.026.692.078s.476.142.689.277.392.328.529.579.206.571.206.969v3.622h-1.037v-.746h-.042c-.069.138-.172.273-.309.405s-.314.243-.529.331a2.07 2.07 0 0 1-.775.131zm.231-.852c.294 0 .545-.058.753-.174a1.21 1.21 0 0 0 .479-.455 1.17 1.17 0 0 0 .167-.607v-.703c-.037.038-.111.073-.22.106a3.38 3.38 0 0 1-.366.082l-.401.06-.327.043a2.65 2.65 0 0 0-.564.131c-.168.062-.303.151-.405.267s-.149.265-.149.454c0 .263.097.462.291.597s.442.199.742.199zm3.775.731v-5.454h1.027v.866h.057c.099-.293.274-.524.525-.692a1.5 1.5 0 0 1 .859-.256l.235.007.216.018v1.015c-.042-.011-.118-.024-.227-.039a2.25 2.25 0 0 0-.327-.024c-.25 0-.474.053-.671.159a1.19 1.19 0 0 0-.461.437 1.18 1.18 0 0 0-.171.632v3.331h-1.062zm64.562-.994l-.053.387c-.036.284-.096.58-.181.888l-.26.863-.216.632h-.753l.128-.597.159-.834.118-.941.035-.398h1.023z" fill="#636369"/><path d="M169.473 339.175v-9.059h2.333v.842h-1.317v7.375h1.317v.842h-2.333zm5.849-6.967v.852h-3.082v-.852h3.082zm-2.237 5.454v-6.086c0-.341.074-.624.223-.849s.347-.397.594-.508.513-.17.802-.17c.213 0 .395.017.547.053a2.52 2.52 0 0 1 .337.092l-.248.86-.192-.05c-.078-.021-.173-.032-.284-.032-.258 0-.443.064-.554.192s-.163.312-.163.554v5.944h-1.062zm3.232 0v-5.454h1.062v5.454h-1.062zm.537-6.296a.67.67 0 0 1-.476-.185.6.6 0 0 1-.195-.447c0-.175.065-.324.195-.447s.291-.189.476-.189.342.063.472.189.199.272.199.447a.59.59 0 0 1-.199.447.66.66 0 0 1-.472.185zm1.854 6.296v-5.454h1.026v.866h.057c.099-.293.274-.524.525-.692s.54-.256.86-.256l.234.007.217.018v1.015a2.37 2.37 0 0 0-.228-.039c-.108-.016-.217-.024-.326-.024a1.39 1.39 0 0 0-.671.159 1.19 1.19 0 0 0-.462.437 1.18 1.18 0 0 0-.17.632v3.331h-1.062zm7.825-4.123l-.962.171a1.18 1.18 0 0 0-.192-.352c-.085-.111-.201-.202-.348-.273s-.33-.107-.551-.107c-.3 0-.551.068-.752.203s-.302.304-.302.515a.54.54 0 0 0 .202.44c.135.111.353.202.654.273l.866.199c.502.116.876.295 1.122.536s.37.556.37.942c0 .326-.095.617-.285.873s-.448.452-.784.597-.721.216-1.162.216c-.61 0-1.109-.13-1.495-.39s-.622-.636-.71-1.119l1.026-.156c.064.267.196.47.395.607s.458.202.777.202c.348 0 .626-.072.835-.216s.312-.326.312-.536a.56.56 0 0 0-.191-.43c-.126-.116-.319-.204-.579-.263l-.924-.202c-.509-.116-.885-.301-1.129-.554s-.362-.574-.362-.963c0-.322.09-.603.27-.845s.428-.429.746-.564.68-.206 1.09-.206c.589 0 1.053.128 1.392.383a1.79 1.79 0 0 1 .671 1.019zm3.72-1.331v.852h-2.979v-.852h2.979zm-2.18-1.307h1.061v5.16c0 .206.031.361.093.465s.141.172.238.209a.94.94 0 0 0 .323.054 1.23 1.23 0 0 0 .224-.018l.149-.029.192.878a1.97 1.97 0 0 1-.263.071c-.114.026-.256.04-.426.042a1.87 1.87 0 0 1-.782-.149c-.241-.104-.436-.265-.586-.483s-.223-.491-.223-.82v-5.38zm7.15 6.761v.902h-4.62v-.902h4.62zm2.125-3.238v3.238h-1.062v-5.454h1.019v.887h.068c.125-.288.322-.52.589-.696s.61-.262 1.02-.262c.371 0 .697.078.976.234s.496.384.65.689.231.683.231 1.133v3.469h-1.062v-3.341c0-.396-.103-.705-.309-.927s-.489-.338-.849-.338c-.246 0-.465.054-.657.16a1.16 1.16 0 0 0-.451.469c-.109.204-.163.45-.163.739zm6.402 3.359c-.345 0-.658-.064-.937-.192a1.57 1.57 0 0 1-.664-.564c-.161-.247-.242-.548-.242-.906 0-.308.059-.561.178-.76s.278-.356.479-.472a2.49 2.49 0 0 1 .675-.263 6.78 6.78 0 0 1 .76-.135l.795-.092c.204-.026.352-.068.444-.125s.139-.149.139-.277v-.024c0-.311-.088-.551-.263-.721s-.431-.256-.774-.256c-.358 0-.64.079-.846.238s-.344.33-.422.522l-.998-.227c.118-.332.291-.599.518-.803a2.1 2.1 0 0 1 .792-.447c.299-.095.612-.142.941-.142a3.33 3.33 0 0 1 .693.078c.246.05.476.142.689.277s.392.328.529.579.206.571.206.969v3.622h-1.037v-.746h-.043c-.068.138-.171.273-.309.405s-.313.243-.529.331-.473.131-.774.131zm.231-.852c.294 0 .544-.058.753-.174s.37-.268.479-.455a1.18 1.18 0 0 0 .167-.607v-.703a.55.55 0 0 1-.22.106c-.107.031-.228.058-.366.082l-.401.06-.327.043a2.65 2.65 0 0 0-.564.131.97.97 0 0 0-.405.267c-.1.113-.149.265-.149.454 0 .263.097.462.291.597s.441.199.742.199zm3.775.731v-5.454h1.019v.887h.068c.113-.3.299-.535.557-.703s.567-.255.927-.255c.365 0 .67.085.916.255s.432.405.551.703h.057c.13-.291.337-.523.621-.696s.623-.262 1.016-.262c.494 0 .898.155 1.211.465s.472.778.472 1.403v3.657h-1.062v-3.558c0-.369-.1-.637-.302-.803a1.1 1.1 0 0 0-.721-.248c-.345 0-.614.106-.806.319s-.287.482-.287.814v3.476h-1.059v-3.625a.95.95 0 0 0-.277-.714c-.184-.18-.425-.27-.72-.27-.202 0-.388.053-.558.16s-.304.249-.408.436-.153.404-.153.65v3.363h-1.062zm11.089.11c-.538 0-1-.115-1.389-.344s-.684-.558-.894-.977-.313-.915-.313-1.481c0-.558.104-1.051.313-1.477s.504-.759.88-.998.822-.358 1.328-.358c.308 0 .606.051.895.152a2.17 2.17 0 0 1 .778.48c.23.218.411.5.543.848s.199.766.199 1.261v.377h-4.336v-.796h3.296c0-.279-.057-.527-.171-.742a1.28 1.28 0 0 0-.479-.515c-.204-.125-.443-.188-.718-.188-.298 0-.558.073-.781.22a1.48 1.48 0 0 0-.511.568c-.119.232-.178.484-.178.757v.621c0 .365.064.675.192.93s.311.451.543.586.503.199.814.199c.201 0 .384-.028.55-.085a1.19 1.19 0 0 0 .43-.263 1.15 1.15 0 0 0 .277-.43l1.005.182c-.081.296-.225.555-.434.777s-.465.392-.777.515-.664.181-1.062.181zm5.343-7.656v9.059h-2.333v-.842h1.317v-7.375h-1.317v-.842h2.333z" fill="#121212"/><rect x="-1" y="1" width="419" height="345" rx="7" transform="matrix(-1 0 0 1 514.572 124.662)" stroke="#e1e8f2" stroke-width="2" stroke-dasharray="8 8"/><defs><clipPath id="A"><path fill="#fff" transform="translate(115.905 145.662)" d="M0 0h22v22H0z"/></clipPath><path id="B" d="M355.621 511.269l10.182-13.818 13.818-10.182-13.818-10.182-10.182-13.818-10.182 13.818-13.818 10.182 13.818 10.182 10.182 13.818z"/></defs></svg>