<svg width="24" height="25" viewBox="0 0 24 25" fill="none" xmlns="http://www.w3.org/2000/svg">
<mask id="mask0_6237_38968" style="mask-type:alpha" maskUnits="userSpaceOnUse" x="0" y="0" width="24" height="25">
<rect y="0.234863" width="24" height="24" fill="#D9D9D9"/>
</mask>
<g mask="url(#mask0_6237_38968)">
<path d="M14.8496 20.4007V18.2757L20.1496 12.9757L22.2746 15.1007L16.9746 20.4007H14.8496ZM22.9746 14.4007L20.8496 12.2757L21.5746 11.5507C21.7746 11.3507 22.0123 11.2507 22.2876 11.2507C22.5623 11.2507 22.7913 11.3507 22.9746 11.5507L23.6996 12.2757C23.8996 12.4591 23.9996 12.6881 23.9996 12.9627C23.9996 13.2381 23.8996 13.4757 23.6996 13.6757L22.9746 14.4007Z" fill="#1C1B1F"/>
<path d="M12 11.2349L20 6.23486H4L12 11.2349ZM12 13.2349L4 8.23486V18.2349H12.6426V20.2349H4C3.45 20.2349 2.97933 20.0392 2.588 19.6479C2.196 19.2559 2 18.7849 2 18.2349V6.23486C2 5.68486 2.196 5.2142 2.588 4.82286C2.97933 4.43086 3.45 4.23486 4 4.23486H20C20.55 4.23486 21.021 4.43086 21.413 4.82286C21.8043 5.2142 22 5.68486 22 6.23486V8.58486L20 10.3885V8.23486L12 13.2349Z" fill="#1C1B1F"/>
</g>
</svg>
