<svg xmlns="http://www.w3.org/2000/svg" xmlns:xlink="http://www.w3.org/1999/xlink" width="608" height="561" fill="none" xmlns:v="https://vecta.io/nano"><style><![CDATA[.B{stroke:#121212}.C{stroke-width:4}.D{fill:#121212}.E{fill:#f5f6f8}.F{stroke:#dfe7f2}.G{fill:#eef1f7}.H{fill:#636369}.I{stroke:#000}.J{stroke:#e1e8f2}.K{stroke-width:2}.L{stroke-dasharray:8 8}]]></style><g stroke="#97969c" stroke-dasharray="4 4"><path d="M559.504-31.321v78.64m0 544.473v-280.31m0-65.742V97.522M457.312-30.944l.001 402.045m0 220.516V395.774M355.621-31.133V133.66m0 457.954v-81.246m0-293.993v244.394M252.93-30.944v90.743m0 531.811V84.102M150.739-31.131l-.001 373.693m0 249.057V425.634M48.547-31.323v183.828m0 439.102V288.589m0-90.065v72.831"/><path d="M0 487.288h330.227m277.773 0H379.607M0 383.495h112.263m495.737 0H469.346m-278.878 0h254.206M0 175.91h25.672m582.328 0H396.708m-80.708 0H73.358M0 279.703h39.48m568.521 0h-15.322m-65.324 0H57.12M0 72.117h239.558m368.442 0h-25.121m-48.339 0H265.522"/><use xlink:href="#B"/><path d="M559.48 96.035l10.183-13.818 13.817-10.182-13.817-10.182-10.183-13.818-10.182 13.818-13.818 10.182 13.818 10.182 10.182 13.818z"/><use xlink:href="#B" x="-307.019" y="-311.504"/><path d="M559.469 311.619l13.576-18.424 18.424-13.576-18.424-13.577-13.576-18.423-13.577 18.423-18.423 13.577 18.423 13.576 13.577 18.424zM150.754 423.525l16.97-23.03 23.03-16.97-23.03-16.971-16.97-23.029-16.971 23.029-23.029 16.971 23.029 16.97 16.971 23.03zm204.867-207.61l16.971-23.029 23.029-16.971-23.029-16.97-16.971-23.03-16.97 23.03-23.03 16.97 23.03 16.971 16.97 23.029z"/><circle r="12" transform="matrix(1 0 0 -1 457.246 383.495)"/><circle r="8" transform="matrix(1 0 0 -1 48.5469 279.703)"/><circle r="12" transform="matrix(1 0 0 -1 252.598 72.1166)"/></g><g transform="matrix(-1 0 0 1 543 68.9385)"><rect x="-2" y="2" width="442" height="102.971" rx="6" class="D"/><rect x="-2" y="2" width="442" height="102.971" rx="6" class="B C"/></g><g class="E"><rect x="-2" y="2" width="447" height="99.282" rx="6" transform="matrix(-1 0 0 1 531 60.639)"/><rect x="-1" y="1" width="421" height="75" rx="7" transform="matrix(-1 0 0 1 519 73.639)"/></g><rect x="123.5" y="93.139" width="372" height="47" rx="3.5" fill="#fff"/><rect x="142.389" y="110.139" width="13" height="13" rx="1.5" class="F"/><rect x="358.889" y="112.639" width="105" height="8" rx="4" class="G"/><path d="M191.112 122.139l-2.824-10.182h1.616l1.984 7.885h.094l2.063-7.885h1.601l2.064 7.89h.094l1.979-7.89h1.62l-2.828 10.182h-1.547l-2.142-7.626h-.08l-2.143 7.626h-1.551zm13.972.154c-.752 0-1.4-.161-1.944-.482s-.958-.781-1.253-1.367-.437-1.281-.437-2.073c0-.783.146-1.472.437-2.069s.706-1.062 1.233-1.397 1.15-.502 1.86-.502a3.76 3.76 0 0 1 1.253.214c.404.143.767.366 1.088.671s.575.701.761 1.188.278 1.073.278 1.765v.527h-6.07v-1.113h4.614c0-.391-.08-.738-.239-1.039a1.8 1.8 0 0 0-.671-.721c-.285-.176-.62-.264-1.004-.264-.418 0-.783.103-1.094.308a2.08 2.08 0 0 0-.716.796c-.166.325-.249.678-.249 1.059v.87c0 .51.09.944.269 1.302s.436.632.76.821.705.278 1.139.278a2.38 2.38 0 0 0 .771-.119 1.67 1.67 0 0 0 .601-.368 1.6 1.6 0 0 0 .388-.602l1.407.254c-.113.414-.315.777-.607 1.089s-.651.548-1.088.721-.93.253-1.487.253zm4.905-.154v-10.182h1.487v3.784h.089a4.1 4.1 0 0 1 .373-.552c.162-.209.388-.391.676-.547s.67-.239 1.143-.239c.617 0 1.167.156 1.651.468s.863.76 1.139 1.347.417 1.292.417 2.118-.137 1.533-.413 2.123-.652 1.039-1.133 1.357-1.029.472-1.646.472c-.464 0-.843-.078-1.138-.233s-.52-.339-.686-.547a4.11 4.11 0 0 1-.383-.557h-.124v1.188h-1.452zm1.457-3.818c0 .537.078 1.007.233 1.412s.381.721.676.949.657.338 1.084.338c.444 0 .816-.117 1.114-.353s.524-.561.676-.969.234-.867.234-1.377c0-.504-.077-.956-.229-1.357s-.375-.718-.676-.95-.671-.348-1.119-.348c-.431 0-.795.111-1.093.333s-.519.532-.672.93-.228.862-.228 1.392zm18.95-6.364v10.182h-1.412l-5.176-7.467h-.094v7.467h-1.536v-10.182h1.422l5.18 7.477h.094v-7.477h1.522zm5.198 10.336c-.716 0-1.341-.164-1.874-.492s-.948-.787-1.243-1.377-.443-1.28-.443-2.068.148-1.485.443-2.078.709-1.054 1.243-1.383 1.158-.492 1.874-.492 1.341.164 1.874.492.948.789 1.243 1.383.443 1.286.443 2.078-.148 1.478-.443 2.068-.709 1.049-1.243 1.377-1.158.492-1.874.492zm.005-1.248c.464 0 .848-.122 1.153-.368s.531-.571.677-.979a3.9 3.9 0 0 0 .223-1.347c0-.488-.074-.935-.223-1.343a2.19 2.19 0 0 0-.677-.989c-.305-.249-.689-.373-1.153-.373s-.855.124-1.163.373a2.22 2.22 0 0 0-.681.989c-.146.408-.219.855-.219 1.343s.073.939.219 1.347.376.734.681.979.696.368 1.163.368zm8.639-6.542v1.193h-4.172v-1.193h4.172zm-3.053-1.83h1.487v7.224c0 .288.043.505.129.651a.67.67 0 0 0 .333.293c.139.05.29.075.452.075.12 0 .224-.008.314-.025l.208-.04.269 1.228a2.37 2.37 0 0 1-.368.1c-.159.036-.358.056-.597.059a2.62 2.62 0 0 1-1.093-.208 1.88 1.88 0 0 1-.821-.676c-.209-.305-.313-.688-.313-1.149v-7.532zm4.557 9.466v-7.636h1.486v7.636h-1.486zm.751-8.815c-.259 0-.481-.086-.667-.258s-.273-.385-.273-.627a.83.83 0 0 1 .273-.626c.186-.176.408-.263.667-.263s.479.087.661.263.278.381.278.626-.093.451-.278.627a.93.93 0 0 1-.661.258zm6.23 1.179v1.193h-4.316v-1.193h4.316zm-3.133 7.636v-8.521c0-.478.105-.874.314-1.188.208-.319.485-.556.83-.711s.719-.239 1.123-.239a3.38 3.38 0 0 1 .766.075 3.35 3.35 0 0 1 .472.129l-.348 1.203-.268-.07c-.109-.03-.242-.044-.398-.044-.361 0-.62.089-.775.268s-.229.438-.229.776v8.322h-1.487zm4.526 0v-7.636h1.487v7.636h-1.487zm.751-8.815c-.259 0-.481-.086-.666-.258a.84.84 0 0 1-.274-.627c0-.245.091-.454.274-.626a.93.93 0 0 1 .666-.263c.258 0 .479.087.661.263a.82.82 0 0 1 .279.626c0 .242-.093.451-.279.627a.93.93 0 0 1-.661.258zm5.812 8.969c-.739 0-1.375-.167-1.909-.502s-.938-.804-1.223-1.397-.427-1.273-.427-2.038c0-.776.145-1.46.437-2.054a3.36 3.36 0 0 1 1.233-1.397c.53-.334 1.155-.502 1.874-.502.58 0 1.097.108 1.551.323s.821.511 1.099.895.449.834.502 1.348h-1.446c-.08-.358-.262-.667-.547-.925s-.66-.388-1.134-.388c-.414 0-.777.109-1.089.328s-.548.524-.721.925-.258.868-.258 1.412c0 .557.084 1.037.254 1.442s.407.717.715.939.678.333 1.099.333c.282 0 .537-.051.766-.154a1.56 1.56 0 0 0 .581-.452c.16-.196.271-.431.334-.706h1.446a2.81 2.81 0 0 1-.482 1.322c-.268.388-.628.693-1.079.915s-.973.333-1.576.333zm6.809.015c-.484 0-.921-.089-1.312-.268s-.701-.446-.93-.791-.338-.767-.338-1.268c0-.431.083-.785.249-1.064s.389-.498.671-.661a3.51 3.51 0 0 1 .944-.368 9.35 9.35 0 0 1 1.064-.189l1.114-.129c.285-.036.492-.094.621-.174s.194-.209.194-.388v-.034c0-.435-.122-.771-.368-1.01s-.603-.358-1.083-.358c-.501 0-.895.111-1.184.333s-.482.463-.591.731l-1.397-.318c.165-.464.407-.838.725-1.123s.692-.498 1.109-.627a4.35 4.35 0 0 1 1.318-.199c.305 0 .628.037.969.11a2.83 2.83 0 0 1 .965.387c.301.189.548.459.74.811s.289.8.289 1.357v5.071h-1.452v-1.044h-.06c-.096.192-.24.381-.432.567s-.439.339-.741.462-.663.184-1.084.184zm.323-1.193c.411 0 .763-.081 1.054-.244s.519-.374.672-.636a1.66 1.66 0 0 0 .233-.85v-.985c-.053.053-.156.103-.308.15a4.79 4.79 0 0 1-.512.114l-.562.084-.457.06a3.73 3.73 0 0 0-.791.184c-.235.086-.424.21-.567.373s-.208.371-.208.636c0 .368.136.647.407.835s.618.279 1.039.279zm8.85-6.612v1.193h-4.171v-1.193h4.171zm-3.052-1.83h1.486v7.224c0 .288.043.505.129.651s.198.24.334.293.29.075.452.075c.119 0 .224-.008.313-.025l.209-.04.268 1.228a2.35 2.35 0 0 1-.367.1c-.16.036-.358.056-.597.059-.391.007-.756-.063-1.094-.208s-.611-.372-.82-.676-.313-.688-.313-1.149v-7.532zm4.557 9.466v-7.636h1.486v7.636h-1.486zm.75-8.815c-.258 0-.48-.086-.666-.258s-.273-.385-.273-.627a.83.83 0 0 1 .273-.626c.186-.176.408-.263.666-.263a.92.92 0 0 1 .662.263c.185.172.278.381.278.626s-.093.451-.278.627a.93.93 0 0 1-.662.258zm5.813 8.969c-.716 0-1.341-.164-1.875-.492s-.948-.787-1.243-1.377-.442-1.28-.442-2.068.147-1.485.442-2.078a3.32 3.32 0 0 1 1.243-1.383c.534-.328 1.159-.492 1.875-.492s1.34.164 1.874.492a3.32 3.32 0 0 1 1.243 1.383c.295.593.442 1.286.442 2.078s-.147 1.478-.442 2.068-.71 1.049-1.243 1.377-1.159.492-1.874.492zm.005-1.248c.464 0 .848-.122 1.153-.368s.53-.571.676-.979a3.9 3.9 0 0 0 .224-1.347c0-.488-.075-.935-.224-1.343s-.371-.74-.676-.989-.689-.373-1.153-.373-.856.124-1.164.373a2.22 2.22 0 0 0-.681.989c-.146.408-.219.855-.219 1.343s.073.939.219 1.347.376.734.681.979.696.368 1.164.368zm6.56-3.44v4.534h-1.487v-7.636h1.427v1.243h.095c.175-.405.451-.73.825-.975s.854-.368 1.427-.368c.52 0 .976.11 1.367.328a2.2 2.2 0 0 1 .91.965c.215.427.323.956.323 1.586v4.857h-1.486v-4.678c0-.554-.145-.986-.433-1.298s-.684-.472-1.188-.472c-.345 0-.651.074-.92.224s-.476.368-.631.656-.229.63-.229 1.034zm12.463-1.238l-1.347.239c-.057-.173-.146-.337-.269-.493a1.33 1.33 0 0 0-.487-.382c-.205-.1-.462-.149-.771-.149-.421 0-.772.094-1.054.283s-.422.426-.422.721c0 .255.094.46.283.616s.494.284.915.383l1.213.278c.703.163 1.226.413 1.571.751s.517.777.517 1.318c0 .457-.132.865-.398 1.223-.261.354-.628.633-1.098.835s-1.01.303-1.626.303c-.855 0-1.553-.182-2.093-.547s-.872-.89-.994-1.566l1.436-.219c.09.375.274.658.552.851s.642.283 1.089.283c.487 0 .877-.101 1.168-.303s.438-.456.438-.751a.78.78 0 0 0-.269-.602c-.175-.162-.445-.285-.81-.367l-1.293-.284c-.712-.162-1.239-.421-1.581-.775s-.507-.804-.507-1.348c0-.45.126-.845.378-1.183s.6-.601 1.044-.79.953-.289 1.526-.289c.826 0 1.475.179 1.949.537s.788.83.94 1.427z" class="H"/><rect x="178" y="113.639" width="6" height="6" rx="3" fill="#00cc74"/><rect x="123.5" y="93.139" width="372" height="47" rx="3.5" class="I"/><rect x="-1" y="1" width="421" height="75" rx="7" transform="matrix(-1 0 0 1 519 73.639)" class="J K L"/><rect x="-2" y="2" width="447" height="99.282" rx="6" transform="matrix(-1 0 0 1 531 60.639)" class="B C"/><g transform="matrix(-1 0 0 1 543 208.209)"><rect x="-2" y="2" width="442" height="102.971" rx="6" class="D"/><rect x="-2" y="2" width="442" height="102.971" rx="6" class="B C"/></g><g class="E"><rect x="-2" y="2" width="447" height="99.282" rx="6" transform="matrix(-1 0 0 1 531 199.91)"/><rect x="-1" y="1" width="421" height="75" rx="7" transform="matrix(-1 0 0 1 519 212.91)"/></g><rect x="123.5" y="232.41" width="372" height="47" rx="3.5" fill="#fff"/><rect x="142.389" y="249.41" width="13" height="13" rx="1.5" class="F"/><rect x="295" y="251.639" width="169" height="8" rx="4" class="G"/><path d="M194.672 254.374a1.45 1.45 0 0 0-.656-1.094c-.385-.262-.869-.393-1.452-.393-.418 0-.779.066-1.084.199s-.542.308-.711.537-.248.482-.248.771c0 .241.056.45.169.626a1.5 1.5 0 0 0 .452.442 3.44 3.44 0 0 0 .607.294l.621.189.994.258c.325.08.658.187 1 .323s.658.315.949.537a2.56 2.56 0 0 1 .706.826c.182.328.274.72.274 1.178 0 .577-.15 1.089-.448 1.536s-.724.8-1.287 1.059-1.238.388-2.034.388c-.762 0-1.422-.121-1.979-.363s-.992-.585-1.307-1.029-.489-.978-.522-1.591h1.541c.03.368.149.674.358.92s.482.422.81.541a3.28 3.28 0 0 0 1.089.174c.434 0 .821-.067 1.159-.203s.609-.332.805-.577.293-.539.293-.87c0-.302-.086-.549-.258-.741s-.4-.351-.691-.477-.615-.237-.98-.333l-1.203-.328c-.815-.222-1.461-.549-1.939-.98s-.711-1.001-.711-1.71c0-.587.159-1.099.478-1.536s.749-.777 1.292-1.019 1.157-.368 1.84-.368c.689 0 1.297.121 1.824.363s.948.575 1.253.999.464.905.477 1.452h-1.481zm3.316-2.675h1.865l3.241 7.915h.12l3.241-7.915h1.864v10.182h-1.461v-7.368h-.095l-3.003 7.353h-1.213l-3.003-7.358h-.094v7.373h-1.462v-10.182zm17.978 2.675a1.45 1.45 0 0 0-.656-1.094c-.385-.262-.869-.393-1.452-.393-.417 0-.779.066-1.084.199s-.542.308-.711.537a1.27 1.27 0 0 0-.248.771c0 .241.056.45.169.626s.267.323.452.442a3.44 3.44 0 0 0 .607.294l.621.189.995.258a7.7 7.7 0 0 1 .999.323c.341.136.658.315.949.537a2.56 2.56 0 0 1 .706.826c.183.328.274.72.274 1.178 0 .577-.149 1.089-.448 1.536s-.724.8-1.287 1.059-1.238.388-2.034.388c-.762 0-1.422-.121-1.978-.363s-.993-.585-1.308-1.029-.489-.978-.522-1.591h1.541c.03.368.149.674.358.92a1.93 1.93 0 0 0 .811.541 3.27 3.27 0 0 0 1.088.174c.435 0 .821-.067 1.159-.203s.61-.332.805-.577.294-.539.294-.87c0-.302-.087-.549-.259-.741s-.399-.351-.691-.477-.615-.237-.979-.333l-1.204-.328c-.815-.222-1.461-.549-1.938-.98s-.711-1.001-.711-1.71a2.54 2.54 0 0 1 .477-1.536c.318-.438.749-.777 1.292-1.019s1.157-.368 1.84-.368c.689 0 1.298.121 1.825.363s.947.575 1.252.999.464.905.478 1.452h-1.482z" class="H"/><rect x="178" y="253.381" width="6" height="6" rx="3" fill="#c6a9ff"/><rect x="123.5" y="232.41" width="372" height="47" rx="3.5" class="I"/><rect x="-1" y="1" width="421" height="75" rx="7" transform="matrix(-1 0 0 1 519 212.91)" class="J K L"/><rect x="-2" y="2" width="447" height="99.282" rx="6" transform="matrix(-1 0 0 1 531 199.91)" class="B C"/><g transform="matrix(-1 0 0 1 543 347.48)"><rect x="-2" y="2" width="442" height="102.971" rx="6" class="D"/><rect x="-2" y="2" width="442" height="102.971" rx="6" class="B C"/></g><g class="E"><rect x="-2" y="2" width="447" height="99.282" rx="6" transform="matrix(-1 0 0 1 531 339.18)"/><rect x="-1" y="1" width="421" height="75" rx="7" transform="matrix(-1 0 0 1 519 352.18)"/></g><rect x="123.5" y="371.68" width="372" height="47" rx="3.5" fill="#fff"/><rect x="142.389" y="388.68" width="13" height="13" rx="1.5" class="F"/><rect x="284" y="391.639" width="180" height="8" rx="4" class="G"/><path d="M189.119 400.881v-10.182h6.383v1.322h-4.847v3.103h4.514v1.317h-4.514v3.117h4.907v1.323h-6.443zm8.176 0v-7.637h1.427v1.243h.094c.159-.421.419-.749.781-.984s.793-.358 1.297-.358c.511 0 .938.119 1.283.358s.605.567.771.984h.079c.182-.407.472-.732.87-.974s.872-.368 1.422-.368c.693 0 1.258.217 1.695.651s.662 1.089.662 1.964v5.121h-1.487v-4.982c0-.517-.141-.891-.423-1.123s-.618-.348-1.009-.348c-.484 0-.86.149-1.128.447s-.403.675-.403 1.139v4.867h-1.482v-5.076c0-.415-.129-.748-.387-1s-.595-.377-1.01-.377c-.281 0-.542.074-.78.223s-.426.35-.572.612a1.88 1.88 0 0 0-.214.91v4.708h-1.486zm14.455.169c-.484 0-.921-.09-1.312-.269a2.21 2.21 0 0 1-.93-.79c-.225-.345-.338-.767-.338-1.268 0-.431.083-.785.249-1.064s.389-.499.671-.661a3.51 3.51 0 0 1 .944-.368 9.35 9.35 0 0 1 1.064-.189l1.114-.129c.285-.037.492-.095.621-.174s.194-.209.194-.388v-.035c0-.434-.122-.77-.368-1.009s-.603-.358-1.084-.358c-.5 0-.894.111-1.183.333s-.482.463-.591.731l-1.397-.318c.165-.464.407-.839.725-1.124s.691-.497 1.109-.626a4.32 4.32 0 0 1 1.318-.199c.305 0 .628.036.969.109a2.85 2.85 0 0 1 .965.388c.301.189.548.459.74.81s.289.801.289 1.358v5.071h-1.452v-1.044h-.06c-.096.192-.24.381-.432.566s-.439.34-.741.463-.663.184-1.084.184zm.323-1.193c.411 0 .763-.082 1.054-.244s.519-.375.671-.636.234-.549.234-.851v-.984c-.053.053-.156.103-.308.149a5.03 5.03 0 0 1-.512.115l-.562.084-.457.06a3.67 3.67 0 0 0-.791.184c-.235.086-.424.21-.567.373s-.208.371-.208.636c0 .368.135.646.407.835s.618.279 1.039.279zm5.286 1.024v-7.637h1.486v7.637h-1.486zm.75-8.815c-.258 0-.48-.086-.666-.258s-.273-.385-.273-.627a.83.83 0 0 1 .273-.626c.186-.176.408-.264.666-.264a.92.92 0 0 1 .662.264c.185.172.278.381.278.626s-.093.451-.278.627a.93.93 0 0 1-.662.258zm4.082-1.367v10.182h-1.486v-10.182h1.486z" class="H"/><rect x="178" y="392.381" width="6" height="6" rx="3" fill="#869cf9"/><rect x="123.5" y="371.68" width="372" height="47" rx="3.5" class="I"/><rect x="-1" y="1" width="421" height="75" rx="7" transform="matrix(-1 0 0 1 519 352.18)" class="J K L"/><rect x="-2" y="2" width="447" height="99.282" rx="6" transform="matrix(-1 0 0 1 531 339.18)" class="B C"/><g transform="matrix(-1 0 0 1 543 486.75)"><rect x="-2" y="2" width="442" height="102.971" rx="6" class="D"/><rect x="-2" y="2" width="442" height="102.971" rx="6" class="B C"/></g><g class="E"><rect x="-2" y="2" width="447" height="99.282" rx="6" transform="matrix(-1 0 0 1 531 478.451)"/><rect x="-1" y="1" width="421" height="75" rx="7" transform="matrix(-1 0 0 1 519 491.451)"/></g><rect x="123.5" y="510.951" width="372" height="47" rx="3.5" fill="#fff"/><rect x="142.389" y="527.951" width="13" height="13" rx="1.5" class="F"/><rect x="394" y="530.639" width="70" height="8" rx="4" class="G"/><path d="M190.655 529.699v10.182h-1.536v-10.182h1.536zm3.464 5.648v4.534h-1.486v-7.637h1.427v1.243h.094c.176-.404.451-.729.825-.974s.854-.368 1.427-.368c.521 0 .976.109 1.367.328s.695.537.91.965.323.956.323 1.585v4.858h-1.486v-4.679c0-.553-.144-.986-.433-1.297s-.684-.472-1.188-.472c-.345 0-.651.074-.92.223s-.475.368-.631.657-.229.629-.229 1.034zm11.24-.413v1.288h-4.514v-1.288h4.514zm2.821 4.947h-1.631l3.664-10.182h1.775l3.664 10.182h-1.631l-2.878-8.333h-.08l-2.883 8.333zm.273-3.987h5.29v1.292h-5.29v-1.292zm8.41 6.85v-10.5h1.452v1.238h.124a4.2 4.2 0 0 1 .373-.552c.162-.208.388-.391.676-.546s.67-.239 1.144-.239c.616 0 1.166.156 1.65.467s.864.761 1.139 1.348.417 1.292.417 2.117-.137 1.533-.412 2.123-.653 1.039-1.134 1.358a2.94 2.94 0 0 1-1.646.472c-.464 0-.843-.078-1.138-.234s-.52-.338-.686-.547-.293-.394-.383-.556h-.089v4.051h-1.487zm1.457-6.681c0 .536.078 1.007.233 1.411s.382.721.677.95.656.338 1.083.338c.445 0 .816-.118 1.114-.353s.524-.562.676-.969.234-.867.234-1.377c0-.504-.076-.957-.229-1.358s-.374-.717-.676-.949-.671-.348-1.119-.348c-.43 0-.795.111-1.093.333s-.519.532-.672.93-.228.861-.228 1.392zm7.044 6.681v-10.5h1.451v1.238h.125a4.1 4.1 0 0 1 .373-.552c.162-.208.387-.391.676-.546s.669-.239 1.143-.239c.617 0 1.167.156 1.651.467s.863.761 1.138 1.348.418 1.292.418 2.117-.138 1.533-.413 2.123-.653 1.039-1.133 1.358-1.029.472-1.646.472c-.464 0-.843-.078-1.138-.234s-.521-.338-.686-.547-.294-.394-.383-.556h-.09v4.051h-1.486zm1.456-6.681c0 .536.078 1.007.234 1.411s.381.721.676.95.656.338 1.084.338c.444 0 .815-.118 1.114-.353s.523-.562.676-.969.233-.867.233-1.377a3.81 3.81 0 0 0-.228-1.358c-.149-.401-.375-.717-.676-.949s-.672-.348-1.119-.348c-.431 0-.795.111-1.094.333s-.518.532-.671.93-.229.861-.229 1.392zm10.729 3.818v-10.182h3.629c.792 0 1.448.144 1.969.432a2.81 2.81 0 0 1 1.168 1.184 3.58 3.58 0 0 1 .388 1.68c0 .627-.131 1.19-.393 1.69s-.649.892-1.173 1.184-1.175.432-1.964.432h-2.496v-1.302h2.357c.5 0 .906-.087 1.218-.259s.54-.414.686-.716.219-.644.219-1.029a2.3 2.3 0 0 0-.219-1.024 1.57 1.57 0 0 0-.691-.701c-.312-.169-.723-.254-1.233-.254h-1.929v8.865h-1.536zm13.533-3.167v-4.47h1.491v7.637h-1.461v-1.323h-.08a2.37 2.37 0 0 1-.845 1.019c-.384.269-.863.403-1.437.403-.49 0-.925-.108-1.302-.323s-.67-.542-.885-.969-.318-.957-.318-1.586v-4.858h1.486v4.679c0 .52.144.934.433 1.243s.662.462 1.123.462c.279 0 .555-.07.83-.209s.509-.35.691-.631.277-.64.274-1.074zm9.071-2.605l-1.347.238a1.61 1.61 0 0 0-.269-.492c-.119-.156-.281-.283-.487-.383s-.462-.149-.771-.149c-.421 0-.772.095-1.054.284s-.422.425-.422.72a.76.76 0 0 0 .283.617c.189.156.494.283.915.383l1.213.278c.703.163 1.226.413 1.571.751s.517.777.517 1.317c0 .458-.132.865-.398 1.223s-.628.633-1.098.836-1.01.303-1.626.303c-.855 0-1.553-.182-2.093-.547s-.872-.89-.994-1.566l1.436-.219c.09.375.274.658.552.85s.642.284 1.089.284c.487 0 .877-.101 1.168-.304s.438-.455.438-.75a.78.78 0 0 0-.269-.602c-.175-.162-.445-.285-.81-.368l-1.293-.283c-.712-.163-1.239-.421-1.581-.776s-.507-.803-.507-1.347c0-.451.126-.845.378-1.183s.6-.602 1.044-.791.953-.288 1.527-.288c.825 0 1.474.179 1.948.537s.788.83.94 1.427zm3.13 1.238v4.534h-1.486v-10.182h1.466v3.788h.095c.179-.411.452-.737.82-.979s.848-.363 1.442-.363c.523 0 .981.108 1.372.323s.699.537.915.965.328.954.328 1.59v4.858h-1.487v-4.679c0-.56-.144-.994-.432-1.302s-.69-.467-1.203-.467c-.352 0-.667.074-.945.223a1.61 1.61 0 0 0-.651.657c-.156.285-.234.629-.234 1.034zm18.698-5.648v10.182h-1.412l-5.175-7.468h-.095v7.468h-1.536v-10.182h1.422l5.18 7.477h.095v-7.477h1.521zm5.198 10.336c-.716 0-1.341-.164-1.874-.492s-.948-.787-1.243-1.377-.443-1.28-.443-2.069.148-1.484.443-2.078a3.31 3.31 0 0 1 1.243-1.382c.533-.328 1.158-.492 1.874-.492s1.341.164 1.874.492a3.31 3.31 0 0 1 1.243 1.382c.295.594.443 1.286.443 2.078s-.148 1.479-.443 2.069-.709 1.049-1.243 1.377-1.158.492-1.874.492zm.005-1.248c.464 0 .849-.123 1.153-.368s.531-.572.677-.979.223-.857.223-1.348-.074-.934-.223-1.342-.372-.741-.677-.989-.689-.373-1.153-.373-.855.124-1.163.373-.532.578-.681.989-.219.855-.219 1.342.073.94.219 1.348.376.734.681.979.696.368 1.163.368zm8.639-6.543v1.194h-4.171v-1.194h4.171zm-3.053-1.829h1.487v7.224c0 .288.043.505.129.651s.197.24.333.293.29.075.452.075a1.8 1.8 0 0 0 .314-.025l.208-.04.269 1.228a2.62 2.62 0 0 1-.368.1c-.159.036-.358.056-.597.059-.391.007-.755-.063-1.093-.209s-.612-.371-.821-.676-.313-.688-.313-1.148v-7.532zm4.557 9.466v-7.637h1.487v7.637h-1.487zm.751-8.815c-.259 0-.481-.086-.666-.258a.84.84 0 0 1-.274-.627c0-.245.091-.454.274-.626a.93.93 0 0 1 .666-.264c.258 0 .479.088.661.264a.82.82 0 0 1 .278.626c0 .242-.092.451-.278.627a.93.93 0 0 1-.661.258zm6.23 1.178v1.194h-4.316v-1.194h4.316zm-3.133 7.637v-8.522c0-.477.105-.873.314-1.188a1.92 1.92 0 0 1 .83-.711 2.65 2.65 0 0 1 1.124-.238 3.44 3.44 0 0 1 .765.074l.472.129-.348 1.204-.268-.07a1.52 1.52 0 0 0-.398-.045c-.361 0-.62.09-.775.269s-.229.437-.229.775v8.323h-1.487zm4.526 0v-7.637h1.487v7.637h-1.487zm.751-8.815c-.258 0-.481-.086-.666-.258s-.274-.385-.274-.627a.83.83 0 0 1 .274-.626c.185-.176.408-.264.666-.264s.479.088.661.264a.82.82 0 0 1 .279.626c0 .242-.093.451-.279.627s-.402.258-.661.258zm5.812 8.969c-.739 0-1.375-.168-1.909-.502s-.938-.804-1.223-1.397-.427-1.273-.427-2.039c0-.775.145-1.46.437-2.053s.703-1.062 1.233-1.397 1.155-.502 1.874-.502c.58 0 1.097.108 1.551.323s.821.511 1.099.895a2.7 2.7 0 0 1 .502 1.347h-1.446c-.08-.358-.262-.666-.547-.924s-.66-.388-1.134-.388c-.414 0-.777.109-1.089.328s-.548.524-.72.925-.259.868-.259 1.412c0 .556.085 1.037.254 1.441s.407.718.715.94.678.333 1.099.333c.282 0 .537-.051.766-.154a1.57 1.57 0 0 0 .582-.452c.159-.196.27-.431.333-.706h1.446c-.053.493-.213.934-.482 1.322s-.628.693-1.079.915-.973.333-1.576.333zm6.809.015c-.484 0-.921-.09-1.312-.269a2.21 2.21 0 0 1-.93-.79c-.225-.345-.338-.767-.338-1.268 0-.431.083-.785.249-1.064s.389-.499.671-.661.596-.285.944-.368a9.35 9.35 0 0 1 1.064-.189l1.114-.129c.285-.037.492-.095.621-.174s.194-.209.194-.388v-.035c0-.434-.122-.77-.368-1.009s-.603-.358-1.083-.358c-.501 0-.895.111-1.184.333s-.482.463-.591.731l-1.397-.318c.165-.464.407-.839.726-1.124s.691-.497 1.108-.626a4.32 4.32 0 0 1 1.318-.199c.305 0 .628.036.969.109a2.85 2.85 0 0 1 .965.388c.301.189.548.459.74.81s.289.801.289 1.358v5.071h-1.452v-1.044h-.06c-.096.192-.24.381-.432.566s-.439.34-.741.463-.663.184-1.084.184zm.323-1.193c.411 0 .763-.082 1.054-.244s.519-.375.672-.636a1.66 1.66 0 0 0 .233-.851v-.984c-.053.053-.156.103-.308.149a5.03 5.03 0 0 1-.512.115l-.562.084-.457.06a3.67 3.67 0 0 0-.791.184c-.235.086-.424.21-.566.373s-.209.371-.209.636c0 .368.136.646.407.835s.619.279 1.039.279zm8.85-6.613v1.194h-4.171v-1.194h4.171zm-3.052-1.829h1.486v7.224c0 .288.043.505.13.651s.197.24.333.293.29.075.452.075c.119 0 .224-.009.313-.025l.209-.04.269 1.228a2.66 2.66 0 0 1-.368.1c-.159.036-.358.056-.597.059a2.61 2.61 0 0 1-1.094-.209 1.87 1.87 0 0 1-.82-.676c-.209-.305-.313-.688-.313-1.148v-7.532zm4.557 9.466v-7.637h1.486v7.637h-1.486zm.75-8.815c-.258 0-.48-.086-.666-.258s-.273-.385-.273-.627a.83.83 0 0 1 .273-.626c.186-.176.408-.264.666-.264a.92.92 0 0 1 .662.264c.185.172.278.381.278.626s-.093.451-.278.627a.93.93 0 0 1-.662.258zm5.813 8.969c-.716 0-1.341-.164-1.875-.492s-.948-.787-1.243-1.377-.442-1.28-.442-2.069.147-1.484.442-2.078.71-1.054 1.243-1.382 1.159-.492 1.875-.492 1.34.164 1.874.492a3.31 3.31 0 0 1 1.243 1.382c.295.594.442 1.286.442 2.078s-.147 1.479-.442 2.069-.709 1.049-1.243 1.377-1.158.492-1.874.492zm.005-1.248c.464 0 .848-.123 1.153-.368s.53-.572.676-.979.224-.857.224-1.348-.075-.934-.224-1.342-.371-.741-.676-.989-.689-.373-1.153-.373-.856.124-1.164.373-.532.578-.681.989-.219.855-.219 1.342.073.94.219 1.348.376.734.681.979.696.368 1.164.368zm6.56-3.44v4.534h-1.486v-7.637h1.426v1.243h.095c.176-.404.451-.729.825-.974s.854-.368 1.427-.368c.52 0 .976.109 1.367.328s.695.537.91.965.323.956.323 1.585v4.858h-1.486v-4.679c0-.553-.145-.986-.433-1.297s-.684-.472-1.188-.472c-.345 0-.651.074-.92.223s-.475.368-.631.657-.229.629-.229 1.034zm12.463-1.238l-1.347.238a1.61 1.61 0 0 0-.269-.492c-.119-.156-.281-.283-.487-.383s-.462-.149-.771-.149c-.42 0-.772.095-1.053.284s-.423.425-.423.72a.76.76 0 0 0 .283.617c.189.156.494.283.915.383l1.213.278c.703.163 1.226.413 1.571.751s.517.777.517 1.317c0 .458-.132.865-.398 1.223s-.628.633-1.098.836-1.009.303-1.626.303c-.855 0-1.553-.182-2.093-.547s-.872-.89-.994-1.566l1.436-.219c.09.375.274.658.552.85s.642.284 1.089.284c.487 0 .877-.101 1.168-.304s.438-.455.438-.75a.78.78 0 0 0-.269-.602c-.175-.162-.445-.285-.81-.368l-1.293-.283c-.712-.163-1.239-.421-1.58-.776s-.508-.803-.508-1.347c0-.451.126-.845.378-1.183s.6-.602 1.044-.791.953-.288 1.527-.288c.825 0 1.474.179 1.948.537s.788.83.94 1.427z" class="H"/><rect x="178" y="531.381" width="6" height="6" rx="3" fill="#f9dd88"/><rect x="123.5" y="510.951" width="372" height="47" rx="3.5" class="I"/><rect x="-1" y="1" width="421" height="75" rx="7" transform="matrix(-1 0 0 1 519 491.451)" class="J K L"/><rect x="-2" y="2" width="447" height="99.282" rx="6" transform="matrix(-1 0 0 1 531 478.451)" class="B C"/><defs ><path id="B" d="M355.621 511.269l10.182-13.818 13.818-10.182-13.818-10.182-10.182-13.818-10.182 13.818-13.818 10.182 13.818 10.182 10.182 13.818z"/></defs></svg>