<svg width="608" height="561" viewBox="0 0 608 561" fill="none" xmlns="http://www.w3.org/2000/svg">
<path d="M48.4961 -31.3209L48.496 47.3187M48.496 591.792L48.496 311.482M48.496 245.74L48.496 97.5217" stroke="#97969C" stroke-dasharray="4 4"/>
<path d="M150.688 -30.944L150.687 371.101M150.687 591.617L150.687 395.774" stroke="#97969C" stroke-dasharray="4 4"/>
<path d="M252.379 -31.1334L252.379 133.66M252.379 591.614L252.379 510.368M252.379 216.375L252.379 460.769" stroke="#97969C" stroke-dasharray="4 4"/>
<path d="M355.07 -30.944L355.07 59.7994M355.07 591.61L355.07 84.1019" stroke="#97969C" stroke-dasharray="4 4"/>
<path d="M457.261 -31.1315L457.262 342.561M457.262 591.618L457.262 425.634" stroke="#97969C" stroke-dasharray="4 4"/>
<path d="M559.453 -31.3229L559.453 152.505M559.453 591.607L559.453 288.589M559.453 198.524L559.453 271.355" stroke="#97969C" stroke-dasharray="4 4"/>
<path d="M608 487.288L277.773 487.288M0 487.288L228.393 487.288" stroke="#97969C" stroke-dasharray="4 4"/>
<path d="M608 383.495H495.737M0 383.495L138.654 383.495M417.532 383.495H163.326" stroke="#97969C" stroke-dasharray="4 4"/>
<path d="M608 175.91H582.328M0 175.91L211.292 175.91M292 175.91L534.642 175.91" stroke="#97969C" stroke-dasharray="4 4"/>
<path d="M608 279.703H568.52M0 279.703H15.3224M80.6456 279.703L550.88 279.703" stroke="#97969C" stroke-dasharray="4 4"/>
<path d="M608 72.1166L368.442 72.1166M0 72.1166H25.1209M73.46 72.1166L342.478 72.1166" stroke="#97969C" stroke-dasharray="4 4"/>
<path d="M252.379 511.269L242.197 497.451L228.379 487.269L242.197 477.087L252.379 463.269L262.561 477.087L276.379 487.269L262.561 497.451L252.379 511.269Z" stroke="#97969C" stroke-dasharray="4 4"/>
<path d="M48.5195 96.0345L38.3372 82.2169L24.5195 72.0345L38.3372 61.8522L48.5195 48.0345L58.7019 61.8522L72.5195 72.0345L58.7019 82.2169L48.5195 96.0345Z" stroke="#97969C" stroke-dasharray="4 4"/>
<path d="M559.398 199.765L549.216 185.947L535.398 175.765L549.216 165.583L559.398 151.765L569.581 165.583L583.398 175.765L569.581 185.947L559.398 199.765Z" stroke="#97969C" stroke-dasharray="4 4"/>
<path d="M48.5312 311.619L34.9548 293.195L16.5312 279.619L34.9548 266.042L48.5312 247.619L62.1077 266.042L80.5312 279.619L62.1077 293.195L48.5312 311.619Z" stroke="#97969C" stroke-dasharray="4 4"/>
<path d="M457.246 423.525L440.276 400.495L417.246 383.525L440.276 366.554L457.246 343.525L474.217 366.554L497.246 383.525L474.217 400.495L457.246 423.525Z" stroke="#97969C" stroke-dasharray="4 4"/>
<path d="M252.379 215.915L235.408 192.886L212.379 175.915L235.408 158.945L252.379 135.915L269.349 158.945L292.379 175.915L269.349 192.886L252.379 215.915Z" stroke="#97969C" stroke-dasharray="4 4"/>
<circle cx="150.754" cy="383.495" r="12" transform="rotate(180 150.754 383.495)" stroke="#97969C" stroke-dasharray="4 4"/>
<circle cx="559.453" cy="279.703" r="8" transform="rotate(180 559.453 279.703)" stroke="#97969C" stroke-dasharray="4 4"/>
<circle cx="355.402" cy="72.1166" r="12" transform="rotate(180 355.402 72.1166)" stroke="#97969C" stroke-dasharray="4 4"/>
<rect x="-2" y="2" width="441.955" height="422.315" rx="6" transform="matrix(-1 0 0 1 501.889 73.6403)" fill="#121212"/>
<rect x="-2" y="2" width="441.955" height="422.315" rx="6" transform="matrix(-1 0 0 1 501.889 73.6403)" stroke="#121212" stroke-width="4"/>
<rect x="-2" y="2" width="441.12" height="419.085" rx="6" transform="matrix(-1 0 0 1 520.825 60.7211)" fill="#F5F6F8"/>
<rect x="-2" y="2" width="441.12" height="419.085" rx="6" transform="matrix(-1 0 0 1 520.825 60.7211)" stroke="#121212" stroke-width="4"/>
<rect x="91.7861" y="73.639" width="422" height="38" rx="4" fill="white"/>
<rect x="108.786" y="87.639" width="10" height="10" rx="5" fill="#EB5757"/>
<rect x="126.786" y="87.639" width="10" height="10" rx="5" fill="#F2C94C"/>
<rect x="144.786" y="87.639" width="10" height="10" rx="5" fill="#27AE60"/>
<path d="M488.224 86.639C488.224 86.0868 487.776 85.639 487.224 85.639C486.671 85.639 486.224 86.0868 486.224 86.639H488.224ZM486.224 98.639C486.224 99.1913 486.671 99.639 487.224 99.639C487.776 99.639 488.224 99.1913 488.224 98.639H486.224ZM486.224 86.639V98.639H488.224V86.639H486.224Z" fill="#E7EDF5"/>
<path d="M493.224 93.639C493.776 93.639 494.224 93.1913 494.224 92.639C494.224 92.0868 493.776 91.639 493.224 91.639L493.224 93.639ZM481.224 91.639C480.671 91.639 480.224 92.0868 480.224 92.639C480.224 93.1913 480.671 93.639 481.224 93.639L481.224 91.639ZM493.224 91.639L481.224 91.639L481.224 93.639L493.224 93.639L493.224 91.639Z" fill="#E7EDF5"/>
<rect x="-1" y="1" width="419" height="345" rx="7" transform="matrix(-1 0 0 1 510.786 124.639)" fill="#F5F6F8"/>
<path d="M145.332 165.639V159.933L145.188 157.611H145.368L146.088 159.969L147.906 164.811H151.182L153 159.969L153.702 157.611H153.9L153.756 159.933V165.639H156.456V153.579H152.658L150.642 159.213L149.688 162.309H149.508L148.536 159.213L146.43 153.579H142.632V165.639H145.332ZM162.729 165.819C165.321 165.819 166.977 164.685 166.977 162.759V162.579H164.313V162.687C164.313 163.245 163.845 163.479 162.765 163.479C161.289 163.479 160.785 162.975 160.731 161.715H166.941C166.995 161.409 167.067 160.887 167.067 160.383C167.067 158.025 165.465 156.405 162.747 156.405C159.921 156.405 158.193 158.241 158.193 161.139C158.193 164.001 159.615 165.819 162.729 165.819ZM162.657 158.619C163.917 158.619 164.529 159.141 164.475 160.077H160.749C160.857 159.123 161.361 158.619 162.657 158.619ZM172.985 165.819C175.487 165.819 176.873 164.739 176.873 163.047C176.873 161.571 176.081 160.707 174.173 160.347L172.517 160.005C171.437 159.789 171.275 159.663 171.275 159.231C171.275 158.799 171.527 158.565 172.607 158.565C173.759 158.565 174.011 158.889 174.011 159.483V159.735H176.585V159.483C176.585 157.449 174.893 156.405 172.679 156.405C170.105 156.405 168.737 157.593 168.737 159.267C168.737 160.941 169.709 161.697 171.491 162.021L172.859 162.273C174.065 162.489 174.317 162.597 174.317 163.083C174.317 163.533 174.137 163.695 173.039 163.695C171.725 163.695 171.329 163.551 171.329 162.885V162.507H168.755V162.561C168.755 164.757 170.141 165.819 172.985 165.819ZM182.613 165.819C185.115 165.819 186.501 164.739 186.501 163.047C186.501 161.571 185.709 160.707 183.801 160.347L182.145 160.005C181.065 159.789 180.903 159.663 180.903 159.231C180.903 158.799 181.155 158.565 182.235 158.565C183.387 158.565 183.639 158.889 183.639 159.483V159.735H186.213V159.483C186.213 157.449 184.521 156.405 182.307 156.405C179.733 156.405 178.365 157.593 178.365 159.267C178.365 160.941 179.337 161.697 181.119 162.021L182.487 162.273C183.693 162.489 183.945 162.597 183.945 163.083C183.945 163.533 183.765 163.695 182.667 163.695C181.353 163.695 180.957 163.551 180.957 162.885V162.507H178.383V162.561C178.383 164.757 179.769 165.819 182.613 165.819ZM190.8 165.819C192.474 165.819 193.392 165.081 193.878 164.415H193.986V165.639H196.488V160.275C196.488 157.863 195.084 156.405 192.42 156.405C189.864 156.405 188.19 157.827 188.19 159.987V160.185H190.764V159.987C190.764 159.069 191.196 158.763 192.294 158.763C193.356 158.763 193.932 158.961 193.932 160.023V160.311L190.836 160.779C188.964 161.067 187.956 161.931 187.956 163.335C187.956 164.973 189.198 165.819 190.8 165.819ZM190.53 163.119C190.53 162.741 190.782 162.561 191.34 162.471L193.932 162.075C193.932 163.479 192.798 163.767 191.7 163.767C190.908 163.767 190.53 163.605 190.53 163.119ZM202.086 164.685C203.454 164.685 204.408 164.073 204.804 163.371H204.912V164.775C204.912 166.179 204.624 166.503 203.202 166.503C201.654 166.503 201.384 166.269 201.384 165.333H198.702C198.702 167.637 200.286 168.879 203.112 168.879C206.028 168.879 207.594 167.583 207.594 164.631V156.585H205.092V157.899H205.002C204.516 156.909 203.49 156.405 202.194 156.405C199.62 156.405 198.252 158.043 198.252 160.563C198.252 163.083 199.584 164.685 202.086 164.685ZM200.934 160.563C200.934 159.285 201.384 158.691 202.932 158.691C204.228 158.691 204.912 159.141 204.912 160.293V160.833C204.912 161.985 204.21 162.435 202.914 162.435C201.384 162.435 200.934 161.841 200.934 160.563ZM213.892 165.819C216.484 165.819 218.14 164.685 218.14 162.759V162.579H215.476V162.687C215.476 163.245 215.008 163.479 213.928 163.479C212.452 163.479 211.948 162.975 211.894 161.715H218.104C218.158 161.409 218.23 160.887 218.23 160.383C218.23 158.025 216.628 156.405 213.91 156.405C211.084 156.405 209.356 158.241 209.356 161.139C209.356 164.001 210.778 165.819 213.892 165.819ZM213.82 158.619C215.08 158.619 215.692 159.141 215.638 160.077H211.912C212.02 159.123 212.524 158.619 213.82 158.619ZM224.148 165.819C226.65 165.819 228.036 164.739 228.036 163.047C228.036 161.571 227.244 160.707 225.336 160.347L223.68 160.005C222.6 159.789 222.438 159.663 222.438 159.231C222.438 158.799 222.69 158.565 223.77 158.565C224.922 158.565 225.174 158.889 225.174 159.483V159.735H227.748V159.483C227.748 157.449 226.056 156.405 223.842 156.405C221.268 156.405 219.9 157.593 219.9 159.267C219.9 160.941 220.872 161.697 222.654 162.021L224.022 162.273C225.228 162.489 225.48 162.597 225.48 163.083C225.48 163.533 225.3 163.695 224.202 163.695C222.888 163.695 222.492 163.551 222.492 162.885V162.507H219.918V162.561C219.918 164.757 221.304 165.819 224.148 165.819Z" fill="black"/>
<g clip-path="url(#clip0_6536_42282)">
<path d="M120.064 155.972C120.064 156.31 119.79 156.583 119.453 156.583H116.397C116.06 156.583 115.786 156.31 115.786 155.972C115.786 155.635 116.06 155.361 116.397 155.361H119.453C119.79 155.361 120.064 155.635 120.064 155.972ZM118.842 159.028C118.842 159.365 118.568 159.639 118.231 159.639H116.397C116.06 159.639 115.786 159.365 115.786 159.028C115.786 158.691 116.06 158.417 116.397 158.417H118.231C118.568 158.417 118.842 158.691 118.842 159.028ZM117.619 162.083C117.619 162.421 117.346 162.695 117.008 162.695H116.397C116.06 162.695 115.786 162.421 115.786 162.083C115.786 161.746 116.06 161.472 116.397 161.472H117.008C117.346 161.472 117.619 161.746 117.619 162.083Z" fill="#55ACEE"/>
<path d="M135.525 163.917C135.143 165.267 133.738 166.361 132.388 166.361H120.166C118.816 166.361 118.032 165.267 118.414 163.917L120.491 156.583C120.873 155.234 122.278 154.139 123.628 154.139H135.85C137.2 154.139 137.985 155.234 137.602 156.583L135.525 163.917Z" fill="#CCD6DD"/>
<path d="M126.38 159.417L118.465 165.108C118.444 165.125 118.432 165.146 118.413 165.163C118.522 165.512 118.73 165.801 119.019 166.009C119.041 165.995 119.064 165.989 119.085 165.973L127 160.281C127.306 160.042 127.416 159.656 127.245 159.417C127.073 159.178 126.687 159.178 126.38 159.417ZM134.82 165.163C134.81 165.146 134.81 165.125 134.799 165.108L130.109 159.417C129.937 159.178 129.551 159.178 129.244 159.417C128.938 159.656 128.828 160.042 128.999 160.281L133.69 165.973C133.701 165.988 133.721 165.995 133.734 166.009C134.141 165.801 134.513 165.512 134.82 165.163Z" fill="#99AAB5"/>
<path d="M137.602 156.583C137.985 155.234 137.2 154.139 135.85 154.139H123.628C122.278 154.139 120.874 155.234 120.491 156.583L120.479 156.629L125.86 161.794C126.857 162.762 128.175 162.695 129.359 162.021L137.442 157.154L137.602 156.583Z" fill="#99AAB5"/>
<path d="M135.85 154.139H123.628C122.664 154.139 121.679 154.702 121.051 155.513L126.683 160.887C127.141 161.326 128.171 161.332 128.918 160.887L137.653 155.529C137.49 154.709 136.821 154.139 135.85 154.139Z" fill="#E1E8ED"/>
</g>
<line x1="115.786" y1="185.661" x2="479.932" y2="185.661" stroke="#DFE7F2" stroke-width="2"/>
<rect x="449.935" y="144.639" width="30" height="30" rx="4" fill="white"/>
<path d="M465.935 153.639C465.935 153.087 465.487 152.639 464.935 152.639C464.382 152.639 463.935 153.087 463.935 153.639H465.935ZM463.935 165.639C463.935 166.191 464.382 166.639 464.935 166.639C465.487 166.639 465.935 166.191 465.935 165.639H463.935ZM463.935 153.639V165.639H465.935V153.639H463.935Z" fill="#B3C2D8"/>
<path d="M470.935 160.639C471.487 160.639 471.935 160.191 471.935 159.639C471.935 159.087 471.487 158.639 470.935 158.639L470.935 160.639ZM458.935 158.639C458.382 158.639 457.935 159.087 457.935 159.639C457.935 160.191 458.382 160.639 458.935 160.639L458.935 158.639ZM470.935 158.639L458.935 158.639L458.935 160.639L470.935 160.639L470.935 158.639Z" fill="#B3C2D8"/>
<rect x="115.786" y="227.682" width="170" height="122" rx="8" fill="#F1EAFF"/>
<path d="M130.453 316.463L133.861 318.545C137.268 320.627 144.083 324.791 150.899 321.944C157.714 319.097 164.529 309.239 171.344 309.499C178.159 309.758 184.974 320.137 191.789 325.263C198.605 330.389 205.42 330.262 212.235 328.618C219.05 326.974 225.865 323.812 232.68 317.456C239.496 311.1 246.311 301.551 253.126 294.697" stroke="#C6A9FF" stroke-width="2" stroke-linecap="round"/>
<path d="M142.61 283.096C148.81 283.096 152.97 280.576 152.97 275.416C152.97 271.576 150.73 269.176 147.05 268.656V268.496C150.45 268.016 152.01 265.736 152.01 262.656C152.01 257.976 148.41 255.496 142.37 255.496C135.65 255.496 132.05 258.976 132.05 264.096V264.456H136.29V264.136C136.29 260.776 137.69 259.456 142.33 259.456C146.09 259.456 147.69 260.536 147.69 263.336C147.69 266.136 146.33 267.016 142.81 267.016H138.05V270.616H143.41C147.13 270.616 148.61 271.616 148.61 274.976C148.61 278.096 146.93 279.136 142.69 279.136C137.41 279.136 136.29 277.816 136.29 274.456V273.856H132.05V274.496C132.05 279.616 134.97 283.096 142.61 283.096ZM166.433 283.096C173.833 283.096 177.153 279.496 177.153 273.936C177.153 268.536 173.673 265.336 167.953 265.336C164.433 265.336 161.913 266.416 160.513 267.576H160.393L161.033 259.776H175.713V255.896H157.233L156.313 270.136L160.113 270.736C161.433 269.976 163.353 269.056 166.633 269.056C171.153 269.056 172.873 270.456 172.873 274.056C172.873 277.816 171.313 279.136 166.593 279.136C162.153 279.136 160.153 278.096 160.153 275.096V274.856H155.873V275.096C155.873 280.016 159.473 283.096 166.433 283.096ZM191.906 283.096C199.106 283.096 203.506 277.776 203.506 269.296C203.506 260.816 199.106 255.496 191.906 255.496C184.706 255.496 180.346 260.816 180.346 269.296C180.346 277.776 184.706 283.096 191.906 283.096ZM191.906 278.936C187.146 278.936 184.946 276.376 184.946 269.296C184.946 262.216 187.146 259.656 191.906 259.656C196.666 259.656 198.906 262.216 198.906 269.296C198.906 276.376 196.666 278.936 191.906 278.936Z" fill="black"/>
<path d="M141.476 215.822C144.136 215.822 145.144 214.478 145.144 212.98C145.144 211.608 144.472 210.572 142.498 210.194L140.832 209.872C139.74 209.662 139.488 209.522 139.488 208.92C139.488 208.332 139.866 208.066 141.07 208.066C142.456 208.066 142.862 208.388 142.862 209.368V209.522H144.934V209.41C144.934 207.548 143.814 206.162 141.14 206.162C138.452 206.162 137.402 207.576 137.402 209.004C137.402 210.46 138.158 211.37 139.95 211.678L141.602 211.972C142.918 212.196 143.058 212.42 143.058 213.05C143.058 213.68 142.764 213.918 141.574 213.918C139.88 213.918 139.502 213.624 139.502 212.588V212.448H137.444V212.63C137.444 214.702 138.718 215.822 141.476 215.822ZM149.866 215.822C151.882 215.822 153.17 214.94 153.17 213.442V213.302H151.098V213.386C151.098 213.82 150.734 214.002 149.894 214.002C148.746 214.002 148.354 213.61 148.312 212.63H153.142C153.184 212.392 153.24 211.986 153.24 211.594C153.24 209.76 151.994 208.5 149.88 208.5C147.682 208.5 146.338 209.928 146.338 212.182C146.338 214.408 147.444 215.822 149.866 215.822ZM149.81 210.222C150.79 210.222 151.266 210.628 151.224 211.356H148.326C148.41 210.614 148.802 210.222 149.81 210.222ZM156.892 215.682V211.692C156.892 210.628 157.326 210.306 158.334 210.306C159.398 210.306 159.72 210.656 159.72 211.636V215.682H161.82V211.216C161.82 209.718 161.036 208.5 159.202 208.5C157.97 208.5 157.214 209.074 156.836 209.872H156.752V208.64H154.806V215.682H156.892ZM166.803 215.71C167.293 215.71 167.839 215.64 168.175 215.57V213.82H167.307C166.397 213.82 166.187 213.75 166.187 213.134V210.376H168.175V208.64H166.187V207.002H164.535L164.143 208.64H162.967V210.376H164.087V213.372C164.087 215.038 164.969 215.71 166.803 215.71Z" fill="black"/>
<g clip-path="url(#clip1_6536_42282)">
<path d="M132.005 210.659L127.803 209.103L126.234 203.96C126.173 203.762 125.99 203.626 125.782 203.626C125.575 203.626 125.391 203.762 125.331 203.96L123.762 209.103L119.559 210.659C119.374 210.728 119.251 210.904 119.251 211.102C119.251 211.299 119.374 211.476 119.559 211.545L123.76 213.1L125.329 218.399C125.389 218.6 125.573 218.737 125.782 218.737C125.991 218.737 126.176 218.6 126.235 218.399L127.805 213.099L132.006 211.544C132.19 211.476 132.314 211.3 132.314 211.102C132.314 210.904 132.19 210.728 132.005 210.659Z" fill="#FFAC33"/>
<path d="M122.562 215.854L121.469 215.449L121.044 213.891C120.988 213.685 120.802 213.543 120.589 213.543C120.376 213.543 120.189 213.685 120.133 213.891L119.708 215.449L118.616 215.853C118.43 215.922 118.307 216.099 118.307 216.296C118.307 216.494 118.43 216.671 118.616 216.739L119.702 217.142L120.131 218.852C120.183 219.062 120.372 219.209 120.589 219.209C120.805 219.209 120.994 219.062 121.047 218.852L121.475 217.141L122.562 216.739C122.747 216.671 122.87 216.494 122.87 216.296C122.87 216.099 122.747 215.922 122.562 215.854ZM120.513 205.624L119.397 205.211L118.983 204.094C118.915 203.908 118.738 203.786 118.54 203.786C118.343 203.786 118.166 203.908 118.097 204.094L117.684 205.211L116.567 205.624C116.382 205.693 116.259 205.87 116.259 206.067C116.259 206.264 116.382 206.441 116.567 206.51L117.684 206.923L118.097 208.04C118.166 208.225 118.343 208.348 118.54 208.348C118.737 208.348 118.914 208.225 118.983 208.04L119.396 206.923L120.513 206.51C120.699 206.441 120.821 206.264 120.821 206.067C120.821 205.87 120.699 205.693 120.513 205.624Z" fill="#FFCC4D"/>
</g>
<path d="M335.242 215.682C338.252 215.682 340.1 213.932 340.1 210.992C340.1 208.052 338.252 206.302 335.242 206.302H331.658V215.682H335.242ZM335.214 208.192C337.118 208.192 337.846 208.766 337.846 210.992C337.846 213.218 337.118 213.792 335.214 213.792H333.758V208.192H335.214ZM344.968 215.822C346.984 215.822 348.272 214.94 348.272 213.442V213.302H346.2V213.386C346.2 213.82 345.836 214.002 344.996 214.002C343.848 214.002 343.456 213.61 343.414 212.63H348.244C348.286 212.392 348.342 211.986 348.342 211.594C348.342 209.76 347.096 208.5 344.982 208.5C342.784 208.5 341.44 209.928 341.44 212.182C341.44 214.408 342.546 215.822 344.968 215.822ZM344.912 210.222C345.892 210.222 346.368 210.628 346.326 211.356H343.428C343.512 210.614 343.904 210.222 344.912 210.222ZM352.008 215.682V206.302H349.922V215.682H352.008ZM355.833 207.842V206.302H353.747L353.775 207.842H355.833ZM355.875 215.682V208.64H353.775V215.682H355.875ZM362.188 215.682L364.932 208.64H362.636L360.956 213.666H360.802L359.122 208.64H356.784L359.514 215.682H362.188ZM369.042 215.822C371.058 215.822 372.346 214.94 372.346 213.442V213.302H370.274V213.386C370.274 213.82 369.91 214.002 369.07 214.002C367.922 214.002 367.53 213.61 367.488 212.63H372.318C372.36 212.392 372.416 211.986 372.416 211.594C372.416 209.76 371.17 208.5 369.056 208.5C366.858 208.5 365.514 209.928 365.514 212.182C365.514 214.408 366.62 215.822 369.042 215.822ZM368.986 210.222C369.966 210.222 370.442 210.628 370.4 211.356H367.502C367.586 210.614 367.978 210.222 368.986 210.222ZM376.069 215.682V211.272C376.069 210.502 376.377 210.278 377.021 210.278C377.679 210.278 377.917 210.516 377.917 211.272V211.65H380.003V211.006C380.003 209.592 379.457 208.5 377.987 208.5C376.993 208.5 376.363 209.06 376.013 209.774H375.929V208.64H373.983V215.682H376.069ZM384.668 215.822C386.684 215.822 387.972 214.94 387.972 213.442V213.302H385.9V213.386C385.9 213.82 385.536 214.002 384.696 214.002C383.548 214.002 383.156 213.61 383.114 212.63H387.944C387.986 212.392 388.042 211.986 388.042 211.594C388.042 209.76 386.796 208.5 384.682 208.5C382.484 208.5 381.14 209.928 381.14 212.182C381.14 214.408 382.246 215.822 384.668 215.822ZM384.612 210.222C385.592 210.222 386.068 210.628 386.026 211.356H383.128C383.212 210.614 383.604 210.222 384.612 210.222ZM392.49 215.822C393.526 215.822 394.324 215.402 394.688 214.646H394.758V215.682H396.704V206.302H394.618V209.564H394.534C394.212 208.976 393.568 208.5 392.49 208.5C390.572 208.5 389.438 209.942 389.438 212.168C389.438 214.38 390.502 215.822 392.49 215.822ZM391.524 212.168C391.524 210.88 391.86 210.292 393.078 210.292C394.072 210.292 394.618 210.642 394.618 211.594V212.728C394.618 213.68 394.072 214.03 393.078 214.03C391.86 214.03 391.524 213.442 391.524 212.168Z" fill="black"/>
<g clip-path="url(#clip2_6536_42282)">
<path d="M320.389 218.265C320.389 219.308 316.611 219.308 316.611 218.265V213.543C316.611 212.499 317.457 211.654 318.5 211.654C319.543 211.654 320.389 212.499 320.389 213.543V218.265Z" fill="#C1694F"/>
<path d="M314.722 204.098C312.636 204.098 310.944 205.79 310.944 207.876V213.543H318.5V207.876C318.5 205.79 316.808 204.098 314.722 204.098Z" fill="#292F33"/>
<path d="M319.444 211.541C319.444 212.125 318.942 212.598 318.362 212.598H311.083C310.502 212.598 310 212.125 310 211.541V206.572C310 205.988 310.502 205.515 311.083 205.515H318.362C318.942 205.515 319.444 205.988 319.444 206.572V211.541Z" fill="#CCD6DD"/>
<path d="M319.444 206.572C319.444 205.988 318.942 205.515 318.362 205.515H311.083C310.502 205.515 310 205.988 310 206.572V207.242L312.304 209.558L310.047 211.827C310.1 212.005 310.196 212.166 310.328 212.292L312.676 209.932L313.813 211.074C314.31 211.574 315.12 211.574 315.617 211.074L316.763 209.925L319.116 212.292C319.248 212.165 319.344 212.005 319.398 211.827L317.135 209.552L319.444 207.237V206.572Z" fill="#99AAB5"/>
<path d="M318.362 205.515H311.083C310.533 205.515 310.057 205.943 310.01 206.485L313.98 210.45C314.391 210.863 315.055 210.847 315.465 210.434L319.437 206.493C319.392 205.946 318.914 205.515 318.362 205.515Z" fill="#E1E8ED"/>
<path d="M322.278 204.098H314.723C316.809 204.098 318.5 205.79 318.5 207.876V213.543H326.056V207.876C326.056 205.79 324.364 204.098 322.278 204.098Z" fill="#99AAB5"/>
<path d="M322.278 203.154H320.389C319.867 203.154 319.444 203.577 319.444 204.098V209.765C319.444 210.286 319.867 210.709 320.389 210.709C320.91 210.709 321.333 210.286 321.333 209.765V205.987H322.278C322.799 205.987 323.222 205.564 323.222 205.043V204.098C323.222 203.577 322.799 203.154 322.278 203.154Z" fill="#DD2E44"/>
</g>
<rect x="310" y="227.682" width="170" height="122" rx="8" fill="#EAEEFF"/>
<path d="M324.664 316.463L328.276 318.545C331.888 320.627 339.111 324.791 346.335 321.944C353.559 319.096 360.782 309.238 368.006 309.498C375.23 309.758 382.453 320.136 389.677 325.262C396.901 330.388 404.124 330.262 411.348 328.618C418.572 326.973 425.795 323.811 433.019 317.455C440.242 311.1 447.466 301.55 454.69 294.696" stroke="#8199FD" stroke-width="2" stroke-linecap="round"/>
<path d="M336.824 283.096C343.024 283.096 347.184 280.576 347.184 275.416C347.184 271.576 344.944 269.176 341.264 268.656V268.496C344.664 268.016 346.224 265.736 346.224 262.656C346.224 257.976 342.624 255.496 336.584 255.496C329.864 255.496 326.264 258.976 326.264 264.096V264.456H330.504V264.136C330.504 260.776 331.904 259.456 336.544 259.456C340.304 259.456 341.904 260.536 341.904 263.336C341.904 266.136 340.544 267.016 337.024 267.016H332.264V270.616H337.624C341.344 270.616 342.824 271.616 342.824 274.976C342.824 278.096 341.144 279.136 336.904 279.136C331.624 279.136 330.504 277.816 330.504 274.456V273.856H326.264V274.496C326.264 279.616 329.184 283.096 336.824 283.096ZM358.299 282.696V255.896H354.499C353.379 258.296 351.899 259.216 349.379 259.216H348.339V262.296H353.979V282.696H358.299ZM374.44 283.096C381.64 283.096 386.04 277.776 386.04 269.296C386.04 260.816 381.64 255.496 374.44 255.496C367.24 255.496 362.88 260.816 362.88 269.296C362.88 277.776 367.24 283.096 374.44 283.096ZM374.44 278.936C369.68 278.936 367.48 276.376 367.48 269.296C367.48 262.216 369.68 259.656 374.44 259.656C379.2 259.656 381.44 262.216 381.44 269.296C381.44 276.376 379.2 278.936 374.44 278.936Z" fill="black"/>
<rect x="116" y="365.639" width="364" height="93" rx="8" fill="white"/>
<rect x="142.766" y="388.639" width="79" height="10" rx="5" fill="#EEF1F7"/>
<rect x="242" y="388.639" width="203" height="10" rx="5" fill="#EEF1F7"/>
<rect x="143" y="422.639" width="258" height="10" rx="5" fill="#EEF1F7"/>
<rect x="-1" y="1" width="419" height="345" rx="7" transform="matrix(-1 0 0 1 510.786 124.639)" stroke="#E1E8F2" stroke-width="2" stroke-dasharray="8 8"/>
<defs>
<clipPath id="clip0_6536_42282">
<rect width="22" height="22" fill="white" transform="translate(115.786 148.639)"/>
</clipPath>
<clipPath id="clip1_6536_42282">
<rect width="17" height="17" fill="white" transform="translate(115.786 202.682)"/>
</clipPath>
<clipPath id="clip2_6536_42282">
<rect width="17" height="17" fill="white" transform="translate(310 202.682)"/>
</clipPath>
</defs>
</svg>
