<svg width="24" height="24" viewBox="0 0 24 24" fill="none" xmlns="http://www.w3.org/2000/svg">
<path d="M9.55 11.502C8.95326 11.502 8.38097 11.2649 7.95901 10.8429C7.53705 10.421 7.3 9.84869 7.3 9.25195C7.3 8.65522 7.53705 8.08292 7.95901 7.66096C8.38097 7.23901 8.95326 7.00195 9.55 7.00195C10.1467 7.00195 10.719 7.23901 11.141 7.66096C11.5629 8.08292 11.8 8.65522 11.8 9.25195C11.8 9.84869 11.5629 10.421 11.141 10.8429C10.719 11.2649 10.1467 11.502 9.55 11.502ZM10 19.75V16.402C10 15.914 10.144 15.465 10.404 15.064C9.51266 14.9371 8.60468 14.9977 7.73806 15.2417C6.87144 15.4856 6.06525 15.9077 5.371 16.481C6.46407 18.0985 8.11014 19.2613 10 19.751V19.75ZM4.453 14.662C5.91349 13.5811 7.68308 12.9991 9.5 13.002C10.543 13.002 11.543 13.19 12.467 13.534C13.345 13.191 14.392 13.002 15.5 13.002C17.16 13.002 18.685 13.426 19.706 14.158C20.0435 12.9478 20.0913 11.6752 19.8455 10.4432C19.5997 9.21113 19.0671 8.05431 18.291 7.06639C17.5149 6.07847 16.517 5.28723 15.3782 4.75674C14.2394 4.22625 12.9916 3.97143 11.736 4.01292C10.4803 4.05441 9.2521 4.39104 8.15077 4.99555C7.04945 5.60006 6.10597 6.45545 5.39676 7.49245C4.68755 8.52945 4.23254 9.7189 4.06858 10.9645C3.90461 12.2101 4.03631 13.4767 4.453 14.662ZM18.879 16.088C18.486 15.555 17.171 15.002 15.5 15.002C13.494 15.002 12 15.799 12 16.402V20.002C13.3878 20.0027 14.752 19.6423 15.9583 18.956C17.1646 18.2697 18.1715 17.2813 18.88 16.088H18.879ZM12 22.002C6.477 22.002 2 17.525 2 12.002C2 6.47895 6.477 2.00195 12 2.00195C17.523 2.00195 22 6.47895 22 12.002C22 17.525 17.523 22.002 12 22.002ZM15.5 12.502C14.9696 12.502 14.4609 12.2912 14.0858 11.9162C13.7107 11.5411 13.5 11.0324 13.5 10.502C13.5 9.97152 13.7107 9.46281 14.0858 9.08774C14.4609 8.71267 14.9696 8.50195 15.5 8.50195C16.0304 8.50195 16.5391 8.71267 16.9142 9.08774C17.2893 9.46281 17.5 9.97152 17.5 10.502C17.5 11.0324 17.2893 11.5411 16.9142 11.9162C16.5391 12.2912 16.0304 12.502 15.5 12.502Z" fill="white"/>
</svg>
