<svg width="1094" height="511" viewBox="0 0 1094 511" fill="none" xmlns="http://www.w3.org/2000/svg">
<mask id="mask0" mask-type="alpha" maskUnits="userSpaceOnUse" x="0" y="0" width="1094" height="511">
<rect width="1094" height="511" fill="#EFF2F7"/>
</mask>
<g mask="url(#mask0)">
<path d="M27 71H1067V511H27V71Z" fill="#C4C4C4"/>
<path d="M23 50C23 36.7452 33.7452 26 47 26H1048C1061.25 26 1072 36.7452 1072 50V73H23V50Z" fill="white" stroke="#F0F2F5" stroke-width="2"/>
<path d="M965.667 46V47.3333H962.333V56.6667H971.667V53.3333H973V57.3333C973 57.5101 972.93 57.6797 972.805 57.8047C972.68 57.9298 972.51 58 972.333 58H961.667C961.49 58 961.32 57.9298 961.195 57.8047C961.07 57.6797 961 57.5101 961 57.3333V46.6667C961 46.4899 961.07 46.3203 961.195 46.1953C961.32 46.0702 961.49 46 961.667 46H965.667ZM970.724 47.3333H967.667V46H973V51.3333H971.667V48.276L967 52.9427L966.057 52L970.724 47.3333Z" fill="#74859C"/>
<path d="M1035.67 48.6673V46.0007C1035.67 45.8238 1035.74 45.6543 1035.86 45.5292C1035.99 45.4042 1036.16 45.334 1036.33 45.334H1045C1045.18 45.334 1045.35 45.4042 1045.47 45.5292C1045.6 45.6543 1045.67 45.8238 1045.67 46.0007V54.6673C1045.67 54.8441 1045.6 55.0137 1045.47 55.1387C1045.35 55.2637 1045.18 55.334 1045 55.334H1042.33V57.996C1042.33 58.3667 1042.03 58.6673 1041.66 58.6673H1033C1032.92 58.6674 1032.83 58.6501 1032.75 58.6164C1032.67 58.5827 1032.59 58.5332 1032.53 58.4709C1032.47 58.4085 1032.42 58.3345 1032.38 58.253C1032.35 58.1715 1032.33 58.0842 1032.33 57.996L1032.34 49.3387C1032.34 48.968 1032.63 48.6673 1033.01 48.6673H1035.67ZM1037 48.6673H1041.66C1042.03 48.6673 1042.33 48.9667 1042.33 49.3387V54.0007H1044.33V46.6673H1037V48.6673ZM1033.67 50.0007L1033.67 57.334H1041V50.0007H1033.67Z" fill="#74859C"/>
<path d="M1002.33 51.334V47.334H1003.67V51.334H1007.67V52.6673H1003.67V56.6673H1002.33V52.6673H998.333V51.334H1002.33Z" fill="#74859C"/>
<path d="M924.333 51.9993C924.333 48.3193 927.32 45.3327 931 45.3327C934.68 45.3327 937.666 48.3193 937.666 51.9993C937.666 55.6793 934.68 58.666 931 58.666C927.32 58.666 924.333 55.6793 924.333 51.9993ZM936.333 51.9993C936.333 49.0527 933.946 46.666 931 46.666C928.053 46.666 925.666 49.0527 925.666 51.9993C925.666 54.946 928.053 57.3327 931 57.3327C933.946 57.3327 936.333 54.946 936.333 51.9993ZM930.333 51.9993L930.333 49.3327L931.666 49.3327L931.666 51.9993L933.666 51.9993L931 54.666L928.333 51.9993L930.333 51.9993Z" fill="#74859C"/>
<path d="M191.218 52.0005L194.518 55.3005L193.576 56.2431L189.333 52.0005L193.576 47.7578L194.518 48.7005L191.218 52.0005Z" fill="#74859C"/>
<path d="M214.782 51.9995L211.482 48.6995L212.424 47.7569L216.667 51.9995L212.424 56.2422L211.482 55.2995L214.782 51.9995Z" fill="#CBD7EA"/>
<path d="M142 46C142.176 46 142.346 46.0702 142.471 46.1953C142.596 46.3203 142.666 46.4899 142.666 46.6667V57.3333C142.666 57.5101 142.596 57.6797 142.471 57.8047C142.346 57.9298 142.176 58 142 58H130C129.823 58 129.653 57.9298 129.528 57.8047C129.403 57.6797 129.333 57.5101 129.333 57.3333V46.6667C129.333 46.4899 129.403 46.3203 129.528 46.1953C129.653 46.0702 129.823 46 130 46H142ZM132.666 47.3333H130.666V56.6667H132.666V47.3333ZM141.333 47.3333H134V56.6667H141.333V47.3333Z" fill="#74859C"/>
<circle cx="52" cy="52" r="4" fill="#EB5757"/>
<circle cx="68" cy="52" r="4" fill="#F2C94C"/>
<circle cx="84" cy="52" r="4" fill="#05C46B"/>
<path d="M358.522 45.8833L364 44.666L369.478 45.8833C369.626 45.9163 369.758 45.9987 369.853 46.117C369.948 46.2352 370 46.3824 370 46.534V53.192C370 53.8505 369.837 54.4988 369.527 55.0794C369.216 55.6599 368.767 56.1548 368.219 56.52L364 59.3327L359.781 56.52C359.234 56.1548 358.784 55.6601 358.474 55.0796C358.163 54.4992 358 53.8511 358 53.1927V46.534C358 46.3824 358.052 46.2352 358.147 46.117C358.242 45.9987 358.374 45.9163 358.522 45.8833ZM359.333 47.0687V53.192C359.333 53.631 359.442 54.0632 359.649 54.4502C359.856 54.8372 360.155 55.1672 360.521 55.4107L364 57.7307L367.479 55.4107C367.844 55.1672 368.144 54.8374 368.351 54.4505C368.558 54.0636 368.667 53.6315 368.667 53.1927V47.0687L364 46.0327L359.333 47.0687ZM364.667 50.666H366.667L363.333 55.3327V51.9993H361.333L364.667 47.3327V50.666Z" fill="#74859C"/>
<rect opacity="0.5" x="392" y="42" width="347" height="20" rx="5" fill="#DEE5EF"/>
<path d="M530.5 51H531C531.133 51 531.26 51.0527 531.354 51.1464C531.447 51.2402 531.5 51.3674 531.5 51.5V56.5C531.5 56.6326 531.447 56.7598 531.354 56.8536C531.26 56.9473 531.133 57 531 57H523C522.867 57 522.74 56.9473 522.646 56.8536C522.553 56.7598 522.5 56.6326 522.5 56.5V51.5C522.5 51.3674 522.553 51.2402 522.646 51.1464C522.74 51.0527 522.867 51 523 51H523.5V50.5C523.5 50.0404 523.591 49.5852 523.766 49.1606C523.942 48.736 524.2 48.3501 524.525 48.0251C524.85 47.7001 525.236 47.4423 525.661 47.2664C526.085 47.0905 526.54 47 527 47C527.46 47 527.915 47.0905 528.339 47.2664C528.764 47.4423 529.15 47.7001 529.475 48.0251C529.8 48.3501 530.058 48.736 530.234 49.1606C530.409 49.5852 530.5 50.0404 530.5 50.5V51ZM529.5 51V50.5C529.5 49.837 529.237 49.2011 528.768 48.7322C528.299 48.2634 527.663 48 527 48C526.337 48 525.701 48.2634 525.232 48.7322C524.763 49.2011 524.5 49.837 524.5 50.5V51H529.5ZM526.5 53V55H527.5V53H526.5Z" fill="#74859C"/>
<path d="M539.781 55.1207C540.683 55.1207 541.191 54.6626 541.393 54.2543H541.436V55H542.473V51.3778C542.473 49.7905 541.223 49.4744 540.357 49.4744C539.369 49.4744 538.46 49.8722 538.105 50.8665L539.103 51.0938C539.259 50.7067 539.657 50.3338 540.371 50.3338C541.056 50.3338 541.408 50.6925 541.408 51.3104V51.3352C541.408 51.7223 541.01 51.7152 540.03 51.8288C538.996 51.9496 537.938 52.2195 537.938 53.4588C537.938 54.5312 538.744 55.1207 539.781 55.1207ZM540.012 54.2685C539.412 54.2685 538.979 53.9986 538.979 53.473C538.979 52.9048 539.483 52.7024 540.097 52.6207C540.442 52.5746 541.258 52.4822 541.411 52.3295V53.0327C541.411 53.679 540.896 54.2685 540.012 54.2685ZM543.987 57.0455H545.049V54.1513H545.113C545.305 54.4993 545.695 55.1065 546.69 55.1065C548.011 55.1065 548.969 54.0483 548.969 52.2834C548.969 50.5149 547.996 49.4744 546.679 49.4744C545.667 49.4744 545.301 50.0923 545.113 50.4297H545.024V49.5455H543.987V57.0455ZM545.028 52.2727C545.028 51.1328 545.525 50.3764 546.452 50.3764C547.414 50.3764 547.897 51.1896 547.897 52.2727C547.897 53.3665 547.4 54.201 546.452 54.201C545.539 54.201 545.028 53.4197 545.028 52.2727ZM550.259 57.0455H551.321V54.1513H551.385C551.577 54.4993 551.967 55.1065 552.962 55.1065C554.283 55.1065 555.241 54.0483 555.241 52.2834C555.241 50.5149 554.268 49.4744 552.951 49.4744C551.939 49.4744 551.573 50.0923 551.385 50.4297H551.296V49.5455H550.259V57.0455ZM551.3 52.2727C551.3 51.1328 551.797 50.3764 552.724 50.3764C553.686 50.3764 554.169 51.1896 554.169 52.2727C554.169 53.3665 553.672 54.201 552.724 54.201C551.811 54.201 551.3 53.4197 551.3 52.2727ZM557.231 55.0675C557.618 55.0675 557.941 54.7514 557.941 54.3572C557.941 53.9702 557.618 53.6506 557.231 53.6506C556.84 53.6506 556.52 53.9702 556.52 54.3572C556.52 54.7514 556.84 55.0675 557.231 55.0675ZM561.814 55.1101C563.003 55.1101 563.845 54.5241 564.087 53.6364L563.082 53.4553C562.89 53.9702 562.428 54.233 561.825 54.233C560.915 54.233 560.305 53.6435 560.276 52.5923H564.154V52.2159C564.154 50.245 562.975 49.4744 561.739 49.4744C560.219 49.4744 559.218 50.6321 559.218 52.3082C559.218 54.0021 560.205 55.1101 561.814 55.1101ZM560.28 51.7969C560.322 51.0227 560.883 50.3516 561.746 50.3516C562.57 50.3516 563.11 50.9624 563.114 51.7969H560.28ZM566.494 51.7614C566.494 50.8913 567.027 50.3942 567.765 50.3942C568.486 50.3942 568.923 50.8665 568.923 51.6584V55H569.985V51.5305C569.985 50.1811 569.243 49.4744 568.127 49.4744C567.307 49.4744 566.771 49.8544 566.519 50.4332H566.451V49.5455H565.432V55H566.494V51.7614ZM573.796 57.1591C575.184 57.1591 576.257 56.5234 576.257 55.1207V49.5455H575.216V50.4297H575.138C574.95 50.0923 574.573 49.4744 573.558 49.4744C572.24 49.4744 571.271 50.5149 571.271 52.2514C571.271 53.9915 572.262 54.9183 573.551 54.9183C574.552 54.9183 574.939 54.3537 575.131 54.0057H575.198V55.0781C575.198 55.9339 574.612 56.3033 573.806 56.3033C572.922 56.3033 572.578 55.8594 572.389 55.5469L571.477 55.9233C571.764 56.5909 572.492 57.1591 573.796 57.1591ZM573.785 54.0376C572.837 54.0376 572.343 53.3097 572.343 52.2372C572.343 51.1896 572.826 50.3764 573.785 50.3764C574.712 50.3764 575.209 51.1328 575.209 52.2372C575.209 53.3629 574.701 54.0376 573.785 54.0376ZM579.368 55.1207C580.27 55.1207 580.778 54.6626 580.98 54.2543H581.023V55H582.06V51.3778C582.06 49.7905 580.81 49.4744 579.943 49.4744C578.956 49.4744 578.047 49.8722 577.692 50.8665L578.69 51.0938C578.846 50.7067 579.244 50.3338 579.957 50.3338C580.643 50.3338 580.994 50.6925 580.994 51.3104V51.3352C580.994 51.7223 580.597 51.7152 579.617 51.8288C578.583 51.9496 577.525 52.2195 577.525 53.4588C577.525 54.5312 578.331 55.1207 579.368 55.1207ZM579.599 54.2685C578.999 54.2685 578.565 53.9986 578.565 53.473C578.565 52.9048 579.07 52.7024 579.684 52.6207C580.028 52.5746 580.845 52.4822 580.998 52.3295V53.0327C580.998 53.679 580.483 54.2685 579.599 54.2685ZM585.861 57.1591C587.249 57.1591 588.322 56.5234 588.322 55.1207V49.5455H587.281V50.4297H587.203C587.015 50.0923 586.639 49.4744 585.623 49.4744C584.305 49.4744 583.336 50.5149 583.336 52.2514C583.336 53.9915 584.327 54.9183 585.616 54.9183C586.617 54.9183 587.004 54.3537 587.196 54.0057H587.264V55.0781C587.264 55.9339 586.678 56.3033 585.872 56.3033C584.987 56.3033 584.643 55.8594 584.455 55.5469L583.542 55.9233C583.83 56.5909 584.558 57.1591 585.861 57.1591ZM585.85 54.0376C584.902 54.0376 584.408 53.3097 584.408 52.2372C584.408 51.1896 584.891 50.3764 585.85 50.3764C586.777 50.3764 587.274 51.1328 587.274 52.2372C587.274 53.3629 586.766 54.0376 585.85 54.0376ZM592.197 55.1101C593.386 55.1101 594.228 54.5241 594.469 53.6364L593.464 53.4553C593.273 53.9702 592.811 54.233 592.207 54.233C591.298 54.233 590.687 53.6435 590.659 52.5923H594.537V52.2159C594.537 50.245 593.358 49.4744 592.122 49.4744C590.602 49.4744 589.601 50.6321 589.601 52.3082C589.601 54.0021 590.588 55.1101 592.197 55.1101ZM590.663 51.7969C590.705 51.0227 591.266 50.3516 592.129 50.3516C592.953 50.3516 593.493 50.9624 593.496 51.7969H590.663ZM596.515 55.0675C596.902 55.0675 597.225 54.7514 597.225 54.3572C597.225 53.9702 596.902 53.6506 596.515 53.6506C596.124 53.6506 595.804 53.9702 595.804 54.3572C595.804 54.7514 596.124 55.0675 596.515 55.0675ZM602.834 50.8771C602.614 50.0284 601.95 49.4744 600.771 49.4744C599.539 49.4744 598.665 50.1243 598.665 51.0902C598.665 51.8643 599.134 52.3793 600.157 52.6065L601.08 52.8089C601.606 52.9261 601.851 53.1605 601.851 53.5014C601.851 53.924 601.4 54.2543 600.704 54.2543C600.068 54.2543 599.66 53.9808 599.532 53.4446L598.506 53.6009C598.683 54.5668 599.486 55.1101 600.711 55.1101C602.028 55.1101 602.941 54.4105 602.941 53.4233C602.941 52.6527 602.451 52.1768 601.449 51.946L600.583 51.7472C599.983 51.6051 599.724 51.4027 599.727 51.0334C599.724 50.6143 600.178 50.3161 600.782 50.3161C601.442 50.3161 601.748 50.6818 601.872 51.0476L602.834 50.8771ZM606.506 55.1101C608.044 55.1101 609.049 53.9844 609.049 52.2976C609.049 50.6001 608.044 49.4744 606.506 49.4744C604.968 49.4744 603.963 50.6001 603.963 52.2976C603.963 53.9844 604.968 55.1101 606.506 55.1101ZM606.509 54.2188C605.504 54.2188 605.036 53.3416 605.036 52.294C605.036 51.25 605.504 50.3622 606.509 50.3622C607.507 50.3622 607.976 51.25 607.976 52.294C607.976 53.3416 607.507 54.2188 606.509 54.2188Z" fill="#74859C"/>
<path d="M728 47C730.761 47 733 49.2385 733 52C733 54.7615 730.761 57 728 57C725.239 57 723 54.7615 723 52H724C724 54.209 725.791 56 728 56C730.209 56 732 54.209 732 52C732 49.791 730.209 48 728 48C726.625 48 725.412 48.6935 724.693 49.75H726V50.75H723V47.75H724V49C724.912 47.785 726.365 47 728 47ZM728.5 49.5V51.7925L730.122 53.414L729.414 54.1215L727.5 52.2065V49.5H728.5Z" fill="#74859C"/>
<path d="M25 50C25 37.8497 34.8497 28 47 28H1048C1060.15 28 1070 37.8497 1070 50V537H25V50Z" stroke="#EFF2F7" stroke-width="6"/>
</g>
</svg>
