<svg width="16" height="16" viewBox="0 0 16 16" fill="none" xmlns="http://www.w3.org/2000/svg">
<g clip-path="url(#clip0_182_1675)">
<mask id="mask0_182_1675" style="mask-type:alpha" maskUnits="userSpaceOnUse" x="2" y="2" width="24" height="24">
<rect x="2" y="2" width="24" height="24" fill="#D9D9D9"/>
</mask>
<g mask="url(#mask0_182_1675)">
<path d="M6.8 9.8L7.5 9.075L6.425 8L7.5 6.925L6.8 6.2L5 8L6.8 9.8ZM9.2 9.8L11 8L9.2 6.2L8.5 6.925L9.575 8L8.5 9.075L9.2 9.8ZM4.5 12.5C4.225 12.5 3.9895 12.4022 3.7935 12.2065C3.59783 12.0105 3.5 11.775 3.5 11.5V4.5C3.5 4.225 3.59783 3.9895 3.7935 3.7935C3.9895 3.59783 4.225 3.5 4.5 3.5H6.6C6.70833 3.2 6.88967 2.95833 7.144 2.775C7.398 2.59167 7.68333 2.5 8 2.5C8.31667 2.5 8.60217 2.59167 8.8565 2.775C9.1105 2.95833 9.29167 3.2 9.4 3.5H11.5C11.775 3.5 12.0105 3.59783 12.2065 3.7935C12.4022 3.9895 12.5 4.225 12.5 4.5V11.5C12.5 11.775 12.4022 12.0105 12.2065 12.2065C12.0105 12.4022 11.775 12.5 11.5 12.5H4.5ZM8 4.125C8.10833 4.125 8.198 4.0895 8.269 4.0185C8.33967 3.94783 8.375 3.85833 8.375 3.75C8.375 3.64167 8.33967 3.552 8.269 3.481C8.198 3.41033 8.10833 3.375 8 3.375C7.89167 3.375 7.80217 3.41033 7.7315 3.481C7.6605 3.552 7.625 3.64167 7.625 3.75C7.625 3.85833 7.6605 3.94783 7.7315 4.0185C7.80217 4.0895 7.89167 4.125 8 4.125Z" fill="#121212"/>
</g>
</g>
<rect x="0.5" y="0.5" width="15" height="15" rx="1.5" stroke="#121212"/>
<defs>
<clipPath id="clip0_182_1675">
<rect width="12" height="12" fill="white" transform="translate(2 2)"/>
</clipPath>
</defs>
</svg>
