<svg width="77" height="47" viewBox="0 0 77 47" fill="none" xmlns="http://www.w3.org/2000/svg">
<g clip-path="url(#clip0_6724_41798)">
<path fill-rule="evenodd" clip-rule="evenodd" d="M41.0617 19.6819C40.3512 19.6845 39.6472 19.5464 38.9903 19.2757C38.8077 19.202 38.6305 19.1168 38.4595 19.0207C37.9165 19.8814 37.4125 20.9294 37.2299 21.5928C37.0472 22.2563 37.2299 46.739 37.2299 46.739H34.1159V43.8888C32.6607 45.9248 30.3591 46.9427 27.7193 46.9427C22.4733 46.9427 18.6484 43.2446 18.6484 37.7473C18.6484 32.2501 22.4729 28.5854 27.7193 28.5854C30.2579 28.5854 32.4918 29.5355 33.9809 31.4696V22.6541L33.9759 22.2563C33.8499 21.0927 33.4067 19.9915 32.7018 19.0705C32.3936 19.4327 32.0217 19.7375 31.6035 19.9692C30.8886 20.3716 30.0803 20.5791 29.2598 20.5708C29.1696 20.5708 29.0776 20.5686 28.9865 20.5639C28.8758 20.5583 28.767 20.5534 28.6607 20.5485C28.6343 20.5473 28.6081 20.5461 28.5821 20.5449C27.7544 20.5549 26.9306 20.4302 26.1432 20.1755C25.2918 19.8561 24.4585 19.24 23.5208 18.2358C22.8276 17.4936 22.1335 16.7986 21.3363 16.048C20.2505 15.0256 19.0746 14.1031 17.8227 13.292C16.8298 12.6487 15.7913 12.0788 14.7153 11.5866C13.7307 11.122 12.7048 10.7502 11.6509 10.476L11.6543 10.4724C12.6976 9.61257 13.8206 8.85406 15.0082 8.20725C16.1548 7.57076 17.3614 7.04854 18.6105 6.64814C20.0189 6.19132 21.4889 5.95234 22.9697 5.93949C24.8314 5.93157 26.6672 6.37593 28.3186 7.23426C29.7911 7.95758 31.1192 8.94263 32.2381 10.1412C33.0165 10.9922 33.5837 12.0138 33.8944 13.1236C34.1876 14.2451 34.1866 15.4231 33.8912 16.544C33.8404 16.7481 33.7812 16.9495 33.7137 17.148C34.4186 18.0485 35.0548 19.0026 35.6168 20.0023C35.9788 19.1521 36.3761 18.3177 36.8074 17.5016C36.4619 17.0554 36.1585 16.5772 35.9012 16.0732C35.2537 14.8436 34.9344 13.4683 34.974 12.0796C35.037 10.6997 35.4236 9.35383 36.1026 8.1504C37.0858 6.44912 38.371 4.94088 39.8954 3.69952C42.5136 1.46871 45.7536 0.33783 49.5226 0.33783C50.9012 0.344242 52.2761 0.48331 53.628 0.753106C54.7847 0.981288 55.9246 1.2864 57.0404 1.66639C58.1375 2.02979 59.2062 2.47386 60.2376 2.99497C59.081 3.59891 57.9832 4.30939 56.9588 5.11714C55.8351 5.98196 54.7762 6.92756 53.7903 7.94639C52.5466 9.23088 51.4216 10.6249 50.4289 12.1114C49.6997 13.2041 49.077 14.203 48.4682 15.2547C47.644 16.6802 46.8373 17.6231 45.9294 18.2263C44.9594 18.8703 43.8184 19.1307 42.7138 19.4453C42.1767 19.6002 41.6207 19.6798 41.0617 19.6819ZM32.4848 15.7066C32.6062 15.007 32.5726 14.2824 32.3777 13.5857C32.1247 12.6842 31.6651 11.854 31.0352 11.1606C30.1168 10.1686 29.0233 9.35388 27.8094 8.75736C26.3254 7.99234 24.6772 7.59914 23.007 7.61165C21.9955 7.61676 20.988 7.73896 20.0049 7.97576C19.1645 8.17621 18.3417 8.44392 17.5444 8.77632C16.7537 9.09734 15.9928 9.48685 15.2701 9.9404L15.2754 9.94225C16.0344 10.2666 16.7721 10.6388 17.4837 11.0567C19.2367 12.0712 20.8677 13.2824 22.3451 14.6669C22.939 15.2262 23.4554 15.7435 23.9709 16.2952C25.7707 18.2216 27.2598 18.7515 28.1934 18.8557C28.3581 18.8743 28.5236 18.8836 28.6893 18.8838C29.4369 18.8877 30.1708 18.683 30.8081 18.2926C31.0631 18.1408 31.2978 17.9592 31.5077 17.7519C31.5024 17.7462 31.4971 17.7405 31.4919 17.7349L31.4911 17.7341C30.7171 16.9001 29.8945 16.014 29.0718 15.3569C28.1939 14.6584 27.624 14.4503 26.9591 14.2075C26.5035 14.0411 26.0032 13.8583 25.3285 13.4903L26.6686 11.6302C26.6686 11.6302 29.2632 12.5358 31.7434 14.9445C31.9966 15.1929 32.2438 15.447 32.4848 15.7066ZM41.4981 17.5306C40.8584 17.5355 40.2302 17.4089 39.6504 17.1649C39.7997 16.9282 39.9595 16.6722 40.131 16.3931C42.2338 12.9704 44.7927 10.414 44.7927 10.414L43.0588 8.93755C43.0588 8.93755 40.2415 11.8606 38.3091 14.9445C38.1498 15.1898 37.9939 15.4372 37.8412 15.6866C37.1577 14.6671 36.8127 13.4498 36.8693 12.2097C36.9213 11.0888 37.2338 9.99538 37.7822 9.016C38.5868 7.61 39.6438 6.36402 40.9004 5.34041C42.187 4.24744 43.6864 3.43278 45.3041 2.94792C46.7342 2.52477 48.219 2.31502 49.7105 2.32547C51.1833 2.33218 52.6509 2.50272 54.086 2.83391C54.6887 2.96825 55.2828 3.13856 55.8652 3.34393C55.063 3.9266 54.2999 4.56125 53.5809 5.24377C51.8074 6.90094 50.2294 8.75514 48.8777 10.7703C48.3344 11.5841 47.8709 12.3274 47.4189 13.1094C46.5461 14.6192 45.1018 16.5611 43.1786 17.2366C42.6392 17.4291 42.0709 17.5286 41.4981 17.5306ZM21.9312 37.7473C21.9312 41.5816 24.5379 44.0925 27.9901 44.0925C31.4077 44.0925 34.0133 41.582 34.0133 37.7473C34.0133 33.9126 31.4084 31.4357 27.9901 31.4357C24.5372 31.4357 21.9312 33.913 21.9312 37.7473Z" fill="#636369"/>
<path fill-rule="evenodd" clip-rule="evenodd" d="M3.58756 40.1902C4.50138 42.6672 6.73532 44.0925 9.74764 44.0925C11.8461 44.0925 13.6061 43.3799 14.9262 41.9211L16.6861 44.0249C15.0951 45.9251 12.6246 46.9431 9.64607 46.9431C3.85843 46.9431 0 43.107 0 37.7473C0 32.4208 3.79071 28.5854 9.00276 28.5854C13.9105 28.5854 17.735 32.0482 17.8365 37.4079L3.58756 40.1902ZM14.6215 35.7449C14.0462 33.1662 11.9138 31.3339 9.00312 31.3339C5.5845 31.3339 3.14776 33.8112 3.14776 37.5776V37.917L14.6215 35.7449Z" fill="#636369"/>
<path fill-rule="evenodd" clip-rule="evenodd" d="M43.2549 40.1902C44.1688 42.6672 46.4027 44.0925 49.415 44.0925C51.5135 44.0925 53.2734 43.3799 54.5931 41.9211L56.3531 44.0249C54.7621 45.9251 52.2915 46.9431 49.3131 46.9431C43.5254 46.9431 39.667 43.107 39.667 37.7473C39.667 32.4198 43.4577 28.5854 48.6701 28.5854C53.5778 28.5854 57.4023 32.0482 57.5039 37.4079L43.2549 40.1902ZM54.2888 35.7449C53.7136 33.1662 51.5812 31.3339 48.6704 31.3339C45.2518 31.3339 42.8151 33.8112 42.8151 37.5772V37.9167L54.2888 35.7449Z" fill="#636369"/>
<path d="M63.089 31.4696C64.4087 29.6375 66.7103 28.5855 69.5531 28.5854C73.9194 28.5854 76.9994 31.0966 76.9998 36.3898V46.7395H73.7505V36.7633C73.7505 33.2341 71.9905 31.5036 68.9105 31.5036C65.4584 31.5036 63.2244 33.5736 63.2244 37.4758V46.7395H59.9751V28.7541H63.089V31.4696Z" fill="#636369"/>
</g>
<defs>
<clipPath id="clip0_6724_41798">
<rect width="77" height="46.6053" fill="white" transform="translate(0 0.33783)"/>
</clipPath>
</defs>
</svg>
