<svg width="134" height="35" viewBox="0 0 134 35" fill="none" xmlns="http://www.w3.org/2000/svg">
<path d="M32.6984 15.5344C32.7091 15.3402 32.7112 15.1482 32.7112 14.9519C32.7112 14.6105 32.6984 14.2669 32.6728 13.9319C32.0903 6.28653 25.006 0.25 16.3535 0.25C7.32321 0.25 0 6.83278 0 14.954C0 21.189 4.31668 26.5171 10.4087 28.6573C12.2032 29.2868 13.1869 31.2157 12.6492 33.0401L12.2928 34.25C16.5306 31.9775 21.05 29.9269 25.038 27.2362C28.3902 24.9765 31.6059 21.6392 32.453 17.5573H17.431C16.2894 20.0752 13.5411 21.8483 10.3297 21.8483C6.94553 21.8483 4.07129 19.8767 3.0556 17.1412C2.8657 16.6333 2.7398 16.0956 2.68646 15.5366V15.5344H32.6984ZM10.3297 8.05758C14.0169 8.05758 17.0982 10.3984 17.8322 13.518H2.82515C3.56132 10.3984 6.63826 8.05758 10.3297 8.05758Z" fill="#00CC74"/>
<path d="M38.7109 24.5159V5.50781H53.2092V9.33814H42.966V13.0552H52.7824V16.8572H42.966V20.6876H53.2092V24.5179H38.7109V24.5159Z" fill="white"/>
<path d="M55.4492 24.5158V10.2461H59.3928V12.7417H59.5627C60.3291 11.1238 61.8601 9.96094 64.3577 9.96094C68.0748 9.96094 69.6643 12.4282 69.6643 15.4658V24.5158H65.4093V16.3172C65.4093 14.3312 64.7561 13.6214 62.6003 13.6214C60.5577 13.6214 59.678 14.2746 59.678 16.4304V24.5158H55.4492Z" fill="white"/>
<path d="M71.4219 16.5154C71.4219 12.5435 73.5777 9.96094 77.6345 9.96094C79.6771 9.96094 81.295 10.7557 82.0615 12.315H82.203V10.2461H86.1466V22.9282C86.1466 27.5817 83.6773 29.6243 79.0825 29.6243C74.6273 29.6243 72.1317 27.6666 72.1317 24.0345H76.3584C76.3584 25.5108 76.7831 25.8789 79.2241 25.8789C81.4649 25.8789 81.9199 25.3692 81.9199 23.1548V20.9423H81.75C81.1251 22.0485 79.6225 23.0132 77.4667 23.0132C73.5211 23.0132 71.4219 20.4873 71.4219 16.5154ZM78.7711 19.466C80.8137 19.466 81.9199 18.7561 81.9199 16.9401V16.0887C81.9199 14.2726 80.842 13.5627 78.7994 13.5627C76.3605 13.5627 75.6506 14.4991 75.6506 16.5134C75.6506 18.5296 76.3584 19.466 78.7711 19.466Z" fill="white"/>
<path d="M88.0781 20.8856C88.0781 18.6732 89.6677 17.3101 92.6183 16.8571L97.4962 16.1189V15.6659C97.4962 13.9914 96.5882 13.68 94.9137 13.68C93.1825 13.68 92.503 14.1613 92.503 15.6093V15.9207H88.4462V15.6093C88.4462 12.2057 91.0854 9.96289 95.1139 9.96289C99.3123 9.96289 101.527 12.2603 101.527 16.0623V24.5177H97.5832V22.5884H97.4133C96.6468 23.638 95.2008 24.8009 92.5617 24.8009C90.0358 24.8009 88.0781 23.4661 88.0781 20.8856ZM93.9793 21.5651C95.7105 21.5651 97.4982 21.1121 97.4982 18.8976L93.4131 19.5225C92.5334 19.6641 92.137 19.9472 92.137 20.5438C92.135 21.3103 92.7316 21.5651 93.9793 21.5651Z" fill="white"/>
<path d="M103.312 16.5154C103.312 12.5435 105.468 9.96094 109.525 9.96094C111.568 9.96094 113.186 10.7557 113.952 12.315H114.094V10.2461H118.037V22.9282C118.037 27.5817 115.568 29.6243 110.973 29.6243C106.518 29.6243 104.022 27.6666 104.022 24.0345H108.249C108.249 25.5108 108.674 25.8789 111.115 25.8789C113.355 25.8789 113.811 25.3692 113.811 23.1548V20.9423H113.641C113.016 22.0485 111.513 23.0132 109.357 23.0132C105.412 23.0132 103.312 20.4873 103.312 16.5154ZM110.662 19.466C112.704 19.466 113.811 18.7561 113.811 16.9401V16.0887C113.811 14.2726 112.733 13.5627 110.69 13.5627C108.249 13.5627 107.541 14.4991 107.541 16.5134C107.539 18.5296 108.249 19.466 110.662 19.466Z" fill="white"/>
<path d="M119.824 17.4234C119.824 12.8549 122.548 9.96094 127.002 9.96094C131.285 9.96094 133.811 12.5152 133.811 16.2302C133.811 17.025 133.698 17.8481 133.613 18.3294H123.824C123.909 20.3154 124.704 21.1102 127.03 21.1102C128.733 21.1102 129.471 20.7421 129.471 19.8624V19.6925H133.669V19.9756C133.669 23.0112 131.058 24.7989 126.973 24.7989C122.065 24.8009 119.824 21.9353 119.824 17.4234ZM123.853 15.7489H129.726C129.811 14.2726 128.846 13.4515 126.86 13.4515C124.817 13.4515 124.023 14.2463 123.853 15.7489Z" fill="white"/>
</svg>
