<svg xmlns="http://www.w3.org/2000/svg" xmlns:xlink="http://www.w3.org/1999/xlink" width="608" height="561" fill="none" xmlns:v="https://vecta.io/nano"><style><![CDATA[.B{stroke:#121212}.C{fill:#fff}.D{fill:#121212}.E{fill:#8899a6}]]></style><g stroke="#97969c" stroke-dasharray="4 4"><path d="M559.504-30.96v78.64m0 544.473v-280.31m0-65.742V97.883M457.312-30.583l.001 402.045m0 220.516V396.135M355.621-30.772v164.794m0 457.954V510.73m0-293.993V461.13M252.93-30.583V60.16m0 531.811V84.463M150.739-30.77l-.001 373.693m0 249.057V425.995M48.547-30.962v183.828m0 439.102V288.95m0-90.065v72.831"/><path d="M0 487.649h330.227m277.773 0H379.607M0 383.856h112.263m495.737 0H469.346m-278.878 0h254.206M0 176.271h25.672m582.328 0H396.708m-80.708 0H73.358M0 280.063h39.48m568.521 0h-15.322m-65.324 0H57.12M0 72.478h239.558m368.442 0h-25.121m-48.339 0H265.522"/><use xlink:href="#C"/><path d="M559.48 96.396l10.183-13.818 13.817-10.182-13.817-10.182-10.183-13.818-10.182 13.818-13.818 10.182 13.818 10.182 10.182 13.818z"/><use xlink:href="#C" x="-307.019" y="-311.504"/><path d="M559.469 311.979l13.576-18.423 18.424-13.577-18.424-13.576-13.576-18.424-13.577 18.424-18.423 13.576 18.423 13.577 13.577 18.423zM150.754 423.886l16.97-23.03 23.03-16.97-23.03-16.971-16.97-23.029-16.971 23.029-23.029 16.971 23.029 16.97 16.971 23.03zm204.867-207.61l16.971-23.029 23.029-16.971-23.029-16.97-16.971-23.03-16.97 23.03-23.03 16.97 23.03 16.971 16.97 23.029z"/><circle r="12" transform="matrix(1 0 0 -1 457.246 383.856)"/><circle r="8" transform="matrix(1 0 0 -1 48.5469 280.063)"/><circle r="12" transform="matrix(1 0 0 -1 252.598 72.4775)"/></g><g transform="matrix(-1 0 0 1 543.328 74.001)"><rect x="-2" y="2" width="441.955" height="422.315" rx="6" class="D"/><rect x="-2" y="2" width="441.955" height="422.315" rx="6" stroke-width="4" class="B"/></g><g transform="matrix(-1 0 0 1 525.039 61.082)"><rect x="-2" y="2" width="441.12" height="419.085" rx="6" fill="#f5f6f8"/><rect x="-2" y="2" width="441.12" height="419.085" rx="6" stroke-width="4" class="B"/></g><rect x="96" y="74" width="422" height="38" rx="4" class="C"/><rect x="113" y="88" width="10" height="10" rx="5" fill="#eb5757"/><rect x="131" y="88" width="10" height="10" rx="5" fill="#f2c94c"/><rect x="149" y="88" width="10" height="10" rx="5" fill="#27ae60"/><g fill="#e7edf5"><path d="M492.438 87a1 1 0 1 0-2 0h2zm-2 12a1 1 0 1 0 2 0h-2zm0-12v12h2V87h-2z"/><path d="M497.437 94a1 1 0 1 0 .001-2l-.001 2zm-11.999-2a1 1 0 1 0-.001 2l.001-2zm12 0h-12l-.001 2h12l.001-2z"/></g><rect x="-1" y="1" width="419" height="345" rx="7" transform="matrix(-1 0 0 1 515 125)" fill="#f5f6f8"/><path d="M148.844 166l.99-2.682h5.112l.972 2.682h2.934l-4.446-12.06h-3.924L146.036 166h2.808zm2.556-6.966l.918-2.718h.18l.882 2.718.684 1.872h-3.348l.684-1.872zm12.059 7.146c1.584 0 2.538-.72 3.042-1.764h.09V166h2.502v-9.054h-2.682v5.13c0 1.368-.558 1.782-1.854 1.782-1.35 0-1.782-.45-1.782-1.71v-5.202h-2.682v5.742c0 1.926.99 3.492 3.366 3.492zm11.934-.144a9.52 9.52 0 0 0 1.764-.18v-2.25h-1.116c-1.17 0-1.44-.09-1.44-.882v-3.546h2.556v-2.232h-2.556v-2.106h-2.124l-.504 2.106h-1.512v2.232h1.44v3.852c0 2.142 1.134 3.006 3.492 3.006zm7.627.144c2.898 0 4.59-1.836 4.59-4.698 0-2.88-1.692-4.716-4.59-4.716-2.916 0-4.644 1.836-4.644 4.716 0 2.862 1.728 4.698 4.644 4.698zm0-2.376c-1.476 0-1.98-.576-1.98-2.322 0-1.764.504-2.34 1.98-2.34 1.458 0 1.962.576 1.962 2.34 0 1.746-.504 2.322-1.962 2.322zm9.045 2.196v-5.238c0-1.278.54-1.674 1.764-1.674 1.296 0 1.692.45 1.692 1.71V166h2.7v-5.202c0-1.314.522-1.71 1.746-1.71 1.314 0 1.692.45 1.692 1.71V166h2.7v-5.742c0-1.926-.954-3.492-3.294-3.492-1.674 0-2.574.774-3.078 1.764h-.09c-.45-1.062-1.386-1.764-2.934-1.764s-2.484.738-2.97 1.764h-.108v-1.584h-2.502V166h2.682zm16.901.18c1.674 0 2.592-.738 3.078-1.404h.108V166h2.502v-5.364c0-2.412-1.404-3.87-4.068-3.87-2.556 0-4.23 1.422-4.23 3.582v.198h2.574v-.198c0-.918.432-1.224 1.53-1.224 1.062 0 1.638.198 1.638 1.26v.288l-3.096.468c-1.872.288-2.88 1.152-2.88 2.556 0 1.638 1.242 2.484 2.844 2.484zm-.27-2.7c0-.378.252-.558.81-.648l2.592-.396c0 1.404-1.134 1.692-2.232 1.692-.792 0-1.17-.162-1.17-.648zm12.204 2.556a9.52 9.52 0 0 0 1.764-.18v-2.25h-1.116c-1.17 0-1.44-.09-1.44-.882v-3.546h2.556v-2.232h-2.556v-2.106h-2.124l-.504 2.106h-1.512v2.232h1.44v3.852c0 2.142 1.134 3.006 3.492 3.006zm6.057-10.116v-1.98h-2.682l.036 1.98h2.646zm.054 10.08v-9.054h-2.7V166h2.7zm6.258.18c2.898 0 4.59-1.836 4.59-4.698 0-2.88-1.692-4.716-4.59-4.716-2.916 0-4.644 1.836-4.644 4.716 0 2.862 1.728 4.698 4.644 4.698zm0-2.376c-1.476 0-1.98-.576-1.98-2.322 0-1.764.504-2.34 1.98-2.34 1.458 0 1.962.576 1.962 2.34 0 1.746-.504 2.322-1.962 2.322zm9.044 2.196v-5.13c0-1.368.558-1.782 1.854-1.782 1.368 0 1.782.45 1.782 1.71V166h2.7v-5.742c0-1.926-1.008-3.492-3.366-3.492-1.584 0-2.556.738-3.042 1.764h-.108v-1.584h-2.502V166h2.682zm12.401.18c2.502 0 3.888-1.08 3.888-2.772 0-1.476-.792-2.34-2.7-2.7l-1.656-.342c-1.08-.216-1.242-.342-1.242-.774s.252-.666 1.332-.666c1.152 0 1.404.324 1.404.918v.252h2.574v-.252c0-2.034-1.692-3.078-3.906-3.078-2.574 0-3.942 1.188-3.942 2.862s.972 2.43 2.754 2.754l1.368.252c1.206.216 1.458.324 1.458.81 0 .45-.18.612-1.278.612-1.314 0-1.71-.144-1.71-.81v-.378h-2.574v.054c0 2.196 1.386 3.258 4.23 3.258z" fill="#000"/><path d="M141.605 167.728l-15.494-15.494-2.877 2.877 15.494 15.494c.038.037.375.361.851.361.29 0 .568-.125.804-.361l1.222-1.222c.332-.333.607-1.048 0-1.655z" class="E"/><path d="M138.333 170.389c-.063 0-.129-.01-.193-.032a.61.61 0 0 1-.386-.773l1.222-3.666a.61.61 0 0 1 1.159.386l-1.222 3.667a.61.61 0 0 1-.58.418zm-1.833-1.833a.62.62 0 0 1-.193-.032.61.61 0 0 1-.386-.773l1.222-3.667a.61.61 0 1 1 1.159.387l-1.222 3.667a.61.61 0 0 1-.58.418zm-1.833-1.834a.63.63 0 0 1-.194-.031.61.61 0 0 1-.386-.773l1.222-3.667a.61.61 0 1 1 1.16.387l-1.223 3.666a.61.61 0 0 1-.579.418zm-1.834-1.833c-.063 0-.129-.01-.193-.032a.61.61 0 0 1-.386-.773l1.222-3.666a.61.61 0 0 1 1.159.386l-1.222 3.667a.61.61 0 0 1-.58.418zm-3.055-3.055a.62.62 0 0 1-.193-.032.61.61 0 0 1-.387-.773l1.223-3.667a.61.61 0 1 1 1.159.387l-1.222 3.667a.61.61 0 0 1-.58.418zM127.944 160c-.063 0-.129-.01-.193-.032a.61.61 0 0 1-.386-.773l1.222-3.666a.61.61 0 1 1 1.159.387l-1.222 3.666a.61.61 0 0 1-.58.418zm-1.833-1.833a.62.62 0 0 1-.193-.032.61.61 0 0 1-.386-.773l1.222-3.667a.61.61 0 1 1 1.159.387l-1.222 3.667a.61.61 0 0 1-.58.418z" fill="#66757f"/><path d="M127.944 164.278s-.611-.611 0-1.222l6.112-6.112s.611-.611 1.222 0l1.833 1.834s.611.611 0 1.222L131 166.111s-.611.611-1.222 0l-1.834-1.833z" fill="#ccd6dd"/><path d="M127.944 163.055c-.611.611 0 1.222 0 1.222l1.834 1.834c.611.611 1.222 0 1.222 0l1.222-1.222-3.055-3.056-1.223 1.222z" class="E"/><path d="M137.111 160c.611-.611 0-1.222 0-1.222l-1.833-1.834c-.611-.611-1.222 0-1.222 0l-1.223 1.223 3.056 3.055 1.222-1.222z" fill="#e1e8ed"/><path d="M120.611 156.945s-.611-.611 0-1.222l6.111-6.112s.611-.611 1.222 0l1.834 1.834s.611.611 0 1.222l-6.111 6.111s-.612.611-1.223 0l-1.833-1.833z" fill="#ccd6dd"/><path d="M120.611 155.722c-.611.611 0 1.222 0 1.222l1.833 1.834c.611.611 1.223 0 1.223 0l1.222-1.222-3.056-3.056-1.222 1.222z" class="E"/><path d="M129.778 152.667c.611-.611 0-1.222 0-1.222l-1.834-1.834c-.611-.611-1.222 0-1.222 0l-1.222 1.223 3.056 3.055 1.222-1.222z" fill="#e1e8ed"/><path stroke="#dfe7f2" stroke-width="2" d="M120 186.021h364.145"/><rect x="199" y="209.5" width="215" height="64" rx="7.5" class="C"/><path d="M268.437 258.5h-1.969l3.585-10.182h2.277l3.589 10.182h-1.969l-2.719-8.094h-.08l-2.714 8.094zm.064-3.992h5.37v1.481h-5.37v-1.481zm11.638 4.141c-.762 0-1.417-.167-1.964-.502s-.962-.797-1.257-1.387-.438-1.276-.438-2.048.149-1.46.447-2.054.72-1.06 1.263-1.392 1.193-.502 1.939-.502c.62 0 1.168.115 1.646.343s.863.545 1.148.96.448.891.487 1.442h-1.72a1.64 1.64 0 0 0-.497-.92c-.258-.249-.605-.373-1.039-.373a1.62 1.62 0 0 0-.969.298c-.279.196-.496.477-.652.845s-.228.809-.228 1.323c0 .52.076.968.228 1.342s.367.658.642.86a1.64 1.64 0 0 0 .979.299c.265 0 .502-.05.711-.15a1.43 1.43 0 0 0 .532-.442c.142-.192.24-.426.293-.701h1.72c-.043.54-.202 1.019-.477 1.437s-.649.739-1.123.974-1.031.348-1.671.348zm7.94 0c-.762 0-1.417-.167-1.964-.502s-.962-.797-1.257-1.387-.438-1.276-.438-2.048.149-1.46.448-2.054.719-1.06 1.262-1.392 1.194-.502 1.939-.502c.62 0 1.169.115 1.646.343s.863.545 1.148.96.448.891.488 1.442h-1.721a1.64 1.64 0 0 0-.497-.92c-.258-.249-.605-.373-1.039-.373a1.62 1.62 0 0 0-.969.298c-.279.196-.496.477-.652.845s-.228.809-.228 1.323c0 .52.076.968.228 1.342s.367.658.642.86a1.64 1.64 0 0 0 .979.299c.265 0 .502-.05.711-.15a1.43 1.43 0 0 0 .532-.442c.143-.192.24-.426.293-.701h1.721c-.044.54-.203 1.019-.478 1.437s-.649.739-1.123.974-1.031.348-1.671.348zm7.94 0c-.745 0-1.392-.164-1.939-.492s-.971-.787-1.272-1.377-.448-1.28-.448-2.068.149-1.48.448-2.074.725-1.053 1.272-1.382 1.194-.492 1.939-.492 1.392.164 1.939.492.97.789 1.268 1.382.452 1.285.452 2.074-.15 1.478-.452 2.068-.721 1.049-1.268 1.377-1.193.492-1.939.492zm.01-1.442c.405 0 .743-.111 1.014-.333s.474-.527.607-.905a3.7 3.7 0 0 0 .204-1.262c0-.468-.068-.89-.204-1.268s-.335-.685-.607-.91-.609-.338-1.014-.338c-.414 0-.759.113-1.034.338s-.475.529-.611.91a3.8 3.8 0 0 0-.199 1.268c0 .464.066.885.199 1.262s.339.68.611.905.62.333 1.034.333zm9.904-1.919v-4.424h1.8v7.636h-1.745v-1.357h-.08a2.3 2.3 0 0 1-.85 1.049c-.391.272-.873.407-1.447.407-.5 0-.943-.111-1.327-.333s-.68-.552-.895-.979-.323-.951-.323-1.561v-4.862h1.8v4.583c0 .484.132.869.397 1.154s.613.427 1.044.427c.266 0 .522-.064.771-.193a1.57 1.57 0 0 0 .611-.577c.163-.259.244-.582.244-.97zm5.31-1.262v4.474h-1.8v-7.636h1.721v1.297h.089a2.19 2.19 0 0 1 .84-1.019c.388-.252.867-.378 1.437-.378.527 0 .986.113 1.377.338s.7.552.915.98.326.946.323 1.556v4.862h-1.8v-4.584c0-.51-.132-.91-.397-1.198s-.625-.432-1.089-.432c-.315 0-.595.069-.84.208s-.433.333-.572.592-.204.572-.204.94zm10.405-3.162v1.392h-4.39v-1.392h4.39zm-3.306-1.83h1.8v7.169c0 .242.036.428.109.557s.176.212.298.258.259.07.408.07c.113 0 .215-.008.308-.025l.219-.045.303 1.407c-.096.034-.234.07-.413.11s-.391.063-.646.069c-.451.014-.857-.054-1.218-.203a1.9 1.9 0 0 1-.86-.706c-.209-.319-.311-.716-.308-1.194v-7.467zm11.335 9.615c-.746 0-1.392-.164-1.939-.492s-.971-.787-1.273-1.377-.447-1.28-.447-2.068.149-1.48.447-2.074.726-1.053 1.273-1.382 1.193-.492 1.939-.492 1.392.164 1.939.492a3.31 3.31 0 0 1 1.267 1.382c.302.594.453 1.285.453 2.074s-.151 1.478-.453 2.068a3.31 3.31 0 0 1-1.267 1.377c-.547.328-1.194.492-1.939.492zm.01-1.442c.404 0 .742-.111 1.014-.333s.474-.527.606-.905a3.7 3.7 0 0 0 .204-1.262c0-.468-.068-.89-.204-1.268s-.334-.685-.606-.91-.61-.338-1.014-.338c-.415 0-.759.113-1.034.338a2.04 2.04 0 0 0-.612.91 3.8 3.8 0 0 0-.199 1.268c0 .464.066.885.199 1.262a2.04 2.04 0 0 0 .612.905c.275.222.619.333 1.034.333zm5.036 4.157v-10.5h1.77v1.262h.105a3.29 3.29 0 0 1 .392-.591c.169-.212.398-.393.686-.542s.657-.229 1.104-.229c.59 0 1.122.151 1.596.453s.855.74 1.134 1.327.422 1.299.422 2.148c0 .838-.137 1.551-.413 2.138s-.649 1.034-1.123 1.342-1.011.462-1.611.462c-.437 0-.8-.073-1.089-.219s-.52-.321-.696-.527-.306-.406-.402-.591h-.075v4.067h-1.8zm1.765-6.682c0 .494.07.926.209 1.297s.346.662.612.87.593.309.974.309c.398 0 .731-.106.999-.319s.471-.508.607-.879a3.66 3.66 0 0 0 .209-1.278c0-.474-.068-.895-.204-1.263s-.338-.656-.607-.865-.603-.313-1.004-.313c-.385 0-.711.101-.979.303s-.473.486-.612.85-.204.794-.204 1.288zm10.226 3.967c-.766 0-1.427-.159-1.984-.477s-.979-.776-1.277-1.362-.448-1.285-.448-2.083c0-.786.149-1.475.448-2.069s.722-1.06 1.262-1.392 1.175-.502 1.905-.502c.47 0 .914.076 1.332.229s.792.381 1.114.696.58.716.765 1.203.279 1.061.279 1.73v.552h-6.26v-1.213h4.534c-.003-.345-.077-.651-.223-.92s-.35-.485-.612-.641-.56-.234-.905-.234a1.75 1.75 0 0 0-.969.269c-.278.175-.496.407-.651.696a1.99 1.99 0 0 0-.234.939v1.059c0 .444.081.826.244 1.144s.389.557.681.726.633.248 1.024.248c.262 0 .499-.036.711-.109s.396-.187.552-.333.273-.327.353-.542l1.68.189a2.61 2.61 0 0 1-.607 1.163c-.295.328-.672.583-1.133.766s-.988.268-1.581.268zm6.578-4.623v4.474h-1.8v-7.636h1.72v1.297h.09c.175-.427.456-.767.84-1.019s.867-.378 1.437-.378c.527 0 .986.113 1.377.338s.699.552.915.98.326.946.323 1.556v4.862h-1.8v-4.584c0-.51-.132-.91-.398-1.198-.261-.288-.624-.432-1.088-.432-.315 0-.595.069-.841.208s-.432.333-.571.592-.204.572-.204.94zm9.972 4.623c-.766 0-1.427-.159-1.984-.477s-.979-.776-1.277-1.362-.448-1.285-.448-2.083c0-.786.149-1.475.448-2.069s.722-1.06 1.262-1.392 1.175-.502 1.905-.502c.47 0 .914.076 1.332.229s.792.381 1.114.696.58.716.765 1.203.279 1.061.279 1.73v.552h-6.26v-1.213h4.535c-.004-.345-.078-.651-.224-.92s-.35-.485-.612-.641-.56-.234-.905-.234c-.367 0-.691.09-.969.269s-.495.407-.651.696a1.99 1.99 0 0 0-.234.939v1.059c0 .444.081.826.244 1.144s.389.557.681.726.633.248 1.024.248c.262 0 .499-.036.711-.109s.396-.187.552-.333.273-.327.353-.542l1.68.189a2.62 2.62 0 0 1-.606 1.163c-.295.328-.673.583-1.134.766s-.988.268-1.581.268zm7.612-.015c-.6 0-1.137-.154-1.611-.462s-.848-.756-1.123-1.342-.413-1.3-.413-2.138c0-.849.139-1.565.418-2.148s.661-1.029 1.138-1.327a2.92 2.92 0 0 1 1.596-.453c.447 0 .815.076 1.104.229s.517.33.686.542.3.406.393.591h.074v-3.808h1.805V258.5h-1.77v-1.203h-.109a3.11 3.11 0 0 1-.403.591c-.176.206-.408.382-.696.527s-.651.219-1.089.219zm.502-1.476c.381 0 .706-.103.975-.309s.472-.498.611-.87.209-.803.209-1.297-.07-.923-.209-1.288-.338-.648-.606-.85-.592-.303-.98-.303c-.401 0-.736.104-1.004.313s-.471.497-.607.865a3.63 3.63 0 0 0-.203 1.263c0 .477.067.903.203 1.278s.343.664.612.879.605.319.999.319z" class="D"/><path d="M266.699 229.5v-5.818h3.784v.883h-2.73v1.58h2.534v.883h-2.534v1.588h2.753v.884h-3.807zm8.632-4.364l-1.554 4.364h-1.137l-1.554-4.364h1.097l1.003 3.242h.045l1.006-3.242h1.094zm2.415 4.449c-.438 0-.816-.091-1.134-.273a1.84 1.84 0 0 1-.73-.778c-.171-.337-.256-.734-.256-1.19 0-.449.085-.843.256-1.182a1.94 1.94 0 0 1 .721-.796c.309-.191.672-.286 1.089-.286.269 0 .522.043.761.13s.453.218.636.398.332.409.438.687.159.607.159.989v.315h-3.577v-.693h2.591c-.002-.197-.044-.372-.128-.525s-.2-.278-.349-.367-.32-.133-.517-.133c-.21 0-.395.051-.554.153s-.283.233-.372.398a1.15 1.15 0 0 0-.134.537v.605a1.43 1.43 0 0 0 .139.653c.093.18.223.318.39.415s.361.142.585.142c.149 0 .285-.021.406-.062a.9.9 0 0 0 .315-.191c.089-.083.157-.186.202-.309l.96.108c-.06.253-.176.475-.346.664a1.69 1.69 0 0 1-.648.438c-.263.102-.564.153-.903.153zm3.758-2.642v2.557h-1.028v-4.364h.983v.742h.051c.1-.244.26-.439.48-.583s.495-.215.821-.215c.301 0 .564.064.787.193s.4.315.523.559.186.541.184.89v2.778h-1.028v-2.619c0-.292-.076-.52-.227-.685s-.357-.247-.622-.247a.96.96 0 0 0-.48.119c-.139.078-.248.191-.327.338s-.117.327-.117.537zm5.946-1.807v.796h-2.509v-.796h2.509zm-1.889-1.045h1.028v4.097c0 .138.021.244.063.318a.33.33 0 0 0 .17.147c.07.027.148.04.233.04.064 0 .123-.005.176-.014l.125-.026.173.804c-.054.019-.133.04-.235.063s-.224.036-.37.04c-.257.007-.489-.032-.696-.117a1.08 1.08 0 0 1-.491-.403c-.119-.182-.178-.409-.176-.682v-4.267z" fill="#636369"/><path d="M266.125 236.244h131.563" class="B"/><rect x="211" y="221.5" width="40" height="40" rx="4" fill="#f1eaff"/><g clip-path="url(#A)"><path d="M240.445 242.056c0-1.146-.204-2.244-.578-3.26-.256 2.994-1.852 4.531-3.52 3.815-1.562-.671-.509-3.287-.431-4.535.131-2.116-.007-4.539-3.851-6.553 1.597 3.056.185 4.954-1.296 5.07-1.643.128-3.148-1.412-2.593-3.912-1.799 1.325-1.851 3.556-1.296 5 .579 1.504-.023 2.754-1.435 2.893-1.578.156-2.454-1.689-1.646-4.629-1.399 1.647-2.243 3.78-2.243 6.111 0 5.216 4.228 9.444 9.444 9.444s9.445-4.228 9.445-9.444z" fill="#f4900c"/><path d="M236.775 244.832c.082 1.714-1.423 2.385-2.233 2.061-1.17-.468-.856-1.273-1.157-2.94s-1.459-2.823-3.172-3.333c1.25 3.518-.692 4.815-1.711 5.047-1.04.236-2.085-.001-2.204-2.226-1.213 1.207-1.965 2.879-1.965 4.725 0 .205.013.406.031.606 1.706 1.685 4.048 2.728 6.636 2.728a9.41 9.41 0 0 0 6.636-2.728l.031-.606a6.64 6.64 0 0 0-.892-3.334z" fill="#ffcc4d"/></g><rect x="356.688" y="225" width="41" height="4" rx="2" fill="#eef1f7"/><rect x="199" y="209.5" width="215" height="64" rx="7.5" class="B"/><rect x="199" y="352.5" width="215" height="64" rx="7.5" class="C"/><path d="M269.272 401.5l-2.874-10.182h1.984l1.835 7.482h.094l1.959-7.482h1.805l1.963 7.487h.09l1.834-7.487h1.984l-2.874 10.182h-1.819l-2.039-7.144h-.079l-2.043 7.144h-1.82zm14.335.149c-.766 0-1.427-.159-1.984-.477s-.979-.776-1.278-1.362-.447-1.285-.447-2.083c0-.786.149-1.475.447-2.069s.723-1.06 1.263-1.392 1.175-.502 1.904-.502c.471 0 .915.076 1.333.229a3 3 0 0 1 1.113.696c.325.315.58.716.766 1.203s.278 1.061.278 1.73v.552h-6.259v-1.213h4.534c-.003-.345-.078-.651-.223-.92s-.35-.485-.612-.641-.56-.234-.905-.234a1.75 1.75 0 0 0-.969.269 1.84 1.84 0 0 0-.652.696c-.152.285-.23.598-.233.939v1.059c0 .444.081.826.243 1.144a1.74 1.74 0 0 0 .682.726c.291.165.633.248 1.024.248.261 0 .498-.036.711-.109a1.56 1.56 0 0 0 .551-.333c.156-.146.274-.327.353-.542l1.681.189a2.61 2.61 0 0 1-.607 1.163 2.97 2.97 0 0 1-1.133.766c-.461.179-.988.268-1.581.268zm6.578-10.331V401.5h-1.8v-10.182h1.8zm5.041 10.331c-.762 0-1.417-.167-1.963-.502a3.35 3.35 0 0 1-1.258-1.387c-.292-.593-.438-1.276-.438-2.048s.149-1.46.448-2.054.719-1.06 1.262-1.392 1.194-.502 1.939-.502c.62 0 1.169.115 1.646.343s.863.545 1.148.96.448.891.488 1.442h-1.721a1.64 1.64 0 0 0-.497-.92c-.258-.249-.605-.373-1.039-.373a1.62 1.62 0 0 0-.969.298c-.279.196-.496.477-.652.845s-.228.809-.228 1.323c0 .52.076.968.228 1.342s.367.658.642.86a1.64 1.64 0 0 0 .979.299c.265 0 .502-.05.711-.15a1.42 1.42 0 0 0 .532-.442c.143-.192.24-.426.293-.701h1.721c-.043.54-.203 1.019-.478 1.437s-.649.739-1.123.974-1.031.348-1.671.348zm7.94 0c-.745 0-1.392-.164-1.939-.492a3.34 3.34 0 0 1-1.272-1.377c-.299-.59-.448-1.28-.448-2.068s.149-1.48.448-2.074.726-1.053 1.272-1.382 1.194-.492 1.939-.492 1.392.164 1.939.492.97.789 1.268 1.382.452 1.285.452 2.074-.15 1.478-.452 2.068-.721 1.049-1.268 1.377-1.193.492-1.939.492zm.01-1.442c.405 0 .743-.111 1.015-.333s.473-.527.606-.905a3.7 3.7 0 0 0 .204-1.262c0-.468-.068-.89-.204-1.268s-.335-.685-.606-.91-.61-.338-1.015-.338c-.414 0-.759.113-1.034.338s-.475.529-.611.91a3.8 3.8 0 0 0-.199 1.268c0 .464.066.885.199 1.262s.339.68.611.905.62.333 1.034.333zm5.037 1.293v-7.636h1.72v1.297h.09c.159-.437.422-.779.79-1.024s.807-.373 1.318-.373c.517 0 .952.126 1.307.378s.61.588.756 1.019h.079c.169-.424.454-.762.855-1.014s.884-.383 1.437-.383c.703 0 1.276.222 1.72.666s.667 1.092.667 1.944v5.126h-1.805v-4.847c0-.474-.126-.821-.378-1.039s-.56-.333-.925-.333c-.434 0-.774.135-1.019.407s-.363.618-.363 1.049v4.763h-1.765v-4.922c0-.394-.119-.709-.358-.944s-.543-.353-.924-.353a1.31 1.31 0 0 0-.706.198c-.212.13-.381.314-.507.552s-.189.511-.189.826v4.643h-1.8zm15.805.149c-.765 0-1.427-.159-1.984-.477s-.979-.776-1.277-1.362-.448-1.285-.448-2.083c0-.786.149-1.475.448-2.069s.722-1.06 1.263-1.392 1.175-.502 1.904-.502c.47 0 .914.076 1.332.229s.792.381 1.114.696.58.716.765 1.203.279 1.061.279 1.73v.552h-6.26v-1.213h4.535c-.004-.345-.078-.651-.224-.92s-.35-.485-.612-.641-.56-.234-.904-.234c-.368 0-.692.09-.97.269s-.495.407-.651.696a1.99 1.99 0 0 0-.234.939v1.059c0 .444.081.826.244 1.144s.389.557.681.726.633.248 1.024.248c.262 0 .499-.036.711-.109s.396-.187.552-.333.273-.327.353-.542l1.68.189a2.62 2.62 0 0 1-.606 1.163c-.295.328-.673.583-1.134.766s-.988.268-1.581.268zm17.288-5.24c0 1.097-.205 2.037-.616 2.819s-.964 1.375-1.67 1.79-1.5.621-2.392.621-1.69-.207-2.396-.621-1.26-1.016-1.671-1.795-.611-1.72-.611-2.814.204-2.035.611-2.814.968-1.38 1.671-1.795 1.505-.621 2.396-.621 1.689.207 2.392.621 1.262 1.013 1.67 1.795.616 1.717.616 2.814zm-1.854 0c0-.772-.121-1.423-.363-1.954s-.57-.936-.994-1.208-.913-.412-1.467-.412-1.042.137-1.466.412-.758.675-1 1.208-.358 1.182-.358 1.954.12 1.425.358 1.959.575.933 1 1.208.913.408 1.466.408 1.043-.136 1.467-.408.756-.678.994-1.208.363-1.187.363-1.959zm5.178.617v4.474h-1.799v-7.636h1.72v1.297h.089c.176-.427.456-.767.841-1.019s.866-.378 1.436-.378c.527 0 .986.113 1.378.338s.699.552.914.98.327.946.323 1.556v4.862h-1.799v-4.584c0-.51-.133-.91-.398-1.198s-.625-.432-1.089-.432c-.315 0-.595.069-.84.208s-.433.333-.572.592-.204.572-.204.94zm6.672 4.474v-10.182h1.799v3.808h.075c.093-.185.224-.382.393-.591s.397-.393.686-.542.656-.229 1.103-.229c.59 0 1.122.151 1.596.453s.855.74 1.134 1.327.422 1.299.422 2.148c0 .838-.137 1.551-.412 2.138s-.65 1.034-1.124 1.342-1.011.462-1.611.462c-.437 0-.8-.073-1.088-.219a2.18 2.18 0 0 1-.696-.527c-.173-.208-.307-.406-.403-.591h-.105v1.203h-1.769zm1.764-3.818c0 .494.07.926.209 1.297s.347.662.612.87.593.309.974.309c.398 0 .731-.106.999-.319s.471-.508.607-.879a3.66 3.66 0 0 0 .209-1.278c0-.474-.068-.895-.204-1.263s-.338-.656-.607-.865-.603-.313-1.004-.313c-.384 0-.711.101-.979.303s-.473.486-.612.85-.204.794-.204 1.288zm10.165 3.967c-.745 0-1.392-.164-1.939-.492a3.34 3.34 0 0 1-1.272-1.377c-.299-.59-.448-1.28-.448-2.068s.149-1.48.448-2.074.726-1.053 1.272-1.382 1.194-.492 1.939-.492 1.392.164 1.939.492.97.789 1.268 1.382.452 1.285.452 2.074-.15 1.478-.452 2.068-.721 1.049-1.268 1.377-1.193.492-1.939.492zm.01-1.442c.405 0 .743-.111 1.014-.333s.474-.527.607-.905a3.7 3.7 0 0 0 .204-1.262c0-.468-.068-.89-.204-1.268s-.335-.685-.607-.91-.609-.338-1.014-.338c-.414 0-.759.113-1.034.338s-.475.529-.611.91a3.8 3.8 0 0 0-.199 1.268c0 .464.066.885.199 1.262s.339.68.611.905.62.333 1.034.333zm7.234 1.447a3.19 3.19 0 0 1-1.307-.258c-.385-.176-.69-.435-.915-.776s-.333-.762-.333-1.263c0-.431.08-.787.239-1.069a1.85 1.85 0 0 1 .651-.676c.275-.169.585-.296.93-.383s.707-.154 1.078-.193l1.089-.125c.279-.04.481-.099.607-.179s.194-.21.194-.383v-.029c0-.375-.111-.665-.333-.87s-.542-.309-.96-.309c-.441 0-.79.096-1.049.289s-.428.419-.517.681l-1.68-.239c.132-.464.351-.852.656-1.163a2.86 2.86 0 0 1 1.118-.706c.441-.159.928-.239 1.462-.239.368 0 .734.043 1.099.129s.697.229.999.428.544.462.726.8.278.761.278 1.268v5.111h-1.73v-1.049h-.059a2.22 2.22 0 0 1-.463.597c-.195.182-.442.329-.741.442s-.641.164-1.039.164zm.468-1.322a1.96 1.96 0 0 0 .939-.214c.265-.146.469-.338.612-.577s.219-.499.219-.78v-.9a.87.87 0 0 1-.289.129c-.132.04-.281.075-.447.104l-.492.08-.423.06c-.268.036-.509.096-.721.179s-.379.199-.502.348-.184.334-.184.566c0 .332.121.582.363.751s.55.254.925.254zm5.234 1.168v-7.636h1.745v1.272h.08c.139-.44.377-.78.715-1.019s.731-.363 1.169-.363l.333.015c.126.007.23.018.313.035v1.656a1.85 1.85 0 0 0-.363-.07c-.162-.023-.32-.035-.472-.035-.328 0-.623.071-.885.214s-.462.333-.612.582-.223.535-.223.86v4.489h-1.8zm7.93.134c-.6 0-1.137-.154-1.611-.462s-.848-.756-1.123-1.342-.413-1.3-.413-2.138c0-.849.139-1.565.418-2.148s.661-1.029 1.138-1.327a2.92 2.92 0 0 1 1.596-.453c.448 0 .815.076 1.104.229s.517.33.686.542.3.406.393.591h.074v-3.808h1.805V401.5h-1.77v-1.203h-.109c-.093.185-.227.383-.403.591s-.408.382-.696.527-.651.219-1.089.219zm.502-1.476c.381 0 .706-.103.975-.309s.472-.498.611-.87.209-.803.209-1.297-.07-.923-.209-1.288-.338-.648-.606-.85-.592-.303-.98-.303c-.401 0-.736.104-1.004.313s-.471.497-.607.865-.203.789-.203 1.263.068.903.203 1.278.343.664.612.879.605.319.999.319zm7.545-8.84l-.164 7.189h-1.601l-.159-7.189h1.924zm-.964 10.291c-.302 0-.561-.106-.776-.318s-.318-.47-.318-.775c0-.299.106-.554.318-.766s.474-.318.776-.318a1.05 1.05 0 0 1 .765.318c.219.212.328.467.328.766a1.02 1.02 0 0 1-.154.551 1.14 1.14 0 0 1-.397.398 1.05 1.05 0 0 1-.542.144z" class="D"/><path d="M269.861 368.281c-.027-.248-.138-.441-.335-.579s-.449-.208-.762-.208c-.219 0-.408.033-.565.1s-.278.156-.361.27-.126.243-.128.389c0 .121.028.226.083.315s.133.165.23.227a1.59 1.59 0 0 0 .321.154c.117.042.236.077.355.105l.545.136c.22.051.431.121.634.208s.387.197.548.329a1.46 1.46 0 0 1 .386.48c.095.188.143.408.143.659a1.58 1.58 0 0 1-.262.901c-.174.258-.426.459-.755.605s-.725.216-1.191.216c-.452 0-.845-.07-1.179-.21s-.591-.345-.778-.614-.286-.596-.301-.983h1.037a.88.88 0 0 0 .187.506c.11.134.253.235.429.301s.377.1.597.1c.229 0 .43-.035.602-.103s.311-.166.409-.29a.7.7 0 0 0 .151-.437c-.002-.152-.047-.277-.134-.375s-.209-.184-.366-.25-.338-.129-.546-.182l-.662-.17c-.479-.123-.858-.31-1.136-.56s-.415-.586-.415-1.003a1.5 1.5 0 0 1 .278-.9c.188-.258.443-.458.765-.6s.686-.216 1.093-.216c.413 0 .775.072 1.086.216s.557.34.735.594a1.52 1.52 0 0 1 .276.869h-1.014zm3.84 4.304c-.438 0-.816-.091-1.134-.273a1.84 1.84 0 0 1-.73-.778c-.171-.337-.256-.734-.256-1.19 0-.449.085-.843.256-1.182a1.94 1.94 0 0 1 .721-.796c.309-.191.672-.286 1.089-.286.269 0 .522.043.761.13s.453.218.636.398.332.409.438.687.159.607.159.989v.315h-3.577v-.693h2.591c-.002-.197-.044-.372-.128-.525s-.2-.278-.349-.367-.32-.133-.517-.133c-.21 0-.395.051-.554.153s-.283.233-.372.398a1.15 1.15 0 0 0-.134.537v.605a1.43 1.43 0 0 0 .139.653c.093.18.223.318.39.415s.361.142.585.142c.149 0 .285-.021.406-.062a.9.9 0 0 0 .315-.191c.089-.083.157-.186.202-.309l.96.108c-.06.253-.176.475-.346.664a1.69 1.69 0 0 1-.648.438c-.263.102-.564.153-.903.153zm3.758-2.642v2.557h-1.028v-4.364h.983v.742h.051c.1-.244.26-.439.48-.583s.495-.215.821-.215c.301 0 .564.064.787.193s.4.315.523.559.186.541.184.89v2.778h-1.028v-2.619c0-.292-.076-.52-.227-.685s-.357-.247-.622-.247a.96.96 0 0 0-.48.119c-.139.078-.248.191-.327.338s-.117.327-.117.537zm5.386 2.634c-.343 0-.649-.088-.92-.265s-.485-.431-.642-.767-.236-.742-.236-1.221c0-.485.079-.894.239-1.227s.377-.588.65-.759.577-.258.912-.258c.256 0 .466.043.631.13s.295.189.392.31a1.91 1.91 0 0 1 .224.338h.043v-2.176h1.031v5.818h-1.011v-.688h-.063a1.77 1.77 0 0 1-.23.339c-.1.117-.233.217-.398.301s-.372.125-.622.125zm.287-.844a.89.89 0 0 0 .557-.176c.153-.12.27-.285.349-.497a2.1 2.1 0 0 0 .12-.742c0-.282-.04-.527-.12-.736a1.04 1.04 0 0 0-.346-.485c-.152-.116-.338-.174-.56-.174a.91.91 0 0 0-.574.179c-.153.12-.269.284-.346.495a2.06 2.06 0 0 0-.117.721c0 .273.039.516.117.73a1.14 1.14 0 0 0 .349.503.9.9 0 0 0 .571.182zm5.003.767v-5.818h3.784v.883h-2.73v1.58h2.534v.883h-2.534v1.588h2.753v.884h-3.807zm4.734 0v-4.364h.983v.742h.051c.091-.25.241-.445.452-.585a1.31 1.31 0 0 1 .752-.213c.296 0 .545.072.748.215a1.13 1.13 0 0 1 .431.583h.046c.096-.243.259-.436.488-.58s.505-.218.821-.218c.402 0 .73.126.983.38s.381.624.381 1.111v2.929h-1.031v-2.77c0-.271-.072-.469-.216-.594a.77.77 0 0 0-.528-.19c-.249 0-.443.078-.583.233s-.207.353-.207.599v2.722h-1.009v-2.812c0-.226-.068-.406-.204-.54s-.311-.202-.529-.202c-.147 0-.282.038-.403.114s-.218.179-.29.315-.108.292-.108.472v2.653h-1.028zm8.355.088c-.276 0-.525-.049-.747-.148s-.394-.248-.523-.443-.19-.435-.19-.721c0-.247.045-.45.136-.611a1.06 1.06 0 0 1 .372-.387 1.9 1.9 0 0 1 .532-.218c.198-.051.404-.088.616-.111l.622-.071a.94.94 0 0 0 .347-.102c.074-.048.111-.121.111-.219v-.017c0-.214-.064-.38-.191-.497s-.309-.177-.548-.177c-.252 0-.452.055-.599.165a.82.82 0 0 0-.296.389l-.96-.136a1.54 1.54 0 0 1 .375-.665c.174-.18.387-.314.639-.403s.53-.136.835-.136c.211 0 .42.024.628.073s.399.131.571.245.311.264.415.457.159.435.159.725v2.92h-.989v-.599h-.034c-.062.121-.15.234-.264.34s-.253.189-.423.253-.367.094-.594.094zm.267-.756a1.11 1.11 0 0 0 .537-.122c.152-.083.268-.193.349-.329s.125-.285.125-.446v-.515a.46.46 0 0 1-.164.074 2.26 2.26 0 0 1-.256.06l-.281.045-.242.035c-.153.02-.29.054-.412.102a.68.68 0 0 0-.287.199c-.07.083-.105.191-.105.324 0 .189.069.332.208.429s.314.144.528.144zm2.991.668v-4.364h1.029v4.364h-1.029zm.517-4.983c-.163 0-.303-.054-.42-.162a.52.52 0 0 1-.176-.395c0-.155.058-.287.176-.395a.59.59 0 0 1 .42-.164c.165 0 .305.054.421.164a.52.52 0 0 1 .176.395c0 .154-.059.285-.176.395s-.256.162-.421.162zm2.518-.835v5.818h-1.029v-5.818h1.029z" fill="#636369"/><path d="M266.125 379.244h131.563" class="B"/><rect x="211" y="364.5" width="40" height="40" rx="4" fill="#e3fef2"/><g clip-path="url(#B)"><path d="M221.556 383.945l4.444-3.889 8.889.555.556 8.889-3.889 4.445s0-3.333-3.334-6.667-6.666-3.333-6.666-3.333z" fill="#a0041e"/><path d="M221.541 393.944s-.02-4.433 1.658-6.111 6.134-1.563 6.134-1.563 0 4.341-1.667 6.007-6.125 1.667-6.125 1.667z" fill="#ffac33"/><path d="M226 391.722c1.227 0 2.222-.995 2.222-2.222s-.995-2.223-2.222-2.223-2.223.995-2.223 2.223.995 2.222 2.223 2.222z" fill="#ffcc4d"/><path d="M241 374.5s-5.556 0-12.223 5.556c-3.333 2.777-3.333 7.777-2.222 8.888s6.111 1.112 8.889-2.222C241 380.056 241 374.5 241 374.5z" fill="#55acee"/><path d="M235.999 377.277a2.22 2.22 0 0 0-2.022 1.311c.278-.126.586-.2.911-.2 1.227 0 2.222.995 2.222 2.223 0 .325-.073.632-.199.911a2.22 2.22 0 0 0 1.311-2.022c0-1.228-.995-2.223-2.223-2.223z" fill="#000"/><path d="M225.444 390.056s0-2.222.556-2.778 7.223-6.11 7.778-5.555-5.001 7.222-5.556 7.777-2.778.556-2.778.556z" fill="#a0041e"/></g><rect x="356.688" y="368" width="41" height="4" rx="2" fill="#eef1f7"/><rect x="199" y="352.5" width="215" height="64" rx="7.5" class="B"/><g class="D"><rect x="303.5" y="281.564" width="6" height="6" rx="3"/><path d="M306.844 343.834a.4.4 0 0 1-.692 0l-2.772-4.8a.4.4 0 0 1 .347-.6h5.542a.4.4 0 0 1 .347.6l-2.772 4.8z"/></g><path d="M306.461 287.139v54.185" class="B"/><rect x="454.148" y="145" width="30" height="30" rx="4" class="C"/><g fill="#b3c2d8"><path d="M470.148 154a1 1 0 1 0-2 0h2zm-2 12a1 1 0 1 0 2 0h-2zm0-12v12h2v-12h-2z"/><path d="M475.148 161a1 1 0 1 0 0-2v2zm-12-2a1 1 0 1 0 0 2v-2zm12 0h-12v2h12v-2z"/></g><rect x="-1" y="1" width="419" height="345" rx="7" transform="matrix(-1 0 0 1 515 125)" stroke="#e1e8f2" stroke-width="2" stroke-dasharray="8 8"/><defs><clipPath id="A"><path transform="translate(221 231.5)" d="M0 0h20v20H0z" class="C"/></clipPath><clipPath id="B"><path transform="translate(221 374.5)" d="M0 0h20v20H0z" class="C"/></clipPath><path id="C" d="M355.621 511.63l10.182-13.818 13.818-10.182-13.818-10.182-10.182-13.818-10.182 13.818-13.818 10.182 13.818 10.182 10.182 13.818z"/></defs></svg>