<svg width="600" height="318" viewBox="0 0 600 318" fill="none" xmlns="http://www.w3.org/2000/svg">
<path d="M555.504 0.595703L555.504 16.2952M555.504 496.596L555.504 280.458M555.504 214.716L555.504 66.4982" stroke="#916BDC" stroke-dasharray="4 4"/>
<path d="M453.312 0.595703L453.312 340.078M453.312 496.596L453.312 364.75" stroke="#916BDC" stroke-dasharray="4 4"/>
<path d="M351.621 0.595703L351.621 102.637M351.621 496.596L351.621 479.344M351.621 185.352L351.621 429.747" stroke="#916BDC" stroke-dasharray="4 4"/>
<line y1="-0.5" x2="496" y2="-0.5" transform="matrix(-4.40904e-08 1 1 4.33356e-08 249.43 0.595703)" stroke="#916BDC" stroke-dasharray="4 4"/>
<path d="M146.738 0.595703L146.738 28.2979M146.738 496.596L146.738 394.61M146.738 311.536L146.738 52.7896" stroke="#916BDC" stroke-dasharray="4 4"/>
<path d="M44.5469 0L44.5469 121.482M44.5469 496L44.5469 257.567M44.5469 167.502L44.5469 240.333" stroke="#916BDC" stroke-dasharray="4 4"/>
<path d="M-4 144.887H21.6723M604 144.887L392.708 144.887M312 144.887L69.3582 144.887" stroke="#916BDC" stroke-dasharray="4 4"/>
<path d="M-4 248.68H35.4795M604 248.68H588.678M523.354 248.68L53.1204 248.68" stroke="#916BDC" stroke-dasharray="4 4"/>
<path d="M-4 41.0938L134.858 41.0937M604 41.0937L578.879 41.0937M530.54 41.0937L159.135 41.0937" stroke="#916BDC" stroke-dasharray="4 4"/>
<path d="M555.48 65.0117L565.663 51.1941L579.48 41.0117L565.663 30.8294L555.48 17.0117L545.298 30.8294L531.48 41.0117L545.298 51.1941L555.48 65.0117Z" stroke="#916BDC" stroke-dasharray="4 4"/>
<path d="M44.6016 168.742L54.7839 154.925L68.6016 144.742L54.7839 134.56L44.6016 120.742L34.4192 134.56L20.6016 144.742L34.4192 154.925L44.6016 168.742Z" stroke="#916BDC" stroke-dasharray="4 4"/>
<path d="M555.469 280.596L569.045 262.172L587.469 248.596L569.045 235.019L555.469 216.596L541.892 235.019L523.469 248.596L541.892 262.172L555.469 280.596Z" stroke="#916BDC" stroke-dasharray="4 4"/>
<path d="M146.754 392.502L163.724 369.473L186.754 352.502L163.724 335.531L146.754 312.502L129.783 335.531L106.754 352.502L129.783 369.473L146.754 392.502Z" stroke="#916BDC" stroke-dasharray="4 4"/>
<path d="M351.621 184.893L368.592 161.863L391.621 144.893L368.592 127.922L351.621 104.893L334.651 127.922L311.621 144.893L334.651 161.863L351.621 184.893Z" stroke="#916BDC" stroke-dasharray="4 4"/>
<circle r="8" transform="matrix(1 0 0 -1 44.5469 248.68)" stroke="#916BDC" stroke-dasharray="4 4"/>
<circle r="12" transform="matrix(1 0 0 -1 146.738 41.0938)" stroke="#916BDC" stroke-dasharray="4 4"/>
<rect x="-2" y="2" width="484.388" height="422.315" rx="6" transform="matrix(-1 0 0 1 551.5 77.9307)" fill="#121212"/>
<rect x="-2" y="2" width="484.388" height="422.315" rx="6" transform="matrix(-1 0 0 1 551.5 77.9307)" stroke="#121212" stroke-width="4"/>
<rect x="-2" y="2" width="483.474" height="419.085" rx="6" transform="matrix(-1 0 0 1 531.471 65.0117)" fill="#F5F6F8"/>
<rect x="-2" y="2" width="483.474" height="419.085" rx="6" transform="matrix(-1 0 0 1 531.471 65.0117)" stroke="#121212" stroke-width="4"/>
<line x1="85.2578" y1="140.952" x2="489.403" y2="140.952" stroke="#DFE7F2" stroke-width="2"/>
<path d="M117.288 121.111C120.708 121.111 122.004 119.383 122.004 117.457C122.004 115.693 121.14 114.361 118.602 113.875L116.46 113.461C115.056 113.191 114.732 113.011 114.732 112.237C114.732 111.481 115.218 111.139 116.766 111.139C118.548 111.139 119.07 111.553 119.07 112.813V113.011H121.734V112.867C121.734 110.473 120.294 108.691 116.856 108.691C113.4 108.691 112.05 110.509 112.05 112.345C112.05 114.217 113.022 115.387 115.326 115.783L117.45 116.161C119.142 116.449 119.322 116.737 119.322 117.547C119.322 118.357 118.944 118.663 117.414 118.663C115.236 118.663 114.75 118.285 114.75 116.953V116.773H112.104V117.007C112.104 119.671 113.742 121.111 117.288 121.111ZM127.894 121.111C130.486 121.111 132.142 119.977 132.142 118.051V117.871H129.478V117.979C129.478 118.537 129.01 118.771 127.93 118.771C126.454 118.771 125.95 118.267 125.896 117.007H132.106C132.16 116.701 132.232 116.179 132.232 115.675C132.232 113.317 130.63 111.697 127.912 111.697C125.086 111.697 123.358 113.533 123.358 116.431C123.358 119.293 124.78 121.111 127.894 121.111ZM127.822 113.911C129.082 113.911 129.694 114.433 129.64 115.369H125.914C126.022 114.415 126.526 113.911 127.822 113.911ZM137.682 119.977C139.05 119.977 140.004 119.365 140.4 118.663H140.508V120.067C140.508 121.471 140.22 121.795 138.798 121.795C137.25 121.795 136.98 121.561 136.98 120.625H134.298C134.298 122.929 135.882 124.171 138.708 124.171C141.624 124.171 143.19 122.875 143.19 119.923V111.877H140.688V113.191H140.598C140.112 112.201 139.086 111.697 137.79 111.697C135.216 111.697 133.848 113.335 133.848 115.855C133.848 118.375 135.18 119.977 137.682 119.977ZM136.53 115.855C136.53 114.577 136.98 113.983 138.528 113.983C139.824 113.983 140.508 114.433 140.508 115.585V116.125C140.508 117.277 139.806 117.727 138.51 117.727C136.98 117.727 136.53 117.133 136.53 115.855ZM148.064 120.931V115.693C148.064 114.415 148.604 114.019 149.828 114.019C151.124 114.019 151.52 114.469 151.52 115.729V120.931H154.22V115.729C154.22 114.415 154.742 114.019 155.966 114.019C157.28 114.019 157.658 114.469 157.658 115.729V120.931H160.358V115.189C160.358 113.263 159.404 111.697 157.064 111.697C155.39 111.697 154.49 112.471 153.986 113.461H153.896C153.446 112.399 152.51 111.697 150.962 111.697C149.414 111.697 148.478 112.435 147.992 113.461H147.884V111.877H145.382V120.931H148.064ZM166.657 121.111C169.249 121.111 170.905 119.977 170.905 118.051V117.871H168.241V117.979C168.241 118.537 167.773 118.771 166.693 118.771C165.217 118.771 164.713 118.267 164.659 117.007H170.869C170.923 116.701 170.995 116.179 170.995 115.675C170.995 113.317 169.393 111.697 166.675 111.697C163.849 111.697 162.121 113.533 162.121 116.431C162.121 119.293 163.543 121.111 166.657 121.111ZM166.585 113.911C167.845 113.911 168.457 114.433 168.403 115.369H164.677C164.785 114.415 165.289 113.911 166.585 113.911ZM175.511 120.931V115.801C175.511 114.433 176.069 114.019 177.365 114.019C178.733 114.019 179.147 114.469 179.147 115.729V120.931H181.847V115.189C181.847 113.263 180.839 111.697 178.481 111.697C176.897 111.697 175.925 112.435 175.439 113.461H175.331V111.877H172.829V120.931H175.511ZM188.074 120.967C188.704 120.967 189.406 120.877 189.838 120.787V118.537H188.722C187.552 118.537 187.282 118.447 187.282 117.655V114.109H189.838V111.877H187.282V109.771H185.158L184.654 111.877H183.142V114.109H184.582V117.961C184.582 120.103 185.716 120.967 188.074 120.967ZM195.57 121.111C198.072 121.111 199.458 120.031 199.458 118.339C199.458 116.863 198.666 115.999 196.758 115.639L195.102 115.297C194.022 115.081 193.86 114.955 193.86 114.523C193.86 114.091 194.112 113.857 195.192 113.857C196.344 113.857 196.596 114.181 196.596 114.775V115.027H199.17V114.775C199.17 112.741 197.478 111.697 195.264 111.697C192.69 111.697 191.322 112.885 191.322 114.559C191.322 116.233 192.294 116.989 194.076 117.313L195.444 117.565C196.65 117.781 196.902 117.889 196.902 118.375C196.902 118.825 196.722 118.987 195.624 118.987C194.31 118.987 193.914 118.843 193.914 118.177V117.799H191.34V117.853C191.34 120.049 192.726 121.111 195.57 121.111Z" fill="black"/>
<g clip-path="url(#clip0_6346_40583)">
<path d="M87.0913 105.764H88.3135V125.931H87.0913V105.764Z" fill="#CCD6DD"/>
<path d="M87.7025 107.597C88.715 107.597 89.5358 106.777 89.5358 105.764C89.5358 104.751 88.715 103.931 87.7025 103.931C86.69 103.931 85.8691 104.751 85.8691 105.764C85.8691 106.777 86.69 107.597 87.7025 107.597Z" fill="#F4900C"/>
<path d="M90.758 121.042H87.7024C87.3651 121.042 87.0913 120.769 87.0913 120.431C87.0913 120.093 87.3651 119.82 87.7024 119.82H90.758C91.0953 119.82 91.3691 120.093 91.3691 120.431C91.3691 120.769 91.0953 121.042 90.758 121.042Z" fill="#66757F"/>
<path d="M104.202 120.431C104.202 119.081 107.997 116.764 106.647 116.764H101.485C100.75 115.869 98.6766 114.931 97.1745 114.931C95.6718 114.931 95.2006 115.869 95.0754 116.764H91.369C90.019 116.764 89.5356 117.858 89.5356 119.208V121.653C89.5356 123.003 90.019 124.097 91.369 124.097H106.647C107.997 124.097 104.202 121.781 104.202 120.431Z" fill="#DD2E44"/>
<path d="M92.5911 121.042C93.6037 121.042 94.4245 120.221 94.4245 119.208C94.4245 118.196 93.6037 117.375 92.5911 117.375C91.5786 117.375 90.7578 118.196 90.7578 119.208C90.7578 120.221 91.5786 121.042 92.5911 121.042Z" fill="white"/>
<path d="M92.2858 119.82C92.7921 119.82 93.2025 119.409 93.2025 118.903C93.2025 118.397 92.7921 117.986 92.2858 117.986C91.7795 117.986 91.3691 118.397 91.3691 118.903C91.3691 119.409 91.7795 119.82 92.2858 119.82Z" fill="black"/>
<path d="M106.647 116.764H95.0124C96.2761 118.161 97.9102 120.715 94.9897 124.097H106.647C107.997 124.097 104.202 121.781 104.202 120.431C104.202 119.081 107.997 116.764 106.647 116.764Z" fill="#F4ABBA"/>
<path d="M90.758 111.264H87.7024C87.3651 111.264 87.0913 110.99 87.0913 110.653C87.0913 110.316 87.3651 110.042 87.7024 110.042H90.758C91.0953 110.042 91.3691 110.316 91.3691 110.653C91.3691 110.99 91.0953 111.264 90.758 111.264Z" fill="#66757F"/>
<path d="M104.202 110.653C104.202 109.303 107.997 106.986 106.647 106.986H101.485C100.75 106.091 98.6773 105.153 97.1745 105.153C95.6718 105.153 95.2006 106.091 95.0754 106.986H91.369C90.019 106.986 89.5356 108.081 89.5356 109.431V111.875C89.5356 113.225 90.019 114.319 91.369 114.319H106.647C107.997 114.319 104.202 112.003 104.202 110.653Z" fill="#55ACEE"/>
<path d="M92.5911 111.264C93.6037 111.264 94.4245 110.443 94.4245 109.431C94.4245 108.418 93.6037 107.597 92.5911 107.597C91.5786 107.597 90.7578 108.418 90.7578 109.431C90.7578 110.443 91.5786 111.264 92.5911 111.264Z" fill="white"/>
<path d="M92.2858 110.042C92.7921 110.042 93.2025 109.631 93.2025 109.125C93.2025 108.619 92.7921 108.208 92.2858 108.208C91.7795 108.208 91.3691 108.619 91.3691 109.125C91.3691 109.631 91.7795 110.042 92.2858 110.042Z" fill="black"/>
<path d="M106.647 106.986H95.0124C96.2761 108.383 97.9102 110.937 94.9897 114.32H106.647C107.997 114.32 104.202 112.003 104.202 110.653C104.202 109.303 107.997 106.986 106.647 106.986Z" fill="#BBDDF5"/>
</g>
<rect x="459.406" y="99.9307" width="30" height="30" rx="4" fill="white"/>
<path d="M475.406 108.931C475.406 108.378 474.959 107.931 474.406 107.931C473.854 107.931 473.406 108.378 473.406 108.931H475.406ZM473.406 120.931C473.406 121.483 473.854 121.931 474.406 121.931C474.959 121.931 475.406 121.483 475.406 120.931H473.406ZM473.406 108.931V120.931H475.406V108.931H473.406Z" fill="#B3C2D8"/>
<path d="M480.406 115.931C480.959 115.931 481.406 115.483 481.406 114.931C481.406 114.378 480.959 113.931 480.406 113.931L480.406 115.931ZM468.406 113.931C467.854 113.931 467.406 114.378 467.406 114.931C467.406 115.483 467.854 115.931 468.406 115.931L468.406 113.931ZM480.406 113.931L468.406 113.931L468.406 115.931L480.406 115.931L480.406 113.931Z" fill="#B3C2D8"/>
<rect x="85" y="208" width="404" height="119" rx="8" fill="white"/>
<rect x="107.5" y="225.5" width="200" height="30" rx="3.5" fill="white"/>
<g clip-path="url(#clip1_6346_40583)">
<path d="M121.844 236.12C121.798 236.167 121.762 236.223 121.733 236.285L121.729 236.281L117.056 246.809L117.061 246.813C116.974 246.981 117.119 247.323 117.416 247.62C117.713 247.918 118.055 248.063 118.223 247.976L118.227 247.98L128.754 243.306L128.751 243.303C128.812 243.273 128.868 243.238 128.916 243.19C129.566 242.54 128.511 240.429 126.559 238.477C124.606 236.524 122.496 235.469 121.844 236.12Z" fill="#DD2E44"/>
<path d="M122.417 238L117.173 246.544L117.056 246.809L117.061 246.813C116.974 246.981 117.119 247.323 117.416 247.62C117.513 247.717 117.613 247.79 117.711 247.852L124.083 240.083L122.417 238Z" fill="#EA596E"/>
<path d="M126.588 238.444C128.534 240.391 129.614 242.466 129 243.079C128.386 243.693 126.311 242.613 124.364 240.667C122.418 238.721 121.338 236.645 121.952 236.031C122.566 235.417 124.641 236.497 126.588 238.444Z" fill="#A0041E"/>
<path d="M124.746 238.671C124.663 238.738 124.555 238.773 124.44 238.76C124.078 238.721 123.774 238.595 123.561 238.396C123.336 238.186 123.225 237.903 123.255 237.621C123.308 237.124 123.807 236.668 124.656 236.76C124.987 236.795 125.134 236.689 125.139 236.638C125.145 236.588 125.024 236.452 124.693 236.416C124.332 236.377 124.027 236.251 123.814 236.053C123.589 235.842 123.477 235.56 123.508 235.277C123.562 234.78 124.06 234.324 124.909 234.416C125.15 234.442 125.277 234.393 125.33 234.361C125.373 234.334 125.39 234.309 125.392 234.295C125.397 234.244 125.277 234.109 124.946 234.073C124.717 234.048 124.552 233.843 124.577 233.614C124.602 233.385 124.806 233.22 125.036 233.245C125.885 233.336 126.275 233.887 126.221 234.384C126.167 234.882 125.669 235.337 124.819 235.246C124.578 235.219 124.452 235.269 124.398 235.301C124.355 235.327 124.338 235.353 124.336 235.367C124.331 235.418 124.451 235.553 124.782 235.588C125.631 235.68 126.021 236.231 125.967 236.728C125.914 237.225 125.416 237.681 124.567 237.588C124.326 237.563 124.199 237.613 124.145 237.644C124.102 237.671 124.085 237.696 124.083 237.71C124.078 237.761 124.198 237.896 124.529 237.932C124.757 237.957 124.924 238.162 124.898 238.391C124.887 238.505 124.829 238.604 124.746 238.671Z" fill="#AA8DD8"/>
<path d="M129.776 242.524C130.598 242.292 131.165 242.658 131.3 243.139C131.435 243.62 131.142 244.229 130.321 244.46C130 244.55 129.903 244.704 129.916 244.752C129.931 244.802 130.093 244.882 130.413 244.792C131.235 244.561 131.802 244.927 131.937 245.408C132.073 245.889 131.78 246.497 130.958 246.729C130.637 246.819 130.541 246.973 130.555 247.022C130.568 247.07 130.731 247.151 131.051 247.061C131.272 246.999 131.503 247.128 131.565 247.349C131.627 247.571 131.498 247.801 131.276 247.863C130.455 248.094 129.888 247.729 129.752 247.247C129.617 246.766 129.91 246.158 130.732 245.927C131.053 245.836 131.149 245.683 131.135 245.634C131.122 245.585 130.959 245.504 130.639 245.594C129.817 245.826 129.25 245.46 129.115 244.978C128.979 244.497 129.272 243.889 130.094 243.657C130.414 243.567 130.511 243.413 130.497 243.365C130.483 243.316 130.321 243.235 130.001 243.325C129.779 243.387 129.549 243.258 129.487 243.037C129.425 242.816 129.554 242.586 129.776 242.524Z" fill="#77B255"/>
<path d="M126.584 241.4C126.461 241.4 126.34 241.346 126.258 241.244C126.114 241.064 126.144 240.802 126.323 240.658C126.414 240.585 128.58 238.883 131.642 239.321C131.87 239.354 132.029 239.565 131.996 239.792C131.964 240.02 131.754 240.18 131.524 240.146C128.819 239.762 126.863 241.293 126.844 241.309C126.766 241.37 126.675 241.4 126.584 241.4Z" fill="#AA8DD8"/>
<path d="M119.397 239.667C119.358 239.667 119.317 239.661 119.277 239.649C119.057 239.583 118.932 239.351 118.998 239.13C119.47 237.558 119.898 235.05 119.372 234.395C119.314 234.321 119.225 234.248 119.021 234.264C118.631 234.294 118.668 235.118 118.668 235.127C118.686 235.356 118.513 235.556 118.284 235.573C118.051 235.588 117.854 235.418 117.837 235.189C117.794 234.614 117.973 233.508 118.959 233.433C119.399 233.4 119.764 233.553 120.022 233.873C121.01 235.103 120.007 238.668 119.796 239.37C119.742 239.55 119.576 239.667 119.397 239.667Z" fill="#77B255"/>
<path d="M127.625 237.583C127.97 237.583 128.25 237.303 128.25 236.958C128.25 236.613 127.97 236.333 127.625 236.333C127.28 236.333 127 236.613 127 236.958C127 237.303 127.28 237.583 127.625 237.583Z" fill="#5C913B"/>
<path d="M117.833 241.333C118.294 241.333 118.667 240.96 118.667 240.5C118.667 240.04 118.294 239.667 117.833 239.667C117.373 239.667 117 240.04 117 240.5C117 240.96 117.373 241.333 117.833 241.333Z" fill="#9266CC"/>
<path d="M130.542 241.75C130.887 241.75 131.167 241.47 131.167 241.125C131.167 240.78 130.887 240.5 130.542 240.5C130.196 240.5 129.917 240.78 129.917 241.125C129.917 241.47 130.196 241.75 130.542 241.75Z" fill="#5C913B"/>
<path d="M126.792 246.75C127.137 246.75 127.417 246.47 127.417 246.125C127.417 245.78 127.137 245.5 126.792 245.5C126.446 245.5 126.167 245.78 126.167 246.125C126.167 246.47 126.446 246.75 126.792 246.75Z" fill="#5C913B"/>
<path d="M128.667 235.5C129.127 235.5 129.5 235.127 129.5 234.667C129.5 234.206 129.127 233.833 128.667 233.833C128.207 233.833 127.833 234.206 127.833 234.667C127.833 235.127 128.207 235.5 128.667 235.5Z" fill="#FFCC4D"/>
<path d="M130.542 237.167C130.887 237.167 131.167 236.887 131.167 236.542C131.167 236.197 130.887 235.917 130.542 235.917C130.196 235.917 129.917 236.197 129.917 236.542C129.917 236.887 130.196 237.167 130.542 237.167Z" fill="#FFCC4D"/>
<path d="M129.292 238.833C129.637 238.833 129.917 238.553 129.917 238.208C129.917 237.863 129.637 237.583 129.292 237.583C128.946 237.583 128.667 237.863 128.667 238.208C128.667 238.553 128.946 238.833 129.292 238.833Z" fill="#FFCC4D"/>
<path d="M120.125 243.417C120.47 243.417 120.75 243.137 120.75 242.792C120.75 242.447 120.47 242.167 120.125 242.167C119.78 242.167 119.5 242.447 119.5 242.792C119.5 243.137 119.78 243.417 120.125 243.417Z" fill="#FFCC4D"/>
</g>
<path d="M137.696 245H136.298L139.439 236.273H140.96L144.101 245H142.703L140.236 237.858H140.168L137.696 245ZM137.93 241.582H142.464V242.69H137.93V241.582ZM145.139 247.455V238.455H146.383V239.516H146.49C146.564 239.379 146.67 239.222 146.809 239.043C146.949 238.864 147.142 238.707 147.389 238.574C147.636 238.438 147.963 238.369 148.369 238.369C148.897 238.369 149.369 238.503 149.784 238.77C150.199 239.037 150.524 239.422 150.76 239.925C150.998 240.428 151.118 241.033 151.118 241.74C151.118 242.447 151 243.054 150.764 243.56C150.528 244.062 150.204 244.45 149.792 244.723C149.38 244.993 148.91 245.128 148.382 245.128C147.984 245.128 147.659 245.061 147.406 244.928C147.156 244.794 146.96 244.638 146.818 244.459C146.676 244.28 146.566 244.121 146.49 243.982H146.413V247.455H145.139ZM146.387 241.727C146.387 242.187 146.454 242.591 146.588 242.938C146.721 243.284 146.914 243.555 147.167 243.751C147.42 243.945 147.73 244.041 148.096 244.041C148.477 244.041 148.795 243.94 149.051 243.739C149.306 243.534 149.5 243.257 149.63 242.908C149.764 242.558 149.831 242.165 149.831 241.727C149.831 241.295 149.765 240.908 149.635 240.564C149.507 240.22 149.314 239.949 149.055 239.75C148.799 239.551 148.48 239.452 148.096 239.452C147.727 239.452 147.414 239.547 147.159 239.737C146.906 239.928 146.714 240.193 146.583 240.534C146.453 240.875 146.387 241.273 146.387 241.727ZM152.425 247.455V238.455H153.669V239.516H153.776C153.85 239.379 153.956 239.222 154.096 239.043C154.235 238.864 154.428 238.707 154.675 238.574C154.922 238.438 155.249 238.369 155.655 238.369C156.184 238.369 156.655 238.503 157.07 238.77C157.485 239.037 157.81 239.422 158.046 239.925C158.285 240.428 158.404 241.033 158.404 241.74C158.404 242.447 158.286 243.054 158.05 243.56C157.814 244.062 157.49 244.45 157.079 244.723C156.667 244.993 156.196 245.128 155.668 245.128C155.27 245.128 154.945 245.061 154.692 244.928C154.442 244.794 154.246 244.638 154.104 244.459C153.962 244.28 153.853 244.121 153.776 243.982H153.699V247.455H152.425ZM153.674 241.727C153.674 242.187 153.74 242.591 153.874 242.938C154.008 243.284 154.201 243.555 154.454 243.751C154.706 243.945 155.016 244.041 155.383 244.041C155.763 244.041 156.081 243.94 156.337 243.739C156.593 243.534 156.786 243.257 156.917 242.908C157.05 242.558 157.117 242.165 157.117 241.727C157.117 241.295 157.052 240.908 156.921 240.564C156.793 240.22 156.6 239.949 156.341 239.75C156.086 239.551 155.766 239.452 155.383 239.452C155.013 239.452 154.701 239.547 154.445 239.737C154.192 239.928 154 240.193 153.87 240.534C153.739 240.875 153.674 241.273 153.674 241.727ZM160.986 236.273V245H159.711V236.273H160.986ZM162.58 245V238.455H163.854V245H162.58ZM163.223 237.445C163.002 237.445 162.811 237.371 162.652 237.223C162.496 237.072 162.418 236.893 162.418 236.686C162.418 236.476 162.496 236.297 162.652 236.149C162.811 235.999 163.002 235.923 163.223 235.923C163.445 235.923 163.634 235.999 163.79 236.149C163.949 236.297 164.029 236.476 164.029 236.686C164.029 236.893 163.949 237.072 163.79 237.223C163.634 237.371 163.445 237.445 163.223 237.445ZM168.205 245.132C167.572 245.132 167.026 244.989 166.569 244.702C166.114 244.412 165.765 244.013 165.52 243.504C165.276 242.996 165.154 242.413 165.154 241.757C165.154 241.092 165.279 240.506 165.529 239.997C165.779 239.486 166.131 239.087 166.586 238.8C167.04 238.513 167.576 238.369 168.192 238.369C168.689 238.369 169.133 238.462 169.522 238.646C169.911 238.828 170.225 239.084 170.464 239.413C170.705 239.743 170.849 240.128 170.894 240.568H169.654C169.586 240.261 169.429 239.997 169.185 239.776C168.944 239.554 168.62 239.443 168.214 239.443C167.858 239.443 167.547 239.537 167.28 239.724C167.016 239.909 166.81 240.173 166.662 240.517C166.515 240.858 166.441 241.261 166.441 241.727C166.441 242.205 166.513 242.616 166.658 242.963C166.803 243.31 167.008 243.578 167.272 243.768C167.539 243.959 167.853 244.054 168.214 244.054C168.455 244.054 168.674 244.01 168.87 243.922C169.069 243.831 169.235 243.702 169.368 243.534C169.505 243.366 169.6 243.165 169.654 242.929H170.894C170.849 243.352 170.711 243.73 170.481 244.062C170.25 244.395 169.942 244.656 169.556 244.847C169.172 245.037 168.722 245.132 168.205 245.132ZM174.041 245.145C173.627 245.145 173.252 245.068 172.916 244.915C172.581 244.759 172.316 244.533 172.119 244.237C171.926 243.942 171.83 243.58 171.83 243.151C171.83 242.781 171.901 242.477 172.043 242.239C172.185 242 172.377 241.811 172.618 241.672C172.86 241.533 173.129 241.428 173.428 241.357C173.726 241.286 174.03 241.232 174.34 241.195C174.732 241.149 175.05 241.112 175.294 241.084C175.539 241.053 175.716 241.003 175.827 240.935C175.938 240.866 175.993 240.756 175.993 240.602V240.572C175.993 240.2 175.888 239.912 175.678 239.707C175.47 239.503 175.161 239.401 174.749 239.401C174.32 239.401 173.982 239.496 173.735 239.686C173.49 239.874 173.321 240.082 173.227 240.312L172.03 240.04C172.172 239.642 172.379 239.321 172.652 239.077C172.928 238.83 173.244 238.651 173.602 238.54C173.96 238.426 174.337 238.369 174.732 238.369C174.993 238.369 175.27 238.401 175.563 238.463C175.858 238.523 176.134 238.634 176.389 238.795C176.648 238.957 176.86 239.189 177.024 239.49C177.189 239.788 177.271 240.176 177.271 240.653V245H176.027V244.105H175.976C175.894 244.27 175.77 244.432 175.605 244.591C175.441 244.75 175.229 244.882 174.97 244.987C174.712 245.092 174.402 245.145 174.041 245.145ZM174.318 244.122C174.671 244.122 174.972 244.053 175.222 243.913C175.475 243.774 175.666 243.592 175.797 243.368C175.931 243.141 175.997 242.898 175.997 242.639V241.795C175.952 241.841 175.864 241.884 175.733 241.923C175.605 241.96 175.459 241.993 175.294 242.021C175.129 242.047 174.969 242.071 174.813 242.094C174.656 242.114 174.526 242.131 174.421 242.145C174.173 242.176 173.948 242.229 173.743 242.303C173.541 242.376 173.379 242.483 173.257 242.622C173.138 242.759 173.078 242.94 173.078 243.168C173.078 243.483 173.195 243.722 173.428 243.884C173.661 244.043 173.958 244.122 174.318 244.122ZM181.904 238.455V239.477H178.329V238.455H181.904ZM179.287 236.886H180.562V243.078C180.562 243.325 180.599 243.511 180.672 243.636C180.746 243.759 180.841 243.842 180.958 243.888C181.077 243.93 181.207 243.952 181.346 243.952C181.448 243.952 181.537 243.945 181.614 243.93C181.691 243.916 181.751 243.905 181.793 243.896L182.023 244.949C181.949 244.977 181.844 245.006 181.708 245.034C181.572 245.065 181.401 245.082 181.197 245.085C180.861 245.091 180.549 245.031 180.259 244.906C179.969 244.781 179.735 244.588 179.556 244.327C179.377 244.065 179.287 243.737 179.287 243.342V236.886ZM183.193 245V238.455H184.468V245H183.193ZM183.837 237.445C183.615 237.445 183.425 237.371 183.266 237.223C183.11 237.072 183.031 236.893 183.031 236.686C183.031 236.476 183.11 236.297 183.266 236.149C183.425 235.999 183.615 235.923 183.837 235.923C184.058 235.923 184.247 235.999 184.404 236.149C184.563 236.297 184.642 236.476 184.642 236.686C184.642 236.893 184.563 237.072 184.404 237.223C184.247 237.371 184.058 237.445 183.837 237.445ZM188.819 245.132C188.205 245.132 187.67 244.991 187.212 244.71C186.755 244.429 186.4 244.036 186.147 243.53C185.894 243.024 185.768 242.433 185.768 241.757C185.768 241.078 185.894 240.484 186.147 239.976C186.4 239.467 186.755 239.072 187.212 238.791C187.67 238.51 188.205 238.369 188.819 238.369C189.432 238.369 189.968 238.51 190.425 238.791C190.883 239.072 191.238 239.467 191.491 239.976C191.744 240.484 191.87 241.078 191.87 241.757C191.87 242.433 191.744 243.024 191.491 243.53C191.238 244.036 190.883 244.429 190.425 244.71C189.968 244.991 189.432 245.132 188.819 245.132ZM188.823 244.062C189.221 244.062 189.55 243.957 189.812 243.747C190.073 243.537 190.266 243.257 190.391 242.908C190.519 242.558 190.583 242.173 190.583 241.753C190.583 241.335 190.519 240.952 190.391 240.602C190.266 240.25 190.073 239.967 189.812 239.754C189.55 239.541 189.221 239.435 188.823 239.435C188.422 239.435 188.09 239.541 187.826 239.754C187.565 239.967 187.37 240.25 187.242 240.602C187.117 240.952 187.055 241.335 187.055 241.753C187.055 242.173 187.117 242.558 187.242 242.908C187.37 243.257 187.565 243.537 187.826 243.747C188.09 243.957 188.422 244.062 188.823 244.062ZM194.446 241.114V245H193.172V238.455H194.395V239.52H194.476C194.627 239.173 194.862 238.895 195.184 238.685C195.507 238.474 195.915 238.369 196.407 238.369C196.853 238.369 197.243 238.463 197.578 238.651C197.914 238.835 198.174 239.111 198.358 239.477C198.543 239.844 198.635 240.297 198.635 240.837V245H197.361V240.99C197.361 240.516 197.237 240.145 196.99 239.878C196.743 239.608 196.404 239.473 195.972 239.473C195.676 239.473 195.414 239.537 195.184 239.665C194.956 239.793 194.776 239.98 194.642 240.227C194.512 240.472 194.446 240.767 194.446 241.114ZM210.963 240.636C210.963 241.568 210.793 242.369 210.452 243.04C210.111 243.707 209.643 244.222 209.05 244.582C208.459 244.94 207.787 245.119 207.034 245.119C206.278 245.119 205.604 244.94 205.01 244.582C204.419 244.222 203.953 243.706 203.612 243.036C203.271 242.365 203.101 241.565 203.101 240.636C203.101 239.705 203.271 238.905 203.612 238.237C203.953 237.567 204.419 237.053 205.01 236.695C205.604 236.334 206.278 236.153 207.034 236.153C207.787 236.153 208.459 236.334 209.05 236.695C209.643 237.053 210.111 237.567 210.452 238.237C210.793 238.905 210.963 239.705 210.963 240.636ZM209.659 240.636C209.659 239.926 209.544 239.328 209.314 238.842C209.087 238.354 208.774 237.984 208.376 237.734C207.982 237.482 207.534 237.355 207.034 237.355C206.531 237.355 206.082 237.482 205.687 237.734C205.293 237.984 204.98 238.354 204.75 238.842C204.523 239.328 204.409 239.926 204.409 240.636C204.409 241.347 204.523 241.946 204.75 242.435C204.98 242.92 205.293 243.29 205.687 243.543C206.082 243.793 206.531 243.918 207.034 243.918C207.534 243.918 207.982 243.793 208.376 243.543C208.774 243.29 209.087 242.92 209.314 242.435C209.544 241.946 209.659 241.347 209.659 240.636ZM212.382 247.455V238.455H213.627V239.516H213.733C213.807 239.379 213.914 239.222 214.053 239.043C214.192 238.864 214.385 238.707 214.632 238.574C214.88 238.438 215.206 238.369 215.613 238.369C216.141 238.369 216.613 238.503 217.027 238.77C217.442 239.037 217.767 239.422 218.003 239.925C218.242 240.428 218.361 241.033 218.361 241.74C218.361 242.447 218.243 243.054 218.007 243.56C217.772 244.062 217.448 244.45 217.036 244.723C216.624 244.993 216.154 245.128 215.625 245.128C215.228 245.128 214.902 245.061 214.65 244.928C214.4 244.794 214.203 244.638 214.061 244.459C213.919 244.28 213.81 244.121 213.733 243.982H213.657V247.455H212.382ZM213.631 241.727C213.631 242.187 213.698 242.591 213.831 242.938C213.965 243.284 214.158 243.555 214.411 243.751C214.664 243.945 214.973 244.041 215.34 244.041C215.721 244.041 216.039 243.94 216.294 243.739C216.55 243.534 216.743 243.257 216.874 242.908C217.007 242.558 217.074 242.165 217.074 241.727C217.074 241.295 217.009 240.908 216.878 240.564C216.75 240.22 216.557 239.949 216.299 239.75C216.043 239.551 215.723 239.452 215.34 239.452C214.971 239.452 214.658 239.547 214.402 239.737C214.15 239.928 213.958 240.193 213.827 240.534C213.696 240.875 213.631 241.273 213.631 241.727ZM222.49 245.132C221.845 245.132 221.289 244.994 220.824 244.719C220.36 244.44 220.003 244.05 219.75 243.547C219.5 243.041 219.375 242.449 219.375 241.77C219.375 241.099 219.5 240.509 219.75 239.997C220.003 239.486 220.355 239.087 220.807 238.8C221.261 238.513 221.792 238.369 222.4 238.369C222.77 238.369 223.128 238.43 223.474 238.553C223.821 238.675 224.132 238.866 224.407 239.128C224.683 239.389 224.9 239.729 225.059 240.146C225.218 240.561 225.298 241.065 225.298 241.659V242.111H220.095V241.156H224.049C224.049 240.821 223.981 240.524 223.845 240.266C223.708 240.004 223.517 239.798 223.27 239.648C223.025 239.497 222.738 239.422 222.409 239.422C222.051 239.422 221.738 239.51 221.471 239.686C221.207 239.859 221.003 240.087 220.858 240.368C220.716 240.646 220.645 240.949 220.645 241.276V242.021C220.645 242.459 220.721 242.831 220.875 243.138C221.031 243.445 221.248 243.679 221.527 243.841C221.805 244 222.13 244.08 222.503 244.08C222.744 244.08 222.964 244.045 223.163 243.977C223.362 243.906 223.534 243.801 223.679 243.662C223.824 243.523 223.934 243.351 224.011 243.146L225.217 243.364C225.12 243.719 224.947 244.03 224.697 244.297C224.45 244.561 224.139 244.767 223.764 244.915C223.392 245.06 222.967 245.132 222.49 245.132ZM227.866 241.114V245H226.592V238.455H227.815V239.52H227.896C228.046 239.173 228.282 238.895 228.603 238.685C228.927 238.474 229.335 238.369 229.826 238.369C230.272 238.369 230.663 238.463 230.998 238.651C231.333 238.835 231.593 239.111 231.778 239.477C231.962 239.844 232.055 240.297 232.055 240.837V245H230.781V240.99C230.781 240.516 230.657 240.145 230.41 239.878C230.163 239.608 229.823 239.473 229.391 239.473C229.096 239.473 228.833 239.537 228.603 239.665C228.376 239.793 228.195 239.98 228.062 240.227C227.931 240.472 227.866 240.767 227.866 241.114ZM236.465 245.132C235.82 245.132 235.264 244.994 234.798 244.719C234.335 244.44 233.977 244.05 233.725 243.547C233.475 243.041 233.35 242.449 233.35 241.77C233.35 241.099 233.475 240.509 233.725 239.997C233.977 239.486 234.33 239.087 234.781 238.8C235.236 238.513 235.767 238.369 236.375 238.369C236.744 238.369 237.102 238.43 237.449 238.553C237.796 238.675 238.107 238.866 238.382 239.128C238.658 239.389 238.875 239.729 239.034 240.146C239.193 240.561 239.273 241.065 239.273 241.659V242.111H234.07V241.156H238.024C238.024 240.821 237.956 240.524 237.82 240.266C237.683 240.004 237.492 239.798 237.244 239.648C237 239.497 236.713 239.422 236.384 239.422C236.026 239.422 235.713 239.51 235.446 239.686C235.182 239.859 234.977 240.087 234.832 240.368C234.69 240.646 234.619 240.949 234.619 241.276V242.021C234.619 242.459 234.696 242.831 234.85 243.138C235.006 243.445 235.223 243.679 235.502 243.841C235.78 244 236.105 244.08 236.477 244.08C236.719 244.08 236.939 244.045 237.138 243.977C237.337 243.906 237.509 243.801 237.654 243.662C237.798 243.523 237.909 243.351 237.986 243.146L239.192 243.364C239.095 243.719 238.922 244.03 238.672 244.297C238.425 244.561 238.114 244.767 237.739 244.915C237.367 245.06 236.942 245.132 236.465 245.132ZM243.017 245.128C242.488 245.128 242.017 244.993 241.602 244.723C241.19 244.45 240.866 244.062 240.63 243.56C240.397 243.054 240.281 242.447 240.281 241.74C240.281 241.033 240.399 240.428 240.635 239.925C240.873 239.422 241.2 239.037 241.615 238.77C242.03 238.503 242.5 238.369 243.025 238.369C243.432 238.369 243.758 238.438 244.005 238.574C244.255 238.707 244.449 238.864 244.585 239.043C244.724 239.222 244.832 239.379 244.909 239.516H244.986V236.273H246.26V245H245.015V243.982H244.909C244.832 244.121 244.721 244.28 244.576 244.459C244.434 244.638 244.238 244.794 243.988 244.928C243.738 245.061 243.415 245.128 243.017 245.128ZM243.298 244.041C243.665 244.041 243.974 243.945 244.227 243.751C244.483 243.555 244.676 243.284 244.807 242.938C244.94 242.591 245.007 242.187 245.007 241.727C245.007 241.273 244.942 240.875 244.811 240.534C244.68 240.193 244.488 239.928 244.236 239.737C243.983 239.547 243.67 239.452 243.298 239.452C242.915 239.452 242.595 239.551 242.339 239.75C242.084 239.949 241.89 240.22 241.76 240.564C241.632 240.908 241.568 241.295 241.568 241.727C241.568 242.165 241.633 242.558 241.764 242.908C241.895 243.257 242.088 243.534 242.344 243.739C242.602 243.94 242.92 244.041 243.298 244.041Z" fill="#636369"/>
<path d="M253.805 245.128C253.166 245.128 252.612 244.987 252.143 244.706C251.675 244.425 251.311 244.031 251.052 243.526C250.797 243.02 250.669 242.429 250.669 241.753C250.669 241.077 250.797 240.484 251.052 239.976C251.311 239.467 251.675 239.072 252.143 238.791C252.612 238.51 253.166 238.369 253.805 238.369C254.444 238.369 254.998 238.51 255.467 238.791C255.936 239.072 256.298 239.467 256.554 239.976C256.812 240.484 256.942 241.077 256.942 241.753C256.942 242.429 256.812 243.02 256.554 243.526C256.298 244.031 255.936 244.425 255.467 244.706C254.998 244.987 254.444 245.128 253.805 245.128ZM253.814 243.892C254.16 243.892 254.45 243.797 254.683 243.607C254.916 243.413 255.089 243.155 255.203 242.831C255.319 242.507 255.378 242.146 255.378 241.749C255.378 241.348 255.319 240.986 255.203 240.662C255.089 240.335 254.916 240.075 254.683 239.882C254.45 239.689 254.16 239.592 253.814 239.592C253.459 239.592 253.163 239.689 252.927 239.882C252.694 240.075 252.52 240.335 252.403 240.662C252.29 240.986 252.233 241.348 252.233 241.749C252.233 242.146 252.29 242.507 252.403 242.831C252.52 243.155 252.694 243.413 252.927 243.607C253.163 243.797 253.459 243.892 253.814 243.892ZM260.986 245.128C260.333 245.128 259.772 244.984 259.303 244.697C258.837 244.411 258.477 244.014 258.225 243.509C257.975 243 257.85 242.415 257.85 241.753C257.85 241.088 257.977 240.501 258.233 239.993C258.489 239.482 258.85 239.084 259.316 238.8C259.784 238.513 260.338 238.369 260.977 238.369C261.509 238.369 261.979 238.467 262.388 238.663C262.8 238.857 263.128 239.131 263.372 239.486C263.617 239.838 263.756 240.25 263.79 240.722H262.316C262.256 240.406 262.114 240.143 261.889 239.933C261.668 239.72 261.371 239.614 260.999 239.614C260.683 239.614 260.406 239.699 260.168 239.869C259.929 240.037 259.743 240.278 259.61 240.594C259.479 240.909 259.414 241.287 259.414 241.727C259.414 242.173 259.479 242.557 259.61 242.878C259.74 243.196 259.924 243.442 260.159 243.615C260.398 243.786 260.678 243.871 260.999 243.871C261.226 243.871 261.429 243.828 261.608 243.743C261.79 243.655 261.942 243.528 262.064 243.364C262.186 243.199 262.27 242.999 262.316 242.763H263.79C263.753 243.226 263.617 243.636 263.381 243.994C263.145 244.349 262.824 244.628 262.418 244.83C262.012 245.028 261.534 245.128 260.986 245.128ZM267.792 245.128C267.138 245.128 266.577 244.984 266.109 244.697C265.643 244.411 265.283 244.014 265.03 243.509C264.78 243 264.655 242.415 264.655 241.753C264.655 241.088 264.783 240.501 265.039 239.993C265.295 239.482 265.655 239.084 266.121 238.8C266.59 238.513 267.144 238.369 267.783 238.369C268.315 238.369 268.785 238.467 269.194 238.663C269.606 238.857 269.934 239.131 270.178 239.486C270.422 239.838 270.562 240.25 270.596 240.722H269.121C269.062 240.406 268.92 240.143 268.695 239.933C268.474 239.72 268.177 239.614 267.805 239.614C267.489 239.614 267.212 239.699 266.974 239.869C266.735 240.037 266.549 240.278 266.415 240.594C266.285 240.909 266.219 241.287 266.219 241.727C266.219 242.173 266.285 242.557 266.415 242.878C266.546 243.196 266.729 243.442 266.965 243.615C267.204 243.786 267.484 243.871 267.805 243.871C268.032 243.871 268.235 243.828 268.414 243.743C268.596 243.655 268.748 243.528 268.87 243.364C268.992 243.199 269.076 242.999 269.121 242.763H270.596C270.559 243.226 270.422 243.636 270.187 243.994C269.951 244.349 269.63 244.628 269.224 244.83C268.817 245.028 268.34 245.128 267.792 245.128ZM275.914 242.247V238.455H277.457V245H275.961V243.837H275.893C275.745 244.203 275.502 244.503 275.164 244.736C274.829 244.969 274.416 245.085 273.924 245.085C273.495 245.085 273.116 244.99 272.786 244.8C272.46 244.607 272.204 244.327 272.019 243.96C271.835 243.591 271.742 243.145 271.742 242.622V238.455H273.285V242.384C273.285 242.798 273.399 243.128 273.626 243.372C273.853 243.616 274.152 243.739 274.521 243.739C274.748 243.739 274.968 243.683 275.181 243.572C275.394 243.462 275.569 243.297 275.706 243.078C275.845 242.857 275.914 242.58 275.914 242.247ZM278.923 245V238.455H280.419V239.545H280.487C280.606 239.168 280.811 238.876 281.101 238.672C281.393 238.464 281.727 238.361 282.102 238.361C282.187 238.361 282.283 238.365 282.388 238.374C282.496 238.379 282.585 238.389 282.656 238.403V239.822C282.591 239.8 282.487 239.78 282.345 239.763C282.206 239.743 282.071 239.733 281.94 239.733C281.659 239.733 281.406 239.794 281.182 239.916C280.96 240.036 280.785 240.202 280.658 240.415C280.53 240.628 280.466 240.874 280.466 241.152V245H278.923ZM286.189 245.128C285.533 245.128 284.966 244.991 284.489 244.719C284.015 244.443 283.649 244.054 283.394 243.551C283.138 243.045 283.01 242.45 283.01 241.766C283.01 241.092 283.138 240.501 283.394 239.993C283.652 239.482 284.013 239.084 284.476 238.8C284.939 238.513 285.483 238.369 286.108 238.369C286.512 238.369 286.892 238.435 287.25 238.565C287.611 238.693 287.929 238.892 288.205 239.162C288.483 239.432 288.702 239.776 288.861 240.193C289.02 240.608 289.1 241.102 289.1 241.676V242.149H283.735V241.109H287.621C287.618 240.814 287.554 240.551 287.429 240.321C287.304 240.088 287.13 239.905 286.905 239.771C286.684 239.638 286.425 239.571 286.13 239.571C285.814 239.571 285.537 239.648 285.299 239.801C285.06 239.952 284.874 240.151 284.74 240.398C284.61 240.642 284.543 240.911 284.54 241.203V242.111C284.54 242.491 284.61 242.818 284.749 243.091C284.888 243.361 285.083 243.568 285.333 243.713C285.583 243.855 285.875 243.926 286.211 243.926C286.435 243.926 286.638 243.895 286.82 243.832C287.002 243.767 287.159 243.672 287.293 243.547C287.426 243.422 287.527 243.267 287.595 243.082L289.036 243.244C288.945 243.625 288.772 243.957 288.516 244.241C288.263 244.523 287.939 244.741 287.544 244.898C287.149 245.051 286.698 245.128 286.189 245.128ZM292.714 245.115C292.2 245.115 291.739 244.983 291.333 244.719C290.927 244.455 290.606 244.071 290.37 243.568C290.134 243.065 290.016 242.455 290.016 241.736C290.016 241.009 290.136 240.395 290.374 239.895C290.616 239.392 290.941 239.013 291.35 238.757C291.759 238.499 292.215 238.369 292.718 238.369C293.102 238.369 293.417 238.435 293.664 238.565C293.911 238.693 294.107 238.848 294.252 239.03C294.397 239.209 294.509 239.378 294.589 239.537H294.653V236.273H296.2V245H294.683V243.969H294.589C294.509 244.128 294.394 244.297 294.244 244.476C294.093 244.652 293.894 244.803 293.647 244.928C293.4 245.053 293.089 245.115 292.714 245.115ZM293.144 243.849C293.471 243.849 293.749 243.761 293.979 243.585C294.21 243.406 294.384 243.158 294.504 242.839C294.623 242.521 294.683 242.151 294.683 241.727C294.683 241.304 294.623 240.936 294.504 240.624C294.387 240.311 294.214 240.068 293.984 239.895C293.756 239.722 293.477 239.635 293.144 239.635C292.8 239.635 292.513 239.724 292.283 239.903C292.053 240.082 291.88 240.33 291.763 240.645C291.647 240.96 291.589 241.321 291.589 241.727C291.589 242.136 291.647 242.501 291.763 242.822C291.883 243.141 292.058 243.392 292.288 243.577C292.521 243.759 292.806 243.849 293.144 243.849Z" fill="#00CC74"/>
<rect x="107.5" y="225.5" width="200" height="30" rx="3.5" stroke="#DFE7F2"/>
<rect x="107.5" y="270.5" width="248" height="30" rx="3.5" fill="white"/>
<path d="M130.724 284.521C130.663 284.358 130.507 284.25 130.333 284.25H125.302L128.204 278.607C128.295 278.43 128.248 278.213 128.091 278.09C128.015 278.03 127.924 278 127.833 278C127.736 278 127.639 278.034 127.561 278.101L124.5 280.745L118.395 286.018C118.263 286.132 118.215 286.315 118.276 286.478C118.337 286.641 118.492 286.75 118.667 286.75H123.698L120.796 292.392C120.705 292.57 120.752 292.787 120.909 292.91C120.985 292.97 121.076 293 121.167 293C121.264 293 121.361 292.966 121.439 292.899L124.5 290.255L130.605 284.982C130.737 284.868 130.785 284.685 130.724 284.521Z" fill="#FFAC33"/>
<path d="M136.959 290V281.273H142.43V282.406H138.276V285.065H142.145V286.195H138.276V288.866H142.482V290H136.959ZM149.566 283.455L147.193 290H145.829L143.451 283.455H144.819L146.477 288.491H146.545L148.199 283.455H149.566ZM153.242 290.132C152.597 290.132 152.042 289.994 151.576 289.719C151.113 289.44 150.755 289.05 150.502 288.547C150.252 288.041 150.127 287.449 150.127 286.77C150.127 286.099 150.252 285.509 150.502 284.997C150.755 284.486 151.107 284.087 151.559 283.8C152.014 283.513 152.545 283.369 153.153 283.369C153.522 283.369 153.88 283.43 154.227 283.553C154.573 283.675 154.884 283.866 155.16 284.128C155.435 284.389 155.653 284.729 155.812 285.146C155.971 285.561 156.05 286.065 156.05 286.659V287.111H150.847V286.156H154.802C154.802 285.821 154.734 285.524 154.597 285.266C154.461 285.004 154.269 284.798 154.022 284.648C153.778 284.497 153.491 284.422 153.161 284.422C152.803 284.422 152.491 284.51 152.224 284.686C151.96 284.859 151.755 285.087 151.61 285.368C151.468 285.646 151.397 285.949 151.397 286.276V287.021C151.397 287.459 151.474 287.831 151.627 288.138C151.783 288.445 152.001 288.679 152.279 288.841C152.558 289 152.883 289.08 153.255 289.08C153.497 289.08 153.717 289.045 153.916 288.977C154.114 288.906 154.286 288.801 154.431 288.662C154.576 288.523 154.687 288.351 154.764 288.146L155.97 288.364C155.873 288.719 155.7 289.03 155.45 289.297C155.202 289.561 154.891 289.767 154.516 289.915C154.144 290.06 153.72 290.132 153.242 290.132ZM158.618 286.114V290H157.344V283.455H158.567V284.52H158.648C158.799 284.173 159.035 283.895 159.356 283.685C159.679 283.474 160.087 283.369 160.579 283.369C161.025 283.369 161.415 283.463 161.75 283.651C162.086 283.835 162.346 284.111 162.53 284.477C162.715 284.844 162.807 285.297 162.807 285.837V290H161.533V285.99C161.533 285.516 161.41 285.145 161.162 284.878C160.915 284.608 160.576 284.473 160.144 284.473C159.848 284.473 159.586 284.537 159.356 284.665C159.128 284.793 158.948 284.98 158.814 285.227C158.684 285.472 158.618 285.767 158.618 286.114ZM167.451 283.455V284.477H163.876V283.455H167.451ZM164.835 281.886H166.109V288.078C166.109 288.325 166.146 288.511 166.22 288.636C166.294 288.759 166.389 288.842 166.505 288.888C166.625 288.93 166.754 288.952 166.893 288.952C166.995 288.952 167.085 288.945 167.162 288.93C167.238 288.916 167.298 288.905 167.341 288.896L167.571 289.949C167.497 289.977 167.392 290.006 167.255 290.034C167.119 290.065 166.949 290.082 166.744 290.085C166.409 290.091 166.096 290.031 165.807 289.906C165.517 289.781 165.282 289.588 165.103 289.327C164.924 289.065 164.835 288.737 164.835 288.342V281.886ZM171.545 284V283.182C171.545 282.94 171.591 282.686 171.682 282.419C171.773 282.152 171.899 281.896 172.061 281.652C172.223 281.408 172.413 281.199 172.632 281.026L173.263 281.477C173.089 281.73 172.942 281.994 172.819 282.27C172.697 282.545 172.636 282.845 172.636 283.169V284H171.545ZM173.719 284V283.182C173.719 282.94 173.764 282.686 173.855 282.419C173.946 282.152 174.072 281.896 174.234 281.652C174.396 281.408 174.586 281.199 174.805 281.026L175.436 281.477C175.263 281.73 175.115 281.994 174.993 282.27C174.871 282.545 174.809 282.845 174.809 283.169V284H173.719ZM176.09 290H174.693L177.833 281.273H179.355L182.495 290H181.097L178.63 282.858H178.562L176.09 290ZM176.325 286.582H180.859V287.69H176.325V286.582ZM183.533 292.455V283.455H184.778V284.516H184.884C184.958 284.379 185.065 284.222 185.204 284.043C185.343 283.864 185.536 283.707 185.783 283.574C186.03 283.438 186.357 283.369 186.763 283.369C187.292 283.369 187.763 283.503 188.178 283.77C188.593 284.037 188.918 284.422 189.154 284.925C189.393 285.428 189.512 286.033 189.512 286.74C189.512 287.447 189.394 288.054 189.158 288.56C188.922 289.062 188.599 289.45 188.187 289.723C187.775 289.993 187.305 290.128 186.776 290.128C186.378 290.128 186.053 290.061 185.8 289.928C185.55 289.794 185.354 289.638 185.212 289.459C185.07 289.28 184.961 289.121 184.884 288.982H184.807V292.455H183.533ZM184.782 286.727C184.782 287.187 184.849 287.591 184.982 287.938C185.116 288.284 185.309 288.555 185.562 288.751C185.815 288.945 186.124 289.041 186.491 289.041C186.871 289.041 187.19 288.94 187.445 288.739C187.701 288.534 187.894 288.257 188.025 287.908C188.158 287.558 188.225 287.165 188.225 286.727C188.225 286.295 188.16 285.908 188.029 285.564C187.901 285.22 187.708 284.949 187.449 284.75C187.194 284.551 186.874 284.452 186.491 284.452C186.121 284.452 185.809 284.547 185.553 284.737C185.3 284.928 185.109 285.193 184.978 285.534C184.847 285.875 184.782 286.273 184.782 286.727ZM190.82 292.455V283.455H192.064V284.516H192.17C192.244 284.379 192.351 284.222 192.49 284.043C192.629 283.864 192.822 283.707 193.07 283.574C193.317 283.438 193.643 283.369 194.05 283.369C194.578 283.369 195.05 283.503 195.464 283.77C195.879 284.037 196.204 284.422 196.44 284.925C196.679 285.428 196.798 286.033 196.798 286.74C196.798 287.447 196.68 288.054 196.445 288.56C196.209 289.062 195.885 289.45 195.473 289.723C195.061 289.993 194.591 290.128 194.062 290.128C193.665 290.128 193.339 290.061 193.087 289.928C192.837 289.794 192.641 289.638 192.498 289.459C192.356 289.28 192.247 289.121 192.17 288.982H192.094V292.455H190.82ZM192.068 286.727C192.068 287.187 192.135 287.591 192.268 287.938C192.402 288.284 192.595 288.555 192.848 288.751C193.101 288.945 193.41 289.041 193.777 289.041C194.158 289.041 194.476 288.94 194.731 288.739C194.987 288.534 195.18 288.257 195.311 287.908C195.445 287.558 195.511 287.165 195.511 286.727C195.511 286.295 195.446 285.908 195.315 285.564C195.187 285.22 194.994 284.949 194.736 284.75C194.48 284.551 194.16 284.452 193.777 284.452C193.408 284.452 193.095 284.547 192.839 284.737C192.587 284.928 192.395 285.193 192.264 285.534C192.133 285.875 192.068 286.273 192.068 286.727ZM208.845 285.636C208.845 286.568 208.674 287.369 208.333 288.04C207.993 288.707 207.525 289.222 206.931 289.582C206.341 289.94 205.669 290.119 204.916 290.119C204.16 290.119 203.485 289.94 202.892 289.582C202.301 289.222 201.835 288.706 201.494 288.036C201.153 287.365 200.983 286.565 200.983 285.636C200.983 284.705 201.153 283.905 201.494 283.237C201.835 282.567 202.301 282.053 202.892 281.695C203.485 281.334 204.16 281.153 204.916 281.153C205.669 281.153 206.341 281.334 206.931 281.695C207.525 282.053 207.993 282.567 208.333 283.237C208.674 283.905 208.845 284.705 208.845 285.636ZM207.541 285.636C207.541 284.926 207.426 284.328 207.196 283.842C206.968 283.354 206.656 282.984 206.258 282.734C205.863 282.482 205.416 282.355 204.916 282.355C204.413 282.355 203.964 282.482 203.569 282.734C203.174 282.984 202.862 283.354 202.632 283.842C202.404 284.328 202.291 284.926 202.291 285.636C202.291 286.347 202.404 286.946 202.632 287.435C202.862 287.92 203.174 288.29 203.569 288.543C203.964 288.793 204.413 288.918 204.916 288.918C205.416 288.918 205.863 288.793 206.258 288.543C206.656 288.29 206.968 287.92 207.196 287.435C207.426 286.946 207.541 286.347 207.541 285.636ZM210.264 292.455V283.455H211.509V284.516H211.615C211.689 284.379 211.795 284.222 211.935 284.043C212.074 283.864 212.267 283.707 212.514 283.574C212.761 283.438 213.088 283.369 213.494 283.369C214.023 283.369 214.494 283.503 214.909 283.77C215.324 284.037 215.649 284.422 215.885 284.925C216.124 285.428 216.243 286.033 216.243 286.74C216.243 287.447 216.125 288.054 215.889 288.56C215.653 289.062 215.33 289.45 214.918 289.723C214.506 289.993 214.035 290.128 213.507 290.128C213.109 290.128 212.784 290.061 212.531 289.928C212.281 289.794 212.085 289.638 211.943 289.459C211.801 289.28 211.692 289.121 211.615 288.982H211.538V292.455H210.264ZM211.513 286.727C211.513 287.187 211.58 287.591 211.713 287.938C211.847 288.284 212.04 288.555 212.293 288.751C212.545 288.945 212.855 289.041 213.222 289.041C213.602 289.041 213.92 288.94 214.176 288.739C214.432 288.534 214.625 288.257 214.756 287.908C214.889 287.558 214.956 287.165 214.956 286.727C214.956 286.295 214.891 285.908 214.76 285.564C214.632 285.22 214.439 284.949 214.18 284.75C213.925 284.551 213.605 284.452 213.222 284.452C212.852 284.452 212.54 284.547 212.284 284.737C212.031 284.928 211.839 285.193 211.709 285.534C211.578 285.875 211.513 286.273 211.513 286.727ZM220.371 290.132C219.727 290.132 219.171 289.994 218.705 289.719C218.242 289.44 217.884 289.05 217.631 288.547C217.381 288.041 217.256 287.449 217.256 286.77C217.256 286.099 217.381 285.509 217.631 284.997C217.884 284.486 218.237 284.087 218.688 283.8C219.143 283.513 219.674 283.369 220.282 283.369C220.651 283.369 221.009 283.43 221.356 283.553C221.702 283.675 222.014 283.866 222.289 284.128C222.565 284.389 222.782 284.729 222.941 285.146C223.1 285.561 223.18 286.065 223.18 286.659V287.111H217.977V286.156H221.931C221.931 285.821 221.863 285.524 221.727 285.266C221.59 285.004 221.398 284.798 221.151 284.648C220.907 284.497 220.62 284.422 220.29 284.422C219.933 284.422 219.62 284.51 219.353 284.686C219.089 284.859 218.884 285.087 218.739 285.368C218.597 285.646 218.526 285.949 218.526 286.276V287.021C218.526 287.459 218.603 287.831 218.756 288.138C218.913 288.445 219.13 288.679 219.408 288.841C219.687 289 220.012 289.08 220.384 289.08C220.626 289.08 220.846 289.045 221.045 288.977C221.244 288.906 221.415 288.801 221.56 288.662C221.705 288.523 221.816 288.351 221.893 288.146L223.099 288.364C223.002 288.719 222.829 289.03 222.579 289.297C222.332 289.561 222.021 289.767 221.646 289.915C221.273 290.06 220.849 290.132 220.371 290.132ZM225.748 286.114V290H224.473V283.455H225.696V284.52H225.777C225.928 284.173 226.164 283.895 226.485 283.685C226.809 283.474 227.216 283.369 227.708 283.369C228.154 283.369 228.544 283.463 228.88 283.651C229.215 283.835 229.475 284.111 229.659 284.477C229.844 284.844 229.936 285.297 229.936 285.837V290H228.662V285.99C228.662 285.516 228.539 285.145 228.292 284.878C228.044 284.608 227.705 284.473 227.273 284.473C226.978 284.473 226.715 284.537 226.485 284.665C226.257 284.793 226.077 284.98 225.944 285.227C225.813 285.472 225.748 285.767 225.748 286.114ZM234.346 290.132C233.701 290.132 233.146 289.994 232.68 289.719C232.217 289.44 231.859 289.05 231.606 288.547C231.356 288.041 231.231 287.449 231.231 286.77C231.231 286.099 231.356 285.509 231.606 284.997C231.859 284.486 232.211 284.087 232.663 283.8C233.118 283.513 233.649 283.369 234.257 283.369C234.626 283.369 234.984 283.43 235.331 283.553C235.677 283.675 235.988 283.866 236.264 284.128C236.539 284.389 236.757 284.729 236.916 285.146C237.075 285.561 237.155 286.065 237.155 286.659V287.111H231.951V286.156H235.906C235.906 285.821 235.838 285.524 235.701 285.266C235.565 285.004 235.373 284.798 235.126 284.648C234.882 284.497 234.595 284.422 234.265 284.422C233.907 284.422 233.595 284.51 233.328 284.686C233.064 284.859 232.859 285.087 232.714 285.368C232.572 285.646 232.501 285.949 232.501 286.276V287.021C232.501 287.459 232.578 287.831 232.731 288.138C232.887 288.445 233.105 288.679 233.383 288.841C233.662 289 233.987 289.08 234.359 289.08C234.601 289.08 234.821 289.045 235.02 288.977C235.218 288.906 235.39 288.801 235.535 288.662C235.68 288.523 235.791 288.351 235.868 288.146L237.074 288.364C236.977 288.719 236.804 289.03 236.554 289.297C236.307 289.561 235.995 289.767 235.62 289.915C235.248 290.06 234.824 290.132 234.346 290.132ZM240.899 290.128C240.37 290.128 239.899 289.993 239.484 289.723C239.072 289.45 238.748 289.062 238.512 288.56C238.279 288.054 238.163 287.447 238.163 286.74C238.163 286.033 238.281 285.428 238.516 284.925C238.755 284.422 239.082 284.037 239.497 283.77C239.911 283.503 240.381 283.369 240.907 283.369C241.313 283.369 241.64 283.438 241.887 283.574C242.137 283.707 242.33 283.864 242.467 284.043C242.606 284.222 242.714 284.379 242.791 284.516H242.867V281.273H244.141V290H242.897V288.982H242.791C242.714 289.121 242.603 289.28 242.458 289.459C242.316 289.638 242.12 289.794 241.87 289.928C241.62 290.061 241.296 290.128 240.899 290.128ZM241.18 289.041C241.546 289.041 241.856 288.945 242.109 288.751C242.364 288.555 242.558 288.284 242.688 287.938C242.822 287.591 242.889 287.187 242.889 286.727C242.889 286.273 242.823 285.875 242.693 285.534C242.562 285.193 242.37 284.928 242.117 284.737C241.864 284.547 241.552 284.452 241.18 284.452C240.796 284.452 240.477 284.551 240.221 284.75C239.965 284.949 239.772 285.22 239.641 285.564C239.514 285.908 239.45 286.295 239.45 286.727C239.45 287.165 239.515 287.558 239.646 287.908C239.776 288.257 239.97 288.534 240.225 288.739C240.484 288.94 240.802 289.041 241.18 289.041ZM246.935 281.273V282.091C246.935 282.332 246.89 282.587 246.799 282.854C246.711 283.118 246.586 283.372 246.424 283.616C246.262 283.861 246.072 284.071 245.853 284.247L245.222 283.795C245.39 283.551 245.535 283.291 245.657 283.016C245.782 282.74 245.844 282.436 245.844 282.104V281.273H246.935ZM249.104 281.273V282.091C249.104 282.332 249.059 282.587 248.968 282.854C248.88 283.118 248.755 283.372 248.593 283.616C248.431 283.861 248.241 284.071 248.022 284.247L247.391 283.795C247.559 283.551 247.704 283.291 247.826 283.016C247.951 282.74 248.013 282.436 248.013 282.104V281.273H249.104ZM261.193 285.636C261.193 286.568 261.023 287.369 260.682 288.04C260.341 288.707 259.874 289.222 259.28 289.582C258.689 289.94 258.017 290.119 257.264 290.119C256.509 290.119 255.834 289.94 255.24 289.582C254.649 289.222 254.183 288.706 253.843 288.036C253.502 287.365 253.331 286.565 253.331 285.636C253.331 284.705 253.502 283.905 253.843 283.237C254.183 282.567 254.649 282.053 255.24 281.695C255.834 281.334 256.509 281.153 257.264 281.153C258.017 281.153 258.689 281.334 259.28 281.695C259.874 282.053 260.341 282.567 260.682 283.237C261.023 283.905 261.193 284.705 261.193 285.636ZM259.889 285.636C259.889 284.926 259.774 284.328 259.544 283.842C259.317 283.354 259.004 282.984 258.607 282.734C258.212 282.482 257.764 282.355 257.264 282.355C256.762 282.355 256.313 282.482 255.918 282.734C255.523 282.984 255.21 283.354 254.98 283.842C254.753 284.328 254.639 284.926 254.639 285.636C254.639 286.347 254.753 286.946 254.98 287.435C255.21 287.92 255.523 288.29 255.918 288.543C256.313 288.793 256.762 288.918 257.264 288.918C257.764 288.918 258.212 288.793 258.607 288.543C259.004 288.29 259.317 287.92 259.544 287.435C259.774 286.946 259.889 286.347 259.889 285.636ZM265.37 290.132C264.736 290.132 264.191 289.989 263.734 289.702C263.279 289.412 262.93 289.013 262.685 288.504C262.441 287.996 262.319 287.413 262.319 286.757C262.319 286.092 262.444 285.506 262.694 284.997C262.944 284.486 263.296 284.087 263.751 283.8C264.205 283.513 264.741 283.369 265.357 283.369C265.854 283.369 266.297 283.462 266.687 283.646C267.076 283.828 267.39 284.084 267.628 284.413C267.87 284.743 268.013 285.128 268.059 285.568H266.819C266.751 285.261 266.594 284.997 266.35 284.776C266.109 284.554 265.785 284.443 265.378 284.443C265.023 284.443 264.712 284.537 264.445 284.724C264.181 284.909 263.975 285.173 263.827 285.517C263.68 285.858 263.606 286.261 263.606 286.727C263.606 287.205 263.678 287.616 263.823 287.963C263.968 288.31 264.172 288.578 264.437 288.768C264.704 288.959 265.018 289.054 265.378 289.054C265.62 289.054 265.839 289.01 266.035 288.922C266.234 288.831 266.4 288.702 266.533 288.534C266.67 288.366 266.765 288.165 266.819 287.929H268.059C268.013 288.352 267.876 288.73 267.645 289.062C267.415 289.395 267.107 289.656 266.721 289.847C266.337 290.037 265.887 290.132 265.37 290.132ZM272.058 290.132C271.425 290.132 270.879 289.989 270.422 289.702C269.968 289.412 269.618 289.013 269.374 288.504C269.129 287.996 269.007 287.413 269.007 286.757C269.007 286.092 269.132 285.506 269.382 284.997C269.632 284.486 269.985 284.087 270.439 283.8C270.894 283.513 271.429 283.369 272.046 283.369C272.543 283.369 272.986 283.462 273.375 283.646C273.764 283.828 274.078 284.084 274.317 284.413C274.558 284.743 274.702 285.128 274.747 285.568H273.507C273.439 285.261 273.283 284.997 273.039 284.776C272.797 284.554 272.473 284.443 272.067 284.443C271.712 284.443 271.401 284.537 271.134 284.724C270.87 284.909 270.664 285.173 270.516 285.517C270.368 285.858 270.294 286.261 270.294 286.727C270.294 287.205 270.367 287.616 270.512 287.963C270.656 288.31 270.861 288.578 271.125 288.768C271.392 288.959 271.706 289.054 272.067 289.054C272.308 289.054 272.527 289.01 272.723 288.922C272.922 288.831 273.088 288.702 273.222 288.534C273.358 288.366 273.453 288.165 273.507 287.929H274.747C274.702 288.352 274.564 288.73 274.334 289.062C274.104 289.395 273.796 289.656 273.409 289.847C273.026 290.037 272.576 290.132 272.058 290.132ZM280.136 287.286V283.455H281.415V290H280.162V288.866H280.094C279.943 289.216 279.702 289.507 279.369 289.74C279.04 289.97 278.629 290.085 278.138 290.085C277.717 290.085 277.345 289.993 277.021 289.808C276.7 289.621 276.447 289.344 276.263 288.977C276.081 288.611 275.99 288.158 275.99 287.618V283.455H277.264V287.464C277.264 287.911 277.388 288.266 277.635 288.53C277.882 288.794 278.203 288.926 278.598 288.926C278.837 288.926 279.074 288.866 279.31 288.747C279.548 288.628 279.746 288.447 279.902 288.206C280.061 287.964 280.139 287.658 280.136 287.286ZM283.007 290V283.455H284.238V284.494H284.306C284.426 284.142 284.636 283.865 284.937 283.663C285.241 283.459 285.585 283.357 285.968 283.357C286.048 283.357 286.142 283.359 286.25 283.365C286.36 283.371 286.447 283.378 286.51 283.386V284.605C286.458 284.591 286.367 284.575 286.237 284.558C286.106 284.538 285.975 284.528 285.845 284.528C285.544 284.528 285.275 284.592 285.039 284.72C284.806 284.845 284.622 285.02 284.485 285.244C284.349 285.466 284.281 285.719 284.281 286.003V290H283.007ZM290.079 290.132C289.434 290.132 288.879 289.994 288.413 289.719C287.95 289.44 287.592 289.05 287.339 288.547C287.089 288.041 286.964 287.449 286.964 286.77C286.964 286.099 287.089 285.509 287.339 284.997C287.592 284.486 287.944 284.087 288.396 283.8C288.85 283.513 289.381 283.369 289.989 283.369C290.359 283.369 290.717 283.43 291.063 283.553C291.41 283.675 291.721 283.866 291.996 284.128C292.272 284.389 292.489 284.729 292.648 285.146C292.807 285.561 292.887 286.065 292.887 286.659V287.111H287.684V286.156H291.638C291.638 285.821 291.57 285.524 291.434 285.266C291.298 285.004 291.106 284.798 290.859 284.648C290.614 284.497 290.327 284.422 289.998 284.422C289.64 284.422 289.327 284.51 289.06 284.686C288.796 284.859 288.592 285.087 288.447 285.368C288.305 285.646 288.234 285.949 288.234 286.276V287.021C288.234 287.459 288.31 287.831 288.464 288.138C288.62 288.445 288.837 288.679 289.116 288.841C289.394 289 289.719 289.08 290.092 289.08C290.333 289.08 290.553 289.045 290.752 288.977C290.951 288.906 291.123 288.801 291.268 288.662C291.413 288.523 291.523 288.351 291.6 288.146L292.806 288.364C292.709 288.719 292.536 289.03 292.286 289.297C292.039 289.561 291.728 289.767 291.353 289.915C290.981 290.06 290.556 290.132 290.079 290.132ZM296.631 290.128C296.103 290.128 295.631 289.993 295.216 289.723C294.804 289.45 294.48 289.062 294.245 288.56C294.012 288.054 293.895 287.447 293.895 286.74C293.895 286.033 294.013 285.428 294.249 284.925C294.488 284.422 294.814 284.037 295.229 283.77C295.644 283.503 296.114 283.369 296.64 283.369C297.046 283.369 297.373 283.438 297.62 283.574C297.87 283.707 298.063 283.864 298.199 284.043C298.338 284.222 298.446 284.379 298.523 284.516H298.6V281.273H299.874V290H298.63V288.982H298.523C298.446 289.121 298.336 289.28 298.191 289.459C298.049 289.638 297.853 289.794 297.603 289.928C297.353 290.061 297.029 290.128 296.631 290.128ZM296.912 289.041C297.279 289.041 297.588 288.945 297.841 288.751C298.097 288.555 298.29 288.284 298.421 287.938C298.554 287.591 298.621 287.187 298.621 286.727C298.621 286.273 298.556 285.875 298.425 285.534C298.294 285.193 298.103 284.928 297.85 284.737C297.597 284.547 297.284 284.452 296.912 284.452C296.529 284.452 296.209 284.551 295.953 284.75C295.698 284.949 295.505 285.22 295.374 285.564C295.246 285.908 295.182 286.295 295.182 286.727C295.182 287.165 295.248 287.558 295.378 287.908C295.509 288.257 295.702 288.534 295.958 288.739C296.216 288.94 296.534 289.041 296.912 289.041Z" fill="#636369"/>
<path d="M307.581 290.119C307.013 290.119 306.505 290.013 306.056 289.8C305.607 289.584 305.25 289.288 304.986 288.913C304.725 288.538 304.586 288.109 304.569 287.626H306.103C306.131 287.984 306.286 288.277 306.567 288.504C306.848 288.729 307.186 288.841 307.581 288.841C307.891 288.841 308.167 288.77 308.408 288.628C308.65 288.486 308.84 288.288 308.979 288.036C309.118 287.783 309.186 287.494 309.184 287.17C309.186 286.841 309.117 286.548 308.975 286.293C308.833 286.037 308.638 285.837 308.391 285.692C308.144 285.544 307.86 285.47 307.539 285.47C307.277 285.467 307.02 285.516 306.767 285.615C306.515 285.714 306.314 285.845 306.167 286.007L304.739 285.773L305.195 281.273H310.258V282.594H306.503L306.252 284.908H306.303C306.465 284.717 306.694 284.56 306.989 284.435C307.284 284.307 307.608 284.243 307.961 284.243C308.489 284.243 308.961 284.368 309.375 284.618C309.79 284.865 310.117 285.206 310.356 285.641C310.594 286.075 310.713 286.572 310.713 287.132C310.713 287.709 310.58 288.223 310.313 288.675C310.049 289.124 309.681 289.477 309.209 289.736C308.74 289.991 308.198 290.119 307.581 290.119ZM318.163 283.455V284.648H314.4V283.455H318.163ZM315.329 281.886H316.872V288.031C316.872 288.239 316.903 288.398 316.966 288.509C317.031 288.616 317.116 288.69 317.221 288.73C317.326 288.77 317.443 288.79 317.571 288.79C317.667 288.79 317.755 288.783 317.835 288.768C317.917 288.754 317.98 288.741 318.022 288.73L318.282 289.936C318.2 289.964 318.082 289.996 317.929 290.03C317.778 290.064 317.594 290.084 317.375 290.089C316.988 290.101 316.64 290.043 316.331 289.915C316.021 289.784 315.775 289.582 315.594 289.31C315.415 289.037 315.326 288.696 315.329 288.287V281.886ZM319.333 290V283.455H320.876V290H319.333ZM320.109 282.526C319.864 282.526 319.654 282.445 319.478 282.283C319.302 282.118 319.214 281.92 319.214 281.69C319.214 281.457 319.302 281.26 319.478 281.098C319.654 280.933 319.864 280.851 320.109 280.851C320.356 280.851 320.566 280.933 320.739 281.098C320.916 281.26 321.004 281.457 321.004 281.69C321.004 281.92 320.916 282.118 320.739 282.283C320.566 282.445 320.356 282.526 320.109 282.526ZM322.342 290V283.455H323.817V284.567H323.893C324.03 284.192 324.255 283.899 324.571 283.689C324.886 283.476 325.263 283.369 325.7 283.369C326.143 283.369 326.517 283.477 326.821 283.693C327.128 283.906 327.344 284.197 327.469 284.567H327.537C327.682 284.203 327.926 283.913 328.27 283.697C328.616 283.479 329.027 283.369 329.501 283.369C330.104 283.369 330.595 283.56 330.976 283.94C331.356 284.321 331.547 284.876 331.547 285.607V290H330V285.845C330 285.439 329.892 285.142 329.676 284.955C329.46 284.764 329.196 284.669 328.883 284.669C328.511 284.669 328.22 284.786 328.01 285.018C327.802 285.249 327.699 285.548 327.699 285.918V290H326.186V285.781C326.186 285.443 326.084 285.173 325.879 284.972C325.677 284.77 325.413 284.669 325.086 284.669C324.865 284.669 324.663 284.726 324.481 284.839C324.3 284.95 324.155 285.108 324.047 285.312C323.939 285.514 323.885 285.75 323.885 286.02V290H322.342ZM335.889 290.128C335.233 290.128 334.666 289.991 334.189 289.719C333.715 289.443 333.35 289.054 333.094 288.551C332.838 288.045 332.71 287.45 332.71 286.766C332.71 286.092 332.838 285.501 333.094 284.993C333.352 284.482 333.713 284.084 334.176 283.8C334.639 283.513 335.183 283.369 335.808 283.369C336.212 283.369 336.593 283.435 336.95 283.565C337.311 283.693 337.629 283.892 337.905 284.162C338.183 284.432 338.402 284.776 338.561 285.193C338.72 285.608 338.8 286.102 338.8 286.676V287.149H333.435V286.109H337.321C337.318 285.814 337.254 285.551 337.129 285.321C337.004 285.088 336.83 284.905 336.605 284.771C336.384 284.638 336.125 284.571 335.83 284.571C335.514 284.571 335.237 284.648 334.999 284.801C334.76 284.952 334.574 285.151 334.441 285.398C334.31 285.642 334.243 285.911 334.24 286.203V287.111C334.24 287.491 334.31 287.818 334.449 288.091C334.588 288.361 334.783 288.568 335.033 288.713C335.283 288.855 335.575 288.926 335.911 288.926C336.135 288.926 336.338 288.895 336.52 288.832C336.702 288.767 336.86 288.672 336.993 288.547C337.127 288.422 337.227 288.267 337.296 288.082L338.736 288.244C338.645 288.625 338.472 288.957 338.216 289.241C337.963 289.523 337.639 289.741 337.245 289.898C336.85 290.051 336.398 290.128 335.889 290.128ZM345.158 285.185L343.752 285.338C343.712 285.196 343.643 285.062 343.543 284.938C343.447 284.812 343.316 284.712 343.151 284.635C342.986 284.558 342.785 284.52 342.546 284.52C342.225 284.52 341.955 284.589 341.736 284.729C341.52 284.868 341.414 285.048 341.417 285.27C341.414 285.46 341.484 285.615 341.626 285.734C341.77 285.854 342.009 285.952 342.341 286.028L343.458 286.267C344.077 286.401 344.538 286.612 344.839 286.902C345.143 287.192 345.296 287.571 345.299 288.04C345.296 288.452 345.175 288.815 344.937 289.131C344.701 289.443 344.373 289.687 343.952 289.864C343.532 290.04 343.049 290.128 342.503 290.128C341.702 290.128 341.057 289.96 340.569 289.625C340.08 289.287 339.789 288.817 339.695 288.214L341.199 288.07C341.268 288.365 341.413 288.588 341.634 288.739C341.856 288.889 342.144 288.964 342.499 288.964C342.866 288.964 343.16 288.889 343.381 288.739C343.606 288.588 343.718 288.402 343.718 288.18C343.718 287.993 343.645 287.838 343.501 287.716C343.359 287.594 343.137 287.5 342.836 287.435L341.719 287.2C341.091 287.07 340.627 286.849 340.326 286.54C340.025 286.227 339.876 285.832 339.878 285.355C339.876 284.952 339.985 284.602 340.207 284.307C340.431 284.009 340.742 283.778 341.14 283.616C341.54 283.452 342.002 283.369 342.525 283.369C343.292 283.369 343.895 283.533 344.336 283.859C344.779 284.186 345.053 284.628 345.158 285.185Z" fill="black"/>
<rect x="107.5" y="270.5" width="248" height="30" rx="3.5" stroke="#DFE7F2"/>
<rect x="323" y="230" width="41" height="6" rx="3" fill="#EEF1F7"/>
<rect x="323" y="245" width="68" height="6" rx="3" fill="#EEF1F7"/>
<path d="M187.474 180.621C186.758 180.621 186.133 180.457 185.599 180.129C185.066 179.801 184.652 179.342 184.357 178.752C184.062 178.162 183.914 177.472 183.914 176.683C183.914 175.891 184.062 175.199 184.357 174.605C184.652 174.012 185.066 173.551 185.599 173.223C186.133 172.895 186.758 172.731 187.474 172.731C188.19 172.731 188.814 172.895 189.348 173.223C189.882 173.551 190.296 174.012 190.591 174.605C190.886 175.199 191.033 175.891 191.033 176.683C191.033 177.472 190.886 178.162 190.591 178.752C190.296 179.342 189.882 179.801 189.348 180.129C188.814 180.457 188.19 180.621 187.474 180.621ZM187.479 179.373C187.943 179.373 188.327 179.25 188.632 179.005C188.937 178.76 189.162 178.433 189.308 178.026C189.457 177.618 189.532 177.169 189.532 176.678C189.532 176.191 189.457 175.744 189.308 175.336C189.162 174.925 188.937 174.595 188.632 174.347C188.327 174.098 187.943 173.974 187.479 173.974C187.011 173.974 186.624 174.098 186.315 174.347C186.01 174.595 185.783 174.925 185.634 175.336C185.488 175.744 185.415 176.191 185.415 176.678C185.415 177.169 185.488 177.618 185.634 178.026C185.783 178.433 186.01 178.76 186.315 179.005C186.624 179.25 187.011 179.373 187.479 179.373ZM196.187 172.83V174.024H191.872V172.83H196.187ZM193.055 180.467V171.945C193.055 171.468 193.159 171.072 193.368 170.757C193.577 170.439 193.854 170.202 194.198 170.046C194.543 169.887 194.917 169.808 195.322 169.808C195.62 169.808 195.875 169.833 196.087 169.882C196.3 169.929 196.457 169.972 196.56 170.012L196.212 171.215C196.142 171.195 196.053 171.172 195.943 171.145C195.834 171.115 195.701 171.1 195.546 171.1C195.184 171.1 194.926 171.19 194.77 171.369C194.618 171.548 194.541 171.806 194.541 172.144V180.467H193.055ZM204.71 172.83V174.024H200.539V172.83H204.71ZM201.658 171.001H203.144V178.225C203.144 178.513 203.187 178.73 203.274 178.876C203.36 179.018 203.471 179.116 203.607 179.169C203.746 179.219 203.897 179.244 204.059 179.244C204.178 179.244 204.283 179.235 204.372 179.219C204.462 179.202 204.531 179.189 204.581 179.179L204.85 180.407C204.763 180.44 204.641 180.473 204.482 180.507C204.323 180.543 204.124 180.563 203.885 180.566C203.494 180.573 203.129 180.503 202.791 180.357C202.453 180.212 202.18 179.986 201.971 179.681C201.762 179.376 201.658 178.994 201.658 178.533V171.001ZM207.865 175.933V180.467H206.379V170.285H207.845V174.073H207.94C208.119 173.662 208.392 173.336 208.76 173.094C209.128 172.852 209.609 172.731 210.202 172.731C210.726 172.731 211.183 172.839 211.574 173.054C211.968 173.27 212.273 173.591 212.489 174.019C212.708 174.443 212.817 174.973 212.817 175.61V180.467H211.33V175.789C211.33 175.228 211.186 174.794 210.898 174.486C210.61 174.174 210.209 174.019 209.695 174.019C209.343 174.019 209.029 174.093 208.75 174.242C208.475 174.392 208.258 174.61 208.099 174.899C207.943 175.184 207.865 175.528 207.865 175.933ZM217.952 180.621C217.199 180.621 216.551 180.46 216.008 180.139C215.468 179.814 215.05 179.358 214.755 178.771C214.463 178.182 214.318 177.49 214.318 176.698C214.318 175.916 214.463 175.227 214.755 174.63C215.05 174.034 215.461 173.568 215.988 173.233C216.518 172.898 217.138 172.731 217.847 172.731C218.278 172.731 218.696 172.802 219.1 172.945C219.505 173.087 219.868 173.311 220.189 173.616C220.511 173.921 220.764 174.317 220.95 174.804C221.135 175.288 221.228 175.876 221.228 176.569V177.096H215.158V175.982H219.771C219.771 175.591 219.692 175.245 219.533 174.943C219.374 174.638 219.15 174.398 218.862 174.222C218.577 174.047 218.242 173.959 217.857 173.959C217.44 173.959 217.075 174.062 216.764 174.267C216.455 174.469 216.217 174.735 216.048 175.063C215.882 175.387 215.799 175.74 215.799 176.122V176.992C215.799 177.502 215.889 177.936 216.068 178.294C216.25 178.652 216.503 178.926 216.828 179.115C217.153 179.3 217.533 179.393 217.967 179.393C218.248 179.393 218.505 179.353 218.737 179.274C218.969 179.191 219.17 179.068 219.339 178.906C219.508 178.743 219.637 178.543 219.727 178.304L221.134 178.558C221.021 178.972 220.819 179.335 220.527 179.646C220.239 179.955 219.876 180.195 219.438 180.367C219.004 180.536 218.509 180.621 217.952 180.621ZM229.519 180.621C228.78 180.621 228.144 180.454 227.61 180.119C227.08 179.781 226.672 179.315 226.387 178.722C226.102 178.128 225.959 177.449 225.959 176.683C225.959 175.908 226.105 175.223 226.397 174.63C226.689 174.034 227.1 173.568 227.63 173.233C228.16 172.898 228.785 172.731 229.504 172.731C230.084 172.731 230.601 172.839 231.055 173.054C231.509 173.266 231.876 173.565 232.154 173.949C232.436 174.334 232.603 174.783 232.656 175.296H231.209C231.13 174.938 230.948 174.63 230.663 174.372C230.381 174.113 230.003 173.984 229.529 173.984C229.115 173.984 228.752 174.093 228.44 174.312C228.132 174.527 227.892 174.836 227.719 175.237C227.547 175.634 227.461 176.105 227.461 176.649C227.461 177.205 227.545 177.686 227.714 178.09C227.883 178.495 228.122 178.808 228.43 179.03C228.742 179.252 229.108 179.363 229.529 179.363C229.811 179.363 230.066 179.312 230.295 179.209C230.527 179.103 230.721 178.952 230.876 178.757C231.035 178.561 231.146 178.326 231.209 178.051H232.656C232.603 178.544 232.442 178.985 232.174 179.373C231.905 179.761 231.546 180.066 231.095 180.288C230.648 180.51 230.122 180.621 229.519 180.621ZM237.322 180.621C236.607 180.621 235.982 180.457 235.448 180.129C234.915 179.801 234.5 179.342 234.205 178.752C233.91 178.162 233.763 177.472 233.763 176.683C233.763 175.891 233.91 175.199 234.205 174.605C234.5 174.012 234.915 173.551 235.448 173.223C235.982 172.895 236.607 172.731 237.322 172.731C238.038 172.731 238.663 172.895 239.197 173.223C239.73 173.551 240.145 174.012 240.44 174.605C240.735 175.199 240.882 175.891 240.882 176.683C240.882 177.472 240.735 178.162 240.44 178.752C240.145 179.342 239.73 179.801 239.197 180.129C238.663 180.457 238.038 180.621 237.322 180.621ZM237.327 179.373C237.791 179.373 238.176 179.25 238.481 179.005C238.786 178.76 239.011 178.433 239.157 178.026C239.306 177.618 239.381 177.169 239.381 176.678C239.381 176.191 239.306 175.744 239.157 175.336C239.011 174.925 238.786 174.595 238.481 174.347C238.176 174.098 237.791 173.974 237.327 173.974C236.86 173.974 236.472 174.098 236.164 174.347C235.859 174.595 235.632 174.925 235.483 175.336C235.337 175.744 235.264 176.191 235.264 176.678C235.264 177.169 235.337 177.618 235.483 178.026C235.632 178.433 235.859 178.76 236.164 179.005C236.472 179.25 236.86 179.373 237.327 179.373ZM243.888 175.933V180.467H242.401V172.83H243.828V174.073H243.923C244.098 173.669 244.373 173.344 244.748 173.099C245.126 172.854 245.601 172.731 246.175 172.731C246.695 172.731 247.151 172.84 247.542 173.059C247.933 173.275 248.236 173.596 248.452 174.024C248.667 174.451 248.775 174.98 248.775 175.61V180.467H247.288V175.789C247.288 175.235 247.144 174.802 246.856 174.491C246.568 174.176 246.172 174.019 245.668 174.019C245.323 174.019 245.016 174.093 244.748 174.242C244.483 174.392 244.272 174.61 244.117 174.899C243.964 175.184 243.888 175.528 243.888 175.933ZM253.487 180.616C252.871 180.616 252.321 180.459 251.837 180.144C251.356 179.825 250.978 179.373 250.703 178.786C250.431 178.196 250.295 177.489 250.295 176.664C250.295 175.838 250.433 175.132 250.708 174.546C250.987 173.959 251.368 173.51 251.852 173.198C252.335 172.887 252.884 172.731 253.497 172.731C253.971 172.731 254.352 172.811 254.641 172.97C254.932 173.125 255.158 173.308 255.317 173.517C255.479 173.725 255.605 173.909 255.695 174.068H255.784V170.285H257.271V180.467H255.819V179.279H255.695C255.605 179.441 255.476 179.627 255.307 179.835C255.141 180.044 254.912 180.227 254.621 180.382C254.329 180.538 253.951 180.616 253.487 180.616ZM253.815 179.348C254.243 179.348 254.604 179.235 254.899 179.01C255.197 178.781 255.423 178.465 255.575 178.061C255.731 177.656 255.809 177.186 255.809 176.649C255.809 176.118 255.733 175.654 255.58 175.257C255.428 174.859 255.204 174.549 254.909 174.327C254.614 174.105 254.25 173.994 253.815 173.994C253.368 173.994 252.995 174.11 252.697 174.342C252.398 174.574 252.173 174.89 252.021 175.291C251.871 175.692 251.797 176.145 251.797 176.649C251.797 177.159 251.873 177.618 252.026 178.026C252.178 178.433 252.403 178.757 252.702 178.995C253.003 179.231 253.375 179.348 253.815 179.348ZM259.252 180.467V172.83H260.739V180.467H259.252ZM260.003 171.652C259.744 171.652 259.522 171.566 259.337 171.394C259.154 171.218 259.063 171.009 259.063 170.767C259.063 170.522 259.154 170.313 259.337 170.141C259.522 169.965 259.744 169.877 260.003 169.877C260.261 169.877 260.482 169.965 260.664 170.141C260.85 170.313 260.943 170.522 260.943 170.767C260.943 171.009 260.85 171.218 260.664 171.394C260.482 171.566 260.261 171.652 260.003 171.652ZM266.163 172.83V174.024H261.992V172.83H266.163ZM263.111 171.001H264.597V178.225C264.597 178.513 264.64 178.73 264.726 178.876C264.813 179.018 264.924 179.116 265.06 179.169C265.199 179.219 265.35 179.244 265.512 179.244C265.631 179.244 265.736 179.235 265.825 179.219C265.915 179.202 265.984 179.189 266.034 179.179L266.302 180.407C266.216 180.44 266.094 180.473 265.935 180.507C265.775 180.543 265.577 180.563 265.338 180.566C264.947 180.573 264.582 180.503 264.244 180.357C263.906 180.212 263.633 179.986 263.424 179.681C263.215 179.376 263.111 178.994 263.111 178.533V171.001ZM267.668 180.467V172.83H269.154V180.467H267.668ZM268.418 171.652C268.16 171.652 267.938 171.566 267.752 171.394C267.57 171.218 267.479 171.009 267.479 170.767C267.479 170.522 267.57 170.313 267.752 170.141C267.938 169.965 268.16 169.877 268.418 169.877C268.677 169.877 268.897 169.965 269.08 170.141C269.265 170.313 269.358 170.522 269.358 170.767C269.358 171.009 269.265 171.218 269.08 171.394C268.897 171.566 268.677 171.652 268.418 171.652ZM274.231 180.621C273.515 180.621 272.89 180.457 272.356 180.129C271.823 179.801 271.408 179.342 271.113 178.752C270.818 178.162 270.671 177.472 270.671 176.683C270.671 175.891 270.818 175.199 271.113 174.605C271.408 174.012 271.823 173.551 272.356 173.223C272.89 172.895 273.515 172.731 274.231 172.731C274.946 172.731 275.571 172.895 276.105 173.223C276.638 173.551 277.053 174.012 277.348 174.605C277.643 175.199 277.79 175.891 277.79 176.683C277.79 177.472 277.643 178.162 277.348 178.752C277.053 179.342 276.638 179.801 276.105 180.129C275.571 180.457 274.946 180.621 274.231 180.621ZM274.235 179.373C274.7 179.373 275.084 179.25 275.389 179.005C275.694 178.76 275.919 178.433 276.065 178.026C276.214 177.618 276.289 177.169 276.289 176.678C276.289 176.191 276.214 175.744 276.065 175.336C275.919 174.925 275.694 174.595 275.389 174.347C275.084 174.098 274.7 173.974 274.235 173.974C273.768 173.974 273.38 174.098 273.072 174.347C272.767 174.595 272.54 174.925 272.391 175.336C272.245 175.744 272.172 176.191 272.172 176.678C272.172 177.169 272.245 177.618 272.391 178.026C272.54 178.433 272.767 178.76 273.072 179.005C273.38 179.25 273.768 179.373 274.235 179.373ZM280.796 175.933V180.467H279.309V172.83H280.736V174.073H280.831C281.006 173.669 281.282 173.344 281.656 173.099C282.034 172.854 282.509 172.731 283.083 172.731C283.603 172.731 284.059 172.84 284.45 173.059C284.841 173.275 285.144 173.596 285.36 174.024C285.575 174.451 285.683 174.98 285.683 175.61V180.467H284.197V175.789C284.197 175.235 284.052 174.802 283.764 174.491C283.476 174.176 283.08 174.019 282.576 174.019C282.231 174.019 281.925 174.093 281.656 174.242C281.391 174.392 281.18 174.61 281.025 174.899C280.872 175.184 280.796 175.528 280.796 175.933ZM293.259 174.695L291.912 174.933C291.855 174.761 291.766 174.597 291.643 174.441C291.524 174.285 291.361 174.158 291.156 174.058C290.95 173.959 290.694 173.909 290.385 173.909C289.964 173.909 289.613 174.004 289.331 174.193C289.05 174.378 288.909 174.619 288.909 174.914C288.909 175.169 289.003 175.374 289.192 175.53C289.381 175.686 289.686 175.813 290.107 175.913L291.32 176.191C292.023 176.354 292.546 176.604 292.891 176.942C293.236 177.28 293.408 177.719 293.408 178.259C293.408 178.717 293.276 179.124 293.01 179.482C292.749 179.837 292.382 180.115 291.912 180.318C291.444 180.52 290.902 180.621 290.286 180.621C289.431 180.621 288.733 180.439 288.193 180.074C287.653 179.706 287.321 179.184 287.199 178.508L288.635 178.289C288.725 178.664 288.909 178.947 289.187 179.139C289.466 179.328 289.829 179.423 290.276 179.423C290.763 179.423 291.153 179.322 291.444 179.119C291.736 178.914 291.882 178.664 291.882 178.369C291.882 178.13 291.792 177.93 291.613 177.767C291.438 177.605 291.168 177.482 290.803 177.399L289.51 177.116C288.798 176.954 288.271 176.695 287.929 176.34C287.591 175.986 287.422 175.537 287.422 174.993C287.422 174.542 287.548 174.148 287.8 173.81C288.052 173.472 288.4 173.208 288.844 173.019C289.288 172.827 289.797 172.731 290.37 172.731C291.196 172.731 291.845 172.91 292.319 173.268C292.793 173.623 293.106 174.098 293.259 174.695Z" fill="#636369"/>
<rect x="133.758" y="162.467" width="43" height="25" rx="3.5" fill="white"/>
<path d="M165.758 175.748L169.058 172.448L170 173.391L165.758 177.633L161.515 173.391L162.458 172.448L165.758 175.748Z" fill="#121212"/>
<path d="M143.979 180.636C143.496 180.636 143.058 180.546 142.667 180.367C142.276 180.185 141.966 179.922 141.737 179.577C141.512 179.232 141.399 178.81 141.399 178.309C141.399 177.878 141.482 177.524 141.648 177.245C141.813 176.967 142.037 176.746 142.319 176.584C142.601 176.422 142.915 176.299 143.263 176.216C143.612 176.133 143.966 176.07 144.327 176.027C144.785 175.974 145.156 175.931 145.441 175.898C145.726 175.861 145.933 175.803 146.062 175.724C146.192 175.644 146.256 175.515 146.256 175.336V175.301C146.256 174.867 146.134 174.531 145.888 174.292C145.647 174.053 145.285 173.934 144.805 173.934C144.304 173.934 143.91 174.045 143.621 174.267C143.336 174.486 143.139 174.73 143.03 174.998L141.633 174.68C141.799 174.216 142.04 173.841 142.359 173.556C142.68 173.268 143.05 173.059 143.467 172.93C143.885 172.797 144.324 172.731 144.785 172.731C145.09 172.731 145.413 172.767 145.754 172.84C146.099 172.91 146.42 173.039 146.719 173.228C147.02 173.417 147.267 173.687 147.46 174.039C147.652 174.387 147.748 174.839 147.748 175.396V180.467H146.296V179.423H146.237C146.14 179.615 145.996 179.804 145.804 179.99C145.612 180.175 145.365 180.329 145.063 180.452C144.762 180.575 144.4 180.636 143.979 180.636ZM144.303 179.443C144.714 179.443 145.065 179.361 145.357 179.199C145.652 179.037 145.875 178.825 146.028 178.563C146.183 178.298 146.261 178.014 146.261 177.713V176.728C146.208 176.781 146.106 176.831 145.953 176.877C145.804 176.92 145.633 176.959 145.441 176.992C145.249 177.021 145.062 177.05 144.879 177.076C144.697 177.099 144.545 177.119 144.422 177.136C144.134 177.172 143.87 177.234 143.631 177.32C143.396 177.406 143.207 177.53 143.065 177.693C142.925 177.852 142.856 178.064 142.856 178.329C142.856 178.697 142.992 178.975 143.263 179.164C143.535 179.35 143.882 179.443 144.303 179.443ZM151.074 170.285V180.467H149.588V170.285H151.074ZM154.421 170.285V180.467H152.934V170.285H154.421Z" fill="#121212"/>
<rect x="133.758" y="162.467" width="43" height="25" rx="3.5" stroke="#DFE7F2"/>
<path d="M86.3764 170.285H88.2408L91.4822 178.2H91.6016L94.843 170.285H96.7074V180.467H95.2457V173.099H95.1513L92.1484 180.452H90.9354L87.9325 173.094H87.8381V180.467H86.3764V170.285ZM100.904 180.636C100.42 180.636 99.9825 180.546 99.5914 180.367C99.2003 180.185 98.8904 179.922 98.6617 179.577C98.4363 179.232 98.3236 178.81 98.3236 178.309C98.3236 177.878 98.4065 177.524 98.5722 177.245C98.7379 176.967 98.9616 176.746 99.2433 176.584C99.5251 176.422 99.8399 176.299 100.188 176.216C100.536 176.133 100.891 176.07 101.252 176.027C101.709 175.974 102.08 175.931 102.366 175.898C102.651 175.861 102.858 175.803 102.987 175.724C103.116 175.644 103.181 175.515 103.181 175.336V175.301C103.181 174.867 103.058 174.531 102.813 174.292C102.571 174.053 102.21 173.934 101.729 173.934C101.229 173.934 100.834 174.045 100.546 174.267C100.261 174.486 100.064 174.73 99.9543 174.998L98.5573 174.68C98.723 174.216 98.9649 173.841 99.2831 173.556C99.6046 173.268 99.9742 173.059 100.392 172.93C100.809 172.797 101.249 172.731 101.709 172.731C102.014 172.731 102.337 172.767 102.679 172.84C103.023 172.91 103.345 173.039 103.643 173.228C103.945 173.417 104.192 173.687 104.384 174.039C104.576 174.387 104.672 174.839 104.672 175.396V180.467H103.221V179.423H103.161C103.065 179.615 102.921 179.804 102.728 179.99C102.536 180.175 102.289 180.329 101.988 180.452C101.686 180.575 101.325 180.636 100.904 180.636ZM101.227 179.443C101.638 179.443 101.989 179.361 102.281 179.199C102.576 179.037 102.8 178.825 102.952 178.563C103.108 178.298 103.186 178.014 103.186 177.713V176.728C103.133 176.781 103.03 176.831 102.878 176.877C102.728 176.92 102.558 176.959 102.366 176.992C102.173 177.021 101.986 177.05 101.804 177.076C101.621 177.099 101.469 177.119 101.346 177.136C101.058 177.172 100.794 177.234 100.556 177.32C100.321 177.406 100.132 177.53 99.9891 177.693C99.8499 177.852 99.7803 178.064 99.7803 178.329C99.7803 178.697 99.9162 178.975 100.188 179.164C100.46 179.35 100.806 179.443 101.227 179.443ZM110.077 172.83V174.024H105.906V172.83H110.077ZM107.024 171.001H108.511V178.225C108.511 178.513 108.554 178.73 108.64 178.876C108.726 179.018 108.837 179.116 108.973 179.169C109.112 179.219 109.263 179.244 109.426 179.244C109.545 179.244 109.649 179.235 109.739 179.219C109.828 179.202 109.898 179.189 109.948 179.179L110.216 180.407C110.13 180.44 110.007 180.473 109.848 180.507C109.689 180.543 109.49 180.563 109.252 180.566C108.861 180.573 108.496 180.503 108.158 180.357C107.82 180.212 107.546 179.986 107.338 179.681C107.129 179.376 107.024 178.994 107.024 178.533V171.001ZM114.716 180.621C113.977 180.621 113.34 180.454 112.807 180.119C112.276 179.781 111.869 179.315 111.584 178.722C111.299 178.128 111.156 177.449 111.156 176.683C111.156 175.908 111.302 175.223 111.594 174.63C111.885 174.034 112.296 173.568 112.827 173.233C113.357 172.898 113.982 172.731 114.701 172.731C115.281 172.731 115.798 172.839 116.252 173.054C116.706 173.266 117.072 173.565 117.351 173.949C117.632 174.334 117.8 174.783 117.853 175.296H116.406C116.327 174.938 116.144 174.63 115.859 174.372C115.578 174.113 115.2 173.984 114.726 173.984C114.311 173.984 113.949 174.093 113.637 174.312C113.329 174.527 113.088 174.836 112.916 175.237C112.744 175.634 112.658 176.105 112.658 176.649C112.658 177.205 112.742 177.686 112.911 178.09C113.08 178.495 113.319 178.808 113.627 179.03C113.939 179.252 114.305 179.363 114.726 179.363C115.007 179.363 115.263 179.312 115.491 179.209C115.723 179.103 115.917 178.952 116.073 178.757C116.232 178.561 116.343 178.326 116.406 178.051H117.853C117.8 178.544 117.639 178.985 117.371 179.373C117.102 179.761 116.743 180.066 116.292 180.288C115.844 180.51 115.319 180.621 114.716 180.621ZM120.789 175.933V180.467H119.303V170.285H120.769V174.073H120.864C121.043 173.662 121.316 173.336 121.684 173.094C122.052 172.852 122.532 172.731 123.126 172.731C123.649 172.731 124.107 172.839 124.498 173.054C124.892 173.27 125.197 173.591 125.413 174.019C125.631 174.443 125.741 174.973 125.741 175.61V180.467H124.254V175.789C124.254 175.228 124.11 174.794 123.822 174.486C123.533 174.174 123.132 174.019 122.619 174.019C122.267 174.019 121.952 174.093 121.674 174.242C121.399 174.392 121.182 174.61 121.023 174.899C120.867 175.184 120.789 175.528 120.789 175.933Z" fill="#636369"/>
<rect x="-1" y="1" width="459.058" height="345" rx="7" transform="matrix(-1 0 0 1 520.258 79.9307)" stroke="#E1E8F2" stroke-width="2" stroke-dasharray="8 8"/>
<defs>
<clipPath id="clip0_6346_40583">
<rect width="22" height="22" fill="white" transform="translate(85.2578 103.931)"/>
</clipPath>
<clipPath id="clip1_6346_40583">
<rect width="15" height="15" fill="white" transform="translate(117 233)"/>
</clipPath>
</defs>
</svg>
