<svg width="600" height="318" viewBox="0 0 600 318" fill="none" xmlns="http://www.w3.org/2000/svg">
<path d="M555.504 0.595703L555.504 16.2952M555.504 496.596L555.504 280.458M555.504 214.716L555.504 66.4982" stroke="#5269D1" stroke-dasharray="4 4"/>
<path d="M453.312 0.595703L453.312 340.078M453.312 496.596L453.312 364.75" stroke="#5269D1" stroke-dasharray="4 4"/>
<path d="M351.621 0.595703L351.621 102.637M351.621 496.596L351.621 479.344M351.621 185.352L351.621 429.747" stroke="#5269D1" stroke-dasharray="4 4"/>
<line y1="-0.5" x2="496" y2="-0.5" transform="matrix(-4.40904e-08 1 1 4.33356e-08 249.43 0.595703)" stroke="#5269D1" stroke-dasharray="4 4"/>
<path d="M146.738 0.595703L146.738 28.2979M146.738 496.596L146.738 394.61M146.738 311.536L146.738 52.7896" stroke="#5269D1" stroke-dasharray="4 4"/>
<path d="M44.5469 0L44.5469 121.482M44.5469 496L44.5469 257.567M44.5469 167.502L44.5469 240.333" stroke="#5269D1" stroke-dasharray="4 4"/>
<path d="M-4 144.887H21.6723M604 144.887L392.708 144.887M312 144.887L69.3582 144.887" stroke="#5269D1" stroke-dasharray="4 4"/>
<path d="M-4 248.68H35.4795M604 248.68H588.678M523.354 248.68L53.1204 248.68" stroke="#5269D1" stroke-dasharray="4 4"/>
<path d="M-4 41.0938L134.858 41.0937M604 41.0937L578.879 41.0937M530.54 41.0937L159.135 41.0937" stroke="#5269D1" stroke-dasharray="4 4"/>
<path d="M555.48 65.0117L565.663 51.1941L579.48 41.0117L565.663 30.8294L555.48 17.0117L545.298 30.8294L531.48 41.0117L545.298 51.1941L555.48 65.0117Z" stroke="#5269D1" stroke-dasharray="4 4"/>
<path d="M44.6016 168.742L54.7839 154.925L68.6016 144.742L54.7839 134.56L44.6016 120.742L34.4192 134.56L20.6016 144.742L34.4192 154.925L44.6016 168.742Z" stroke="#5269D1" stroke-dasharray="4 4"/>
<path d="M555.469 280.596L569.045 262.172L587.469 248.596L569.045 235.019L555.469 216.596L541.892 235.019L523.469 248.596L541.892 262.172L555.469 280.596Z" stroke="#5269D1" stroke-dasharray="4 4"/>
<path d="M146.754 392.502L163.724 369.473L186.754 352.502L163.724 335.531L146.754 312.502L129.783 335.531L106.754 352.502L129.783 369.473L146.754 392.502Z" stroke="#5269D1" stroke-dasharray="4 4"/>
<path d="M351.621 184.893L368.592 161.863L391.621 144.893L368.592 127.922L351.621 104.893L334.651 127.922L311.621 144.893L334.651 161.863L351.621 184.893Z" stroke="#5269D1" stroke-dasharray="4 4"/>
<circle r="8" transform="matrix(1 0 0 -1 44.5469 248.68)" stroke="#5269D1" stroke-dasharray="4 4"/>
<circle r="12" transform="matrix(1 0 0 -1 146.738 41.0938)" stroke="#5269D1" stroke-dasharray="4 4"/>
<rect x="-2" y="2" width="484.388" height="422.315" rx="6" transform="matrix(-1 0 0 1 551.5 77.9307)" fill="#121212"/>
<rect x="-2" y="2" width="484.388" height="422.315" rx="6" transform="matrix(-1 0 0 1 551.5 77.9307)" stroke="#121212" stroke-width="4"/>
<rect x="-2" y="2" width="483.474" height="419.085" rx="6" transform="matrix(-1 0 0 1 531.474 65.0117)" fill="#F5F6F8"/>
<rect x="88.2427" y="129.069" width="122" height="122" rx="8" fill="#F1EAFF"/>
<path d="M102.909 217.851L105.483 219.933C108.057 222.015 113.205 226.179 118.354 223.332C123.502 220.485 128.65 210.626 133.798 210.886C138.946 211.146 144.094 221.525 149.243 226.65C154.391 231.776 159.539 231.65 164.687 230.006C169.835 228.362 174.983 225.199 180.131 218.844C185.28 212.488 190.428 202.939 195.576 196.084" stroke="#C6A9FF" stroke-width="2" stroke-linecap="round"/>
<path d="M115.067 184.484C121.267 184.484 125.427 181.964 125.427 176.804C125.427 172.964 123.187 170.564 119.507 170.044V169.884C122.907 169.404 124.467 167.124 124.467 164.044C124.467 159.364 120.867 156.884 114.827 156.884C108.107 156.884 104.507 160.364 104.507 165.484V165.844H108.747V165.524C108.747 162.164 110.147 160.844 114.787 160.844C118.547 160.844 120.147 161.924 120.147 164.724C120.147 167.524 118.787 168.404 115.267 168.404H110.507V172.004H115.867C119.587 172.004 121.067 173.004 121.067 176.364C121.067 179.484 119.387 180.524 115.147 180.524C109.867 180.524 108.747 179.204 108.747 175.844V175.244H104.507V175.884C104.507 181.004 107.427 184.484 115.067 184.484ZM138.889 184.484C146.289 184.484 149.609 180.884 149.609 175.324C149.609 169.924 146.129 166.724 140.409 166.724C136.889 166.724 134.369 167.804 132.969 168.964H132.849L133.489 161.164H148.169V157.284H129.689L128.769 171.524L132.569 172.124C133.889 171.364 135.809 170.444 139.089 170.444C143.609 170.444 145.329 171.844 145.329 175.444C145.329 179.204 143.769 180.524 139.049 180.524C134.609 180.524 132.609 179.484 132.609 176.484V176.244H128.329V176.484C128.329 181.404 131.929 184.484 138.889 184.484ZM164.363 184.484C171.563 184.484 175.963 179.164 175.963 170.684C175.963 162.204 171.563 156.884 164.363 156.884C157.163 156.884 152.803 162.204 152.803 170.684C152.803 179.164 157.163 184.484 164.363 184.484ZM164.363 180.324C159.603 180.324 157.403 177.764 157.403 170.684C157.403 163.604 159.603 161.044 164.363 161.044C169.123 161.044 171.363 163.604 171.363 170.684C171.363 177.764 169.123 180.324 164.363 180.324Z" fill="black"/>
<path d="M113.933 117.209C116.593 117.209 117.601 115.865 117.601 114.367C117.601 112.995 116.929 111.959 114.955 111.581L113.289 111.259C112.197 111.049 111.945 110.909 111.945 110.307C111.945 109.719 112.323 109.453 113.527 109.453C114.913 109.453 115.319 109.775 115.319 110.755V110.909H117.391V110.797C117.391 108.935 116.271 107.549 113.597 107.549C110.909 107.549 109.859 108.963 109.859 110.391C109.859 111.847 110.615 112.757 112.407 113.065L114.059 113.359C115.375 113.583 115.515 113.807 115.515 114.437C115.515 115.067 115.221 115.305 114.031 115.305C112.337 115.305 111.959 115.011 111.959 113.975V113.835H109.901V114.017C109.901 116.089 111.175 117.209 113.933 117.209ZM122.322 117.209C124.338 117.209 125.626 116.327 125.626 114.829V114.689H123.554V114.773C123.554 115.207 123.19 115.389 122.35 115.389C121.202 115.389 120.81 114.997 120.768 114.017H125.598C125.64 113.779 125.696 113.373 125.696 112.981C125.696 111.147 124.45 109.887 122.336 109.887C120.138 109.887 118.794 111.315 118.794 113.569C118.794 115.795 119.9 117.209 122.322 117.209ZM122.266 111.609C123.246 111.609 123.722 112.015 123.68 112.743H120.782C120.866 112.001 121.258 111.609 122.266 111.609ZM129.349 117.069V113.079C129.349 112.015 129.783 111.693 130.791 111.693C131.855 111.693 132.177 112.043 132.177 113.023V117.069H134.277V112.603C134.277 111.105 133.493 109.887 131.659 109.887C130.427 109.887 129.671 110.461 129.293 111.259H129.209V110.027H127.263V117.069H129.349ZM139.26 117.097C139.75 117.097 140.296 117.027 140.632 116.957V115.207H139.764C138.854 115.207 138.644 115.137 138.644 114.521V111.763H140.632V110.027H138.644V108.389H136.992L136.6 110.027H135.424V111.763H136.544V114.759C136.544 116.425 137.426 117.097 139.26 117.097Z" fill="black"/>
<g clip-path="url(#clip0_6213_38880)">
<path d="M104.462 112.046L100.26 110.491L98.6908 105.348C98.6303 105.15 98.4466 105.014 98.2393 105.014C98.032 105.014 97.8483 105.15 97.7879 105.348L96.2191 110.491L92.0164 112.046C91.8308 112.115 91.708 112.292 91.708 112.489C91.708 112.687 91.8308 112.864 92.0164 112.932L96.2168 114.487L97.7865 119.787C97.846 119.987 98.0301 120.125 98.2393 120.125C98.448 120.125 98.6327 119.987 98.6922 119.787L100.262 114.487L104.463 112.932C104.647 112.864 104.771 112.687 104.771 112.489C104.771 112.292 104.647 112.115 104.462 112.046Z" fill="#FFAC33"/>
<path d="M95.0176 117.241L93.9249 116.837L93.4999 115.279C93.4441 115.073 93.2576 114.93 93.0446 114.93C92.8317 114.93 92.6451 115.073 92.589 115.278L92.164 116.837L91.0717 117.241C90.8861 117.309 90.7633 117.487 90.7633 117.684C90.7633 117.881 90.8861 118.058 91.0717 118.127L92.1583 118.53L92.5866 120.24C92.6395 120.45 92.8279 120.597 93.0446 120.597C93.2614 120.597 93.4498 120.45 93.5027 120.24L93.931 118.529L95.0176 118.126C95.2032 118.058 95.326 117.881 95.326 117.684C95.326 117.487 95.2032 117.309 95.0176 117.241ZM92.9691 107.012L91.8528 106.599L91.4391 105.482C91.3706 105.296 91.194 105.173 90.9961 105.173C90.7988 105.173 90.6221 105.296 90.5532 105.482L90.14 106.599L89.0232 107.012C88.8376 107.081 88.7148 107.257 88.7148 107.455C88.7148 107.652 88.8376 107.829 89.0232 107.898L90.14 108.311L90.5532 109.428C90.6221 109.613 90.7988 109.736 90.9961 109.736C91.1935 109.736 91.3701 109.613 91.4391 109.428L91.8523 108.311L92.9691 107.898C93.1547 107.829 93.2775 107.652 93.2775 107.455C93.2775 107.257 93.1547 107.081 92.9691 107.012Z" fill="#FFCC4D"/>
</g>
<path d="M251.485 117.069C254.495 117.069 256.343 115.319 256.343 112.379C256.343 109.439 254.495 107.689 251.485 107.689H247.901V117.069H251.485ZM251.457 109.579C253.361 109.579 254.089 110.153 254.089 112.379C254.089 114.605 253.361 115.179 251.457 115.179H250.001V109.579H251.457ZM261.211 117.209C263.227 117.209 264.515 116.327 264.515 114.829V114.689H262.443V114.773C262.443 115.207 262.079 115.389 261.239 115.389C260.091 115.389 259.699 114.997 259.657 114.017H264.487C264.529 113.779 264.585 113.373 264.585 112.981C264.585 111.147 263.339 109.887 261.225 109.887C259.027 109.887 257.683 111.315 257.683 113.569C257.683 115.795 258.789 117.209 261.211 117.209ZM261.155 111.609C262.135 111.609 262.611 112.015 262.569 112.743H259.671C259.755 112.001 260.147 111.609 261.155 111.609ZM268.251 117.069V107.689H266.165V117.069H268.251ZM272.076 109.229V107.689H269.99L270.018 109.229H272.076ZM272.118 117.069V110.027H270.018V117.069H272.118ZM278.43 117.069L281.174 110.027H278.878L277.198 115.053H277.044L275.364 110.027H273.026L275.756 117.069H278.43ZM285.285 117.209C287.301 117.209 288.589 116.327 288.589 114.829V114.689H286.517V114.773C286.517 115.207 286.153 115.389 285.313 115.389C284.165 115.389 283.773 114.997 283.731 114.017H288.561C288.603 113.779 288.659 113.373 288.659 112.981C288.659 111.147 287.413 109.887 285.299 109.887C283.101 109.887 281.757 111.315 281.757 113.569C281.757 115.795 282.863 117.209 285.285 117.209ZM285.229 111.609C286.209 111.609 286.685 112.015 286.643 112.743H283.745C283.829 112.001 284.221 111.609 285.229 111.609ZM292.311 117.069V112.659C292.311 111.889 292.619 111.665 293.263 111.665C293.921 111.665 294.159 111.903 294.159 112.659V113.037H296.245V112.393C296.245 110.979 295.699 109.887 294.229 109.887C293.235 109.887 292.605 110.447 292.255 111.161H292.171V110.027H290.225V117.069H292.311ZM300.911 117.209C302.927 117.209 304.215 116.327 304.215 114.829V114.689H302.143V114.773C302.143 115.207 301.779 115.389 300.939 115.389C299.791 115.389 299.399 114.997 299.357 114.017H304.187C304.229 113.779 304.285 113.373 304.285 112.981C304.285 111.147 303.039 109.887 300.925 109.887C298.727 109.887 297.383 111.315 297.383 113.569C297.383 115.795 298.489 117.209 300.911 117.209ZM300.855 111.609C301.835 111.609 302.311 112.015 302.269 112.743H299.371C299.455 112.001 299.847 111.609 300.855 111.609ZM308.733 117.209C309.769 117.209 310.567 116.789 310.931 116.033H311.001V117.069H312.947V107.689H310.861V110.951H310.777C310.455 110.363 309.811 109.887 308.733 109.887C306.815 109.887 305.681 111.329 305.681 113.555C305.681 115.767 306.745 117.209 308.733 117.209ZM307.767 113.555C307.767 112.267 308.103 111.679 309.321 111.679C310.315 111.679 310.861 112.029 310.861 112.981V114.115C310.861 115.067 310.315 115.417 309.321 115.417C308.103 115.417 307.767 114.829 307.767 113.555Z" fill="black"/>
<g clip-path="url(#clip1_6213_38880)">
<path d="M236.632 119.653C236.632 120.696 232.854 120.696 232.854 119.653V114.93C232.854 113.887 233.7 113.042 234.743 113.042C235.786 113.042 236.632 113.887 236.632 114.93V119.653Z" fill="#C1694F"/>
<path d="M230.965 105.486C228.879 105.486 227.187 107.178 227.187 109.264V114.931H234.743V109.264C234.743 107.178 233.051 105.486 230.965 105.486Z" fill="#292F33"/>
<path d="M235.687 112.929C235.687 113.512 235.184 113.986 234.604 113.986H227.325C226.745 113.986 226.243 113.512 226.243 112.929V107.96C226.243 107.376 226.745 106.903 227.325 106.903H234.604C235.184 106.903 235.687 107.376 235.687 107.96V112.929Z" fill="#CCD6DD"/>
<path d="M235.687 107.96C235.687 107.376 235.184 106.903 234.604 106.903H227.325C226.745 106.903 226.243 107.376 226.243 107.96V108.63L228.547 110.946L226.289 113.215C226.342 113.393 226.439 113.553 226.571 113.679L228.919 111.319L230.055 112.462C230.552 112.962 231.363 112.962 231.86 112.462L233.005 111.313L235.359 113.679C235.491 113.553 235.587 113.392 235.64 113.215L233.377 110.94L235.687 108.624V107.96Z" fill="#99AAB5"/>
<path d="M234.604 106.903H227.325C226.775 106.903 226.3 107.33 226.252 107.873L230.222 111.838C230.633 112.251 231.298 112.235 231.708 111.822L235.679 107.881C235.635 107.334 235.157 106.903 234.604 106.903Z" fill="#E1E8ED"/>
<path d="M238.52 105.486H230.965C233.051 105.486 234.743 107.178 234.743 109.264V114.931H242.298V109.264C242.298 107.178 240.607 105.486 238.52 105.486Z" fill="#99AAB5"/>
<path d="M238.52 104.542H236.631C236.11 104.542 235.687 104.965 235.687 105.486V111.153C235.687 111.674 236.11 112.097 236.631 112.097C237.153 112.097 237.576 111.674 237.576 111.153V107.375H238.52C239.042 107.375 239.465 106.952 239.465 106.43V105.486C239.465 104.965 239.042 104.542 238.52 104.542Z" fill="#DD2E44"/>
</g>
<rect x="226.243" y="129.069" width="122" height="122" rx="8" fill="#EAEEFF"/>
<path d="M240.907 217.851L243.481 219.933C246.055 222.015 251.203 226.178 256.351 223.331C261.499 220.484 266.647 210.626 271.796 210.886C276.944 211.146 282.092 221.524 287.24 226.65C292.388 231.776 297.536 231.65 302.685 230.006C307.833 228.361 312.981 225.199 318.129 218.843C323.277 212.487 328.425 202.938 333.573 196.084" stroke="#8199FD" stroke-width="2" stroke-linecap="round"/>
<path d="M253.067 184.484C259.267 184.484 263.427 181.964 263.427 176.804C263.427 172.964 261.187 170.564 257.507 170.044V169.884C260.907 169.404 262.467 167.124 262.467 164.044C262.467 159.364 258.867 156.884 252.827 156.884C246.107 156.884 242.507 160.364 242.507 165.484V165.844H246.747V165.524C246.747 162.164 248.147 160.844 252.787 160.844C256.547 160.844 258.147 161.924 258.147 164.724C258.147 167.524 256.787 168.404 253.267 168.404H248.507V172.004H253.867C257.587 172.004 259.067 173.004 259.067 176.364C259.067 179.484 257.387 180.524 253.147 180.524C247.867 180.524 246.747 179.204 246.747 175.844V175.244H242.507V175.884C242.507 181.004 245.427 184.484 253.067 184.484ZM274.541 184.084V157.284H270.741C269.621 159.684 268.141 160.604 265.621 160.604H264.581V163.684H270.221V184.084H274.541ZM290.683 184.484C297.883 184.484 302.283 179.164 302.283 170.684C302.283 162.204 297.883 156.884 290.683 156.884C283.483 156.884 279.123 162.204 279.123 170.684C279.123 179.164 283.483 184.484 290.683 184.484ZM290.683 180.324C285.923 180.324 283.723 177.764 283.723 170.684C283.723 163.604 285.923 161.044 290.683 161.044C295.443 161.044 297.683 163.604 297.683 170.684C297.683 177.764 295.443 180.324 290.683 180.324Z" fill="black"/>
<rect x="88.2368" y="267.069" width="407" height="122" rx="8" fill="white"/>
<rect x="115.002" y="290.069" width="79" height="10" rx="5" fill="#EEF1F7"/>
<rect x="214.006" y="290.069" width="203" height="10" rx="5" fill="#EEF1F7"/>
<line x1="379.243" y1="250.069" x2="379.243" y2="106.014" stroke="#DFE7F2" stroke-width="2" stroke-linecap="round"/>
<rect x="402.008" y="109.069" width="66" height="4" rx="2" fill="#EEF1F7"/>
<rect x="402.243" y="121.088" width="28.0406" height="4" rx="2" transform="rotate(-0.0446608 402.243 121.088)" fill="#EEF1F7"/>
<path d="M418.915 153.562C418.862 153.092 418.643 152.727 418.258 152.468C417.874 152.207 417.39 152.076 416.807 152.076C416.389 152.076 416.028 152.142 415.723 152.275C415.418 152.404 415.181 152.583 415.012 152.812C414.846 153.037 414.763 153.294 414.763 153.582C414.763 153.824 414.82 154.033 414.932 154.209C415.048 154.384 415.199 154.532 415.385 154.651C415.574 154.767 415.776 154.865 415.991 154.944C416.207 155.021 416.414 155.084 416.613 155.133L417.607 155.392C417.932 155.471 418.265 155.579 418.606 155.715C418.948 155.851 419.264 156.03 419.556 156.252C419.848 156.474 420.083 156.749 420.262 157.077C420.444 157.405 420.535 157.798 420.535 158.255C420.535 158.832 420.386 159.344 420.088 159.792C419.793 160.239 419.364 160.592 418.8 160.851C418.24 161.109 417.562 161.238 416.767 161.238C416.005 161.238 415.345 161.117 414.788 160.875C414.231 160.633 413.795 160.29 413.481 159.846C413.166 159.399 412.992 158.869 412.959 158.255H414.5C414.53 158.623 414.649 158.93 414.858 159.175C415.07 159.417 415.34 159.598 415.668 159.717C416 159.833 416.362 159.891 416.757 159.891C417.191 159.891 417.577 159.823 417.915 159.687C418.257 159.548 418.525 159.356 418.721 159.111C418.916 158.862 419.014 158.572 419.014 158.241C419.014 157.939 418.928 157.692 418.755 157.5C418.586 157.307 418.356 157.148 418.064 157.022C417.776 156.897 417.45 156.785 417.085 156.689L415.882 156.361C415.067 156.139 414.42 155.813 413.943 155.382C413.469 154.951 413.232 154.381 413.232 153.672C413.232 153.085 413.391 152.573 413.709 152.135C414.027 151.698 414.458 151.358 415.002 151.116C415.545 150.871 416.159 150.748 416.841 150.748C417.531 150.748 418.139 150.869 418.666 151.111C419.196 151.353 419.614 151.686 419.919 152.111C420.224 152.531 420.383 153.015 420.396 153.562H418.915ZM422.231 150.888H424.095L427.337 158.802H427.456L430.698 150.888H432.562V161.069H431.1V153.701H431.006L428.003 161.054H426.79L423.787 153.696H423.693V161.069H422.231V150.888ZM440.209 153.562C440.156 153.092 439.937 152.727 439.553 152.468C439.168 152.207 438.684 152.076 438.101 152.076C437.683 152.076 437.322 152.142 437.017 152.275C436.712 152.404 436.475 152.583 436.306 152.812C436.14 153.037 436.057 153.294 436.057 153.582C436.057 153.824 436.114 154.033 436.227 154.209C436.343 154.384 436.493 154.532 436.679 154.651C436.868 154.767 437.07 154.865 437.285 154.944C437.501 155.021 437.708 155.084 437.907 155.133L438.901 155.392C439.226 155.471 439.559 155.579 439.901 155.715C440.242 155.851 440.558 156.03 440.85 156.252C441.142 156.474 441.377 156.749 441.556 157.077C441.738 157.405 441.83 157.798 441.83 158.255C441.83 158.832 441.68 159.344 441.382 159.792C441.087 160.239 440.658 160.592 440.094 160.851C439.534 161.109 438.856 161.238 438.061 161.238C437.299 161.238 436.639 161.117 436.082 160.875C435.526 160.633 435.09 160.29 434.775 159.846C434.46 159.399 434.286 158.869 434.253 158.255H435.794C435.824 158.623 435.943 158.93 436.152 159.175C436.364 159.417 436.634 159.598 436.962 159.717C437.294 159.833 437.657 159.891 438.051 159.891C438.485 159.891 438.871 159.823 439.209 159.687C439.551 159.548 439.819 159.356 440.015 159.111C440.21 158.862 440.308 158.572 440.308 158.241C440.308 157.939 440.222 157.692 440.05 157.5C439.881 157.307 439.65 157.148 439.359 157.022C439.07 156.897 438.744 156.785 438.379 156.689L437.176 156.361C436.361 156.139 435.714 155.813 435.237 155.382C434.763 154.951 434.526 154.381 434.526 153.672C434.526 153.085 434.685 152.573 435.004 152.135C435.322 151.698 435.753 151.358 436.296 151.116C436.84 150.871 437.453 150.748 438.136 150.748C438.825 150.748 439.433 150.869 439.96 151.111C440.49 151.353 440.908 151.686 441.213 152.111C441.518 152.531 441.677 153.015 441.69 153.562H440.209Z" fill="#636369"/>
<rect x="402.243" y="152.569" width="6" height="6" rx="3" fill="#C6A9FF"/>
<path d="M413.361 190.069V179.888H419.745V181.21H414.898V184.312H419.412V185.63H414.898V188.747H419.804V190.069H413.361ZM421.538 190.069V182.433H422.964V183.676H423.059C423.218 183.255 423.478 182.927 423.839 182.691C424.201 182.453 424.633 182.334 425.137 182.334C425.647 182.334 426.075 182.453 426.42 182.691C426.768 182.93 427.024 183.258 427.19 183.676H427.27C427.452 183.268 427.742 182.943 428.14 182.701C428.538 182.456 429.011 182.334 429.562 182.334C430.254 182.334 430.819 182.551 431.257 182.985C431.698 183.419 431.918 184.074 431.918 184.949V190.069H430.432V185.088C430.432 184.571 430.291 184.196 430.009 183.964C429.727 183.732 429.391 183.616 429 183.616C428.516 183.616 428.14 183.765 427.871 184.064C427.603 184.359 427.469 184.738 427.469 185.202V190.069H425.987V184.993C425.987 184.579 425.858 184.246 425.599 183.994C425.341 183.742 425.004 183.616 424.59 183.616C424.308 183.616 424.048 183.691 423.81 183.84C423.574 183.986 423.384 184.19 423.238 184.451C423.095 184.713 423.024 185.017 423.024 185.361V190.069H421.538ZM435.993 190.238C435.509 190.238 435.071 190.149 434.68 189.97C434.289 189.788 433.979 189.524 433.751 189.179C433.525 188.835 433.413 188.412 433.413 187.912C433.413 187.481 433.495 187.126 433.661 186.848C433.827 186.569 434.051 186.349 434.332 186.187C434.614 186.024 434.929 185.901 435.277 185.819C435.625 185.736 435.98 185.673 436.341 185.63C436.798 185.577 437.169 185.534 437.455 185.5C437.74 185.464 437.947 185.406 438.076 185.326C438.205 185.247 438.27 185.118 438.27 184.939V184.904C438.27 184.47 438.147 184.133 437.902 183.895C437.66 183.656 437.299 183.537 436.818 183.537C436.318 183.537 435.923 183.648 435.635 183.87C435.35 184.089 435.153 184.332 435.043 184.601L433.646 184.282C433.812 183.818 434.054 183.444 434.372 183.159C434.694 182.87 435.063 182.662 435.481 182.532C435.898 182.4 436.338 182.334 436.798 182.334C437.103 182.334 437.426 182.37 437.768 182.443C438.112 182.513 438.434 182.642 438.732 182.831C439.034 183.02 439.281 183.29 439.473 183.641C439.665 183.989 439.761 184.441 439.761 184.998V190.069H438.31V189.025H438.25C438.154 189.218 438.01 189.406 437.817 189.592C437.625 189.778 437.378 189.932 437.077 190.054C436.775 190.177 436.414 190.238 435.993 190.238ZM436.316 189.045C436.727 189.045 437.078 188.964 437.37 188.802C437.665 188.639 437.889 188.427 438.041 188.165C438.197 187.9 438.275 187.617 438.275 187.315V186.331C438.222 186.384 438.119 186.433 437.967 186.48C437.817 186.523 437.647 186.561 437.455 186.594C437.262 186.624 437.075 186.652 436.893 186.679C436.71 186.702 436.558 186.722 436.435 186.738C436.147 186.775 435.883 186.836 435.645 186.922C435.41 187.008 435.221 187.133 435.078 187.295C434.939 187.454 434.869 187.666 434.869 187.932C434.869 188.299 435.005 188.578 435.277 188.767C435.549 188.952 435.895 189.045 436.316 189.045ZM441.601 190.069V182.433H443.088V190.069H441.601ZM442.352 181.255C442.093 181.255 441.871 181.169 441.686 180.996C441.503 180.821 441.412 180.612 441.412 180.37C441.412 180.124 441.503 179.916 441.686 179.743C441.871 179.568 442.093 179.48 442.352 179.48C442.61 179.48 442.831 179.568 443.013 179.743C443.199 179.916 443.292 180.124 443.292 180.37C443.292 180.612 443.199 180.821 443.013 180.996C442.831 181.169 442.61 181.255 442.352 181.255ZM446.434 179.888V190.069H444.948V179.888H446.434Z" fill="#636369"/>
<rect x="402.243" y="181.569" width="6" height="6" rx="3" fill="#8199FD"/>
<path d="M414.898 208.888V219.069H413.361V208.888H414.898ZM418.362 214.535V219.069H416.875V211.433H418.302V212.676H418.397C418.572 212.272 418.847 211.947 419.222 211.701C419.6 211.456 420.075 211.334 420.649 211.334C421.169 211.334 421.625 211.443 422.016 211.662C422.407 211.877 422.71 212.199 422.926 212.626C423.141 213.054 423.249 213.582 423.249 214.212V219.069H421.762V214.391C421.762 213.838 421.618 213.405 421.33 213.093C421.042 212.779 420.646 212.621 420.142 212.621C419.797 212.621 419.49 212.696 419.222 212.845C418.957 212.994 418.746 213.213 418.591 213.501C418.438 213.786 418.362 214.131 418.362 214.535ZM429.602 214.123V215.41H425.088V214.123H429.602ZM432.422 219.069H430.792L434.456 208.888H436.231L439.895 219.069H438.264L435.386 210.737H435.306L432.422 219.069ZM432.696 215.082H437.986V216.375H432.696V215.082ZM441.106 221.933V211.433H442.557V212.671H442.682C442.768 212.512 442.892 212.328 443.055 212.119C443.217 211.91 443.442 211.728 443.731 211.572C444.019 211.413 444.4 211.334 444.874 211.334C445.491 211.334 446.041 211.489 446.525 211.801C447.009 212.112 447.388 212.562 447.663 213.148C447.942 213.735 448.081 214.441 448.081 215.266C448.081 216.091 447.943 216.799 447.668 217.389C447.393 217.976 447.015 218.428 446.535 218.746C446.054 219.061 445.506 219.218 444.889 219.218C444.425 219.218 444.046 219.141 443.751 218.985C443.459 218.829 443.23 218.647 443.065 218.438C442.899 218.229 442.771 218.044 442.682 217.881H442.592V221.933H441.106ZM442.562 215.251C442.562 215.788 442.64 216.259 442.796 216.663C442.952 217.067 443.177 217.384 443.472 217.613C443.767 217.838 444.129 217.951 444.556 217.951C445 217.951 445.371 217.833 445.67 217.598C445.968 217.359 446.193 217.036 446.346 216.628C446.502 216.221 446.58 215.762 446.58 215.251C446.58 214.747 446.503 214.295 446.351 213.894C446.202 213.493 445.976 213.176 445.675 212.944C445.376 212.712 445.004 212.596 444.556 212.596C444.125 212.596 443.761 212.707 443.462 212.929C443.167 213.151 442.944 213.461 442.791 213.859C442.639 214.257 442.562 214.721 442.562 215.251ZM449.606 221.933V211.433H451.058V212.671H451.182C451.269 212.512 451.393 212.328 451.555 212.119C451.718 211.91 451.943 211.728 452.231 211.572C452.52 211.413 452.901 211.334 453.375 211.334C453.991 211.334 454.542 211.489 455.025 211.801C455.509 212.112 455.889 212.562 456.164 213.148C456.442 213.735 456.582 214.441 456.582 215.266C456.582 216.091 456.444 216.799 456.169 217.389C455.894 217.976 455.516 218.428 455.035 218.746C454.555 219.061 454.006 219.218 453.39 219.218C452.926 219.218 452.546 219.141 452.251 218.985C451.96 218.829 451.731 218.647 451.565 218.438C451.4 218.229 451.272 218.044 451.182 217.881H451.093V221.933H449.606ZM451.063 215.251C451.063 215.788 451.141 216.259 451.297 216.663C451.453 217.067 451.678 217.384 451.973 217.613C452.268 217.838 452.629 217.951 453.057 217.951C453.501 217.951 453.872 217.833 454.17 217.598C454.469 217.359 454.694 217.036 454.846 216.628C455.002 216.221 455.08 215.762 455.08 215.251C455.08 214.747 455.004 214.295 454.851 213.894C454.702 213.493 454.477 213.176 454.175 212.944C453.877 212.712 453.504 212.596 453.057 212.596C452.626 212.596 452.261 212.707 451.963 212.929C451.668 213.151 451.444 213.461 451.292 213.859C451.139 214.257 451.063 214.721 451.063 215.251ZM461.791 219.069V208.888H465.421C466.213 208.888 466.869 209.032 467.389 209.32C467.91 209.608 468.299 210.003 468.558 210.503C468.816 211 468.946 211.561 468.946 212.184C468.946 212.81 468.815 213.374 468.553 213.874C468.294 214.371 467.903 214.766 467.38 215.057C466.859 215.346 466.205 215.49 465.416 215.49H462.92V214.187H465.277C465.777 214.187 466.183 214.101 466.495 213.929C466.806 213.753 467.035 213.514 467.181 213.213C467.326 212.911 467.399 212.568 467.399 212.184C467.399 211.799 467.326 211.458 467.181 211.16C467.035 210.861 466.804 210.628 466.49 210.459C466.178 210.29 465.767 210.205 465.257 210.205H463.328V219.069H461.791ZM475.325 215.902V211.433H476.816V219.069H475.354V217.747H475.275C475.099 218.155 474.817 218.494 474.43 218.766C474.045 219.035 473.566 219.169 472.993 219.169C472.502 219.169 472.068 219.061 471.69 218.846C471.316 218.627 471.021 218.304 470.805 217.876C470.593 217.449 470.487 216.92 470.487 216.29V211.433H471.974V216.111C471.974 216.632 472.118 217.046 472.406 217.354C472.695 217.662 473.069 217.816 473.53 217.816C473.808 217.816 474.085 217.747 474.36 217.608C474.638 217.468 474.869 217.258 475.051 216.976C475.237 216.695 475.328 216.337 475.325 215.902ZM484.396 213.297L483.048 213.536C482.992 213.364 482.903 213.2 482.78 213.044C482.661 212.888 482.498 212.76 482.293 212.661C482.087 212.562 481.83 212.512 481.522 212.512C481.101 212.512 480.75 212.606 480.468 212.795C480.186 212.981 480.046 213.221 480.046 213.516C480.046 213.771 480.14 213.977 480.329 214.133C480.518 214.288 480.823 214.416 481.244 214.515L482.457 214.794C483.159 214.956 483.683 215.206 484.028 215.544C484.372 215.883 484.545 216.322 484.545 216.862C484.545 217.319 484.412 217.727 484.147 218.085C483.885 218.44 483.519 218.718 483.048 218.92C482.581 219.122 482.039 219.223 481.423 219.223C480.568 219.223 479.87 219.041 479.33 218.677C478.789 218.309 478.458 217.787 478.335 217.111L479.772 216.892C479.862 217.266 480.046 217.55 480.324 217.742C480.602 217.931 480.965 218.025 481.413 218.025C481.9 218.025 482.289 217.924 482.581 217.722C482.873 217.517 483.019 217.266 483.019 216.971C483.019 216.733 482.929 216.532 482.75 216.37C482.574 216.207 482.304 216.085 481.94 216.002L480.647 215.718C479.934 215.556 479.408 215.298 479.066 214.943C478.728 214.588 478.559 214.139 478.559 213.596C478.559 213.145 478.685 212.75 478.937 212.412C479.189 212.074 479.537 211.811 479.981 211.622C480.425 211.43 480.934 211.334 481.507 211.334C482.332 211.334 482.982 211.513 483.456 211.87C483.93 212.225 484.243 212.701 484.396 213.297ZM487.526 214.535V219.069H486.039V208.888H487.506V212.676H487.6C487.779 212.265 488.053 211.938 488.421 211.696C488.789 211.455 489.269 211.334 489.862 211.334C490.386 211.334 490.843 211.441 491.235 211.657C491.629 211.872 491.934 212.194 492.149 212.621C492.368 213.045 492.477 213.576 492.477 214.212V219.069H490.991V214.391C490.991 213.831 490.847 213.397 490.558 213.089C490.27 212.777 489.869 212.621 489.355 212.621C489.004 212.621 488.689 212.696 488.411 212.845C488.136 212.994 487.918 213.213 487.759 213.501C487.604 213.786 487.526 214.131 487.526 214.535Z" fill="#636369"/>
<rect x="402.243" y="210.569" width="6" height="6" rx="3" fill="#F9DD88"/>
<path d="M415.355 248.069L412.531 237.888H414.147L416.13 245.772H416.225L418.288 237.888H419.889L421.952 245.777H422.047L424.025 237.888H425.646L422.817 248.069H421.271L419.128 240.443H419.049L416.906 248.069H415.355ZM429.327 248.223C428.574 248.223 427.926 248.063 427.383 247.741C426.843 247.416 426.425 246.961 426.13 246.374C425.838 245.784 425.693 245.093 425.693 244.301C425.693 243.519 425.838 242.829 426.13 242.233C426.425 241.636 426.836 241.17 427.363 240.836C427.893 240.501 428.513 240.334 429.222 240.334C429.653 240.334 430.071 240.405 430.475 240.547C430.88 240.69 431.242 240.914 431.564 241.218C431.885 241.523 432.139 241.919 432.325 242.407C432.51 242.891 432.603 243.479 432.603 244.172V244.699H426.533V243.585H431.146C431.146 243.194 431.067 242.848 430.908 242.546C430.749 242.241 430.525 242.001 430.237 241.825C429.952 241.649 429.617 241.562 429.232 241.562C428.815 241.562 428.45 241.664 428.139 241.87C427.83 242.072 427.592 242.337 427.423 242.665C427.257 242.99 427.174 243.343 427.174 243.724V244.594C427.174 245.105 427.264 245.539 427.443 245.897C427.625 246.255 427.878 246.528 428.203 246.717C428.528 246.903 428.907 246.995 429.342 246.995C429.623 246.995 429.88 246.956 430.112 246.876C430.344 246.793 430.545 246.671 430.714 246.508C430.883 246.346 431.012 246.145 431.102 245.907L432.509 246.16C432.396 246.575 432.194 246.937 431.902 247.249C431.614 247.557 431.251 247.798 430.813 247.97C430.379 248.139 429.884 248.223 429.327 248.223ZM434.232 248.069V237.888H435.718V241.671H435.808C435.894 241.512 436.018 241.328 436.181 241.119C436.343 240.91 436.568 240.728 436.857 240.572C437.145 240.413 437.526 240.334 438 240.334C438.617 240.334 439.167 240.489 439.651 240.801C440.135 241.112 440.514 241.562 440.789 242.148C441.068 242.735 441.207 243.441 441.207 244.266C441.207 245.091 441.069 245.799 440.794 246.389C440.519 246.976 440.141 247.428 439.661 247.746C439.18 248.061 438.632 248.218 438.015 248.218C437.551 248.218 437.172 248.141 436.877 247.985C436.585 247.829 436.356 247.647 436.19 247.438C436.025 247.229 435.897 247.044 435.808 246.881H435.683V248.069H434.232ZM435.688 244.251C435.688 244.788 435.766 245.259 435.922 245.663C436.078 246.067 436.303 246.384 436.598 246.613C436.893 246.838 437.254 246.951 437.682 246.951C438.126 246.951 438.497 246.833 438.796 246.598C439.094 246.359 439.319 246.036 439.472 245.628C439.628 245.221 439.705 244.762 439.705 244.251C439.705 243.747 439.629 243.295 439.477 242.894C439.328 242.493 439.102 242.176 438.801 241.944C438.502 241.712 438.129 241.596 437.682 241.596C437.251 241.596 436.887 241.707 436.588 241.929C436.293 242.151 436.07 242.461 435.917 242.859C435.765 243.257 435.688 243.721 435.688 244.251ZM454.638 237.888V248.069H453.227L448.051 240.602H447.957V248.069H446.42V237.888H447.842L453.023 245.365H453.117V237.888H454.638ZM459.837 248.223C459.121 248.223 458.496 248.059 457.962 247.731C457.429 247.403 457.015 246.944 456.72 246.354C456.425 245.764 456.277 245.075 456.277 244.286C456.277 243.494 456.425 242.801 456.72 242.208C457.015 241.615 457.429 241.154 457.962 240.826C458.496 240.498 459.121 240.334 459.837 240.334C460.553 240.334 461.177 240.498 461.711 240.826C462.245 241.154 462.659 241.615 462.954 242.208C463.249 242.801 463.396 243.494 463.396 244.286C463.396 245.075 463.249 245.764 462.954 246.354C462.659 246.944 462.245 247.403 461.711 247.731C461.177 248.059 460.553 248.223 459.837 248.223ZM459.842 246.976C460.306 246.976 460.69 246.853 460.995 246.608C461.3 246.362 461.525 246.036 461.671 245.628C461.82 245.221 461.895 244.772 461.895 244.281C461.895 243.794 461.82 243.346 461.671 242.939C461.525 242.528 461.3 242.198 460.995 241.949C460.69 241.701 460.306 241.576 459.842 241.576C459.374 241.576 458.987 241.701 458.678 241.949C458.373 242.198 458.146 242.528 457.997 242.939C457.851 243.346 457.778 243.794 457.778 244.281C457.778 244.772 457.851 245.221 457.997 245.628C458.146 246.036 458.373 246.362 458.678 246.608C458.987 246.853 459.374 246.976 459.842 246.976ZM468.48 240.433V241.626H464.309V240.433H468.48ZM465.428 238.603H466.914V245.827C466.914 246.116 466.957 246.333 467.043 246.478C467.13 246.621 467.241 246.719 467.377 246.772C467.516 246.821 467.667 246.846 467.829 246.846C467.948 246.846 468.053 246.838 468.142 246.821C468.232 246.805 468.301 246.792 468.351 246.782L468.619 248.01C468.533 248.043 468.411 248.076 468.252 248.109C468.092 248.146 467.894 248.165 467.655 248.169C467.264 248.175 466.899 248.106 466.561 247.96C466.223 247.814 465.95 247.589 465.741 247.284C465.532 246.979 465.428 246.596 465.428 246.135V238.603ZM469.985 248.069V240.433H471.471V248.069H469.985ZM470.735 239.255C470.477 239.255 470.255 239.169 470.069 238.996C469.887 238.821 469.796 238.612 469.796 238.37C469.796 238.124 469.887 237.916 470.069 237.743C470.255 237.568 470.477 237.48 470.735 237.48C470.994 237.48 471.214 237.568 471.397 237.743C471.582 237.916 471.675 238.124 471.675 238.37C471.675 238.612 471.582 238.821 471.397 238.996C471.214 239.169 470.994 239.255 470.735 239.255ZM476.965 240.433V241.626H472.65V240.433H476.965ZM473.833 248.069V239.548C473.833 239.071 473.937 238.675 474.146 238.36C474.355 238.042 474.632 237.805 474.977 237.649C475.321 237.49 475.696 237.41 476.1 237.41C476.398 237.41 476.654 237.435 476.866 237.485C477.078 237.531 477.235 237.574 477.338 237.614L476.99 238.817C476.92 238.797 476.831 238.774 476.722 238.748C476.612 238.718 476.48 238.703 476.324 238.703C475.963 238.703 475.704 238.792 475.548 238.971C475.396 239.15 475.32 239.409 475.32 239.747V248.069H473.833ZM478.545 248.164C478.274 248.164 478.04 248.068 477.844 247.875C477.649 247.68 477.551 247.445 477.551 247.169C477.551 246.898 477.649 246.666 477.844 246.473C478.04 246.278 478.274 246.18 478.545 246.18C478.817 246.18 479.051 246.278 479.246 246.473C479.442 246.666 479.54 246.898 479.54 247.169C479.54 247.352 479.493 247.519 479.4 247.672C479.311 247.821 479.192 247.94 479.043 248.03C478.893 248.119 478.728 248.164 478.545 248.164Z" fill="#636369"/>
<rect x="402.243" y="239.569" width="6" height="6" rx="3" fill="#00CC74"/>
<rect x="-1" y="1" width="459.058" height="345" rx="7" transform="matrix(-1 0 0 1 520.266 80)" stroke="#E1E8F2" stroke-width="2" stroke-dasharray="8 8"/>
<rect x="-2" y="2" width="483.474" height="419.085" rx="6" transform="matrix(-1 0 0 1 531.474 65.0117)" stroke="#121212" stroke-width="4"/>
<defs>
<clipPath id="clip0_6213_38880">
<rect width="17" height="17" fill="white" transform="translate(88.2427 104.069)"/>
</clipPath>
<clipPath id="clip1_6213_38880">
<rect width="17" height="17" fill="white" transform="translate(226.243 104.069)"/>
</clipPath>
</defs>
</svg>
