<svg xmlns="http://www.w3.org/2000/svg" width="600" height="318" fill="none" xmlns:v="https://vecta.io/nano"><g stroke="#d0b684" stroke-dasharray="4 4"><path d="M555.504.596v15.699m0 480.301V280.458m0-65.742V66.498M453.312.596v339.482m0 156.518V364.75M351.621.596v102.041m0 393.959v-17.252m0-293.992v244.395"/><path transform="matrix(0 1 1 0 249.43 .595703)" d="M0-.5h496"/><path d="M146.738.596v27.702m0 468.298V394.61m0-83.074V52.79M44.547 0v121.482m0 374.518V257.567m0-90.065v72.831"/><path d="M-4 144.887h25.672m582.328 0H392.708m-80.708 0H69.358M-4 248.68h39.48m568.521 0h-15.322m-65.324 0H53.12M-4 41.094h138.858m469.142 0h-25.121m-48.339 0H159.135"/><path d="M555.48 65.012l10.183-13.818 13.817-10.182-13.817-10.182-10.183-13.818-10.182 13.818-13.818 10.182 13.818 10.182 10.182 13.818zM44.602 168.742l10.182-13.817 13.818-10.183-13.818-10.182-10.182-13.818L34.42 134.56l-13.818 10.182 13.818 10.183 10.182 13.817zm510.867 111.854l13.576-18.424 18.424-13.576-18.424-13.577-13.576-18.423-13.577 18.423-18.423 13.577 18.423 13.576 13.577 18.424zM146.754 392.502l16.97-23.029 23.03-16.971-23.03-16.971-16.97-23.029-16.971 23.029-23.029 16.971 23.029 16.971 16.971 23.029zm204.867-207.609l16.971-23.03 23.029-16.97-23.029-16.971-16.971-23.029-16.97 23.029-23.03 16.971 23.03 16.97 16.97 23.03z"/><circle r="8" transform="matrix(1 0 0 -1 44.5469 248.68)"/><circle r="12" transform="matrix(1 0 0 -1 146.738 41.0938)"/></g><g transform="matrix(-1 0 0 1 527.705 77.9312)"><rect x="-2" y="2" width="441.955" height="422.315" rx="6" fill="#121212"/><rect x="-2" y="2" width="441.955" height="422.315" rx="6" stroke="#121212" stroke-width="4"/></g><g transform="matrix(-1 0 0 1 509.416 65.0117)"><rect x="-2" y="2" width="441.12" height="419.085" rx="6" fill="#f5f6f8"/><rect x="-2" y="2" width="441.12" height="419.085" rx="6" stroke="#121212" stroke-width="4"/></g><rect x="80.377" y="77.93" width="422" height="38" rx="4" fill="#fff"/><rect x="97.377" y="91.93" width="10" height="10" rx="5" fill="#eb5757"/><rect x="115.377" y="91.93" width="10" height="10" rx="5" fill="#f2c94c"/><rect x="133.377" y="91.93" width="10" height="10" rx="5" fill="#27ae60"/><g fill="#e7edf5"><path d="M476.814 90.93a1 1 0 1 0-2 0h2zm-2 12a1 1 0 1 0 2 0h-2zm0-12v12h2v-12h-2z"/><path d="M481.814 97.93a1 1 0 1 0 0-2v2zm-12-2a1 1 0 1 0 0 2v-2zm12 0h-12v2h12v-2z"/></g><path d="M248.377 96.93h.5a.5.5 0 0 1 .354.146c.093.094.146.221.146.354v5c0 .132-.053.259-.146.353a.5.5 0 0 1-.354.147h-8a.5.5 0 0 1-.354-.147c-.093-.094-.146-.221-.146-.353v-5c0-.133.053-.26.146-.354a.5.5 0 0 1 .354-.146h.5v-.5a3.49 3.49 0 0 1 .266-1.339c.176-.424.434-.811.759-1.135a3.5 3.5 0 0 1 1.136-.759 3.49 3.49 0 0 1 1.339-.266 3.51 3.51 0 0 1 1.339.266 3.5 3.5 0 0 1 1.136.759c.325.325.583.711.759 1.135s.266.88.266 1.339v.5zm-1 0v-.5a2.5 2.5 0 1 0-5 0v.5h5zm-3 2v2h1v-2h-1zm14.266-2.362a1.04 1.04 0 0 0-.469-.781c-.275-.187-.62-.28-1.037-.28-.298 0-.556.047-.774.142s-.387.22-.508.383a.91.91 0 0 0-.178.55c0 .173.041.322.121.447a1.09 1.09 0 0 0 .323.316 2.45 2.45 0 0 0 .434.209l.443.135.711.185a5.36 5.36 0 0 1 .713.231 2.88 2.88 0 0 1 .679.384 1.84 1.84 0 0 1 .504.59 1.71 1.71 0 0 1 .195.842c0 .412-.106.777-.319 1.097s-.518.572-.92.756-.884.277-1.453.277c-.544 0-1.015-.086-1.413-.259s-.709-.418-.934-.735a2.13 2.13 0 0 1-.373-1.136h1.101c.021.263.107.482.256.657a1.37 1.37 0 0 0 .579.387c.236.083.496.124.777.124.311 0 .586-.048.828-.146s.435-.236.575-.411a.97.97 0 0 0 .21-.622c0-.215-.062-.392-.185-.529s-.285-.251-.494-.341-.439-.169-.699-.238l-.86-.234c-.582-.159-1.044-.392-1.385-.7s-.507-.715-.507-1.222a1.81 1.81 0 0 1 .341-1.097c.227-.312.535-.555.923-.728s.826-.263 1.314-.263.927.086 1.303.259.677.411.895.714a1.8 1.8 0 0 1 .341 1.037h-1.058zm4.634 5.473c-.537 0-1-.115-1.388-.345a2.33 2.33 0 0 1-.895-.976c-.209-.422-.313-.915-.313-1.481 0-.559.104-1.051.313-1.477s.504-.759.88-.998.822-.359 1.329-.359c.307 0 .606.051.894.153a2.16 2.16 0 0 1 .778.479 2.24 2.24 0 0 1 .543.849c.133.346.199.766.199 1.261v.376h-4.336v-.795h3.296c0-.279-.057-.527-.171-.742s-.273-.389-.479-.515a1.34 1.34 0 0 0-.717-.188c-.299 0-.559.073-.782.22a1.48 1.48 0 0 0-.511.568c-.118.232-.178.484-.178.756v.621c0 .365.064.675.192.931s.312.451.544.586.503.199.813.199c.201 0 .384-.029.55-.086a1.16 1.16 0 0 0 .43-.262c.121-.116.213-.26.277-.43l1.005.181a1.83 1.83 0 0 1-.433.778c-.206.22-.466.392-.778.515s-.664.181-1.062.181zm5.716 0c-.528 0-.982-.12-1.364-.359a2.37 2.37 0 0 1-.873-.998c-.204-.424-.306-.909-.306-1.456 0-.554.105-1.043.313-1.467a2.39 2.39 0 0 1 .881-.998c.378-.239.825-.359 1.338-.359a2.55 2.55 0 0 1 1.108.231c.324.154.586.365.785.639s.321.596.359.962H270.2c-.056-.256-.187-.476-.39-.661s-.471-.277-.81-.277a1.32 1.32 0 0 0-.778.234c-.22.154-.391.374-.515.66s-.184.62-.184 1.008c0 .398.06.741.181 1.03s.291.513.511.671.484.238.785.238a1.31 1.31 0 0 0 .547-.11 1.11 1.11 0 0 0 .415-.323c.114-.14.193-.308.238-.504h1.034c-.038.353-.153.667-.345.944a1.98 1.98 0 0 1-.77.654c-.32.158-.695.238-1.126.238zm6.732-2.372v-3.192h1.065v5.455h-1.044v-.945h-.057a1.7 1.7 0 0 1-.604.728c-.274.192-.616.288-1.026.288-.35 0-.66-.077-.93-.231a1.61 1.61 0 0 1-.632-.693c-.152-.305-.228-.683-.228-1.132v-3.469h1.062v3.342c0 .371.103.667.309.888s.473.33.803.33a1.31 1.31 0 0 0 .593-.149c.198-.1.363-.25.493-.451s.198-.457.196-.767zm2.392 2.262v-5.455h1.026v.867h.057c.099-.293.274-.524.525-.692a1.52 1.52 0 0 1 .86-.256l.234.007.217.018v1.016c-.043-.012-.119-.025-.228-.039a2.57 2.57 0 0 0-.326-.025 1.39 1.39 0 0 0-.672.16 1.18 1.18 0 0 0-.632 1.069v3.331h-1.061zm5.893.11c-.537 0-1-.115-1.389-.345s-.684-.557-.894-.976-.313-.915-.313-1.481c0-.559.104-1.051.313-1.477s.504-.759.88-.998.822-.359 1.328-.359a2.67 2.67 0 0 1 .895.153 2.17 2.17 0 0 1 .778.479 2.24 2.24 0 0 1 .543.849c.133.346.199.766.199 1.261v.376h-4.336v-.795h3.296c0-.279-.057-.527-.171-.742s-.273-.389-.479-.515-.443-.188-.718-.188c-.298 0-.558.073-.781.22a1.48 1.48 0 0 0-.511.568 1.63 1.63 0 0 0-.178.756v.621c0 .365.064.675.192.931a1.37 1.37 0 0 0 .543.586c.232.135.503.199.814.199.201 0 .384-.029.55-.086a1.16 1.16 0 0 0 .43-.262c.121-.116.213-.26.277-.43l1.005.181c-.081.296-.225.555-.434.778a2.09 2.09 0 0 1-.777.515c-.312.123-.664.181-1.062.181zm12.09-5.018h-1.108a1.68 1.68 0 0 0-.237-.625c-.116-.18-.259-.333-.427-.458s-.356-.22-.564-.284a2.21 2.21 0 0 0-.657-.096c-.419 0-.794.105-1.126.316s-.589.52-.781.927-.284.904-.284 1.492.094 1.091.284 1.499a2.1 2.1 0 0 0 .785.923 2.05 2.05 0 0 0 1.118.313c.23 0 .448-.031.654-.093a1.86 1.86 0 0 0 .564-.28c.168-.123.31-.274.426-.451a1.69 1.69 0 0 0 .245-.618l1.108.004a2.97 2.97 0 0 1-.344.987 2.73 2.73 0 0 1-.65.774 2.96 2.96 0 0 1-.902.501c-.338.118-.708.177-1.108.177-.63 0-1.191-.149-1.683-.447a3.14 3.14 0 0 1-1.165-1.289c-.282-.559-.422-1.226-.422-2s.142-1.443.426-1.999.672-.987 1.164-1.285 1.053-.451 1.68-.451a3.4 3.4 0 0 1 1.08.167c.336.109.638.27.905.483s.489.469.664.774.294.65.355 1.041zm3.426 5.018c-.512 0-.958-.117-1.339-.352s-.677-.562-.888-.983-.316-.914-.316-1.478.106-1.061.316-1.484a2.37 2.37 0 0 1 .888-.987c.381-.234.827-.352 1.339-.352s.957.117 1.339.352a2.36 2.36 0 0 1 .887.987c.211.424.316.919.316 1.484s-.105 1.056-.316 1.478-.506.749-.887.983-.828.352-1.339.352zm.003-.892c.332 0 .606-.087.824-.262s.379-.409.483-.7a2.77 2.77 0 0 0 .16-.962 2.76 2.76 0 0 0-.16-.959 1.56 1.56 0 0 0-.483-.707c-.218-.177-.492-.266-.824-.266s-.61.089-.831.266-.38.413-.486.707-.156.611-.156.959a2.85 2.85 0 0 0 .156.962c.104.291.269.524.486.7s.498.262.831.262zm4.686-2.457v3.239h-1.061v-5.455h1.019v.888h.067a1.56 1.56 0 0 1 .59-.696c.27-.175.609-.263 1.019-.263.372 0 .697.078.976.234s.496.384.65.689.231.683.231 1.133v3.47h-1.062v-3.342c0-.395-.103-.704-.309-.927s-.488-.337-.848-.337a1.33 1.33 0 0 0-.657.16 1.14 1.14 0 0 0-.451.469c-.111.206-.164.45-.164.739zm5.877 0v3.239h-1.062v-5.455h1.019v.888h.068a1.56 1.56 0 0 1 .589-.696c.27-.175.61-.263 1.019-.263a1.97 1.97 0 0 1 .977.234 1.57 1.57 0 0 1 .65.689c.154.305.231.683.231 1.133v3.47h-1.062v-3.342c0-.395-.103-.704-.309-.927s-.489-.337-.849-.337a1.33 1.33 0 0 0-.657.16c-.189.106-.339.263-.451.469s-.163.45-.163.739zm7.166 3.349c-.538 0-1.001-.115-1.389-.345s-.684-.557-.895-.976-.312-.915-.312-1.481c0-.559.104-1.051.312-1.477s.504-.759.881-.998.821-.359 1.328-.359a2.67 2.67 0 0 1 .895.153 2.17 2.17 0 0 1 .778.479c.229.218.41.501.543.849s.199.766.199 1.261v.376h-4.336v-.795h3.295c0-.279-.057-.527-.17-.742a1.29 1.29 0 0 0-.48-.515c-.203-.126-.442-.188-.717-.188-.298 0-.559.073-.781.22a1.47 1.47 0 0 0-.511.568 1.63 1.63 0 0 0-.178.756v.621c0 .365.064.675.192.931a1.37 1.37 0 0 0 .543.586c.232.135.503.199.813.199a1.69 1.69 0 0 0 .551-.086 1.18 1.18 0 0 0 .429-.262c.121-.116.213-.26.277-.43l1.005.181a1.82 1.82 0 0 1-.433.778c-.206.22-.465.392-.778.515s-.664.181-1.061.181zm5.715 0c-.527 0-.982-.12-1.363-.359s-.67-.574-.874-.998-.305-.909-.305-1.456c0-.554.104-1.043.312-1.467s.502-.759.881-.998.825-.359 1.339-.359c.414 0 .783.077 1.108.231a2.01 2.01 0 0 1 .785.639c.199.274.32.596.358.962h-1.033a1.24 1.24 0 0 0-.391-.661c-.204-.185-.471-.277-.809-.277a1.32 1.32 0 0 0-.778.234c-.222.156-.392.374-.515.66s-.185.62-.185 1.008c0 .398.061.741.181 1.03s.292.513.512.671.484.238.785.238c.201 0 .383-.036.546-.11s.305-.183.416-.323.193-.308.238-.504h1.033c-.038.353-.152.667-.344.944a1.99 1.99 0 0 1-.771.654c-.319.158-.695.238-1.126.238zm5.823-5.565v.852h-2.98v-.852h2.98zm-2.181-1.307h1.062v5.16c0 .206.031.361.093.465a.47.47 0 0 0 .238.21.89.89 0 0 0 .323.053 1.22 1.22 0 0 0 .223-.018l.15-.028.191.877c-.061.024-.149.047-.262.071s-.256.04-.427.043c-.279.004-.539-.045-.781-.149a1.34 1.34 0 0 1-.586-.483c-.149-.217-.224-.492-.224-.821v-5.38zm3.255 6.762v-5.455h1.062v5.455h-1.062zm.537-6.297a.67.67 0 0 1-.476-.185.6.6 0 0 1-.196-.447c0-.175.066-.324.196-.447s.291-.188.476-.188.342.063.472.188a.6.6 0 0 1 .199.447.59.59 0 0 1-.199.447.66.66 0 0 1-.472.185zm4.151 6.407c-.511 0-.957-.117-1.339-.352s-.677-.562-.887-.983-.316-.914-.316-1.478.105-1.061.316-1.484a2.36 2.36 0 0 1 .887-.987c.382-.234.828-.352 1.339-.352s.958.117 1.339.352a2.37 2.37 0 0 1 .888.987c.211.424.316.919.316 1.484s-.105 1.056-.316 1.478-.507.749-.888.983-.827.352-1.339.352zm.004-.892c.331 0 .606-.087.824-.262a1.56 1.56 0 0 0 .483-.7c.106-.291.159-.612.159-.962s-.053-.668-.159-.959a1.6 1.6 0 0 0-.483-.707c-.217-.178-.493-.266-.824-.266s-.611.089-.831.266a1.59 1.59 0 0 0-.487.707c-.104.291-.156.611-.156.959a2.85 2.85 0 0 0 .156.962 1.55 1.55 0 0 0 .487.7c.218.176.497.262.831.262zm4.686-2.457v3.239h-1.062v-5.455h1.019v.888h.068a1.56 1.56 0 0 1 .589-.696c.27-.175.61-.263 1.019-.263a1.97 1.97 0 0 1 .977.234 1.57 1.57 0 0 1 .65.689c.154.305.231.683.231 1.133v3.47h-1.062v-3.342c0-.395-.103-.704-.309-.927s-.489-.337-.849-.337a1.33 1.33 0 0 0-.657.16 1.15 1.15 0 0 0-.451.469c-.109.204-.163.45-.163.739z" fill="#23b17a"/><g clip-path="url(#A)"><rect width="421" height="347" rx="8" transform="matrix(-1 0 0 1 501.355 129)" fill="#fff"/><g stroke="#dfe7f2" stroke-width="2" stroke-linecap="round"><path d="M165.483 331.127V130m2 163.982h332.872"/></g><path d="M178.684 163.683a1.89 1.89 0 0 0 .69-.125 3.11 3.11 0 0 0 .61-.335l.52.72a2.8 2.8 0 0 1-.84.48 2.92 2.92 0 0 1-1.015.18c-.54 0-1.002-.114-1.385-.34a2.26 2.26 0 0 1-.88-.965c-.204-.414-.305-.895-.305-1.445 0-.537.101-1.015.305-1.435s.503-.757.89-1 .851-.37 1.395-.37c.36 0 .691.053.995.16s.581.265.835.475l-.515.705a2.53 2.53 0 0 0-.635-.325c-.214-.077-.434-.115-.66-.115-.417 0-.759.153-1.025.46s-.395.788-.395 1.445c0 .44.06.795.18 1.065s.291.461.505.585a1.46 1.46 0 0 0 .73.18zm5.266-4.635c.516 0 .951.115 1.305.345s.62.551.8.965.275.9.275 1.46-.094 1.045-.28 1.465a2.2 2.2 0 0 1-.81.975c-.354.23-.785.345-1.295.345s-.944-.112-1.3-.335a2.16 2.16 0 0 1-.81-.965c-.184-.417-.275-.909-.275-1.475 0-.55.091-1.034.275-1.45s.458-.742.815-.975.79-.355 1.3-.355zm0 .87c-.404 0-.707.155-.91.465s-.305.788-.305 1.445.1 1.135.3 1.445.506.465.91.465.705-.155.905-.465.305-.795.305-1.455c0-.65-.1-1.129-.3-1.435s-.502-.465-.905-.465zm3.581 4.55v-5.28h.965l.085.685c.22-.27.48-.475.78-.615s.608-.21.925-.21c.493 0 .861.138 1.105.415s.37.658.37 1.155v3.85h-1.12v-3.295a4.04 4.04 0 0 0-.055-.74c-.037-.187-.11-.322-.22-.405s-.267-.125-.48-.125a1.1 1.1 0 0 0-.485.11 1.6 1.6 0 0 0-.42.29 2.23 2.23 0 0 0-.33.375v3.79h-1.12zm7.616-.725c.35 0 .628-.062.835-.185s.31-.3.31-.52c0-.144-.03-.265-.09-.365s-.18-.197-.36-.28-.454-.177-.82-.27c-.347-.09-.652-.197-.915-.32a1.56 1.56 0 0 1-.605-.48c-.144-.197-.215-.45-.215-.76 0-.304.085-.569.255-.795s.413-.404.73-.53.695-.19 1.125-.19c.443 0 .83.058 1.16.175s.611.261.845.435l-.47.705c-.207-.137-.434-.249-.68-.335s-.519-.13-.825-.13c-.357 0-.614.053-.77.16a.49.49 0 0 0-.23.425.49.49 0 0 0 .115.33c.08.086.216.168.41.245a10.55 10.55 0 0 0 .82.26c.343.093.641.203.895.33s.455.295.595.505.215.476.215.81c0 .38-.11.691-.33.935s-.504.418-.86.535a3.73 3.73 0 0 1-1.14.17c-.49 0-.914-.07-1.27-.21s-.657-.322-.9-.535l.595-.68a2.76 2.76 0 0 0 .71.41c.266.103.555.155.865.155zm8.186.445c-.193.123-.425.223-.695.3s-.552.115-.845.115c-.613 0-1.08-.159-1.4-.475s-.475-.74-.475-1.26v-2.865h-1.175v-.815h1.175v-1.18l1.12-.135v1.315h1.78l-.125.815h-1.655v2.855c0 .283.07.495.21.635s.377.205.7.205c.193 0 .372-.024.535-.07s.312-.107.445-.18l.405.74zm-18.613 59v4.46h1.435v.82h-4.135v-.82h1.58v-3.64h-1.53v-.82h2.65zm-.78-2.585c.22 0 .396.066.53.2a.67.67 0 0 1 .205.5.69.69 0 0 1-.205.505.71.71 0 0 1-.53.205.71.71 0 0 1-.525-.205c-.137-.137-.205-.305-.205-.505s.068-.367.205-.5.311-.2.525-.2zm6.691.34l1.12.125v7.4h-.985l-.08-.65a1.94 1.94 0 0 1-.645.58 1.73 1.73 0 0 1-.84.205c-.454 0-.827-.115-1.12-.345s-.512-.559-.655-.975-.21-.905-.21-1.455c0-.537.083-1.014.25-1.43s.405-.75.715-.99.683-.36 1.12-.36c.276 0 .525.05.745.15a1.71 1.71 0 0 1 .585.425v-2.68zm-1.035 2.965a1 1 0 0 0-.88.47c-.21.31-.315.793-.315 1.45 0 .45.043.816.13 1.1s.211.486.375.62.36.195.59.195a1.04 1.04 0 0 0 .66-.22c.186-.147.345-.324.475-.53v-2.5c-.13-.187-.282-.33-.455-.43s-.367-.155-.58-.155zm-6.831 18.28c.023.36.1.655.23.885s.3.393.51.5a1.55 1.55 0 0 0 .7.16c.26 0 .5-.04.72-.12s.441-.194.665-.34l.485.67c-.247.2-.535.36-.865.48a3.08 3.08 0 0 1-1.06.18c-.547 0-1.01-.117-1.39-.35s-.664-.559-.86-.975-.295-.899-.295-1.445c0-.53.096-1.004.29-1.42a2.36 2.36 0 0 1 .83-.995c.36-.247.79-.37 1.29-.37.47 0 .873.106 1.21.32a2.08 2.08 0 0 1 .785.91c.186.39.28.86.28 1.41l-.01.27-.015.23h-3.5zm1.26-2.31a1.13 1.13 0 0 0-.87.375c-.227.25-.359.64-.395 1.17h2.445c-.01-.497-.117-.879-.32-1.145s-.487-.4-.86-.4zm7.146-.83a1.11 1.11 0 0 1 .54.13c.16.086.285.238.375.455s.14.52.14.91v3.925h-.995v-3.77c0-.277-.02-.475-.06-.595s-.135-.18-.295-.18a.73.73 0 0 0-.385.12c-.13.076-.262.21-.395.4v4.025h-.905v-3.77c0-.277-.02-.475-.06-.595s-.135-.18-.295-.18a.74.74 0 0 0-.39.12c-.127.076-.257.21-.39.4v4.025h-1v-5.28h.845l.075.57c.15-.21.313-.38.49-.51s.39-.2.64-.2c.2 0 .381.05.545.15s.283.275.36.525c.146-.2.313-.362.5-.485s.406-.19.66-.19zm6.091 4.125c0 .206.031.358.095.455s.165.163.305.21l-.25.76a1.64 1.64 0 0 1-.67-.215c-.187-.114-.329-.285-.425-.515-.194.243-.439.426-.735.55a2.46 2.46 0 0 1-.95.185c-.534 0-.957-.15-1.27-.45s-.465-.7-.465-1.19c0-.557.216-.985.65-1.285s1.053-.45 1.86-.45h.755v-.345c0-.34-.104-.585-.31-.735s-.492-.225-.865-.225c-.174 0-.384.023-.63.07s-.505.111-.775.205l-.275-.79c.33-.124.653-.214.97-.27s.61-.09.88-.09c.706 0 1.233.156 1.58.47s.525.746.525 1.3v2.355zm-2.29.605a1.36 1.36 0 0 0 .665-.18c.216-.12.391-.289.525-.505v-1.165h-.62c-.527 0-.904.088-1.13.265s-.34.413-.34.72c0 .28.075.495.225.645s.378.22.675.22zm6.836-4.59v4.46h1.435v.82h-4.135v-.82h1.58v-3.64h-1.53v-.82h2.65zm-.78-2.585c.22 0 .397.066.53.2s.205.3.205.5-.068.368-.205.505-.31.205-.53.205c-.213 0-.388-.069-.525-.205s-.205-.305-.205-.505.068-.367.205-.5.312-.2.525-.2zm5.911.465v5.96c0 .243.073.416.22.52s.343.15.58.15a1.85 1.85 0 0 0 .435-.05c.137-.034.27-.075.4-.125l.285.78c-.157.08-.35.15-.58.21s-.487.09-.78.09c-.53 0-.943-.149-1.24-.445s-.44-.71-.44-1.23v-5.035h-1.595v-.825h2.715zm-22.559 22.615a1.89 1.89 0 0 0 .69-.125 3.11 3.11 0 0 0 .61-.335l.52.72a2.8 2.8 0 0 1-.84.48 2.92 2.92 0 0 1-1.015.18c-.54 0-1.002-.114-1.385-.34a2.26 2.26 0 0 1-.88-.965c-.204-.414-.305-.895-.305-1.445 0-.537.101-1.015.305-1.435s.503-.757.89-1 .851-.37 1.395-.37c.36 0 .691.053.995.16s.581.265.835.475l-.515.705a2.53 2.53 0 0 0-.635-.325c-.214-.077-.434-.115-.66-.115-.417 0-.759.153-1.025.46s-.395.788-.395 1.445c0 .44.06.795.18 1.065s.291.461.505.585a1.46 1.46 0 0 0 .73.18zm3.201.785v-.8h.775v-3.685h-.775v-.795h1.63l.205 1.225c.196-.444.44-.78.73-1.01s.67-.35 1.13-.35c.156 0 .296.013.42.04s.251.055.375.095l-.335.96a2.3 2.3 0 0 0-.3-.065c-.094-.017-.197-.025-.31-.025a1.34 1.34 0 0 0-.995.43c-.277.286-.495.693-.655 1.22v1.96h1.065v.8h-2.96zm3.5-3.335v-1.3l.14-.645h.85l-.19 1.945h-.8zm3.076 1.055c.023.36.1.655.23.885s.3.393.51.5a1.55 1.55 0 0 0 .7.16c.26 0 .5-.04.72-.12s.441-.194.665-.34l.485.67c-.247.2-.535.36-.865.48a3.08 3.08 0 0 1-1.06.18c-.547 0-1.01-.117-1.39-.35s-.664-.559-.86-.975-.295-.899-.295-1.445c0-.53.096-1.004.29-1.42a2.36 2.36 0 0 1 .83-.995c.36-.247.79-.37 1.29-.37.47 0 .873.106 1.21.32a2.08 2.08 0 0 1 .785.91c.186.39.28.86.28 1.41l-.01.27-.015.23h-3.5zm1.26-2.31a1.13 1.13 0 0 0-.87.375c-.227.25-.359.64-.395 1.17h2.445c-.01-.497-.117-.879-.32-1.145s-.487-.4-.86-.4zm7.541 3.295c0 .206.032.358.095.455s.165.163.305.21l-.25.76c-.26-.03-.483-.102-.67-.215s-.328-.285-.425-.515a1.81 1.81 0 0 1-.735.55c-.297.123-.613.185-.95.185-.533 0-.957-.15-1.27-.45s-.465-.7-.465-1.19c0-.557.217-.985.65-1.285s1.053-.45 1.86-.45h.755v-.345c0-.34-.103-.585-.31-.735s-.492-.225-.865-.225c-.173 0-.383.023-.63.07s-.505.111-.775.205l-.275-.79c.33-.124.653-.214.97-.27a4.75 4.75 0 0 1 .88-.09c.707 0 1.233.156 1.58.47s.525.746.525 1.3v2.355zm-2.29.605c.227 0 .448-.06.665-.18a1.41 1.41 0 0 0 .525-.505v-1.165h-.62c-.527 0-.903.088-1.13.265s-.34.413-.34.72c0 .28.075.495.225.645s.378.22.675.22zm8.361.41c-.193.123-.425.223-.695.3s-.552.115-.845.115c-.613 0-1.08-.159-1.4-.475s-.475-.74-.475-1.26v-2.865h-1.175v-.815h1.175v-1.18l1.12-.135v1.315h1.78l-.125.815h-1.655v2.855c0 .283.07.495.21.635s.377.205.7.205c.193 0 .372-.024.535-.07s.312-.107.445-.18l.405.74zm2.216-2c.023.36.1.655.23.885s.3.393.51.5a1.55 1.55 0 0 0 .7.16c.26 0 .5-.04.72-.12s.442-.194.665-.34l.485.67c-.247.2-.535.36-.865.48s-.683.18-1.06.18c-.547 0-1.01-.117-1.39-.35s-.663-.559-.86-.975-.295-.899-.295-1.445c0-.53.097-1.004.29-1.42a2.36 2.36 0 0 1 .83-.995c.36-.247.79-.37 1.29-.37.47 0 .873.106 1.21.32s.602.516.785.91.28.86.28 1.41l-.01.27-.015.23h-3.5zm1.26-2.31a1.13 1.13 0 0 0-.87.375c-.227.25-.358.64-.395 1.17h2.445c-.01-.497-.117-.879-.32-1.145s-.487-.4-.86-.4zm6.606-2.935l1.12.125v7.4h-.985l-.08-.65a1.94 1.94 0 0 1-.645.58 1.73 1.73 0 0 1-.84.205c-.453 0-.826-.115-1.12-.345s-.511-.559-.655-.975-.21-.905-.21-1.455c0-.537.084-1.014.25-1.43s.405-.75.715-.99.684-.36 1.12-.36a1.78 1.78 0 0 1 .745.15 1.71 1.71 0 0 1 .585.425v-2.68zm-1.035 2.965a1 1 0 0 0-.88.47c-.21.31-.315.793-.315 1.45 0 .45.044.816.13 1.1s.212.486.375.62a.92.92 0 0 0 .59.195c.254 0 .474-.074.66-.22a2.08 2.08 0 0 0 .475-.53v-2.5c-.13-.187-.281-.33-.455-.43s-.366-.155-.58-.155zm3.241 6.39v-.925h5v.925h-5zm10.121-3.125c0 .206.032.358.095.455s.165.163.305.21l-.25.76c-.26-.03-.483-.102-.67-.215s-.328-.285-.425-.515a1.81 1.81 0 0 1-.735.55c-.296.123-.613.185-.95.185-.533 0-.956-.15-1.27-.45s-.465-.7-.465-1.19c0-.557.217-.985.65-1.285s1.054-.45 1.86-.45h.755v-.345c0-.34-.103-.585-.31-.735s-.491-.225-.865-.225c-.173 0-.383.023-.63.07s-.505.111-.775.205l-.275-.79a5.48 5.48 0 0 1 .97-.27 4.75 4.75 0 0 1 .88-.09c.707 0 1.234.156 1.58.47s.525.746.525 1.3v2.355zm-2.29.605c.227 0 .449-.06.665-.18a1.41 1.41 0 0 0 .525-.505v-1.165h-.62c-.526 0-.903.088-1.13.265s-.34.413-.34.72c0 .28.075.495.225.645s.379.22.675.22zm8.361.41c-.193.123-.425.223-.695.3a3.1 3.1 0 0 1-.845.115c-.613 0-1.08-.159-1.4-.475s-.475-.74-.475-1.26v-2.865h-1.175v-.815h1.175v-1.18l1.12-.135v1.315h1.78l-.125.815h-1.655v2.855c0 .283.07.495.21.635s.377.205.7.205c.194 0 .372-.024.535-.07s.312-.107.445-.18l.405.74z" fill="#00cc74"/><path d="M254.368 159.913v.915h-4.14v-.915h4.14zm0 1.975v.915h-4.14v-.915h4.14zm7.262 2.58v-.8h.775v-3.685h-.775v-.795h1.63l.205 1.225c.197-.444.44-.78.73-1.01s.67-.35 1.13-.35a1.97 1.97 0 0 1 .42.04 2.86 2.86 0 0 1 .375.095l-.335.96a2.3 2.3 0 0 0-.3-.065 1.74 1.74 0 0 0-.31-.025c-.383 0-.715.143-.995.43s-.495.693-.655 1.22v1.96h1.065v.8h-2.96zm3.5-3.335v-1.3l.14-.645h.85l-.19 1.945h-.8zm3.076 1.055c.023.36.1.655.23.885s.3.393.51.5a1.55 1.55 0 0 0 .7.16c.26 0 .5-.04.72-.12s.442-.194.665-.34l.485.67c-.247.2-.535.36-.865.48s-.683.18-1.06.18c-.547 0-1.01-.117-1.39-.35s-.663-.559-.86-.975-.295-.899-.295-1.445c0-.53.097-1.004.29-1.42a2.36 2.36 0 0 1 .83-.995c.36-.247.79-.37 1.29-.37.47 0 .873.106 1.21.32s.602.516.785.91.28.86.28 1.41l-.01.27-.015.23h-3.5zm1.26-2.31a1.13 1.13 0 0 0-.87.375c-.227.25-.358.64-.395 1.17h2.445c-.01-.497-.117-.879-.32-1.145s-.487-.4-.86-.4zm5.281-.83c.3 0 .567.056.8.17s.437.271.61.485l.07-.515h.965v7.435l-1.12-.125v-2.61c-.177.233-.387.411-.63.535s-.508.18-.805.18c-.463 0-.838-.115-1.125-.345s-.495-.554-.625-.97-.19-.904-.19-1.46c0-.537.078-1.014.235-1.43s.392-.75.695-.99.68-.36 1.12-.36zm.29.86a.96.96 0 0 0-.87.47c-.197.31-.295.793-.295 1.45 0 .45.04.815.12 1.095s.203.48.36.61.352.195.585.195c.25 0 .468-.07.655-.21s.35-.319.48-.525v-2.5c-.123-.187-.273-.33-.45-.43s-.368-.155-.585-.155zm4.751-.72v3.69c0 .313.062.536.185.67s.317.2.57.2a1.27 1.27 0 0 0 .695-.215c.224-.144.4-.319.53-.525v-3.82h1.12v5.28h-.965l-.07-.675c-.196.263-.445.465-.745.605s-.606.205-.92.205c-.51 0-.891-.14-1.145-.42s-.375-.672-.375-1.165v-3.83h1.12zm7.461 0v4.46h1.435v.82h-4.135v-.82h1.58v-3.64h-1.53v-.82h2.65zm-.78-2.585c.22 0 .397.066.53.2s.205.3.205.5-.068.368-.205.505-.31.205-.53.205c-.213 0-.388-.069-.525-.205a.69.69 0 0 1-.205-.505.67.67 0 0 1 .205-.5c.137-.134.312-.2.525-.2zm3.641 7.865v-.8h.775v-3.685h-.775v-.795h1.63l.205 1.225c.197-.444.44-.78.73-1.01s.67-.35 1.13-.35a1.97 1.97 0 0 1 .42.04 2.86 2.86 0 0 1 .375.095l-.335.96a2.23 2.23 0 0 0-.3-.065 1.73 1.73 0 0 0-.31-.025c-.383 0-.715.143-.995.43s-.495.693-.655 1.22v1.96h1.065v.8h-2.96zm3.5-3.335v-1.3l.14-.645h.85l-.19 1.945h-.8zm3.077 1.055c.023.36.1.655.23.885s.3.393.51.5a1.55 1.55 0 0 0 .7.16c.26 0 .5-.04.72-.12s.441-.194.665-.34l.485.67c-.247.2-.535.36-.865.48a3.08 3.08 0 0 1-1.06.18c-.547 0-1.01-.117-1.39-.35s-.664-.559-.86-.975-.295-.899-.295-1.445c0-.53.096-1.004.29-1.42a2.36 2.36 0 0 1 .83-.995c.36-.247.79-.37 1.29-.37.47 0 .873.106 1.21.32a2.08 2.08 0 0 1 .785.91c.186.39.28.86.28 1.41l-.01.27-.015.23h-3.5zm1.26-2.31a1.13 1.13 0 0 0-.87.375c-.227.25-.359.64-.395 1.17h2.445c-.01-.497-.117-.879-.32-1.145s-.487-.4-.86-.4zm4.926 1.09c0 .48.038.915.115 1.305a4.48 4.48 0 0 0 .37 1.085 5.46 5.46 0 0 0 .635.98c.26.32.568.651.925.995l-.62.6c-.537-.447-.999-.91-1.385-1.39a5.38 5.38 0 0 1-.885-1.585c-.207-.58-.31-1.244-.31-1.99s.103-1.415.31-1.995a5.37 5.37 0 0 1 .885-1.585c.386-.48.848-.942 1.385-1.385l.62.6c-.35.336-.655.665-.915.985a5.43 5.43 0 0 0-.64.98c-.167.336-.29.7-.37 1.09s-.12.826-.12 1.31zm92.517 0c0-.484-.04-.92-.12-1.31s-.205-.754-.375-1.09-.38-.664-.64-.98-.56-.649-.91-.985l.62-.6a9.44 9.44 0 0 1 1.38 1.385c.387.476.683 1.005.89 1.585s.31 1.245.31 1.995-.103 1.41-.31 1.99a5.35 5.35 0 0 1-.89 1.585c-.383.48-.843.943-1.38 1.39l-.62-.6a10.7 10.7 0 0 0 .92-.995c.26-.32.473-.647.64-.98s.288-.699.365-1.085.12-.825.12-1.305zm-217.851 13.48v2.075h2.5v.88h-2.5v2.185h3.045v.88h-4.205v-6.9h4.15l-.13.88h-2.86zm4.296 6.02v-5.28h.965l.085.685c.22-.27.48-.475.78-.615s.608-.21.925-.21c.493 0 .861.138 1.105.415s.37.658.37 1.155v3.85h-1.12v-3.295a4.04 4.04 0 0 0-.055-.74c-.037-.187-.11-.322-.22-.405s-.267-.125-.48-.125a1.1 1.1 0 0 0-.485.11 1.6 1.6 0 0 0-.42.29 2.23 2.23 0 0 0-.33.375v3.79h-1.12zm10.141-5.95l.3.93c-.21.07-.442.116-.695.14s-.53.035-.84.035c.316.14.555.32.715.54s.24.483.24.8c0 .343-.084.65-.25.92a1.71 1.71 0 0 1-.715.635c-.31.153-.682.23-1.115.23a3.54 3.54 0 0 1-.4-.02c-.11-.014-.219-.035-.325-.065a.57.57 0 0 0-.17.19.48.48 0 0 0-.065.245.37.37 0 0 0 .13.28c.09.076.266.115.53.115h.92a2.39 2.39 0 0 1 .995.195c.29.126.516.301.68.525s.25.47.25.75c0 .526-.227.935-.68 1.225s-1.107.435-1.96.435c-.604 0-1.077-.062-1.42-.185s-.585-.307-.725-.55-.21-.542-.21-.895h1.005c0 .183.035.335.105.455s.208.21.405.27.48.09.85.09.663-.032.88-.095.378-.149.475-.265a.6.6 0 0 0 .15-.41.55.55 0 0 0-.28-.495c-.187-.117-.437-.175-.75-.175h-.905c-.5 0-.867-.102-1.1-.305s-.345-.44-.345-.71c0-.18.05-.354.15-.52s.25-.312.44-.435c-.317-.167-.549-.369-.695-.605s-.215-.53-.215-.87a1.72 1.72 0 0 1 .28-.98c.186-.28.445-.499.775-.655s.716-.235 1.15-.235c.423 0 .776-.022 1.06-.065a3.65 3.65 0 0 0 .74-.195l.635-.275zm-2.425 1.305c-.357 0-.625.101-.805.305s-.27.461-.27.785c0 .333.091.601.275.805s.458.3.815.3c.33 0 .581-.097.755-.29s.265-.469.265-.825-.087-.63-.26-.81-.432-.27-.775-.27zm7.711 3.35c0 .206.031.358.095.455s.165.163.305.21l-.25.76a1.64 1.64 0 0 1-.67-.215c-.187-.114-.329-.285-.425-.515-.194.243-.439.426-.735.55a2.46 2.46 0 0 1-.95.185c-.534 0-.957-.15-1.27-.45s-.465-.7-.465-1.19c0-.557.216-.985.65-1.285s1.053-.45 1.86-.45h.755v-.345c0-.34-.104-.585-.31-.735s-.492-.225-.865-.225c-.174 0-.384.023-.63.07s-.505.111-.775.205l-.275-.79c.33-.124.653-.214.97-.27s.61-.09.88-.09c.706 0 1.233.156 1.58.47s.525.746.525 1.3v2.355zm-2.29.605a1.36 1.36 0 0 0 .665-.18c.216-.12.391-.289.525-.505v-1.165h-.62c-.527 0-.904.088-1.13.265s-.34.413-.34.72c0 .28.075.495.225.645s.378.22.675.22zm8.396-5.26l.3.93c-.21.07-.442.116-.695.14s-.53.035-.84.035c.317.14.555.32.715.54s.24.483.24.8c0 .343-.083.65-.25.92a1.71 1.71 0 0 1-.715.635c-.31.153-.682.23-1.115.23-.153 0-.287-.007-.4-.02s-.218-.035-.325-.065c-.067.046-.123.11-.17.19a.49.49 0 0 0-.065.245.37.37 0 0 0 .13.28c.09.076.267.115.53.115h.92c.377 0 .708.065.995.195s.517.301.68.525.25.47.25.75c0 .526-.227.935-.68 1.225s-1.107.435-1.96.435c-.603 0-1.077-.062-1.42-.185s-.585-.307-.725-.55-.21-.542-.21-.895h1.005c0 .183.035.335.105.455s.208.21.405.27.48.09.85.09.663-.032.88-.095.378-.149.475-.265a.6.6 0 0 0 .15-.41.55.55 0 0 0-.28-.495c-.187-.117-.437-.175-.75-.175h-.905c-.5 0-.867-.102-1.1-.305s-.345-.44-.345-.71c0-.18.05-.354.15-.52s.25-.312.44-.435c-.317-.167-.548-.369-.695-.605a1.67 1.67 0 0 1-.215-.87 1.72 1.72 0 0 1 .28-.98 1.87 1.87 0 0 1 .775-.655c.333-.157.717-.235 1.15-.235.423 0 .777-.022 1.06-.065a3.65 3.65 0 0 0 .74-.195l.635-.275zm-2.425 1.305c-.357 0-.625.101-.805.305s-.27.461-.27.785c0 .333.092.601.275.805s.458.3.815.3c.33 0 .582-.097.755-.29s.265-.469.265-.825-.087-.63-.26-.81-.432-.27-.775-.27zm4.606 2.365c.023.36.1.655.23.885s.3.393.51.5a1.55 1.55 0 0 0 .7.16c.26 0 .5-.04.72-.12s.442-.194.665-.34l.485.67c-.247.2-.535.36-.865.48s-.683.18-1.06.18c-.547 0-1.01-.117-1.39-.35s-.663-.559-.86-.975-.295-.899-.295-1.445c0-.53.097-1.004.29-1.42a2.36 2.36 0 0 1 .83-.995c.36-.247.79-.37 1.29-.37.47 0 .873.106 1.21.32s.602.516.785.91.28.86.28 1.41l-.01.27-.015.23h-3.5zm1.26-2.31a1.13 1.13 0 0 0-.87.375c-.227.25-.358.64-.395 1.17h2.445c-.01-.497-.117-.879-.32-1.145s-.487-.4-.86-.4zm4.646 3.755a.95.95 0 0 1 .125-.485.97.97 0 0 1 .35-.35c.147-.087.31-.13.49-.13s.348.043.495.13.262.203.345.35.13.305.13.485a.96.96 0 0 1-.13.49.94.94 0 0 1-.345.35c-.147.086-.312.13-.495.13a.95.95 0 0 1-.49-.13c-.147-.087-.263-.204-.35-.35s-.125-.314-.125-.49zm7.441-4.445v4.46h1.435v.82h-4.135v-.82h1.58v-3.64h-1.53v-.82h2.65zm-.78-2.585c.22 0 .397.066.53.2s.205.3.205.5-.068.368-.205.505-.31.205-.53.205c-.213 0-.388-.069-.525-.205a.69.69 0 0 1-.205-.505.67.67 0 0 1 .205-.5c.137-.134.312-.2.525-.2zm3.591 7.865v-5.28h.965l.085.685c.22-.27.48-.475.78-.615s.609-.21.925-.21c.494 0 .862.138 1.105.415s.37.658.37 1.155v3.85h-1.12v-3.295c0-.307-.018-.554-.055-.74s-.11-.322-.22-.405-.266-.125-.48-.125c-.17 0-.331.036-.485.11s-.293.17-.42.29a2.32 2.32 0 0 0-.33.375v3.79h-1.12zm8.581-5.28v4.46h1.435v.82h-4.135v-.82h1.58v-3.64h-1.53v-.82h2.65zm-.78-2.585c.22 0 .397.066.53.2s.205.3.205.5-.068.368-.205.505-.31.205-.53.205c-.213 0-.388-.069-.525-.205a.69.69 0 0 1-.205-.505.67.67 0 0 1 .205-.5c.137-.134.312-.2.525-.2zm8.001 7.585c-.193.123-.425.223-.695.3a3.1 3.1 0 0 1-.845.115c-.613 0-1.08-.159-1.4-.475s-.475-.74-.475-1.26v-2.865h-1.175v-.815h1.175v-1.18l1.12-.135v1.315h1.78l-.125.815h-1.655v2.855c0 .283.07.495.21.635s.377.205.7.205c.194 0 .372-.024.535-.07s.312-.107.445-.18l.405.74zm2.707-3.22c0 .48.038.915.115 1.305a4.48 4.48 0 0 0 .37 1.085 5.46 5.46 0 0 0 .635.98c.26.32.568.651.925.995l-.62.6c-.537-.447-.999-.91-1.385-1.39a5.38 5.38 0 0 1-.885-1.585c-.207-.58-.31-1.244-.31-1.99s.103-1.415.31-1.995a5.37 5.37 0 0 1 .885-1.585c.386-.48.848-.942 1.385-1.385l.62.6c-.35.336-.655.665-.915.985a5.43 5.43 0 0 0-.64.98c-.167.336-.29.7-.37 1.09s-.12.826-.12 1.31zm58.341 0c0-.484-.04-.92-.12-1.31s-.205-.754-.375-1.09-.38-.664-.64-.98-.56-.649-.91-.985l.62-.6a9.54 9.54 0 0 1 1.38 1.385 5.36 5.36 0 0 1 .89 1.585c.206.58.31 1.245.31 1.995s-.104 1.41-.31 1.99a5.37 5.37 0 0 1-.89 1.585c-.384.48-.844.943-1.38 1.39l-.62-.6a10.84 10.84 0 0 0 .92-.995c.26-.32.473-.647.64-.98s.288-.699.365-1.085.12-.825.12-1.305zm-115.876 18.665c0-.18.043-.342.13-.485s.198-.264.345-.35a.94.94 0 0 1 .49-.13c.183 0 .348.043.495.13a.98.98 0 0 1 .35.35.95.95 0 0 1 .125.485c0 .176-.042.34-.125.49s-.204.263-.35.35-.312.13-.495.13a.95.95 0 0 1-.49-.13.94.94 0 0 1-.345-.35.96.96 0 0 1-.13-.49zm4 0a.94.94 0 0 1 .125-.485c.086-.147.203-.264.35-.35a.94.94 0 0 1 .49-.13c.183 0 .348.043.495.13a.94.94 0 0 1 .345.35c.086.143.13.305.13.485a.97.97 0 0 1-.13.49c-.084.146-.199.263-.345.35s-.312.13-.495.13a.95.95 0 0 1-.49-.13.98.98 0 0 1-.35-.35c-.084-.15-.125-.314-.125-.49zm-8 0c0-.18.043-.342.13-.485s.198-.264.345-.35a.94.94 0 0 1 .49-.13c.183 0 .348.043.495.13a.98.98 0 0 1 .35.35.95.95 0 0 1 .125.485c0 .176-.042.34-.125.49s-.204.263-.35.35-.312.13-.495.13a.95.95 0 0 1-.49-.13.94.94 0 0 1-.345-.35.96.96 0 0 1-.13-.49zm-1.142 10.815v2.075h2.5v.88h-2.5v2.185h3.045v.88h-4.205v-6.9h4.15l-.13.88h-2.86zm4.296 6.02v-5.28h.965l.085.685c.22-.27.48-.475.78-.615s.608-.21.925-.21c.493 0 .861.138 1.105.415s.37.658.37 1.155v3.85h-1.12v-3.295a4.04 4.04 0 0 0-.055-.74c-.037-.187-.11-.322-.22-.405s-.267-.125-.48-.125a1.1 1.1 0 0 0-.485.11 1.6 1.6 0 0 0-.42.29 2.23 2.23 0 0 0-.33.375v3.79h-1.12zm10.141-5.95l.3.93c-.21.07-.442.116-.695.14s-.53.035-.84.035c.316.14.555.32.715.54s.24.483.24.8c0 .343-.084.65-.25.92a1.71 1.71 0 0 1-.715.635c-.31.153-.682.23-1.115.23a3.54 3.54 0 0 1-.4-.02c-.11-.014-.219-.035-.325-.065a.57.57 0 0 0-.17.19.48.48 0 0 0-.065.245.37.37 0 0 0 .13.28c.09.076.266.115.53.115h.92a2.39 2.39 0 0 1 .995.195c.29.126.516.301.68.525s.25.47.25.75c0 .526-.227.935-.68 1.225s-1.107.435-1.96.435c-.604 0-1.077-.062-1.42-.185s-.585-.307-.725-.55-.21-.542-.21-.895h1.005c0 .183.035.335.105.455s.208.21.405.27.48.09.85.09.663-.032.88-.095.378-.149.475-.265a.6.6 0 0 0 .15-.41.55.55 0 0 0-.28-.495c-.187-.117-.437-.175-.75-.175h-.905c-.5 0-.867-.102-1.1-.305s-.345-.44-.345-.71c0-.18.05-.354.15-.52s.25-.312.44-.435c-.317-.167-.549-.369-.695-.605s-.215-.53-.215-.87a1.72 1.72 0 0 1 .28-.98c.186-.28.445-.499.775-.655s.716-.235 1.15-.235c.423 0 .776-.022 1.06-.065a3.65 3.65 0 0 0 .74-.195l.635-.275zm-2.425 1.305c-.357 0-.625.101-.805.305s-.27.461-.27.785c0 .333.091.601.275.805s.458.3.815.3c.33 0 .581-.097.755-.29s.265-.469.265-.825-.087-.63-.26-.81-.432-.27-.775-.27zm7.711 3.35c0 .206.031.358.095.455s.165.163.305.21l-.25.76a1.64 1.64 0 0 1-.67-.215c-.187-.114-.329-.285-.425-.515-.194.243-.439.426-.735.55a2.46 2.46 0 0 1-.95.185c-.534 0-.957-.15-1.27-.45s-.465-.7-.465-1.19c0-.557.216-.985.65-1.285s1.053-.45 1.86-.45h.755v-.345c0-.34-.104-.585-.31-.735s-.492-.225-.865-.225c-.174 0-.384.023-.63.07s-.505.111-.775.205l-.275-.79c.33-.124.653-.214.97-.27s.61-.09.88-.09c.706 0 1.233.156 1.58.47s.525.746.525 1.3v2.355zm-2.29.605a1.36 1.36 0 0 0 .665-.18c.216-.12.391-.289.525-.505v-1.165h-.62c-.527 0-.904.088-1.13.265s-.34.413-.34.72c0 .28.075.495.225.645s.378.22.675.22zm8.396-5.26l.3.93c-.21.07-.442.116-.695.14s-.53.035-.84.035c.317.14.555.32.715.54s.24.483.24.8c0 .343-.083.65-.25.92a1.71 1.71 0 0 1-.715.635c-.31.153-.682.23-1.115.23-.153 0-.287-.007-.4-.02s-.218-.035-.325-.065c-.067.046-.123.11-.17.19a.49.49 0 0 0-.065.245.37.37 0 0 0 .13.28c.09.076.267.115.53.115h.92c.377 0 .708.065.995.195s.517.301.68.525.25.47.25.75c0 .526-.227.935-.68 1.225s-1.107.435-1.96.435c-.603 0-1.077-.062-1.42-.185s-.585-.307-.725-.55-.21-.542-.21-.895h1.005c0 .183.035.335.105.455s.208.21.405.27.48.09.85.09.663-.032.88-.095.378-.149.475-.265a.6.6 0 0 0 .15-.41.55.55 0 0 0-.28-.495c-.187-.117-.437-.175-.75-.175h-.905c-.5 0-.867-.102-1.1-.305s-.345-.44-.345-.71c0-.18.05-.354.15-.52s.25-.312.44-.435c-.317-.167-.548-.369-.695-.605a1.67 1.67 0 0 1-.215-.87 1.72 1.72 0 0 1 .28-.98 1.87 1.87 0 0 1 .775-.655c.333-.157.717-.235 1.15-.235.423 0 .777-.022 1.06-.065a3.65 3.65 0 0 0 .74-.195l.635-.275zm-2.425 1.305c-.357 0-.625.101-.805.305s-.27.461-.27.785c0 .333.092.601.275.805s.458.3.815.3c.33 0 .582-.097.755-.29s.265-.469.265-.825-.087-.63-.26-.81-.432-.27-.775-.27zm4.606 2.365c.023.36.1.655.23.885s.3.393.51.5a1.55 1.55 0 0 0 .7.16c.26 0 .5-.04.72-.12s.442-.194.665-.34l.485.67c-.247.2-.535.36-.865.48s-.683.18-1.06.18c-.547 0-1.01-.117-1.39-.35s-.663-.559-.86-.975-.295-.899-.295-1.445c0-.53.097-1.004.29-1.42a2.36 2.36 0 0 1 .83-.995c.36-.247.79-.37 1.29-.37.47 0 .873.106 1.21.32s.602.516.785.91.28.86.28 1.41l-.01.27-.015.23h-3.5zm1.26-2.31a1.13 1.13 0 0 0-.87.375c-.227.25-.358.64-.395 1.17h2.445c-.01-.497-.117-.879-.32-1.145s-.487-.4-.86-.4zm4.646 3.755a.95.95 0 0 1 .125-.485.97.97 0 0 1 .35-.35c.147-.087.31-.13.49-.13s.348.043.495.13.262.203.345.35.13.305.13.485a.96.96 0 0 1-.13.49.94.94 0 0 1-.345.35c-.147.086-.312.13-.495.13a.95.95 0 0 1-.49-.13c-.147-.087-.263-.204-.35-.35s-.125-.314-.125-.49zm7.441-4.445v4.46h1.435v.82h-4.135v-.82h1.58v-3.64h-1.53v-.82h2.65zm-.78-2.585c.22 0 .397.066.53.2s.205.3.205.5-.068.368-.205.505-.31.205-.53.205c-.213 0-.388-.069-.525-.205a.69.69 0 0 1-.205-.505.67.67 0 0 1 .205-.5c.137-.134.312-.2.525-.2zm6.691.34l1.12.125v7.4h-.985l-.08-.65a1.94 1.94 0 0 1-.645.58 1.73 1.73 0 0 1-.84.205c-.453 0-.826-.115-1.12-.345s-.511-.559-.655-.975-.21-.905-.21-1.455c0-.537.084-1.014.25-1.43s.405-.75.715-.99.684-.36 1.12-.36a1.78 1.78 0 0 1 .745.15 1.71 1.71 0 0 1 .585.425v-2.68zm-1.035 2.965a1 1 0 0 0-.88.47c-.21.31-.315.793-.315 1.45 0 .45.044.816.13 1.1s.212.486.375.62a.92.92 0 0 0 .59.195c.254 0 .474-.074.66-.22a2.08 2.08 0 0 0 .475-.53v-2.5c-.13-.187-.281-.33-.455-.43s-.366-.155-.58-.155zm4.561 2.28c.024.36.1.655.23.885s.3.393.51.5.447.16.7.16c.26 0 .5-.04.72-.12s.442-.194.665-.34l.485.67c-.246.2-.535.36-.865.48s-.683.18-1.06.18c-.546 0-1.01-.117-1.39-.35a2.26 2.26 0 0 1-.86-.975c-.196-.417-.295-.899-.295-1.445 0-.53.097-1.004.29-1.42s.47-.752.83-.995.79-.37 1.29-.37c.47 0 .874.106 1.21.32s.602.516.785.91.28.86.28 1.41l-.01.27-.015.23h-3.5zm1.26-2.31a1.13 1.13 0 0 0-.87.375c-.226.25-.358.64-.395 1.17h2.445c-.01-.497-.116-.879-.32-1.145s-.486-.4-.86-.4zm3.506 4.59v-5.28h.965l.085.685c.22-.27.48-.475.78-.615s.609-.21.925-.21c.494 0 .862.138 1.105.415s.37.658.37 1.155v3.85h-1.12v-3.295c0-.307-.018-.554-.055-.74s-.11-.322-.22-.405-.266-.125-.48-.125c-.17 0-.331.036-.485.11s-.293.17-.42.29a2.32 2.32 0 0 0-.33.375v3.79h-1.12zm10.107-.28c-.194.123-.425.223-.695.3s-.552.115-.845.115c-.614 0-1.08-.159-1.4-.475s-.475-.74-.475-1.26v-2.865h-1.175v-.815h1.175v-1.18l1.12-.135v1.315h1.78l-.125.815h-1.655v2.855c0 .283.07.495.21.635s.376.205.7.205c.193 0 .371-.024.535-.07a2.2 2.2 0 0 0 .445-.18l.405.74zm4.171-5v4.46h1.435v.82h-4.135v-.82h1.58v-3.64h-1.53v-.82h2.65zm-.78-2.585c.22 0 .396.066.53.2a.67.67 0 0 1 .205.5.69.69 0 0 1-.205.505.71.71 0 0 1-.53.205.71.71 0 0 1-.525-.205c-.137-.137-.205-.305-.205-.505s.068-.367.205-.5.311-.2.525-.2zm6.801.34c.323 0 .611.028.865.085a3.64 3.64 0 0 1 .71.22l-.33.775c-.177-.074-.362-.127-.555-.16a3.29 3.29 0 0 0-.58-.05c-.347 0-.604.066-.77.2s-.25.336-.25.62v.935h1.765l-.12.825h-1.645v4.075h-1.115v-4.075h-1.2v-.825h1.2v-.945c0-.334.083-.625.25-.875a1.67 1.67 0 0 1 .71-.59c.303-.144.658-.215 1.065-.215zm7.106 2.245l-1.82 5.3c-.137.4-.312.751-.525 1.055a2.44 2.44 0 0 1-.82.74c-.333.186-.747.301-1.24.345l-.145-.84c.357-.057.64-.14.85-.25a1.33 1.33 0 0 0 .505-.425 2.86 2.86 0 0 0 .335-.645h-.38l-1.78-5.28h1.19l1.33 4.5 1.35-4.5h1.15zm2.496 1.78c0 .48.038.915.115 1.305a4.48 4.48 0 0 0 .37 1.085c.167.333.378.66.635.98s.568.651.925.995l-.62.6c-.537-.447-.998-.91-1.385-1.39s-.678-1.005-.885-1.585-.31-1.244-.31-1.99.103-1.415.31-1.995.502-1.109.885-1.585.848-.942 1.385-1.385l.62.6c-.35.336-.655.665-.915.985a5.43 5.43 0 0 0-.64.98c-.167.336-.29.7-.37 1.09s-.12.826-.12 1.31zm7.956-4.87v.825c-.227 0-.43.021-.61.065s-.313.118-.41.225-.13.255-.11.445l.185 1.835c.033.313.007.571-.08.775s-.218.355-.405.465a2.03 2.03 0 0 1-.685.235c.28.046.513.123.7.23s.32.255.4.455.103.463.07.79l-.185 1.835c-.02.19.017.338.11.445s.233.185.41.225a2.63 2.63 0 0 0 .61.065v.825a4.88 4.88 0 0 1-.945-.085c-.28-.054-.518-.144-.715-.27s-.335-.299-.425-.515-.113-.479-.08-.795l.185-1.725c.023-.237-.008-.43-.095-.58s-.235-.267-.455-.34-.523-.11-.91-.11v-.9c.383 0 .685-.035.905-.105s.377-.185.46-.335.118-.349.095-.585l-.185-1.725c-.033-.32-.007-.589.08-.805a1.08 1.08 0 0 1 .425-.51 1.99 1.99 0 0 1 .715-.27c.283-.057.598-.085.945-.085zm-76.524 23.6c0-.244.086-.452.26-.625a.86.86 0 0 1 .64-.265.85.85 0 0 1 .9.89.88.88 0 0 1-.26.64c-.17.176-.384.265-.64.265a.86.86 0 0 1-.64-.265.88.88 0 0 1-.26-.64zm0-3.55a.87.87 0 0 1 .12-.45.89.89 0 0 1 .325-.325.88.88 0 0 1 .455-.12.85.85 0 0 1 .64.265.86.86 0 0 1 .26.63c0 .246-.087.46-.26.64s-.384.265-.64.265a.86.86 0 0 1-.64-.265.89.89 0 0 1-.26-.64zm57.866 2.52a.88.88 0 0 1 .655.265.87.87 0 0 1 .26.64c0 .15-.024.301-.07.455a4.34 4.34 0 0 1-.215.555l-.775 1.77h-.87l.49-2.03c-.12-.084-.214-.19-.28-.32a.96.96 0 0 1-.1-.435.86.86 0 0 1 .26-.635c.173-.177.388-.265.645-.265zm-40.778 17.03a.85.85 0 0 1 .26-.625.86.86 0 0 1 .64-.265.85.85 0 0 1 .9.89.88.88 0 0 1-.26.64c-.17.176-.383.265-.64.265s-.467-.089-.64-.265a.88.88 0 0 1-.26-.64zm0-3.55a.87.87 0 0 1 .12-.45.89.89 0 0 1 .325-.325c.137-.08.288-.12.455-.12a.85.85 0 0 1 .64.265.86.86 0 0 1 .26.63c0 .246-.087.46-.26.64s-.383.265-.64.265-.467-.089-.64-.265-.26-.394-.26-.64zm109.131 2.52c.263 0 .482.088.655.265a.87.87 0 0 1 .26.64 1.55 1.55 0 0 1-.07.455c-.043.15-.115.335-.215.555l-.775 1.77h-.87l.49-2.03a.87.87 0 0 1-.28-.32.96.96 0 0 1-.1-.435c0-.25.087-.462.26-.635s.388-.265.645-.265zm-80.65 17.03c0-.244.086-.452.26-.625a.86.86 0 0 1 .64-.265.85.85 0 0 1 .9.89.88.88 0 0 1-.26.64c-.17.176-.384.265-.64.265a.86.86 0 0 1-.64-.265.88.88 0 0 1-.26-.64zm0-3.55a.87.87 0 0 1 .12-.45.89.89 0 0 1 .325-.325.88.88 0 0 1 .455-.12.85.85 0 0 1 .64.265.86.86 0 0 1 .26.63c0 .246-.087.46-.26.64s-.384.265-.64.265a.86.86 0 0 1-.64-.265.89.89 0 0 1-.26-.64zm11.852-.405l-.165-2.675h1.22l-.17 2.675h-.885zm-75.174 12.355c.346 0 .66.028.94.085s.521.143.715.27a1.1 1.1 0 0 1 .43.515c.09.213.116.478.08.795l-.185 1.73c-.024.236.011.431.105.585s.256.261.48.335.515.105.875.105v.9c-.36 0-.652.036-.875.11s-.384.186-.48.34-.129.343-.105.58l.185 1.72c.033.32.005.588-.085.805s-.229.386-.425.51-.432.216-.715.27-.594.085-.94.085v-.825c.226 0 .428-.022.605-.065s.316-.115.41-.225.135-.255.115-.445l-.185-1.835c-.034-.327-.009-.59.075-.79s.228-.352.425-.455.443-.182.74-.225c-.297-.047-.544-.125-.74-.235a.98.98 0 0 1-.425-.47c-.084-.2-.109-.459-.075-.775l.185-1.835c.02-.19-.019-.339-.115-.445s-.229-.182-.405-.225a2.54 2.54 0 0 0-.61-.065v-.825zm7.956 4.87c0-.484-.04-.92-.12-1.31s-.205-.754-.375-1.09-.38-.664-.64-.98-.56-.649-.91-.985l.62-.6a9.54 9.54 0 0 1 1.38 1.385 5.36 5.36 0 0 1 .89 1.585c.206.58.31 1.245.31 1.995s-.104 1.41-.31 1.99a5.37 5.37 0 0 1-.89 1.585c-.384.48-.844.943-1.38 1.39l-.62-.6a10.84 10.84 0 0 0 .92-.995c.26-.32.473-.647.64-.98s.288-.699.365-1.085.12-.825.12-1.305z" fill="#000"/><path d="M211.715 158.448v2.075h2.5v.88h-2.5v2.185h3.045v.88h-4.205v-6.9h4.15l-.13.88h-2.86zm4.296 6.02v-5.28h.965l.085.685c.22-.27.48-.475.78-.615s.609-.21.925-.21c.494 0 .862.138 1.105.415s.37.658.37 1.155v3.85h-1.12v-3.295c0-.307-.018-.554-.055-.74s-.11-.322-.22-.405-.266-.125-.48-.125c-.17 0-.331.036-.485.11s-.293.17-.42.29a2.32 2.32 0 0 0-.33.375v3.79h-1.12zm10.141-5.95l.3.93a3.12 3.12 0 0 1-.695.14c-.25.023-.53.035-.84.035.317.14.555.32.715.54s.24.483.24.8c0 .343-.083.65-.25.92s-.405.481-.715.635-.681.23-1.115.23c-.153 0-.286-.007-.4-.02s-.218-.035-.325-.065c-.066.046-.123.11-.17.19a.49.49 0 0 0-.065.245c0 .106.044.2.13.28s.267.115.53.115h.92c.377 0 .709.065.995.195s.517.301.68.525.25.47.25.75c0 .526-.226.935-.68 1.225s-1.106.435-1.96.435c-.603 0-1.076-.062-1.42-.185s-.585-.307-.725-.55-.21-.542-.21-.895h1.005c0 .183.035.335.105.455s.209.21.405.27.48.09.85.09.664-.032.88-.095.379-.149.475-.265a.6.6 0 0 0 .15-.41.55.55 0 0 0-.28-.495c-.186-.117-.436-.175-.75-.175h-.905c-.5 0-.866-.102-1.1-.305s-.345-.44-.345-.71c0-.18.05-.354.15-.52s.25-.312.44-.435c-.316-.167-.548-.369-.695-.605a1.67 1.67 0 0 1-.215-.87c0-.374.094-.7.28-.98a1.87 1.87 0 0 1 .775-.655c.334-.157.717-.235 1.15-.235.424 0 .777-.022 1.06-.065s.53-.112.74-.195l.635-.275zm-2.425 1.305c-.356 0-.625.101-.805.305s-.27.461-.27.785c0 .333.092.601.275.805s.459.3.815.3c.33 0 .582-.097.755-.29s.265-.469.265-.825-.086-.63-.26-.81-.431-.27-.775-.27zm7.711 3.35c0 .206.032.358.095.455s.165.163.305.21l-.25.76c-.26-.03-.483-.102-.67-.215s-.328-.285-.425-.515a1.81 1.81 0 0 1-.735.55c-.296.123-.613.185-.95.185-.533 0-.956-.15-1.27-.45s-.465-.7-.465-1.19c0-.557.217-.985.65-1.285s1.054-.45 1.86-.45h.755v-.345c0-.34-.103-.585-.31-.735s-.491-.225-.865-.225c-.173 0-.383.023-.63.07s-.505.111-.775.205l-.275-.79a5.48 5.48 0 0 1 .97-.27 4.75 4.75 0 0 1 .88-.09c.707 0 1.234.156 1.58.47s.525.746.525 1.3v2.355zm-2.29.605c.227 0 .449-.06.665-.18a1.41 1.41 0 0 0 .525-.505v-1.165h-.62c-.526 0-.903.088-1.13.265s-.34.413-.34.72c0 .28.075.495.225.645s.379.22.675.22zm8.396-5.26l.3.93a3.12 3.12 0 0 1-.695.14c-.25.023-.53.035-.84.035.317.14.555.32.715.54s.24.483.24.8c0 .343-.083.65-.25.92s-.405.481-.715.635-.681.23-1.115.23c-.153 0-.286-.007-.4-.02s-.218-.035-.325-.065c-.066.046-.123.11-.17.19a.49.49 0 0 0-.065.245c0 .106.044.2.13.28s.267.115.53.115h.92c.377 0 .709.065.995.195s.517.301.68.525.25.47.25.75c0 .526-.226.935-.68 1.225s-1.106.435-1.96.435c-.603 0-1.076-.062-1.42-.185s-.585-.307-.725-.55-.21-.542-.21-.895h1.005c0 .183.035.335.105.455s.209.21.405.27.48.09.85.09.664-.032.88-.095.379-.149.475-.265a.6.6 0 0 0 .15-.41.55.55 0 0 0-.28-.495c-.186-.117-.436-.175-.75-.175h-.905c-.5 0-.866-.102-1.1-.305s-.345-.44-.345-.71c0-.18.05-.354.15-.52s.25-.312.44-.435c-.316-.167-.548-.369-.695-.605a1.67 1.67 0 0 1-.215-.87c0-.374.094-.7.28-.98a1.87 1.87 0 0 1 .775-.655c.334-.157.717-.235 1.15-.235.424 0 .777-.022 1.06-.065s.53-.112.74-.195l.635-.275zm-2.425 1.305c-.356 0-.625.101-.805.305s-.27.461-.27.785c0 .333.092.601.275.805s.459.3.815.3c.33 0 .582-.097.755-.29s.265-.469.265-.825-.086-.63-.26-.81-.431-.27-.775-.27zm4.607 2.365c.023.36.1.655.23.885s.3.393.51.5a1.55 1.55 0 0 0 .7.16c.26 0 .5-.04.72-.12s.441-.194.665-.34l.485.67c-.247.2-.535.36-.865.48a3.08 3.08 0 0 1-1.06.18c-.547 0-1.01-.117-1.39-.35s-.664-.559-.86-.975-.295-.899-.295-1.445c0-.53.096-1.004.29-1.42a2.36 2.36 0 0 1 .83-.995c.36-.247.79-.37 1.29-.37.47 0 .873.106 1.21.32a2.08 2.08 0 0 1 .785.91c.186.39.28.86.28 1.41l-.01.27-.015.23h-3.5zm1.26-2.31a1.13 1.13 0 0 0-.87.375c-.227.25-.359.64-.395 1.17h2.445c-.01-.497-.117-.879-.32-1.145s-.487-.4-.86-.4zm67.828-.135l-.165-2.675h1.22l-.17 2.675h-.885zm5.991-2.315c.5 0 .926.073 1.28.22a2.3 2.3 0 0 1 .875.605 2.77 2.77 0 0 1 .545.91c.13.35.221.73.275 1.14a9.94 9.94 0 0 1 .08 1.275c0 .84-.04 1.543-.12 2.11s-.23.986-.45 1.27-.53.43-.94.43a1 1 0 0 1-.525-.135c-.147-.09-.269-.207-.365-.35a1.71 1.71 0 0 1-.215-.455c-.047-.167-.074-.324-.08-.47h-.04c-.067.16-.159.313-.275.46a1.38 1.38 0 0 1-.445.36c-.18.093-.4.14-.66.14-.374 0-.674-.1-.9-.3s-.392-.469-.495-.815-.155-.739-.155-1.175c0-.85.173-1.499.52-1.945s.848-.675 1.505-.675c.246 0 .49.03.73.09s.505.16.785.31v2.97c0 .316.025.561.075.735s.118.293.205.36a.5.5 0 0 0 .305.1c.133 0 .236-.069.31-.205s.131-.334.165-.59.053-.574.06-.94l.01-1.24a10.04 10.04 0 0 0-.085-1.355c-.054-.414-.155-.77-.305-1.07s-.357-.532-.63-.695-.629-.245-1.065-.245c-.337 0-.692.063-1.065.19s-.76.37-1.17.73l-.54-.625c.453-.394.911-.679 1.375-.855s.941-.265 1.425-.265zm-.57 3.36c-.384 0-.645.15-.785.45s-.21.766-.21 1.41c0 .32.02.593.06.82s.11.4.21.52a.5.5 0 0 0 .405.18c.203 0 .361-.047.475-.14a.92.92 0 0 0 .255-.33l.13-.34v-2.44a1.14 1.14 0 0 0-.26-.1 1.21 1.21 0 0 0-.28-.03zm5.236 1.4c.023.36.1.655.23.885s.3.393.51.5a1.55 1.55 0 0 0 .7.16c.26 0 .5-.04.72-.12s.442-.194.665-.34l.485.67c-.247.2-.535.36-.865.48s-.683.18-1.06.18c-.547 0-1.01-.117-1.39-.35s-.663-.559-.86-.975-.295-.899-.295-1.445c0-.53.097-1.004.29-1.42a2.36 2.36 0 0 1 .83-.995c.36-.247.79-.37 1.29-.37.47 0 .873.106 1.21.32s.602.516.785.91.28.86.28 1.41l-.01.27-.015.23h-3.5zm1.26-2.31a1.13 1.13 0 0 0-.87.375c-.227.25-.358.64-.395 1.17h2.445c-.01-.497-.117-.879-.32-1.145s-.487-.4-.86-.4zm3.506 4.59v-5.28h.965l.085.685c.22-.27.48-.475.78-.615s.608-.21.925-.21c.493 0 .862.138 1.105.415s.37.658.37 1.155v3.85h-1.12v-3.295c0-.307-.018-.554-.055-.74s-.11-.322-.22-.405-.267-.125-.48-.125a1.1 1.1 0 0 0-.485.11c-.153.073-.293.17-.42.29a2.23 2.23 0 0 0-.33.375v3.79h-1.12zm10.141-5.95l.3.93c-.21.07-.442.116-.695.14s-.53.035-.84.035c.317.14.555.32.715.54s.24.483.24.8c0 .343-.083.65-.25.92a1.71 1.71 0 0 1-.715.635c-.31.153-.682.23-1.115.23-.153 0-.287-.007-.4-.02s-.218-.035-.325-.065c-.067.046-.123.11-.17.19a.49.49 0 0 0-.065.245.37.37 0 0 0 .13.28c.09.076.267.115.53.115h.92c.377 0 .708.065.995.195s.517.301.68.525.25.47.25.75c0 .526-.227.935-.68 1.225s-1.107.435-1.96.435c-.603 0-1.077-.062-1.42-.185s-.585-.307-.725-.55-.21-.542-.21-.895h1.005c0 .183.035.335.105.455s.208.21.405.27.48.09.85.09.663-.032.88-.095.378-.149.475-.265a.6.6 0 0 0 .15-.41.55.55 0 0 0-.28-.495c-.187-.117-.437-.175-.75-.175h-.905c-.5 0-.867-.102-1.1-.305s-.345-.44-.345-.71c0-.18.05-.354.15-.52s.25-.312.44-.435c-.317-.167-.548-.369-.695-.605a1.67 1.67 0 0 1-.215-.87 1.72 1.72 0 0 1 .28-.98 1.87 1.87 0 0 1 .775-.655c.333-.157.717-.235 1.15-.235.423 0 .777-.022 1.06-.065a3.65 3.65 0 0 0 .74-.195l.635-.275zm-2.425 1.305c-.357 0-.625.101-.805.305s-.27.461-.27.785c0 .333.092.601.275.805s.458.3.815.3c.33 0 .582-.097.755-.29s.265-.469.265-.825-.087-.63-.26-.81-.432-.27-.775-.27zm7.711 3.35c0 .206.032.358.095.455s.165.163.305.21l-.25.76c-.26-.03-.483-.102-.67-.215s-.328-.285-.425-.515a1.81 1.81 0 0 1-.735.55c-.297.123-.613.185-.95.185-.533 0-.957-.15-1.27-.45s-.465-.7-.465-1.19c0-.557.217-.985.65-1.285s1.053-.45 1.86-.45h.755v-.345c0-.34-.103-.585-.31-.735s-.492-.225-.865-.225c-.173 0-.383.023-.63.07s-.505.111-.775.205l-.275-.79c.33-.124.653-.214.97-.27a4.75 4.75 0 0 1 .88-.09c.707 0 1.233.156 1.58.47s.525.746.525 1.3v2.355zm-2.29.605c.227 0 .448-.06.665-.18a1.41 1.41 0 0 0 .525-.505v-1.165h-.62c-.527 0-.903.088-1.13.265s-.34.413-.34.72c0 .28.075.495.225.645s.378.22.675.22zm8.396-5.26l.3.93a3.12 3.12 0 0 1-.695.14c-.25.023-.53.035-.84.035.317.14.555.32.715.54s.24.483.24.8c0 .343-.083.65-.25.92s-.405.481-.715.635-.681.23-1.115.23c-.153 0-.286-.007-.4-.02s-.218-.035-.325-.065c-.066.046-.123.11-.17.19a.49.49 0 0 0-.065.245c0 .106.044.2.13.28s.267.115.53.115h.92c.377 0 .709.065.995.195s.517.301.68.525.25.47.25.75c0 .526-.226.935-.68 1.225s-1.106.435-1.96.435c-.603 0-1.076-.062-1.42-.185s-.585-.307-.725-.55-.21-.542-.21-.895h1.005c0 .183.035.335.105.455s.209.21.405.27.48.09.85.09.664-.032.88-.095.379-.149.475-.265a.6.6 0 0 0 .15-.41.55.55 0 0 0-.28-.495c-.186-.117-.436-.175-.75-.175h-.905c-.5 0-.866-.102-1.1-.305s-.345-.44-.345-.71c0-.18.05-.354.15-.52s.25-.312.44-.435c-.316-.167-.548-.369-.695-.605a1.67 1.67 0 0 1-.215-.87c0-.374.094-.7.28-.98a1.87 1.87 0 0 1 .775-.655c.334-.157.717-.235 1.15-.235.424 0 .777-.022 1.06-.065s.53-.112.74-.195l.635-.275zm-2.425 1.305c-.356 0-.625.101-.805.305s-.27.461-.27.785c0 .333.092.601.275.805s.459.3.815.3c.33 0 .582-.097.755-.29s.265-.469.265-.825-.086-.63-.26-.81-.431-.27-.775-.27zm4.606 2.365c.024.36.1.655.23.885s.3.393.51.5.447.16.7.16c.26 0 .5-.04.72-.12s.442-.194.665-.34l.485.67c-.246.2-.535.36-.865.48s-.683.18-1.06.18c-.546 0-1.01-.117-1.39-.35a2.26 2.26 0 0 1-.86-.975c-.196-.417-.295-.899-.295-1.445 0-.53.097-1.004.29-1.42s.47-.752.83-.995.79-.37 1.29-.37c.47 0 .874.106 1.21.32s.602.516.785.91.28.86.28 1.41l-.01.27-.015.23h-3.5zm1.26-2.31a1.13 1.13 0 0 0-.87.375c-.226.25-.358.64-.395 1.17h2.445c-.01-.497-.116-.879-.32-1.145s-.486-.4-.86-.4zm3.116 6.42v-.925h5v.925h-5zm8.007-2.555c.35 0 .628-.062.835-.185s.31-.3.31-.52c0-.144-.03-.265-.09-.365s-.18-.197-.36-.28-.454-.177-.82-.27c-.347-.09-.652-.197-.915-.32a1.56 1.56 0 0 1-.605-.48c-.144-.197-.215-.45-.215-.76 0-.304.085-.569.255-.795s.413-.404.73-.53.695-.19 1.125-.19c.443 0 .83.058 1.16.175s.611.261.845.435l-.47.705c-.207-.137-.434-.249-.68-.335s-.519-.13-.825-.13c-.357 0-.614.053-.77.16a.49.49 0 0 0-.23.425.49.49 0 0 0 .115.33c.08.086.216.168.41.245a10.55 10.55 0 0 0 .82.26c.343.093.641.203.895.33s.455.295.595.505.215.476.215.81c0 .38-.11.691-.33.935s-.504.418-.86.535a3.73 3.73 0 0 1-1.14.17c-.49 0-.914-.07-1.27-.21s-.657-.322-.9-.535l.595-.68a2.76 2.76 0 0 0 .71.41c.266.103.555.155.865.155zm5.891-4.695c.516 0 .951.115 1.305.345s.62.551.8.965.275.9.275 1.46-.094 1.045-.28 1.465a2.2 2.2 0 0 1-.81.975c-.354.23-.785.345-1.295.345s-.944-.112-1.3-.335a2.16 2.16 0 0 1-.81-.965c-.184-.417-.275-.909-.275-1.475 0-.55.091-1.034.275-1.45s.458-.742.815-.975.79-.355 1.3-.355zm0 .87c-.404 0-.707.155-.91.465s-.305.788-.305 1.445.1 1.135.3 1.445.506.465.91.465.705-.155.905-.465.305-.795.305-1.455c0-.65-.1-1.129-.3-1.435s-.502-.465-.905-.465zm4.016 5.615l-.89-.4 4.25-8.785.88.415-4.24 8.77zm8.926-6.345v4.17c0 .656-.137 1.201-.41 1.635s-.667.778-1.19 1.035-1.162.458-1.915.595l-.18-.86c.523-.1.978-.239 1.365-.415s.685-.419.895-.725.315-.704.315-1.19v-3.425h-2.085v-.82h3.205zm-.875-2.585c.216 0 .393.066.53.2a.67.67 0 0 1 .205.5.69.69 0 0 1-.205.505.72.72 0 0 1-.53.205c-.217 0-.394-.069-.53-.205s-.2-.305-.2-.505.066-.367.2-.5.313-.2.53-.2zm4.826 7.14c.35 0 .628-.062.835-.185s.31-.3.31-.52c0-.144-.03-.265-.09-.365s-.18-.197-.36-.28-.453-.177-.82-.27c-.347-.09-.652-.197-.915-.32a1.56 1.56 0 0 1-.605-.48c-.143-.197-.215-.45-.215-.76 0-.304.085-.569.255-.795s.413-.404.73-.53.695-.19 1.125-.19c.443 0 .83.058 1.16.175s.612.261.845.435l-.47.705a3.03 3.03 0 0 0-.68-.335c-.243-.087-.518-.13-.825-.13-.357 0-.613.053-.77.16s-.23.248-.23.425a.49.49 0 0 0 .115.33c.08.086.217.168.41.245s.467.16.82.26c.343.093.642.203.895.33s.455.295.595.505.215.476.215.81c0 .38-.11.691-.33.935s-.503.418-.86.535a3.72 3.72 0 0 1-1.14.17c-.49 0-.913-.07-1.27-.21s-.657-.322-.9-.535l.595-.68c.207.166.443.303.71.41a2.38 2.38 0 0 0 .865.155zm5.441-4l-.165-2.675h1.22l-.17 2.675h-.885zm-142.402 16l-.165-2.675h1.22l-.17 2.675h-.885zm8.066 3.43c0 .206.031.358.095.455s.165.163.305.21l-.25.76a1.64 1.64 0 0 1-.67-.215c-.187-.114-.329-.285-.425-.515-.194.243-.439.426-.735.55a2.46 2.46 0 0 1-.95.185c-.534 0-.957-.15-1.27-.45s-.465-.7-.465-1.19c0-.557.216-.985.65-1.285s1.053-.45 1.86-.45h.755v-.345c0-.34-.104-.585-.31-.735s-.492-.225-.865-.225c-.174 0-.384.023-.63.07s-.505.111-.775.205l-.275-.79c.33-.124.653-.214.97-.27s.61-.09.88-.09c.706 0 1.233.156 1.58.47s.525.746.525 1.3v2.355zm-2.29.605a1.36 1.36 0 0 0 .665-.18c.216-.12.391-.289.525-.505v-1.165h-.62c-.527 0-.904.088-1.13.265s-.34.413-.34.72c0 .28.075.495.225.645s.378.22.675.22zm6.526-4.73c.467 0 .84.115 1.12.345s.483.548.61.965.19.9.19 1.46c0 .536-.077 1.015-.23 1.435s-.382.75-.685.99-.673.36-1.12.36c-.553 0-1-.195-1.34-.585v2.48l-1.12.125v-7.435h.975l.07.68c.2-.274.432-.479.695-.615s.545-.205.835-.205zm-.31.865c-.25 0-.47.075-.66.225s-.352.326-.485.53v2.47c.127.19.277.336.45.44s.375.15.595.15a.96.96 0 0 0 .86-.455c.197-.304.295-.787.295-1.45 0-.45-.04-.815-.12-1.095s-.193-.49-.35-.62-.348-.195-.585-.195zm6.316-.725v4.46h1.435v.82h-4.135v-.82h1.58v-3.64h-1.53v-.82h2.65zm-.78-2.585c.22 0 .397.066.53.2s.205.3.205.5-.068.368-.205.505-.31.205-.53.205c-.213 0-.388-.069-.525-.205s-.205-.305-.205-.505.068-.367.205-.5.312-.2.525-.2zm3.201 9.695v-.925h5v.925h-5zm10.736-7.11l-2.135 2.36 2.36 2.92h-1.37l-2.27-2.89 2.11-2.39h1.305zm-3.495-2.245v7.525h-1.12v-7.4l1.12-.125zm5.471 5.245c.024.36.1.655.23.885s.3.393.51.5.447.16.7.16c.26 0 .5-.04.72-.12s.442-.194.665-.34l.485.67c-.246.2-.535.36-.865.48s-.683.18-1.06.18c-.546 0-1.01-.117-1.39-.35a2.26 2.26 0 0 1-.86-.975c-.196-.417-.295-.899-.295-1.445 0-.53.097-1.004.29-1.42s.47-.752.83-.995.79-.37 1.29-.37c.47 0 .874.106 1.21.32s.602.516.785.91.28.86.28 1.41l-.01.27-.015.23h-3.5zm1.26-2.31a1.13 1.13 0 0 0-.87.375c-.226.25-.358.64-.395 1.17h2.445c-.01-.497-.116-.879-.32-1.145s-.486-.4-.86-.4zm8.126-.69l-1.82 5.3c-.136.4-.311.751-.525 1.055a2.43 2.43 0 0 1-.82.74c-.333.186-.746.301-1.24.345l-.145-.84c.357-.057.64-.14.85-.25s.382-.249.505-.425a2.82 2.82 0 0 0 .335-.645h-.38l-1.78-5.28h1.19l1.33 4.5 1.35-4.5h1.15zm2.741.555l-.165-2.675h1.22l-.17 2.675h-.885zm-85.441 48l-.165-2.675h1.22l-.17 2.675h-.885zm5.151-.555v3.69c0 .313.062.536.185.67s.317.2.57.2a1.27 1.27 0 0 0 .695-.215c.223-.144.4-.319.53-.525v-3.82h1.12v5.28h-.965l-.07-.675c-.197.263-.445.465-.745.605a2.21 2.21 0 0 1-.92.205c-.51 0-.892-.14-1.145-.42s-.375-.672-.375-1.165v-3.83h1.12zm7.606-1.62v6.7h-1.11v-5.55l-1.52.935-.48-.785 2.12-1.3h.99zm1.38 6.02v.88h-4.175v-.88h4.175zm3.096-6.16c.457 0 .85.08 1.18.24s.584.371.76.635.265.553.265.87c0 .283-.06.536-.18.76s-.283.408-.49.555-.44.25-.7.31c.29.03.555.11.795.24a1.48 1.48 0 0 1 .575.555c.147.24.22.541.22.905a1.93 1.93 0 0 1-.31 1.07c-.203.316-.493.568-.87.755s-.813.28-1.32.28c-.433 0-.846-.08-1.24-.24s-.721-.402-.995-.725l.685-.6c.197.23.427.4.69.51s.534.165.81.165c.427 0 .765-.11 1.015-.33s.375-.532.375-.925c0-.3-.056-.537-.17-.71s-.265-.304-.465-.38-.431-.115-.695-.115h-.595l.13-.825h.42a1.55 1.55 0 0 0 .6-.115 1 1 0 0 0 .44-.365c.114-.164.17-.367.17-.61 0-.337-.115-.595-.345-.775s-.508-.27-.845-.27c-.286 0-.543.053-.77.16a2.51 2.51 0 0 0-.66.46l-.595-.635c.304-.29.632-.504.985-.64a3.04 3.04 0 0 1 1.13-.21zm5.696 0c.457 0 .85.08 1.18.24s.584.371.76.635.265.553.265.87c0 .283-.06.536-.18.76s-.283.408-.49.555-.44.25-.7.31c.29.03.555.11.795.24a1.48 1.48 0 0 1 .575.555c.147.24.22.541.22.905a1.93 1.93 0 0 1-.31 1.07c-.203.316-.493.568-.87.755s-.813.28-1.32.28c-.433 0-.846-.08-1.24-.24s-.721-.402-.995-.725l.685-.6c.197.23.427.4.69.51s.534.165.81.165c.427 0 .765-.11 1.015-.33s.375-.532.375-.925c0-.3-.056-.537-.17-.71s-.265-.304-.465-.38-.431-.115-.695-.115h-.595l.13-.825h.42a1.55 1.55 0 0 0 .6-.115 1 1 0 0 0 .44-.365c.114-.164.17-.367.17-.61 0-.337-.115-.595-.345-.775s-.508-.27-.845-.27c-.286 0-.543.053-.77.16a2.51 2.51 0 0 0-.66.46l-.595-.635c.304-.29.632-.504.985-.64a3.04 3.04 0 0 1 1.13-.21zm5.596 0l.945.375-1.76 4.205h3.595v.87h-4.765v-.78l1.985-4.67zm1.96 2.735v4.305h-1.075l-.01-2.3.145-2.005h.94zm6.112-2.595l-.145.84h-2.65v1.92a2.07 2.07 0 0 1 .57-.21 2.66 2.66 0 0 1 .56-.06c.366 0 .693.086.98.26s.511.423.675.75.25.721.25 1.185-.104.868-.31 1.225-.49.63-.86.83-.805.295-1.305.295c-.45 0-.85-.08-1.2-.24s-.652-.385-.915-.665l.67-.63c.193.213.405.375.635.485s.488.16.765.16c.42 0 .75-.127.99-.38s.365-.619.365-1.085c0-.34-.05-.609-.15-.805a.9.9 0 0 0-.4-.43c-.17-.087-.362-.13-.575-.13a2.08 2.08 0 0 0-.49.055c-.15.036-.317.095-.5.175h-.825v-3.545h3.865zm3.276 2.175l-.165-2.675h1.22l-.17 2.675h-.885zm-22.785 16l-.165-2.675h1.22l-.17 2.675h-.885zm7.131-2.8l1.12.125v7.4h-.985l-.08-.65a1.94 1.94 0 0 1-.645.58 1.73 1.73 0 0 1-.84.205c-.453 0-.826-.115-1.12-.345s-.511-.559-.655-.975-.21-.905-.21-1.455c0-.537.084-1.014.25-1.43s.405-.75.715-.99.684-.36 1.12-.36a1.78 1.78 0 0 1 .745.15 1.71 1.71 0 0 1 .585.425v-2.68zm-1.035 2.965a1 1 0 0 0-.88.47c-.21.31-.315.793-.315 1.45 0 .45.044.816.13 1.1s.212.486.375.62a.92.92 0 0 0 .59.195c.254 0 .474-.074.66-.22a2.08 2.08 0 0 0 .475-.53v-2.5c-.13-.187-.281-.33-.455-.43s-.366-.155-.58-.155zm7.666 3.265c0 .206.032.358.095.455s.165.163.305.21l-.25.76c-.26-.03-.483-.102-.67-.215s-.328-.285-.425-.515a1.81 1.81 0 0 1-.735.55c-.296.123-.613.185-.95.185-.533 0-.956-.15-1.27-.45s-.465-.7-.465-1.19c0-.557.217-.985.65-1.285s1.054-.45 1.86-.45h.755v-.345c0-.34-.103-.585-.31-.735s-.491-.225-.865-.225c-.173 0-.383.023-.63.07s-.505.111-.775.205l-.275-.79a5.48 5.48 0 0 1 .97-.27 4.75 4.75 0 0 1 .88-.09c.707 0 1.234.156 1.58.47s.525.746.525 1.3v2.355zm-2.29.605c.227 0 .449-.06.665-.18a1.41 1.41 0 0 0 .525-.505v-1.165h-.62c-.526 0-.903.088-1.13.265s-.34.413-.34.72c0 .28.075.495.225.645s.379.22.675.22zm8.577-4.59l-1.86 5.28h-1.31l-1.86-5.28h1.2l1.34 4.35 1.345-4.35h1.145zm3.956 0v4.46h1.435v.82h-4.135v-.82h1.58v-3.64h-1.53v-.82h2.65zm-.78-2.585c.22 0 .396.066.53.2a.67.67 0 0 1 .205.5.69.69 0 0 1-.205.505.71.71 0 0 1-.53.205.71.71 0 0 1-.525-.205c-.137-.137-.205-.305-.205-.505s.068-.367.205-.5.311-.2.525-.2zm6.691.34l1.12.125v7.4h-.985l-.08-.65a1.94 1.94 0 0 1-.645.58 1.73 1.73 0 0 1-.84.205c-.454 0-.827-.115-1.12-.345s-.512-.559-.655-.975-.21-.905-.21-1.455c0-.537.083-1.014.25-1.43s.405-.75.715-.99.683-.36 1.12-.36c.276 0 .525.05.745.15a1.71 1.71 0 0 1 .585.425v-2.68zm-1.035 2.965a1 1 0 0 0-.88.47c-.21.31-.315.793-.315 1.45 0 .45.043.816.13 1.1s.211.486.375.62.36.195.59.195a1.04 1.04 0 0 0 .66-.22c.186-.147.345-.324.475-.53v-2.5c-.13-.187-.282-.33-.455-.43s-.367-.155-.58-.155zm5.591-2.48c.5 0 .927.073 1.28.22a2.3 2.3 0 0 1 .875.605 2.77 2.77 0 0 1 .545.91 5.17 5.17 0 0 1 .275 1.14 9.94 9.94 0 0 1 .08 1.275c0 .84-.04 1.543-.12 2.11s-.23.986-.45 1.27-.53.43-.94.43a1 1 0 0 1-.525-.135c-.147-.09-.268-.207-.365-.35a1.74 1.74 0 0 1-.215-.455c-.047-.167-.073-.324-.08-.47h-.04a1.94 1.94 0 0 1-.275.46 1.38 1.38 0 0 1-.445.36c-.18.093-.4.14-.66.14-.373 0-.673-.1-.9-.3s-.392-.469-.495-.815-.155-.739-.155-1.175c0-.85.173-1.499.52-1.945s.848-.675 1.505-.675c.247 0 .49.03.73.09s.505.16.785.31v2.97c0 .316.025.561.075.735s.118.293.205.36.192.1.305.1c.133 0 .237-.069.31-.205s.132-.334.165-.59.053-.574.06-.94l.01-1.24a9.88 9.88 0 0 0-.085-1.355c-.053-.414-.155-.77-.305-1.07s-.357-.532-.63-.695-.628-.245-1.065-.245c-.337 0-.692.063-1.065.19s-.76.37-1.17.73l-.54-.625c.453-.394.912-.679 1.375-.855a3.99 3.99 0 0 1 1.425-.265zm-.57 3.36c-.383 0-.645.15-.785.45s-.21.766-.21 1.41c0 .32.02.593.06.82s.11.4.21.52a.5.5 0 0 0 .405.18c.203 0 .362-.047.475-.14a.92.92 0 0 0 .255-.33l.13-.34v-2.44a1.14 1.14 0 0 0-.26-.1 1.2 1.2 0 0 0-.28-.03zm5.236 1.4c.023.36.1.655.23.885s.3.393.51.5a1.55 1.55 0 0 0 .7.16c.26 0 .5-.04.72-.12s.442-.194.665-.34l.485.67c-.247.2-.535.36-.865.48s-.683.18-1.06.18c-.547 0-1.01-.117-1.39-.35s-.663-.559-.86-.975-.295-.899-.295-1.445c0-.53.097-1.004.29-1.42a2.36 2.36 0 0 1 .83-.995c.36-.247.79-.37 1.29-.37.47 0 .873.106 1.21.32s.602.516.785.91.28.86.28 1.41l-.01.27-.015.23h-3.5zm1.26-2.31a1.13 1.13 0 0 0-.87.375c-.227.25-.358.64-.395 1.17h2.445c-.01-.497-.117-.879-.32-1.145s-.487-.4-.86-.4zm3.506 4.59v-5.28h.965l.085.685c.22-.27.48-.475.78-.615s.608-.21.925-.21c.493 0 .862.138 1.105.415s.37.658.37 1.155v3.85h-1.12v-3.295c0-.307-.018-.554-.055-.74s-.11-.322-.22-.405-.267-.125-.48-.125a1.1 1.1 0 0 0-.485.11c-.153.073-.293.17-.42.29a2.23 2.23 0 0 0-.33.375v3.79h-1.12zm10.141-5.95l.3.93c-.21.07-.442.116-.695.14s-.53.035-.84.035c.317.14.555.32.715.54s.24.483.24.8c0 .343-.083.65-.25.92a1.71 1.71 0 0 1-.715.635c-.31.153-.682.23-1.115.23-.153 0-.287-.007-.4-.02s-.218-.035-.325-.065c-.067.046-.123.11-.17.19a.49.49 0 0 0-.065.245.37.37 0 0 0 .13.28c.09.076.267.115.53.115h.92c.377 0 .708.065.995.195s.517.301.68.525.25.47.25.75c0 .526-.227.935-.68 1.225s-1.107.435-1.96.435c-.603 0-1.077-.062-1.42-.185s-.585-.307-.725-.55-.21-.542-.21-.895h1.005c0 .183.035.335.105.455s.208.21.405.27.48.09.85.09.663-.032.88-.095.378-.149.475-.265a.6.6 0 0 0 .15-.41.55.55 0 0 0-.28-.495c-.187-.117-.437-.175-.75-.175h-.905c-.5 0-.867-.102-1.1-.305s-.345-.44-.345-.71c0-.18.05-.354.15-.52s.25-.312.44-.435c-.317-.167-.548-.369-.695-.605a1.67 1.67 0 0 1-.215-.87 1.72 1.72 0 0 1 .28-.98 1.87 1.87 0 0 1 .775-.655c.333-.157.717-.235 1.15-.235.423 0 .777-.022 1.06-.065a3.65 3.65 0 0 0 .74-.195l.635-.275zm-2.425 1.305c-.357 0-.625.101-.805.305s-.27.461-.27.785c0 .333.092.601.275.805s.458.3.815.3c.33 0 .582-.097.755-.29s.265-.469.265-.825-.087-.63-.26-.81-.432-.27-.775-.27zm7.711 3.35c0 .206.032.358.095.455s.165.163.305.21l-.25.76c-.26-.03-.483-.102-.67-.215s-.328-.285-.425-.515a1.81 1.81 0 0 1-.735.55c-.296.123-.613.185-.95.185-.533 0-.956-.15-1.27-.45s-.465-.7-.465-1.19c0-.557.217-.985.65-1.285s1.054-.45 1.86-.45h.755v-.345c0-.34-.103-.585-.31-.735s-.491-.225-.865-.225c-.173 0-.383.023-.63.07s-.505.111-.775.205l-.275-.79a5.48 5.48 0 0 1 .97-.27 4.75 4.75 0 0 1 .88-.09c.707 0 1.234.156 1.58.47s.525.746.525 1.3v2.355zm-2.29.605c.227 0 .449-.06.665-.18a1.41 1.41 0 0 0 .525-.505v-1.165h-.62c-.526 0-.903.088-1.13.265s-.34.413-.34.72c0 .28.075.495.225.645s.379.22.675.22zm8.396-5.26l.3.93a3.12 3.12 0 0 1-.695.14c-.25.023-.53.035-.84.035.317.14.555.32.715.54s.24.483.24.8c0 .343-.083.65-.25.92s-.405.481-.715.635-.681.23-1.115.23c-.153 0-.286-.007-.4-.02s-.218-.035-.325-.065c-.066.046-.123.11-.17.19a.49.49 0 0 0-.065.245c0 .106.044.2.13.28s.267.115.53.115h.92c.377 0 .709.065.995.195s.517.301.68.525.25.47.25.75c0 .526-.226.935-.68 1.225s-1.106.435-1.96.435c-.603 0-1.076-.062-1.42-.185s-.585-.307-.725-.55-.21-.542-.21-.895h1.005c0 .183.035.335.105.455s.209.21.405.27.48.09.85.09.664-.032.88-.095.379-.149.475-.265a.6.6 0 0 0 .15-.41.55.55 0 0 0-.28-.495c-.186-.117-.436-.175-.75-.175h-.905c-.5 0-.866-.102-1.1-.305s-.345-.44-.345-.71c0-.18.05-.354.15-.52s.25-.312.44-.435c-.316-.167-.548-.369-.695-.605a1.67 1.67 0 0 1-.215-.87c0-.374.094-.7.28-.98a1.87 1.87 0 0 1 .775-.655c.334-.157.717-.235 1.15-.235.424 0 .777-.022 1.06-.065s.53-.112.74-.195l.635-.275zm-2.425 1.305c-.356 0-.625.101-.805.305s-.27.461-.27.785c0 .333.092.601.275.805s.459.3.815.3c.33 0 .582-.097.755-.29s.265-.469.265-.825-.086-.63-.26-.81-.431-.27-.775-.27zm4.606 2.365c.024.36.1.655.23.885s.3.393.51.5.447.16.7.16c.26 0 .5-.04.72-.12s.442-.194.665-.34l.485.67c-.246.2-.535.36-.865.48s-.683.18-1.06.18c-.546 0-1.01-.117-1.39-.35a2.26 2.26 0 0 1-.86-.975c-.196-.417-.295-.899-.295-1.445 0-.53.097-1.004.29-1.42s.47-.752.83-.995.79-.37 1.29-.37c.47 0 .874.106 1.21.32s.602.516.785.91.28.86.28 1.41l-.01.27-.015.23h-3.5zm1.26-2.31a1.13 1.13 0 0 0-.87.375c-.226.25-.358.64-.395 1.17h2.445c-.01-.497-.116-.879-.32-1.145s-.486-.4-.86-.4zm4.647 3.755a.94.94 0 0 1 .125-.485c.086-.147.203-.264.35-.35a.94.94 0 0 1 .49-.13c.183 0 .348.043.495.13a.94.94 0 0 1 .345.35c.086.143.13.305.13.485a.97.97 0 0 1-.13.49c-.084.146-.199.263-.345.35s-.312.13-.495.13a.95.95 0 0 1-.49-.13.98.98 0 0 1-.35-.35c-.084-.15-.125-.314-.125-.49zm6.476.11c.35 0 .628-.062.835-.185s.31-.3.31-.52c0-.144-.03-.265-.09-.365s-.18-.197-.36-.28-.454-.177-.82-.27c-.347-.09-.652-.197-.915-.32a1.56 1.56 0 0 1-.605-.48c-.144-.197-.215-.45-.215-.76 0-.304.085-.569.255-.795s.413-.404.73-.53.695-.19 1.125-.19c.443 0 .83.058 1.16.175s.611.261.845.435l-.47.705c-.207-.137-.434-.249-.68-.335s-.519-.13-.825-.13c-.357 0-.614.053-.77.16a.49.49 0 0 0-.23.425.49.49 0 0 0 .115.33c.08.086.216.168.41.245a10.55 10.55 0 0 0 .82.26c.343.093.641.203.895.33s.455.295.595.505.215.476.215.81c0 .38-.11.691-.33.935s-.504.418-.86.535a3.73 3.73 0 0 1-1.14.17c-.49 0-.914-.07-1.27-.21s-.657-.322-.9-.535l.595-.68a2.76 2.76 0 0 0 .71.41c.266.103.555.155.865.155zm5.891-4.695c.516 0 .951.115 1.305.345s.62.551.8.965.275.9.275 1.46-.094 1.045-.28 1.465a2.2 2.2 0 0 1-.81.975c-.354.23-.785.345-1.295.345s-.944-.112-1.3-.335a2.16 2.16 0 0 1-.81-.965c-.184-.417-.275-.909-.275-1.475 0-.55.091-1.034.275-1.45s.458-.742.815-.975.79-.355 1.3-.355zm0 .87c-.404 0-.707.155-.91.465s-.305.788-.305 1.445.1 1.135.3 1.445.506.465.91.465.705-.155.905-.465.305-.795.305-1.455c0-.65-.1-1.129-.3-1.435s-.502-.465-.905-.465zm5.246-.175l-.165-2.675h1.22l-.17 2.675h-.885zm-56.796 13.685c.47 0 .867.088 1.19.265s.575.406.745.7a1.9 1.9 0 0 1 .26.985 2.54 2.54 0 0 1-.16.885 3.67 3.67 0 0 1-.505.915 9.97 9.97 0 0 1-.915 1.06l-1.395 1.33h3.135l-.13.9h-4.29v-.85l1.275-1.25.885-.955a6.3 6.3 0 0 0 .56-.745c.137-.224.233-.432.29-.625a2.03 2.03 0 0 0 .09-.595c0-.347-.098-.62-.295-.82s-.47-.3-.82-.3c-.313 0-.573.056-.78.17s-.412.296-.615.55l-.73-.555c.27-.344.58-.607.93-.79s.775-.275 1.275-.275zm5.976 0c.773 0 1.358.311 1.755.935s.595 1.505.595 2.645-.198 2.028-.595 2.655-.982.94-1.755.94-1.363-.314-1.76-.94-.59-1.512-.59-2.655.197-2.022.59-2.645.983-.935 1.76-.935zm0 .855c-.397 0-.702.211-.915.635s-.32 1.116-.32 2.09c0 .52.022.956.065 1.31s.118.63.215.84.228.361.385.455.347.135.57.135c.267 0 .492-.09.675-.27s.322-.477.415-.88.145-.934.145-1.59c0-.684-.042-1.224-.125-1.62s-.21-.684-.39-.85-.42-.255-.72-.255zm.93.235l.29.785-2.06 4.205-.37-.635 2.14-4.355zm4.486-1.09c.47 0 .867.088 1.19.265s.575.406.745.7a1.9 1.9 0 0 1 .26.985 2.54 2.54 0 0 1-.16.885 3.67 3.67 0 0 1-.505.915 9.97 9.97 0 0 1-.915 1.06l-1.395 1.33h3.135l-.13.9h-4.29v-.85l1.275-1.25.885-.955a6.3 6.3 0 0 0 .56-.745c.137-.224.233-.432.29-.625a2.03 2.03 0 0 0 .09-.595c0-.347-.098-.62-.295-.82s-.47-.3-.82-.3c-.313 0-.573.056-.78.17s-.412.296-.615.55l-.73-.555c.27-.344.58-.607.93-.79s.775-.275 1.275-.275zm5.976 0c.773 0 1.358.311 1.755.935s.595 1.505.595 2.645-.198 2.028-.595 2.655-.982.94-1.755.94-1.363-.314-1.76-.94-.59-1.512-.59-2.655.197-2.022.59-2.645.983-.935 1.76-.935zm0 .855c-.397 0-.702.211-.915.635s-.32 1.116-.32 2.09c0 .52.022.956.065 1.31s.118.63.215.84.228.361.385.455.347.135.57.135c.267 0 .492-.09.675-.27s.322-.477.415-.88.145-.934.145-1.59c0-.684-.042-1.224-.125-1.62s-.21-.684-.39-.85-.42-.255-.72-.255zm.93.235l.29.785-2.06 4.205-.37-.635 2.14-4.355zm2.701 3.28v-.92h4.13v.92h-4.13zm7.761-4.37c.774 0 1.359.311 1.755.935s.595 1.505.595 2.645-.198 2.028-.595 2.655-.981.94-1.755.94-1.363-.314-1.76-.94-.59-1.512-.59-2.655.197-2.022.59-2.645.984-.935 1.76-.935zm0 .855c-.396 0-.701.211-.915.635s-.32 1.116-.32 2.09c0 .52.022.956.065 1.31s.119.63.215.84.229.361.385.455.347.135.57.135c.267 0 .492-.09.675-.27s.322-.477.415-.88.145-.934.145-1.59c0-.684-.041-1.224-.125-1.62s-.21-.684-.39-.85-.42-.255-.72-.255zm.93.235l.29.785-2.06 4.205-.37-.635 2.14-4.355zm6.741-.95l-.145.84h-2.65v1.92c.197-.104.387-.174.57-.21s.374-.06.56-.06c.367 0 .694.086.98.26s.512.423.675.75.25.721.25 1.185-.103.868-.31 1.225a2.15 2.15 0 0 1-.86.83c-.37.196-.805.295-1.305.295-.45 0-.85-.08-1.2-.24a3.03 3.03 0 0 1-.915-.665l.67-.63a2.07 2.07 0 0 0 .635.485c.234.106.489.16.765.16.42 0 .75-.127.99-.38s.365-.619.365-1.085c0-.34-.05-.609-.15-.805s-.23-.344-.4-.43a1.24 1.24 0 0 0-.575-.13 2.09 2.09 0 0 0-.49.055 3.08 3.08 0 0 0-.5.175h-.825v-3.545h3.865zm1.657 4.23v-.92h4.13v.92h-4.13zm7.461-4.37c.456 0 .85.08 1.18.24s.583.371.76.635a1.53 1.53 0 0 1 .265.87c0 .283-.06.536-.18.76s-.284.408-.49.555a1.97 1.97 0 0 1-.7.31c.29.03.555.11.795.24s.431.315.575.555.22.541.22.905c0 .393-.104.75-.31 1.07s-.494.568-.87.755-.814.28-1.32.28c-.434 0-.847-.08-1.24-.24s-.722-.402-.995-.725l.685-.6c.196.23.426.4.69.51a2.08 2.08 0 0 0 .81.165c.426 0 .765-.11 1.015-.33s.375-.532.375-.925c0-.3-.057-.537-.17-.71s-.265-.304-.465-.38-.432-.115-.695-.115h-.595l.13-.825h.42c.216 0 .416-.039.6-.115s.33-.202.44-.365.17-.367.17-.61c0-.337-.115-.595-.345-.775s-.509-.27-.845-.27a1.78 1.78 0 0 0-.77.16c-.224.103-.444.256-.66.46l-.595-.635c.303-.29.631-.504.985-.64s.73-.21 1.13-.21zm5.996 0c.773 0 1.358.311 1.755.935s.595 1.505.595 2.645-.199 2.028-.595 2.655-.982.94-1.755.94-1.364-.314-1.76-.94-.59-1.512-.59-2.655.196-2.022.59-2.645.983-.935 1.76-.935zm0 .855c-.397 0-.702.211-.915.635s-.32 1.116-.32 2.09c0 .52.021.956.065 1.31s.118.63.215.84.228.361.385.455.346.135.57.135a.93.93 0 0 0 .675-.27c.183-.184.321-.477.415-.88s.145-.934.145-1.59c0-.684-.042-1.224-.125-1.62s-.21-.684-.39-.85-.42-.255-.72-.255zm.93.235l.29.785-2.06 4.205-.37-.635 2.14-4.355zm5.331-.015v5.965h-1.16v-5.965h-2.07v-.935h5.35l-.12.935h-2zm5.131-1.075c.773 0 1.358.311 1.755.935s.595 1.505.595 2.645-.198 2.028-.595 2.655-.982.94-1.755.94-1.363-.314-1.76-.94-.59-1.512-.59-2.655.197-2.022.59-2.645.983-.935 1.76-.935zm0 .855c-.397 0-.702.211-.915.635s-.32 1.116-.32 2.09c0 .52.022.956.065 1.31s.118.63.215.84.228.361.385.455.347.135.57.135c.267 0 .492-.09.675-.27s.322-.477.415-.88.145-.934.145-1.59c0-.684-.042-1.224-.125-1.62s-.21-.684-.39-.85-.42-.255-.72-.255zm.93.235l.29.785-2.06 4.205-.37-.635 2.14-4.355zm4.686-1.08c.523 0 .96.115 1.31.345s.612.555.785.975.265.908.265 1.475c0 .683-.077 1.271-.23 1.765a3.19 3.19 0 0 1-.7 1.25c-.313.343-.715.631-1.205.865s-1.068.433-1.745.6l-.245-.82c.63-.17 1.157-.374 1.58-.61s.748-.539.975-.895.363-.799.4-1.315l.01-.5c.003-.544-.033-.984-.11-1.32s-.203-.582-.38-.735-.415-.23-.715-.23c-.383 0-.678.125-.885.375s-.31.625-.31 1.125c0 .486.1.836.3 1.05s.472.32.805.32a1.36 1.36 0 0 0 .79-.235 3.05 3.05 0 0 0 .655-.655l-.01.795a2.98 2.98 0 0 1-.745.675c-.273.17-.597.255-.97.255s-.713-.089-1.01-.265-.53-.435-.7-.765-.255-.725-.255-1.175c0-.497.103-.92.31-1.27s.492-.617.845-.8.748-.28 1.185-.28zm4.871 5.46a.85.85 0 0 1 .26-.625.86.86 0 0 1 .64-.265.85.85 0 0 1 .9.89.88.88 0 0 1-.26.64c-.17.176-.383.265-.64.265s-.467-.089-.64-.265a.88.88 0 0 1-.26-.64zm0-3.55a.87.87 0 0 1 .12-.45.89.89 0 0 1 .325-.325c.137-.08.288-.12.455-.12a.85.85 0 0 1 .64.265.86.86 0 0 1 .26.63c0 .246-.087.46-.26.64s-.383.265-.64.265-.467-.089-.64-.265-.26-.394-.26-.64zm6.301-1.92c.457 0 .85.08 1.18.24s.583.371.76.635.265.553.265.87c0 .283-.06.536-.18.76s-.283.408-.49.555a1.97 1.97 0 0 1-.7.31c.29.03.555.11.795.24a1.48 1.48 0 0 1 .575.555c.147.24.22.541.22.905a1.93 1.93 0 0 1-.31 1.07c-.203.316-.493.568-.87.755s-.813.28-1.32.28a3.26 3.26 0 0 1-1.24-.24c-.39-.16-.722-.402-.995-.725l.685-.6c.197.23.427.4.69.51a2.08 2.08 0 0 0 .81.165c.427 0 .765-.11 1.015-.33s.375-.532.375-.925c0-.3-.057-.537-.17-.71s-.265-.304-.465-.38-.432-.115-.695-.115h-.595l.13-.825h.42a1.55 1.55 0 0 0 .6-.115c.183-.08.33-.202.44-.365s.17-.367.17-.61c0-.337-.115-.595-.345-.775s-.508-.27-.845-.27c-.287 0-.543.053-.77.16a2.51 2.51 0 0 0-.66.46l-.595-.635c.303-.29.632-.504.985-.64s.73-.21 1.13-.21zm5.996 0c.774 0 1.359.311 1.755.935s.595 1.505.595 2.645-.198 2.028-.595 2.655-.981.94-1.755.94-1.363-.314-1.76-.94-.59-1.512-.59-2.655.197-2.022.59-2.645.984-.935 1.76-.935zm0 .855c-.396 0-.701.211-.915.635s-.32 1.116-.32 2.09c0 .52.022.956.065 1.31s.119.63.215.84.229.361.385.455.347.135.57.135c.267 0 .492-.09.675-.27s.322-.477.415-.88.145-.934.145-1.59c0-.684-.041-1.224-.125-1.62s-.21-.684-.39-.85-.42-.255-.72-.255zm.93.235l.29.785-2.06 4.205-.37-.635 2.14-4.355zm3.861 4.38a.85.85 0 0 1 .26-.625.86.86 0 0 1 .64-.265.85.85 0 0 1 .64.265c.174.173.26.381.26.625a.88.88 0 0 1-.26.64c-.17.176-.383.265-.64.265s-.466-.089-.64-.265a.88.88 0 0 1-.26-.64zm0-3.55a.87.87 0 0 1 .12-.45c.08-.137.189-.245.325-.325s.289-.12.455-.12a.85.85 0 0 1 .64.265c.174.173.26.383.26.63a.89.89 0 0 1-.26.64c-.17.176-.383.265-.64.265s-.466-.089-.64-.265-.26-.394-.26-.64zm7.521-1.78v6.7h-1.11v-5.55l-1.52.935-.48-.785 2.12-1.3h.99zm1.38 6.02v.88h-4.175v-.88h4.175zm3.397-6.16c.773 0 1.358.311 1.755.935s.595 1.505.595 2.645-.199 2.028-.595 2.655-.982.94-1.755.94-1.364-.314-1.76-.94-.59-1.512-.59-2.655.196-2.022.59-2.645.983-.935 1.76-.935zm0 .855c-.397 0-.702.211-.915.635s-.32 1.116-.32 2.09c0 .52.021.956.065 1.31s.118.63.215.84.228.361.385.455.346.135.57.135a.93.93 0 0 0 .675-.27c.183-.184.321-.477.415-.88s.145-.934.145-1.59c0-.684-.042-1.224-.125-1.62s-.21-.684-.39-.85-.42-.255-.72-.255zm.93.235l.29.785-2.06 4.205-.37-.635 2.14-4.355zm3.681 4.99h3.49l-.13.96h-4.685v-.9l3.51-5.06h-3.15v-.94h4.43v.91l-3.465 5.03zm6.336-3.765l-.165-2.675h1.22l-.17 2.675h-.885z" fill="#986ced"/><g clip-path="url(#B)"><path d="M360.027 199.119s-2.507-1.807.501-4.22l7.009-6.267s2.006-2.11 4.126-.272l64.682 48.971v23.482s-.031 3.688-4.763 3.28l-71.555-64.974z" fill="#f3f6fa"/><path d="M376.698 214.256l-16.671 15.157s-1.714 1.274 0 3.552l7.74 7.04s1.838 1.974 4.554-.271l17.675-13.403-13.298-12.075z" fill="#d2deee"/><path d="M405.968 214.381l30.575-23.346-.198-23.358s-1.306-5.097-5.662-2.444l-40.687 37.031 15.972 12.117z" fill="#e7edf5"/><path d="M431.581 264.125c1.776 1.818 3.928 1.222 3.928 1.222l23.827-11.741c3.051-2.079 2.622-4.659 2.622-4.659v-70.113c0-3.082-3.154-4.147-3.154-4.147l-20.652-9.955c-4.513-2.789-7.469.501-7.469.501s3.802-2.737 5.662 2.444v92.708a4.21 4.21 0 0 1-.408 1.828c-.543 1.097-1.723 2.121-4.554 1.693l.198.219z" fill="#dee7f3"/></g></g><rect x="-1" y="1" width="419" height="345" rx="7" transform="matrix(-1 0 0 1 499.355 129)" stroke="#e1e8f2" stroke-width="2" stroke-dasharray="8 8"/><defs><clipPath id="A"><rect width="421" height="347" rx="8" transform="matrix(-1 0 0 1 501.355 129)" fill="#fff"/></clipPath><clipPath id="B"><path fill="#fff" transform="translate(357 161.942)" d="M0 0h105.906v104H0z"/></clipPath></defs></svg>