<svg xmlns="http://www.w3.org/2000/svg" width="600" height="318" fill="none" xmlns:v="https://vecta.io/nano"><g stroke="#5269d1" stroke-dasharray="4 4"><path d="M555.504.596v15.699m0 480.301V280.458m0-65.742V66.498M453.312.596v339.482m0 156.518V364.75M351.621.596v102.041m0 393.959v-17.252m0-293.992v244.395"/><path transform="matrix(0 1 1 0 249.43 .595703)" d="M0-.5h496"/><path d="M146.738.596v27.702m0 468.298V394.61m0-83.074V52.79M44.547 0v121.482m0 374.518V257.567m0-90.065v72.831"/><path d="M-4 144.887h25.672m582.328 0H392.708m-80.708 0H69.358M-4 248.68h39.48m568.521 0h-15.322m-65.324 0H53.12M-4 41.094h138.858m469.142 0h-25.121m-48.339 0H159.135"/><path d="M555.48 65.012l10.183-13.818 13.817-10.182-13.817-10.182-10.183-13.818-10.182 13.818-13.818 10.182 13.818 10.182 10.182 13.818zM44.602 168.742l10.182-13.817 13.818-10.183-13.818-10.182-10.182-13.818L34.42 134.56l-13.818 10.182 13.818 10.183 10.182 13.817zm510.867 111.854l13.576-18.424 18.424-13.576-18.424-13.577-13.576-18.423-13.577 18.423-18.423 13.577 18.423 13.576 13.577 18.424zM146.754 392.502l16.97-23.029 23.03-16.971-23.03-16.971-16.97-23.029-16.971 23.029-23.029 16.971 23.029 16.971 16.971 23.029zm204.867-207.609l16.971-23.03 23.029-16.97-23.029-16.971-16.971-23.029-16.97 23.029-23.03 16.971 23.03 16.97 16.97 23.03z"/><circle r="8" transform="matrix(1 0 0 -1 44.5469 248.68)"/><circle r="12" transform="matrix(1 0 0 -1 146.738 41.0938)"/></g><g transform="matrix(-1 0 0 1 551.5 77.9307)"><rect x="-2" y="2" width="484.388" height="422.315" rx="6" fill="#121212"/><rect x="-2" y="2" width="484.388" height="422.315" rx="6" stroke="#121212" stroke-width="4"/></g><rect x="-2" y="2" width="483.474" height="419.085" rx="6" transform="matrix(-1 0 0 1 531.474 65.0117)" fill="#f5f6f8"/><rect x="88.243" y="129.069" width="122" height="122" rx="8" fill="#f1eaff"/><path d="M102.909 217.851l2.574 2.082c2.574 2.082 7.722 6.246 12.871 3.399s10.296-12.706 15.444-12.446 10.296 10.639 15.445 15.764 10.296 5 15.444 3.356 10.296-4.807 15.444-11.162 10.297-15.905 15.445-22.76" stroke="#c6a9ff" stroke-width="2" stroke-linecap="round"/><path d="M115.067 184.484c6.2 0 10.36-2.52 10.36-7.68 0-3.84-2.24-6.24-5.92-6.76v-.16c3.4-.48 4.96-2.76 4.96-5.84 0-4.68-3.6-7.16-9.64-7.16-6.72 0-10.32 3.48-10.32 8.6v.36h4.24v-.32c0-3.36 1.4-4.68 6.04-4.68 3.76 0 5.36 1.08 5.36 3.88s-1.36 3.68-4.88 3.68h-4.76v3.6h5.36c3.72 0 5.2 1 5.2 4.36 0 3.12-1.68 4.16-5.92 4.16-5.28 0-6.4-1.32-6.4-4.68v-.6h-4.24v.64c0 5.12 2.92 8.6 10.56 8.6zm23.822 0c7.4 0 10.72-3.6 10.72-9.16 0-5.4-3.48-8.6-9.2-8.6-3.52 0-6.04 1.08-7.44 2.24h-.12l.64-7.8h14.68v-3.88h-18.48l-.92 14.24 3.8.6c1.32-.76 3.24-1.68 6.52-1.68 4.52 0 6.24 1.4 6.24 5 0 3.76-1.56 5.08-6.28 5.08-4.44 0-6.44-1.04-6.44-4.04v-.24h-4.28v.24c0 4.92 3.6 8 10.56 8zm25.474 0c7.2 0 11.6-5.32 11.6-13.8s-4.4-13.8-11.6-13.8-11.56 5.32-11.56 13.8 4.36 13.8 11.56 13.8zm0-4.16c-4.76 0-6.96-2.56-6.96-9.64s2.2-9.64 6.96-9.64 7 2.56 7 9.64-2.24 9.64-7 9.64zm-50.43-63.115c2.66 0 3.668-1.344 3.668-2.842 0-1.372-.672-2.408-2.646-2.786l-1.666-.322c-1.092-.21-1.344-.35-1.344-.952 0-.588.378-.854 1.582-.854 1.386 0 1.792.322 1.792 1.302v.154h2.072v-.112c0-1.862-1.12-3.248-3.794-3.248-2.688 0-3.738 1.414-3.738 2.842 0 1.456.756 2.366 2.548 2.674l1.652.294c1.316.224 1.456.448 1.456 1.078s-.294.868-1.484.868c-1.694 0-2.072-.294-2.072-1.33v-.14h-2.058v.182c0 2.072 1.274 3.192 4.032 3.192zm8.389 0c2.016 0 3.304-.882 3.304-2.38v-.14h-2.072v.084c0 .434-.364.616-1.204.616-1.148 0-1.54-.392-1.582-1.372h4.83c.042-.238.098-.644.098-1.036 0-1.834-1.246-3.094-3.36-3.094-2.198 0-3.542 1.428-3.542 3.682 0 2.226 1.106 3.64 3.528 3.64zm-.056-5.6c.98 0 1.456.406 1.414 1.134h-2.898c.084-.742.476-1.134 1.484-1.134zm7.083 5.46v-3.99c0-1.064.434-1.386 1.442-1.386 1.064 0 1.386.35 1.386 1.33v4.046h2.1v-4.466c0-1.498-.784-2.716-2.618-2.716-1.232 0-1.988.574-2.366 1.372h-.084v-1.232h-1.946v7.042h2.086zm9.911.028c.49 0 1.036-.07 1.372-.14v-1.75h-.868c-.91 0-1.12-.07-1.12-.686v-2.758h1.988v-1.736h-1.988v-1.638h-1.652l-.392 1.638h-1.176v1.736h1.12v2.996c0 1.666.882 2.338 2.716 2.338z" fill="#000"/><g clip-path="url(#A)"><path d="M104.462 112.046l-4.202-1.555-1.569-5.143c-.06-.198-.244-.334-.451-.334s-.391.136-.451.334l-1.569 5.143-4.203 1.555c-.186.069-.308.246-.308.443a.47.47 0 0 0 .308.443l4.2 1.555 1.57 5.3c.059.2.244.338.453.338s.393-.138.453-.338l1.57-5.3 4.201-1.555c.184-.068.308-.245.308-.443s-.124-.374-.309-.443z" fill="#ffac33"/><path d="M95.018 117.241l-1.093-.404-.425-1.558a.47.47 0 0 0-.455-.349c-.213 0-.4.143-.456.348l-.425 1.559-1.092.404a.47.47 0 0 0-.308.443c0 .197.123.374.308.443l1.087.403.428 1.71a.47.47 0 0 0 .458.357.47.47 0 0 0 .458-.357l.428-1.711 1.087-.403a.47.47 0 0 0 .308-.442.47.47 0 0 0-.308-.443zm-2.049-10.229l-1.116-.413-.414-1.117a.47.47 0 0 0-.443-.309c-.197 0-.374.123-.443.309l-.413 1.117-1.117.413a.47.47 0 0 0-.308.443c0 .197.123.374.308.443l1.117.413.413 1.117c.069.185.246.308.443.308s.374-.123.443-.308l.413-1.117 1.117-.413c.186-.069.308-.246.308-.443a.47.47 0 0 0-.308-.443z" fill="#ffcc4d"/></g><path d="M251.485 117.069c3.01 0 4.858-1.75 4.858-4.69s-1.848-4.69-4.858-4.69h-3.584v9.38h3.584zm-.028-7.49c1.904 0 2.632.574 2.632 2.8s-.728 2.8-2.632 2.8h-1.456v-5.6h1.456zm9.754 7.63c2.016 0 3.304-.882 3.304-2.38v-.14h-2.072v.084c0 .434-.364.616-1.204.616-1.148 0-1.54-.392-1.582-1.372h4.83c.042-.238.098-.644.098-1.036 0-1.834-1.246-3.094-3.36-3.094-2.198 0-3.542 1.428-3.542 3.682 0 2.226 1.106 3.64 3.528 3.64zm-.056-5.6c.98 0 1.456.406 1.414 1.134h-2.898c.084-.742.476-1.134 1.484-1.134zm7.096 5.46v-9.38h-2.086v9.38h2.086zm3.825-7.84v-1.54h-2.086l.028 1.54h2.058zm.042 7.84v-7.042h-2.1v7.042h2.1zm6.312 0l2.744-7.042h-2.296l-1.68 5.026h-.154l-1.68-5.026h-2.338l2.73 7.042h2.674zm6.855.14c2.016 0 3.304-.882 3.304-2.38v-.14h-2.072v.084c0 .434-.364.616-1.204.616-1.148 0-1.54-.392-1.582-1.372h4.83c.042-.238.098-.644.098-1.036 0-1.834-1.246-3.094-3.36-3.094-2.198 0-3.542 1.428-3.542 3.682 0 2.226 1.106 3.64 3.528 3.64zm-.056-5.6c.98 0 1.456.406 1.414 1.134h-2.898c.084-.742.476-1.134 1.484-1.134zm7.082 5.46v-4.41c0-.77.308-.994.952-.994.658 0 .896.238.896.994v.378h2.086v-.644c0-1.414-.546-2.506-2.016-2.506-.994 0-1.624.56-1.974 1.274h-.084v-1.134h-1.946v7.042h2.086zm8.6.14c2.016 0 3.304-.882 3.304-2.38v-.14h-2.072v.084c0 .434-.364.616-1.204.616-1.148 0-1.54-.392-1.582-1.372h4.83c.042-.238.098-.644.098-1.036 0-1.834-1.246-3.094-3.36-3.094-2.198 0-3.542 1.428-3.542 3.682 0 2.226 1.106 3.64 3.528 3.64zm-.056-5.6c.98 0 1.456.406 1.414 1.134h-2.898c.084-.742.476-1.134 1.484-1.134zm7.878 5.6c1.036 0 1.834-.42 2.198-1.176h.07v1.036h1.946v-9.38h-2.086v3.262h-.084c-.322-.588-.966-1.064-2.044-1.064-1.918 0-3.052 1.442-3.052 3.668 0 2.212 1.064 3.654 3.052 3.654zm-.966-3.654c0-1.288.336-1.876 1.554-1.876.994 0 1.54.35 1.54 1.302v1.134c0 .952-.546 1.302-1.54 1.302-1.218 0-1.554-.588-1.554-1.862z" fill="#000"/><g clip-path="url(#B)"><path d="M236.632 119.653c0 1.043-3.778 1.043-3.778 0v-4.723a1.89 1.89 0 0 1 1.889-1.888 1.89 1.89 0 0 1 1.889 1.888v4.723z" fill="#c1694f"/><path d="M230.965 105.486a3.78 3.78 0 0 0-3.778 3.778v5.667h7.556v-5.667a3.78 3.78 0 0 0-3.778-3.778z" fill="#292f33"/><path d="M235.687 112.929c0 .583-.503 1.057-1.083 1.057h-7.279c-.58 0-1.082-.474-1.082-1.057v-4.969c0-.584.502-1.057 1.082-1.057h7.279c.58 0 1.083.473 1.083 1.057v4.969z" fill="#ccd6dd"/><path d="M235.687 107.96c0-.584-.503-1.057-1.083-1.057h-7.279c-.58 0-1.082.473-1.082 1.057v.67l2.304 2.316-2.258 2.269c.053.178.15.338.282.464l2.348-2.36 1.136 1.143c.497.5 1.308.5 1.805 0l1.145-1.149 2.354 2.366a1.06 1.06 0 0 0 .281-.464l-2.263-2.275 2.31-2.316v-.664z" fill="#99aab5"/><path d="M234.604 106.903h-7.279c-.55 0-1.025.427-1.073.97l3.97 3.965c.411.413 1.076.397 1.486-.016l3.971-3.941c-.044-.547-.522-.978-1.075-.978z" fill="#e1e8ed"/><path d="M238.52 105.486h-7.555a3.78 3.78 0 0 1 3.778 3.778v5.667h7.555v-5.667a3.78 3.78 0 0 0-3.778-3.778z" fill="#99aab5"/><path d="M238.52 104.542h-1.889c-.521 0-.944.423-.944.944v5.667c0 .521.423.944.944.944s.945-.423.945-.944v-3.778h.944c.522 0 .945-.423.945-.945v-.944c0-.521-.423-.944-.945-.944z" fill="#dd2e44"/></g><rect x="226.243" y="129.069" width="122" height="122" rx="8" fill="#eaeeff"/><path d="M240.907 217.851l2.574 2.082c2.574 2.082 7.722 6.245 12.87 3.398s10.296-12.705 15.445-12.445 10.296 10.638 15.444 15.764 10.296 5 15.445 3.356 10.296-4.807 15.444-11.163 10.296-15.905 15.444-22.759" stroke="#8199fd" stroke-width="2" stroke-linecap="round"/><path d="M253.067 184.484c6.2 0 10.36-2.52 10.36-7.68 0-3.84-2.24-6.24-5.92-6.76v-.16c3.4-.48 4.96-2.76 4.96-5.84 0-4.68-3.6-7.16-9.64-7.16-6.72 0-10.32 3.48-10.32 8.6v.36h4.24v-.32c0-3.36 1.4-4.68 6.04-4.68 3.76 0 5.36 1.08 5.36 3.88s-1.36 3.68-4.88 3.68h-4.76v3.6h5.36c3.72 0 5.2 1 5.2 4.36 0 3.12-1.68 4.16-5.92 4.16-5.28 0-6.4-1.32-6.4-4.68v-.6h-4.24v.64c0 5.12 2.92 8.6 10.56 8.6zm21.474-.4v-26.8h-3.8c-1.12 2.4-2.6 3.32-5.12 3.32h-1.04v3.08h5.64v20.4h4.32zm16.142.4c7.2 0 11.6-5.32 11.6-13.8s-4.4-13.8-11.6-13.8-11.56 5.32-11.56 13.8 4.36 13.8 11.56 13.8zm0-4.16c-4.76 0-6.96-2.56-6.96-9.64s2.2-9.64 6.96-9.64 7 2.56 7 9.64-2.24 9.64-7 9.64z" fill="#000"/><rect x="88.237" y="267.069" width="407" height="122" rx="8" fill="#fff"/><g fill="#eef1f7"><rect x="115.002" y="290.069" width="79" height="10" rx="5"/><rect x="214.006" y="290.069" width="203" height="10" rx="5"/></g><path stroke="#dfe7f2" stroke-width="2" stroke-linecap="round" d="M379.243 250.069V106.014"/><g fill="#eef1f7"><rect x="402.008" y="109.069" width="66" height="4" rx="2"/><rect x="402.243" y="121.088" width="28.041" height="4" rx="2" transform="rotate(359.955 402.243 121.088)"/></g><path d="M418.915 153.562c-.053-.47-.272-.835-.657-1.094s-.868-.392-1.451-.392c-.418 0-.779.066-1.084.199s-.542.308-.711.537-.249.482-.249.77c0 .242.057.451.169.627s.267.323.453.442a3.39 3.39 0 0 0 .606.293l.622.189.994.259c.325.079.658.187.999.323a4.01 4.01 0 0 1 .95.537 2.57 2.57 0 0 1 .706.825c.182.328.273.721.273 1.178a2.71 2.71 0 0 1-.447 1.537c-.295.447-.724.8-1.288 1.059s-1.238.387-2.033.387c-.762 0-1.422-.121-1.979-.363s-.993-.585-1.307-1.029-.489-.977-.522-1.591h1.541c.03.368.149.675.358.92a1.93 1.93 0 0 0 .81.542c.332.116.694.174 1.089.174.434 0 .82-.068 1.158-.204a1.94 1.94 0 0 0 .806-.576 1.37 1.37 0 0 0 .293-.87c0-.302-.086-.549-.259-.741s-.399-.352-.691-.478-.614-.237-.979-.333l-1.203-.328c-.815-.222-1.462-.548-1.939-.979s-.711-1.001-.711-1.71c0-.587.159-1.099.477-1.537s.749-.777 1.293-1.019 1.157-.368 1.839-.368c.69 0 1.298.121 1.825.363s.948.575 1.253 1a2.51 2.51 0 0 1 .477 1.451h-1.481zm3.316-2.674h1.864l3.242 7.914h.119l3.242-7.914h1.864v10.181H431.1v-7.368h-.094l-3.003 7.353h-1.213l-3.003-7.358h-.094v7.373h-1.462v-10.181zm17.978 2.674c-.053-.47-.272-.835-.656-1.094s-.869-.392-1.452-.392c-.418 0-.779.066-1.084.199s-.542.308-.711.537-.249.482-.249.77c0 .242.057.451.17.627s.266.323.452.442a3.39 3.39 0 0 0 .606.293l.622.189.994.259c.325.079.658.187 1 .323s.657.315.949.537a2.57 2.57 0 0 1 .706.825c.182.328.274.721.274 1.178a2.71 2.71 0 0 1-.448 1.537c-.295.447-.724.8-1.288 1.059s-1.238.387-2.033.387c-.762 0-1.422-.121-1.979-.363s-.992-.585-1.307-1.029-.489-.977-.522-1.591h1.541c.03.368.149.675.358.92a1.93 1.93 0 0 0 .81.542 3.28 3.28 0 0 0 1.089.174c.434 0 .82-.068 1.158-.204a1.94 1.94 0 0 0 .806-.576 1.37 1.37 0 0 0 .293-.87c0-.302-.086-.549-.258-.741s-.4-.352-.691-.478-.615-.237-.98-.333l-1.203-.328c-.815-.222-1.462-.548-1.939-.979s-.711-1.001-.711-1.71c0-.587.159-1.099.478-1.537s.749-.777 1.292-1.019 1.157-.368 1.84-.368c.689 0 1.297.121 1.824.363s.948.575 1.253 1a2.51 2.51 0 0 1 .477 1.451h-1.481z" fill="#636369"/><rect x="402.243" y="152.569" width="6" height="6" rx="3" fill="#c6a9ff"/><path d="M413.361 190.069v-10.181h6.384v1.322h-4.847v3.102h4.514v1.318h-4.514v3.117h4.906v1.322h-6.443zm8.177 0v-7.636h1.426v1.243h.095c.159-.421.419-.749.78-.985s.794-.357 1.298-.357c.51 0 .938.119 1.283.357a2.1 2.1 0 0 1 .77.985h.08c.182-.408.472-.733.87-.975s.871-.367 1.422-.367c.692 0 1.257.217 1.695.651s.661 1.089.661 1.964v5.12h-1.486v-4.981c0-.517-.141-.892-.423-1.124s-.618-.348-1.009-.348c-.484 0-.86.149-1.129.448s-.402.674-.402 1.138v4.867h-1.482v-5.076c0-.414-.129-.747-.388-.999s-.595-.378-1.009-.378a1.44 1.44 0 0 0-.78.224c-.236.146-.426.35-.572.611s-.214.566-.214.91v4.708h-1.486zm14.455.169c-.484 0-.922-.089-1.313-.268s-.701-.446-.929-.791-.338-.767-.338-1.267c0-.431.082-.786.248-1.064s.39-.499.671-.661.597-.286.945-.368a9.35 9.35 0 0 1 1.064-.189l1.114-.13c.285-.036.492-.094.621-.174s.194-.208.194-.387v-.035c0-.434-.123-.771-.368-1.009s-.603-.358-1.084-.358c-.5 0-.895.111-1.183.333s-.482.462-.592.731l-1.397-.319c.166-.464.408-.838.726-1.123a2.95 2.95 0 0 1 1.109-.627c.417-.132.857-.198 1.317-.198a4.65 4.65 0 0 1 .97.109c.344.07.666.199.964.388s.549.459.741.81.288.8.288 1.357v5.071h-1.451v-1.044h-.06c-.096.193-.24.381-.433.567a2.28 2.28 0 0 1-.74.462c-.302.123-.663.184-1.084.184zm.323-1.193c.411 0 .762-.081 1.054-.243s.519-.375.671-.637.234-.548.234-.85v-.984c-.053.053-.156.102-.308.149s-.32.081-.512.114l-.562.085-.458.059a3.72 3.72 0 0 0-.79.184c-.235.086-.424.211-.567.373s-.209.371-.209.637c0 .367.136.646.408.835s.618.278 1.039.278zm5.285 1.024v-7.636h1.487v7.636h-1.487zm.751-8.814a.94.94 0 0 1-.666-.259c-.183-.175-.274-.384-.274-.626a.83.83 0 0 1 .274-.627c.185-.175.407-.263.666-.263a.92.92 0 0 1 .661.263c.186.173.279.381.279.627a.83.83 0 0 1-.279.626c-.182.173-.403.259-.661.259zm4.082-1.367v10.181h-1.486v-10.181h1.486z" fill="#636369"/><rect x="402.243" y="181.569" width="6" height="6" rx="3" fill="#8199fd"/><path d="M414.898 208.888v10.181h-1.537v-10.181h1.537zm3.464 5.647v4.534h-1.487v-7.636h1.427v1.243h.095a2.18 2.18 0 0 1 .825-.975c.378-.245.853-.367 1.427-.367.52 0 .976.109 1.367.328s.694.537.91.964.323.956.323 1.586v4.857h-1.487v-4.678c0-.553-.144-.986-.432-1.298s-.684-.472-1.188-.472c-.345 0-.652.075-.92.224s-.476.368-.631.656-.229.63-.229 1.034zm11.24-.412v1.287h-4.514v-1.287h4.514zm2.82 4.946h-1.63l3.664-10.181h1.775l3.664 10.181h-1.631l-2.878-8.332h-.08l-2.884 8.332zm.274-3.987h5.29v1.293h-5.29v-1.293zm8.41 6.851v-10.5h1.451v1.238h.125a4.1 4.1 0 0 1 .373-.552c.162-.209.387-.391.676-.547s.669-.238 1.143-.238c.617 0 1.167.155 1.651.467s.863.761 1.138 1.347.418 1.293.418 2.118-.138 1.533-.413 2.123-.653 1.039-1.133 1.357-1.029.472-1.646.472c-.464 0-.843-.077-1.138-.233s-.521-.338-.686-.547-.294-.394-.383-.557h-.09v4.052h-1.486zm1.456-6.682c0 .537.078 1.008.234 1.412s.381.721.676.95.657.338 1.084.338c.444 0 .815-.118 1.114-.353s.523-.562.676-.97.234-.866.234-1.377c0-.504-.077-.956-.229-1.357s-.375-.718-.676-.95-.671-.348-1.119-.348c-.431 0-.795.111-1.094.333s-.518.532-.671.93-.229.862-.229 1.392zm7.044 6.682v-10.5h1.452v1.238h.124a4.3 4.3 0 0 1 .373-.552 2.12 2.12 0 0 1 .676-.547c.289-.159.67-.238 1.144-.238.616 0 1.167.155 1.65.467s.864.761 1.139 1.347.418 1.293.418 2.118-.138 1.533-.413 2.123-.653 1.039-1.134 1.357-1.029.472-1.645.472c-.464 0-.844-.077-1.139-.233s-.52-.338-.686-.547-.293-.394-.383-.557h-.089v4.052h-1.487zm1.457-6.682c0 .537.078 1.008.234 1.412s.381.721.676.95.656.338 1.084.338c.444 0 .815-.118 1.113-.353s.524-.562.676-.97.234-.866.234-1.377c0-.504-.076-.956-.229-1.357s-.374-.718-.676-.95-.671-.348-1.118-.348c-.431 0-.796.111-1.094.333a2.04 2.04 0 0 0-.671.93c-.153.398-.229.862-.229 1.392zm10.728 3.818v-10.181h3.63c.792 0 1.448.144 1.968.432a2.81 2.81 0 0 1 1.169 1.183c.258.497.388 1.058.388 1.681s-.131 1.19-.393 1.69-.65.892-1.173 1.183-1.175.433-1.964.433h-2.496v-1.303h2.357c.5 0 .906-.086 1.218-.258s.54-.415.686-.716.218-.645.218-1.029-.073-.726-.218-1.024a1.57 1.57 0 0 0-.691-.701c-.312-.169-.723-.254-1.233-.254h-1.929v8.864h-1.537zm13.534-3.167v-4.469h1.491v7.636h-1.462v-1.322h-.079a2.39 2.39 0 0 1-.845 1.019c-.385.269-.864.403-1.437.403-.491 0-.925-.108-1.303-.323s-.669-.542-.885-.97-.318-.956-.318-1.586v-4.857h1.487v4.678c0 .521.144.935.432 1.243s.663.462 1.124.462c.278 0 .555-.069.83-.208s.509-.35.691-.632.277-.639.274-1.074zm9.071-2.605l-1.348.239c-.056-.172-.145-.336-.268-.492s-.282-.284-.487-.383-.463-.149-.771-.149c-.421 0-.772.094-1.054.283s-.422.426-.422.721a.76.76 0 0 0 .283.617c.189.155.494.283.915.382l1.213.279c.702.162 1.226.412 1.571.75s.517.778.517 1.318c0 .457-.133.865-.398 1.223s-.628.633-1.099.835-1.009.303-1.625.303c-.855 0-1.553-.182-2.093-.546a2.31 2.31 0 0 1-.995-1.566l1.437-.219c.09.374.274.658.552.85s.641.283 1.089.283c.487 0 .876-.101 1.168-.303s.438-.456.438-.751a.78.78 0 0 0-.269-.601c-.176-.163-.446-.285-.81-.368l-1.293-.284c-.713-.162-1.239-.42-1.581-.775s-.507-.804-.507-1.347c0-.451.126-.846.378-1.184s.6-.601 1.044-.79.953-.288 1.526-.288c.825 0 1.475.179 1.949.536s.787.831.94 1.427zm3.13 1.238v4.534h-1.487v-10.181h1.467v3.788h.094c.179-.411.453-.738.821-.98s.848-.362 1.441-.362c.524 0 .981.107 1.373.323s.699.537.914.964.328.955.328 1.591v4.857h-1.486v-4.678c0-.56-.144-.994-.433-1.302s-.689-.468-1.203-.468c-.351 0-.666.075-.944.224s-.493.368-.652.656-.233.63-.233 1.034z" fill="#636369"/><rect x="402.243" y="210.569" width="6" height="6" rx="3" fill="#f9dd88"/><path d="M415.355 248.069l-2.824-10.181h1.616l1.983 7.884h.095l2.063-7.884h1.601l2.063 7.889h.095l1.978-7.889h1.621l-2.829 10.181h-1.546l-2.143-7.626h-.079l-2.143 7.626h-1.551zm13.972.154c-.753 0-1.401-.16-1.944-.482a3.27 3.27 0 0 1-1.253-1.367c-.292-.59-.437-1.281-.437-2.073 0-.782.145-1.472.437-2.068a3.39 3.39 0 0 1 1.233-1.397c.53-.335 1.15-.502 1.859-.502.431 0 .849.071 1.253.213s.767.367 1.089.671.575.701.761 1.189.278 1.072.278 1.765v.527h-6.07v-1.114h4.613c0-.391-.079-.737-.238-1.039s-.383-.545-.671-.721-.62-.263-1.005-.263c-.417 0-.782.102-1.093.308a2.06 2.06 0 0 0-.716.795c-.166.325-.249.678-.249 1.059v.87c0 .511.09.945.269 1.303s.435.631.76.82.704.278 1.139.278a2.35 2.35 0 0 0 .77-.119 1.66 1.66 0 0 0 .602-.368c.169-.162.298-.363.388-.601l1.407.253c-.113.415-.315.777-.607 1.089s-.651.549-1.089.721-.929.253-1.486.253zm4.905-.154v-10.181h1.486v3.783h.09a4.1 4.1 0 0 1 .373-.552c.162-.209.387-.391.676-.547s.669-.238 1.143-.238c.617 0 1.167.155 1.651.467s.863.761 1.138 1.347.418 1.293.418 2.118-.138 1.533-.413 2.123-.653 1.039-1.133 1.357-1.029.472-1.646.472c-.464 0-.843-.077-1.138-.233s-.521-.338-.687-.547a4.12 4.12 0 0 1-.382-.557h-.125v1.188h-1.451zm1.456-3.818c0 .537.078 1.008.234 1.412s.381.721.676.95.656.338 1.084.338c.444 0 .815-.118 1.114-.353s.523-.562.676-.97.233-.866.233-1.377c0-.504-.076-.956-.228-1.357s-.375-.718-.676-.95-.672-.348-1.119-.348c-.431 0-.795.111-1.094.333s-.518.532-.671.93-.229.862-.229 1.392zm18.95-6.363v10.181h-1.411l-5.176-7.467h-.094v7.467h-1.537v-10.181h1.422l5.181 7.477h.094v-7.477h1.521zm5.199 10.335c-.716 0-1.341-.164-1.875-.492a3.32 3.32 0 0 1-1.242-1.377c-.295-.59-.443-1.279-.443-2.068s.148-1.485.443-2.078.709-1.054 1.242-1.382 1.159-.492 1.875-.492 1.34.164 1.874.492a3.31 3.31 0 0 1 1.243 1.382c.295.593.442 1.286.442 2.078s-.147 1.478-.442 2.068-.709 1.049-1.243 1.377-1.158.492-1.874.492zm.005-1.247c.464 0 .848-.123 1.153-.368a2.16 2.16 0 0 0 .676-.98c.149-.407.224-.856.224-1.347a3.88 3.88 0 0 0-.224-1.342c-.146-.411-.371-.741-.676-.99s-.689-.373-1.153-.373-.855.125-1.164.373-.532.579-.681.99-.219.855-.219 1.342.073.94.219 1.347.376.734.681.98.696.368 1.164.368zm8.638-6.543v1.193h-4.171v-1.193h4.171zm-3.052-1.83h1.486v7.224c0 .289.043.506.129.651s.198.241.334.294a1.35 1.35 0 0 0 .452.074c.119 0 .224-.008.313-.025l.209-.039.268 1.228c-.086.033-.208.066-.367.099s-.358.056-.597.06c-.391.006-.756-.063-1.094-.209s-.611-.371-.82-.676-.313-.688-.313-1.149v-7.532zm4.557 9.466v-7.636h1.486v7.636h-1.486zm.75-8.814c-.258 0-.48-.086-.666-.259a.84.84 0 0 1-.273-.626.83.83 0 0 1 .273-.627.94.94 0 0 1 .666-.263.92.92 0 0 1 .662.263c.185.173.278.381.278.627s-.093.451-.278.626-.403.259-.662.259zm6.23 1.178v1.193h-4.315v-1.193h4.315zm-3.132 7.636v-8.521c0-.477.104-.873.313-1.188s.486-.555.831-.711.719-.239 1.123-.239c.298 0 .554.025.766.075a3.39 3.39 0 0 1 .472.129l-.348 1.203-.268-.069c-.11-.03-.242-.045-.398-.045-.361 0-.62.089-.776.268s-.228.438-.228.776v8.322h-1.487zm4.712.095c-.271 0-.505-.096-.701-.289a.96.96 0 0 1-.293-.706c0-.271.098-.503.293-.696a.96.96 0 0 1 .701-.293c.272 0 .506.098.701.293a.94.94 0 0 1 .294.696.95.95 0 0 1-.14.503 1.03 1.03 0 0 1-.357.358c-.15.089-.315.134-.498.134z" fill="#636369"/><rect x="402.243" y="239.569" width="6" height="6" rx="3" fill="#00cc74"/><rect x="-1" y="1" width="459.058" height="345" rx="7" transform="matrix(-1 0 0 1 520.266 80)" stroke="#e1e8f2" stroke-width="2" stroke-dasharray="8 8"/><rect x="-2" y="2" width="483.474" height="419.085" rx="6" transform="matrix(-1 0 0 1 531.474 65.0117)" stroke="#121212" stroke-width="4"/><defs><clipPath id="A"><path fill="#fff" transform="translate(88.243 104.069)" d="M0 0h17v17H0z"/></clipPath><clipPath id="B"><path fill="#fff" transform="translate(226.243 104.069)" d="M0 0h17v17H0z"/></clipPath></defs></svg>