<svg width="24" height="25" viewBox="0 0 24 25" fill="none" xmlns="http://www.w3.org/2000/svg">
<path d="M7.175 6.30977C6.825 6.30977 6.52917 6.4306 6.2875 6.67227C6.04583 6.91393 5.925 7.20977 5.925 7.55977C5.925 7.90977 6.04583 8.2056 6.2875 8.44727C6.52917 8.68893 6.825 8.80977 7.175 8.80977C7.525 8.80977 7.82083 8.68893 8.0625 8.44727C8.30417 8.2056 8.425 7.90977 8.425 7.55977C8.425 7.20977 8.30417 6.91393 8.0625 6.67227C7.82083 6.4306 7.525 6.30977 7.175 6.30977ZM7.175 16.6598C6.825 16.6598 6.52917 16.7806 6.2875 17.0223C6.04583 17.2639 5.925 17.5598 5.925 17.9098C5.925 18.2598 6.04583 18.5556 6.2875 18.7973C6.52917 19.0389 6.825 19.1598 7.175 19.1598C7.525 19.1598 7.82083 19.0389 8.0625 18.7973C8.30417 18.5556 8.425 18.2598 8.425 17.9098C8.425 17.5598 8.30417 17.2639 8.0625 17.0223C7.82083 16.7806 7.525 16.6598 7.175 16.6598ZM3.85 3.25977H20.125C20.3917 3.25977 20.6042 3.33893 20.7625 3.49727C20.9208 3.6556 21 3.8681 21 4.13477V10.8598C21 11.1431 20.9208 11.3848 20.7625 11.5848C20.6042 11.7848 20.3917 11.8848 20.125 11.8848H3.85C3.6 11.8848 3.39583 11.7848 3.2375 11.5848C3.07917 11.3848 3 11.1431 3 10.8598V4.13477C3 3.8681 3.07917 3.6556 3.2375 3.49727C3.39583 3.33893 3.6 3.25977 3.85 3.25977ZM4.5 4.75977V10.3848H19.5V4.75977H4.5ZM3.85 13.5848H20.025C20.275 13.5848 20.5 13.6889 20.7 13.8973C20.9 14.1056 21 14.3431 21 14.6098V21.2098C21 21.5431 20.9 21.7973 20.7 21.9723C20.5 22.1473 20.275 22.2348 20.025 22.2348H3.975C3.70833 22.2348 3.47917 22.1473 3.2875 21.9723C3.09583 21.7973 3 21.5431 3 21.2098V14.6098C3 14.3431 3.07917 14.1056 3.2375 13.8973C3.39583 13.6889 3.6 13.5848 3.85 13.5848ZM4.5 15.0848V20.7348H19.5V15.0848H4.5Z" fill="#1C1B1F"/>
</svg>
