<svg width="24" height="25" viewBox="0 0 24 25" fill="none" xmlns="http://www.w3.org/2000/svg">
<g clip-path="url(#clip0_442_16888)">
<path d="M6.235 6.68738C4.96004 8.01066 4.1795 9.73253 4.02457 11.5635C3.86964 13.3946 4.34977 15.2231 5.38426 16.7418C6.41874 18.2605 7.94451 19.3768 9.70511 19.903C11.4657 20.4292 13.3538 20.3333 15.052 19.6314C15.167 18.8814 14.915 18.1614 14.812 17.9094C14.582 17.3494 13.824 16.3924 12.559 15.0654C12.221 14.7104 12.243 14.4374 12.364 13.6284L12.377 13.5374C12.459 12.9834 12.597 12.6554 14.462 12.3594C15.41 12.2094 15.659 12.5874 16.004 13.1124L16.12 13.2844C16.448 13.7644 16.691 13.8744 17.058 14.0404C17.223 14.1154 17.428 14.2104 17.703 14.3654C18.355 14.7384 18.355 15.1594 18.355 16.0814V16.1864C18.355 16.5774 18.317 16.9214 18.257 17.2204C19.0244 16.2573 19.5591 15.1301 19.8196 13.9266C20.0801 12.723 20.0593 11.4756 19.7588 10.2814C19.4584 9.08722 18.8863 7.97848 18.0873 7.04151C17.2883 6.10455 16.2838 5.36463 15.152 4.87937C14.599 5.25237 13.84 5.78137 13.575 6.14437C13.44 6.32937 13.248 7.27637 12.625 7.35437C12.463 7.37437 12.244 7.36037 12.012 7.34538C11.39 7.30538 10.54 7.25038 10.268 7.98938C10.095 8.45738 10.065 9.72937 10.624 10.3894C10.714 10.4944 10.731 10.6894 10.67 10.9084C10.59 11.1954 10.429 11.3704 10.378 11.4064C10.282 11.3504 10.09 11.1274 9.959 10.9764C9.646 10.6114 9.254 10.1564 8.748 10.0164C8.564 9.96537 8.362 9.92338 8.165 9.88138C7.616 9.76638 6.995 9.63538 6.85 9.32738C6.744 9.10138 6.745 8.79037 6.745 8.46237C6.745 8.04537 6.745 7.57437 6.541 7.11737C6.47008 6.95428 6.36585 6.80782 6.235 6.68738ZM12 22.2344C6.477 22.2344 2 17.7574 2 12.2344C2 6.71138 6.477 2.23438 12 2.23438C17.523 2.23438 22 6.71138 22 12.2344C22 17.7574 17.523 22.2344 12 22.2344Z" fill="#1C1B1F"/>
</g>
<defs>
<clipPath id="clip0_442_16888">
<rect width="24" height="24" fill="white" transform="translate(0 0.234375)"/>
</clipPath>
</defs>
</svg>
