<svg width="608" height="561" viewBox="0 0 608 561" fill="none" xmlns="http://www.w3.org/2000/svg">
<path d="M48.4961 -31.3213L48.496 47.3183M48.496 591.791L48.496 311.481M48.496 245.739L48.496 97.5213" stroke="#97969C" stroke-dasharray="4 4"/>
<path d="M150.688 -30.9443L150.687 371.101M150.687 591.617L150.687 395.773" stroke="#97969C" stroke-dasharray="4 4"/>
<path d="M252.379 -31.1338L252.379 133.66M252.379 591.614L252.379 510.367M252.379 216.375L252.379 460.769" stroke="#97969C" stroke-dasharray="4 4"/>
<path d="M355.07 -30.9443L355.07 59.799M355.07 591.61L355.07 84.1015" stroke="#97969C" stroke-dasharray="4 4"/>
<path d="M457.261 -31.1318L457.262 342.56M457.262 591.618L457.262 425.634" stroke="#97969C" stroke-dasharray="4 4"/>
<path d="M559.453 -31.3232L559.453 152.504M559.453 591.607L559.453 288.589M559.453 198.524L559.453 271.355" stroke="#97969C" stroke-dasharray="4 4"/>
<path d="M608 487.288L277.773 487.288M0 487.288L228.393 487.288" stroke="#97969C" stroke-dasharray="4 4"/>
<path d="M608 383.495H495.737M0 383.495L138.654 383.495M417.532 383.495H163.326" stroke="#97969C" stroke-dasharray="4 4"/>
<path d="M608 175.909H582.328M0 175.909L211.292 175.909M292 175.909L534.642 175.909" stroke="#97969C" stroke-dasharray="4 4"/>
<path d="M608 279.702H568.52M0 279.702H15.3224M80.6456 279.702L550.88 279.702" stroke="#97969C" stroke-dasharray="4 4"/>
<path d="M608 72.1162L368.442 72.1162M0 72.1162H25.1209M73.46 72.1162L342.478 72.1162" stroke="#97969C" stroke-dasharray="4 4"/>
<path d="M252.379 511.269L242.197 497.451L228.379 487.269L242.197 477.086L252.379 463.269L262.561 477.086L276.379 487.269L262.561 497.451L252.379 511.269Z" stroke="#97969C" stroke-dasharray="4 4"/>
<path d="M48.5195 96.0342L38.3372 82.2165L24.5195 72.0342L38.3372 61.8518L48.5195 48.0342L58.7019 61.8518L72.5195 72.0342L58.7019 82.2165L48.5195 96.0342Z" stroke="#97969C" stroke-dasharray="4 4"/>
<path d="M559.398 199.765L549.216 185.947L535.398 175.765L549.216 165.582L559.398 151.765L569.581 165.582L583.398 175.765L569.581 185.947L559.398 199.765Z" stroke="#97969C" stroke-dasharray="4 4"/>
<path d="M48.5312 311.618L34.9548 293.195L16.5312 279.618L34.9548 266.042L48.5312 247.618L62.1077 266.042L80.5312 279.618L62.1077 293.195L48.5312 311.618Z" stroke="#97969C" stroke-dasharray="4 4"/>
<path d="M457.246 423.524L440.276 400.495L417.246 383.524L440.276 366.554L457.246 343.524L474.217 366.554L497.246 383.524L474.217 400.495L457.246 423.524Z" stroke="#97969C" stroke-dasharray="4 4"/>
<path d="M252.379 215.915L235.408 192.886L212.379 175.915L235.408 158.944L252.379 135.915L269.349 158.944L292.379 175.915L269.349 192.886L252.379 215.915Z" stroke="#97969C" stroke-dasharray="4 4"/>
<circle cx="150.754" cy="383.495" r="12" transform="rotate(180 150.754 383.495)" stroke="#97969C" stroke-dasharray="4 4"/>
<circle cx="559.453" cy="279.702" r="8" transform="rotate(180 559.453 279.702)" stroke="#97969C" stroke-dasharray="4 4"/>
<circle cx="355.402" cy="72.1162" r="12" transform="rotate(180 355.402 72.1162)" stroke="#97969C" stroke-dasharray="4 4"/>
<rect x="-2" y="2" width="442" height="260" rx="6" transform="matrix(-1 0 0 1 502 74)" fill="#121212"/>
<rect x="-2" y="2" width="442" height="260" rx="6" transform="matrix(-1 0 0 1 502 74)" stroke="#121212" stroke-width="4"/>
<rect x="-2" y="2" width="441" height="255" rx="6" transform="matrix(-1 0 0 1 521 61)" fill="#F5F6F8"/>
<rect x="-2" y="2" width="441" height="255" rx="6" transform="matrix(-1 0 0 1 521 61)" stroke="#121212" stroke-width="4"/>
<rect x="91.7861" y="73.6387" width="422" height="38" rx="4" fill="white"/>
<rect x="108.786" y="87.6387" width="10" height="10" rx="5" fill="#EB5757"/>
<rect x="126.786" y="87.6387" width="10" height="10" rx="5" fill="#F2C94C"/>
<rect x="144.786" y="87.6387" width="10" height="10" rx="5" fill="#27AE60"/>
<path d="M487.224 86.6387V98.6387" stroke="#E7EDF5" stroke-width="2" stroke-linecap="round"/>
<path d="M493.224 92.6387L481.224 92.6387" stroke="#E7EDF5" stroke-width="2" stroke-linecap="round"/>
<rect x="-1" y="1" width="419" height="175" rx="7" transform="matrix(-1 0 0 1 511 125)" fill="#F5F6F8"/>
<line x1="116" y1="186.021" x2="480.145" y2="186.021" stroke="#DFE7F2" stroke-width="2"/>
<rect x="450.148" y="145" width="30" height="30" rx="4" fill="white"/>
<path d="M465.148 154V166" stroke="#B3C2D8" stroke-width="2" stroke-linecap="round"/>
<path d="M471.148 160L459.148 160" stroke="#B3C2D8" stroke-width="2" stroke-linecap="round"/>
<rect x="116.5" y="202.5" width="363" height="82" rx="7.5" fill="white"/>
<rect x="142.766" y="221" width="79" height="10" rx="5" fill="#EEF1F7"/>
<rect x="242" y="221" width="203" height="10" rx="5" fill="#EEF1F7"/>
<rect x="143" y="255" width="258" height="10" rx="5" fill="#EEF1F7"/>
<rect x="116.5" y="202.5" width="363" height="82" rx="7.5" stroke="black"/>
<rect x="-1" y="1" width="419" height="175" rx="7" transform="matrix(-1 0 0 1 511 125)" stroke="#E1E8F2" stroke-width="2" stroke-dasharray="8 8"/>
<rect x="-2" y="2" width="442" height="112" rx="6" transform="matrix(-1 0 0 1 502 418)" fill="#121212"/>
<rect x="-2" y="2" width="442" height="112" rx="6" transform="matrix(-1 0 0 1 502 418)" stroke="#121212" stroke-width="4"/>
<rect x="-2" y="2" width="447" height="108" rx="6" transform="matrix(-1 0 0 1 525 407)" fill="#F5F6F8"/>
<rect x="-1" y="1" width="421" height="84" rx="7" transform="matrix(-1 0 0 1 513 420)" fill="#F5F6F8"/>
<rect x="-0.5" y="0.5" width="393" height="55" rx="5.5" transform="matrix(-1 0 0 1 501 435)" fill="white"/>
<rect x="-0.5" y="0.5" width="393" height="55" rx="5.5" transform="matrix(-1 0 0 1 501 435)" stroke="black"/>
<path d="M134.841 463.818V469H133.142V457.364H134.818V461.693H134.926C135.131 461.223 135.443 460.85 135.864 460.574C136.284 460.297 136.833 460.159 137.511 460.159C138.11 460.159 138.633 460.282 139.08 460.528C139.53 460.775 139.879 461.142 140.125 461.631C140.375 462.116 140.5 462.722 140.5 463.449V469H138.801V463.653C138.801 463.013 138.636 462.517 138.307 462.165C137.977 461.809 137.519 461.631 136.932 461.631C136.53 461.631 136.17 461.716 135.852 461.886C135.538 462.057 135.29 462.307 135.108 462.636C134.93 462.962 134.841 463.356 134.841 463.818ZM146.528 469.176C145.669 469.176 144.928 468.992 144.307 468.625C143.689 468.254 143.212 467.733 142.875 467.062C142.542 466.388 142.375 465.598 142.375 464.693C142.375 463.799 142.542 463.011 142.875 462.33C143.212 461.648 143.682 461.116 144.284 460.733C144.89 460.35 145.598 460.159 146.409 460.159C146.902 460.159 147.379 460.241 147.841 460.403C148.303 460.566 148.718 460.822 149.085 461.17C149.453 461.519 149.742 461.972 149.955 462.528C150.167 463.081 150.273 463.754 150.273 464.545V465.148H143.335V463.875H148.608C148.608 463.428 148.517 463.032 148.335 462.688C148.153 462.339 147.898 462.064 147.568 461.864C147.242 461.663 146.86 461.562 146.42 461.562C145.943 461.562 145.527 461.68 145.17 461.915C144.818 462.146 144.545 462.449 144.352 462.824C144.163 463.195 144.068 463.598 144.068 464.034V465.028C144.068 465.612 144.17 466.108 144.375 466.517C144.583 466.926 144.873 467.239 145.244 467.455C145.616 467.667 146.049 467.773 146.545 467.773C146.867 467.773 147.161 467.727 147.426 467.636C147.691 467.542 147.92 467.402 148.114 467.216C148.307 467.03 148.455 466.801 148.557 466.528L150.165 466.818C150.036 467.292 149.805 467.706 149.472 468.062C149.142 468.415 148.727 468.689 148.227 468.886C147.731 469.08 147.165 469.176 146.528 469.176ZM153.857 457.364V469H152.158V457.364H153.857ZM156.142 472.273V460.273H157.801V461.688H157.943C158.042 461.506 158.184 461.295 158.369 461.057C158.555 460.818 158.813 460.61 159.142 460.432C159.472 460.25 159.907 460.159 160.449 460.159C161.153 460.159 161.782 460.337 162.335 460.693C162.888 461.049 163.322 461.562 163.636 462.233C163.955 462.903 164.114 463.71 164.114 464.653C164.114 465.597 163.956 466.405 163.642 467.08C163.328 467.75 162.896 468.267 162.347 468.631C161.797 468.991 161.17 469.17 160.466 469.17C159.936 469.17 159.502 469.081 159.165 468.903C158.831 468.725 158.57 468.517 158.381 468.278C158.191 468.04 158.045 467.828 157.943 467.642H157.841V472.273H156.142ZM157.807 464.636C157.807 465.25 157.896 465.788 158.074 466.25C158.252 466.712 158.509 467.074 158.847 467.335C159.184 467.593 159.597 467.722 160.085 467.722C160.593 467.722 161.017 467.587 161.358 467.318C161.699 467.045 161.956 466.676 162.131 466.21C162.309 465.744 162.398 465.22 162.398 464.636C162.398 464.061 162.311 463.544 162.136 463.085C161.966 462.627 161.708 462.265 161.364 462C161.023 461.735 160.597 461.602 160.085 461.602C159.593 461.602 159.176 461.729 158.835 461.983C158.498 462.237 158.242 462.591 158.068 463.045C157.894 463.5 157.807 464.03 157.807 464.636ZM167.136 469.108C166.826 469.108 166.559 468.998 166.335 468.778C166.112 468.555 166 468.286 166 467.972C166 467.661 166.112 467.396 166.335 467.176C166.559 466.953 166.826 466.841 167.136 466.841C167.447 466.841 167.714 466.953 167.938 467.176C168.161 467.396 168.273 467.661 168.273 467.972C168.273 468.18 168.22 468.371 168.114 468.545C168.011 468.716 167.875 468.852 167.705 468.955C167.534 469.057 167.345 469.108 167.136 469.108ZM170.548 469V460.273H172.179V461.693H172.287C172.469 461.212 172.766 460.837 173.179 460.568C173.592 460.295 174.086 460.159 174.662 460.159C175.245 460.159 175.734 460.295 176.128 460.568C176.526 460.841 176.819 461.216 177.009 461.693H177.099C177.308 461.227 177.639 460.856 178.094 460.58C178.548 460.299 179.09 460.159 179.719 460.159C180.51 460.159 181.156 460.407 181.656 460.903C182.16 461.4 182.412 462.148 182.412 463.148V469H180.713V463.307C180.713 462.716 180.552 462.288 180.23 462.023C179.908 461.758 179.524 461.625 179.077 461.625C178.524 461.625 178.094 461.795 177.787 462.136C177.48 462.473 177.327 462.907 177.327 463.438V469H175.634V463.199C175.634 462.725 175.486 462.345 175.19 462.057C174.895 461.769 174.51 461.625 174.037 461.625C173.715 461.625 173.418 461.71 173.145 461.881C172.876 462.047 172.658 462.28 172.491 462.58C172.329 462.879 172.247 463.225 172.247 463.619V469H170.548ZM185.45 472.273C185.196 472.273 184.965 472.252 184.757 472.21C184.549 472.172 184.393 472.131 184.291 472.085L184.7 470.693C185.011 470.777 185.287 470.813 185.53 470.801C185.772 470.79 185.986 470.699 186.172 470.528C186.361 470.358 186.528 470.08 186.672 469.693L186.882 469.114L183.689 460.273H185.507L187.717 467.045H187.808L190.018 460.273H191.842L188.246 470.165C188.079 470.619 187.867 471.004 187.609 471.318C187.352 471.636 187.045 471.875 186.689 472.034C186.333 472.193 185.92 472.273 185.45 472.273ZM199.979 462.403L198.439 462.676C198.375 462.479 198.272 462.292 198.132 462.114C197.996 461.936 197.81 461.79 197.575 461.676C197.34 461.562 197.047 461.506 196.695 461.506C196.214 461.506 195.812 461.614 195.49 461.83C195.168 462.042 195.007 462.316 195.007 462.653C195.007 462.945 195.115 463.18 195.331 463.358C195.547 463.536 195.895 463.682 196.376 463.795L197.763 464.114C198.566 464.299 199.164 464.585 199.558 464.972C199.952 465.358 200.149 465.86 200.149 466.477C200.149 467 199.998 467.466 199.695 467.875C199.395 468.28 198.977 468.598 198.439 468.83C197.905 469.061 197.286 469.176 196.581 469.176C195.604 469.176 194.806 468.968 194.189 468.551C193.571 468.131 193.193 467.534 193.053 466.761L194.695 466.511C194.797 466.939 195.007 467.263 195.325 467.483C195.643 467.699 196.058 467.807 196.57 467.807C197.126 467.807 197.571 467.691 197.905 467.46C198.238 467.225 198.405 466.939 198.405 466.602C198.405 466.33 198.303 466.1 198.098 465.915C197.897 465.729 197.589 465.589 197.172 465.494L195.695 465.17C194.88 464.985 194.278 464.689 193.888 464.284C193.501 463.879 193.308 463.366 193.308 462.744C193.308 462.229 193.452 461.778 193.74 461.392C194.028 461.006 194.426 460.705 194.933 460.489C195.441 460.269 196.022 460.159 196.678 460.159C197.621 460.159 198.363 460.364 198.905 460.773C199.446 461.178 199.804 461.722 199.979 462.403ZM202.017 469V460.273H203.716V469H202.017ZM202.875 458.926C202.58 458.926 202.326 458.828 202.114 458.631C201.905 458.43 201.801 458.191 201.801 457.915C201.801 457.634 201.905 457.396 202.114 457.199C202.326 456.998 202.58 456.898 202.875 456.898C203.17 456.898 203.422 456.998 203.631 457.199C203.843 457.396 203.949 457.634 203.949 457.915C203.949 458.191 203.843 458.43 203.631 458.631C203.422 458.828 203.17 458.926 202.875 458.926ZM210.075 460.273V461.636H205.308V460.273H210.075ZM206.587 458.182H208.286V466.438C208.286 466.767 208.335 467.015 208.433 467.182C208.532 467.345 208.659 467.456 208.814 467.517C208.973 467.574 209.145 467.602 209.331 467.602C209.467 467.602 209.587 467.593 209.689 467.574C209.791 467.555 209.871 467.54 209.928 467.528L210.234 468.932C210.136 468.97 209.996 469.008 209.814 469.045C209.632 469.087 209.405 469.11 209.132 469.114C208.685 469.121 208.268 469.042 207.882 468.875C207.496 468.708 207.183 468.451 206.945 468.102C206.706 467.754 206.587 467.316 206.587 466.79V458.182ZM215.622 469.176C214.762 469.176 214.022 468.992 213.401 468.625C212.783 468.254 212.306 467.733 211.969 467.062C211.635 466.388 211.469 465.598 211.469 464.693C211.469 463.799 211.635 463.011 211.969 462.33C212.306 461.648 212.776 461.116 213.378 460.733C213.984 460.35 214.692 460.159 215.503 460.159C215.995 460.159 216.473 460.241 216.935 460.403C217.397 460.566 217.812 460.822 218.179 461.17C218.546 461.519 218.836 461.972 219.048 462.528C219.26 463.081 219.366 463.754 219.366 464.545V465.148H212.429V463.875H217.702C217.702 463.428 217.611 463.032 217.429 462.688C217.247 462.339 216.991 462.064 216.662 461.864C216.336 461.663 215.954 461.562 215.514 461.562C215.037 461.562 214.62 461.68 214.264 461.915C213.912 462.146 213.639 462.449 213.446 462.824C213.257 463.195 213.162 463.598 213.162 464.034V465.028C213.162 465.612 213.264 466.108 213.469 466.517C213.677 466.926 213.967 467.239 214.338 467.455C214.709 467.667 215.143 467.773 215.639 467.773C215.961 467.773 216.255 467.727 216.52 467.636C216.785 467.542 217.014 467.402 217.207 467.216C217.401 467.03 217.548 466.801 217.651 466.528L219.259 466.818C219.13 467.292 218.899 467.706 218.565 468.062C218.236 468.415 217.821 468.689 217.321 468.886C216.825 469.08 216.259 469.176 215.622 469.176ZM222.371 469.108C222.06 469.108 221.793 468.998 221.57 468.778C221.346 468.555 221.234 468.286 221.234 467.972C221.234 467.661 221.346 467.396 221.57 467.176C221.793 466.953 222.06 466.841 222.371 466.841C222.681 466.841 222.948 466.953 223.172 467.176C223.395 467.396 223.507 467.661 223.507 467.972C223.507 468.18 223.454 468.371 223.348 468.545C223.246 468.716 223.109 468.852 222.939 468.955C222.768 469.057 222.579 469.108 222.371 469.108ZM229.459 469.176C228.614 469.176 227.887 468.985 227.277 468.602C226.671 468.216 226.205 467.684 225.879 467.006C225.554 466.328 225.391 465.551 225.391 464.676C225.391 463.79 225.557 463.008 225.891 462.33C226.224 461.648 226.694 461.116 227.3 460.733C227.906 460.35 228.62 460.159 229.442 460.159C230.105 460.159 230.696 460.282 231.214 460.528C231.733 460.771 232.152 461.112 232.47 461.551C232.792 461.991 232.983 462.504 233.044 463.091H231.391C231.3 462.682 231.091 462.33 230.766 462.034C230.444 461.739 230.012 461.591 229.47 461.591C228.997 461.591 228.582 461.716 228.226 461.966C227.874 462.212 227.599 462.564 227.402 463.023C227.205 463.477 227.107 464.015 227.107 464.636C227.107 465.273 227.203 465.822 227.396 466.284C227.589 466.746 227.862 467.104 228.214 467.358C228.571 467.612 228.989 467.739 229.47 467.739C229.792 467.739 230.084 467.68 230.345 467.562C230.61 467.441 230.832 467.269 231.01 467.045C231.192 466.822 231.319 466.553 231.391 466.239H233.044C232.983 466.803 232.8 467.307 232.493 467.75C232.186 468.193 231.775 468.542 231.26 468.795C230.749 469.049 230.148 469.176 229.459 469.176ZM238.537 469.176C237.719 469.176 237.005 468.989 236.395 468.614C235.785 468.239 235.312 467.714 234.974 467.04C234.637 466.366 234.469 465.578 234.469 464.676C234.469 463.771 234.637 462.979 234.974 462.301C235.312 461.623 235.785 461.097 236.395 460.722C237.005 460.347 237.719 460.159 238.537 460.159C239.355 460.159 240.069 460.347 240.679 460.722C241.289 461.097 241.762 461.623 242.099 462.301C242.437 462.979 242.605 463.771 242.605 464.676C242.605 465.578 242.437 466.366 242.099 467.04C241.762 467.714 241.289 468.239 240.679 468.614C240.069 468.989 239.355 469.176 238.537 469.176ZM238.543 467.75C239.073 467.75 239.512 467.61 239.861 467.33C240.209 467.049 240.467 466.676 240.634 466.21C240.804 465.744 240.889 465.231 240.889 464.67C240.889 464.114 240.804 463.602 240.634 463.136C240.467 462.667 240.209 462.29 239.861 462.006C239.512 461.722 239.073 461.58 238.543 461.58C238.009 461.58 237.565 461.722 237.213 462.006C236.865 462.29 236.605 462.667 236.435 463.136C236.268 463.602 236.185 464.114 236.185 464.67C236.185 465.231 236.268 465.744 236.435 466.21C236.605 466.676 236.865 467.049 237.213 467.33C237.565 467.61 238.009 467.75 238.543 467.75ZM244.501 469V460.273H246.132V461.693H246.24C246.422 461.212 246.719 460.837 247.132 460.568C247.545 460.295 248.039 460.159 248.615 460.159C249.198 460.159 249.687 460.295 250.081 460.568C250.479 460.841 250.772 461.216 250.962 461.693H251.053C251.261 461.227 251.592 460.856 252.047 460.58C252.501 460.299 253.043 460.159 253.672 460.159C254.464 460.159 255.109 460.407 255.609 460.903C256.113 461.4 256.365 462.148 256.365 463.148V469H254.666V463.307C254.666 462.716 254.505 462.288 254.183 462.023C253.861 461.758 253.477 461.625 253.03 461.625C252.477 461.625 252.047 461.795 251.74 462.136C251.433 462.473 251.28 462.907 251.28 463.438V469H249.587V463.199C249.587 462.725 249.439 462.345 249.143 462.057C248.848 461.769 248.464 461.625 247.99 461.625C247.668 461.625 247.371 461.71 247.098 461.881C246.829 462.047 246.611 462.28 246.445 462.58C246.282 462.879 246.2 463.225 246.2 463.619V469H244.501Z" fill="#636369"/>
<rect x="-1" y="1" width="421" height="84" rx="7" transform="matrix(-1 0 0 1 513 420)" stroke="#E1E8F2" stroke-width="2" stroke-dasharray="8 8"/>
<rect x="-2" y="2" width="447" height="108" rx="6" transform="matrix(-1 0 0 1 525 407)" stroke="#121212" stroke-width="4"/>
<rect x="288.914" y="351" width="6" height="6" rx="3" fill="#121212"/>
<path d="M292.26 399.974C292.107 400.241 291.722 400.241 291.568 399.974L288.796 395.174C288.642 394.908 288.835 394.574 289.143 394.574L294.685 394.574C294.993 394.574 295.186 394.908 295.032 395.174L292.26 399.974Z" fill="#121212"/>
<line x1="291.963" y1="356.574" x2="291.963" y2="396.574" stroke="#121212" stroke-width="2"/>
<g clip-path="url(#clip0_302_19569)">
<path d="M134.944 168.556C134.944 169.906 133.85 171 132.5 171H119.056C117.706 171 116.611 169.906 116.611 168.556V151.444C116.611 150.094 117.706 149 119.056 149H132.5C133.85 149 134.944 150.094 134.944 151.444V168.556Z" fill="#CCD6DD"/>
<path d="M132.5 163.666C132.5 164.004 132.227 164.277 131.889 164.277H119.667C119.329 164.277 119.056 164.004 119.056 163.666C119.056 163.328 119.329 163.055 119.667 163.055H131.889C132.227 163.055 132.5 163.328 132.5 163.666ZM122.722 166.111C122.722 166.449 122.448 166.722 122.111 166.722H119.667C119.329 166.722 119.056 166.449 119.056 166.111C119.056 165.773 119.329 165.5 119.667 165.5H122.111C122.448 165.5 122.722 165.773 122.722 166.111ZM132.5 153.888C132.5 154.226 132.227 154.5 131.889 154.5H119.667C119.329 154.5 119.056 154.226 119.056 153.888C119.056 153.551 119.329 153.277 119.667 153.277H131.889C132.227 153.277 132.5 153.551 132.5 153.888ZM132.5 156.333C132.5 156.671 132.227 156.944 131.889 156.944H119.667C119.329 156.944 119.056 156.671 119.056 156.333C119.056 155.995 119.329 155.722 119.667 155.722H131.889C132.227 155.722 132.5 155.995 132.5 156.333ZM132.5 158.777C132.5 159.115 132.227 159.388 131.889 159.388H119.667C119.329 159.388 119.056 159.115 119.056 158.777C119.056 158.439 119.329 158.166 119.667 158.166H131.889C132.227 158.166 132.5 158.439 132.5 158.777ZM132.5 161.222C132.5 161.56 132.227 161.833 131.889 161.833H119.667C119.329 161.833 119.056 161.56 119.056 161.222C119.056 160.884 119.329 160.611 119.667 160.611H131.889C132.227 160.611 132.5 160.884 132.5 161.222Z" fill="#99AAB5"/>
<path d="M134.944 152.832C134.439 152.506 133.822 152.479 133.404 152.818L132.92 153.213L132.013 153.953L131.952 154.002L130.5 155.186L123.241 161.106C122.974 161.324 122.756 161.851 122.524 162.373C122.293 162.893 121.932 164.116 121.642 165.057C121.552 165.209 120.992 166.185 121.306 166.556C121.623 166.931 122.727 166.562 122.875 166.509C123.869 166.403 125.155 166.281 125.715 166.155C126.28 166.026 126.848 165.913 127.115 165.695C127.12 165.691 127.122 165.684 127.126 165.681L134.372 159.774L134.856 159.379L134.944 159.307V152.832Z" fill="#66757F"/>
<path d="M127.089 162.765C127.089 162.765 126.31 161.616 125.795 161.205C125.384 160.69 124.237 159.912 124.237 159.912C123.963 159.64 123.509 159.619 123.242 159.886C122.975 160.154 122.757 160.721 122.525 161.286C122.236 161.986 121.745 163.825 121.444 164.801C121.394 164.967 121.76 164.526 121.752 164.673C121.746 164.787 121.768 164.914 121.797 165.028L121.708 165.125L121.835 165.166C121.85 165.216 121.865 165.26 121.876 165.294L121.974 165.205C122.088 165.234 122.214 165.256 122.328 165.25C122.475 165.242 122.033 165.609 122.2 165.558C123.176 165.256 125.015 164.766 125.715 164.477C126.28 164.244 126.848 164.027 127.115 163.76C127.383 163.494 127.363 163.04 127.089 162.765Z" fill="#D99E82"/>
<path d="M131.468 151.659C130.933 152.194 130.933 153.061 131.468 153.595L133.404 155.531C133.939 156.065 134.806 156.065 135.34 155.531L137.276 153.595C137.811 153.061 137.811 152.194 137.276 151.659L135.34 149.723C134.806 149.189 133.939 149.189 133.404 149.723L131.468 151.659Z" fill="#EA596E"/>
<path d="M123.241 159.887L125.178 161.825L127.112 163.759L134.373 156.5L130.5 152.628L123.241 159.887Z" fill="#FFCC4D"/>
<path d="M122.904 165.342C122.904 165.342 121.645 166.035 121.306 165.694C120.965 165.353 121.661 164.099 121.661 164.099C121.661 164.099 122.853 164.121 122.904 165.342Z" fill="#292F33"/>
<path d="M130.5 152.627L132.92 150.207L136.792 154.08L134.372 156.5L130.5 152.627Z" fill="#CCD6DD"/>
<path d="M131.952 151.174L132.436 150.69L136.308 154.562L135.824 155.046L131.952 151.174ZM130.984 152.142L131.468 151.659L135.34 155.53L134.856 156.014L130.984 152.142Z" fill="#99AAB5"/>
</g>
<path d="M149.354 166.18C152.918 166.18 154.844 164.308 154.844 161.32V161.158H151.964V161.248C151.964 162.976 151.244 163.57 149.336 163.57C147.302 163.57 146.456 162.832 146.456 159.97C146.456 157.108 147.302 156.37 149.336 156.37C151.244 156.37 151.964 156.964 151.964 158.692V158.782H154.844V158.62C154.844 155.632 152.918 153.76 149.354 153.76C145.736 153.76 143.576 156.208 143.576 159.97C143.576 163.732 145.736 166.18 149.354 166.18ZM159.478 166V160.33C159.478 159.34 159.874 159.052 160.702 159.052C161.548 159.052 161.854 159.358 161.854 160.33V160.816H164.536V159.988C164.536 158.17 163.834 156.766 161.944 156.766C160.666 156.766 159.856 157.486 159.406 158.404H159.298V156.946H156.796V166H159.478ZM170.354 166.18C172.946 166.18 174.602 165.046 174.602 163.12V162.94H171.938V163.048C171.938 163.606 171.47 163.84 170.39 163.84C168.914 163.84 168.41 163.336 168.356 162.076H174.566C174.62 161.77 174.692 161.248 174.692 160.744C174.692 158.386 173.09 156.766 170.372 156.766C167.546 156.766 165.818 158.602 165.818 161.5C165.818 164.362 167.24 166.18 170.354 166.18ZM170.282 158.98C171.542 158.98 172.154 159.502 172.1 160.438H168.374C168.482 159.484 168.986 158.98 170.282 158.98ZM179.098 166.18C180.772 166.18 181.69 165.442 182.176 164.776H182.284V166H184.786V160.636C184.786 158.224 183.382 156.766 180.718 156.766C178.162 156.766 176.488 158.188 176.488 160.348V160.546H179.062V160.348C179.062 159.43 179.494 159.124 180.592 159.124C181.654 159.124 182.23 159.322 182.23 160.384V160.672L179.134 161.14C177.262 161.428 176.254 162.292 176.254 163.696C176.254 165.334 177.496 166.18 179.098 166.18ZM178.828 163.48C178.828 163.102 179.08 162.922 179.638 162.832L182.23 162.436C182.23 163.84 181.096 164.128 179.998 164.128C179.206 164.128 178.828 163.966 178.828 163.48ZM191.033 166.036C191.663 166.036 192.365 165.946 192.797 165.856V163.606H191.681C190.511 163.606 190.241 163.516 190.241 162.724V159.178H192.797V156.946H190.241V154.84H188.117L187.613 156.946H186.101V159.178H187.541V163.03C187.541 165.172 188.675 166.036 191.033 166.036ZM198.553 166.18C201.145 166.18 202.801 165.046 202.801 163.12V162.94H200.137V163.048C200.137 163.606 199.669 163.84 198.589 163.84C197.113 163.84 196.609 163.336 196.555 162.076H202.765C202.819 161.77 202.891 161.248 202.891 160.744C202.891 158.386 201.289 156.766 198.571 156.766C195.745 156.766 194.017 158.602 194.017 161.5C194.017 164.362 195.439 166.18 198.553 166.18ZM198.481 158.98C199.741 158.98 200.353 159.502 200.299 160.438H196.573C196.681 159.484 197.185 158.98 198.481 158.98ZM211.515 166V160.294L211.479 158.44H211.659L212.829 160.294L216.573 166H219.453V153.94H216.753V159.988L216.789 161.608H216.609L215.601 159.988L211.695 153.94H208.815V166H211.515ZM225.714 166.18C228.306 166.18 229.962 165.046 229.962 163.12V162.94H227.298V163.048C227.298 163.606 226.83 163.84 225.75 163.84C224.274 163.84 223.77 163.336 223.716 162.076H229.926C229.98 161.77 230.052 161.248 230.052 160.744C230.052 158.386 228.45 156.766 225.732 156.766C222.906 156.766 221.178 158.602 221.178 161.5C221.178 164.362 222.6 166.18 225.714 166.18ZM225.642 158.98C226.902 158.98 227.514 159.502 227.46 160.438H223.734C223.842 159.484 224.346 158.98 225.642 158.98ZM236.466 166L237.654 161.698L238.104 159.322H238.302L238.752 161.698L239.922 166H243.45L245.556 156.946H242.712L242.082 161.14L241.758 163.84H241.578L241.092 161.14L239.976 156.946H236.538L235.44 161.122L234.936 163.84H234.738L234.396 161.122L233.802 156.946H230.832L232.938 166H236.466ZM253.052 166L254.042 163.318H259.154L260.126 166H263.06L258.614 153.94H254.69L250.244 166H253.052ZM255.608 159.034L256.526 156.316H256.706L257.588 159.034L258.272 160.906H254.924L255.608 159.034ZM267.037 166V160.33C267.037 159.34 267.433 159.052 268.261 159.052C269.107 159.052 269.413 159.358 269.413 160.33V160.816H272.095V159.988C272.095 158.17 271.393 156.766 269.503 156.766C268.225 156.766 267.415 157.486 266.965 158.404H266.857V156.946H264.355V166H267.037ZM278.036 166.036C278.666 166.036 279.368 165.946 279.8 165.856V163.606H278.684C277.514 163.606 277.244 163.516 277.244 162.724V159.178H279.8V156.946H277.244V154.84H275.12L274.616 156.946H273.104V159.178H274.544V163.03C274.544 165.172 275.678 166.036 278.036 166.036ZM284.092 155.92V153.94H281.41L281.446 155.92H284.092ZM284.146 166V156.946H281.446V166H284.146ZM290.35 166.18C292.852 166.18 294.67 164.704 294.67 162.472V162.256H291.97V162.4C291.97 163.426 291.394 163.768 290.278 163.768C288.982 163.768 288.424 163.156 288.424 161.482C288.424 159.79 288.982 159.178 290.278 159.178C291.394 159.178 291.97 159.52 291.97 160.546V160.69H294.67V160.474C294.67 158.242 292.906 156.766 290.494 156.766C287.47 156.766 285.76 158.602 285.76 161.5C285.76 164.362 287.362 166.18 290.35 166.18ZM299.132 166V153.94H296.45V166H299.132ZM305.456 166.18C308.048 166.18 309.704 165.046 309.704 163.12V162.94H307.04V163.048C307.04 163.606 306.572 163.84 305.492 163.84C304.016 163.84 303.512 163.336 303.458 162.076H309.668C309.722 161.77 309.794 161.248 309.794 160.744C309.794 158.386 308.192 156.766 305.474 156.766C302.648 156.766 300.92 158.602 300.92 161.5C300.92 164.362 302.342 166.18 305.456 166.18ZM305.384 158.98C306.644 158.98 307.256 159.502 307.202 160.438H303.476C303.584 159.484 304.088 158.98 305.384 158.98Z" fill="black"/>
<defs>
<clipPath id="clip0_302_19569">
<rect width="22" height="22" fill="white" transform="translate(116 149)"/>
</clipPath>
</defs>
</svg>
