<svg width="24" height="25" viewBox="0 0 24 25" fill="none" xmlns="http://www.w3.org/2000/svg">
<path d="M16.425 17.5344L17.475 16.4844L15 14.0094C15.2333 13.6427 15.4083 13.2677 15.525 12.8844C15.6417 12.501 15.7 12.0927 15.7 11.6594C15.7 10.476 15.2958 9.48021 14.4875 8.67188C13.6792 7.86354 12.6917 7.45937 11.525 7.45937C10.3583 7.45937 9.35417 7.86354 8.5125 8.67188C7.67083 9.48021 7.25 10.476 7.25 11.6594C7.25 12.8594 7.67083 13.8677 8.5125 14.6844C9.35417 15.501 10.3583 15.9094 11.525 15.9094C11.975 15.9094 12.4042 15.8427 12.8125 15.7094C13.2208 15.576 13.6 15.3594 13.95 15.0594L16.425 17.5344ZM11.525 14.4094C10.7583 14.4094 10.1042 14.151 9.5625 13.6344C9.02083 13.1177 8.75 12.4594 8.75 11.6594C8.75 10.876 9.02083 10.2302 9.5625 9.72188C10.1042 9.21354 10.7583 8.95938 11.525 8.95938C12.2917 8.95938 12.9292 9.21354 13.4375 9.72188C13.9458 10.2302 14.2 10.876 14.2 11.6594C14.2 12.4594 13.9458 13.1177 13.4375 13.6344C12.9292 14.151 12.2917 14.4094 11.525 14.4094ZM3.5 20.2344C3.1 20.2344 2.75 20.0844 2.45 19.7844C2.15 19.4844 2 19.1344 2 18.7344V5.73438C2 5.33437 2.15 4.98437 2.45 4.68437C2.75 4.38437 3.1 4.23438 3.5 4.23438H20.5C20.9167 4.23438 21.2708 4.38437 21.5625 4.68437C21.8542 4.98437 22 5.33437 22 5.73438V18.7344C22 19.1344 21.8542 19.4844 21.5625 19.7844C21.2708 20.0844 20.9167 20.2344 20.5 20.2344H3.5ZM3.5 18.7344H20.5V5.73438H3.5V18.7344Z" fill="#1C1B1F"/>
</svg>
