<svg width="608" height="561" viewBox="0 0 608 561" fill="none" xmlns="http://www.w3.org/2000/svg">
<path d="M559.504 -30.96L559.504 47.6796M559.504 592.153L559.504 311.843M559.504 246.101L559.504 97.8826" stroke="#97969C" stroke-dasharray="4 4"/>
<path d="M457.312 -30.583L457.313 371.462M457.313 591.978L457.313 396.135" stroke="#97969C" stroke-dasharray="4 4"/>
<path d="M355.621 -30.7725L355.621 134.021M355.621 591.975L355.621 510.729M355.621 216.736L355.621 461.13" stroke="#97969C" stroke-dasharray="4 4"/>
<path d="M252.93 -30.583L252.93 60.1604M252.93 591.971L252.93 84.4628" stroke="#97969C" stroke-dasharray="4 4"/>
<path d="M150.739 -30.7705L150.738 342.922M150.738 591.979L150.738 425.995" stroke="#97969C" stroke-dasharray="4 4"/>
<path d="M48.547 -30.9619L48.5469 152.866M48.5469 591.968L48.5469 288.95M48.5469 198.885L48.5469 271.716" stroke="#97969C" stroke-dasharray="4 4"/>
<path d="M0 487.649L330.227 487.649M608 487.649L379.607 487.649" stroke="#97969C" stroke-dasharray="4 4"/>
<path d="M0 383.856H112.263M608 383.856L469.346 383.856M190.468 383.856H444.674" stroke="#97969C" stroke-dasharray="4 4"/>
<path d="M0 176.271H25.6723M608 176.271L396.708 176.271M316 176.271L73.3582 176.271" stroke="#97969C" stroke-dasharray="4 4"/>
<path d="M0 280.063H39.4795M608 280.063H592.678M527.354 280.063L57.1204 280.063" stroke="#97969C" stroke-dasharray="4 4"/>
<path d="M0 72.4775L239.558 72.4775M608 72.4775H582.879M534.54 72.4775L265.522 72.4775" stroke="#97969C" stroke-dasharray="4 4"/>
<path d="M355.621 511.63L365.803 497.812L379.621 487.63L365.803 477.448L355.621 463.63L345.439 477.448L331.621 487.63L345.439 497.812L355.621 511.63Z" stroke="#97969C" stroke-dasharray="4 4"/>
<path d="M559.48 96.3955L569.663 82.5778L583.48 72.3955L569.663 62.2132L559.48 48.3955L549.298 62.2132L535.48 72.3955L549.298 82.5778L559.48 96.3955Z" stroke="#97969C" stroke-dasharray="4 4"/>
<path d="M48.6016 200.126L58.7839 186.308L72.6016 176.126L58.7839 165.944L48.6016 152.126L38.4192 165.944L24.6016 176.126L38.4192 186.308L48.6016 200.126Z" stroke="#97969C" stroke-dasharray="4 4"/>
<path d="M559.469 311.979L573.045 293.556L591.469 279.979L573.045 266.403L559.469 247.979L545.892 266.403L527.469 279.979L545.892 293.556L559.469 311.979Z" stroke="#97969C" stroke-dasharray="4 4"/>
<path d="M150.754 423.886L167.724 400.856L190.754 383.886L167.724 366.915L150.754 343.886L133.783 366.915L110.754 383.886L133.783 400.856L150.754 423.886Z" stroke="#97969C" stroke-dasharray="4 4"/>
<path d="M355.621 216.276L372.592 193.247L395.621 176.276L372.592 159.306L355.621 136.276L338.651 159.306L315.621 176.276L338.651 193.247L355.621 216.276Z" stroke="#97969C" stroke-dasharray="4 4"/>
<circle r="12" transform="matrix(1 0 0 -1 457.246 383.856)" stroke="#97969C" stroke-dasharray="4 4"/>
<circle r="8" transform="matrix(1 0 0 -1 48.5469 280.063)" stroke="#97969C" stroke-dasharray="4 4"/>
<circle r="12" transform="matrix(1 0 0 -1 252.598 72.4775)" stroke="#97969C" stroke-dasharray="4 4"/>
<rect x="-2" y="2" width="442" height="442" rx="6" transform="matrix(-1 0 0 1 543 74)" fill="#121212"/>
<rect x="-2" y="2" width="442" height="442" rx="6" transform="matrix(-1 0 0 1 543 74)" stroke="#121212" stroke-width="4"/>
<rect x="-2" y="2" width="441" height="441" rx="6" transform="matrix(-1 0 0 1 525 61)" fill="#F5F6F8"/>
<rect x="-2" y="2" width="441" height="441" rx="6" transform="matrix(-1 0 0 1 525 61)" stroke="#121212" stroke-width="4"/>
<rect x="96" y="74" width="422" height="38" rx="4" fill="white"/>
<rect x="113" y="88" width="10" height="10" rx="5" fill="#EB5757"/>
<rect x="131" y="88" width="10" height="10" rx="5" fill="#F2C94C"/>
<rect x="149" y="88" width="10" height="10" rx="5" fill="#27AE60"/>
<path d="M491.438 87V99" stroke="#E7EDF5" stroke-width="2" stroke-linecap="round"/>
<path d="M497.438 93L485.437 93" stroke="#E7EDF5" stroke-width="2" stroke-linecap="round"/>
<rect x="-1" y="1" width="419" height="363" rx="7" transform="matrix(-1 0 0 1 515 128)" fill="#F5F6F8"/>
<path d="M149.546 169V164.14H154.802V169H157.502V156.94H154.802V161.728H149.546V156.94H146.846V169H149.546ZM163.762 169.18C166.354 169.18 168.01 168.046 168.01 166.12V165.94H165.346V166.048C165.346 166.606 164.878 166.84 163.798 166.84C162.322 166.84 161.818 166.336 161.764 165.076H167.974C168.028 164.77 168.1 164.248 168.1 163.744C168.1 161.386 166.498 159.766 163.78 159.766C160.954 159.766 159.226 161.602 159.226 164.5C159.226 167.362 160.648 169.18 163.762 169.18ZM163.69 161.98C164.95 161.98 165.562 162.502 165.508 163.438H161.782C161.89 162.484 162.394 161.98 163.69 161.98ZM172.633 169V156.94H169.951V169H172.633ZM177.371 172.024V167.812H177.461C177.875 168.586 178.757 169.18 180.197 169.18C182.645 169.18 184.031 167.326 184.031 164.482C184.031 161.62 182.699 159.766 180.143 159.766C178.793 159.766 177.749 160.306 177.263 161.278H177.173V159.946H174.671V172.024H177.371ZM177.371 165.202V163.744C177.371 162.52 178.073 162.07 179.351 162.07C180.917 162.07 181.331 162.826 181.331 164.482C181.331 166.12 180.917 166.876 179.351 166.876C178.073 166.876 177.371 166.426 177.371 165.202ZM195.536 169.18C199.1 169.18 201.026 167.308 201.026 164.32V164.158H198.146V164.248C198.146 165.976 197.426 166.57 195.518 166.57C193.484 166.57 192.638 165.832 192.638 162.97C192.638 160.108 193.484 159.37 195.518 159.37C197.426 159.37 198.146 159.964 198.146 161.692V161.782H201.026V161.62C201.026 158.632 199.1 156.76 195.536 156.76C191.918 156.76 189.758 159.208 189.758 162.97C189.758 166.732 191.918 169.18 195.536 169.18ZM207.19 169.18C209.782 169.18 211.438 168.046 211.438 166.12V165.94H208.774V166.048C208.774 166.606 208.306 166.84 207.226 166.84C205.75 166.84 205.246 166.336 205.192 165.076H211.402C211.456 164.77 211.528 164.248 211.528 163.744C211.528 161.386 209.926 159.766 207.208 159.766C204.382 159.766 202.654 161.602 202.654 164.5C202.654 167.362 204.076 169.18 207.19 169.18ZM207.118 161.98C208.378 161.98 208.99 162.502 208.936 163.438H205.21C205.318 162.484 205.822 161.98 207.118 161.98ZM216.044 169V163.87C216.044 162.502 216.602 162.088 217.898 162.088C219.266 162.088 219.68 162.538 219.68 163.798V169H222.38V163.258C222.38 161.332 221.372 159.766 219.014 159.766C217.43 159.766 216.458 160.504 215.972 161.53H215.864V159.946H213.362V169H216.044ZM228.607 169.036C229.237 169.036 229.939 168.946 230.371 168.856V166.606H229.255C228.085 166.606 227.815 166.516 227.815 165.724V162.178H230.371V159.946H227.815V157.84H225.691L225.187 159.946H223.675V162.178H225.115V166.03C225.115 168.172 226.249 169.036 228.607 169.036ZM236.127 169.18C238.719 169.18 240.375 168.046 240.375 166.12V165.94H237.711V166.048C237.711 166.606 237.243 166.84 236.163 166.84C234.687 166.84 234.183 166.336 234.129 165.076H240.339C240.393 164.77 240.465 164.248 240.465 163.744C240.465 161.386 238.863 159.766 236.145 159.766C233.319 159.766 231.591 161.602 231.591 164.5C231.591 167.362 233.013 169.18 236.127 169.18ZM236.055 161.98C237.315 161.98 237.927 162.502 237.873 163.438H234.147C234.255 162.484 234.759 161.98 236.055 161.98ZM244.98 169V163.33C244.98 162.34 245.376 162.052 246.204 162.052C247.05 162.052 247.356 162.358 247.356 163.33V163.816H250.038V162.988C250.038 161.17 249.336 159.766 247.446 159.766C246.168 159.766 245.358 160.486 244.908 161.404H244.8V159.946H242.298V169H244.98Z" fill="black"/>
<g clip-path="url(#clip0_334_16236)">
<path d="M141.605 170.728L126.111 155.234L123.235 158.111L138.729 173.605C138.766 173.642 139.103 173.966 139.579 173.966C139.869 173.966 140.147 173.841 140.383 173.605L141.605 172.383C141.937 172.05 142.212 171.335 141.605 170.728Z" fill="#8899A6"/>
<path d="M138.333 173.389C138.27 173.389 138.204 173.379 138.14 173.357C137.821 173.251 137.647 172.905 137.754 172.584L138.976 168.918C139.083 168.598 139.425 168.424 139.749 168.531C140.069 168.638 140.242 168.984 140.135 169.304L138.913 172.971C138.828 173.227 138.589 173.389 138.333 173.389ZM136.5 171.556C136.436 171.556 136.371 171.545 136.307 171.524C135.987 171.418 135.814 171.072 135.921 170.751L137.143 167.084C137.249 166.765 137.593 166.59 137.916 166.698C138.236 166.804 138.409 167.15 138.302 167.471L137.08 171.138C136.994 171.394 136.756 171.556 136.5 171.556ZM134.667 169.722C134.603 169.722 134.538 169.712 134.474 169.691C134.154 169.584 133.98 169.238 134.087 168.918L135.31 165.251C135.416 164.931 135.759 164.757 136.083 164.865C136.402 164.971 136.576 165.317 136.469 165.638L135.247 169.304C135.161 169.56 134.923 169.722 134.667 169.722ZM132.833 167.889C132.77 167.889 132.704 167.879 132.64 167.857C132.321 167.751 132.147 167.405 132.254 167.084L133.476 163.418C133.583 163.098 133.927 162.923 134.249 163.031C134.569 163.138 134.742 163.484 134.635 163.804L133.413 167.471C133.328 167.727 133.089 167.889 132.833 167.889ZM129.778 164.834C129.714 164.834 129.649 164.823 129.585 164.802C129.264 164.695 129.091 164.35 129.198 164.029L130.421 160.362C130.528 160.042 130.873 159.868 131.194 159.976C131.514 160.083 131.687 160.429 131.58 160.749L130.358 164.416C130.272 164.672 130.034 164.834 129.778 164.834ZM127.944 163C127.881 163 127.815 162.99 127.751 162.968C127.431 162.861 127.258 162.516 127.365 162.195L128.587 158.529C128.694 158.209 129.039 158.034 129.36 158.142C129.681 158.249 129.854 158.595 129.747 158.916L128.524 162.582C128.439 162.838 128.2 163 127.944 163ZM126.111 161.167C126.048 161.167 125.982 161.156 125.918 161.135C125.598 161.028 125.425 160.682 125.532 160.362L126.754 156.695C126.861 156.376 127.206 156.202 127.527 156.309C127.847 156.416 128.02 156.762 127.913 157.082L126.691 160.749C126.605 161.005 126.367 161.167 126.111 161.167Z" fill="#66757F"/>
<path d="M127.944 167.278C127.944 167.278 127.333 166.667 127.944 166.056L134.056 159.944C134.056 159.944 134.667 159.333 135.278 159.944L137.111 161.778C137.111 161.778 137.722 162.389 137.111 163L131 169.111C131 169.111 130.389 169.722 129.778 169.111L127.944 167.278Z" fill="#CCD6DD"/>
<path d="M127.944 166.055C127.333 166.666 127.944 167.277 127.944 167.277L129.778 169.111C130.389 169.722 131 169.111 131 169.111L132.222 167.889L129.167 164.833L127.944 166.055Z" fill="#8899A6"/>
<path d="M137.111 163C137.722 162.389 137.111 161.778 137.111 161.778L135.278 159.944C134.667 159.333 134.056 159.944 134.056 159.944L132.833 161.167L135.889 164.222L137.111 163Z" fill="#E1E8ED"/>
<path d="M120.611 159.945C120.611 159.945 120 159.334 120.611 158.723L126.722 152.611C126.722 152.611 127.333 152 127.944 152.611L129.778 154.445C129.778 154.445 130.389 155.056 129.778 155.667L123.667 161.778C123.667 161.778 123.056 162.389 122.444 161.778L120.611 159.945Z" fill="#CCD6DD"/>
<path d="M120.611 158.722C120 159.333 120.611 159.944 120.611 159.944L122.444 161.778C123.056 162.389 123.667 161.778 123.667 161.778L124.889 160.556L121.833 157.5L120.611 158.722Z" fill="#8899A6"/>
<path d="M129.778 155.667C130.389 155.056 129.778 154.445 129.778 154.445L127.944 152.611C127.333 152 126.722 152.611 126.722 152.611L125.5 153.834L128.556 156.889L129.778 155.667Z" fill="#E1E8ED"/>
</g>
<rect x="120.5" y="216.5" width="363" height="251" rx="7.5" fill="white"/>
<rect x="120.5" y="216.5" width="363" height="251" rx="7.5" stroke="black"/>
<line x1="120" y1="189.021" x2="484.145" y2="189.021" stroke="#DFE7F2" stroke-width="2"/>
<rect x="454.148" y="148" width="30" height="30" rx="4" fill="white"/>
<path d="M469.148 157V169" stroke="#B3C2D8" stroke-width="2" stroke-linecap="round"/>
<path d="M475.148 163L463.148 163" stroke="#B3C2D8" stroke-width="2" stroke-linecap="round"/>
<circle cx="159.5" cy="254.5" r="17.5" fill="#E3E7EF"/>
<circle cx="159.5" cy="299.5" r="17.5" fill="#E3E7EF"/>
<circle cx="159.5" cy="344.5" r="17.5" fill="#E3E7EF"/>
<circle cx="159.5" cy="389.5" r="17.5" fill="#E3E7EF"/>
<circle cx="159.5" cy="434.5" r="17.5" fill="#E3E7EF"/>
<rect x="-1" y="1" width="419" height="363" rx="7" transform="matrix(-1 0 0 1 515 128)" stroke="#E1E8F2" stroke-width="2" stroke-dasharray="8 8"/>
<rect x="191" y="246" width="272" height="10" rx="5" fill="#E3E7EF"/>
<rect x="191" y="291" width="272" height="10" rx="5" fill="#E3E7EF"/>
<rect x="191" y="336" width="272" height="10" rx="5" fill="#E3E7EF"/>
<rect x="191" y="381" width="272" height="10" rx="5" fill="#E3E7EF"/>
<rect x="191" y="426" width="272" height="10" rx="5" fill="#E3E7EF"/>
<defs>
<clipPath id="clip0_334_16236">
<rect width="22" height="22" fill="white" transform="translate(120 152)"/>
</clipPath>
</defs>
</svg>
