<svg xmlns="http://www.w3.org/2000/svg" width="608" height="561" fill="none" xmlns:v="https://vecta.io/nano"><style><![CDATA[.B{stroke-width:2}.C{stroke:#121212}.D{stroke-width:4}.E{fill:#121212}.F{fill:#f5f6f8}.G{stroke-linecap:round}.H{stroke-dasharray:8 8}]]></style><g stroke="#97969c" stroke-dasharray="4 4"><path d="M48.496-31.321v78.64m0 544.473v-280.31m0-65.742V97.521M150.688-30.944l-.001 402.045m0 220.516V395.773M252.379-31.134V133.66m0 457.954v-81.247m0-293.992v244.394M355.07-30.944v90.743m0 531.811V84.102M457.261-31.132l.001 373.692m0 249.058V425.634M559.453-31.323v183.827m0 439.103V288.589m0-90.065v72.831"/><path d="M608 487.288H277.773M0 487.288h228.393M608 383.495H495.737M0 383.495h138.654m278.878 0H163.326M608 175.909h-25.672M0 175.909h211.292m80.708 0h242.642M608 279.702h-39.48m-568.52 0h15.322m65.323 0H550.88M608 72.116H368.442M0 72.116h25.121m48.339 0h269.018"/><path d="M252.379 511.269l-10.182-13.818-13.818-10.182 13.818-10.183 10.182-13.817 10.182 13.817 13.818 10.183-13.818 10.182-10.182 13.818zM48.52 96.034L38.337 82.217 24.52 72.034l13.818-10.182L48.52 48.034l10.182 13.818L72.52 72.034 58.702 82.217 48.52 96.034zm510.878 103.731l-10.182-13.818-13.818-10.182 13.818-10.183 10.182-13.817 10.183 13.817 13.817 10.183-13.817 10.182-10.183 13.818zM48.531 311.618l-13.576-18.423-18.424-13.577 18.424-13.576 13.576-18.424 13.577 18.424 18.423 13.576-18.423 13.577-13.577 18.423zm408.715 111.906l-16.97-23.029-23.03-16.971 23.03-16.97 16.97-23.03 16.971 23.03 23.029 16.97-23.029 16.971-16.971 23.029zM252.379 215.915l-16.971-23.029-23.029-16.971 23.029-16.971 16.971-23.029 16.97 23.029 23.03 16.971-23.03 16.971-16.97 23.029z"/><circle cx="150.754" cy="383.495" r="12" transform="rotate(180 150.754 383.495)"/><circle cx="559.453" cy="279.702" r="8" transform="rotate(180 559.453 279.702)"/><circle cx="355.402" cy="72.116" r="12" transform="rotate(180 355.402 72.116)"/></g><g transform="matrix(-1 0 0 1 502 74)"><rect x="-2" y="2" width="442" height="260" rx="6" class="E"/><rect x="-2" y="2" width="442" height="260" rx="6" class="C D"/></g><g transform="matrix(-1 0 0 1 521 61)"><rect x="-2" y="2" width="441" height="255" rx="6" class="F"/><rect x="-2" y="2" width="441" height="255" rx="6" class="C D"/></g><rect x="91.786" y="73.639" width="422" height="38" rx="4" fill="#fff"/><rect x="108.786" y="87.639" width="10" height="10" rx="5" fill="#eb5757"/><rect x="126.786" y="87.639" width="10" height="10" rx="5" fill="#f2c94c"/><rect x="144.786" y="87.639" width="10" height="10" rx="5" fill="#27ae60"/><g stroke="#e7edf5" class="B G"><path d="M487.224 86.639v12"/><path d="M493.224 92.639h-12"/></g><rect x="-1" y="1" width="419" height="175" rx="7" transform="matrix(-1 0 0 1 511 125)" class="F"/><path stroke="#dfe7f2" d="M116 186.021h364.145" class="B"/><rect x="450.148" y="145" width="30" height="30" rx="4" fill="#fff"/><g stroke="#b3c2d8" class="B G"><path d="M465.148 154v12"/><path d="M471.148 160h-12"/></g><rect x="116.5" y="202.5" width="363" height="82" rx="7.5" fill="#fff"/><g fill="#eef1f7"><rect x="142.766" y="221" width="79" height="10" rx="5"/><rect x="242" y="221" width="203" height="10" rx="5"/><rect x="143" y="255" width="258" height="10" rx="5"/></g><rect x="116.5" y="202.5" width="363" height="82" rx="7.5" stroke="#000"/><rect x="-1" y="1" width="419" height="175" rx="7" transform="matrix(-1 0 0 1 511 125)" stroke="#e1e8f2" class="B H"/><g transform="matrix(-1 0 0 1 502 418)"><rect x="-2" y="2" width="442" height="112" rx="6" class="E"/><rect x="-2" y="2" width="442" height="112" rx="6" class="C D"/></g><g class="F"><rect x="-2" y="2" width="447" height="108" rx="6" transform="matrix(-1 0 0 1 525 407)"/><rect x="-1" y="1" width="421" height="84" rx="7" transform="matrix(-1 0 0 1 513 420)"/></g><g transform="matrix(-1 0 0 1 501 435)"><rect x="-.5" y=".5" width="393" height="55" rx="5.5" fill="#fff"/><rect x="-.5" y=".5" width="393" height="55" rx="5.5" stroke="#000"/></g><path d="M134.841 463.818V469h-1.699v-11.636h1.676v4.329h.108c.205-.47.517-.843.938-1.119s.969-.415 1.647-.415c.599 0 1.122.123 1.569.369s.799.614 1.045 1.103.375 1.091.375 1.818V469h-1.699v-5.347c0-.64-.165-1.136-.494-1.488s-.788-.534-1.375-.534c-.402 0-.762.085-1.08.255s-.562.421-.744.75-.267.72-.267 1.182zm11.687 5.358c-.859 0-1.6-.184-2.221-.551a3.73 3.73 0 0 1-1.432-1.563c-.333-.674-.5-1.464-.5-2.369 0-.894.167-1.682.5-2.363s.807-1.214 1.409-1.597 1.314-.574 2.125-.574c.493 0 .97.082 1.432.244s.877.419 1.244.767.657.802.87 1.358.318 1.226.318 2.017v.603h-6.938v-1.273h5.273c0-.447-.091-.843-.273-1.187a2.05 2.05 0 0 0-.767-.824c-.326-.201-.708-.302-1.148-.302-.477 0-.893.118-1.25.353-.352.231-.625.534-.818.909s-.284.774-.284 1.21v.994c0 .584.102 1.08.307 1.489a2.22 2.22 0 0 0 .869.938c.372.212.805.318 1.301.318a2.7 2.7 0 0 0 .881-.137c.265-.094.494-.234.688-.42s.341-.415.443-.688l1.608.29a2.91 2.91 0 0 1-.693 1.244c-.33.353-.745.627-1.245.824s-1.062.29-1.699.29zm7.329-11.812V469h-1.699v-11.636h1.699zm2.285 14.909v-12h1.659v1.415h.142c.099-.182.241-.393.426-.631s.444-.447.773-.625.765-.273 1.307-.273c.704 0 1.333.178 1.886.534s.987.869 1.301 1.54c.319.67.478 1.477.478 2.42s-.158 1.752-.472 2.427-.746 1.187-1.295 1.551-1.177.539-1.881.539c-.53 0-.964-.089-1.301-.267s-.595-.386-.784-.625-.336-.45-.438-.636h-.102v4.631h-1.699zm1.665-7.637c0 .614.089 1.152.267 1.614s.435.824.773 1.085.75.387 1.238.387c.508 0 .932-.135 1.273-.404s.598-.642.773-1.108.267-.99.267-1.574c0-.575-.087-1.092-.262-1.551-.17-.458-.428-.82-.772-1.085s-.767-.398-1.279-.398c-.492 0-.909.127-1.25.381s-.593.608-.767 1.062-.261.985-.261 1.591zm9.329 4.472c-.31 0-.577-.11-.801-.33a1.1 1.1 0 0 1-.335-.806c0-.311.112-.576.335-.796s.491-.335.801-.335.578.112.802.335.335.485.335.796a1.08 1.08 0 0 1-.159.573 1.19 1.19 0 0 1-.409.41c-.171.102-.36.153-.569.153zm3.412-.108v-8.727h1.631v1.42h.108c.182-.481.479-.856.892-1.125s.907-.409 1.483-.409c.583 0 1.072.136 1.466.409s.691.648.881 1.125h.09c.209-.466.54-.837.995-1.113s.996-.421 1.625-.421c.791 0 1.437.248 1.937.744s.756 1.245.756 2.245V469h-1.699v-5.693c0-.591-.161-1.019-.483-1.284s-.706-.398-1.153-.398c-.553 0-.983.17-1.29.511s-.46.771-.46 1.302V469h-1.693v-5.801c0-.474-.148-.854-.444-1.142s-.68-.432-1.153-.432c-.322 0-.619.085-.892.256a1.87 1.87 0 0 0-.654.699c-.162.299-.244.645-.244 1.039V469h-1.699zm14.902 3.273a3.51 3.51 0 0 1-.693-.063c-.208-.038-.364-.079-.466-.125l.409-1.392c.311.084.587.12.83.108a.99.99 0 0 0 .642-.273c.189-.17.356-.448.5-.835l.21-.579-3.193-8.841h1.818l2.21 6.772h.091l2.21-6.772h1.824l-3.596 9.892c-.167.454-.379.839-.637 1.153s-.564.557-.92.716-.769.239-1.239.239zm14.529-9.87l-1.54.273c-.064-.197-.167-.384-.307-.562a1.52 1.52 0 0 0-.557-.438c-.235-.114-.528-.17-.88-.17-.481 0-.883.108-1.205.324s-.483.486-.483.823c0 .292.108.527.324.705s.564.324 1.045.437l1.387.319c.803.185 1.401.471 1.795.858s.591.888.591 1.505c0 .523-.151.989-.454 1.398s-.718.723-1.256.955-1.153.346-1.858.346c-.977 0-1.775-.208-2.392-.625s-.996-1.017-1.136-1.79l1.642-.25c.102.428.312.752.63.972s.733.324 1.245.324c.556 0 1.001-.116 1.335-.347s.5-.521.5-.858a.89.89 0 0 0-.307-.687c-.201-.186-.509-.326-.926-.421l-1.477-.324c-.815-.185-1.417-.481-1.807-.886s-.58-.918-.58-1.54c0-.515.144-.966.432-1.352s.686-.687 1.193-.903 1.089-.33 1.745-.33c.943 0 1.685.205 2.227.614a2.86 2.86 0 0 1 1.074 1.63zm2.038 6.597v-8.727h1.699V469h-1.699zm.858-10.074a1.08 1.08 0 0 1-.761-.295.96.96 0 0 1-.313-.716c0-.281.104-.519.313-.716s.466-.301.761-.301a1.05 1.05 0 0 1 .756.301.94.94 0 0 1 .318.716c0 .276-.106.515-.318.716a1.06 1.06 0 0 1-.756.295zm7.2 1.347v1.363h-4.767v-1.363h4.767zm-3.488-2.091h1.699v8.256c0 .329.049.577.147.744s.226.274.381.335a1.52 1.52 0 0 0 .517.085c.136 0 .256-.009.358-.028l.239-.046.306 1.404c-.098.038-.238.076-.42.113s-.409.065-.682.069c-.447.007-.864-.072-1.25-.239a2.14 2.14 0 0 1-.937-.773c-.239-.348-.358-.786-.358-1.312v-8.608zm9.035 10.994c-.86 0-1.6-.184-2.221-.551a3.73 3.73 0 0 1-1.432-1.563c-.334-.674-.5-1.464-.5-2.369 0-.894.166-1.682.5-2.363s.807-1.214 1.409-1.597 1.314-.574 2.125-.574a4.3 4.3 0 0 1 1.432.244c.462.163.877.419 1.244.767s.657.802.869 1.358.318 1.226.318 2.017v.603h-6.937v-1.273h5.273c0-.447-.091-.843-.273-1.187a2.06 2.06 0 0 0-.767-.824c-.326-.201-.708-.302-1.148-.302-.477 0-.894.118-1.25.353s-.625.534-.818.909-.284.774-.284 1.21v.994c0 .584.102 1.08.307 1.489a2.22 2.22 0 0 0 .869.938c.371.212.805.318 1.301.318a2.7 2.7 0 0 0 .881-.137c.265-.094.494-.234.687-.42a1.83 1.83 0 0 0 .444-.688l1.608.29c-.129.474-.36.888-.694 1.244s-.744.627-1.244.824-1.062.29-1.699.29zm6.749-.068a1.1 1.1 0 0 1-.801-.33c-.224-.223-.336-.492-.336-.806s.112-.576.336-.796.49-.335.801-.335.577.112.801.335.335.485.335.796a1.08 1.08 0 0 1-.159.573 1.18 1.18 0 0 1-.409.41c-.171.102-.36.153-.568.153zm7.088.068c-.845 0-1.572-.191-2.182-.574s-1.072-.918-1.398-1.596-.488-1.455-.488-2.33c0-.886.166-1.668.5-2.346a3.83 3.83 0 0 1 1.409-1.597c.606-.383 1.32-.574 2.142-.574.663 0 1.254.123 1.772.369s.938.584 1.256 1.023.513.953.574 1.54h-1.653a1.99 1.99 0 0 0-.625-1.057c-.322-.295-.754-.443-1.296-.443a2.11 2.11 0 0 0-1.244.375c-.352.246-.627.598-.824 1.057-.197.454-.295.992-.295 1.613 0 .637.096 1.186.289 1.648s.466.82.818 1.074.775.381 1.256.381a2.1 2.1 0 0 0 .875-.177 1.78 1.78 0 0 0 .665-.517 1.94 1.94 0 0 0 .381-.806h1.653c-.061.564-.244 1.068-.551 1.511s-.718.792-1.233 1.045-1.112.381-1.801.381zm9.078 0c-.818 0-1.532-.187-2.142-.562a3.8 3.8 0 0 1-1.421-1.574c-.337-.674-.505-1.462-.505-2.364s.168-1.697.505-2.375a3.79 3.79 0 0 1 1.421-1.579c.61-.375 1.324-.563 2.142-.563s1.532.188 2.142.563a3.78 3.78 0 0 1 1.42 1.579c.338.678.506 1.47.506 2.375s-.168 1.69-.506 2.364-.81 1.199-1.42 1.574-1.324.562-2.142.562zm.006-1.426c.53 0 .969-.14 1.318-.42s.606-.654.773-1.12.255-.979.255-1.54-.085-1.068-.255-1.534-.425-.846-.773-1.13-.788-.426-1.318-.426-.978.142-1.33.426-.608.661-.778 1.13a4.52 4.52 0 0 0-.25 1.534c0 .561.083 1.074.25 1.54s.43.839.778 1.12.796.42 1.33.42zm5.958 1.25v-8.727h1.631v1.42h.108c.182-.481.479-.856.892-1.125s.907-.409 1.483-.409c.583 0 1.072.136 1.466.409s.691.648.881 1.125h.091c.208-.466.539-.837.994-1.113s.996-.421 1.625-.421c.792 0 1.437.248 1.937.744s.756 1.245.756 2.245V469h-1.699v-5.693c0-.591-.161-1.019-.483-1.284s-.706-.398-1.153-.398c-.553 0-.983.17-1.29.511s-.46.771-.46 1.302V469h-1.693v-5.801c0-.474-.148-.854-.444-1.142s-.679-.432-1.153-.432c-.322 0-.619.085-.892.256a1.86 1.86 0 0 0-.653.699c-.163.299-.245.645-.245 1.039V469h-1.699z" fill="#636369"/><rect x="-1" y="1" width="421" height="84" rx="7" transform="matrix(-1 0 0 1 513 420)" stroke="#e1e8f2" class="B H"/><rect x="-2" y="2" width="447" height="108" rx="6" transform="matrix(-1 0 0 1 525 407)" class="C D"/><g class="E"><rect x="288.914" y="351" width="6" height="6" rx="3"/><path d="M292.26 399.974a.4.4 0 0 1-.692 0l-2.772-4.8a.4.4 0 0 1 .347-.6h5.542a.4.4 0 0 1 .347.6l-2.772 4.8z"/></g><path d="M291.963 356.574v40" class="B C"/><g clip-path="url(#A)"><path d="M134.944 168.556c0 1.35-1.094 2.444-2.444 2.444h-13.444c-1.35 0-2.445-1.094-2.445-2.444v-17.112c0-1.35 1.095-2.444 2.445-2.444H132.5c1.35 0 2.444 1.094 2.444 2.444v17.112z" fill="#ccd6dd"/><path d="M132.5 163.666a.61.61 0 0 1-.611.611h-12.222a.61.61 0 1 1 0-1.222h12.222a.61.61 0 0 1 .611.611zm-9.778 2.445a.61.61 0 0 1-.611.611h-2.444a.61.61 0 1 1 0-1.222h2.444a.61.61 0 0 1 .611.611zm9.778-12.223a.61.61 0 0 1-.611.612h-12.222a.61.61 0 1 1 0-1.223h12.222a.61.61 0 0 1 .611.611zm0 2.445a.61.61 0 0 1-.611.611h-12.222a.61.61 0 1 1 0-1.222h12.222a.61.61 0 0 1 .611.611zm0 2.444a.61.61 0 0 1-.611.611h-12.222a.61.61 0 1 1 0-1.222h12.222a.61.61 0 0 1 .611.611zm0 2.445a.61.61 0 0 1-.611.611h-12.222a.61.61 0 1 1 0-1.222h12.222a.61.61 0 0 1 .611.611z" fill="#99aab5"/><path d="M134.944 152.832c-.505-.326-1.122-.353-1.54-.014l-.484.395-.907.74-.061.049-1.452 1.184-7.259 5.92c-.267.218-.485.745-.717 1.267s-.592 1.743-.882 2.684c-.09.152-.65 1.128-.336 1.499s1.421.006 1.569-.047l2.84-.354c.565-.129 1.133-.242 1.4-.46l7.257-5.921.484-.395.088-.072v-6.475z" fill="#66757f"/><path d="M127.089 162.765s-.779-1.149-1.294-1.56c-.411-.515-1.558-1.293-1.558-1.293-.274-.272-.728-.293-.995-.026s-.485.835-.717 1.4c-.289.7-.78 2.539-1.081 3.515-.05.166.316-.275.308-.128-.006.114.016.241.045.355l-.089.097.127.041.041.128.098-.089a1.23 1.23 0 0 0 .354.045c.147-.008-.295.359-.128.308l3.515-1.081c.565-.233 1.133-.45 1.4-.717s.248-.72-.026-.995z" fill="#d99e82"/><path d="M131.468 151.659a1.37 1.37 0 0 0 0 1.936l1.936 1.936a1.37 1.37 0 0 0 1.936 0l1.936-1.936a1.37 1.37 0 0 0 0-1.936l-1.936-1.936a1.37 1.37 0 0 0-1.936 0l-1.936 1.936z" fill="#ea596e"/><path d="M123.241 159.887l1.937 1.938 1.934 1.934 7.261-7.259-3.873-3.872-7.259 7.259z" fill="#ffcc4d"/><path d="M122.904 165.342s-1.259.693-1.598.352.355-1.595.355-1.595 1.192.022 1.243 1.243z" fill="#292f33"/><path d="M130.5 152.627l2.42-2.42 3.872 3.873-2.42 2.42-3.872-3.873z" fill="#ccd6dd"/><path d="M131.952 151.174l.484-.484 3.872 3.872-.484.484-3.872-3.872zm-.968.968l.484-.483 3.872 3.871-.484.484-3.872-3.872z" fill="#99aab5"/></g><path d="M149.354 166.18c3.564 0 5.49-1.872 5.49-4.86v-.162h-2.88v.09c0 1.728-.72 2.322-2.628 2.322-2.034 0-2.88-.738-2.88-3.6s.846-3.6 2.88-3.6c1.908 0 2.628.594 2.628 2.322v.09h2.88v-.162c0-2.988-1.926-4.86-5.49-4.86-3.618 0-5.778 2.448-5.778 6.21s2.16 6.21 5.778 6.21zm10.124-.18v-5.67c0-.99.396-1.278 1.224-1.278.846 0 1.152.306 1.152 1.278v.486h2.682v-.828c0-1.818-.702-3.222-2.592-3.222-1.278 0-2.088.72-2.538 1.638h-.108v-1.458h-2.502V166h2.682zm10.876.18c2.592 0 4.248-1.134 4.248-3.06v-.18h-2.664v.108c0 .558-.468.792-1.548.792-1.476 0-1.98-.504-2.034-1.764h6.21a8.16 8.16 0 0 0 .126-1.332c0-2.358-1.602-3.978-4.32-3.978-2.826 0-4.554 1.836-4.554 4.734 0 2.862 1.422 4.68 4.536 4.68zm-.072-7.2c1.26 0 1.872.522 1.818 1.458h-3.726c.108-.954.612-1.458 1.908-1.458zm8.816 7.2c1.674 0 2.592-.738 3.078-1.404h.108V166h2.502v-5.364c0-2.412-1.404-3.87-4.068-3.87-2.556 0-4.23 1.422-4.23 3.582v.198h2.574v-.198c0-.918.432-1.224 1.53-1.224 1.062 0 1.638.198 1.638 1.26v.288l-3.096.468c-1.872.288-2.88 1.152-2.88 2.556 0 1.638 1.242 2.484 2.844 2.484zm-.27-2.7c0-.378.252-.558.81-.648l2.592-.396c0 1.404-1.134 1.692-2.232 1.692-.792 0-1.17-.162-1.17-.648zm12.205 2.556a9.52 9.52 0 0 0 1.764-.18v-2.25h-1.116c-1.17 0-1.44-.09-1.44-.882v-3.546h2.556v-2.232h-2.556v-2.106h-2.124l-.504 2.106h-1.512v2.232h1.44v3.852c0 2.142 1.134 3.006 3.492 3.006zm7.52.144c2.592 0 4.248-1.134 4.248-3.06v-.18h-2.664v.108c0 .558-.468.792-1.548.792-1.476 0-1.98-.504-2.034-1.764h6.21a8.16 8.16 0 0 0 .126-1.332c0-2.358-1.602-3.978-4.32-3.978-2.826 0-4.554 1.836-4.554 4.734 0 2.862 1.422 4.68 4.536 4.68zm-.072-7.2c1.26 0 1.872.522 1.818 1.458h-3.726c.108-.954.612-1.458 1.908-1.458zm13.034 7.02v-5.706l-.036-1.854h.18l1.17 1.854 3.744 5.706h2.88v-12.06h-2.7v6.048l.036 1.62h-.18l-1.008-1.62-3.906-6.048h-2.88V166h2.7zm14.199.18c2.592 0 4.248-1.134 4.248-3.06v-.18h-2.664v.108c0 .558-.468.792-1.548.792-1.476 0-1.98-.504-2.034-1.764h6.21a8.16 8.16 0 0 0 .126-1.332c0-2.358-1.602-3.978-4.32-3.978-2.826 0-4.554 1.836-4.554 4.734 0 2.862 1.422 4.68 4.536 4.68zm-.072-7.2c1.26 0 1.872.522 1.818 1.458h-3.726c.108-.954.612-1.458 1.908-1.458zm10.824 7.02l1.188-4.302.45-2.376h.198l.45 2.376 1.17 4.302h3.528l2.106-9.054h-2.844l-.63 4.194-.324 2.7h-.18l-.486-2.7-1.116-4.194h-3.438l-1.098 4.176-.504 2.718h-.198l-.342-2.718-.594-4.176h-2.97l2.106 9.054h3.528zm16.586 0l.99-2.682h5.112l.972 2.682h2.934l-4.446-12.06h-3.924L250.244 166h2.808zm2.556-6.966l.918-2.718h.18l.882 2.718.684 1.872h-3.348l.684-1.872zM267.037 166v-5.67c0-.99.396-1.278 1.224-1.278.846 0 1.152.306 1.152 1.278v.486h2.682v-.828c0-1.818-.702-3.222-2.592-3.222-1.278 0-2.088.72-2.538 1.638h-.108v-1.458h-2.502V166h2.682zm10.999.036a9.52 9.52 0 0 0 1.764-.18v-2.25h-1.116c-1.17 0-1.44-.09-1.44-.882v-3.546h2.556v-2.232h-2.556v-2.106h-2.124l-.504 2.106h-1.512v2.232h1.44v3.852c0 2.142 1.134 3.006 3.492 3.006zm6.056-10.116v-1.98h-2.682l.036 1.98h2.646zm.054 10.08v-9.054h-2.7V166h2.7zm6.204.18c2.502 0 4.32-1.476 4.32-3.708v-.216h-2.7v.144c0 1.026-.576 1.368-1.692 1.368-1.296 0-1.854-.612-1.854-2.286 0-1.692.558-2.304 1.854-2.304 1.116 0 1.692.342 1.692 1.368v.144h2.7v-.216c0-2.232-1.764-3.708-4.176-3.708-3.024 0-4.734 1.836-4.734 4.734 0 2.862 1.602 4.68 4.59 4.68zm8.782-.18v-12.06h-2.682V166h2.682zm6.324.18c2.592 0 4.248-1.134 4.248-3.06v-.18h-2.664v.108c0 .558-.468.792-1.548.792-1.476 0-1.98-.504-2.034-1.764h6.21a8.16 8.16 0 0 0 .126-1.332c0-2.358-1.602-3.978-4.32-3.978-2.826 0-4.554 1.836-4.554 4.734 0 2.862 1.422 4.68 4.536 4.68zm-.072-7.2c1.26 0 1.872.522 1.818 1.458h-3.726c.108-.954.612-1.458 1.908-1.458z" fill="#000"/><defs><clipPath id="A"><path fill="#fff" transform="translate(116 149)" d="M0 0h22v22H0z"/></clipPath></defs></svg>