<svg xmlns="http://www.w3.org/2000/svg" xmlns:xlink="http://www.w3.org/1999/xlink" width="608" height="497" fill="none" xmlns:v="https://vecta.io/nano"><style><![CDATA[.B{fill:#fff}.C{fill:#000}.D{stroke:#121212}.E{stroke-width:4}.F{stroke-width:2}.G{fill:#636369}.H{fill:#f5f6f8}.I{fill:#121212}.J{stroke:#dfe7f2}.K{fill:#eef1f7}.L{stroke:#e1e8f2}.M{stroke-dasharray:8 8}.N{stroke-linecap:round}]]></style><g stroke="#97969c" stroke-dasharray="4 4"><path d="M559.504 496v-15.7m0-480.3v216.137m0 65.742v148.219M457.312 496V156.518m0-156.518v131.845M355.621 496V393.959m0-393.959v17.251m0 293.993V66.849M252.93 496V0M150.738 496V185.059m0-185.059v101.985M48.547 496.596V375.113m0-374.517v238.433m0 90.065v-72.832"/><path d="M0 40.33h330.227m277.773 0H379.607M0 144.123h112.263m495.737 0H469.346m-278.878 0h254.206M0 351.709h25.672m582.328 0H396.708m-80.708 0H73.358M0 247.916h39.48m568.521 0h-15.322m-65.324 0H57.12M0 455.502h534.54m73.46 0h-25.121"/><path d="M355.621 16.35l10.182 13.818 13.818 10.182-13.818 10.182-10.182 13.818-10.182-13.818-13.818-10.182 13.818-10.182 10.182-13.818zM559.48 431.584l10.183 13.818 13.817 10.182-13.817 10.182-10.183 13.818-10.182-13.818-13.818-10.182 13.818-10.182 10.182-13.818zM48.602 327.854l10.182 13.817 13.818 10.183-13.818 10.182-10.182 13.818-10.182-13.818-13.818-10.182 13.818-10.183 10.182-13.817zM559.469 216l13.576 18.424L591.469 248l-18.424 13.576L559.469 280l-13.577-18.424L527.469 248l18.423-13.576L559.469 216zM150.754 104.094l16.97 23.029 23.03 16.971-23.03 16.97-16.97 23.03-16.971-23.03-23.029-16.97 23.029-16.971 16.971-23.029zm204.867 207.609l16.971 23.03 23.029 16.97-23.029 16.971-16.971 23.029-16.97-23.029-23.03-16.971 23.03-16.97 16.97-23.03z"/><circle cx="457.246" cy="144.123" r="12"/><circle cx="48.547" cy="247.916" r="8"/></g><g transform="matrix(-1 0 0 1 579.48 218.668)"><rect x="-2" y="2" width="522.803" height="261.412" rx="6" class="I"/><rect x="-2" y="2" width="522.803" height="261.412" rx="6" class="D E"/></g><rect x="-2" y="2" width="522" height="248.61" rx="6" transform="matrix(-1 0 0 1 558 210.361)" class="H"/><rect x="49.5" y="222" width="499" height="31" rx="4" class="B"/><rect x="66.5" y="232.5" width="10" height="10" rx="5" fill="#eb5757"/><rect x="84.5" y="232.5" width="10" height="10" rx="5" fill="#f2c94c"/><rect x="102.5" y="232.5" width="10" height="10" rx="5" fill="#27ae60"/><g fill="#e7edf5"><path d="M528.065 231.5a1 1 0 1 0-2 0h2zm-2 12a1 1 0 1 0 2 0h-2zm0-12v12h2v-12h-2z"/><path d="M533.065 238.5a1 1 0 1 0 0-2v2zm-12-2a1 1 0 1 0 0 2v-2zm12 0h-12v2h12v-2z"/></g><rect x="-1" y="1" width="500" height="188" rx="7" transform="matrix(-1 0 0 1 548 261)" class="H"/><path d="M64.111 314.725h471" class="F J"/><path d="M95.53 294.63c3.42 0 4.716-1.728 4.716-3.654 0-1.764-.864-3.096-3.402-3.582l-2.142-.414c-1.404-.27-1.728-.45-1.728-1.224 0-.756.486-1.098 2.034-1.098 1.782 0 2.304.414 2.304 1.674v.198h2.664v-.144c0-2.394-1.44-4.176-4.878-4.176-3.456 0-4.806 1.818-4.806 3.654 0 1.872.972 3.042 3.276 3.438l2.124.378c1.692.288 1.872.576 1.872 1.386s-.378 1.116-1.908 1.116c-2.178 0-2.664-.378-2.664-1.71v-.18h-2.646v.234c0 2.664 1.638 4.104 5.184 4.104zm10.607 0c2.592 0 4.248-1.134 4.248-3.06v-.18h-2.664v.108c0 .558-.468.792-1.548.792-1.476 0-1.98-.504-2.034-1.764h6.21a8.16 8.16 0 0 0 .126-1.332c0-2.358-1.602-3.978-4.32-3.978-2.826 0-4.554 1.836-4.554 4.734 0 2.862 1.422 4.68 4.536 4.68zm-.072-7.2c1.26 0 1.872.522 1.818 1.458h-3.726c.108-.954.612-1.458 1.908-1.458zm9.859 6.066c1.368 0 2.322-.612 2.718-1.314h.108v1.404c0 1.404-.288 1.728-1.71 1.728-1.548 0-1.818-.234-1.818-1.17h-2.682c0 2.304 1.584 3.546 4.41 3.546 2.916 0 4.482-1.296 4.482-4.248v-8.046h-2.502v1.314h-.09c-.486-.99-1.512-1.494-2.808-1.494-2.574 0-3.942 1.638-3.942 4.158s1.332 4.122 3.834 4.122zm-1.152-4.122c0-1.278.45-1.872 1.998-1.872 1.296 0 1.98.45 1.98 1.602v.54c0 1.152-.702 1.602-1.998 1.602-1.53 0-1.98-.594-1.98-1.872zm11.534 5.076v-5.238c0-1.278.54-1.674 1.764-1.674 1.296 0 1.692.45 1.692 1.71v5.202h2.7v-5.202c0-1.314.522-1.71 1.746-1.71 1.314 0 1.692.45 1.692 1.71v5.202h2.7v-5.742c0-1.926-.954-3.492-3.294-3.492-1.674 0-2.574.774-3.078 1.764h-.09c-.45-1.062-1.386-1.764-2.934-1.764s-2.484.738-2.97 1.764h-.108v-1.584h-2.502v9.054h2.682zm18.593.18c2.592 0 4.248-1.134 4.248-3.06v-.18h-2.664v.108c0 .558-.468.792-1.548.792-1.476 0-1.98-.504-2.034-1.764h6.21a8.16 8.16 0 0 0 .126-1.332c0-2.358-1.602-3.978-4.32-3.978-2.826 0-4.554 1.836-4.554 4.734 0 2.862 1.422 4.68 4.536 4.68zm-.072-7.2c1.26 0 1.872.522 1.818 1.458h-3.726c.108-.954.612-1.458 1.908-1.458zm8.926 7.02v-5.13c0-1.368.558-1.782 1.854-1.782 1.368 0 1.782.45 1.782 1.71v5.202h2.7v-5.742c0-1.926-1.008-3.492-3.366-3.492-1.584 0-2.556.738-3.042 1.764h-.108v-1.584h-2.502v9.054h2.682zm12.563.036a9.52 9.52 0 0 0 1.764-.18v-2.25h-1.116c-1.17 0-1.44-.09-1.44-.882v-3.546h2.556v-2.232h-2.556v-2.106H163.4l-.504 2.106h-1.512v2.232h1.44v3.852c0 2.142 1.134 3.006 3.492 3.006zm7.497.144c2.502 0 3.888-1.08 3.888-2.772 0-1.476-.792-2.34-2.7-2.7l-1.656-.342c-1.08-.216-1.242-.342-1.242-.774s.252-.666 1.332-.666c1.152 0 1.404.324 1.404.918v.252h2.574v-.252c0-2.034-1.692-3.078-3.906-3.078-2.574 0-3.942 1.188-3.942 2.862s.972 2.43 2.754 2.754l1.368.252c1.206.216 1.458.324 1.458.81 0 .45-.18.612-1.278.612-1.314 0-1.71-.144-1.71-.81v-.378h-2.574v.054c0 2.196 1.386 3.258 4.23 3.258z" class="C"/><g clip-path="url(#A)"><path d="M65.334 279.283h1.222v20.167h-1.222v-20.167z" fill="#ccd6dd"/><path d="M65.945 281.116c1.013 0 1.833-.82 1.833-1.833s-.821-1.833-1.833-1.833-1.833.821-1.833 1.833.821 1.833 1.833 1.833z" fill="#f4900c"/><path d="M69 294.561h-3.056a.61.61 0 1 1 0-1.223H69a.61.61 0 1 1 0 1.223z" fill="#66757f"/><path d="M82.445 293.95c0-1.35 3.794-3.667 2.444-3.667h-5.162c-.735-.895-2.808-1.833-4.31-1.833s-1.974.938-2.099 1.833h-3.706c-1.35 0-1.833 1.095-1.833 2.444v2.445c0 1.35.483 2.444 1.833 2.444h15.278c1.35 0-2.444-2.316-2.444-3.666z" fill="#dd2e44"/><path d="M70.833 294.561c1.013 0 1.833-.821 1.833-1.834s-.821-1.833-1.833-1.833-1.833.821-1.833 1.833.821 1.834 1.833 1.834z" class="B"/><path d="M70.528 293.339c.506 0 .917-.411.917-.917s-.41-.917-.917-.917-.917.411-.917.917.41.917.917.917z" class="C"/><use xlink:href="#E" fill="#f4abba"/><path d="M69 284.783h-3.056a.61.61 0 1 1 0-1.222H69a.61.61 0 1 1 0 1.222z" fill="#66757f"/><path d="M82.445 284.172c0-1.35 3.794-3.667 2.444-3.667h-5.161c-.735-.894-2.808-1.833-4.311-1.833s-1.974.939-2.099 1.833h-3.706c-1.35 0-1.833 1.095-1.833 2.445v2.444c0 1.35.483 2.445 1.833 2.445h15.278c1.35 0-2.444-2.317-2.444-3.667z" fill="#55acee"/><path d="M70.833 284.783c1.013 0 1.833-.821 1.833-1.833s-.821-1.834-1.833-1.834S69 281.937 69 282.95s.821 1.833 1.833 1.833z" class="B"/><path d="M70.528 283.561c.506 0 .917-.411.917-.917s-.41-.916-.917-.916-.917.41-.917.916.41.917.917.917z" class="C"/><path d="M84.889 280.505H73.255c1.264 1.397 2.898 3.951-.023 7.334h11.657c1.35 0-2.445-2.317-2.445-3.667s3.794-3.667 2.445-3.667z" fill="#bbddf5"/></g><rect x="504.5" y="273.45" width="30" height="30" rx="4" class="B"/><g fill="#b3c2d8"><path d="M520.5 282.45a1 1 0 1 0-2 0h2zm-2 12a1 1 0 1 0 2 0h-2zm0-12v12h2v-12h-2z"/><path d="M525.5 289.45a1 1 0 1 0 0-2v2zm-12-2a1 1 0 1 0 0 2v-2zm12 0h-12v2h12v-2z"/></g><rect x="64.611" y="328.5" width="470" height="47" rx="3.5" class="B"/><rect x="83.5" y="345.5" width="13" height="13" rx="1.5" class="J"/><g class="K"><rect x="120" y="341" width="115" height="22" rx="11"/><rect x="458" y="348" width="40" height="8" rx="4"/><rect x="300" y="348" width="113" height="8" rx="4"/></g><rect x="64.611" y="328.5" width="470" height="47" rx="3.5" stroke="#000"/><rect x="64.611" y="388.5" width="470" height="47" rx="3.5" class="B"/><rect x="83.5" y="405.5" width="13" height="13" rx="1.5" class="J"/><rect x="300" y="408" width="105" height="8" rx="4" class="K"/><g clip-path="url(#B)"><path d="M119.361 411.639l2.889-2.528 5.778.361.361 5.778-2.528 2.889s.001-2.166-2.166-4.333-4.334-2.167-4.334-2.167z" fill="#a0041e"/><path d="M119.352 418.139s-.013-2.881 1.077-3.972 3.988-1.016 3.988-1.016 0 2.821-1.084 3.905-3.981 1.083-3.981 1.083h0z" fill="#ffac33"/><path d="M122.25 416.695c.797 0 1.444-.647 1.444-1.445s-.647-1.444-1.444-1.444-1.445.646-1.445 1.444.647 1.445 1.445 1.445z" fill="#ffcc4d"/><path d="M132 405.5s-3.612 0-7.945 3.611c-2.167 1.806-2.167 5.056-1.444 5.778s3.972.722 5.777-1.445C132 409.111 132 405.5 132 405.5z" fill="#55acee"/><path d="M128.75 407.306c-.586 0-1.088.35-1.315.852a1.43 1.43 0 0 1 .593-.13c.797 0 1.444.647 1.444 1.444a1.43 1.43 0 0 1-.13.593c.502-.227.852-.729.852-1.315 0-.798-.646-1.444-1.444-1.444h0z" class="C"/><path d="M121.889 415.611s0-1.445.361-1.806 4.695-3.972 5.055-3.611-3.25 4.695-3.611 5.056-1.805.361-1.805.361z" fill="#a0041e"/></g><path d="M143.571 407.773h1.321v5.74c0 .611-.143 1.152-.43 1.623s-.691.838-1.211 1.108-1.129.401-1.828.401-1.304-.134-1.824-.401-.923-.639-1.21-1.108-.43-1.012-.43-1.623v-5.74h1.317v5.633c0 .395.086.746.26 1.053a1.88 1.88 0 0 0 .745.724c.321.174.702.26 1.142.26s.826-.086 1.147-.26a1.82 1.82 0 0 0 .741-.724c.173-.307.26-.658.26-1.053v-5.633zm7.918 3.78l-1.155.204c-.048-.148-.125-.288-.23-.422s-.241-.243-.418-.328-.396-.128-.66-.128c-.361 0-.662.081-.903.243s-.363.365-.363.618a.65.65 0 0 0 .243.528c.162.134.424.243.784.329l1.04.238c.602.139 1.051.354 1.347.644s.443.666.443 1.129c0 .392-.114.741-.341 1.048s-.538.543-.942.716-.865.26-1.393.26c-.733 0-1.331-.156-1.794-.469s-.747-.762-.853-1.342l1.232-.187c.077.321.234.563.473.728s.55.243.933.243c.418 0 .752-.087 1.002-.26s.375-.39.375-.643a.67.67 0 0 0-.23-.516c-.151-.139-.383-.244-.695-.315l-1.108-.243c-.611-.139-1.063-.361-1.355-.665s-.435-.689-.435-1.155a1.65 1.65 0 0 1 .324-1.014c.216-.29.514-.516.895-.678s.817-.247 1.308-.247c.708 0 1.264.154 1.671.461a2.14 2.14 0 0 1 .805 1.223zm4.23 5.079c-.645 0-1.2-.138-1.666-.413s-.821-.669-1.074-1.172-.375-1.098-.375-1.777c0-.671.125-1.261.375-1.773s.605-.91 1.057-1.197.985-.431 1.593-.431c.37 0 .728.061 1.074.184a2.58 2.58 0 0 1 .933.575c.276.261.493.601.652 1.018s.239.919.239 1.513v.452h-5.203v-.955h3.954c0-.335-.068-.632-.204-.89s-.328-.468-.575-.618-.532-.226-.861-.226c-.358 0-.671.088-.938.264s-.468.401-.613.682-.213.581-.213.908v.745c0 .438.076.81.23 1.117s.373.541.652.703.603.239.976.239a2.03 2.03 0 0 0 .66-.103 1.43 1.43 0 0 0 .516-.315c.145-.139.255-.311.332-.516l1.206.218a2.19 2.19 0 0 1-.52.933c-.247.264-.558.47-.933.618a3.49 3.49 0 0 1-1.274.217zm4.102-.132v-6.545h1.231v1.039h.068a1.59 1.59 0 0 1 .631-.831 1.81 1.81 0 0 1 1.031-.306l.282.008.26.021v1.219a2.34 2.34 0 0 0-.273-.047c-.131-.02-.261-.03-.392-.03-.301 0-.57.064-.806.192a1.43 1.43 0 0 0-.554.524c-.136.222-.204.475-.204.759v3.997h-1.274zm9.39-4.947l-1.155.204c-.048-.148-.125-.288-.23-.422s-.241-.243-.418-.328-.396-.128-.66-.128c-.361 0-.662.081-.903.243s-.363.365-.363.618a.65.65 0 0 0 .243.528c.162.134.424.243.784.329l1.04.238c.602.139 1.051.354 1.347.644s.443.666.443 1.129c0 .392-.114.741-.341 1.048s-.538.543-.942.716-.865.26-1.393.26c-.733 0-1.331-.156-1.794-.469s-.747-.762-.853-1.342l1.232-.187c.077.321.234.563.473.728s.55.243.933.243c.418 0 .752-.087 1.002-.26s.375-.39.375-.643a.67.67 0 0 0-.23-.516c-.151-.139-.383-.244-.695-.315l-1.108-.243c-.611-.139-1.063-.361-1.355-.665s-.435-.689-.435-1.155a1.65 1.65 0 0 1 .324-1.014c.216-.29.514-.516.895-.678s.817-.247 1.308-.247c.708 0 1.264.154 1.671.461a2.14 2.14 0 0 1 .805 1.223zm5.739 1.061v3.886h-1.274v-6.545h1.223v1.065h.081c.15-.347.386-.625.707-.835s.731-.316 1.223-.316c.446 0 .837.094 1.172.282s.595.46.78.826.277.82.277 1.36v4.163h-1.274v-4.01c0-.474-.124-.845-.371-1.112s-.587-.405-1.019-.405c-.295 0-.558.064-.788.192s-.408.315-.541.562-.196.54-.196.887zm8.598 4.018c-.644 0-1.2-.138-1.666-.413s-.821-.669-1.074-1.172-.375-1.098-.375-1.777c0-.671.125-1.261.375-1.773a2.92 2.92 0 0 1 1.057-1.197c.455-.287.986-.431 1.594-.431a3.19 3.19 0 0 1 1.074.184 2.59 2.59 0 0 1 .933.575c.276.261.493.601.652 1.018s.239.919.239 1.513v.452h-5.203v-.955h3.954c0-.335-.068-.632-.204-.89s-.329-.468-.576-.618-.531-.226-.86-.226c-.358 0-.671.088-.938.264s-.469.401-.614.682-.213.581-.213.908v.745c0 .438.077.81.23 1.117a1.67 1.67 0 0 0 .652.703c.279.159.604.239.976.239.242 0 .462-.035.661-.103s.371-.176.515-.315a1.37 1.37 0 0 0 .333-.516l1.206.218a2.19 2.19 0 0 1-.52.933c-.247.264-.558.47-.933.618s-.797.217-1.275.217zm5.51-.132l-1.926-6.545h1.316l1.283 4.806h.064l1.287-4.806h1.317l1.278 4.785h.064l1.274-4.785h1.317l-1.922 6.545h-1.3l-1.329-4.726h-.098l-1.33 4.726h-1.295zm9.637-8.727v8.727h-1.274v-8.727h1.274zm2.4 11.182a2.67 2.67 0 0 1-.52-.047c-.156-.029-.273-.06-.35-.094l.307-1.044c.233.062.441.089.622.081s.343-.077.482-.205.267-.336.375-.626l.158-.435-2.395-6.63h1.363l1.658 5.079h.068l1.658-5.079h1.368l-2.698 7.419c-.125.34-.284.629-.477.865s-.423.417-.69.537-.577.179-.929.179zm11.684-2.323c-.614 0-1.149-.141-1.606-.422s-.813-.674-1.066-1.18-.379-1.097-.379-1.773.126-1.273.379-1.781.608-.904 1.066-1.185.992-.422 1.606-.422 1.149.141 1.607.422.812.676 1.065 1.185.379 1.102.379 1.781-.126 1.267-.379 1.773-.608.899-1.065 1.18-.993.422-1.607.422zm.004-1.07c.398 0 .728-.105.989-.315a1.85 1.85 0 0 0 .58-.839c.127-.35.191-.735.191-1.155a3.35 3.35 0 0 0-.191-1.151c-.125-.352-.319-.635-.58-.848s-.591-.319-.989-.319-.733.106-.997.319a1.91 1.91 0 0 0-.584.848c-.125.35-.187.733-.187 1.151s.062.805.187 1.155a1.88 1.88 0 0 0 .584.839c.264.21.597.315.997.315zm5.624-2.948v3.886h-1.275v-6.545h1.223v1.065h.081a1.87 1.87 0 0 1 .708-.835c.324-.211.731-.316 1.223-.316.446 0 .836.094 1.172.282s.595.46.78.826.277.82.277 1.36v4.163h-1.275v-4.01c0-.474-.123-.845-.37-1.112s-.587-.405-1.019-.405c-.295 0-.558.064-.788.192s-.408.315-.541.562-.196.54-.196.887zm5.88 3.886v-8.727h1.274v3.243h.076c.074-.137.181-.294.32-.473s.332-.336.58-.469.573-.205.98-.205c.528 0 1 .134 1.415.401s.74.652.975 1.155.358 1.108.358 1.815-.118 1.314-.353 1.82-.56.89-.972 1.163-.882.405-1.41.405c-.398 0-.723-.067-.976-.2s-.446-.29-.588-.469a3.61 3.61 0 0 1-.329-.477h-.106v1.018h-1.244zm1.248-3.273c0 .46.067.864.2 1.211s.327.617.58.813.563.29.929.29c.381 0 .699-.101.955-.302a1.89 1.89 0 0 0 .579-.831 3.28 3.28 0 0 0 .2-1.181c0-.432-.065-.819-.196-1.163s-.321-.615-.579-.814-.575-.298-.959-.298c-.369 0-.682.095-.937.285s-.445.456-.576.797-.196.739-.196 1.193zm8.798 3.405c-.613 0-1.149-.141-1.606-.422s-.813-.674-1.066-1.18-.379-1.097-.379-1.773.126-1.273.379-1.781.608-.904 1.066-1.185.993-.422 1.606-.422 1.149.141 1.607.422.812.676 1.065 1.185.379 1.102.379 1.781-.126 1.267-.379 1.773-.608.899-1.065 1.18-.993.422-1.607.422zm.004-1.07c.398 0 .728-.105.989-.315a1.85 1.85 0 0 0 .58-.839c.127-.35.191-.735.191-1.155a3.35 3.35 0 0 0-.191-1.151c-.125-.352-.319-.635-.58-.848s-.591-.319-.989-.319-.733.106-.997.319a1.91 1.91 0 0 0-.584.848c-.125.35-.187.733-.187 1.151s.062.805.187 1.155a1.88 1.88 0 0 0 .584.839c.264.21.597.315.997.315zm6.254 1.083c-.414 0-.789-.077-1.125-.23s-.6-.382-.797-.678-.289-.657-.289-1.086c0-.37.071-.674.213-.912a1.57 1.57 0 0 1 .575-.567 3.01 3.01 0 0 1 .81-.315c.298-.071.602-.125.912-.162l.954-.111c.245-.031.422-.081.533-.149s.166-.179.166-.333v-.03c0-.372-.105-.66-.315-.865s-.517-.306-.929-.306c-.429 0-.767.095-1.014.285s-.414.396-.508.626l-1.197-.272c.142-.398.349-.719.622-.963a2.53 2.53 0 0 1 .95-.537c.358-.114.735-.171 1.13-.171.261 0 .538.032.831.094a2.45 2.45 0 0 1 .826.332c.259.162.471.394.635.695s.247.686.247 1.163v4.347h-1.244v-.895h-.051c-.082.165-.206.327-.371.486s-.376.291-.635.396-.568.158-.929.158zm.277-1.023c.353 0 .654-.069.904-.209s.444-.321.575-.545a1.41 1.41 0 0 0 .2-.729v-.844c-.045.046-.133.089-.264.128s-.274.07-.439.098l-.481.073-.392.051c-.248.031-.473.084-.678.158s-.364.18-.486.319-.179.318-.179.546c0 .315.117.554.35.716s.53.238.89.238zm4.531.878v-6.545h1.231v1.039h.068a1.59 1.59 0 0 1 .631-.831 1.81 1.81 0 0 1 1.031-.306l.281.008.26.021v1.219c-.051-.014-.142-.03-.272-.047s-.262-.03-.392-.03a1.66 1.66 0 0 0-.806.192 1.43 1.43 0 0 0-.554.524c-.136.222-.204.475-.204.759v3.997h-1.274zm6.701.128c-.528 0-1-.135-1.415-.405s-.736-.661-.971-1.163-.35-1.113-.35-1.82.118-1.312.354-1.815.565-.888.98-1.155a2.55 2.55 0 0 1 1.41-.401c.407 0 .733.069.981.205s.443.29.579.469a3.97 3.97 0 0 1 .324.473h.077v-3.243h1.274v8.727h-1.244v-1.018h-.107a3.48 3.48 0 0 1-.332.477c-.142.179-.338.335-.588.469s-.574.2-.972.2zm.281-1.087c.367 0 .676-.096.929-.29s.449-.467.58-.813.2-.751.2-1.211c0-.454-.065-.852-.196-1.193s-.322-.606-.575-.797-.566-.285-.938-.285c-.383 0-.703.099-.959.298a1.83 1.83 0 0 0-.579.814c-.128.344-.192.731-.192 1.163 0 .438.065.831.196 1.181s.324.626.58.831.576.302.954.302zm7.481 1.091c-.644 0-1.2-.138-1.666-.413s-.821-.669-1.074-1.172-.375-1.098-.375-1.777c0-.671.125-1.261.375-1.773s.605-.91 1.057-1.197.986-.431 1.594-.431a3.19 3.19 0 0 1 1.074.184c.346.122.657.313.933.575s.493.601.652 1.018.239.919.239 1.513v.452h-5.203v-.955h3.954c0-.335-.068-.632-.204-.89s-.329-.468-.576-.618-.531-.226-.861-.226c-.358 0-.67.088-.937.264s-.469.401-.614.682-.213.581-.213.908v.745c0 .438.077.81.23 1.117a1.67 1.67 0 0 0 .652.703c.279.159.604.239.976.239.242 0 .462-.035.661-.103s.37-.176.515-.315a1.37 1.37 0 0 0 .333-.516l1.206.218a2.19 2.19 0 0 1-.52.933c-.247.264-.558.47-.933.618s-.797.217-1.275.217zm6.553-.004c-.529 0-1-.135-1.415-.405s-.736-.661-.972-1.163-.349-1.113-.349-1.82.118-1.312.354-1.815.565-.888.98-1.155.885-.401 1.41-.401c.406 0 .733.069.98.205a1.75 1.75 0 0 1 .58.469 3.97 3.97 0 0 1 .324.473h.076v-3.243h1.275v8.727h-1.245v-1.018h-.106a3.41 3.41 0 0 1-.333.477c-.142.179-.338.335-.588.469s-.574.2-.971.2zm.281-1.087c.366 0 .676-.096.929-.29s.449-.467.579-.813.201-.751.201-1.211c0-.454-.066-.852-.196-1.193s-.323-.606-.576-.797-.565-.285-.937-.285c-.384 0-.703.099-.959.298s-.449.47-.579.814-.192.731-.192 1.163c0 .438.065.831.196 1.181s.324.626.579.831.577.302.955.302z" class="G"/><rect x="458" y="408" width="40" height="8" rx="4" class="K"/><rect x="64.611" y="388.5" width="470" height="47" rx="3.5" stroke="#000"/><rect x="-1" y="1" width="500" height="188" rx="7" transform="matrix(-1 0 0 1 548 261)" class="F L M"/><rect x="-2" y="2" width="522" height="248.61" rx="6" transform="matrix(-1 0 0 1 558 210.361)" class="D E"/><g transform="matrix(-1 0 0 1 362.051 21.7959)"><rect x="-2" y="2" width="313.586" height="165.259" rx="6" class="I"/><rect x="-2" y="2" width="313.586" height="165.259" rx="6" class="D E"/></g><g class="H"><rect x="-2" y="2" width="313.101" height="157.095" rx="6" transform="matrix(-1 0 0 1 349.102 16.498)"/><rect x="-1" y="1" width="292" height="135" rx="7" transform="matrix(-1 0 0 1 339.57 28.5459)"/></g><rect x="-1" y="1" width="292" height="135" rx="7" transform="matrix(-1 0 0 1 339.57 28.5459)" class="F L M"/><rect x="64.57" y="63.796" width="122" height="87" rx="4" fill="#f1eaff"/><path d="M79.237 127.478l2.574 2.082c2.574 2.082 7.722 6.246 12.87 3.399s10.297-12.706 15.445-12.446 10.296 10.638 15.444 15.764 10.296 5 15.445 3.356 10.296-4.807 15.444-11.162 10.296-15.905 15.444-22.76" stroke="#c6a9ff" class="F N"/><path d="M90.178 102.416c5.58 0 9.324-2.268 9.324-6.912 0-3.456-2.016-5.616-5.328-6.084v-.144c3.06-.432 4.464-2.484 4.464-5.256 0-4.212-3.24-6.444-8.676-6.444-6.048 0-9.288 3.132-9.288 7.74v.324h3.816v-.288c0-3.024 1.26-4.212 5.436-4.212 3.384 0 4.824.972 4.824 3.492s-1.224 3.312-4.392 3.312h-4.284v3.24h4.824c3.348 0 4.68.9 4.68 3.924 0 2.808-1.512 3.744-5.328 3.744-4.752 0-5.76-1.188-5.76-4.212v-.54h-3.816v.576c0 4.608 2.628 7.74 9.504 7.74zm21.441 0c6.66 0 9.648-3.24 9.648-8.244 0-4.86-3.132-7.74-8.28-7.74-3.168 0-5.436.972-6.696 2.016h-.108l.576-7.02h13.212v-3.492h-16.632l-.828 12.816 3.42.54c1.188-.684 2.916-1.512 5.868-1.512 4.068 0 5.616 1.26 5.616 4.5 0 3.384-1.404 4.572-5.652 4.572-3.996 0-5.796-.936-5.796-3.636V95h-3.852v.216c0 4.428 3.24 7.2 9.504 7.2zm22.926 0c6.48 0 10.44-4.788 10.44-12.42s-3.96-12.42-10.44-12.42-10.404 4.788-10.404 12.42 3.924 12.42 10.404 12.42zm0-3.744c-4.284 0-6.264-2.304-6.264-8.676s1.98-8.676 6.264-8.676 6.3 2.304 6.3 8.676-2.016 8.676-6.3 8.676zM87.59 54.416c2.28 0 3.144-1.152 3.144-2.436 0-1.176-.576-2.064-2.268-2.388l-1.428-.276c-.936-.18-1.152-.3-1.152-.816 0-.504.324-.732 1.356-.732 1.188 0 1.536.276 1.536 1.116v.132h1.776v-.096c0-1.596-.96-2.784-3.252-2.784-2.304 0-3.204 1.212-3.204 2.436 0 1.248.648 2.028 2.184 2.292l1.416.252c1.128.192 1.248.384 1.248.924s-.252.744-1.272.744c-1.452 0-1.776-.252-1.776-1.14v-.12h-1.764v.156c0 1.776 1.092 2.736 3.456 2.736zm6.831 0c1.728 0 2.832-.756 2.832-2.04v-.12h-1.776v.072c0 .372-.312.528-1.032.528-.984 0-1.32-.336-1.356-1.176h4.14a5.44 5.44 0 0 0 .084-.888c0-1.572-1.068-2.652-2.88-2.652-1.884 0-3.036 1.224-3.036 3.156 0 1.908.948 3.12 3.024 3.12zm-.048-4.8c.84 0 1.248.348 1.212.972h-2.484c.072-.636.408-.972 1.272-.972zm5.711 4.68v-3.42c0-.912.372-1.188 1.236-1.188.912 0 1.188.3 1.188 1.14v3.468h1.8v-3.828c0-1.284-.672-2.328-2.244-2.328-1.056 0-1.704.492-2.028 1.176h-.072V48.26h-1.668v6.036h1.788zm8.135.024c.42 0 .888-.06 1.176-.12v-1.5h-.744c-.78 0-.96-.06-.96-.588v-2.364h1.704V48.26h-1.704v-1.404h-1.416l-.336 1.404h-1.008v1.488h.96v2.568c0 1.428.756 2.004 2.328 2.004z" class="C"/><g clip-path="url(#C)"><path d="M78.882 50.335l-3.708-1.373-1.385-4.538c-.053-.175-.215-.295-.398-.295s-.345.12-.398.295l-1.384 4.538-3.708 1.373c-.164.061-.272.216-.272.391s.108.331.272.391l3.706 1.372 1.385 4.676c.053.177.215.298.4.298s.347-.121.4-.298l1.385-4.676 3.707-1.372c.163-.06.272-.216.272-.391s-.109-.33-.272-.391z" fill="#ffac33"/><path d="M70.548 54.918l-.964-.357-.375-1.375c-.049-.182-.214-.308-.402-.308s-.352.126-.402.307l-.375 1.375-.964.357c-.164.06-.272.217-.272.391s.108.33.272.391l.959.355.378 1.509c.047.185.213.315.404.315s.358-.13.404-.315l.378-1.509.959-.355c.164-.06.272-.216.272-.39s-.108-.33-.272-.39zm-1.808-9.026l-.985-.365-.365-.985c-.061-.164-.216-.272-.391-.272s-.33.108-.391.272l-.365.985-.985.365c-.164.061-.272.217-.272.391s.108.331.272.391l.985.365.365.985c.061.164.217.272.391.272s.33-.108.391-.272l.364-.985.986-.365c.164-.061.272-.217.272-.391s-.108-.33-.272-.391z" fill="#ffcc4d"/></g><path d="M225.206 55.27c2.58 0 4.164-1.5 4.164-4.02s-1.584-4.02-4.164-4.02h-3.072v8.04h3.072zm-.024-6.42c1.632 0 2.256.492 2.256 2.4s-.624 2.4-2.256 2.4h-1.248v-4.8h1.248zm8.001 6.54c1.728 0 2.832-.756 2.832-2.04v-.12h-1.776v.072c0 .372-.312.528-1.032.528-.984 0-1.32-.336-1.356-1.176h4.14a5.44 5.44 0 0 0 .084-.888c0-1.572-1.068-2.652-2.88-2.652-1.884 0-3.036 1.224-3.036 3.156 0 1.908.948 3.12 3.024 3.12zm-.048-4.8c.84 0 1.248.348 1.212.972h-2.484c.072-.636.408-.972 1.272-.972zm5.722 4.68v-8.04h-1.788v8.04h1.788zm2.919-6.72v-1.32h-1.788l.024 1.32h1.764zm.036 6.72v-6.036h-1.8v6.036h1.8zm5.051 0l2.352-6.036h-1.968l-1.44 4.308h-.132l-1.44-4.308h-2.004l2.34 6.036h2.292zm5.515.12c1.728 0 2.832-.756 2.832-2.04v-.12h-1.776v.072c0 .372-.312.528-1.032.528-.984 0-1.32-.336-1.356-1.176h4.14a5.44 5.44 0 0 0 .084-.888c0-1.572-1.068-2.652-2.88-2.652-1.884 0-3.036 1.224-3.036 3.156 0 1.908.948 3.12 3.024 3.12zm-.048-4.8c.84 0 1.248.348 1.212.972h-2.484c.072-.636.408-.972 1.272-.972zm5.71 4.68v-3.78c0-.66.264-.852.816-.852.564 0 .768.204.768.852v.324h1.788v-.552c0-1.212-.468-2.148-1.728-2.148-.852 0-1.392.48-1.692 1.092h-.072v-.972h-1.668v6.036h1.788zm7.012.12c1.728 0 2.832-.756 2.832-2.04v-.12h-1.776v.072c0 .372-.312.528-1.032.528-.984 0-1.32-.336-1.356-1.176h4.14a5.44 5.44 0 0 0 .084-.888c0-1.572-1.068-2.652-2.88-2.652-1.884 0-3.036 1.224-3.036 3.156 0 1.908.948 3.12 3.024 3.12zm-.048-4.8c.84 0 1.248.348 1.212.972h-2.484c.072-.636.408-.972 1.272-.972zm6.392 4.8c.888 0 1.572-.36 1.884-1.008h.06v.888h1.668v-8.04h-1.788v2.796h-.072c-.276-.504-.828-.912-1.752-.912-1.644 0-2.616 1.236-2.616 3.144 0 1.896.912 3.132 2.616 3.132zm-.828-3.132c0-1.104.288-1.608 1.332-1.608.852 0 1.32.3 1.32 1.116v.972c0 .816-.468 1.116-1.32 1.116-1.044 0-1.332-.504-1.332-1.596z" class="C"/><g clip-path="url(#D)"><path d="M211.737 58.02c0 .92-3.333.92-3.333 0v-4.167c0-.92.746-1.667 1.666-1.667s1.667.746 1.667 1.667v4.167z" fill="#c1694f"/><path d="M206.737 45.52c-1.841 0-3.333 1.492-3.333 3.333v5h6.666v-5c0-1.841-1.492-3.333-3.333-3.333z" fill="#292f33"/><path d="M210.904 52.087c0 .515-.444.933-.956.933h-6.422c-.512 0-.956-.418-.956-.933v-4.384c0-.515.444-.933.956-.933h6.422c.512 0 .956.418.956.933v4.384h0z" fill="#ccd6dd"/><path d="M210.904 47.703c0-.515-.444-.933-.956-.933h-6.422c-.512 0-.956.418-.956.933v.591l2.033 2.043-1.991 2.003c.046.157.131.298.248.41l2.072-2.083 1.002 1.008c.439.442 1.154.442 1.593 0l1.01-1.013 2.077 2.088c.117-.112.201-.253.248-.41l-1.996-2.008 2.038-2.043v-.586z" fill="#99aab5"/><path d="M209.948 46.77h-6.422c-.486 0-.905.377-.947.856l3.503 3.499c.362.364.949.35 1.31-.015l3.505-3.477c-.04-.482-.461-.863-.949-.863z" fill="#e1e8ed"/><path d="M213.403 45.52h-6.666c1.841 0 3.333 1.492 3.333 3.333v5h6.667v-5c0-1.841-1.493-3.333-3.334-3.333z" fill="#99aab5"/><path d="M213.404 44.687h-1.667c-.46 0-.833.373-.833.833v5c0 .46.373.833.833.833s.833-.373.833-.833v-3.333h.834c.46 0 .833-.373.833-.833v-.833c0-.46-.373-.833-.833-.833z" fill="#dd2e44"/></g><rect x="202.57" y="63.796" width="122" height="87" rx="4" fill="#eaeeff"/><path d="M217.234 127.478l2.574 2.082c2.575 2.082 7.723 6.245 12.871 3.398s10.296-12.705 15.444-12.445 10.297 10.638 15.445 15.764 10.296 5 15.444 3.355 10.296-4.806 15.445-11.162 10.296-15.905 15.444-22.759" stroke="#8199fd" class="F N"/><path d="M228.178 102.416c5.58 0 9.324-2.268 9.324-6.912 0-3.456-2.016-5.616-5.328-6.084v-.144c3.06-.432 4.464-2.484 4.464-5.256 0-4.212-3.24-6.444-8.676-6.444-6.048 0-9.288 3.132-9.288 7.74v.324h3.816v-.288c0-3.024 1.26-4.212 5.436-4.212 3.384 0 4.824.972 4.824 3.492s-1.224 3.312-4.392 3.312h-4.284v3.24h4.824c3.348 0 4.68.9 4.68 3.924 0 2.808-1.512 3.744-5.328 3.744-4.752 0-5.76-1.188-5.76-4.212v-.54h-3.816v.576c0 4.608 2.628 7.74 9.504 7.74zm19.328-.36v-24.12h-3.42c-1.008 2.16-2.34 2.988-4.608 2.988h-.936v2.772h5.076v18.36h3.888zm14.527.36c6.48 0 10.44-4.788 10.44-12.42s-3.96-12.42-10.44-12.42-10.404 4.788-10.404 12.42 3.924 12.42 10.404 12.42zm0-3.744c-4.284 0-6.264-2.304-6.264-8.676s1.98-8.676 6.264-8.676 6.3 2.304 6.3 8.676-2.016 8.676-6.3 8.676z" class="C"/><rect x="-2" y="2" width="313.101" height="157.095" rx="6" transform="matrix(-1 0 0 1 349.102 16.498)" class="D E"/><g transform="matrix(-1 0 0 1 580 21.7959)"><rect x="-2" y="2" width="186.547" height="165.259" rx="6" class="I"/><rect x="-2" y="2" width="186.547" height="165.259" rx="6" class="D E"/></g><g class="H"><rect x="-2" y="2" width="182" height="158" rx="6" transform="matrix(-1 0 0 1 568 16)"/><rect x="-1" y="1" width="164" height="137" rx="7" transform="matrix(-1 0 0 1 560 27.5)"/></g><path d="M432.672 51.493c-.053-.471-.272-.835-.656-1.094s-.869-.393-1.452-.393c-.418 0-.779.066-1.084.199s-.542.308-.711.537-.248.482-.248.771c0 .242.056.451.169.626a1.51 1.51 0 0 0 .452.442c.189.116.391.214.607.293l.621.189.994.259a7.62 7.62 0 0 1 1 .323 4 4 0 0 1 .949.537 2.57 2.57 0 0 1 .706.825c.182.328.274.721.274 1.178 0 .577-.15 1.089-.448 1.536s-.724.8-1.287 1.059-1.238.388-2.034.388c-.762 0-1.422-.121-1.979-.363s-.992-.585-1.307-1.029-.489-.978-.522-1.591h1.541c.03.368.149.674.358.92s.482.423.81.542a3.28 3.28 0 0 0 1.089.174 3.09 3.09 0 0 0 1.159-.204c.341-.139.609-.331.805-.577s.293-.539.293-.87c0-.302-.086-.549-.258-.741s-.4-.351-.691-.477-.615-.237-.98-.333l-1.203-.328c-.815-.222-1.461-.548-1.939-.979s-.711-1.001-.711-1.71c0-.587.159-1.099.478-1.536s.749-.777 1.292-1.019 1.157-.368 1.84-.368c.689 0 1.297.121 1.824.363s.948.575 1.253.999.464.905.477 1.452h-1.481zm3.316-2.675h1.865l3.241 7.915h.12l3.241-7.915h1.864V59h-1.461v-7.368h-.095l-3.003 7.353h-1.213l-3.003-7.358h-.094V59h-1.462V48.818zm17.978 2.675c-.053-.471-.272-.835-.656-1.094s-.869-.393-1.452-.393c-.417 0-.779.066-1.084.199s-.542.308-.711.537a1.27 1.27 0 0 0-.248.771c0 .242.056.451.169.626a1.52 1.52 0 0 0 .452.442c.189.116.391.214.607.293l.621.189.995.259c.324.08.657.187.999.323a4 4 0 0 1 .949.537 2.57 2.57 0 0 1 .706.825c.183.328.274.721.274 1.178a2.7 2.7 0 0 1-.448 1.536c-.295.447-.724.8-1.287 1.059s-1.238.388-2.034.388c-.762 0-1.422-.121-1.978-.363s-.993-.585-1.308-1.029-.489-.978-.522-1.591h1.541c.03.368.149.674.358.92s.483.423.811.542a3.27 3.27 0 0 0 1.088.174c.435 0 .821-.068 1.159-.204s.61-.331.805-.577.294-.539.294-.87c0-.302-.087-.549-.259-.741s-.399-.351-.691-.477a6.76 6.76 0 0 0-.979-.333l-1.204-.328c-.815-.222-1.461-.548-1.938-.979s-.711-1.001-.711-1.71c0-.587.159-1.099.477-1.536s.749-.777 1.292-1.019 1.157-.368 1.84-.368c.689 0 1.298.121 1.825.363s.947.575 1.252.999.464.905.478 1.452h-1.482z" class="G"/><rect x="416" y="50.5" width="6" height="6" rx="3" fill="#c6a9ff"/><path d="M427.119 88V77.818h6.383v1.322h-4.847v3.102h4.514v1.317h-4.514v3.117h4.907V88h-6.443zm8.176 0v-7.636h1.427v1.243h.094a1.97 1.97 0 0 1 .781-.984c.361-.239.793-.358 1.297-.358.511 0 .938.119 1.283.358a2.1 2.1 0 0 1 .771.984h.079c.182-.408.472-.732.87-.974s.872-.368 1.422-.368c.693 0 1.258.217 1.695.651s.662 1.089.662 1.964V88h-1.487v-4.981c0-.517-.141-.892-.423-1.124s-.618-.348-1.009-.348c-.484 0-.86.149-1.128.447s-.403.675-.403 1.139V88h-1.482v-5.076c0-.414-.129-.747-.387-.999s-.595-.378-1.01-.378a1.44 1.44 0 0 0-.78.224c-.235.146-.426.35-.572.611s-.214.565-.214.91V88h-1.486zm14.455.169c-.484 0-.921-.09-1.312-.268s-.701-.446-.93-.79-.338-.767-.338-1.268c0-.431.083-.785.249-1.064s.389-.499.671-.661a3.49 3.49 0 0 1 .944-.368c.348-.083.703-.146 1.064-.189l1.114-.129c.285-.037.492-.094.621-.174s.194-.209.194-.388v-.035c0-.434-.122-.771-.368-1.009s-.603-.358-1.084-.358c-.5 0-.894.111-1.183.333s-.482.462-.591.731l-1.397-.318c.165-.464.407-.839.725-1.124s.691-.497 1.109-.626a4.33 4.33 0 0 1 1.318-.199 4.64 4.64 0 0 1 .969.109 2.84 2.84 0 0 1 .965.388c.301.189.548.459.74.81s.289.8.289 1.357V88h-1.452v-1.044h-.06c-.096.192-.24.381-.432.567s-.439.34-.741.462-.663.184-1.084.184zm.323-1.193c.411 0 .763-.081 1.054-.244s.519-.375.671-.636a1.65 1.65 0 0 0 .234-.85v-.984c-.053.053-.156.103-.308.149s-.32.081-.512.114l-.562.084-.457.06c-.289.037-.552.098-.791.184s-.424.21-.567.373-.208.371-.208.636c0 .368.135.646.407.835s.618.278 1.039.278zM455.359 88v-7.636h1.486V88h-1.486zm.75-8.815c-.258 0-.48-.086-.666-.259a.84.84 0 0 1-.273-.626.83.83 0 0 1 .273-.626c.186-.176.408-.264.666-.264a.92.92 0 0 1 .662.264c.185.172.278.381.278.626s-.093.451-.278.626a.93.93 0 0 1-.662.259zm4.082-1.367V88h-1.486V77.818h1.486z" class="G"/><rect x="416" y="79.5" width="6" height="6" rx="3" fill="#869cf9"/><path d="M428.655 106.818V117h-1.536v-10.182h1.536zm3.464 5.648V117h-1.486v-7.636h1.427v1.243h.094c.176-.405.451-.73.825-.975s.854-.368 1.427-.368c.521 0 .976.11 1.367.328s.695.537.91.965.323.956.323 1.586V117h-1.486v-4.678c0-.554-.144-.986-.433-1.298s-.684-.472-1.188-.472c-.345 0-.651.074-.92.224s-.475.367-.631.656-.229.63-.229 1.034zm11.24-.413v1.288h-4.514v-1.288h4.514zM446.18 117h-1.631l3.664-10.182h1.775L453.652 117h-1.631l-2.878-8.332h-.08L446.18 117zm.273-3.987h5.29v1.292h-5.29v-1.292zm8.41 6.851v-10.5h1.452v1.238h.124c.086-.16.211-.343.373-.552s.388-.391.676-.547.67-.239 1.144-.239c.616 0 1.166.156 1.65.468s.864.76 1.139 1.347.417 1.292.417 2.118-.137 1.533-.412 2.123-.653 1.039-1.134 1.357-1.029.472-1.646.472c-.464 0-.843-.078-1.138-.234s-.52-.338-.686-.546-.293-.395-.383-.557h-.089v4.052h-1.487zm1.457-6.682c0 .537.078 1.007.233 1.412a2.14 2.14 0 0 0 .677.949c.295.226.656.338 1.083.338.445 0 .816-.117 1.114-.353s.524-.561.676-.969.234-.867.234-1.377c0-.504-.076-.956-.229-1.357s-.374-.718-.676-.95-.671-.348-1.119-.348c-.43 0-.795.111-1.093.333s-.519.532-.672.93-.228.862-.228 1.392zm7.044 6.682v-10.5h1.451v1.238h.125a4.04 4.04 0 0 1 .373-.552c.162-.209.387-.391.676-.547s.669-.239 1.143-.239c.617 0 1.167.156 1.651.468s.863.76 1.138 1.347.418 1.292.418 2.118-.138 1.533-.413 2.123-.653 1.039-1.133 1.357-1.029.472-1.646.472c-.464 0-.843-.078-1.138-.234s-.521-.338-.686-.546a4.11 4.11 0 0 1-.383-.557h-.09v4.052h-1.486zm1.456-6.682c0 .537.078 1.007.234 1.412s.381.721.676.949.656.338 1.084.338c.444 0 .815-.117 1.114-.353a2.19 2.19 0 0 0 .676-.969c.156-.408.233-.867.233-1.377 0-.504-.076-.956-.228-1.357s-.375-.718-.676-.95-.672-.348-1.119-.348c-.431 0-.795.111-1.094.333s-.518.532-.671.93-.229.862-.229 1.392zM475.549 117v-10.182h3.629c.792 0 1.448.144 1.969.433s.91.682 1.168 1.183a3.58 3.58 0 0 1 .388 1.68c0 .627-.131 1.19-.393 1.691s-.649.891-1.173 1.183-1.175.432-1.964.432h-2.496v-1.302h2.357c.5 0 .906-.086 1.218-.259a1.62 1.62 0 0 0 .686-.716c.146-.301.219-.644.219-1.029a2.3 2.3 0 0 0-.219-1.024 1.57 1.57 0 0 0-.691-.701c-.312-.169-.723-.253-1.233-.253h-1.929V117h-1.536zm13.533-3.167v-4.469h1.491V117h-1.461v-1.322h-.08a2.38 2.38 0 0 1-.845 1.019c-.384.268-.863.402-1.437.402-.49 0-.925-.107-1.302-.323s-.67-.542-.885-.969-.318-.956-.318-1.586v-4.857h1.486v4.678c0 .52.144.935.433 1.243s.662.462 1.123.462a1.81 1.81 0 0 0 .83-.209c.279-.139.509-.349.691-.631s.277-.64.274-1.074zm9.071-2.605l-1.347.239c-.057-.173-.146-.337-.269-.493s-.281-.283-.487-.382-.462-.15-.771-.15c-.421 0-.772.095-1.054.284s-.422.426-.422.721c0 .255.094.46.283.616s.494.284.915.383l1.213.278c.703.163 1.226.413 1.571.751s.517.777.517 1.318c0 .457-.132.865-.398 1.223s-.628.633-1.098.835-1.01.303-1.626.303c-.855 0-1.553-.182-2.093-.547s-.872-.89-.994-1.566l1.436-.219c.09.375.274.658.552.851s.642.283 1.089.283c.487 0 .877-.101 1.168-.303s.438-.456.438-.751a.78.78 0 0 0-.269-.602c-.175-.162-.445-.285-.81-.367l-1.293-.284c-.712-.162-1.239-.421-1.581-.775s-.507-.804-.507-1.348c0-.45.126-.845.378-1.183s.6-.602 1.044-.79.953-.289 1.527-.289c.825 0 1.474.179 1.948.537s.788.83.94 1.427zm3.13 1.238V117h-1.486v-10.182h1.466v3.789h.095c.179-.411.452-.738.82-.98s.848-.363 1.442-.363c.523 0 .981.108 1.372.323s.699.537.915.965.328.954.328 1.591V117h-1.487v-4.678c0-.56-.144-.995-.432-1.303s-.69-.467-1.203-.467c-.352 0-.667.074-.945.224s-.492.367-.651.656-.234.63-.234 1.034z" class="G"/><rect x="416" y="108.5" width="6" height="6" rx="3" fill="#f9dd88"/><path d="M429.112 146l-2.824-10.182h1.616l1.984 7.885h.094l2.063-7.885h1.601l2.064 7.89h.094l1.979-7.89h1.62L436.575 146h-1.547l-2.142-7.626h-.08L430.663 146h-1.551zm13.972.154c-.752 0-1.4-.161-1.944-.482s-.958-.781-1.253-1.367-.437-1.281-.437-2.073c0-.783.146-1.472.437-2.069s.706-1.062 1.233-1.397 1.15-.502 1.86-.502c.431 0 .848.071 1.253.214s.767.366 1.088.671.575.701.761 1.188.278 1.073.278 1.765v.527h-6.07v-1.113h4.614c0-.391-.08-.738-.239-1.039a1.8 1.8 0 0 0-.671-.721c-.285-.176-.62-.264-1.004-.264-.418 0-.783.103-1.094.308a2.08 2.08 0 0 0-.716.796c-.166.325-.249.678-.249 1.059v.87c0 .51.09.944.269 1.302s.436.632.76.821.705.278 1.139.278a2.38 2.38 0 0 0 .771-.119 1.67 1.67 0 0 0 .601-.368 1.6 1.6 0 0 0 .388-.602l1.407.254c-.113.414-.315.777-.607 1.089s-.651.548-1.088.721-.93.253-1.487.253zm4.905-.154v-10.182h1.487v3.784h.089a4.04 4.04 0 0 1 .373-.552c.162-.209.388-.391.676-.547s.67-.239 1.143-.239c.617 0 1.167.156 1.651.468s.863.76 1.139 1.347.417 1.292.417 2.118-.137 1.533-.413 2.123-.652 1.039-1.133 1.357-1.029.472-1.646.472c-.464 0-.843-.078-1.138-.234s-.52-.338-.686-.546a4.11 4.11 0 0 1-.383-.557h-.124V146h-1.452zm1.457-3.818c0 .537.078 1.007.233 1.412s.381.721.676.949.657.338 1.084.338c.444 0 .816-.117 1.114-.353s.524-.561.676-.969.234-.867.234-1.377c0-.504-.077-.956-.229-1.357s-.375-.718-.676-.95-.671-.348-1.119-.348c-.431 0-.795.111-1.093.333s-.519.532-.672.93-.228.862-.228 1.392zm18.95-6.364V146h-1.412l-5.176-7.467h-.094V146h-1.536v-10.182h1.422l5.18 7.477h.094v-7.477h1.522zm5.198 10.336c-.716 0-1.341-.164-1.874-.492s-.948-.787-1.243-1.377-.443-1.28-.443-2.068c0-.793.148-1.485.443-2.079s.709-1.053 1.243-1.382 1.158-.492 1.874-.492 1.341.164 1.874.492.948.789 1.243 1.382.443 1.286.443 2.079c0 .788-.148 1.478-.443 2.068s-.709 1.049-1.243 1.377-1.158.492-1.874.492zm.005-1.248c.464 0 .848-.122 1.153-.368s.531-.571.677-.979a3.9 3.9 0 0 0 .223-1.347c0-.488-.074-.935-.223-1.343a2.19 2.19 0 0 0-.677-.989c-.305-.249-.689-.373-1.153-.373s-.855.124-1.163.373a2.22 2.22 0 0 0-.681.989c-.146.408-.219.855-.219 1.343s.073.939.219 1.347.376.734.681.979.696.368 1.163.368zm8.639-6.542v1.193h-4.172v-1.193h4.172zm-3.053-1.83h1.487v7.224c0 .288.043.505.129.651a.67.67 0 0 0 .333.293c.139.05.29.075.452.075.12 0 .224-.008.314-.025l.208-.04.269 1.228c-.086.033-.209.067-.368.1s-.358.056-.597.059a2.62 2.62 0 0 1-1.093-.208c-.339-.146-.612-.372-.821-.677s-.313-.687-.313-1.148v-7.532zm4.557 9.466v-7.636h1.486V146h-1.486zm.751-8.815c-.259 0-.481-.086-.667-.258s-.273-.385-.273-.627a.83.83 0 0 1 .273-.626c.186-.176.408-.263.667-.263s.479.087.661.263.278.381.278.626-.093.451-.278.627a.93.93 0 0 1-.661.258zm6.23 1.179v1.193h-4.316v-1.193h4.316zM487.59 146v-8.521c0-.478.105-.874.314-1.189s.485-.555.83-.71c.345-.16.719-.239 1.123-.239.299 0 .554.025.766.074s.37.09.472.13l-.348 1.203-.268-.07c-.109-.03-.242-.044-.398-.044-.361 0-.62.089-.775.268s-.229.437-.229.776V146h-1.487zm4.526 0v-7.636h1.487V146h-1.487zm.751-8.815c-.259 0-.481-.086-.666-.258a.84.84 0 0 1-.274-.627c0-.245.091-.454.274-.626a.93.93 0 0 1 .666-.263c.258 0 .479.087.661.263a.82.82 0 0 1 .279.626c0 .242-.093.451-.279.627a.93.93 0 0 1-.661.258zm5.812 8.969c-.739 0-1.375-.167-1.909-.502s-.938-.804-1.223-1.397-.427-1.273-.427-2.038c0-.776.145-1.46.437-2.054a3.36 3.36 0 0 1 1.233-1.397c.53-.334 1.155-.502 1.874-.502.58 0 1.097.108 1.551.323s.821.511 1.099.895.449.834.502 1.348h-1.446c-.08-.358-.262-.667-.547-.925s-.66-.388-1.134-.388c-.414 0-.777.109-1.089.328s-.548.524-.721.925-.258.868-.258 1.412c0 .557.084 1.037.254 1.442s.407.717.715.939.678.333 1.099.333c.282 0 .537-.051.766-.154a1.56 1.56 0 0 0 .581-.452c.16-.196.271-.431.334-.706h1.446c-.053.494-.214.934-.482 1.322s-.628.693-1.079.915-.973.333-1.576.333zm6.809.015c-.484 0-.921-.089-1.312-.268s-.701-.446-.93-.791-.338-.767-.338-1.268c0-.431.083-.785.249-1.064s.389-.498.671-.661a3.51 3.51 0 0 1 .944-.368 9.35 9.35 0 0 1 1.064-.189l1.114-.129c.285-.036.492-.094.621-.174s.194-.209.194-.388v-.034c0-.435-.122-.771-.368-1.01s-.603-.358-1.083-.358c-.501 0-.895.111-1.184.333s-.482.463-.591.731l-1.397-.318c.165-.464.407-.838.725-1.124s.692-.497 1.109-.626a4.32 4.32 0 0 1 1.318-.199c.305 0 .628.037.969.11a2.83 2.83 0 0 1 .965.387c.301.189.548.459.74.811s.289.8.289 1.357V146h-1.452v-1.044h-.06c-.096.192-.24.381-.432.567s-.439.339-.741.462-.663.184-1.084.184zm.323-1.193c.411 0 .763-.081 1.054-.244s.519-.374.672-.636a1.66 1.66 0 0 0 .233-.85v-.985c-.053.053-.156.103-.308.15a4.79 4.79 0 0 1-.512.114l-.562.084-.457.06a3.67 3.67 0 0 0-.791.184c-.235.086-.424.21-.567.373s-.208.371-.208.636c0 .368.136.647.407.835s.618.279 1.039.279zm8.85-6.612v1.193h-4.171v-1.193h4.171zm-3.052-1.83h1.486v7.224c0 .288.043.505.129.651s.198.24.334.293.29.075.452.075c.119 0 .224-.008.313-.025l.209-.04.268 1.228a2.47 2.47 0 0 1-.367.1c-.16.036-.358.056-.597.059-.391.007-.756-.063-1.094-.208a1.88 1.88 0 0 1-.82-.677c-.209-.304-.313-.687-.313-1.148v-7.532zm4.557 9.466v-7.636h1.486V146h-1.486zm.75-8.815c-.258 0-.48-.086-.666-.258s-.273-.385-.273-.627a.83.83 0 0 1 .273-.626c.186-.176.408-.263.666-.263a.92.92 0 0 1 .662.263c.185.172.278.381.278.626s-.093.451-.278.627a.93.93 0 0 1-.662.258zm5.813 8.969c-.716 0-1.341-.164-1.875-.492s-.948-.787-1.243-1.377-.442-1.28-.442-2.068c0-.793.147-1.485.442-2.079s.71-1.053 1.243-1.382 1.159-.492 1.875-.492 1.34.164 1.874.492.948.789 1.243 1.382.442 1.286.442 2.079c0 .788-.147 1.478-.442 2.068s-.71 1.049-1.243 1.377-1.159.492-1.874.492zm.005-1.248c.464 0 .848-.122 1.153-.368s.53-.571.676-.979a3.9 3.9 0 0 0 .224-1.347c0-.488-.075-.935-.224-1.343s-.371-.74-.676-.989-.689-.373-1.153-.373-.856.124-1.164.373a2.22 2.22 0 0 0-.681.989c-.146.408-.219.855-.219 1.343s.073.939.219 1.347.376.734.681.979.696.368 1.164.368zm6.56-3.44V146h-1.487v-7.636h1.427v1.243h.095c.175-.405.451-.73.825-.975s.854-.368 1.427-.368c.52 0 .976.11 1.367.328a2.2 2.2 0 0 1 .91.965c.215.427.323.956.323 1.586V146h-1.486v-4.678c0-.554-.145-.986-.433-1.298s-.684-.472-1.188-.472c-.345 0-.651.074-.92.224s-.476.367-.631.656-.229.63-.229 1.034zm12.463-1.238l-1.347.239c-.057-.173-.146-.337-.269-.493a1.33 1.33 0 0 0-.487-.382c-.205-.1-.462-.15-.771-.15-.421 0-.772.095-1.054.284s-.422.426-.422.721c0 .255.094.46.283.616s.494.284.915.383l1.213.278c.703.163 1.226.413 1.571.751s.517.777.517 1.318c0 .457-.132.865-.398 1.223s-.628.633-1.098.835-1.01.303-1.626.303c-.855 0-1.553-.182-2.093-.547s-.872-.89-.994-1.566l1.436-.219c.09.375.274.658.552.851s.642.283 1.089.283c.487 0 .877-.101 1.168-.303s.438-.456.438-.751a.78.78 0 0 0-.269-.602c-.175-.162-.445-.285-.81-.367l-1.293-.284c-.712-.162-1.239-.421-1.581-.775s-.507-.804-.507-1.348c0-.45.126-.845.378-1.183s.6-.602 1.044-.79.953-.289 1.526-.289c.826 0 1.475.179 1.949.537s.788.83.94 1.427z" class="G"/><rect x="416" y="137.5" width="6" height="6" rx="3" fill="#00cc74"/><rect x="-1" y="1" width="164" height="137" rx="7" transform="matrix(-1 0 0 1 560 27.5)" class="F L M"/><g fill="#e5eaf5"><rect width="28" height="4" rx="2" transform="matrix(-1 0 0 1 543 48)"/><rect width="28.041" height="4" rx="2" transform="matrix(-1 -.000779 -.000779 1 542.766 60.7593)"/></g><rect x="-2" y="2" width="182" height="158" rx="6" transform="matrix(-1 0 0 1 568 16)" class="D E"/><defs><clipPath id="A"><path transform="translate(63.5 277.45)" d="M0 0h22v22H0z" class="B"/></clipPath><clipPath id="B"><path transform="translate(119 405.5)" d="M0 0h13v13H0z" class="B"/></clipPath><clipPath id="C"><path transform="translate(64.57 43.296)" d="M0 0h15v15H0z" class="B"/></clipPath><clipPath id="D"><path transform="translate(202.57 44.27)" d="M0 0h15v15H0z" class="B"/></clipPath><path id="E" d="M84.889 290.283H73.255c1.264 1.397 2.898 3.951-.023 7.334h11.657c1.35 0-2.445-2.317-2.445-3.667s3.794-3.667 2.445-3.667z"/></defs></svg>