<svg width="16" height="16" viewBox="0 0 16 16" fill="none" xmlns="http://www.w3.org/2000/svg">
<g clip-path="url(#clip0_182_1622)">
<mask id="mask0_182_1622" style="mask-type:alpha" maskUnits="userSpaceOnUse" x="2" y="1" width="24" height="25">
<rect x="2" y="1.5957" width="24" height="24" fill="#D9D9D9"/>
</mask>
<g mask="url(#mask0_182_1622)">
<path d="M6.6251 12.5957L6.4251 10.9957C6.31676 10.954 6.21476 10.904 6.1191 10.8457C6.0231 10.7874 5.92926 10.7249 5.8376 10.6582L4.3501 11.2832L2.9751 8.9082L4.2626 7.9332C4.25426 7.87487 4.2501 7.81854 4.2501 7.7642C4.2501 7.7102 4.2501 7.65404 4.2501 7.5957C4.2501 7.53737 4.2501 7.48104 4.2501 7.4267C4.2501 7.3727 4.25426 7.31654 4.2626 7.2582L2.9751 6.2832L4.3501 3.9082L5.8376 4.5332C5.92926 4.46654 6.0251 4.40404 6.1251 4.3457C6.2251 4.28737 6.3251 4.23737 6.4251 4.1957L6.6251 2.5957H9.3751L9.5751 4.1957C9.68343 4.23737 9.7856 4.28737 9.8816 4.3457C9.97726 4.40404 10.0709 4.46654 10.1626 4.5332L11.6501 3.9082L13.0251 6.2832L11.7376 7.2582C11.7459 7.31654 11.7501 7.3727 11.7501 7.4267C11.7501 7.48104 11.7501 7.53737 11.7501 7.5957C11.7501 7.65404 11.7501 7.7102 11.7501 7.7642C11.7501 7.81854 11.7418 7.87487 11.7251 7.9332L13.0126 8.9082L11.6376 11.2832L10.1626 10.6582C10.0709 10.7249 9.9751 10.7874 9.8751 10.8457C9.7751 10.904 9.6751 10.954 9.5751 10.9957L9.3751 12.5957H6.6251ZM8.0251 9.3457C8.50843 9.3457 8.92093 9.17487 9.2626 8.8332C9.60426 8.49154 9.7751 8.07904 9.7751 7.5957C9.7751 7.11237 9.60426 6.69987 9.2626 6.3582C8.92093 6.01654 8.50843 5.8457 8.0251 5.8457C7.53343 5.8457 7.11876 6.01654 6.7811 6.3582C6.44376 6.69987 6.2751 7.11237 6.2751 7.5957C6.2751 8.07904 6.44376 8.49154 6.7811 8.8332C7.11876 9.17487 7.53343 9.3457 8.0251 9.3457Z" fill="#636369"/>
</g>
</g>
<rect x="0.5" y="0.5" width="15" height="15" rx="1.5" stroke="#636369"/>
<defs>
<clipPath id="clip0_182_1622">
<rect width="12" height="12" fill="white" transform="translate(2 1.5957)"/>
</clipPath>
</defs>
</svg>
