<svg width="24" height="24" viewBox="0 0 24 24" fill="none" xmlns="http://www.w3.org/2000/svg">
<mask id="mask0_5932_35144" style="mask-type:alpha" maskUnits="userSpaceOnUse" x="0" y="0" width="24" height="24">
<rect width="24" height="24" fill="#C4C4C4"/>
</mask>
<g mask="url(#mask0_5932_35144)">
<path d="M11.5 19H12.5V17.15L16 13.65V9H8V13.65L11.5 17.15V19ZM9.5 21V18L6 14.5V9C6 8.45 6.196 7.979 6.588 7.587C6.97933 7.19567 7.45 7 8 7H9L8 8V3H10V7H14V3H16V8L15 7H16C16.55 7 17.021 7.19567 17.413 7.587C17.8043 7.979 18 8.45 18 9V14.5L14.5 18V21H9.5Z" fill="#1C1B1F"/>
</g>
</svg>
