<svg width="608" height="561" viewBox="0 0 608 561" fill="none" xmlns="http://www.w3.org/2000/svg">
<path d="M48.4961 -30.96L48.496 47.6796M48.496 592.153L48.496 311.843M48.496 246.101L48.496 97.8826" stroke="#97969C" stroke-dasharray="4 4"/>
<path d="M150.688 -30.583L150.687 371.462M150.687 591.978L150.687 396.135" stroke="#97969C" stroke-dasharray="4 4"/>
<path d="M252.379 -30.7725L252.379 134.021M252.379 591.975L252.379 510.729M252.379 216.736L252.379 461.13" stroke="#97969C" stroke-dasharray="4 4"/>
<path d="M355.07 -30.583L355.07 60.1604M355.07 591.971L355.07 84.4628" stroke="#97969C" stroke-dasharray="4 4"/>
<path d="M457.261 -30.7705L457.262 342.922M457.262 591.979L457.262 425.995" stroke="#97969C" stroke-dasharray="4 4"/>
<path d="M559.453 -30.9619L559.453 152.866M559.453 591.968L559.453 288.95M559.453 198.885L559.453 271.716" stroke="#97969C" stroke-dasharray="4 4"/>
<path d="M608 487.649L277.773 487.649M0 487.649L228.393 487.649" stroke="#97969C" stroke-dasharray="4 4"/>
<path d="M608 383.856H495.737M0 383.856L138.654 383.856M417.532 383.856H163.326" stroke="#97969C" stroke-dasharray="4 4"/>
<path d="M608 176.271H582.328M0 176.271L211.292 176.271M292 176.271L534.642 176.271" stroke="#97969C" stroke-dasharray="4 4"/>
<path d="M608 280.063H568.52M0 280.063H15.3224M80.6456 280.063L550.88 280.063" stroke="#97969C" stroke-dasharray="4 4"/>
<path d="M608 72.4775L368.442 72.4775M0 72.4775H25.1209M73.46 72.4775L342.478 72.4775" stroke="#97969C" stroke-dasharray="4 4"/>
<path d="M252.379 511.63L242.197 497.812L228.379 487.63L242.197 477.448L252.379 463.63L262.561 477.448L276.379 487.63L262.561 497.812L252.379 511.63Z" stroke="#97969C" stroke-dasharray="4 4"/>
<path d="M48.5195 96.3955L38.3372 82.5778L24.5195 72.3955L38.3372 62.2132L48.5195 48.3955L58.7019 62.2132L72.5195 72.3955L58.7019 82.5778L48.5195 96.3955Z" stroke="#97969C" stroke-dasharray="4 4"/>
<path d="M559.398 200.126L549.216 186.308L535.398 176.126L549.216 165.944L559.398 152.126L569.581 165.944L583.398 176.126L569.581 186.308L559.398 200.126Z" stroke="#97969C" stroke-dasharray="4 4"/>
<path d="M48.5312 311.979L34.9548 293.556L16.5312 279.979L34.9548 266.403L48.5312 247.979L62.1077 266.403L80.5312 279.979L62.1077 293.556L48.5312 311.979Z" stroke="#97969C" stroke-dasharray="4 4"/>
<path d="M457.246 423.886L440.276 400.856L417.246 383.886L440.276 366.915L457.246 343.886L474.217 366.915L497.246 383.886L474.217 400.856L457.246 423.886Z" stroke="#97969C" stroke-dasharray="4 4"/>
<path d="M252.379 216.276L235.408 193.247L212.379 176.276L235.408 159.306L252.379 136.276L269.349 159.306L292.379 176.276L269.349 193.247L252.379 216.276Z" stroke="#97969C" stroke-dasharray="4 4"/>
<circle cx="150.754" cy="383.856" r="12" transform="rotate(180 150.754 383.856)" stroke="#97969C" stroke-dasharray="4 4"/>
<circle cx="559.453" cy="280.063" r="8" transform="rotate(180 559.453 280.063)" stroke="#97969C" stroke-dasharray="4 4"/>
<circle cx="355.402" cy="72.4775" r="12" transform="rotate(180 355.402 72.4775)" stroke="#97969C" stroke-dasharray="4 4"/>
<rect x="-2" y="2" width="447" height="151" rx="6" transform="matrix(-1 0 0 1 501.912 65)" fill="#121212"/>
<rect x="-2" y="2" width="447" height="151" rx="6" transform="matrix(-1 0 0 1 501.912 65)" stroke="#121212" stroke-width="4"/>
<rect x="-2" y="2" width="447" height="144" rx="6" transform="matrix(-1 0 0 1 513.846 60.4775)" fill="#F5F6F8"/>
<rect x="81.3457" y="76.873" width="422" height="38" rx="4" fill="white"/>
<rect x="98.3457" y="90.873" width="10" height="10" rx="5" fill="#EB5757"/>
<rect x="116.346" y="90.873" width="10" height="10" rx="5" fill="#F2C94C"/>
<rect x="134.346" y="90.873" width="10" height="10" rx="5" fill="#27AE60"/>
<path d="M477.783 89.873C477.783 89.3208 477.335 88.873 476.783 88.873C476.231 88.873 475.783 89.3208 475.783 89.873H477.783ZM475.783 101.873C475.783 102.425 476.231 102.873 476.783 102.873C477.335 102.873 477.783 102.425 477.783 101.873H475.783ZM475.783 89.873V101.873H477.783V89.873H475.783Z" fill="#E7EDF5"/>
<path d="M482.783 96.873C483.335 96.873 483.783 96.4253 483.783 95.873C483.783 95.3208 483.335 94.873 482.783 94.873L482.783 96.873ZM470.783 94.873C470.231 94.873 469.783 95.3208 469.783 95.873C469.783 96.4253 470.231 96.873 470.783 96.873L470.783 94.873ZM482.783 94.873L470.783 94.873L470.783 96.873L482.783 96.873L482.783 94.873Z" fill="#E7EDF5"/>
<rect x="-1" y="1" width="419" height="61" rx="7" transform="matrix(-1 0 0 1 500.846 126.478)" fill="#F5F6F8"/>
<path d="M121.392 163.978V158.272L121.356 156.418H121.536L122.706 158.272L126.45 163.978H129.33V151.918H126.63V157.966L126.666 159.586H126.486L125.478 157.966L121.572 151.918H118.692V163.978H121.392ZM135.59 164.158C138.182 164.158 139.838 163.024 139.838 161.098V160.918H137.174V161.026C137.174 161.584 136.706 161.818 135.626 161.818C134.15 161.818 133.646 161.314 133.592 160.054H139.802C139.856 159.748 139.928 159.226 139.928 158.722C139.928 156.364 138.326 154.744 135.608 154.744C132.782 154.744 131.054 156.58 131.054 159.478C131.054 162.34 132.476 164.158 135.59 164.158ZM135.518 156.958C136.778 156.958 137.39 157.48 137.336 158.416H133.61C133.718 157.462 134.222 156.958 135.518 156.958ZM146.342 163.978L147.53 159.676L147.98 157.3H148.178L148.628 159.676L149.798 163.978H153.326L155.432 154.924H152.588L151.958 159.118L151.634 161.818H151.454L150.968 159.118L149.852 154.924H146.414L145.316 159.1L144.812 161.818H144.614L144.272 159.1L143.678 154.924H140.708L142.814 163.978H146.342ZM163.414 164.158C165.088 164.158 166.006 163.42 166.492 162.754H166.6V163.978H169.102V158.614C169.102 156.202 167.698 154.744 165.034 154.744C162.478 154.744 160.804 156.166 160.804 158.326V158.524H163.378V158.326C163.378 157.408 163.81 157.102 164.908 157.102C165.97 157.102 166.546 157.3 166.546 158.362V158.65L163.45 159.118C161.578 159.406 160.57 160.27 160.57 161.674C160.57 163.312 161.812 164.158 163.414 164.158ZM163.144 161.458C163.144 161.08 163.396 160.9 163.954 160.81L166.546 160.414C166.546 161.818 165.412 162.106 164.314 162.106C163.522 162.106 163.144 161.944 163.144 161.458ZM174.555 164.158C176.139 164.158 177.093 163.438 177.597 162.394H177.687V163.978H180.189V154.924H177.507V160.054C177.507 161.422 176.949 161.836 175.653 161.836C174.303 161.836 173.871 161.386 173.871 160.126V154.924H171.189V160.666C171.189 162.592 172.179 164.158 174.555 164.158ZM186.488 164.014C187.118 164.014 187.82 163.924 188.252 163.834V161.584H187.136C185.966 161.584 185.696 161.494 185.696 160.702V157.156H188.252V154.924H185.696V152.818H183.572L183.068 154.924H181.556V157.156H182.996V161.008C182.996 163.15 184.13 164.014 186.488 164.014ZM194.115 164.158C197.013 164.158 198.705 162.322 198.705 159.46C198.705 156.58 197.013 154.744 194.115 154.744C191.199 154.744 189.471 156.58 189.471 159.46C189.471 162.322 191.199 164.158 194.115 164.158ZM194.115 161.782C192.639 161.782 192.135 161.206 192.135 159.46C192.135 157.696 192.639 157.12 194.115 157.12C195.573 157.12 196.077 157.696 196.077 159.46C196.077 161.206 195.573 161.782 194.115 161.782ZM203.16 163.978V158.74C203.16 157.462 203.7 157.066 204.924 157.066C206.22 157.066 206.616 157.516 206.616 158.776V163.978H209.316V158.776C209.316 157.462 209.838 157.066 211.062 157.066C212.376 157.066 212.754 157.516 212.754 158.776V163.978H215.454V158.236C215.454 156.31 214.5 154.744 212.16 154.744C210.486 154.744 209.586 155.518 209.082 156.508H208.992C208.542 155.446 207.606 154.744 206.058 154.744C204.51 154.744 203.574 155.482 203.088 156.508H202.98V154.924H200.478V163.978H203.16ZM220.061 164.158C221.735 164.158 222.653 163.42 223.139 162.754H223.247V163.978H225.749V158.614C225.749 156.202 224.345 154.744 221.681 154.744C219.125 154.744 217.451 156.166 217.451 158.326V158.524H220.025V158.326C220.025 157.408 220.457 157.102 221.555 157.102C222.617 157.102 223.193 157.3 223.193 158.362V158.65L220.097 159.118C218.225 159.406 217.217 160.27 217.217 161.674C217.217 163.312 218.459 164.158 220.061 164.158ZM219.791 161.458C219.791 161.08 220.043 160.9 220.601 160.81L223.193 160.414C223.193 161.818 222.059 162.106 220.961 162.106C220.169 162.106 219.791 161.944 219.791 161.458ZM231.996 164.014C232.626 164.014 233.328 163.924 233.76 163.834V161.584H232.644C231.474 161.584 231.204 161.494 231.204 160.702V157.156H233.76V154.924H231.204V152.818H229.08L228.576 154.924H227.064V157.156H228.504V161.008C228.504 163.15 229.638 164.014 231.996 164.014ZM238.052 153.898V151.918H235.37L235.406 153.898H238.052ZM238.106 163.978V154.924H235.406V163.978H238.106ZM244.364 164.158C247.262 164.158 248.954 162.322 248.954 159.46C248.954 156.58 247.262 154.744 244.364 154.744C241.448 154.744 239.72 156.58 239.72 159.46C239.72 162.322 241.448 164.158 244.364 164.158ZM244.364 161.782C242.888 161.782 242.384 161.206 242.384 159.46C242.384 157.696 242.888 157.12 244.364 157.12C245.822 157.12 246.326 157.696 246.326 159.46C246.326 161.206 245.822 161.782 244.364 161.782ZM253.409 163.978V158.848C253.409 157.48 253.967 157.066 255.263 157.066C256.631 157.066 257.045 157.516 257.045 158.776V163.978H259.745V158.236C259.745 156.31 258.737 154.744 256.379 154.744C254.795 154.744 253.823 155.482 253.337 156.508H253.229V154.924H250.727V163.978H253.409ZM269.092 163.978V157.156H271.108V154.924H268.984V154.762C268.984 154.15 269.308 153.934 269.992 153.934H271.108V151.918C270.82 151.882 270.55 151.882 270.262 151.882C267.85 151.882 266.572 153.016 266.41 154.924H265.078V157.156H266.392V163.978H269.092ZM274.816 163.978V151.918H272.134V163.978H274.816ZM281.259 164.158C284.157 164.158 285.849 162.322 285.849 159.46C285.849 156.58 284.157 154.744 281.259 154.744C278.343 154.744 276.615 156.58 276.615 159.46C276.615 162.322 278.343 164.158 281.259 164.158ZM281.259 161.782C279.783 161.782 279.279 161.206 279.279 159.46C279.279 157.696 279.783 157.12 281.259 157.12C282.717 157.12 283.221 157.696 283.221 159.46C283.221 161.206 282.717 161.782 281.259 161.782ZM292.202 163.978L293.39 159.676L293.84 157.3H294.038L294.488 159.676L295.658 163.978H299.186L301.292 154.924H298.448L297.818 159.118L297.494 161.818H297.314L296.828 159.118L295.712 154.924H292.274L291.176 159.1L290.672 161.818H290.474L290.132 159.1L289.538 154.924H286.568L288.674 163.978H292.202Z" fill="black"/>
<g clip-path="url(#clip0_6354_40621)">
<path d="M112.013 167.756V168.978H110.166V167.756C110.166 166.743 109.34 165.922 108.32 165.922V164.089C110.36 164.089 112.013 165.731 112.013 167.756Z" fill="#C6D5DB"/>
<path d="M108.678 165.311C108.573 165.311 108.472 165.327 108.371 165.342V165.927C109.366 165.955 110.166 166.76 110.166 167.756V168.978H110.833V167.45C110.833 166.269 109.868 165.311 108.678 165.311ZM104.679 167.756V168.978H106.525V167.756C106.525 166.743 107.352 165.922 108.371 165.922V164.089C106.332 164.089 104.679 165.731 104.679 167.756Z" fill="#E1E8ED"/>
<path d="M108.063 165.311C108.168 165.311 108.269 165.327 108.371 165.342V165.927C107.376 165.954 106.576 166.76 106.576 167.755V168.978H105.909V167.45C105.91 166.268 106.874 165.311 108.063 165.311ZM112.012 148.2V146.978H110.166V148.2C110.166 149.212 109.339 150.033 108.32 150.033V151.866C110.359 151.866 112.012 150.224 112.012 148.2Z" fill="#C6D5DB"/>
<path d="M108.678 150.644C108.573 150.644 108.472 150.628 108.371 150.613V150.028C109.366 150 110.166 149.195 110.166 148.2V146.978H110.833V148.505C110.833 149.687 109.868 150.644 108.678 150.644ZM104.679 148.2V146.978H106.525V148.2C106.525 149.212 107.352 150.033 108.371 150.033V151.866C106.332 151.866 104.679 150.224 104.679 148.2Z" fill="#E1E8ED"/>
<path d="M108.064 150.644C108.169 150.644 108.27 150.628 108.371 150.613V150.028C107.377 150 106.577 149.195 106.577 148.2V146.978H105.91V148.505C105.91 149.687 106.874 150.644 108.064 150.644ZM108.32 153.089V154.922C109.34 154.922 110.167 155.743 110.167 156.755V159.2C110.167 160.212 109.34 161.033 108.32 161.033V162.866C110.36 162.866 112.013 161.224 112.013 159.2V156.755C112.013 154.731 110.36 153.089 108.32 153.089Z" fill="#C6D5DB"/>
<path d="M108.679 154.311C108.574 154.311 108.473 154.327 108.371 154.342V154.927C109.366 154.955 110.166 155.76 110.166 156.755V159.2C110.166 160.195 109.366 161 108.371 161.028V161.613C108.473 161.628 108.574 161.644 108.679 161.644C109.868 161.644 110.833 160.687 110.833 159.505V156.45C110.833 155.269 109.869 154.311 108.679 154.311Z" fill="#E1E8ED"/>
<path d="M106.525 156.756C106.525 155.743 107.352 154.922 108.371 154.922V153.089C106.332 153.089 104.679 154.731 104.679 156.756V159.2C104.679 161.225 106.332 162.867 108.371 162.867V161.033C107.352 161.033 106.525 160.213 106.525 159.2V156.756Z" fill="#E1E8ED"/>
<path d="M108.064 154.311C106.874 154.311 105.91 155.269 105.91 156.45V159.505C105.91 160.687 106.874 161.644 108.064 161.644C108.169 161.644 108.27 161.628 108.371 161.613V161.028C107.376 161.001 106.576 160.195 106.576 159.2V156.755C106.576 155.76 107.376 154.955 108.371 154.927V154.342C108.27 154.327 108.169 154.311 108.064 154.311ZM97.3203 158.589V160.422C98.3396 160.422 99.1665 161.243 99.1665 162.255V164.7C99.1665 165.713 98.3396 166.533 97.3203 166.533V168.367C99.3596 168.367 101.013 166.725 101.013 164.7V162.255C101.013 160.231 99.3596 158.589 97.3203 158.589Z" fill="#C6D5DB"/>
<path d="M97.6791 159.811C97.574 159.811 97.4731 159.827 97.3711 159.842V160.427C98.366 160.455 99.1659 161.26 99.1659 162.255V164.7C99.1659 165.695 98.366 166.5 97.3711 166.528V167.113C97.4731 167.128 97.574 167.144 97.6791 167.144C98.8683 167.144 99.8326 166.187 99.8326 165.005V161.95C99.8333 160.769 98.8689 159.811 97.6791 159.811Z" fill="#E1E8ED"/>
<path d="M95.5249 162.256C95.5249 161.243 96.3517 160.422 97.371 160.422V158.589C95.3318 158.589 93.6787 160.231 93.6787 162.256V164.7C93.6787 166.725 95.3318 168.367 97.371 168.367V166.533C96.3517 166.533 95.5249 165.713 95.5249 164.7V162.256Z" fill="#E1E8ED"/>
<path d="M97.0637 159.811C95.8745 159.811 94.9102 160.769 94.9102 161.95V165.006C94.9102 166.187 95.8745 167.144 97.0637 167.144C97.1688 167.144 97.2697 167.129 97.3711 167.113V166.528C96.3768 166.5 95.5769 165.695 95.5769 164.7V162.256C95.5769 161.26 96.3768 160.455 97.3717 160.427V159.842C97.2703 159.827 97.1694 159.811 97.0637 159.811ZM97.3204 147.589V149.422C98.3397 149.422 99.1665 150.243 99.1665 151.256V153.7C99.1665 154.713 98.3397 155.533 97.3204 155.533V157.367C99.3597 157.367 101.013 155.725 101.013 153.7V151.256C101.013 149.231 99.3597 147.589 97.3204 147.589Z" fill="#C6D5DB"/>
<path d="M97.6784 148.811C97.5733 148.811 97.4725 148.827 97.371 148.842V149.427C98.3659 149.455 99.1659 150.26 99.1659 151.256V153.7C99.1659 154.695 98.3659 155.5 97.371 155.528V156.113C97.4725 156.129 97.5733 156.144 97.6784 156.144C98.8677 156.144 99.832 155.187 99.832 154.006V150.95C99.8326 149.769 98.8683 148.811 97.6784 148.811ZM95.5249 151.256C95.5249 150.243 96.3517 149.422 97.371 149.422V147.589C95.3318 147.589 93.6787 149.231 93.6787 151.256V153.7C93.6787 155.725 95.3318 157.367 97.371 157.367V155.533C96.3517 155.533 95.5249 154.713 95.5249 153.7V151.256Z" fill="#E1E8ED"/>
<path d="M97.0637 148.811C95.8745 148.811 94.9102 149.769 94.9102 150.95V154.005C94.9102 155.187 95.8745 156.144 97.0637 156.144C97.1688 156.144 97.2697 156.128 97.3711 156.113V155.528C96.3768 155.5 95.5769 154.695 95.5769 153.7V151.255C95.5769 150.26 96.3768 149.455 97.3717 149.427V148.842C97.2703 148.827 97.1694 148.811 97.0637 148.811ZM109.568 167.144C109.568 167.819 109.021 168.367 108.346 168.367C107.671 168.367 107.124 167.819 107.124 167.144V159.811C107.124 159.136 107.671 158.589 108.346 158.589C109.021 158.589 109.568 159.136 109.568 159.811V167.144Z" fill="#C6D5DB"/>
<path d="M107.123 159.811V167.144C107.123 167.819 107.671 168.367 108.345 168.367V158.589C107.671 158.589 107.123 159.136 107.123 159.811Z" fill="#EDF1F4"/>
<path d="M109.567 156.144C109.567 156.819 109.02 157.367 108.345 157.367C107.671 157.367 107.123 156.819 107.123 156.144V148.811C107.123 148.136 107.671 147.589 108.345 147.589C109.02 147.589 109.567 148.136 109.567 148.811V156.144Z" fill="#C6D5DB"/>
<path d="M107.123 148.811V156.144C107.123 156.819 107.671 157.367 108.345 157.367V147.589C107.671 147.589 107.123 148.136 107.123 148.811Z" fill="#EDF1F4"/>
<path d="M98.5675 168.978H96.123V165.311C96.123 164.636 96.6706 164.089 97.3453 164.089C98.0199 164.089 98.5675 164.636 98.5675 165.311V168.978Z" fill="#C6D5DB"/>
<path d="M97.3453 164.089C96.6706 164.089 96.123 164.636 96.123 165.311V168.978H97.3453V164.089Z" fill="#EDF1F4"/>
<path d="M98.5675 161.644C98.5675 162.319 98.0199 162.867 97.3453 162.867C96.6706 162.867 96.123 162.319 96.123 161.644V154.311C96.123 153.636 96.6706 153.089 97.3453 153.089C98.0199 153.089 98.5675 153.636 98.5675 154.311V161.644Z" fill="#C6D5DB"/>
<path d="M96.123 154.311V161.644C96.123 162.319 96.6706 162.867 97.3453 162.867V153.089C96.6706 153.089 96.123 153.636 96.123 154.311Z" fill="#EDF1F4"/>
<path d="M98.5675 146.978H96.123V150.644C96.123 151.319 96.6706 151.866 97.3453 151.866C98.0199 151.866 98.5675 151.319 98.5675 150.644V146.978Z" fill="#C6D5DB"/>
<path d="M97.3453 151.866C96.6706 151.866 96.123 151.319 96.123 150.644V146.978H97.3453V151.866Z" fill="#EDF1F4"/>
</g>
<rect x="-1" y="1" width="419" height="61" rx="7" transform="matrix(-1 0 0 1 500.846 126.478)" stroke="#E1E8F2" stroke-width="2" stroke-dasharray="8 8"/>
<rect x="-2" y="2" width="447" height="144" rx="6" transform="matrix(-1 0 0 1 513.846 60.4775)" stroke="#121212" stroke-width="4"/>
<rect x="-2" y="2" width="447" height="112" rx="6" transform="matrix(-1 0 0 1 501.912 295)" fill="#121212"/>
<rect x="-2" y="2" width="447" height="112" rx="6" transform="matrix(-1 0 0 1 501.912 295)" stroke="#121212" stroke-width="4"/>
<rect x="-2" y="2" width="447" height="108" rx="6" transform="matrix(-1 0 0 1 513.846 286.052)" fill="#F5F6F8"/>
<rect x="-1" y="1" width="421" height="84" rx="7" transform="matrix(-1 0 0 1 501.846 299.052)" fill="#F5F6F8"/>
<rect width="329" height="56" rx="6" transform="matrix(-1 0 0 1 490.596 313.802)" fill="white"/>
<rect x="439.596" y="324.802" width="41" height="4" rx="2" fill="#EEF1F7"/>
<path d="M173.914 324.867V323.984H178.556V324.867H176.758V329.802H175.712V324.867H173.914ZM178.872 329.802V325.438H179.869V326.165H179.915C179.994 325.914 180.131 325.719 180.324 325.583C180.519 325.445 180.742 325.376 180.992 325.376C181.048 325.376 181.112 325.378 181.182 325.384C181.254 325.388 181.314 325.395 181.361 325.404V326.35C181.317 326.335 181.248 326.322 181.153 326.31C181.061 326.297 180.971 326.29 180.884 326.29C180.696 326.29 180.528 326.331 180.378 326.413C180.23 326.492 180.114 326.603 180.028 326.745C179.943 326.887 179.901 327.051 179.901 327.236V329.802H178.872ZM181.964 329.802V325.438H182.993V329.802H181.964ZM182.481 324.819C182.318 324.819 182.178 324.765 182.061 324.657C181.943 324.547 181.885 324.415 181.885 324.262C181.885 324.107 181.943 323.975 182.061 323.867C182.178 323.757 182.318 323.702 182.481 323.702C182.646 323.702 182.786 323.757 182.902 323.867C183.019 323.975 183.078 324.107 183.078 324.262C183.078 324.415 183.019 324.547 182.902 324.657C182.786 324.765 182.646 324.819 182.481 324.819ZM185.868 331.529C185.498 331.529 185.181 331.479 184.916 331.378C184.651 331.28 184.438 331.147 184.277 330.981C184.116 330.814 184.004 330.629 183.942 330.427L184.868 330.202C184.909 330.288 184.97 330.372 185.05 330.455C185.129 330.54 185.236 330.61 185.371 330.665C185.507 330.722 185.678 330.751 185.885 330.751C186.176 330.751 186.418 330.68 186.609 330.538C186.801 330.397 186.896 330.166 186.896 329.844V329.018H186.845C186.792 329.124 186.714 329.233 186.612 329.344C186.512 329.456 186.378 329.55 186.212 329.626C186.047 329.701 185.839 329.739 185.589 329.739C185.254 329.739 184.95 329.661 184.677 329.503C184.407 329.344 184.191 329.108 184.03 328.793C183.871 328.477 183.791 328.081 183.791 327.606C183.791 327.127 183.871 326.722 184.03 326.393C184.191 326.061 184.408 325.81 184.68 325.64C184.953 325.467 185.257 325.381 185.592 325.381C185.848 325.381 186.058 325.425 186.223 325.512C186.39 325.597 186.522 325.7 186.621 325.822C186.719 325.941 186.794 326.054 186.845 326.16H186.902V325.438H187.916V329.873C187.916 330.246 187.827 330.555 187.649 330.799C187.471 331.043 187.228 331.226 186.919 331.347C186.61 331.468 186.26 331.529 185.868 331.529ZM185.876 328.932C186.094 328.932 186.28 328.879 186.433 328.773C186.587 328.667 186.703 328.515 186.783 328.316C186.862 328.117 186.902 327.878 186.902 327.6C186.902 327.325 186.862 327.085 186.783 326.878C186.705 326.672 186.589 326.512 186.436 326.398C186.284 326.283 186.098 326.225 185.876 326.225C185.647 326.225 185.456 326.285 185.302 326.404C185.149 326.523 185.033 326.687 184.956 326.896C184.878 327.102 184.839 327.337 184.839 327.6C184.839 327.867 184.878 328.101 184.956 328.302C185.035 328.501 185.152 328.656 185.305 328.768C185.461 328.878 185.651 328.932 185.876 328.932ZM190.788 331.529C190.418 331.529 190.101 331.479 189.836 331.378C189.571 331.28 189.358 331.147 189.197 330.981C189.036 330.814 188.924 330.629 188.862 330.427L189.788 330.202C189.829 330.288 189.89 330.372 189.97 330.455C190.049 330.54 190.156 330.61 190.291 330.665C190.427 330.722 190.598 330.751 190.805 330.751C191.096 330.751 191.338 330.68 191.529 330.538C191.721 330.397 191.816 330.166 191.816 329.844V329.018H191.765C191.712 329.124 191.634 329.233 191.532 329.344C191.432 329.456 191.298 329.55 191.132 329.626C190.967 329.701 190.759 329.739 190.509 329.739C190.174 329.739 189.87 329.661 189.597 329.503C189.327 329.344 189.111 329.108 188.95 328.793C188.791 328.477 188.711 328.081 188.711 327.606C188.711 327.127 188.791 326.722 188.95 326.393C189.111 326.061 189.328 325.81 189.6 325.64C189.873 325.467 190.177 325.381 190.512 325.381C190.768 325.381 190.978 325.425 191.143 325.512C191.31 325.597 191.442 325.7 191.541 325.822C191.639 325.941 191.714 326.054 191.765 326.16H191.822V325.438H192.836V329.873C192.836 330.246 192.747 330.555 192.569 330.799C192.391 331.043 192.148 331.226 191.839 331.347C191.53 331.468 191.18 331.529 190.788 331.529ZM190.796 328.932C191.014 328.932 191.2 328.879 191.353 328.773C191.507 328.667 191.623 328.515 191.703 328.316C191.782 328.117 191.822 327.878 191.822 327.6C191.822 327.325 191.782 327.085 191.703 326.878C191.625 326.672 191.509 326.512 191.356 326.398C191.204 326.283 191.018 326.225 190.796 326.225C190.567 326.225 190.376 326.285 190.222 326.404C190.069 326.523 189.953 326.687 189.876 326.896C189.798 327.102 189.759 327.337 189.759 327.6C189.759 327.867 189.798 328.101 189.876 328.302C189.955 328.501 190.072 328.656 190.225 328.768C190.381 328.878 190.571 328.932 190.796 328.932ZM195.742 329.887C195.304 329.887 194.927 329.796 194.608 329.614C194.292 329.431 194.049 329.171 193.878 328.836C193.708 328.499 193.623 328.102 193.623 327.646C193.623 327.197 193.708 326.803 193.878 326.464C194.051 326.123 194.291 325.858 194.6 325.668C194.909 325.477 195.271 325.381 195.688 325.381C195.957 325.381 196.211 325.425 196.449 325.512C196.69 325.597 196.902 325.73 197.086 325.91C197.271 326.09 197.417 326.319 197.523 326.597C197.629 326.874 197.682 327.203 197.682 327.586V327.901H194.106V327.208H196.696C196.695 327.011 196.652 326.836 196.569 326.682C196.485 326.527 196.369 326.405 196.219 326.316C196.071 326.227 195.899 326.182 195.702 326.182C195.492 326.182 195.307 326.234 195.148 326.336C194.989 326.436 194.865 326.569 194.776 326.734C194.689 326.896 194.644 327.075 194.642 327.271V327.876C194.642 328.129 194.689 328.347 194.782 328.529C194.874 328.709 195.004 328.847 195.171 328.944C195.338 329.039 195.533 329.086 195.756 329.086C195.906 329.086 196.041 329.065 196.162 329.023C196.284 328.98 196.389 328.916 196.478 328.833C196.567 328.75 196.634 328.646 196.679 328.523L197.64 328.631C197.579 328.885 197.463 329.107 197.293 329.296C197.124 329.484 196.909 329.629 196.645 329.734C196.382 329.836 196.081 329.887 195.742 329.887ZM198.472 329.802V325.438H199.469V326.165H199.515C199.594 325.914 199.731 325.719 199.924 325.583C200.119 325.445 200.342 325.376 200.592 325.376C200.648 325.376 200.712 325.378 200.782 325.384C200.854 325.388 200.914 325.395 200.961 325.404V326.35C200.917 326.335 200.848 326.322 200.753 326.31C200.661 326.297 200.571 326.29 200.484 326.29C200.296 326.29 200.128 326.331 199.978 326.413C199.83 326.492 199.714 326.603 199.628 326.745C199.543 326.887 199.501 327.051 199.501 327.236V329.802H198.472ZM205.4 329.887C204.963 329.887 204.585 329.796 204.267 329.614C203.95 329.431 203.707 329.171 203.537 328.836C203.366 328.499 203.281 328.102 203.281 327.646C203.281 327.197 203.366 326.803 203.537 326.464C203.709 326.123 203.95 325.858 204.258 325.668C204.567 325.477 204.93 325.381 205.346 325.381C205.615 325.381 205.869 325.425 206.108 325.512C206.348 325.597 206.56 325.73 206.744 325.91C206.93 326.09 207.075 326.319 207.182 326.597C207.288 326.874 207.341 327.203 207.341 327.586V327.901H203.764V327.208H206.355C206.353 327.011 206.31 326.836 206.227 326.682C206.144 326.527 206.027 326.405 205.878 326.316C205.73 326.227 205.558 326.182 205.361 326.182C205.15 326.182 204.966 326.234 204.807 326.336C204.647 326.436 204.523 326.569 204.434 326.734C204.347 326.896 204.303 327.075 204.301 327.271V327.876C204.301 328.129 204.347 328.347 204.44 328.529C204.533 328.709 204.663 328.847 204.829 328.944C204.996 329.039 205.191 329.086 205.415 329.086C205.564 329.086 205.7 329.065 205.821 329.023C205.942 328.98 206.047 328.916 206.136 328.833C206.225 328.75 206.292 328.646 206.338 328.523L207.298 328.631C207.237 328.885 207.122 329.107 206.951 329.296C206.783 329.484 206.567 329.629 206.304 329.734C206.04 329.836 205.739 329.887 205.4 329.887ZM211.903 325.438L210.349 329.802H209.213L207.659 325.438H208.756L209.759 328.68H209.804L210.81 325.438H211.903ZM214.318 329.887C213.881 329.887 213.503 329.796 213.185 329.614C212.869 329.431 212.625 329.171 212.455 328.836C212.284 328.499 212.199 328.102 212.199 327.646C212.199 327.197 212.284 326.803 212.455 326.464C212.627 326.123 212.868 325.858 213.176 325.668C213.485 325.477 213.848 325.381 214.264 325.381C214.533 325.381 214.787 325.425 215.026 325.512C215.266 325.597 215.478 325.73 215.662 325.91C215.848 326.09 215.994 326.319 216.1 326.597C216.206 326.874 216.259 327.203 216.259 327.586V327.901H212.682V327.208H215.273C215.271 327.011 215.228 326.836 215.145 326.682C215.062 326.527 214.945 326.405 214.796 326.316C214.648 326.227 214.476 326.182 214.279 326.182C214.068 326.182 213.884 326.234 213.725 326.336C213.566 326.436 213.442 326.569 213.353 326.734C213.265 326.896 213.221 327.075 213.219 327.271V327.876C213.219 328.129 213.265 328.347 213.358 328.529C213.451 328.709 213.581 328.847 213.747 328.944C213.914 329.039 214.109 329.086 214.333 329.086C214.482 329.086 214.618 329.065 214.739 329.023C214.86 328.98 214.965 328.916 215.054 328.833C215.143 328.75 215.21 328.646 215.256 328.523L216.216 328.631C216.156 328.885 216.04 329.107 215.87 329.296C215.701 329.484 215.485 329.629 215.222 329.734C214.959 329.836 214.657 329.887 214.318 329.887ZM218.077 327.245V329.802H217.049V325.438H218.032V326.18H218.083C218.183 325.935 218.343 325.741 218.563 325.597C218.785 325.453 219.058 325.381 219.384 325.381C219.685 325.381 219.947 325.446 220.171 325.574C220.396 325.703 220.571 325.89 220.694 326.134C220.819 326.378 220.88 326.675 220.878 327.023V329.802H219.85V327.182C219.85 326.891 219.774 326.663 219.623 326.498C219.473 326.333 219.266 326.251 219.001 326.251C218.821 326.251 218.661 326.29 218.52 326.37C218.382 326.448 218.273 326.56 218.194 326.708C218.116 326.856 218.077 327.035 218.077 327.245ZM224.023 325.438V326.234H221.514V325.438H224.023ZM222.134 324.393H223.162V328.489C223.162 328.628 223.183 328.734 223.224 328.807C223.268 328.879 223.325 328.929 223.395 328.955C223.465 328.982 223.543 328.995 223.628 328.995C223.692 328.995 223.751 328.99 223.804 328.981C223.859 328.971 223.901 328.963 223.929 328.955L224.102 329.759C224.047 329.778 223.969 329.799 223.867 329.822C223.766 329.844 223.643 329.858 223.497 329.861C223.24 329.869 223.008 329.83 222.801 329.745C222.595 329.658 222.431 329.523 222.31 329.342C222.19 329.16 222.132 328.932 222.134 328.66V324.393ZM227.608 329.802L226.375 325.438H227.423L228.19 328.506H228.23L229.014 325.438H230.051L230.835 328.489H230.878L231.633 325.438H232.685L231.449 329.802H230.378L229.56 326.853H229.5L228.682 329.802H227.608ZM234.351 327.245V329.802H233.323V323.984H234.328V326.18H234.379C234.482 325.933 234.64 325.739 234.854 325.597C235.07 325.453 235.344 325.381 235.678 325.381C235.981 325.381 236.245 325.445 236.47 325.572C236.696 325.699 236.87 325.884 236.993 326.128C237.118 326.373 237.181 326.671 237.181 327.023V329.802H236.152V327.182C236.152 326.889 236.076 326.661 235.925 326.498C235.775 326.333 235.565 326.251 235.294 326.251C235.112 326.251 234.949 326.29 234.806 326.37C234.663 326.448 234.552 326.56 234.47 326.708C234.391 326.856 234.351 327.035 234.351 327.245ZM240.081 329.887C239.643 329.887 239.265 329.796 238.947 329.614C238.631 329.431 238.387 329.171 238.217 328.836C238.047 328.499 237.961 328.102 237.961 327.646C237.961 327.197 238.047 326.803 238.217 326.464C238.389 326.123 238.63 325.858 238.939 325.668C239.247 325.477 239.61 325.381 240.027 325.381C240.296 325.381 240.549 325.425 240.788 325.512C241.029 325.597 241.241 325.73 241.424 325.91C241.61 326.09 241.756 326.319 241.862 326.597C241.968 326.874 242.021 327.203 242.021 327.586V327.901H238.444V327.208H241.035C241.033 327.011 240.991 326.836 240.907 326.682C240.824 326.527 240.708 326.405 240.558 326.316C240.41 326.227 240.238 326.182 240.041 326.182C239.831 326.182 239.646 326.234 239.487 326.336C239.328 326.436 239.204 326.569 239.115 326.734C239.028 326.896 238.983 327.075 238.981 327.271V327.876C238.981 328.129 239.028 328.347 239.12 328.529C239.213 328.709 239.343 328.847 239.51 328.944C239.676 329.039 239.871 329.086 240.095 329.086C240.244 329.086 240.38 329.065 240.501 329.023C240.622 328.98 240.727 328.916 240.816 328.833C240.905 328.75 240.973 328.646 241.018 328.523L241.978 328.631C241.918 328.885 241.802 329.107 241.632 329.296C241.463 329.484 241.247 329.629 240.984 329.734C240.721 329.836 240.42 329.887 240.081 329.887ZM243.839 327.245V329.802H242.811V325.438H243.794V326.18H243.845C243.945 325.935 244.105 325.741 244.325 325.597C244.547 325.453 244.82 325.381 245.146 325.381C245.447 325.381 245.71 325.446 245.933 325.574C246.159 325.703 246.333 325.89 246.456 326.134C246.581 326.378 246.642 326.675 246.641 327.023V329.802H245.612V327.182C245.612 326.891 245.536 326.663 245.385 326.498C245.235 326.333 245.028 326.251 244.763 326.251C244.583 326.251 244.423 326.29 244.283 326.37C244.144 326.448 244.035 326.56 243.956 326.708C243.878 326.856 243.839 327.035 243.839 327.245Z" fill="#636369"/>
<line x1="173.596" y1="336.302" x2="480.596" y2="336.302" stroke="#121212"/>
<path d="M183.171 351.931H181.62C181.56 351.6 181.449 351.308 181.287 351.056C181.124 350.804 180.925 350.59 180.69 350.415C180.455 350.239 180.191 350.106 179.9 350.017C179.611 349.927 179.305 349.883 178.98 349.883C178.393 349.883 177.868 350.03 177.404 350.325C176.943 350.62 176.579 351.053 176.31 351.623C176.045 352.193 175.912 352.889 175.912 353.711C175.912 354.539 176.045 355.239 176.31 355.809C176.579 356.379 176.945 356.81 177.409 357.101C177.873 357.393 178.395 357.539 178.975 357.539C179.296 357.539 179.601 357.496 179.89 357.41C180.181 357.32 180.445 357.189 180.68 357.017C180.916 356.845 181.114 356.634 181.277 356.386C181.443 356.134 181.557 355.845 181.62 355.521L183.171 355.525C183.088 356.026 182.927 356.487 182.689 356.908C182.453 357.325 182.15 357.686 181.779 357.991C181.411 358.293 180.99 358.527 180.516 358.692C180.042 358.858 179.525 358.941 178.965 358.941C178.083 358.941 177.298 358.732 176.608 358.315C175.919 357.894 175.376 357.292 174.978 356.51C174.583 355.728 174.386 354.795 174.386 353.711C174.386 352.624 174.585 351.691 174.983 350.912C175.381 350.13 175.924 349.53 176.613 349.112C177.303 348.691 178.087 348.481 178.965 348.481C179.505 348.481 180.009 348.559 180.476 348.714C180.947 348.867 181.37 349.092 181.744 349.391C182.119 349.686 182.429 350.047 182.674 350.474C182.919 350.899 183.085 351.384 183.171 351.931ZM189.587 355.635V351.165H191.079V358.802H189.617V357.479H189.538C189.362 357.887 189.08 358.227 188.692 358.498C188.308 358.767 187.829 358.901 187.256 358.901C186.765 358.901 186.331 358.793 185.953 358.578C185.579 358.359 185.284 358.036 185.068 357.609C184.856 357.181 184.75 356.652 184.75 356.023V351.165H186.236V355.844C186.236 356.364 186.381 356.778 186.669 357.087C186.957 357.395 187.332 357.549 187.793 357.549C188.071 357.549 188.348 357.479 188.623 357.34C188.901 357.201 189.132 356.99 189.314 356.709C189.499 356.427 189.591 356.069 189.587 355.635ZM198.658 353.03L197.311 353.268C197.255 353.096 197.165 352.932 197.043 352.776C196.923 352.62 196.761 352.493 196.555 352.393C196.35 352.294 196.093 352.244 195.785 352.244C195.364 352.244 195.013 352.339 194.731 352.528C194.449 352.713 194.308 352.954 194.308 353.248C194.308 353.504 194.403 353.709 194.592 353.865C194.781 354.021 195.085 354.148 195.506 354.248L196.719 354.526C197.422 354.689 197.946 354.939 198.29 355.277C198.635 355.615 198.808 356.054 198.808 356.594C198.808 357.052 198.675 357.459 198.41 357.817C198.148 358.172 197.782 358.45 197.311 358.653C196.844 358.855 196.302 358.956 195.685 358.956C194.83 358.956 194.133 358.774 193.592 358.409C193.052 358.041 192.721 357.519 192.598 356.843L194.035 356.624C194.124 356.999 194.308 357.282 194.587 357.474C194.865 357.663 195.228 357.758 195.675 357.758C196.163 357.758 196.552 357.657 196.844 357.454C197.135 357.249 197.281 356.999 197.281 356.704C197.281 356.465 197.192 356.265 197.013 356.102C196.837 355.94 196.567 355.817 196.202 355.734L194.91 355.451C194.197 355.289 193.67 355.03 193.329 354.675C192.991 354.321 192.822 353.872 192.822 353.328C192.822 352.877 192.948 352.483 193.2 352.145C193.451 351.807 193.799 351.543 194.244 351.354C194.688 351.162 195.197 351.066 195.77 351.066C196.595 351.066 197.245 351.245 197.719 351.603C198.193 351.958 198.506 352.433 198.658 353.03ZM203.867 351.165V352.359H199.695V351.165H203.867ZM200.814 349.336H202.301V356.56C202.301 356.848 202.344 357.065 202.43 357.211C202.516 357.353 202.627 357.451 202.763 357.504C202.902 357.554 203.053 357.579 203.215 357.579C203.335 357.579 203.439 357.57 203.529 357.554C203.618 357.537 203.688 357.524 203.737 357.514L204.006 358.742C203.92 358.775 203.797 358.808 203.638 358.842C203.479 358.878 203.28 358.898 203.041 358.901C202.65 358.908 202.286 358.838 201.948 358.692C201.609 358.547 201.336 358.321 201.127 358.016C200.918 357.711 200.814 357.329 200.814 356.868V349.336ZM208.506 358.956C207.79 358.956 207.165 358.792 206.631 358.464C206.098 358.136 205.683 357.677 205.388 357.087C205.093 356.497 204.946 355.807 204.946 355.018C204.946 354.226 205.093 353.534 205.388 352.94C205.683 352.347 206.098 351.886 206.631 351.558C207.165 351.23 207.79 351.066 208.506 351.066C209.221 351.066 209.846 351.23 210.38 351.558C210.913 351.886 211.328 352.347 211.623 352.94C211.918 353.534 212.065 354.226 212.065 355.018C212.065 355.807 211.918 356.497 211.623 357.087C211.328 357.677 210.913 358.136 210.38 358.464C209.846 358.792 209.221 358.956 208.506 358.956ZM208.51 357.708C208.975 357.708 209.359 357.585 209.664 357.34C209.969 357.095 210.194 356.768 210.34 356.361C210.489 355.953 210.564 355.504 210.564 355.013C210.564 354.526 210.489 354.079 210.34 353.671C210.194 353.26 209.969 352.93 209.664 352.682C209.359 352.433 208.975 352.309 208.51 352.309C208.043 352.309 207.655 352.433 207.347 352.682C207.042 352.93 206.815 353.26 206.666 353.671C206.52 354.079 206.447 354.526 206.447 355.013C206.447 355.504 206.52 355.953 206.666 356.361C206.815 356.768 207.042 357.095 207.347 357.34C207.655 357.585 208.043 357.708 208.51 357.708ZM213.584 358.802V351.165H215.011V352.408H215.106C215.265 351.987 215.525 351.659 215.886 351.424C216.248 351.185 216.68 351.066 217.184 351.066C217.694 351.066 218.122 351.185 218.467 351.424C218.815 351.663 219.071 351.991 219.237 352.408H219.317C219.499 352.001 219.789 351.676 220.187 351.434C220.584 351.189 221.058 351.066 221.609 351.066C222.301 351.066 222.866 351.283 223.304 351.717C223.745 352.151 223.965 352.806 223.965 353.681V358.802H222.479V353.82C222.479 353.303 222.338 352.929 222.056 352.697C221.774 352.465 221.438 352.349 221.047 352.349C220.563 352.349 220.187 352.498 219.918 352.796C219.65 353.091 219.516 353.471 219.516 353.935V358.802H218.034V353.726C218.034 353.311 217.905 352.978 217.646 352.726C217.388 352.475 217.051 352.349 216.637 352.349C216.355 352.349 216.095 352.423 215.856 352.572C215.621 352.718 215.431 352.922 215.285 353.184C215.142 353.446 215.071 353.749 215.071 354.094V358.802H213.584ZM229.109 358.956C228.356 358.956 227.708 358.795 227.165 358.474C226.625 358.149 226.207 357.693 225.912 357.106C225.62 356.516 225.474 355.825 225.474 355.033C225.474 354.251 225.62 353.562 225.912 352.965C226.207 352.369 226.618 351.903 227.145 351.568C227.675 351.233 228.295 351.066 229.004 351.066C229.435 351.066 229.853 351.137 230.257 351.28C230.661 351.422 231.024 351.646 231.346 351.951C231.667 352.256 231.921 352.652 232.107 353.139C232.292 353.623 232.385 354.211 232.385 354.904V355.431H226.315V354.317H230.928C230.928 353.926 230.849 353.58 230.69 353.278C230.531 352.973 230.307 352.733 230.018 352.557C229.733 352.382 229.399 352.294 229.014 352.294C228.597 352.294 228.232 352.397 227.92 352.602C227.612 352.804 227.374 353.07 227.205 353.398C227.039 353.722 226.956 354.075 226.956 354.457V355.327C226.956 355.837 227.045 356.271 227.224 356.629C227.407 356.987 227.66 357.261 227.985 357.449C228.31 357.635 228.689 357.728 229.124 357.728C229.405 357.728 229.662 357.688 229.894 357.609C230.126 357.526 230.327 357.403 230.496 357.241C230.665 357.078 230.794 356.878 230.884 356.639L232.291 356.893C232.178 357.307 231.976 357.67 231.684 357.981C231.396 358.29 231.033 358.53 230.595 358.702C230.161 358.871 229.666 358.956 229.109 358.956ZM233.894 358.802V351.165H235.331V352.378H235.411C235.55 351.967 235.795 351.644 236.146 351.409C236.501 351.17 236.902 351.051 237.35 351.051C237.442 351.051 237.552 351.054 237.678 351.061C237.807 351.068 237.908 351.076 237.981 351.086V352.508C237.921 352.491 237.815 352.473 237.663 352.453C237.51 352.43 237.358 352.418 237.205 352.418C236.854 352.418 236.541 352.493 236.266 352.642C235.994 352.788 235.779 352.992 235.619 353.253C235.46 353.512 235.381 353.807 235.381 354.138V358.802H233.894ZM248.415 353.03L247.067 353.268C247.011 353.096 246.922 352.932 246.799 352.776C246.68 352.62 246.517 352.493 246.312 352.393C246.106 352.294 245.849 352.244 245.541 352.244C245.12 352.244 244.769 352.339 244.487 352.528C244.205 352.713 244.065 352.954 244.065 353.248C244.065 353.504 244.159 353.709 244.348 353.865C244.537 354.021 244.842 354.148 245.263 354.248L246.476 354.526C247.178 354.689 247.702 354.939 248.047 355.277C248.392 355.615 248.564 356.054 248.564 356.594C248.564 357.052 248.431 357.459 248.166 357.817C247.904 358.172 247.538 358.45 247.067 358.653C246.6 358.855 246.058 358.956 245.442 358.956C244.587 358.956 243.889 358.774 243.349 358.409C242.808 358.041 242.477 357.519 242.354 356.843L243.791 356.624C243.881 356.999 244.065 357.282 244.343 357.474C244.621 357.663 244.984 357.758 245.432 357.758C245.919 357.758 246.308 357.657 246.6 357.454C246.892 357.249 247.038 356.999 247.038 356.704C247.038 356.465 246.948 356.265 246.769 356.102C246.593 355.94 246.323 355.817 245.959 355.734L244.666 355.451C243.954 355.289 243.427 355.03 243.085 354.675C242.747 354.321 242.578 353.872 242.578 353.328C242.578 352.877 242.704 352.483 242.956 352.145C243.208 351.807 243.556 351.543 244 351.354C244.444 351.162 244.953 351.066 245.526 351.066C246.352 351.066 247.001 351.245 247.475 351.603C247.949 351.958 248.262 352.433 248.415 353.03ZM250.058 358.802V351.165H251.545V358.802H250.058ZM250.809 349.987C250.55 349.987 250.328 349.901 250.143 349.729C249.96 349.553 249.869 349.344 249.869 349.102C249.869 348.857 249.96 348.648 250.143 348.476C250.328 348.3 250.55 348.212 250.809 348.212C251.068 348.212 251.288 348.3 251.47 348.476C251.656 348.648 251.749 348.857 251.749 349.102C251.749 349.344 251.656 349.553 251.47 349.729C251.288 349.901 251.068 349.987 250.809 349.987ZM256.606 361.824C256 361.824 255.478 361.745 255.04 361.586C254.606 361.427 254.251 361.216 253.976 360.954C253.701 360.693 253.496 360.406 253.36 360.094L254.638 359.567C254.727 359.713 254.846 359.867 254.996 360.03C255.148 360.195 255.353 360.336 255.612 360.452C255.874 360.568 256.21 360.626 256.621 360.626C257.185 360.626 257.65 360.489 258.018 360.214C258.386 359.942 258.57 359.508 258.57 358.911V357.41H258.476C258.386 357.572 258.257 357.753 258.088 357.952C257.922 358.15 257.693 358.323 257.402 358.469C257.11 358.614 256.731 358.687 256.263 358.687C255.66 358.687 255.116 358.547 254.633 358.265C254.152 357.98 253.771 357.561 253.489 357.007C253.211 356.45 253.072 355.766 253.072 354.954C253.072 354.142 253.209 353.446 253.484 352.866C253.763 352.286 254.144 351.842 254.628 351.533C255.112 351.222 255.66 351.066 256.273 351.066C256.747 351.066 257.13 351.146 257.422 351.305C257.713 351.46 257.94 351.643 258.103 351.851C258.268 352.06 258.396 352.244 258.486 352.403H258.595V351.165H260.052V358.971C260.052 359.627 259.899 360.166 259.594 360.587C259.289 361.007 258.877 361.319 258.356 361.521C257.839 361.723 257.256 361.824 256.606 361.824ZM256.591 357.454C257.019 357.454 257.38 357.355 257.675 357.156C257.973 356.954 258.199 356.666 258.351 356.291C258.507 355.913 258.585 355.461 258.585 354.934C258.585 354.42 258.509 353.968 258.356 353.577C258.204 353.186 257.98 352.881 257.685 352.662C257.39 352.44 257.026 352.329 256.591 352.329C256.144 352.329 255.771 352.445 255.473 352.677C255.174 352.905 254.949 353.217 254.797 353.611C254.647 354.006 254.573 354.447 254.573 354.934C254.573 355.434 254.649 355.873 254.802 356.251C254.954 356.629 255.179 356.924 255.478 357.136C255.779 357.348 256.151 357.454 256.591 357.454ZM263.392 354.268V358.802H261.905V351.165H263.332V352.408H263.427C263.602 352.004 263.877 351.679 264.252 351.434C264.63 351.189 265.105 351.066 265.679 351.066C266.199 351.066 266.655 351.175 267.046 351.394C267.437 351.61 267.74 351.931 267.956 352.359C268.171 352.786 268.279 353.315 268.279 353.945V358.802H266.792V354.123C266.792 353.57 266.648 353.137 266.36 352.826C266.071 352.511 265.675 352.354 265.172 352.354C264.827 352.354 264.52 352.428 264.252 352.577C263.987 352.726 263.776 352.945 263.62 353.234C263.468 353.519 263.392 353.863 263.392 354.268ZM273.424 358.956C272.671 358.956 272.023 358.795 271.48 358.474C270.939 358.149 270.522 357.693 270.227 357.106C269.935 356.516 269.789 355.825 269.789 355.033C269.789 354.251 269.935 353.562 270.227 352.965C270.522 352.369 270.933 351.903 271.46 351.568C271.99 351.233 272.61 351.066 273.319 351.066C273.75 351.066 274.168 351.137 274.572 351.28C274.976 351.422 275.339 351.646 275.661 351.951C275.982 352.256 276.236 352.652 276.421 353.139C276.607 353.623 276.7 354.211 276.7 354.904V355.431H270.63V354.317H275.243C275.243 353.926 275.164 353.58 275.005 353.278C274.845 352.973 274.622 352.733 274.333 352.557C274.048 352.382 273.714 352.294 273.329 352.294C272.912 352.294 272.547 352.397 272.235 352.602C271.927 352.804 271.689 353.07 271.519 353.398C271.354 353.722 271.271 354.075 271.271 354.457V355.327C271.271 355.837 271.36 356.271 271.539 356.629C271.722 356.987 271.975 357.261 272.3 357.449C272.625 357.635 273.004 357.728 273.439 357.728C273.72 357.728 273.977 357.688 274.209 357.609C274.441 357.526 274.642 357.403 274.811 357.241C274.98 357.078 275.109 356.878 275.198 356.639L276.605 356.893C276.493 357.307 276.291 357.67 275.999 357.981C275.711 358.29 275.348 358.53 274.91 358.702C274.476 358.871 273.98 358.956 273.424 358.956ZM281.068 358.951C280.451 358.951 279.901 358.793 279.417 358.479C278.937 358.16 278.559 357.708 278.284 357.121C278.012 356.531 277.876 355.824 277.876 354.998C277.876 354.173 278.014 353.467 278.289 352.881C278.567 352.294 278.948 351.845 279.432 351.533C279.916 351.222 280.465 351.066 281.078 351.066C281.552 351.066 281.933 351.146 282.221 351.305C282.513 351.46 282.738 351.643 282.897 351.851C283.06 352.06 283.186 352.244 283.275 352.403H283.365V348.62H284.851V358.802H283.4V357.614H283.275C283.186 357.776 283.057 357.962 282.887 358.17C282.722 358.379 282.493 358.561 282.201 358.717C281.91 358.873 281.532 358.951 281.068 358.951ZM281.396 357.683C281.824 357.683 282.185 357.57 282.48 357.345C282.778 357.116 283.003 356.8 283.156 356.396C283.312 355.991 283.39 355.521 283.39 354.984C283.39 354.453 283.313 353.989 283.161 353.592C283.008 353.194 282.785 352.884 282.49 352.662C282.195 352.44 281.83 352.329 281.396 352.329C280.949 352.329 280.576 352.445 280.277 352.677C279.979 352.909 279.754 353.225 279.601 353.626C279.452 354.027 279.378 354.48 279.378 354.984C279.378 355.494 279.454 355.953 279.606 356.361C279.759 356.768 279.984 357.092 280.282 357.33C280.584 357.565 280.955 357.683 281.396 357.683ZM295.235 355.635V351.165H296.727V358.802H295.265V357.479H295.186C295.01 357.887 294.728 358.227 294.34 358.498C293.956 358.767 293.477 358.901 292.904 358.901C292.413 358.901 291.979 358.793 291.601 358.578C291.227 358.359 290.932 358.036 290.716 357.609C290.504 357.181 290.398 356.652 290.398 356.023V351.165H291.884V355.844C291.884 356.364 292.029 356.778 292.317 357.087C292.605 357.395 292.98 357.549 293.441 357.549C293.719 357.549 293.996 357.479 294.271 357.34C294.549 357.201 294.78 356.99 294.962 356.709C295.147 356.427 295.239 356.069 295.235 355.635ZM298.584 361.665V351.165H300.036V352.403H300.16C300.246 352.244 300.371 352.06 300.533 351.851C300.695 351.643 300.921 351.46 301.209 351.305C301.497 351.146 301.879 351.066 302.353 351.066C302.969 351.066 303.519 351.222 304.003 351.533C304.487 351.845 304.867 352.294 305.142 352.881C305.42 353.467 305.559 354.173 305.559 354.998C305.559 355.824 305.422 356.531 305.147 357.121C304.872 357.708 304.494 358.16 304.013 358.479C303.533 358.793 302.984 358.951 302.368 358.951C301.904 358.951 301.524 358.873 301.229 358.717C300.937 358.561 300.709 358.379 300.543 358.17C300.377 357.962 300.25 357.776 300.16 357.614H300.071V361.665H298.584ZM300.041 354.984C300.041 355.521 300.119 355.991 300.274 356.396C300.43 356.8 300.656 357.116 300.951 357.345C301.246 357.57 301.607 357.683 302.034 357.683C302.479 357.683 302.85 357.565 303.148 357.33C303.446 357.092 303.672 356.768 303.824 356.361C303.98 355.953 304.058 355.494 304.058 354.984C304.058 354.48 303.982 354.027 303.829 353.626C303.68 353.225 303.455 352.909 303.153 352.677C302.855 352.445 302.482 352.329 302.034 352.329C301.604 352.329 301.239 352.44 300.941 352.662C300.646 352.884 300.422 353.194 300.27 353.592C300.117 353.989 300.041 354.453 300.041 354.984Z" fill="#636369"/>
<path d="M316.378 353.184L314.738 353.363C314.691 353.197 314.61 353.041 314.494 352.896C314.381 352.75 314.229 352.632 314.037 352.543C313.844 352.453 313.609 352.408 313.331 352.408C312.956 352.408 312.641 352.489 312.386 352.652C312.134 352.814 312.01 353.025 312.013 353.283C312.01 353.505 312.091 353.686 312.257 353.825C312.426 353.964 312.704 354.079 313.092 354.168L314.395 354.447C315.117 354.602 315.654 354.849 316.005 355.187C316.36 355.525 316.539 355.968 316.542 356.515C316.539 356.995 316.398 357.42 316.12 357.788C315.845 358.152 315.462 358.437 314.971 358.643C314.481 358.848 313.917 358.951 313.281 358.951C312.346 358.951 311.594 358.755 311.024 358.364C310.454 357.97 310.114 357.421 310.005 356.719L311.76 356.55C311.839 356.894 312.008 357.155 312.267 357.33C312.525 357.506 312.862 357.594 313.276 357.594C313.704 357.594 314.047 357.506 314.305 357.33C314.567 357.155 314.698 356.937 314.698 356.679C314.698 356.46 314.613 356.28 314.444 356.137C314.279 355.994 314.02 355.885 313.669 355.809L312.366 355.535C311.634 355.383 311.092 355.126 310.741 354.765C310.389 354.4 310.215 353.94 310.219 353.383C310.215 352.912 310.343 352.504 310.601 352.16C310.863 351.812 311.226 351.543 311.69 351.354C312.157 351.162 312.696 351.066 313.306 351.066C314.201 351.066 314.905 351.257 315.419 351.638C315.936 352.019 316.256 352.534 316.378 353.184ZM317.886 358.802V351.165H319.686V358.802H317.886ZM318.791 350.082C318.506 350.082 318.261 349.987 318.055 349.798C317.85 349.606 317.747 349.376 317.747 349.107C317.747 348.835 317.85 348.605 318.055 348.416C318.261 348.224 318.506 348.128 318.791 348.128C319.08 348.128 319.325 348.224 319.527 348.416C319.733 348.605 319.835 348.835 319.835 349.107C319.835 349.376 319.733 349.606 319.527 349.798C319.325 349.987 319.08 350.082 318.791 350.082ZM323.197 354.327V358.802H321.397V351.165H323.117V352.463H323.206C323.382 352.035 323.662 351.696 324.047 351.444C324.434 351.192 324.913 351.066 325.483 351.066C326.01 351.066 326.47 351.179 326.861 351.404C327.255 351.629 327.56 351.956 327.775 352.383C327.994 352.811 328.102 353.33 328.099 353.94V358.802H326.299V354.218C326.299 353.708 326.166 353.308 325.901 353.02C325.639 352.731 325.276 352.587 324.812 352.587C324.497 352.587 324.217 352.657 323.972 352.796C323.73 352.932 323.54 353.129 323.4 353.388C323.264 353.646 323.197 353.959 323.197 354.327ZM333.119 358.951C332.357 358.951 331.702 358.784 331.155 358.449C330.612 358.114 330.192 357.652 329.897 357.062C329.606 356.468 329.46 355.786 329.46 355.013C329.46 354.238 329.609 353.553 329.907 352.96C330.206 352.364 330.627 351.9 331.17 351.568C331.717 351.233 332.363 351.066 333.109 351.066C333.729 351.066 334.277 351.18 334.755 351.409C335.235 351.634 335.618 351.954 335.903 352.369C336.188 352.78 336.351 353.26 336.39 353.81H334.67C334.601 353.442 334.435 353.136 334.173 352.891C333.914 352.642 333.568 352.518 333.134 352.518C332.766 352.518 332.443 352.617 332.164 352.816C331.886 353.012 331.669 353.293 331.513 353.661C331.361 354.029 331.285 354.47 331.285 354.984C331.285 355.504 331.361 355.951 331.513 356.326C331.666 356.697 331.879 356.984 332.155 357.186C332.433 357.385 332.759 357.484 333.134 357.484C333.399 357.484 333.636 357.435 333.845 357.335C334.057 357.232 334.234 357.085 334.377 356.893C334.519 356.7 334.617 356.467 334.67 356.192H336.39C336.347 356.732 336.188 357.211 335.913 357.628C335.638 358.043 335.263 358.368 334.789 358.603C334.316 358.835 333.759 358.951 333.119 358.951ZM341.109 358.951C340.343 358.951 339.682 358.792 339.125 358.474C338.572 358.152 338.146 357.698 337.847 357.111C337.549 356.521 337.4 355.827 337.4 355.028C337.4 354.243 337.549 353.553 337.847 352.96C338.149 352.364 338.57 351.9 339.11 351.568C339.651 351.233 340.285 351.066 341.014 351.066C341.485 351.066 341.929 351.142 342.347 351.295C342.768 351.444 343.139 351.676 343.46 351.991C343.785 352.306 344.04 352.707 344.226 353.194C344.412 353.678 344.504 354.254 344.504 354.924V355.476H338.245V354.263H342.779C342.776 353.918 342.701 353.611 342.556 353.343C342.41 353.071 342.206 352.857 341.944 352.702C341.686 352.546 341.384 352.468 341.039 352.468C340.671 352.468 340.348 352.557 340.07 352.736C339.791 352.912 339.574 353.144 339.418 353.432C339.266 353.717 339.188 354.031 339.185 354.372V355.431C339.185 355.875 339.266 356.256 339.428 356.574C339.591 356.889 339.818 357.131 340.11 357.3C340.401 357.466 340.743 357.549 341.134 357.549C341.396 357.549 341.633 357.512 341.845 357.44C342.057 357.363 342.241 357.252 342.396 357.106C342.552 356.961 342.67 356.78 342.749 356.565L344.43 356.753C344.324 357.198 344.122 357.585 343.823 357.917C343.528 358.245 343.151 358.5 342.69 358.682C342.229 358.861 341.702 358.951 341.109 358.951ZM353.341 348.62V358.802H351.497V350.415H351.437L349.056 351.936V350.246L351.586 348.62H353.341ZM361.973 358.936C361.373 358.936 360.836 358.782 360.362 358.474C359.888 358.165 359.513 357.718 359.238 357.131C358.963 356.545 358.826 355.832 358.826 354.994C358.826 354.145 358.965 353.429 359.243 352.846C359.525 352.259 359.904 351.817 360.382 351.518C360.859 351.217 361.391 351.066 361.978 351.066C362.425 351.066 362.793 351.142 363.081 351.295C363.37 351.444 363.598 351.624 363.767 351.837C363.936 352.045 364.067 352.243 364.16 352.428H364.235V348.62H366.039V358.802H364.27V357.599H364.16C364.067 357.784 363.933 357.981 363.757 358.19C363.582 358.396 363.35 358.571 363.061 358.717C362.773 358.863 362.41 358.936 361.973 358.936ZM362.475 357.459C362.856 357.459 363.181 357.357 363.449 357.151C363.718 356.942 363.922 356.652 364.061 356.281C364.2 355.91 364.27 355.477 364.27 354.984C364.27 354.49 364.2 354.061 364.061 353.696C363.925 353.331 363.723 353.048 363.454 352.846C363.189 352.644 362.863 352.543 362.475 352.543C362.074 352.543 361.739 352.647 361.471 352.856C361.202 353.065 361 353.353 360.864 353.721C360.728 354.089 360.66 354.51 360.66 354.984C360.66 355.461 360.728 355.887 360.864 356.261C361.003 356.632 361.207 356.926 361.476 357.141C361.747 357.353 362.08 357.459 362.475 357.459ZM370.015 358.956C369.531 358.956 369.095 358.87 368.707 358.697C368.323 358.522 368.018 358.263 367.792 357.922C367.57 357.58 367.459 357.159 367.459 356.659C367.459 356.228 367.539 355.872 367.698 355.59C367.857 355.308 368.074 355.083 368.349 354.914C368.624 354.745 368.934 354.617 369.279 354.531C369.627 354.442 369.986 354.377 370.358 354.337C370.805 354.291 371.168 354.249 371.446 354.213C371.725 354.173 371.927 354.114 372.053 354.034C372.182 353.951 372.247 353.824 372.247 353.651V353.621C372.247 353.247 372.136 352.957 371.914 352.751C371.692 352.546 371.372 352.443 370.954 352.443C370.513 352.443 370.164 352.539 369.905 352.731C369.65 352.924 369.478 353.151 369.388 353.413L367.708 353.174C367.84 352.71 368.059 352.322 368.364 352.011C368.669 351.696 369.042 351.46 369.483 351.305C369.924 351.146 370.411 351.066 370.944 351.066C371.312 351.066 371.678 351.109 372.043 351.195C372.408 351.281 372.741 351.424 373.042 351.623C373.344 351.818 373.586 352.085 373.768 352.423C373.954 352.761 374.047 353.184 374.047 353.691V358.802H372.317V357.753H372.257C372.147 357.965 371.993 358.164 371.794 358.349C371.599 358.532 371.352 358.679 371.054 358.792C370.759 358.901 370.412 358.956 370.015 358.956ZM370.482 357.633C370.843 357.633 371.156 357.562 371.422 357.42C371.687 357.274 371.891 357.082 372.033 356.843C372.179 356.604 372.252 356.344 372.252 356.062V355.163C372.196 355.209 372.099 355.252 371.964 355.292C371.831 355.332 371.682 355.366 371.516 355.396C371.35 355.426 371.186 355.453 371.024 355.476C370.861 355.499 370.721 355.519 370.601 355.535C370.333 355.572 370.093 355.632 369.88 355.714C369.668 355.797 369.501 355.913 369.378 356.062C369.256 356.208 369.194 356.397 369.194 356.629C369.194 356.961 369.315 357.211 369.557 357.38C369.799 357.549 370.107 357.633 370.482 357.633ZM376.561 361.665C376.316 361.665 376.089 361.646 375.88 361.606C375.675 361.569 375.511 361.526 375.388 361.476L375.806 360.074C376.068 360.151 376.301 360.187 376.507 360.184C376.712 360.181 376.893 360.116 377.049 359.99C377.208 359.867 377.342 359.662 377.451 359.373L377.605 358.961L374.836 351.165H376.745L378.505 356.932H378.585L380.35 351.165H382.264L379.206 359.726C379.064 360.131 378.875 360.477 378.64 360.766C378.404 361.057 378.116 361.279 377.775 361.432C377.436 361.588 377.032 361.665 376.561 361.665ZM388.899 358.956C388.415 358.956 387.98 358.87 387.592 358.697C387.207 358.522 386.902 358.263 386.677 357.922C386.455 357.58 386.344 357.159 386.344 356.659C386.344 356.228 386.423 355.872 386.583 355.59C386.742 355.308 386.959 355.083 387.234 354.914C387.509 354.745 387.819 354.617 388.164 354.531C388.512 354.442 388.871 354.377 389.242 354.337C389.69 354.291 390.053 354.249 390.331 354.213C390.61 354.173 390.812 354.114 390.938 354.034C391.067 353.951 391.132 353.824 391.132 353.651V353.621C391.132 353.247 391.021 352.957 390.798 352.751C390.576 352.546 390.257 352.443 389.839 352.443C389.398 352.443 389.048 352.539 388.79 352.731C388.535 352.924 388.362 353.151 388.273 353.413L386.593 353.174C386.725 352.71 386.944 352.322 387.249 352.011C387.554 351.696 387.927 351.46 388.367 351.305C388.808 351.146 389.295 351.066 389.829 351.066C390.197 351.066 390.563 351.109 390.928 351.195C391.292 351.281 391.625 351.424 391.927 351.623C392.229 351.818 392.471 352.085 392.653 352.423C392.839 352.761 392.931 353.184 392.931 353.691V358.802H391.201V357.753H391.142C391.032 357.965 390.878 358.164 390.679 358.349C390.484 358.532 390.237 358.679 389.938 358.792C389.643 358.901 389.297 358.956 388.899 358.956ZM389.367 357.633C389.728 357.633 390.041 357.562 390.306 357.42C390.571 357.274 390.775 357.082 390.918 356.843C391.064 356.604 391.137 356.344 391.137 356.062V355.163C391.08 355.209 390.984 355.252 390.848 355.292C390.716 355.332 390.566 355.366 390.401 355.396C390.235 355.426 390.071 355.453 389.909 355.476C389.746 355.499 389.605 355.519 389.486 355.535C389.218 355.572 388.977 355.632 388.765 355.714C388.553 355.797 388.386 355.913 388.263 356.062C388.14 356.208 388.079 356.397 388.079 356.629C388.079 356.961 388.2 357.211 388.442 357.38C388.684 357.549 388.992 357.633 389.367 357.633ZM397.922 361.824C397.276 361.824 396.721 361.737 396.257 361.561C395.792 361.389 395.42 361.157 395.138 360.865C394.856 360.573 394.661 360.25 394.551 359.896L396.172 359.503C396.245 359.652 396.351 359.799 396.49 359.945C396.629 360.094 396.817 360.217 397.052 360.313C397.291 360.413 397.591 360.462 397.952 360.462C398.462 360.462 398.885 360.338 399.22 360.089C399.554 359.844 399.722 359.44 399.722 358.876V357.43H399.632C399.539 357.615 399.404 357.806 399.225 358.001C399.049 358.197 398.815 358.361 398.524 358.494C398.235 358.626 397.872 358.692 397.435 358.692C396.848 358.692 396.316 358.555 395.839 358.28C395.365 358.001 394.987 357.587 394.705 357.037C394.427 356.483 394.288 355.791 394.288 354.959C394.288 354.12 394.427 353.413 394.705 352.836C394.987 352.256 395.367 351.817 395.844 351.518C396.321 351.217 396.853 351.066 397.44 351.066C397.887 351.066 398.255 351.142 398.543 351.295C398.835 351.444 399.067 351.624 399.239 351.837C399.412 352.045 399.543 352.243 399.632 352.428H399.732V351.165H401.507V358.926C401.507 359.579 401.351 360.119 401.039 360.547C400.728 360.974 400.302 361.294 399.761 361.506C399.221 361.718 398.608 361.824 397.922 361.824ZM397.937 357.28C398.318 357.28 398.643 357.188 398.911 357.002C399.18 356.816 399.384 356.55 399.523 356.202C399.662 355.854 399.732 355.436 399.732 354.949C399.732 354.468 399.662 354.047 399.523 353.686C399.387 353.325 399.185 353.045 398.916 352.846C398.651 352.644 398.325 352.543 397.937 352.543C397.536 352.543 397.201 352.647 396.933 352.856C396.664 353.065 396.462 353.351 396.326 353.716C396.19 354.077 396.122 354.488 396.122 354.949C396.122 355.416 396.19 355.825 396.326 356.177C396.465 356.525 396.669 356.797 396.938 356.992C397.209 357.184 397.542 357.28 397.937 357.28ZM406.542 358.951C405.796 358.951 405.15 358.787 404.603 358.459C404.056 358.131 403.632 357.672 403.33 357.082C403.032 356.492 402.883 355.802 402.883 355.013C402.883 354.225 403.032 353.534 403.33 352.94C403.632 352.347 404.056 351.886 404.603 351.558C405.15 351.23 405.796 351.066 406.542 351.066C407.288 351.066 407.934 351.23 408.481 351.558C409.028 351.886 409.45 352.347 409.749 352.94C410.05 353.534 410.201 354.225 410.201 355.013C410.201 355.802 410.05 356.492 409.749 357.082C409.45 357.672 409.028 358.131 408.481 358.459C407.934 358.787 407.288 358.951 406.542 358.951ZM406.552 357.509C406.956 357.509 407.294 357.398 407.566 357.176C407.838 356.951 408.04 356.649 408.173 356.271C408.309 355.893 408.376 355.472 408.376 355.008C408.376 354.541 408.309 354.119 408.173 353.741C408.04 353.36 407.838 353.056 407.566 352.831C407.294 352.605 406.956 352.493 406.552 352.493C406.138 352.493 405.793 352.605 405.518 352.831C405.246 353.056 405.042 353.36 404.906 353.741C404.774 354.119 404.707 354.541 404.707 355.008C404.707 355.472 404.774 355.893 404.906 356.271C405.042 356.649 405.246 356.951 405.518 357.176C405.793 357.398 406.138 357.509 406.552 357.509Z" fill="#121212"/>
<rect x="94.0957" y="314.302" width="56" height="56" rx="6" fill="#F1EAFF"/>
<g clip-path="url(#clip1_6354_40621)">
<path d="M135.317 343.08C135.317 341.476 135.032 339.938 134.509 338.516C134.151 342.707 131.916 344.86 129.581 343.857C127.394 342.918 128.868 339.255 128.977 337.508C129.161 334.545 128.968 331.154 123.586 328.334C125.822 332.612 123.845 335.27 121.772 335.432C119.471 335.611 117.364 333.455 118.142 329.955C115.623 331.81 115.55 334.934 116.327 336.955C117.138 339.061 116.295 340.811 114.318 341.005C112.109 341.223 110.882 338.64 112.014 334.524C110.055 336.83 108.873 339.817 108.873 343.08C108.873 350.382 114.793 356.302 122.095 356.302C129.398 356.302 135.317 350.382 135.317 343.08Z" fill="#F4900C"/>
<path d="M130.18 346.967C130.295 349.366 128.188 350.306 127.054 349.852C125.416 349.197 125.856 348.07 125.434 345.737C125.013 343.404 123.393 341.784 120.995 341.07C122.745 345.996 120.025 347.811 118.599 348.136C117.143 348.467 115.68 348.135 115.513 345.019C113.814 346.71 112.763 349.05 112.763 351.635C112.763 351.921 112.781 352.203 112.805 352.483C115.193 354.842 118.473 356.302 122.096 356.302C125.719 356.302 128.999 354.842 131.387 352.483C131.411 352.203 131.429 351.921 131.429 351.635C131.429 349.934 130.975 348.34 130.18 346.967Z" fill="#FFCC4D"/>
</g>
<rect x="-1" y="1" width="421" height="84" rx="7" transform="matrix(-1 0 0 1 501.846 299.052)" stroke="#E1E8F2" stroke-width="2" stroke-dasharray="8 8"/>
<rect x="-2" y="2" width="447" height="108" rx="6" transform="matrix(-1 0 0 1 513.846 286.052)" stroke="#121212" stroke-width="4"/>
<rect x="-2" y="2" width="447" height="112" rx="6" transform="matrix(-1 0 0 1 501.912 486)" fill="#121212"/>
<rect x="-2" y="2" width="447" height="112" rx="6" transform="matrix(-1 0 0 1 501.912 486)" stroke="#121212" stroke-width="4"/>
<rect x="-2" y="2" width="447" height="108" rx="6" transform="matrix(-1 0 0 1 513.846 476.626)" fill="#F5F6F8"/>
<rect x="-1" y="1" width="421" height="84" rx="7" transform="matrix(-1 0 0 1 501.846 489.626)" fill="#F5F6F8"/>
<rect width="329" height="56" rx="6" transform="matrix(-1 0 0 1 490.596 504.376)" fill="white"/>
<rect x="439.596" y="515.376" width="41" height="4" rx="2" fill="#EEF1F7"/>
<path d="M173.914 515.441V514.558H178.556V515.441H176.758V520.376H175.712V515.441H173.914ZM180.354 517.819V520.376H179.325V514.558H180.331V516.754H180.382C180.484 516.508 180.643 516.313 180.857 516.171C181.073 516.027 181.347 515.956 181.68 515.956C181.984 515.956 182.248 516.019 182.473 516.146C182.698 516.273 182.873 516.458 182.996 516.703C183.121 516.947 183.183 517.245 183.183 517.598V520.376H182.155V517.757C182.155 517.463 182.079 517.235 181.928 517.072C181.778 516.907 181.568 516.825 181.297 516.825C181.115 516.825 180.952 516.865 180.808 516.944C180.666 517.022 180.555 517.134 180.473 517.282C180.394 517.43 180.354 517.609 180.354 517.819ZM186.083 520.461C185.646 520.461 185.268 520.37 184.95 520.188C184.634 520.005 184.39 519.745 184.22 519.41C184.049 519.073 183.964 518.676 183.964 518.22C183.964 517.771 184.049 517.377 184.22 517.038C184.392 516.697 184.633 516.432 184.941 516.242C185.25 516.051 185.613 515.956 186.029 515.956C186.298 515.956 186.552 515.999 186.791 516.086C187.031 516.171 187.243 516.304 187.427 516.484C187.613 516.664 187.759 516.893 187.865 517.171C187.971 517.448 188.024 517.777 188.024 518.16V518.475H184.447V517.782H187.038C187.036 517.585 186.993 517.41 186.91 517.257C186.827 517.101 186.71 516.979 186.561 516.89C186.413 516.801 186.241 516.757 186.044 516.757C185.833 516.757 185.649 516.808 185.49 516.91C185.331 517.01 185.207 517.143 185.118 517.308C185.03 517.471 184.986 517.65 184.984 517.845V518.45C184.984 518.704 185.03 518.921 185.123 519.103C185.216 519.283 185.346 519.421 185.512 519.518C185.679 519.613 185.874 519.66 186.098 519.66C186.247 519.66 186.383 519.639 186.504 519.598C186.625 519.554 186.73 519.491 186.819 519.407C186.908 519.324 186.975 519.221 187.021 519.098L187.981 519.206C187.921 519.459 187.805 519.681 187.635 519.87C187.466 520.058 187.25 520.204 186.987 520.308C186.724 520.41 186.422 520.461 186.083 520.461ZM189.842 517.819V520.376H188.814V516.012H189.797V516.754H189.848C189.948 516.509 190.108 516.315 190.328 516.171C190.55 516.027 190.823 515.956 191.149 515.956C191.45 515.956 191.712 516.02 191.936 516.149C192.161 516.277 192.336 516.464 192.459 516.708C192.584 516.953 192.645 517.249 192.643 517.598V520.376H191.615V517.757C191.615 517.465 191.539 517.237 191.388 517.072C191.238 516.907 191.031 516.825 190.766 516.825C190.586 516.825 190.426 516.865 190.285 516.944C190.147 517.022 190.038 517.134 189.959 517.282C189.881 517.43 189.842 517.609 189.842 517.819Z" fill="#636369"/>
<line x1="173.596" y1="526.876" x2="480.596" y2="526.876" stroke="#121212"/>
<path d="M180.268 541.869C180.215 541.398 179.996 541.034 179.611 540.775C179.227 540.513 178.743 540.382 178.16 540.382C177.742 540.382 177.381 540.449 177.076 540.581C176.771 540.71 176.534 540.889 176.365 541.118C176.199 541.344 176.116 541.6 176.116 541.889C176.116 542.131 176.173 542.34 176.285 542.515C176.401 542.691 176.552 542.838 176.738 542.958C176.927 543.074 177.129 543.171 177.344 543.251C177.56 543.327 177.767 543.39 177.966 543.44L178.96 543.698C179.285 543.778 179.618 543.886 179.959 544.022C180.301 544.157 180.617 544.336 180.909 544.559C181.201 544.781 181.436 545.056 181.615 545.384C181.797 545.712 181.888 546.105 181.888 546.562C181.888 547.139 181.739 547.651 181.441 548.098C181.146 548.546 180.717 548.899 180.153 549.157C179.593 549.416 178.915 549.545 178.12 549.545C177.358 549.545 176.698 549.424 176.141 549.182C175.584 548.94 175.148 548.597 174.834 548.153C174.519 547.706 174.345 547.175 174.312 546.562H175.853C175.883 546.93 176.002 547.237 176.211 547.482C176.423 547.724 176.693 547.904 177.021 548.024C177.353 548.14 177.715 548.198 178.11 548.198C178.544 548.198 178.93 548.13 179.268 547.994C179.61 547.855 179.878 547.662 180.074 547.417C180.269 547.169 180.367 546.879 180.367 546.547C180.367 546.246 180.281 545.999 180.108 545.806C179.939 545.614 179.709 545.455 179.417 545.329C179.129 545.203 178.803 545.092 178.438 544.996L177.235 544.668C176.42 544.446 175.773 544.119 175.296 543.688C174.822 543.258 174.585 542.688 174.585 541.978C174.585 541.392 174.744 540.88 175.062 540.442C175.381 540.005 175.811 539.665 176.355 539.423C176.898 539.178 177.512 539.055 178.194 539.055C178.884 539.055 179.492 539.176 180.019 539.418C180.549 539.66 180.967 539.993 181.272 540.417C181.577 540.838 181.736 541.322 181.749 541.869H180.268ZM186.756 549.53C186.004 549.53 185.356 549.369 184.812 549.048C184.272 548.723 183.854 548.267 183.559 547.681C183.268 547.091 183.122 546.4 183.122 545.608C183.122 544.825 183.268 544.136 183.559 543.539C183.854 542.943 184.265 542.477 184.792 542.142C185.322 541.808 185.942 541.64 186.652 541.64C187.082 541.64 187.5 541.711 187.904 541.854C188.309 541.996 188.672 542.22 188.993 542.525C189.315 542.83 189.568 543.226 189.754 543.713C189.939 544.197 190.032 544.786 190.032 545.478V546.005H183.962V544.892H188.576C188.576 544.501 188.496 544.154 188.337 543.853C188.178 543.548 187.954 543.307 187.666 543.132C187.381 542.956 187.046 542.868 186.661 542.868C186.244 542.868 185.879 542.971 185.568 543.176C185.26 543.379 185.021 543.644 184.852 543.972C184.686 544.297 184.603 544.65 184.603 545.031V545.901C184.603 546.411 184.693 546.845 184.872 547.203C185.054 547.561 185.308 547.835 185.632 548.024C185.957 548.209 186.337 548.302 186.771 548.302C187.053 548.302 187.309 548.262 187.541 548.183C187.773 548.1 187.974 547.977 188.143 547.815C188.312 547.652 188.441 547.452 188.531 547.213L189.938 547.467C189.825 547.881 189.623 548.244 189.331 548.556C189.043 548.864 188.68 549.104 188.242 549.277C187.808 549.446 187.313 549.53 186.756 549.53ZM193.028 544.842V549.376H191.542V541.74H192.968V542.983H193.063C193.239 542.578 193.514 542.253 193.888 542.008C194.266 541.763 194.742 541.64 195.315 541.64C195.835 541.64 196.291 541.75 196.682 541.968C197.073 542.184 197.377 542.505 197.592 542.933C197.807 543.36 197.915 543.889 197.915 544.519V549.376H196.429V544.698C196.429 544.144 196.284 543.712 195.996 543.4C195.708 543.085 195.312 542.928 194.808 542.928C194.463 542.928 194.157 543.002 193.888 543.152C193.623 543.301 193.413 543.519 193.257 543.808C193.104 544.093 193.028 544.438 193.028 544.842ZM202.627 549.525C202.011 549.525 201.461 549.368 200.977 549.053C200.496 548.735 200.118 548.282 199.843 547.696C199.572 547.106 199.436 546.398 199.436 545.573C199.436 544.747 199.573 544.041 199.848 543.455C200.127 542.868 200.508 542.419 200.992 542.108C201.476 541.796 202.024 541.64 202.637 541.64C203.111 541.64 203.492 541.72 203.781 541.879C204.072 542.035 204.298 542.217 204.457 542.426C204.619 542.634 204.745 542.818 204.835 542.978H204.924V539.194H206.411V549.376H204.959V548.188H204.835C204.745 548.35 204.616 548.536 204.447 548.745C204.281 548.953 204.053 549.136 203.761 549.291C203.469 549.447 203.091 549.525 202.627 549.525ZM202.956 548.257C203.383 548.257 203.744 548.145 204.039 547.919C204.338 547.691 204.563 547.374 204.715 546.97C204.871 546.565 204.949 546.095 204.949 545.558C204.949 545.027 204.873 544.563 204.72 544.166C204.568 543.768 204.344 543.458 204.049 543.236C203.754 543.014 203.39 542.903 202.956 542.903C202.508 542.903 202.135 543.019 201.837 543.251C201.539 543.483 201.313 543.8 201.161 544.201C201.012 544.602 200.937 545.054 200.937 545.558C200.937 546.068 201.013 546.527 201.166 546.935C201.318 547.343 201.544 547.666 201.842 547.904C202.144 548.14 202.515 548.257 202.956 548.257ZM215.249 549.53C214.496 549.53 213.848 549.369 213.305 549.048C212.765 548.723 212.347 548.267 212.052 547.681C211.76 547.091 211.614 546.4 211.614 545.608C211.614 544.825 211.76 544.136 212.052 543.539C212.347 542.943 212.758 542.477 213.285 542.142C213.815 541.808 214.435 541.64 215.144 541.64C215.575 541.64 215.993 541.711 216.397 541.854C216.801 541.996 217.164 542.22 217.486 542.525C217.807 542.83 218.061 543.226 218.247 543.713C218.432 544.197 218.525 544.786 218.525 545.478V546.005H212.455V544.892H217.068C217.068 544.501 216.989 544.154 216.83 543.853C216.671 543.548 216.447 543.307 216.158 543.132C215.873 542.956 215.539 542.868 215.154 542.868C214.737 542.868 214.372 542.971 214.06 543.176C213.752 543.379 213.514 543.644 213.345 543.972C213.179 544.297 213.096 544.65 213.096 545.031V545.901C213.096 546.411 213.185 546.845 213.364 547.203C213.547 547.561 213.8 547.835 214.125 548.024C214.45 548.209 214.829 548.302 215.264 548.302C215.545 548.302 215.802 548.262 216.034 548.183C216.266 548.1 216.467 547.977 216.636 547.815C216.805 547.652 216.934 547.452 217.024 547.213L218.431 547.467C218.318 547.881 218.116 548.244 217.824 548.556C217.536 548.864 217.173 549.104 216.735 549.277C216.301 549.446 215.806 549.53 215.249 549.53ZM220.034 549.376V541.74H221.461V542.983H221.556C221.715 542.562 221.975 542.233 222.336 541.998C222.697 541.759 223.13 541.64 223.634 541.64C224.144 541.64 224.572 541.759 224.916 541.998C225.264 542.237 225.521 542.565 225.687 542.983H225.767C225.949 542.575 226.239 542.25 226.637 542.008C227.034 541.763 227.508 541.64 228.058 541.64C228.751 541.64 229.316 541.857 229.754 542.291C230.195 542.726 230.415 543.38 230.415 544.255V549.376H228.928V544.394C228.928 543.877 228.788 543.503 228.506 543.271C228.224 543.039 227.888 542.923 227.497 542.923C227.013 542.923 226.637 543.072 226.368 543.37C226.1 543.665 225.965 544.045 225.965 544.509V549.376H224.484V544.3C224.484 543.886 224.355 543.553 224.096 543.301C223.838 543.049 223.501 542.923 223.087 542.923C222.805 542.923 222.545 542.997 222.306 543.147C222.071 543.292 221.88 543.496 221.735 543.758C221.592 544.02 221.521 544.323 221.521 544.668V549.376H220.034ZM234.49 549.545C234.006 549.545 233.568 549.456 233.177 549.277C232.786 549.094 232.476 548.831 232.247 548.486C232.022 548.141 231.909 547.719 231.909 547.218C231.909 546.787 231.992 546.433 232.158 546.154C232.324 545.876 232.547 545.656 232.829 545.493C233.111 545.331 233.426 545.208 233.774 545.125C234.122 545.042 234.476 544.979 234.838 544.936C235.295 544.883 235.666 544.84 235.951 544.807C236.236 544.771 236.443 544.713 236.573 544.633C236.702 544.554 236.767 544.424 236.767 544.245V544.21C236.767 543.776 236.644 543.44 236.399 543.201C236.157 542.963 235.796 542.843 235.315 542.843C234.814 542.843 234.42 542.954 234.132 543.176C233.847 543.395 233.649 543.639 233.54 543.907L232.143 543.589C232.309 543.125 232.551 542.751 232.869 542.465C233.19 542.177 233.56 541.968 233.978 541.839C234.395 541.706 234.834 541.64 235.295 541.64C235.6 541.64 235.923 541.677 236.264 541.75C236.609 541.819 236.931 541.948 237.229 542.137C237.531 542.326 237.778 542.596 237.97 542.948C238.162 543.296 238.258 543.748 238.258 544.305V549.376H236.806V548.332H236.747C236.651 548.524 236.506 548.713 236.314 548.899C236.122 549.084 235.875 549.238 235.573 549.361C235.272 549.484 234.911 549.545 234.49 549.545ZM234.813 548.352C235.224 548.352 235.575 548.271 235.867 548.108C236.162 547.946 236.385 547.734 236.538 547.472C236.694 547.207 236.772 546.923 236.772 546.622V545.637C236.719 545.69 236.616 545.74 236.463 545.786C236.314 545.83 236.144 545.868 235.951 545.901C235.759 545.931 235.572 545.959 235.389 545.985C235.207 546.009 235.055 546.028 234.932 546.045C234.644 546.081 234.38 546.143 234.142 546.229C233.906 546.315 233.717 546.439 233.575 546.602C233.436 546.761 233.366 546.973 233.366 547.238C233.366 547.606 233.502 547.884 233.774 548.073C234.046 548.259 234.392 548.352 234.813 548.352ZM240.098 549.376V541.74H241.585V549.376H240.098ZM240.849 540.561C240.59 540.561 240.368 540.475 240.183 540.303C240 540.127 239.909 539.918 239.909 539.676C239.909 539.431 240 539.222 240.183 539.05C240.368 538.874 240.59 538.786 240.849 538.786C241.107 538.786 241.328 538.874 241.51 539.05C241.696 539.222 241.788 539.431 241.788 539.676C241.788 539.918 241.696 540.127 241.51 540.303C241.328 540.475 241.107 540.561 240.849 540.561ZM244.931 539.194V549.376H243.444V539.194H244.931Z" fill="#636369"/>
<path d="M252.271 549.376L249.397 539.194H251.381L253.216 546.676H253.31L255.269 539.194H257.074L259.037 546.681H259.127L260.961 539.194H262.945L260.072 549.376H258.252L256.214 542.232H256.134L254.091 549.376H252.271ZM266.606 549.525C265.84 549.525 265.179 549.366 264.622 549.048C264.069 548.726 263.643 548.272 263.345 547.686C263.046 547.096 262.897 546.401 262.897 545.603C262.897 544.817 263.046 544.128 263.345 543.534C263.646 542.938 264.067 542.474 264.607 542.142C265.148 541.808 265.782 541.64 266.511 541.64C266.982 541.64 267.426 541.716 267.844 541.869C268.265 542.018 268.636 542.25 268.957 542.565C269.282 542.88 269.537 543.281 269.723 543.768C269.909 544.252 270.001 544.829 270.001 545.498V546.05H263.742V544.837H268.276C268.273 544.492 268.198 544.186 268.053 543.917C267.907 543.645 267.703 543.432 267.441 543.276C267.183 543.12 266.881 543.042 266.536 543.042C266.168 543.042 265.845 543.132 265.567 543.311C265.288 543.486 265.071 543.718 264.916 544.007C264.763 544.292 264.685 544.605 264.682 544.946V546.005C264.682 546.449 264.763 546.831 264.925 547.149C265.088 547.464 265.315 547.706 265.607 547.875C265.898 548.04 266.24 548.123 266.631 548.123C266.893 548.123 267.13 548.087 267.342 548.014C267.554 547.938 267.738 547.826 267.894 547.681C268.049 547.535 268.167 547.354 268.246 547.139L269.927 547.328C269.821 547.772 269.619 548.16 269.32 548.491C269.025 548.819 268.648 549.074 268.187 549.257C267.726 549.436 267.199 549.525 266.606 549.525ZM273.184 539.194V549.376H271.384V539.194H273.184ZM278.225 549.525C277.463 549.525 276.808 549.358 276.262 549.023C275.718 548.688 275.299 548.226 275.004 547.636C274.712 547.043 274.566 546.36 274.566 545.588C274.566 544.812 274.715 544.128 275.014 543.534C275.312 542.938 275.733 542.474 276.277 542.142C276.823 541.808 277.47 541.64 278.215 541.64C278.835 541.64 279.384 541.755 279.861 541.983C280.342 542.209 280.724 542.528 281.009 542.943C281.294 543.354 281.457 543.834 281.497 544.384H279.777C279.707 544.017 279.541 543.71 279.279 543.465C279.021 543.216 278.674 543.092 278.24 543.092C277.872 543.092 277.549 543.191 277.271 543.39C276.992 543.586 276.775 543.867 276.62 544.235C276.467 544.603 276.391 545.044 276.391 545.558C276.391 546.078 276.467 546.526 276.62 546.9C276.772 547.271 276.986 547.558 277.261 547.76C277.539 547.959 277.866 548.059 278.24 548.059C278.505 548.059 278.742 548.009 278.951 547.909C279.163 547.807 279.341 547.659 279.483 547.467C279.626 547.275 279.723 547.041 279.777 546.766H281.497C281.454 547.306 281.294 547.785 281.019 548.203C280.744 548.617 280.37 548.942 279.896 549.177C279.422 549.409 278.865 549.525 278.225 549.525ZM286.165 549.525C285.42 549.525 284.773 549.361 284.227 549.033C283.68 548.705 283.255 548.246 282.954 547.656C282.656 547.066 282.506 546.376 282.506 545.588C282.506 544.799 282.656 544.108 282.954 543.514C283.255 542.921 283.68 542.46 284.227 542.132C284.773 541.804 285.42 541.64 286.165 541.64C286.911 541.64 287.557 541.804 288.104 542.132C288.651 542.46 289.074 542.921 289.372 543.514C289.674 544.108 289.825 544.799 289.825 545.588C289.825 546.376 289.674 547.066 289.372 547.656C289.074 548.246 288.651 548.705 288.104 549.033C287.557 549.361 286.911 549.525 286.165 549.525ZM286.175 548.083C286.58 548.083 286.918 547.972 287.19 547.75C287.461 547.525 287.664 547.223 287.796 546.845C287.932 546.468 288 546.047 288 545.583C288 545.115 287.932 544.693 287.796 544.315C287.664 543.934 287.461 543.63 287.19 543.405C286.918 543.18 286.58 543.067 286.175 543.067C285.761 543.067 285.416 543.18 285.141 543.405C284.87 543.63 284.666 543.934 284.53 544.315C284.397 544.693 284.331 545.115 284.331 545.583C284.331 546.047 284.397 546.468 284.53 546.845C284.666 547.223 284.87 547.525 285.141 547.75C285.416 547.972 285.761 548.083 286.175 548.083ZM291.212 549.376V541.74H292.932V543.037H293.022C293.181 542.6 293.444 542.258 293.812 542.013C294.18 541.764 294.619 541.64 295.13 541.64C295.647 541.64 296.083 541.766 296.437 542.018C296.795 542.267 297.047 542.606 297.193 543.037H297.272C297.441 542.613 297.727 542.275 298.128 542.023C298.532 541.768 299.011 541.64 299.564 541.64C300.267 541.64 300.84 541.862 301.285 542.306C301.729 542.751 301.951 543.398 301.951 544.25V549.376H300.146V544.529C300.146 544.055 300.02 543.708 299.768 543.49C299.516 543.268 299.208 543.157 298.843 543.157C298.409 543.157 298.07 543.292 297.824 543.564C297.582 543.833 297.461 544.182 297.461 544.613V549.376H295.696V544.454C295.696 544.06 295.577 543.745 295.338 543.509C295.103 543.274 294.795 543.157 294.414 543.157C294.155 543.157 293.92 543.223 293.708 543.355C293.496 543.485 293.327 543.669 293.201 543.907C293.075 544.143 293.012 544.418 293.012 544.733V549.376H291.212ZM307.017 549.525C306.252 549.525 305.59 549.366 305.034 549.048C304.48 548.726 304.054 548.272 303.756 547.686C303.458 547.096 303.308 546.401 303.308 545.603C303.308 544.817 303.458 544.128 303.756 543.534C304.057 542.938 304.478 542.474 305.019 542.142C305.559 541.808 306.194 541.64 306.923 541.64C307.393 541.64 307.838 541.716 308.255 541.869C308.676 542.018 309.047 542.25 309.369 542.565C309.694 542.88 309.949 543.281 310.134 543.768C310.32 544.252 310.413 544.829 310.413 545.498V546.05H304.154V544.837H308.688C308.684 544.492 308.61 544.186 308.464 543.917C308.318 543.645 308.114 543.432 307.852 543.276C307.594 543.12 307.292 543.042 306.948 543.042C306.58 543.042 306.257 543.132 305.978 543.311C305.7 543.486 305.483 543.718 305.327 544.007C305.174 544.292 305.096 544.605 305.093 544.946V546.005C305.093 546.449 305.174 546.831 305.337 547.149C305.499 547.464 305.726 547.706 306.018 547.875C306.31 548.04 306.651 548.123 307.042 548.123C307.304 548.123 307.541 548.087 307.753 548.014C307.965 547.938 308.149 547.826 308.305 547.681C308.461 547.535 308.578 547.354 308.658 547.139L310.338 547.328C310.232 547.772 310.03 548.16 309.732 548.491C309.437 548.819 309.059 549.074 308.598 549.257C308.137 549.436 307.61 549.525 307.017 549.525ZM317.325 549.53C316.842 549.53 316.406 549.444 316.018 549.272C315.633 549.096 315.329 548.837 315.103 548.496C314.881 548.155 314.77 547.734 314.77 547.233C314.77 546.802 314.85 546.446 315.009 546.164C315.168 545.883 315.385 545.657 315.66 545.488C315.935 545.319 316.245 545.192 316.59 545.105C316.938 545.016 317.297 544.951 317.668 544.911C318.116 544.865 318.479 544.824 318.757 544.787C319.036 544.747 319.238 544.688 319.364 544.608C319.493 544.525 319.558 544.398 319.558 544.225V544.196C319.558 543.821 319.447 543.531 319.225 543.326C319.003 543.12 318.683 543.017 318.265 543.017C317.824 543.017 317.475 543.113 317.216 543.306C316.961 543.498 316.789 543.725 316.699 543.987L315.019 543.748C315.151 543.284 315.37 542.896 315.675 542.585C315.98 542.27 316.353 542.035 316.793 541.879C317.234 541.72 317.722 541.64 318.255 541.64C318.623 541.64 318.989 541.683 319.354 541.769C319.718 541.856 320.052 541.998 320.353 542.197C320.655 542.393 320.897 542.659 321.079 542.997C321.265 543.335 321.357 543.758 321.357 544.265V549.376H319.627V548.327H319.568C319.458 548.539 319.304 548.738 319.105 548.924C318.91 549.106 318.663 549.253 318.364 549.366C318.07 549.475 317.723 549.53 317.325 549.53ZM317.793 548.208C318.154 548.208 318.467 548.136 318.732 547.994C318.998 547.848 319.201 547.656 319.344 547.417C319.49 547.179 319.563 546.918 319.563 546.637V545.737C319.506 545.783 319.41 545.826 319.274 545.866C319.142 545.906 318.993 545.941 318.827 545.97C318.661 546 318.497 546.027 318.335 546.05C318.172 546.073 318.031 546.093 317.912 546.11C317.644 546.146 317.403 546.206 317.191 546.289C316.979 546.371 316.812 546.487 316.689 546.637C316.566 546.782 316.505 546.971 316.505 547.203C316.505 547.535 316.626 547.785 316.868 547.954C317.11 548.123 317.418 548.208 317.793 548.208ZM324.827 544.902V549.376H323.027V541.74H324.747V543.037H324.837C325.012 542.61 325.292 542.27 325.677 542.018C326.065 541.766 326.544 541.64 327.114 541.64C327.641 541.64 328.1 541.753 328.491 541.978C328.885 542.204 329.19 542.53 329.406 542.958C329.624 543.385 329.732 543.904 329.729 544.514V549.376H327.929V544.792C327.929 544.282 327.796 543.882 327.531 543.594C327.269 543.306 326.907 543.161 326.443 543.161C326.128 543.161 325.848 543.231 325.602 543.37C325.36 543.506 325.17 543.703 325.031 543.962C324.895 544.22 324.827 544.534 324.827 544.902ZM334.252 549.51C333.652 549.51 333.115 549.356 332.641 549.048C332.167 548.74 331.793 548.292 331.518 547.706C331.243 547.119 331.105 546.406 331.105 545.568C331.105 544.719 331.244 544.003 331.523 543.42C331.804 542.833 332.184 542.391 332.661 542.093C333.138 541.791 333.67 541.64 334.257 541.64C334.705 541.64 335.072 541.716 335.361 541.869C335.649 542.018 335.878 542.199 336.047 542.411C336.216 542.62 336.347 542.817 336.44 543.002H336.514V539.194H338.319V549.376H336.549V548.173H336.44C336.347 548.358 336.213 548.556 336.037 548.764C335.861 548.97 335.629 549.146 335.341 549.291C335.053 549.437 334.69 549.51 334.252 549.51ZM334.754 548.034C335.135 548.034 335.46 547.931 335.729 547.725C335.997 547.517 336.201 547.227 336.34 546.855C336.479 546.484 336.549 546.052 336.549 545.558C336.549 545.064 336.479 544.635 336.34 544.27C336.204 543.906 336.002 543.622 335.734 543.42C335.468 543.218 335.142 543.117 334.754 543.117C334.353 543.117 334.018 543.221 333.75 543.43C333.482 543.639 333.279 543.927 333.143 544.295C333.008 544.663 332.94 545.084 332.94 545.558C332.94 546.035 333.008 546.461 333.143 546.835C333.283 547.207 333.486 547.5 333.755 547.715C334.027 547.928 334.36 548.034 334.754 548.034ZM352.607 544.285C352.607 545.382 352.401 546.322 351.99 547.104C351.583 547.883 351.026 548.479 350.32 548.894C349.617 549.308 348.82 549.515 347.929 549.515C347.037 549.515 346.238 549.308 345.532 548.894C344.83 548.476 344.273 547.878 343.862 547.099C343.454 546.317 343.25 545.379 343.25 544.285C343.25 543.188 343.454 542.25 343.862 541.471C344.273 540.689 344.83 540.091 345.532 539.676C346.238 539.262 347.037 539.055 347.929 539.055C348.82 539.055 349.617 539.262 350.32 539.676C351.026 540.091 351.583 540.689 351.99 541.471C352.401 542.25 352.607 543.188 352.607 544.285ZM350.752 544.285C350.752 543.513 350.632 542.862 350.39 542.331C350.151 541.798 349.819 541.395 349.395 541.123C348.971 540.848 348.482 540.71 347.929 540.71C347.375 540.71 346.886 540.848 346.462 541.123C346.038 541.395 345.705 541.798 345.463 542.331C345.224 542.862 345.105 543.513 345.105 544.285C345.105 545.057 345.224 545.71 345.463 546.244C345.705 546.774 346.038 547.177 346.462 547.452C346.886 547.724 347.375 547.86 347.929 547.86C348.482 547.86 348.971 547.724 349.395 547.452C349.819 547.177 350.151 546.774 350.39 546.244C350.632 545.71 350.752 545.057 350.752 544.285ZM355.931 544.902V549.376H354.131V541.74H355.851V543.037H355.941C356.116 542.61 356.397 542.27 356.781 542.018C357.169 541.766 357.648 541.64 358.218 541.64C358.745 541.64 359.204 541.753 359.595 541.978C359.989 542.204 360.294 542.53 360.51 542.958C360.728 543.385 360.836 543.904 360.833 544.514V549.376H359.033V544.792C359.033 544.282 358.901 543.882 358.635 543.594C358.374 543.306 358.011 543.161 357.547 543.161C357.232 543.161 356.952 543.231 356.706 543.37C356.464 543.506 356.274 543.703 356.135 543.962C355.999 544.22 355.931 544.534 355.931 544.902ZM362.602 549.376V539.194H364.402V543.002H364.476C364.569 542.817 364.7 542.62 364.869 542.411C365.038 542.199 365.267 542.018 365.555 541.869C365.843 541.716 366.211 541.64 366.659 541.64C367.249 541.64 367.781 541.791 368.255 542.093C368.732 542.391 369.11 542.833 369.388 543.42C369.67 544.003 369.811 544.719 369.811 545.568C369.811 546.406 369.673 547.119 369.398 547.706C369.123 548.292 368.748 548.74 368.275 549.048C367.801 549.356 367.264 549.51 366.664 549.51C366.226 549.51 365.863 549.437 365.575 549.291C365.287 549.146 365.055 548.97 364.879 548.764C364.707 548.556 364.572 548.358 364.476 548.173H364.372V549.376H362.602ZM364.367 545.558C364.367 546.052 364.436 546.484 364.576 546.855C364.718 547.227 364.922 547.517 365.187 547.725C365.456 547.931 365.78 548.034 366.162 548.034C366.559 548.034 366.892 547.928 367.161 547.715C367.429 547.5 367.632 547.207 367.767 546.835C367.907 546.461 367.976 546.035 367.976 545.558C367.976 545.084 367.908 544.663 367.772 544.295C367.636 543.927 367.434 543.639 367.166 543.43C366.897 543.221 366.563 543.117 366.162 543.117C365.777 543.117 365.451 543.218 365.182 543.42C364.914 543.622 364.71 543.906 364.571 544.27C364.435 544.635 364.367 545.064 364.367 545.558ZM374.532 549.525C373.786 549.525 373.14 549.361 372.593 549.033C372.046 548.705 371.622 548.246 371.32 547.656C371.022 547.066 370.873 546.376 370.873 545.588C370.873 544.799 371.022 544.108 371.32 543.514C371.622 542.921 372.046 542.46 372.593 542.132C373.14 541.804 373.786 541.64 374.532 541.64C375.277 541.64 375.924 541.804 376.471 542.132C377.017 542.46 377.44 542.921 377.738 543.514C378.04 544.108 378.191 544.799 378.191 545.588C378.191 546.376 378.04 547.066 377.738 547.656C377.44 548.246 377.017 548.705 376.471 549.033C375.924 549.361 375.277 549.525 374.532 549.525ZM374.542 548.083C374.946 548.083 375.284 547.972 375.556 547.75C375.828 547.525 376.03 547.223 376.162 546.845C376.298 546.468 376.366 546.047 376.366 545.583C376.366 545.115 376.298 544.693 376.162 544.315C376.03 543.934 375.828 543.63 375.556 543.405C375.284 543.18 374.946 543.067 374.542 543.067C374.127 543.067 373.783 543.18 373.508 543.405C373.236 543.63 373.032 543.934 372.896 544.315C372.763 544.693 372.697 545.115 372.697 545.583C372.697 546.047 372.763 546.468 372.896 546.845C373.032 547.223 373.236 547.525 373.508 547.75C373.783 547.972 374.127 548.083 374.542 548.083ZM381.776 549.53C381.292 549.53 380.856 549.444 380.468 549.272C380.084 549.096 379.779 548.837 379.553 548.496C379.331 548.155 379.22 547.734 379.22 547.233C379.22 546.802 379.3 546.446 379.459 546.164C379.618 545.883 379.835 545.657 380.11 545.488C380.385 545.319 380.695 545.192 381.04 545.105C381.388 545.016 381.748 544.951 382.119 544.911C382.566 544.865 382.929 544.824 383.208 544.787C383.486 544.747 383.688 544.688 383.814 544.608C383.943 544.525 384.008 544.398 384.008 544.225V544.196C384.008 543.821 383.897 543.531 383.675 543.326C383.453 543.12 383.133 543.017 382.715 543.017C382.275 543.017 381.925 543.113 381.666 543.306C381.411 543.498 381.239 543.725 381.149 543.987L379.469 543.748C379.602 543.284 379.82 542.896 380.125 542.585C380.43 542.27 380.803 542.035 381.244 541.879C381.685 541.72 382.172 541.64 382.705 541.64C383.073 541.64 383.44 541.683 383.804 541.769C384.169 541.856 384.502 541.998 384.803 542.197C385.105 542.393 385.347 542.659 385.529 542.997C385.715 543.335 385.808 543.758 385.808 544.265V549.376H384.078V548.327H384.018C383.909 548.539 383.754 548.738 383.556 548.924C383.36 549.106 383.113 549.253 382.815 549.366C382.52 549.475 382.173 549.53 381.776 549.53ZM382.243 548.208C382.604 548.208 382.918 548.136 383.183 547.994C383.448 547.848 383.652 547.656 383.794 547.417C383.94 547.179 384.013 546.918 384.013 546.637V545.737C383.957 545.783 383.861 545.826 383.725 545.866C383.592 545.906 383.443 545.941 383.277 545.97C383.111 546 382.947 546.027 382.785 546.05C382.623 546.073 382.482 546.093 382.362 546.11C382.094 546.146 381.854 546.206 381.642 546.289C381.429 546.371 381.262 546.487 381.139 546.637C381.017 546.782 380.955 546.971 380.955 547.203C380.955 547.535 381.076 547.785 381.318 547.954C381.56 548.123 381.869 548.208 382.243 548.208ZM387.477 549.376V541.74H389.222V543.012H389.302C389.441 542.572 389.68 542.232 390.018 541.993C390.359 541.751 390.749 541.63 391.186 541.63C391.286 541.63 391.397 541.635 391.519 541.645C391.645 541.652 391.75 541.663 391.832 541.68V543.335C391.756 543.309 391.635 543.286 391.47 543.266C391.307 543.243 391.15 543.231 390.997 543.231C390.669 543.231 390.374 543.302 390.112 543.445C389.854 543.584 389.65 543.778 389.501 544.027C389.352 544.275 389.277 544.562 389.277 544.887V549.376H387.477ZM395.408 549.51C394.808 549.51 394.271 549.356 393.797 549.048C393.323 548.74 392.948 548.292 392.673 547.706C392.398 547.119 392.26 546.406 392.26 545.568C392.26 544.719 392.4 544.003 392.678 543.42C392.96 542.833 393.339 542.391 393.817 542.093C394.294 541.791 394.826 541.64 395.412 541.64C395.86 541.64 396.228 541.716 396.516 541.869C396.805 542.018 397.033 542.199 397.202 542.411C397.371 542.62 397.502 542.817 397.595 543.002H397.67V539.194H399.474V549.376H397.704V548.173H397.595C397.502 548.358 397.368 548.556 397.192 548.764C397.017 548.97 396.785 549.146 396.496 549.291C396.208 549.437 395.845 549.51 395.408 549.51ZM395.91 548.034C396.291 548.034 396.616 547.931 396.884 547.725C397.153 547.517 397.356 547.227 397.496 546.855C397.635 546.484 397.704 546.052 397.704 545.558C397.704 545.064 397.635 544.635 397.496 544.27C397.36 543.906 397.158 543.622 396.889 543.42C396.624 543.218 396.297 543.117 395.91 543.117C395.509 543.117 395.174 543.221 394.905 543.43C394.637 543.639 394.435 543.927 394.299 544.295C394.163 544.663 394.095 545.084 394.095 545.558C394.095 546.035 394.163 546.461 394.299 546.835C394.438 547.207 394.642 547.5 394.91 547.715C395.182 547.928 395.515 548.034 395.91 548.034ZM401.252 549.376V541.74H403.052V549.376H401.252ZM402.157 540.656C401.872 540.656 401.627 540.561 401.421 540.372C401.216 540.18 401.113 539.95 401.113 539.681C401.113 539.41 401.216 539.179 401.421 538.99C401.627 538.798 401.872 538.702 402.157 538.702C402.445 538.702 402.691 538.798 402.893 538.99C403.098 539.179 403.201 539.41 403.201 539.681C403.201 539.95 403.098 540.18 402.893 540.372C402.691 540.561 402.445 540.656 402.157 540.656ZM406.562 544.902V549.376H404.762V541.74H406.483V543.037H406.572C406.748 542.61 407.028 542.27 407.412 542.018C407.8 541.766 408.279 541.64 408.849 541.64C409.376 541.64 409.835 541.753 410.226 541.978C410.621 542.204 410.926 542.53 411.141 542.958C411.36 543.385 411.467 543.904 411.464 544.514V549.376H409.664V544.792C409.664 544.282 409.532 543.882 409.267 543.594C409.005 543.306 408.642 543.161 408.178 543.161C407.863 543.161 407.583 543.231 407.338 543.37C407.096 543.506 406.905 543.703 406.766 543.962C406.63 544.22 406.562 544.534 406.562 544.902ZM416.475 552.399C415.828 552.399 415.273 552.311 414.809 552.135C414.345 551.963 413.972 551.731 413.691 551.439C413.409 551.148 413.213 550.824 413.104 550.47L414.725 550.077C414.798 550.226 414.904 550.374 415.043 550.519C415.182 550.669 415.369 550.791 415.605 550.887C415.843 550.987 416.143 551.036 416.505 551.036C417.015 551.036 417.438 550.912 417.772 550.664C418.107 550.418 418.274 550.014 418.274 549.451V548.004H418.185C418.092 548.189 417.956 548.38 417.777 548.576C417.602 548.771 417.368 548.935 417.076 549.068C416.788 549.2 416.425 549.267 415.988 549.267C415.401 549.267 414.869 549.129 414.392 548.854C413.918 548.576 413.54 548.161 413.258 547.611C412.98 547.058 412.84 546.365 412.84 545.533C412.84 544.694 412.98 543.987 413.258 543.41C413.54 542.83 413.919 542.391 414.397 542.093C414.874 541.791 415.406 541.64 415.992 541.64C416.44 541.64 416.808 541.716 417.096 541.869C417.388 542.018 417.62 542.199 417.792 542.411C417.965 542.62 418.095 542.817 418.185 543.002H418.284V541.74H420.059V549.5C420.059 550.153 419.903 550.693 419.592 551.121C419.28 551.549 418.854 551.868 418.314 552.081C417.774 552.293 417.161 552.399 416.475 552.399ZM416.49 547.855C416.871 547.855 417.196 547.762 417.464 547.576C417.733 547.391 417.936 547.124 418.076 546.776C418.215 546.428 418.284 546.01 418.284 545.523C418.284 545.042 418.215 544.621 418.076 544.26C417.94 543.899 417.738 543.619 417.469 543.42C417.204 543.218 416.877 543.117 416.49 543.117C416.089 543.117 415.754 543.221 415.485 543.43C415.217 543.639 415.015 543.925 414.879 544.29C414.743 544.651 414.675 545.062 414.675 545.523C414.675 545.99 414.743 546.4 414.879 546.751C415.018 547.099 415.222 547.371 415.49 547.566C415.762 547.759 416.095 547.855 416.49 547.855ZM422.872 549.485C422.571 549.485 422.312 549.379 422.097 549.167C421.881 548.955 421.775 548.697 421.779 548.392C421.775 548.093 421.881 547.838 422.097 547.626C422.312 547.414 422.571 547.308 422.872 547.308C423.164 547.308 423.418 547.414 423.633 547.626C423.852 547.838 423.963 548.093 423.966 548.392C423.963 548.594 423.91 548.778 423.807 548.943C423.708 549.109 423.575 549.242 423.409 549.341C423.247 549.437 423.068 549.485 422.872 549.485Z" fill="#121212"/>
<rect x="94.0957" y="504.876" width="56" height="56" rx="6" fill="#FBEDC3"/>
<g clip-path="url(#clip2_6354_40621)">
<path d="M125.207 544.543C125.207 546.261 118.984 546.261 118.984 544.543V536.765C118.984 535.047 120.377 533.654 122.095 533.654C123.814 533.654 125.207 535.047 125.207 536.765V544.543Z" fill="#C1694F"/>
<path d="M115.874 521.209C112.437 521.209 109.651 523.995 109.651 527.432V536.765H122.096V527.432C122.096 523.995 119.31 521.209 115.874 521.209Z" fill="#292F33"/>
<path d="M123.651 533.468C123.651 534.429 122.823 535.209 121.868 535.209H109.879C108.923 535.209 108.096 534.429 108.096 533.468V525.284C108.096 524.323 108.923 523.542 109.879 523.542H121.868C122.823 523.542 123.651 524.323 123.651 525.284V533.468Z" fill="#CCD6DD"/>
<path d="M123.651 525.284C123.651 524.323 122.823 523.542 121.868 523.542H109.879C108.923 523.542 108.096 524.323 108.096 525.284V526.388L111.89 530.202L108.173 533.94C108.26 534.232 108.418 534.497 108.636 534.704L112.503 530.817L114.375 532.698C115.194 533.523 116.528 533.523 117.347 532.698L119.234 530.807L123.111 534.704C123.328 534.496 123.486 534.231 123.574 533.94L119.847 530.192L123.651 526.378V525.284Z" fill="#99AAB5"/>
<path d="M121.868 523.542H109.879C108.972 523.542 108.19 524.247 108.111 525.141L114.651 531.672C115.327 532.352 116.422 532.325 117.097 531.645L123.638 525.153C123.565 524.253 122.778 523.542 121.868 523.542Z" fill="#E1E8ED"/>
<path d="M128.317 521.209H115.873C119.309 521.209 122.095 523.995 122.095 527.432V536.765H134.54V527.432C134.54 523.995 131.754 521.209 128.317 521.209Z" fill="#99AAB5"/>
<path d="M128.318 519.654H125.207C124.348 519.654 123.651 520.351 123.651 521.209V530.543C123.651 531.401 124.348 532.098 125.207 532.098C126.066 532.098 126.762 531.401 126.762 530.543V524.32H128.318C129.177 524.32 129.874 523.624 129.874 522.765V521.209C129.874 520.351 129.177 519.654 128.318 519.654Z" fill="#DD2E44"/>
</g>
<rect x="-1" y="1" width="421" height="84" rx="7" transform="matrix(-1 0 0 1 501.846 489.626)" stroke="#E1E8F2" stroke-width="2" stroke-dasharray="8 8"/>
<rect x="-2" y="2" width="447" height="108" rx="6" transform="matrix(-1 0 0 1 513.846 476.626)" stroke="#121212" stroke-width="4"/>
<defs>
<clipPath id="clip0_6354_40621">
<rect width="22" height="22" fill="white" transform="translate(91.8457 146.978)"/>
</clipPath>
<clipPath id="clip1_6354_40621">
<rect width="28" height="28" fill="white" transform="translate(108.096 328.302)"/>
</clipPath>
<clipPath id="clip2_6354_40621">
<rect width="28" height="28" fill="white" transform="translate(108.096 518.876)"/>
</clipPath>
</defs>
</svg>
