<svg width="608" height="561" viewBox="0 0 608 561" fill="none" xmlns="http://www.w3.org/2000/svg">
<path d="M559.504 -30.96L559.504 47.6796M559.504 592.153L559.504 311.843M559.504 246.101L559.504 97.8826" stroke="#97969C" stroke-dasharray="4 4"/>
<path d="M457.312 -30.583L457.313 371.462M457.313 591.978L457.313 396.135" stroke="#97969C" stroke-dasharray="4 4"/>
<path d="M355.621 -30.7725L355.621 134.021M355.621 591.975L355.621 510.729M355.621 216.736L355.621 461.13" stroke="#97969C" stroke-dasharray="4 4"/>
<path d="M252.93 -30.583L252.93 60.1604M252.93 591.971L252.93 84.4628" stroke="#97969C" stroke-dasharray="4 4"/>
<path d="M150.739 -30.7705L150.738 342.922M150.738 591.979L150.738 425.995" stroke="#97969C" stroke-dasharray="4 4"/>
<path d="M48.547 -30.9619L48.5469 152.866M48.5469 591.968L48.5469 288.95M48.5469 198.885L48.5469 271.716" stroke="#97969C" stroke-dasharray="4 4"/>
<path d="M0 487.649L330.227 487.649M608 487.649L379.607 487.649" stroke="#97969C" stroke-dasharray="4 4"/>
<path d="M0 383.856H112.263M608 383.856L469.346 383.856M190.468 383.856H444.674" stroke="#97969C" stroke-dasharray="4 4"/>
<path d="M0 176.271H25.6723M608 176.271L396.708 176.271M316 176.271L73.3582 176.271" stroke="#97969C" stroke-dasharray="4 4"/>
<path d="M0 280.063H39.4795M608 280.063H592.678M527.354 280.063L57.1204 280.063" stroke="#97969C" stroke-dasharray="4 4"/>
<path d="M0 72.4775L239.558 72.4775M608 72.4775H582.879M534.54 72.4775L265.522 72.4775" stroke="#97969C" stroke-dasharray="4 4"/>
<path d="M355.621 511.63L365.803 497.812L379.621 487.63L365.803 477.448L355.621 463.63L345.439 477.448L331.621 487.63L345.439 497.812L355.621 511.63Z" stroke="#97969C" stroke-dasharray="4 4"/>
<path d="M559.48 96.3955L569.663 82.5778L583.48 72.3955L569.663 62.2132L559.48 48.3955L549.298 62.2132L535.48 72.3955L549.298 82.5778L559.48 96.3955Z" stroke="#97969C" stroke-dasharray="4 4"/>
<path d="M48.6016 200.126L58.7839 186.308L72.6016 176.126L58.7839 165.944L48.6016 152.126L38.4192 165.944L24.6016 176.126L38.4192 186.308L48.6016 200.126Z" stroke="#97969C" stroke-dasharray="4 4"/>
<path d="M559.469 311.979L573.045 293.556L591.469 279.979L573.045 266.403L559.469 247.979L545.892 266.403L527.469 279.979L545.892 293.556L559.469 311.979Z" stroke="#97969C" stroke-dasharray="4 4"/>
<path d="M150.754 423.886L167.724 400.856L190.754 383.886L167.724 366.915L150.754 343.886L133.783 366.915L110.754 383.886L133.783 400.856L150.754 423.886Z" stroke="#97969C" stroke-dasharray="4 4"/>
<path d="M355.621 216.276L372.592 193.247L395.621 176.276L372.592 159.306L355.621 136.276L338.651 159.306L315.621 176.276L338.651 193.247L355.621 216.276Z" stroke="#97969C" stroke-dasharray="4 4"/>
<circle r="12" transform="matrix(1 0 0 -1 457.246 383.856)" stroke="#97969C" stroke-dasharray="4 4"/>
<circle r="8" transform="matrix(1 0 0 -1 48.5469 280.063)" stroke="#97969C" stroke-dasharray="4 4"/>
<circle r="12" transform="matrix(1 0 0 -1 252.598 72.4775)" stroke="#97969C" stroke-dasharray="4 4"/>
<rect x="-2" y="2" width="441.955" height="422.315" rx="6" transform="matrix(-1 0 0 1 543.328 74.001)" fill="#121212"/>
<rect x="-2" y="2" width="441.955" height="422.315" rx="6" transform="matrix(-1 0 0 1 543.328 74.001)" stroke="#121212" stroke-width="4"/>
<rect x="-2" y="2" width="441.12" height="419.085" rx="6" transform="matrix(-1 0 0 1 525.039 61.082)" fill="#F5F6F8"/>
<rect x="-2" y="2" width="441.12" height="419.085" rx="6" transform="matrix(-1 0 0 1 525.039 61.082)" stroke="#121212" stroke-width="4"/>
<rect x="96" y="74" width="422" height="38" rx="4" fill="white"/>
<rect x="113" y="88" width="10" height="10" rx="5" fill="#EB5757"/>
<rect x="131" y="88" width="10" height="10" rx="5" fill="#F2C94C"/>
<rect x="149" y="88" width="10" height="10" rx="5" fill="#27AE60"/>
<path d="M492.438 87C492.438 86.4477 491.99 86 491.438 86C490.885 86 490.438 86.4477 490.438 87H492.438ZM490.438 99C490.438 99.5523 490.885 100 491.438 100C491.99 100 492.438 99.5523 492.438 99H490.438ZM490.438 87V99H492.438V87H490.438Z" fill="#E7EDF5"/>
<path d="M497.437 94C497.99 94 498.437 93.5523 498.438 93C498.438 92.4477 497.99 92 497.438 92L497.437 94ZM485.438 92C484.885 92 484.438 92.4477 484.438 93C484.437 93.5523 484.885 94 485.437 94L485.438 92ZM497.438 92L485.438 92L485.437 94L497.437 94L497.438 92Z" fill="#E7EDF5"/>
<rect x="-1" y="1" width="419" height="345" rx="7" transform="matrix(-1 0 0 1 515 125)" fill="#F5F6F8"/>
<path d="M147.844 435L148.834 432.318H153.946L154.918 435H157.852L153.406 422.94H149.482L145.036 435H147.844ZM150.4 428.034L151.318 425.316H151.498L152.38 428.034L153.064 429.906H149.716L150.4 428.034ZM162.459 435.18C164.043 435.18 164.997 434.46 165.501 433.416H165.591V435H168.093V425.946H165.411V431.076C165.411 432.444 164.853 432.858 163.557 432.858C162.207 432.858 161.775 432.408 161.775 431.148V425.946H159.093V431.688C159.093 433.614 160.083 435.18 162.459 435.18ZM174.393 435.036C175.023 435.036 175.725 434.946 176.157 434.856V432.606H175.041C173.871 432.606 173.601 432.516 173.601 431.724V428.178H176.157V425.946H173.601V423.84H171.477L170.973 425.946H169.461V428.178H170.901V432.03C170.901 434.172 172.035 435.036 174.393 435.036ZM182.02 435.18C184.918 435.18 186.61 433.344 186.61 430.482C186.61 427.602 184.918 425.766 182.02 425.766C179.104 425.766 177.376 427.602 177.376 430.482C177.376 433.344 179.104 435.18 182.02 435.18ZM182.02 432.804C180.544 432.804 180.04 432.228 180.04 430.482C180.04 428.718 180.544 428.142 182.02 428.142C183.478 428.142 183.982 428.718 183.982 430.482C183.982 432.228 183.478 432.804 182.02 432.804ZM191.065 435V429.762C191.065 428.484 191.605 428.088 192.829 428.088C194.125 428.088 194.521 428.538 194.521 429.798V435H197.221V429.798C197.221 428.484 197.743 428.088 198.967 428.088C200.281 428.088 200.659 428.538 200.659 429.798V435H203.359V429.258C203.359 427.332 202.405 425.766 200.065 425.766C198.391 425.766 197.491 426.54 196.987 427.53H196.897C196.447 426.468 195.511 425.766 193.963 425.766C192.415 425.766 191.479 426.504 190.993 427.53H190.885V425.946H188.383V435H191.065ZM207.966 435.18C209.64 435.18 210.558 434.442 211.044 433.776H211.152V435H213.654V429.636C213.654 427.224 212.25 425.766 209.586 425.766C207.03 425.766 205.356 427.188 205.356 429.348V429.546H207.93V429.348C207.93 428.43 208.362 428.124 209.46 428.124C210.522 428.124 211.098 428.322 211.098 429.384V429.672L208.002 430.14C206.13 430.428 205.122 431.292 205.122 432.696C205.122 434.334 206.364 435.18 207.966 435.18ZM207.696 432.48C207.696 432.102 207.948 431.922 208.506 431.832L211.098 431.436C211.098 432.84 209.964 433.128 208.866 433.128C208.074 433.128 207.696 432.966 207.696 432.48ZM219.9 435.036C220.53 435.036 221.232 434.946 221.664 434.856V432.606H220.548C219.378 432.606 219.108 432.516 219.108 431.724V428.178H221.664V425.946H219.108V423.84H216.984L216.48 425.946H214.968V428.178H216.408V432.03C216.408 434.172 217.542 435.036 219.9 435.036ZM225.957 424.92V422.94H223.275L223.311 424.92H225.957ZM226.011 435V425.946H223.311V435H226.011ZM232.269 435.18C235.167 435.18 236.859 433.344 236.859 430.482C236.859 427.602 235.167 425.766 232.269 425.766C229.353 425.766 227.625 427.602 227.625 430.482C227.625 433.344 229.353 435.18 232.269 435.18ZM232.269 432.804C230.793 432.804 230.289 432.228 230.289 430.482C230.289 428.718 230.793 428.142 232.269 428.142C233.727 428.142 234.231 428.718 234.231 430.482C234.231 432.228 233.727 432.804 232.269 432.804ZM241.313 435V429.87C241.313 428.502 241.871 428.088 243.167 428.088C244.535 428.088 244.949 428.538 244.949 429.798V435H247.649V429.258C247.649 427.332 246.641 425.766 244.283 425.766C242.699 425.766 241.727 426.504 241.241 427.53H241.133V425.946H238.631V435H241.313ZM253.714 435.18C256.216 435.18 257.602 434.1 257.602 432.408C257.602 430.932 256.81 430.068 254.902 429.708L253.246 429.366C252.166 429.15 252.004 429.024 252.004 428.592C252.004 428.16 252.256 427.926 253.336 427.926C254.488 427.926 254.74 428.25 254.74 428.844V429.096H257.314V428.844C257.314 426.81 255.622 425.766 253.408 425.766C250.834 425.766 249.466 426.954 249.466 428.628C249.466 430.302 250.438 431.058 252.22 431.382L253.588 431.634C254.794 431.85 255.046 431.958 255.046 432.444C255.046 432.894 254.866 433.056 253.768 433.056C252.454 433.056 252.058 432.912 252.058 432.246V431.868H249.484V431.922C249.484 434.118 250.87 435.18 253.714 435.18Z" fill="black"/>
<path d="M140.605 436.728L125.111 421.234L122.234 424.111L137.728 439.605C137.766 439.642 138.103 439.966 138.579 439.966C138.869 439.966 139.147 439.841 139.383 439.605L140.605 438.383C140.937 438.05 141.212 437.335 140.605 436.728Z" fill="#8899A6"/>
<path d="M137.333 439.389C137.27 439.389 137.204 439.379 137.14 439.357C136.82 439.251 136.647 438.905 136.754 438.584L137.976 434.918C138.083 434.598 138.425 434.424 138.749 434.531C139.069 434.638 139.242 434.984 139.135 435.304L137.913 438.971C137.828 439.227 137.589 439.389 137.333 439.389ZM135.5 437.556C135.436 437.556 135.371 437.545 135.307 437.524C134.987 437.418 134.814 437.072 134.921 436.751L136.143 433.084C136.249 432.765 136.593 432.59 136.916 432.698C137.235 432.804 137.409 433.15 137.302 433.471L136.08 437.138C135.994 437.394 135.756 437.556 135.5 437.556ZM133.667 435.722C133.603 435.722 133.538 435.712 133.473 435.691C133.154 435.584 132.98 435.238 133.087 434.918L134.309 431.251C134.416 430.931 134.759 430.757 135.082 430.865C135.402 430.971 135.576 431.317 135.469 431.638L134.246 435.304C134.161 435.56 133.923 435.722 133.667 435.722ZM131.833 433.889C131.77 433.889 131.704 433.879 131.64 433.857C131.32 433.751 131.147 433.405 131.254 433.084L132.476 429.418C132.582 429.098 132.926 428.923 133.249 429.031C133.569 429.138 133.742 429.484 133.635 429.804L132.413 433.471C132.328 433.727 132.089 433.889 131.833 433.889ZM128.778 430.834C128.714 430.834 128.649 430.823 128.585 430.802C128.264 430.695 128.091 430.35 128.198 430.029L129.421 426.362C129.527 426.042 129.873 425.868 130.194 425.976C130.514 426.083 130.687 426.429 130.58 426.749L129.358 430.416C129.272 430.672 129.034 430.834 128.778 430.834ZM126.944 429C126.881 429 126.815 428.99 126.751 428.968C126.431 428.861 126.258 428.516 126.365 428.195L127.587 424.529C127.694 424.209 128.039 424.034 128.36 424.142C128.68 424.249 128.853 424.595 128.746 424.916L127.524 428.582C127.439 428.838 127.2 429 126.944 429ZM125.111 427.167C125.047 427.167 124.982 427.156 124.918 427.135C124.598 427.028 124.425 426.682 124.532 426.362L125.754 422.695C125.861 422.376 126.206 422.202 126.527 422.309C126.847 422.416 127.02 422.762 126.913 423.082L125.691 426.749C125.605 427.005 125.367 427.167 125.111 427.167Z" fill="#66757F"/>
<path d="M126.944 433.278C126.944 433.278 126.333 432.667 126.944 432.056L133.056 425.944C133.056 425.944 133.667 425.333 134.278 425.944L136.111 427.778C136.111 427.778 136.722 428.389 136.111 429L130 435.111C130 435.111 129.389 435.722 128.778 435.111L126.944 433.278Z" fill="#CCD6DD"/>
<path d="M126.944 432.055C126.333 432.666 126.944 433.277 126.944 433.277L128.778 435.111C129.389 435.722 130 435.111 130 435.111L131.222 433.889L128.167 430.833L126.944 432.055Z" fill="#8899A6"/>
<path d="M136.111 429C136.722 428.389 136.111 427.778 136.111 427.778L134.277 425.944C133.666 425.333 133.055 425.944 133.055 425.944L131.833 427.167L134.889 430.222L136.111 429Z" fill="#E1E8ED"/>
<path d="M119.611 425.945C119.611 425.945 119 425.334 119.611 424.723L125.723 418.611C125.723 418.611 126.334 418 126.945 418.611L128.778 420.445C128.778 420.445 129.389 421.056 128.778 421.667L122.667 427.778C122.667 427.778 122.056 428.389 121.445 427.778L119.611 425.945Z" fill="#CCD6DD"/>
<path d="M119.611 424.722C119 425.333 119.611 425.944 119.611 425.944L121.445 427.778C122.056 428.389 122.667 427.778 122.667 427.778L123.889 426.556L120.834 423.5L119.611 424.722Z" fill="#8899A6"/>
<path d="M128.778 421.667C129.389 421.056 128.778 420.445 128.778 420.445L126.944 418.611C126.333 418 125.722 418.611 125.722 418.611L124.5 419.834L127.556 422.889L128.778 421.667Z" fill="#E1E8ED"/>
<line x1="120" y1="338.469" x2="484.145" y2="338.469" stroke="#DFE7F2" stroke-width="2"/>
<g clip-path="url(#clip0_6354_40622)">
<rect x="166.645" y="370" width="32" height="32" rx="16" fill="#B3C2FE"/>
<path d="M177.376 379.406C177.376 380.776 177.376 382.047 177.376 382.862C176.636 382.862 176.031 382.084 176.031 381.134C176.031 380.184 176.636 379.406 177.376 379.406Z" fill="#BD6446"/>
<path d="M190.977 381.134C190.977 381.158 190.977 381.183 190.977 381.208C190.977 381.22 190.977 381.233 190.977 381.245C190.977 381.257 190.977 381.282 190.977 381.294C190.977 381.307 190.977 381.319 190.977 381.344C190.977 381.356 190.977 381.381 190.977 381.393C190.977 381.405 190.977 381.43 190.965 381.442C190.965 381.455 190.965 381.479 190.952 381.492C190.952 381.504 190.952 381.529 190.94 381.541C190.94 381.553 190.94 381.553 190.94 381.566C190.94 381.59 190.928 381.603 190.928 381.627C190.928 381.652 190.915 381.665 190.915 381.689C190.915 381.714 190.903 381.726 190.903 381.751C190.903 381.763 190.891 381.788 190.891 381.8C190.891 381.825 190.878 381.837 190.878 381.85C190.866 381.887 190.854 381.924 190.829 381.961C190.817 381.973 190.817 381.998 190.804 382.01C190.743 382.158 190.656 382.282 190.557 382.405C190.545 382.417 190.533 382.43 190.52 382.442C190.52 382.442 190.52 382.442 190.508 382.454C190.496 382.467 190.471 382.491 190.459 382.504C190.434 382.528 190.397 382.565 190.372 382.59C190.36 382.602 190.348 382.602 190.348 382.615C190.323 382.627 190.311 382.652 190.286 382.664L190.274 382.677C190.261 382.689 190.237 382.701 190.224 382.714C190.212 382.726 190.2 382.726 190.175 382.738C190.163 382.751 190.15 382.751 190.126 382.763C190.064 382.788 190.002 382.812 189.94 382.837C189.928 382.837 189.916 382.849 189.903 382.849C189.879 382.849 189.854 382.862 189.842 382.862C189.829 382.862 189.805 382.874 189.792 382.874C189.78 382.874 189.78 382.874 189.768 382.874C189.743 382.874 189.731 382.874 189.706 382.874C189.694 382.874 189.681 382.874 189.669 382.874C189.657 382.874 189.657 382.874 189.644 382.874H189.632C189.632 382.319 189.644 381.578 189.644 380.801C189.644 380.344 189.644 379.875 189.644 379.431C189.657 379.431 189.669 379.431 189.681 379.431C189.694 379.431 189.706 379.431 189.718 379.431C189.731 379.431 189.743 379.431 189.755 379.431C189.768 379.431 189.78 379.431 189.792 379.431C189.842 379.443 189.879 379.443 189.928 379.455C189.94 379.455 189.94 379.455 189.953 379.468C189.965 379.468 189.977 379.48 189.977 379.48C189.99 379.48 189.99 379.48 190.002 379.492C190.014 379.492 190.014 379.505 190.027 379.505C190.051 379.517 190.076 379.529 190.088 379.529C190.113 379.542 190.125 379.554 190.15 379.554C190.175 379.566 190.187 379.579 190.212 379.591C190.237 379.603 190.249 379.616 190.274 379.628C190.311 379.653 190.348 379.69 190.385 379.715C190.397 379.727 190.422 379.752 190.434 379.764C190.446 379.776 190.459 379.789 190.471 379.801C190.483 379.813 190.496 379.826 190.508 379.838C190.508 379.838 190.508 379.838 190.52 379.85C190.533 379.863 190.545 379.875 190.557 379.9C190.594 379.949 190.632 379.998 190.669 380.06C190.681 380.072 190.693 380.085 190.693 380.109C190.792 380.282 190.878 380.48 190.915 380.69C190.915 380.714 190.928 380.739 190.928 380.776C190.928 380.788 190.928 380.801 190.94 380.825C190.94 380.838 190.94 380.862 190.952 380.875C190.952 380.899 190.965 380.936 190.965 380.961C190.965 380.986 190.965 381.01 190.977 381.035C190.977 381.06 190.977 381.084 190.977 381.109C190.977 381.097 190.977 381.121 190.977 381.134Z" fill="#BD6446"/>
<path d="M188.348 392.501C188.324 395.154 186.176 397.289 183.523 397.289C180.869 397.289 178.722 395.154 178.697 392.501C179.166 392.501 179.598 392.303 179.907 391.995C180.104 391.797 180.252 391.55 180.339 391.279C180.388 391.118 180.413 390.958 180.413 390.773V387.07H186.633V390.773C186.633 391.735 187.398 392.501 188.348 392.501Z" fill="#C67250"/>
<path d="M186.633 387.095V389.267C185.51 390.613 183.782 391.477 181.844 391.477C181.326 391.477 180.807 391.415 180.326 391.292C180.376 391.131 180.4 390.971 180.4 390.786V387.083H186.633V387.095Z" fill="#A15235"/>
<path d="M188.62 376.111C189.176 377.296 189.669 377.666 189.669 379.073C189.669 379.209 189.669 379.32 189.669 379.407C189.669 379.851 189.669 380.32 189.669 380.777C189.669 381.554 189.657 382.307 189.657 382.85C189.657 383.405 189.645 383.763 189.645 383.763C189.645 385.923 188.435 387.824 186.633 388.848C186.337 389.021 186.028 389.156 185.708 389.28C185.708 389.28 185.708 389.28 185.695 389.28C185.103 389.502 184.473 389.625 183.807 389.662C183.708 389.662 183.609 389.675 183.511 389.675C182.672 389.675 181.869 389.514 181.153 389.218C180.894 389.119 180.647 388.996 180.413 388.86C178.599 387.836 177.377 385.935 177.377 383.763C177.377 383.763 177.377 383.418 177.377 382.85C177.377 382.035 177.377 380.764 177.377 379.394V379.073C177.377 377.457 177.957 376.889 178.562 375.778C179.549 373.964 181.45 372.841 183.511 372.841L185.103 373.075C185.165 373.1 185.226 373.112 185.288 373.137C185.732 373.285 186.152 373.483 186.534 373.729C186.559 373.742 186.596 373.766 186.621 373.779C186.67 373.816 186.732 373.853 186.781 373.89C186.831 373.927 186.892 373.964 186.942 374.013C187.152 374.174 187.349 374.347 187.534 374.544C187.559 374.569 187.584 374.593 187.608 374.618C187.658 374.667 187.695 374.717 187.744 374.766C187.88 374.914 188.003 375.075 188.114 375.235C188.176 375.321 188.225 375.396 188.287 375.482C188.398 375.679 188.521 375.889 188.62 376.111Z" fill="#C67250"/>
<path d="M189.656 379.073C189.656 379.209 189.656 379.32 189.656 379.406C189.656 379.542 189.656 379.678 189.656 379.814C189.483 379.345 189.113 378.32 188.817 377.826C188.607 377.456 188.583 376.864 188.471 376.345C188.36 375.815 187.891 375.432 187.361 375.432H179.647C179.104 375.432 178.635 375.815 178.536 376.345C178.425 376.864 178.413 377.456 178.191 377.826C177.919 378.295 177.561 379.233 177.389 379.727C177.389 379.505 177.389 379.283 177.389 379.061C177.389 377.444 177.969 376.876 178.573 375.765C179.561 373.951 181.461 372.828 183.522 372.828C184.621 372.828 185.67 373.149 186.559 373.717C187.447 374.284 188.175 375.099 188.644 376.099C189.175 377.296 189.656 377.666 189.656 379.073Z" fill="#77403A"/>
<path d="M177.377 380.813C177.377 380.813 176.797 380.122 176.414 380.715" stroke="#FDBFD9" stroke-width="0.123417" stroke-miterlimit="10" stroke-linecap="round" stroke-linejoin="round"/>
<path d="M189.645 380.813C189.645 380.813 190.064 380.085 190.644 380.64" stroke="#FDBFD9" stroke-width="0.123417" stroke-miterlimit="10" stroke-linecap="round" stroke-linejoin="round"/>
<path d="M181.141 389.23C181.424 389.366 181.622 389.539 181.856 389.662C182.116 389.81 182.338 390.057 182.609 390.119C182.893 390.181 183.202 390.02 183.473 390.008C183.769 389.983 184.09 390.094 184.349 390.02C184.646 389.934 184.868 389.675 185.102 389.564C185.374 389.44 185.744 389.28 185.917 389.193C185.905 389.193 183.436 390.292 181.141 389.23Z" fill="#121212"/>
<path d="M165.911 406.188L168.799 396.228C169.083 395.24 169.885 394.475 170.885 394.228L177.364 392.624C177.525 395.895 180.215 398.486 183.523 398.486C186.83 398.486 189.533 395.882 189.681 392.624L196.173 394.228C197.173 394.475 197.975 395.24 198.259 396.24L201.122 406.188H165.911Z" fill="#121212"/>
<path d="M189.681 392.624C189.521 395.895 186.83 398.487 183.523 398.487C180.215 398.487 177.525 395.883 177.364 392.624L178.697 392.501C178.722 395.154 180.869 397.29 183.523 397.29C186.176 397.29 188.324 395.154 188.348 392.501L189.681 392.624Z" fill="#333333"/>
<path d="M178.216 394.216C178.216 394.216 178.549 394.315 178.981 394.117" stroke="#333333" stroke-width="0.123417" stroke-miterlimit="10" stroke-linecap="round" stroke-linejoin="round"/>
<path d="M185.448 396.906C185.448 396.906 185.769 397.326 185.67 397.573" stroke="#333333" stroke-width="0.123417" stroke-miterlimit="10" stroke-linecap="round" stroke-linejoin="round"/>
<path d="M187.607 395.093C187.607 395.093 187.657 395.327 188.138 395.426" stroke="#333333" stroke-width="0.123417" stroke-miterlimit="10" stroke-linecap="round" stroke-linejoin="round"/>
<path d="M189.509 393.759C189.509 393.759 189.126 393.562 188.793 393.66" stroke="#333333" stroke-width="0.123417" stroke-miterlimit="10" stroke-linecap="round" stroke-linejoin="round"/>
<path d="M180.276 397.585C180.276 397.585 180.758 397.351 180.906 396.919" stroke="#333333" stroke-width="0.123417" stroke-miterlimit="10" stroke-linecap="round" stroke-linejoin="round"/>
<path d="M182.018 378.234C182.03 378.332 181.524 378.481 180.882 378.555C180.401 378.616 179.846 378.592 179.438 378.888C179.661 378.295 180.29 378.246 180.845 378.184C181.475 378.11 182.006 378.123 182.018 378.234Z" fill="#121212"/>
<path d="M180.031 379.542C180.031 379.542 180.821 378.949 181.611 379.542" stroke="#121212" stroke-width="0.123417" stroke-linecap="round" stroke-linejoin="round"/>
<path d="M185.017 378.234C185.004 378.332 185.51 378.481 186.152 378.555C186.634 378.616 187.189 378.592 187.596 378.888C187.374 378.295 186.745 378.246 186.189 378.184C185.56 378.11 185.029 378.123 185.017 378.234Z" fill="#121212"/>
<path d="M187.004 379.542C187.004 379.542 186.214 378.949 185.424 379.542" stroke="#121212" stroke-width="0.123417" stroke-linecap="round" stroke-linejoin="round"/>
<path d="M189.657 379.407C189.657 379.851 189.657 380.32 189.657 380.777C189.657 381.554 189.644 382.307 189.644 382.85C189.644 383.405 189.632 383.763 189.632 383.763C189.632 387.021 186.892 389.675 183.498 389.675C180.116 389.675 177.364 387.034 177.364 383.763C177.364 383.763 177.364 381.517 177.364 379.073C177.364 377.457 177.944 376.889 178.549 375.778C179.536 373.964 181.437 372.841 183.498 372.841C185.695 372.841 187.682 374.112 188.608 376.099C189.163 377.284 189.657 377.654 189.657 379.061C189.657 379.209 189.657 379.333 189.657 379.407Z" stroke="#121212" stroke-width="0.123417" stroke-linecap="round" stroke-linejoin="round"/>
<path d="M177.376 382.862C176.636 382.862 176.031 382.084 176.031 381.134C176.031 380.184 176.636 379.406 177.376 379.406" stroke="#121212" stroke-width="0.123417" stroke-linecap="round" stroke-linejoin="round"/>
<path d="M177.377 380.813C177.377 380.813 176.797 380.122 176.414 380.715" stroke="#121212" stroke-width="0.123417" stroke-linecap="round" stroke-linejoin="round"/>
<path d="M189.645 382.862C190.385 382.862 190.99 382.084 190.99 381.134C190.99 380.184 190.385 379.406 189.645 379.406" stroke="#121212" stroke-width="0.123417" stroke-linecap="round" stroke-linejoin="round"/>
<path d="M189.645 380.813C189.645 380.813 190.064 380.085 190.644 380.64" stroke="#121212" stroke-width="0.123417" stroke-linecap="round" stroke-linejoin="round"/>
<path d="M183.51 378.962L183.843 381.122C183.942 381.418 183.868 381.751 183.658 381.986L183.152 382.516" stroke="#121212" stroke-width="0.123417" stroke-linecap="round" stroke-linejoin="round"/>
<path d="M181.968 384.331C181.968 384.331 184.029 385.565 185.053 383.257" stroke="#121212" stroke-width="0.123417" stroke-linecap="round" stroke-linejoin="round"/>
<path d="M181.141 389.23C181.424 389.366 181.622 389.539 181.856 389.662C182.116 389.81 182.338 390.057 182.609 390.119C182.893 390.181 183.202 390.02 183.473 390.008C183.769 389.983 184.09 390.094 184.349 390.02C184.646 389.934 184.868 389.675 185.102 389.564C185.374 389.44 185.744 389.28 185.917 389.193C185.905 389.193 183.436 390.292 181.141 389.23Z" stroke="#121212" stroke-width="0.123417" stroke-linecap="round" stroke-linejoin="round"/>
<path d="M186.633 388.86V390.798C186.633 391.748 187.398 392.513 188.348 392.513C188.324 395.167 186.176 397.302 183.523 397.302C180.869 397.302 178.722 395.167 178.697 392.513C179.648 392.513 180.413 391.748 180.413 390.798V388.873" stroke="#121212" stroke-width="0.123417" stroke-linecap="round" stroke-linejoin="round"/>
<path d="M165.911 406.188L168.799 396.228C169.083 395.24 169.885 394.475 170.885 394.228L177.364 392.624C177.525 395.895 180.215 398.486 183.523 398.486C186.83 398.486 189.533 395.882 189.681 392.624L196.173 394.228C197.173 394.475 197.975 395.24 198.259 396.24L201.122 406.188H165.911Z" stroke="#121212" stroke-width="0.123417" stroke-linecap="round" stroke-linejoin="round"/>
<path d="M189.681 392.624C189.521 395.895 186.83 398.487 183.523 398.487C180.215 398.487 177.525 395.883 177.364 392.624L178.697 392.501C178.722 395.154 180.869 397.29 183.523 397.29C186.176 397.29 188.324 395.154 188.348 392.501L189.681 392.624Z" stroke="#121212" stroke-width="0.123417" stroke-linecap="round" stroke-linejoin="round"/>
<path d="M178.216 394.217C178.216 394.217 178.549 394.316 178.981 394.118" stroke="#121212" stroke-width="0.123417" stroke-linecap="round" stroke-linejoin="round"/>
<path d="M185.448 396.907C185.448 396.907 185.769 397.327 185.67 397.574" stroke="#121212" stroke-width="0.123417" stroke-linecap="round" stroke-linejoin="round"/>
<path d="M187.607 395.093C187.607 395.093 187.657 395.327 188.138 395.426" stroke="#121212" stroke-width="0.123417" stroke-linecap="round" stroke-linejoin="round"/>
<path d="M189.509 393.76C189.509 393.76 189.126 393.563 188.793 393.661" stroke="#121212" stroke-width="0.123417" stroke-linecap="round" stroke-linejoin="round"/>
<path d="M180.276 397.585C180.276 397.585 180.758 397.351 180.906 396.919" stroke="#121212" stroke-width="0.123417" stroke-linecap="round" stroke-linejoin="round"/>
<path d="M182.018 378.234C182.03 378.332 181.524 378.481 180.882 378.555C180.401 378.616 179.846 378.592 179.438 378.888C179.661 378.295 180.29 378.246 180.845 378.184C181.475 378.11 182.006 378.123 182.018 378.234Z" stroke="#121212" stroke-width="0.123417" stroke-linecap="round" stroke-linejoin="round"/>
<path d="M180.031 379.542C180.031 379.542 180.821 378.949 181.611 379.542" stroke="#121212" stroke-width="0.123417" stroke-linecap="round" stroke-linejoin="round"/>
<path d="M185.016 378.234C185.004 378.332 185.51 378.481 186.151 378.555C186.633 378.616 187.188 378.592 187.595 378.888C187.373 378.295 186.744 378.246 186.188 378.184C185.559 378.11 185.028 378.123 185.016 378.234Z" stroke="#121212" stroke-width="0.123417" stroke-linecap="round" stroke-linejoin="round"/>
<path d="M187.003 379.542C187.003 379.542 186.213 378.949 185.423 379.542" stroke="#121212" stroke-width="0.123417" stroke-linecap="round" stroke-linejoin="round"/>
<path opacity="0.13" d="M180.055 382.861C180.43 382.861 180.734 382.558 180.734 382.183C180.734 381.808 180.43 381.504 180.055 381.504C179.68 381.504 179.376 381.808 179.376 382.183C179.376 382.558 179.68 382.861 180.055 382.861Z" fill="white"/>
</g>
<g clip-path="url(#clip1_6354_40622)">
<rect x="142.645" y="370" width="32" height="32" rx="16" fill="#FDF4DB"/>
<path d="M168.323 396.788C168.178 396.716 168.033 396.643 167.887 396.57C167.294 396.28 166.737 396.049 166.204 395.856C165.441 395.589 164.75 395.395 164.145 395.274C162.679 394.984 161.625 393.688 161.625 392.186V389.194C162.291 388.504 162.643 387.813 162.643 387.813C162.643 387.813 164.581 384.712 164.532 380.643C164.532 380.643 164.508 380.594 164.459 380.509C162.752 379.867 160.814 378.281 159.845 377.433C159.457 377.094 159.227 376.864 159.227 376.864C159.033 377.057 158.815 377.239 158.585 377.421C156.744 378.898 154.079 380.061 152.953 380.522C152.916 380.57 152.892 380.606 152.856 380.643C152.856 380.643 152.638 386.142 155.957 389.194V392.186C155.957 393.688 154.903 394.984 153.437 395.274C152.832 395.395 152.141 395.577 151.378 395.856C150.7 396.098 149.973 396.413 149.21 396.813C149.053 396.897 148.895 396.982 148.726 397.079C148.75 396.691 148.98 393.639 150.773 388.6C151.851 385.597 151.015 381.248 152.347 377.409C154.394 371.522 163.139 370.408 165.319 377.215C167.039 382.508 168.251 395.904 168.323 396.788Z" fill="#121212" stroke="#001432" stroke-width="0.121123" stroke-linecap="round" stroke-linejoin="round"/>
<path d="M166.202 395.855C158.729 401.294 151.462 395.916 151.377 395.855C152.14 395.577 152.83 395.395 153.436 395.274C154.902 394.983 155.955 393.687 155.955 392.185V389.194C152.625 386.141 152.855 380.642 152.855 380.642C152.891 380.606 152.927 380.558 152.952 380.521C154.078 380.061 156.743 378.886 158.584 377.42C158.814 377.239 159.02 377.057 159.226 376.863C159.226 376.863 159.456 377.093 159.843 377.433C160.812 378.293 162.75 379.879 164.458 380.509C164.495 380.594 164.531 380.642 164.531 380.642C164.579 384.712 162.641 387.813 162.641 387.813C162.641 387.813 162.278 388.503 161.624 389.194V392.197C161.624 393.699 162.678 394.995 164.143 395.286C164.749 395.395 165.439 395.589 166.202 395.855Z" fill="#C77250"/>
<path d="M156.15 389.92C156.634 390.744 158.136 392.561 161.612 392.197V389.193C161.612 389.193 160.51 390.514 158.875 390.538C158.875 390.538 157.337 390.526 155.956 389.193C155.956 389.448 156.029 389.702 156.15 389.92Z" fill="#A35235"/>
<path d="M166.202 395.855C158.729 401.294 151.462 395.916 151.377 395.855C152.14 395.577 152.83 395.395 153.436 395.274C154.902 394.983 155.955 393.687 155.955 392.185V389.194C152.625 386.141 152.855 380.642 152.855 380.642C152.891 380.606 152.927 380.558 152.952 380.521C154.078 380.061 156.743 378.886 158.584 377.42C158.814 377.239 159.02 377.057 159.226 376.863C159.226 376.863 159.456 377.093 159.843 377.433C160.812 378.293 162.75 379.879 164.458 380.509C164.495 380.594 164.531 380.642 164.531 380.642C164.579 384.712 162.641 387.813 162.641 387.813C162.641 387.813 162.278 388.503 161.624 389.194V392.197C161.624 393.699 162.678 394.995 164.143 395.286C164.749 395.395 165.439 395.589 166.202 395.855Z" stroke="#001432" stroke-width="0.121123" stroke-linecap="round" stroke-linejoin="round"/>
<path d="M162.643 387.813C162.643 387.813 162.279 388.504 161.625 389.194C160.559 390.296 158.73 391.386 156.393 389.557C156.247 389.436 156.102 389.315 155.957 389.194C154.443 387.801 153.667 385.912 153.268 384.252C153.062 384.276 152.868 384.276 152.686 384.264C152.589 384.252 152.492 384.252 152.396 384.228C151.972 384.155 151.657 383.986 151.427 383.768C151.354 383.695 151.281 383.61 151.233 383.525C150.966 383.114 150.942 382.617 151.087 382.254C151.511 381.164 152.832 381.745 152.892 381.769C152.844 381.067 152.856 380.631 152.856 380.631C152.892 380.594 152.928 380.546 152.953 380.509C154.079 380.049 156.744 378.874 158.585 377.409C158.815 377.227 159.021 377.045 159.227 376.852C159.227 376.852 159.457 377.082 159.845 377.421C160.814 378.281 162.752 379.868 164.459 380.497C164.496 380.582 164.532 380.631 164.532 380.631C164.58 384.712 162.643 387.813 162.643 387.813Z" fill="#C77250" stroke="#001432" stroke-width="0.121123" stroke-linecap="round" stroke-linejoin="round"/>
<path d="M153.449 381.696L152.892 381.781L152.855 381.406L153.364 381.248V381.636L153.449 381.684C153.437 381.696 153.449 381.696 153.449 381.696Z" fill="#A82200" stroke="#121212" stroke-width="0.121123" stroke-miterlimit="10"/>
<path d="M164.543 381.406L164.507 381.781L163.938 381.696L163.95 381.684L164.034 381.636V381.248L164.543 381.406Z" fill="#A82200" stroke="#121212" stroke-width="0.121123" stroke-miterlimit="10"/>
<path d="M164.035 381.261C164.035 381.176 163.974 381.103 163.902 381.079L163.502 380.958C163.502 380.958 163.114 380.328 162.484 380.183C161.867 380.037 160.377 379.904 159.456 380.522C159.166 380.388 158.911 380.352 158.693 380.364C158.475 380.352 158.221 380.388 157.93 380.522C156.998 379.904 155.52 380.037 154.902 380.183C154.272 380.328 153.885 380.958 153.885 380.958L153.497 381.067C153.412 381.091 153.352 381.164 153.364 381.248V381.636L153.449 381.685L153.461 381.697C153.667 381.818 153.824 381.999 153.909 382.23C154.127 382.823 154.696 383.974 155.883 383.974C157.421 383.974 158.124 382.254 158.33 381.6C158.366 381.491 158.342 381.357 158.269 381.273C158.269 381.261 158.257 381.261 158.257 381.248C158.16 381.115 158.221 380.934 158.354 380.849C158.39 380.825 158.439 380.812 158.487 380.812H158.935C158.984 380.812 159.032 380.825 159.069 380.849C159.202 380.921 159.263 381.103 159.166 381.248C159.166 381.261 159.154 381.261 159.154 381.273C159.081 381.357 159.057 381.491 159.093 381.6C159.299 382.254 160.001 383.974 161.54 383.974C162.727 383.974 163.296 382.823 163.514 382.23C163.599 382.012 163.756 381.818 163.962 381.697L163.974 381.685L164.059 381.636L164.035 381.261ZM157.954 381.733C157.809 382.46 156.695 384.107 155.387 383.574C154.466 383.199 154.296 382.169 154.26 381.576C154.236 381.055 154.563 380.558 155.06 380.401C155.532 380.243 156.15 380.255 156.731 380.328C157.809 380.473 158.1 381.006 157.954 381.733ZM163.114 381.576C163.09 382.169 162.908 383.211 162 383.574C160.692 384.107 159.577 382.46 159.432 381.733C159.287 381.006 159.577 380.473 160.643 380.328C161.225 380.243 161.842 380.243 162.315 380.401C162.824 380.57 163.138 381.055 163.114 381.576Z" fill="#FF3000" stroke="#121212" stroke-width="0.121123" stroke-miterlimit="10"/>
<path d="M155.047 379.577C155.592 379.383 156.9 379.892 157.699 379.601C157.699 379.601 156.743 379.189 155.761 379.201L155.047 379.577Z" fill="#380E03"/>
<path d="M151.571 382.847C151.571 382.847 151.959 382.459 152.589 382.944" stroke="#001432" stroke-width="0.121123" stroke-linecap="round" stroke-linejoin="round"/>
<path d="M152.685 384.252V384.264C152.673 384.846 152.31 385.318 151.849 385.318C151.389 385.318 151.014 384.846 151.014 384.252C151.014 383.974 151.098 383.732 151.232 383.538C151.28 383.623 151.353 383.695 151.425 383.78C151.353 383.913 151.304 384.083 151.304 384.252C151.304 384.676 151.559 385.028 151.849 385.028C152.14 385.028 152.394 384.676 152.394 384.252V384.24C152.394 384.107 152.37 383.974 152.322 383.865C152.273 383.744 152.189 383.647 152.092 383.562C152.019 383.501 151.983 383.404 152.055 383.332C152.128 383.271 152.213 383.295 152.285 383.344C152.37 383.404 152.443 383.489 152.491 383.574C152.564 383.671 152.612 383.792 152.637 383.913C152.673 384.022 152.685 384.143 152.685 384.252Z" fill="#F9C833" stroke="#121212" stroke-width="0.121123" stroke-miterlimit="10"/>
<path d="M148.726 397.079C148.726 397.103 148.726 397.128 148.726 397.128" stroke="#D20023" stroke-width="0.121123" stroke-miterlimit="10"/>
<path d="M168.334 396.837C168.334 396.837 168.334 396.824 168.334 396.788" stroke="#D20023" stroke-width="0.121123" stroke-miterlimit="10"/>
<path d="M165.21 380.728C164.968 380.679 164.725 380.607 164.459 380.51" stroke="#C77250" stroke-width="0.121123" stroke-linecap="round" stroke-linejoin="round"/>
<path d="M173.846 404.031C173.846 404.031 159.444 413.77 143.735 404.031C143.662 403.244 143.795 402.481 144.001 401.839C144.353 400.749 145.019 399.78 145.903 399.041C146.86 398.242 148.313 397.333 149.222 396.813C149.343 396.861 155.254 399.162 158.706 399.586C158.706 399.586 165.549 398.751 167.899 396.57C168.941 397.127 170.515 398.072 171.629 398.993C172.744 399.901 173.507 401.173 173.785 402.578C173.858 403.038 173.894 403.523 173.846 404.031Z" fill="#F9C833" stroke="#121212" stroke-width="0.121123" stroke-miterlimit="10"/>
<path d="M149.258 396.788C149.258 396.788 149.246 396.788 149.258 396.788C149.246 396.8 149.234 396.8 149.222 396.812" stroke="#D20023" stroke-width="0.121123" stroke-miterlimit="10"/>
<path d="M167.887 396.571C167.863 396.559 167.838 396.546 167.814 396.534C167.814 396.534 167.814 396.534 167.802 396.534" stroke="#D20023" stroke-width="0.121123" stroke-miterlimit="10"/>
<path d="M158.693 382.823L158.027 385.185C158.003 385.27 158.027 385.367 158.076 385.427L158.524 385.948" stroke="#001432" stroke-width="0.121123" stroke-linecap="round" stroke-linejoin="round"/>
<path d="M157.701 386.892C157.701 386.892 159.639 387.57 160.233 385.705" stroke="#001432" stroke-width="0.121123" stroke-linecap="round" stroke-linejoin="round"/>
<path d="M156.017 382.266C156.264 382.266 156.465 382.049 156.465 381.781C156.465 381.514 156.264 381.297 156.017 381.297C155.769 381.297 155.568 381.514 155.568 381.781C155.568 382.049 155.769 382.266 156.017 382.266Z" fill="#121212"/>
<path d="M161.347 382.266C161.594 382.266 161.795 382.049 161.795 381.781C161.795 381.514 161.594 381.297 161.347 381.297C161.099 381.297 160.898 381.514 160.898 381.781C160.898 382.049 161.099 382.266 161.347 382.266Z" fill="#121212"/>
<path d="M167.886 396.57C165.524 398.75 158.693 399.586 158.693 399.586C155.241 399.162 149.33 396.861 149.209 396.812C149.221 396.8 149.233 396.8 149.245 396.788C149.996 396.401 150.711 396.086 151.377 395.855C151.45 395.916 158.729 401.294 166.202 395.855C166.711 396.037 167.244 396.255 167.801 396.522C167.801 396.522 167.801 396.522 167.813 396.522C167.838 396.546 167.862 396.558 167.886 396.57Z" fill="#F9C833" stroke="#121212" stroke-width="0.121123" stroke-miterlimit="10"/>
<path d="M159.251 401.73H158.33L158.536 400.276H159.045L159.251 401.73Z" fill="#FF404C"/>
<path d="M159.493 379.601C159.493 379.601 160.717 379.225 161.395 379.201C162.073 379.177 162.848 379.625 163.115 380.001C163.115 380.001 162.933 379.746 161.988 379.601C161.104 379.455 160.135 379.879 159.493 379.601Z" fill="#380E03"/>
<path opacity="0.13" d="M157.954 381.733C157.809 382.46 156.695 384.107 155.386 383.574C154.466 383.198 154.296 382.169 154.26 381.575C154.236 381.055 154.563 380.558 155.059 380.401C155.532 380.243 156.15 380.255 156.731 380.328C157.809 380.473 158.1 381.006 157.954 381.733Z" fill="white"/>
<path opacity="0.13" d="M163.114 381.576C163.09 382.169 162.909 383.211 162 383.574C160.692 384.107 159.578 382.46 159.432 381.733C159.287 381.006 159.578 380.473 160.644 380.328C161.225 380.243 161.843 380.243 162.315 380.401C162.824 380.57 163.139 381.055 163.114 381.576Z" fill="white"/>
<path d="M152.431 380.727C152.431 380.727 158.22 378.583 159.977 375.991" stroke="#C77250" stroke-width="0.121123" stroke-linecap="round" stroke-linejoin="round"/>
</g>
<g clip-path="url(#clip2_6354_40622)">
<rect x="118.645" y="370" width="32" height="32" rx="16" fill="#DDCBFF"/>
<path d="M142.351 376.995C141.472 377.212 138.04 377.934 135.414 376.802C135.246 377.091 133.367 380.114 131.633 380.114C131.633 380.114 131.247 379.042 129.79 378.813C131.271 372.165 135.077 371.949 137.968 372.9C139.967 373.55 141.556 375.068 142.351 376.995Z" fill="#7C1700" stroke="#121212" stroke-width="0.120434" stroke-miterlimit="10"/>
<path d="M142.351 376.995C142.46 377.272 142.556 377.561 142.64 377.85C143.315 380.343 143.808 383.86 142.327 386.34C142.026 386.834 141.653 387.256 141.207 387.581C140.737 387.93 140.207 388.195 139.641 388.34C139.051 388.496 138.413 388.532 137.775 388.436L137.931 390.062C138.064 391.278 138.57 392.386 139.352 393.253C139.882 393.844 140.533 394.325 141.279 394.65C141.279 394.867 141.267 395.337 141.171 395.915C140.822 397.866 139.401 401.13 133.861 401.058C126.767 400.973 124.25 394.494 123.816 393.217C123.828 393.217 123.84 393.217 123.853 393.217C124.599 393.145 125.322 392.94 125.972 392.615C127.514 391.856 128.706 390.447 129.152 388.713L129.248 388.328L130.777 382.354C130.428 382.39 129.983 382.402 129.561 382.306C129.32 382.246 129.079 382.161 128.863 382.017C128.465 381.752 128.152 381.306 128.08 380.584C127.923 379.078 128.923 378.789 129.754 378.813C131.211 379.042 131.608 380.102 131.608 380.102C133.343 380.102 135.222 377.067 135.39 376.79C138.028 377.934 141.472 377.212 142.351 376.995Z" fill="#C77250" stroke="#121212" stroke-width="0.120434" stroke-linecap="round" stroke-linejoin="round"/>
<path d="M152.179 405.755C150.204 406.827 148.265 407.73 146.386 408.465C142.4 402.636 143.544 396.939 143.929 395.506C147.868 396.975 150.854 400.299 151.854 404.43L152.179 405.755Z" fill="#C77250" stroke="#001432" stroke-width="0.120434" stroke-linecap="round" stroke-linejoin="round"/>
<path d="M119.842 409.572C114.892 407.922 112.074 405.754 112.074 405.754L113.568 401.346C114.326 399.094 115.723 397.179 117.506 395.77C118.542 394.951 119.722 394.301 120.974 393.855C121.432 395.301 123.455 402.852 119.842 409.572Z" fill="#C77250" stroke="#001432" stroke-width="0.120434" stroke-linecap="round" stroke-linejoin="round"/>
<path d="M131.477 382.246C131.477 382.246 131.2 382.33 130.79 382.367" stroke="#121212" stroke-width="0.120434" stroke-linecap="round" stroke-linejoin="round"/>
<path d="M146.385 408.464C135.173 412.872 125.912 411.596 119.842 409.572C123.455 402.852 121.419 395.301 120.986 393.856C121.889 393.543 122.841 393.326 123.828 393.229C124.262 394.518 126.779 400.985 133.872 401.07C141.062 401.154 141.303 395.614 141.291 394.651C141.532 394.759 141.785 394.855 142.05 394.928L142.917 395.168C143.266 395.265 143.603 395.373 143.929 395.494C143.543 396.939 142.399 402.635 146.385 408.464Z" fill="#121212" stroke="#001432" stroke-width="0.120434" stroke-linecap="round" stroke-linejoin="round"/>
<path d="M127.971 394.579C127.815 394.543 127.694 394.458 127.574 394.374C126.899 393.868 126.321 393.29 125.924 392.676C125.514 392.062 125.273 391.423 125.213 390.785C125.129 389.834 125.442 388.858 125.695 388.075C126.285 386.269 127.465 383.101 128.778 382.042L128.814 382.018L128.923 382.078C129.031 382.15 129.272 382.295 129.549 382.331L129.621 382.439C129.513 382.861 128.573 386.666 129.296 388.328C129.501 388.81 129.814 389.207 130.223 389.497C130.753 389.87 131.271 390.255 131.789 390.641C132.451 391.122 132.849 391.616 133.005 392.146C133.198 392.76 133.017 393.579 132.391 393.904C132.162 394.025 131.921 394.073 131.644 394.073C131.331 394.073 131.006 394.001 130.693 393.929C130.524 393.892 130.356 393.844 130.175 393.82C130.067 393.808 129.958 393.796 129.85 393.796C129.525 393.796 129.212 393.88 128.947 394.037C128.85 394.097 128.766 394.169 128.682 394.254C128.513 394.41 128.332 394.579 128.068 394.579H127.971Z" fill="#7C1700"/>
<path d="M128.839 382.077C128.875 382.077 129.176 382.318 129.561 382.379C129.585 382.379 129.585 382.403 129.585 382.415C129.489 382.812 128.537 386.654 129.26 388.352C129.465 388.822 129.766 389.231 130.211 389.544C130.741 389.918 131.259 390.303 131.777 390.689C132.295 391.074 132.789 391.556 132.981 392.17C133.174 392.784 132.969 393.567 132.403 393.856C132.163 393.976 131.922 394.025 131.681 394.025C131.199 394.025 130.705 393.856 130.224 393.772C130.115 393.76 130.007 393.748 129.886 393.748C129.561 393.748 129.236 393.82 128.947 393.988C128.658 394.157 128.465 394.518 128.104 394.518C128.068 394.518 128.032 394.518 127.983 394.506C127.851 394.482 127.731 394.398 127.61 394.314C126.996 393.856 126.406 393.29 125.972 392.627C125.599 392.061 125.334 391.435 125.274 390.761C125.189 389.845 125.466 388.942 125.755 388.075C126.454 385.992 127.598 383.077 128.839 382.077C128.826 382.077 128.826 382.077 128.839 382.077ZM128.839 381.957H128.79L128.754 381.993C127.429 383.065 126.237 386.257 125.647 388.063C125.394 388.846 125.069 389.833 125.153 390.797C125.213 391.447 125.454 392.086 125.864 392.712C126.273 393.326 126.851 393.916 127.538 394.422C127.658 394.518 127.791 394.603 127.959 394.639C128.008 394.651 128.056 394.651 128.104 394.651C128.381 394.651 128.586 394.47 128.754 394.314C128.839 394.229 128.923 394.157 129.007 394.109C129.26 393.964 129.561 393.88 129.874 393.88C129.983 393.88 130.079 393.892 130.187 393.904C130.356 393.928 130.525 393.964 130.693 394.012C131.006 394.085 131.332 394.157 131.657 394.157C131.946 394.157 132.199 394.097 132.427 393.976C133.078 393.639 133.271 392.784 133.066 392.146C132.897 391.604 132.488 391.098 131.825 390.604C131.307 390.219 130.778 389.845 130.26 389.46C129.862 389.171 129.549 388.786 129.356 388.316C128.646 386.666 129.573 382.884 129.682 382.463L129.694 382.415L129.657 382.342C129.633 382.306 129.597 382.282 129.549 382.27C129.272 382.222 129.043 382.09 128.935 382.017C128.899 381.981 128.875 381.957 128.839 381.957Z" fill="#121212"/>
<path d="M138.353 391.507C138.353 391.58 138.425 391.929 138.425 392.001C138.257 391.555 137.992 390.556 137.944 390.074L137.787 388.448C137.98 388.472 138.172 388.496 138.353 388.496C138.606 389.376 138.365 390.568 138.353 391.507Z" fill="#4A1305" stroke="#121212" stroke-width="0.120434" stroke-miterlimit="10"/>
<path d="M143.893 395.758C143.748 396.107 143.447 396.42 143.062 396.457C142.737 396.493 142.424 396.336 142.135 396.204C141.834 396.059 141.496 395.951 141.171 395.939C141.075 395.939 140.991 395.939 140.894 395.963C140.412 396.047 139.991 396.432 139.497 396.396C138.991 396.36 138.594 395.866 138.546 395.361C138.486 394.855 138.69 394.349 138.955 393.915C139.015 393.807 139.088 393.699 139.16 393.59C139.232 393.482 139.292 393.386 139.365 393.277C139.509 393.06 139.642 392.844 139.75 392.603C139.834 392.41 139.907 392.217 139.967 392.025C139.967 392.013 139.979 392.001 139.979 391.988C140.28 390.844 140.015 389.58 139.666 388.412C139.654 388.388 139.654 388.363 139.642 388.339C140.208 388.243 141.87 387.653 142.665 385.678C143.965 387.894 143.905 392.073 144.025 394.638C144.05 395.011 144.038 395.409 143.893 395.758Z" fill="#7C1700" stroke="#121212" stroke-width="0.120434" stroke-miterlimit="10"/>
<path d="M139.641 388.34C139.653 388.364 139.653 388.388 139.665 388.412C139.641 388.364 139.641 388.34 139.641 388.34Z" fill="#7C1700" stroke="#121212" stroke-width="0.120434" stroke-miterlimit="10"/>
<path d="M144.025 395.168C144.025 395.168 143.989 395.288 143.929 395.505" stroke="#001432" stroke-width="0.120434" stroke-linecap="round" stroke-linejoin="round"/>
<path d="M132.102 390.93C132.089 390.93 132.077 390.93 132.065 390.918C131.776 390.713 131.391 390.436 131.018 390.183C130.717 389.978 130.415 389.762 130.175 389.593C129.753 389.292 129.428 388.882 129.211 388.364C128.476 386.642 129.03 384.185 129.392 382.572L129.44 382.343C129.717 382.343 129.97 382.367 130.259 382.367C130.452 382.367 130.632 382.355 130.789 382.343C130.849 382.475 130.138 388.401 132.15 390.821C132.174 390.845 132.174 390.882 132.15 390.906C132.138 390.918 132.114 390.93 132.102 390.93Z" fill="#7C1700"/>
<path d="M129.488 382.367C129.729 382.427 129.994 382.439 130.247 382.439C130.44 382.439 130.632 382.427 130.777 382.415C130.777 382.415 130.042 388.4 132.09 390.869C131.572 390.484 130.717 389.93 130.199 389.544C129.753 389.231 129.452 388.822 129.247 388.352C128.489 386.57 129.127 383.968 129.488 382.367ZM129.488 382.246C129.464 382.246 129.44 382.258 129.428 382.27C129.404 382.282 129.38 382.318 129.38 382.342L129.332 382.571C128.958 384.197 128.404 386.666 129.151 388.4C129.368 388.918 129.705 389.34 130.139 389.653C130.367 389.821 130.669 390.026 130.97 390.231C131.355 390.496 131.74 390.761 132.029 390.978C132.054 390.99 132.078 391.002 132.102 391.002C132.138 391.002 132.162 390.99 132.186 390.966C132.222 390.917 132.234 390.857 132.186 390.809C130.187 388.4 130.897 382.499 130.897 382.439C130.897 382.403 130.885 382.367 130.861 382.342C130.837 382.318 130.813 382.306 130.777 382.306H130.765C130.644 382.318 130.464 382.33 130.247 382.33C129.97 382.33 129.717 382.306 129.512 382.258C129.512 382.246 129.5 382.246 129.488 382.246Z" fill="#121212"/>
<path d="M126.683 387.762C126.647 388.569 126.707 389.436 127.189 390.098C127.406 390.435 127.755 390.676 128.141 390.785C128.526 390.917 128.935 390.905 129.357 390.893C128.947 390.953 128.526 390.989 128.129 390.857C127.719 390.761 127.346 390.52 127.093 390.17C126.623 389.46 126.539 388.569 126.683 387.762Z" fill="#590600"/>
<path d="M128.464 390.905C128.536 391.532 128.765 392.182 129.319 392.495C129.572 392.664 129.885 392.76 130.186 392.784C130.5 392.808 130.813 392.784 131.138 392.76C130.825 392.832 130.512 392.892 130.186 392.868C129.861 392.844 129.536 392.772 129.259 392.591C128.693 392.218 128.428 391.532 128.464 390.905Z" fill="#590600"/>
<path d="M140.232 393.759C140.582 393.819 140.859 394.12 141.003 394.433C141.124 394.77 141.148 395.132 141.051 395.469C141.039 395.12 141.039 394.782 140.883 394.469C140.774 394.168 140.534 393.915 140.232 393.759Z" fill="#590600"/>
<path d="M140.786 394.181C141.208 393.964 141.641 393.723 141.894 393.326C142.195 392.952 142.292 392.483 142.34 392.001C142.388 392.483 142.267 392.989 141.99 393.398C141.689 393.783 141.256 394.06 140.786 394.181Z" fill="#590600"/>
<path d="M141.749 392.892C141.122 392.302 140.869 391.327 141.122 390.508C141.026 391.351 141.243 392.194 141.749 392.892Z" fill="#590600"/>
<path d="M127.621 389.206C128.019 388.701 128.211 388.062 128.223 387.424C128.259 386.798 128.091 386.135 127.633 385.678C128.175 386.063 128.344 386.798 128.344 387.436C128.296 388.074 128.103 388.749 127.621 389.206Z" fill="#590600"/>
<path d="M132.489 377.754C132.875 377.935 133.26 378.248 133.344 378.705C133.38 378.934 133.332 379.163 133.236 379.368C133.14 379.572 132.995 379.741 132.839 379.91L132.754 379.825C133.055 379.536 133.332 379.151 133.284 378.717C133.236 378.284 132.875 377.947 132.489 377.754Z" fill="#C77250"/>
<path d="M142.317 377.056C141.498 377.272 140.667 377.393 139.824 377.453C138.981 377.513 138.138 377.513 137.295 377.393C136.452 377.272 135.633 377.019 134.898 376.586C134.164 376.164 133.537 375.55 133.128 374.815C134.055 376.249 135.681 377.031 137.319 377.212C138.969 377.453 140.655 377.296 142.293 376.947L142.317 377.056Z" fill="#C77250"/>
<path d="M131.223 376.79C131.235 377.212 131.284 377.645 131.512 378.006C131.705 378.368 132.066 378.633 132.488 378.705C132.042 378.741 131.633 378.428 131.404 378.067C131.199 377.669 131.139 377.212 131.223 376.79Z" fill="#590600"/>
<path d="M136.27 380.114C136.27 380.114 137.426 378.669 139.076 379.488C139.076 379.488 139.63 380.054 137.667 379.668C137.667 379.668 137.185 379.56 136.27 380.114Z" fill="#121212"/>
<path d="M142.977 379.693C142.977 379.693 141.99 378.705 140.822 379.452C140.822 379.452 140.448 379.922 141.894 379.476C141.881 379.476 142.243 379.356 142.977 379.693Z" fill="#121212"/>
<path d="M140.279 380.21L141.291 382.45C141.327 382.57 141.303 382.703 141.219 382.799L140.966 383.088" stroke="#121212" stroke-width="0.120434" stroke-miterlimit="10"/>
<path d="M136.669 384.485C136.693 384.967 136.934 385.449 137.343 385.702C137.873 386.051 138.62 385.93 139.126 385.545C139.126 385.545 138.644 383.967 136.813 383.618C136.705 383.883 136.657 384.172 136.669 384.485Z" fill="#FD8A9B" stroke="#121212" stroke-width="0.120434" stroke-linecap="round" stroke-linejoin="round"/>
<path d="M136.8 383.606C138.642 383.955 139.112 385.533 139.112 385.533C139.485 385.244 139.714 384.811 139.835 384.353C139.955 383.883 139.233 383.751 138.956 383.594C138.679 383.45 138.414 383.257 138.173 383.052C138.004 382.908 137.703 382.438 137.426 382.546C137.318 382.582 137.257 382.679 137.197 382.775C137.173 382.847 136.8 383.606 136.8 383.606Z" fill="#A35235" stroke="#121212" stroke-width="0.120434" stroke-linecap="round" stroke-linejoin="round"/>
<path d="M137.342 380.547C137.342 380.547 137.98 379.981 138.775 380.547" stroke="#121212" stroke-width="0.120434" stroke-miterlimit="10"/>
<path d="M141.388 380.439C141.388 380.439 142.038 380.054 142.484 380.547" stroke="#121212" stroke-width="0.120434" stroke-miterlimit="10"/>
<path opacity="0.13" d="M134.415 382.643C134.887 382.643 135.27 382.26 135.27 381.788C135.27 381.315 134.887 380.933 134.415 380.933C133.942 380.933 133.56 381.315 133.56 381.788C133.56 382.26 133.942 382.643 134.415 382.643Z" fill="white"/>
<path d="M129.91 379.861L130.175 380.066C130.199 380.09 130.247 380.102 130.283 380.102C130.332 380.102 130.368 380.114 130.404 380.138C130.488 380.199 130.5 380.331 130.416 380.403C130.368 380.451 130.283 380.463 130.223 380.427C130.175 380.403 130.139 380.355 130.127 380.307C130.115 380.271 130.103 380.235 130.067 380.211L129.657 379.885" fill="#BAE2FF"/>
<path d="M129.91 379.861L130.175 380.066C130.199 380.09 130.247 380.102 130.283 380.102C130.332 380.102 130.368 380.114 130.404 380.138C130.488 380.199 130.5 380.331 130.416 380.403C130.368 380.451 130.283 380.463 130.223 380.427C130.175 380.403 130.139 380.355 130.127 380.307C130.115 380.271 130.103 380.235 130.067 380.211L129.657 379.885" stroke="#121212" stroke-width="0.060217" stroke-linecap="round" stroke-linejoin="round"/>
<path d="M128.995 380.114C128.995 380.114 129.959 379.439 130.85 380.27" stroke="#121212" stroke-width="0.120434" stroke-linecap="round" stroke-linejoin="round"/>
<path d="M129.056 381.499C129.182 381.499 129.285 381.396 129.285 381.27C129.285 381.143 129.182 381.041 129.056 381.041C128.93 381.041 128.827 381.143 128.827 381.27C128.827 381.396 128.93 381.499 129.056 381.499Z" fill="#BAE2FF" stroke="#121212" stroke-width="0.060217" stroke-linecap="round" stroke-linejoin="round"/>
<path d="M129.597 381.921C129.683 381.921 129.754 381.85 129.754 381.764C129.754 381.678 129.683 381.607 129.597 381.607C129.511 381.607 129.44 381.678 129.44 381.764C129.44 381.85 129.511 381.921 129.597 381.921Z" fill="#BAE2FF" stroke="#121212" stroke-width="0.060217" stroke-linecap="round" stroke-linejoin="round"/>
<path d="M130.199 382.065C130.259 382.065 130.308 382.017 130.308 381.957C130.308 381.897 130.259 381.849 130.199 381.849C130.139 381.849 130.091 381.897 130.091 381.957C130.091 382.017 130.139 382.065 130.199 382.065Z" fill="#BAE2FF" stroke="#121212" stroke-width="0.060217" stroke-linecap="round" stroke-linejoin="round"/>
<path d="M133.668 385.822C133.668 385.822 133.391 390.122 138.329 391.736C138.329 391.736 137.823 390.844 137.775 388.436C137.775 388.436 135.402 388.375 133.668 385.822Z" fill="#A35235"/>
<path d="M133.391 385.389C134.607 387.496 136.365 388.231 137.774 388.436" stroke="#121212" stroke-width="0.120434" stroke-linecap="round" stroke-linejoin="round"/>
<path d="M139.978 391.977C139.978 391.989 139.978 392.001 139.966 392.013C139.918 392.206 139.845 392.411 139.749 392.591C139.568 393.001 139.279 393.362 139.05 393.748C139.038 393.772 139.002 393.808 138.966 393.784C138.954 393.772 138.954 393.76 138.954 393.748C138.894 393.519 138.87 393.266 138.701 393.109C138.533 392.941 138.244 392.881 138.171 392.652C138.147 392.579 138.147 392.507 138.159 392.435C138.171 392.29 138.183 392.134 138.219 391.989C138.28 391.676 138.328 391.423 138.28 391.11C138.244 390.833 138.316 390.52 138.352 390.243C138.424 389.653 138.509 389.051 138.34 388.473C138.773 388.485 139.207 388.437 139.629 388.328C139.629 388.328 139.629 388.328 139.641 388.328C139.653 388.352 139.653 388.376 139.665 388.4C140.002 389.569 140.267 390.833 139.978 391.977Z" fill="#7C1700" stroke="#121212" stroke-width="0.120434" stroke-miterlimit="10"/>
</g>
<rect x="119" y="177" width="160" height="122" rx="8" fill="#F1EAFF"/>
<path d="M133.667 265.782L137.254 267.864C140.84 269.946 148.013 274.11 155.186 271.263C162.359 268.416 169.532 258.558 176.705 258.818C183.878 259.078 191.051 269.456 198.224 274.582C205.397 279.708 212.57 279.581 219.743 277.937C226.916 276.293 234.089 273.131 241.262 266.775C248.435 260.419 255.608 250.87 262.781 244.016" stroke="#C6A9FF" stroke-width="2" stroke-linecap="round"/>
<path d="M147.344 216.08V212.4H134.584V216.08H147.344ZM157.572 226V199.2H153.772C152.652 201.6 151.172 202.52 148.652 202.52H147.612V205.6H153.252V226H157.572ZM181.411 226V222.12H166.171C166.171 219.92 168.251 218.64 170.971 217.24L174.891 215.24C178.331 213.48 181.331 211.12 181.331 206.72C181.331 202.28 178.571 198.8 171.971 198.8C164.571 198.8 161.451 202.96 161.451 207.96V208.6H165.771V208.04C165.771 204.36 166.771 202.76 171.651 202.76C176.091 202.76 177.011 204.4 177.011 206.88C177.011 209.16 175.851 210.36 172.971 211.88L168.851 214C165.091 215.92 161.651 218.24 161.651 223.32V226H181.411Z" fill="black"/>
<path d="M253 210.172L253 198L255 198L255 210.172L260.364 204.808L261.778 206.222L254 214L246.222 206.222L247.636 204.808L253 210.172Z" fill="#A172FD"/>
<rect x="311" y="177" width="160" height="122" rx="8" fill="#EAEEFF"/>
<path d="M325.667 265.782L329.459 267.864C333.25 269.946 340.833 274.11 348.417 271.263C356 268.416 363.583 258.558 371.166 258.818C378.749 259.078 386.333 269.456 393.916 274.582C401.499 279.708 409.082 279.581 416.665 277.937C424.249 276.293 431.832 273.131 439.415 266.775C446.998 260.419 454.581 250.87 462.165 244.016" stroke="#8199FD" stroke-width="2" stroke-linecap="round"/>
<path d="M337.184 220.935V214.415H343.664V210.815H337.184V204.295H333.424V210.815H326.984V214.415H333.424V220.935H337.184ZM356.712 226.415C362.912 226.415 367.072 223.895 367.072 218.735C367.072 214.895 364.832 212.495 361.152 211.975V211.815C364.552 211.335 366.112 209.055 366.112 205.975C366.112 201.295 362.512 198.815 356.472 198.815C349.752 198.815 346.152 202.295 346.152 207.415V207.775H350.392V207.455C350.392 204.095 351.792 202.775 356.432 202.775C360.192 202.775 361.792 203.855 361.792 206.655C361.792 209.455 360.432 210.335 356.912 210.335H352.152V213.935H357.512C361.232 213.935 362.712 214.935 362.712 218.295C362.712 221.415 361.032 222.455 356.792 222.455C351.512 222.455 350.392 221.135 350.392 217.775V217.175H346.152V217.815C346.152 222.935 349.072 226.415 356.712 226.415ZM380.534 226.415C387.934 226.415 391.254 222.815 391.254 217.255C391.254 211.855 387.774 208.655 382.054 208.655C378.534 208.655 376.014 209.735 374.614 210.895H374.494L375.134 203.095H389.814V199.215H371.334L370.414 213.455L374.214 214.055C375.534 213.295 377.454 212.375 380.734 212.375C385.254 212.375 386.974 213.775 386.974 217.375C386.974 221.135 385.414 222.455 380.694 222.455C376.254 222.455 374.254 221.415 374.254 218.415V218.175H369.974V218.415C369.974 223.335 373.574 226.415 380.534 226.415ZM406.007 226.415C413.207 226.415 417.607 221.095 417.607 212.615C417.607 204.135 413.207 198.815 406.007 198.815C398.807 198.815 394.447 204.135 394.447 212.615C394.447 221.095 398.807 226.415 406.007 226.415ZM406.007 222.255C401.247 222.255 399.047 219.695 399.047 212.615C399.047 205.535 401.247 202.975 406.007 202.975C410.767 202.975 413.007 205.535 413.007 212.615C413.007 219.695 410.767 222.255 406.007 222.255Z" fill="black"/>
<path d="M447 201.828V214H445V201.828L439.636 207.192L438.222 205.778L446 198L453.778 205.778L452.364 207.192L447 201.828Z" fill="#5173FB"/>
<path d="M148.812 160V158.11H143.758V156.22H148.602V154.344H143.758V152.51H148.812V150.62H141.658V160H148.812ZM152.156 160L153.612 157.662H153.752L155.25 160H157.686L155.348 156.598V156.458L157.686 152.958H155.334L153.864 155.31H153.738L152.226 152.958H149.804L152.142 156.374V156.5L149.804 160H152.156ZM160.734 152.16V150.62H158.648L158.676 152.16H160.734ZM160.776 160V152.958H158.676V160H160.776ZM165.713 160.028C166.203 160.028 166.749 159.958 167.085 159.888V158.138H166.217C165.307 158.138 165.097 158.068 165.097 157.452V154.694H167.085V152.958H165.097V151.32H163.445L163.053 152.958H161.877V154.694H162.997V157.69C162.997 159.356 163.879 160.028 165.713 160.028ZM171.701 160.14C173.717 160.14 175.005 159.258 175.005 157.76V157.62H172.933V157.704C172.933 158.138 172.569 158.32 171.729 158.32C170.581 158.32 170.189 157.928 170.147 156.948H174.977C175.019 156.71 175.075 156.304 175.075 155.912C175.075 154.078 173.829 152.818 171.715 152.818C169.517 152.818 168.173 154.246 168.173 156.5C168.173 158.726 169.279 160.14 171.701 160.14ZM171.645 154.54C172.625 154.54 173.101 154.946 173.059 155.674H170.161C170.245 154.932 170.637 154.54 171.645 154.54ZM179.523 160.14C180.559 160.14 181.357 159.72 181.721 158.964H181.791V160H183.737V150.62H181.651V153.882H181.567C181.245 153.294 180.601 152.818 179.523 152.818C177.605 152.818 176.471 154.26 176.471 156.486C176.471 158.698 177.535 160.14 179.523 160.14ZM178.557 156.486C178.557 155.198 178.893 154.61 180.111 154.61C181.105 154.61 181.651 154.96 181.651 155.912V157.046C181.651 157.998 181.105 158.348 180.111 158.348C178.893 158.348 178.557 157.76 178.557 156.486Z" fill="black"/>
<path d="M126.572 164C126.529 164 126.486 163.986 126.45 163.958C126.376 163.899 126.354 163.797 126.397 163.713L128.028 160.694H125.63C125.548 160.694 125.423 160.679 125.365 160.554C125.311 160.439 125.338 160.33 125.387 160.222L127.083 155.972C127.12 155.94 130.343 156.157 130.389 156.157C130.432 156.157 130.475 156.171 130.51 156.2C130.585 156.258 130.607 156.361 130.563 156.445L128.761 159.278H131.137C131.219 159.278 131.292 159.329 131.322 159.406C131.35 159.483 131.328 159.57 131.265 159.624L126.701 163.952C126.664 163.984 126.618 164 126.572 164Z" fill="#F4900C"/>
<path d="M133.222 148.889C132.833 148.889 132.457 148.948 132.104 149.057C131.685 147.86 130.549 147 129.208 147C127.771 147 126.568 147.99 126.234 149.324C125.878 149.055 125.44 148.889 124.958 148.889C123.785 148.889 122.833 149.84 122.833 151.014C122.833 151.299 122.891 151.57 122.993 151.819C122.791 151.762 122.582 151.722 122.361 151.722C121.057 151.722 120 152.779 120 154.083C120 155.388 121.057 156.444 122.361 156.444H133.222C135.308 156.444 137 154.753 137 152.667C137 150.58 135.308 148.889 133.222 148.889Z" fill="#E1E8ED"/>
<path d="M336.956 160.14C339.756 160.14 341.45 158.236 341.45 155.31C341.45 152.384 339.756 150.48 336.956 150.48C334.156 150.48 332.448 152.384 332.448 155.31C332.448 158.236 334.156 160.14 336.956 160.14ZM336.956 158.11C335.346 158.11 334.688 157.508 334.688 155.31C334.688 153.112 335.346 152.51 336.956 152.51C338.566 152.51 339.21 153.112 339.21 155.31C339.21 157.508 338.566 158.11 336.956 158.11ZM345.188 160V156.01C345.188 154.946 345.622 154.624 346.63 154.624C347.694 154.624 348.016 154.974 348.016 155.954V160H350.116V155.534C350.116 154.036 349.332 152.818 347.498 152.818C346.266 152.818 345.51 153.392 345.132 154.19H345.048V152.958H343.102V160H345.188ZM353.853 160V158.964H353.923C354.301 159.72 355.141 160.14 356.233 160.14C358.151 160.14 359.173 158.698 359.173 156.486C359.173 154.26 358.151 152.818 356.219 152.818C355.155 152.818 354.399 153.35 354.077 153.938H353.993V150.62H351.907V160H353.853ZM353.993 157.046V155.912C353.993 154.96 354.553 154.61 355.547 154.61C356.765 154.61 357.087 155.198 357.087 156.486C357.087 157.76 356.751 158.348 355.547 158.348C354.553 158.348 353.993 157.998 353.993 157.046ZM364.125 160.14C366.379 160.14 367.695 158.712 367.695 156.486C367.695 154.246 366.379 152.818 364.125 152.818C361.857 152.818 360.513 154.246 360.513 156.486C360.513 158.712 361.857 160.14 364.125 160.14ZM364.125 158.292C362.977 158.292 362.585 157.844 362.585 156.486C362.585 155.114 362.977 154.666 364.125 154.666C365.259 154.666 365.651 155.114 365.651 156.486C365.651 157.844 365.259 158.292 364.125 158.292ZM371.215 160.14C372.517 160.14 373.231 159.566 373.609 159.048H373.693V160H375.639V155.828C375.639 153.952 374.547 152.818 372.475 152.818C370.487 152.818 369.185 153.924 369.185 155.604V155.758H371.187V155.604C371.187 154.89 371.523 154.652 372.377 154.652C373.203 154.652 373.651 154.806 373.651 155.632V155.856L371.243 156.22C369.787 156.444 369.003 157.116 369.003 158.208C369.003 159.482 369.969 160.14 371.215 160.14ZM371.005 158.04C371.005 157.746 371.201 157.606 371.635 157.536L373.651 157.228C373.651 158.32 372.769 158.544 371.915 158.544C371.299 158.544 371.005 158.418 371.005 158.04ZM379.53 160V155.59C379.53 154.82 379.838 154.596 380.482 154.596C381.14 154.596 381.378 154.834 381.378 155.59V155.968H383.464V155.324C383.464 153.91 382.918 152.818 381.448 152.818C380.454 152.818 379.824 153.378 379.474 154.092H379.39V152.958H377.444V160H379.53ZM387.654 160.14C388.69 160.14 389.488 159.72 389.852 158.964H389.922V160H391.868V150.62H389.782V153.882H389.698C389.376 153.294 388.732 152.818 387.654 152.818C385.736 152.818 384.602 154.26 384.602 156.486C384.602 158.698 385.666 160.14 387.654 160.14ZM386.688 156.486C386.688 155.198 387.024 154.61 388.242 154.61C389.236 154.61 389.782 154.96 389.782 155.912V157.046C389.782 157.998 389.236 158.348 388.242 158.348C387.024 158.348 386.688 157.76 386.688 156.486ZM396.92 160.14C398.936 160.14 400.224 159.258 400.224 157.76V157.62H398.152V157.704C398.152 158.138 397.788 158.32 396.948 158.32C395.8 158.32 395.408 157.928 395.366 156.948H400.196C400.238 156.71 400.294 156.304 400.294 155.912C400.294 154.078 399.048 152.818 396.934 152.818C394.736 152.818 393.392 154.246 393.392 156.5C393.392 158.726 394.498 160.14 396.92 160.14ZM396.864 154.54C397.844 154.54 398.32 154.946 398.278 155.674H395.38C395.464 154.932 395.856 154.54 396.864 154.54ZM404.742 160.14C405.778 160.14 406.576 159.72 406.94 158.964H407.01V160H408.956V150.62H406.87V153.882H406.786C406.464 153.294 405.82 152.818 404.742 152.818C402.824 152.818 401.69 154.26 401.69 156.486C401.69 158.698 402.754 160.14 404.742 160.14ZM403.776 156.486C403.776 155.198 404.112 154.61 405.33 154.61C406.324 154.61 406.87 154.96 406.87 155.912V157.046C406.87 157.998 406.324 158.348 405.33 158.348C404.112 158.348 403.776 157.76 403.776 156.486Z" fill="black"/>
<path d="M327.219 154.977L323.017 153.422L321.448 148.279C321.387 148.08 321.203 147.944 320.996 147.944C320.789 147.944 320.605 148.08 320.545 148.279L318.976 153.422L314.773 154.977C314.588 155.046 314.465 155.222 314.465 155.42C314.465 155.617 314.588 155.795 314.773 155.863L318.974 157.418L320.543 162.718C320.603 162.918 320.787 163.055 320.996 163.055C321.205 163.055 321.39 162.918 321.449 162.717L323.019 157.418L327.22 155.863C327.404 155.795 327.527 155.618 327.527 155.42C327.527 155.223 327.404 155.046 327.219 154.977Z" fill="#FFAC33"/>
<path d="M317.775 160.173L316.683 159.768L316.258 158.21C316.202 158.004 316.015 157.862 315.802 157.862C315.589 157.862 315.403 158.004 315.347 158.21L314.922 159.768L313.83 160.172C313.644 160.241 313.521 160.418 313.521 160.615C313.521 160.812 313.644 160.99 313.83 161.058L314.916 161.461L315.344 163.171C315.397 163.381 315.586 163.528 315.802 163.528C316.019 163.528 316.208 163.381 316.261 163.171L316.689 161.46L317.775 161.058C317.961 160.99 318.084 160.812 318.084 160.615C318.084 160.418 317.961 160.241 317.775 160.173ZM315.727 149.943L314.611 149.53L314.197 148.413C314.128 148.227 313.952 148.104 313.754 148.104C313.557 148.104 313.38 148.227 313.311 148.413L312.898 149.53L311.781 149.943C311.595 150.012 311.473 150.188 311.473 150.386C311.473 150.583 311.595 150.76 311.781 150.829L312.898 151.242L313.311 152.359C313.38 152.544 313.557 152.667 313.754 152.667C313.951 152.667 314.128 152.544 314.197 152.359L314.61 151.242L315.727 150.829C315.912 150.76 316.035 150.583 316.035 150.386C316.035 150.188 315.912 150.012 315.727 149.943Z" fill="#FFCC4D"/>
<rect x="311.473" y="382.272" width="113" height="8" rx="4" fill="#EBEFF6"/>
<rect x="311" y="435" width="143" height="8" rx="4" fill="#EBEFF6"/>
<rect x="311" y="408.637" width="57" height="8" rx="4" fill="#EBEFF6"/>
<rect x="379" y="408.637" width="102" height="8" rx="4" fill="#EBEFF6"/>
<rect x="-1" y="1" width="419" height="345" rx="7" transform="matrix(-1 0 0 1 515 125)" stroke="#E1E8F2" stroke-width="2" stroke-dasharray="8 8"/>
<defs>
<clipPath id="clip0_6354_40622">
<rect x="166.645" y="370" width="32" height="32" rx="16" fill="white"/>
</clipPath>
<clipPath id="clip1_6354_40622">
<rect x="142.645" y="370" width="32" height="32" rx="16" fill="white"/>
</clipPath>
<clipPath id="clip2_6354_40622">
<rect x="118.645" y="370" width="32" height="32" rx="16" fill="white"/>
</clipPath>
</defs>
</svg>
