<svg xmlns="http://www.w3.org/2000/svg" xmlns:xlink="http://www.w3.org/1999/xlink" width="608" height="560" fill="none" xmlns:v="https://vecta.io/nano"><style><![CDATA[.B{stroke-linejoin:round}.C{stroke-linecap:round}.D{stroke:#121212}.E{fill:#fff}.F{stroke-miterlimit:10}.G{fill:#121212}.H{stroke-width:.12}.I{stroke:#001432}.J{stroke-width:.121}.K{fill:#c77250}.L{fill:#7c1700}.M{fill:#5c913b}.N{stroke-width:.123}.O{fill:#dd2e44}.P{fill:#a35235}.Q{fill:#f9c833}.R{fill:#ccd6dd}.S{fill:#77b255}.T{fill:#636369}.U{stroke:#dfe7f2}]]></style><g stroke="#97969c" stroke-dasharray="4 4"><path d="M559.504-31.556v78.64m0 544.473v-280.31m0-65.742V97.287M457.312-31.179l.001 402.046m0 220.515V395.539M355.621-31.368v164.793m0 457.954v-81.246m0-293.993v244.395M252.93-31.179v90.743m0 531.81V83.867M150.739-31.366l-.001 373.692m0 249.057V425.4M48.547-31.558V152.27m0 439.102V288.354m0-90.065v72.832"/><path d="M0 487.054h330.227m277.773 0H379.607M0 383.261h112.263m495.737 0H469.346m-278.878 0h254.206M0 175.675h25.672m582.328 0H396.708m-80.708 0H73.358M0 279.468h39.48m568.521 0h-15.322m-65.324 0H57.12M0 71.882h239.558m368.442 0h-25.121m-48.339 0H265.522"/><use xlink:href="#G"/><path d="M559.48 95.8l10.183-13.818L583.48 71.8l-13.817-10.182L559.48 47.8l-10.182 13.818L535.48 71.8l13.818 10.182L559.48 95.8z"/><use xlink:href="#G" x="-307.019" y="-311.504"/><path d="M559.469 311.384l13.576-18.424 18.424-13.576-18.424-13.577-13.576-18.423-13.577 18.423-18.423 13.577 18.423 13.576 13.577 18.424zM150.754 423.29l16.97-23.029 23.03-16.971-23.03-16.971-16.97-23.029-16.971 23.029-23.029 16.971 23.029 16.971 16.971 23.029zm204.867-207.609l16.971-23.03 23.029-16.97-23.029-16.971-16.971-23.029-16.97 23.029-23.03 16.971 23.03 16.97 16.97 23.03z"/><circle r="12" transform="matrix(1 0 0 -1 457.246 383.261)"/><circle r="8" transform="matrix(1 0 0 -1 48.5469 279.468)"/><circle r="12" transform="matrix(1 0 0 -1 252.598 71.8818)"/></g><g transform="matrix(-1 0 0 1 543.328 73.0015)"><rect x="-2" y="2" width="441.955" height="422.315" rx="6" class="G"/><rect x="-2" y="2" width="441.955" height="422.315" rx="6" stroke-width="4" class="D"/></g><g transform="matrix(-1 0 0 1 525.039 60.082)"><rect x="-2" y="2" width="441.12" height="419.085" rx="6" fill="#f5f6f8"/><rect x="-2" y="2" width="441.12" height="419.085" rx="6" stroke-width="4" class="D"/></g><rect x="96" y="73" width="422" height="38" rx="4" class="E"/><rect x="113" y="87" width="10" height="10" rx="5" fill="#eb5757"/><rect x="131" y="87" width="10" height="10" rx="5" fill="#f2c94c"/><rect x="149" y="87" width="10" height="10" rx="5" fill="#27ae60"/><g fill="#e7edf5"><path d="M492.438 86a1 1 0 1 0-2 0h2zm-2 12a1 1 0 1 0 2 0h-2zm0-12v12h2V86h-2z"/><path d="M497.437 93a1 1 0 1 0 .001-2l-.001 2zm-11.999-2a1 1 0 1 0-.001 2l.001-2zm12 0h-12l-.001 2h12l.001-2z"/></g><rect x="-1" y="1" width="419" height="345" rx="7" transform="matrix(-1 0 0 1 515 124)" fill="#f5f6f8"/><path d="M124.688 351.729v-12.06h-2.448c-.576 1.08-1.278 1.494-2.412 1.494h-.54v1.926h2.718v8.64h2.682zm11.918 0v-2.43h-4.608l-1.944.036c0-.576.738-.954 1.728-1.404l1.818-.792c1.566-.702 3.042-1.764 3.042-3.852 0-2.178-1.278-3.798-4.464-3.798-3.582 0-5.022 1.926-5.022 4.266v.288h2.7v-.306c0-1.296.36-1.782 2.106-1.782 1.602 0 1.998.486 1.998 1.35 0 .792-.378 1.188-1.44 1.692l-2.088.99c-1.674.81-3.258 1.782-3.258 4.122v1.62h9.432zm7.484.18c3.42 0 5.13-2.052 5.13-6.156 0-4.284-1.386-6.264-5.238-6.264-3.222 0-4.914 1.548-4.914 3.978 0 2.286 1.35 3.654 3.978 3.654 1.8 0 2.754-.612 3.294-1.404h.09v1.044c0 1.872-.396 2.574-2.16 2.574-1.332 0-1.89-.36-1.89-1.26v-.108h-2.862v.108c0 2.322 1.728 3.834 4.572 3.834zm-.126-6.966c-1.728 0-2.25-.396-2.25-1.422 0-1.044.522-1.44 2.25-1.44 1.692 0 2.232.396 2.232 1.44 0 1.026-.54 1.422-2.232 1.422zm16.825 6.966c3.564 0 5.49-1.872 5.49-4.86v-.162h-2.88v.09c0 1.728-.72 2.322-2.628 2.322-2.034 0-2.88-.738-2.88-3.6s.846-3.6 2.88-3.6c1.908 0 2.628.594 2.628 2.322v.09h2.88v-.162c0-2.988-1.926-4.86-5.49-4.86-3.618 0-5.778 2.448-5.778 6.21s2.16 6.21 5.778 6.21zm10.754 0c1.584 0 2.538-.72 3.042-1.764h.09v1.584h2.502v-9.054h-2.682v5.13c0 1.368-.558 1.782-1.854 1.782-1.35 0-1.782-.45-1.782-1.71v-5.202h-2.682v5.742c0 1.926.99 3.492 3.366 3.492zm11.771 0c2.502 0 3.888-1.08 3.888-2.772 0-1.476-.792-2.34-2.7-2.7l-1.656-.342c-1.08-.216-1.242-.342-1.242-.774s.252-.666 1.332-.666c1.152 0 1.404.324 1.404.918v.252h2.574v-.252c0-2.034-1.692-3.078-3.906-3.078-2.574 0-3.942 1.188-3.942 2.862s.972 2.43 2.754 2.754l1.368.252c1.206.216 1.458.324 1.458.81 0 .45-.18.612-1.278.612-1.314 0-1.71-.144-1.71-.81v-.378h-2.574v.054c0 2.196 1.386 3.258 4.23 3.258zm9.702-.144a9.52 9.52 0 0 0 1.764-.18v-2.25h-1.116c-1.17 0-1.44-.09-1.44-.882v-3.546h2.556v-2.232h-2.556v-2.106H190.1l-.504 2.106h-1.512v2.232h1.44v3.852c0 2.142 1.134 3.006 3.492 3.006zm7.628.144c2.898 0 4.59-1.836 4.59-4.698 0-2.88-1.692-4.716-4.59-4.716-2.916 0-4.644 1.836-4.644 4.716 0 2.862 1.728 4.698 4.644 4.698zm0-2.376c-1.476 0-1.98-.576-1.98-2.322 0-1.764.504-2.34 1.98-2.34 1.458 0 1.962.576 1.962 2.34 0 1.746-.504 2.322-1.962 2.322zm9.044 2.196v-5.238c0-1.278.54-1.674 1.764-1.674 1.296 0 1.692.45 1.692 1.71v5.202h2.7v-5.202c0-1.314.522-1.71 1.746-1.71 1.314 0 1.692.45 1.692 1.71v5.202h2.7v-5.742c0-1.926-.954-3.492-3.294-3.492-1.674 0-2.574.774-3.078 1.764h-.09c-.45-1.062-1.386-1.764-2.934-1.764s-2.484.738-2.97 1.764h-.108v-1.584h-2.502v9.054h2.682zm18.594.18c2.592 0 4.248-1.134 4.248-3.06v-.18h-2.664v.108c0 .558-.468.792-1.548.792-1.476 0-1.98-.504-2.034-1.764h6.21a8.16 8.16 0 0 0 .126-1.332c0-2.358-1.602-3.978-4.32-3.978-2.826 0-4.554 1.836-4.554 4.734 0 2.862 1.422 4.68 4.536 4.68zm-.072-7.2c1.26 0 1.872.522 1.818 1.458h-3.726c.108-.954.612-1.458 1.908-1.458zm8.926 7.02v-5.67c0-.99.396-1.278 1.224-1.278.846 0 1.152.306 1.152 1.278v.486h2.682v-.828c0-1.818-.702-3.222-2.592-3.222-1.278 0-2.088.72-2.538 1.638h-.108v-1.458h-2.502v9.054h2.682zm10.713.18c2.502 0 3.888-1.08 3.888-2.772 0-1.476-.792-2.34-2.7-2.7l-1.656-.342c-1.08-.216-1.242-.342-1.242-.774s.252-.666 1.332-.666c1.152 0 1.404.324 1.404.918v.252h2.574v-.252c0-2.034-1.692-3.078-3.906-3.078-2.574 0-3.942 1.188-3.942 2.862s.972 2.43 2.754 2.754l1.368.252c1.206.216 1.458.324 1.458.81 0 .45-.18.612-1.278.612-1.314 0-1.71-.144-1.71-.81v-.378h-2.574v.054c0 2.196 1.386 3.258 4.23 3.258z" fill="#000"/><g clip-path="url(#A)"><rect x="167.023" y="373" width="32" height="32" rx="16" fill="#eaeeff"/><g fill="#bd6446"><path d="M177.755 382.406v3.456c-.74 0-1.345-.778-1.345-1.728s.605-1.728 1.345-1.728zm13.601 1.728v.074.037.05.049.049c0 .013 0 .038-.012.05 0 .012 0 .037-.013.049 0 .013 0 .037-.012.05v.024c0 .025-.012.037-.012.062s-.013.037-.013.062-.012.037-.012.061c0 .013-.012.037-.012.05 0 .024-.013.037-.013.049-.012.037-.024.074-.049.111-.012.013-.012.037-.025.05-.062.148-.148.271-.247.394l-.037.038-.061.061-.087.087c-.012.012-.024.012-.024.024-.025.013-.037.037-.062.05l-.012.012c-.013.012-.038.025-.05.037s-.025.012-.049.025c-.013.012-.025.012-.05.024l-.185.074c-.012 0-.024.013-.037.013-.024 0-.049.012-.061.012s-.037.012-.05.012h-.024-.062-.037-.025-.012l.012-2.073v-1.37h.037.037.037.037c.05.012.087.012.136.025.012 0 .012 0 .025.012.012 0 .024.013.024.013.013 0 .013 0 .025.012.012 0 .012.012.025.012.024.013.049.025.061.025.025.012.037.025.062.025.025.012.037.024.062.037s.037.024.062.037c.037.024.074.061.111.086l.049.049.037.037.037.037c.025.025.037.037.049.062l.111.161c.013.012.025.024.025.049a1.82 1.82 0 0 1 .222.58c0 .025.013.049.013.086 0 .013 0 .025.012.05 0 .012 0 .037.012.049 0 .025.013.062.013.087a.16.16 0 0 0 .012.074v.074c0-.013 0 .012 0 .024z"/></g><path d="M188.727 395.501c-.024 2.653-2.172 4.788-4.825 4.788s-4.801-2.135-4.826-4.788c.469 0 .901-.198 1.21-.506a1.79 1.79 0 0 0 .432-.716c.049-.161.074-.321.074-.506v-3.703h6.22v3.703c0 .962.765 1.728 1.715 1.728z" fill="#c67250"/><path d="M187.012 390.095v2.172c-1.123 1.345-2.851 2.209-4.789 2.209a6.18 6.18 0 0 1-1.518-.185 1.68 1.68 0 0 0 .074-.506v-3.702h6.233v.012z" fill="#a15235"/><path d="M188.999 379.111c.555 1.185 1.049 1.555 1.049 2.962v.333 1.37l-.012 2.073-.013.914c0 2.159-1.209 4.06-3.011 5.084-.296.173-.605.309-.926.432a6.47 6.47 0 0 1-1.9.383l-.296.012c-.84 0-1.642-.16-2.358-.456-.259-.099-.506-.222-.74-.358-1.814-1.025-3.036-2.925-3.036-5.097v-.914-3.455-.321c0-1.617.58-2.185 1.185-3.295a5.63 5.63 0 0 1 4.949-2.938l1.592.235c.061.025.123.037.185.062a5.49 5.49 0 0 1 1.246.592c.025.012.062.037.087.049l.16.111c.05.037.111.074.161.124.209.16.407.333.592.53l.074.075.136.148c.136.148.259.308.37.469l.173.246.333.63z" fill="#c67250"/><path d="M190.035 382.073v.333.408c-.173-.469-.543-1.494-.839-1.988-.21-.37-.235-.962-.346-1.481-.111-.53-.58-.913-1.11-.913h-7.714c-.543 0-1.012.383-1.111.913-.111.519-.123 1.111-.345 1.481-.272.469-.63 1.407-.802 1.901v-.666c0-1.617.58-2.185 1.184-3.296.988-1.814 2.888-2.937 4.949-2.937a5.63 5.63 0 0 1 3.036.889 5.67 5.67 0 0 1 2.086 2.382c.531 1.197 1.012 1.567 1.012 2.974z" fill="#77403a"/><g stroke="#fdbfd9" class="B C F N"><path d="M177.756 383.813s-.58-.691-.963-.098m13.23.098s.42-.728 1-.173"/></g><g class="G"><path d="M181.52 392.23c.283.136.481.309.715.432.26.148.482.395.753.457.284.062.593-.099.864-.111.296-.025.617.086.876.012.297-.086.519-.345.753-.456l.815-.371c-.013 0-2.481 1.099-4.776.037z"/><use xlink:href="#H"/></g><use xlink:href="#I" fill="#333"/><g stroke="#333" class="B C F N"><path d="M178.595 397.216s.333.099.765-.098m6.467 2.789s.321.419.222.666m1.937-2.481s.05.235.531.334m1.371-1.666s-.383-.198-.716-.099m-8.517 3.924s.482-.234.63-.666"/></g><use xlink:href="#J" class="G"/><path d="M180.41 382.542s.79-.592 1.58 0" class="B C D N"/><path d="M185.396 381.234c-.013.098.493.247 1.135.321.481.061 1.037.037 1.444.333-.222-.593-.851-.642-1.407-.704-.629-.074-1.16-.061-1.172.05z" class="G"/><g class="B D N"><path d="M187.382 382.542s-.789-.592-1.579 0" class="C"/><path d="M190.035 382.406v1.37l-.012 2.073-.012.914c0 3.258-2.74 5.911-6.134 5.911-3.382 0-6.134-2.641-6.134-5.911v-4.69c0-1.617.58-2.185 1.185-3.295a5.63 5.63 0 0 1 10.058.321c.556 1.184 1.049 1.555 1.049 2.962v.345z"/><g class="C"><path d="M177.755 385.862c-.74 0-1.345-.778-1.345-1.728s.605-1.728 1.345-1.728m.001 1.407s-.58-.691-.963-.098m13.23 2.147c.741 0 1.346-.778 1.346-1.728s-.605-1.728-1.346-1.728"/><path d="M190.023 383.813s.42-.728 1-.173m-7.134-1.678l.333 2.16c.099.296.025.629-.185.864l-.506.53m-1.184 1.815s2.061 1.234 3.085-1.074"/></g><path d="M181.52 392.23c.283.136.481.308.715.432.26.148.482.395.753.456.284.062.593-.098.864-.111.296-.024.617.087.876.013.297-.087.519-.346.753-.457l.815-.37c-.013 0-2.481 1.098-4.776.037z"/><path d="M187.012 391.86v1.938a1.71 1.71 0 0 0 1.715 1.715c-.024 2.653-2.172 4.789-4.825 4.789s-4.801-2.136-4.826-4.789c.95 0 1.716-.765 1.716-1.715v-1.926" class="C"/><use xlink:href="#H"/><use xlink:href="#I"/><g class="C"><path d="M178.595 397.216s.333.099.765-.099m6.467 2.79s.321.419.222.666m1.937-2.481s.05.235.531.334m1.371-1.667s-.383-.197-.716-.099m-8.517 3.925s.482-.234.63-.666"/></g><use xlink:href="#J"/><path d="M180.41 382.542s.79-.592 1.58 0" class="C"/><path d="M185.395 381.234c-.013.098.493.247 1.135.321.482.061 1.037.037 1.444.333-.222-.593-.851-.642-1.407-.704-.629-.074-1.16-.061-1.172.05z"/><path d="M187.381 382.542s-.789-.592-1.579 0" class="C"/></g><path opacity=".13" d="M180.434 385.862a.68.68 0 0 0 .678-.679.68.68 0 0 0-.678-.679.68.68 0 0 0-.679.679.68.68 0 0 0 .679.679z" class="E"/></g><g clip-path="url(#B)"><rect x="143.023" y="373" width="32" height="32" rx="16" fill="#fefaed"/><path d="M168.702 399.788l-.436-.218c-.593-.291-1.151-.521-1.684-.715a15.69 15.69 0 0 0-2.059-.581c-1.465-.291-2.519-1.587-2.519-3.089v-2.992c.666-.69 1.017-1.38 1.017-1.38s1.938-3.101 1.89-7.171l-.073-.133c-1.707-.642-3.645-2.229-4.614-3.077l-.618-.569a7.21 7.21 0 0 1-.642.557c-1.841 1.478-4.506 2.641-5.632 3.101-.037.048-.061.085-.097.121 0 0-.218 5.499 3.101 8.551v2.992c0 1.502-1.054 2.798-2.52 3.089-.605.121-1.296.303-2.059.581a16.97 16.97 0 0 0-2.168.957l-.485.267c.025-.388.255-3.44 2.047-8.479 1.078-3.004.243-7.352 1.575-11.192 2.047-5.886 10.792-7.001 12.972-.194 1.72 5.293 2.931 18.69 3.004 19.574z" class="B G I J"/><use xlink:href="#K" class="K"/><path d="M156.529 392.92c.484.824 1.986 2.641 5.462 2.277v-3.004s-1.102 1.321-2.737 1.345c0 0-1.538-.012-2.919-1.345 0 .255.073.509.194.727z" class="P"/><g class="B I J"><use xlink:href="#K"/><path d="M163.021 390.813s-.363.69-1.017 1.38c-1.066 1.103-2.895 2.193-5.233.364l-.436-.364c-1.514-1.392-2.289-3.282-2.688-4.941-.206.024-.4.024-.582.012-.097-.012-.194-.012-.291-.037a1.82 1.82 0 0 1-.969-.46c-.072-.072-.145-.157-.193-.242-.267-.412-.291-.908-.146-1.272.424-1.09 1.744-.509 1.805-.484l-.036-1.139c.036-.036.072-.085.097-.121 1.126-.46 3.791-1.635 5.632-3.101l.642-.557.617.569c.969.86 2.907 2.447 4.615 3.077a.72.72 0 0 0 .073.133c.048 4.082-1.89 7.183-1.89 7.183z" class="K"/></g><g fill="#a82200" class="D F J"><path d="M153.828 384.696l-.557.084-.037-.375.509-.157v.387l.085.049zm11.094-.291l-.036.375-.57-.084.013-.012.084-.049v-.387l.509.157z"/></g><path d="M164.414 384.26c0-.085-.061-.158-.134-.182l-.399-.121s-.388-.63-1.018-.775c-.617-.146-2.107-.279-3.028.339-.29-.133-.545-.17-.763-.158a1.6 1.6 0 0 0-.763.158c-.933-.618-2.41-.485-3.028-.339-.63.145-1.017.775-1.017.775l-.388.109c-.085.024-.145.097-.133.181v.388l.085.049.012.012a1.02 1.02 0 0 1 .448.533c.218.593.787 1.744 1.974 1.744 1.538 0 2.241-1.72 2.447-2.374.036-.109.012-.242-.061-.327 0-.012-.012-.012-.012-.025-.097-.133-.036-.314.097-.399.036-.024.085-.037.133-.037h.448a.25.25 0 0 1 .134.037.28.28 0 0 1 .097.399c0 .013-.013.013-.013.025-.072.085-.096.218-.06.327.206.654.908 2.374 2.447 2.374 1.187 0 1.756-1.151 1.974-1.744a1.07 1.07 0 0 1 .448-.533l.012-.012.085-.049-.024-.375zm-6.081.472c-.145.727-1.259 2.374-2.567 1.841-.921-.375-1.091-1.405-1.127-1.998a1.18 1.18 0 0 1 .799-1.175c.473-.158 1.091-.146 1.672-.073 1.078.145 1.369.678 1.223 1.405zm5.16-.157c-.024.593-.206 1.635-1.114 1.998-1.308.533-2.423-1.114-2.568-1.841s.145-1.26 1.211-1.405c.582-.085 1.199-.085 1.672.073.508.169.823.654.799 1.175z" fill="#ff3000" class="D F J"/><path d="M155.426 382.576c.545-.193 1.853.315 2.652.025 0 0-.957-.412-1.938-.4l-.714.375z" fill="#380e03"/><g class="J"><path d="M151.95 385.846s.388-.387 1.018.097" class="B C I"/><g class="F"><path d="M153.064 387.251v.012c-.012.582-.375 1.054-.836 1.054s-.835-.472-.835-1.066c0-.278.084-.52.218-.714.048.085.121.157.193.242a1.02 1.02 0 0 0-.121.472c0 .424.255.776.545.776s.545-.352.545-.776v-.012a.95.95 0 0 0-.072-.375c-.049-.121-.134-.218-.23-.303-.073-.061-.109-.157-.037-.23.073-.061.158-.036.23.012.085.061.158.145.206.23.073.097.121.218.146.339.036.109.048.23.048.339z" class="D Q"/><g stroke="#d20023"><path d="M149.104 400.079v.048m19.609-.291v-.048"/></g></g><path d="M165.589 383.727c-.242-.049-.485-.121-.751-.218" stroke="#c77250" class="B C"/><g class="F"><path d="M174.225 407.031s-14.402 9.738-30.111 0c-.073-.787.06-1.55.266-2.192.352-1.09 1.018-2.059 1.902-2.798.957-.8 2.41-1.708 3.319-2.229.121.049 6.032 2.35 9.484 2.774 0 0 6.843-.836 9.193-3.016 1.041.557 2.616 1.502 3.73 2.422a6.18 6.18 0 0 1 2.156 3.586c.073.46.109.944.061 1.453z" class="D Q"/><g stroke="#d20023"><path d="M149.637 399.788c-.012.012-.024.012-.036.024m18.665-.242l-.073-.037"/></g></g><g class="B C I"><path d="M159.072 385.822l-.666 2.362c-.024.085 0 .182.048.242l.449.521m-.823.945s1.938.678 2.532-1.187"/></g></g><g class="G"><path d="M156.395 385.265c.248 0 .449-.217.449-.484s-.201-.485-.449-.485-.448.217-.448.485.201.484.448.484zm5.331 0c.247 0 .448-.217.448-.484s-.201-.485-.448-.485-.449.217-.449.485.201.484.449.484z"/></g><path d="M168.265 399.57c-2.362 2.18-9.193 3.016-9.193 3.016-3.452-.424-9.363-2.726-9.484-2.774.012-.012.024-.012.036-.024a16.3 16.3 0 0 1 2.132-.933c.073.061 7.352 5.438 14.825 0a16.92 16.92 0 0 1 1.599.666c.037.024.061.036.085.049z" class="D F J Q"/><path d="M159.63 404.73h-.921l.206-1.454h.509l.206 1.454z" fill="#ff404c"/><path d="M159.872 382.6s1.223-.375 1.902-.399 1.453.424 1.72.799c0 0-.182-.254-1.127-.4-.884-.145-1.853.279-2.495 0z" fill="#380e03"/><g class="E"><path opacity=".13" d="M158.333 384.732c-.145.727-1.259 2.374-2.568 1.841-.92-.375-1.09-1.405-1.126-1.998-.024-.521.303-1.017.799-1.175.473-.157 1.09-.145 1.672-.073 1.078.146 1.369.679 1.223 1.405zm5.16-.157c-.024.593-.206 1.635-1.114 1.998-1.308.533-2.422-1.114-2.568-1.841s.146-1.26 1.211-1.405c.582-.085 1.2-.085 1.672.073.509.169.824.654.799 1.175z"/></g><path d="M152.81 383.727s5.789-2.144 7.546-4.736" stroke="#c77250" class="B C J"/></g><g clip-path="url(#C)"><rect x="119.023" y="373" width="32" height="32" rx="16" fill="#f1eaff"/><g class="D H"><path d="M142.73 379.994c-.879.217-4.311.94-6.937-.192-.168.289-2.047 3.312-3.781 3.312 0 0-.386-1.072-1.843-1.301 1.481-6.648 5.287-6.865 8.177-5.913 2 .65 3.589 2.167 4.384 4.094z" class="F L"/><g class="B K"><path d="M142.73 379.994l.289.855c.675 2.493 1.168 6.01-.313 8.491-.301.494-.674.915-1.12 1.24-.47.35-1 .615-1.566.759a4.61 4.61 0 0 1-1.866.097l.156 1.625c.133 1.217.638 2.325 1.421 3.192.53.59 1.181 1.072 1.927 1.397 0 .217-.012.686-.108 1.264-.349 1.952-1.771 5.215-7.31 5.143-7.094-.084-9.611-6.564-10.045-7.84h.036a6.07 6.07 0 0 0 2.12-.602c1.542-.759 2.734-2.168 3.18-3.902l.096-.386 1.529-5.973c-.349.036-.794.048-1.216-.049a2.19 2.19 0 0 1-.699-.289c-.397-.265-.71-.71-.782-1.433-.157-1.505.843-1.794 1.674-1.77 1.457.229 1.854 1.288 1.854 1.288 1.735 0 3.613-3.034 3.782-3.311 2.638 1.144 6.082.421 6.961.204z"/></g></g><g class="I B H K"><path d="M152.558 408.754c-1.975 1.072-3.914 1.975-5.793 2.71-3.986-5.829-2.842-11.526-2.457-12.959 3.939 1.469 6.925 4.793 7.925 8.924l.325 1.325zm-32.337 3.818c-4.95-1.65-7.768-3.818-7.768-3.818l1.494-4.408c.758-2.252 2.155-4.167 3.938-5.576 1.035-.819 2.216-1.469 3.468-1.915.458 1.445 2.481 8.996-1.132 15.717z"/></g><path d="M131.855 385.245s-.277.084-.686.121" class="B C D H"/><path d="M146.764 411.464c-11.212 4.408-20.473 3.131-26.543 1.108 3.613-6.72 1.577-14.272 1.144-15.717.903-.313 1.855-.53 2.842-.626.434 1.289 2.951 7.756 10.044 7.84 7.19.085 7.431-5.455 7.419-6.419a5.07 5.07 0 0 0 .759.277l.867.241c.349.096.686.205 1.012.325-.386 1.445-1.53 7.142 2.456 12.971z" class="B G H I"/><path d="M128.35 397.577c-.156-.036-.277-.12-.397-.204-.675-.506-1.253-1.084-1.65-1.698-.41-.615-.651-1.253-.711-1.891-.084-.952.229-1.927.482-2.71.59-1.807 1.77-4.974 3.083-6.034l.036-.024.109.06c.108.073.349.217.626.253l.072.109c-.108.421-1.048 4.227-.325 5.889a2.7 2.7 0 0 0 .927 1.168l1.566 1.144c.662.482 1.06.976 1.216 1.506.193.614.012 1.433-.614 1.758-.229.12-.47.169-.747.169-.313 0-.638-.073-.951-.145l-.518-.108-.325-.024c-.325 0-.638.084-.903.24-.097.061-.181.133-.265.217-.169.157-.35.325-.615.325h-.096z" class="L"/><path d="M129.217 385.076c.037 0 .338.241.723.302.024 0 .024.024.024.036-.096.397-1.048 4.239-.325 5.937.205.47.506.879.951 1.192l1.566 1.145c.518.385 1.012.867 1.204 1.481s-.012 1.397-.578 1.686a1.59 1.59 0 0 1-.722.169c-.482 0-.976-.169-1.458-.253l-.337-.024c-.325 0-.65.072-.939.24s-.482.53-.843.53c-.036 0-.072 0-.121-.012-.132-.024-.253-.108-.373-.192-.614-.458-1.204-1.024-1.638-1.686-.373-.567-.638-1.193-.698-1.867-.085-.916.192-1.819.481-2.686.699-2.083 1.843-4.998 3.083-5.998zm0-.12h-.048l-.036.036c-1.325 1.072-2.517 4.264-3.107 6.07-.253.783-.578 1.77-.494 2.734.06.65.301 1.289.711 1.915.409.614.987 1.204 1.674 1.71.12.096.253.181.421.217.048.012.097.012.145.012.277 0 .482-.181.65-.337a1.23 1.23 0 0 1 .253-.205 1.75 1.75 0 0 1 .867-.229c.109 0 .205.012.313.024.169.024.338.06.506.109.313.072.638.144.964.144.289 0 .542-.06.77-.181.651-.337.843-1.192.639-1.83-.169-.542-.578-1.048-1.241-1.542l-1.565-1.144c-.398-.289-.711-.674-.904-1.144-.71-1.65.217-5.432.325-5.853l.013-.048-.037-.073c-.024-.036-.06-.06-.108-.072a1.65 1.65 0 0 1-.614-.253c-.036-.036-.06-.06-.097-.06z" class="G"/><g class="D F H"><path d="M138.732 394.507c0 .072.072.421.072.494-.168-.446-.433-1.446-.481-1.927l-.157-1.626.566.048c.253.879.012 2.071 0 3.011z" fill="#4a1305"/><g class="L"><path d="M144.272 398.758c-.145.349-.446.662-.831.699-.325.036-.638-.121-.927-.253-.302-.145-.639-.253-.964-.265-.096 0-.181 0-.277.024-.482.084-.903.469-1.397.433-.506-.036-.903-.53-.951-1.035-.061-.506.144-1.012.409-1.446.06-.108.133-.216.205-.325l.205-.313a4.66 4.66 0 0 0 .385-.674 5.75 5.75 0 0 0 .217-.578c0-.012.012-.024.012-.037.301-1.144.036-2.408-.313-3.576-.012-.024-.012-.049-.024-.073.566-.096 2.228-.686 3.022-2.661 1.301 2.216 1.241 6.395 1.361 8.96.024.373.012.771-.132 1.12z"/><path d="M140.02 391.339c.012.024.012.049.024.073-.024-.049-.024-.073-.024-.073z"/></g></g><path d="M144.404 398.168l-.096.337" class="B C H I"/><path d="M132.48 393.928c-.012 0-.024 0-.036-.012l-1.047-.734-.844-.591a2.81 2.81 0 0 1-.963-1.228c-.735-1.722-.181-4.179.181-5.793l.048-.229.819.024.53-.024c.06.133-.651 6.058 1.361 8.479.024.024.024.06 0 .084-.012.012-.037.024-.049.024z" class="L"/><path d="M129.867 385.366c.241.06.506.072.759.072l.53-.024s-.735 5.985 1.313 8.454l-1.891-1.325c-.446-.313-.747-.722-.952-1.192-.758-1.782-.12-4.384.241-5.985zm0-.121c-.024 0-.048.012-.06.024-.024.012-.048.048-.048.072l-.048.229c-.374 1.626-.928 4.095-.181 5.829a2.91 2.91 0 0 0 .988 1.253l.831.578 1.059.747c.024.012.049.024.073.024.036 0 .06-.012.084-.036.036-.049.048-.109 0-.157-1.999-2.409-1.289-8.31-1.289-8.37 0-.036-.012-.072-.036-.097s-.048-.036-.084-.036h-.012c-.121.012-.301.024-.518.024-.277 0-.53-.024-.735-.072 0-.012-.012-.012-.024-.012z" class="G"/><g fill="#590600"><path d="M127.062 390.761c-.036.807.024 1.674.506 2.337.217.337.566.578.951.686.386.133.795.121 1.217.109-.41.06-.831.096-1.229-.037-.409-.096-.782-.337-1.035-.686-.47-.711-.554-1.602-.41-2.409z"/><path d="M128.843 393.904c.072.627.301 1.277.855 1.59.253.169.566.265.867.289.313.024.627 0 .952-.024-.313.072-.627.132-.952.108s-.65-.096-.927-.277c-.566-.373-.831-1.059-.795-1.686zm11.768 2.855c.35.06.627.361.771.674.121.337.145.699.048 1.036-.012-.349-.012-.687-.168-1-.109-.301-.35-.554-.651-.71z"/><path d="M141.165 397.18c.422-.216.855-.457 1.108-.855.301-.373.397-.843.446-1.325.048.482-.073.988-.35 1.398-.301.385-.734.662-1.204.782zm.963-1.289a2.4 2.4 0 0 1-.627-2.384 3.39 3.39 0 0 0 .627 2.384zM128 392.206c.397-.505.59-1.144.602-1.782.036-.626-.132-1.289-.59-1.746.542.385.711 1.12.711 1.758-.049.638-.241 1.313-.723 1.77z"/></g><g class="K"><path d="M132.868 380.753c.386.181.771.494.855.951.036.229-.012.458-.108.663s-.241.373-.398.542l-.084-.085c.301-.289.578-.674.53-1.108s-.409-.77-.795-.963zm9.828-.698c-.819.216-1.65.337-2.493.397s-1.686.06-2.529-.06-1.662-.374-2.397-.807c-.734-.422-1.361-1.036-1.77-1.771.927 1.434 2.553 2.216 4.191 2.397 1.65.241 3.336.084 4.974-.265l.024.109z"/></g><path d="M131.602 379.79c.012.421.061.855.289 1.216.193.361.554.626.976.698-.446.037-.855-.277-1.084-.638-.205-.397-.265-.855-.181-1.276z" fill="#590600"/><g class="G"><path d="M136.648 383.113s1.157-1.445 2.807-.626c0 0 .554.566-1.41.181 0 0-.481-.109-1.397.445zm6.708-.421s-.987-.988-2.155-.241c0 0-.374.47 1.071.024-.012 0 .35-.12 1.084.217z"/></g><g class="D H"><path d="M140.658 383.21l1.012 2.24a.37.37 0 0 1-.072.349l-.253.289" class="F"/><g class="B"><path d="M137.048 387.485c.024.482.265.964.674 1.217.53.349 1.277.228 1.783-.157 0 0-.482-1.578-2.313-1.927-.108.265-.156.554-.144.867z" fill="#fd8a9b"/><path d="M137.179 386.606c1.842.349 2.312 1.927 2.312 1.927.373-.289.602-.722.723-1.18.12-.47-.603-.602-.88-.759-.277-.144-.541-.337-.782-.542-.169-.144-.47-.614-.747-.506-.108.036-.169.133-.229.229-.024.072-.397.831-.397.831z" class="P"/></g><g class="F"><path d="M137.721 383.547s.638-.566 1.433 0m2.613-.108s.65-.386 1.096.108"/></g></g><path opacity=".13" d="M134.794 385.643c.472 0 .855-.383.855-.855s-.383-.855-.855-.855-.856.382-.856.855.383.855.856.855z" class="E"/><use xlink:href="#L" fill="#bae2ff"/><g class="B D"><g class="C"><use xlink:href="#L" stroke-width=".06"/><path d="M129.374 383.114s.963-.675 1.855.156" class="H"/></g><g fill="#bae2ff" stroke-width=".06"><path d="M129.435 384.499a.23.23 0 0 0 .229-.229.23.23 0 0 0-.229-.229.23.23 0 0 0-.229.229.23.23 0 0 0 .229.229zm.541.421c.086 0 .156-.07.156-.157s-.07-.156-.156-.156-.157.07-.157.156.07.157.157.157zm.602.144c.06 0 .109-.048.109-.108s-.049-.108-.109-.108-.108.048-.108.108.048.108.108.108z"/></g></g><path d="M134.047 388.822s-.277 4.3 4.661 5.914c0 0-.506-.892-.554-3.3 0 0-2.373-.061-4.107-2.614z" class="P"/><g class="D H"><path d="M133.77 388.389c1.216 2.107 2.974 2.842 4.383 3.047" class="B C"/><path d="M140.357 394.976c0 .012 0 .024-.012.036a2.6 2.6 0 0 1-.217.579c-.181.409-.47.77-.699 1.156-.012.024-.048.06-.084.036-.012-.012-.012-.024-.012-.036-.06-.229-.084-.482-.253-.639-.168-.168-.458-.228-.53-.457-.024-.073-.024-.145-.012-.217.012-.145.024-.301.06-.446.061-.313.109-.566.061-.879-.037-.277.036-.59.072-.867.072-.59.156-1.192-.012-1.77a4.63 4.63 0 0 0 1.288-.145c.025.024.025.048.037.072.337 1.169.602 2.433.313 3.577z" class="F L"/></g></g><g fill="#e2e7f0"><rect x="311.473" y="334.729" width="113" height="8" rx="4"/><rect x="311" y="387.457" width="143" height="8" rx="4"/><rect x="311" y="414" width="170" height="8" rx="4"/><rect x="311" y="440" width="143" height="8" rx="4"/><rect x="311" y="361.094" width="57" height="8" rx="4"/><rect x="379" y="361.094" width="102" height="8" rx="4"/></g><path d="M151.03 164.18c3.42 0 4.716-1.728 4.716-3.654 0-1.764-.864-3.096-3.402-3.582l-2.142-.414c-1.404-.27-1.728-.45-1.728-1.224 0-.756.486-1.098 2.034-1.098 1.782 0 2.304.414 2.304 1.674v.198h2.664v-.144c0-2.394-1.44-4.176-4.878-4.176-3.456 0-4.806 1.818-4.806 3.654 0 1.872.972 3.042 3.276 3.438l2.124.378c1.692.288 1.872.576 1.872 1.386s-.378 1.116-1.908 1.116c-2.178 0-2.664-.378-2.664-1.71v-.18h-2.646v.234c0 2.664 1.638 4.104 5.184 4.104zm10.607 0c2.592 0 4.248-1.134 4.248-3.06v-.18h-2.664v.108c0 .558-.468.792-1.548.792-1.476 0-1.98-.504-2.034-1.764h6.21a8.16 8.16 0 0 0 .126-1.332c0-2.358-1.602-3.978-4.32-3.978-2.826 0-4.554 1.836-4.554 4.734 0 2.862 1.422 4.68 4.536 4.68zm-.072-7.2c1.26 0 1.872.522 1.818 1.458h-3.726c.108-.954.612-1.458 1.908-1.458zm9.859 6.066c1.368 0 2.322-.612 2.718-1.314h.108v1.404c0 1.404-.288 1.728-1.71 1.728-1.548 0-1.818-.234-1.818-1.17h-2.682c0 2.304 1.584 3.546 4.41 3.546 2.916 0 4.482-1.296 4.482-4.248v-8.046h-2.502v1.314h-.09c-.486-.99-1.512-1.494-2.808-1.494-2.574 0-3.942 1.638-3.942 4.158s1.332 4.122 3.834 4.122zm-1.152-4.122c0-1.278.45-1.872 1.998-1.872 1.296 0 1.98.45 1.98 1.602v.54c0 1.152-.702 1.602-1.998 1.602-1.53 0-1.98-.594-1.98-1.872zM181.806 164v-5.238c0-1.278.54-1.674 1.764-1.674 1.296 0 1.692.45 1.692 1.71V164h2.7v-5.202c0-1.314.522-1.71 1.746-1.71 1.314 0 1.692.45 1.692 1.71V164h2.7v-5.742c0-1.926-.954-3.492-3.294-3.492-1.674 0-2.574.774-3.078 1.764h-.09c-.45-1.062-1.386-1.764-2.934-1.764s-2.484.738-2.97 1.764h-.108v-1.584h-2.502V164h2.682zm18.593.18c2.592 0 4.248-1.134 4.248-3.06v-.18h-2.664v.108c0 .558-.468.792-1.548.792-1.476 0-1.98-.504-2.034-1.764h6.21a8.16 8.16 0 0 0 .126-1.332c0-2.358-1.602-3.978-4.32-3.978-2.826 0-4.554 1.836-4.554 4.734 0 2.862 1.422 4.68 4.536 4.68zm-.072-7.2c1.26 0 1.872.522 1.818 1.458h-3.726c.108-.954.612-1.458 1.908-1.458zm8.926 7.02v-5.13c0-1.368.558-1.782 1.854-1.782 1.368 0 1.782.45 1.782 1.71V164h2.7v-5.742c0-1.926-1.008-3.492-3.366-3.492-1.584 0-2.556.738-3.042 1.764h-.108v-1.584h-2.502V164h2.682zm12.563.036a9.52 9.52 0 0 0 1.764-.18v-2.25h-1.116c-1.17 0-1.44-.09-1.44-.882v-3.546h2.556v-2.232h-2.556v-2.106H218.9l-.504 2.106h-1.512v2.232h1.44v3.852c0 2.142 1.134 3.006 3.492 3.006zm7.497.144c2.502 0 3.888-1.08 3.888-2.772 0-1.476-.792-2.34-2.7-2.7l-1.656-.342c-1.08-.216-1.242-.342-1.242-.774s.252-.666 1.332-.666c1.152 0 1.404.324 1.404.918v.252h2.574v-.252c0-2.034-1.692-3.078-3.906-3.078-2.574 0-3.942 1.188-3.942 2.862s.972 2.43 2.754 2.754l1.368.252c1.206.216 1.458.324 1.458.81 0 .45-.18.612-1.278.612-1.314 0-1.71-.144-1.71-.81v-.378h-2.574v.054c0 2.196 1.386 3.258 4.23 3.258z" fill="#000"/><path d="M120.833 148.833h1.222V169h-1.222v-20.167z" class="R"/><path d="M121.445 150.667c1.012 0 1.833-.821 1.833-1.834s-.821-1.833-1.833-1.833-1.834.821-1.834 1.833.821 1.834 1.834 1.834z" fill="#f4900c"/><path d="M124.5 164.111h-3.056a.61.61 0 1 1 0-1.222h3.056a.61.61 0 1 1 0 1.222z" fill="#66757f"/><path d="M137.944 163.5c0-1.35 3.794-3.667 2.444-3.667h-5.162c-.735-.894-2.808-1.833-4.31-1.833s-1.974.939-2.099 1.833h-3.706c-1.35 0-1.834 1.095-1.834 2.445v2.444c0 1.35.484 2.445 1.834 2.445h15.277c1.35 0-2.444-2.317-2.444-3.667z" class="O"/><path d="M126.333 164.111c1.013 0 1.834-.821 1.834-1.833s-.821-1.834-1.834-1.834-1.833.821-1.833 1.834.821 1.833 1.833 1.833z" class="E"/><use xlink:href="#M" fill="#000"/><path d="M140.389 159.833h-11.634c1.264 1.397 2.898 3.951-.023 7.334h11.657c1.35 0-2.444-2.317-2.444-3.667s3.794-3.667 2.444-3.667z" fill="#f4abba"/><path d="M124.5 154.334h-3.056a.61.61 0 1 1 0-1.223h3.056a.61.61 0 1 1 0 1.223z" fill="#66757f"/><path d="M137.944 153.722c0-1.35 3.794-3.666 2.444-3.666h-5.161c-.735-.895-2.808-1.834-4.311-1.834s-1.974.939-2.099 1.834h-3.706c-1.35 0-1.834 1.094-1.834 2.444v2.444c0 1.35.484 2.445 1.834 2.445h15.277c1.35 0-2.444-2.317-2.444-3.667z" fill="#55acee"/><path d="M126.333 154.333c1.013 0 1.834-.821 1.834-1.833s-.821-1.833-1.834-1.833-1.833.82-1.833 1.833.821 1.833 1.833 1.833z" class="E"/><use xlink:href="#M" y="-9.778" fill="#000"/><path d="M140.389 150.056h-11.634c1.264 1.397 2.898 3.95-.023 7.333h11.657c1.35 0-2.444-2.317-2.444-3.667s3.794-3.666 2.444-3.666z" fill="#bbddf5"/><rect x="120.242" y="195.85" width="200" height="30" rx="3.5" class="E"/><g clip-path="url(#D)"><path d="M134.586 206.47a.59.59 0 0 0-.112.164l-.003-.003-4.673 10.527.004.005c-.086.168.059.51.356.807s.638.442.806.355l.004.005 10.528-4.674-.003-.004a.56.56 0 0 0 .164-.112c.651-.651-.404-2.761-2.356-4.714s-4.064-3.007-4.715-2.356z" class="O"/><path d="M135.158 208.35l-5.243 8.544-.117.264.004.005c-.086.168.059.51.356.807.096.097.197.17.295.232l6.372-7.769-1.667-2.083z" fill="#ea596e"/><path d="M139.331 208.794c1.946 1.947 3.026 4.022 2.412 4.635s-2.689-.466-4.636-2.412-3.026-4.022-2.412-4.636 2.689.466 4.636 2.413z" fill="#a0041e"/><path d="M137.488 209.02c-.083.067-.191.102-.306.09-.362-.039-.666-.165-.879-.364-.225-.21-.336-.493-.306-.776.053-.497.552-.952 1.401-.861.331.036.478-.071.483-.121s-.115-.186-.446-.222c-.361-.039-.665-.165-.879-.364-.225-.21-.337-.493-.306-.776.054-.496.552-.952 1.401-.86.241.026.368-.024.422-.056.042-.026.06-.051.061-.066.005-.05-.114-.186-.446-.221-.228-.025-.394-.23-.369-.46s.229-.394.459-.369c.849.092 1.239.643 1.185 1.14s-.552.952-1.402.861c-.241-.026-.366.024-.421.056-.042.026-.06.051-.062.065-.005.051.115.186.447.222.848.092 1.238.643 1.185 1.14s-.552.952-1.401.86c-.241-.026-.368.024-.422.056-.043.027-.06.052-.062.066-.005.05.115.186.446.221.229.025.395.231.369.46a.41.41 0 0 1-.152.279z" fill="#aa8dd8"/><path d="M142.518 212.873c.822-.232 1.389.135 1.524.616s-.158 1.09-.979 1.321c-.321.09-.417.243-.404.292s.177.13.497.04c.821-.232 1.388.135 1.523.616s-.157 1.089-.979 1.321c-.321.09-.417.243-.403.292s.176.13.497.04c.22-.062.451.066.513.288s-.067.451-.288.514c-.822.231-1.389-.135-1.525-.616s.158-1.089.98-1.321c.321-.09.417-.243.403-.292s-.176-.13-.495-.04c-.823.231-1.39-.135-1.525-.617s.157-1.088.979-1.32c.32-.09.417-.244.403-.293s-.176-.13-.496-.04c-.222.063-.452-.066-.514-.287s.067-.451.289-.514z" class="S"/><path d="M139.326 211.75a.42.42 0 0 1-.326-.156.42.42 0 0 1 .065-.586 7.36 7.36 0 0 1 5.32-1.337c.228.033.386.243.354.471s-.242.388-.472.354c-2.705-.385-4.661 1.147-4.68 1.163-.078.061-.17.091-.261.091z" fill="#aa8dd8"/><path d="M132.14 210.016a.45.45 0 0 1-.12-.017c-.22-.067-.345-.299-.279-.519.472-1.572.9-4.081.374-4.735-.059-.074-.147-.147-.351-.132-.391.03-.354.855-.353.863.017.23-.155.43-.384.447s-.43-.155-.447-.385c-.043-.574.136-1.681 1.122-1.756.44-.033.805.12 1.063.441.988 1.229-.015 4.794-.226 5.496-.054.181-.22.297-.399.297z" class="S"/><use xlink:href="#N" class="M"/><path d="M130.576 211.683c.46 0 .833-.373.833-.834s-.373-.833-.833-.833-.834.373-.834.833.373.834.834.834z" fill="#9266cc"/><g class="M"><path d="M143.284 212.1c.345 0 .625-.28.625-.625s-.28-.625-.625-.625-.625.279-.625.625.28.625.625.625zm-3.75 5c.345 0 .625-.28.625-.625s-.28-.625-.625-.625-.625.279-.625.625.28.625.625.625z"/></g><g fill="#ffcc4d"><path d="M141.409 205.85c.46 0 .833-.373.833-.834s-.373-.833-.833-.833-.834.373-.834.833.373.834.834.834zm1.875 1.666c.345 0 .625-.28.625-.625s-.28-.625-.625-.625-.625.28-.625.625.28.625.625.625zm-1.25 1.667c.345 0 .625-.28.625-.625s-.28-.625-.625-.625-.625.28-.625.625.28.625.625.625zm-9.167 4.583c.345 0 .625-.28.625-.625s-.28-.625-.625-.625-.625.28-.625.625.28.625.625.625z"/></g></g><path d="M150.438 215.35h-1.398l3.141-8.728h1.521l3.141 8.728h-1.398l-2.467-7.142h-.068l-2.472 7.142zm.235-3.418h4.534v1.108h-4.534v-1.108zm7.208 5.872v-9h1.244v1.061h.107a3.53 3.53 0 0 1 .32-.473c.139-.179.332-.335.579-.469s.574-.204.98-.204c.529 0 1 .133 1.415.4s.74.652.976 1.155.358 1.108.358 1.816-.118 1.314-.354 1.819-.56.891-.972 1.164-.882.404-1.41.404c-.398 0-.723-.066-.976-.2a1.84 1.84 0 0 1-.588-.469c-.142-.179-.251-.338-.328-.477h-.077v3.473h-1.274zm1.249-5.727c0 .46.066.864.2 1.21s.327.618.579.814.563.29.929.29c.381 0 .699-.101.955-.303s.449-.481.58-.831.2-.743.2-1.18c0-.432-.066-.82-.196-1.163s-.321-.616-.58-.814-.575-.299-.959-.299c-.369 0-.681.095-.937.286s-.445.456-.575.797-.196.738-.196 1.193zm6.037 5.727v-9h1.245v1.061h.106c.074-.136.181-.294.32-.473s.332-.335.579-.469.574-.204.98-.204c.529 0 1 .133 1.415.4s.74.652.976 1.155.358 1.108.358 1.816-.118 1.314-.354 1.819-.559.891-.971 1.164-.882.404-1.411.404c-.398 0-.723-.066-.976-.2a1.84 1.84 0 0 1-.588-.469c-.142-.179-.251-.338-.328-.477h-.077v3.473h-1.274zm1.249-5.727c0 .46.067.864.2 1.21s.327.618.58.814.562.29.929.29c.38 0 .699-.101.954-.303s.449-.481.58-.831.2-.743.2-1.18c0-.432-.065-.82-.196-1.163s-.321-.616-.579-.814-.576-.299-.959-.299c-.37 0-.682.095-.938.286s-.444.456-.575.797-.196.738-.196 1.193zm7.312-5.455v8.728h-1.274v-8.728h1.274zm1.594 8.728v-6.546h1.274v6.546h-1.274zm.643-7.556c-.221 0-.412-.074-.571-.221s-.234-.33-.234-.537a.71.71 0 0 1 .234-.537.8.8 0 0 1 .571-.226c.222 0 .411.075.567.226s.239.326.239.537-.08.386-.239.537-.345.221-.567.221zm4.982 7.688c-.633 0-1.179-.144-1.636-.431a2.84 2.84 0 0 1-1.048-1.197c-.245-.509-.367-1.091-.367-1.747 0-.665.125-1.252.375-1.76s.602-.911 1.057-1.198.99-.43 1.606-.43c.498 0 .941.092 1.33.277s.703.437.942.767.385.714.43 1.155h-1.24c-.068-.307-.224-.571-.469-.793s-.565-.332-.971-.332c-.355 0-.666.094-.933.281s-.471.449-.618.793-.222.744-.222 1.21c0 .477.072.889.217 1.236s.35.615.614.805.581.286.942.286a1.57 1.57 0 0 0 .656-.133 1.34 1.34 0 0 0 .499-.387 1.47 1.47 0 0 0 .285-.605h1.24c-.045.423-.183.801-.413 1.133a2.38 2.38 0 0 1-.925.784c-.383.191-.834.286-1.351.286zm5.837.012c-.415 0-.79-.076-1.125-.23a1.89 1.89 0 0 1-.797-.677c-.194-.296-.29-.658-.29-1.087 0-.369.071-.673.213-.912s.334-.427.575-.567.512-.244.81-.315.602-.125.912-.162l.954-.111c.245-.031.422-.081.533-.149s.166-.179.166-.332v-.03c0-.372-.105-.66-.315-.865s-.517-.307-.929-.307c-.429 0-.767.095-1.014.286s-.414.396-.507.626l-1.198-.273c.142-.397.35-.718.622-.963s.593-.426.951-.537.734-.17 1.129-.17c.261 0 .538.031.831.094s.571.17.827.332.47.394.635.695.247.686.247 1.163v4.347h-1.245v-.895h-.051c-.082.164-.206.326-.371.486s-.376.291-.634.396-.569.157-.929.157zm.277-1.022c.352 0 .653-.07.903-.209s.445-.321.575-.545.201-.471.201-.729v-.844c-.046.046-.134.088-.265.128s-.274.07-.439.098l-.481.072-.392.051a3.21 3.21 0 0 0-.678.158c-.201.074-.363.181-.486.32s-.179.318-.179.545c0 .316.117.554.35.716s.53.239.891.239zm7.585-5.668v1.023h-3.575v-1.023h3.575zm-2.616-1.568h1.274v6.192c0 .247.037.433.111.558s.169.206.285.251.249.064.388.064c.102 0 .192-.007.268-.021l.179-.034.23 1.052c-.073.029-.179.057-.315.086s-.307.048-.511.051c-.335.006-.648-.054-.938-.179s-.524-.318-.703-.58-.268-.589-.268-.984v-6.456zm3.906 8.114v-6.546h1.274v6.546h-1.274zm.643-7.556a.81.81 0 0 1-.571-.221c-.156-.151-.234-.33-.234-.537a.71.71 0 0 1 .234-.537.8.8 0 0 1 .571-.226c.222 0 .411.075.567.226s.238.326.238.537-.079.386-.238.537-.345.221-.567.221zm4.982 7.688c-.614 0-1.149-.141-1.607-.422s-.812-.675-1.065-1.181-.379-1.096-.379-1.772.126-1.273.379-1.782.608-.903 1.065-1.184.993-.422 1.607-.422 1.149.141 1.607.422.812.676 1.065 1.184.379 1.103.379 1.782-.126 1.267-.379 1.772-.608.9-1.065 1.181-.993.422-1.607.422zm.004-1.07c.398 0 .728-.105.989-.315s.454-.49.579-.84.192-.734.192-1.155a3.32 3.32 0 0 0-.192-1.15c-.125-.352-.318-.635-.579-.848s-.591-.32-.989-.32-.733.107-.997.32a1.91 1.91 0 0 0-.584.848c-.125.349-.187.733-.187 1.15s.062.806.187 1.155.323.63.584.84.597.315.997.315zm5.623-2.949v3.887h-1.274v-6.546h1.223v1.065h.081c.151-.346.387-.625.708-.835s.731-.315 1.223-.315c.446 0 .836.094 1.172.281s.595.46.779.827.277.819.277 1.359v4.164h-1.274v-4.01c0-.475-.123-.846-.37-1.113s-.587-.404-1.019-.404c-.295 0-.558.064-.788.191s-.408.316-.541.563-.197.54-.197.886zm16.517-.477c0 .932-.17 1.733-.511 2.403s-.808 1.182-1.402 1.543-1.263.537-2.016.537-1.43-.179-2.024-.537-1.057-.876-1.398-1.547-.511-1.47-.511-2.399.17-1.732.511-2.399.807-1.185 1.398-1.543 1.269-.541 2.024-.541 1.425.18 2.016.541 1.061.872 1.402 1.543.511 1.467.511 2.399zm-1.304 0c0-.71-.115-1.308-.345-1.794s-.54-.858-.937-1.108-.843-.379-1.343-.379a2.44 2.44 0 0 0-1.346.379c-.395.25-.708.619-.938 1.108s-.341 1.084-.341 1.794.114 1.31.341 1.798.543.855.938 1.108.843.375 1.346.375.948-.125 1.343-.375.71-.622.937-1.108.345-1.088.345-1.798zm2.724 6.818v-9h1.244v1.061h.107a3.51 3.51 0 0 1 .319-.473c.139-.179.333-.335.58-.469s.574-.204.98-.204c.528 0 1 .133 1.415.4s.74.652.975 1.155.358 1.108.358 1.816-.118 1.314-.353 1.819-.56.891-.972 1.164-.882.404-1.41.404c-.398 0-.723-.066-.976-.2a1.84 1.84 0 0 1-.588-.469 3.5 3.5 0 0 1-.328-.477h-.077v3.473h-1.274zm1.248-5.727c0 .46.067.864.201 1.21s.326.618.579.814.563.29.929.29c.381 0 .699-.101.955-.303s.448-.481.579-.831.2-.743.2-1.18c0-.432-.065-.82-.196-1.163s-.321-.616-.579-.814-.575-.299-.959-.299c-.369 0-.682.095-.937.286s-.445.456-.576.797-.196.738-.196 1.193zm8.859 3.405c-.645 0-1.2-.138-1.666-.414s-.821-.669-1.074-1.172-.375-1.098-.375-1.777c0-.67.125-1.261.375-1.772a2.91 2.91 0 0 1 1.057-1.198c.454-.287.985-.43 1.593-.43.37 0 .728.061 1.074.183s.658.314.934.575.492.601.652 1.019.238.919.238 1.513v.451h-5.203v-.954h3.955c0-.335-.069-.632-.205-.891a1.55 1.55 0 0 0-.575-.618c-.245-.15-.531-.226-.861-.226-.358 0-.67.089-.938.265s-.468.4-.613.682-.213.58-.213.907v.746c0 .437.076.81.23 1.116a1.66 1.66 0 0 0 .652.704c.278.159.604.238.976.238a2.03 2.03 0 0 0 .66-.102 1.43 1.43 0 0 0 .516-.315 1.37 1.37 0 0 0 .332-.516l1.206.217c-.096.355-.27.666-.52.933a2.5 2.5 0 0 1-.933.618 3.49 3.49 0 0 1-1.274.218zm5.376-4.019v3.887h-1.274v-6.546h1.223v1.065h.081c.15-.346.386-.625.707-.835s.732-.315 1.223-.315c.446 0 .837.094 1.172.281s.595.46.78.827.277.819.277 1.359v4.164h-1.274v-4.01c0-.475-.124-.846-.371-1.113s-.587-.404-1.018-.404c-.296 0-.559.064-.789.191s-.407.316-.541.563-.196.54-.196.886zm8.599 4.019c-.645 0-1.201-.138-1.666-.414s-.821-.669-1.074-1.172-.375-1.098-.375-1.777c0-.67.125-1.261.375-1.772a2.91 2.91 0 0 1 1.057-1.198c.454-.287.985-.43 1.593-.43.37 0 .728.061 1.074.183s.658.314.933.575.493.601.652 1.019.239.919.239 1.513v.451h-5.203v-.954h3.954c0-.335-.068-.632-.204-.891a1.55 1.55 0 0 0-.575-.618c-.245-.15-.532-.226-.861-.226-.358 0-.671.089-.938.265s-.468.4-.613.682-.213.58-.213.907v.746c0 .437.076.81.23 1.116a1.66 1.66 0 0 0 .652.704c.278.159.603.238.976.238a2.03 2.03 0 0 0 .66-.102 1.43 1.43 0 0 0 .516-.315c.145-.14.255-.312.332-.516l1.206.217a2.19 2.19 0 0 1-.52.933 2.5 2.5 0 0 1-.933.618 3.49 3.49 0 0 1-1.274.218zm6.552-.005c-.528 0-1-.134-1.415-.404s-.736-.661-.971-1.164-.35-1.112-.35-1.819.118-1.313.354-1.816.565-.887.98-1.155a2.55 2.55 0 0 1 1.411-.4c.406 0 .732.068.98.204s.443.29.579.469a4.05 4.05 0 0 1 .324.473h.077v-3.243h1.274v8.728h-1.244v-1.019h-.107c-.077.139-.187.298-.332.477a1.84 1.84 0 0 1-.588.469c-.25.134-.574.2-.972.2zm.281-1.086c.367 0 .676-.097.929-.29s.449-.467.58-.814.2-.75.2-1.21c0-.455-.065-.852-.196-1.193s-.322-.607-.575-.797-.566-.286-.938-.286c-.383 0-.703.1-.959.299s-.448.47-.579.814a3.31 3.31 0 0 0-.192 1.163c0 .437.065.831.196 1.18s.324.627.58.831.576.303.954.303z" class="T"/><path d="M266.547 215.477c-.639 0-1.193-.14-1.662-.421s-.832-.675-1.09-1.181-.384-1.096-.384-1.773.128-1.268.384-1.777.622-.903 1.09-1.184 1.023-.422 1.662-.422 1.194.141 1.662.422.831.676 1.087 1.184.388 1.101.388 1.777-.129 1.267-.388 1.773a2.84 2.84 0 0 1-1.087 1.181c-.468.281-1.022.421-1.662.421zm.009-1.235c.347 0 .636-.096.869-.286s.407-.452.52-.775a3.17 3.17 0 0 0 .175-1.083c0-.4-.058-.763-.175-1.086s-.287-.587-.52-.78-.522-.29-.869-.29c-.355 0-.651.097-.886.29s-.408.453-.525.78-.17.686-.17 1.086.057.759.17 1.083.292.582.525.775.531.286.886.286zm7.172 1.235c-.653 0-1.214-.143-1.683-.43s-.825-.683-1.078-1.189-.375-1.094-.375-1.756.128-1.251.383-1.759.617-.91 1.083-1.194 1.022-.43 1.662-.43c.531 0 1.001.098 1.41.294s.74.467.985.822.383.765.417 1.236h-1.474c-.06-.315-.202-.578-.426-.788s-.519-.32-.891-.32a1.39 1.39 0 0 0-.831.256c-.239.168-.425.409-.558.724s-.196.694-.196 1.134c0 .446.065.829.196 1.15a1.68 1.68 0 0 0 .549.738c.239.17.519.255.84.255.227 0 .43-.042.609-.127a1.23 1.23 0 0 0 .456-.38c.122-.165.206-.365.252-.601h1.474a2.57 2.57 0 0 1-.409 1.232c-.236.355-.557.633-.963.835s-.884.298-1.432.298zm6.806 0c-.653 0-1.215-.143-1.683-.43s-.826-.683-1.078-1.189-.375-1.094-.375-1.756.127-1.251.383-1.759.617-.91 1.083-1.194 1.022-.43 1.661-.43c.532 0 1.002.098 1.411.294s.74.467.984.822a2.43 2.43 0 0 1 .418 1.236h-1.474a1.41 1.41 0 0 0-.427-.788c-.221-.213-.518-.32-.89-.32-.316 0-.593.085-.831.256s-.425.409-.558.724-.196.694-.196 1.134c0 .446.065.829.196 1.15s.313.564.549.738.519.255.84.255c.227 0 .43-.042.609-.127a1.23 1.23 0 0 0 .456-.38c.122-.165.206-.365.252-.601h1.474a2.57 2.57 0 0 1-.409 1.232c-.236.355-.557.633-.963.835s-.884.298-1.432.298zm8.123-2.88v-3.793h1.542v6.546h-1.496v-1.164h-.068c-.148.367-.39.666-.728.899s-.749.35-1.241.35c-.429 0-.808-.095-1.137-.286s-.583-.473-.767-.839-.277-.816-.277-1.338v-4.168h1.542v3.929c0 .415.114.744.341.989s.526.366.895.366c.227 0 .447-.055.661-.166s.387-.276.524-.494.209-.499.209-.831zm3.008 2.753v-6.546h1.496v1.091h.068c.12-.378.324-.669.614-.874a1.69 1.69 0 0 1 1.001-.311l.286.013a1.99 1.99 0 0 1 .268.03v1.419c-.065-.023-.169-.043-.311-.06s-.274-.029-.405-.029a1.56 1.56 0 0 0-.758.183c-.222.119-.396.285-.524.498s-.192.459-.192.738v3.848h-1.543zm7.266.127c-.656 0-1.223-.136-1.7-.409a2.77 2.77 0 0 1-1.095-1.167c-.256-.506-.384-1.101-.384-1.786 0-.673.128-1.264.384-1.772s.619-.91 1.082-1.194 1.007-.43 1.632-.43a3.3 3.3 0 0 1 1.143.196 2.59 2.59 0 0 1 .954.597c.278.269.497.613.656 1.031s.239.909.239 1.483v.473h-5.365v-1.04h3.886a1.66 1.66 0 0 0-.192-.788c-.125-.233-.299-.417-.524-.55s-.48-.2-.775-.2c-.316 0-.593.076-.831.23s-.425.349-.558.596a1.72 1.72 0 0 0-.201.806v.907c0 .381.07.708.209.981s.334.477.584.622.543.213.878.213a1.88 1.88 0 0 0 .609-.094 1.34 1.34 0 0 0 .473-.286 1.19 1.19 0 0 0 .303-.464l1.44.162a2.24 2.24 0 0 1-.52.997 2.54 2.54 0 0 1-.971.656c-.395.154-.847.23-1.356.23zm6.525-.012c-.514 0-.974-.132-1.381-.397s-.727-.647-.963-1.15-.353-1.114-.353-1.833c0-.727.119-1.341.357-1.841s.567-.882.976-1.137.865-.388 1.368-.388c.384 0 .699.065.946.196a1.8 1.8 0 0 1 .588.464c.145.179.257.348.337.508h.064v-3.265h1.547v8.728h-1.517v-1.032h-.094c-.08.159-.195.328-.345.507s-.35.327-.597.452-.558.188-.933.188zm.43-1.266c.327 0 .605-.088.836-.264s.404-.428.524-.746.179-.689.179-1.112-.06-.791-.179-1.104-.29-.555-.52-.729-.507-.259-.84-.259c-.343 0-.63.089-.86.268s-.404.426-.52.741-.175.677-.175 1.083.058.774.175 1.095.294.57.524.754.518.273.856.273z" fill="#00cc74"/><rect x="120.242" y="195.85" width="200" height="30" rx="3.5" class="U"/><rect x="329.242" y="195.5" width="133" height="30" rx="3.5" class="E"/><g clip-path="url(#E)"><path d="M348.597 212.707l-4.562-4.562 3.911-3.259 3.91 3.911-3.259 3.91z" fill="#be1931"/><path d="M353.159 208.797c-.72.72-1.887.72-2.606 0l-2.607-2.607a1.84 1.84 0 0 1 0-2.607c.719-.72 1.886-.72 2.607 0l2.606 2.607c.72.72.72 1.887 0 2.607z" class="O"/><path d="M344.575 210.426l-5.755 7.496c.326.326 7.496-5.755 7.496-5.755l-1.741-1.741z" fill="#99aab5"/><path d="M349.249 214.663c-.719.721-1.887.721-2.608 0l-4.561-4.562c-.72-.72-.72-1.887 0-2.607s1.887-.72 2.607 0l4.562 4.562c.72.72.72 1.887 0 2.607z" class="O"/></g><path d="M363.461 208.565c-.046-.403-.233-.716-.563-.937s-.744-.337-1.244-.337c-.358 0-.667.057-.929.171s-.464.264-.609.46-.213.413-.213.66c0 .208.048.387.145.537a1.3 1.3 0 0 0 .387.38 2.97 2.97 0 0 0 .52.251l.533.162.852.222c.279.068.564.16.857.277s.564.269.814.46a2.21 2.21 0 0 1 .605.707c.156.281.234.618.234 1.01 0 .494-.128.933-.383 1.317s-.621.686-1.104.907-1.061.333-1.743.333c-.653 0-1.219-.104-1.696-.311s-.851-.502-1.121-.882-.419-.838-.447-1.364h1.321c.025.315.128.578.307.788s.413.363.694.465a2.82 2.82 0 0 0 .934.149c.372 0 .703-.058.992-.175s.523-.284.691-.494.251-.462.251-.746c0-.258-.074-.47-.221-.635a1.65 1.65 0 0 0-.593-.409c-.247-.108-.527-.203-.839-.285l-1.031-.282c-.699-.19-1.253-.47-1.662-.839s-.61-.858-.61-1.466c0-.503.137-.942.409-1.317s.642-.666 1.108-.873.992-.316 1.577-.316c.591 0 1.112.104 1.564.311s.812.493 1.074.857.397.776.409 1.244h-1.27zm5.561 6.567c-.644 0-1.2-.138-1.666-.413s-.821-.669-1.074-1.172-.375-1.098-.375-1.777c0-.671.125-1.261.375-1.773s.605-.91 1.057-1.197.986-.431 1.594-.431a3.19 3.19 0 0 1 1.074.184c.346.122.657.313.933.575s.493.601.652 1.018.239.919.239 1.513v.452h-5.203v-.955h3.954c0-.335-.068-.632-.204-.89s-.329-.468-.576-.618-.531-.226-.861-.226c-.358 0-.67.088-.937.264s-.469.401-.614.682-.213.581-.213.908v.745c0 .438.077.81.23 1.117a1.67 1.67 0 0 0 .652.703c.279.159.604.239.976.239.242 0 .462-.035.661-.103s.37-.176.515-.315a1.37 1.37 0 0 0 .333-.516l1.206.218a2.19 2.19 0 0 1-.52.933c-.247.264-.558.47-.933.618s-.797.217-1.275.217zm5.376-4.018V215h-1.274v-6.545h1.223v1.065h.081a1.87 1.87 0 0 1 .708-.835c.324-.211.731-.316 1.223-.316.446 0 .836.094 1.172.282s.595.46.779.826.277.82.277 1.36V215h-1.274v-4.01c0-.474-.123-.845-.37-1.112s-.587-.405-1.019-.405c-.295 0-.558.064-.788.192a1.37 1.37 0 0 0-.541.562c-.131.245-.197.54-.197.887zm8.834-2.659v1.022h-3.576v-1.022h3.576zm-2.617-1.569h1.274v6.192c0 .247.037.433.111.558s.169.206.286.252.248.064.387.064a1.42 1.42 0 0 0 .269-.022l.179-.034.23 1.053a2.16 2.16 0 0 1-.315.085c-.137.031-.307.048-.512.051-.335.006-.647-.054-.937-.179a1.61 1.61 0 0 1-.703-.579c-.179-.262-.269-.59-.269-.985v-6.456zm8.867 8.259c-.415 0-.79-.077-1.125-.23s-.601-.382-.797-.678-.29-.657-.29-1.086c0-.37.071-.674.213-.912a1.57 1.57 0 0 1 .575-.567c.242-.139.512-.244.81-.315s.602-.125.912-.162l.955-.111c.244-.031.421-.081.532-.149s.166-.179.166-.333v-.03c0-.372-.105-.66-.315-.865s-.517-.306-.929-.306c-.429 0-.767.095-1.014.285s-.413.396-.507.626l-1.198-.272c.142-.398.35-.719.622-.963s.593-.426.951-.537.734-.171 1.129-.171c.261 0 .538.032.831.094s.571.171.827.332.47.394.635.695.247.686.247 1.163V215h-1.245v-.895h-.051c-.082.165-.206.327-.37.486s-.377.291-.635.396a2.47 2.47 0 0 1-.929.158zm.277-1.023c.352 0 .653-.069.903-.209s.445-.321.575-.545a1.41 1.41 0 0 0 .201-.729v-.844c-.046.046-.134.089-.265.128s-.274.07-.438.098l-.482.073-.392.051a3.15 3.15 0 0 0-.678.158c-.201.073-.363.18-.485.319s-.179.318-.179.546c0 .315.116.554.349.716s.53.238.891.238z" class="T"/><path d="M397.349 215v-8.727h5.591v1.325h-4.01v2.369h3.626v1.326h-3.626V215h-1.581zm9.26.128c-.656 0-1.223-.137-1.7-.409a2.77 2.77 0 0 1-1.095-1.168c-.256-.506-.384-1.101-.384-1.785 0-.674.128-1.265.384-1.773s.619-.909 1.082-1.193 1.007-.431 1.632-.431c.404 0 .784.066 1.142.196s.679.327.955.597.497.614.656 1.031.239.909.239 1.483v.473h-5.365v-1.04h3.886a1.66 1.66 0 0 0-.192-.788c-.125-.233-.299-.416-.524-.55s-.48-.2-.775-.2c-.316 0-.593.077-.831.23s-.425.35-.559.597-.197.513-.2.805v.908c0 .38.07.707.209.98a1.49 1.49 0 0 0 .584.622c.25.142.542.213.878.213.224 0 .427-.031.609-.094a1.35 1.35 0 0 0 .473-.285 1.19 1.19 0 0 0 .302-.465l1.441.162a2.24 2.24 0 0 1-.52.997c-.253.282-.577.5-.972.657s-.846.23-1.355.23zm6.994 0c-.657 0-1.223-.137-1.701-.409s-.839-.665-1.095-1.168-.383-1.101-.383-1.785c0-.674.127-1.265.383-1.773s.619-.909 1.082-1.193 1.008-.431 1.633-.431a3.32 3.32 0 0 1 1.142.196 2.58 2.58 0 0 1 .954.597c.279.27.497.614.656 1.031s.239.909.239 1.483v.473h-5.365v-1.04h3.886c-.002-.295-.066-.558-.191-.788s-.3-.416-.525-.55-.48-.2-.775-.2c-.315 0-.592.077-.831.23s-.425.35-.558.597-.198.513-.201.805v.908c0 .38.07.707.209.98a1.49 1.49 0 0 0 .584.622c.25.142.543.213.878.213.224 0 .427-.031.609-.094a1.34 1.34 0 0 0 .473-.285c.134-.125.235-.28.303-.465l1.44.162a2.24 2.24 0 0 1-.52.997c-.253.282-.576.5-.971.657s-.847.23-1.355.23zm6.524-.013a2.48 2.48 0 0 1-1.381-.396c-.406-.264-.727-.648-.963-1.151s-.353-1.113-.353-1.832c0-.727.119-1.341.358-1.841s.566-.882.975-1.138.865-.388 1.368-.388c.384 0 .699.066.946.196s.444.283.588.465a2.81 2.81 0 0 1 .337.507h.064v-3.264h1.547V215h-1.517v-1.031h-.094c-.079.159-.195.328-.345.507a1.91 1.91 0 0 1-.597.452c-.247.125-.558.187-.933.187zm.43-1.266c.327 0 .606-.088.836-.264s.405-.427.524-.746.179-.688.179-1.112-.06-.791-.179-1.103-.29-.556-.52-.729-.507-.26-.84-.26c-.343 0-.63.089-.86.268s-.404.427-.52.742-.175.676-.175 1.082.058.774.175 1.095.294.57.524.755.518.272.856.272zm4.648 1.151v-8.727h1.542v3.264h.064c.08-.159.192-.328.337-.507a1.79 1.79 0 0 1 .588-.465c.247-.13.563-.196.946-.196.506 0 .962.13 1.368.388s.733.635.972 1.138.362 1.114.362 1.841c0 .719-.118 1.329-.354 1.832s-.557.887-.963 1.151-.866.396-1.381.396c-.375 0-.686-.062-.933-.187s-.446-.276-.596-.452-.263-.348-.346-.507h-.089V215h-1.517zm1.513-3.273a3.14 3.14 0 0 0 .179 1.112c.122.319.296.567.524.746s.508.264.835.264c.341 0 .626-.09.857-.272s.403-.436.519-.755.179-.686.179-1.095a3.12 3.12 0 0 0-.174-1.082c-.117-.315-.29-.563-.52-.742s-.517-.268-.861-.268c-.33 0-.609.087-.839.26s-.405.416-.525.729-.174.68-.174 1.103zm7.741 3.405c-.415 0-.789-.074-1.121-.221a1.84 1.84 0 0 1-.784-.665c-.19-.293-.286-.654-.286-1.083 0-.369.069-.674.205-.916s.322-.435.558-.579.502-.255.797-.329a6.57 6.57 0 0 1 .925-.166l.933-.106c.239-.034.412-.085.52-.154s.166-.18.166-.328v-.025c0-.321-.095-.57-.285-.746s-.465-.264-.823-.264c-.378 0-.677.082-.899.247s-.366.359-.443.584l-1.44-.205c.113-.398.301-.73.562-.997s.581-.472.959-.605.795-.205 1.253-.205c.315 0 .629.037.941.111s.598.196.857.367.466.396.622.686.239.652.239 1.086V215h-1.483v-.899h-.051c-.094.182-.226.352-.397.511a1.89 1.89 0 0 1-.635.379c-.252.094-.549.141-.89.141zm.4-1.133c.31 0 .578-.062.806-.184a1.35 1.35 0 0 0 .524-.494 1.26 1.26 0 0 0 .187-.669v-.771c-.048.039-.13.076-.247.11s-.241.064-.383.09l-.422.068-.362.051a2.74 2.74 0 0 0-.618.154c-.182.071-.326.17-.431.298a.73.73 0 0 0-.157.486c0 .284.103.498.311.643s.471.218.792.218zm7.342 1.129c-.653 0-1.214-.144-1.683-.431s-.826-.683-1.078-1.188-.375-1.094-.375-1.756.127-1.252.383-1.76.617-.909 1.083-1.193 1.022-.431 1.661-.431c.532 0 1.002.098 1.411.294s.74.468.984.823.384.764.418 1.236h-1.474c-.06-.316-.202-.579-.427-.789s-.518-.319-.89-.319c-.316 0-.593.085-.831.255s-.425.409-.558.725-.196.693-.196 1.133c0 .446.065.83.196 1.151s.314.564.549.737.519.256.84.256c.227 0 .43-.043.609-.128a1.23 1.23 0 0 0 .456-.379c.122-.165.206-.365.252-.601h1.474c-.037.463-.173.873-.409 1.231a2.43 2.43 0 0 1-.963.836c-.406.198-.884.298-1.432.298zm5.357-2.182l-.004-1.862h.247l2.352-2.629h1.803l-2.894 3.221h-.319l-1.185 1.27zM446.152 215v-8.727h1.542V215h-1.542zm4.108 0l-2.131-2.979 1.04-1.086 2.936 4.065h-1.845z" fill="#bb6bd9"/><rect x="329.242" y="195.5" width="133" height="30" rx="3.5" class="U"/><rect x="119.5" y="239.5" width="207" height="30" rx="3.5" class="E"/><g clip-path="url(#F)"><path d="M143.834 253.783c-1.076-1.567-3.3.74-7.359 1.208-1.503.174-2.857 1.429-4.603 1.309-.716-.049-1.716-2.109-2.464-1.78-.385.169-.562.733-.166 1.158l4.395 5.244s.223.257.976.079c.185.055 2.973-1.063 4.585-3.299a6.7 6.7 0 0 1 1.322-1.354c1.546-1.143 3.227-1.541 3.227-1.541.215-.178.265-.366.253-.53.015-.274-.166-.494-.166-.494z" class="M"/><path d="M133.782 251.281c-1.577 2.187-4.337 3.224-4.337 3.224-.515.436-.08.95-.08.95l4.349 5.15s.218.257.95.078c0 0 2.761-1.034 4.336-3.221 1.625-2.255 4.555-2.966 4.555-2.966.514-.436.08-.951.08-.951l-4.35-5.149s-.217-.258-.95-.08c0 0-2.929.71-4.553 2.965z" fill="#a7d28b"/><path d="M138.167 255.125a2.29 2.29 0 0 0 0-4.583 2.29 2.29 0 1 0 0 4.583z" class="S"/><path d="M134.364 260.304c-.367 0-.502-.137-.52-.158l-3.921-4.576c-.007-.009-.206-.236-.182-.525.015-.176.106-.332.27-.465l.026-.016c.026-.01 2.568-1.055 3.993-2.943l.083.062-.083-.062c1.508-1.999 4.108-2.856 4.134-2.865.727-.169.965.073.99.101l3.869 4.602c.007.007.205.236.181.525a.66.66 0 0 1-.269.464l-.042.021c-.025.006-2.553.634-4.018 2.575-1.458 1.934-4.003 3.184-4.028 3.197-.194.045-.353.063-.483.063zm-.363-.295s.188.174.777.037c.003-.005 2.504-1.234 3.932-3.127s3.843-2.576 4.111-2.646c.107-.092.166-.194.176-.304.017-.2-.13-.372-.132-.373l-3.868-4.603c-.001 0-.188-.172-.777-.036-.017.006-2.556.844-4.023 2.789-1.403 1.859-3.85 2.915-4.066 3.005-.112.094-.173.199-.182.311-.017.198.13.369.131.371l3.921 4.576z" class="M"/><path d="M137.865 256.236l-.003 2.475.207.246c.404-.369.792-.783 1.127-1.249.348-.482.753-.895 1.179-1.244l-.201-.239-2.309.011z" fill="#ffac33"/><path d="M140.166 256.216l-5.211-6.172a6.63 6.63 0 0 0-1.176 1.235c-.338.469-.731.882-1.139 1.246l.609.721-.001.001 4.615 5.464c.408-.365.797-.782 1.135-1.251.346-.48.752-.886 1.175-1.234l-.008-.01h.001z" fill="#ffe8b6"/><path d="M135.033 256.398c-.649-.769-2.022.478-2.414.014-.189-.224-.067-.515.182-.725.419-.355.721-.148.91-.309.135-.113.128-.252.048-.347-.186-.22-.661-.105-1.03.108l-.18-.212c-.112-.133-.31-.15-.443-.038s-.149.31-.037.443l.186.22c-.282.374-.378.871-.044 1.265.623.738 2.014-.488 2.451.03.152.18.109.524-.21.793-.478.404-.911.215-1.106.379-.095.08-.112.231-.011.352.161.19.675.149 1.169-.158l.204.242c.112.133.311.149.443.038s.149-.311.037-.444l-.203-.24c.325-.414.438-.951.048-1.411z" class="M"/><path d="M142.524 260.578c.04-.037.062-.069.087-.101l.053-.064c.015-.021.027-.042.04-.063.592-.912.204-2.457-.967-3.628s-2.717-1.56-3.628-.967a.62.62 0 0 0-.064.04c-.022.016-.043.035-.064.052l-.092.076c-.014.017-.019.019-.024.024l.002.003c-.416.442-.421 1.127-.002 1.546s1.104.414 1.547-.002l.005.005c-.009.008-.019.013-.027.022-.441.441-.452 1.145-.025 1.573s1.132.416 1.573-.025c.009-.008.014-.018.022-.027l.005.005c-.417.443-.422 1.128-.002 1.548s1.104.414 1.546-.003l.003.003c.004-.006.007-.012.012-.017z" fill="#e1e8ed"/><path d="M137.865 257.513c.378.377.967.408 1.404.109.183-.313.236-.61.236-.703-.92.686-1.741.004-1.925-.404a1.08 1.08 0 0 0 .285.998zm3.041 1.6c.124-.175.221-.343.266-.457-.586.536-1.705.143-2.044-.708-.149.396-.073.852.238 1.163.417.417 1.097.414 1.54.002zm1.606 1.498l.012-.015c.041-.038.063-.07.087-.101l.054-.065c.015-.02.027-.042.04-.063.027-.042.042-.091.065-.135-1.054.471-1.84-.329-2.06-.727-.123.382-.043.81.253 1.107.42.419 1.104.414 1.547-.003l.002.002z" class="R"/><path d="M134.815 252.208l.012-.01c.029-.028.051-.06.076-.091l.052-.065.041-.063c.592-.911.204-2.457-.968-3.628s-2.716-1.56-3.628-.968l-.063.04-.065.053-.092.076c-.013.016-.019.019-.024.024l.002.002c-.416.443-.421 1.127-.002 1.547s1.104.414 1.547-.002l.005.004-.027.022c-.441.442-.452 1.145-.024 1.573s1.131.417 1.573-.024c.008-.008.013-.018.022-.027l.004.005c-.416.442-.422 1.127-.002 1.547s1.104.414 1.546-.003l.003.003z" fill="#e1e8ed"/><path d="M130.155 249.125c.378.378.967.409 1.404.109.183-.313.235-.61.235-.703-.919.686-1.74.003-1.924-.405-.076.353.017.73.285.999zm3.042 1.599c.124-.174.22-.342.265-.456-.586.536-1.705.143-2.044-.708-.149.396-.073.851.237 1.162.419.418 1.099.414 1.542.002zm1.605 1.499l.024-.024c.029-.028.051-.061.075-.092l.053-.064.041-.064c.027-.041.041-.091.064-.135-1.053.471-1.839-.328-2.06-.727-.123.382-.043.81.254 1.107.42.42 1.104.415 1.546-.003l.003.002z" class="R"/></g><path d="M153.719 252.565c-.046-.403-.233-.716-.563-.937s-.744-.337-1.244-.337a2.31 2.31 0 0 0-.929.171 1.42 1.42 0 0 0-.609.46c-.142.193-.213.413-.213.66 0 .208.048.387.144.537s.229.277.388.38a2.94 2.94 0 0 0 .52.251l.533.162.852.222a6.44 6.44 0 0 1 .857.277 3.4 3.4 0 0 1 .813.46c.25.19.452.426.606.707s.234.618.234 1.01a2.32 2.32 0 0 1-.384 1.317c-.252.383-.62.686-1.103.907s-1.061.333-1.743.333c-.654 0-1.219-.104-1.696-.311s-.851-.502-1.121-.882-.419-.838-.447-1.364h1.321a1.35 1.35 0 0 0 .306.788c.182.208.414.363.695.465s.595.149.933.149c.372 0 .703-.058.993-.175s.523-.284.691-.494.251-.462.251-.746c0-.258-.074-.47-.222-.635s-.342-.301-.592-.409-.527-.203-.839-.285l-1.032-.282c-.699-.19-1.253-.47-1.662-.839s-.609-.858-.609-1.466c0-.503.136-.942.409-1.317s.642-.666 1.108-.873.992-.316 1.577-.316c.591 0 1.112.104 1.564.311s.812.493 1.074.857.397.776.409 1.244h-1.27zm6.886 3.721v-3.831h1.279V259h-1.253v-1.134h-.068a2.04 2.04 0 0 1-.725.874c-.329.23-.74.345-1.231.345-.421 0-.793-.092-1.117-.277s-.573-.464-.758-.831-.273-.819-.273-1.359v-4.163h1.274v4.009c0 .447.124.802.371 1.066s.568.396.963.396c.239 0 .476-.06.712-.179a1.5 1.5 0 0 0 .592-.541c.159-.242.237-.548.234-.92zm2.973 2.714v-8.727h1.274v3.243h.077c.074-.137.18-.294.32-.473s.332-.336.579-.469.574-.205.98-.205c.529 0 1 .134 1.415.401s.74.652.976 1.155.358 1.108.358 1.815-.118 1.314-.354 1.82-.559.89-.971 1.163-.883.405-1.411.405c-.398 0-.723-.067-.976-.2s-.446-.29-.588-.469-.251-.338-.328-.477h-.106V259h-1.245zm1.249-3.273c0 .46.067.864.2 1.211s.327.617.58.813.562.29.929.29c.38 0 .698-.101.954-.302s.449-.482.58-.831.2-.743.2-1.181c0-.432-.065-.819-.196-1.163s-.321-.615-.58-.814-.575-.298-.958-.298c-.37 0-.682.095-.938.285a1.75 1.75 0 0 0-.575.797c-.131.341-.196.739-.196 1.193zm10.945-1.674l-1.154.204a1.39 1.39 0 0 0-.23-.422 1.15 1.15 0 0 0-.418-.328c-.176-.085-.396-.128-.661-.128-.36 0-.662.081-.903.243s-.362.365-.362.618a.65.65 0 0 0 .243.528c.162.134.423.243.784.329l1.04.238c.602.139 1.051.354 1.346.644s.443.666.443 1.129a1.71 1.71 0 0 1-.341 1.048c-.224.304-.538.543-.941.716s-.865.26-1.394.26c-.733 0-1.331-.156-1.794-.469s-.747-.762-.852-1.342l1.231-.187c.077.321.235.563.473.728s.55.243.934.243c.417 0 .751-.087 1.001-.26s.375-.39.375-.643a.67.67 0 0 0-.23-.516c-.151-.139-.382-.244-.695-.315l-1.108-.243c-.61-.139-1.062-.361-1.355-.665s-.434-.689-.434-1.155c0-.386.108-.724.323-1.014s.515-.516.895-.678.817-.247 1.309-.247c.707 0 1.264.154 1.67.461s.675.711.805 1.223zm4.166 5.079c-.633 0-1.179-.143-1.636-.43s-.804-.689-1.048-1.198-.367-1.091-.367-1.747c0-.665.125-1.251.375-1.76a2.87 2.87 0 0 1 1.057-1.197c.455-.287.99-.431 1.607-.431.497 0 .94.093 1.329.277s.703.438.942.767a2.32 2.32 0 0 1 .43 1.155h-1.24c-.068-.307-.224-.571-.469-.792s-.565-.333-.971-.333c-.355 0-.666.094-.933.281s-.471.449-.618.793-.222.744-.222 1.21c0 .478.073.889.217 1.236s.35.615.614.805.581.286.942.286c.241 0 .46-.044.656-.132a1.34 1.34 0 0 0 .499-.388c.136-.168.231-.369.285-.605h1.24c-.045.423-.183.801-.413 1.133s-.538.594-.925.785-.834.285-1.351.285zm3.932-.132v-6.545h1.231v1.039h.069a1.58 1.58 0 0 1 .63-.831 1.81 1.81 0 0 1 1.031-.306l.282.008.26.021v1.219a2.3 2.3 0 0 0-.273-.047c-.131-.02-.261-.03-.392-.03-.301 0-.57.064-.806.192a1.43 1.43 0 0 0-.553.524c-.137.222-.205.475-.205.759V259h-1.274zm4.485 0v-6.545h1.274V259h-1.274zm.644-7.555a.81.81 0 0 1-.571-.222.72.72 0 0 1-.235-.537.71.71 0 0 1 .235-.537c.159-.15.349-.226.571-.226a.79.79 0 0 1 .567.226c.159.148.238.327.238.537s-.079.386-.238.537-.346.222-.567.222zm2.225 10.01v-9h1.244v1.061h.106c.074-.137.181-.294.32-.473s.332-.336.58-.469.573-.205.98-.205c.528 0 1 .134 1.414.401s.741.652.976 1.155.358 1.108.358 1.815-.118 1.314-.353 1.82-.56.89-.972 1.163-.882.405-1.411.405c-.397 0-.723-.067-.975-.2s-.446-.29-.588-.469-.252-.338-.329-.477h-.076v3.473h-1.274zm1.248-5.728c0 .46.067.864.2 1.211s.327.617.58.813.562.29.929.29c.381 0 .699-.101.954-.302s.449-.482.58-.831a3.28 3.28 0 0 0 .2-1.181c0-.432-.065-.819-.196-1.163s-.321-.615-.579-.814-.576-.298-.959-.298a1.53 1.53 0 0 0-.938.285c-.252.191-.444.456-.575.797s-.196.739-.196 1.193zm9.093-3.272v1.022h-3.575v-1.022h3.575zm-2.616-1.569h1.274v6.192c0 .247.037.433.111.558a.58.58 0 0 0 .285.252c.12.042.249.064.388.064a1.41 1.41 0 0 0 .268-.022l.179-.034.231 1.053a2.14 2.14 0 0 1-.316.085c-.136.031-.307.048-.511.051-.335.006-.648-.054-.938-.179s-.524-.318-.703-.579-.268-.59-.268-.985v-6.456zm3.906 8.114v-6.545h1.274V259h-1.274zm.643-7.555a.81.81 0 0 1-.571-.222c-.156-.151-.234-.33-.234-.537s.078-.389.234-.537.35-.226.571-.226a.79.79 0 0 1 .567.226c.159.148.239.327.239.537s-.08.386-.239.537-.345.222-.567.222zm4.982 7.687c-.614 0-1.149-.141-1.606-.422s-.813-.674-1.066-1.18-.379-1.097-.379-1.773.126-1.273.379-1.781.608-.904 1.066-1.185.992-.422 1.606-.422 1.149.141 1.607.422.812.676 1.065 1.185.379 1.102.379 1.781-.126 1.267-.379 1.773-.608.899-1.065 1.18-.993.422-1.607.422zm.004-1.07c.398 0 .728-.105.989-.315s.454-.49.579-.839a3.34 3.34 0 0 0 .192-1.155c0-.418-.064-.801-.192-1.151s-.318-.635-.579-.848-.591-.319-.989-.319-.733.106-.997.319a1.91 1.91 0 0 0-.584.848c-.125.35-.187.733-.187 1.151s.062.805.187 1.155a1.88 1.88 0 0 0 .584.839c.264.21.597.315.997.315zm5.624-2.948V259h-1.275v-6.545h1.223v1.065h.081a1.87 1.87 0 0 1 .708-.835c.324-.211.731-.316 1.223-.316.446 0 .836.094 1.172.282s.595.46.779.826.277.82.277 1.36V259h-1.274v-4.01c0-.474-.123-.845-.37-1.112s-.587-.405-1.019-.405c-.295 0-.558.064-.788.192s-.408.315-.541.562-.196.54-.196.887zm8.833 6.341v-9h1.244v1.061h.107c.074-.137.18-.294.32-.473s.332-.336.579-.469.574-.205.98-.205c.529 0 1 .134 1.415.401s.74.652.976 1.155.358 1.108.358 1.815-.118 1.314-.354 1.82-.56.89-.972 1.163-.882.405-1.41.405c-.398 0-.723-.067-.976-.2s-.446-.29-.588-.469-.251-.338-.328-.477h-.077v3.473h-1.274zm1.249-5.728c0 .46.066.864.2 1.211s.327.617.579.813.563.29.929.29c.381 0 .699-.101.955-.302s.449-.482.58-.831.2-.743.2-1.181c0-.432-.066-.819-.196-1.163s-.321-.615-.58-.814-.575-.298-.959-.298c-.369 0-.681.095-.937.285a1.75 1.75 0 0 0-.575.797c-.131.341-.196.739-.196 1.193zm7.942 3.418c-.415 0-.79-.077-1.125-.23a1.89 1.89 0 0 1-.797-.678c-.193-.295-.29-.657-.29-1.086 0-.37.072-.674.214-.912s.333-.428.575-.567.511-.244.81-.315a8.07 8.07 0 0 1 .911-.162l.955-.111c.244-.031.422-.081.533-.149s.166-.179.166-.333v-.03c0-.372-.105-.66-.315-.865s-.518-.306-.929-.306c-.429 0-.768.095-1.015.285s-.413.396-.507.626l-1.197-.272c.142-.398.349-.719.622-.963a2.53 2.53 0 0 1 .95-.537 3.7 3.7 0 0 1 1.129-.171 4.01 4.01 0 0 1 .831.094c.296.06.571.171.827.332a1.84 1.84 0 0 1 .635.695c.165.298.247.686.247 1.163V259h-1.244v-.895h-.051c-.083.165-.206.327-.371.486s-.376.291-.635.396-.568.158-.929.158zm.277-1.023c.352 0 .654-.069.904-.209a1.47 1.47 0 0 0 .575-.545 1.42 1.42 0 0 0 .2-.729v-.844c-.045.046-.133.089-.264.128s-.274.07-.439.098l-.482.073-.392.051c-.247.031-.473.084-.677.158s-.364.18-.486.319-.179.318-.179.546c0 .315.117.554.35.716s.529.238.89.238zm5.101 3.333c-.19 0-.363-.016-.52-.047a1.68 1.68 0 0 1-.349-.094l.307-1.044c.233.062.44.089.622.081a.75.75 0 0 0 .482-.205c.142-.128.267-.336.375-.626l.157-.435-2.395-6.63h1.364l1.658 5.079h.068l1.658-5.079h1.367l-2.697 7.419c-.125.34-.284.629-.477.865s-.424.417-.691.537-.576.179-.929.179zm5.872-2.455v-6.545h1.223v1.065h.081c.136-.361.359-.642.669-.844s.68-.307 1.112-.307c.438 0 .804.103 1.1.307s.518.486.66.844h.068c.156-.35.405-.628.746-.835s.747-.316 1.219-.316c.593 0 1.078.186 1.453.559s.567.933.567 1.683V259h-1.275v-4.27c0-.443-.12-.764-.362-.963s-.53-.298-.865-.298c-.415 0-.737.128-.967.383s-.345.578-.345.976V259h-1.27v-4.351c0-.355-.111-.64-.333-.856s-.51-.324-.865-.324a1.24 1.24 0 0 0-.669.192c-.201.125-.365.299-.49.524s-.183.484-.183.779V259h-1.274zm13.306.132c-.645 0-1.2-.138-1.666-.413s-.821-.669-1.074-1.172-.375-1.098-.375-1.777c0-.671.125-1.261.375-1.773s.605-.91 1.057-1.197.986-.431 1.594-.431a3.19 3.19 0 0 1 1.074.184c.346.122.657.313.933.575s.493.601.652 1.018.239.919.239 1.513v.452h-5.204v-.955h3.955a1.87 1.87 0 0 0-.205-.89c-.136-.262-.328-.468-.575-.618s-.531-.226-.861-.226c-.358 0-.67.088-.937.264s-.469.401-.614.682-.213.581-.213.908v.745c0 .438.077.81.23 1.117a1.67 1.67 0 0 0 .652.703c.279.159.604.239.976.239.242 0 .462-.035.661-.103s.37-.176.515-.315a1.37 1.37 0 0 0 .333-.516l1.206.218a2.19 2.19 0 0 1-.52.933c-.247.264-.559.47-.934.618s-.796.217-1.274.217zm5.376-4.018V259h-1.274v-6.545h1.223v1.065h.081a1.87 1.87 0 0 1 .708-.835c.324-.211.731-.316 1.223-.316.446 0 .836.094 1.172.282s.595.46.779.826.277.82.277 1.36V259h-1.274v-4.01c0-.474-.123-.845-.371-1.112s-.586-.405-1.018-.405c-.295 0-.558.064-.788.192a1.38 1.38 0 0 0-.542.562c-.13.245-.196.54-.196.887zm8.834-2.659v1.022h-3.576v-1.022h3.576zm-2.617-1.569h1.274v6.192c0 .247.037.433.111.558s.169.206.286.252.248.064.387.064a1.42 1.42 0 0 0 .269-.022l.179-.034.23 1.053a2.16 2.16 0 0 1-.315.085c-.137.031-.307.048-.512.051-.335.006-.648-.054-.937-.179a1.61 1.61 0 0 1-.703-.579c-.179-.262-.269-.59-.269-.985v-6.456z" class="T"/><path d="M275.247 259v-8.727h3.273c.67 0 1.233.125 1.687.375s.803.593 1.036 1.031.353.929.353 1.483c0 .56-.117 1.057-.353 1.491s-.584.777-1.044 1.027-1.027.371-1.701.371h-2.169v-1.3h1.956c.392 0 .713-.068.963-.204s.435-.324.554-.563.184-.512.184-.822-.061-.582-.184-.818-.305-.419-.558-.55-.572-.2-.967-.2h-1.449V259h-1.581zm9.301.132c-.415 0-.788-.074-1.121-.221a1.84 1.84 0 0 1-.784-.665c-.19-.293-.285-.654-.285-1.083 0-.369.068-.674.204-.916a1.58 1.58 0 0 1 .558-.579c.236-.145.502-.255.797-.329a6.57 6.57 0 0 1 .925-.166l.933-.106c.239-.034.412-.085.52-.154s.166-.18.166-.328v-.025c0-.321-.095-.57-.285-.746s-.465-.264-.823-.264c-.378 0-.677.082-.899.247s-.366.359-.443.584l-1.44-.205c.113-.398.301-.73.562-.997s.581-.472.959-.605.795-.205 1.253-.205c.315 0 .629.037.941.111s.599.196.857.367.466.396.622.686.239.652.239 1.086V259h-1.483v-.899h-.051c-.094.182-.226.352-.397.511a1.89 1.89 0 0 1-.635.379c-.252.094-.549.141-.89.141zm.4-1.133a1.68 1.68 0 0 0 .806-.184 1.35 1.35 0 0 0 .524-.494 1.26 1.26 0 0 0 .187-.669v-.771c-.048.039-.13.076-.247.11s-.241.064-.383.09l-.422.068-.362.051a2.74 2.74 0 0 0-.618.154 1.03 1.03 0 0 0-.431.298.73.73 0 0 0-.157.486c0 .284.103.498.311.643s.471.218.792.218zm8.659-1.752v-3.792h1.542V259h-1.495v-1.163h-.068c-.148.366-.391.666-.729.899s-.749.349-1.24.349c-.429 0-.808-.095-1.138-.285s-.582-.473-.767-.84-.277-.815-.277-1.338v-4.167h1.543v3.929c0 .414.113.744.34.988s.526.367.895.367c.228 0 .448-.056.661-.167s.388-.275.524-.494.209-.498.209-.831zm8.182-2.062l-1.406.153a1.13 1.13 0 0 0-.209-.4c-.097-.126-.227-.226-.392-.303s-.367-.115-.605-.115c-.321 0-.591.069-.81.209s-.322.319-.319.541c-.003.19.066.345.208.464s.384.218.716.294l1.117.239c.619.134 1.079.345 1.38.635s.458.669.461 1.138a1.78 1.78 0 0 1-.363 1.091c-.235.312-.563.556-.984.733s-.903.264-1.449.264c-.801 0-1.446-.168-1.934-.503a2.02 2.02 0 0 1-.874-1.411l1.504-.144a1.06 1.06 0 0 0 .435.669c.221.15.51.225.865.225.366 0 .66-.075.882-.225s.337-.337.337-.559a.58.58 0 0 0-.218-.464c-.142-.122-.363-.216-.664-.281l-1.117-.235c-.628-.13-1.092-.351-1.393-.66s-.451-.708-.448-1.185c-.003-.403.107-.753.328-1.048s.536-.529.934-.691.862-.247 1.385-.247c.767 0 1.37.164 1.811.49s.717.769.822 1.326zm4.19 4.943c-.656 0-1.223-.137-1.7-.409s-.839-.665-1.095-1.168-.384-1.101-.384-1.785c0-.674.128-1.265.384-1.773s.619-.909 1.082-1.193 1.007-.431 1.632-.431c.404 0 .785.066 1.142.196s.679.327.955.597.497.614.656 1.031.239.909.239 1.483v.473h-5.365v-1.04h3.886a1.66 1.66 0 0 0-.192-.788c-.125-.233-.299-.416-.524-.55s-.48-.2-.775-.2c-.316 0-.593.077-.831.23s-.425.35-.558.597-.198.513-.201.805v.908c0 .38.07.707.209.98a1.49 1.49 0 0 0 .584.622c.25.142.542.213.878.213.224 0 .427-.031.609-.094a1.34 1.34 0 0 0 .473-.285c.134-.125.234-.28.303-.465l1.44.162a2.24 2.24 0 0 1-.52.997c-.253.282-.577.5-.971.657s-.847.23-1.356.23zm6.525-.013a2.48 2.48 0 0 1-1.381-.396c-.406-.264-.727-.648-.963-1.151s-.354-1.113-.354-1.832c0-.727.12-1.341.358-1.841s.567-.882.976-1.138a2.51 2.51 0 0 1 1.368-.388c.384 0 .699.066.946.196a1.79 1.79 0 0 1 .588.465c.145.179.257.348.337.507h.064v-3.264h1.547V259h-1.517v-1.031h-.094c-.08.159-.195.328-.345.507a1.91 1.91 0 0 1-.597.452c-.247.125-.558.187-.933.187zm.43-1.266c.327 0 .605-.088.836-.264s.404-.427.524-.746.179-.688.179-1.112-.06-.791-.179-1.103-.29-.556-.52-.729-.507-.26-.84-.26c-.343 0-.63.089-.86.268s-.404.427-.52.742-.175.676-.175 1.082.058.774.175 1.095.294.57.524.755.518.272.856.272z" fill="#f2994a"/><g class="U"><rect x="119.5" y="239.5" width="207" height="30" rx="3.5"/><path d="M120 304.186h364.145" stroke-width="2"/></g><rect x="-1" y="1" width="419" height="345" rx="7" transform="matrix(-1 0 0 1 515 124)" stroke="#e1e8f2" stroke-width="2" stroke-dasharray="8 8"/><defs><clipPath id="A"><rect x="167.023" y="373" width="32" height="32" rx="16" class="E"/></clipPath><clipPath id="B"><rect x="143.023" y="373" width="32" height="32" rx="16" class="E"/></clipPath><clipPath id="C"><rect x="119.023" y="373" width="32" height="32" rx="16" class="E"/></clipPath><clipPath id="D"><path transform="translate(129.742 203.35)" d="M0 0h15v15H0z" class="E"/></clipPath><clipPath id="E"><path transform="translate(338.742 203)" d="M0 0h15v15H0z" class="E"/></clipPath><clipPath id="F"><path transform="translate(129 247)" d="M0 0h15v15H0z" class="E"/></clipPath><path id="G" d="M355.621 511.034l10.182-13.817 13.818-10.183-13.818-10.182-10.182-13.818-10.182 13.818-13.818 10.182 13.818 10.183 10.182 13.817z"/><path id="H" d="M166.29 409.188l2.888-9.96c.284-.988 1.086-1.753 2.086-2l6.479-1.604a6.16 6.16 0 0 0 6.159 5.862c3.307 0 6.01-2.604 6.158-5.862l6.492 1.604a2.89 2.89 0 0 1 2.086 2.012l2.863 9.948H166.29z"/><path id="I" d="M190.06 395.624a6.16 6.16 0 0 1-6.158 5.862 6.17 6.17 0 0 1-6.159-5.862l1.333-.124c.025 2.654 2.172 4.789 4.826 4.789s4.801-2.135 4.825-4.789l1.333.124z"/><path id="J" d="M182.397 381.234c.012.098-.494.247-1.136.321-.481.061-1.036.037-1.444.333.223-.593.852-.642 1.407-.704.63-.074 1.16-.061 1.173.05z"/><path id="K" d="M166.581 398.855c-7.473 5.439-14.74.061-14.825 0a14.02 14.02 0 0 1 2.059-.581c1.466-.291 2.519-1.587 2.519-3.089v-2.991c-3.331-3.053-3.1-8.552-3.1-8.552.036-.036.072-.084.096-.121 1.127-.46 3.792-1.635 5.633-3.101a9.43 9.43 0 0 0 .642-.557s.23.23.617.57c.969.86 2.907 2.446 4.615 3.076.036.085.073.133.073.133.048 4.07-1.89 7.171-1.89 7.171s-.363.69-1.017 1.381v3.003c0 1.502 1.054 2.798 2.519 3.089.606.109 1.296.303 2.059.569z"/><path id="L" d="M130.289 382.861l.265.205c.024.024.072.036.108.036.049 0 .085.012.121.036.084.06.096.193.012.265-.048.048-.133.06-.193.024a.19.19 0 0 1-.096-.121c-.012-.036-.024-.072-.06-.096l-.41-.325"/><path id="M" d="M126.028 162.889c.506 0 .917-.41.917-.917s-.411-.916-.917-.916-.917.41-.917.916.411.917.917.917z"/><path id="N" d="M140.367 207.933c.345 0 .625-.28.625-.625s-.28-.625-.625-.625-.625.28-.625.625.28.625.625.625z"/></defs></svg>