<svg xmlns="http://www.w3.org/2000/svg" xmlns:xlink="http://www.w3.org/1999/xlink" width="608" height="561" fill="none" xmlns:v="https://vecta.io/nano"><style><![CDATA[.B{fill:#c6d5db}.C{stroke:#121212}.D{stroke-width:4}.E{fill:#fff}.F{fill:#e1e8ed}.G{fill:#121212}.H{fill:#edf1f4}.I{fill:#f5f6f8}.J{fill:#636369}.K{stroke:#e1e8f2}.L{stroke-width:2}.M{stroke-dasharray:8 8}]]></style><g stroke="#97969c" stroke-dasharray="4 4"><path d="M48.496-30.96v78.64m0 544.473v-280.31m0-65.742V97.883M150.688-30.583l-.001 402.045m0 220.516V396.135M252.379-30.772v164.794m0 457.954V510.73m0-293.993V461.13M355.07-30.583V60.16m0 531.811V84.463M457.261-30.77l.001 373.693m0 249.057V425.995M559.453-30.962v183.828m0 439.102V288.95m0-90.065v72.831"/><path d="M608 487.649H277.773M0 487.649h228.393M608 383.856H495.737M0 383.856h138.654m278.878 0H163.326M608 176.271h-25.672M0 176.271h211.292m80.708 0h242.642M608 280.063h-39.48m-568.52 0h15.322m65.323 0H550.88M608 72.478H368.442M0 72.478h25.121m48.339 0h269.018"/><path d="M252.379 511.63l-10.182-13.818-13.818-10.182 13.818-10.182 10.182-13.818 10.182 13.818 13.818 10.182-13.818 10.182-10.182 13.818zM48.52 96.396L38.337 82.578 24.52 72.396l13.818-10.182L48.52 48.396l10.182 13.818L72.52 72.396 58.702 82.578 48.52 96.396zm510.878 103.73l-10.182-13.818-13.818-10.182 13.818-10.182 10.182-13.818 10.183 13.818 13.817 10.182-13.817 10.182-10.183 13.818zM48.531 311.979l-13.576-18.423-18.424-13.577 18.424-13.576 13.576-18.424 13.577 18.424 18.423 13.576-18.423 13.577-13.577 18.423zm408.715 111.907l-16.97-23.03-23.03-16.97 23.03-16.971 16.97-23.029 16.971 23.029 23.029 16.971-23.029 16.97-16.971 23.03zm-204.867-207.61l-16.971-23.029-23.029-16.971 23.029-16.97 16.971-23.03 16.97 23.03 23.03 16.97-23.03 16.971-16.97 23.029z"/><circle cx="150.754" cy="383.856" r="12" transform="rotate(180 150.754 383.856)"/><circle cx="559.453" cy="280.063" r="8" transform="rotate(180 559.453 280.063)"/><circle cx="355.402" cy="72.478" r="12" transform="rotate(180 355.402 72.478)"/></g><g transform="matrix(-1 0 0 1 501.912 65)"><rect x="-2" y="2" width="447" height="151" rx="6" class="G"/><rect x="-2" y="2" width="447" height="151" rx="6" class="C D"/></g><rect x="-2" y="2" width="447" height="144" rx="6" transform="matrix(-1 0 0 1 513.846 60.4775)" class="I"/><rect x="81.346" y="76.873" width="422" height="38" rx="4" class="E"/><rect x="98.346" y="90.873" width="10" height="10" rx="5" fill="#eb5757"/><rect x="116.346" y="90.873" width="10" height="10" rx="5" fill="#f2c94c"/><rect x="134.346" y="90.873" width="10" height="10" rx="5" fill="#27ae60"/><g fill="#e7edf5"><path d="M477.783 89.873a1 1 0 1 0-2 0h2zm-2 12a1 1 0 1 0 2 0h-2zm0-12v12h2v-12h-2z"/><path d="M482.783 96.873a1 1 0 1 0 0-2v2zm-12-2a1 1 0 1 0 0 2v-2zm12 0h-12v2h12v-2z"/></g><rect x="-1" y="1" width="419" height="61" rx="7" transform="matrix(-1 0 0 1 500.846 126.478)" class="I"/><path d="M121.392 163.978v-5.706l-.036-1.854h.18l1.17 1.854 3.744 5.706h2.88v-12.06h-2.7v6.048l.036 1.62h-.18l-1.008-1.62-3.906-6.048h-2.88v12.06h2.7zm14.198.18c2.592 0 4.248-1.134 4.248-3.06v-.18h-2.664v.108c0 .558-.468.792-1.548.792-1.476 0-1.98-.504-2.034-1.764h6.21a8.16 8.16 0 0 0 .126-1.332c0-2.358-1.602-3.978-4.32-3.978-2.826 0-4.554 1.836-4.554 4.734 0 2.862 1.422 4.68 4.536 4.68zm-.072-7.2c1.26 0 1.872.522 1.818 1.458h-3.726c.108-.954.612-1.458 1.908-1.458zm10.824 7.02l1.188-4.302.45-2.376h.198l.45 2.376 1.17 4.302h3.528l2.106-9.054h-2.844l-.63 4.194-.324 2.7h-.18l-.486-2.7-1.116-4.194h-3.438l-1.098 4.176-.504 2.718h-.198l-.342-2.718-.594-4.176h-2.97l2.106 9.054h3.528zm17.072.18c1.674 0 2.592-.738 3.078-1.404h.108v1.224h2.502v-5.364c0-2.412-1.404-3.87-4.068-3.87-2.556 0-4.23 1.422-4.23 3.582v.198h2.574v-.198c0-.918.432-1.224 1.53-1.224 1.062 0 1.638.198 1.638 1.26v.288l-3.096.468c-1.872.288-2.88 1.152-2.88 2.556 0 1.638 1.242 2.484 2.844 2.484zm-.27-2.7c0-.378.252-.558.81-.648l2.592-.396c0 1.404-1.134 1.692-2.232 1.692-.792 0-1.17-.162-1.17-.648zm11.411 2.7c1.584 0 2.538-.72 3.042-1.764h.09v1.584h2.502v-9.054h-2.682v5.13c0 1.368-.558 1.782-1.854 1.782-1.35 0-1.782-.45-1.782-1.71v-5.202h-2.682v5.742c0 1.926.99 3.492 3.366 3.492zm11.933-.144a9.52 9.52 0 0 0 1.764-.18v-2.25h-1.116c-1.17 0-1.44-.09-1.44-.882v-3.546h2.556v-2.232h-2.556v-2.106h-2.124l-.504 2.106h-1.512v2.232h1.44v3.852c0 2.142 1.134 3.006 3.492 3.006zm7.627.144c2.898 0 4.59-1.836 4.59-4.698 0-2.88-1.692-4.716-4.59-4.716-2.916 0-4.644 1.836-4.644 4.716 0 2.862 1.728 4.698 4.644 4.698zm0-2.376c-1.476 0-1.98-.576-1.98-2.322 0-1.764.504-2.34 1.98-2.34 1.458 0 1.962.576 1.962 2.34 0 1.746-.504 2.322-1.962 2.322zm9.045 2.196v-5.238c0-1.278.54-1.674 1.764-1.674 1.296 0 1.692.45 1.692 1.71v5.202h2.7v-5.202c0-1.314.522-1.71 1.746-1.71 1.314 0 1.692.45 1.692 1.71v5.202h2.7v-5.742c0-1.926-.954-3.492-3.294-3.492-1.674 0-2.574.774-3.078 1.764h-.09c-.45-1.062-1.386-1.764-2.934-1.764s-2.484.738-2.97 1.764h-.108v-1.584h-2.502v9.054h2.682zm16.901.18c1.674 0 2.592-.738 3.078-1.404h.108v1.224h2.502v-5.364c0-2.412-1.404-3.87-4.068-3.87-2.556 0-4.23 1.422-4.23 3.582v.198h2.574v-.198c0-.918.432-1.224 1.53-1.224 1.062 0 1.638.198 1.638 1.26v.288l-3.096.468c-1.872.288-2.88 1.152-2.88 2.556 0 1.638 1.242 2.484 2.844 2.484zm-.27-2.7c0-.378.252-.558.81-.648l2.592-.396c0 1.404-1.134 1.692-2.232 1.692-.792 0-1.17-.162-1.17-.648zm12.205 2.556a9.52 9.52 0 0 0 1.764-.18v-2.25h-1.116c-1.17 0-1.44-.09-1.44-.882v-3.546h2.556v-2.232h-2.556v-2.106h-2.124l-.504 2.106h-1.512v2.232h1.44v3.852c0 2.142 1.134 3.006 3.492 3.006zm6.056-10.116v-1.98h-2.682l.036 1.98h2.646zm.054 10.08v-9.054h-2.7v9.054h2.7zm6.258.18c2.898 0 4.59-1.836 4.59-4.698 0-2.88-1.692-4.716-4.59-4.716-2.916 0-4.644 1.836-4.644 4.716 0 2.862 1.728 4.698 4.644 4.698zm0-2.376c-1.476 0-1.98-.576-1.98-2.322 0-1.764.504-2.34 1.98-2.34 1.458 0 1.962.576 1.962 2.34 0 1.746-.504 2.322-1.962 2.322zm9.045 2.196v-5.13c0-1.368.558-1.782 1.854-1.782 1.368 0 1.782.45 1.782 1.71v5.202h2.7v-5.742c0-1.926-1.008-3.492-3.366-3.492-1.584 0-2.556.738-3.042 1.764h-.108v-1.584h-2.502v9.054h2.682zm15.683 0v-6.822h2.016v-2.232h-2.124v-.162c0-.612.324-.828 1.008-.828h1.116v-2.016c-.288-.036-.558-.036-.846-.036-2.412 0-3.69 1.134-3.852 3.042h-1.332v2.232h1.314v6.822h2.7zm5.724 0v-12.06h-2.682v12.06h2.682zm6.443.18c2.898 0 4.59-1.836 4.59-4.698 0-2.88-1.692-4.716-4.59-4.716-2.916 0-4.644 1.836-4.644 4.716 0 2.862 1.728 4.698 4.644 4.698zm0-2.376c-1.476 0-1.98-.576-1.98-2.322 0-1.764.504-2.34 1.98-2.34 1.458 0 1.962.576 1.962 2.34 0 1.746-.504 2.322-1.962 2.322zm10.943 2.196l1.188-4.302.45-2.376h.198l.45 2.376 1.17 4.302h3.528l2.106-9.054h-2.844l-.63 4.194-.324 2.7h-.18l-.486-2.7-1.116-4.194h-3.438l-1.098 4.176-.504 2.718h-.198l-.342-2.718-.594-4.176h-2.97l2.106 9.054h3.528z" fill="#000"/><g clip-path="url(#A)"><path d="M112.013 167.756v1.222h-1.847v-1.222a1.84 1.84 0 0 0-1.846-1.834v-1.833c2.04 0 3.693 1.642 3.693 3.667z" class="B"/><path d="M108.678 165.311c-.105 0-.206.016-.307.031v.585c.995.028 1.795.833 1.795 1.829v1.222h.667v-1.528c0-1.181-.965-2.139-2.155-2.139zm-3.999 2.445v1.222h1.846v-1.222a1.84 1.84 0 0 1 1.846-1.834v-1.833c-2.039 0-3.692 1.642-3.692 3.667z" class="F"/><path d="M108.063 165.311c.105 0 .206.016.308.031v.585c-.995.027-1.795.833-1.795 1.828v1.223h-.667v-1.528c.001-1.182.965-2.139 2.154-2.139zm3.949-17.111v-1.222h-1.846v1.222a1.84 1.84 0 0 1-1.846 1.833v1.833c2.039 0 3.692-1.642 3.692-3.666z" class="B"/><path d="M108.678 150.644c-.105 0-.206-.016-.307-.031v-.585c.995-.028 1.795-.833 1.795-1.828v-1.222h.667v1.527c0 1.182-.965 2.139-2.155 2.139zm-3.999-2.444v-1.222h1.846v1.222a1.84 1.84 0 0 0 1.846 1.833v1.833c-2.039 0-3.692-1.642-3.692-3.666z" class="F"/><path d="M108.064 150.644c.105 0 .206-.016.307-.031v-.585c-.994-.028-1.794-.833-1.794-1.828v-1.222h-.667v1.527c0 1.182.964 2.139 2.154 2.139zm.256 2.445v1.833a1.84 1.84 0 0 1 1.847 1.833v2.445a1.84 1.84 0 0 1-1.847 1.833v1.833c2.04 0 3.693-1.642 3.693-3.666v-2.445c0-2.024-1.653-3.666-3.693-3.666z" class="B"/><g class="F"><path d="M108.679 154.311c-.105 0-.206.016-.308.031v.585c.995.028 1.795.833 1.795 1.828v2.445c0 .995-.8 1.8-1.795 1.828v.585c.102.015.203.031.308.031 1.189 0 2.154-.957 2.154-2.139v-3.055c0-1.181-.964-2.139-2.154-2.139z"/><use xlink:href="#D"/></g><path d="M108.064 154.311c-1.19 0-2.154.958-2.154 2.139v3.055c0 1.182.964 2.139 2.154 2.139.105 0 .206-.016.307-.031v-.585c-.995-.027-1.795-.833-1.795-1.828v-2.445c0-.995.8-1.8 1.795-1.828v-.585c-.101-.015-.202-.031-.307-.031zm-10.744 4.278v1.833a1.84 1.84 0 0 1 1.846 1.833v2.445a1.84 1.84 0 0 1-1.846 1.833v1.834c2.039 0 3.693-1.642 3.693-3.667v-2.445c0-2.024-1.653-3.666-3.693-3.666z" class="B"/><g class="F"><path d="M97.679 159.811c-.105 0-.206.016-.308.031v.585c.995.028 1.795.833 1.795 1.828v2.445c0 .995-.8 1.8-1.795 1.828v.585c.102.015.203.031.308.031 1.189 0 2.153-.957 2.153-2.139v-3.055c.001-1.181-.964-2.139-2.153-2.139z"/><path d="M95.525 162.256a1.84 1.84 0 0 1 1.846-1.834v-1.833c-2.039 0-3.692 1.642-3.692 3.667v2.444c0 2.025 1.653 3.667 3.692 3.667v-1.834a1.84 1.84 0 0 1-1.846-1.833v-2.444z"/></g><path d="M97.064 159.811c-1.189 0-2.153.958-2.153 2.139v3.056c0 1.181.964 2.138 2.153 2.138.105 0 .206-.015.307-.031v-.585c-.994-.028-1.794-.833-1.794-1.828v-2.444c0-.996.8-1.801 1.795-1.829v-.585c-.101-.015-.202-.031-.308-.031zm.257-12.222v1.833a1.84 1.84 0 0 1 1.846 1.834v2.444a1.84 1.84 0 0 1-1.846 1.833v1.834c2.039 0 3.693-1.642 3.693-3.667v-2.444c0-2.025-1.653-3.667-3.693-3.667z" class="B"/><path d="M97.678 148.811c-.105 0-.206.016-.307.031v.585c.995.028 1.795.833 1.795 1.829v2.444c0 .995-.8 1.8-1.795 1.828v.585c.102.016.202.031.307.031 1.189 0 2.154-.957 2.154-2.138v-3.056c.001-1.181-.964-2.139-2.154-2.139zm-2.153 2.445a1.84 1.84 0 0 1 1.846-1.834v-1.833c-2.039 0-3.692 1.642-3.692 3.667v2.444c0 2.025 1.653 3.667 3.692 3.667v-1.834a1.84 1.84 0 0 1-1.846-1.833v-2.444z" class="F"/><path d="M97.064 148.811c-1.189 0-2.153.958-2.153 2.139v3.055c0 1.182.964 2.139 2.153 2.139.105 0 .206-.016.307-.031v-.585c-.994-.028-1.794-.833-1.794-1.828v-2.445c0-.995.8-1.8 1.795-1.828v-.585c-.101-.015-.202-.031-.308-.031zm12.504 18.333c0 .675-.547 1.223-1.222 1.223s-1.222-.548-1.222-1.223v-7.333a1.22 1.22 0 1 1 2.444 0v7.333z" class="B"/><path d="M107.123 159.811v7.333c0 .675.548 1.223 1.222 1.223v-9.778c-.674 0-1.222.547-1.222 1.222z" class="H"/><path d="M109.567 156.144c0 .675-.547 1.223-1.222 1.223s-1.222-.548-1.222-1.223v-7.333c0-.675.548-1.222 1.222-1.222a1.22 1.22 0 0 1 1.222 1.222v7.333z" class="B"/><path d="M107.123 148.811v7.333c0 .675.548 1.223 1.222 1.223v-9.778c-.674 0-1.222.547-1.222 1.222z" class="H"/><path d="M98.568 168.978h-2.444v-3.667c0-.675.548-1.222 1.222-1.222s1.222.547 1.222 1.222v3.667z" class="B"/><path d="M97.345 164.089c-.675 0-1.222.547-1.222 1.222v3.667h1.222v-4.889z" class="H"/><path d="M98.568 161.644c0 .675-.548 1.223-1.222 1.223s-1.222-.548-1.222-1.223v-7.333c0-.675.548-1.222 1.222-1.222s1.222.547 1.222 1.222v7.333z" class="B"/><path d="M96.123 154.311v7.333c0 .675.548 1.223 1.222 1.223v-9.778c-.675 0-1.222.547-1.222 1.222z" class="H"/><path d="M98.568 146.978h-2.444v3.666c0 .675.548 1.222 1.222 1.222s1.222-.547 1.222-1.222v-3.666z" class="B"/><path d="M97.345 151.866c-.675 0-1.222-.547-1.222-1.222v-3.666h1.222v4.888z" class="H"/></g><rect x="-1" y="1" width="419" height="61" rx="7" transform="matrix(-1 0 0 1 500.846 126.478)" class="K L M"/><rect x="-2" y="2" width="447" height="144" rx="6" transform="matrix(-1 0 0 1 513.846 60.4775)" class="C D"/><g transform="matrix(-1 0 0 1 501.912 295)"><rect x="-2" y="2" width="447" height="112" rx="6" class="G"/><rect x="-2" y="2" width="447" height="112" rx="6" class="C D"/></g><g class="I"><rect x="-2" y="2" width="447" height="108" rx="6" transform="matrix(-1 0 0 1 513.846 286.052)"/><rect x="-1" y="1" width="421" height="84" rx="7" transform="matrix(-1 0 0 1 501.846 299.052)"/></g><rect width="329" height="56" rx="6" transform="matrix(-1 0 0 1 490.596 313.802)" class="E"/><rect x="439.596" y="324.802" width="41" height="4" rx="2" fill="#eef1f7"/><path d="M173.914 324.867v-.883h4.642v.883h-1.798v4.935h-1.046v-4.935h-1.798zm4.958 4.935v-4.364h.997v.727h.046c.079-.251.216-.446.409-.582a1.13 1.13 0 0 1 .668-.207l.19.008c.072.004.132.011.179.02v.946c-.044-.015-.113-.028-.208-.04a1.93 1.93 0 0 0-.269-.02c-.188 0-.356.041-.506.123s-.264.19-.35.332-.127.306-.127.491v2.566h-1.029zm3.092 0v-4.364h1.029v4.364h-1.029zm.517-4.983c-.163 0-.303-.054-.42-.162a.52.52 0 0 1-.176-.395c0-.155.058-.287.176-.395a.59.59 0 0 1 .42-.165.59.59 0 0 1 .421.165.52.52 0 0 1 .176.395c0 .153-.059.285-.176.395s-.256.162-.421.162zm3.387 6.71c-.37 0-.687-.05-.952-.151s-.478-.231-.639-.397-.273-.352-.335-.554l.926-.225c.041.086.102.17.182.253s.186.155.321.21.307.086.514.086c.291 0 .533-.071.724-.213s.287-.372.287-.694v-.826h-.051a1.45 1.45 0 0 1-.233.326c-.1.112-.234.206-.4.282s-.373.113-.623.113c-.335 0-.639-.078-.912-.236a1.69 1.69 0 0 1-.647-.71c-.159-.316-.239-.712-.239-1.187s.08-.884.239-1.213a1.77 1.77 0 0 1 .65-.753c.273-.173.577-.259.912-.259.256 0 .466.044.631.131s.299.188.398.31a1.71 1.71 0 0 1 .224.338h.057v-.722h1.014v4.435c0 .373-.089.682-.267.926a1.6 1.6 0 0 1-.73.548c-.309.121-.659.182-1.051.182zm.008-2.597c.218 0 .404-.053.557-.159s.27-.258.35-.457a1.94 1.94 0 0 0 .119-.716c0-.275-.04-.515-.119-.722a1.04 1.04 0 0 0-.347-.48.9.9 0 0 0-.56-.173.91.91 0 0 0-.574.179c-.153.119-.269.283-.346.492a1.98 1.98 0 0 0-.117.704c0 .267.039.501.117.702s.196.354.349.466.346.164.571.164zm4.912 2.597c-.37 0-.687-.05-.952-.151s-.478-.231-.639-.397-.273-.352-.335-.554l.926-.225c.041.086.102.17.182.253s.186.155.321.21.307.086.514.086c.291 0 .533-.071.724-.213s.287-.372.287-.694v-.826h-.051a1.45 1.45 0 0 1-.233.326c-.1.112-.234.206-.4.282s-.373.113-.623.113c-.335 0-.639-.078-.912-.236a1.69 1.69 0 0 1-.647-.71c-.159-.316-.239-.712-.239-1.187s.08-.884.239-1.213a1.77 1.77 0 0 1 .65-.753c.273-.173.577-.259.912-.259.256 0 .466.044.631.131s.299.188.398.31a1.71 1.71 0 0 1 .224.338h.057v-.722h1.014v4.435c0 .373-.089.682-.267.926a1.6 1.6 0 0 1-.73.548c-.309.121-.659.182-1.051.182zm.008-2.597c.218 0 .404-.053.557-.159s.27-.258.35-.457a1.94 1.94 0 0 0 .119-.716c0-.275-.04-.515-.119-.722a1.04 1.04 0 0 0-.347-.48.9.9 0 0 0-.56-.173.91.91 0 0 0-.574.179c-.153.119-.269.283-.346.492a1.98 1.98 0 0 0-.117.704c0 .267.039.501.117.702s.196.354.349.466.346.164.571.164zm4.946.955c-.438 0-.815-.091-1.134-.273s-.559-.443-.73-.778-.255-.734-.255-1.19c0-.449.085-.843.255-1.182a1.94 1.94 0 0 1 .722-.796c.309-.191.671-.287 1.088-.287a2.2 2.2 0 0 1 .761.131 1.72 1.72 0 0 1 .637.398c.185.18.331.409.437.687s.159.606.159.989v.315h-3.576v-.693h2.59c-.001-.197-.044-.372-.127-.526s-.2-.277-.35-.366-.32-.134-.517-.134c-.21 0-.395.052-.554.154s-.283.233-.372.398-.132.341-.134.537v.605a1.42 1.42 0 0 0 .14.653.99.99 0 0 0 .389.415c.167.095.362.142.585.142a1.23 1.23 0 0 0 .406-.063c.122-.043.227-.107.316-.19s.156-.187.201-.31l.961.108c-.061.254-.177.476-.347.665s-.384.333-.648.438-.564.153-.903.153zm2.73-.085v-4.364h.997v.727h.046c.079-.251.216-.446.409-.582a1.13 1.13 0 0 1 .668-.207l.19.008c.072.004.132.011.179.02v.946c-.044-.015-.113-.028-.208-.04a1.93 1.93 0 0 0-.269-.02c-.188 0-.356.041-.506.123s-.264.19-.35.332-.127.306-.127.491v2.566h-1.029zm6.928.085c-.437 0-.815-.091-1.133-.273s-.56-.443-.73-.778-.256-.734-.256-1.19c0-.449.085-.843.256-1.182a1.94 1.94 0 0 1 .721-.796c.309-.191.672-.287 1.088-.287a2.21 2.21 0 0 1 .762.131c.24.085.452.218.636.398s.331.409.438.687.159.606.159.989v.315h-3.577v-.693h2.591c-.002-.197-.045-.372-.128-.526a.93.93 0 0 0-.349-.366c-.148-.089-.32-.134-.517-.134-.211 0-.395.052-.554.154a1.05 1.05 0 0 0-.373.398 1.14 1.14 0 0 0-.133.537v.605a1.42 1.42 0 0 0 .139.653 1 1 0 0 0 .389.415c.167.095.362.142.586.142.149 0 .285-.021.406-.063a.9.9 0 0 0 .315-.19.8.8 0 0 0 .202-.31l.96.108c-.061.254-.176.476-.347.665a1.69 1.69 0 0 1-.647.438c-.264.102-.565.153-.904.153zm6.503-4.449l-1.554 4.364h-1.136l-1.554-4.364h1.097l1.003 3.242h.045l1.006-3.242h1.093zm2.415 4.449c-.437 0-.815-.091-1.133-.273a1.84 1.84 0 0 1-.73-.778c-.171-.337-.256-.734-.256-1.19 0-.449.085-.843.256-1.182a1.94 1.94 0 0 1 .721-.796c.309-.191.672-.287 1.088-.287a2.21 2.21 0 0 1 .762.131c.24.085.452.218.636.398s.332.409.438.687.159.606.159.989v.315h-3.577v-.693h2.591c-.002-.197-.045-.372-.128-.526a.93.93 0 0 0-.349-.366c-.148-.089-.32-.134-.517-.134-.211 0-.395.052-.554.154s-.283.233-.372.398a1.13 1.13 0 0 0-.134.537v.605a1.42 1.42 0 0 0 .139.653 1 1 0 0 0 .389.415c.167.095.362.142.586.142.149 0 .285-.021.406-.063a.9.9 0 0 0 .315-.19.8.8 0 0 0 .202-.31l.96.108a1.49 1.49 0 0 1-.346.665 1.7 1.7 0 0 1-.648.438 2.49 2.49 0 0 1-.904.153zm3.759-2.642v2.557h-1.028v-4.364h.983v.742h.051a1.24 1.24 0 0 1 .48-.583c.222-.144.495-.216.821-.216.301 0 .563.065.787.193s.4.316.523.56.186.541.184.889v2.779h-1.028v-2.62c0-.291-.076-.519-.227-.684s-.357-.247-.622-.247c-.18 0-.34.039-.481.119s-.247.19-.326.338-.117.327-.117.537zm5.946-1.807v.796h-2.509v-.796h2.509zm-1.889-1.045h1.028v4.096a.66.66 0 0 0 .062.318c.044.072.101.122.171.148s.148.04.233.04c.064 0 .123-.005.176-.014l.125-.026.173.804a2.33 2.33 0 0 1-.235.063c-.101.022-.224.036-.37.039-.257.008-.489-.031-.696-.116s-.37-.222-.491-.403-.178-.41-.176-.682v-4.267zm5.474 5.409l-1.233-4.364h1.048l.767 3.068h.04l.784-3.068h1.037l.784 3.051h.043l.755-3.051h1.052l-1.236 4.364h-1.071l-.818-2.949h-.06l-.818 2.949h-1.074zm6.743-2.557v2.557h-1.028v-5.818h1.005v2.196h.051c.103-.247.261-.441.475-.583s.49-.216.824-.216c.303 0 .567.064.792.191a1.28 1.28 0 0 1 .523.556c.125.245.188.543.188.895v2.779h-1.029v-2.62c0-.293-.076-.521-.227-.684s-.36-.247-.631-.247c-.182 0-.345.039-.488.119s-.254.19-.336.338-.119.327-.119.537zm5.73 2.642c-.438 0-.816-.091-1.134-.273a1.84 1.84 0 0 1-.73-.778c-.17-.337-.256-.734-.256-1.19 0-.449.086-.843.256-1.182s.413-.606.722-.796.671-.287 1.088-.287c.269 0 .522.044.761.131s.453.218.636.398.332.409.438.687.159.606.159.989v.315h-3.577v-.693h2.591c-.002-.197-.044-.372-.128-.526s-.199-.277-.349-.366-.32-.134-.517-.134c-.21 0-.395.052-.554.154s-.283.233-.372.398-.132.341-.134.537v.605c0 .253.047.471.139.653s.223.318.39.415.361.142.585.142c.149 0 .285-.021.406-.063a.9.9 0 0 0 .315-.19.79.79 0 0 0 .202-.31l.96.108a1.49 1.49 0 0 1-.346.665 1.7 1.7 0 0 1-.648.438c-.263.102-.564.153-.903.153zm3.758-2.642v2.557h-1.028v-4.364h.983v.742h.051a1.24 1.24 0 0 1 .48-.583c.222-.144.495-.216.821-.216.301 0 .564.065.787.193a1.3 1.3 0 0 1 .523.56c.125.244.186.541.185.889v2.779h-1.029v-2.62c0-.291-.076-.519-.227-.684s-.357-.247-.622-.247a.95.95 0 0 0-.48.119.82.82 0 0 0-.327.338c-.078.148-.117.327-.117.537z" class="J"/><path d="M173.596 336.302h307" class="C"/><path d="M183.171 351.931h-1.551c-.06-.331-.171-.623-.333-.875a2.45 2.45 0 0 0-.597-.641c-.235-.176-.499-.309-.79-.398s-.595-.134-.92-.134c-.587 0-1.112.147-1.576.442s-.825.728-1.094 1.298-.398 1.266-.398 2.088c0 .828.133 1.528.398 2.098s.635 1.001 1.099 1.292.986.438 1.566.438a3.19 3.19 0 0 0 .915-.129c.291-.09.555-.221.79-.393a2.41 2.41 0 0 0 .597-.631c.166-.252.28-.541.343-.865l1.551.004c-.083.501-.244.962-.482 1.383s-.539.778-.91 1.083-.789.536-1.263.701-.991.249-1.551.249c-.882 0-1.667-.209-2.357-.626s-1.232-1.023-1.63-1.805-.592-1.715-.592-2.799.199-2.02.597-2.799.941-1.382 1.63-1.8 1.474-.631 2.352-.631a4.77 4.77 0 0 1 1.511.233 3.98 3.98 0 0 1 1.268.677c.375.295.685.656.93 1.083s.411.91.497 1.457zm6.416 3.704v-4.47h1.492v7.637h-1.462v-1.323h-.079a2.38 2.38 0 0 1-.846 1.019c-.384.269-.863.403-1.436.403-.491 0-.925-.108-1.303-.323a2.28 2.28 0 0 1-.885-.969c-.212-.428-.318-.957-.318-1.586v-4.858h1.486v4.679c0 .52.145.934.433 1.243s.663.462 1.124.462c.278 0 .555-.07.83-.209s.509-.35.691-.631.277-.64.273-1.074zm9.071-2.605l-1.347.238c-.056-.172-.146-.336-.268-.492s-.282-.283-.488-.383-.462-.149-.77-.149c-.421 0-.772.095-1.054.284s-.423.426-.423.72a.76.76 0 0 0 .284.617c.189.156.493.283.914.383l1.213.278c.703.163 1.227.413 1.571.751s.518.777.518 1.317a2 2 0 0 1-.398 1.223c-.262.355-.628.633-1.099.836s-1.009.303-1.626.303c-.855 0-1.552-.182-2.093-.547s-.871-.89-.994-1.566l1.437-.219c.089.375.273.658.552.85s.641.284 1.088.284c.488 0 .877-.101 1.169-.304s.437-.455.437-.75a.78.78 0 0 0-.268-.602c-.176-.162-.446-.285-.811-.368l-1.292-.283c-.713-.162-1.24-.421-1.581-.776s-.507-.803-.507-1.347c0-.451.126-.845.378-1.183s.599-.602 1.044-.791.953-.288 1.526-.288c.825 0 1.475.179 1.949.537s.787.83.939 1.427zm5.209-1.865v1.194h-4.172v-1.194h4.172zm-3.053-1.829h1.487v7.224c0 .288.043.505.129.651s.197.24.333.293.29.075.452.075a1.8 1.8 0 0 0 .314-.025l.208-.04.269 1.228a2.62 2.62 0 0 1-.368.1c-.159.036-.358.056-.597.059-.391.007-.755-.063-1.093-.209s-.612-.371-.821-.676-.313-.687-.313-1.148v-7.532zm7.692 9.62c-.716 0-1.341-.164-1.875-.492s-.948-.787-1.243-1.377-.442-1.28-.442-2.069.147-1.484.442-2.078.71-1.054 1.243-1.382 1.159-.492 1.875-.492 1.34.164 1.874.492.948.789 1.243 1.382.442 1.286.442 2.078-.147 1.479-.442 2.069-.71 1.049-1.243 1.377-1.159.492-1.874.492zm.004-1.248c.465 0 .849-.123 1.154-.368s.53-.572.676-.979.224-.857.224-1.348-.075-.934-.224-1.342-.371-.741-.676-.989-.689-.373-1.154-.373-.855.124-1.163.373-.532.578-.681.989-.219.855-.219 1.342.073.94.219 1.348.376.734.681.979.696.368 1.163.368zm5.074 1.094v-7.637h1.427v1.243h.095a1.97 1.97 0 0 1 .78-.984c.362-.239.794-.358 1.298-.358.51 0 .938.119 1.283.358s.604.567.77.984h.08c.182-.407.472-.732.87-.974s.871-.368 1.422-.368c.692 0 1.257.217 1.695.651s.661 1.089.661 1.964v5.121h-1.486v-4.982c0-.517-.141-.891-.423-1.123s-.618-.348-1.009-.348c-.484 0-.86.149-1.129.447s-.402.675-.402 1.139v4.867h-1.482v-5.076c0-.415-.129-.748-.388-1s-.595-.377-1.009-.377c-.282 0-.542.074-.781.223s-.425.35-.571.612-.214.565-.214.91v4.708h-1.487zm15.525.154c-.753 0-1.401-.161-1.944-.482s-.958-.781-1.253-1.368-.438-1.281-.438-2.073c0-.782.146-1.471.438-2.068s.706-1.062 1.233-1.397 1.15-.502 1.859-.502a3.73 3.73 0 0 1 1.253.214c.404.142.767.366 1.089.671s.575.701.761 1.188.278 1.072.278 1.765v.527h-6.07v-1.114h4.613c0-.391-.079-.737-.238-1.039s-.383-.545-.672-.721-.619-.263-1.004-.263c-.417 0-.782.103-1.094.308a2.07 2.07 0 0 0-.715.796 2.29 2.29 0 0 0-.249 1.059v.87c0 .51.089.944.268 1.302a1.94 1.94 0 0 0 .761.82c.325.186.704.279 1.139.279.281 0 .538-.04.77-.119s.433-.206.602-.368a1.61 1.61 0 0 0 .388-.602l1.407.254c-.113.414-.315.777-.607 1.088a2.92 2.92 0 0 1-1.089.721c-.434.169-.929.254-1.486.254zm4.785-.154v-7.637h1.437v1.213h.08c.139-.411.384-.734.735-.969s.756-.358 1.204-.358l.328.01.303.025v1.422a2.61 2.61 0 0 0-.318-.055 3.07 3.07 0 0 0-.458-.035 1.94 1.94 0 0 0-.939.224c-.272.146-.487.35-.647.611s-.238.554-.238.885v4.664h-1.487zm14.521-5.772l-1.348.238c-.056-.172-.145-.336-.268-.492s-.282-.283-.487-.383-.463-.149-.771-.149c-.421 0-.772.095-1.054.284s-.422.426-.422.72a.76.76 0 0 0 .283.617c.189.156.494.283.915.383l1.213.278c.702.163 1.226.413 1.571.751s.517.777.517 1.317a2 2 0 0 1-.398 1.223c-.262.355-.628.633-1.099.836s-1.009.303-1.625.303c-.855 0-1.553-.182-2.093-.547a2.31 2.31 0 0 1-.995-1.566l1.437-.219c.09.375.274.658.552.85s.641.284 1.089.284c.487 0 .876-.101 1.168-.304s.438-.455.438-.75a.78.78 0 0 0-.269-.602c-.176-.162-.446-.285-.81-.368l-1.293-.283c-.712-.162-1.239-.421-1.581-.776s-.507-.803-.507-1.347c0-.451.126-.845.378-1.183s.6-.602 1.044-.791.953-.288 1.526-.288c.826 0 1.475.179 1.949.537a2.5 2.5 0 0 1 .94 1.427zm1.643 5.772v-7.637h1.487v7.637h-1.487zm.751-8.815c-.259 0-.481-.086-.666-.258a.84.84 0 0 1-.274-.627c0-.245.091-.454.274-.626a.93.93 0 0 1 .666-.264c.259 0 .479.088.661.264a.82.82 0 0 1 .279.626c0 .242-.093.451-.279.627s-.402.258-.661.258zm5.797 11.837c-.606 0-1.128-.079-1.566-.238s-.789-.37-1.064-.632a2.64 2.64 0 0 1-.616-.86l1.278-.527a3.01 3.01 0 0 0 .358.463c.152.165.357.306.616.422s.598.174 1.009.174c.564 0 1.029-.137 1.397-.412s.552-.706.552-1.303v-1.501h-.094a3.45 3.45 0 0 1-.388.542c-.166.198-.395.371-.686.517s-.671.218-1.139.218c-.603 0-1.147-.14-1.63-.422s-.862-.704-1.144-1.258-.417-1.241-.417-2.053.137-1.508.412-2.088.66-1.024 1.144-1.333 1.032-.467 1.645-.467c.474 0 .857.08 1.149.239s.518.338.681.546a4.51 4.51 0 0 1 .383.552h.109v-1.238h1.457v7.806c0 .656-.153 1.195-.458 1.616s-.717.732-1.238.934-1.1.303-1.75.303zm-.015-4.37c.428 0 .789-.099 1.084-.298s.524-.49.676-.865.234-.83.234-1.357c0-.514-.076-.966-.229-1.357s-.376-.696-.671-.915-.659-.333-1.094-.333c-.447 0-.82.116-1.118.348s-.524.54-.676.934-.224.836-.224 1.323c0 .5.076.939.229 1.317s.377.673.676.885.673.318 1.113.318zm6.801-3.186v4.534h-1.487v-7.637h1.427v1.243h.095c.175-.404.45-.729.825-.974s.853-.368 1.427-.368c.52 0 .976.109 1.367.328a2.2 2.2 0 0 1 .91.965c.215.427.323.956.323 1.586v4.857h-1.487v-4.679c0-.553-.144-.986-.432-1.297s-.685-.472-1.188-.472c-.345 0-.652.074-.92.223a1.61 1.61 0 0 0-.632.657c-.152.285-.228.629-.228 1.034zm10.032 4.688c-.753 0-1.401-.161-1.944-.482s-.958-.781-1.253-1.368-.438-1.281-.438-2.073c0-.782.146-1.471.438-2.068s.706-1.062 1.233-1.397 1.15-.502 1.859-.502a3.73 3.73 0 0 1 1.253.214c.404.142.767.366 1.089.671s.575.701.76 1.188.279 1.072.279 1.765v.527h-6.07v-1.114h4.613c0-.391-.079-.737-.238-1.039a1.81 1.81 0 0 0-.672-.721c-.285-.175-.619-.263-1.004-.263-.417 0-.782.103-1.094.308a2.08 2.08 0 0 0-.716.796 2.3 2.3 0 0 0-.248 1.059v.87c0 .51.089.944.268 1.302a1.94 1.94 0 0 0 .761.82c.325.186.704.279 1.139.279.281 0 .538-.04.77-.119s.433-.206.602-.368.298-.363.387-.602l1.407.254a2.53 2.53 0 0 1-.606 1.088 2.92 2.92 0 0 1-1.089.721c-.434.169-.93.254-1.486.254zm7.644-.005c-.617 0-1.167-.158-1.651-.472s-.858-.771-1.133-1.358-.408-1.297-.408-2.123.138-1.531.413-2.117.659-1.036 1.143-1.348a2.98 2.98 0 0 1 1.646-.467c.474 0 .855.08 1.143.239s.517.338.676.546.289.393.378.552h.09v-3.783h1.486v10.182H283.4v-1.188h-.125c-.089.162-.218.348-.388.556s-.394.391-.686.547-.669.234-1.133.234zm.328-1.268c.428 0 .789-.113 1.084-.338s.523-.545.676-.949.234-.875.234-1.412c0-.531-.077-.995-.229-1.392s-.376-.708-.671-.93-.66-.333-1.094-.333c-.447 0-.82.116-1.119.348s-.523.548-.676.949a3.88 3.88 0 0 0-.223 1.358c0 .51.076.969.228 1.377s.378.731.676.969.673.353 1.114.353zm13.839-2.048v-4.47h1.492v7.637h-1.462v-1.323h-.079a2.38 2.38 0 0 1-.846 1.019c-.384.269-.863.403-1.436.403-.491 0-.925-.108-1.303-.323a2.28 2.28 0 0 1-.885-.969c-.212-.428-.318-.957-.318-1.586v-4.858h1.486v4.679c0 .52.145.934.433 1.243s.663.462 1.124.462c.278 0 .555-.07.83-.209s.509-.35.691-.631.277-.64.273-1.074zm3.349 6.03v-10.5h1.452v1.238h.124a4.2 4.2 0 0 1 .373-.552c.162-.208.388-.391.676-.546s.67-.239 1.144-.239c.616 0 1.166.156 1.65.467s.864.761 1.139 1.348.417 1.292.417 2.117-.137 1.533-.412 2.123-.653 1.039-1.134 1.358-1.029.472-1.645.472c-.464 0-.844-.078-1.139-.234s-.52-.338-.686-.547-.293-.394-.383-.556h-.089v4.051h-1.487zm1.457-6.681c0 .537.078 1.007.233 1.412s.382.72.677.949.656.338 1.083.338c.445 0 .816-.118 1.114-.353s.524-.562.676-.969.234-.867.234-1.377c0-.504-.076-.957-.229-1.358s-.374-.717-.676-.949-.671-.348-1.119-.348c-.43 0-.795.111-1.093.333a2.04 2.04 0 0 0-.671.93c-.153.397-.229.861-.229 1.392z" class="J"/><path d="M316.378 353.184l-1.64.179a1.32 1.32 0 0 0-.244-.467c-.113-.146-.265-.264-.457-.353s-.428-.135-.706-.135c-.375 0-.69.081-.945.244s-.376.373-.373.631a.66.66 0 0 0 .244.542c.169.139.447.254.835.343l1.303.279c.722.155 1.259.402 1.61.74s.534.781.537 1.328c-.003.48-.144.905-.422 1.273s-.658.649-1.149.855-1.054.308-1.69.308c-.935 0-1.687-.196-2.257-.587s-.91-.943-1.019-1.645l1.755-.169c.079.344.248.605.507.78s.595.264 1.009.264c.428 0 .771-.088 1.029-.264s.393-.393.393-.651a.68.68 0 0 0-.254-.542c-.165-.143-.424-.252-.775-.328l-1.303-.274c-.732-.152-1.274-.409-1.625-.77s-.526-.825-.522-1.382c-.004-.471.124-.879.382-1.223s.625-.617 1.089-.806 1.006-.288 1.616-.288c.895 0 1.599.191 2.113.572a2.4 2.4 0 0 1 .959 1.546zm1.508 5.618v-7.637h1.8v7.637h-1.8zm.905-8.72a1.05 1.05 0 0 1-.736-.284c-.205-.192-.308-.422-.308-.691s.103-.502.308-.691a1.04 1.04 0 0 1 .736-.288c.289 0 .534.096.736.288a.9.9 0 0 1 .308.691.91.91 0 0 1-.308.691c-.202.189-.447.284-.736.284zm4.406 4.245v4.475h-1.8v-7.637h1.72v1.298h.089a2.18 2.18 0 0 1 .841-1.019c.387-.252.866-.378 1.436-.378.527 0 .987.113 1.378.338s.699.552.914.979.327.947.324 1.557v4.862h-1.8v-4.584c0-.51-.133-.91-.398-1.198s-.625-.433-1.089-.433c-.315 0-.595.07-.84.209a1.45 1.45 0 0 0-.572.592c-.136.258-.203.571-.203.939zm9.922 4.624c-.762 0-1.417-.167-1.964-.502s-.963-.797-1.258-1.387-.437-1.276-.437-2.049.149-1.46.447-2.053.72-1.06 1.263-1.392 1.193-.502 1.939-.502c.62 0 1.168.114 1.646.343s.863.545 1.148.96.448.891.487 1.441h-1.72c-.069-.368-.235-.674-.497-.919s-.605-.373-1.039-.373c-.368 0-.691.099-.97.298s-.495.477-.651.845-.228.809-.228 1.323c0 .52.076.967.228 1.342s.366.658.642.86.604.298.979.298c.265 0 .502-.049.711-.149a1.44 1.44 0 0 0 .532-.442 1.71 1.71 0 0 0 .293-.701h1.72c-.043.54-.202 1.019-.477 1.436a2.82 2.82 0 0 1-1.124.975c-.473.232-1.03.348-1.67.348zm7.99 0c-.766 0-1.427-.159-1.984-.477s-.979-.776-1.278-1.363-.447-1.284-.447-2.083c0-.785.149-1.475.447-2.068s.723-1.06 1.263-1.392 1.175-.502 1.904-.502c.471 0 .915.076 1.333.229a3 3 0 0 1 1.113.696c.325.315.58.716.766 1.203s.278 1.06.278 1.73v.552h-6.259v-1.213h4.534a1.94 1.94 0 0 0-.223-.92 1.62 1.62 0 0 0-.612-.641c-.258-.156-.56-.234-.905-.234a1.75 1.75 0 0 0-.969.268c-.279.176-.496.408-.652.696s-.23.599-.233.94v1.059c0 .444.081.825.243 1.143a1.74 1.74 0 0 0 .682.726c.291.166.633.249 1.024.249a2.2 2.2 0 0 0 .711-.109 1.58 1.58 0 0 0 .551-.334c.156-.145.274-.326.353-.541l1.681.188c-.106.445-.308.832-.607 1.164a2.95 2.95 0 0 1-1.133.765c-.461.179-.988.269-1.581.269zm12.232-10.331v10.182h-1.844v-8.387h-.06l-2.381 1.521v-1.69l2.53-1.626h1.755zm8.632 10.316c-.6 0-1.137-.154-1.611-.462s-.849-.756-1.124-1.343-.412-1.299-.412-2.137c0-.849.139-1.565.417-2.148s.661-1.029 1.139-1.328a2.93 2.93 0 0 1 1.596-.452c.447 0 .815.076 1.103.229s.517.329.686.542.3.406.393.591h.075v-3.808h1.804v10.182h-1.769v-1.203h-.11c-.093.185-.227.382-.403.591s-.407.381-.696.527-.651.219-1.088.219zm.502-1.477c.381 0 .706-.102.974-.308s.473-.499.612-.87.209-.804.209-1.297-.07-.923-.209-1.288-.338-.648-.607-.85-.591-.303-.979-.303c-.401 0-.736.104-1.004.313s-.471.497-.607.865-.204.789-.204 1.263.068.903.204 1.277a1.99 1.99 0 0 0 .612.88c.271.212.604.318.999.318zm7.54 1.497c-.484 0-.92-.086-1.308-.259s-.689-.434-.915-.775-.333-.763-.333-1.263c0-.431.08-.787.239-1.069s.376-.507.651-.676a3.28 3.28 0 0 1 .93-.383c.348-.089.707-.154 1.079-.194l1.088-.124c.279-.04.481-.099.607-.179s.194-.21.194-.383v-.03c0-.374-.111-.664-.333-.87s-.542-.308-.96-.308c-.441 0-.79.096-1.049.288a1.44 1.44 0 0 0-.517.682l-1.68-.239c.132-.464.351-.852.656-1.163s.678-.551 1.119-.706a4.28 4.28 0 0 1 1.461-.239c.368 0 .734.043 1.099.129s.698.229.999.428.544.462.726.8.279.761.279 1.268v5.111h-1.73v-1.049h-.06a2.2 2.2 0 0 1-.463.596c-.195.183-.442.33-.74.443s-.642.164-1.039.164zm.467-1.323c.361 0 .674-.071.94-.213s.469-.338.611-.577a1.47 1.47 0 0 0 .219-.781v-.899c-.056.046-.153.089-.288.129a4.09 4.09 0 0 1-.448.104l-.492.08-.423.059c-.268.037-.508.097-.721.179s-.379.199-.502.348-.184.335-.184.567c0 .332.121.582.363.751s.55.253.925.253zm6.079 4.032a3.63 3.63 0 0 1-.681-.059 2.55 2.55 0 0 1-.492-.13l.418-1.402c.262.077.495.113.701.11a.86.86 0 0 0 .542-.194c.159-.123.293-.328.402-.617l.154-.412-2.769-7.796h1.909l1.76 5.767h.08l1.765-5.767h1.914l-3.058 8.561a3.43 3.43 0 0 1-.566 1.04c-.236.291-.524.513-.865.666s-.743.233-1.214.233zm12.338-2.709c-.484 0-.919-.086-1.307-.259s-.69-.434-.915-.775-.333-.763-.333-1.263c0-.431.079-.787.239-1.069s.376-.507.651-.676a3.28 3.28 0 0 1 .93-.383c.348-.089.707-.154 1.078-.194l1.089-.124c.279-.04.481-.099.607-.179s.194-.21.194-.383v-.03c0-.374-.111-.664-.334-.87s-.541-.308-.959-.308c-.441 0-.791.096-1.049.288s-.428.42-.517.682l-1.68-.239c.132-.464.351-.852.656-1.163a2.85 2.85 0 0 1 1.118-.706c.441-.159.928-.239 1.462-.239.368 0 .734.043 1.099.129s.697.229.999.428.544.462.726.8.278.761.278 1.268v5.111h-1.73v-1.049h-.059a2.2 2.2 0 0 1-.463.596c-.195.183-.442.33-.741.443s-.641.164-1.039.164zm.468-1.323a1.96 1.96 0 0 0 .939-.213c.265-.146.469-.338.612-.577a1.47 1.47 0 0 0 .219-.781v-.899a.87.87 0 0 1-.289.129 4.07 4.07 0 0 1-.447.104l-.492.08-.423.059c-.268.037-.509.097-.721.179s-.379.199-.502.348-.184.335-.184.567c0 .332.121.582.363.751s.55.253.925.253zm8.555 4.191c-.646 0-1.201-.087-1.665-.263s-.837-.404-1.119-.696a2.42 2.42 0 0 1-.587-.969l1.621-.393c.073.149.179.296.318.442s.327.272.562.368.539.149.9.149c.51 0 .933-.124 1.268-.373s.502-.649.502-1.213v-1.446h-.09c-.093.185-.228.376-.407.571s-.41.36-.701.493-.652.198-1.089.198c-.587 0-1.119-.137-1.596-.412s-.852-.693-1.134-1.243-.417-1.246-.417-2.078c0-.839.139-1.546.417-2.123s.662-1.019 1.139-1.318a2.93 2.93 0 0 1 1.596-.452c.447 0 .815.076 1.103.229s.524.329.696.542.304.406.393.591h.1v-1.263h1.775v7.761c0 .653-.156 1.193-.468 1.621s-.737.747-1.278.959-1.153.318-1.839.318zm.015-4.544c.381 0 .706-.092.974-.278s.473-.452.612-.8.209-.766.209-1.253c0-.481-.07-.902-.209-1.263s-.338-.641-.607-.84-.591-.303-.979-.303c-.401 0-.736.104-1.004.313s-.471.495-.607.86a3.48 3.48 0 0 0-.204 1.233c0 .467.068.876.204 1.228s.343.62.612.815.604.288.999.288zm8.605 1.671c-.746 0-1.392-.164-1.939-.492s-.971-.787-1.273-1.377-.447-1.28-.447-2.069.149-1.479.447-2.073.726-1.054 1.273-1.382 1.193-.492 1.939-.492 1.392.164 1.939.492.969.789 1.268 1.382.452 1.285.452 2.073-.151 1.479-.452 2.069-.721 1.049-1.268 1.377-1.193.492-1.939.492zm.01-1.442c.404 0 .742-.111 1.014-.333s.474-.527.607-.905a3.71 3.71 0 0 0 .203-1.263c0-.467-.067-.889-.203-1.267s-.335-.685-.607-.91-.61-.338-1.014-.338c-.414 0-.759.112-1.034.338a2.04 2.04 0 0 0-.612.91c-.132.378-.199.8-.199 1.267s.067.885.199 1.263a2.04 2.04 0 0 0 .612.905c.275.222.62.333 1.034.333z" class="G"/><rect x="94.096" y="314.302" width="56" height="56" rx="6" fill="#f1eaff"/><g clip-path="url(#B)"><path d="M135.317 343.08a13.2 13.2 0 0 0-.808-4.564c-.358 4.191-2.593 6.344-4.928 5.341-2.187-.939-.713-4.602-.604-6.349.184-2.963-.009-6.354-5.391-9.174 2.236 4.278.259 6.936-1.814 7.098-2.301.179-4.408-1.977-3.63-5.477-2.519 1.855-2.592 4.979-1.815 7 .811 2.106-.032 3.856-2.009 4.05-2.209.218-3.436-2.365-2.304-6.481a13.17 13.17 0 0 0-3.141 8.556c0 7.302 5.92 13.222 13.222 13.222s13.222-5.92 13.222-13.222z" fill="#f4900c"/><path d="M130.18 346.967c.115 2.399-1.992 3.339-3.126 2.885-1.638-.655-1.198-1.782-1.62-4.115s-2.041-3.953-4.439-4.667c1.75 4.926-.97 6.741-2.396 7.066-1.456.331-2.919-.001-3.086-3.117-1.699 1.691-2.75 4.031-2.75 6.616 0 .286.018.568.042.848a13.18 13.18 0 0 0 18.582 0l.042-.848c0-1.701-.454-3.295-1.249-4.668z" fill="#ffcc4d"/></g><rect x="-1" y="1" width="421" height="84" rx="7" transform="matrix(-1 0 0 1 501.846 299.052)" class="K L M"/><rect x="-2" y="2" width="447" height="108" rx="6" transform="matrix(-1 0 0 1 513.846 286.052)" class="C D"/><g transform="matrix(-1 0 0 1 501.912 486)"><rect x="-2" y="2" width="447" height="112" rx="6" class="G"/><rect x="-2" y="2" width="447" height="112" rx="6" class="C D"/></g><g class="I"><rect x="-2" y="2" width="447" height="108" rx="6" transform="matrix(-1 0 0 1 513.846 476.626)"/><rect x="-1" y="1" width="421" height="84" rx="7" transform="matrix(-1 0 0 1 501.846 489.626)"/></g><rect width="329" height="56" rx="6" transform="matrix(-1 0 0 1 490.596 504.376)" class="E"/><rect x="439.596" y="515.376" width="41" height="4" rx="2" fill="#eef1f7"/><path d="M173.914 515.441v-.883h4.642v.883h-1.798v4.935h-1.046v-4.935h-1.798zm6.44 2.378v2.557h-1.029v-5.818h1.006v2.196h.051c.102-.246.261-.441.475-.583s.49-.215.823-.215c.304 0 .568.063.793.19s.4.312.523.557.187.542.187.895v2.778h-1.028v-2.619c0-.294-.076-.522-.227-.685s-.36-.247-.631-.247a1 1 0 0 0-.489.119.84.84 0 0 0-.335.338c-.079.148-.119.327-.119.537zm5.729 2.642c-.437 0-.815-.091-1.133-.273a1.84 1.84 0 0 1-.73-.778c-.171-.337-.256-.734-.256-1.19 0-.449.085-.843.256-1.182a1.94 1.94 0 0 1 .721-.796c.309-.191.672-.286 1.088-.286a2.21 2.21 0 0 1 .762.13c.24.085.452.218.636.398s.332.409.438.687.159.606.159.989v.315h-3.577v-.693h2.591c-.002-.197-.045-.372-.128-.525s-.2-.278-.349-.367-.32-.133-.517-.133c-.211 0-.395.051-.554.153s-.283.233-.372.398-.132.342-.134.537v.605c0 .254.046.471.139.653a1 1 0 0 0 .389.415c.167.095.362.142.586.142.149 0 .285-.021.406-.062a.9.9 0 0 0 .315-.191c.089-.083.156-.186.202-.309l.96.108c-.06.253-.176.475-.346.664a1.69 1.69 0 0 1-.648.438 2.49 2.49 0 0 1-.904.153zm3.759-2.642v2.557h-1.028v-4.364h.983v.742h.051a1.24 1.24 0 0 1 .48-.583c.222-.144.495-.215.821-.215.301 0 .563.064.787.193a1.3 1.3 0 0 1 .523.559c.125.245.186.541.184.89v2.778h-1.028v-2.619c0-.292-.076-.52-.227-.685s-.357-.247-.622-.247c-.18 0-.34.04-.481.119s-.247.19-.326.338-.117.327-.117.537z" class="J"/><path d="M173.596 526.876h307" class="C"/><path d="M180.268 541.869a1.45 1.45 0 0 0-.657-1.094c-.384-.262-.868-.393-1.451-.393-.418 0-.779.067-1.084.199s-.542.308-.711.537-.249.482-.249.771c0 .242.057.451.169.626a1.52 1.52 0 0 0 .453.443 3.46 3.46 0 0 0 .606.293l.622.189.994.258a7.61 7.61 0 0 1 .999.324 3.94 3.94 0 0 1 .95.537 2.57 2.57 0 0 1 .706.825c.182.328.273.721.273 1.178 0 .577-.149 1.089-.447 1.536s-.724.801-1.288 1.059-1.238.388-2.033.388c-.762 0-1.422-.121-1.979-.363s-.993-.585-1.307-1.029-.489-.978-.522-1.591h1.541c.03.368.149.675.358.92s.482.422.81.542.694.174 1.089.174c.434 0 .82-.068 1.158-.204s.61-.332.806-.577.293-.538.293-.87c0-.301-.086-.548-.259-.741s-.399-.351-.691-.477-.614-.237-.979-.333l-1.203-.328c-.815-.222-1.462-.549-1.939-.98s-.711-1-.711-1.71c0-.586.159-1.098.477-1.536s.749-.777 1.293-1.019 1.157-.368 1.839-.368c.69 0 1.298.121 1.825.363s.948.575 1.253.999.464.905.477 1.452h-1.481zm6.488 7.661c-.752 0-1.4-.161-1.944-.482s-.958-.781-1.253-1.367-.437-1.281-.437-2.073c0-.783.146-1.472.437-2.069s.706-1.062 1.233-1.397 1.15-.502 1.86-.502c.43 0 .848.071 1.252.214s.768.366 1.089.671.575.701.761 1.188.278 1.073.278 1.765v.527h-6.07v-1.113h4.614c0-.391-.08-.738-.239-1.039a1.8 1.8 0 0 0-.671-.721c-.285-.176-.62-.264-1.005-.264-.417 0-.782.103-1.093.308a2.08 2.08 0 0 0-.716.796c-.166.325-.249.678-.249 1.059v.87c0 .51.09.944.269 1.302s.436.632.76.821.705.278 1.139.278c.282 0 .538-.04.77-.119s.433-.206.602-.368a1.61 1.61 0 0 0 .388-.602l1.407.254c-.113.414-.315.777-.607 1.089s-.651.548-1.089.721-.929.253-1.486.253zm6.272-4.688v4.534h-1.486v-7.636h1.426v1.243h.095c.176-.405.451-.73.825-.975s.854-.368 1.427-.368c.52 0 .976.11 1.367.328s.695.537.91.965.323.956.323 1.586v4.857h-1.486v-4.678c0-.554-.145-.986-.433-1.298s-.684-.472-1.188-.472c-.345 0-.651.074-.92.224s-.475.367-.631.656-.229.63-.229 1.034zm9.599 4.683c-.616 0-1.166-.157-1.65-.472s-.859-.771-1.134-1.357-.407-1.298-.407-2.123.137-1.532.412-2.118.66-1.036 1.144-1.347 1.032-.468 1.645-.468c.474 0 .855.08 1.144.239s.517.338.676.547a4.59 4.59 0 0 1 .378.552h.089v-3.784h1.487v10.182h-1.452v-1.188h-.124a4.02 4.02 0 0 1-.388.557c-.166.208-.394.391-.686.546s-.67.234-1.134.234zm.329-1.268c.427 0 .788-.112 1.083-.338s.524-.545.676-.949.234-.875.234-1.412c0-.531-.076-.995-.229-1.392a2.04 2.04 0 0 0-.671-.93c-.295-.222-.659-.333-1.093-.333-.448 0-.821.116-1.119.348s-.524.549-.676.95-.224.853-.224 1.357c0 .51.076.969.229 1.377s.378.731.676.969.673.353 1.114.353zm12.293 1.273c-.753 0-1.401-.161-1.944-.482s-.958-.781-1.253-1.367-.438-1.281-.438-2.073c0-.783.146-1.472.438-2.069s.706-1.062 1.233-1.397 1.15-.502 1.859-.502a3.73 3.73 0 0 1 1.253.214c.404.142.767.366 1.089.671s.575.701.761 1.188.278 1.073.278 1.765v.527h-6.07v-1.113h4.613c0-.391-.079-.738-.238-1.039s-.383-.546-.672-.721a1.87 1.87 0 0 0-1.004-.264c-.417 0-.782.103-1.094.308s-.546.468-.715.796-.249.678-.249 1.059v.87c0 .51.089.944.268 1.302s.436.632.761.821.704.278 1.139.278c.281 0 .538-.04.77-.119s.433-.206.602-.368a1.61 1.61 0 0 0 .388-.602l1.407.254c-.113.414-.315.777-.607 1.089s-.651.548-1.089.721-.929.253-1.486.253zm4.785-.154v-7.636h1.427v1.243h.095c.159-.421.419-.75.78-.985s.794-.358 1.298-.358c.51 0 .938.119 1.282.358s.605.567.771.985h.08c.182-.408.472-.733.87-.975s.871-.368 1.421-.368c.693 0 1.258.217 1.696.651s.661 1.089.661 1.964v5.121h-1.487v-4.982c0-.517-.14-.891-.422-1.123s-.618-.348-1.009-.348c-.484 0-.86.149-1.129.447s-.403.675-.403 1.139v4.867h-1.481V544.3c0-.414-.129-.747-.388-.999s-.595-.378-1.009-.378a1.44 1.44 0 0 0-.781.224c-.235.145-.426.349-.571.611s-.214.565-.214.91v4.708h-1.487zm14.456.169c-.484 0-.922-.089-1.313-.268s-.701-.446-.93-.791-.338-.767-.338-1.268c0-.431.083-.785.249-1.064a1.84 1.84 0 0 1 .671-.661 3.53 3.53 0 0 1 .945-.368c.348-.083.702-.146 1.064-.189l1.113-.129c.285-.036.492-.094.622-.174s.194-.209.194-.388v-.035c0-.434-.123-.77-.368-1.009s-.603-.358-1.084-.358c-.501 0-.895.111-1.183.333s-.483.463-.592.731l-1.397-.318c.166-.464.408-.838.726-1.124a2.94 2.94 0 0 1 1.109-.626c.417-.133.856-.199 1.317-.199.305 0 .628.037.969.11a2.82 2.82 0 0 1 .965.387c.302.189.549.459.741.811s.288.8.288 1.357v5.071h-1.452v-1.044h-.059a2.13 2.13 0 0 1-.433.567c-.192.185-.439.339-.741.462s-.662.184-1.083.184zm.323-1.193c.411 0 .762-.081 1.054-.244s.518-.374.671-.636a1.65 1.65 0 0 0 .234-.85v-.985c-.053.053-.156.103-.309.149s-.319.082-.512.115l-.562.084-.457.06a3.66 3.66 0 0 0-.79.184c-.236.086-.425.21-.567.373s-.209.371-.209.636c0 .368.136.646.408.835s.618.279 1.039.279zm5.285 1.024v-7.636h1.487v7.636h-1.487zm.751-8.815c-.259 0-.481-.086-.666-.258a.84.84 0 0 1-.274-.627c0-.245.091-.454.274-.626a.93.93 0 0 1 .666-.264c.258 0 .479.088.661.264a.82.82 0 0 1 .278.626c0 .242-.092.451-.278.627a.93.93 0 0 1-.661.258zm4.082-1.367v10.182h-1.487v-10.182h1.487z" class="J"/><path d="M252.271 549.376l-2.874-10.182h1.984l1.835 7.482h.094l1.959-7.482h1.805l1.963 7.487h.09l1.834-7.487h1.984l-2.873 10.182h-1.82l-2.038-7.144h-.08l-2.043 7.144h-1.82zm14.335.149c-.766 0-1.427-.159-1.984-.477s-.979-.776-1.277-1.362-.448-1.285-.448-2.083c0-.786.149-1.475.448-2.069s.722-1.06 1.262-1.392 1.175-.502 1.904-.502c.471 0 .915.076 1.333.229a3 3 0 0 1 1.113.696c.325.315.58.716.766 1.203s.278 1.061.278 1.73v.552h-6.259v-1.213h4.534c-.003-.345-.078-.651-.223-.92s-.35-.485-.612-.641-.56-.234-.905-.234a1.75 1.75 0 0 0-.969.269 1.83 1.83 0 0 0-.651.696 1.99 1.99 0 0 0-.234.939v1.059c0 .444.081.826.243 1.144a1.74 1.74 0 0 0 .682.726c.291.165.633.248 1.024.248.262 0 .499-.036.711-.109a1.59 1.59 0 0 0 .552-.333c.155-.146.273-.327.352-.542l1.681.189a2.61 2.61 0 0 1-.607 1.163c-.295.328-.672.583-1.133.766s-.988.268-1.581.268zm6.578-10.331v10.182h-1.8v-10.182h1.8zm5.041 10.331c-.762 0-1.417-.167-1.963-.502a3.35 3.35 0 0 1-1.258-1.387c-.292-.593-.438-1.276-.438-2.048s.149-1.46.448-2.054.719-1.06 1.263-1.392 1.193-.502 1.938-.502c.62 0 1.169.115 1.646.343s.863.545 1.148.96.448.891.488 1.441h-1.72c-.07-.367-.236-.674-.498-.919s-.605-.373-1.039-.373a1.62 1.62 0 0 0-.969.298c-.279.196-.496.477-.651.845s-.229.809-.229 1.323c0 .52.076.968.229 1.342s.366.658.641.86a1.64 1.64 0 0 0 .979.299c.265 0 .502-.05.711-.15a1.42 1.42 0 0 0 .532-.442c.143-.192.24-.426.294-.701h1.72c-.043.54-.203 1.019-.478 1.437s-.649.739-1.123.974-1.031.348-1.671.348zm7.94 0c-.745 0-1.392-.164-1.938-.492s-.972-.787-1.273-1.377-.448-1.28-.448-2.068.15-1.48.448-2.074a3.33 3.33 0 0 1 1.273-1.382c.546-.328 1.193-.492 1.938-.492s1.392.164 1.939.492a3.3 3.3 0 0 1 1.268 1.382c.302.594.453 1.285.453 2.074s-.151 1.478-.453 2.068-.721 1.049-1.268 1.377-1.193.492-1.939.492zm.01-1.442c.405 0 .743-.111 1.015-.333s.474-.527.606-.905a3.7 3.7 0 0 0 .204-1.262c0-.468-.068-.89-.204-1.268s-.335-.685-.606-.91-.61-.338-1.015-.338c-.414 0-.759.113-1.034.338s-.475.529-.611.91a3.8 3.8 0 0 0-.199 1.268c0 .464.066.885.199 1.262s.34.68.611.905.62.333 1.034.333zm5.037 1.293v-7.636h1.72v1.297h.09c.159-.437.422-.779.79-1.024s.807-.373 1.318-.373c.517 0 .953.126 1.307.378s.61.588.756 1.019h.079a2.09 2.09 0 0 1 .856-1.014c.404-.255.883-.383 1.436-.383.703 0 1.276.222 1.721.666s.666 1.092.666 1.944v5.126h-1.805v-4.847c0-.474-.126-.821-.378-1.039s-.56-.333-.925-.333c-.434 0-.773.135-1.019.407s-.363.618-.363 1.049v4.763h-1.765v-4.922c0-.394-.119-.709-.358-.945s-.543-.352-.924-.352a1.31 1.31 0 0 0-.706.198c-.212.13-.381.314-.507.552s-.189.511-.189.826v4.643h-1.8zm15.805.149c-.765 0-1.427-.159-1.983-.477s-.98-.776-1.278-1.362-.448-1.285-.448-2.083c0-.786.15-1.475.448-2.069s.722-1.06 1.263-1.392 1.175-.502 1.904-.502a3.84 3.84 0 0 1 1.332.229c.421.149.792.381 1.114.696s.58.716.765 1.203.279 1.061.279 1.73v.552h-6.259v-1.213h4.534c-.004-.345-.078-.651-.224-.92s-.35-.485-.612-.641-.56-.234-.904-.234c-.368 0-.691.09-.97.269s-.495.407-.651.696a1.99 1.99 0 0 0-.234.939v1.059c0 .444.081.826.244 1.144s.389.557.681.726.633.248 1.024.248c.262 0 .499-.036.711-.109a1.59 1.59 0 0 0 .552-.333c.156-.146.273-.327.353-.542l1.68.189a2.62 2.62 0 0 1-.606 1.163c-.295.328-.673.583-1.134.766s-.988.268-1.581.268zm10.308.005c-.483 0-.919-.086-1.307-.258a2.14 2.14 0 0 1-.915-.776c-.222-.341-.333-.762-.333-1.263 0-.431.08-.787.239-1.069a1.85 1.85 0 0 1 .651-.676c.275-.169.585-.296.93-.383s.707-.154 1.078-.194l1.089-.124c.279-.04.481-.099.607-.179s.194-.21.194-.383v-.029c0-.375-.111-.665-.333-.87s-.542-.309-.96-.309c-.441 0-.79.096-1.049.289s-.427.419-.517.681l-1.68-.239c.132-.464.351-.852.656-1.163a2.86 2.86 0 0 1 1.118-.706c.441-.159.929-.239 1.462-.239.368 0 .734.043 1.099.129s.698.229.999.428.544.462.726.8.278.761.278 1.268v5.111h-1.73v-1.049h-.059a2.22 2.22 0 0 1-.463.597c-.195.182-.442.329-.741.442-.294.109-.641.164-1.039.164zm.468-1.322a1.96 1.96 0 0 0 .939-.214 1.58 1.58 0 0 0 .612-.577c.146-.238.219-.499.219-.78v-.9a.87.87 0 0 1-.289.129c-.132.04-.281.075-.447.104l-.492.08-.423.06c-.268.036-.509.096-.721.179s-.379.198-.502.348-.184.334-.184.566c0 .332.121.582.363.751s.55.254.925.254zm7.034-3.306v4.474h-1.8v-7.636h1.72v1.297h.09c.175-.427.455-.767.84-1.019s.867-.378 1.437-.378c.527 0 .986.113 1.377.338s.699.552.915.98.326.946.323 1.556v4.862h-1.8v-4.584c0-.51-.133-.91-.398-1.198s-.624-.433-1.088-.433a1.68 1.68 0 0 0-.841.209c-.242.136-.432.333-.571.592s-.204.572-.204.94zm9.425 4.608c-.6 0-1.137-.154-1.611-.462s-.848-.756-1.123-1.342-.413-1.3-.413-2.138c0-.849.139-1.565.418-2.148s.661-1.029 1.138-1.327a2.92 2.92 0 0 1 1.596-.453c.448 0 .815.076 1.104.229s.517.33.686.542.3.406.393.591h.074v-3.808h1.805v10.182h-1.77v-1.203h-.109c-.093.185-.227.383-.403.591s-.408.382-.696.527-.651.219-1.089.219zm.502-1.476c.381 0 .706-.103.975-.309s.472-.498.611-.87.209-.803.209-1.297-.07-.923-.209-1.288-.338-.648-.606-.85-.592-.303-.98-.303c-.401 0-.736.104-1.004.313s-.471.497-.607.865-.203.789-.203 1.263.068.903.203 1.277c.14.372.343.665.612.88s.605.319.999.319zm17.853-3.749c0 1.097-.206 2.037-.617 2.819s-.964 1.375-1.67 1.79-1.5.621-2.391.621-1.691-.207-2.397-.621-1.259-1.016-1.67-1.795-.612-1.72-.612-2.814.204-2.035.612-2.814.968-1.38 1.67-1.795 1.505-.621 2.397-.621 1.688.207 2.391.621 1.263 1.013 1.67 1.795.617 1.717.617 2.814zm-1.855 0c0-.772-.12-1.423-.362-1.954s-.571-.936-.995-1.208-.913-.413-1.466-.413-1.043.138-1.467.413-.757.675-.999 1.208-.358 1.182-.358 1.954.119 1.425.358 1.959.575.933.999 1.208.913.408 1.467.408 1.042-.136 1.466-.408.756-.678.995-1.208.362-1.187.362-1.959zm5.179.617v4.474h-1.8v-7.636h1.72v1.297h.09c.175-.427.456-.767.84-1.019s.867-.378 1.437-.378c.527 0 .986.113 1.377.338s.699.552.915.98.326.946.323 1.556v4.862h-1.8v-4.584c0-.51-.132-.91-.398-1.198-.261-.288-.624-.433-1.088-.433a1.68 1.68 0 0 0-.841.209c-.242.136-.432.333-.571.592s-.204.572-.204.94zm6.671 4.474v-10.182h1.8v3.808h.074c.093-.185.224-.382.393-.591s.398-.393.686-.542.656-.229 1.104-.229c.59 0 1.122.151 1.596.453s.855.74 1.133 1.327.423 1.299.423 2.148c0 .838-.138 1.551-.413 2.138s-.65 1.034-1.123 1.342-1.011.462-1.611.462c-.438 0-.801-.073-1.089-.219s-.52-.321-.696-.527-.307-.406-.403-.591h-.104v1.203h-1.77zm1.765-3.818c0 .494.069.926.209 1.297s.346.662.611.87.593.309.975.309c.397 0 .73-.106.999-.319s.471-.508.606-.88.209-.8.209-1.277-.068-.895-.204-1.263a1.9 1.9 0 0 0-.606-.865c-.269-.209-.603-.313-1.004-.313-.385 0-.711.101-.98.303s-.472.486-.611.85-.204.794-.204 1.288zm10.165 3.967c-.746 0-1.392-.164-1.939-.492s-.971-.787-1.273-1.377-.447-1.28-.447-2.068.149-1.48.447-2.074.726-1.054 1.273-1.382 1.193-.492 1.939-.492 1.392.164 1.939.492.969.789 1.267 1.382.453 1.285.453 2.074-.151 1.478-.453 2.068a3.31 3.31 0 0 1-1.267 1.377c-.547.328-1.194.492-1.939.492zm.01-1.442c.404 0 .742-.111 1.014-.333s.474-.527.606-.905a3.7 3.7 0 0 0 .204-1.262c0-.468-.068-.89-.204-1.268s-.334-.685-.606-.91-.61-.338-1.014-.338c-.415 0-.759.113-1.034.338a2.04 2.04 0 0 0-.612.91 3.8 3.8 0 0 0-.199 1.268c0 .464.066.885.199 1.262a2.04 2.04 0 0 0 .612.905c.275.222.619.333 1.034.333zm7.234 1.447c-.484 0-.92-.086-1.308-.258s-.689-.435-.915-.776-.333-.762-.333-1.263c0-.431.08-.787.239-1.069a1.85 1.85 0 0 1 .651-.676c.275-.169.585-.296.93-.383a7.67 7.67 0 0 1 1.079-.194l1.089-.124c.278-.04.48-.099.606-.179s.194-.21.194-.383v-.029c0-.375-.111-.665-.333-.87s-.542-.309-.96-.309c-.44 0-.79.096-1.049.289s-.427.419-.517.681l-1.68-.239c.133-.464.351-.852.656-1.163s.678-.55 1.119-.706a4.28 4.28 0 0 1 1.461-.239 4.77 4.77 0 0 1 1.099.129c.365.087.698.229.999.428s.544.462.726.8.279.761.279 1.268v5.111h-1.73v-1.049h-.06c-.109.212-.264.411-.462.597s-.443.329-.741.442-.642.164-1.039.164zm.467-1.322c.361 0 .675-.072.94-.214s.469-.338.611-.577.219-.499.219-.78v-.9c-.056.046-.152.089-.288.129s-.282.075-.448.104l-.492.08-.423.06a3.11 3.11 0 0 0-.72.179c-.213.082-.38.198-.503.348a.85.85 0 0 0-.184.566c0 .332.121.582.363.751s.551.254.925.254zm5.234 1.168v-7.636h1.745v1.272h.08c.139-.44.378-.78.716-1.019a1.97 1.97 0 0 1 1.168-.363l.333.015a2.21 2.21 0 0 1 .313.035v1.655a1.95 1.95 0 0 0-.362-.069 3.38 3.38 0 0 0-.473-.035c-.328 0-.623.071-.885.214a1.56 1.56 0 0 0-.611.582c-.149.248-.224.535-.224.86v4.489h-1.8zm7.931.134c-.6 0-1.137-.154-1.611-.462s-.849-.756-1.124-1.342-.413-1.3-.413-2.138c0-.849.14-1.565.418-2.148s.661-1.029 1.139-1.327a2.92 2.92 0 0 1 1.595-.453c.448 0 .816.076 1.104.229s.517.33.686.542.3.406.393.591h.075v-3.808h1.804v10.182h-1.77v-1.203h-.109c-.093.185-.227.383-.403.591a2.18 2.18 0 0 1-.696.527c-.288.146-.651.219-1.088.219zm.502-1.476c.381 0 .706-.103.974-.309s.472-.498.612-.87.208-.803.208-1.297-.069-.923-.208-1.288-.338-.648-.607-.85-.592-.303-.979-.303c-.401 0-.736.104-1.005.313a1.9 1.9 0 0 0-.606.865c-.136.368-.204.789-.204 1.263s.068.903.204 1.277a1.99 1.99 0 0 0 .611.88c.272.213.605.319 1 .319zm5.342 1.342v-7.636h1.8v7.636h-1.8zm.905-8.72a1.05 1.05 0 0 1-.736-.284c-.205-.192-.308-.422-.308-.691s.103-.502.308-.691a1.04 1.04 0 0 1 .736-.288 1.03 1.03 0 0 1 .736.288c.205.189.308.42.308.691s-.103.499-.308.691a1.04 1.04 0 0 1-.736.284zm4.405 4.246v4.474h-1.8v-7.636h1.721v1.297h.089a2.19 2.19 0 0 1 .84-1.019c.388-.252.867-.378 1.437-.378.527 0 .986.113 1.377.338s.7.552.915.98.326.946.323 1.556v4.862h-1.8v-4.584c0-.51-.132-.91-.397-1.198s-.625-.433-1.089-.433c-.315 0-.595.07-.84.209s-.433.333-.572.592-.204.572-.204.94zm9.913 7.497c-.647 0-1.202-.088-1.666-.264s-.837-.404-1.118-.696a2.4 2.4 0 0 1-.587-.969l1.621-.393c.073.149.179.297.318.442s.326.272.562.368.538.149.9.149c.51 0 .933-.124 1.267-.372s.502-.65.502-1.213v-1.447h-.089c-.093.185-.229.376-.408.572s-.409.359-.701.492-.651.199-1.088.199c-.587 0-1.119-.138-1.596-.413s-.852-.693-1.134-1.243-.418-1.246-.418-2.078c0-.839.14-1.546.418-2.123s.661-1.019 1.139-1.317a2.92 2.92 0 0 1 1.595-.453c.448 0 .816.076 1.104.229a2.12 2.12 0 0 1 .696.542c.173.209.303.406.393.591h.099v-1.262h1.775v7.76c0 .653-.156 1.193-.467 1.621s-.738.747-1.278.96-1.153.318-1.839.318zm.015-4.544c.381 0 .706-.093.974-.279s.472-.452.612-.8.208-.766.208-1.253c0-.481-.069-.902-.208-1.263s-.338-.641-.607-.84-.592-.303-.979-.303c-.401 0-.736.104-1.005.313a1.9 1.9 0 0 0-.606.86 3.48 3.48 0 0 0-.204 1.233c0 .467.068.877.204 1.228s.343.62.611.815.605.289 1 .289zm6.382 1.63c-.301 0-.56-.106-.775-.318s-.322-.47-.318-.775c-.004-.299.102-.554.318-.766s.474-.318.775-.318c.292 0 .546.106.761.318a1.04 1.04 0 0 1 .333.766 1.05 1.05 0 0 1-.159.551 1.13 1.13 0 0 1-.398.398c-.162.096-.341.144-.537.144z" class="G"/><rect x="94.096" y="504.876" width="56" height="56" rx="6" fill="#fbedc3"/><g clip-path="url(#C)"><path d="M125.207 544.543c0 1.718-6.223 1.718-6.223 0v-7.778a3.11 3.11 0 0 1 6.223 0v7.778z" fill="#c1694f"/><path d="M115.874 521.209c-3.437 0-6.223 2.786-6.223 6.223v9.333h12.445v-9.333c0-3.437-2.786-6.223-6.222-6.223z" fill="#292f33"/><path d="M123.651 533.468c0 .961-.828 1.741-1.783 1.741h-11.989c-.956 0-1.783-.78-1.783-1.741v-8.184c0-.961.827-1.742 1.783-1.742h11.989c.955 0 1.783.781 1.783 1.742v8.184z" fill="#ccd6dd"/><path d="M123.651 525.284c0-.961-.828-1.742-1.783-1.742h-11.989c-.956 0-1.783.781-1.783 1.742v1.104l3.794 3.814-3.717 3.738c.087.292.245.557.463.764l3.867-3.887 1.872 1.881c.819.825 2.153.825 2.972 0l1.887-1.891 3.877 3.897c.217-.208.375-.473.463-.764l-3.727-3.748 3.804-3.814v-1.094z" fill="#99aab5"/><path d="M121.868 523.542h-11.989c-.907 0-1.689.705-1.768 1.599l6.54 6.531c.676.68 1.771.653 2.446-.027l6.541-6.492c-.073-.9-.86-1.611-1.77-1.611z" class="F"/><path d="M128.317 521.209h-12.444c3.436 0 6.222 2.786 6.222 6.223v9.333h12.445v-9.333c0-3.437-2.786-6.223-6.223-6.223z" fill="#99aab5"/><path d="M128.318 519.654h-3.111c-.859 0-1.556.697-1.556 1.555v9.334c0 .858.697 1.555 1.556 1.555s1.555-.697 1.555-1.555v-6.223h1.556c.859 0 1.556-.696 1.556-1.555v-1.556c0-.858-.697-1.555-1.556-1.555z" fill="#dd2e44"/></g><rect x="-1" y="1" width="421" height="84" rx="7" transform="matrix(-1 0 0 1 501.846 489.626)" class="K L M"/><rect x="-2" y="2" width="447" height="108" rx="6" transform="matrix(-1 0 0 1 513.846 476.626)" class="C D"/><defs><clipPath id="A"><path transform="translate(91.846 146.978)" d="M0 0h22v22H0z" class="E"/></clipPath><clipPath id="B"><path transform="translate(108.096 328.302)" d="M0 0h28v28H0z" class="E"/></clipPath><clipPath id="C"><path transform="translate(108.096 518.876)" d="M0 0h28v28H0z" class="E"/></clipPath><path id="D" d="M106.525 156.756a1.84 1.84 0 0 1 1.846-1.834v-1.833c-2.039 0-3.692 1.642-3.692 3.667v2.444c0 2.025 1.653 3.667 3.692 3.667v-1.834a1.84 1.84 0 0 1-1.846-1.833v-2.444z"/></defs></svg>