<svg xmlns="http://www.w3.org/2000/svg" xmlns:xlink="http://www.w3.org/1999/xlink" width="608" height="561" fill="none" xmlns:v="https://vecta.io/nano"><style><![CDATA[.B{stroke-linecap:round}.C{stroke-linejoin:round}.D{stroke:#121212}.E{stroke-miterlimit:10}.F{fill:#121212}.G{stroke-width:.12}.H{fill:#fff}.I{stroke:#001432}.J{stroke-width:.121}.K{fill:#c77250}.L{fill:#7c1700}.M{stroke-width:2}.N{stroke-width:.123}.O{fill:#8899a6}.P{fill:#e1e8ed}.Q{fill:#a35235}.R{fill:#f9c833}]]></style><g stroke="#97969c" stroke-dasharray="4 4"><path d="M559.504-30.96v78.64m0 544.473v-280.31m0-65.742V97.883M457.312-30.583l.001 402.045m0 220.516V396.135M355.621-30.772v164.794m0 457.954V510.73m0-293.993V461.13M252.93-30.583V60.16m0 531.811V84.463M150.739-30.77l-.001 373.693m0 249.057V425.995M48.547-30.962v183.828m0 439.102V288.95m0-90.065v72.831"/><path d="M0 487.649h330.227m277.773 0H379.607M0 383.856h112.263m495.737 0H469.346m-278.878 0h254.206M0 176.271h25.672m582.328 0H396.708m-80.708 0H73.358M0 280.063h39.48m568.521 0h-15.322m-65.324 0H57.12M0 72.478h239.558m368.442 0h-25.121m-48.339 0H265.522"/><use xlink:href="#D"/><path d="M559.48 96.396l10.183-13.818 13.817-10.182-13.817-10.182-10.183-13.818-10.182 13.818-13.818 10.182 13.818 10.182 10.182 13.818z"/><use xlink:href="#D" x="-307.019" y="-311.504"/><path d="M559.469 311.979l13.576-18.423 18.424-13.577-18.424-13.576-13.576-18.424-13.577 18.424-18.423 13.576 18.423 13.577 13.577 18.423zM150.754 423.886l16.97-23.03 23.03-16.97-23.03-16.971-16.97-23.029-16.971 23.029-23.029 16.971 23.029 16.97 16.971 23.03zm204.867-207.61l16.971-23.029 23.029-16.971-23.029-16.97-16.971-23.03-16.97 23.03-23.03 16.97 23.03 16.971 16.97 23.029z"/><circle r="12" transform="matrix(1 0 0 -1 457.246 383.856)"/><circle r="8" transform="matrix(1 0 0 -1 48.5469 280.063)"/><circle r="12" transform="matrix(1 0 0 -1 252.598 72.4775)"/></g><g transform="matrix(-1 0 0 1 543.328 74.001)"><rect x="-2" y="2" width="441.955" height="422.315" rx="6" class="F"/><rect x="-2" y="2" width="441.955" height="422.315" rx="6" stroke-width="4" class="D"/></g><g transform="matrix(-1 0 0 1 525.039 61.082)"><rect x="-2" y="2" width="441.12" height="419.085" rx="6" fill="#f5f6f8"/><rect x="-2" y="2" width="441.12" height="419.085" rx="6" stroke-width="4" class="D"/></g><rect x="96" y="74" width="422" height="38" rx="4" class="H"/><rect x="113" y="88" width="10" height="10" rx="5" fill="#eb5757"/><rect x="131" y="88" width="10" height="10" rx="5" fill="#f2c94c"/><rect x="149" y="88" width="10" height="10" rx="5" fill="#27ae60"/><g fill="#e7edf5"><path d="M492.438 87a1 1 0 1 0-2 0h2zm-2 12a1 1 0 1 0 2 0h-2zm0-12v12h2V87h-2z"/><path d="M497.437 94a1 1 0 1 0 .001-2l-.001 2zm-11.999-2a1 1 0 1 0-.001 2l.001-2zm12 0h-12l-.001 2h12l.001-2z"/></g><rect x="-1" y="1" width="419" height="345" rx="7" transform="matrix(-1 0 0 1 515 125)" fill="#f5f6f8"/><path d="M147.844 435l.99-2.682h5.112l.972 2.682h2.934l-4.446-12.06h-3.924L145.036 435h2.808zm2.556-6.966l.918-2.718h.18l.882 2.718.684 1.872h-3.348l.684-1.872zm12.059 7.146c1.584 0 2.538-.72 3.042-1.764h.09V435h2.502v-9.054h-2.682v5.13c0 1.368-.558 1.782-1.854 1.782-1.35 0-1.782-.45-1.782-1.71v-5.202h-2.682v5.742c0 1.926.99 3.492 3.366 3.492zm11.934-.144a9.52 9.52 0 0 0 1.764-.18v-2.25h-1.116c-1.17 0-1.44-.09-1.44-.882v-3.546h2.556v-2.232h-2.556v-2.106h-2.124l-.504 2.106h-1.512v2.232h1.44v3.852c0 2.142 1.134 3.006 3.492 3.006zm7.627.144c2.898 0 4.59-1.836 4.59-4.698 0-2.88-1.692-4.716-4.59-4.716-2.916 0-4.644 1.836-4.644 4.716 0 2.862 1.728 4.698 4.644 4.698zm0-2.376c-1.476 0-1.98-.576-1.98-2.322 0-1.764.504-2.34 1.98-2.34 1.458 0 1.962.576 1.962 2.34 0 1.746-.504 2.322-1.962 2.322zm9.045 2.196v-5.238c0-1.278.54-1.674 1.764-1.674 1.296 0 1.692.45 1.692 1.71V435h2.7v-5.202c0-1.314.522-1.71 1.746-1.71 1.314 0 1.692.45 1.692 1.71V435h2.7v-5.742c0-1.926-.954-3.492-3.294-3.492-1.674 0-2.574.774-3.078 1.764h-.09c-.45-1.062-1.386-1.764-2.934-1.764s-2.484.738-2.97 1.764h-.108v-1.584h-2.502V435h2.682zm16.901.18c1.674 0 2.592-.738 3.078-1.404h.108V435h2.502v-5.364c0-2.412-1.404-3.87-4.068-3.87-2.556 0-4.23 1.422-4.23 3.582v.198h2.574v-.198c0-.918.432-1.224 1.53-1.224 1.062 0 1.638.198 1.638 1.26v.288l-3.096.468c-1.872.288-2.88 1.152-2.88 2.556 0 1.638 1.242 2.484 2.844 2.484zm-.27-2.7c0-.378.252-.558.81-.648l2.592-.396c0 1.404-1.134 1.692-2.232 1.692-.792 0-1.17-.162-1.17-.648zm12.204 2.556a9.52 9.52 0 0 0 1.764-.18v-2.25h-1.116c-1.17 0-1.44-.09-1.44-.882v-3.546h2.556v-2.232h-2.556v-2.106h-2.124l-.504 2.106h-1.512v2.232h1.44v3.852c0 2.142 1.134 3.006 3.492 3.006zm6.057-10.116v-1.98h-2.682l.036 1.98h2.646zm.054 10.08v-9.054h-2.7V435h2.7zm6.258.18c2.898 0 4.59-1.836 4.59-4.698 0-2.88-1.692-4.716-4.59-4.716-2.916 0-4.644 1.836-4.644 4.716 0 2.862 1.728 4.698 4.644 4.698zm0-2.376c-1.476 0-1.98-.576-1.98-2.322 0-1.764.504-2.34 1.98-2.34 1.458 0 1.962.576 1.962 2.34 0 1.746-.504 2.322-1.962 2.322zm9.044 2.196v-5.13c0-1.368.558-1.782 1.854-1.782 1.368 0 1.782.45 1.782 1.71V435h2.7v-5.742c0-1.926-1.008-3.492-3.366-3.492-1.584 0-2.556.738-3.042 1.764h-.108v-1.584h-2.502V435h2.682zm12.401.18c2.502 0 3.888-1.08 3.888-2.772 0-1.476-.792-2.34-2.7-2.7l-1.656-.342c-1.08-.216-1.242-.342-1.242-.774s.252-.666 1.332-.666c1.152 0 1.404.324 1.404.918v.252h2.574v-.252c0-2.034-1.692-3.078-3.906-3.078-2.574 0-3.942 1.188-3.942 2.862s.972 2.43 2.754 2.754l1.368.252c1.206.216 1.458.324 1.458.81 0 .45-.18.612-1.278.612-1.314 0-1.71-.144-1.71-.81v-.378h-2.574v.054c0 2.196 1.386 3.258 4.23 3.258z" fill="#000"/><path d="M140.605 436.728l-15.494-15.494-2.877 2.877 15.494 15.494c.038.037.375.361.851.361.29 0 .568-.125.804-.361l1.222-1.222c.332-.333.607-1.048 0-1.655z" class="O"/><path d="M137.333 439.389c-.063 0-.129-.01-.193-.032a.61.61 0 0 1-.386-.773l1.222-3.666a.61.61 0 0 1 1.159.386l-1.222 3.667a.61.61 0 0 1-.58.418zm-1.833-1.833a.62.62 0 0 1-.193-.032.61.61 0 0 1-.386-.773l1.222-3.667a.61.61 0 1 1 1.159.387l-1.222 3.667a.61.61 0 0 1-.58.418zm-1.833-1.834a.63.63 0 0 1-.194-.031.61.61 0 0 1-.386-.773l1.222-3.667a.61.61 0 1 1 1.16.387l-1.223 3.666a.61.61 0 0 1-.579.418zm-1.834-1.833c-.063 0-.129-.01-.193-.032a.61.61 0 0 1-.386-.773l1.222-3.666a.61.61 0 0 1 1.159.386l-1.222 3.667a.61.61 0 0 1-.58.418zm-3.055-3.055a.62.62 0 0 1-.193-.032.61.61 0 0 1-.387-.773l1.223-3.667a.61.61 0 1 1 1.159.387l-1.222 3.667a.61.61 0 0 1-.58.418zM126.944 429c-.063 0-.129-.01-.193-.032a.61.61 0 0 1-.386-.773l1.222-3.666a.61.61 0 1 1 1.159.387l-1.222 3.666a.61.61 0 0 1-.58.418zm-1.833-1.833a.62.62 0 0 1-.193-.032.61.61 0 0 1-.386-.773l1.222-3.667a.61.61 0 1 1 1.159.387l-1.222 3.667a.61.61 0 0 1-.58.418z" fill="#66757f"/><path d="M126.944 433.278s-.611-.611 0-1.222l6.112-6.112s.611-.611 1.222 0l1.833 1.834s.611.611 0 1.222L130 435.111s-.611.611-1.222 0l-1.834-1.833z" fill="#ccd6dd"/><use xlink:href="#E" class="O"/><use xlink:href="#F" class="P"/><path d="M119.611 425.945s-.611-.611 0-1.222l6.112-6.112s.611-.611 1.222 0l1.833 1.834s.611.611 0 1.222l-6.111 6.111s-.611.611-1.222 0l-1.834-1.833z" fill="#ccd6dd"/><use xlink:href="#E" x="-7.333" y="-7.333" class="O"/><use xlink:href="#F" x="-7.333" y="-7.333" class="P"/><path stroke="#dfe7f2" d="M120 338.469h364.145" class="M"/><g clip-path="url(#A)"><rect x="166.645" y="370" width="32" height="32" rx="16" fill="#b3c2fe"/><g fill="#bd6446"><path d="M177.376 379.406v3.456c-.74 0-1.345-.778-1.345-1.728s.605-1.728 1.345-1.728zm13.601 1.728v.074.037.049.05.049c0 .012 0 .037-.012.049 0 .013 0 .037-.013.05 0 .012 0 .037-.012.049v.025c0 .024-.012.037-.012.061s-.013.038-.013.062-.012.037-.012.062c0 .012-.012.037-.012.049 0 .025-.013.037-.013.05-.012.037-.024.074-.049.111-.012.012-.012.037-.025.049a1.6 1.6 0 0 1-.247.395l-.037.037-.061.062-.087.086c-.012.012-.024.012-.024.025-.025.012-.037.037-.062.049l-.012.013c-.013.012-.037.024-.05.037s-.024.012-.049.024c-.012.013-.025.013-.049.025l-.186.074c-.012 0-.024.012-.037.012-.024 0-.049.013-.061.013s-.037.012-.05.012h-.024-.062-.037-.025-.012l.012-2.073v-1.37h.037.037.037.037c.05.012.087.012.136.024.012 0 .012 0 .025.013.012 0 .024.012.024.012.013 0 .013 0 .025.012.012 0 .012.013.025.013.024.012.049.024.061.024.025.013.037.025.062.025.025.012.037.025.062.037s.037.025.062.037c.037.025.074.062.111.087l.049.049.037.037.037.037c.025.025.037.037.049.062l.112.16c.012.012.024.025.024.049.099.173.185.371.222.581 0 .024.013.049.013.086 0 .012 0 .025.012.049 0 .013 0 .037.012.05 0 .024.013.061.013.086a.16.16 0 0 0 .012.074v.074c0-.012 0 .012 0 .025z"/></g><path d="M188.348 392.501c-.024 2.653-2.172 4.788-4.825 4.788s-4.801-2.135-4.826-4.788c.469 0 .901-.198 1.21-.506a1.79 1.79 0 0 0 .432-.716c.049-.161.074-.321.074-.506v-3.703h6.22v3.703c0 .962.765 1.728 1.715 1.728z" fill="#c67250"/><path d="M186.633 387.095v2.172a6.22 6.22 0 0 1-4.789 2.21 6.18 6.18 0 0 1-1.518-.185c.05-.161.074-.321.074-.506v-3.703h6.233v.012z" fill="#a15235"/><path d="M188.62 376.111c.556 1.185 1.049 1.555 1.049 2.962v.334 1.37l-.012 2.073-.012.913c0 2.16-1.21 4.061-3.012 5.085-.296.173-.605.308-.925.432-.605.222-1.235.345-1.901.382l-.296.013a6.18 6.18 0 0 1-2.358-.457c-.259-.099-.506-.222-.74-.358-1.814-1.024-3.036-2.925-3.036-5.097v-.913-3.456-.321c0-1.616.58-2.184 1.185-3.295.987-1.814 2.888-2.937 4.949-2.937l1.592.234c.062.025.123.037.185.062a5.53 5.53 0 0 1 1.246.592l.087.05.16.111c.05.037.111.074.161.123.21.161.407.334.592.531l.074.074c.05.049.087.099.136.148a4.4 4.4 0 0 1 .37.469l.173.247.333.629z" fill="#c67250"/><path d="M189.656 379.073v.333.408c-.173-.469-.543-1.494-.839-1.988-.21-.37-.234-.962-.346-1.481-.111-.53-.58-.913-1.11-.913h-7.714c-.543 0-1.012.383-1.111.913-.111.519-.123 1.111-.345 1.481-.272.469-.63 1.407-.802 1.901v-.666c0-1.617.58-2.185 1.184-3.296.988-1.814 2.888-2.937 4.949-2.937a5.64 5.64 0 0 1 3.037.889c.888.567 1.616 1.382 2.085 2.382.531 1.197 1.012 1.567 1.012 2.974z" fill="#77403a"/><g stroke="#fdbfd9" class="B C E N"><path d="M177.377 380.813s-.58-.691-.963-.098m13.231.098s.419-.728.999-.173"/></g><g class="F"><use xlink:href="#G"/><use xlink:href="#H"/></g><use xlink:href="#I" fill="#333"/><g stroke="#333" class="B C E N"><path d="M178.216 394.216s.333.099.765-.099m6.467 2.789s.321.42.222.667m1.937-2.48s.05.234.531.333m1.371-1.667s-.383-.197-.716-.099m-8.517 3.925s.482-.234.63-.666"/></g><use xlink:href="#J" class="F"/><path d="M180.031 379.542s.79-.593 1.58 0" class="B C D N"/><path d="M185.017 378.234c-.013.098.493.247 1.135.321.482.061 1.037.037 1.444.333-.222-.593-.851-.642-1.407-.704-.629-.074-1.16-.061-1.172.05z" class="F"/><g class="C D N"><path d="M187.004 379.542s-.79-.593-1.58 0" class="B"/><path d="M189.657 379.407v1.37l-.013 2.073-.012.913c0 3.258-2.74 5.912-6.134 5.912-3.382 0-6.134-2.641-6.134-5.912v-4.69c0-1.616.58-2.184 1.185-3.295.987-1.814 2.888-2.937 4.949-2.937 2.197 0 4.184 1.271 5.11 3.258.555 1.185 1.049 1.555 1.049 2.962v.346z"/><g class="B"><path d="M177.376 382.862c-.74 0-1.345-.778-1.345-1.728s.605-1.728 1.345-1.728m.001 1.407s-.58-.691-.963-.098m13.231 2.147c.74 0 1.345-.778 1.345-1.728s-.605-1.728-1.345-1.728"/><path d="M189.645 380.813s.419-.728.999-.173m-7.134-1.678l.333 2.16c.099.296.025.629-.185.864l-.506.53m-1.184 1.815s2.061 1.234 3.085-1.074"/></g><use xlink:href="#G"/><path d="M186.633 388.86v1.938a1.71 1.71 0 0 0 1.715 1.715c-.024 2.654-2.172 4.789-4.825 4.789s-4.801-2.135-4.826-4.789a1.71 1.71 0 0 0 1.716-1.715v-1.925" class="B"/><use xlink:href="#H"/><use xlink:href="#I"/><g class="B"><path d="M178.216 394.217s.333.099.765-.099m6.467 2.789s.321.42.222.667m1.937-2.481s.05.234.531.333m1.371-1.666s-.383-.197-.716-.099m-8.517 3.924s.482-.234.63-.666"/></g><use xlink:href="#J"/><path d="M180.031 379.542s.79-.593 1.58 0" class="B"/><path d="M185.016 378.234c-.012.098.494.247 1.135.321.482.061 1.037.037 1.444.333-.222-.593-.851-.642-1.407-.704-.629-.074-1.16-.061-1.172.05z"/><path d="M187.003 379.542s-.79-.593-1.58 0" class="B"/></g><path opacity=".13" d="M180.055 382.861a.68.68 0 0 0 .679-.678.68.68 0 0 0-.679-.679.68.68 0 0 0-.679.679.68.68 0 0 0 .679.678z" class="H"/></g><g clip-path="url(#B)"><rect x="142.645" y="370" width="32" height="32" rx="16" fill="#fdf4db"/><path d="M168.323 396.788l-.436-.218c-.593-.29-1.15-.521-1.683-.714-.763-.267-1.454-.461-2.059-.582-1.466-.29-2.52-1.586-2.52-3.088v-2.992c.666-.69 1.018-1.381 1.018-1.381s1.938-3.101 1.889-7.17l-.073-.134c-1.707-.642-3.645-2.228-4.614-3.076l-.618-.569c-.194.193-.412.375-.642.557-1.841 1.477-4.506 2.64-5.632 3.101l-.097.121s-.218 5.499 3.101 8.551v2.992c0 1.502-1.054 2.798-2.52 3.088-.605.121-1.296.303-2.059.582a16.97 16.97 0 0 0-2.168.957l-.484.266c.024-.388.254-3.44 2.047-8.479 1.078-3.003.242-7.352 1.574-11.191 2.047-5.887 10.792-7.001 12.972-.194 1.72 5.293 2.932 18.689 3.004 19.573z" class="C F I J"/><use xlink:href="#K" class="K"/><path d="M156.15 389.92c.484.824 1.986 2.641 5.462 2.277v-3.004s-1.102 1.321-2.737 1.345c0 0-1.538-.012-2.919-1.345 0 .255.073.509.194.727z" class="Q"/><g class="C I J"><use xlink:href="#K"/><path d="M162.643 387.813s-.364.691-1.018 1.381c-1.066 1.102-2.895 2.192-5.232.363l-.436-.363c-1.514-1.393-2.29-3.282-2.689-4.942-.206.024-.4.024-.582.012-.097-.012-.194-.012-.29-.036-.424-.073-.739-.242-.969-.46-.073-.073-.146-.158-.194-.243-.267-.411-.291-.908-.146-1.271.424-1.09 1.745-.509 1.805-.485l-.036-1.138a.94.94 0 0 0 .097-.122c1.126-.46 3.791-1.635 5.632-3.1l.642-.557.618.569c.969.86 2.907 2.447 4.614 3.076.037.085.073.134.073.134.048 4.081-1.889 7.182-1.889 7.182z" class="K"/></g><g fill="#a82200" class="D E J"><path d="M153.449 381.696l-.557.085-.037-.375.509-.158v.388l.085.048zm11.094-.29l-.036.375-.569-.085.012-.012.084-.048v-.388l.509.158z"/></g><path d="M164.035 381.261c0-.085-.061-.158-.133-.182l-.4-.121s-.388-.63-1.018-.775c-.617-.146-2.107-.279-3.028.339-.29-.134-.545-.17-.763-.158-.218-.012-.472.024-.763.158-.932-.618-2.41-.485-3.028-.339-.63.145-1.017.775-1.017.775l-.388.109c-.085.024-.145.097-.133.181v.388l.085.049.012.012a1.02 1.02 0 0 1 .448.533c.218.593.787 1.744 1.974 1.744 1.538 0 2.241-1.72 2.447-2.374.036-.109.012-.243-.061-.327 0-.012-.012-.012-.012-.025-.097-.133-.036-.314.097-.399.036-.024.085-.037.133-.037h.448a.25.25 0 0 1 .134.037c.133.072.194.254.097.399 0 .013-.012.013-.012.025-.073.084-.097.218-.061.327.206.654.908 2.374 2.447 2.374 1.187 0 1.756-1.151 1.974-1.744a1.07 1.07 0 0 1 .448-.533l.012-.012.085-.049-.024-.375zm-6.081.472c-.145.727-1.259 2.374-2.567 1.841-.921-.375-1.091-1.405-1.127-1.998a1.18 1.18 0 0 1 .8-1.175c.472-.158 1.09-.146 1.671-.073 1.078.145 1.369.678 1.223 1.405zm5.16-.157c-.024.593-.206 1.635-1.114 1.998-1.308.533-2.423-1.114-2.568-1.841s.145-1.26 1.211-1.405c.582-.085 1.199-.085 1.672.073.509.169.823.654.799 1.175z" fill="#ff3000" class="D E J"/><path d="M155.047 379.577c.545-.194 1.853.315 2.652.024 0 0-.956-.412-1.938-.4l-.714.376z" fill="#380e03"/><g class="J"><path d="M151.571 382.847s.388-.388 1.018.097" class="B C I"/><g class="E"><path d="M152.685 384.252v.012c-.012.582-.375 1.054-.836 1.054s-.835-.472-.835-1.066c0-.278.084-.52.218-.714.048.085.121.157.193.242a1.02 1.02 0 0 0-.121.472c0 .424.255.776.545.776s.545-.352.545-.776v-.012a.95.95 0 0 0-.072-.375c-.049-.121-.133-.218-.23-.303-.073-.061-.109-.158-.037-.23.073-.061.158-.037.23.012.085.06.158.145.206.23.073.097.121.218.146.339.036.109.048.23.048.339z" class="D R"/><g stroke="#d20023"><path d="M148.726 397.079v.049m19.608-.291v-.049"/></g></g><path d="M165.21 380.728c-.242-.049-.485-.121-.751-.218" stroke="#c77250" class="B C"/><g class="E"><path d="M173.846 404.031s-14.402 9.739-30.111 0c-.073-.787.06-1.55.266-2.192.352-1.09 1.018-2.059 1.902-2.798.957-.799 2.41-1.708 3.319-2.228.121.048 6.032 2.349 9.484 2.773 0 0 6.843-.835 9.193-3.016 1.042.557 2.616 1.502 3.73 2.423 1.115.908 1.878 2.18 2.156 3.585.073.46.109.945.061 1.453z" class="D R"/><g stroke="#d20023"><path d="M149.258 396.788c-.012.012-.024.012-.036.024m18.665-.241l-.073-.037"/></g></g><g class="B C I"><path d="M158.693 382.823l-.666 2.362a.28.28 0 0 0 .049.242l.448.521m-.823.944s1.938.678 2.532-1.187"/></g></g><g class="F"><use xlink:href="#L"/><path d="M161.347 382.266c.247 0 .448-.217.448-.485s-.201-.484-.448-.484-.449.217-.449.484.201.485.449.485z"/></g><path d="M167.886 396.57c-2.362 2.18-9.193 3.016-9.193 3.016-3.452-.424-9.363-2.725-9.484-2.774.012-.012.024-.012.036-.024.751-.387 1.466-.702 2.132-.933.073.061 7.352 5.439 14.825 0 .509.182 1.042.4 1.599.667a.77.77 0 0 0 .085.048z" class="D E J R"/><path d="M159.251 401.73h-.921l.206-1.454h.509l.206 1.454z" fill="#ff404c"/><path d="M159.493 379.601s1.224-.376 1.902-.4 1.453.424 1.72.8c0 0-.182-.255-1.127-.4-.884-.146-1.853.278-2.495 0z" fill="#380e03"/><g class="H"><path opacity=".13" d="M157.954 381.733c-.145.727-1.259 2.374-2.568 1.841-.92-.376-1.09-1.405-1.126-1.999a1.18 1.18 0 0 1 .799-1.174c.473-.158 1.091-.146 1.672-.073 1.078.145 1.369.678 1.223 1.405zm5.16-.157c-.024.593-.205 1.635-1.114 1.998-1.308.533-2.422-1.114-2.568-1.841s.146-1.26 1.212-1.405c.581-.085 1.199-.085 1.671.073.509.169.824.654.799 1.175z"/></g><path d="M152.431 380.727s5.789-2.144 7.546-4.736" stroke="#c77250" class="B C J"/></g><g clip-path="url(#C)"><rect x="118.645" y="370" width="32" height="32" rx="16" fill="#ddcbff"/><g class="D G"><path d="M142.351 376.995c-.879.217-4.311.939-6.937-.193-.168.289-2.047 3.312-3.781 3.312 0 0-.386-1.072-1.843-1.301 1.481-6.648 5.287-6.864 8.178-5.913 1.999.65 3.588 2.168 4.383 4.095z" class="E L"/><g class="C K"><path d="M142.351 376.995l.289.855c.675 2.493 1.168 6.01-.313 8.49-.301.494-.674.916-1.12 1.241a4.52 4.52 0 0 1-1.566.759c-.59.156-1.228.192-1.866.096l.156 1.626c.133 1.216.639 2.324 1.421 3.191.53.591 1.181 1.072 1.927 1.397 0 .217-.012.687-.108 1.265-.349 1.951-1.77 5.215-7.31 5.143-7.094-.085-9.611-6.564-10.045-7.841h.037a6.05 6.05 0 0 0 2.119-.602c1.542-.759 2.734-2.168 3.18-3.902l.096-.385 1.529-5.974c-.349.036-.794.048-1.216-.048-.241-.06-.482-.145-.698-.289-.398-.265-.711-.711-.783-1.433-.157-1.506.843-1.795 1.674-1.771 1.457.229 1.854 1.289 1.854 1.289 1.735 0 3.614-3.035 3.782-3.312 2.638 1.144 6.082.422 6.961.205z"/></g></g><g class="I C G K"><path d="M152.179 405.755c-1.975 1.072-3.914 1.975-5.793 2.71-3.986-5.829-2.842-11.526-2.457-12.959 3.939 1.469 6.925 4.793 7.925 8.924l.325 1.325zm-32.337 3.817c-4.95-1.65-7.768-3.818-7.768-3.818l1.494-4.408c.758-2.252 2.155-4.167 3.938-5.576a12.22 12.22 0 0 1 3.468-1.915c.458 1.446 2.481 8.997-1.132 15.717z"/></g><path d="M131.477 382.246s-.277.084-.687.121" class="B C D G"/><path d="M146.385 408.464c-11.212 4.408-20.473 3.132-26.543 1.108 3.613-6.72 1.577-14.271 1.144-15.716a12.37 12.37 0 0 1 2.842-.627c.434 1.289 2.951 7.756 10.044 7.841 7.19.084 7.431-5.456 7.419-6.419a5.3 5.3 0 0 0 .759.277l.867.24a12.61 12.61 0 0 1 1.012.326c-.386 1.445-1.53 7.141 2.456 12.97z" class="C F G I"/><path d="M127.971 394.579c-.156-.036-.277-.121-.397-.205-.675-.506-1.253-1.084-1.65-1.698-.41-.614-.651-1.253-.711-1.891-.084-.951.229-1.927.482-2.71.59-1.806 1.77-4.974 3.083-6.033l.036-.024.109.06c.108.072.349.217.626.253l.072.108c-.108.422-1.048 4.227-.325 5.889a2.71 2.71 0 0 0 .927 1.169l1.566 1.144c.662.481 1.06.975 1.216 1.505.193.614.012 1.433-.614 1.758-.229.121-.47.169-.747.169-.313 0-.638-.072-.951-.144l-.518-.109-.325-.024c-.325 0-.638.084-.903.241-.097.06-.181.132-.265.217-.169.156-.35.325-.614.325h-.097z" class="L"/><path d="M128.839 382.077c.036 0 .337.241.722.302.024 0 .024.024.024.036-.096.397-1.048 4.239-.325 5.937.205.47.506.879.951 1.192l1.566 1.145c.518.385 1.012.867 1.204 1.481s-.012 1.397-.578 1.686c-.24.12-.481.169-.722.169-.482 0-.976-.169-1.457-.253l-.338-.024c-.325 0-.65.072-.939.24s-.482.53-.843.53c-.036 0-.072 0-.121-.012-.132-.024-.252-.108-.373-.192-.614-.458-1.204-1.024-1.638-1.687-.373-.566-.638-1.192-.698-1.866-.085-.916.192-1.819.481-2.686.699-2.083 1.843-4.998 3.084-5.998zm0-.12h-.049l-.036.036c-1.325 1.072-2.517 4.264-3.107 6.07-.253.783-.578 1.77-.494 2.734.06.65.301 1.289.711 1.915.409.614.987 1.204 1.674 1.71.12.096.253.181.421.217.049.012.097.012.145.012.277 0 .482-.181.65-.337a1.26 1.26 0 0 1 .253-.205 1.75 1.75 0 0 1 .867-.229c.109 0 .205.012.313.024.169.024.338.06.506.108.313.073.639.145.964.145.289 0 .542-.06.77-.181.651-.337.844-1.192.639-1.83-.169-.542-.578-1.048-1.241-1.542l-1.565-1.144c-.398-.289-.711-.674-.904-1.144-.71-1.65.217-5.432.326-5.853l.012-.048-.037-.073c-.024-.036-.06-.06-.108-.072a1.65 1.65 0 0 1-.614-.253c-.036-.036-.06-.06-.096-.06z" class="F"/><g class="D E G"><path d="M138.353 391.507c0 .073.072.422.072.494-.168-.446-.433-1.445-.481-1.927l-.157-1.626.566.048c.253.88.012 2.072 0 3.011z" fill="#4a1305"/><g class="L"><path d="M143.893 395.758c-.145.349-.446.662-.831.699-.325.036-.638-.121-.927-.253-.301-.145-.639-.253-.964-.265-.096 0-.18 0-.277.024-.482.084-.903.469-1.397.433-.506-.036-.903-.53-.951-1.035-.06-.506.144-1.012.409-1.446.06-.108.133-.216.205-.325l.205-.313a4.66 4.66 0 0 0 .385-.674 5.75 5.75 0 0 0 .217-.578c0-.012.012-.024.012-.037.301-1.144.036-2.408-.313-3.576-.012-.024-.012-.049-.024-.073.566-.096 2.228-.686 3.023-2.661 1.3 2.216 1.24 6.395 1.36 8.96.025.373.013.771-.132 1.12z"/><path d="M139.641 388.34c.012.024.012.048.024.072-.024-.048-.024-.072-.024-.072z"/></g></g><path d="M144.025 395.168l-.096.337" class="B C G I"/><path d="M132.102 390.93c-.013 0-.025 0-.037-.012l-1.047-.735-.843-.59c-.422-.301-.747-.711-.964-1.229-.735-1.722-.181-4.179.181-5.792l.048-.229.819.024.53-.024c.06.132-.651 6.058 1.361 8.478.024.024.024.061 0 .085-.012.012-.036.024-.048.024z" class="L"/><path d="M129.488 382.367c.241.06.506.072.759.072l.53-.024s-.735 5.985 1.313 8.454l-1.891-1.325c-.446-.313-.747-.722-.952-1.192-.758-1.782-.12-4.384.241-5.985zm0-.121c-.024 0-.048.012-.06.024-.024.012-.048.048-.048.072l-.048.229c-.374 1.626-.928 4.095-.181 5.829a2.91 2.91 0 0 0 .988 1.253l.831.578 1.059.747c.025.012.049.024.073.024.036 0 .06-.012.084-.036.036-.049.048-.109 0-.157-1.999-2.409-1.289-8.31-1.289-8.37 0-.036-.012-.072-.036-.097s-.048-.036-.084-.036h-.012c-.121.012-.301.024-.518.024-.277 0-.53-.024-.735-.072 0-.012-.012-.012-.024-.012z" class="F"/><g fill="#590600"><path d="M126.683 387.762c-.036.807.024 1.674.506 2.336.217.337.566.578.952.687.385.132.794.12 1.216.108-.41.06-.831.096-1.228-.036a1.78 1.78 0 0 1-1.036-.687c-.47-.71-.554-1.601-.41-2.408z"/><path d="M128.464 390.905c.072.627.301 1.277.855 1.59.253.169.566.265.867.289.314.024.627 0 .952-.024-.313.072-.626.132-.952.108s-.65-.096-.927-.277c-.566-.373-.831-1.059-.795-1.686zm11.768 2.854c.35.06.627.361.771.674.121.337.145.699.048 1.036-.012-.349-.012-.687-.168-1-.109-.301-.349-.554-.651-.71z"/><path d="M140.786 394.181c.422-.217.855-.458 1.108-.855.301-.374.398-.843.446-1.325a2.14 2.14 0 0 1-.35 1.397c-.301.385-.734.662-1.204.783zm.963-1.289a2.4 2.4 0 0 1-.627-2.384 3.39 3.39 0 0 0 .627 2.384zm-14.128-3.686c.398-.505.59-1.144.602-1.782.036-.626-.132-1.289-.59-1.746.542.385.711 1.12.711 1.758-.048.638-.241 1.313-.723 1.77z"/></g><g class="K"><path d="M132.489 377.754c.386.181.771.494.855.951.036.229-.012.458-.108.663s-.241.373-.397.542l-.085-.085c.301-.289.578-.674.53-1.108s-.409-.77-.795-.963zm9.828-.698c-.819.216-1.65.337-2.493.397s-1.686.06-2.529-.06-1.662-.374-2.397-.807c-.734-.422-1.361-1.036-1.77-1.771.927 1.434 2.553 2.216 4.191 2.397 1.65.241 3.336.084 4.974-.265l.024.109z"/></g><path d="M131.223 376.79c.012.422.061.855.289 1.216a1.37 1.37 0 0 0 .976.699c-.446.036-.855-.277-1.084-.638a1.97 1.97 0 0 1-.181-1.277z" fill="#590600"/><g class="F"><path d="M136.27 380.114s1.156-1.445 2.806-.626c0 0 .554.566-1.409.18 0 0-.482-.108-1.397.446zm6.707-.421s-.987-.988-2.155-.241c0 0-.374.47 1.072.024-.013 0 .349-.12 1.083.217z"/></g><g class="D G"><path d="M140.279 380.21l1.012 2.24a.37.37 0 0 1-.072.349l-.253.289" class="E"/><g class="C"><path d="M136.669 384.485c.024.482.265.964.674 1.217.53.349 1.277.228 1.783-.157 0 0-.482-1.578-2.313-1.927-.108.265-.156.554-.144.867z" fill="#fd8a9b"/><path d="M136.8 383.606c1.842.349 2.312 1.927 2.312 1.927.373-.289.602-.722.723-1.18.12-.47-.602-.602-.879-.759-.277-.144-.542-.337-.783-.542-.169-.144-.47-.614-.747-.506-.108.036-.169.133-.229.229-.024.072-.397.831-.397.831z" class="Q"/></g><g class="E"><path d="M137.342 380.547s.638-.566 1.433 0m2.613-.108s.65-.385 1.096.108"/></g></g><path opacity=".13" d="M134.415 382.643c.472 0 .855-.383.855-.855s-.383-.855-.855-.855-.855.382-.855.855.382.855.855.855z" class="H"/><use xlink:href="#M" fill="#bae2ff"/><g class="C D"><g class="B"><use xlink:href="#M" stroke-width=".06"/><path d="M128.995 380.114s.964-.675 1.855.156" class="G"/></g><g fill="#bae2ff" stroke-width=".06"><path d="M129.056 381.499a.23.23 0 0 0 .229-.229.23.23 0 0 0-.229-.229.23.23 0 0 0-.229.229.23.23 0 0 0 .229.229zm.541.422c.086 0 .157-.071.157-.157s-.071-.157-.157-.157-.157.071-.157.157.071.157.157.157zm.602.144c.06 0 .109-.048.109-.108s-.049-.108-.109-.108-.108.048-.108.108.048.108.108.108z"/></g></g><path d="M133.668 385.822s-.277 4.3 4.661 5.914c0 0-.506-.892-.554-3.3 0 0-2.373-.061-4.107-2.614z" class="Q"/><g class="D G"><path d="M133.391 385.389c1.216 2.107 2.974 2.842 4.383 3.047" class="B C"/><path d="M139.978 391.977c0 .012 0 .024-.012.036-.048.193-.121.398-.217.578-.181.41-.47.771-.699 1.157-.012.024-.048.06-.084.036-.012-.012-.012-.024-.012-.036-.06-.229-.084-.482-.253-.639-.168-.168-.457-.228-.53-.457-.024-.073-.024-.145-.012-.217.012-.145.024-.301.06-.446.061-.313.109-.566.061-.879-.036-.277.036-.59.072-.867.072-.59.157-1.192-.012-1.77a4.64 4.64 0 0 0 1.289-.145c.024.024.024.048.036.072.337 1.169.602 2.433.313 3.577z" class="E L"/></g></g><rect x="119" y="177" width="160" height="122" rx="8" fill="#f1eaff"/><path d="M133.667 265.782l3.587 2.082c3.586 2.082 10.759 6.246 17.932 3.399s14.346-12.705 21.519-12.445 14.346 10.638 21.519 15.764 14.346 4.999 21.519 3.355 14.346-4.806 21.519-11.162 14.346-15.905 21.519-22.759" stroke="#c6a9ff" class="B M"/><path d="M147.344 216.08v-3.68h-12.76v3.68h12.76zm10.228 9.92v-26.8h-3.8c-1.12 2.4-2.6 3.32-5.12 3.32h-1.04v3.08h5.64V226h4.32zm23.839 0v-3.88h-15.24c0-2.2 2.08-3.48 4.8-4.88l3.92-2c3.44-1.76 6.44-4.12 6.44-8.52 0-4.44-2.76-7.92-9.36-7.92-7.4 0-10.52 4.16-10.52 9.16v.64h4.32v-.56c0-3.68 1-5.28 5.88-5.28 4.44 0 5.36 1.64 5.36 4.12 0 2.28-1.16 3.48-4.04 5l-4.12 2.12c-3.76 1.92-7.2 4.24-7.2 9.32V226h19.76z" fill="#000"/><path d="M253 210.172V198h2v12.172l5.364-5.364 1.414 1.414L254 214l-7.778-7.778 1.414-1.414 5.364 5.364z" fill="#a172fd"/><rect x="311" y="177" width="160" height="122" rx="8" fill="#eaeeff"/><path d="M325.667 265.782l3.792 2.082c3.791 2.082 11.374 6.246 18.958 3.399s15.166-12.705 22.749-12.445 15.167 10.638 22.75 15.764 15.166 4.999 22.749 3.355 15.167-4.806 22.75-11.162 15.166-15.905 22.75-22.759" stroke="#8199fd" class="B M"/><path d="M337.184 220.935v-6.52h6.48v-3.6h-6.48v-6.52h-3.76v6.52h-6.44v3.6h6.44v6.52h3.76zm19.528 5.48c6.2 0 10.36-2.52 10.36-7.68 0-3.84-2.24-6.24-5.92-6.76v-.16c3.4-.48 4.96-2.76 4.96-5.84 0-4.68-3.6-7.16-9.64-7.16-6.72 0-10.32 3.48-10.32 8.6v.36h4.24v-.32c0-3.36 1.4-4.68 6.04-4.68 3.76 0 5.36 1.08 5.36 3.88s-1.36 3.68-4.88 3.68h-4.76v3.6h5.36c3.72 0 5.2 1 5.2 4.36 0 3.12-1.68 4.16-5.92 4.16-5.28 0-6.4-1.32-6.4-4.68v-.6h-4.24v.64c0 5.12 2.92 8.6 10.56 8.6zm23.822 0c7.4 0 10.72-3.6 10.72-9.16 0-5.4-3.48-8.6-9.2-8.6-3.52 0-6.04 1.08-7.44 2.24h-.12l.64-7.8h14.68v-3.88h-18.48l-.92 14.24 3.8.6c1.32-.76 3.24-1.68 6.52-1.68 4.52 0 6.24 1.4 6.24 5 0 3.76-1.56 5.08-6.28 5.08-4.44 0-6.44-1.04-6.44-4.04v-.24h-4.28v.24c0 4.92 3.6 8 10.56 8zm25.473 0c7.2 0 11.6-5.32 11.6-13.8s-4.4-13.8-11.6-13.8-11.56 5.32-11.56 13.8 4.36 13.8 11.56 13.8zm0-4.16c-4.76 0-6.96-2.56-6.96-9.64s2.2-9.64 6.96-9.64 7 2.56 7 9.64-2.24 9.64-7 9.64z" fill="#000"/><path d="M447 201.828V214h-2v-12.172l-5.364 5.364-1.414-1.414L446 198l7.778 7.778-1.414 1.414-5.364-5.364z" fill="#5173fb"/><path d="M148.812 160v-1.89h-5.054v-1.89h4.844v-1.876h-4.844v-1.834h5.054v-1.89h-7.154V160h7.154zm3.344 0l1.456-2.338h.14L155.25 160h2.436l-2.338-3.402v-.14l2.338-3.5h-2.352l-1.47 2.352h-.126l-1.512-2.352h-2.422l2.338 3.416v.126l-2.338 3.5h2.352zm8.578-7.84v-1.54h-2.086l.028 1.54h2.058zm.042 7.84v-7.042h-2.1V160h2.1zm4.937.028c.49 0 1.036-.07 1.372-.14v-1.75h-.868c-.91 0-1.12-.07-1.12-.686v-2.758h1.988v-1.736h-1.988v-1.638h-1.652l-.392 1.638h-1.176v1.736h1.12v2.996c0 1.666.882 2.338 2.716 2.338zm5.988.112c2.016 0 3.304-.882 3.304-2.38v-.14h-2.072v.084c0 .434-.364.616-1.204.616-1.148 0-1.54-.392-1.582-1.372h4.83c.042-.238.098-.644.098-1.036 0-1.834-1.246-3.094-3.36-3.094-2.198 0-3.542 1.428-3.542 3.682 0 2.226 1.106 3.64 3.528 3.64zm-.056-5.6c.98 0 1.456.406 1.414 1.134h-2.898c.084-.742.476-1.134 1.484-1.134zm7.878 5.6c1.036 0 1.834-.42 2.198-1.176h.07V160h1.946v-9.38h-2.086v3.262h-.084c-.322-.588-.966-1.064-2.044-1.064-1.918 0-3.052 1.442-3.052 3.668 0 2.212 1.064 3.654 3.052 3.654zm-.966-3.654c0-1.288.336-1.876 1.554-1.876.994 0 1.54.35 1.54 1.302v1.134c0 .952-.546 1.302-1.54 1.302-1.218 0-1.554-.588-1.554-1.862z" fill="#000"/><path d="M126.572 164c-.043 0-.086-.014-.122-.042-.074-.059-.096-.161-.053-.245l1.631-3.019h-2.398c-.082 0-.207-.015-.265-.14-.054-.115-.027-.224.022-.332l1.696-4.25c.037-.032 3.26.185 3.306.185s.086.014.121.043c.075.058.097.161.053.245l-1.802 2.833h2.376c.082 0 .155.051.185.128s.006.164-.057.218l-4.564 4.328c-.037.032-.083.048-.129.048z" fill="#f4900c"/><path d="M133.222 148.889c-.389 0-.765.059-1.118.168a3.07 3.07 0 0 0-5.87.267c-.356-.269-.794-.435-1.276-.435-1.173 0-2.125.951-2.125 2.125 0 .285.058.556.16.805-.202-.057-.411-.097-.632-.097a2.36 2.36 0 1 0 0 4.722h10.861a3.78 3.78 0 0 0 3.778-3.777 3.78 3.78 0 0 0-3.778-3.778z" class="P"/><path d="M336.956 160.14c2.8 0 4.494-1.904 4.494-4.83s-1.694-4.83-4.494-4.83-4.508 1.904-4.508 4.83 1.708 4.83 4.508 4.83zm0-2.03c-1.61 0-2.268-.602-2.268-2.8s.658-2.8 2.268-2.8 2.254.602 2.254 2.8-.644 2.8-2.254 2.8zm8.232 1.89v-3.99c0-1.064.434-1.386 1.442-1.386 1.064 0 1.386.35 1.386 1.33V160h2.1v-4.466c0-1.498-.784-2.716-2.618-2.716-1.232 0-1.988.574-2.366 1.372h-.084v-1.232h-1.946V160h2.086zm8.665 0v-1.036h.07c.378.756 1.218 1.176 2.31 1.176 1.918 0 2.94-1.442 2.94-3.654 0-2.226-1.022-3.668-2.954-3.668-1.064 0-1.82.532-2.142 1.12h-.084v-3.318h-2.086V160h1.946zm.14-2.954v-1.134c0-.952.56-1.302 1.554-1.302 1.218 0 1.54.588 1.54 1.876 0 1.274-.336 1.862-1.54 1.862-.994 0-1.554-.35-1.554-1.302zm10.132 3.094c2.254 0 3.57-1.428 3.57-3.654 0-2.24-1.316-3.668-3.57-3.668-2.268 0-3.612 1.428-3.612 3.668 0 2.226 1.344 3.654 3.612 3.654zm0-1.848c-1.148 0-1.54-.448-1.54-1.806 0-1.372.392-1.82 1.54-1.82 1.134 0 1.526.448 1.526 1.82 0 1.358-.392 1.806-1.526 1.806zm7.09 1.848c1.302 0 2.016-.574 2.394-1.092h.084V160h1.946v-4.172c0-1.876-1.092-3.01-3.164-3.01-1.988 0-3.29 1.106-3.29 2.786v.154h2.002v-.154c0-.714.336-.952 1.19-.952.826 0 1.274.154 1.274.98v.224l-2.408.364c-1.456.224-2.24.896-2.24 1.988 0 1.274.966 1.932 2.212 1.932zm-.21-2.1c0-.294.196-.434.63-.504l2.016-.308c0 1.092-.882 1.316-1.736 1.316-.616 0-.91-.126-.91-.504zm8.525 1.96v-4.41c0-.77.308-.994.952-.994.658 0 .896.238.896.994v.378h2.086v-.644c0-1.414-.546-2.506-2.016-2.506-.994 0-1.624.56-1.974 1.274h-.084v-1.134h-1.946V160h2.086zm8.124.14c1.036 0 1.834-.42 2.198-1.176h.07V160h1.946v-9.38h-2.086v3.262h-.084c-.322-.588-.966-1.064-2.044-1.064-1.918 0-3.052 1.442-3.052 3.668 0 2.212 1.064 3.654 3.052 3.654zm-.966-3.654c0-1.288.336-1.876 1.554-1.876.994 0 1.54.35 1.54 1.302v1.134c0 .952-.546 1.302-1.54 1.302-1.218 0-1.554-.588-1.554-1.862zm10.232 3.654c2.016 0 3.304-.882 3.304-2.38v-.14h-2.072v.084c0 .434-.364.616-1.204.616-1.148 0-1.54-.392-1.582-1.372h4.83c.042-.238.098-.644.098-1.036 0-1.834-1.246-3.094-3.36-3.094-2.198 0-3.542 1.428-3.542 3.682 0 2.226 1.106 3.64 3.528 3.64zm-.056-5.6c.98 0 1.456.406 1.414 1.134h-2.898c.084-.742.476-1.134 1.484-1.134zm7.878 5.6c1.036 0 1.834-.42 2.198-1.176h.07V160h1.946v-9.38h-2.086v3.262h-.084c-.322-.588-.966-1.064-2.044-1.064-1.918 0-3.052 1.442-3.052 3.668 0 2.212 1.064 3.654 3.052 3.654zm-.966-3.654c0-1.288.336-1.876 1.554-1.876.994 0 1.54.35 1.54 1.302v1.134c0 .952-.546 1.302-1.54 1.302-1.218 0-1.554-.588-1.554-1.862z" fill="#000"/><path d="M327.219 154.977l-4.202-1.555-1.569-5.143c-.061-.199-.245-.335-.452-.335a.47.47 0 0 0-.451.335l-1.569 5.143-4.203 1.555c-.185.069-.308.245-.308.443s.123.375.308.443l4.201 1.555 1.569 5.3c.06.2.244.337.453.337a.47.47 0 0 0 .453-.338l1.57-5.299 4.201-1.555a.47.47 0 0 0 .307-.443c0-.197-.123-.374-.308-.443z" fill="#ffac33"/><path d="M317.775 160.173l-1.092-.405-.425-1.558a.47.47 0 0 0-.456-.348.47.47 0 0 0-.455.348l-.425 1.558-1.092.404c-.186.069-.309.246-.309.443a.47.47 0 0 0 .309.443l1.086.403.428 1.71c.053.21.242.357.458.357s.406-.147.459-.357l.428-1.711 1.086-.402a.47.47 0 0 0 0-.885zm-2.048-10.23l-1.116-.413-.414-1.117a.47.47 0 0 0-.443-.309c-.197 0-.374.123-.443.309l-.413 1.117-1.117.413a.47.47 0 0 0-.308.443.47.47 0 0 0 .308.443l1.117.413.413 1.117c.069.185.246.308.443.308s.374-.123.443-.308l.413-1.117 1.117-.413c.185-.069.308-.246.308-.443s-.123-.374-.308-.443z" fill="#ffcc4d"/><g fill="#ebeff6"><rect x="311.473" y="382.272" width="113" height="8" rx="4"/><rect x="311" y="435" width="143" height="8" rx="4"/><rect x="311" y="408.637" width="57" height="8" rx="4"/><rect x="379" y="408.637" width="102" height="8" rx="4"/></g><rect x="-1" y="1" width="419" height="345" rx="7" transform="matrix(-1 0 0 1 515 125)" stroke="#e1e8f2" stroke-dasharray="8 8" class="M"/><defs><clipPath id="A"><rect x="166.645" y="370" width="32" height="32" rx="16" class="H"/></clipPath><clipPath id="B"><rect x="142.645" y="370" width="32" height="32" rx="16" class="H"/></clipPath><clipPath id="C"><rect x="118.645" y="370" width="32" height="32" rx="16" class="H"/></clipPath><path id="D" d="M355.621 511.63l10.182-13.818 13.818-10.182-13.818-10.182-10.182-13.818-10.182 13.818-13.818 10.182 13.818 10.182 10.182 13.818z"/><path id="E" d="M126.944 432.055c-.611.611 0 1.222 0 1.222l1.834 1.834c.611.611 1.222 0 1.222 0l1.222-1.222-3.055-3.056-1.223 1.222z"/><path id="F" d="M136.111 429c.611-.611 0-1.222 0-1.222l-1.834-1.834c-.611-.611-1.222 0-1.222 0l-1.222 1.223 3.056 3.055 1.222-1.222z"/><path id="G" d="M181.141 389.23c.283.136.481.309.715.432.26.148.482.395.753.457.284.062.593-.099.864-.111.296-.025.617.086.876.012.297-.086.519-.345.753-.456l.815-.371c-.012 0-2.481 1.099-4.776.037z"/><path id="H" d="M165.911 406.188l2.888-9.96c.284-.988 1.086-1.753 2.086-2l6.479-1.604a6.16 6.16 0 0 0 6.159 5.862c3.307 0 6.01-2.604 6.158-5.862l6.492 1.604a2.89 2.89 0 0 1 2.086 2.012l2.863 9.948h-35.211z"/><path id="I" d="M189.681 392.624a6.16 6.16 0 0 1-6.158 5.863 6.17 6.17 0 0 1-6.159-5.863l1.333-.123c.025 2.653 2.172 4.789 4.826 4.789s4.801-2.136 4.825-4.789l1.333.123z"/><path id="J" d="M182.018 378.234c.012.098-.494.247-1.136.321-.481.061-1.036.037-1.444.333.223-.593.852-.642 1.407-.704.63-.074 1.161-.061 1.173.05z"/><path id="K" d="M166.202 395.855c-7.473 5.439-14.74.061-14.825 0a14.02 14.02 0 0 1 2.059-.581c1.466-.291 2.519-1.587 2.519-3.089v-2.991c-3.33-3.053-3.1-8.552-3.1-8.552a.87.87 0 0 0 .097-.121c1.126-.46 3.791-1.635 5.632-3.101a9.43 9.43 0 0 0 .642-.557s.23.23.617.57c.969.86 2.907 2.446 4.615 3.076a.72.72 0 0 0 .073.133c.048 4.07-1.89 7.171-1.89 7.171s-.363.69-1.017 1.381v3.003c0 1.502 1.054 2.798 2.519 3.089.606.109 1.296.303 2.059.569z"/><path id="L" d="M156.017 382.266c.247 0 .448-.217.448-.485s-.201-.484-.448-.484-.449.217-.449.484.201.485.449.485z"/><path id="M" d="M129.91 379.861l.265.205c.024.024.072.036.108.036.049 0 .085.012.121.036.084.061.096.193.012.265-.048.048-.133.06-.193.024a.19.19 0 0 1-.096-.12c-.012-.036-.024-.072-.06-.096l-.41-.326"/></defs></svg>