<svg width="16" height="22" viewBox="0 0 16 22" fill="none" xmlns="http://www.w3.org/2000/svg">
<path d="M14.3194 10.1909C15.8814 11.7519 15.8814 14.2849 14.3194 15.8469L8.66242 21.5039C8.27242 21.8939 7.63842 21.8939 7.24842 21.5039L1.59142 15.8469C0.0294218 14.2849 0.0294218 11.7519 1.59142 10.1899C3.15342 8.62794 5.68642 8.62794 7.24842 10.1899L7.95442 10.8969L8.66242 10.1899C10.2244 8.62794 12.7574 8.62794 14.3194 10.1899V10.1909ZM7.95542 0.210938C10.1654 0.210938 11.9554 2.00094 11.9554 4.21094C11.9554 6.42094 10.1654 8.21094 7.95542 8.21094C5.74542 8.21094 3.95542 6.42094 3.95542 4.21094C3.95542 2.00094 5.74542 0.210938 7.95542 0.210938Z" fill="#C6A9FF"/>
</svg>
