<svg width="139" height="28" viewBox="0 0 139 28" fill="none" xmlns="http://www.w3.org/2000/svg">
<path d="M11.494 13.973V11.3945H3.26828C2.52048 11.3945 1.85578 11.7272 1.35724 12.2263C0.858719 12.7254 0.526367 13.5571 0.526367 14.3889C0.609455 15.8029 1.85578 16.9674 3.35136 16.9674H11.494V25.202C11.494 26.7823 12.9065 28.03 14.402 27.9468C15.8145 27.8636 16.9778 26.616 16.9778 25.1188V16.9674H14.402C12.7403 16.8842 11.494 15.6366 11.494 13.973Z" fill="white"/>
<path d="M27.8699 13.9738C27.7868 12.5598 26.5405 11.3953 25.0449 11.3953H16.9023V3.2439C16.9023 1.66353 15.4898 0.41587 13.9942 0.499047C12.5817 0.582225 11.4185 1.82988 11.4185 3.32708V11.4784H13.9942C15.5729 11.4784 16.9023 12.8093 16.9023 14.3897V16.9682H25.128C25.8758 16.9682 26.5405 16.6354 27.039 16.1364C27.6206 15.5541 27.8699 14.8055 27.8699 13.9738Z" fill="white"/>
<path d="M36.2554 8.4834H39.2465C40.9083 8.4834 43.0686 8.64975 43.7333 10.4797C44.4811 12.6423 43.1517 14.5553 40.9914 14.888L44.398 20.3778H42.6531L39.4127 15.0544H37.5848V20.3778H36.2554V8.4834ZM37.6679 13.7236H38.9142C40.1605 13.7236 42.0715 13.8067 42.4039 12.3096C42.8193 10.3965 41.0745 9.81424 39.5789 9.81424H37.5848V13.7236H37.6679Z" fill="white"/>
<path d="M53.2194 18.9663C51.89 20.6298 49.3143 21.1289 47.4863 19.9644C45.9077 18.8831 45.4091 16.7205 45.9907 14.9738C46.6554 13.1439 48.4834 12.1457 50.3944 12.3953C52.4716 12.728 53.4686 14.4747 53.4686 16.471V16.8869H47.154C47.3202 19.5485 50.6437 20.1308 52.2223 18.2177L53.2194 18.9663ZM52.1393 15.7224C52.0562 12.728 47.5694 12.8943 47.2371 15.7224H52.1393Z" fill="white"/>
<path d="M55.6221 7.6543H56.9515V20.2973H55.6221V7.6543Z" fill="white"/>
<path d="M60.3434 8.4834C61.5898 8.4834 61.5898 10.3965 60.3434 10.3965C59.0971 10.3965 59.0971 8.4834 60.3434 8.4834ZM59.6787 12.4759H61.0081V20.2946H59.6787V12.4759Z" fill="white"/>
<path d="M63.4261 13.5548C64.5893 12.3903 66.6665 11.9744 68.1621 12.6398C69.4084 13.1389 69.8238 14.3866 69.8238 15.7174V19.1277C69.8238 19.5436 69.9069 20.0426 69.9069 20.4585H68.6606C68.5775 20.1258 68.5775 19.6268 68.5775 19.294C67.2481 21.4567 62.7614 21.0408 63.0937 18.0464C63.343 15.7174 66.251 15.6342 67.9959 15.6342H68.4944V15.3847C68.4944 13.1389 65.4202 13.3884 64.2569 14.5529L63.4261 13.5548ZM67.2481 16.5492C66.5003 16.5492 65.4202 16.6323 64.8386 17.2146C64.34 17.7137 64.4231 18.7118 65.0047 19.1277C66.5834 20.2922 68.4944 18.7118 68.5775 17.0482V16.5492H67.2481Z" fill="white"/>
<path d="M72.2257 14.3853C72.2257 13.6367 72.1426 13.0545 72.1426 12.5554H73.3889C73.3889 12.9713 73.3889 13.3872 73.3889 13.8863C74.0536 12.4722 75.8816 12.1395 77.211 12.5554C78.4573 13.0545 78.9558 14.3021 78.9558 15.5498V20.3741H77.7926V15.633C77.7926 14.219 76.8786 13.2208 75.383 13.5535C73.9705 13.8863 73.5551 15.2171 73.5551 16.5479V20.3741H72.2257V14.3853Z" fill="white"/>
<path d="M87.1093 14.4702C86.3615 13.5552 85.0321 13.2225 83.8689 13.8047C82.9549 14.3038 82.4564 15.3019 82.4564 16.3001C82.4564 17.3814 82.8718 18.4627 83.8689 19.0449C84.949 19.6271 86.3615 19.3776 87.1093 18.3795L88.1063 19.2944C86.9431 20.6253 84.7828 20.8748 83.2872 20.1262C81.8747 19.4608 81.127 17.9636 81.127 16.4664C81.127 14.886 81.8747 13.472 83.2872 12.7234C84.8659 11.9748 86.9431 12.2244 88.1894 13.5552L87.1093 14.4702Z" fill="white"/>
<path d="M96.6403 18.9663C95.3109 20.6298 92.7352 21.1289 90.9072 19.9644C89.3286 18.8831 88.83 16.7205 89.4116 14.9738C90.0763 13.1439 91.9043 12.1457 93.8153 12.3953C95.8925 12.728 96.8895 14.4747 96.8895 16.471V16.8869H90.5749C90.7411 19.5485 94.0646 20.1308 95.6432 18.2177L96.6403 18.9663ZM95.4771 15.7224C95.394 12.728 90.9072 12.8943 90.5749 15.7224H95.4771Z" fill="white"/>
<path d="M99.1582 8.4834H100.571V13.474H106.885V8.4834H108.298V20.3778H106.885V14.888H100.571V20.3778H99.1582V8.4834Z" fill="white"/>
<path d="M111.267 8.4834H113.344L117.333 17.7993L121.404 8.4834H123.481V20.3778H122.069V10.3965L117.831 20.3778H117L112.763 10.3965V20.3778H111.35V8.4834H111.267Z" fill="white"/>
<path d="M125.747 14.3867C125.747 11.8082 127.243 9.39603 129.735 8.48108C132.228 7.64931 135.136 8.31473 136.798 10.311C138.376 12.3072 138.543 15.3016 137.296 17.5474C135.967 19.8763 133.225 20.8745 130.649 20.4586C127.741 20.0427 125.747 17.381 125.747 14.3867ZM136.632 14.3867C136.632 12.3904 135.551 10.4773 133.64 9.72874C131.729 8.98015 129.486 9.56239 128.24 11.1428C125.581 14.553 128.323 19.9595 132.81 19.2109C135.136 18.8782 136.632 16.7156 136.632 14.3867Z" fill="white"/>
</svg>
