<svg xmlns="http://www.w3.org/2000/svg" xmlns:xlink="http://www.w3.org/1999/xlink" width="608" height="561" fill="none" xmlns:v="https://vecta.io/nano"><style><![CDATA[.B{fill:#fff}.C{stroke:#121212}.D{fill:#636369}.E{stroke-width:4}.F{fill:#121212}.G{fill:#f5f6f8}.H{fill:#66757f}.I{fill:#dd2e44}.J{stroke:#dfe7f2}.K{stroke-dasharray:8 8}]]></style><g stroke="#97969c" stroke-dasharray="4 4"><path d="M48.496-30.96v78.64m0 544.473v-280.31m0-65.742V97.883M150.688-30.583l-.001 402.045m0 220.516V396.135M252.379-30.772v164.794m0 457.954V510.73m0-293.993V461.13M355.07-30.583V60.16m0 531.811V84.463M457.261-30.77l.001 373.693m0 249.057V425.995M559.453-30.962v183.828m0 439.102V288.95m0-90.065v72.831"/><path d="M608 487.649H277.773M0 487.649h228.393M608 383.856H495.737M0 383.856h138.654m278.878 0H163.326M608 176.271h-25.672M0 176.271h211.292m80.708 0h242.642M608 280.063h-39.48m-568.52 0h15.322m65.323 0H550.88M608 72.478H368.442M0 72.478h25.121m48.339 0h269.018"/><path d="M252.379 511.63l-10.182-13.818-13.818-10.182 13.818-10.182 10.182-13.818 10.182 13.818 13.818 10.182-13.818 10.182-10.182 13.818zM48.52 96.396L38.337 82.578 24.52 72.396l13.818-10.182L48.52 48.396l10.182 13.818L72.52 72.396 58.702 82.578 48.52 96.396zm510.878 103.73l-10.182-13.818-13.818-10.182 13.818-10.182 10.182-13.818 10.183 13.818 13.817 10.182-13.817 10.182-10.183 13.818zM48.531 311.979l-13.576-18.423-18.424-13.577 18.424-13.576 13.576-18.424 13.577 18.424 18.423 13.576-18.423 13.577-13.577 18.423zm408.715 111.907l-16.97-23.03-23.03-16.97 23.03-16.971 16.97-23.029 16.971 23.029 23.029 16.971-23.029 16.97-16.971 23.03zm-204.867-207.61l-16.971-23.029-23.029-16.971 23.029-16.97 16.971-23.03 16.97 23.03 23.03 16.97-23.03 16.971-16.97 23.029z"/><circle cx="150.754" cy="383.856" r="12" transform="rotate(180 150.754 383.856)"/><circle cx="559.453" cy="280.063" r="8" transform="rotate(180 559.453 280.063)"/><circle cx="355.402" cy="72.478" r="12" transform="rotate(180 355.402 72.478)"/></g><g transform="matrix(-1 0 0 1 509 74)"><rect x="-2" y="2" width="444" height="239" rx="6" class="F"/><rect x="-2" y="2" width="444" height="239" rx="6" class="C E"/></g><g transform="matrix(-1 0 0 1 519.747 60.8823)"><rect x="-2" y="2" width="441" height="232" rx="6" class="G"/><rect x="-2" y="2" width="441" height="232" rx="6" class="C E"/></g><rect x="90.747" y="74.287" width="422" height="38" rx="4" class="B"/><rect x="107.747" y="88.287" width="10" height="10" rx="5" fill="#eb5757"/><rect x="125.747" y="88.287" width="10" height="10" rx="5" fill="#f2c94c"/><rect x="143.747" y="88.287" width="10" height="10" rx="5" fill="#27ae60"/><g fill="#e7edf5"><path d="M487.185 87.287a1 1 0 1 0-2 0h2zm-2 12a1 1 0 1 0 2 0h-2zm0-12v12h2v-12h-2z"/><path d="M492.185 94.287a1 1 0 1 0 0-2v2zm-12-2a1 1 0 1 0 0 2v-2zm12 0h-12v2h12v-2z"/></g><rect x="-1" y="1" width="419" height="153" rx="7" transform="matrix(-1 0 0 1 509.747 125.384)" class="G"/><path d="M147.035 166.091c3.42 0 4.716-1.728 4.716-3.654 0-1.764-.864-3.096-3.402-3.582l-2.142-.414c-1.404-.27-1.728-.45-1.728-1.224 0-.756.486-1.098 2.034-1.098 1.782 0 2.304.414 2.304 1.674v.198h2.664v-.144c0-2.394-1.44-4.176-4.878-4.176-3.456 0-4.806 1.818-4.806 3.654 0 1.872.972 3.042 3.276 3.438l2.124.378c1.692.288 1.872.576 1.872 1.386s-.378 1.116-1.908 1.116c-2.178 0-2.664-.378-2.664-1.71v-.18h-2.646v.234c0 2.664 1.638 4.104 5.184 4.104zm10.607 0c2.592 0 4.248-1.134 4.248-3.06v-.18h-2.664v.108c0 .558-.468.792-1.548.792-1.476 0-1.98-.504-2.034-1.764h6.21a8.16 8.16 0 0 0 .126-1.332c0-2.358-1.602-3.978-4.32-3.978-2.826 0-4.554 1.836-4.554 4.734 0 2.862 1.422 4.68 4.536 4.68zm-.072-7.2c1.26 0 1.872.522 1.818 1.458h-3.726c.108-.954.612-1.458 1.908-1.458zm9.859 6.066c1.368 0 2.322-.612 2.718-1.314h.108v1.404c0 1.404-.288 1.728-1.71 1.728-1.548 0-1.818-.234-1.818-1.17h-2.682c0 2.304 1.584 3.546 4.41 3.546 2.916 0 4.482-1.296 4.482-4.248v-8.046h-2.502v1.314h-.09c-.486-.99-1.512-1.494-2.808-1.494-2.574 0-3.942 1.638-3.942 4.158s1.332 4.122 3.834 4.122zm-1.152-4.122c0-1.278.45-1.872 1.998-1.872 1.296 0 1.98.45 1.98 1.602v.54c0 1.152-.702 1.602-1.998 1.602-1.53 0-1.98-.594-1.98-1.872zm11.534 5.076v-5.238c0-1.278.54-1.674 1.764-1.674 1.296 0 1.692.45 1.692 1.71v5.202h2.7v-5.202c0-1.314.522-1.71 1.746-1.71 1.314 0 1.692.45 1.692 1.71v5.202h2.7v-5.742c0-1.926-.954-3.492-3.294-3.492-1.674 0-2.574.774-3.078 1.764h-.09c-.45-1.062-1.386-1.764-2.934-1.764s-2.484.738-2.97 1.764h-.108v-1.584h-2.502v9.054h2.682zm18.593.18c2.592 0 4.248-1.134 4.248-3.06v-.18h-2.664v.108c0 .558-.468.792-1.548.792-1.476 0-1.98-.504-2.034-1.764h6.21a8.16 8.16 0 0 0 .126-1.332c0-2.358-1.602-3.978-4.32-3.978-2.826 0-4.554 1.836-4.554 4.734 0 2.862 1.422 4.68 4.536 4.68zm-.072-7.2c1.26 0 1.872.522 1.818 1.458h-3.726c.108-.954.612-1.458 1.908-1.458zm8.926 7.02v-5.13c0-1.368.558-1.782 1.854-1.782 1.368 0 1.782.45 1.782 1.71v5.202h2.7v-5.742c0-1.926-1.008-3.492-3.366-3.492-1.584 0-2.556.738-3.042 1.764h-.108v-1.584h-2.502v9.054h2.682zm12.563.036a9.52 9.52 0 0 0 1.764-.18v-2.25h-1.116c-1.17 0-1.44-.09-1.44-.882v-3.546h2.556v-2.232h-2.556v-2.106h-2.124l-.504 2.106h-1.512v2.232h1.44v3.852c0 2.142 1.134 3.006 3.492 3.006zm7.496.144c2.502 0 3.888-1.08 3.888-2.772 0-1.476-.792-2.34-2.7-2.7l-1.656-.342c-1.08-.216-1.242-.342-1.242-.774s.252-.666 1.332-.666c1.152 0 1.404.324 1.404.918v.252h2.574v-.252c0-2.034-1.692-3.078-3.906-3.078-2.574 0-3.942 1.188-3.942 2.862s.972 2.43 2.754 2.754l1.368.252c1.206.216 1.458.324 1.458.81 0 .45-.18.612-1.278.612-1.314 0-1.71-.144-1.71-.81v-.378h-2.574v.054c0 2.196 1.386 3.258 4.23 3.258z" fill="#000"/><g clip-path="url(#A)"><path d="M116.838 150.744h1.222v20.167h-1.222v-20.167z" fill="#ccd6dd"/><path d="M117.45 152.577c1.012 0 1.833-.82 1.833-1.833s-.821-1.833-1.833-1.833-1.834.82-1.834 1.833.821 1.833 1.834 1.833z" fill="#f4900c"/><path d="M120.505 166.022h-3.056a.61.61 0 1 1 0-1.223h3.056a.61.61 0 1 1 0 1.223z" class="H"/><path d="M133.949 165.411c0-1.35 3.794-3.667 2.444-3.667h-5.162c-.735-.895-2.808-1.833-4.31-1.833s-1.974.938-2.099 1.833h-3.706c-1.35 0-1.834 1.094-1.834 2.444v2.445c0 1.35.484 2.444 1.834 2.444h15.277c1.35 0-2.444-2.316-2.444-3.666z" class="I"/><use xlink:href="#F" class="B"/><use xlink:href="#G" fill="#000"/><path d="M136.394 161.744H124.76c1.264 1.397 2.898 3.951-.023 7.333h11.657c1.35 0-2.444-2.316-2.444-3.666s3.794-3.667 2.444-3.667z" fill="#f4abba"/><path d="M120.505 156.244h-3.056a.61.61 0 1 1 0-1.222h3.056a.61.61 0 1 1 0 1.222z" class="H"/><path d="M133.949 155.633c0-1.35 3.794-3.667 2.444-3.667h-5.161c-.735-.895-2.808-1.833-4.311-1.833s-1.974.938-2.099 1.833h-3.706c-1.35 0-1.834 1.095-1.834 2.445v2.444c0 1.35.484 2.444 1.834 2.444h15.277c1.35 0-2.444-2.316-2.444-3.666z" fill="#55acee"/><path d="M122.338 156.244c1.013 0 1.834-.821 1.834-1.834s-.821-1.833-1.834-1.833-1.833.821-1.833 1.833.821 1.834 1.833 1.834z" class="B"/><path d="M122.033 155.022a.92.92 0 0 0 .917-.917.92.92 0 0 0-.917-.917.92.92 0 0 0-.917.917.92.92 0 0 0 .917.917z" fill="#000"/><path d="M136.394 151.966H124.76c1.264 1.397 2.898 3.951-.023 7.334h11.657c1.35 0-2.444-2.317-2.444-3.667s3.794-3.667 2.444-3.667z" fill="#bbddf5"/></g><rect x="116.116" y="230.884" width="223" height="30" rx="3.5" class="B"/><g clip-path="url(#B)"><path d="M140.616 245.884a7.5 7.5 0 1 1-15 0 7.5 7.5 0 1 1 15 0z" class="H"/><g fill="#5b6876"><use xlink:href="#H"/><path d="M135.825 251.717a1.46 1.46 0 0 0 1.458-1.458 1.46 1.46 0 0 0-1.458-1.458 1.46 1.46 0 0 0-1.459 1.458 1.46 1.46 0 0 0 1.459 1.458zm-1.042-10.416c.46 0 .833-.373.833-.833s-.373-.834-.833-.834-.834.373-.834.834.373.833.834.833zm-7.917 5c.23 0 .417-.186.417-.417s-.187-.416-.417-.416-.417.186-.417.416.187.417.417.417zm11.25-3.75c.23 0 .417-.186.417-.417s-.187-.416-.417-.416-.417.186-.417.416.187.417.417.417zm-5.833 9.167c.23 0 .417-.187.417-.417s-.187-.417-.417-.417-.417.187-.417.417.187.417.417.417zm6.667-4.584c.46 0 .833-.373.833-.833s-.373-.833-.833-.833-.834.373-.834.833.373.833.834.833zm-10.834 2.917c.46 0 .833-.373.833-.833s-.373-.834-.833-.834-.834.373-.834.834.373.833.834.833z"/></g><path d="M133.116 248.761c-2.916 0-3.75-1.091-3.75-.575s1.667 1.865 3.75 1.865 3.75-1.349 3.75-1.865-.833.575-3.75.575zm3.75-4.127a1.25 1.25 0 1 1-2.5 0 1.25 1.25 0 1 1 2.5 0zm-5 0a1.25 1.25 0 1 1-2.5 0 1.25 1.25 0 1 1 2.5 0z" fill="#292f33"/></g><path d="M153.156 246.021c0 .931-.17 1.733-.511 2.403s-.809 1.182-1.402 1.543-1.263.537-2.016.537-1.43-.179-2.024-.537-1.057-.877-1.398-1.547-.511-1.47-.511-2.399.17-1.732.511-2.4.807-1.184 1.398-1.542 1.268-.541 2.024-.541 1.425.18 2.016.541 1.061.872 1.402 1.542.511 1.468.511 2.4zm-1.304 0c0-.711-.115-1.309-.345-1.794s-.54-.858-.938-1.108-.842-.38-1.342-.38-.952.127-1.347.38-.707.619-.937 1.108-.341 1.083-.341 1.794.114 1.309.341 1.798.543.855.937 1.108.844.375 1.347.375.947-.125 1.342-.375.711-.622.938-1.108.345-1.088.345-1.798zm2.723 6.818v-9h1.245v1.061h.106c.074-.136.181-.294.32-.473s.332-.335.579-.469.574-.204.981-.204c.528 0 1 .133 1.414.4s.74.652.976 1.155.358 1.108.358 1.815-.118 1.314-.354 1.82-.559.891-.971 1.163-.882.405-1.411.405c-.397 0-.723-.067-.976-.2s-.446-.29-.588-.469-.251-.338-.328-.477h-.076v3.473h-1.275zm1.249-5.727c0 .46.067.863.2 1.21s.327.618.58.814.562.289.929.289c.38 0 .699-.1.954-.302s.449-.482.58-.831.2-.743.2-1.18c0-.432-.065-.82-.196-1.164s-.321-.615-.579-.814-.576-.298-.959-.298c-.37 0-.682.095-.938.285s-.444.456-.575.797-.196.739-.196 1.194zm8.859 3.404c-.645 0-1.201-.137-1.667-.413s-.821-.669-1.073-1.172-.375-1.098-.375-1.777c0-.67.125-1.261.375-1.773a2.91 2.91 0 0 1 1.056-1.197c.455-.287.986-.43 1.594-.43a3.21 3.21 0 0 1 1.074.183c.347.122.658.314.933.575s.493.601.652 1.019.239.919.239 1.512v.452h-5.203v-.954h3.954c0-.336-.068-.633-.204-.891s-.328-.467-.575-.618-.532-.226-.861-.226c-.358 0-.671.088-.938.264s-.469.401-.613.682a1.97 1.97 0 0 0-.213.908v.746c0 .437.076.809.23 1.116s.373.541.652.703a1.93 1.93 0 0 0 .975.239c.242 0 .462-.034.661-.102a1.43 1.43 0 0 0 .516-.316c.144-.139.255-.311.332-.515l1.206.217a2.19 2.19 0 0 1-.52.933c-.247.264-.558.47-.933.618a3.49 3.49 0 0 1-1.274.217zm5.376-4.018v3.886h-1.274v-6.545h1.223v1.065h.081c.15-.346.386-.625.707-.835s.732-.315 1.223-.315c.446 0 .837.093 1.172.281s.595.46.78.827.277.819.277 1.359v4.163h-1.274v-4.01c0-.474-.124-.845-.371-1.112s-.587-.405-1.019-.405c-.295 0-.558.064-.788.192s-.408.315-.541.563-.196.539-.196.886zm8.599 4.018c-.645 0-1.201-.137-1.667-.413s-.821-.669-1.074-1.172-.375-1.098-.375-1.777c0-.67.125-1.261.375-1.773a2.92 2.92 0 0 1 1.057-1.197c.455-.287.986-.43 1.594-.43.369 0 .727.061 1.074.183s.658.314.933.575.493.601.652 1.019.239.919.239 1.512v.452h-5.203v-.954h3.954c0-.336-.068-.633-.204-.891a1.55 1.55 0 0 0-.576-.618c-.244-.151-.531-.226-.86-.226-.358 0-.671.088-.938.264s-.469.401-.614.682a1.97 1.97 0 0 0-.213.908v.746c0 .437.077.809.23 1.116a1.67 1.67 0 0 0 .652.703c.279.159.604.239.976.239.242 0 .462-.034.661-.102a1.42 1.42 0 0 0 .515-.316c.145-.139.256-.311.333-.515l1.206.217a2.19 2.19 0 0 1-.52.933c-.247.264-.558.47-.933.618a3.49 3.49 0 0 1-1.274.217zm6.552-.004c-.529 0-1-.135-1.415-.405s-.736-.66-.972-1.163-.349-1.112-.349-1.82.118-1.312.354-1.815.565-.888.98-1.155.885-.4 1.41-.4c.407 0 .733.068.98.204s.444.29.58.469a4.05 4.05 0 0 1 .324.473h.076v-3.243h1.275v8.727h-1.245v-1.018h-.106a3.41 3.41 0 0 1-.333.477c-.142.179-.338.335-.588.469s-.574.2-.971.2zm.281-1.087c.366 0 .676-.096.929-.289s.449-.468.58-.814.2-.75.2-1.21c0-.455-.066-.853-.196-1.194s-.323-.606-.576-.797-.565-.285-.937-.285c-.384 0-.703.099-.959.298s-.449.47-.579.814a3.32 3.32 0 0 0-.192 1.164c0 .437.065.831.196 1.18a1.89 1.89 0 0 0 .579.831c.259.202.577.302.955.302zm8.555.959h-1.397l3.14-8.727h1.522l3.14 8.727h-1.397l-2.468-7.142h-.068l-2.472 7.142zm.235-3.417h4.534v1.108h-4.534v-1.108zm7.208 5.872v-9h1.245v1.061h.106c.074-.136.181-.294.32-.473s.332-.335.579-.469.574-.204.98-.204c.529 0 1 .133 1.415.4s.74.652.976 1.155.358 1.108.358 1.815-.118 1.314-.354 1.82-.559.891-.971 1.163-.882.405-1.411.405c-.398 0-.723-.067-.976-.2s-.446-.29-.588-.469-.251-.338-.328-.477h-.077v3.473h-1.274zm1.249-5.727c0 .46.067.863.2 1.21s.327.618.58.814.562.289.929.289c.38 0 .699-.1.954-.302s.449-.482.58-.831.2-.743.2-1.18c0-.432-.065-.82-.196-1.164s-.321-.615-.579-.814-.576-.298-.959-.298c-.37 0-.682.095-.938.285s-.444.456-.575.797-.196.739-.196 1.194zm6.038 5.727v-9h1.244v1.061h.106c.074-.136.181-.294.32-.473s.332-.335.58-.469.573-.204.98-.204c.528 0 1 .133 1.414.4s.74.652.976 1.155.358 1.108.358 1.815-.118 1.314-.353 1.82-.56.891-.972 1.163-.882.405-1.411.405c-.397 0-.723-.067-.975-.2s-.446-.29-.588-.469-.252-.338-.329-.477h-.076v3.473h-1.274zm1.248-5.727c0 .46.067.863.2 1.21s.327.618.58.814.562.289.929.289c.381 0 .699-.1.954-.302s.449-.482.58-.831.2-.743.2-1.18c0-.432-.065-.82-.196-1.164s-.321-.615-.579-.814-.576-.298-.959-.298a1.53 1.53 0 0 0-.938.285c-.252.191-.444.456-.575.797s-.196.739-.196 1.194zm7.312-5.455v8.727h-1.274v-8.727h1.274zm1.594 8.727v-6.545h1.274v6.545h-1.274zm.644-7.555a.81.81 0 0 1-.571-.222c-.157-.15-.235-.329-.235-.537a.71.71 0 0 1 .235-.537.8.8 0 0 1 .571-.225c.221 0 .41.075.566.225s.239.327.239.537-.08.387-.239.537-.345.222-.566.222zm4.981 7.687c-.633 0-1.179-.143-1.636-.43s-.804-.689-1.048-1.197-.367-1.091-.367-1.748c0-.664.125-1.251.375-1.76s.603-.91 1.057-1.197.99-.43 1.607-.43c.497 0 .94.092 1.329.277s.703.437.942.767.385.714.43 1.154h-1.24c-.068-.306-.224-.571-.468-.792s-.566-.333-.972-.333a1.58 1.58 0 0 0-.933.282 1.81 1.81 0 0 0-.618.792c-.148.341-.222.745-.222 1.211 0 .477.073.889.218 1.235s.349.615.613.806.581.285.942.285c.241 0 .46-.044.656-.132a1.34 1.34 0 0 0 .499-.388c.136-.167.231-.369.285-.605h1.24c-.045.424-.183.801-.413 1.134s-.538.594-.925.784-.833.285-1.351.285zm5.837.013c-.415 0-.79-.077-1.125-.23a1.89 1.89 0 0 1-.797-.678c-.193-.295-.29-.657-.29-1.086 0-.369.071-.673.213-.912s.334-.428.576-.567.511-.244.809-.315.602-.125.912-.162l.955-.111c.244-.031.422-.081.532-.149s.167-.179.167-.332v-.03c0-.372-.106-.661-.316-.865s-.517-.307-.929-.307c-.429 0-.767.095-1.014.285s-.413.397-.507.627l-1.198-.273c.142-.398.35-.719.623-.963s.592-.426.95-.537.734-.17 1.129-.17c.262 0 .538.031.831.093a2.44 2.44 0 0 1 .827.333c.258.162.47.393.635.694s.247.686.247 1.164v4.346h-1.244v-.895h-.052c-.082.165-.206.327-.37.486s-.377.291-.635.396-.568.158-.929.158zm.277-1.023c.352 0 .653-.069.903-.208s.445-.321.575-.546a1.41 1.41 0 0 0 .201-.729v-.843c-.046.045-.134.088-.264.128a4.3 4.3 0 0 1-.439.098l-.482.072-.392.051c-.247.031-.473.084-.677.158s-.364.18-.486.319-.179.319-.179.546c0 .315.116.554.349.716s.53.238.891.238zm7.585-5.667v1.023h-3.575v-1.023h3.575zm-2.616-1.568h1.274v6.191c0 .248.037.434.111.559s.169.206.285.251a1.14 1.14 0 0 0 .388.064c.102 0 .192-.007.269-.021l.179-.034.23 1.052c-.074.029-.179.057-.316.085s-.306.049-.511.052a2.25 2.25 0 0 1-.937-.179c-.29-.125-.525-.319-.704-.58s-.268-.59-.268-.984v-6.456zm3.906 8.113v-6.545h1.274v6.545h-1.274zm.643-7.555a.81.81 0 0 1-.571-.222.72.72 0 0 1-.234-.537c0-.21.078-.389.234-.537s.35-.225.571-.225.411.075.567.225.239.327.239.537-.08.387-.239.537-.345.222-.567.222zm4.982 7.687c-.613 0-1.149-.14-1.606-.421s-.813-.675-1.066-1.181-.379-1.096-.379-1.773.127-1.272.379-1.781.608-.903 1.066-1.185.993-.421 1.606-.421 1.149.14 1.607.421a2.85 2.85 0 0 1 1.065 1.185c.253.509.379 1.102.379 1.781s-.126 1.267-.379 1.773-.608.899-1.065 1.181-.993.421-1.607.421zm.004-1.069c.398 0 .728-.105.989-.316a1.85 1.85 0 0 0 .58-.839c.128-.349.191-.734.191-1.155a3.32 3.32 0 0 0-.191-1.15c-.125-.353-.319-.635-.58-.848s-.591-.32-.989-.32-.732.106-.997.32-.456.495-.583.848-.188.733-.188 1.15.063.806.188 1.155.322.629.583.839.597.316.997.316zm5.624-2.949v3.886h-1.274v-6.545h1.223v1.065h.081c.15-.346.386-.625.707-.835s.731-.315 1.223-.315c.446 0 .837.093 1.172.281s.595.46.78.827.277.819.277 1.359v4.163h-1.274v-4.01c0-.474-.124-.845-.371-1.112s-.587-.405-1.019-.405c-.295 0-.558.064-.788.192s-.408.315-.541.563-.196.539-.196.886z" class="D"/><path d="M262.681 250.504c-.613 0-1.159-.106-1.636-.316a2.74 2.74 0 0 1-1.125-.878 2.27 2.27 0 0 1-.439-1.299h1.602a1.07 1.07 0 0 0 .235.618c.142.173.331.308.567.404s.5.145.792.145c.313 0 .59-.054.831-.162a1.36 1.36 0 0 0 .567-.46c.136-.196.203-.422.2-.677.003-.265-.065-.498-.204-.699s-.341-.36-.606-.473-.576-.171-.946-.171h-.771v-1.218h.771c.304 0 .57-.053.797-.158s.411-.253.542-.443.194-.417.191-.669c.003-.248-.052-.462-.166-.644a1.12 1.12 0 0 0-.473-.43c-.202-.103-.439-.154-.712-.154-.267 0-.514.049-.741.145s-.411.235-.55.414-.213.386-.221.63h-1.522a2.22 2.22 0 0 1 .422-1.287c.273-.372.637-.662 1.091-.869s.965-.315 1.53-.315c.582 0 1.088.109 1.517.328s.766.507 1.001.873a2.2 2.2 0 0 1 .354 1.215c.003.491-.142.903-.435 1.236s-.67.549-1.142.652v.068c.614.085 1.084.312 1.411.682s.493.822.49 1.368c0 .488-.139.926-.418 1.312s-.656.685-1.142.903-1.037.329-1.662.329zm7.791.046c-.702 0-1.304-.177-1.807-.532s-.885-.874-1.155-1.547-.401-1.49-.401-2.442.138-1.761.405-2.429.655-1.182 1.155-1.534 1.104-.528 1.803-.528 1.299.176 1.802.528.888.864 1.155 1.534.405 1.48.405 2.429c0 .955-.135 1.77-.405 2.446s-.652 1.188-1.155 1.543-1.101.532-1.802.532zm0-1.333c.545 0 .975-.269 1.291-.806s.477-1.334.477-2.382c0-.693-.072-1.275-.217-1.747s-.35-.827-.614-1.065a1.34 1.34 0 0 0-.937-.363c-.543 0-.972.27-1.287.81s-.475 1.325-.478 2.365c-.003.696.067 1.281.209 1.756s.35.832.614 1.074a1.36 1.36 0 0 0 .942.358zm9.96 1.282a2.48 2.48 0 0 1-1.381-.396c-.406-.264-.727-.648-.963-1.151s-.353-1.113-.353-1.832c0-.727.119-1.341.358-1.841s.566-.882.976-1.138a2.51 2.51 0 0 1 1.367-.387c.384 0 .699.065.946.196s.444.282.589.464.257.348.336.507h.064v-3.264h1.547v8.727h-1.517v-1.031h-.094c-.079.159-.194.328-.345.507s-.349.327-.597.452-.558.187-.933.187zm.431-1.265c.326 0 .605-.088.835-.264s.405-.428.524-.746.179-.689.179-1.112-.06-.792-.179-1.104-.29-.556-.52-.729-.507-.26-.839-.26c-.344 0-.631.09-.861.269s-.404.426-.52.741-.175.676-.175 1.083.058.774.175 1.095.294.569.524.754a1.35 1.35 0 0 0 .857.273zm6.462 1.282c-.414 0-.788-.073-1.12-.221s-.591-.372-.785-.665-.285-.653-.285-1.082c0-.37.068-.675.205-.917a1.58 1.58 0 0 1 .558-.579c.236-.145.501-.254.797-.328s.606-.132.924-.166l.934-.107c.238-.034.412-.085.519-.153s.167-.181.167-.328v-.026c0-.321-.095-.57-.286-.746s-.464-.264-.822-.264c-.378 0-.678.082-.899.247s-.367.36-.444.584l-1.44-.205c.114-.397.301-.73.563-.997a2.45 2.45 0 0 1 .958-.605 3.68 3.68 0 0 1 1.253-.204 4.13 4.13 0 0 1 .942.11 2.64 2.64 0 0 1 .856.367c.259.167.466.396.623.686s.238.652.238 1.087v4.38h-1.483v-.899h-.051a1.89 1.89 0 0 1-.396.511c-.168.157-.379.283-.635.38s-.55.14-.891.14zm.401-1.133c.31 0 .578-.061.805-.183s.402-.29.524-.495.188-.427.188-.669v-.771a.72.72 0 0 1-.247.111c-.114.034-.242.064-.384.089l-.422.068-.362.052c-.23.031-.436.082-.618.153a1.02 1.02 0 0 0-.43.298.73.73 0 0 0-.158.486c0 .284.104.499.311.644s.472.217.793.217zm5.211 3.456c-.21 0-.405-.017-.584-.051a2.19 2.19 0 0 1-.422-.111l.358-1.202c.225.066.425.097.601.094s.331-.058.464-.166.252-.282.346-.529l.132-.353-2.374-6.682h1.637l1.508 4.943h.068l1.513-4.943h1.641l-2.621 7.338a2.95 2.95 0 0 1-.486.891c-.202.25-.449.44-.741.571s-.637.2-1.04.2zm11.008-7.27l-1.406.153c-.04-.142-.109-.275-.209-.4s-.227-.226-.392-.303-.366-.115-.605-.115c-.321 0-.591.07-.809.209s-.323.32-.32.541c-.003.191.067.345.209.465s.383.217.716.294l1.116.238c.619.134 1.08.345 1.381.635s.457.669.46 1.138c-.003.412-.124.776-.362 1.091s-.564.557-.985.733-.903.264-1.448.264c-.802 0-1.446-.167-1.935-.503a2.02 2.02 0 0 1-.874-1.41l1.505-.145c.068.295.213.518.434.669s.51.226.865.226c.367 0 .661-.076.882-.226s.337-.337.337-.558a.58.58 0 0 0-.217-.465c-.142-.122-.364-.216-.665-.281l-1.117-.234c-.627-.131-1.092-.351-1.393-.661s-.45-.707-.447-1.185c-.003-.403.106-.752.328-1.048s.535-.528.933-.69.862-.247 1.385-.247c.767 0 1.371.163 1.811.49s.717.768.822 1.325zm6.033 4.947c-.415 0-.788-.073-1.121-.221a1.83 1.83 0 0 1-.784-.665c-.19-.293-.285-.653-.285-1.082 0-.37.068-.675.204-.917a1.59 1.59 0 0 1 .559-.579c.235-.145.501-.254.796-.328s.607-.132.925-.166l.933-.107c.239-.034.412-.085.52-.153s.166-.181.166-.328v-.026c0-.321-.095-.57-.285-.746s-.465-.264-.822-.264c-.378 0-.678.082-.9.247s-.366.36-.443.584l-1.44-.205a2.3 2.3 0 0 1 .562-.997c.262-.27.581-.471.959-.605a3.68 3.68 0 0 1 1.253-.204c.315 0 .629.037.942.11a2.64 2.64 0 0 1 .856.367c.259.167.466.396.622.686s.239.652.239 1.087v4.38h-1.483v-.899h-.051a1.89 1.89 0 0 1-.396.511c-.168.157-.38.283-.635.38s-.55.14-.891.14zm.401-1.133c.309 0 .578-.061.805-.183s.402-.29.524-.495.188-.427.188-.669v-.771c-.049.04-.131.077-.247.111s-.242.064-.384.089l-.422.068-.362.052c-.23.031-.436.082-.618.153a1.02 1.02 0 0 0-.43.298.73.73 0 0 0-.158.486c0 .284.104.499.311.644s.472.217.793.217zm7.333 3.592c-.554 0-1.03-.075-1.428-.226s-.717-.346-.959-.596a2.06 2.06 0 0 1-.502-.831l1.389-.337c.062.128.153.254.273.379s.279.233.481.316.462.128.771.128c.438 0 .8-.107 1.087-.32s.43-.557.43-1.04v-1.24h-.076c-.08.159-.196.323-.35.49s-.351.308-.601.422-.558.171-.933.171c-.503 0-.959-.118-1.368-.354s-.73-.594-.971-1.066-.358-1.068-.358-1.781c0-.719.119-1.325.358-1.819s.566-.874.976-1.13a2.51 2.51 0 0 1 1.367-.387c.384 0 .699.065.946.196s.449.282.597.464.26.348.337.507h.085v-1.082h1.521v6.652c0 .559-.133 1.023-.4 1.389a2.4 2.4 0 0 1-1.095.822c-.464.182-.989.273-1.577.273zm.013-3.895c.326 0 .605-.079.835-.238a1.47 1.47 0 0 0 .524-.686c.119-.299.179-.657.179-1.074s-.06-.773-.179-1.083-.29-.549-.52-.72-.507-.26-.839-.26c-.344 0-.631.09-.861.269s-.404.424-.52.737-.175.662-.175 1.057c0 .4.058.751.175 1.052s.294.532.524.699.519.247.857.247zm7.375 1.432c-.639 0-1.193-.141-1.662-.422a2.86 2.86 0 0 1-1.09-1.18c-.256-.506-.384-1.097-.384-1.773s.128-1.268.384-1.777.622-.903 1.09-1.185 1.023-.421 1.662-.421 1.194.14 1.662.421a2.84 2.84 0 0 1 1.087 1.185c.258.509.388 1.101.388 1.777s-.13 1.267-.388 1.773-.618.899-1.087 1.18-1.022.422-1.662.422zm.009-1.236c.346 0 .636-.095.869-.285s.406-.452.52-.776.175-.684.175-1.082-.058-.763-.175-1.087-.287-.586-.52-.78-.523-.289-.869-.289c-.355 0-.651.096-.886.289s-.408.454-.525.78-.17.686-.17 1.087.057.758.17 1.082.292.583.525.776.531.285.886.285z" fill="#eb5757"/><rect x="116.116" y="230.884" width="223" height="30" rx="3.5" class="J"/><rect x="116.247" y="191.884" width="200" height="30" rx="3.5" class="B"/><g clip-path="url(#C)"><path d="M130.591 202.504c-.047.047-.082.103-.112.165l-.003-.003-4.673 10.527.004.005c-.087.168.058.509.356.807s.638.442.806.355l.004.004 10.528-4.673-.003-.004a.58.58 0 0 0 .164-.112c.651-.651-.404-2.762-2.357-4.714s-4.063-3.008-4.714-2.357z" class="I"/><path d="M131.163 204.384l-5.243 8.544-.117.265.004.005c-.087.168.058.509.356.807a1.68 1.68 0 0 0 .295.232l6.372-7.769-1.667-2.084z" fill="#ea596e"/><path d="M135.336 204.829c1.946 1.946 3.026 4.021 2.412 4.635s-2.689-.466-4.636-2.412-3.026-4.023-2.413-4.636 2.69.466 4.637 2.413z" fill="#a0041e"/><path d="M133.493 205.055a.41.41 0 0 1-.306.089c-.362-.039-.666-.165-.879-.363-.225-.211-.336-.493-.306-.776.053-.497.552-.953 1.401-.861.331.035.478-.071.483-.122s-.115-.186-.446-.221c-.361-.04-.665-.165-.879-.364-.225-.211-.337-.493-.306-.776.054-.497.552-.952 1.401-.86.241.025.368-.024.421-.056.043-.026.06-.051.062-.066.005-.05-.114-.186-.446-.222-.228-.025-.394-.23-.369-.459s.229-.394.459-.369c.849.091 1.239.642 1.185 1.14s-.552.952-1.402.861c-.241-.026-.366.024-.421.056-.043.025-.06.051-.062.065-.005.051.115.186.447.222.848.091 1.238.642 1.185 1.139s-.552.953-1.401.861c-.241-.026-.368.024-.422.056-.043.026-.06.051-.062.065-.005.051.115.186.446.222.229.025.395.23.369.459a.41.41 0 0 1-.152.28z" fill="#aa8dd8"/><path d="M138.523 208.908c.822-.232 1.389.134 1.524.616s-.158 1.089-.979 1.321c-.321.09-.417.243-.405.292s.178.13.498.039c.821-.231 1.388.136 1.523.616s-.157 1.09-.979 1.321c-.321.09-.417.244-.403.293s.176.129.496.039c.221-.062.452.067.514.288s-.067.452-.289.514c-.821.232-1.388-.134-1.524-.616s.158-1.089.98-1.32c.321-.091.417-.244.403-.293s-.176-.13-.496-.04c-.822.232-1.389-.134-1.524-.616s.157-1.089.979-1.321c.32-.089.417-.244.403-.292s-.176-.13-.496-.04c-.222.063-.452-.067-.514-.288s.067-.451.289-.513z" fill="#77b255"/><path d="M135.331 207.784c-.122 0-.243-.053-.326-.156-.144-.18-.114-.442.065-.586.091-.073 2.258-1.774 5.32-1.336.228.032.386.243.354.471s-.242.387-.472.353c-2.706-.384-4.661 1.148-4.681 1.163-.077.062-.169.091-.26.091z" fill="#aa8dd8"/><path d="M128.145 206.051c-.04 0-.08-.006-.12-.018-.221-.066-.346-.298-.279-.519.472-1.572.9-4.08.374-4.735-.059-.074-.148-.147-.351-.131-.391.03-.354.854-.353.863.017.229-.155.429-.384.446s-.43-.155-.447-.384c-.043-.575.136-1.681 1.122-1.756.44-.033.805.12 1.063.44.988 1.23-.015 4.795-.226 5.497-.054.18-.22.297-.399.297z" fill="#77b255"/><use xlink:href="#I" fill="#5c913b"/><path d="M126.58 207.717c.461 0 .834-.373.834-.833s-.373-.833-.834-.833-.833.373-.833.833.373.833.833.833z" fill="#9266cc"/><g fill="#5c913b"><path d="M139.289 208.134c.345 0 .625-.28.625-.625s-.28-.625-.625-.625-.625.28-.625.625.28.625.625.625zm-3.75 5c.345 0 .625-.28.625-.625s-.28-.625-.625-.625-.625.28-.625.625.28.625.625.625z"/></g><g fill="#ffcc4d"><path d="M137.413 201.884c.461 0 .834-.373.834-.833s-.373-.833-.834-.833-.833.373-.833.833.373.833.833.833zm1.876 1.667c.345 0 .625-.28.625-.625s-.28-.625-.625-.625-.625.28-.625.625.28.625.625.625zm-1.25 1.667c.345 0 .625-.28.625-.625s-.28-.625-.625-.625-.625.28-.625.625.28.625.625.625zm-9.167 4.583c.345 0 .625-.28.625-.625s-.28-.625-.625-.625-.625.28-.625.625.28.625.625.625z"/></g></g><path d="M146.443 211.384h-1.398l3.141-8.727h1.521l3.141 8.727h-1.398l-2.467-7.142h-.068l-2.472 7.142zm.234-3.417h4.535v1.108h-4.535v-1.108zm7.209 5.872v-9h1.244v1.061h.107a3.61 3.61 0 0 1 .319-.473c.14-.179.333-.335.58-.469s.574-.204.98-.204c.528 0 1 .133 1.415.4s.74.652.976 1.155.358 1.108.358 1.815-.118 1.314-.354 1.82-.56.891-.972 1.163-.882.405-1.41.405c-.398 0-.723-.067-.976-.2s-.446-.29-.588-.469-.251-.338-.328-.477h-.077v3.473h-1.274zm1.249-5.727c0 .46.066.863.2 1.21a1.84 1.84 0 0 0 .579.814c.253.193.563.289.929.289.381 0 .699-.1.955-.302s.449-.482.579-.831.201-.743.201-1.18c0-.432-.066-.82-.196-1.164s-.321-.615-.58-.814-.575-.298-.959-.298c-.369 0-.681.095-.937.285a1.75 1.75 0 0 0-.575.797c-.131.341-.196.739-.196 1.194zm6.037 5.727v-9h1.245v1.061h.106a3.53 3.53 0 0 1 .32-.473c.139-.179.332-.335.579-.469s.574-.204.98-.204c.529 0 1 .133 1.415.4s.74.652.976 1.155.358 1.108.358 1.815-.118 1.314-.354 1.82-.559.891-.971 1.163-.882.405-1.411.405c-.398 0-.723-.067-.976-.2s-.446-.29-.588-.469-.251-.338-.328-.477h-.077v3.473h-1.274zm1.249-5.727c0 .46.067.863.2 1.21s.327.618.58.814.562.289.929.289c.38 0 .698-.1.954-.302s.449-.482.58-.831.2-.743.2-1.18c0-.432-.065-.82-.196-1.164s-.321-.615-.58-.814-.575-.298-.958-.298c-.37 0-.682.095-.938.285a1.75 1.75 0 0 0-.575.797c-.131.341-.196.739-.196 1.194zm7.312-5.455v8.727h-1.275v-8.727h1.275zm1.594 8.727v-6.545h1.274v6.545h-1.274zm.643-7.555a.81.81 0 0 1-.571-.222.72.72 0 0 1-.234-.537c0-.21.078-.389.234-.537s.35-.225.571-.225.411.075.567.225.239.327.239.537-.08.387-.239.537-.345.222-.567.222zm4.982 7.687c-.633 0-1.179-.143-1.636-.43s-.804-.689-1.049-1.197-.366-1.091-.366-1.748c0-.664.125-1.251.375-1.76a2.87 2.87 0 0 1 1.057-1.197c.454-.287.99-.43 1.606-.43.497 0 .941.092 1.33.277s.703.437.942.767.385.714.43 1.154h-1.24a1.48 1.48 0 0 0-.469-.792c-.241-.222-.565-.333-.971-.333-.355 0-.667.094-.934.282a1.81 1.81 0 0 0-.618.792c-.147.341-.221.745-.221 1.211 0 .477.072.889.217 1.235s.35.615.614.806.581.285.942.285c.241 0 .46-.044.656-.132a1.33 1.33 0 0 0 .498-.388c.137-.167.232-.369.286-.605h1.24c-.045.424-.183.801-.413 1.134a2.38 2.38 0 0 1-.925.784c-.384.19-.834.285-1.351.285zm5.836.013c-.414 0-.789-.077-1.125-.23a1.89 1.89 0 0 1-.796-.678c-.194-.295-.29-.657-.29-1.086 0-.369.071-.673.213-.912a1.57 1.57 0 0 1 .575-.567c.242-.139.512-.244.81-.315s.602-.125.912-.162l.954-.111c.245-.031.422-.081.533-.149s.166-.179.166-.332v-.03c0-.372-.105-.661-.315-.865s-.517-.307-.929-.307c-.429 0-.767.095-1.014.285s-.414.397-.507.627l-1.198-.273c.142-.398.35-.719.622-.963s.593-.426.951-.537a3.69 3.69 0 0 1 1.129-.17 4.02 4.02 0 0 1 .831.093c.295.06.571.171.826.333s.471.393.635.694.248.686.248 1.164v4.346h-1.245v-.895h-.051c-.082.165-.206.327-.371.486s-.376.291-.635.396-.568.158-.929.158zm.277-1.023c.353 0 .654-.069.904-.208s.444-.321.575-.546a1.41 1.41 0 0 0 .2-.729v-.843c-.045.045-.133.088-.264.128a4.24 4.24 0 0 1-.439.098l-.481.072-.392.051a3.15 3.15 0 0 0-.678.158 1.17 1.17 0 0 0-.486.319c-.119.137-.179.319-.179.546 0 .315.117.554.35.716s.53.238.89.238zm7.586-5.667v1.023h-3.575v-1.023h3.575zm-2.616-1.568h1.274v6.191c0 .248.037.434.11.559a.58.58 0 0 0 .286.251c.119.043.249.064.388.064.102 0 .192-.007.268-.021l.179-.034.23 1.052c-.074.029-.179.057-.315.085s-.307.049-.511.052c-.336.005-.648-.054-.938-.179a1.61 1.61 0 0 1-.703-.58c-.179-.261-.268-.59-.268-.984v-6.456zm3.905 8.113v-6.545h1.275v6.545h-1.275zm.644-7.555a.81.81 0 0 1-.571-.222.72.72 0 0 1-.234-.537c0-.21.078-.389.234-.537a.8.8 0 0 1 .571-.225.79.79 0 0 1 .567.225c.159.148.238.327.238.537s-.079.387-.238.537-.345.222-.567.222zm4.982 7.687c-.614 0-1.149-.14-1.607-.421s-.812-.675-1.065-1.181-.379-1.096-.379-1.773.126-1.272.379-1.781a2.85 2.85 0 0 1 1.065-1.185c.458-.281.993-.421 1.607-.421s1.149.14 1.606.421.813.677 1.066 1.185.379 1.102.379 1.781-.126 1.267-.379 1.773-.608.899-1.066 1.181-.993.421-1.606.421zm.004-1.069c.398 0 .727-.105.989-.316s.454-.49.579-.839.192-.734.192-1.155a3.32 3.32 0 0 0-.192-1.15c-.125-.353-.318-.635-.579-.848s-.591-.32-.989-.32-.733.106-.997.32-.456.495-.584.848-.187.733-.187 1.15.062.806.187 1.155a1.88 1.88 0 0 0 .584.839c.264.211.597.316.997.316zm5.623-2.949v3.886h-1.274v-6.545h1.223v1.065h.081c.151-.346.387-.625.708-.835s.731-.315 1.223-.315c.446 0 .836.093 1.171.281s.596.46.78.827.277.819.277 1.359v4.163h-1.274v-4.01c0-.474-.123-.845-.371-1.112s-.586-.405-1.018-.405a1.59 1.59 0 0 0-.788.192c-.228.128-.408.315-.542.563s-.196.539-.196.886zm16.517-.477c0 .931-.17 1.733-.511 2.403s-.808 1.182-1.402 1.543-1.263.537-2.016.537-1.43-.179-2.024-.537-1.057-.877-1.398-1.547-.511-1.47-.511-2.399.17-1.732.511-2.4.807-1.184 1.398-1.542 1.268-.541 2.024-.541 1.425.18 2.016.541 1.061.872 1.402 1.542.511 1.468.511 2.4zm-1.304 0c0-.711-.115-1.309-.345-1.794s-.54-.858-.938-1.108-.842-.38-1.342-.38-.952.127-1.346.38-.708.619-.938 1.108-.341 1.083-.341 1.794.114 1.309.341 1.798.543.855.938 1.108.843.375 1.346.375.948-.125 1.342-.375.711-.622.938-1.108.345-1.088.345-1.798zm2.724 6.818v-9h1.244v1.061h.106c.074-.136.181-.294.32-.473s.332-.335.58-.469.573-.204.98-.204c.528 0 1 .133 1.414.4s.74.652.976 1.155.358 1.108.358 1.815-.118 1.314-.353 1.82-.56.891-.972 1.163-.882.405-1.411.405c-.397 0-.723-.067-.975-.2s-.446-.29-.588-.469-.252-.338-.329-.477h-.076v3.473h-1.274zm1.248-5.727c0 .46.067.863.2 1.21s.327.618.58.814.562.289.929.289c.381 0 .699-.1.954-.302s.449-.482.58-.831.2-.743.2-1.18c0-.432-.065-.82-.196-1.164s-.321-.615-.579-.814-.576-.298-.959-.298a1.53 1.53 0 0 0-.938.285c-.252.191-.444.456-.575.797s-.196.739-.196 1.194zm8.859 3.404c-.645 0-1.2-.137-1.666-.413s-.821-.669-1.074-1.172-.375-1.098-.375-1.777c0-.67.125-1.261.375-1.773s.605-.91 1.057-1.197.985-.43 1.593-.43c.37 0 .728.061 1.074.183s.658.314.933.575.493.601.652 1.019.239.919.239 1.512v.452h-5.203v-.954h3.954c0-.336-.068-.633-.204-.891a1.55 1.55 0 0 0-.575-.618c-.245-.151-.532-.226-.861-.226-.358 0-.671.088-.938.264a1.78 1.78 0 0 0-.613.682 1.97 1.97 0 0 0-.213.908v.746c0 .437.076.809.23 1.116s.373.541.652.703.603.239.976.239a2.03 2.03 0 0 0 .66-.102 1.43 1.43 0 0 0 .516-.316 1.37 1.37 0 0 0 .332-.515l1.206.217a2.19 2.19 0 0 1-.52.933c-.247.264-.558.47-.933.618a3.49 3.49 0 0 1-1.274.217zm5.376-4.018v3.886h-1.274v-6.545h1.223v1.065h.081c.15-.346.386-.625.707-.835s.732-.315 1.223-.315c.446 0 .837.093 1.172.281s.595.46.78.827.277.819.277 1.359v4.163h-1.274v-4.01c0-.474-.124-.845-.371-1.112s-.587-.405-1.019-.405c-.295 0-.558.064-.788.192s-.408.315-.541.563-.196.539-.196.886zm8.599 4.018c-.645 0-1.201-.137-1.667-.413s-.821-.669-1.073-1.172-.375-1.098-.375-1.777c0-.67.125-1.261.375-1.773a2.91 2.91 0 0 1 1.056-1.197c.455-.287.986-.43 1.594-.43.369 0 .727.061 1.074.183s.658.314.933.575.493.601.652 1.019.239.919.239 1.512v.452h-5.203v-.954h3.954c0-.336-.068-.633-.204-.891a1.55 1.55 0 0 0-.576-.618c-.244-.151-.531-.226-.86-.226-.358 0-.671.088-.938.264s-.469.401-.613.682a1.97 1.97 0 0 0-.214.908v.746c0 .437.077.809.231 1.116s.373.541.652.703a1.93 1.93 0 0 0 .975.239c.242 0 .462-.034.661-.102a1.43 1.43 0 0 0 .516-.316c.144-.139.255-.311.332-.515l1.206.217a2.19 2.19 0 0 1-.52.933c-.247.264-.558.47-.933.618a3.49 3.49 0 0 1-1.274.217zm6.552-.004c-.529 0-1-.135-1.415-.405s-.736-.66-.971-1.163-.35-1.112-.35-1.82.118-1.312.354-1.815.565-.888.98-1.155.885-.4 1.41-.4c.407 0 .733.068.981.204s.443.29.579.469a4.05 4.05 0 0 1 .324.473h.077v-3.243h1.274v8.727h-1.245v-1.018h-.106a3.48 3.48 0 0 1-.332.477c-.142.179-.339.335-.589.469s-.573.2-.971.2zm.281-1.087c.367 0 .676-.096.929-.289s.449-.468.58-.814.2-.75.2-1.21c0-.455-.065-.853-.196-1.194s-.323-.606-.575-.797-.566-.285-.938-.285c-.383 0-.703.099-.959.298s-.449.47-.579.814a3.32 3.32 0 0 0-.192 1.164c0 .437.065.831.196 1.18s.324.626.58.831.576.302.954.302z" class="D"/><path d="M262.552 211.512c-.639 0-1.193-.141-1.662-.422s-.832-.674-1.091-1.18-.383-1.097-.383-1.773.128-1.268.383-1.777.623-.903 1.091-1.185 1.023-.421 1.662-.421 1.193.14 1.662.421a2.84 2.84 0 0 1 1.087 1.185c.258.509.388 1.101.388 1.777s-.13 1.267-.388 1.773-.618.899-1.087 1.18-1.022.422-1.662.422zm.009-1.236c.346 0 .636-.095.869-.285s.406-.452.52-.776.175-.684.175-1.082-.058-.763-.175-1.087-.287-.586-.52-.78-.523-.289-.869-.289c-.355 0-.651.096-.887.289a1.77 1.77 0 0 0-.524.78c-.113.324-.17.686-.17 1.087s.057.758.17 1.082.292.583.524.776.532.285.887.285zm7.172 1.236c-.653 0-1.214-.143-1.683-.43a2.88 2.88 0 0 1-1.078-1.189c-.25-.509-.375-1.094-.375-1.756s.128-1.251.383-1.76.617-.909 1.083-1.193 1.022-.43 1.662-.43c.531 0 1.001.098 1.41.294s.74.467.984.822.384.764.418 1.236h-1.474a1.41 1.41 0 0 0-.427-.788c-.221-.214-.518-.32-.89-.32a1.39 1.39 0 0 0-.831.256c-.239.167-.425.409-.558.724s-.196.693-.196 1.134.065.829.196 1.15.314.564.549.737.519.256.84.256c.227 0 .43-.043.609-.128a1.22 1.22 0 0 0 .456-.379c.122-.165.206-.365.252-.601h1.474a2.57 2.57 0 0 1-.409 1.232c-.236.355-.557.633-.963.835s-.884.298-1.432.298zm6.806 0c-.654 0-1.215-.143-1.683-.43a2.88 2.88 0 0 1-1.079-1.189c-.25-.509-.375-1.094-.375-1.756s.128-1.251.384-1.76.616-.909 1.082-1.193 1.023-.43 1.662-.43c.532 0 1.002.098 1.411.294s.74.467.984.822.384.764.418 1.236h-1.475a1.4 1.4 0 0 0-.426-.788c-.221-.214-.518-.32-.89-.32-.316 0-.593.085-.831.256s-.425.409-.559.724-.196.693-.196 1.134.066.829.196 1.15.314.564.55.737.519.256.84.256c.227 0 .43-.043.609-.128a1.22 1.22 0 0 0 .456-.379c.122-.165.206-.365.251-.601h1.475a2.57 2.57 0 0 1-.409 1.232c-.236.355-.557.633-.963.835s-.884.298-1.432.298zm8.122-2.881v-3.792h1.543v6.545h-1.496v-1.163h-.068c-.148.366-.391.666-.729.899s-.748.35-1.24.35c-.429 0-.808-.096-1.137-.286s-.583-.473-.767-.839-.277-.816-.277-1.339v-4.167h1.542v3.929c0 .415.114.744.341.988s.526.367.895.367a1.41 1.41 0 0 0 .66-.166c.214-.111.388-.276.525-.495s.208-.498.208-.831zm3.009 2.753v-6.545h1.496v1.091h.068c.12-.378.324-.669.614-.874a1.69 1.69 0 0 1 1.001-.311l.286.013a1.84 1.84 0 0 1 .268.03v1.419c-.065-.023-.169-.043-.311-.06s-.274-.03-.405-.03a1.56 1.56 0 0 0-.758.183c-.222.12-.396.286-.524.499s-.192.459-.192.737v3.848h-1.543zm7.266.128c-.656 0-1.223-.136-1.7-.409s-.839-.665-1.095-1.168-.384-1.1-.384-1.785c0-.673.128-1.264.384-1.773s.619-.909 1.082-1.193 1.007-.43 1.632-.43c.404 0 .784.065 1.142.196a2.57 2.57 0 0 1 .955.596c.278.27.497.614.656 1.031s.239.91.239 1.483v.473h-5.365v-1.039h3.886c-.003-.296-.067-.559-.192-.789s-.299-.416-.524-.549-.48-.201-.775-.201c-.316 0-.593.077-.831.23s-.425.35-.559.597-.197.513-.2.805v.908c0 .381.07.707.209.98a1.49 1.49 0 0 0 .584.622c.25.142.542.213.878.213a1.88 1.88 0 0 0 .609-.093c.182-.066.339-.161.473-.286s.234-.28.303-.464l1.44.162c-.091.38-.264.713-.52.997s-.577.5-.972.656-.846.23-1.355.23zm6.525-.013c-.514 0-.975-.132-1.381-.396s-.727-.648-.963-1.151-.354-1.113-.354-1.832c0-.727.12-1.341.358-1.841s.567-.882.976-1.138a2.51 2.51 0 0 1 1.368-.387c.384 0 .699.065.946.196s.443.282.588.464.257.348.337.507h.064v-3.264h1.547v8.727h-1.517v-1.031h-.094c-.08.159-.195.328-.345.507a1.91 1.91 0 0 1-.597.452c-.247.125-.558.187-.933.187zm.43-1.265c.327 0 .605-.088.835-.264s.405-.428.525-.746.179-.689.179-1.112-.06-.792-.179-1.104-.29-.556-.52-.729-.507-.26-.84-.26c-.344 0-.63.09-.861.269s-.403.426-.519.741-.175.676-.175 1.083.058.774.175 1.095.294.569.524.754.518.273.856.273z" fill="#00cc74"/><rect x="116.247" y="191.884" width="200" height="30" rx="3.5" class="J"/><rect x="325.247" y="191.884" width="168" height="30" rx="3.5" class="B"/><g clip-path="url(#D)"><path d="M349.058 206.423l-3.707-1.372-1.385-4.538c-.053-.175-.215-.295-.398-.295a.42.42 0 0 0-.399.295l-1.384 4.538-3.708 1.372c-.164.061-.272.216-.272.391s.108.33.272.391l3.706 1.372 1.385 4.676c.053.177.215.298.4.298s.347-.121.399-.298l1.385-4.676 3.707-1.373c.163-.06.272-.215.272-.39s-.109-.33-.273-.391z" fill="#ffac33"/><path d="M340.725 211.007l-.964-.357-.375-1.375c-.049-.182-.214-.307-.402-.307s-.352.125-.402.307l-.375 1.375-.963.356c-.164.061-.272.217-.272.391s.108.331.272.391l.958.355.378 1.51c.047.185.213.315.404.315s.358-.13.405-.316l.378-1.509.958-.355c.164-.06.272-.217.272-.391s-.108-.33-.272-.39zm-1.807-9.027l-.985-.364-.365-.986c-.061-.163-.216-.272-.391-.272a.42.42 0 0 0-.391.272l-.364.986-.986.364c-.164.061-.272.217-.272.391s.108.331.272.391l.986.365.364.985c.061.164.217.272.391.272s.33-.108.391-.272l.364-.985.986-.365c.164-.061.272-.217.272-.391s-.108-.33-.272-.391z" fill="#ffcc4d"/></g><path d="M361.954 205.495h-1.329c-.051-.284-.146-.534-.286-.75s-.309-.399-.511-.55a2.23 2.23 0 0 0-.678-.341 2.66 2.66 0 0 0-.788-.115c-.503 0-.953.127-1.351.38s-.707.623-.937 1.112-.341 1.085-.341 1.79c0 .71.114 1.309.341 1.798s.544.858.942 1.108.845.375 1.342.375a2.72 2.72 0 0 0 .784-.111c.25-.077.476-.189.678-.337a2.06 2.06 0 0 0 .511-.541c.142-.216.24-.463.294-.741l1.329.004c-.071.429-.208.824-.413 1.185s-.462.667-.78.929-.676.458-1.082.601-.85.213-1.33.213c-.755 0-1.429-.179-2.02-.537s-1.056-.877-1.397-1.547-.507-1.47-.507-2.399.17-1.732.511-2.4.807-1.184 1.398-1.542 1.263-.541 2.015-.541c.463 0 .895.066 1.296.2a3.42 3.42 0 0 1 1.086.58c.321.252.587.562.797.928s.353.78.426 1.249zm4.111 6.021c-.614 0-1.149-.14-1.607-.421s-.812-.675-1.065-1.181-.379-1.096-.379-1.773.126-1.272.379-1.781a2.85 2.85 0 0 1 1.065-1.185c.458-.281.993-.421 1.607-.421s1.149.14 1.606.421.813.677 1.066 1.185.379 1.102.379 1.781-.126 1.267-.379 1.773-.608.899-1.066 1.181-.992.421-1.606.421zm.004-1.069c.398 0 .727-.105.989-.316s.454-.49.579-.839.192-.734.192-1.155a3.32 3.32 0 0 0-.192-1.15c-.125-.353-.318-.635-.579-.848s-.591-.32-.989-.32-.733.106-.997.32-.456.495-.584.848-.187.733-.187 1.15.062.806.187 1.155a1.88 1.88 0 0 0 .584.839c.264.211.597.316.997.316zm4.349.937v-6.545h1.223v1.065h.081a1.7 1.7 0 0 1 .669-.844c.31-.204.681-.306 1.113-.306s.803.102 1.099.306.518.486.66.844h.069c.156-.349.404-.628.745-.835s.748-.315 1.219-.315c.594 0 1.078.186 1.453.558s.567.933.567 1.683v4.389h-1.274v-4.27c0-.443-.121-.764-.362-.963s-.53-.298-.865-.298c-.415 0-.738.128-.968.384s-.345.578-.345.975v4.172h-1.27v-4.351c0-.355-.111-.64-.332-.856s-.51-.324-.865-.324c-.242 0-.465.064-.669.192s-.365.3-.49.524-.184.484-.184.78v4.035h-1.274zm10.486 2.455v-9h1.244v1.061h.107a3.51 3.51 0 0 1 .319-.473c.139-.179.333-.335.58-.469s.574-.204.98-.204c.528 0 1 .133 1.415.4s.74.652.975 1.155.358 1.108.358 1.815-.117 1.314-.353 1.82-.56.891-.972 1.163-.882.405-1.41.405c-.398 0-.723-.067-.976-.2s-.446-.29-.588-.469a3.5 3.5 0 0 1-.328-.477h-.077v3.473h-1.274zm1.248-5.727c0 .46.067.863.201 1.21s.326.618.579.814.563.289.929.289c.381 0 .699-.1.955-.302s.449-.482.579-.831.201-.743.201-1.18c0-.432-.066-.82-.197-1.164s-.321-.615-.579-.814-.575-.298-.959-.298c-.369 0-.682.095-.937.285s-.445.456-.576.797-.196.739-.196 1.194zm7.312-5.455v8.727h-1.274v-8.727h1.274zm4.415 8.859c-.645 0-1.2-.137-1.666-.413s-.821-.669-1.074-1.172-.375-1.098-.375-1.777c0-.67.125-1.261.375-1.773s.605-.91 1.057-1.197.986-.43 1.594-.43c.369 0 .727.061 1.074.183a2.61 2.61 0 0 1 .933.575c.275.261.493.601.652 1.019s.239.919.239 1.512v.452h-5.204v-.954h3.955c0-.336-.068-.633-.205-.891a1.55 1.55 0 0 0-.575-.618c-.244-.151-.531-.226-.861-.226-.358 0-.67.088-.937.264s-.469.401-.614.682a1.97 1.97 0 0 0-.213.908v.746c0 .437.077.809.23 1.116a1.67 1.67 0 0 0 .652.703c.279.159.604.239.976.239.242 0 .462-.034.661-.102s.37-.177.515-.316.256-.311.333-.515l1.206.217a2.19 2.19 0 0 1-.52.933c-.247.264-.559.47-.934.618s-.796.217-1.274.217zm7.158-6.677v1.023h-3.576v-1.023h3.576zm-2.617-1.568h1.274v6.191c0 .248.037.434.111.559s.169.206.286.251a1.13 1.13 0 0 0 .387.064c.103 0 .192-.007.269-.021l.179-.034.23 1.052c-.074.029-.179.057-.315.085s-.307.049-.512.052c-.335.005-.647-.054-.937-.179a1.61 1.61 0 0 1-.703-.58c-.179-.261-.269-.59-.269-.984v-6.456zm6.657 8.245c-.645 0-1.2-.137-1.666-.413s-.821-.669-1.074-1.172-.375-1.098-.375-1.777c0-.67.125-1.261.375-1.773s.605-.91 1.057-1.197.985-.43 1.593-.43c.37 0 .728.061 1.074.183s.658.314.933.575.493.601.652 1.019.239.919.239 1.512v.452h-5.203v-.954h3.954c0-.336-.068-.633-.204-.891a1.55 1.55 0 0 0-.575-.618c-.245-.151-.532-.226-.861-.226-.358 0-.671.088-.938.264a1.78 1.78 0 0 0-.613.682 1.97 1.97 0 0 0-.213.908v.746c0 .437.076.809.23 1.116s.373.541.652.703.603.239.976.239a2.03 2.03 0 0 0 .66-.102 1.43 1.43 0 0 0 .516-.316 1.37 1.37 0 0 0 .332-.515l1.206.217a2.19 2.19 0 0 1-.52.933c-.247.264-.558.47-.933.618a3.49 3.49 0 0 1-1.274.217zm6.552-.004c-.528 0-1-.135-1.415-.405s-.736-.66-.971-1.163-.35-1.112-.35-1.82.118-1.312.354-1.815.565-.888.98-1.155a2.55 2.55 0 0 1 1.411-.4c.406 0 .733.068.98.204s.443.29.579.469a4.05 4.05 0 0 1 .324.473h.077v-3.243h1.274v8.727h-1.244v-1.018h-.107c-.077.139-.187.298-.332.477s-.338.335-.588.469-.574.2-.972.2zm.281-1.087c.367 0 .676-.096.929-.289s.449-.468.58-.814.2-.75.2-1.21c0-.455-.065-.853-.196-1.194s-.322-.606-.575-.797-.566-.285-.938-.285c-.383 0-.703.099-.959.298a1.83 1.83 0 0 0-.579.814 3.32 3.32 0 0 0-.192 1.164c0 .437.066.831.196 1.18s.324.626.58.831.576.302.954.302zm7.716.959v-6.545h1.232v1.04h.068c.119-.353.33-.63.631-.831a1.8 1.8 0 0 1 1.031-.307l.281.008.26.022v1.218a2.36 2.36 0 0 0-.273-.046c-.13-.02-.261-.03-.392-.03a1.67 1.67 0 0 0-.805.191 1.42 1.42 0 0 0-.554.525c-.136.221-.205.474-.205.758v3.997h-1.274zm7.072.132c-.645 0-1.2-.137-1.666-.413s-.821-.669-1.074-1.172-.375-1.098-.375-1.777c0-.67.125-1.261.375-1.773s.605-.91 1.057-1.197.986-.43 1.594-.43c.369 0 .727.061 1.074.183a2.61 2.61 0 0 1 .933.575c.276.261.493.601.652 1.019s.239.919.239 1.512v.452h-5.204v-.954h3.955c0-.336-.068-.633-.205-.891a1.55 1.55 0 0 0-.575-.618c-.244-.151-.531-.226-.861-.226-.358 0-.67.088-.937.264s-.469.401-.614.682a1.97 1.97 0 0 0-.213.908v.746c0 .437.077.809.23 1.116a1.67 1.67 0 0 0 .652.703c.279.159.604.239.976.239.242 0 .462-.034.661-.102s.37-.177.515-.316.256-.311.333-.515l1.206.217a2.19 2.19 0 0 1-.52.933c-.247.264-.558.47-.933.618s-.797.217-1.275.217zm6.847 2.459c-.52 0-.968-.068-1.343-.204s-.676-.317-.912-.542a2.27 2.27 0 0 1-.528-.737l1.095-.451c.077.125.179.257.307.396s.307.263.528.362.513.149.865.149c.483 0 .883-.118 1.198-.353s.473-.606.473-1.117v-1.287h-.081c-.077.139-.188.294-.332.465s-.339.318-.589.443-.575.187-.975.187c-.517 0-.983-.12-1.398-.362s-.739-.604-.98-1.078-.358-1.064-.358-1.76.118-1.293.354-1.79.565-.878.98-1.142.885-.4 1.41-.4c.406 0 .735.068.985.204s.444.29.583.469.252.337.328.473h.094v-1.061h1.249v6.69c0 .563-.131 1.024-.392 1.385s-.615.628-1.061.801-.944.26-1.5.26zm-.013-3.746c.366 0 .676-.085.929-.255a1.59 1.59 0 0 0 .579-.742c.134-.324.201-.711.201-1.163 0-.44-.066-.828-.196-1.163s-.323-.597-.576-.785-.565-.285-.937-.285c-.384 0-.703.099-.959.298a1.79 1.79 0 0 0-.579.801c-.128.338-.192.716-.192 1.134 0 .429.065.805.196 1.129a1.67 1.67 0 0 0 .579.759c.259.182.577.272.955.272zm4.555 1.155v-6.545h1.274v6.545h-1.274zm.643-7.555a.81.81 0 0 1-.571-.222.72.72 0 0 1-.234-.537c0-.21.078-.389.234-.537a.8.8 0 0 1 .571-.225c.222 0 .411.075.567.225s.238.327.238.537-.079.387-.238.537-.345.222-.567.222zm7.13 2.608l-1.155.204a1.36 1.36 0 0 0-.23-.421c-.103-.134-.242-.243-.418-.329s-.396-.127-.66-.127c-.361 0-.662.081-.904.242s-.362.365-.362.618a.65.65 0 0 0 .243.529c.162.133.423.243.784.328l1.04.239c.602.139 1.051.353 1.346.643s.444.666.444 1.129a1.72 1.72 0 0 1-.341 1.049c-.225.304-.539.542-.942.715s-.865.26-1.394.26c-.733 0-1.331-.156-1.794-.468s-.747-.763-.852-1.343l1.232-.187a1.17 1.17 0 0 0 .473.728c.238.162.549.243.933.243.417 0 .751-.086 1.001-.26s.375-.39.375-.643c0-.205-.076-.376-.23-.516s-.382-.244-.694-.315l-1.108-.243c-.611-.139-1.063-.361-1.355-.665s-.435-.689-.435-1.154c0-.387.108-.725.324-1.015s.514-.515.895-.677.816-.247 1.308-.247c.707 0 1.264.153 1.67.46s.675.711.806 1.223zm4.464-1.598v1.023h-3.575v-1.023h3.575zm-2.617-1.568h1.275v6.191c0 .248.036.434.11.559s.169.206.286.251.248.064.388.064a1.51 1.51 0 0 0 .268-.021l.179-.034.23 1.052c-.074.029-.179.057-.315.085s-.307.049-.512.052c-.335.005-.647-.054-.937-.179a1.61 1.61 0 0 1-.703-.58c-.179-.261-.269-.59-.269-.984v-6.456zm3.906 8.113v-6.545h1.232v1.04h.068c.119-.353.33-.63.631-.831a1.8 1.8 0 0 1 1.031-.307l.281.008.26.022v1.218a2.36 2.36 0 0 0-.273-.046c-.13-.02-.261-.03-.392-.03a1.67 1.67 0 0 0-.805.191 1.42 1.42 0 0 0-.554.525c-.136.221-.205.474-.205.758v3.997h-1.274zm6.332.145c-.415 0-.79-.077-1.125-.23a1.89 1.89 0 0 1-.797-.678c-.193-.295-.29-.657-.29-1.086 0-.369.071-.673.213-.912s.334-.428.576-.567.511-.244.809-.315.603-.125.912-.162l.955-.111c.244-.031.422-.081.533-.149s.166-.179.166-.332v-.03c0-.372-.105-.661-.316-.865s-.517-.307-.929-.307c-.429 0-.767.095-1.014.285s-.413.397-.507.627l-1.197-.273c.142-.398.349-.719.622-.963s.592-.426.95-.537.734-.17 1.129-.17c.262 0 .539.031.831.093a2.44 2.44 0 0 1 .827.333c.259.162.47.393.635.694s.247.686.247 1.164v4.346h-1.244v-.895h-.051c-.083.165-.206.327-.371.486s-.377.291-.635.396-.568.158-.929.158zm.277-1.023c.352 0 .653-.069.903-.208s.445-.321.576-.546a1.42 1.42 0 0 0 .2-.729v-.843c-.045.045-.134.088-.264.128a4.24 4.24 0 0 1-.439.098l-.482.072-.392.051c-.247.031-.473.084-.677.158s-.364.18-.486.319-.179.319-.179.546c0 .315.116.554.349.716s.53.238.891.238zm7.586-5.667v1.023h-3.576v-1.023h3.576zm-2.617-1.568h1.274v6.191c0 .248.037.434.111.559s.169.206.286.251a1.13 1.13 0 0 0 .387.064c.103 0 .192-.007.269-.021l.179-.034.23 1.052c-.074.029-.179.057-.315.085s-.307.049-.512.052a2.25 2.25 0 0 1-.937-.179 1.61 1.61 0 0 1-.703-.58c-.179-.261-.269-.59-.269-.984v-6.456zm3.906 8.113v-6.545h1.274v6.545h-1.274zm.644-7.555a.81.81 0 0 1-.572-.222.72.72 0 0 1-.234-.537c0-.21.078-.389.234-.537s.35-.225.572-.225.41.075.566.225.239.327.239.537-.08.387-.239.537-.345.222-.566.222zm4.981 7.687c-.613 0-1.149-.14-1.606-.421s-.813-.675-1.065-1.181-.38-1.096-.38-1.773.127-1.272.38-1.781.608-.903 1.065-1.185.993-.421 1.606-.421 1.15.14 1.607.421a2.85 2.85 0 0 1 1.065 1.185c.253.509.38 1.102.38 1.781s-.127 1.267-.38 1.773-.608.899-1.065 1.181-.993.421-1.607.421zm.005-1.069c.397 0 .727-.105.988-.316s.455-.49.58-.839.192-.734.192-1.155a3.32 3.32 0 0 0-.192-1.15c-.125-.353-.318-.635-.58-.848s-.591-.32-.988-.32-.733.106-.997.32-.456.495-.584.848-.188.733-.188 1.15.063.806.188 1.155.322.629.584.839.596.316.997.316zm5.623-2.949v3.886h-1.274v-6.545h1.223v1.065h.081c.15-.346.386-.625.707-.835s.732-.315 1.223-.315c.446 0 .837.093 1.172.281s.595.46.78.827.277.819.277 1.359v4.163h-1.274v-4.01c0-.474-.124-.845-.371-1.112s-.587-.405-1.018-.405c-.296 0-.559.064-.789.192s-.408.315-.541.563-.196.539-.196.886z" class="D"/><rect x="325.247" y="191.884" width="168" height="30" rx="3.5" class="J"/><rect x="-1" y="1" width="419" height="153" rx="7" transform="matrix(-1 0 0 1 509.747 125.384)" stroke="#e1e8f2" stroke-width="2" class="K"/><g transform="matrix(-1 0 0 1 515 392)"><rect x="-2" y="2" width="447" height="112" rx="6" class="F"/><rect x="-2" y="2" width="447" height="112" rx="6" class="C E"/></g><g class="G"><rect x="-2" y="2" width="447" height="108" rx="6" transform="matrix(-1 0 0 1 525.747 383.035)"/><rect x="-1" y="1" width="421" height="84" rx="7" transform="matrix(-1 0 0 1 513.747 396.035)"/></g><rect width="329" height="56" rx="6" transform="matrix(-1 0 0 1 502.497 410.785)" class="B"/><rect x="451.497" y="421.785" width="41" height="4" rx="2" fill="#eef1f7"/><path d="M185.815 421.85v-.884h4.642v.884h-1.798v4.935h-1.045v-4.935h-1.799zm6.44 2.378v2.557h-1.028v-5.819h1.005v2.197h.052c.102-.247.26-.441.474-.583s.491-.216.824-.216c.303 0 .567.064.792.191s.4.312.523.556.188.543.188.895v2.779h-1.029v-2.62c0-.293-.075-.521-.227-.684s-.36-.247-.631-.247c-.181 0-.344.039-.488.119a.84.84 0 0 0-.336.338c-.079.148-.119.327-.119.537zm5.73 2.642c-.438 0-.816-.091-1.134-.273s-.559-.443-.73-.778-.256-.734-.256-1.191c0-.448.086-.842.256-1.181a1.94 1.94 0 0 1 .722-.796c.308-.191.671-.287 1.088-.287a2.2 2.2 0 0 1 .761.131 1.72 1.72 0 0 1 .637.398c.185.18.331.409.437.687s.159.606.159.989v.315h-3.577v-.693h2.591c-.002-.197-.044-.372-.127-.526s-.2-.277-.35-.366-.32-.134-.517-.134c-.21 0-.395.051-.554.154a1.06 1.06 0 0 0-.372.397 1.15 1.15 0 0 0-.134.537v.606a1.42 1.42 0 0 0 .14.653.99.99 0 0 0 .389.415 1.17 1.17 0 0 0 .585.142 1.23 1.23 0 0 0 .406-.063.9.9 0 0 0 .316-.19c.089-.083.156-.187.201-.31l.961.108c-.061.254-.177.476-.347.665a1.7 1.7 0 0 1-.648.437c-.263.103-.564.154-.903.154zm3.759-2.642v2.557h-1.029v-4.364h.983v.742h.051c.101-.245.261-.439.48-.583s.496-.216.821-.216c.302 0 .564.065.787.193a1.3 1.3 0 0 1 .523.56c.125.244.187.541.185.889v2.779h-1.029v-2.62c0-.291-.075-.52-.227-.684s-.357-.247-.622-.247a.95.95 0 0 0-.48.119c-.138.078-.247.19-.327.338s-.116.327-.116.537z" class="D"/><path d="M185.497 433.285h307" class="C"/><path d="M192.169 448.278a1.45 1.45 0 0 0-.656-1.094c-.385-.262-.869-.393-1.452-.393-.418 0-.779.066-1.084.199s-.542.308-.711.537a1.27 1.27 0 0 0-.248.77c0 .242.056.451.169.627s.267.323.452.442a3.44 3.44 0 0 0 .607.294l.621.189.994.258c.325.08.658.187 1 .323s.658.315.949.537a2.57 2.57 0 0 1 .706.825c.183.329.274.721.274 1.179a2.7 2.7 0 0 1-.448 1.536c-.295.447-.724.8-1.287 1.059s-1.238.388-2.034.388c-.762 0-1.422-.121-1.978-.363s-.993-.585-1.308-1.029-.489-.978-.522-1.591h1.541c.03.368.149.674.358.919a1.93 1.93 0 0 0 .81.542 3.28 3.28 0 0 0 1.089.174c.434 0 .821-.068 1.159-.203.341-.14.61-.332.805-.577s.293-.539.293-.87c0-.302-.086-.549-.258-.741s-.4-.351-.691-.477-.615-.237-.98-.333l-1.203-.328c-.815-.222-1.461-.549-1.939-.98s-.711-1.001-.711-1.71c0-.587.16-1.099.478-1.536s.749-.778 1.292-1.019 1.157-.368 1.84-.368c.689 0 1.297.121 1.824.363s.948.575 1.253.999.464.905.477 1.452h-1.481zm6.488 7.661c-.752 0-1.4-.161-1.944-.482s-.957-.781-1.252-1.368-.438-1.281-.438-2.073c0-.782.146-1.471.438-2.068s.706-1.062 1.233-1.397 1.15-.502 1.859-.502c.431 0 .848.071 1.253.214s.767.366 1.089.671.575.701.76 1.188.279 1.072.279 1.765v.527h-6.071V451.3h4.614c0-.391-.08-.737-.239-1.039s-.383-.545-.671-.721-.62-.263-1.004-.263c-.418 0-.782.103-1.094.308s-.547.467-.716.796-.248.677-.248 1.058v.871c0 .51.089.944.268 1.302s.436.631.761.82a2.25 2.25 0 0 0 1.138.279c.282 0 .539-.04.771-.12s.432-.205.601-.367.299-.363.388-.602l1.407.254c-.113.414-.315.777-.606 1.088s-.652.549-1.089.721-.93.254-1.487.254zm6.272-4.688v4.534h-1.486v-7.637h1.427v1.243h.094c.176-.404.451-.729.826-.974s.853-.368 1.426-.368c.521 0 .976.109 1.368.328a2.19 2.19 0 0 1 .909.964c.216.428.324.957.324 1.586v4.858h-1.487v-4.679c0-.553-.144-.986-.433-1.297s-.684-.472-1.188-.472a1.86 1.86 0 0 0-.919.223c-.266.149-.476.368-.632.656s-.229.63-.229 1.035zm9.6 4.683c-.617 0-1.167-.158-1.651-.472s-.858-.771-1.133-1.358-.408-1.297-.408-2.123.138-1.531.413-2.117.659-1.036 1.143-1.348a2.98 2.98 0 0 1 1.646-.467c.474 0 .855.079 1.143.239.292.155.517.338.676.546s.289.393.378.552h.09v-3.783h1.486v10.182h-1.452v-1.189h-.124c-.089.163-.219.348-.388.557s-.394.391-.686.547-.669.234-1.133.234zm.328-1.268c.427 0 .789-.113 1.084-.338s.523-.545.676-.95.234-.875.234-1.412c0-.53-.077-.994-.229-1.392s-.376-.707-.671-.929-.66-.333-1.094-.333c-.448 0-.82.116-1.119.348s-.523.548-.676.949-.224.854-.224 1.357c0 .511.077.97.229 1.378s.378.73.676.969.673.353 1.114.353zm9.002 1.119v-7.637h1.427v1.243h.094c.159-.421.419-.749.781-.984s.794-.358 1.297-.358c.511 0 .938.119 1.283.358a2.1 2.1 0 0 1 .771.984h.079c.182-.407.472-.732.87-.974s.872-.368 1.422-.368c.693 0 1.258.217 1.695.651s.662 1.089.662 1.964v5.121h-1.487v-4.982c0-.517-.141-.891-.423-1.123s-.618-.348-1.009-.348c-.484 0-.86.149-1.128.447s-.403.674-.403 1.138v4.868h-1.482v-5.076c0-.415-.129-.748-.387-1s-.595-.377-1.01-.377c-.281 0-.541.074-.78.223s-.426.35-.572.612a1.88 1.88 0 0 0-.214.91v4.708h-1.486zm14.455.169c-.484 0-.921-.09-1.312-.269s-.701-.446-.93-.79-.338-.768-.338-1.268c0-.431.083-.786.249-1.064s.389-.499.671-.661.596-.285.944-.368a9.35 9.35 0 0 1 1.064-.189l1.114-.129c.285-.037.492-.095.621-.174s.194-.209.194-.388v-.035c0-.434-.122-.77-.368-1.009s-.603-.358-1.084-.358c-.5 0-.894.111-1.183.333s-.482.462-.591.731l-1.397-.318c.165-.464.407-.839.725-1.124s.692-.497 1.109-.626a4.32 4.32 0 0 1 1.318-.199c.305 0 .628.036.969.109a2.85 2.85 0 0 1 .965.388c.301.189.548.459.74.81s.289.801.289 1.358v5.071h-1.452v-1.044h-.06c-.096.192-.24.381-.432.566s-.439.34-.741.463-.663.184-1.084.184zm.323-1.193c.411 0 .763-.082 1.054-.244s.519-.375.672-.636a1.66 1.66 0 0 0 .233-.851v-.984c-.053.053-.156.103-.308.149a5.03 5.03 0 0 1-.512.115l-.562.084-.457.06a3.61 3.61 0 0 0-.791.184c-.235.086-.424.21-.567.373s-.208.371-.208.636c0 .368.136.646.407.835s.618.279 1.039.279zm5.286 1.024v-7.637h1.486v7.637h-1.486zm.75-8.815c-.258 0-.48-.086-.666-.258s-.273-.385-.273-.627a.83.83 0 0 1 .273-.626c.186-.176.408-.264.666-.264a.92.92 0 0 1 .662.264c.185.172.278.381.278.626s-.093.451-.278.627a.93.93 0 0 1-.662.258zm4.082-1.367v10.182h-1.486v-10.182h1.486z" class="D"/><path d="M253.953 455.785v-10.182h1.844v4.31h4.718v-4.31h1.85v10.182h-1.85v-4.326h-4.718v4.326h-1.844zm13.579.149c-.766 0-1.427-.159-1.984-.477s-.979-.776-1.277-1.363-.448-1.284-.448-2.083c0-.785.149-1.475.448-2.068s.722-1.061 1.262-1.392 1.175-.502 1.905-.502c.47 0 .914.076 1.332.229s.792.381 1.114.696.58.715.765 1.203.279 1.06.279 1.73v.552h-6.26v-1.213h4.534c-.003-.345-.077-.652-.223-.92a1.62 1.62 0 0 0-.612-.641c-.258-.156-.56-.234-.905-.234a1.75 1.75 0 0 0-.969.268 1.85 1.85 0 0 0-.651.696c-.153.285-.231.599-.234.94v1.059c0 .444.081.825.244 1.143s.389.557.681.726.633.249 1.024.249c.262 0 .499-.037.711-.11s.396-.187.552-.333a1.39 1.39 0 0 0 .353-.542l1.68.189c-.106.445-.308.832-.607 1.164-.294.328-.672.583-1.133.765s-.988.269-1.581.269zm6.578-10.331v10.182h-1.8v-10.182h1.8zm3.51 0v10.182h-1.799v-10.182h1.799zm5.042 10.331c-.746 0-1.392-.164-1.939-.492s-.971-.788-1.273-1.378-.447-1.279-.447-2.068.149-1.48.447-2.073.726-1.054 1.273-1.382 1.193-.492 1.939-.492 1.392.164 1.939.492.969.789 1.268 1.382.452 1.284.452 2.073-.151 1.479-.452 2.068-.721 1.05-1.268 1.378-1.193.492-1.939.492zm.01-1.442c.404 0 .742-.111 1.014-.333s.474-.527.607-.905.203-.799.203-1.263-.068-.89-.203-1.267-.335-.685-.607-.91-.61-.338-1.014-.338c-.414 0-.759.112-1.034.338s-.476.528-.612.91-.199.8-.199 1.267.067.885.199 1.263a2.04 2.04 0 0 0 .612.905c.275.222.62.333 1.034.333zm8.986 3.455v-12.633h3.594v1.383h-1.864v9.873h1.864v1.377h-3.594zm8.621-9.799v1.392h-4.514v-1.392h4.514zm-3.386 7.637v-8.358c0-.513.106-.941.318-1.282s.504-.597.865-.766a2.81 2.81 0 0 1 1.204-.253c.311 0 .588.024.83.074l.537.134-.358 1.392a3.14 3.14 0 0 0-.289-.069 1.71 1.71 0 0 0-.387-.04c-.335 0-.572.081-.711.244s-.204.387-.204.686v8.238h-1.805zm10.093 0v1.436h-6.577v-1.436h6.577zm3.208-4.475v4.475h-1.799v-7.637h1.72v1.298h.089c.176-.428.456-.767.84-1.019s.867-.378 1.437-.378c.527 0 .986.113 1.377.338a2.27 2.27 0 0 1 .915.979c.219.428.327.947.323 1.556v4.863h-1.799v-4.584c0-.511-.133-.91-.398-1.198s-.625-.433-1.089-.433c-.315 0-.595.07-.84.209s-.433.333-.572.592-.204.571-.204.939zm8.789 4.629c-.484 0-.919-.086-1.307-.259s-.69-.434-.915-.775-.333-.763-.333-1.263c0-.431.079-.787.239-1.069s.376-.507.651-.676.585-.297.929-.383.708-.154 1.079-.194l1.089-.124c.279-.04.481-.1.607-.179s.194-.211.194-.383v-.03c0-.374-.111-.664-.334-.87s-.541-.308-.959-.308c-.441 0-.791.096-1.049.288s-.428.42-.517.681l-1.681-.238c.133-.464.352-.852.657-1.164s.678-.55 1.118-.705c.441-.16.928-.239 1.462-.239.368 0 .734.043 1.099.129s.697.229.999.428.544.462.726.8.278.761.278 1.268v5.111h-1.73v-1.049h-.06c-.109.212-.263.411-.462.596s-.442.33-.741.443-.641.164-1.039.164zm.468-1.323a1.96 1.96 0 0 0 .939-.213c.265-.146.469-.339.612-.577a1.47 1.47 0 0 0 .219-.781v-.9c-.057.047-.153.09-.289.13s-.282.074-.447.104l-.492.08-.423.059c-.269.037-.509.096-.721.179s-.379.199-.502.348-.184.335-.184.567c0 .332.121.582.363.751s.55.253.925.253zm5.234 1.169v-7.637h1.72v1.298h.09a2.02 2.02 0 0 1 .79-1.024c.368-.249.807-.373 1.318-.373.517 0 .952.126 1.307.378s.61.588.756 1.019h.079c.169-.424.454-.762.855-1.014s.884-.383 1.437-.383c.703 0 1.276.222 1.72.666s.667 1.092.667 1.944v5.126h-1.805v-4.848c0-.474-.126-.82-.378-1.039s-.56-.333-.925-.333c-.434 0-.774.136-1.019.408s-.363.618-.363 1.049v4.763h-1.765v-4.922c0-.395-.119-.709-.358-.945s-.543-.353-.924-.353a1.3 1.3 0 0 0-.706.199c-.212.129-.382.313-.507.552a1.72 1.72 0 0 0-.189.825v4.644h-1.8zm15.805.149c-.766 0-1.427-.159-1.984-.477s-.979-.776-1.277-1.363-.448-1.284-.448-2.083c0-.785.149-1.475.448-2.068s.722-1.061 1.262-1.392 1.175-.502 1.905-.502c.47 0 .914.076 1.332.229s.792.381 1.114.696.58.715.765 1.203.279 1.06.279 1.73v.552h-6.26v-1.213h4.534c-.003-.345-.077-.652-.223-.92a1.62 1.62 0 0 0-.612-.641c-.258-.156-.56-.234-.905-.234-.367 0-.691.089-.969.268a1.85 1.85 0 0 0-.651.696c-.153.285-.231.599-.234.94v1.059c0 .444.081.825.244 1.143s.389.557.681.726.633.249 1.024.249c.262 0 .499-.037.711-.11s.396-.187.552-.333a1.39 1.39 0 0 0 .353-.542l1.68.189a2.62 2.62 0 0 1-.606 1.164c-.295.328-.673.583-1.134.765s-.988.269-1.581.269zm7.821-10.62v12.633h-3.595v-1.377h1.865v-9.873h-1.865v-1.383h3.595zm4.44 9.079l-.065.546c-.046.418-.129.842-.248 1.273l-.368 1.198-.313.86h-1.214l.189-.825.239-1.173a11.54 11.54 0 0 0 .154-1.323l.035-.556h1.591zm6.694-3.083v4.475h-1.8v-10.182h1.76v3.843h.09c.178-.431.455-.771.83-1.019s.858-.378 1.442-.378c.53 0 .992.111 1.387.333s.699.547.914.974.328.95.328 1.566v4.863h-1.799v-4.584c0-.514-.133-.913-.398-1.198s-.63-.433-1.104-.433a1.74 1.74 0 0 0-.855.209 1.46 1.46 0 0 0-.586.592c-.14.258-.209.571-.209.939zm10.027 4.624c-.766 0-1.427-.159-1.984-.477s-.979-.776-1.278-1.363-.447-1.284-.447-2.083c0-.785.149-1.475.447-2.068s.723-1.061 1.263-1.392 1.175-.502 1.904-.502c.471 0 .915.076 1.333.229a3 3 0 0 1 1.113.696c.325.314.58.715.766 1.203s.278 1.06.278 1.73v.552h-6.259v-1.213h4.534a1.93 1.93 0 0 0-.224-.92 1.61 1.61 0 0 0-.611-.641c-.259-.156-.56-.234-.905-.234a1.75 1.75 0 0 0-.969.268c-.279.176-.496.408-.652.696s-.23.599-.233.94v1.059c0 .444.081.825.243 1.143s.39.557.681.726.633.249 1.025.249c.261 0 .498-.037.71-.11s.397-.187.552-.333a1.37 1.37 0 0 0 .353-.542l1.681.189c-.106.445-.309.832-.607 1.164s-.673.583-1.133.765-.988.269-1.581.269zm4.778-.149v-7.637h1.745v1.273h.079c.14-.441.378-.781.716-1.019s.731-.363 1.169-.363l.333.015c.126.006.23.018.313.035v1.655c-.076-.026-.197-.05-.363-.069s-.32-.035-.472-.035c-.328 0-.623.071-.885.214a1.56 1.56 0 0 0-.612.581c-.149.249-.223.536-.223.86v4.49h-1.8zm8.477.149c-.766 0-1.427-.159-1.984-.477s-.979-.776-1.278-1.363-.447-1.284-.447-2.083c0-.785.149-1.475.447-2.068s.723-1.061 1.263-1.392 1.175-.502 1.904-.502c.471 0 .915.076 1.333.229a3 3 0 0 1 1.113.696c.325.314.58.715.766 1.203s.278 1.06.278 1.73v.552h-6.259v-1.213h4.534a1.94 1.94 0 0 0-.223-.92 1.62 1.62 0 0 0-.612-.641c-.258-.156-.56-.234-.905-.234a1.75 1.75 0 0 0-.969.268c-.279.176-.496.408-.651.696s-.231.599-.234.94v1.059c0 .444.081.825.243 1.143a1.74 1.74 0 0 0 .682.726c.291.166.633.249 1.024.249.262 0 .499-.037.711-.11a1.56 1.56 0 0 0 .551-.333 1.37 1.37 0 0 0 .353-.542l1.681.189c-.106.445-.308.832-.607 1.164a2.95 2.95 0 0 1-1.133.765c-.461.179-.988.269-1.581.269zm6.304-10.331v1.014c0 .292-.056.595-.169.91a3.92 3.92 0 0 1-.452.895 3.5 3.5 0 0 1-.656.726l-.836-.542a5.52 5.52 0 0 0 .478-.89c.136-.322.203-.685.203-1.089v-1.024h1.432zm6.366 4.564l-1.641.179c-.046-.166-.128-.322-.244-.468s-.265-.263-.457-.353-.428-.134-.706-.134c-.375 0-.689.081-.945.244-.251.162-.376.373-.372.631-.004.222.077.403.243.542s.448.254.835.343l1.303.279c.722.155 1.259.402 1.611.74s.533.781.537 1.328a2.08 2.08 0 0 1-.423 1.272c-.275.365-.658.65-1.148.856s-1.054.308-1.691.308c-.934 0-1.687-.196-2.257-.587s-.91-.943-1.019-1.645l1.755-.169c.08.344.249.604.507.78s.595.264 1.009.264c.428 0 .771-.088 1.029-.264s.393-.393.393-.651c0-.219-.084-.4-.253-.542s-.425-.252-.776-.328l-1.302-.274c-.733-.152-1.275-.409-1.626-.77s-.526-.826-.522-1.382c-.004-.471.124-.879.383-1.223s.624-.617 1.088-.806 1.006-.288 1.616-.288c.895 0 1.599.19 2.113.572s.837.896.96 1.546zm7.038 5.772c-.484 0-.92-.086-1.308-.259s-.689-.434-.915-.775-.333-.763-.333-1.263c0-.431.08-.787.239-1.069s.376-.507.651-.676a3.28 3.28 0 0 1 .93-.383 7.67 7.67 0 0 1 1.079-.194l1.089-.124c.278-.04.48-.1.606-.179s.194-.211.194-.383v-.03c0-.374-.111-.664-.333-.87s-.542-.308-.96-.308c-.44 0-.79.096-1.049.288s-.427.42-.517.681l-1.68-.238c.133-.464.351-.852.656-1.164s.678-.55 1.119-.705c.441-.16.928-.239 1.461-.239a4.77 4.77 0 0 1 1.099.129c.365.086.698.229.999.428s.544.462.726.8.279.761.279 1.268v5.111h-1.73v-1.049h-.06c-.109.212-.264.411-.462.596s-.443.33-.741.443-.641.164-1.039.164zm.467-1.323c.361 0 .675-.071.94-.213s.469-.339.611-.577a1.47 1.47 0 0 0 .219-.781v-.9c-.056.047-.152.09-.288.13s-.282.074-.448.104l-.492.08-.423.059a3.16 3.16 0 0 0-.72.179 1.2 1.2 0 0 0-.503.348c-.122.146-.184.335-.184.567 0 .332.121.582.363.751s.551.253.925.253zm11.401 1.303c-.6 0-1.137-.154-1.611-.462s-.848-.756-1.124-1.343-.412-1.299-.412-2.138c0-.848.139-1.564.417-2.147s.662-1.029 1.139-1.328a2.93 2.93 0 0 1 1.596-.452c.447 0 .815.076 1.104.229s.517.329.686.541a3.26 3.26 0 0 1 .392.592h.075v-3.808h1.805v10.182h-1.77v-1.203h-.11c-.092.185-.227.382-.402.591s-.408.381-.696.527-.652.219-1.089.219zm.502-1.477c.381 0 .706-.102.974-.308s.473-.499.612-.87.209-.804.209-1.298-.07-.923-.209-1.287-.338-.648-.607-.85-.591-.304-.979-.304c-.401 0-.736.105-1.004.314s-.471.497-.607.865-.204.789-.204 1.262.068.904.204 1.278a1.99 1.99 0 0 0 .612.88c.271.212.605.318.999.318zm8.723 1.492c-.766 0-1.427-.159-1.984-.477s-.979-.776-1.277-1.363-.448-1.284-.448-2.083c0-.785.149-1.475.448-2.068a3.37 3.37 0 0 1 1.263-1.392c.54-.335 1.174-.502 1.904-.502.47 0 .914.076 1.332.229s.792.381 1.114.696.58.715.765 1.203.279 1.06.279 1.73v.552h-6.26v-1.213h4.535a1.94 1.94 0 0 0-.224-.92 1.62 1.62 0 0 0-.612-.641c-.258-.156-.56-.234-.905-.234-.367 0-.691.089-.969.268a1.86 1.86 0 0 0-.651.696c-.153.285-.231.599-.234.94v1.059c0 .444.081.825.244 1.143s.389.557.681.726.633.249 1.024.249c.262 0 .499-.037.711-.11s.396-.187.552-.333a1.38 1.38 0 0 0 .353-.542l1.68.189a2.62 2.62 0 0 1-.606 1.164c-.295.328-.673.583-1.134.765s-.988.269-1.581.269zm6.976.005c-.484 0-.92-.086-1.308-.259s-.689-.434-.915-.775-.333-.763-.333-1.263c0-.431.08-.787.239-1.069s.376-.507.651-.676a3.28 3.28 0 0 1 .93-.383 7.67 7.67 0 0 1 1.079-.194l1.089-.124c.278-.04.48-.1.606-.179s.194-.211.194-.383v-.03c0-.374-.111-.664-.333-.87s-.542-.308-.96-.308c-.44 0-.79.096-1.049.288s-.427.42-.517.681l-1.68-.238c.132-.464.351-.852.656-1.164s.678-.55 1.119-.705c.441-.16.928-.239 1.461-.239a4.77 4.77 0 0 1 1.099.129c.365.086.698.229.999.428s.544.462.726.8.279.761.279 1.268v5.111h-1.73v-1.049h-.06c-.109.212-.264.411-.462.596s-.443.33-.741.443-.642.164-1.039.164zm.467-1.323c.361 0 .674-.071.94-.213s.469-.339.611-.577a1.47 1.47 0 0 0 .219-.781v-.9a.84.84 0 0 1-.288.13c-.133.039-.282.074-.448.104l-.492.08-.423.059c-.268.037-.508.096-.721.179s-.379.199-.502.348-.184.335-.184.567c0 .332.121.582.363.751s.55.253.925.253zm7.034-9.013v10.182h-1.8v-10.182h1.8zm8.911 2.545v1.392h-4.514v-1.392h4.514zm-3.385 7.637v-8.358c0-.513.106-.941.318-1.282a2.01 2.01 0 0 1 .865-.766c.361-.169.762-.253 1.203-.253.312 0 .588.024.83.074l.537.134-.358 1.392a3.11 3.11 0 0 0-.288-.069c-.116-.027-.245-.04-.388-.04-.335 0-.572.081-.711.244s-.204.387-.204.686v8.238h-1.804zm7.699.149c-.746 0-1.392-.164-1.939-.492s-.971-.788-1.273-1.378-.448-1.279-.448-2.068.15-1.48.448-2.073.726-1.054 1.273-1.382 1.193-.492 1.939-.492 1.392.164 1.938.492a3.3 3.3 0 0 1 1.268 1.382c.302.593.453 1.284.453 2.073s-.151 1.479-.453 2.068-.721 1.05-1.268 1.378-1.193.492-1.938.492zm.01-1.442c.404 0 .742-.111 1.014-.333s.474-.527.606-.905a3.71 3.71 0 0 0 .204-1.263c0-.467-.068-.89-.204-1.267s-.335-.685-.606-.91-.61-.338-1.014-.338c-.415 0-.759.112-1.035.338-.271.225-.475.528-.611.91s-.199.8-.199 1.267.066.885.199 1.263.34.68.611.905c.276.222.62.333 1.035.333zm5.036 1.293v-7.637h1.745v1.273h.08c.139-.441.378-.781.716-1.019s.73-.363 1.168-.363l.333.015c.126.006.23.018.313.035v1.655c-.076-.026-.197-.05-.363-.069a3.21 3.21 0 0 0-.472-.035c-.328 0-.623.071-.885.214s-.462.333-.611.581-.224.536-.224.86v4.49h-1.8zm9.862 2.863c-.245 0-.472-.02-.681-.059a2.55 2.55 0 0 1-.492-.13l.418-1.402c.261.077.495.113.701.11a.86.86 0 0 0 .541-.194c.16-.123.294-.328.403-.617l.154-.412-2.769-7.796h1.909l1.76 5.767h.08l1.765-5.767h1.914l-3.058 8.561c-.142.405-.331.751-.567 1.039a2.3 2.3 0 0 1-.865.667c-.338.155-.742.233-1.213.233zm9.879-2.714c-.746 0-1.392-.164-1.939-.492s-.971-.788-1.272-1.378-.448-1.279-.448-2.068.149-1.48.448-2.073a3.33 3.33 0 0 1 1.272-1.382c.547-.328 1.193-.492 1.939-.492s1.392.164 1.939.492a3.3 3.3 0 0 1 1.268 1.382c.302.593.452 1.284.452 2.073s-.15 1.479-.452 2.068-.721 1.05-1.268 1.378-1.193.492-1.939.492zm.01-1.442c.405 0 .743-.111 1.014-.333s.474-.527.607-.905a3.71 3.71 0 0 0 .204-1.263c0-.467-.068-.89-.204-1.267s-.335-.685-.607-.91-.609-.338-1.014-.338c-.414 0-.759.112-1.034.338s-.476.528-.611.91-.199.8-.199 1.267.066.885.199 1.263a2.03 2.03 0 0 0 .611.905c.275.222.62.333 1.034.333zm9.904-1.919v-4.425h1.8v7.637h-1.745v-1.358h-.08a2.29 2.29 0 0 1-.85 1.049c-.391.272-.873.408-1.447.408-.5 0-.943-.111-1.327-.333s-.68-.552-.895-.979-.323-.952-.323-1.561v-4.863h1.8v4.584c0 .484.132.868.397 1.154s.613.427 1.044.427c.265 0 .522-.065.771-.194s.452-.321.611-.577.244-.581.244-.969zm5.713-6.97l-.164 7.189h-1.601l-.159-7.189h1.924zm-.965 10.291c-.301 0-.56-.106-.775-.318s-.318-.471-.318-.776a1.04 1.04 0 0 1 .318-.765c.215-.212.474-.319.775-.319.295 0 .551.107.766.319s.328.467.328.765c0 .202-.051.386-.154.552a1.14 1.14 0 0 1-.398.398c-.162.096-.343.144-.542.144z" class="F"/><rect x="105.997" y="411.285" width="56" height="56" rx="6" fill="#f1eaff"/><g clip-path="url(#E)"><path d="M135.978 448.667c0 1.35-4.889 1.35-4.889 0v-6.111c0-1.35 1.094-2.445 2.444-2.445s2.445 1.095 2.445 2.445v6.111z" fill="#c1694f"/><path d="M128.645 430.333a4.89 4.89 0 0 0-4.889 4.889v7.334h9.778v-7.334a4.89 4.89 0 0 0-4.889-4.889z" fill="#292f33"/><path d="M134.755 439.965c0 .755-.65 1.368-1.401 1.368h-9.42c-.751 0-1.401-.613-1.401-1.368v-6.43c0-.756.65-1.368 1.401-1.368h9.42c.751 0 1.401.612 1.401 1.368v6.43h0z" fill="#ccd6dd"/><path d="M134.755 433.535c0-.756-.65-1.368-1.401-1.368h-9.42c-.751 0-1.401.612-1.401 1.368v.867l2.982 2.997-2.921 2.937a1.37 1.37 0 0 0 .364.601l3.038-3.055 1.471 1.479a1.65 1.65 0 0 0 2.335 0l1.483-1.487 3.046 3.063c.171-.164.295-.372.364-.601l-2.929-2.944 2.989-2.997v-.86z" fill="#99aab5"/><path d="M133.355 432.167h-9.42a1.4 1.4 0 0 0-1.389 1.255l5.138 5.132c.531.534 1.392.513 1.922-.022l5.14-5.1c-.058-.707-.676-1.265-1.391-1.265z" fill="#e1e8ed"/><path d="M138.422 430.333h-9.777a4.89 4.89 0 0 1 4.888 4.889v7.334h9.778v-7.334a4.89 4.89 0 0 0-4.889-4.889z" fill="#99aab5"/><path d="M138.423 429.111h-2.445c-.675 0-1.222.548-1.222 1.223v7.333a1.22 1.22 0 1 0 2.444 0v-4.889h1.223c.674 0 1.222-.548 1.222-1.222v-1.222c0-.675-.548-1.223-1.222-1.223z" class="I"/></g><rect x="-1" y="1" width="421" height="84" rx="7" transform="matrix(-1 0 0 1 513.747 396.035)" stroke="#e1e8f2" stroke-width="2" class="K"/><rect x="-2" y="2" width="447" height="108" rx="6" transform="matrix(-1 0 0 1 525.747 383.035)" class="C E"/><defs><clipPath id="A"><path transform="translate(115.005 148.911)" d="M0 0h22v22H0z" class="B"/></clipPath><clipPath id="B"><path transform="translate(125.616 238.384)" d="M0 0h15v15H0z" class="B"/></clipPath><clipPath id="C"><path transform="translate(125.747 199.384)" d="M0 0h15v15H0z" class="B"/></clipPath><clipPath id="D"><path transform="translate(334.747 199.384)" d="M0 0h15v15H0z" class="B"/></clipPath><clipPath id="E"><path transform="translate(122.533 428.5)" d="M0 0h22v22H0z" class="B"/></clipPath><path id="F" d="M122.338 166.022c1.013 0 1.834-.821 1.834-1.834s-.821-1.833-1.834-1.833-1.833.821-1.833 1.833.821 1.834 1.833 1.834z"/><path id="G" d="M122.033 164.8a.92.92 0 0 0 .917-.917.92.92 0 0 0-.917-.917.92.92 0 0 0-.917.917.92.92 0 0 0 .917.917z"/><path id="H" d="M129.575 242.967a1.46 1.46 0 0 0 1.458-1.458 1.46 1.46 0 0 0-1.458-1.458 1.46 1.46 0 0 0-1.459 1.458 1.46 1.46 0 0 0 1.459 1.458z"/><path id="I" d="M136.372 203.968c.345 0 .625-.28.625-.625s-.28-.625-.625-.625-.625.28-.625.625.28.625.625.625z"/></defs></svg>