<svg xmlns="http://www.w3.org/2000/svg" xmlns:xlink="http://www.w3.org/1999/xlink" width="608" height="560" fill="none" xmlns:v="https://vecta.io/nano"><style><![CDATA[.B{fill:#fff}.C{fill:#636369}.D{stroke:#dfe7f2}.E{fill:#5c913b}.F{stroke:#121212}.G{stroke-width:4}.H{fill:#dd2e44}.I{fill:#ffac33}.J{fill:#f5f6f8}.K{fill:#ccd6dd}.L{fill:#66757f}.M{fill:#77b255}.N{fill:#ffcc4d}.O{stroke-dasharray:8 8}]]></style><g stroke="#97969c" stroke-dasharray="4 4"><path d="M559.504-31.556v78.64m0 544.473v-280.31m0-65.742V97.287M457.312-31.179l.001 402.046m0 220.515V395.539M355.621-31.368v164.793m0 457.954v-81.246m0-293.993v244.395M252.93-31.179v90.743m0 531.81V83.867M150.739-31.366l-.001 373.692m0 249.057V425.4M48.547-31.558V152.27m0 439.102V288.354m0-90.065v72.832"/><path d="M0 487.054h330.227m277.773 0H379.607M0 383.261h112.263m495.737 0H469.346m-278.878 0h254.206M0 175.675h25.672m582.328 0H396.708m-80.708 0H73.358M0 279.468h39.48m568.521 0h-15.322m-65.324 0H57.12M0 71.882h239.558m368.442 0h-25.121m-48.339 0H265.522"/><use xlink:href="#H"/><path d="M559.48 95.8l10.183-13.818L583.48 71.8l-13.817-10.182L559.48 47.8l-10.182 13.818L535.48 71.8l13.818 10.182L559.48 95.8z"/><use xlink:href="#H" x="-307.019" y="-311.504"/><path d="M559.469 311.384l13.576-18.424 18.424-13.576-18.424-13.577-13.576-18.423-13.577 18.423-18.423 13.577 18.423 13.576 13.577 18.424zM150.754 423.29l16.97-23.029 23.03-16.971-23.03-16.971-16.97-23.029-16.971 23.029-23.029 16.971 23.029 16.971 16.971 23.029zm204.867-207.609l16.971-23.03 23.029-16.97-23.029-16.971-16.971-23.029-16.97 23.029-23.03 16.971 23.03 16.97 16.97 23.03z"/><circle r="12" transform="matrix(1 0 0 -1 457.246 383.261)"/><circle r="8" transform="matrix(1 0 0 -1 48.5469 279.468)"/><circle r="12" transform="matrix(1 0 0 -1 252.598 71.8818)"/></g><g transform="matrix(-1 0 0 1 543 72.8818)"><rect x="-2" y="2" width="442" height="239" rx="6" fill="#121212"/><rect x="-2" y="2" width="442" height="239" rx="6" class="F G"/></g><g transform="matrix(-1 0 0 1 525 59.8818)"><rect x="-2" y="2" width="441" height="232" rx="6" class="J"/><rect x="-2" y="2" width="441" height="232" rx="6" class="F G"/></g><rect x="96" y="73.286" width="422" height="38" rx="4" class="B"/><rect x="113" y="87.286" width="10" height="10" rx="5" fill="#eb5757"/><rect x="131" y="87.286" width="10" height="10" rx="5" fill="#f2c94c"/><rect x="149" y="87.286" width="10" height="10" rx="5" fill="#27ae60"/><g fill="#e7edf5"><path d="M492.438 86.286a1 1 0 1 0-2 0h2zm-2 12a1 1 0 1 0 2 0h-2zm0-12v12h2v-12h-2z"/><path d="M497.437 93.286a1 1 0 1 0 .001-2l-.001 2zm-11.999-2a1 1 0 1 0-.001 2l.001-2zm12 0h-12l-.001 2h12l.001-2z"/></g><rect x="-1" y="1" width="419" height="153" rx="7" transform="matrix(-1 0 0 1 515 124.384)" class="J"/><path d="M152.288 165.09c3.42 0 4.716-1.728 4.716-3.654 0-1.764-.864-3.096-3.402-3.582l-2.142-.414c-1.404-.27-1.728-.45-1.728-1.224 0-.756.486-1.098 2.034-1.098 1.782 0 2.304.414 2.304 1.674v.198h2.664v-.144c0-2.394-1.44-4.176-4.878-4.176-3.456 0-4.806 1.818-4.806 3.654 0 1.872.972 3.042 3.276 3.438l2.124.378c1.692.288 1.872.576 1.872 1.386s-.378 1.116-1.908 1.116c-2.178 0-2.664-.378-2.664-1.71v-.18h-2.646v.234c0 2.664 1.638 4.104 5.184 4.104zm10.606 0c2.592 0 4.248-1.134 4.248-3.06v-.18h-2.664v.108c0 .558-.468.792-1.548.792-1.476 0-1.98-.504-2.034-1.764h6.21a8.16 8.16 0 0 0 .126-1.332c0-2.358-1.602-3.978-4.32-3.978-2.826 0-4.554 1.836-4.554 4.734 0 2.862 1.422 4.68 4.536 4.68zm-.072-7.2c1.26 0 1.872.522 1.818 1.458h-3.726c.108-.954.612-1.458 1.908-1.458zm9.86 6.066c1.368 0 2.322-.612 2.718-1.314h.108v1.404c0 1.404-.288 1.728-1.71 1.728-1.548 0-1.818-.234-1.818-1.17h-2.682c0 2.304 1.584 3.546 4.41 3.546 2.916 0 4.482-1.296 4.482-4.248v-8.046h-2.502v1.314h-.09c-.486-.99-1.512-1.494-2.808-1.494-2.574 0-3.942 1.638-3.942 4.158s1.332 4.122 3.834 4.122zm-1.152-4.122c0-1.278.45-1.872 1.998-1.872 1.296 0 1.98.45 1.98 1.602v.54c0 1.152-.702 1.602-1.998 1.602-1.53 0-1.98-.594-1.98-1.872zm11.534 5.076v-5.238c0-1.278.54-1.674 1.764-1.674 1.296 0 1.692.45 1.692 1.71v5.202h2.7v-5.202c0-1.314.522-1.71 1.746-1.71 1.314 0 1.692.45 1.692 1.71v5.202h2.7v-5.742c0-1.926-.954-3.492-3.294-3.492-1.674 0-2.574.774-3.078 1.764h-.09c-.45-1.062-1.386-1.764-2.934-1.764s-2.484.738-2.97 1.764h-.108v-1.584h-2.502v9.054h2.682zm18.593.18c2.592 0 4.248-1.134 4.248-3.06v-.18h-2.664v.108c0 .558-.468.792-1.548.792-1.476 0-1.98-.504-2.034-1.764h6.21a8.16 8.16 0 0 0 .126-1.332c0-2.358-1.602-3.978-4.32-3.978-2.826 0-4.554 1.836-4.554 4.734 0 2.862 1.422 4.68 4.536 4.68zm-.072-7.2c1.26 0 1.872.522 1.818 1.458h-3.726c.108-.954.612-1.458 1.908-1.458zm8.926 7.02v-5.13c0-1.368.558-1.782 1.854-1.782 1.368 0 1.782.45 1.782 1.71v5.202h2.7v-5.742c0-1.926-1.008-3.492-3.366-3.492-1.584 0-2.556.738-3.042 1.764h-.108v-1.584h-2.502v9.054h2.682zm12.563.036a9.52 9.52 0 0 0 1.764-.18v-2.25h-1.116c-1.17 0-1.44-.09-1.44-.882v-3.546h2.556v-2.232h-2.556v-2.106h-2.124l-.504 2.106h-1.512v2.232h1.44v3.852c0 2.142 1.134 3.006 3.492 3.006zm7.496.144c2.502 0 3.888-1.08 3.888-2.772 0-1.476-.792-2.34-2.7-2.7l-1.656-.342c-1.08-.216-1.242-.342-1.242-.774s.252-.666 1.332-.666c1.152 0 1.404.324 1.404.918v.252h2.574v-.252c0-2.034-1.692-3.078-3.906-3.078-2.574 0-3.942 1.188-3.942 2.862s.972 2.43 2.754 2.754l1.368.252c1.206.216 1.458.324 1.458.81 0 .45-.18.612-1.278.612-1.314 0-1.71-.144-1.71-.81v-.378h-2.574v.054c0 2.196 1.386 3.258 4.23 3.258z" fill="#000"/><g clip-path="url(#A)"><path d="M122.091 149.744h1.222v20.166h-1.222v-20.166z" class="K"/><path d="M122.702 151.577c1.013 0 1.834-.821 1.834-1.834s-.821-1.833-1.834-1.833-1.833.821-1.833 1.833.821 1.834 1.833 1.834z" fill="#f4900c"/><path d="M125.757 165.021h-3.055a.61.61 0 1 1 0-1.222h3.055a.61.61 0 1 1 0 1.222z" class="L"/><path d="M139.202 164.41c0-1.35 3.794-3.667 2.444-3.667h-5.162c-.735-.894-2.808-1.833-4.31-1.833s-1.974.939-2.099 1.833h-3.707c-1.349 0-1.833 1.095-1.833 2.445v2.444c0 1.35.484 2.445 1.833 2.445h15.278c1.35 0-2.444-2.317-2.444-3.667z" class="H"/><path d="M127.591 165.021c1.013 0 1.833-.821 1.833-1.833s-.82-1.834-1.833-1.834-1.833.821-1.833 1.834.821 1.833 1.833 1.833z" class="B"/><path d="M127.286 163.799c.506 0 .916-.41.916-.917s-.41-.916-.916-.916-.917.41-.917.916.411.917.917.917z" fill="#000"/><path d="M141.647 160.744h-11.634c1.264 1.397 2.898 3.95-.023 7.333h11.657c1.35 0-2.444-2.317-2.444-3.667s3.794-3.666 2.444-3.666z" fill="#f4abba"/><path d="M125.757 155.244h-3.055a.61.61 0 1 1 0-1.223h3.055a.61.61 0 1 1 0 1.223z" class="L"/><path d="M139.202 154.632c0-1.35 3.794-3.666 2.444-3.666h-5.161c-.735-.895-2.808-1.834-4.311-1.834s-1.974.939-2.099 1.834h-3.707c-1.349 0-1.833 1.094-1.833 2.444v2.445c0 1.349.484 2.444 1.833 2.444h15.278c1.35 0-2.444-2.317-2.444-3.667z" fill="#55acee"/><path d="M127.591 155.243c1.013 0 1.833-.82 1.833-1.833s-.82-1.833-1.833-1.833-1.833.82-1.833 1.833.821 1.833 1.833 1.833z" class="B"/><path d="M127.286 154.021c.506 0 .916-.41.916-.916s-.41-.917-.916-.917-.917.41-.917.917.411.916.917.916z" fill="#000"/><path d="M141.647 150.966h-11.634c1.264 1.397 2.898 3.951-.023 7.333h11.657c1.35 0-2.444-2.317-2.444-3.667s3.794-3.666 2.444-3.666z" fill="#bbddf5"/></g><rect x="121.5" y="190.884" width="200" height="30" rx="3.5" class="B"/><g clip-path="url(#B)"><path d="M135.844 201.504a.59.59 0 0 0-.112.164l-.003-.003-4.674 10.528.005.004c-.087.168.058.51.355.807s.639.442.807.356l.004.004 10.528-4.674-.004-.004c.062-.029.118-.064.165-.112.651-.651-.405-2.761-2.357-4.714s-4.063-3.007-4.714-2.356z" class="H"/><path d="M136.416 203.384l-5.243 8.544-.118.265.005.004c-.087.168.058.51.355.807.097.097.198.17.296.232l6.372-7.769-1.667-2.083z" fill="#ea596e"/><path d="M140.589 203.828c1.945 1.947 3.026 4.022 2.412 4.635s-2.689-.466-4.636-2.412-3.026-4.022-2.413-4.636 2.69.466 4.637 2.413z" fill="#a0041e"/><path d="M138.746 204.054c-.083.067-.191.102-.306.09-.362-.039-.666-.165-.879-.364-.225-.21-.336-.493-.306-.776.053-.496.552-.952 1.401-.861.331.036.478-.07.483-.121s-.115-.186-.446-.222c-.361-.039-.666-.165-.879-.364-.225-.21-.337-.493-.306-.775.054-.497.552-.953 1.401-.861.241.026.368-.024.421-.056.043-.026.06-.051.062-.066.005-.05-.115-.185-.446-.221-.229-.025-.394-.23-.369-.459s.229-.395.459-.37c.849.092 1.239.643 1.185 1.14s-.552.953-1.402.861c-.241-.026-.367.024-.421.056-.043.026-.06.051-.062.066-.005.05.115.185.446.221.849.092 1.239.643 1.185 1.14s-.551.952-1.4.86c-.241-.026-.368.024-.422.056-.043.027-.06.052-.062.066-.005.05.115.186.446.222.228.025.395.23.369.459-.011.114-.069.213-.152.279z" fill="#aa8dd8"/><path d="M143.776 207.907c.822-.232 1.389.135 1.524.616s-.158 1.09-.979 1.321c-.321.09-.418.243-.405.292s.177.13.497.04c.822-.231 1.389.135 1.524.616s-.157 1.089-.979 1.321c-.321.09-.417.244-.403.292s.176.13.496.04c.221-.062.452.067.514.288s-.067.452-.289.514c-.821.231-1.388-.135-1.524-.616s.158-1.089.98-1.321c.321-.09.417-.243.403-.292s-.176-.13-.496-.04c-.822.232-1.389-.134-1.524-.616s.157-1.089.979-1.321c.32-.09.417-.244.403-.292s-.176-.13-.496-.04c-.222.062-.452-.067-.514-.288s.067-.451.289-.514z" class="M"/><path d="M140.584 206.784a.42.42 0 0 1-.326-.156c-.144-.18-.114-.442.065-.586a7.36 7.36 0 0 1 5.32-1.337c.228.033.386.244.354.471s-.242.388-.472.354a6.61 6.61 0 0 0-4.681 1.163.42.42 0 0 1-.26.091z" fill="#aa8dd8"/><path d="M133.398 205.05a.45.45 0 0 1-.12-.017c-.221-.067-.346-.299-.279-.519.472-1.572.9-4.081.374-4.735-.059-.074-.148-.147-.351-.132-.391.03-.354.855-.353.863.017.23-.155.43-.385.447s-.429-.155-.446-.385c-.043-.574.136-1.681 1.121-1.756.44-.033.806.12 1.064.441.988 1.229-.015 4.794-.226 5.497-.054.18-.22.296-.399.296z" class="M"/><use xlink:href="#I" class="E"/><use xlink:href="#J" fill="#9266cc"/><g class="E"><path d="M144.542 207.134c.345 0 .625-.28.625-.625s-.28-.625-.625-.625-.625.28-.625.625.28.625.625.625zm-3.75 5c.345 0 .625-.28.625-.625s-.28-.625-.625-.625-.625.28-.625.625.28.625.625.625z"/></g><g class="N"><path d="M142.666 200.884c.461 0 .834-.373.834-.833s-.373-.834-.834-.834-.833.373-.833.834.373.833.833.833zm1.876 1.666c.345 0 .625-.28.625-.625s-.28-.625-.625-.625-.625.28-.625.625.28.625.625.625zm-1.25 1.667c.345 0 .625-.28.625-.625s-.28-.625-.625-.625-.625.28-.625.625.28.625.625.625zm-9.167 4.583c.345 0 .625-.28.625-.625s-.28-.625-.625-.625-.625.28-.625.625.28.625.625.625z"/></g></g><path d="M151.696 210.384h-1.398l3.141-8.727h1.521l3.141 8.727h-1.398l-2.467-7.142h-.068l-2.472 7.142zm.234-3.418h4.534v1.108h-4.534v-1.108zm7.209 5.872v-9h1.244v1.061h.107a3.61 3.61 0 0 1 .319-.473c.14-.179.333-.335.58-.468s.574-.205.98-.205c.528 0 1 .134 1.415.401s.74.652.976 1.155.358 1.107.358 1.815-.118 1.314-.354 1.819-.56.891-.972 1.164-.882.405-1.41.405c-.398 0-.723-.067-.976-.201s-.446-.289-.588-.468a3.44 3.44 0 0 1-.328-.478h-.077v3.473h-1.274zm1.248-5.727c0 .46.067.864.201 1.21s.326.618.579.814.563.29.929.29c.381 0 .699-.101.955-.303a1.87 1.87 0 0 0 .579-.831 3.27 3.27 0 0 0 .201-1.18c0-.432-.066-.82-.196-1.163s-.321-.615-.58-.814-.575-.299-.959-.299c-.369 0-.682.096-.937.286s-.445.456-.576.797-.196.739-.196 1.193zm6.038 5.727v-9h1.244v1.061h.107a3.53 3.53 0 0 1 .32-.473c.139-.179.332-.335.579-.468s.574-.205.98-.205c.529 0 1 .134 1.415.401s.74.652.976 1.155.358 1.107.358 1.815-.118 1.314-.354 1.819-.56.891-.971 1.164-.883.405-1.411.405c-.398 0-.723-.067-.976-.201s-.446-.289-.588-.468a3.53 3.53 0 0 1-.328-.478h-.077v3.473h-1.274zm1.249-5.727c0 .46.066.864.2 1.21s.327.618.58.814.562.29.929.29c.38 0 .698-.101.954-.303s.449-.481.58-.831.2-.742.2-1.18c0-.432-.065-.82-.196-1.163s-.321-.615-.58-.814-.575-.299-.958-.299c-.37 0-.682.096-.938.286s-.445.456-.575.797-.196.739-.196 1.193zm7.312-5.454v8.727h-1.275v-8.727h1.275zm1.594 8.727v-6.546h1.274v6.546h-1.274zm.643-7.556a.81.81 0 0 1-.571-.221c-.156-.151-.234-.33-.234-.537s.078-.389.234-.537a.8.8 0 0 1 .571-.226c.222 0 .411.075.567.226s.239.327.239.537-.08.386-.239.537-.345.221-.567.221zm4.982 7.688c-.633 0-1.179-.144-1.636-.431s-.804-.688-1.049-1.197-.366-1.091-.366-1.747c0-.665.125-1.252.375-1.76s.602-.911 1.057-1.197.99-.431 1.606-.431c.497 0 .941.092 1.33.277s.703.438.942.767a2.32 2.32 0 0 1 .43 1.155h-1.24a1.49 1.49 0 0 0-.469-.793c-.241-.221-.565-.332-.971-.332-.356 0-.667.094-.934.281s-.47.449-.618.793-.221.744-.221 1.21c0 .477.072.889.217 1.236s.35.615.614.805.581.286.942.286c.241 0 .46-.044.656-.132a1.34 1.34 0 0 0 .498-.388c.137-.168.232-.369.286-.605h1.24c-.045.423-.183.801-.413 1.133a2.38 2.38 0 0 1-.925.784c-.384.191-.834.286-1.351.286zm5.836.013c-.414 0-.789-.077-1.125-.23s-.6-.383-.797-.678-.289-.658-.289-1.087c0-.369.071-.673.213-.912s.334-.427.575-.566a2.98 2.98 0 0 1 .81-.316c.298-.071.602-.125.912-.162l.954-.11c.245-.032.422-.081.533-.15s.166-.179.166-.332v-.03c0-.372-.105-.66-.315-.865s-.517-.307-.929-.307c-.429 0-.767.096-1.014.286s-.414.396-.508.626l-1.197-.272c.142-.398.349-.719.622-.964s.592-.426.95-.536.735-.171 1.13-.171c.261 0 .538.031.831.094a2.43 2.43 0 0 1 .826.332c.259.162.471.394.635.695s.247.686.247 1.163v4.347h-1.244v-.895h-.051c-.082.165-.206.327-.371.486s-.376.291-.635.396-.568.158-.929.158zm.277-1.023c.353 0 .654-.07.904-.209s.444-.321.575-.545a1.41 1.41 0 0 0 .2-.729v-.844c-.045.046-.133.088-.264.128s-.274.07-.439.098l-.481.073-.392.051c-.248.031-.473.083-.678.157s-.364.181-.486.32-.179.318-.179.545c0 .316.117.554.35.716s.53.239.89.239zm7.586-5.668v1.023h-3.575v-1.023h3.575zm-2.617-1.568h1.275v6.192c0 .247.037.433.11.558s.169.206.286.252a1.16 1.16 0 0 0 .388.063 1.51 1.51 0 0 0 .268-.021l.179-.034.23 1.053c-.074.028-.179.056-.315.085s-.307.048-.511.051a2.24 2.24 0 0 1-.938-.179c-.29-.125-.524-.318-.703-.58s-.269-.589-.269-.984v-6.456zm3.906 8.114v-6.546h1.275v6.546h-1.275zm.644-7.556c-.222 0-.412-.073-.571-.221s-.235-.33-.235-.537.079-.389.235-.537a.8.8 0 0 1 .571-.226c.221 0 .41.075.567.226s.238.327.238.537-.079.386-.238.537-.346.221-.567.221zm4.982 7.688c-.614 0-1.149-.141-1.607-.422a2.85 2.85 0 0 1-1.065-1.18c-.253-.506-.379-1.097-.379-1.773s.126-1.273.379-1.781.608-.904 1.065-1.185.993-.422 1.607-.422 1.149.141 1.606.422.813.676 1.066 1.185.379 1.102.379 1.781-.126 1.267-.379 1.773-.608.899-1.066 1.18-.993.422-1.606.422zm.004-1.07c.398 0 .727-.105.989-.315s.454-.49.579-.84a3.33 3.33 0 0 0 .192-1.154 3.32 3.32 0 0 0-.192-1.151c-.125-.352-.318-.635-.579-.848s-.591-.32-.989-.32-.733.107-.997.32a1.91 1.91 0 0 0-.584.848c-.125.349-.187.733-.187 1.151s.062.805.187 1.154.323.63.584.84.596.315.997.315zm5.623-2.949v3.887h-1.274v-6.546h1.223v1.066h.081c.151-.347.386-.625.708-.836s.731-.315 1.223-.315c.446 0 .836.094 1.171.281s.596.461.78.827.277.82.277 1.359v4.164h-1.274v-4.01c0-.475-.124-.845-.371-1.112s-.586-.405-1.018-.405a1.59 1.59 0 0 0-.788.192c-.228.127-.408.315-.542.562s-.196.54-.196.886zm16.517-.477c0 .932-.17 1.733-.511 2.404s-.809 1.181-1.402 1.542-1.263.537-2.016.537-1.43-.179-2.024-.537-1.057-.876-1.398-1.547-.511-1.47-.511-2.399.17-1.731.511-2.399.807-1.185 1.398-1.543 1.268-.541 2.024-.541 1.425.181 2.016.541 1.061.873 1.402 1.543.511 1.467.511 2.399zm-1.304 0c0-.71-.115-1.308-.345-1.794s-.54-.858-.938-1.108a2.43 2.43 0 0 0-1.342-.379c-.503 0-.952.126-1.347.379s-.707.619-.937 1.108-.341 1.084-.341 1.794.114 1.31.341 1.798.543.856.937 1.108.844.375 1.347.375.948-.125 1.342-.375.711-.622.938-1.108.345-1.088.345-1.798zm2.723 6.818v-9h1.245v1.061h.106c.074-.136.181-.294.32-.473s.332-.335.579-.468.574-.205.981-.205c.528 0 1 .134 1.414.401s.74.652.976 1.155.358 1.107.358 1.815-.118 1.314-.354 1.819-.559.891-.971 1.164-.882.405-1.411.405c-.397 0-.723-.067-.975-.201s-.447-.289-.589-.468a3.53 3.53 0 0 1-.328-.478h-.076v3.473h-1.275zm1.249-5.727c0 .46.067.864.2 1.21s.327.618.58.814.562.29.929.29c.381 0 .699-.101.954-.303s.449-.481.58-.831.2-.742.2-1.18c0-.432-.065-.82-.196-1.163s-.321-.615-.579-.814-.576-.299-.959-.299c-.369 0-.682.096-.938.286s-.444.456-.575.797-.196.739-.196 1.193zm8.859 3.405c-.645 0-1.201-.138-1.666-.413a2.8 2.8 0 0 1-1.074-1.172c-.25-.506-.375-1.098-.375-1.777 0-.671.125-1.262.375-1.773s.605-.911 1.057-1.197.985-.431 1.593-.431c.37 0 .728.061 1.074.183s.658.314.933.576.493.6.652 1.018.239.919.239 1.513v.452h-5.203v-.955h3.954c0-.335-.068-.632-.204-.891s-.328-.467-.575-.617-.532-.226-.861-.226c-.358 0-.671.088-.938.264s-.468.4-.613.682-.213.581-.213.907v.746c0 .438.076.81.23 1.117s.373.541.652.703.603.238.976.238a2.03 2.03 0 0 0 .66-.102 1.43 1.43 0 0 0 .516-.315c.145-.139.255-.311.332-.516l1.206.217c-.097.356-.27.667-.52.934s-.558.47-.933.618-.797.217-1.274.217zm5.376-4.019v3.887h-1.274v-6.546h1.223v1.066h.081a1.87 1.87 0 0 1 .707-.836c.324-.21.732-.315 1.223-.315.446 0 .837.094 1.172.281a1.89 1.89 0 0 1 .78.827c.184.367.277.82.277 1.359v4.164h-1.274v-4.01c0-.475-.124-.845-.371-1.112s-.587-.405-1.019-.405c-.295 0-.558.064-.788.192a1.37 1.37 0 0 0-.541.562c-.131.244-.196.54-.196.886zm8.599 4.019c-.645 0-1.201-.138-1.667-.413a2.8 2.8 0 0 1-1.073-1.172c-.25-.506-.375-1.098-.375-1.777 0-.671.125-1.262.375-1.773s.605-.911 1.056-1.197.986-.431 1.594-.431c.369 0 .727.061 1.074.183s.658.314.933.576.493.6.652 1.018.239.919.239 1.513v.452h-5.203v-.955h3.954c0-.335-.068-.632-.204-.891s-.328-.467-.576-.617-.531-.226-.86-.226c-.358 0-.671.088-.938.264a1.77 1.77 0 0 0-.614.682c-.142.278-.213.581-.213.907v.746c0 .438.077.81.231 1.117s.373.541.652.703a1.93 1.93 0 0 0 .975.238c.242 0 .462-.034.661-.102a1.43 1.43 0 0 0 .516-.315 1.38 1.38 0 0 0 .332-.516l1.206.217c-.097.356-.27.667-.52.934s-.558.47-.933.618-.797.217-1.274.217zm6.552-.004c-.529 0-1-.135-1.415-.405s-.736-.661-.972-1.164-.349-1.112-.349-1.819.118-1.313.354-1.815.565-.888.98-1.155a2.55 2.55 0 0 1 1.41-.401c.407 0 .733.068.98.205s.444.289.58.468a4.05 4.05 0 0 1 .324.473h.077v-3.242h1.274v8.727h-1.245v-1.019h-.106c-.077.14-.188.299-.333.478s-.338.335-.588.468-.573.201-.971.201zm.281-1.087c.367 0 .676-.097.929-.29s.449-.467.58-.814.2-.75.2-1.21c0-.454-.065-.852-.196-1.193s-.323-.607-.575-.797-.566-.286-.938-.286c-.383 0-.703.1-.959.299s-.449.47-.579.814a3.31 3.31 0 0 0-.192 1.163c0 .438.065.831.196 1.18s.324.627.58.831.576.303.954.303z" class="C"/><path d="M267.805 210.512c-.639 0-1.193-.141-1.662-.422a2.87 2.87 0 0 1-1.091-1.181c-.255-.505-.383-1.096-.383-1.772s.128-1.269.383-1.777.623-.904 1.091-1.185 1.023-.422 1.662-.422 1.193.141 1.662.422.831.676 1.087 1.185.388 1.1.388 1.777-.13 1.267-.388 1.772-.618.9-1.087 1.181-1.023.422-1.662.422zm.009-1.236c.346 0 .636-.095.869-.286a1.72 1.72 0 0 0 .52-.775c.116-.324.175-.685.175-1.083s-.059-.762-.175-1.086a1.72 1.72 0 0 0-.52-.78c-.233-.193-.523-.29-.869-.29-.355 0-.651.097-.887.29a1.75 1.75 0 0 0-.524.78c-.113.324-.17.686-.17 1.086s.057.759.17 1.083.291.582.524.775.532.286.887.286zm7.172 1.236c-.653 0-1.214-.144-1.683-.431s-.826-.683-1.078-1.189-.375-1.093-.375-1.755.127-1.252.383-1.76a2.86 2.86 0 0 1 1.083-1.193c.468-.287 1.022-.431 1.661-.431.532 0 1.002.098 1.411.294a2.4 2.4 0 0 1 .984.823c.245.352.384.764.418 1.235h-1.474a1.41 1.41 0 0 0-.427-.788c-.221-.213-.518-.32-.89-.32-.316 0-.593.086-.831.256s-.425.409-.558.725-.196.693-.196 1.133c0 .446.065.83.196 1.151s.314.564.549.737.519.256.84.256c.227 0 .43-.043.609-.128a1.22 1.22 0 0 0 .456-.38c.122-.164.206-.365.252-.6h1.474c-.037.463-.173.873-.409 1.231a2.42 2.42 0 0 1-.963.835c-.406.199-.884.299-1.432.299zm6.806 0c-.654 0-1.215-.144-1.683-.431s-.826-.683-1.079-1.189-.375-1.093-.375-1.755.128-1.252.384-1.76.616-.909 1.082-1.193 1.023-.431 1.662-.431c.532 0 1.002.098 1.411.294a2.4 2.4 0 0 1 .984.823c.244.352.384.764.418 1.235h-1.475a1.4 1.4 0 0 0-.426-.788c-.221-.213-.518-.32-.89-.32-.316 0-.593.086-.831.256s-.425.409-.559.725-.196.693-.196 1.133c0 .446.066.83.196 1.151s.314.564.55.737.519.256.84.256c.227 0 .43-.043.609-.128a1.22 1.22 0 0 0 .456-.38c.122-.164.206-.365.251-.6h1.475c-.037.463-.174.873-.409 1.231a2.42 2.42 0 0 1-.963.835c-.407.199-.884.299-1.432.299zm8.122-2.881v-3.793h1.543v6.546h-1.496v-1.164h-.068a1.97 1.97 0 0 1-.729.9c-.335.233-.748.349-1.24.349-.429 0-.808-.095-1.138-.285a2 2 0 0 1-.767-.84c-.184-.369-.277-.815-.277-1.338v-4.168h1.543v3.929c0 .415.114.745.341.989s.526.366.895.366a1.41 1.41 0 0 0 .66-.166 1.35 1.35 0 0 0 .525-.494c.139-.222.208-.499.208-.831zm3.009 2.753v-6.546h1.496v1.091h.068c.119-.378.324-.669.614-.873s.626-.311 1.001-.311l.286.012a1.99 1.99 0 0 1 .268.03v1.419c-.065-.022-.169-.042-.311-.059s-.274-.03-.405-.03a1.56 1.56 0 0 0-.758.183c-.222.119-.397.285-.524.499a1.4 1.4 0 0 0-.192.737v3.848h-1.543zm7.266.128c-.656 0-1.223-.137-1.7-.409a2.77 2.77 0 0 1-1.095-1.168c-.256-.506-.384-1.101-.384-1.786 0-.673.128-1.264.384-1.772a2.89 2.89 0 0 1 1.082-1.193c.463-.287 1.007-.431 1.632-.431.404 0 .784.065 1.142.196s.679.327.955.597.497.613.656 1.031.239.909.239 1.483v.473h-5.365v-1.04h3.886a1.66 1.66 0 0 0-.192-.788c-.125-.233-.299-.416-.524-.55s-.48-.2-.775-.2c-.316 0-.593.077-.831.23a1.58 1.58 0 0 0-.559.597c-.13.244-.197.512-.2.805v.908c0 .38.07.707.209.98a1.49 1.49 0 0 0 .584.622c.25.142.542.213.878.213.224 0 .427-.031.609-.094a1.35 1.35 0 0 0 .473-.285 1.19 1.19 0 0 0 .302-.465l1.441.162a2.24 2.24 0 0 1-.52.997c-.253.282-.577.5-.972.657s-.846.23-1.355.23zm6.525-.013c-.514 0-.975-.132-1.381-.396s-.727-.648-.963-1.151-.354-1.114-.354-1.832c0-.728.12-1.341.358-1.841s.567-.882.976-1.138.865-.388 1.368-.388c.384 0 .699.065.946.196a1.79 1.79 0 0 1 .588.465c.145.179.257.348.337.507h.064v-3.264h1.547v8.727h-1.517v-1.031h-.094c-.08.159-.195.328-.345.507s-.35.326-.597.451-.558.188-.933.188zm.43-1.266c.327 0 .605-.088.835-.264s.405-.428.525-.746.179-.689.179-1.112-.06-.791-.179-1.104-.29-.555-.52-.728-.507-.26-.84-.26c-.344 0-.631.089-.861.268s-.403.426-.52.742a3.12 3.12 0 0 0-.174 1.082 3.21 3.21 0 0 0 .174 1.095c.12.318.295.57.525.754s.518.273.856.273z" fill="#00cc74"/><rect x="121.5" y="190.884" width="200" height="30" rx="3.5" class="D"/><rect x="330.5" y="190.884" width="168" height="30" rx="3.5" class="B"/><path d="M354.311 205.423l-3.708-1.373-1.384-4.538c-.053-.175-.216-.295-.398-.295a.42.42 0 0 0-.399.295l-1.384 4.538-3.708 1.373c-.164.061-.272.216-.272.391s.108.33.272.39l3.706 1.372 1.385 4.677c.052.176.215.298.4.298s.347-.122.399-.299l1.385-4.676 3.707-1.372c.163-.06.271-.216.271-.39s-.108-.33-.272-.391z" class="I"/><path d="M345.978 210.006l-.964-.356-.375-1.375c-.049-.182-.214-.308-.402-.308s-.352.126-.402.307l-.375 1.375-.963.357c-.164.06-.273.216-.273.391s.109.33.273.39l.958.356.378 1.509c.047.185.213.315.404.315s.358-.13.405-.315l.377-1.51.959-.355c.164-.06.272-.216.272-.39s-.108-.331-.272-.391zm-1.807-9.026l-.985-.365-.365-.985c-.061-.164-.217-.272-.391-.272s-.33.108-.391.272l-.365.985-.985.365c-.164.061-.272.217-.272.391s.108.33.272.391l.985.364.365.986a.42.42 0 0 0 .391.272.42.42 0 0 0 .391-.272l.364-.986.986-.364a.42.42 0 0 0 .272-.391.42.42 0 0 0-.272-.391z" class="N"/><path d="M367.207 204.495h-1.329c-.051-.285-.146-.535-.286-.75a2.08 2.08 0 0 0-.511-.55c-.202-.151-.428-.264-.678-.341s-.51-.115-.788-.115c-.503 0-.953.126-1.351.379s-.707.624-.937 1.112-.341 1.086-.341 1.79c0 .71.113 1.31.341 1.798s.544.858.941 1.108.846.375 1.343.375c.275 0 .537-.037.784-.11a2.25 2.25 0 0 0 .677-.337 2.06 2.06 0 0 0 .512-.541 2.04 2.04 0 0 0 .294-.742l1.329.005c-.071.429-.208.823-.413 1.184a3.27 3.27 0 0 1-.78.929c-.315.259-.676.459-1.082.601s-.85.213-1.33.213c-.755 0-1.429-.179-2.02-.537s-1.056-.876-1.397-1.547-.507-1.47-.507-2.399.17-1.731.511-2.399.807-1.185 1.398-1.543 1.262-.541 2.015-.541c.463 0 .895.067 1.296.2a3.42 3.42 0 0 1 1.086.58c.321.253.587.563.797.929s.353.78.426 1.249zm4.111 6.021c-.614 0-1.149-.141-1.607-.422a2.85 2.85 0 0 1-1.065-1.18c-.253-.506-.379-1.097-.379-1.773s.126-1.273.379-1.781.608-.904 1.065-1.185.993-.422 1.607-.422 1.149.141 1.606.422.813.676 1.066 1.185.379 1.102.379 1.781-.126 1.267-.379 1.773-.608.899-1.066 1.18-.993.422-1.606.422zm.004-1.07c.398 0 .727-.105.989-.315s.454-.49.579-.84a3.33 3.33 0 0 0 .192-1.154 3.32 3.32 0 0 0-.192-1.151c-.125-.352-.318-.635-.579-.848s-.591-.32-.989-.32-.733.107-.997.32a1.91 1.91 0 0 0-.584.848c-.125.349-.187.733-.187 1.151s.062.805.187 1.154.323.63.584.84.597.315.997.315zm4.349.938v-6.546h1.223v1.066h.081a1.7 1.7 0 0 1 .669-.844c.31-.205.681-.307 1.112-.307.438 0 .804.102 1.1.307s.518.486.66.844h.069a1.84 1.84 0 0 1 .745-.836c.341-.21.747-.315 1.219-.315.594 0 1.078.186 1.453.558s.567.934.567 1.684v4.389h-1.274v-4.27c0-.443-.121-.764-.362-.963s-.53-.298-.865-.298c-.415 0-.738.127-.968.383s-.345.578-.345.976v4.172h-1.27v-4.351c0-.355-.111-.641-.332-.857s-.51-.323-.865-.323c-.242 0-.465.063-.669.191s-.365.3-.49.524a1.6 1.6 0 0 0-.184.78v4.036h-1.274zm10.486 2.454v-9h1.244v1.061h.107a3.51 3.51 0 0 1 .319-.473 1.8 1.8 0 0 1 .58-.468c.247-.137.574-.205.98-.205.528 0 1 .134 1.415.401s.74.652.975 1.155.358 1.107.358 1.815-.118 1.314-.353 1.819-.56.891-.972 1.164-.882.405-1.41.405c-.398 0-.723-.067-.976-.201s-.446-.289-.588-.468a3.44 3.44 0 0 1-.328-.478h-.077v3.473h-1.274zm1.248-5.727c0 .46.067.864.201 1.21s.326.618.579.814.563.29.929.29c.381 0 .699-.101.955-.303s.448-.481.579-.831a3.27 3.27 0 0 0 .2-1.18c0-.432-.065-.82-.196-1.163s-.321-.615-.579-.814-.575-.299-.959-.299c-.369 0-.682.096-.937.286s-.445.456-.576.797-.196.739-.196 1.193zm7.312-5.454v8.727h-1.274v-8.727h1.274zm4.415 8.859c-.645 0-1.2-.138-1.666-.413s-.821-.669-1.074-1.172-.375-1.098-.375-1.777c0-.671.125-1.262.375-1.773s.605-.911 1.057-1.197.986-.431 1.594-.431c.369 0 .727.061 1.074.183s.657.314.933.576.493.6.652 1.018.238.919.238 1.513v.452h-5.203v-.955h3.955c0-.335-.068-.632-.205-.891a1.54 1.54 0 0 0-.575-.617c-.244-.151-.531-.226-.861-.226-.358 0-.67.088-.937.264a1.77 1.77 0 0 0-.614.682c-.142.278-.213.581-.213.907v.746c0 .438.077.81.23 1.117a1.67 1.67 0 0 0 .652.703c.279.159.604.238.976.238.242 0 .462-.034.661-.102s.37-.176.515-.315a1.37 1.37 0 0 0 .333-.516l1.206.217c-.097.356-.27.667-.52.934s-.559.47-.934.618-.796.217-1.274.217zm7.158-6.678v1.023h-3.576v-1.023h3.576zm-2.617-1.568h1.274v6.192c0 .247.037.433.111.558s.169.206.286.252.248.063.387.063c.103 0 .192-.007.269-.021l.179-.034.23 1.053c-.074.028-.179.056-.315.085s-.307.048-.512.051c-.335.006-.648-.054-.937-.179s-.524-.318-.703-.58-.269-.589-.269-.984v-6.456zm6.657 8.246c-.645 0-1.201-.138-1.666-.413a2.8 2.8 0 0 1-1.074-1.172c-.25-.506-.375-1.098-.375-1.777 0-.671.125-1.262.375-1.773s.605-.911 1.057-1.197.985-.431 1.593-.431c.37 0 .728.061 1.074.183s.658.314.933.576.493.6.652 1.018.239.919.239 1.513v.452h-5.203v-.955h3.954c0-.335-.068-.632-.204-.891s-.328-.467-.575-.617-.532-.226-.861-.226c-.358 0-.671.088-.938.264s-.468.4-.613.682-.213.581-.213.907v.746c0 .438.076.81.23 1.117s.373.541.652.703.603.238.976.238a2.03 2.03 0 0 0 .66-.102 1.43 1.43 0 0 0 .516-.315c.145-.139.255-.311.332-.516l1.206.217c-.097.356-.27.667-.52.934s-.558.47-.933.618-.797.217-1.274.217zm6.552-.004c-.528 0-1-.135-1.415-.405s-.736-.661-.971-1.164-.35-1.112-.35-1.819.118-1.313.354-1.815.565-.888.98-1.155a2.55 2.55 0 0 1 1.41-.401c.407 0 .733.068.981.205s.443.289.579.468a4.05 4.05 0 0 1 .324.473h.077v-3.242h1.274v8.727h-1.244v-1.019h-.107a3.34 3.34 0 0 1-.332.478c-.142.179-.338.335-.588.468s-.574.201-.972.201zm.281-1.087c.367 0 .676-.097.929-.29s.449-.467.58-.814.2-.75.2-1.21c0-.454-.065-.852-.196-1.193s-.322-.607-.575-.797-.566-.286-.938-.286c-.383 0-.703.1-.959.299a1.83 1.83 0 0 0-.579.814 3.31 3.31 0 0 0-.192 1.163c0 .438.065.831.196 1.18s.324.627.58.831.576.303.954.303zm7.716.959v-6.546h1.232v1.04h.068a1.58 1.58 0 0 1 .631-.831c.304-.204.647-.307 1.031-.307l.281.009.26.021v1.219a2.3 2.3 0 0 0-.273-.047c-.13-.02-.261-.03-.392-.03a1.66 1.66 0 0 0-.805.192c-.233.125-.418.3-.554.524s-.205.475-.205.759v3.997h-1.274zm7.072.132c-.645 0-1.2-.138-1.666-.413s-.821-.669-1.074-1.172-.375-1.098-.375-1.777c0-.671.125-1.262.375-1.773s.605-.911 1.057-1.197.986-.431 1.594-.431c.369 0 .727.061 1.074.183s.657.314.933.576.493.6.652 1.018.239.919.239 1.513v.452h-5.204v-.955h3.955c0-.335-.068-.632-.205-.891a1.54 1.54 0 0 0-.575-.617c-.244-.151-.531-.226-.861-.226-.358 0-.67.088-.937.264a1.77 1.77 0 0 0-.614.682c-.142.278-.213.581-.213.907v.746c0 .438.077.81.23 1.117s.374.541.652.703.604.238.976.238c.242 0 .462-.034.661-.102s.37-.176.515-.315a1.37 1.37 0 0 0 .333-.516l1.206.217c-.097.356-.27.667-.52.934s-.559.47-.934.618-.796.217-1.274.217zm6.847 2.459c-.52 0-.968-.068-1.343-.205s-.676-.317-.912-.541a2.27 2.27 0 0 1-.528-.737l1.095-.452c.077.125.179.257.307.396a1.61 1.61 0 0 0 .528.363c.225.099.513.149.865.149.483 0 .882-.118 1.198-.354s.473-.605.473-1.116v-1.287h-.081a2.91 2.91 0 0 1-.333.464c-.142.171-.338.318-.588.443s-.575.188-.975.188a2.73 2.73 0 0 1-1.398-.362c-.412-.245-.739-.604-.98-1.079s-.358-1.063-.358-1.76.118-1.292.353-1.789.566-.878.981-1.142.884-.401 1.41-.401c.406 0 .734.068.984.205s.445.289.584.468.252.337.328.473h.094v-1.061h1.249v6.691c0 .562-.131 1.024-.392 1.385a2.32 2.32 0 0 1-1.061.801c-.444.173-.944.26-1.5.26zm-.013-3.746c.366 0 .676-.085.929-.256s.449-.42.579-.741.201-.712.201-1.164c0-.44-.066-.828-.196-1.163s-.323-.596-.576-.784-.565-.286-.937-.286c-.384 0-.703.1-.959.299a1.8 1.8 0 0 0-.58.801c-.127.338-.191.716-.191 1.133 0 .429.065.806.196 1.13s.324.576.579.758.577.273.955.273zm4.555 1.155v-6.546h1.274v6.546h-1.274zm.643-7.556c-.222 0-.412-.073-.571-.221s-.234-.33-.234-.537.078-.389.234-.537a.8.8 0 0 1 .571-.226c.222 0 .41.075.567.226s.238.327.238.537-.079.386-.238.537-.345.221-.567.221zm7.13 2.608l-1.155.205a1.39 1.39 0 0 0-.23-.422 1.14 1.14 0 0 0-.418-.328c-.176-.085-.396-.128-.66-.128-.361 0-.662.081-.904.243s-.362.365-.362.618a.65.65 0 0 0 .243.528c.162.134.423.243.784.328l1.04.239c.602.139 1.051.354 1.346.643s.443.667.443 1.13c0 .392-.113.741-.34 1.048s-.539.543-.942.716-.865.26-1.394.26c-.733 0-1.331-.156-1.794-.469a1.98 1.98 0 0 1-.852-1.342l1.232-.188c.076.321.234.564.473.729s.549.243.933.243c.417 0 .751-.087 1.001-.26s.375-.391.375-.644c0-.204-.076-.376-.23-.515s-.382-.244-.695-.315l-1.107-.243c-.611-.14-1.063-.361-1.356-.665s-.434-.689-.434-1.155a1.65 1.65 0 0 1 .324-1.014c.216-.29.514-.516.895-.678s.816-.247 1.308-.247c.707 0 1.264.154 1.67.46s.675.712.806 1.223zm4.464-1.598v1.023h-3.576v-1.023h3.576zm-2.617-1.568h1.274v6.192c0 .247.037.433.111.558s.169.206.286.252.248.063.388.063a1.51 1.51 0 0 0 .268-.021l.179-.034.23 1.053c-.074.028-.179.056-.315.085s-.307.048-.512.051c-.335.006-.647-.054-.937-.179s-.524-.318-.703-.58-.269-.589-.269-.984v-6.456zm3.906 8.114v-6.546h1.232v1.04h.068a1.58 1.58 0 0 1 .631-.831c.304-.204.647-.307 1.031-.307l.281.009.26.021v1.219a2.3 2.3 0 0 0-.273-.047c-.13-.02-.261-.03-.392-.03a1.66 1.66 0 0 0-.805.192c-.233.125-.418.3-.554.524s-.205.475-.205.759v3.997h-1.274zm6.332.145c-.415 0-.79-.077-1.125-.23s-.601-.383-.797-.678-.29-.658-.29-1.087c0-.369.071-.673.213-.912a1.57 1.57 0 0 1 .576-.566c.241-.14.511-.245.809-.316s.603-.125.912-.162l.955-.11c.244-.032.422-.081.532-.15s.167-.179.167-.332v-.03c0-.372-.105-.66-.316-.865s-.517-.307-.929-.307c-.429 0-.767.096-1.014.286s-.413.396-.507.626l-1.197-.272c.142-.398.349-.719.622-.964s.592-.426.95-.536.734-.171 1.129-.171c.262 0 .539.031.831.094s.571.17.827.332.47.394.635.695.247.686.247 1.163v4.347h-1.244v-.895h-.051c-.083.165-.206.327-.371.486s-.377.291-.635.396-.568.158-.929.158zm.277-1.023c.352 0 .653-.07.903-.209s.445-.321.576-.545a1.42 1.42 0 0 0 .2-.729v-.844c-.046.046-.134.088-.264.128s-.274.07-.439.098l-.482.073-.392.051c-.247.031-.473.083-.677.157s-.364.181-.486.32-.179.318-.179.545c0 .316.116.554.349.716s.53.239.891.239zm7.586-5.668v1.023h-3.576v-1.023h3.576zm-2.617-1.568h1.274v6.192c0 .247.037.433.111.558s.169.206.285.252.249.063.388.063c.103 0 .192-.007.269-.021l.179-.034.23 1.053c-.074.028-.179.056-.316.085s-.306.048-.511.051c-.335.006-.648-.054-.937-.179a1.6 1.6 0 0 1-.703-.58c-.179-.261-.269-.589-.269-.984v-6.456zm3.906 8.114v-6.546h1.274v6.546h-1.274zm.643-7.556a.81.81 0 0 1-.571-.221c-.156-.151-.234-.33-.234-.537s.078-.389.234-.537a.8.8 0 0 1 .571-.226c.222 0 .411.075.567.226s.239.327.239.537-.08.386-.239.537-.345.221-.567.221zm4.982 7.688c-.613 0-1.149-.141-1.606-.422s-.813-.675-1.066-1.18-.379-1.097-.379-1.773.127-1.273.379-1.781.608-.904 1.066-1.185.993-.422 1.606-.422 1.15.141 1.607.422.812.676 1.065 1.185.379 1.102.379 1.781-.126 1.267-.379 1.773a2.85 2.85 0 0 1-1.065 1.18c-.457.281-.993.422-1.607.422zm.005-1.07c.397 0 .727-.105.988-.315a1.84 1.84 0 0 0 .58-.84 3.33 3.33 0 0 0 .192-1.154 3.32 3.32 0 0 0-.192-1.151c-.125-.352-.318-.635-.58-.848s-.591-.32-.988-.32-.733.107-.998.32a1.9 1.9 0 0 0-.583.848c-.125.349-.188.733-.188 1.151s.063.805.188 1.154a1.87 1.87 0 0 0 .583.84c.265.21.597.315.998.315zm5.623-2.949v3.887h-1.274v-6.546h1.223v1.066h.081a1.87 1.87 0 0 1 .707-.836c.324-.21.732-.315 1.223-.315.446 0 .837.094 1.172.281a1.89 1.89 0 0 1 .78.827c.184.367.277.82.277 1.359v4.164h-1.274v-4.01c0-.475-.124-.845-.371-1.112s-.587-.405-1.019-.405c-.295 0-.558.064-.788.192a1.37 1.37 0 0 0-.541.562c-.131.244-.196.54-.196.886z" class="C"/><rect x="330.5" y="190.884" width="168" height="30" rx="3.5" class="D"/><rect x="122.591" y="234.5" width="136" height="30" rx="3.5" class="B"/><g clip-path="url(#C)"><path d="M146.925 248.783c-1.076-1.567-3.3.74-7.36 1.208-1.503.174-2.857 1.429-4.603 1.309-.715-.049-1.715-2.109-2.463-1.78-.385.169-.562.733-.166 1.158l4.395 5.244s.223.257.976.079c.185.055 2.973-1.063 4.584-3.299.386-.535.846-.981 1.322-1.354 1.547-1.143 3.227-1.541 3.227-1.541.215-.178.266-.366.254-.53.014-.274-.166-.494-.166-.494z" class="E"/><path d="M136.872 246.281c-1.576 2.187-4.336 3.224-4.336 3.224-.515.436-.08.95-.08.95l4.349 5.15s.217.257.95.078c0 0 2.76-1.034 4.336-3.221 1.625-2.255 4.554-2.966 4.554-2.966.515-.436.08-.951.08-.951l-4.349-5.149s-.217-.258-.95-.08c0 0-2.929.71-4.554 2.965z" fill="#a7d28b"/><path d="M141.257 250.125a2.29 2.29 0 1 0 0-4.583 2.29 2.29 0 1 0 0 4.583z" class="M"/><path d="M137.455 255.304c-.367 0-.502-.137-.52-.158l-3.921-4.576c-.007-.009-.206-.236-.182-.525.015-.176.106-.332.27-.465l.026-.016c.025-.01 2.568-1.055 3.993-2.943l.083.062-.083-.062c1.507-1.999 4.108-2.856 4.134-2.865.727-.169.965.073.99.101l3.869 4.602c.007.007.205.236.181.525-.015.175-.105.332-.27.464l-.041.021c-.025.006-2.554.634-4.018 2.575-1.458 1.934-4.003 3.184-4.028 3.197-.194.045-.353.063-.483.063zm-.363-.295s.188.174.777.037c.003-.005 2.504-1.234 3.931-3.127 1.433-1.898 3.844-2.576 4.112-2.646.107-.092.166-.194.176-.304.017-.2-.13-.372-.132-.373l-3.868-4.603c-.001 0-.188-.172-.777-.036-.017.006-2.556.844-4.023 2.789-1.403 1.859-3.85 2.915-4.066 3.005-.112.094-.173.199-.182.311-.017.198.13.369.131.371l3.921 4.576z" class="E"/><path d="M140.956 251.236l-.003 2.475.207.246c.404-.369.792-.783 1.127-1.249.348-.482.752-.895 1.179-1.244l-.202-.239-2.308.011z" class="I"/><path d="M143.257 251.216l-5.211-6.172a6.63 6.63 0 0 0-1.176 1.235c-.338.469-.731.882-1.14 1.246l.61.721-.001.001 4.615 5.464c.408-.365.797-.782 1.135-1.251.346-.48.752-.886 1.175-1.234l-.008-.01h.001z" fill="#ffe8b6"/><path d="M138.124 251.398c-.649-.769-2.022.478-2.414.014-.189-.224-.067-.515.182-.725.419-.355.721-.148.91-.309.135-.113.128-.252.048-.347-.186-.22-.661-.105-1.03.108l-.18-.212c-.112-.133-.31-.15-.443-.038s-.149.31-.037.443l.186.22c-.282.374-.378.871-.044 1.265.623.738 2.014-.488 2.451.03.152.18.109.524-.21.793-.478.404-.912.215-1.106.379-.095.08-.112.231-.011.352.161.19.675.149 1.169-.158l.204.242c.112.133.31.149.443.038s.149-.311.037-.444l-.203-.24c.325-.414.438-.951.048-1.411z" class="E"/><path d="M145.614 255.578c.04-.037.063-.069.088-.101l.053-.064.04-.063c.592-.912.204-2.457-.967-3.628s-2.717-1.56-3.628-.967a.62.62 0 0 0-.064.04c-.022.016-.043.035-.064.052l-.092.076c-.014.017-.019.019-.024.024l.002.003c-.416.442-.421 1.127-.002 1.546s1.104.414 1.547-.002l.004.005c-.008.008-.018.013-.026.022-.442.441-.452 1.145-.025 1.573s1.132.416 1.573-.025c.008-.008.014-.018.022-.027l.005.005c-.417.443-.422 1.128-.002 1.548s1.103.414 1.546-.003l.002.003c.005-.006.008-.012.012-.017z" fill="#e1e8ed"/><path d="M140.956 252.513c.377.377.967.408 1.404.109.183-.313.235-.61.235-.703-.919.686-1.74.004-1.924-.404a1.08 1.08 0 0 0 .285.998zm3.041 1.6c.124-.175.221-.343.266-.457-.586.536-1.705.143-2.044-.708-.149.396-.073.852.238 1.163.417.417 1.097.414 1.54.002zm1.606 1.498l.012-.015c.04-.038.063-.07.087-.101l.053-.065c.015-.02.028-.042.041-.063.027-.042.042-.091.064-.135-1.053.471-1.839-.329-2.06-.727-.122.382-.042.81.254 1.107.419.419 1.104.414 1.546-.003l.003.002z" class="K"/><path d="M137.906 247.208l.012-.01c.029-.028.051-.06.075-.091l.053-.065.041-.063c.591-.911.203-2.457-.968-3.628s-2.716-1.56-3.628-.968l-.063.04-.065.053-.092.076c-.013.016-.019.019-.024.024l.002.002c-.416.443-.421 1.127-.002 1.547s1.104.414 1.547-.002l.004.004c-.008.008-.018.014-.026.022-.442.442-.452 1.145-.024 1.573s1.131.417 1.572-.024c.009-.008.014-.018.023-.027l.004.005c-.417.442-.422 1.127-.002 1.547s1.104.414 1.546-.003l.002.003z" fill="#e1e8ed"/><path d="M133.246 244.125c.377.378.967.409 1.404.109.183-.313.235-.61.235-.703-.919.686-1.74.003-1.924-.405-.076.353.017.73.285.999zm3.042 1.599c.124-.174.22-.342.265-.456-.586.536-1.705.143-2.044-.708-.149.396-.073.851.237 1.162.419.418 1.099.414 1.542.002zm1.605 1.499l.024-.024c.028-.028.051-.061.075-.092l.053-.064c.015-.021.027-.042.04-.064.028-.041.042-.091.065-.135-1.053.471-1.84-.328-2.06-.727-.123.382-.043.81.254 1.107.419.42 1.104.415 1.546-.003l.003.002z" class="K"/></g><path d="M152.05 254v-8.727h3.11c.679 0 1.242.123 1.688.37a2.41 2.41 0 0 1 1.001 1.015c.222.426.333.906.333 1.44s-.112 1.02-.337 1.449-.557.764-1.006 1.014-1.007.371-1.683.371h-2.139v-1.117h2.02c.429 0 .777-.074 1.044-.221s.463-.355.588-.614.187-.552.187-.882-.062-.622-.187-.878-.322-.456-.592-.601-.62-.217-1.057-.217h-1.654V254h-1.316zm9.299.145c-.414 0-.789-.077-1.125-.23s-.6-.382-.797-.678-.289-.657-.289-1.086c0-.37.071-.674.213-.912a1.57 1.57 0 0 1 .575-.567 3.01 3.01 0 0 1 .81-.315c.298-.071.602-.125.912-.162l.954-.111c.245-.031.422-.081.533-.149s.166-.179.166-.333v-.03c0-.372-.105-.66-.315-.865s-.517-.306-.929-.306c-.429 0-.767.095-1.014.285s-.414.396-.508.626l-1.197-.272c.142-.398.349-.719.622-.963a2.53 2.53 0 0 1 .95-.537c.358-.114.735-.171 1.13-.171.261 0 .538.032.831.094a2.45 2.45 0 0 1 .826.332c.259.162.471.394.635.695s.247.686.247 1.163V254h-1.244v-.895h-.051c-.082.165-.206.327-.371.486s-.376.291-.635.396-.568.158-.929.158zm.277-1.023c.353 0 .654-.069.904-.209s.444-.321.575-.545a1.41 1.41 0 0 0 .2-.729v-.844c-.045.046-.133.089-.264.128s-.274.07-.439.098l-.481.073-.392.051c-.248.031-.473.084-.678.158s-.364.18-.486.319-.179.318-.179.546c0 .315.117.554.35.716s.53.238.89.238zm4.531.878v-6.545h1.274V254h-1.274zm.643-7.555a.81.81 0 0 1-.571-.222c-.156-.151-.234-.33-.234-.537s.078-.389.234-.537.349-.226.571-.226a.79.79 0 0 1 .567.226c.159.148.238.327.238.537s-.079.386-.238.537-.345.222-.567.222zm4.675 7.683c-.528 0-1-.135-1.415-.405s-.735-.661-.971-1.163-.35-1.113-.35-1.82.118-1.312.354-1.815.565-.888.98-1.155a2.55 2.55 0 0 1 1.411-.401c.406 0 .733.069.98.205s.443.29.579.469.247.336.324.473h.077v-3.243h1.274V254h-1.244v-1.018h-.107c-.077.139-.187.298-.332.477s-.338.335-.588.469-.574.2-.972.2zm.281-1.087c.367 0 .677-.096.929-.29s.449-.467.58-.813.2-.751.2-1.211c0-.454-.065-.852-.196-1.193s-.322-.606-.575-.797-.565-.285-.938-.285c-.383 0-.703.099-.958.298s-.449.47-.58.814-.192.731-.192 1.163a3.37 3.37 0 0 0 .196 1.181c.131.349.324.626.58.831s.577.302.954.302zm12.621-3.988l-1.155.204c-.048-.148-.125-.288-.23-.422s-.241-.243-.417-.328-.397-.128-.661-.128c-.361 0-.662.081-.903.243s-.363.365-.363.618a.65.65 0 0 0 .243.528c.162.134.424.243.784.329l1.04.238c.603.139 1.051.354 1.347.644s.443.666.443 1.129c0 .392-.114.741-.341 1.048s-.538.543-.942.716-.865.26-1.393.26c-.733 0-1.331-.156-1.794-.469s-.747-.762-.852-1.342l1.231-.187c.077.321.234.563.473.728s.55.243.933.243c.418 0 .752-.087 1.002-.26s.375-.39.375-.643a.67.67 0 0 0-.23-.516c-.151-.139-.382-.244-.695-.315l-1.108-.243c-.611-.139-1.062-.361-1.355-.665s-.435-.689-.435-1.155a1.65 1.65 0 0 1 .324-1.014c.216-.29.514-.516.895-.678s.817-.247 1.308-.247c.708 0 1.265.154 1.671.461s.675.711.805 1.223zm5.555 2.233v-3.831h1.279V254h-1.253v-1.134h-.068a2.04 2.04 0 0 1-.725.874c-.329.23-.74.345-1.231.345-.421 0-.793-.092-1.117-.277s-.574-.464-.758-.831-.273-.819-.273-1.359v-4.163h1.274v4.009c0 .447.124.802.371 1.066s.568.396.963.396c.239 0 .476-.06.712-.179a1.5 1.5 0 0 0 .592-.541c.159-.242.237-.548.234-.92zm2.973 2.714v-8.727h1.274v3.243h.077c.074-.137.18-.294.319-.473s.333-.336.58-.469.574-.205.98-.205c.528 0 1 .134 1.415.401s.74.652.976 1.155.358 1.108.358 1.815-.118 1.314-.354 1.82-.56.89-.972 1.163-.882.405-1.41.405c-.398 0-.723-.067-.976-.2s-.446-.29-.588-.469a3.5 3.5 0 0 1-.328-.477h-.107V254h-1.244zm1.249-3.273c0 .46.066.864.2 1.211s.327.617.579.813.563.29.929.29c.381 0 .699-.101.955-.302s.449-.482.579-.831a3.28 3.28 0 0 0 .201-1.181c0-.432-.066-.819-.196-1.163s-.321-.615-.58-.814-.575-.298-.959-.298c-.369 0-.681.095-.937.285a1.75 1.75 0 0 0-.575.797c-.131.341-.196.739-.196 1.193zm10.945-1.674l-1.155.204c-.048-.148-.125-.288-.23-.422s-.241-.243-.417-.328-.397-.128-.661-.128c-.361 0-.662.081-.903.243s-.362.365-.362.618c0 .219.08.395.242.528s.424.243.785.329l1.039.238c.603.139 1.051.354 1.347.644s.443.666.443 1.129c0 .392-.114.741-.341 1.048s-.538.543-.942.716-.865.26-1.393.26c-.733 0-1.331-.156-1.794-.469s-.747-.762-.852-1.342l1.231-.187c.077.321.235.563.473.728s.55.243.933.243c.418 0 .752-.087 1.002-.26s.375-.39.375-.643a.67.67 0 0 0-.23-.516c-.151-.139-.382-.244-.695-.315l-1.108-.243c-.611-.139-1.062-.361-1.355-.665s-.435-.689-.435-1.155a1.65 1.65 0 0 1 .324-1.014c.216-.29.514-.516.895-.678s.817-.247 1.308-.247c.708 0 1.265.154 1.671.461s.675.711.805 1.223zm4.166 5.079c-.633 0-1.179-.143-1.636-.43s-.804-.689-1.049-1.198-.366-1.091-.366-1.747c0-.665.125-1.251.375-1.76a2.87 2.87 0 0 1 1.057-1.197c.454-.287.99-.431 1.606-.431.497 0 .941.093 1.33.277s.703.438.942.767a2.32 2.32 0 0 1 .43 1.155h-1.24c-.068-.307-.224-.571-.469-.792s-.565-.333-.971-.333c-.356 0-.667.094-.934.281s-.47.449-.618.793-.221.744-.221 1.21c0 .478.072.889.217 1.236s.35.615.614.805.581.286.942.286c.241 0 .46-.044.656-.132a1.33 1.33 0 0 0 .498-.388c.137-.168.232-.369.286-.605h1.24c-.045.423-.183.801-.413 1.133s-.539.594-.925.785-.834.285-1.351.285zm3.932-.132v-6.545h1.231v1.039h.068a1.59 1.59 0 0 1 .631-.831 1.81 1.81 0 0 1 1.031-.306l.281.008.26.021v1.219c-.051-.014-.142-.03-.272-.047s-.262-.03-.392-.03c-.301 0-.57.064-.806.192a1.43 1.43 0 0 0-.554.524c-.136.222-.204.475-.204.759V254h-1.274zm4.485 0v-6.545h1.274V254h-1.274zm.644-7.555a.81.81 0 0 1-.572-.222c-.156-.151-.234-.33-.234-.537s.078-.389.234-.537.35-.226.572-.226a.79.79 0 0 1 .566.226c.159.148.239.327.239.537s-.08.386-.239.537-.345.222-.566.222zm2.224 10.01v-9h1.245v1.061h.106c.074-.137.181-.294.32-.473s.332-.336.579-.469.574-.205.98-.205c.529 0 1 .134 1.415.401s.74.652.976 1.155.358 1.108.358 1.815-.118 1.314-.354 1.82-.559.89-.971 1.163-.882.405-1.411.405c-.398 0-.723-.067-.976-.2s-.446-.29-.588-.469-.251-.338-.328-.477h-.077v3.473h-1.274zm1.249-5.728c0 .46.067.864.2 1.211s.327.617.58.813.562.29.929.29c.38 0 .699-.101.954-.302s.449-.482.58-.831.2-.743.2-1.181c0-.432-.065-.819-.196-1.163s-.321-.615-.579-.814-.576-.298-.959-.298c-.37 0-.682.095-.938.285s-.444.456-.575.797-.196.739-.196 1.193zm9.093-3.272v1.022h-3.575v-1.022h3.575zm-2.617-1.569h1.275v6.192c0 .247.037.433.11.558s.169.206.286.252a1.16 1.16 0 0 0 .388.064c.102 0 .191-.007.268-.022l.179-.034.23 1.053a2.16 2.16 0 0 1-.315.085c-.136.031-.307.048-.511.051a2.24 2.24 0 0 1-.938-.179 1.61 1.61 0 0 1-.703-.579c-.179-.262-.269-.59-.269-.985v-6.456zm3.906 8.114v-6.545h1.275V254h-1.275zm.644-7.555a.81.81 0 0 1-.571-.222c-.156-.151-.235-.33-.235-.537s.079-.389.235-.537.349-.226.571-.226a.79.79 0 0 1 .567.226c.159.148.238.327.238.537s-.079.386-.238.537-.346.222-.567.222zm4.982 7.687c-.614 0-1.149-.141-1.607-.422s-.812-.674-1.065-1.18-.379-1.097-.379-1.773.126-1.273.379-1.781.608-.904 1.065-1.185.993-.422 1.607-.422 1.149.141 1.606.422.813.676 1.066 1.185.379 1.102.379 1.781-.126 1.267-.379 1.773-.608.899-1.066 1.18-.993.422-1.606.422zm.004-1.07c.398 0 .727-.105.989-.315s.454-.49.579-.839a3.34 3.34 0 0 0 .192-1.155c0-.418-.064-.801-.192-1.151s-.318-.635-.579-.848-.591-.319-.989-.319-.733.106-.997.319a1.91 1.91 0 0 0-.584.848c-.125.35-.187.733-.187 1.151s.062.805.187 1.155a1.88 1.88 0 0 0 .584.839c.264.21.596.315.997.315zm5.623-2.948V254h-1.274v-6.545h1.223v1.065h.081a1.87 1.87 0 0 1 .708-.835c.323-.211.731-.316 1.223-.316.446 0 .836.094 1.171.282a1.87 1.87 0 0 1 .78.826c.185.367.277.82.277 1.36V254h-1.274v-4.01c0-.474-.123-.845-.371-1.112s-.586-.405-1.018-.405a1.59 1.59 0 0 0-.788.192 1.38 1.38 0 0 0-.542.562c-.13.245-.196.54-.196.887z" class="C"/><rect x="122.591" y="234.5" width="136" height="30" rx="3.5" class="D"/><rect x="269.5" y="234.5" width="97" height="30" rx="3.5" class="B"/><g clip-path="url(#D)"><path d="M291.027 244.973c3.067 3.066 3.896 7.21 1.851 9.253s-6.187 1.216-9.254-1.85l-.298-.319 1.84-1.841c2.385 2.385 5.423 3.214 6.786 1.851s.534-4.401-1.85-6.786l.009.009-.009-.01c-2.725-2.725-6.455-3.416-8.328-1.542-.907.906-1.207 2.247-.975 3.697-.357-1.701-.062-3.277.975-4.314 2.044-2.044 6.187-1.215 9.253 1.852z" fill="#fdd888"/><path d="M287.085 256.167c-.105 0-.21-.032-.3-.096l-2.115-1.517-2.115 1.517a.51.51 0 0 1-.601-.002c-.179-.13-.255-.36-.188-.571l.789-2.546-2.096-1.477c-.178-.131-.252-.362-.184-.573s.264-.353.485-.354l2.562-.005.861-2.482c.07-.21.266-.352.487-.352s.418.142.488.352l.777 2.482 2.645.005a.51.51 0 0 1 .485.354.51.51 0 0 1-.184.573l-2.096 1.477.789 2.546c.067.211-.009.441-.187.571a.52.52 0 0 1-.302.098z" class="I"/></g><path d="M298.839 254v-.955l2.954-3.059.779-.874c.208-.253.363-.493.465-.72a1.75 1.75 0 0 0 .153-.724c0-.29-.068-.54-.204-.75a1.34 1.34 0 0 0-.558-.49 1.77 1.77 0 0 0-.797-.175c-.313 0-.586.064-.819.192a1.31 1.31 0 0 0-.536.541c-.125.233-.188.505-.188.818h-1.257c0-.531.122-.996.366-1.393s.58-.706 1.006-.925.911-.333 1.453-.333c.549 0 1.032.11 1.449.329s.749.511.984.886.354.793.354 1.261c0 .324-.061.641-.183.951s-.328.654-.626 1.035-.714.837-1.245 1.376l-1.734 1.816v.064h3.929V254h-5.745zm10.121.119a3.28 3.28 0 0 1-1.441-.307c-.423-.207-.761-.491-1.014-.852s-.388-.772-.405-1.236h1.279c.031.375.197.684.498.925s.662.362 1.083.362c.335 0 .632-.076.89-.23s.466-.37.614-.643.226-.584.226-.933c0-.356-.077-.672-.23-.951a1.71 1.71 0 0 0-.635-.656c-.267-.159-.574-.24-.921-.243-.264 0-.53.046-.797.136s-.483.211-.647.358l-1.206-.179.49-4.397h4.798v1.129h-3.703l-.277 2.442h.051c.17-.165.396-.303.678-.414a2.5 2.5 0 0 1 .911-.166c.532 0 1.005.127 1.419.379s.746.598.985 1.036.361.935.358 1.5c.003.565-.125 1.07-.384 1.513s-.611.792-1.065 1.048-.97.379-1.555.379zm5.629-2.339l-.008-1.556h.221l2.608-2.769h1.526l-2.975 3.153h-.2l-1.172 1.172zm-1.172 2.22v-8.727h1.274V254h-1.274zm4.134 0l-2.344-3.111.878-.89 3.03 4.001h-1.564zm4.546-.554v-5.761h1.146v5.761h-1.146zm-2.305-2.31v-1.146h5.761v1.146h-5.761zm10.77-5.863h1.598l2.778 6.784h.103l2.778-6.784h1.598V254h-1.253v-6.315h-.081l-2.574 6.302h-1.039l-2.574-6.307h-.081V254h-1.253v-8.727zm10.219 1.133v-1.133h6.754v1.133h-2.723V254H343.5v-7.594h-2.719zm13.739-1.133h1.321v5.74c0 .611-.143 1.152-.43 1.623s-.691.838-1.211 1.108-1.129.401-1.828.401-1.304-.134-1.824-.401-.923-.639-1.21-1.108-.43-1.012-.43-1.623v-5.74h1.317v5.633c0 .395.086.746.26 1.053a1.88 1.88 0 0 0 .745.724c.321.174.702.26 1.142.26s.826-.086 1.147-.26.571-.417.741-.724.26-.658.26-1.053v-5.633z" class="C"/><rect x="269.5" y="234.5" width="97" height="30" rx="3.5" class="D"/><rect x="-1" y="1" width="419" height="153" rx="7" transform="matrix(-1 0 0 1 515 124.384)" stroke="#e1e8f2" stroke-width="2" class="O"/><g transform="matrix(-1 0 0 1 543 365.034)"><rect x="-2" y="2" width="442" height="142" rx="6" fill="#121212"/><rect x="-2" y="2" width="442" height="142" rx="6" class="F G"/></g><g class="J"><rect x="-2" y="2" width="447" height="141" rx="6" transform="matrix(-1 0 0 1 531 353.034)"/><rect x="-1" y="1" width="421" height="114" rx="7" transform="matrix(-1 0 0 1 519 366.034)"/></g><rect x="116.5" y="431.534" width="223" height="30" rx="3.5" class="B"/><g clip-path="url(#E)"><path d="M141 446.534a7.5 7.5 0 1 1-15 0 7.5 7.5 0 1 1 15 0z" class="L"/><g fill="#5b6876"><use xlink:href="#K"/><path d="M136.208 452.367a1.46 1.46 0 0 0 1.459-1.458 1.46 1.46 0 0 0-1.459-1.458 1.46 1.46 0 0 0-1.458 1.458 1.46 1.46 0 0 0 1.458 1.458zm-1.042-10.416c.461 0 .834-.373.834-.833s-.373-.834-.834-.834-.833.373-.833.834.373.833.833.833zm-7.916 5c.23 0 .416-.187.416-.417s-.186-.416-.416-.416-.417.186-.417.416.187.417.417.417zm11.25-3.75c.23 0 .416-.187.416-.417s-.186-.416-.416-.416-.417.186-.417.416.187.417.417.417zm-5.833 9.167c.23 0 .416-.187.416-.417s-.186-.417-.416-.417-.417.187-.417.417.187.417.417.417zm6.666-4.584c.461 0 .834-.373.834-.833s-.373-.833-.834-.833-.833.373-.833.833.373.833.833.833zm-10.834 2.917c.461 0 .834-.373.834-.833s-.373-.834-.834-.834-.833.373-.833.834.373.833.833.833z"/></g><path d="M133.5 449.411c-2.917 0-3.75-1.091-3.75-.576s1.667 1.866 3.75 1.866 3.75-1.349 3.75-1.866-.833.576-3.75.576zm3.75-4.127a1.25 1.25 0 1 1-2.5 0 1.25 1.25 0 1 1 2.5 0zm-5 0a1.25 1.25 0 1 1-2.5 0 1.25 1.25 0 1 1 2.5 0z" fill="#292f33"/></g><path d="M153.54 446.671c0 .931-.171 1.732-.512 2.403s-.808 1.182-1.402 1.543-1.262.536-2.015.536-1.431-.178-2.024-.536-1.057-.877-1.398-1.547-.511-1.47-.511-2.399.17-1.732.511-2.4.807-1.184 1.398-1.542 1.268-.541 2.024-.541 1.425.18 2.015.541 1.062.872 1.402 1.542.512 1.468.512 2.4zm-1.304 0c0-.711-.115-1.309-.345-1.794s-.54-.858-.938-1.108-.842-.38-1.342-.38-.952.127-1.347.38-.707.619-.937 1.108-.341 1.083-.341 1.794.113 1.309.341 1.798.542.855.937 1.108.844.375 1.347.375.947-.125 1.342-.375.71-.622.938-1.108.345-1.088.345-1.798zm2.723 6.818v-9h1.245v1.061h.106c.074-.137.18-.294.32-.473s.332-.335.579-.469.574-.205.98-.205c.529 0 1 .134 1.415.401s.74.652.976 1.155.358 1.108.358 1.815-.118 1.314-.354 1.82-.559.89-.971 1.163-.883.405-1.411.405c-.398 0-.723-.067-.976-.2s-.446-.29-.588-.469-.251-.338-.328-.477h-.077v3.473h-1.274zm1.249-5.728a3.37 3.37 0 0 0 .2 1.211c.134.346.327.618.58.814s.562.289.929.289c.38 0 .698-.1.954-.302s.449-.482.58-.831.2-.743.2-1.181a3.25 3.25 0 0 0-.196-1.163c-.128-.344-.321-.615-.58-.814s-.575-.298-.958-.298c-.37 0-.682.095-.938.285a1.75 1.75 0 0 0-.575.797c-.131.341-.196.739-.196 1.193zm8.858 3.405c-.644 0-1.2-.138-1.666-.413s-.821-.669-1.074-1.172-.375-1.098-.375-1.777c0-.67.125-1.261.375-1.773a2.92 2.92 0 0 1 1.057-1.197c.455-.287.986-.431 1.594-.431.369 0 .727.062 1.074.184s.658.314.933.575.493.601.652 1.018.239.92.239 1.513v.452h-5.203v-.955h3.954c0-.335-.068-.632-.204-.89s-.329-.468-.576-.618-.531-.226-.861-.226c-.357 0-.67.088-.937.264s-.469.401-.614.682-.213.581-.213.908v.745c0 .438.077.81.23 1.117a1.67 1.67 0 0 0 .652.703c.279.159.604.239.976.239.242 0 .462-.034.661-.103s.37-.176.515-.315a1.37 1.37 0 0 0 .333-.516l1.206.218a2.19 2.19 0 0 1-.52.933c-.247.264-.558.47-.933.618s-.797.217-1.275.217zm5.377-4.018v3.886h-1.275v-6.545h1.223v1.065h.081a1.87 1.87 0 0 1 .708-.835c.324-.21.731-.316 1.223-.316.446 0 .836.094 1.172.282s.595.46.779.826.277.82.277 1.36v4.163h-1.274v-4.01c0-.474-.123-.845-.37-1.112s-.587-.405-1.019-.405c-.295 0-.558.064-.788.192a1.37 1.37 0 0 0-.541.562c-.131.245-.196.54-.196.887zm8.598 4.018c-.645 0-1.2-.138-1.666-.413s-.821-.669-1.074-1.172-.375-1.098-.375-1.777c0-.67.125-1.261.375-1.773s.605-.91 1.057-1.197.986-.431 1.594-.431c.369 0 .727.062 1.074.184a2.61 2.61 0 0 1 .933.575c.275.261.493.601.652 1.018s.239.92.239 1.513v.452h-5.204v-.955h3.955a1.87 1.87 0 0 0-.205-.89c-.136-.262-.328-.468-.575-.618s-.531-.226-.861-.226c-.358 0-.67.088-.937.264s-.469.401-.614.682-.213.581-.213.908v.745c0 .438.077.81.23 1.117a1.67 1.67 0 0 0 .652.703c.279.159.604.239.976.239.242 0 .462-.034.661-.103s.37-.176.515-.315a1.37 1.37 0 0 0 .333-.516l1.206.218a2.19 2.19 0 0 1-.52.933c-.247.264-.559.47-.934.618s-.796.217-1.274.217zm6.553-.004c-.529 0-1-.135-1.415-.405s-.736-.66-.972-1.163-.349-1.112-.349-1.82.118-1.312.353-1.815.566-.888.981-1.155.884-.401 1.41-.401c.406 0 .733.069.98.205s.443.29.58.469a3.97 3.97 0 0 1 .324.473h.076v-3.243h1.274v8.727h-1.244v-1.018h-.106a3.41 3.41 0 0 1-.333.477c-.142.179-.338.335-.588.469s-.574.2-.971.2zm.281-1.087c.366 0 .676-.096.929-.289s.449-.468.579-.814.201-.75.201-1.211c0-.454-.066-.852-.196-1.193s-.323-.606-.576-.797-.565-.285-.937-.285c-.384 0-.703.099-.959.298s-.449.47-.58.814-.191.732-.191 1.163c0 .438.065.831.196 1.181s.324.626.579.831.577.302.955.302zm8.555.959h-1.397l3.14-8.727h1.521l3.141 8.727h-1.398l-2.467-7.142h-.068l-2.472 7.142zm.235-3.417h4.534v1.108h-4.534v-1.108zm7.208 5.872v-9h1.244v1.061h.107c.074-.137.18-.294.32-.473s.332-.335.579-.469.574-.205.98-.205c.529 0 1 .134 1.415.401s.74.652.976 1.155.358 1.108.358 1.815-.118 1.314-.354 1.82-.56.89-.971 1.163-.883.405-1.411.405c-.398 0-.723-.067-.976-.2s-.446-.29-.588-.469-.251-.338-.328-.477h-.077v3.473h-1.274zm1.249-5.728c0 .461.066.864.2 1.211s.327.618.58.814.562.289.928.289c.381 0 .699-.1.955-.302s.449-.482.58-.831.2-.743.2-1.181a3.25 3.25 0 0 0-.196-1.163c-.128-.344-.321-.615-.58-.814s-.575-.298-.959-.298c-.369 0-.681.095-.937.285a1.75 1.75 0 0 0-.575.797c-.131.341-.196.739-.196 1.193zm6.037 5.728v-9h1.245v1.061h.106c.074-.137.181-.294.32-.473s.332-.335.579-.469.574-.205.98-.205c.529 0 1 .134 1.415.401s.74.652.976 1.155.358 1.108.358 1.815-.118 1.314-.354 1.82-.559.89-.971 1.163-.882.405-1.411.405c-.397 0-.723-.067-.976-.2s-.446-.29-.588-.469-.251-.338-.328-.477h-.077v3.473h-1.274zm1.249-5.728a3.37 3.37 0 0 0 .2 1.211c.134.346.327.618.58.814s.562.289.929.289c.38 0 .699-.1.954-.302s.449-.482.58-.831.2-.743.2-1.181a3.25 3.25 0 0 0-.196-1.163c-.128-.344-.321-.615-.579-.814s-.576-.298-.959-.298c-.37 0-.682.095-.938.285s-.444.456-.575.797-.196.739-.196 1.193zm7.312-5.454v8.727h-1.274v-8.727h1.274zm1.594 8.727v-6.545h1.274v6.545h-1.274zm.643-7.555a.81.81 0 0 1-.571-.222.72.72 0 0 1-.234-.537c0-.21.078-.389.234-.537s.35-.226.571-.226a.79.79 0 0 1 .567.226c.159.148.239.327.239.537s-.08.387-.239.537-.345.222-.567.222zm4.982 7.687c-.633 0-1.179-.143-1.636-.43s-.804-.689-1.048-1.198-.367-1.09-.367-1.747c0-.664.125-1.251.375-1.76a2.87 2.87 0 0 1 1.057-1.197c.454-.287.99-.431 1.606-.431.498 0 .941.093 1.33.277a2.39 2.39 0 0 1 .942.768c.241.329.385.714.43 1.154h-1.24a1.48 1.48 0 0 0-.469-.792c-.241-.222-.565-.333-.971-.333a1.58 1.58 0 0 0-.933.282 1.79 1.79 0 0 0-.618.792c-.148.341-.222.745-.222 1.21 0 .478.072.89.217 1.236s.35.615.614.806.581.285.942.285c.241 0 .46-.044.656-.132a1.34 1.34 0 0 0 .499-.388c.136-.167.231-.369.285-.605h1.24a2.41 2.41 0 0 1-.413 1.134 2.39 2.39 0 0 1-.925.784c-.383.19-.834.285-1.351.285zm5.837.013c-.415 0-.79-.077-1.125-.23s-.601-.382-.797-.678-.29-.657-.29-1.086c0-.37.071-.674.213-.912a1.57 1.57 0 0 1 .575-.567c.242-.139.512-.244.81-.315s.602-.125.912-.162l.954-.111c.245-.031.422-.081.533-.149s.166-.179.166-.333v-.029c0-.373-.105-.661-.315-.865s-.517-.307-.929-.307c-.429 0-.767.095-1.014.285s-.414.397-.507.627l-1.198-.273c.142-.398.35-.719.622-.963s.593-.426.951-.537.734-.171 1.129-.171c.261 0 .538.032.831.094s.571.171.827.333.47.393.635.694.247.686.247 1.164v4.346h-1.245v-.895h-.051c-.082.165-.206.327-.37.486s-.377.291-.635.396a2.45 2.45 0 0 1-.929.158zm.277-1.023c.352 0 .653-.069.903-.208s.445-.321.575-.546a1.41 1.41 0 0 0 .201-.729v-.843c-.046.045-.134.088-.265.127a3.94 3.94 0 0 1-.439.098l-.481.073-.392.051a3.15 3.15 0 0 0-.678.158c-.201.074-.363.18-.486.319s-.178.319-.178.546c0 .315.116.554.349.716s.53.238.891.238zm7.585-5.667v1.022h-3.575v-1.022h3.575zm-2.616-1.568h1.274v6.191c0 .247.037.434.111.559s.169.206.285.251.249.064.388.064c.102 0 .192-.007.268-.021l.179-.035.23 1.053a2.09 2.09 0 0 1-.315.085c-.136.032-.307.049-.511.051-.335.006-.648-.054-.938-.179s-.524-.318-.703-.579-.268-.59-.268-.984v-6.456zm3.906 8.113v-6.545h1.274v6.545h-1.274zm.643-7.555a.81.81 0 0 1-.571-.222.72.72 0 0 1-.234-.537c0-.21.078-.389.234-.537s.349-.226.571-.226a.79.79 0 0 1 .567.226c.159.148.238.327.238.537s-.079.387-.238.537-.345.222-.567.222zm4.982 7.687c-.614 0-1.149-.14-1.607-.422s-.812-.674-1.065-1.18-.379-1.097-.379-1.773.126-1.272.379-1.781a2.85 2.85 0 0 1 1.065-1.185c.458-.281.993-.422 1.607-.422s1.149.141 1.607.422a2.85 2.85 0 0 1 1.065 1.185c.253.509.379 1.102.379 1.781s-.126 1.267-.379 1.773-.608.899-1.065 1.18-.993.422-1.607.422zm.004-1.069c.398 0 .728-.105.989-.316s.454-.49.579-.839a3.34 3.34 0 0 0 .192-1.155c0-.418-.064-.801-.192-1.151s-.318-.634-.579-.848-.591-.319-.989-.319-.733.106-.997.319-.456.496-.584.848-.187.733-.187 1.151.062.805.187 1.155a1.88 1.88 0 0 0 .584.839c.264.211.597.316.997.316zm5.624-2.949v3.886h-1.275v-6.545h1.223v1.065h.081a1.87 1.87 0 0 1 .708-.835c.324-.21.731-.316 1.223-.316.446 0 .836.094 1.172.282s.595.46.779.826.277.82.277 1.36v4.163h-1.274v-4.01c0-.474-.123-.845-.37-1.112s-.587-.405-1.019-.405c-.295 0-.558.064-.788.192a1.37 1.37 0 0 0-.541.562c-.131.245-.196.54-.196.887z" class="C"/><path d="M263.065 451.153c-.613 0-1.159-.105-1.636-.315s-.85-.503-1.125-.878a2.27 2.27 0 0 1-.439-1.299h1.602c.014.235.092.441.235.617s.331.309.566.405.5.145.793.145a2.02 2.02 0 0 0 .831-.162c.241-.111.43-.264.567-.46s.203-.422.2-.678c.003-.264-.065-.497-.205-.698s-.341-.36-.605-.473-.576-.171-.946-.171h-.771v-1.219h.771c.304 0 .57-.052.797-.157s.411-.253.541-.443a1.14 1.14 0 0 0 .192-.669c.003-.248-.052-.462-.166-.644a1.12 1.12 0 0 0-.473-.43c-.202-.103-.439-.154-.712-.154-.267 0-.514.049-.741.145s-.411.235-.55.413-.213.387-.222.631h-1.521c.011-.488.152-.917.422-1.287s.636-.662 1.091-.869.964-.315 1.53-.315c.582 0 1.088.109 1.517.328s.765.507 1.001.873a2.2 2.2 0 0 1 .354 1.215c.003.491-.142.903-.435 1.236s-.67.549-1.142.652v.068c.614.085 1.084.312 1.411.682s.493.822.49 1.367c0 .489-.139.927-.418 1.313a2.76 2.76 0 0 1-1.142.903c-.483.219-1.037.328-1.662.328zm7.79.047c-.701 0-1.304-.177-1.806-.532s-.885-.874-1.155-1.547-.401-1.49-.401-2.442.138-1.761.405-2.429.655-1.182 1.155-1.534 1.103-.528 1.802-.528 1.3.176 1.803.528.888.864 1.155 1.534.405 1.48.405 2.429c0 .955-.135 1.77-.405 2.446s-.652 1.188-1.155 1.543-1.101.532-1.803.532zm0-1.333c.546 0 .976-.269 1.292-.806s.477-1.334.477-2.382c0-.693-.073-1.276-.218-1.747s-.349-.827-.613-1.065a1.34 1.34 0 0 0-.938-.363c-.542 0-.971.27-1.287.81s-.474 1.325-.477 2.365c-.003.696.067 1.281.209 1.756s.349.832.614 1.074a1.36 1.36 0 0 0 .941.358zm9.961 1.282a2.48 2.48 0 0 1-1.381-.396c-.406-.264-.727-.648-.963-1.151s-.353-1.113-.353-1.832c0-.727.119-1.341.357-1.841s.567-.882.976-1.138a2.51 2.51 0 0 1 1.368-.388c.384 0 .699.066.946.197s.443.282.588.464.257.348.337.507h.064v-3.264h1.547v8.727h-1.517v-1.031h-.094c-.08.159-.195.328-.345.507a1.91 1.91 0 0 1-.597.452c-.247.125-.558.187-.933.187zm.43-1.265c.327 0 .605-.088.836-.265s.404-.427.524-.745.179-.689.179-1.113-.06-.791-.179-1.103-.29-.556-.52-.729-.507-.26-.84-.26c-.343 0-.63.09-.86.269s-.404.426-.52.741-.175.676-.175 1.082.058.775.175 1.096.294.569.524.754.518.273.856.273zm6.463 1.282c-.415 0-.788-.074-1.121-.221a1.83 1.83 0 0 1-.784-.665c-.19-.293-.285-.653-.285-1.082 0-.37.068-.675.204-.917a1.59 1.59 0 0 1 .559-.579c.235-.145.501-.254.796-.328s.607-.132.925-.167l.933-.106c.239-.034.412-.085.52-.153s.166-.181.166-.329v-.025c0-.321-.095-.57-.285-.746s-.465-.264-.822-.264c-.378 0-.678.082-.9.247s-.366.359-.443.584l-1.44-.205a2.3 2.3 0 0 1 .562-.997c.262-.27.581-.471.959-.605a3.68 3.68 0 0 1 1.253-.205 4.08 4.08 0 0 1 .942.111 2.64 2.64 0 0 1 .856.367c.259.167.466.396.622.686s.239.652.239 1.086v4.381h-1.483v-.899h-.051a1.89 1.89 0 0 1-.396.511c-.168.157-.38.283-.635.38a2.58 2.58 0 0 1-.891.14zm.401-1.133c.309 0 .578-.061.805-.183s.402-.29.524-.495.188-.427.188-.669v-.771c-.049.04-.131.077-.247.111s-.242.064-.384.089l-.422.068-.362.051a2.74 2.74 0 0 0-.618.154 1.02 1.02 0 0 0-.43.298.73.73 0 0 0-.158.486c0 .284.104.499.311.643s.472.218.793.218zm5.211 3.456c-.211 0-.405-.017-.584-.051s-.317-.069-.422-.111l.358-1.202c.224.065.425.097.601.094s.331-.058.464-.166.252-.282.345-.529l.133-.353-2.374-6.682h1.636l1.509 4.943h.068l1.513-4.943h1.64l-2.62 7.338c-.122.346-.284.643-.486.89a1.97 1.97 0 0 1-.742.571c-.289.134-.636.201-1.039.201zm11.008-7.27l-1.406.153c-.04-.142-.109-.275-.209-.4s-.227-.226-.392-.303-.366-.115-.605-.115c-.321 0-.591.07-.81.209s-.322.319-.319.541c-.003.19.066.345.209.465s.383.217.715.294l1.117.238c.619.134 1.079.345 1.381.635s.457.669.46 1.138c-.003.412-.124.776-.362 1.091s-.564.557-.985.733-.903.264-1.449.264c-.801 0-1.446-.168-1.934-.503a2.02 2.02 0 0 1-.874-1.41l1.504-.145c.069.295.213.518.435.669s.51.226.865.226c.367 0 .661-.076.882-.226s.337-.337.337-.558c0-.188-.073-.343-.217-.465s-.364-.216-.665-.281l-1.117-.235c-.628-.13-1.092-.35-1.393-.66s-.45-.707-.448-1.185c-.002-.403.107-.753.328-1.048s.536-.528.934-.69.862-.248 1.385-.248c.767 0 1.37.164 1.811.491s.717.768.822 1.325zm6.033 4.947c-.415 0-.788-.074-1.121-.221a1.83 1.83 0 0 1-.784-.665c-.19-.293-.285-.653-.285-1.082 0-.37.068-.675.204-.917a1.59 1.59 0 0 1 .558-.579c.236-.145.502-.254.797-.328s.607-.132.925-.167l.933-.106c.239-.034.412-.085.52-.153s.166-.181.166-.329v-.025c0-.321-.095-.57-.285-.746s-.465-.264-.823-.264c-.378 0-.677.082-.899.247s-.366.359-.443.584l-1.44-.205a2.3 2.3 0 0 1 .562-.997c.262-.27.581-.471.959-.605s.795-.205 1.253-.205a4.08 4.08 0 0 1 .942.111 2.64 2.64 0 0 1 .856.367c.259.167.466.396.622.686s.239.652.239 1.086v4.381h-1.483v-.899h-.051c-.094.182-.226.352-.397.511s-.379.283-.634.38a2.58 2.58 0 0 1-.891.14zm.4-1.133a1.68 1.68 0 0 0 .806-.183c.227-.125.402-.29.524-.495s.188-.427.188-.669v-.771c-.049.04-.131.077-.248.111s-.241.064-.383.089l-.422.068-.362.051a2.74 2.74 0 0 0-.618.154 1.03 1.03 0 0 0-.431.298.73.73 0 0 0-.157.486c0 .284.103.499.311.643s.471.218.792.218zm7.334 3.592c-.554 0-1.03-.075-1.428-.226s-.717-.346-.959-.596-.409-.527-.503-.831l1.39-.337c.062.128.153.254.272.379s.28.233.482.316.462.127.771.127c.438 0 .8-.106 1.087-.319s.43-.557.43-1.04v-1.24h-.076c-.08.159-.197.322-.35.49s-.351.308-.601.422-.558.17-.933.17c-.503 0-.959-.117-1.368-.353s-.73-.594-.971-1.066-.358-1.068-.358-1.781c0-.719.119-1.325.358-1.819s.566-.874.975-1.13a2.51 2.51 0 0 1 1.368-.388c.384 0 .699.066.946.197s.449.282.597.464.26.348.337.507h.085v-1.082h1.521v6.652c0 .559-.133 1.022-.401 1.389a2.4 2.4 0 0 1-1.095.822c-.463.182-.988.273-1.576.273zm.012-3.895c.327 0 .606-.079.836-.238s.404-.388.524-.687.179-.656.179-1.073-.06-.773-.179-1.083-.29-.549-.52-.72-.507-.26-.84-.26c-.343 0-.63.09-.86.269s-.404.424-.52.737-.175.662-.175 1.057.058.751.175 1.052.294.531.524.699.518.247.856.247zm7.376 1.432c-.639 0-1.193-.141-1.662-.422s-.832-.675-1.091-1.18-.383-1.097-.383-1.773.128-1.268.383-1.777a2.87 2.87 0 0 1 1.091-1.185c.469-.281 1.023-.422 1.662-.422s1.193.141 1.662.422a2.84 2.84 0 0 1 1.087 1.185c.258.509.388 1.101.388 1.777s-.13 1.267-.388 1.773a2.84 2.84 0 0 1-1.087 1.18c-.469.281-1.023.422-1.662.422zm.009-1.236c.346 0 .636-.095.869-.285s.406-.452.52-.776.175-.685.175-1.082-.059-.763-.175-1.087a1.72 1.72 0 0 0-.52-.78c-.233-.193-.523-.289-.869-.289-.355 0-.651.096-.887.289a1.75 1.75 0 0 0-.524.78c-.113.324-.17.686-.17 1.087a3.27 3.27 0 0 0 .17 1.082c.117.324.291.583.524.776s.532.285.887.285z" fill="#eb5757"/><rect x="116.5" y="431.534" width="223" height="30" rx="3.5" class="D"/><rect x="301.5" y="392.534" width="133" height="30" rx="3.5" class="B"/><g clip-path="url(#F)"><path d="M320.855 409.741l-4.562-4.562 3.911-3.259 3.91 3.911-3.259 3.91z" fill="#be1931"/><path d="M325.417 405.831c-.72.72-1.887.72-2.607 0l-2.607-2.607c-.72-.719-.72-1.887 0-2.607s1.887-.72 2.607 0l2.607 2.607c.72.72.72 1.887 0 2.607z" class="H"/><path d="M316.833 407.46l-5.755 7.496c.326.327 7.495-5.755 7.495-5.755l-1.74-1.741z" fill="#99aab5"/><path d="M321.507 411.697c-.719.721-1.887.721-2.608 0l-4.561-4.562c-.72-.72-.72-1.887 0-2.607s1.887-.72 2.607 0l4.562 4.562c.72.721.72 1.887 0 2.607z" class="H"/></g><path d="M335.719 405.6c-.046-.404-.233-.716-.563-.938s-.744-.337-1.244-.337a2.31 2.31 0 0 0-.929.171c-.261.111-.465.264-.609.46s-.213.413-.213.661c0 .207.048.386.144.536s.229.277.388.38a2.94 2.94 0 0 0 .52.251l.533.162.852.222a6.44 6.44 0 0 1 .857.277c.292.116.563.27.813.46s.452.426.606.707.234.618.234 1.01c0 .495-.128.933-.384 1.317s-.62.686-1.103.908-1.061.332-1.743.332c-.654 0-1.219-.104-1.696-.311s-.851-.501-1.121-.882-.419-.838-.447-1.364h1.321c.025.316.128.578.306.789a1.66 1.66 0 0 0 .695.464c.284.1.595.149.933.149.372 0 .703-.058.993-.174s.523-.285.691-.495.251-.461.251-.746c0-.258-.074-.47-.222-.634s-.342-.302-.592-.41-.527-.203-.839-.285l-1.032-.281c-.699-.191-1.253-.471-1.662-.84s-.609-.858-.609-1.466c0-.503.136-.941.409-1.316s.642-.667 1.108-.874.992-.315 1.577-.315c.591 0 1.112.103 1.564.311s.812.493 1.074.856.397.776.409 1.245h-1.27zm5.561 6.566c-.645 0-1.2-.138-1.666-.413s-.821-.669-1.074-1.172-.375-1.098-.375-1.777c0-.67.125-1.261.375-1.773s.605-.91 1.057-1.197.986-.431 1.594-.431c.369 0 .727.062 1.074.184a2.61 2.61 0 0 1 .933.575c.275.261.493.601.652 1.018s.238.92.238 1.513v.452h-5.203v-.955h3.955a1.87 1.87 0 0 0-.205-.89c-.136-.262-.328-.468-.575-.618s-.531-.226-.861-.226c-.358 0-.67.088-.937.264s-.469.401-.614.682-.213.581-.213.908v.745c0 .438.077.81.23 1.117s.374.541.652.703.604.239.976.239a2.01 2.01 0 0 0 .661-.103c.198-.071.37-.176.515-.315a1.37 1.37 0 0 0 .333-.516l1.205.218c-.096.355-.269.666-.519.933s-.559.47-.934.618a3.49 3.49 0 0 1-1.274.217zm5.376-4.018v3.886h-1.274v-6.545h1.223v1.065h.081a1.87 1.87 0 0 1 .708-.835c.323-.21.731-.316 1.223-.316.446 0 .836.094 1.171.282a1.87 1.87 0 0 1 .78.826c.185.367.277.82.277 1.36v4.163h-1.274v-4.01c0-.474-.123-.845-.371-1.112s-.586-.405-1.018-.405a1.59 1.59 0 0 0-.788.192 1.38 1.38 0 0 0-.542.562c-.13.245-.196.54-.196.887zm8.833-2.659v1.022h-3.575v-1.022h3.575zm-2.616-1.568h1.274v6.191c0 .247.037.434.111.559s.169.206.285.251a1.14 1.14 0 0 0 .388.064c.102 0 .192-.007.269-.021l.179-.035.23 1.053a2.14 2.14 0 0 1-.316.085 2.38 2.38 0 0 1-.511.051c-.335.006-.648-.054-.937-.179a1.61 1.61 0 0 1-.704-.579c-.179-.261-.268-.59-.268-.984v-6.456zm8.866 8.258c-.414 0-.789-.077-1.125-.23a1.89 1.89 0 0 1-.796-.678c-.194-.295-.29-.657-.29-1.086 0-.37.071-.674.213-.912a1.57 1.57 0 0 1 .575-.567c.242-.139.512-.244.81-.315s.602-.125.912-.162l.954-.111c.245-.031.422-.081.533-.149s.166-.179.166-.333v-.029c0-.373-.105-.661-.315-.865s-.517-.307-.929-.307c-.429 0-.767.095-1.014.285s-.414.397-.507.627l-1.198-.273c.142-.398.35-.719.622-.963s.593-.426.951-.537.734-.171 1.129-.171c.261 0 .538.032.831.094s.571.171.826.333.471.393.635.694.248.686.248 1.164v4.346h-1.245v-.895h-.051c-.082.165-.206.327-.371.486s-.376.291-.635.396-.568.158-.929.158zm.277-1.023c.353 0 .654-.069.904-.208s.444-.321.575-.546a1.41 1.41 0 0 0 .2-.729v-.843c-.045.045-.133.088-.264.127s-.274.07-.439.098l-.481.073-.392.051a3.15 3.15 0 0 0-.678.158 1.17 1.17 0 0 0-.486.319c-.119.137-.179.319-.179.546 0 .315.117.554.35.716s.53.238.89.238z" class="C"/><path d="M369.607 412.034v-8.727h5.591v1.325h-4.01v2.37h3.626v1.325h-3.626v3.707h-1.581zm9.26.128c-.656 0-1.223-.136-1.7-.409s-.84-.665-1.095-1.168-.384-1.101-.384-1.785c0-.673.128-1.264.384-1.773s.619-.909 1.082-1.193 1.007-.431 1.632-.431c.404 0 .784.066 1.142.197a2.57 2.57 0 0 1 .955.596c.278.27.497.614.656 1.031s.239.909.239 1.483v.473h-5.365v-1.039h3.886c-.003-.296-.067-.559-.192-.789a1.4 1.4 0 0 0-.524-.55 1.48 1.48 0 0 0-.776-.2c-.315 0-.592.077-.831.23a1.6 1.6 0 0 0-.558.597c-.13.244-.197.513-.2.805v.908c0 .381.07.707.209.98a1.49 1.49 0 0 0 .584.622c.25.142.542.213.877.213.225 0 .428-.031.61-.093s.339-.161.473-.286.234-.28.302-.464l1.441.161c-.091.381-.265.714-.52.998s-.577.5-.972.656-.846.23-1.355.23zm6.993 0c-.656 0-1.223-.136-1.7-.409s-.839-.665-1.095-1.168-.384-1.101-.384-1.785c0-.673.128-1.264.384-1.773s.619-.909 1.082-1.193 1.007-.431 1.632-.431c.404 0 .784.066 1.142.197a2.57 2.57 0 0 1 .955.596c.278.27.497.614.656 1.031s.239.909.239 1.483v.473h-5.365v-1.039h3.886c-.003-.296-.067-.559-.192-.789s-.299-.416-.524-.55-.48-.2-.775-.2c-.316 0-.593.077-.831.23s-.425.35-.559.597-.197.513-.2.805v.908c0 .381.07.707.209.98a1.49 1.49 0 0 0 .584.622c.25.142.542.213.878.213a1.88 1.88 0 0 0 .609-.093c.182-.066.34-.161.473-.286s.234-.28.303-.464l1.44.161c-.091.381-.264.714-.52.998s-.577.5-.972.656-.846.23-1.355.23zm6.525-.013c-.514 0-.975-.132-1.381-.396s-.727-.648-.963-1.151-.354-1.113-.354-1.832c0-.727.12-1.341.358-1.841s.567-.882.976-1.138a2.51 2.51 0 0 1 1.368-.388c.384 0 .699.066.946.197s.443.282.588.464.257.348.337.507h.064v-3.264h1.547v8.727h-1.517v-1.031h-.094c-.08.159-.195.328-.345.507a1.91 1.91 0 0 1-.597.452c-.247.125-.558.187-.933.187zm.43-1.265c.327 0 .605-.088.835-.265a1.65 1.65 0 0 0 .525-.745c.119-.319.179-.689.179-1.113s-.06-.791-.179-1.103-.29-.556-.52-.729-.507-.26-.84-.26c-.343 0-.63.09-.861.269s-.403.426-.519.741-.175.676-.175 1.082.058.775.175 1.096.294.569.524.754.518.273.856.273zm4.648 1.15v-8.727h1.542v3.264h.064c.08-.159.192-.328.337-.507s.341-.337.588-.464.562-.197.946-.197c.506 0 .962.13 1.368.388s.733.635.971 1.138.363 1.114.363 1.841c0 .719-.118 1.33-.354 1.832s-.557.887-.963 1.151-.867.396-1.381.396c-.375 0-.686-.062-.933-.187a1.91 1.91 0 0 1-.597-.452c-.147-.179-.262-.348-.345-.507h-.089v1.031h-1.517zm1.512-3.273c0 .424.06.794.179 1.113s.297.566.525.745.508.265.835.265c.341 0 .626-.091.856-.273a1.68 1.68 0 0 0 .52-.754c.12-.321.179-.686.179-1.096s-.058-.767-.175-1.082-.289-.562-.519-.741-.517-.269-.861-.269c-.33 0-.61.087-.84.26s-.405.416-.524.729-.175.68-.175 1.103zm7.742 3.405c-.415 0-.789-.074-1.121-.221s-.591-.372-.784-.665-.286-.653-.286-1.082c0-.37.068-.675.205-.917a1.58 1.58 0 0 1 .558-.579c.236-.145.501-.254.797-.328s.606-.132.925-.167l.933-.106c.239-.034.412-.085.52-.153s.166-.181.166-.329v-.025c0-.321-.095-.57-.286-.746s-.464-.264-.822-.264c-.378 0-.678.082-.899.247s-.367.359-.443.584l-1.441-.205c.114-.397.301-.73.563-.997s.581-.471.959-.605a3.67 3.67 0 0 1 1.252-.205 4.07 4.07 0 0 1 .942.111c.313.074.598.196.857.367s.466.396.622.686.239.652.239 1.086v4.381h-1.483v-.899h-.052a1.85 1.85 0 0 1-.396.511c-.167.157-.379.283-.635.38s-.549.14-.89.14zm.4-1.133c.31 0 .578-.061.806-.183s.402-.29.524-.495.187-.427.187-.669v-.771a.71.71 0 0 1-.247.111c-.114.034-.241.064-.383.089l-.422.068-.363.051c-.23.032-.436.083-.617.154s-.326.17-.431.298a.73.73 0 0 0-.158.486c0 .284.104.499.312.643s.471.218.792.218zm7.342 1.129c-.654 0-1.215-.143-1.683-.43a2.88 2.88 0 0 1-1.079-1.189c-.25-.509-.375-1.094-.375-1.756s.128-1.251.384-1.76.616-.909 1.082-1.193 1.023-.431 1.662-.431c.532 0 1.002.099 1.411.295s.74.467.984.822.384.764.418 1.236h-1.475c-.059-.316-.201-.578-.426-.789s-.518-.319-.89-.319c-.316 0-.593.085-.831.255s-.425.41-.559.725-.196.693-.196 1.133c0 .446.066.83.196 1.151s.314.564.55.737.519.256.84.256c.227 0 .43-.043.609-.128a1.22 1.22 0 0 0 .456-.379c.122-.165.206-.365.251-.601h1.475c-.037.463-.173.874-.409 1.231s-.557.634-.963.836-.884.298-1.432.298zm5.357-2.182l-.005-1.862h.248l2.352-2.629h1.802l-2.893 3.221H421l-1.184 1.27zm-1.407 2.054v-8.727h1.543v8.727h-1.543zm4.108 0l-2.13-2.979 1.04-1.086 2.936 4.065h-1.846z" fill="#bb6bd9"/><rect x="301.5" y="392.534" width="133" height="30" rx="3.5" class="D"/><rect x="116.631" y="392.534" width="168" height="30" rx="3.5" class="B"/><g clip-path="url(#G)"><path d="M140.442 407.073l-3.708-1.372-1.384-4.538a.42.42 0 0 0-.399-.295c-.183 0-.345.12-.398.295l-1.384 4.538-3.708 1.372c-.164.061-.273.216-.273.391s.109.33.273.391l3.706 1.372 1.385 4.676c.052.177.215.298.399.298s.347-.121.4-.298l1.385-4.677 3.707-1.372c.163-.06.271-.215.271-.39s-.108-.33-.272-.391z" class="I"/><path d="M132.109 411.657l-.964-.357-.375-1.375c-.049-.182-.214-.308-.402-.308s-.352.126-.402.308l-.375 1.375-.964.356a.42.42 0 0 0-.272.391.42.42 0 0 0 .272.391l.959.355.378 1.509c.047.185.213.315.404.315s.358-.13.404-.315l.378-1.509.959-.356c.164-.06.272-.216.272-.39s-.108-.33-.272-.39zm-1.807-9.027l-.985-.364-.365-.986a.42.42 0 0 0-.391-.272.42.42 0 0 0-.391.272l-.365.986-.985.364c-.164.061-.272.217-.272.391s.108.331.272.391l.985.365.365.985c.061.164.217.272.391.272s.33-.108.391-.272l.364-.985.986-.365a.42.42 0 0 0 .272-.391.42.42 0 0 0-.272-.391z" class="N"/></g><path d="M153.338 406.145h-1.329c-.051-.284-.147-.534-.286-.75s-.309-.399-.511-.55a2.23 2.23 0 0 0-.678-.341c-.247-.076-.51-.115-.788-.115-.503 0-.953.127-1.351.38s-.707.623-.937 1.112-.341 1.085-.341 1.79.113 1.309.341 1.798.544.858.941 1.108a2.47 2.47 0 0 0 1.343.375 2.72 2.72 0 0 0 .784-.111 2.25 2.25 0 0 0 .677-.337c.202-.147.372-.328.512-.541s.24-.463.294-.741l1.329.004c-.071.429-.209.824-.413 1.185s-.462.667-.78.929a3.53 3.53 0 0 1-1.082.6 4.01 4.01 0 0 1-1.33.213c-.756 0-1.429-.178-2.02-.536s-1.057-.877-1.397-1.547-.508-1.47-.508-2.399.171-1.732.512-2.4.807-1.184 1.398-1.542 1.262-.541 2.015-.541c.463 0 .895.066 1.296.2a3.44 3.44 0 0 1 1.086.579c.321.253.587.563.797.929s.352.78.426 1.249zm4.111 6.021c-.614 0-1.149-.14-1.607-.422s-.812-.674-1.065-1.18-.379-1.097-.379-1.773.126-1.272.379-1.781a2.85 2.85 0 0 1 1.065-1.185c.458-.281.993-.422 1.607-.422s1.149.141 1.606.422.813.677 1.066 1.185.379 1.102.379 1.781-.127 1.267-.379 1.773-.608.899-1.066 1.18-.993.422-1.606.422zm.004-1.069c.398 0 .727-.105.989-.316s.454-.49.579-.839a3.34 3.34 0 0 0 .192-1.155c0-.418-.064-.801-.192-1.151s-.318-.634-.579-.848-.591-.319-.989-.319-.733.106-.997.319-.456.496-.584.848-.187.733-.187 1.151.062.805.187 1.155.322.629.584.839.596.316.997.316zm4.349.937v-6.545h1.223v1.065h.081c.136-.361.359-.642.669-.844s.68-.307 1.112-.307c.438 0 .804.103 1.1.307s.518.486.66.844h.068c.157-.349.405-.628.746-.835s.747-.316 1.219-.316c.594 0 1.078.187 1.453.559s.567.933.567 1.683v4.389h-1.274v-4.27c0-.443-.121-.764-.363-.963s-.529-.298-.865-.298c-.414 0-.737.128-.967.383s-.345.579-.345.976v4.172h-1.27v-4.351c0-.355-.111-.64-.332-.856s-.51-.324-.865-.324c-.242 0-.465.064-.669.192s-.366.299-.491.524-.183.484-.183.78v4.035h-1.274zm10.486 2.455v-9h1.244v1.061h.106c.074-.137.181-.294.32-.473s.332-.335.58-.469.573-.205.98-.205c.528 0 1 .134 1.414.401s.74.652.976 1.155.358 1.108.358 1.815-.118 1.314-.353 1.82-.56.89-.972 1.163-.882.405-1.411.405c-.397 0-.723-.067-.975-.2s-.446-.29-.588-.469-.252-.338-.329-.477h-.076v3.473h-1.274zm1.248-5.728a3.37 3.37 0 0 0 .2 1.211c.134.346.327.618.58.814s.562.289.929.289c.381 0 .699-.1.954-.302s.449-.482.58-.831a3.28 3.28 0 0 0 .2-1.181 3.25 3.25 0 0 0-.196-1.163c-.128-.344-.321-.615-.579-.814s-.576-.298-.959-.298a1.53 1.53 0 0 0-.938.285c-.252.191-.444.456-.575.797s-.196.739-.196 1.193zm7.312-5.454v8.727h-1.274v-8.727h1.274zm4.415 8.859c-.645 0-1.2-.138-1.666-.413s-.821-.669-1.074-1.172-.375-1.098-.375-1.777c0-.67.125-1.261.375-1.773s.605-.91 1.057-1.197.986-.431 1.594-.431c.369 0 .727.062 1.073.184s.658.314.934.575.493.601.652 1.018.238.92.238 1.513v.452h-5.203v-.955h3.955a1.87 1.87 0 0 0-.205-.89c-.136-.262-.328-.468-.575-.618s-.531-.226-.861-.226c-.358 0-.67.088-.937.264s-.469.401-.614.682-.213.581-.213.908v.745c0 .438.077.81.23 1.117s.374.541.652.703.604.239.976.239a2 2 0 0 0 .66-.103 1.43 1.43 0 0 0 .516-.315c.145-.139.256-.311.332-.516l1.206.218c-.096.355-.27.666-.52.933s-.558.47-.933.618a3.49 3.49 0 0 1-1.274.217zm7.157-6.677v1.022h-3.575v-1.022h3.575zm-2.616-1.568h1.274v6.191c0 .247.037.434.111.559s.169.206.285.251a1.14 1.14 0 0 0 .388.064c.102 0 .192-.007.269-.021l.179-.035.23 1.053a2.14 2.14 0 0 1-.316.085 2.38 2.38 0 0 1-.511.051c-.335.006-.648-.054-.937-.179a1.61 1.61 0 0 1-.704-.579c-.179-.261-.268-.59-.268-.984v-6.456zm6.657 8.245c-.645 0-1.201-.138-1.667-.413s-.821-.669-1.073-1.172-.375-1.098-.375-1.777c0-.67.125-1.261.375-1.773a2.91 2.91 0 0 1 1.056-1.197c.455-.287.986-.431 1.594-.431.369 0 .727.062 1.074.184s.658.314.933.575.493.601.652 1.018.239.92.239 1.513v.452h-5.203v-.955h3.954c0-.335-.068-.632-.204-.89a1.54 1.54 0 0 0-.576-.618c-.244-.151-.531-.226-.86-.226-.358 0-.671.088-.938.264s-.469.401-.613.682-.214.581-.214.908v.745c0 .438.077.81.231 1.117s.373.541.652.703a1.93 1.93 0 0 0 .975.239c.242 0 .462-.034.661-.103a1.43 1.43 0 0 0 .516-.315 1.38 1.38 0 0 0 .332-.516l1.206.218a2.19 2.19 0 0 1-.52.933c-.247.264-.558.47-.933.618a3.49 3.49 0 0 1-1.274.217zm6.552-.004c-.529 0-1-.135-1.415-.405s-.736-.66-.972-1.163-.349-1.112-.349-1.82.118-1.312.354-1.815.565-.888.98-1.155a2.55 2.55 0 0 1 1.41-.401c.407 0 .733.069.98.205s.444.29.58.469a3.97 3.97 0 0 1 .324.473h.077v-3.243h1.274v8.727h-1.245v-1.018h-.106a3.41 3.41 0 0 1-.333.477c-.142.179-.338.335-.588.469s-.573.2-.971.2zm.281-1.087c.367 0 .676-.096.929-.289s.449-.468.58-.814a3.37 3.37 0 0 0 .2-1.211c0-.454-.065-.852-.196-1.193s-.323-.606-.575-.797-.566-.285-.938-.285c-.383 0-.703.099-.959.298s-.449.47-.579.814-.192.732-.192 1.163c0 .438.065.831.196 1.181s.324.626.58.831.576.302.954.302zm7.716.959v-6.545h1.232v1.039h.068c.119-.352.329-.629.63-.83s.648-.307 1.032-.307l.281.008.26.022v1.218a2.3 2.3 0 0 0-.273-.047 2.72 2.72 0 0 0-.392-.029 1.67 1.67 0 0 0-.805.191c-.233.125-.418.3-.554.524s-.205.475-.205.759v3.997h-1.274zm7.072.132c-.645 0-1.2-.138-1.666-.413s-.821-.669-1.074-1.172-.375-1.098-.375-1.777c0-.67.125-1.261.375-1.773s.605-.91 1.057-1.197.986-.431 1.594-.431c.369 0 .727.062 1.074.184a2.61 2.61 0 0 1 .933.575c.275.261.493.601.652 1.018s.238.92.238 1.513v.452h-5.203v-.955h3.955a1.87 1.87 0 0 0-.205-.89c-.136-.262-.328-.468-.575-.618s-.531-.226-.861-.226c-.358 0-.67.088-.937.264s-.469.401-.614.682-.213.581-.213.908v.745c0 .438.077.81.23 1.117s.374.541.652.703.604.239.976.239a2 2 0 0 0 .66-.103 1.43 1.43 0 0 0 .516-.315c.145-.139.256-.311.332-.516l1.206.218c-.096.355-.269.666-.519.933s-.559.47-.934.618a3.49 3.49 0 0 1-1.274.217zm6.846 2.459c-.519 0-.967-.068-1.342-.204s-.676-.317-.912-.542-.412-.47-.528-.737l1.095-.452c.077.125.179.258.307.397s.307.263.528.362.513.149.865.149c.483 0 .882-.118 1.198-.354s.473-.605.473-1.116v-1.287h-.081a2.91 2.91 0 0 1-.333.464 1.79 1.79 0 0 1-.588.444c-.25.125-.575.187-.976.187-.517 0-.983-.121-1.397-.362s-.739-.604-.98-1.078-.358-1.064-.358-1.76.117-1.293.353-1.79.566-.878.98-1.142a2.55 2.55 0 0 1 1.411-.401c.406 0 .734.069.984.205s.445.29.584.469.252.336.328.473h.094v-1.061h1.249v6.69c0 .563-.131 1.024-.392 1.385s-.616.628-1.062.801-.943.26-1.5.26zm-.012-3.746c.366 0 .676-.085.929-.255s.448-.421.579-.742.2-.711.2-1.163c0-.441-.065-.828-.196-1.164s-.322-.596-.575-.784-.565-.285-.937-.285c-.384 0-.703.099-.959.298a1.8 1.8 0 0 0-.58.801c-.128.338-.191.716-.191 1.134 0 .429.065.805.196 1.129s.323.577.579.759.577.272.955.272zm4.554 1.155v-6.545h1.275v6.545h-1.275zm.644-7.555a.81.81 0 0 1-.571-.222.72.72 0 0 1-.235-.537c0-.21.079-.389.235-.537s.349-.226.571-.226a.79.79 0 0 1 .567.226c.159.148.238.327.238.537s-.079.387-.238.537-.346.222-.567.222zm7.129 2.608l-1.154.204a1.4 1.4 0 0 0-.23-.422 1.16 1.16 0 0 0-.418-.328c-.176-.085-.396-.128-.661-.128-.36 0-.662.081-.903.243s-.362.365-.362.618a.65.65 0 0 0 .243.529c.162.133.423.243.784.328l1.04.238c.602.14 1.051.354 1.346.644s.443.666.443 1.129a1.71 1.71 0 0 1-.341 1.048c-.224.304-.538.543-.941.716s-.865.26-1.394.26c-.733 0-1.331-.156-1.794-.468s-.747-.763-.852-1.343l1.231-.187c.077.321.235.564.473.728s.55.243.934.243c.417 0 .751-.086 1.001-.26s.375-.39.375-.643a.67.67 0 0 0-.23-.516c-.151-.139-.382-.244-.695-.315l-1.108-.243c-.61-.139-1.062-.361-1.355-.665s-.434-.689-.434-1.155c0-.386.108-.724.323-1.014s.515-.515.895-.677.817-.248 1.309-.248c.707 0 1.264.154 1.67.461s.675.711.805 1.223zm4.465-1.598v1.022h-3.576v-1.022h3.576zm-2.617-1.568h1.274v6.191c0 .247.037.434.111.559s.169.206.286.251a1.13 1.13 0 0 0 .387.064c.103 0 .192-.007.269-.021l.179-.035.23 1.053a2.16 2.16 0 0 1-.315.085c-.137.032-.307.049-.512.051-.335.006-.647-.054-.937-.179a1.61 1.61 0 0 1-.703-.579c-.179-.261-.269-.59-.269-.984v-6.456zm3.906 8.113v-6.545h1.232v1.039h.068c.119-.352.329-.629.63-.83s.648-.307 1.032-.307l.281.008.26.022v1.218a2.3 2.3 0 0 0-.273-.047 2.71 2.71 0 0 0-.392-.029 1.67 1.67 0 0 0-.805.191c-.233.125-.418.3-.554.524s-.205.475-.205.759v3.997h-1.274zm6.332.145c-.415 0-.79-.077-1.125-.23a1.89 1.89 0 0 1-.797-.678c-.193-.295-.29-.657-.29-1.086 0-.37.071-.674.213-.912a1.57 1.57 0 0 1 .575-.567c.242-.139.512-.244.81-.315s.602-.125.912-.162l.955-.111c.244-.031.422-.081.532-.149s.166-.179.166-.333v-.029c0-.373-.105-.661-.315-.865s-.517-.307-.929-.307c-.429 0-.767.095-1.014.285s-.413.397-.507.627l-1.198-.273c.142-.398.35-.719.623-.963s.592-.426.95-.537.734-.171 1.129-.171c.261 0 .538.032.831.094a2.44 2.44 0 0 1 .827.333c.258.162.47.393.635.694s.247.686.247 1.164v4.346h-1.244v-.895h-.052c-.082.165-.206.327-.37.486s-.377.291-.635.396-.568.158-.929.158zm.277-1.023c.352 0 .653-.069.903-.208s.445-.321.575-.546a1.41 1.41 0 0 0 .201-.729v-.843c-.046.045-.134.088-.264.127s-.275.07-.439.098l-.482.073-.392.051a3.15 3.15 0 0 0-.678.158c-.201.074-.363.18-.485.319s-.179.319-.179.546c0 .315.116.554.349.716s.53.238.891.238zm7.585-5.667v1.022h-3.575v-1.022h3.575zm-2.616-1.568h1.274v6.191c0 .247.037.434.111.559s.169.206.285.251a1.14 1.14 0 0 0 .388.064c.102 0 .192-.007.269-.021l.179-.035.23 1.053a2.14 2.14 0 0 1-.316.085 2.38 2.38 0 0 1-.511.051c-.335.006-.648-.054-.938-.179s-.524-.318-.703-.579-.268-.59-.268-.984v-6.456zm3.906 8.113v-6.545h1.274v6.545h-1.274zm.643-7.555a.81.81 0 0 1-.571-.222.72.72 0 0 1-.234-.537c0-.21.078-.389.234-.537s.35-.226.571-.226a.79.79 0 0 1 .567.226c.159.148.239.327.239.537s-.08.387-.239.537-.345.222-.567.222zm4.982 7.687c-.613 0-1.149-.14-1.606-.422s-.813-.674-1.066-1.18-.379-1.097-.379-1.773.126-1.272.379-1.781.608-.903 1.066-1.185.993-.422 1.606-.422 1.149.141 1.607.422a2.85 2.85 0 0 1 1.065 1.185c.253.509.379 1.102.379 1.781s-.126 1.267-.379 1.773-.608.899-1.065 1.18-.993.422-1.607.422zm.004-1.069c.398 0 .728-.105.989-.316a1.85 1.85 0 0 0 .58-.839c.127-.35.191-.735.191-1.155a3.35 3.35 0 0 0-.191-1.151c-.125-.352-.319-.634-.58-.848s-.591-.319-.989-.319-.732.106-.997.319-.456.496-.583.848-.188.733-.188 1.151.063.805.188 1.155.322.629.583.839.597.316.997.316zm5.624-2.949v3.886h-1.274v-6.545h1.223v1.065h.081c.15-.347.386-.625.707-.835s.731-.316 1.223-.316c.446 0 .837.094 1.172.282s.595.46.78.826.277.82.277 1.36v4.163h-1.274v-4.01c0-.474-.124-.845-.371-1.112s-.587-.405-1.019-.405c-.295 0-.558.064-.788.192s-.408.315-.541.562-.196.54-.196.887z" class="C"/><rect x="116.631" y="392.534" width="168" height="30" rx="3.5" class="D"/><rect x="-1" y="1" width="421" height="114" rx="7" transform="matrix(-1 0 0 1 519 366.034)" stroke="#e1e8f2" stroke-width="2" class="O"/><rect x="-2" y="2" width="447" height="141" rx="6" transform="matrix(-1 0 0 1 531 353.034)" class="F G"/><defs><clipPath id="A"><path transform="translate(120.258 147.91)" d="M0 0h22v22H0z" class="B"/></clipPath><clipPath id="B"><path transform="translate(131 198.384)" d="M0 0h15v15H0z" class="B"/></clipPath><clipPath id="C"><path transform="translate(132.091 242)" d="M0 0h15v15H0z" class="B"/></clipPath><clipPath id="D"><path transform="translate(279 242)" d="M0 0h15v15H0z" class="B"/></clipPath><clipPath id="E"><path transform="translate(126 439.034)" d="M0 0h15v15H0z" class="B"/></clipPath><clipPath id="F"><path transform="translate(311 400.034)" d="M0 0h15v15H0z" class="B"/></clipPath><clipPath id="G"><path transform="translate(126.131 400.034)" d="M0 0h15v15H0z" class="B"/></clipPath><path id="H" d="M355.621 511.034l10.182-13.817 13.818-10.183-13.818-10.182-10.182-13.818-10.182 13.818-13.818 10.182 13.818 10.183 10.182 13.817z"/><path id="I" d="M141.625 202.967c.345 0 .625-.28.625-.625s-.28-.625-.625-.625-.625.28-.625.625.28.625.625.625z"/><path id="J" d="M131.833 206.717c.461 0 .834-.373.834-.833s-.373-.834-.834-.834-.833.373-.833.834.373.833.833.833z"/><path id="K" d="M129.958 443.617a1.46 1.46 0 0 0 1.459-1.458 1.46 1.46 0 0 0-1.459-1.458 1.46 1.46 0 0 0-1.458 1.458 1.46 1.46 0 0 0 1.458 1.458z"/></defs></svg>