<svg width="179" height="41" viewBox="0 0 179 41" fill="none" xmlns="http://www.w3.org/2000/svg">
<g clip-path="url(#clip0_6344_40330)">
<path fill-rule="evenodd" clip-rule="evenodd" d="M62.1166 19.3915L58.7529 18.6668C57.045 18.3048 56.1139 17.2695 56.1139 15.7172C56.1139 13.7509 57.8218 12.3022 60.1502 12.3022C63.3068 12.3022 64.2379 14.6305 64.4971 15.3552C64.5485 15.6137 64.7041 15.8208 64.9626 15.9243C65.1697 16.0278 65.4281 16.0278 65.6352 15.9757L67.3945 15.3545C67.86 15.1996 68.0671 14.7333 67.9635 14.2678C67.498 12.6634 65.7901 8.88634 60.0981 8.88634C55.8547 8.88634 52.284 12.1465 52.284 15.9757C52.284 19.2872 54.4574 21.7199 58.0796 22.496L61.2876 23.2207C63.2539 23.6349 64.3921 24.8251 64.3921 26.3773C64.3921 28.3951 62.7363 29.6375 60.0973 29.6375C56.9928 29.6375 55.492 27.5676 55.0779 25.6534C54.9743 25.1878 54.5088 24.8772 54.0433 24.9286C53.9919 24.9286 53.9919 24.9286 53.9398 24.98L51.9734 25.6012C51.5593 25.7562 51.3008 26.1703 51.3522 26.5844C51.9734 29.7924 54.5602 33.1561 60.0973 33.1561C64.7548 33.1561 68.2734 30.103 68.2734 26.0668C68.2741 22.7031 66.0493 20.219 62.1166 19.3915ZM82.1937 22.496C82.1937 22.5474 82.1937 22.5995 82.1423 22.6509C82.0909 22.7023 82.0387 22.7023 81.9873 22.7023H74.7945C74.7431 22.7023 74.6909 22.6509 74.6395 22.6509C74.5881 22.5995 74.5881 22.5474 74.5881 22.496C74.8987 20.9952 76.1925 19.4951 78.3138 19.4951C80.4344 19.4429 81.8838 20.5818 82.1937 22.496ZM78.3131 16.0792C74.5352 16.0792 70.6025 19.2359 70.6025 24.5659C70.6025 27.1013 71.4308 29.3269 73.0344 30.8791C74.4831 32.3279 76.5016 33.1561 78.6751 33.1561C81.9352 33.1561 84.5742 31.4482 85.7123 28.6022C85.8158 28.3437 85.8158 28.0845 85.7123 27.8775C85.6087 27.6704 85.4017 27.4633 85.1946 27.4119L83.591 26.8429C83.1768 26.6879 82.6592 26.8943 82.5043 27.3084C81.8317 28.9128 80.5379 29.7403 78.6751 29.7403C76.4502 29.7403 74.7423 28.2394 74.4317 26.0146C74.4317 25.9632 74.4317 25.9111 74.4831 25.8597C74.4831 25.8597 74.5345 25.8083 74.638 25.8083H85.1425C85.608 25.8083 86.0221 25.4463 86.0221 24.98V24.5145C86.075 19.3394 83.0733 16.0792 78.3131 16.0792ZM96.2175 28.7057C93.682 28.7057 92.1298 26.9464 92.1298 24.1518C92.1298 21.3571 93.7342 19.5978 96.2175 19.5978C98.598 19.5978 100.254 21.4093 100.254 24.1518C100.202 26.8429 98.598 28.7057 96.2175 28.7057ZM102.893 16.5969H100.978C100.512 16.5969 100.098 17.011 100.098 17.5287C100.098 17.5801 100.047 17.6836 99.9945 17.6836C99.9431 17.6836 99.891 17.735 99.8396 17.6836C98.8564 16.804 97.4591 16.3384 95.7519 16.3384C91.4572 16.3384 88.352 19.65 88.352 24.1525C88.352 28.6551 91.4565 31.9666 95.7519 31.9666C97.3563 31.9666 98.805 31.4489 99.7882 30.5179C99.8396 30.4665 99.9431 30.4665 99.9431 30.4665C99.9945 30.4665 100.047 30.5179 100.047 30.6214V31.294C100.047 34.4506 98.6493 35.8994 95.6998 35.8994C93.837 35.8994 92.3361 34.7612 91.9741 32.9498C91.9227 32.6913 91.7671 32.5357 91.56 32.3807C91.3529 32.2258 91.0945 32.2258 90.8874 32.2772L89.0246 32.6913C88.559 32.7949 88.2485 33.2604 88.352 33.7781C89.0246 37.0382 91.9741 39.263 95.6998 39.263C98.4944 39.263 100.616 38.4348 102.013 36.7276C103.151 35.3303 103.772 33.4161 103.772 31.1905V17.4765C103.824 17.011 103.41 16.5969 102.893 16.5969ZM125.506 16.1314C123.385 16.1314 121.677 16.9075 120.539 18.4083C120.487 18.4597 120.435 18.5119 120.384 18.5119C120.332 18.5119 120.28 18.4605 120.28 18.4605C119.348 17.0118 117.693 16.1321 115.778 16.1321C114.278 16.1321 112.777 16.6498 111.794 17.5808C111.743 17.6322 111.639 17.6322 111.587 17.6322C111.536 17.5808 111.484 17.5287 111.484 17.4773C111.484 16.9596 111.07 16.5976 110.604 16.5976H108.741C108.276 16.5976 107.861 17.0118 107.861 17.4773V31.7588C107.861 32.2765 108.276 32.6385 108.741 32.6385H110.656C111.122 32.6385 111.536 32.2243 111.536 31.7588V23.0651C111.536 20.9438 112.83 19.5464 114.744 19.5464C117.279 19.5464 117.642 21.5128 117.642 22.7031V31.8102C117.642 32.3279 118.056 32.6898 118.522 32.6898H120.437C120.902 32.6898 121.316 32.2757 121.316 31.8102V23.0137C121.316 20.9438 122.61 19.4951 124.524 19.4951C127.06 19.4951 127.422 21.4614 127.422 22.6517V31.7588C127.422 32.2765 127.837 32.6385 128.302 32.6385H130.217C130.735 32.6385 131.097 32.2243 131.097 31.7588V22.3411C131.146 18.0456 128.3 16.1314 125.506 16.1314ZM138.339 22.7031C138.287 22.7031 138.235 22.6517 138.184 22.6517C138.132 22.6003 138.132 22.5481 138.132 22.4967C138.443 20.9959 139.737 19.4958 141.858 19.4958C143.928 19.4958 145.377 20.6339 145.687 22.4967C145.687 22.5481 145.687 22.6003 145.636 22.6517C145.585 22.7031 145.532 22.7031 145.481 22.7031H138.339ZM141.858 16.1314C138.08 16.1314 134.148 19.288 134.148 24.618C134.148 27.1535 134.976 29.379 136.579 30.9313C138.028 32.38 140.047 33.1561 142.22 33.1561C145.48 33.1561 148.068 31.4482 149.257 28.6022C149.361 28.3437 149.361 28.0845 149.257 27.8775C149.154 27.6704 148.947 27.4633 148.74 27.4119L147.135 26.8429C146.67 26.6879 146.203 26.8943 146.049 27.3084C145.376 28.9128 144.082 29.7403 142.219 29.7403C139.995 29.7403 138.287 28.2394 137.976 26.0146C137.976 25.9632 137.976 25.9111 138.027 25.8597C138.027 25.8597 138.079 25.8083 138.182 25.8083H148.687C149.152 25.8083 149.566 25.4463 149.566 24.98V24.5145C149.568 19.3394 146.618 16.0792 141.858 16.1314ZM160.901 16.1314C159.296 16.1314 157.9 16.7004 156.813 17.7357C156.762 17.7871 156.709 17.7871 156.606 17.7871C156.554 17.7358 156.502 17.6836 156.502 17.6322V17.5287C156.502 17.011 156.088 16.649 155.623 16.649H153.76C153.242 16.649 152.88 17.0632 152.88 17.5287V31.8109C152.88 32.3286 153.294 32.6906 153.76 32.6906H155.675C156.193 32.6906 156.554 32.2765 156.554 31.8109V23.4278C156.554 21.565 157.383 19.5464 159.762 19.5464C161.884 19.5464 162.971 20.7367 162.971 23.0651V31.7588C162.971 32.2765 163.385 32.6385 163.85 32.6385H165.765C166.283 32.6385 166.645 32.2243 166.645 31.7588V22.5995C166.748 18.6154 164.523 16.1314 160.901 16.1314ZM175.752 20.012H178.029C178.547 20.012 178.909 19.5978 178.909 19.1323V17.4765C178.909 16.9589 178.494 16.5969 178.029 16.5969H175.752C175.648 16.5969 175.545 16.4934 175.545 16.442V12.6642C175.545 12.1465 175.131 11.7845 174.665 11.7845H173.009C172.492 11.7845 172.13 12.1986 172.13 12.6642V14.6305C172.13 15.5623 171.768 16.6483 170.112 16.6483H169.801C169.284 16.6483 168.922 17.0624 168.922 17.5279V19.1837C168.922 19.7014 169.336 20.0634 169.801 20.0634H171.664C171.768 20.0634 171.871 20.1669 171.871 20.2183V28.1352C171.871 31.0333 173.631 32.844 176.529 32.844C177.305 32.844 177.926 32.7405 178.237 32.6891C178.651 32.5856 178.909 32.2236 178.909 31.8094V30.3086C178.909 29.7909 178.495 29.4289 178.03 29.4289H177.926C177.719 29.4289 177.512 29.4803 177.357 29.4803C176.063 29.4803 175.546 29.0148 175.546 27.721V20.219C175.545 20.1155 175.648 20.012 175.752 20.012Z" fill="#43AF79"/>
<path fill-rule="evenodd" clip-rule="evenodd" d="M41.13 17.1146H16.3433C15.2052 17.1146 14.2734 16.1828 14.2734 15.0446C14.2734 13.9065 15.2052 12.9747 16.3433 12.9747H41.13C42.2681 12.9747 43.1999 13.9065 43.1999 15.0446C43.1999 16.1828 42.2681 17.1146 41.13 17.1146Z" fill="#93C8A2"/>
<path fill-rule="evenodd" clip-rule="evenodd" d="M26.9503 27.619H2.16365C1.02554 27.619 0.09375 26.6879 0.09375 25.5491C0.09375 24.4102 1.02554 23.4792 2.16365 23.4792H26.9503C28.0885 23.4792 29.0202 24.411 29.0202 25.5491C29.0202 26.6872 28.0885 27.619 26.9503 27.619Z" fill="#93C8A2"/>
<path fill-rule="evenodd" clip-rule="evenodd" d="M4.49178 17.1146C3.35367 17.1146 2.42188 16.1828 2.42188 15.0447C2.42188 14.8376 2.47327 14.6305 2.52541 14.4235C5.11297 5.98892 12.8235 0.296875 21.6722 0.296875C23.69 0.296875 25.7085 0.607472 27.6227 1.17653C28.7094 1.53852 29.3306 2.67737 28.9679 3.76409C28.6051 4.85081 27.467 5.472 26.3803 5.10927C24.8795 4.64375 23.2758 4.38454 21.6714 4.38454C14.6342 4.38454 8.52805 8.88634 6.50954 15.6137C6.19969 16.4934 5.42357 17.1146 4.49178 17.1146Z" fill="#43AF79"/>
<path fill-rule="evenodd" clip-rule="evenodd" d="M38.8409 23.4792C39.979 23.4792 40.9108 24.411 40.9108 25.5491C40.9108 25.7562 40.8594 25.9632 40.8072 26.1703C38.2197 34.6048 30.5099 40.2969 21.6612 40.2969C19.6434 40.2969 17.6249 39.9863 15.7107 39.4172C14.624 39.0552 14.0028 37.9164 14.3655 36.8297C14.7275 35.7429 15.8664 35.1217 16.9531 35.4845C18.4539 35.95 20.0576 36.2092 21.6619 36.2092C28.6992 36.2092 34.8053 31.7074 36.8239 24.98C37.133 24.1004 37.9091 23.4792 38.8409 23.4792Z" fill="#43AF79"/>
<path fill-rule="evenodd" clip-rule="evenodd" d="M36.0065 7.12778C36.0065 8.26589 35.0748 9.19768 33.9366 9.19768C32.7985 9.19768 31.8667 8.26589 31.8667 7.12778C31.8667 5.98967 32.7985 5.05788 33.9366 5.05788C35.0748 5.05788 36.0065 5.98892 36.0065 7.12778ZM11.4269 33.4146C11.4269 34.5527 10.4951 35.4845 9.35701 35.4845C8.2189 35.4845 7.28711 34.5527 7.28711 33.4146C7.28711 32.2765 8.2189 31.3447 9.35701 31.3447C10.4951 31.3447 11.4269 32.2765 11.4269 33.4146Z" fill="#93C8A2"/>
</g>
<defs>
<clipPath id="clip0_6344_40330">
<rect width="178.814" height="40" fill="white" transform="translate(0.09375 0.296875)"/>
</clipPath>
</defs>
</svg>
