<svg xmlns="http://www.w3.org/2000/svg" width="608" height="561" fill="none" xmlns:v="https://vecta.io/nano"><style><![CDATA[.B{fill:#fff}.C{stroke:#dfe7f2}.D{fill:#636369}]]></style><g stroke="#97969c" stroke-dasharray="4 4"><path d="M48.496-31.321v78.64m0 544.473v-280.31m0-65.742V97.522M150.688-30.944l-.001 402.045m0 220.516V395.774M252.379-31.133V133.66m0 457.954v-81.246m0-293.993v244.394M355.07-30.944v90.743m0 531.811V84.102M457.261-31.131l.001 373.693m0 249.057V425.634M559.453-31.323v183.828m0 439.102V288.589m0-90.065v72.831"/><path d="M608 487.288H277.773M0 487.288h228.393M608 383.495H495.737M0 383.495h138.654m278.878 0H163.326M608 175.91h-25.672M0 175.91h211.292m80.708 0h242.642M608 279.703h-39.48m-568.52 0h15.322m65.323 0H550.88M608 72.117H368.442M0 72.117h25.121m48.339 0h269.018"/><path d="M252.379 511.269l-10.182-13.818-13.818-10.182 13.818-10.182 10.182-13.818 10.182 13.818 13.818 10.182-13.818 10.182-10.182 13.818zM48.52 96.035L38.337 82.217 24.52 72.035l13.818-10.182L48.52 48.035l10.182 13.818L72.52 72.035 58.702 82.217 48.52 96.035zm510.878 103.73l-10.182-13.818-13.818-10.182 13.818-10.182 10.182-13.818 10.183 13.818 13.817 10.182-13.817 10.182-10.183 13.818zM48.531 311.619l-13.576-18.424-18.424-13.576 18.424-13.577 13.576-18.423 13.577 18.423 18.423 13.577-18.423 13.576-13.577 18.424zm408.715 111.906l-16.97-23.03-23.03-16.97 23.03-16.971 16.97-23.029 16.971 23.029 23.029 16.971-23.029 16.97-16.971 23.03zm-204.867-207.61l-16.971-23.029-23.029-16.971 23.029-16.97 16.971-23.03 16.97 23.03 23.03 16.97-23.03 16.971-16.97 23.029z"/><circle cx="150.754" cy="383.495" r="12" transform="rotate(180 150.754 383.495)"/><circle cx="559.453" cy="279.703" r="8" transform="rotate(180 559.453 279.703)"/><circle cx="355.402" cy="72.117" r="12" transform="rotate(180 355.402 72.117)"/></g><g transform="matrix(-1 0 0 1 501.889 73.6403)"><rect x="-2" y="2" width="441.955" height="422.315" rx="6" fill="#121212"/><rect x="-2" y="2" width="441.955" height="422.315" rx="6" stroke="#121212" stroke-width="4"/></g><g transform="matrix(-1 0 0 1 520.825 60.7211)"><rect x="-2" y="2" width="441.12" height="419.085" rx="6" fill="#f5f6f8"/><rect x="-2" y="2" width="441.12" height="419.085" rx="6" stroke="#121212" stroke-width="4"/></g><rect x="91.786" y="73.639" width="422" height="38" rx="4" class="B"/><rect x="108.786" y="87.639" width="10" height="10" rx="5" fill="#eb5757"/><rect x="126.786" y="87.639" width="10" height="10" rx="5" fill="#f2c94c"/><rect x="144.786" y="87.639" width="10" height="10" rx="5" fill="#27ae60"/><g fill="#e7edf5"><path d="M488.224 86.639a1 1 0 1 0-2 0h2zm-2 12a1 1 0 1 0 2 0h-2zm0-12v12h2v-12h-2z"/><path d="M493.224 93.639a1 1 0 1 0 0-2v2zm-12-2a1 1 0 1 0 0 2v-2zm12 0h-12v2h12v-2z"/></g><rect x="-1" y="1" width="419" height="345" rx="7" transform="matrix(-1 0 0 1 510.786 124.639)" fill="#f5f6f8"/><path d="M144.473 161.819c3.564 0 5.49-1.872 5.49-4.86v-.162h-2.88v.09c0 1.728-.72 2.322-2.628 2.322-2.034 0-2.88-.738-2.88-3.6s.846-3.6 2.88-3.6c1.908 0 2.628.594 2.628 2.322v.09h2.88v-.162c0-2.988-1.926-4.86-5.49-4.86-3.618 0-5.778 2.448-5.778 6.21s2.16 6.21 5.778 6.21zm10.159-.18v-5.112c0-1.368.558-1.8 1.854-1.8 1.368 0 1.782.45 1.782 1.71v5.202h2.7v-5.742c0-1.926-.972-3.492-3.312-3.492-1.44 0-2.43.738-2.916 1.584h-.108v-4.41h-2.682v12.06h2.682zm10.924.18c1.674 0 2.592-.738 3.078-1.404h.108v1.224h2.502v-5.364c0-2.412-1.404-3.87-4.068-3.87-2.556 0-4.23 1.422-4.23 3.582v.198h2.574v-.198c0-.918.432-1.224 1.53-1.224 1.062 0 1.638.198 1.638 1.26v.288l-3.096.468c-1.872.288-2.88 1.152-2.88 2.556 0 1.638 1.242 2.484 2.844 2.484zm-.27-2.7c0-.378.252-.558.81-.648l2.592-.396c0 1.404-1.134 1.692-2.232 1.692-.792 0-1.17-.162-1.17-.648zm10.781 2.52v-5.13c0-1.368.558-1.782 1.854-1.782 1.368 0 1.782.45 1.782 1.71v5.202h2.7v-5.742c0-1.926-1.008-3.492-3.366-3.492-1.584 0-2.556.738-3.042 1.764h-.108v-1.584h-2.502v9.054h2.682zm11.14 0v-5.13c0-1.368.558-1.782 1.854-1.782 1.368 0 1.782.45 1.782 1.71v5.202h2.7v-5.742c0-1.926-1.008-3.492-3.366-3.492-1.584 0-2.556.738-3.042 1.764h-.108v-1.584h-2.502v9.054h2.682zm12.617.18c2.592 0 4.248-1.134 4.248-3.06v-.18h-2.664v.108c0 .558-.468.792-1.548.792-1.476 0-1.98-.504-2.034-1.764h6.21a8.16 8.16 0 0 0 .126-1.332c0-2.358-1.602-3.978-4.32-3.978-2.826 0-4.554 1.836-4.554 4.734 0 2.862 1.422 4.68 4.536 4.68zm-.072-7.2c1.26 0 1.872.522 1.818 1.458h-3.726c.108-.954.612-1.458 1.908-1.458zm8.943 7.02v-12.06h-2.682v12.06h2.682zm6.143.18c2.502 0 3.888-1.08 3.888-2.772 0-1.476-.792-2.34-2.7-2.7l-1.656-.342c-1.08-.216-1.242-.342-1.242-.774s.252-.666 1.332-.666c1.152 0 1.404.324 1.404.918v.252h2.574v-.252c0-2.034-1.692-3.078-3.906-3.078-2.574 0-3.942 1.188-3.942 2.862s.972 2.43 2.754 2.754l1.368.252c1.206.216 1.458.324 1.458.81 0 .45-.18.612-1.278.612-1.314 0-1.71-.144-1.71-.81v-.378h-2.574v.054c0 2.196 1.386 3.258 4.23 3.258z" fill="#000"/><g clip-path="url(#A)"><path d="M129.759 148.999c4.498 4.497 5.714 10.574 2.715 13.572s-9.075 1.783-13.573-2.714c-.152-.153-.292-.312-.437-.468l2.699-2.699c3.498 3.498 7.954 4.714 9.953 2.714s.783-6.455-2.714-9.953l.013.013-.013-.014c-3.997-3.998-9.466-5.01-12.214-2.262-1.33 1.329-1.771 3.296-1.429 5.422-.525-2.495-.092-4.807 1.429-6.326 2.998-2.999 9.074-1.783 13.571 2.715z" fill="#fdd888"/><path d="M123.976 165.417c-.154 0-.307-.047-.439-.141l-3.102-2.225-3.102 2.225a.75.75 0 0 1-.882-.003c-.263-.191-.373-.528-.275-.837l1.157-3.734-3.074-2.166c-.262-.193-.37-.531-.27-.841s.387-.517.712-.52l3.756-.007 1.263-3.64c.103-.308.391-.516.715-.516s.613.208.715.516l1.141 3.64 3.878.007c.326.003.613.212.712.52s-.008.648-.27.841l-3.074 2.166 1.157 3.734a.75.75 0 0 1-.275.837c-.132.096-.288.144-.443.144z" fill="#ffac33"/></g><rect width="91" height="33" rx="4" transform="matrix(-1 0 0 1 203.119 200.708)" class="B"/><rect x="179.619" y="210.708" width="13" height="13" rx="1.5" class="C"/><path d="M138.791 215.201a1.45 1.45 0 0 0-.656-1.093c-.385-.262-.869-.393-1.452-.393-.418 0-.779.066-1.084.199s-.542.308-.711.537a1.27 1.27 0 0 0-.248.77c0 .242.056.451.169.627s.267.323.452.442a3.37 3.37 0 0 0 .607.293l.621.189.994.259c.325.079.658.187 1 .323s.658.315.949.537a2.57 2.57 0 0 1 .706.825c.183.328.274.721.274 1.178 0 .577-.149 1.089-.448 1.537s-.724.8-1.287 1.059-1.238.387-2.034.387c-.762 0-1.422-.121-1.978-.363s-.993-.585-1.308-1.029-.489-.977-.522-1.591h1.541c.03.368.149.675.358.92s.482.423.811.542a3.27 3.27 0 0 0 1.088.174c.435 0 .821-.068 1.159-.204s.61-.331.805-.576.293-.539.293-.87c0-.302-.086-.549-.258-.741s-.399-.352-.691-.478-.615-.236-.98-.333l-1.203-.328c-.815-.222-1.461-.548-1.939-.979s-.711-1.001-.711-1.71c0-.587.16-1.099.478-1.537s.749-.777 1.292-1.019 1.157-.368 1.84-.368c.689 0 1.297.121 1.824.363s.948.575 1.253 1a2.52 2.52 0 0 1 .478 1.451h-1.482zm3.317-2.674h1.864l3.241 7.914h.12l3.241-7.914h1.864v10.181h-1.461v-7.368h-.095l-3.002 7.353h-1.214l-3.002-7.357h-.095v7.372h-1.461v-10.181zm17.977 2.674a1.45 1.45 0 0 0-.656-1.093c-.384-.262-.868-.393-1.452-.393-.417 0-.779.066-1.084.199s-.541.308-.71.537-.249.482-.249.77c0 .242.056.451.169.627s.267.323.452.442a3.4 3.4 0 0 0 .607.293l.621.189.995.259c.325.079.658.187.999.323a4.03 4.03 0 0 1 .95.537 2.58 2.58 0 0 1 .706.825c.182.328.273.721.273 1.178a2.71 2.71 0 0 1-.447 1.537c-.295.447-.725.8-1.288 1.059s-1.238.387-2.033.387c-.763 0-1.422-.121-1.979-.363s-.993-.585-1.308-1.029-.489-.977-.522-1.591h1.541a1.58 1.58 0 0 0 .358.92 1.94 1.94 0 0 0 .811.542c.331.116.694.174 1.089.174.434 0 .82-.068 1.158-.204s.61-.331.805-.576.294-.539.294-.87c0-.302-.087-.549-.259-.741s-.399-.352-.691-.478-.615-.236-.979-.333l-1.203-.328c-.816-.222-1.462-.548-1.939-.979s-.711-1.001-.711-1.71c0-.587.159-1.099.477-1.537s.749-.777 1.293-1.019 1.156-.368 1.839-.368c.689 0 1.298.121 1.825.363s.948.575 1.252 1c.305.42.465.904.478 1.451h-1.482z" class="D"/><rect x="122.119" y="214.208" width="6" height="6" rx="3" fill="#c6a9ff"/><rect width="142" height="33" rx="4" transform="matrix(-1 0 0 1 361.119 200.708)" class="B"/><rect x="337.619" y="210.708" width="13" height="13" rx="1.5" class="C"/><path d="M241.774 212.527v10.181h-1.536v-10.181h1.536zm3.464 5.647v4.534h-1.486v-7.636h1.427v1.243h.094c.176-.404.451-.729.825-.975s.854-.367 1.427-.367c.521 0 .976.109 1.367.328s.695.537.91.964.323.956.323 1.586v4.857h-1.486v-4.678c0-.553-.144-.986-.433-1.297s-.684-.473-1.188-.473c-.344 0-.651.075-.92.224a1.61 1.61 0 0 0-.631.656c-.152.285-.229.63-.229 1.034zm11.24-.412v1.287h-4.514v-1.287h4.514zm2.821 4.946h-1.631l3.664-10.181h1.775l3.664 10.181h-1.63l-2.879-8.332h-.08l-2.883 8.332zm.273-3.987h5.29v1.293h-5.29v-1.293zm8.41 6.851v-10.5h1.452v1.238h.124a4.2 4.2 0 0 1 .373-.552 2.12 2.12 0 0 1 .676-.547c.289-.159.67-.238 1.144-.238.616 0 1.166.155 1.65.467s.864.761 1.139 1.347.417 1.293.417 2.118-.137 1.533-.412 2.123-.653 1.039-1.134 1.357-1.029.473-1.645.473c-.464 0-.844-.078-1.139-.234s-.52-.338-.686-.547a4.14 4.14 0 0 1-.383-.557h-.089v4.052h-1.487zm1.457-6.682c0 .537.078 1.008.234 1.412s.381.721.676.95.656.338 1.084.338c.444 0 .815-.118 1.113-.353s.524-.562.676-.97.234-.866.234-1.377c0-.504-.076-.956-.229-1.357s-.374-.718-.676-.95-.671-.348-1.118-.348c-.431 0-.796.111-1.094.333s-.519.532-.671.93-.229.862-.229 1.392zm7.044 6.682v-10.5h1.452v1.238h.124a4.1 4.1 0 0 1 .373-.552c.162-.209.388-.391.676-.547s.669-.238 1.143-.238c.617 0 1.167.155 1.651.467s.863.761 1.138 1.347.418 1.293.418 2.118-.138 1.533-.413 2.123-.653 1.039-1.133 1.357-1.029.473-1.646.473c-.464 0-.843-.078-1.138-.234s-.521-.338-.686-.547-.294-.394-.383-.557h-.09v4.052h-1.486zm1.457-6.682c0 .537.077 1.008.233 1.412s.381.721.676.95.657.338 1.084.338c.444 0 .816-.118 1.114-.353s.523-.562.676-.97.234-.866.234-1.377c0-.504-.077-.956-.229-1.357s-.375-.718-.676-.95-.671-.348-1.119-.348c-.431 0-.795.111-1.094.333s-.518.532-.671.93-.228.862-.228 1.392zm10.728 3.818v-10.181h3.629c.792 0 1.449.144 1.969.432s.91.683 1.168 1.183.388 1.058.388 1.681-.131 1.19-.393 1.69-.649.892-1.173 1.183-1.175.433-1.964.433h-2.496v-1.303h2.357c.5 0 .906-.086 1.218-.258s.54-.415.686-.716.219-.645.219-1.029-.073-.726-.219-1.024-.376-.532-.691-.701-.722-.254-1.233-.254h-1.929v8.864h-1.536zm13.533-3.167v-4.469h1.492v7.636h-1.462v-1.322h-.08c-.175.408-.457.747-.845 1.019s-.863.403-1.437.403c-.49 0-.924-.108-1.302-.323s-.67-.542-.885-.97-.318-.956-.318-1.586v-4.857h1.486v4.678c0 .521.144.935.433 1.243s.663.463 1.123.463a1.83 1.83 0 0 0 .831-.209c.278-.139.508-.35.691-.632s.276-.639.273-1.074zm9.071-2.605l-1.347.239a1.61 1.61 0 0 0-.269-.492c-.119-.156-.281-.284-.487-.383s-.462-.149-.77-.149c-.421 0-.773.094-1.054.283s-.423.426-.423.721a.76.76 0 0 0 .283.617c.189.155.494.283.915.382l1.213.279c.703.162 1.227.412 1.571.751s.517.777.517 1.317c0 .457-.132.865-.397 1.223s-.629.633-1.099.835-1.009.303-1.626.303c-.855 0-1.553-.182-2.093-.546s-.872-.89-.994-1.566l1.437-.219c.089.374.273.658.551.85s.642.283 1.089.283c.487 0 .877-.101 1.169-.303s.437-.456.437-.751a.78.78 0 0 0-.268-.601c-.176-.163-.446-.285-.811-.368l-1.292-.283c-.713-.163-1.24-.421-1.581-.776s-.508-.804-.508-1.347c0-.451.126-.846.378-1.184s.6-.601 1.044-.79.953-.288 1.527-.288c.825 0 1.475.179 1.949.537s.787.83.939 1.426zm3.13 1.238v4.534h-1.486v-10.181h1.466v3.788h.095c.179-.411.452-.738.82-.979s.849-.363 1.442-.363c.524 0 .981.107 1.372.323s.699.537.915.964.328.955.328 1.591v4.857h-1.487v-4.678c0-.56-.144-.994-.432-1.302s-.69-.468-1.203-.468c-.352 0-.666.075-.945.224s-.492.368-.651.656-.234.63-.234 1.034z" class="D"/><rect x="229.119" y="214.208" width="6" height="6" rx="3" fill="#f9dd88"/><rect width="170" height="33" rx="4" transform="matrix(-1 0 0 1 282.119 249.708)" class="B"/><rect x="258.619" y="259.708" width="13" height="13" rx="1.5" class="C"/><path d="M135.231 271.708l-2.824-10.181h1.616l1.984 7.884h.094l2.064-7.884h1.6l2.064 7.889h.094l1.979-7.889h1.621l-2.829 10.181h-1.546l-2.143-7.626h-.08l-2.143 7.626h-1.551zm13.972.154c-.752 0-1.4-.16-1.944-.482a3.27 3.27 0 0 1-1.253-1.367c-.291-.59-.437-1.281-.437-2.073 0-.782.146-1.472.437-2.068a3.39 3.39 0 0 1 1.233-1.397c.531-.335 1.151-.502 1.86-.502.431 0 .848.071 1.253.213a3.04 3.04 0 0 1 1.088.672c.322.304.575.701.761 1.188s.278 1.072.278 1.765v.527h-6.07v-1.114h4.614c0-.391-.08-.737-.239-1.039s-.383-.545-.671-.721-.62-.263-1.004-.263c-.418 0-.782.102-1.094.308a2.07 2.07 0 0 0-.716.795c-.166.325-.248.678-.248 1.059v.87c0 .511.089.945.268 1.303s.436.631.761.82.704.279 1.138.279c.282 0 .539-.04.771-.12s.432-.205.601-.368.299-.363.388-.601l1.407.253a2.55 2.55 0 0 1-.606 1.089c-.289.308-.652.549-1.089.721s-.93.253-1.487.253zm4.905-.154v-10.181h1.487v3.783h.089a4.2 4.2 0 0 1 .373-.552c.162-.209.388-.391.676-.547s.67-.238 1.144-.238c.616 0 1.166.155 1.65.467s.864.761 1.139 1.347.417 1.293.417 2.118-.137 1.533-.412 2.123-.653 1.039-1.134 1.357-1.029.473-1.645.473c-.464 0-.844-.078-1.139-.234s-.52-.338-.686-.547a4.14 4.14 0 0 1-.383-.557h-.124v1.188h-1.452zm1.457-3.818c0 .537.078 1.008.233 1.412s.382.721.677.95.656.338 1.083.338c.445 0 .816-.118 1.114-.353s.524-.562.676-.97.234-.866.234-1.377c0-.504-.076-.956-.229-1.357s-.374-.718-.676-.95-.671-.348-1.119-.348c-.43 0-.795.111-1.093.333s-.519.532-.671.93-.229.862-.229 1.392zm18.95-6.363v10.181h-1.412l-5.175-7.467h-.095v7.467h-1.536v-10.181h1.422l5.18 7.477h.095v-7.477h1.521zm5.198 10.335c-.716 0-1.34-.164-1.874-.492s-.948-.787-1.243-1.377-.442-1.279-.442-2.068.147-1.485.442-2.078a3.31 3.31 0 0 1 1.243-1.382c.534-.328 1.158-.492 1.874-.492s1.341.164 1.874.492a3.31 3.31 0 0 1 1.243 1.382c.295.593.443 1.286.443 2.078s-.148 1.478-.443 2.068-.709 1.049-1.243 1.377-1.158.492-1.874.492zm.005-1.247c.464 0 .849-.123 1.154-.368s.53-.572.676-.98.223-.856.223-1.347a3.88 3.88 0 0 0-.223-1.342c-.146-.411-.372-.741-.676-.99s-.69-.373-1.154-.373-.855.125-1.163.373-.532.579-.681.99-.219.855-.219 1.342.073.94.219 1.347.376.734.681.98.696.368 1.163.368zm8.639-6.543v1.193h-4.171v-1.193h4.171zm-3.053-1.83h1.487v7.224c0 .289.043.506.129.651s.197.241.333.294.29.074.452.074c.12 0 .224-.008.314-.024l.208-.04.269 1.228c-.086.033-.209.066-.368.099a2.92 2.92 0 0 1-.597.06 2.62 2.62 0 0 1-1.093-.209 1.88 1.88 0 0 1-.821-.676c-.208-.305-.313-.688-.313-1.149v-7.532zm4.557 9.466v-7.636h1.487v7.636h-1.487zm.751-8.814a.94.94 0 0 1-.666-.259c-.183-.175-.274-.384-.274-.626a.83.83 0 0 1 .274-.627c.185-.175.407-.263.666-.263a.92.92 0 0 1 .661.263c.186.173.278.382.278.627a.83.83 0 0 1-.278.626c-.182.173-.403.259-.661.259zm6.23 1.178v1.193h-4.316v-1.193h4.316zm-3.132 7.636v-8.521c0-.477.104-.873.313-1.188a1.92 1.92 0 0 1 .83-.711 2.65 2.65 0 0 1 1.124-.239c.298 0 .553.025.765.075a3.41 3.41 0 0 1 .473.129l-.348 1.203-.269-.069a1.52 1.52 0 0 0-.398-.045c-.361 0-.619.089-.775.268s-.229.438-.229.776v8.322h-1.486zm4.525 0v-7.636h1.487v7.636h-1.487zm.751-8.814c-.258 0-.48-.086-.666-.259a.84.84 0 0 1-.274-.626c0-.245.092-.454.274-.627a.94.94 0 0 1 .666-.263.92.92 0 0 1 .661.263c.186.173.279.382.279.627a.83.83 0 0 1-.279.626c-.182.173-.402.259-.661.259zm5.812 8.968c-.739 0-1.375-.167-1.909-.502a3.32 3.32 0 0 1-1.223-1.397c-.285-.593-.427-1.272-.427-2.038 0-.776.146-1.46.437-2.053s.703-1.063 1.233-1.397 1.155-.502 1.874-.502c.58 0 1.097.107 1.552.323s.82.51 1.098.895.449.833.502 1.347h-1.446a1.74 1.74 0 0 0-.547-.925c-.282-.258-.66-.388-1.134-.388-.414 0-.777.11-1.089.329s-.548.523-.72.924-.259.869-.259 1.412c0 .557.085 1.038.254 1.442s.407.718.716.94a1.84 1.84 0 0 0 1.098.333 1.86 1.86 0 0 0 .766-.154 1.56 1.56 0 0 0 .582-.453 1.7 1.7 0 0 0 .333-.706h1.446c-.053.494-.213.935-.482 1.323s-.628.692-1.079.914-.972.333-1.576.333zm6.809.015c-.484 0-.921-.089-1.312-.268a2.21 2.21 0 0 1-.93-.791c-.225-.344-.338-.767-.338-1.267 0-.431.083-.786.249-1.064a1.82 1.82 0 0 1 .671-.661 3.49 3.49 0 0 1 .944-.368 9.35 9.35 0 0 1 1.064-.189l1.114-.13c.285-.036.492-.094.621-.174s.194-.208.194-.387v-.035c0-.434-.122-.771-.368-1.009-.241-.239-.603-.358-1.083-.358-.501 0-.895.111-1.184.333s-.482.462-.591.731l-1.397-.319c.166-.464.407-.838.726-1.123a2.96 2.96 0 0 1 1.108-.627 4.35 4.35 0 0 1 1.318-.198c.305 0 .628.036.969.109a2.85 2.85 0 0 1 .965.388c.301.189.548.459.74.81s.289.801.289 1.357v5.071h-1.452v-1.044h-.06a2.11 2.11 0 0 1-.432.567c-.192.186-.439.34-.741.462s-.663.184-1.084.184zm.324-1.193c.411 0 .762-.081 1.054-.243a1.72 1.72 0 0 0 .671-.637c.155-.265.233-.548.233-.85v-.984c-.053.053-.155.102-.308.149a4.79 4.79 0 0 1-.512.114l-.562.085-.457.059a3.73 3.73 0 0 0-.791.184c-.235.087-.424.211-.566.373s-.209.371-.209.637c0 .367.136.646.407.835s.619.278 1.04.278zm8.849-6.612v1.193h-4.171v-1.193h4.171zm-3.052-1.83h1.486v7.224c0 .289.043.506.13.651s.197.241.333.294.29.074.452.074c.119 0 .224-.008.313-.024l.209-.04.269 1.228c-.087.033-.209.066-.368.099a2.92 2.92 0 0 1-.597.06c-.391.006-.756-.063-1.094-.209s-.611-.371-.82-.676-.313-.688-.313-1.149v-7.532zm4.557 9.466v-7.636h1.486v7.636h-1.486zm.75-8.814c-.258 0-.48-.086-.666-.259a.84.84 0 0 1-.273-.626c0-.245.091-.454.273-.627a.94.94 0 0 1 .666-.263.92.92 0 0 1 .662.263c.185.173.278.382.278.627s-.093.451-.278.626-.403.259-.662.259zm5.813 8.968c-.716 0-1.341-.164-1.875-.492a3.32 3.32 0 0 1-1.242-1.377c-.295-.59-.443-1.279-.443-2.068s.148-1.485.443-2.078.709-1.054 1.242-1.382 1.159-.492 1.875-.492 1.34.164 1.874.492a3.31 3.31 0 0 1 1.243 1.382c.295.593.442 1.286.442 2.078s-.147 1.478-.442 2.068-.709 1.049-1.243 1.377-1.158.492-1.874.492zm.005-1.247c.464 0 .848-.123 1.153-.368a2.16 2.16 0 0 0 .676-.98c.149-.407.224-.856.224-1.347a3.88 3.88 0 0 0-.224-1.342c-.146-.411-.371-.741-.676-.99s-.689-.373-1.153-.373-.855.125-1.164.373-.532.579-.681.99-.219.855-.219 1.342.073.94.219 1.347.376.734.681.98.696.368 1.164.368zm6.56-3.441v4.534h-1.486v-7.636h1.426v1.243h.095c.176-.404.451-.729.825-.975s.854-.367 1.427-.367c.52 0 .976.109 1.367.328s.695.537.91.964.323.956.323 1.586v4.857h-1.486v-4.678c0-.553-.144-.986-.433-1.297s-.684-.473-1.188-.473c-.345 0-.651.075-.92.224a1.61 1.61 0 0 0-.631.656c-.153.285-.229.63-.229 1.034z" class="D"/><rect x="122.119" y="263.208" width="6" height="6" rx="3" fill="#00cc74"/><rect width="96" height="33" rx="4" transform="matrix(-1 0 0 1 473.119 200.708)" class="B"/><rect x="449.619" y="210.708" width="13" height="13" rx="1.5" class="C"/><path d="M398.238 222.708v-10.181h6.383v1.322h-4.847v3.102h4.514v1.318h-4.514v3.117h4.907v1.322h-6.443zm8.176 0v-7.636h1.427v1.243h.094a1.97 1.97 0 0 1 .781-.984c.361-.239.794-.358 1.297-.358.511 0 .938.119 1.283.358s.605.566.771.984h.079c.183-.408.473-.733.87-.975s.872-.367 1.422-.367c.693 0 1.258.217 1.695.651s.662 1.089.662 1.964v5.12h-1.487v-4.981c0-.517-.141-.892-.422-1.124a1.54 1.54 0 0 0-1.01-.348c-.484 0-.86.149-1.128.448s-.403.674-.403 1.138v4.867h-1.481v-5.076c0-.414-.13-.747-.388-.999s-.595-.378-1.009-.378a1.45 1.45 0 0 0-.781.224c-.235.146-.426.35-.572.611s-.214.566-.214.91v4.708h-1.486zm14.455.169c-.484 0-.921-.089-1.312-.268a2.21 2.21 0 0 1-.93-.791c-.225-.344-.338-.767-.338-1.267 0-.431.083-.786.249-1.064a1.82 1.82 0 0 1 .671-.661 3.49 3.49 0 0 1 .944-.368 9.35 9.35 0 0 1 1.064-.189l1.114-.13c.285-.036.492-.094.621-.174s.194-.208.194-.387v-.035c0-.434-.122-.771-.368-1.009s-.603-.358-1.083-.358c-.501 0-.895.111-1.184.333s-.482.462-.591.731l-1.397-.319a2.67 2.67 0 0 1 .726-1.123 2.96 2.96 0 0 1 1.108-.627 4.35 4.35 0 0 1 1.318-.198c.305 0 .628.036.969.109a2.85 2.85 0 0 1 .965.388c.301.189.548.459.74.81s.289.801.289 1.357v5.071h-1.452v-1.044h-.06a2.11 2.11 0 0 1-.432.567c-.192.186-.439.34-.741.462s-.663.184-1.084.184zm.323-1.193c.411 0 .763-.081 1.054-.243s.519-.375.672-.637.233-.548.233-.85v-.984c-.053.053-.155.102-.308.149a4.79 4.79 0 0 1-.512.114l-.562.085-.457.059a3.73 3.73 0 0 0-.791.184c-.235.087-.424.211-.566.373s-.209.371-.209.637c0 .367.136.646.407.835s.619.278 1.039.278zm5.286 1.024v-7.636h1.486v7.636h-1.486zm.75-8.814c-.258 0-.48-.086-.666-.259a.84.84 0 0 1-.273-.626c0-.245.091-.454.273-.627a.94.94 0 0 1 .666-.263.92.92 0 0 1 .662.263c.185.173.278.382.278.627s-.093.451-.278.626-.403.259-.662.259zm4.083-1.367v10.181h-1.487v-10.181h1.487z" class="D"/><rect x="387.119" y="214.208" width="6" height="6" rx="3" fill="#8199fd"/><path d="M144.03 361.819c3.42 0 4.716-1.728 4.716-3.654 0-1.764-.864-3.096-3.402-3.582l-2.142-.414c-1.404-.27-1.728-.45-1.728-1.224 0-.756.486-1.098 2.034-1.098 1.782 0 2.304.414 2.304 1.674v.198h2.664v-.144c0-2.394-1.44-4.176-4.878-4.176-3.456 0-4.806 1.818-4.806 3.654 0 1.872.972 3.042 3.276 3.438l2.124.378c1.692.288 1.872.576 1.872 1.386s-.378 1.116-1.908 1.116c-2.178 0-2.664-.378-2.664-1.71v-.18h-2.646v.234c0 2.664 1.638 4.104 5.184 4.104zm10.607 0c2.592 0 4.248-1.134 4.248-3.06v-.18h-2.664v.108c0 .558-.468.792-1.548.792-1.476 0-1.98-.504-2.034-1.764h6.21a8.16 8.16 0 0 0 .126-1.332c0-2.358-1.602-3.978-4.32-3.978-2.826 0-4.554 1.836-4.554 4.734 0 2.862 1.422 4.68 4.536 4.68zm-.072-7.2c1.26 0 1.872.522 1.818 1.458h-3.726c.108-.954.612-1.458 1.908-1.458zm9.859 6.066c1.368 0 2.322-.612 2.718-1.314h.108v1.404c0 1.404-.288 1.728-1.71 1.728-1.548 0-1.818-.234-1.818-1.17h-2.682c0 2.304 1.584 3.546 4.41 3.546 2.916 0 4.482-1.296 4.482-4.248v-8.046h-2.502v1.314h-.09c-.486-.99-1.512-1.494-2.808-1.494-2.574 0-3.942 1.638-3.942 4.158s1.332 4.122 3.834 4.122zm-1.152-4.122c0-1.278.45-1.872 1.998-1.872 1.296 0 1.98.45 1.98 1.602v.54c0 1.152-.702 1.602-1.998 1.602-1.53 0-1.98-.594-1.98-1.872zm11.534 5.076v-5.238c0-1.278.54-1.674 1.764-1.674 1.296 0 1.692.45 1.692 1.71v5.202h2.7v-5.202c0-1.314.522-1.71 1.746-1.71 1.314 0 1.692.45 1.692 1.71v5.202h2.7v-5.742c0-1.926-.954-3.492-3.294-3.492-1.674 0-2.574.774-3.078 1.764h-.09c-.45-1.062-1.386-1.764-2.934-1.764s-2.484.738-2.97 1.764h-.108v-1.584h-2.502v9.054h2.682zm18.593.18c2.592 0 4.248-1.134 4.248-3.06v-.18h-2.664v.108c0 .558-.468.792-1.548.792-1.476 0-1.98-.504-2.034-1.764h6.21a8.16 8.16 0 0 0 .126-1.332c0-2.358-1.602-3.978-4.32-3.978-2.826 0-4.554 1.836-4.554 4.734 0 2.862 1.422 4.68 4.536 4.68zm-.072-7.2c1.26 0 1.872.522 1.818 1.458h-3.726c.108-.954.612-1.458 1.908-1.458zm8.926 7.02v-5.13c0-1.368.558-1.782 1.854-1.782 1.368 0 1.782.45 1.782 1.71v5.202h2.7v-5.742c0-1.926-1.008-3.492-3.366-3.492-1.584 0-2.556.738-3.042 1.764h-.108v-1.584h-2.502v9.054h2.682zm12.563.036a9.52 9.52 0 0 0 1.764-.18v-2.25h-1.116c-1.17 0-1.44-.09-1.44-.882v-3.546h2.556v-2.232h-2.556v-2.106H211.9l-.504 2.106h-1.512v2.232h1.44v3.852c0 2.142 1.134 3.006 3.492 3.006zm7.497.144c2.502 0 3.888-1.08 3.888-2.772 0-1.476-.792-2.34-2.7-2.7l-1.656-.342c-1.08-.216-1.242-.342-1.242-.774s.252-.666 1.332-.666c1.152 0 1.404.324 1.404.918v.252h2.574v-.252c0-2.034-1.692-3.078-3.906-3.078-2.574 0-3.942 1.188-3.942 2.862s.972 2.43 2.754 2.754l1.368.252c1.206.216 1.458.324 1.458.81 0 .45-.18.612-1.278.612-1.314 0-1.71-.144-1.71-.81v-.378h-2.574v.054c0 2.196 1.386 3.258 4.23 3.258z" fill="#000"/><g clip-path="url(#B)"><path d="M113.833 346.472h1.222v20.167h-1.222v-20.167z" fill="#ccd6dd"/><path d="M114.445 348.306c1.012 0 1.833-.821 1.833-1.834s-.821-1.833-1.833-1.833-1.834.821-1.834 1.833.821 1.834 1.834 1.834z" fill="#f4900c"/><path d="M117.5 361.75h-3.056a.61.61 0 1 1 0-1.222h3.056a.61.61 0 1 1 0 1.222z" fill="#66757f"/><path d="M130.944 361.139c0-1.35 3.794-3.667 2.444-3.667h-5.162c-.735-.894-2.808-1.833-4.31-1.833s-1.974.939-2.099 1.833h-3.706c-1.35 0-1.834 1.095-1.834 2.445v2.444c0 1.35.484 2.445 1.834 2.445h15.277c1.35 0-2.444-2.317-2.444-3.667z" fill="#dd2e44"/><path d="M119.333 361.75c1.013 0 1.834-.821 1.834-1.833s-.821-1.834-1.834-1.834-1.833.821-1.833 1.834.821 1.833 1.833 1.833z" class="B"/><path d="M119.028 360.528c.506 0 .917-.41.917-.917s-.411-.916-.917-.916-.917.41-.917.916.411.917.917.917z" fill="#000"/><path d="M133.389 357.472h-11.634c1.264 1.397 2.898 3.951-.023 7.334h11.657c1.35 0-2.444-2.317-2.444-3.667s3.794-3.667 2.444-3.667z" fill="#f4abba"/><path d="M117.5 351.972h-3.056a.61.61 0 1 1 0-1.222h3.056a.61.61 0 1 1 0 1.222z" fill="#66757f"/><path d="M130.944 351.361c0-1.35 3.794-3.666 2.444-3.666h-5.161c-.735-.895-2.808-1.834-4.311-1.834s-1.974.939-2.099 1.834h-3.706c-1.35 0-1.834 1.094-1.834 2.444v2.444c0 1.35.484 2.445 1.834 2.445h15.277c1.35 0-2.444-2.317-2.444-3.667z" fill="#55acee"/><path d="M119.333 351.972c1.013 0 1.834-.82 1.834-1.833s-.821-1.833-1.834-1.833-1.833.82-1.833 1.833.821 1.833 1.833 1.833z" class="B"/><path d="M119.028 350.75c.506 0 .917-.41.917-.916s-.411-.917-.917-.917-.917.41-.917.917.411.916.917.916z" fill="#000"/><path d="M133.389 347.695h-11.634c1.264 1.397 2.898 3.95-.023 7.333h11.657c1.35 0-2.444-2.317-2.444-3.667s3.794-3.666 2.444-3.666z" fill="#bbddf5"/></g><rect x="112.5" y="394.139" width="371" height="47" rx="3.5" class="B"/><rect x="131.389" y="411.139" width="13" height="13" rx="1.5" class="C"/><rect x="347.889" y="413.639" width="105" height="8" rx="4" fill="#eef1f7"/><g clip-path="url(#C)"><path d="M167.25 417.278l2.889-2.528 5.778.361.361 5.778-2.528 2.889s0-2.166-2.167-4.333-4.333-2.167-4.333-2.167z" fill="#a0041e"/><path d="M167.24 423.778s-.013-2.881 1.078-3.972 3.988-1.016 3.988-1.016-.001 2.821-1.084 3.905-3.982 1.083-3.982 1.083z" fill="#ffac33"/><path d="M170.139 422.333c.798 0 1.444-.646 1.444-1.444s-.646-1.444-1.444-1.444-1.445.646-1.445 1.444.647 1.444 1.445 1.444z" fill="#ffcc4d"/><path d="M179.888 411.139s-3.611 0-7.944 3.611c-2.167 1.806-2.167 5.056-1.445 5.778s3.973.722 5.778-1.445c3.611-4.333 3.611-7.944 3.611-7.944z" fill="#55acee"/><path d="M176.638 412.945c-.586 0-1.088.35-1.315.852.182-.082.381-.13.593-.13.798 0 1.444.647 1.444 1.444a1.44 1.44 0 0 1-.129.592 1.44 1.44 0 0 0 .851-1.314c0-.798-.646-1.444-1.444-1.444z" fill="#000"/><path d="M169.777 421.25s0-1.444.361-1.805 4.695-3.972 5.056-3.611-3.25 4.694-3.611 5.055-1.806.361-1.806.361z" fill="#a0041e"/></g><path d="M191.46 413.412h1.321v5.74c0 .611-.144 1.152-.431 1.623s-.69.838-1.21 1.108-1.129.401-1.828.401-1.304-.134-1.824-.401-.923-.639-1.21-1.108-.431-1.012-.431-1.623v-5.74h1.317v5.633c0 .395.087.746.26 1.053s.425.548.746.724.702.26 1.142.26.825-.086 1.146-.26.571-.417.742-.724.26-.658.26-1.053v-5.633zm7.918 3.78l-1.155.204c-.048-.148-.125-.288-.23-.422a1.15 1.15 0 0 0-.418-.328c-.176-.085-.396-.128-.66-.128-.361 0-.662.081-.904.243s-.362.365-.362.618a.65.65 0 0 0 .243.529c.162.133.423.242.784.328l1.04.238c.602.139 1.051.354 1.346.644s.444.666.444 1.129c0 .392-.114.741-.341 1.048s-.539.543-.942.716-.865.26-1.394.26c-.733 0-1.331-.156-1.794-.469s-.747-.762-.852-1.342l1.232-.187c.076.321.234.563.473.728s.549.243.933.243c.417 0 .751-.086 1.001-.26s.375-.39.375-.643c0-.205-.076-.377-.23-.516s-.382-.244-.694-.315l-1.108-.243c-.611-.139-1.063-.361-1.355-.665s-.435-.689-.435-1.155a1.65 1.65 0 0 1 .324-1.014c.216-.29.514-.516.895-.677s.816-.248 1.308-.248c.707 0 1.264.154 1.67.461s.675.711.806 1.223zm4.229 5.079c-.644 0-1.2-.138-1.666-.413s-.821-.669-1.074-1.172-.375-1.098-.375-1.777c0-.671.125-1.261.375-1.773a2.92 2.92 0 0 1 1.057-1.197c.455-.287.986-.431 1.594-.431a3.19 3.19 0 0 1 1.074.184c.346.122.658.314.933.575s.493.601.652 1.018.239.919.239 1.513v.452h-5.203v-.955h3.954c0-.335-.068-.632-.204-.89s-.329-.468-.576-.618-.531-.226-.86-.226c-.358 0-.671.088-.938.264s-.469.401-.614.682-.213.581-.213.908v.745c0 .438.077.81.23 1.117a1.67 1.67 0 0 0 .652.703c.279.159.604.239.976.239.242 0 .462-.035.661-.103s.371-.176.515-.315a1.37 1.37 0 0 0 .333-.516l1.206.218a2.19 2.19 0 0 1-.52.933c-.247.264-.558.47-.933.618s-.797.217-1.275.217zm4.102-.132v-6.545h1.232v1.039h.068c.119-.352.33-.629.631-.831a1.81 1.81 0 0 1 1.031-.306l.281.008.26.021v1.219c-.051-.014-.142-.03-.272-.047a2.6 2.6 0 0 0-.393-.03 1.66 1.66 0 0 0-.805.192c-.233.125-.418.3-.554.524s-.204.475-.204.759v3.997h-1.275zm9.391-4.947l-1.155.204c-.048-.148-.125-.288-.23-.422a1.14 1.14 0 0 0-.418-.328c-.176-.085-.396-.128-.66-.128-.361 0-.662.081-.904.243s-.362.365-.362.618a.65.65 0 0 0 .243.529c.162.133.423.242.784.328l1.04.238c.602.139 1.051.354 1.346.644s.444.666.444 1.129c0 .392-.114.741-.341 1.048s-.539.543-.942.716-.865.26-1.394.26c-.733 0-1.331-.156-1.794-.469s-.747-.762-.852-1.342l1.232-.187c.076.321.234.563.473.728s.549.243.933.243c.418 0 .751-.086 1.001-.26s.375-.39.375-.643c0-.205-.076-.377-.23-.516s-.382-.244-.694-.315l-1.108-.243c-.611-.139-1.063-.361-1.355-.665s-.435-.689-.435-1.155a1.65 1.65 0 0 1 .324-1.014c.216-.29.514-.516.895-.677s.816-.248 1.308-.248c.707 0 1.264.154 1.67.461s.675.711.806 1.223zm5.738 1.061v3.886h-1.274v-6.545h1.223v1.065h.081a1.87 1.87 0 0 1 .708-.835c.323-.211.731-.316 1.223-.316.446 0 .836.094 1.172.282s.595.46.779.826.277.82.277 1.36v4.163h-1.274v-4.01c0-.474-.123-.845-.371-1.112s-.586-.405-1.018-.405c-.295 0-.558.064-.788.192a1.38 1.38 0 0 0-.542.562c-.13.245-.196.54-.196.887zm8.599 4.018c-.645 0-1.2-.138-1.666-.413s-.821-.669-1.074-1.172-.375-1.098-.375-1.777c0-.671.125-1.261.375-1.773s.605-.91 1.057-1.197.986-.431 1.594-.431a3.19 3.19 0 0 1 1.074.184 2.61 2.61 0 0 1 .933.575c.275.261.493.601.652 1.018s.238.919.238 1.513v.452h-5.203v-.955h3.955a1.87 1.87 0 0 0-.205-.89c-.136-.262-.328-.468-.575-.618s-.531-.226-.861-.226c-.358 0-.67.088-.937.264a1.77 1.77 0 0 0-.614.682c-.142.278-.213.581-.213.908v.745c0 .438.077.81.23 1.117s.374.541.652.703.604.239.976.239c.241 0 .462-.035.66-.103a1.43 1.43 0 0 0 .516-.315c.145-.139.256-.311.332-.516l1.206.218c-.096.355-.269.666-.519.933s-.559.47-.934.618a3.49 3.49 0 0 1-1.274.217zm5.509-.132l-1.926-6.545h1.317l1.283 4.806h.064l1.287-4.806h1.316l1.279 4.785h.064l1.274-4.785h1.317l-1.922 6.545h-1.3l-1.33-4.726h-.098l-1.329 4.726h-1.296zm9.638-8.727v8.727h-1.274v-8.727h1.274zm2.399 11.182a2.67 2.67 0 0 1-.519-.047c-.157-.029-.273-.06-.35-.094l.307-1.044c.233.062.44.089.622.081a.75.75 0 0 0 .482-.205c.142-.127.267-.336.375-.626l.157-.435-2.395-6.63h1.364l1.658 5.079h.068l1.658-5.079h1.367l-2.697 7.419c-.125.341-.284.629-.477.865s-.424.417-.691.537-.576.179-.929.179zm11.685-2.323c-.614 0-1.149-.14-1.607-.422s-.812-.674-1.065-1.18-.379-1.097-.379-1.773.126-1.273.379-1.781.608-.904 1.065-1.185.993-.422 1.607-.422 1.149.141 1.606.422.813.676 1.066 1.185.379 1.102.379 1.781-.127 1.267-.379 1.773-.608.899-1.066 1.18-.993.422-1.606.422zm.004-1.069c.398 0 .727-.106.989-.316s.454-.49.579-.839a3.34 3.34 0 0 0 .192-1.155c0-.418-.064-.801-.192-1.151s-.318-.635-.579-.848-.591-.319-.989-.319-.733.106-.997.319a1.91 1.91 0 0 0-.584.848c-.125.35-.187.733-.187 1.151s.062.805.187 1.155a1.88 1.88 0 0 0 .584.839c.264.21.596.316.997.316zm5.623-2.949v3.886h-1.274v-6.545h1.223v1.065h.081c.151-.347.386-.625.708-.835s.731-.316 1.223-.316c.446 0 .836.094 1.171.282a1.87 1.87 0 0 1 .78.826c.185.367.277.82.277 1.36v4.163h-1.274v-4.01c0-.474-.124-.845-.371-1.112s-.586-.405-1.018-.405a1.59 1.59 0 0 0-.788.192 1.38 1.38 0 0 0-.542.562c-.13.245-.196.54-.196.887zm5.88 3.886v-8.727h1.274v3.243h.077c.074-.137.181-.294.32-.473s.332-.336.579-.469.574-.205.98-.205c.529 0 1 .134 1.415.401s.74.652.976 1.155.358 1.108.358 1.815-.118 1.314-.354 1.82-.559.89-.971 1.163-.882.405-1.411.405c-.398 0-.723-.067-.976-.2s-.446-.29-.588-.469-.251-.338-.328-.477h-.106v1.018h-1.245zm1.249-3.273a3.37 3.37 0 0 0 .2 1.211c.134.346.327.617.58.813s.562.29.929.29c.38 0 .699-.101.954-.302s.449-.482.58-.831.2-.743.2-1.181c0-.432-.065-.819-.196-1.163s-.321-.615-.58-.814-.575-.298-.958-.298c-.37 0-.682.095-.938.285s-.444.456-.575.797-.196.739-.196 1.193zm8.798 3.405c-.614 0-1.149-.14-1.607-.422s-.812-.674-1.065-1.18-.379-1.097-.379-1.773.126-1.273.379-1.781.608-.904 1.065-1.185.993-.422 1.607-.422 1.149.141 1.606.422.813.676 1.066 1.185.379 1.102.379 1.781-.126 1.267-.379 1.773-.608.899-1.066 1.18-.993.422-1.606.422zm.004-1.069c.398 0 .727-.106.989-.316s.454-.49.579-.839a3.34 3.34 0 0 0 .192-1.155c0-.418-.064-.801-.192-1.151s-.318-.635-.579-.848-.591-.319-.989-.319-.733.106-.997.319a1.91 1.91 0 0 0-.584.848c-.125.35-.187.733-.187 1.151s.062.805.187 1.155a1.88 1.88 0 0 0 .584.839c.264.21.597.316.997.316zm6.254 1.082c-.415 0-.79-.077-1.125-.23a1.89 1.89 0 0 1-.797-.678c-.193-.295-.29-.657-.29-1.086 0-.37.071-.674.213-.912s.334-.428.576-.567.511-.244.809-.315.603-.125.912-.162l.955-.111c.244-.031.422-.081.533-.149s.166-.179.166-.333v-.03c0-.372-.105-.66-.316-.865s-.517-.306-.929-.306c-.429 0-.767.095-1.014.285s-.413.396-.507.627l-1.197-.273c.142-.398.349-.719.622-.963s.592-.426.95-.537.734-.171 1.129-.171a4.01 4.01 0 0 1 .831.094c.296.06.571.171.827.332a1.84 1.84 0 0 1 .635.695c.165.298.247.686.247 1.163v4.347h-1.244v-.895h-.051c-.083.165-.206.327-.371.486s-.376.291-.635.396-.568.158-.929.158zm.277-1.023c.352 0 .653-.069.903-.209s.445-.321.576-.545a1.42 1.42 0 0 0 .2-.729v-.844c-.045.046-.134.089-.264.128s-.274.07-.439.098l-.482.073-.392.051c-.247.031-.473.084-.677.158s-.364.18-.486.319-.179.318-.179.546c0 .315.116.554.349.716s.53.238.891.238zm4.53.878v-6.545h1.232v1.039h.068a1.58 1.58 0 0 1 .631-.831c.304-.204.647-.306 1.031-.306l.281.008.26.021v1.219a2.3 2.3 0 0 0-.273-.047c-.13-.02-.261-.03-.392-.03a1.66 1.66 0 0 0-.805.192c-.233.125-.418.3-.554.524s-.205.475-.205.759v3.997h-1.274zm6.702.128c-.529 0-1-.135-1.415-.405s-.736-.66-.972-1.163-.349-1.113-.349-1.82.118-1.312.354-1.815.565-.888.98-1.155.885-.401 1.41-.401c.406 0 .733.069.98.205a1.75 1.75 0 0 1 .58.469 3.97 3.97 0 0 1 .324.473h.076v-3.243h1.275v8.727h-1.245v-1.018h-.106a3.41 3.41 0 0 1-.333.477c-.142.179-.338.335-.588.469s-.574.2-.971.2zm.281-1.087c.366 0 .676-.096.929-.29s.449-.467.579-.813.201-.75.201-1.211c0-.454-.066-.852-.196-1.193s-.323-.606-.576-.797-.565-.285-.937-.285c-.384 0-.703.099-.959.298s-.449.47-.579.814-.192.731-.192 1.163c0 .438.065.831.196 1.181s.324.626.579.831.577.302.955.302zm7.481 1.091c-.645 0-1.2-.138-1.666-.413s-.821-.669-1.074-1.172-.375-1.098-.375-1.777c0-.671.125-1.261.375-1.773s.605-.91 1.057-1.197.986-.431 1.594-.431a3.18 3.18 0 0 1 1.073.184c.347.122.658.314.934.575s.493.601.652 1.018.238.919.238 1.513v.452h-5.203v-.955h3.955a1.87 1.87 0 0 0-.205-.89c-.136-.262-.328-.468-.575-.618s-.531-.226-.861-.226c-.358 0-.67.088-.937.264a1.77 1.77 0 0 0-.614.682c-.142.278-.213.581-.213.908v.745c0 .438.077.81.23 1.117s.374.541.652.703.604.239.976.239c.241 0 .462-.035.66-.103a1.43 1.43 0 0 0 .516-.315c.145-.139.256-.311.332-.516l1.206.218c-.096.355-.27.666-.52.933s-.558.47-.933.618a3.49 3.49 0 0 1-1.274.217zm6.552-.004c-.528 0-1-.135-1.414-.405s-.736-.66-.972-1.163-.349-1.113-.349-1.82.117-1.312.353-1.815.566-.888.98-1.155a2.55 2.55 0 0 1 1.411-.401c.406 0 .733.069.98.205s.443.29.579.469.248.336.324.473h.077v-3.243h1.274v8.727h-1.244v-1.018h-.107a3.31 3.31 0 0 1-.332.477c-.142.179-.338.335-.588.469s-.574.2-.972.2zm.282-1.087c.366 0 .676-.096.929-.29s.448-.467.579-.813.2-.75.2-1.211c0-.454-.065-.852-.196-1.193a1.75 1.75 0 0 0-.575-.797c-.253-.19-.565-.285-.937-.285-.384 0-.704.099-.959.298s-.449.47-.58.814-.192.731-.192 1.163a3.37 3.37 0 0 0 .196 1.181c.131.349.324.626.58.831s.577.302.955.302z" class="D"/><rect x="112.5" y="394.139" width="371" height="47" rx="3.5" stroke="#000"/><g stroke-width="2"><path d="M114.546 312.776h364.145" class="C"/><rect x="-1" y="1" width="419" height="345" rx="7" transform="matrix(-1 0 0 1 510.786 124.639)" stroke="#e1e8f2" stroke-dasharray="8 8"/></g><defs><clipPath id="A"><path transform="translate(112.119 144.639)" d="M0 0h22v22H0z" class="B"/></clipPath><clipPath id="B"><path transform="translate(112 344.639)" d="M0 0h22v22H0z" class="B"/></clipPath><clipPath id="C"><path transform="translate(166.889 411.139)" d="M0 0h13v13H0z" class="B"/></clipPath></defs></svg>