<svg width="608" height="561" viewBox="0 0 608 561" fill="none" xmlns="http://www.w3.org/2000/svg">
<path d="M48.4961 -31.3209L48.496 47.3187M48.496 591.792L48.496 311.482M48.496 245.74L48.496 97.5217" stroke="#97969C" stroke-dasharray="4 4"/>
<path d="M150.688 -30.944L150.687 371.101M150.687 591.617L150.687 395.774" stroke="#97969C" stroke-dasharray="4 4"/>
<path d="M252.379 -31.1334L252.379 133.66M252.379 591.614L252.379 510.368M252.379 216.375L252.379 460.769" stroke="#97969C" stroke-dasharray="4 4"/>
<path d="M355.07 -30.944L355.07 59.7994M355.07 591.61L355.07 84.1019" stroke="#97969C" stroke-dasharray="4 4"/>
<path d="M457.261 -31.1315L457.262 342.561M457.262 591.618L457.262 425.634" stroke="#97969C" stroke-dasharray="4 4"/>
<path d="M559.453 -31.3229L559.453 152.505M559.453 591.607L559.453 288.589M559.453 198.524L559.453 271.355" stroke="#97969C" stroke-dasharray="4 4"/>
<path d="M608 487.288L277.773 487.288M0 487.288L228.393 487.288" stroke="#97969C" stroke-dasharray="4 4"/>
<path d="M608 383.495H495.737M0 383.495L138.654 383.495M417.532 383.495H163.326" stroke="#97969C" stroke-dasharray="4 4"/>
<path d="M608 175.91H582.328M0 175.91L211.292 175.91M292 175.91L534.642 175.91" stroke="#97969C" stroke-dasharray="4 4"/>
<path d="M608 279.703H568.52M0 279.703H15.3224M80.6456 279.703L550.88 279.703" stroke="#97969C" stroke-dasharray="4 4"/>
<path d="M608 72.1166L368.442 72.1166M0 72.1166H25.1209M73.46 72.1166L342.478 72.1166" stroke="#97969C" stroke-dasharray="4 4"/>
<path d="M252.379 511.269L242.197 497.451L228.379 487.269L242.197 477.087L252.379 463.269L262.561 477.087L276.379 487.269L262.561 497.451L252.379 511.269Z" stroke="#97969C" stroke-dasharray="4 4"/>
<path d="M48.5195 96.0345L38.3372 82.2169L24.5195 72.0345L38.3372 61.8522L48.5195 48.0345L58.7019 61.8522L72.5195 72.0345L58.7019 82.2169L48.5195 96.0345Z" stroke="#97969C" stroke-dasharray="4 4"/>
<path d="M559.398 199.765L549.216 185.947L535.398 175.765L549.216 165.583L559.398 151.765L569.581 165.583L583.398 175.765L569.581 185.947L559.398 199.765Z" stroke="#97969C" stroke-dasharray="4 4"/>
<path d="M48.5312 311.619L34.9548 293.195L16.5312 279.619L34.9548 266.042L48.5312 247.619L62.1077 266.042L80.5312 279.619L62.1077 293.195L48.5312 311.619Z" stroke="#97969C" stroke-dasharray="4 4"/>
<path d="M457.246 423.525L440.276 400.495L417.246 383.525L440.276 366.554L457.246 343.525L474.217 366.554L497.246 383.525L474.217 400.495L457.246 423.525Z" stroke="#97969C" stroke-dasharray="4 4"/>
<path d="M252.379 215.915L235.408 192.886L212.379 175.915L235.408 158.945L252.379 135.915L269.349 158.945L292.379 175.915L269.349 192.886L252.379 215.915Z" stroke="#97969C" stroke-dasharray="4 4"/>
<circle cx="150.754" cy="383.495" r="12" transform="rotate(180 150.754 383.495)" stroke="#97969C" stroke-dasharray="4 4"/>
<circle cx="559.453" cy="279.703" r="8" transform="rotate(180 559.453 279.703)" stroke="#97969C" stroke-dasharray="4 4"/>
<circle cx="355.402" cy="72.1166" r="12" transform="rotate(180 355.402 72.1166)" stroke="#97969C" stroke-dasharray="4 4"/>
<rect x="-2" y="2" width="441.955" height="422.315" rx="6" transform="matrix(-1 0 0 1 501.889 73.6403)" fill="#121212"/>
<rect x="-2" y="2" width="441.955" height="422.315" rx="6" transform="matrix(-1 0 0 1 501.889 73.6403)" stroke="#121212" stroke-width="4"/>
<rect x="-2" y="2" width="441.12" height="419.085" rx="6" transform="matrix(-1 0 0 1 520.825 60.7211)" fill="#F5F6F8"/>
<rect x="-2" y="2" width="441.12" height="419.085" rx="6" transform="matrix(-1 0 0 1 520.825 60.7211)" stroke="#121212" stroke-width="4"/>
<rect x="91.7861" y="73.639" width="422" height="38" rx="4" fill="white"/>
<rect x="108.786" y="87.639" width="10" height="10" rx="5" fill="#EB5757"/>
<rect x="126.786" y="87.639" width="10" height="10" rx="5" fill="#F2C94C"/>
<rect x="144.786" y="87.639" width="10" height="10" rx="5" fill="#27AE60"/>
<path d="M488.224 86.639C488.224 86.0868 487.776 85.639 487.224 85.639C486.671 85.639 486.224 86.0868 486.224 86.639H488.224ZM486.224 98.639C486.224 99.1913 486.671 99.639 487.224 99.639C487.776 99.639 488.224 99.1913 488.224 98.639H486.224ZM486.224 86.639V98.639H488.224V86.639H486.224Z" fill="#E7EDF5"/>
<path d="M493.224 93.639C493.776 93.639 494.224 93.1913 494.224 92.639C494.224 92.0868 493.776 91.639 493.224 91.639L493.224 93.639ZM481.224 91.639C480.671 91.639 480.224 92.0868 480.224 92.639C480.224 93.1913 480.671 93.639 481.224 93.639L481.224 91.639ZM493.224 91.639L481.224 91.639L481.224 93.639L493.224 93.639L493.224 91.639Z" fill="#E7EDF5"/>
<rect x="-1" y="1" width="419" height="345" rx="7" transform="matrix(-1 0 0 1 510.786 124.639)" fill="#F5F6F8"/>
<path d="M144.473 161.819C148.037 161.819 149.963 159.947 149.963 156.959V156.797H147.083V156.887C147.083 158.615 146.363 159.209 144.455 159.209C142.421 159.209 141.575 158.471 141.575 155.609C141.575 152.747 142.421 152.009 144.455 152.009C146.363 152.009 147.083 152.603 147.083 154.331V154.421H149.963V154.259C149.963 151.271 148.037 149.399 144.473 149.399C140.855 149.399 138.695 151.847 138.695 155.609C138.695 159.371 140.855 161.819 144.473 161.819ZM154.632 161.639V156.527C154.632 155.159 155.19 154.727 156.486 154.727C157.854 154.727 158.268 155.177 158.268 156.437V161.639H160.968V155.897C160.968 153.971 159.996 152.405 157.656 152.405C156.216 152.405 155.226 153.143 154.74 153.989H154.632V149.579H151.95V161.639H154.632ZM165.556 161.819C167.23 161.819 168.148 161.081 168.634 160.415H168.742V161.639H171.244V156.275C171.244 153.863 169.84 152.405 167.176 152.405C164.62 152.405 162.946 153.827 162.946 155.987V156.185H165.52V155.987C165.52 155.069 165.952 154.763 167.05 154.763C168.112 154.763 168.688 154.961 168.688 156.023V156.311L165.592 156.779C163.72 157.067 162.712 157.931 162.712 159.335C162.712 160.973 163.954 161.819 165.556 161.819ZM165.286 159.119C165.286 158.741 165.538 158.561 166.096 158.471L168.688 158.075C168.688 159.479 167.554 159.767 166.456 159.767C165.664 159.767 165.286 159.605 165.286 159.119ZM176.067 161.639V156.509C176.067 155.141 176.625 154.727 177.921 154.727C179.289 154.727 179.703 155.177 179.703 156.437V161.639H182.403V155.897C182.403 153.971 181.395 152.405 179.037 152.405C177.453 152.405 176.481 153.143 175.995 154.169H175.887V152.585H173.385V161.639H176.067ZM187.207 161.639V156.509C187.207 155.141 187.765 154.727 189.061 154.727C190.429 154.727 190.843 155.177 190.843 156.437V161.639H193.543V155.897C193.543 153.971 192.535 152.405 190.177 152.405C188.593 152.405 187.621 153.143 187.135 154.169H187.027V152.585H184.525V161.639H187.207ZM199.824 161.819C202.416 161.819 204.072 160.685 204.072 158.759V158.579H201.408V158.687C201.408 159.245 200.94 159.479 199.86 159.479C198.384 159.479 197.88 158.975 197.826 157.715H204.036C204.09 157.409 204.162 156.887 204.162 156.383C204.162 154.025 202.56 152.405 199.842 152.405C197.016 152.405 195.288 154.241 195.288 157.139C195.288 160.001 196.71 161.819 199.824 161.819ZM199.752 154.619C201.012 154.619 201.624 155.141 201.57 156.077H197.844C197.952 155.123 198.456 154.619 199.752 154.619ZM208.695 161.639V149.579H206.013V161.639H208.695ZM214.838 161.819C217.34 161.819 218.726 160.739 218.726 159.047C218.726 157.571 217.934 156.707 216.026 156.347L214.37 156.005C213.29 155.789 213.128 155.663 213.128 155.231C213.128 154.799 213.38 154.565 214.46 154.565C215.612 154.565 215.864 154.889 215.864 155.483V155.735H218.438V155.483C218.438 153.449 216.746 152.405 214.532 152.405C211.958 152.405 210.59 153.593 210.59 155.267C210.59 156.941 211.562 157.697 213.344 158.021L214.712 158.273C215.918 158.489 216.17 158.597 216.17 159.083C216.17 159.533 215.99 159.695 214.892 159.695C213.578 159.695 213.182 159.551 213.182 158.885V158.507H210.608V158.561C210.608 160.757 211.994 161.819 214.838 161.819Z" fill="black"/>
<g clip-path="url(#clip0_6354_40618)">
<path d="M129.759 148.999C134.257 153.496 135.473 159.573 132.474 162.571C129.476 165.57 123.399 164.354 118.901 159.857C118.749 159.704 118.609 159.545 118.464 159.389L121.163 156.69C124.661 160.188 129.117 161.404 131.116 159.404C133.115 157.405 131.899 152.949 128.402 149.451L128.415 149.464L128.402 149.45C124.405 145.452 118.936 144.44 116.188 147.188C114.858 148.517 114.417 150.484 114.759 152.61C114.234 150.115 114.667 147.803 116.188 146.284C119.186 143.285 125.262 144.501 129.759 148.999Z" fill="#FDD888"/>
<path d="M123.976 165.417C123.822 165.417 123.669 165.37 123.537 165.276L120.435 163.051L117.333 165.276C117.068 165.465 116.714 165.465 116.451 165.273C116.188 165.082 116.078 164.745 116.176 164.436L117.333 160.702L114.259 158.536C113.997 158.343 113.889 158.005 113.989 157.695C114.09 157.387 114.376 157.178 114.701 157.175L118.457 157.168L119.72 153.528C119.823 153.22 120.111 153.012 120.435 153.012C120.76 153.012 121.048 153.22 121.15 153.528L122.291 157.168L126.169 157.175C126.495 157.178 126.782 157.387 126.881 157.695C126.982 158.005 126.873 158.343 126.611 158.536L123.537 160.702L124.694 164.436C124.793 164.745 124.681 165.083 124.419 165.273C124.287 165.369 124.131 165.417 123.976 165.417Z" fill="#FFAC33"/>
</g>
<rect width="91" height="33" rx="4" transform="matrix(-1 0 0 1 203.119 200.708)" fill="white"/>
<rect x="179.619" y="210.708" width="13" height="13" rx="1.5" stroke="#DFE7F2"/>
<path d="M138.791 215.201C138.738 214.731 138.519 214.366 138.135 214.108C137.75 213.846 137.266 213.715 136.683 213.715C136.265 213.715 135.904 213.781 135.599 213.914C135.294 214.043 135.057 214.222 134.888 214.451C134.723 214.676 134.64 214.933 134.64 215.221C134.64 215.463 134.696 215.672 134.809 215.848C134.925 216.023 135.076 216.171 135.261 216.29C135.45 216.406 135.652 216.504 135.868 216.583C136.083 216.66 136.29 216.723 136.489 216.772L137.483 217.031C137.808 217.11 138.141 217.218 138.483 217.354C138.824 217.49 139.141 217.669 139.432 217.891C139.724 218.113 139.959 218.388 140.138 218.716C140.321 219.044 140.412 219.437 140.412 219.894C140.412 220.471 140.263 220.983 139.964 221.431C139.669 221.878 139.24 222.231 138.677 222.49C138.117 222.748 137.439 222.877 136.643 222.877C135.881 222.877 135.221 222.756 134.665 222.514C134.108 222.273 133.672 221.929 133.357 221.485C133.042 221.038 132.868 220.508 132.835 219.894H134.376C134.406 220.262 134.525 220.569 134.734 220.814C134.946 221.056 135.216 221.237 135.545 221.356C135.876 221.472 136.239 221.53 136.633 221.53C137.068 221.53 137.454 221.462 137.792 221.326C138.133 221.187 138.402 220.995 138.597 220.75C138.793 220.501 138.89 220.211 138.89 219.88C138.89 219.578 138.804 219.331 138.632 219.139C138.463 218.947 138.233 218.787 137.941 218.661C137.653 218.536 137.326 218.425 136.961 218.328L135.758 218C134.943 217.778 134.297 217.452 133.819 217.021C133.345 216.59 133.108 216.02 133.108 215.311C133.108 214.724 133.268 214.212 133.586 213.774C133.904 213.337 134.335 212.997 134.878 212.755C135.422 212.51 136.035 212.387 136.718 212.387C137.407 212.387 138.015 212.508 138.542 212.75C139.073 212.992 139.49 213.325 139.795 213.75C140.1 214.17 140.259 214.654 140.273 215.201H138.791ZM142.108 212.527H143.972L147.213 220.441H147.333L150.574 212.527H152.438V222.708H150.977V215.34H150.882L147.88 222.693H146.666L143.664 215.336H143.569V222.708H142.108V212.527ZM160.085 215.201C160.032 214.731 159.813 214.366 159.429 214.108C159.045 213.846 158.561 213.715 157.977 213.715C157.56 213.715 157.198 213.781 156.893 213.914C156.589 214.043 156.352 214.222 156.183 214.451C156.017 214.676 155.934 214.933 155.934 215.221C155.934 215.463 155.99 215.672 156.103 215.848C156.219 216.023 156.37 216.171 156.555 216.29C156.744 216.406 156.947 216.504 157.162 216.583C157.377 216.66 157.585 216.723 157.783 216.772L158.778 217.031C159.103 217.11 159.436 217.218 159.777 217.354C160.118 217.49 160.435 217.669 160.727 217.891C161.018 218.113 161.254 218.388 161.433 218.716C161.615 219.044 161.706 219.437 161.706 219.894C161.706 220.471 161.557 220.983 161.259 221.431C160.964 221.878 160.534 222.231 159.971 222.49C159.411 222.748 158.733 222.877 157.938 222.877C157.175 222.877 156.516 222.756 155.959 222.514C155.402 222.273 154.966 221.929 154.651 221.485C154.336 221.038 154.162 220.508 154.129 219.894H155.67C155.7 220.262 155.82 220.569 156.028 220.814C156.241 221.056 156.511 221.237 156.839 221.356C157.17 221.472 157.533 221.53 157.928 221.53C158.362 221.53 158.748 221.462 159.086 221.326C159.427 221.187 159.696 220.995 159.891 220.75C160.087 220.501 160.185 220.211 160.185 219.88C160.185 219.578 160.098 219.331 159.926 219.139C159.757 218.947 159.527 218.787 159.235 218.661C158.947 218.536 158.62 218.425 158.256 218.328L157.053 218C156.237 217.778 155.591 217.452 155.114 217.021C154.64 216.59 154.403 216.02 154.403 215.311C154.403 214.724 154.562 214.212 154.88 213.774C155.198 213.337 155.629 212.997 156.173 212.755C156.716 212.51 157.329 212.387 158.012 212.387C158.701 212.387 159.31 212.508 159.837 212.75C160.367 212.992 160.785 213.325 161.089 213.75C161.394 214.17 161.554 214.654 161.567 215.201H160.085Z" fill="#636369"/>
<rect x="122.119" y="214.208" width="6" height="6" rx="3" fill="#C6A9FF"/>
<rect width="142" height="33" rx="4" transform="matrix(-1 0 0 1 361.119 200.708)" fill="white"/>
<rect x="337.619" y="210.708" width="13" height="13" rx="1.5" stroke="#DFE7F2"/>
<path d="M241.774 212.527V222.708H240.238V212.527H241.774ZM245.238 218.174V222.708H243.752V215.072H245.179V216.315H245.273C245.449 215.911 245.724 215.586 246.098 215.34C246.476 215.095 246.952 214.973 247.525 214.973C248.046 214.973 248.501 215.082 248.892 215.301C249.284 215.516 249.587 215.838 249.802 216.265C250.018 216.693 250.125 217.221 250.125 217.851V222.708H248.639V218.03C248.639 217.477 248.495 217.044 248.206 216.733C247.918 216.418 247.522 216.26 247.018 216.26C246.674 216.26 246.367 216.335 246.098 216.484C245.833 216.633 245.623 216.852 245.467 217.14C245.315 217.425 245.238 217.77 245.238 218.174ZM256.478 217.762V219.049H251.964V217.762H256.478ZM259.299 222.708H257.668L261.332 212.527H263.107L266.771 222.708H265.141L262.262 214.376H262.182L259.299 222.708ZM259.572 218.721H264.862V220.014H259.572V218.721ZM267.982 225.572V215.072H269.434V216.31H269.558C269.644 216.151 269.769 215.967 269.931 215.758C270.094 215.549 270.319 215.367 270.607 215.211C270.896 215.052 271.277 214.973 271.751 214.973C272.367 214.973 272.917 215.128 273.401 215.44C273.885 215.751 274.265 216.201 274.54 216.787C274.818 217.374 274.957 218.08 274.957 218.905C274.957 219.73 274.82 220.438 274.545 221.028C274.27 221.615 273.892 222.067 273.411 222.385C272.931 222.7 272.382 222.858 271.766 222.858C271.302 222.858 270.922 222.78 270.627 222.624C270.335 222.468 270.107 222.286 269.941 222.077C269.775 221.868 269.648 221.683 269.558 221.52H269.469V225.572H267.982ZM269.439 218.89C269.439 219.427 269.517 219.898 269.673 220.302C269.828 220.706 270.054 221.023 270.349 221.252C270.644 221.477 271.005 221.59 271.433 221.59C271.877 221.59 272.248 221.472 272.546 221.237C272.844 220.998 273.07 220.675 273.222 220.267C273.378 219.86 273.456 219.401 273.456 218.89C273.456 218.386 273.38 217.934 273.227 217.533C273.078 217.132 272.853 216.815 272.551 216.583C272.253 216.351 271.88 216.235 271.433 216.235C271.002 216.235 270.637 216.346 270.339 216.568C270.044 216.791 269.82 217.1 269.668 217.498C269.515 217.896 269.439 218.36 269.439 218.89ZM276.483 225.572V215.072H277.935V216.31H278.059C278.145 216.151 278.269 215.967 278.432 215.758C278.594 215.549 278.82 215.367 279.108 215.211C279.396 215.052 279.777 214.973 280.251 214.973C280.868 214.973 281.418 215.128 281.902 215.44C282.386 215.751 282.765 216.201 283.04 216.787C283.319 217.374 283.458 218.08 283.458 218.905C283.458 219.73 283.32 220.438 283.045 221.028C282.77 221.615 282.392 222.067 281.912 222.385C281.431 222.7 280.883 222.858 280.266 222.858C279.802 222.858 279.423 222.78 279.128 222.624C278.836 222.468 278.607 222.286 278.442 222.077C278.276 221.868 278.148 221.683 278.059 221.52H277.969V225.572H276.483ZM277.94 218.89C277.94 219.427 278.017 219.898 278.173 220.302C278.329 220.706 278.554 221.023 278.849 221.252C279.144 221.477 279.506 221.59 279.933 221.59C280.377 221.59 280.749 221.472 281.047 221.237C281.345 220.998 281.57 220.675 281.723 220.267C281.879 219.86 281.957 219.401 281.957 218.89C281.957 218.386 281.88 217.934 281.728 217.533C281.579 217.132 281.353 216.815 281.052 216.583C280.753 216.351 280.381 216.235 279.933 216.235C279.502 216.235 279.138 216.346 278.839 216.568C278.544 216.791 278.321 217.1 278.168 217.498C278.016 217.896 277.94 218.36 277.94 218.89ZM288.668 222.708V212.527H292.297C293.089 212.527 293.746 212.671 294.266 212.959C294.786 213.247 295.176 213.642 295.434 214.142C295.693 214.639 295.822 215.2 295.822 215.823C295.822 216.449 295.691 217.013 295.429 217.513C295.171 218.01 294.78 218.405 294.256 218.696C293.736 218.985 293.081 219.129 292.292 219.129H289.796V217.826H292.153C292.653 217.826 293.059 217.74 293.371 217.568C293.683 217.392 293.911 217.153 294.057 216.852C294.203 216.55 294.276 216.207 294.276 215.823C294.276 215.438 294.203 215.097 294.057 214.799C293.911 214.5 293.681 214.267 293.366 214.098C293.055 213.929 292.644 213.844 292.133 213.844H290.204V222.708H288.668ZM302.201 219.541V215.072H303.693V222.708H302.231V221.386H302.151C301.976 221.794 301.694 222.133 301.306 222.405C300.922 222.674 300.443 222.808 299.869 222.808C299.379 222.808 298.945 222.7 298.567 222.485C298.192 222.266 297.897 221.943 297.682 221.515C297.47 221.088 297.364 220.559 297.364 219.929V215.072H298.85V219.75C298.85 220.271 298.994 220.685 299.283 220.993C299.571 221.301 299.946 221.456 300.406 221.456C300.685 221.456 300.961 221.386 301.237 221.247C301.515 221.108 301.745 220.897 301.928 220.615C302.113 220.334 302.204 219.976 302.201 219.541ZM311.272 216.936L309.925 217.175C309.868 217.003 309.779 216.839 309.656 216.683C309.537 216.527 309.375 216.399 309.169 216.3C308.964 216.201 308.707 216.151 308.399 216.151C307.978 216.151 307.626 216.245 307.345 216.434C307.063 216.62 306.922 216.86 306.922 217.155C306.922 217.41 307.016 217.616 307.205 217.772C307.394 217.927 307.699 218.055 308.12 218.154L309.333 218.433C310.036 218.595 310.56 218.845 310.904 219.184C311.249 219.522 311.421 219.961 311.421 220.501C311.421 220.958 311.289 221.366 311.024 221.724C310.762 222.079 310.395 222.357 309.925 222.559C309.458 222.761 308.916 222.862 308.299 222.862C307.444 222.862 306.746 222.68 306.206 222.316C305.666 221.948 305.334 221.426 305.212 220.75L306.649 220.531C306.738 220.905 306.922 221.189 307.2 221.381C307.479 221.57 307.842 221.664 308.289 221.664C308.776 221.664 309.166 221.563 309.458 221.361C309.749 221.156 309.895 220.905 309.895 220.61C309.895 220.372 309.806 220.171 309.627 220.009C309.451 219.846 309.181 219.724 308.816 219.641L307.524 219.358C306.811 219.195 306.284 218.937 305.943 218.582C305.605 218.227 305.435 217.778 305.435 217.235C305.435 216.784 305.561 216.389 305.813 216.051C306.065 215.713 306.413 215.45 306.857 215.261C307.301 215.069 307.81 214.973 308.384 214.973C309.209 214.973 309.859 215.152 310.333 215.51C310.806 215.864 311.12 216.34 311.272 216.936ZM314.402 218.174V222.708H312.916V212.527H314.382V216.315H314.477C314.656 215.904 314.929 215.577 315.297 215.336C315.665 215.094 316.146 214.973 316.739 214.973C317.263 214.973 317.72 215.08 318.111 215.296C318.505 215.511 318.81 215.833 319.026 216.26C319.245 216.684 319.354 217.215 319.354 217.851V222.708H317.867V218.03C317.867 217.47 317.723 217.036 317.435 216.728C317.147 216.416 316.745 216.26 316.232 216.26C315.88 216.26 315.566 216.335 315.287 216.484C315.012 216.633 314.795 216.852 314.636 217.14C314.48 217.425 314.402 217.77 314.402 218.174Z" fill="#636369"/>
<rect x="229.119" y="214.208" width="6" height="6" rx="3" fill="#F9DD88"/>
<rect width="170" height="33" rx="4" transform="matrix(-1 0 0 1 282.119 249.708)" fill="white"/>
<rect x="258.619" y="259.708" width="13" height="13" rx="1.5" stroke="#DFE7F2"/>
<path d="M135.231 271.708L132.407 261.527H134.023L136.007 269.411H136.101L138.165 261.527H139.765L141.829 269.416H141.923L143.902 261.527H145.523L142.694 271.708H141.148L139.005 264.082H138.925L136.782 271.708H135.231ZM149.203 271.862C148.451 271.862 147.803 271.702 147.259 271.38C146.719 271.055 146.301 270.6 146.006 270.013C145.715 269.423 145.569 268.732 145.569 267.94C145.569 267.158 145.715 266.468 146.006 265.872C146.301 265.275 146.712 264.809 147.239 264.475C147.77 264.14 148.39 263.973 149.099 263.973C149.53 263.973 149.947 264.044 150.352 264.186C150.756 264.329 151.119 264.553 151.44 264.858C151.762 265.162 152.015 265.559 152.201 266.046C152.387 266.53 152.479 267.118 152.479 267.811V268.338H146.409V267.224H151.023C151.023 266.833 150.943 266.487 150.784 266.185C150.625 265.88 150.401 265.64 150.113 265.464C149.828 265.288 149.493 265.201 149.109 265.201C148.691 265.201 148.327 265.303 148.015 265.509C147.707 265.711 147.468 265.976 147.299 266.304C147.133 266.629 147.051 266.982 147.051 267.363V268.233C147.051 268.744 147.14 269.178 147.319 269.536C147.501 269.894 147.755 270.167 148.08 270.356C148.404 270.542 148.784 270.635 149.218 270.635C149.5 270.635 149.757 270.595 149.989 270.515C150.221 270.432 150.421 270.31 150.59 270.147C150.759 269.985 150.889 269.784 150.978 269.546L152.385 269.799C152.272 270.214 152.07 270.577 151.779 270.888C151.49 271.196 151.127 271.437 150.69 271.609C150.256 271.778 149.76 271.862 149.203 271.862ZM154.108 271.708V261.527H155.595V265.31H155.684C155.77 265.151 155.895 264.967 156.057 264.758C156.219 264.549 156.445 264.367 156.733 264.211C157.021 264.052 157.403 263.973 157.877 263.973C158.493 263.973 159.043 264.128 159.527 264.44C160.011 264.751 160.391 265.201 160.666 265.787C160.944 266.374 161.083 267.08 161.083 267.905C161.083 268.73 160.946 269.438 160.671 270.028C160.396 270.615 160.018 271.067 159.537 271.385C159.057 271.7 158.508 271.858 157.892 271.858C157.428 271.858 157.048 271.78 156.753 271.624C156.461 271.468 156.233 271.286 156.067 271.077C155.901 270.868 155.774 270.683 155.684 270.52H155.56V271.708H154.108ZM155.565 267.89C155.565 268.427 155.643 268.898 155.798 269.302C155.954 269.706 156.18 270.023 156.475 270.252C156.77 270.477 157.131 270.59 157.558 270.59C158.003 270.59 158.374 270.472 158.672 270.237C158.97 269.998 159.196 269.675 159.348 269.267C159.504 268.86 159.582 268.401 159.582 267.89C159.582 267.386 159.506 266.934 159.353 266.533C159.204 266.132 158.979 265.815 158.677 265.583C158.379 265.351 158.006 265.235 157.558 265.235C157.128 265.235 156.763 265.346 156.465 265.568C156.17 265.791 155.946 266.1 155.794 266.498C155.641 266.896 155.565 267.36 155.565 267.89ZM174.515 261.527V271.708H173.103L167.928 264.241H167.833V271.708H166.297V261.527H167.719L172.899 269.004H172.994V261.527H174.515ZM179.713 271.862C178.997 271.862 178.373 271.698 177.839 271.37C177.305 271.042 176.891 270.583 176.596 269.993C176.301 269.403 176.154 268.714 176.154 267.925C176.154 267.133 176.301 266.44 176.596 265.847C176.891 265.254 177.305 264.793 177.839 264.465C178.373 264.137 178.997 263.973 179.713 263.973C180.429 263.973 181.054 264.137 181.587 264.465C182.121 264.793 182.535 265.254 182.83 265.847C183.125 266.44 183.273 267.133 183.273 267.925C183.273 268.714 183.125 269.403 182.83 269.993C182.535 270.583 182.121 271.042 181.587 271.37C181.054 271.698 180.429 271.862 179.713 271.862ZM179.718 270.615C180.182 270.615 180.567 270.492 180.872 270.247C181.176 270.001 181.402 269.675 181.548 269.267C181.697 268.86 181.771 268.411 181.771 267.92C181.771 267.433 181.697 266.985 181.548 266.578C181.402 266.167 181.176 265.837 180.872 265.588C180.567 265.34 180.182 265.215 179.718 265.215C179.251 265.215 178.863 265.34 178.555 265.588C178.25 265.837 178.023 266.167 177.874 266.578C177.728 266.985 177.655 267.433 177.655 267.92C177.655 268.411 177.728 268.86 177.874 269.267C178.023 269.675 178.25 270.001 178.555 270.247C178.863 270.492 179.251 270.615 179.718 270.615ZM188.357 264.072V265.265H184.186V264.072H188.357ZM185.304 262.242H186.791V269.466C186.791 269.755 186.834 269.972 186.92 270.117C187.006 270.26 187.117 270.358 187.253 270.411C187.392 270.461 187.543 270.485 187.705 270.485C187.825 270.485 187.929 270.477 188.019 270.461C188.108 270.444 188.178 270.431 188.227 270.421L188.496 271.649C188.41 271.682 188.287 271.715 188.128 271.748C187.969 271.785 187.77 271.804 187.531 271.808C187.14 271.814 186.776 271.745 186.438 271.599C186.1 271.453 185.826 271.228 185.617 270.923C185.409 270.618 185.304 270.235 185.304 269.774V262.242ZM189.861 271.708V264.072H191.348V271.708H189.861ZM190.612 262.894C190.353 262.894 190.131 262.808 189.946 262.635C189.763 262.46 189.672 262.251 189.672 262.009C189.672 261.764 189.763 261.555 189.946 261.382C190.131 261.207 190.353 261.119 190.612 261.119C190.87 261.119 191.091 261.207 191.273 261.382C191.459 261.555 191.551 261.764 191.551 262.009C191.551 262.251 191.459 262.46 191.273 262.635C191.091 262.808 190.87 262.894 190.612 262.894ZM196.842 264.072V265.265H192.526V264.072H196.842ZM193.71 271.708V263.187C193.71 262.71 193.814 262.314 194.023 261.999C194.232 261.681 194.508 261.444 194.853 261.288C195.198 261.129 195.572 261.049 195.977 261.049C196.275 261.049 196.53 261.074 196.742 261.124C196.954 261.17 197.112 261.213 197.215 261.253L196.867 262.456C196.797 262.436 196.707 262.413 196.598 262.387C196.489 262.357 196.356 262.342 196.2 262.342C195.839 262.342 195.581 262.431 195.425 262.61C195.272 262.789 195.196 263.048 195.196 263.386V271.708H193.71ZM198.235 271.708V264.072H199.722V271.708H198.235ZM198.986 262.894C198.728 262.894 198.506 262.808 198.32 262.635C198.138 262.46 198.046 262.251 198.046 262.009C198.046 261.764 198.138 261.555 198.32 261.382C198.506 261.207 198.728 261.119 198.986 261.119C199.245 261.119 199.465 261.207 199.647 261.382C199.833 261.555 199.926 261.764 199.926 262.009C199.926 262.251 199.833 262.46 199.647 262.635C199.465 262.808 199.245 262.894 198.986 262.894ZM204.798 271.862C204.059 271.862 203.423 271.695 202.889 271.36C202.359 271.022 201.951 270.557 201.666 269.963C201.381 269.37 201.239 268.691 201.239 267.925C201.239 267.149 201.385 266.465 201.676 265.872C201.968 265.275 202.379 264.809 202.909 264.475C203.439 264.14 204.064 263.973 204.783 263.973C205.363 263.973 205.88 264.08 206.335 264.296C206.789 264.508 207.155 264.806 207.433 265.191C207.715 265.575 207.882 266.024 207.935 266.538H206.489C206.409 266.18 206.227 265.872 205.942 265.613C205.66 265.355 205.282 265.225 204.808 265.225C204.394 265.225 204.031 265.335 203.719 265.554C203.411 265.769 203.171 266.077 202.999 266.478C202.826 266.876 202.74 267.347 202.74 267.89C202.74 268.447 202.825 268.928 202.994 269.332C203.163 269.736 203.401 270.05 203.71 270.272C204.021 270.494 204.387 270.605 204.808 270.605C205.09 270.605 205.345 270.553 205.574 270.451C205.806 270.345 206 270.194 206.156 269.998C206.315 269.803 206.426 269.567 206.489 269.292H207.935C207.882 269.786 207.722 270.227 207.453 270.615C207.185 271.002 206.825 271.307 206.374 271.529C205.927 271.751 205.402 271.862 204.798 271.862ZM211.607 271.877C211.123 271.877 210.686 271.788 210.295 271.609C209.904 271.427 209.594 271.163 209.365 270.818C209.14 270.474 209.027 270.051 209.027 269.551C209.027 269.12 209.11 268.765 209.276 268.487C209.441 268.208 209.665 267.988 209.947 267.826C210.229 267.663 210.543 267.541 210.891 267.458C211.239 267.375 211.594 267.312 211.955 267.269C212.413 267.216 212.784 267.173 213.069 267.139C213.354 267.103 213.561 267.045 213.69 266.965C213.82 266.886 213.884 266.757 213.884 266.578V266.543C213.884 266.109 213.762 265.772 213.516 265.534C213.275 265.295 212.913 265.176 212.433 265.176C211.932 265.176 211.538 265.287 211.249 265.509C210.964 265.728 210.767 265.971 210.658 266.24L209.261 265.921C209.427 265.457 209.668 265.083 209.987 264.798C210.308 264.51 210.678 264.301 211.095 264.171C211.513 264.039 211.952 263.973 212.413 263.973C212.718 263.973 213.041 264.009 213.382 264.082C213.727 264.152 214.048 264.281 214.347 264.47C214.648 264.659 214.895 264.929 215.087 265.28C215.28 265.628 215.376 266.081 215.376 266.637V271.708H213.924V270.664H213.864C213.768 270.857 213.624 271.045 213.432 271.231C213.24 271.417 212.993 271.571 212.691 271.693C212.39 271.816 212.028 271.877 211.607 271.877ZM211.931 270.684C212.342 270.684 212.693 270.603 212.985 270.441C213.279 270.278 213.503 270.066 213.656 269.804C213.811 269.539 213.889 269.256 213.889 268.954V267.97C213.836 268.023 213.734 268.072 213.581 268.119C213.432 268.162 213.261 268.2 213.069 268.233C212.877 268.263 212.69 268.291 212.507 268.318C212.325 268.341 212.172 268.361 212.05 268.377C211.761 268.414 211.498 268.475 211.259 268.561C211.024 268.648 210.835 268.772 210.693 268.934C210.553 269.093 210.484 269.305 210.484 269.571C210.484 269.938 210.62 270.217 210.891 270.406C211.163 270.591 211.51 270.684 211.931 270.684ZM220.78 264.072V265.265H216.609V264.072H220.78ZM217.728 262.242H219.214V269.466C219.214 269.755 219.257 269.972 219.344 270.117C219.43 270.26 219.541 270.358 219.677 270.411C219.816 270.461 219.967 270.485 220.129 270.485C220.248 270.485 220.353 270.477 220.442 270.461C220.532 270.444 220.601 270.431 220.651 270.421L220.92 271.649C220.833 271.682 220.711 271.715 220.552 271.748C220.393 271.785 220.194 271.804 219.955 271.808C219.564 271.814 219.199 271.745 218.861 271.599C218.523 271.453 218.25 271.228 218.041 270.923C217.832 270.618 217.728 270.235 217.728 269.774V262.242ZM222.285 271.708V264.072H223.771V271.708H222.285ZM223.035 262.894C222.777 262.894 222.555 262.808 222.369 262.635C222.187 262.46 222.096 262.251 222.096 262.009C222.096 261.764 222.187 261.555 222.369 261.382C222.555 261.207 222.777 261.119 223.035 261.119C223.294 261.119 223.514 261.207 223.697 261.382C223.882 261.555 223.975 261.764 223.975 262.009C223.975 262.251 223.882 262.46 223.697 262.635C223.514 262.808 223.294 262.894 223.035 262.894ZM228.848 271.862C228.132 271.862 227.507 271.698 226.973 271.37C226.44 271.042 226.026 270.583 225.731 269.993C225.436 269.403 225.288 268.714 225.288 267.925C225.288 267.133 225.436 266.44 225.731 265.847C226.026 265.254 226.44 264.793 226.973 264.465C227.507 264.137 228.132 263.973 228.848 263.973C229.564 263.973 230.188 264.137 230.722 264.465C231.256 264.793 231.67 265.254 231.965 265.847C232.26 266.44 232.407 267.133 232.407 267.925C232.407 268.714 232.26 269.403 231.965 269.993C231.67 270.583 231.256 271.042 230.722 271.37C230.188 271.698 229.564 271.862 228.848 271.862ZM228.853 270.615C229.317 270.615 229.701 270.492 230.006 270.247C230.311 270.001 230.536 269.675 230.682 269.267C230.831 268.86 230.906 268.411 230.906 267.92C230.906 267.433 230.831 266.985 230.682 266.578C230.536 266.167 230.311 265.837 230.006 265.588C229.701 265.34 229.317 265.215 228.853 265.215C228.385 265.215 227.998 265.34 227.689 265.588C227.384 265.837 227.157 266.167 227.008 266.578C226.862 266.985 226.789 267.433 226.789 267.92C226.789 268.411 226.862 268.86 227.008 269.267C227.157 269.675 227.384 270.001 227.689 270.247C227.998 270.492 228.385 270.615 228.853 270.615ZM235.413 267.174V271.708H233.927V264.072H235.353V265.315H235.448C235.624 264.911 235.899 264.586 236.273 264.34C236.651 264.095 237.127 263.973 237.7 263.973C238.22 263.973 238.676 264.082 239.067 264.301C239.458 264.516 239.762 264.838 239.977 265.265C240.192 265.693 240.3 266.221 240.3 266.851V271.708H238.814V267.03C238.814 266.477 238.67 266.044 238.381 265.733C238.093 265.418 237.697 265.26 237.193 265.26C236.848 265.26 236.542 265.335 236.273 265.484C236.008 265.633 235.798 265.852 235.642 266.14C235.489 266.425 235.413 266.77 235.413 267.174Z" fill="#636369"/>
<rect x="122.119" y="263.208" width="6" height="6" rx="3" fill="#00CC74"/>
<rect width="96" height="33" rx="4" transform="matrix(-1 0 0 1 473.119 200.708)" fill="white"/>
<rect x="449.619" y="210.708" width="13" height="13" rx="1.5" stroke="#DFE7F2"/>
<path d="M398.238 222.708V212.527H404.621V213.849H399.774V216.951H404.288V218.269H399.774V221.386H404.681V222.708H398.238ZM406.414 222.708V215.072H407.841V216.315H407.935C408.094 215.894 408.355 215.566 408.716 215.331C409.077 215.092 409.51 214.973 410.013 214.973C410.524 214.973 410.951 215.092 411.296 215.331C411.644 215.569 411.901 215.897 412.067 216.315H412.146C412.329 215.907 412.619 215.582 413.016 215.34C413.414 215.095 413.888 214.973 414.438 214.973C415.131 214.973 415.696 215.19 416.133 215.624C416.574 216.058 416.795 216.713 416.795 217.588V222.708H415.308V217.727C415.308 217.21 415.167 216.835 414.886 216.603C414.604 216.371 414.267 216.255 413.876 216.255C413.392 216.255 413.016 216.404 412.748 216.703C412.479 216.998 412.345 217.377 412.345 217.841V222.708H410.864V217.632C410.864 217.218 410.734 216.885 410.476 216.633C410.217 216.381 409.881 216.255 409.467 216.255C409.185 216.255 408.925 216.33 408.686 216.479C408.451 216.625 408.26 216.829 408.114 217.09C407.972 217.352 407.9 217.656 407.9 218V222.708H406.414ZM420.869 222.877C420.385 222.877 419.948 222.788 419.557 222.609C419.166 222.427 418.856 222.163 418.627 221.818C418.402 221.474 418.289 221.051 418.289 220.551C418.289 220.12 418.372 219.765 418.538 219.487C418.703 219.208 418.927 218.988 419.209 218.826C419.491 218.663 419.805 218.541 420.153 218.458C420.501 218.375 420.856 218.312 421.217 218.269C421.675 218.216 422.046 218.173 422.331 218.139C422.616 218.103 422.823 218.045 422.952 217.965C423.082 217.886 423.146 217.757 423.146 217.578V217.543C423.146 217.109 423.024 216.772 422.778 216.534C422.536 216.295 422.175 216.176 421.695 216.176C421.194 216.176 420.8 216.287 420.511 216.509C420.226 216.728 420.029 216.971 419.92 217.24L418.523 216.921C418.688 216.457 418.93 216.083 419.249 215.798C419.57 215.51 419.94 215.301 420.357 215.171C420.775 215.039 421.214 214.973 421.675 214.973C421.98 214.973 422.303 215.009 422.644 215.082C422.989 215.152 423.31 215.281 423.609 215.47C423.91 215.659 424.157 215.929 424.349 216.28C424.542 216.628 424.638 217.081 424.638 217.637V222.708H423.186V221.664H423.126C423.03 221.857 422.886 222.045 422.694 222.231C422.502 222.417 422.255 222.571 421.953 222.693C421.652 222.816 421.29 222.877 420.869 222.877ZM421.192 221.684C421.603 221.684 421.955 221.603 422.246 221.441C422.541 221.278 422.765 221.066 422.918 220.804C423.073 220.539 423.151 220.256 423.151 219.954V218.97C423.098 219.023 422.996 219.072 422.843 219.119C422.694 219.162 422.523 219.2 422.331 219.233C422.139 219.263 421.951 219.291 421.769 219.318C421.587 219.341 421.434 219.361 421.312 219.377C421.023 219.414 420.76 219.475 420.521 219.561C420.286 219.648 420.097 219.772 419.955 219.934C419.815 220.093 419.746 220.305 419.746 220.571C419.746 220.938 419.882 221.217 420.153 221.406C420.425 221.591 420.772 221.684 421.192 221.684ZM426.478 222.708V215.072H427.964V222.708H426.478ZM427.228 213.894C426.97 213.894 426.748 213.808 426.562 213.635C426.38 213.46 426.289 213.251 426.289 213.009C426.289 212.764 426.38 212.555 426.562 212.382C426.748 212.207 426.97 212.119 427.228 212.119C427.487 212.119 427.707 212.207 427.89 212.382C428.075 212.555 428.168 212.764 428.168 213.009C428.168 213.251 428.075 213.46 427.89 213.635C427.707 213.808 427.487 213.894 427.228 213.894ZM431.311 212.527V222.708H429.824V212.527H431.311Z" fill="#636369"/>
<rect x="387.119" y="214.208" width="6" height="6" rx="3" fill="#8199FD"/>
<path d="M144.03 361.819C147.45 361.819 148.746 360.091 148.746 358.165C148.746 356.401 147.882 355.069 145.344 354.583L143.202 354.169C141.798 353.899 141.474 353.719 141.474 352.945C141.474 352.189 141.96 351.847 143.508 351.847C145.29 351.847 145.812 352.261 145.812 353.521V353.719H148.476V353.575C148.476 351.181 147.036 349.399 143.598 349.399C140.142 349.399 138.792 351.217 138.792 353.053C138.792 354.925 139.764 356.095 142.068 356.491L144.192 356.869C145.884 357.157 146.064 357.445 146.064 358.255C146.064 359.065 145.686 359.371 144.156 359.371C141.978 359.371 141.492 358.993 141.492 357.661V357.481H138.846V357.715C138.846 360.379 140.484 361.819 144.03 361.819ZM154.637 361.819C157.229 361.819 158.885 360.685 158.885 358.759V358.579H156.221V358.687C156.221 359.245 155.753 359.479 154.673 359.479C153.197 359.479 152.693 358.975 152.639 357.715H158.849C158.903 357.409 158.975 356.887 158.975 356.383C158.975 354.025 157.373 352.405 154.655 352.405C151.829 352.405 150.101 354.241 150.101 357.139C150.101 360.001 151.523 361.819 154.637 361.819ZM154.565 354.619C155.825 354.619 156.437 355.141 156.383 356.077H152.657C152.765 355.123 153.269 354.619 154.565 354.619ZM164.424 360.685C165.792 360.685 166.746 360.073 167.142 359.371H167.25V360.775C167.25 362.179 166.962 362.503 165.54 362.503C163.992 362.503 163.722 362.269 163.722 361.333H161.04C161.04 363.637 162.624 364.879 165.45 364.879C168.366 364.879 169.932 363.583 169.932 360.631V352.585H167.43V353.899H167.34C166.854 352.909 165.828 352.405 164.532 352.405C161.958 352.405 160.59 354.043 160.59 356.563C160.59 359.083 161.922 360.685 164.424 360.685ZM163.272 356.563C163.272 355.285 163.722 354.691 165.27 354.691C166.566 354.691 167.25 355.141 167.25 356.293V356.833C167.25 357.985 166.548 358.435 165.252 358.435C163.722 358.435 163.272 357.841 163.272 356.563ZM174.806 361.639V356.401C174.806 355.123 175.346 354.727 176.57 354.727C177.866 354.727 178.262 355.177 178.262 356.437V361.639H180.962V356.437C180.962 355.123 181.484 354.727 182.708 354.727C184.022 354.727 184.4 355.177 184.4 356.437V361.639H187.1V355.897C187.1 353.971 186.146 352.405 183.806 352.405C182.132 352.405 181.232 353.179 180.728 354.169H180.638C180.188 353.107 179.252 352.405 177.704 352.405C176.156 352.405 175.22 353.143 174.734 354.169H174.626V352.585H172.124V361.639H174.806ZM193.399 361.819C195.991 361.819 197.647 360.685 197.647 358.759V358.579H194.983V358.687C194.983 359.245 194.515 359.479 193.435 359.479C191.959 359.479 191.455 358.975 191.401 357.715H197.611C197.665 357.409 197.737 356.887 197.737 356.383C197.737 354.025 196.135 352.405 193.417 352.405C190.591 352.405 188.863 354.241 188.863 357.139C188.863 360.001 190.285 361.819 193.399 361.819ZM193.327 354.619C194.587 354.619 195.199 355.141 195.145 356.077H191.419C191.527 355.123 192.031 354.619 193.327 354.619ZM202.253 361.639V356.509C202.253 355.141 202.811 354.727 204.107 354.727C205.475 354.727 205.889 355.177 205.889 356.437V361.639H208.589V355.897C208.589 353.971 207.581 352.405 205.223 352.405C203.639 352.405 202.667 353.143 202.181 354.169H202.073V352.585H199.571V361.639H202.253ZM214.816 361.675C215.446 361.675 216.148 361.585 216.58 361.495V359.245H215.464C214.294 359.245 214.024 359.155 214.024 358.363V354.817H216.58V352.585H214.024V350.479H211.9L211.396 352.585H209.884V354.817H211.324V358.669C211.324 360.811 212.458 361.675 214.816 361.675ZM222.313 361.819C224.815 361.819 226.201 360.739 226.201 359.047C226.201 357.571 225.409 356.707 223.501 356.347L221.845 356.005C220.765 355.789 220.603 355.663 220.603 355.231C220.603 354.799 220.855 354.565 221.935 354.565C223.087 354.565 223.339 354.889 223.339 355.483V355.735H225.913V355.483C225.913 353.449 224.221 352.405 222.007 352.405C219.433 352.405 218.065 353.593 218.065 355.267C218.065 356.941 219.037 357.697 220.819 358.021L222.187 358.273C223.393 358.489 223.645 358.597 223.645 359.083C223.645 359.533 223.465 359.695 222.367 359.695C221.053 359.695 220.657 359.551 220.657 358.885V358.507H218.083V358.561C218.083 360.757 219.469 361.819 222.313 361.819Z" fill="black"/>
<g clip-path="url(#clip1_6354_40618)">
<path d="M113.833 346.472H115.055V366.639H113.833V346.472Z" fill="#CCD6DD"/>
<path d="M114.445 348.306C115.457 348.306 116.278 347.485 116.278 346.472C116.278 345.46 115.457 344.639 114.445 344.639C113.432 344.639 112.611 345.46 112.611 346.472C112.611 347.485 113.432 348.306 114.445 348.306Z" fill="#F4900C"/>
<path d="M117.5 361.75H114.444C114.107 361.75 113.833 361.477 113.833 361.139C113.833 360.801 114.107 360.528 114.444 360.528H117.5C117.837 360.528 118.111 360.801 118.111 361.139C118.111 361.477 117.837 361.75 117.5 361.75Z" fill="#66757F"/>
<path d="M130.944 361.139C130.944 359.789 134.738 357.472 133.388 357.472H128.226C127.491 356.578 125.418 355.639 123.916 355.639C122.414 355.639 121.942 356.578 121.817 357.472H118.111C116.761 357.472 116.277 358.567 116.277 359.917V362.361C116.277 363.711 116.761 364.806 118.111 364.806H133.388C134.738 364.806 130.944 362.489 130.944 361.139Z" fill="#DD2E44"/>
<path d="M119.333 361.75C120.346 361.75 121.167 360.929 121.167 359.917C121.167 358.904 120.346 358.083 119.333 358.083C118.321 358.083 117.5 358.904 117.5 359.917C117.5 360.929 118.321 361.75 119.333 361.75Z" fill="white"/>
<path d="M119.028 360.528C119.534 360.528 119.945 360.118 119.945 359.611C119.945 359.105 119.534 358.695 119.028 358.695C118.522 358.695 118.111 359.105 118.111 359.611C118.111 360.118 118.522 360.528 119.028 360.528Z" fill="black"/>
<path d="M133.389 357.472H121.755C123.019 358.869 124.653 361.423 121.732 364.806H133.389C134.739 364.806 130.945 362.489 130.945 361.139C130.945 359.789 134.739 357.472 133.389 357.472Z" fill="#F4ABBA"/>
<path d="M117.5 351.972H114.444C114.107 351.972 113.833 351.699 113.833 351.361C113.833 351.024 114.107 350.75 114.444 350.75H117.5C117.837 350.75 118.111 351.024 118.111 351.361C118.111 351.699 117.837 351.972 117.5 351.972Z" fill="#66757F"/>
<path d="M130.944 351.361C130.944 350.011 134.738 347.695 133.388 347.695H128.227C127.492 346.8 125.419 345.861 123.916 345.861C122.414 345.861 121.942 346.8 121.817 347.695H118.111C116.761 347.695 116.277 348.789 116.277 350.139V352.583C116.277 353.933 116.761 355.028 118.111 355.028H133.388C134.738 355.028 130.944 352.711 130.944 351.361Z" fill="#55ACEE"/>
<path d="M119.333 351.972C120.346 351.972 121.167 351.152 121.167 350.139C121.167 349.126 120.346 348.306 119.333 348.306C118.321 348.306 117.5 349.126 117.5 350.139C117.5 351.152 118.321 351.972 119.333 351.972Z" fill="white"/>
<path d="M119.028 350.75C119.534 350.75 119.945 350.34 119.945 349.834C119.945 349.327 119.534 348.917 119.028 348.917C118.522 348.917 118.111 349.327 118.111 349.834C118.111 350.34 118.522 350.75 119.028 350.75Z" fill="black"/>
<path d="M133.389 347.695H121.755C123.019 349.092 124.653 351.645 121.732 355.028H133.389C134.739 355.028 130.945 352.711 130.945 351.361C130.945 350.011 134.739 347.695 133.389 347.695Z" fill="#BBDDF5"/>
</g>
<rect x="112.5" y="394.139" width="371" height="47" rx="3.5" fill="white"/>
<rect x="131.389" y="411.139" width="13" height="13" rx="1.5" stroke="#DFE7F2"/>
<rect x="347.889" y="413.639" width="105" height="8" rx="4" fill="#EEF1F7"/>
<g clip-path="url(#clip2_6354_40618)">
<path d="M167.25 417.278L170.139 414.75L175.917 415.111L176.278 420.889L173.75 423.778C173.75 423.778 173.75 421.612 171.583 419.445C169.416 417.278 167.25 417.278 167.25 417.278Z" fill="#A0041E"/>
<path d="M167.24 423.778C167.24 423.778 167.227 420.897 168.318 419.806C169.409 418.715 172.306 418.79 172.306 418.79C172.306 418.79 172.305 421.611 171.222 422.695C170.139 423.778 167.24 423.778 167.24 423.778Z" fill="#FFAC33"/>
<path d="M170.139 422.333C170.937 422.333 171.583 421.687 171.583 420.889C171.583 420.091 170.937 419.445 170.139 419.445C169.341 419.445 168.694 420.091 168.694 420.889C168.694 421.687 169.341 422.333 170.139 422.333Z" fill="#FFCC4D"/>
<path d="M179.888 411.139C179.888 411.139 176.277 411.139 171.944 414.75C169.777 416.556 169.777 419.806 170.499 420.528C171.222 421.25 174.472 421.25 176.277 419.083C179.888 414.75 179.888 411.139 179.888 411.139Z" fill="#55ACEE"/>
<path d="M176.638 412.945C176.052 412.945 175.55 413.295 175.323 413.797C175.505 413.715 175.704 413.667 175.916 413.667C176.714 413.667 177.36 414.314 177.36 415.111C177.36 415.323 177.312 415.523 177.231 415.703C177.732 415.477 178.082 414.975 178.082 414.389C178.082 413.591 177.436 412.945 176.638 412.945Z" fill="black"/>
<path d="M169.777 421.25C169.777 421.25 169.777 419.806 170.138 419.445C170.5 419.084 174.833 415.473 175.194 415.834C175.555 416.194 171.944 420.528 171.583 420.889C171.221 421.25 169.777 421.25 169.777 421.25Z" fill="#A0041E"/>
</g>
<path d="M191.46 413.412H192.781V419.152C192.781 419.763 192.637 420.304 192.35 420.775C192.063 421.244 191.66 421.613 191.14 421.883C190.62 422.15 190.011 422.284 189.312 422.284C188.616 422.284 188.008 422.15 187.488 421.883C186.968 421.613 186.565 421.244 186.278 420.775C185.991 420.304 185.847 419.763 185.847 419.152V413.412H187.164V419.045C187.164 419.44 187.251 419.791 187.424 420.098C187.6 420.405 187.849 420.646 188.17 420.822C188.491 420.996 188.872 421.082 189.312 421.082C189.755 421.082 190.137 420.996 190.458 420.822C190.782 420.646 191.029 420.405 191.2 420.098C191.373 419.791 191.46 419.44 191.46 419.045V413.412ZM199.378 417.192L198.223 417.396C198.175 417.248 198.098 417.108 197.993 416.974C197.89 416.841 197.751 416.731 197.575 416.646C197.399 416.561 197.179 416.518 196.915 416.518C196.554 416.518 196.253 416.599 196.011 416.761C195.77 416.92 195.649 417.126 195.649 417.379C195.649 417.598 195.73 417.774 195.892 417.908C196.054 418.041 196.315 418.15 196.676 418.236L197.716 418.474C198.318 418.613 198.767 418.828 199.062 419.118C199.358 419.408 199.506 419.784 199.506 420.247C199.506 420.639 199.392 420.988 199.165 421.295C198.94 421.599 198.626 421.838 198.223 422.011C197.822 422.184 197.358 422.271 196.829 422.271C196.096 422.271 195.498 422.115 195.035 421.802C194.572 421.487 194.288 421.04 194.183 420.46L195.415 420.273C195.491 420.594 195.649 420.836 195.888 421.001C196.126 421.163 196.437 421.244 196.821 421.244C197.238 421.244 197.572 421.158 197.822 420.984C198.072 420.808 198.197 420.594 198.197 420.341C198.197 420.136 198.121 419.964 197.967 419.825C197.817 419.686 197.585 419.581 197.273 419.51L196.165 419.267C195.554 419.128 195.102 418.906 194.81 418.602C194.52 418.298 194.375 417.913 194.375 417.447C194.375 417.061 194.483 416.723 194.699 416.433C194.915 416.143 195.213 415.917 195.594 415.756C195.974 415.591 196.41 415.508 196.902 415.508C197.609 415.508 198.166 415.662 198.572 415.969C198.979 416.273 199.247 416.68 199.378 417.192ZM203.607 422.271C202.963 422.271 202.407 422.133 201.941 421.858C201.478 421.579 201.12 421.189 200.867 420.686C200.617 420.18 200.492 419.588 200.492 418.909C200.492 418.238 200.617 417.648 200.867 417.136C201.12 416.625 201.473 416.226 201.924 415.939C202.379 415.652 202.91 415.508 203.518 415.508C203.887 415.508 204.245 415.569 204.592 415.692C204.938 415.814 205.25 416.006 205.525 416.267C205.801 416.528 206.018 416.868 206.177 417.285C206.336 417.7 206.416 418.204 206.416 418.798V419.25H201.213V418.295H205.167C205.167 417.96 205.099 417.663 204.963 417.405C204.826 417.143 204.634 416.937 204.387 416.787C204.143 416.636 203.856 416.561 203.527 416.561C203.169 416.561 202.856 416.649 202.589 416.825C202.325 416.998 202.12 417.226 201.975 417.507C201.833 417.785 201.762 418.088 201.762 418.415V419.16C201.762 419.598 201.839 419.97 201.992 420.277C202.149 420.584 202.366 420.818 202.644 420.98C202.923 421.139 203.248 421.219 203.62 421.219C203.862 421.219 204.082 421.184 204.281 421.116C204.48 421.045 204.652 420.94 204.796 420.801C204.941 420.662 205.052 420.49 205.129 420.285L206.335 420.503C206.238 420.858 206.065 421.169 205.815 421.436C205.568 421.7 205.257 421.906 204.882 422.054C204.509 422.199 204.085 422.271 203.607 422.271ZM207.709 422.139V415.594H208.941V416.633H209.009C209.128 416.281 209.339 416.004 209.64 415.802C209.944 415.598 210.288 415.496 210.671 415.496C210.751 415.496 210.844 415.498 210.952 415.504C211.063 415.51 211.15 415.517 211.212 415.525V416.744C211.161 416.73 211.07 416.714 210.94 416.697C210.809 416.677 210.678 416.667 210.547 416.667C210.246 416.667 209.978 416.731 209.742 416.859C209.509 416.984 209.324 417.159 209.188 417.383C209.052 417.605 208.984 417.858 208.984 418.142V422.139H207.709ZM217.1 417.192L215.945 417.396C215.897 417.248 215.82 417.108 215.715 416.974C215.613 416.841 215.473 416.731 215.297 416.646C215.121 416.561 214.901 416.518 214.637 416.518C214.276 416.518 213.975 416.599 213.733 416.761C213.492 416.92 213.371 417.126 213.371 417.379C213.371 417.598 213.452 417.774 213.614 417.908C213.776 418.041 214.037 418.15 214.398 418.236L215.438 418.474C216.04 418.613 216.489 418.828 216.784 419.118C217.08 419.408 217.228 419.784 217.228 420.247C217.228 420.639 217.114 420.988 216.887 421.295C216.662 421.599 216.348 421.838 215.945 422.011C215.544 422.184 215.08 422.271 214.551 422.271C213.818 422.271 213.22 422.115 212.757 421.802C212.294 421.487 212.01 421.04 211.905 420.46L213.137 420.273C213.213 420.594 213.371 420.836 213.61 421.001C213.848 421.163 214.159 421.244 214.543 421.244C214.961 421.244 215.294 421.158 215.544 420.984C215.794 420.808 215.919 420.594 215.919 420.341C215.919 420.136 215.843 419.964 215.689 419.825C215.539 419.686 215.307 419.581 214.995 419.51L213.887 419.267C213.276 419.128 212.824 418.906 212.532 418.602C212.242 418.298 212.097 417.913 212.097 417.447C212.097 417.061 212.205 416.723 212.421 416.433C212.637 416.143 212.935 415.917 213.316 415.756C213.696 415.591 214.132 415.508 214.624 415.508C215.331 415.508 215.888 415.662 216.294 415.969C216.701 416.273 216.969 416.68 217.1 417.192ZM222.838 418.253V422.139H221.564V415.594H222.787V416.659H222.868C223.019 416.312 223.255 416.034 223.576 415.824C223.899 415.613 224.307 415.508 224.799 415.508C225.245 415.508 225.635 415.602 225.971 415.79C226.306 415.974 226.566 416.25 226.75 416.616C226.935 416.983 227.027 417.436 227.027 417.976V422.139H225.753V418.129C225.753 417.655 225.63 417.284 225.382 417.017C225.135 416.747 224.796 416.612 224.364 416.612C224.069 416.612 223.806 416.676 223.576 416.804C223.348 416.932 223.168 417.119 223.034 417.366C222.904 417.611 222.838 417.906 222.838 418.253ZM231.437 422.271C230.792 422.271 230.237 422.133 229.771 421.858C229.308 421.579 228.95 421.189 228.697 420.686C228.447 420.18 228.322 419.588 228.322 418.909C228.322 418.238 228.447 417.648 228.697 417.136C228.95 416.625 229.302 416.226 229.754 415.939C230.208 415.652 230.74 415.508 231.348 415.508C231.717 415.508 232.075 415.569 232.422 415.692C232.768 415.814 233.079 416.006 233.355 416.267C233.63 416.528 233.848 416.868 234.007 417.285C234.166 417.7 234.245 418.204 234.245 418.798V419.25H229.042V418.295H232.997C232.997 417.96 232.929 417.663 232.792 417.405C232.656 417.143 232.464 416.937 232.217 416.787C231.973 416.636 231.686 416.561 231.356 416.561C230.998 416.561 230.686 416.649 230.419 416.825C230.154 416.998 229.95 417.226 229.805 417.507C229.663 417.785 229.592 418.088 229.592 418.415V419.16C229.592 419.598 229.669 419.97 229.822 420.277C229.978 420.584 230.196 420.818 230.474 420.98C230.753 421.139 231.078 421.219 231.45 421.219C231.691 421.219 231.912 421.184 232.11 421.116C232.309 421.045 232.481 420.94 232.626 420.801C232.771 420.662 232.882 420.49 232.958 420.285L234.164 420.503C234.068 420.858 233.895 421.169 233.645 421.436C233.397 421.7 233.086 421.906 232.711 422.054C232.339 422.199 231.914 422.271 231.437 422.271ZM236.946 422.139L235.02 415.594H236.337L237.62 420.4H237.684L238.971 415.594H240.287L241.566 420.379H241.63L242.904 415.594H244.221L242.299 422.139H240.999L239.669 417.413H239.571L238.242 422.139H236.946ZM246.584 413.412V422.139H245.31V413.412H246.584ZM248.983 424.594C248.793 424.594 248.62 424.578 248.464 424.547C248.307 424.518 248.191 424.487 248.114 424.453L248.421 423.409C248.654 423.471 248.861 423.498 249.043 423.49C249.225 423.481 249.385 423.413 249.525 423.285C249.667 423.158 249.792 422.949 249.9 422.659L250.057 422.224L247.662 415.594H249.026L250.684 420.673H250.752L252.41 415.594H253.777L251.08 423.013C250.955 423.354 250.796 423.642 250.603 423.878C250.41 424.116 250.179 424.295 249.912 424.415C249.645 424.534 249.336 424.594 248.983 424.594ZM260.668 422.271C260.054 422.271 259.519 422.131 259.061 421.849C258.604 421.568 258.249 421.175 257.996 420.669C257.743 420.163 257.617 419.572 257.617 418.896C257.617 418.217 257.743 417.623 257.996 417.115C258.249 416.606 258.604 416.211 259.061 415.93C259.519 415.649 260.054 415.508 260.668 415.508C261.281 415.508 261.817 415.649 262.274 415.93C262.732 416.211 263.087 416.606 263.34 417.115C263.592 417.623 263.719 418.217 263.719 418.896C263.719 419.572 263.592 420.163 263.34 420.669C263.087 421.175 262.732 421.568 262.274 421.849C261.817 422.131 261.281 422.271 260.668 422.271ZM260.672 421.202C261.07 421.202 261.399 421.096 261.661 420.886C261.922 420.676 262.115 420.396 262.24 420.047C262.368 419.697 262.432 419.312 262.432 418.892C262.432 418.474 262.368 418.091 262.24 417.741C262.115 417.389 261.922 417.106 261.661 416.893C261.399 416.68 261.07 416.574 260.672 416.574C260.271 416.574 259.939 416.68 259.675 416.893C259.414 417.106 259.219 417.389 259.091 417.741C258.966 418.091 258.904 418.474 258.904 418.892C258.904 419.312 258.966 419.697 259.091 420.047C259.219 420.396 259.414 420.676 259.675 420.886C259.939 421.096 260.271 421.202 260.672 421.202ZM266.295 418.253V422.139H265.021V415.594H266.244V416.659H266.325C266.476 416.312 266.711 416.034 267.033 415.824C267.356 415.613 267.764 415.508 268.256 415.508C268.702 415.508 269.092 415.602 269.427 415.79C269.763 415.974 270.023 416.25 270.207 416.616C270.392 416.983 270.484 417.436 270.484 417.976V422.139H269.21V418.129C269.21 417.655 269.086 417.284 268.839 417.017C268.592 416.747 268.253 416.612 267.821 416.612C267.525 416.612 267.263 416.676 267.033 416.804C266.805 416.932 266.625 417.119 266.491 417.366C266.361 417.611 266.295 417.906 266.295 418.253ZM272.175 422.139V413.412H273.449V416.655H273.526C273.6 416.518 273.707 416.361 273.846 416.182C273.985 416.003 274.178 415.846 274.425 415.713C274.672 415.577 274.999 415.508 275.405 415.508C275.934 415.508 276.405 415.642 276.82 415.909C277.235 416.176 277.56 416.561 277.796 417.064C278.035 417.567 278.154 418.172 278.154 418.879C278.154 419.586 278.036 420.193 277.8 420.699C277.564 421.202 277.241 421.589 276.829 421.862C276.417 422.132 275.947 422.267 275.418 422.267C275.02 422.267 274.695 422.2 274.442 422.067C274.192 421.933 273.996 421.777 273.854 421.598C273.712 421.419 273.603 421.26 273.526 421.121H273.42V422.139H272.175ZM273.424 418.866C273.424 419.327 273.491 419.73 273.624 420.077C273.758 420.423 273.951 420.694 274.204 420.89C274.457 421.084 274.766 421.18 275.133 421.18C275.513 421.18 275.832 421.079 276.087 420.878C276.343 420.673 276.536 420.396 276.667 420.047C276.8 419.697 276.867 419.304 276.867 418.866C276.867 418.434 276.802 418.047 276.671 417.703C276.543 417.359 276.35 417.088 276.091 416.889C275.836 416.69 275.516 416.591 275.133 416.591C274.763 416.591 274.451 416.686 274.195 416.876C273.942 417.067 273.751 417.332 273.62 417.673C273.489 418.014 273.424 418.412 273.424 418.866ZM282.222 422.271C281.608 422.271 281.073 422.131 280.615 421.849C280.158 421.568 279.803 421.175 279.55 420.669C279.297 420.163 279.171 419.572 279.171 418.896C279.171 418.217 279.297 417.623 279.55 417.115C279.803 416.606 280.158 416.211 280.615 415.93C281.073 415.649 281.608 415.508 282.222 415.508C282.835 415.508 283.371 415.649 283.828 415.93C284.286 416.211 284.641 416.606 284.894 417.115C285.147 417.623 285.273 418.217 285.273 418.896C285.273 419.572 285.147 420.163 284.894 420.669C284.641 421.175 284.286 421.568 283.828 421.849C283.371 422.131 282.835 422.271 282.222 422.271ZM282.226 421.202C282.624 421.202 282.953 421.096 283.215 420.886C283.476 420.676 283.669 420.396 283.794 420.047C283.922 419.697 283.986 419.312 283.986 418.892C283.986 418.474 283.922 418.091 283.794 417.741C283.669 417.389 283.476 417.106 283.215 416.893C282.953 416.68 282.624 416.574 282.226 416.574C281.826 416.574 281.493 416.68 281.229 416.893C280.968 417.106 280.773 417.389 280.645 417.741C280.52 418.091 280.458 418.474 280.458 418.892C280.458 419.312 280.52 419.697 280.645 420.047C280.773 420.396 280.968 420.676 281.229 420.886C281.493 421.096 281.826 421.202 282.226 421.202ZM288.48 422.284C288.065 422.284 287.69 422.207 287.355 422.054C287.02 421.898 286.754 421.672 286.558 421.376C286.365 421.081 286.268 420.719 286.268 420.29C286.268 419.92 286.339 419.616 286.481 419.378C286.624 419.139 286.815 418.95 287.057 418.811C287.298 418.672 287.568 418.567 287.866 418.496C288.165 418.425 288.469 418.371 288.778 418.334C289.17 418.288 289.489 418.251 289.733 418.223C289.977 418.192 290.155 418.142 290.266 418.074C290.376 418.006 290.432 417.895 290.432 417.741V417.711C290.432 417.339 290.327 417.051 290.116 416.846C289.909 416.642 289.599 416.54 289.187 416.54C288.758 416.54 288.42 416.635 288.173 416.825C287.929 417.013 287.76 417.221 287.666 417.452L286.469 417.179C286.611 416.781 286.818 416.46 287.091 416.216C287.366 415.969 287.683 415.79 288.041 415.679C288.399 415.565 288.775 415.508 289.17 415.508C289.432 415.508 289.709 415.54 290.001 415.602C290.297 415.662 290.572 415.773 290.828 415.934C291.087 416.096 291.298 416.328 291.463 416.629C291.628 416.927 291.71 417.315 291.71 417.792V422.139H290.466V421.244H290.415C290.332 421.409 290.209 421.571 290.044 421.73C289.879 421.889 289.668 422.021 289.409 422.126C289.15 422.231 288.841 422.284 288.48 422.284ZM288.757 421.261C289.109 421.261 289.41 421.192 289.66 421.052C289.913 420.913 290.105 420.731 290.236 420.507C290.369 420.28 290.436 420.037 290.436 419.778V418.934C290.391 418.98 290.302 419.023 290.172 419.062C290.044 419.099 289.898 419.132 289.733 419.16C289.568 419.186 289.408 419.21 289.251 419.233C289.095 419.253 288.964 419.27 288.859 419.284C288.612 419.315 288.386 419.368 288.182 419.442C287.98 419.515 287.818 419.622 287.696 419.761C287.577 419.898 287.517 420.079 287.517 420.307C287.517 420.622 287.633 420.861 287.866 421.023C288.099 421.182 288.396 421.261 288.757 421.261ZM293.287 422.139V415.594H294.519V416.633H294.587C294.706 416.281 294.916 416.004 295.218 415.802C295.522 415.598 295.865 415.496 296.249 415.496C296.328 415.496 296.422 415.498 296.53 415.504C296.641 415.51 296.728 415.517 296.79 415.525V416.744C296.739 416.73 296.648 416.714 296.517 416.697C296.387 416.677 296.256 416.667 296.125 416.667C295.824 416.667 295.556 416.731 295.32 416.859C295.087 416.984 294.902 417.159 294.766 417.383C294.63 417.605 294.561 417.858 294.561 418.142V422.139H293.287ZM299.989 422.267C299.46 422.267 298.989 422.132 298.574 421.862C298.162 421.589 297.838 421.202 297.602 420.699C297.369 420.193 297.253 419.586 297.253 418.879C297.253 418.172 297.371 417.567 297.607 417.064C297.845 416.561 298.172 416.176 298.587 415.909C299.001 415.642 299.472 415.508 299.997 415.508C300.403 415.508 300.73 415.577 300.977 415.713C301.227 415.846 301.42 416.003 301.557 416.182C301.696 416.361 301.804 416.518 301.881 416.655H301.957V413.412H303.232V422.139H301.987V421.121H301.881C301.804 421.26 301.693 421.419 301.548 421.598C301.406 421.777 301.21 421.933 300.96 422.067C300.71 422.2 300.386 422.267 299.989 422.267ZM300.27 421.18C300.636 421.18 300.946 421.084 301.199 420.89C301.455 420.694 301.648 420.423 301.778 420.077C301.912 419.73 301.979 419.327 301.979 418.866C301.979 418.412 301.913 418.014 301.783 417.673C301.652 417.332 301.46 417.067 301.207 416.876C300.955 416.686 300.642 416.591 300.27 416.591C299.886 416.591 299.567 416.69 299.311 416.889C299.055 417.088 298.862 417.359 298.732 417.703C298.604 418.047 298.54 418.434 298.54 418.866C298.54 419.304 298.605 419.697 298.736 420.047C298.866 420.396 299.06 420.673 299.315 420.878C299.574 421.079 299.892 421.18 300.27 421.18ZM307.751 422.271C307.106 422.271 306.551 422.133 306.085 421.858C305.622 421.579 305.264 421.189 305.011 420.686C304.761 420.18 304.636 419.588 304.636 418.909C304.636 418.238 304.761 417.648 305.011 417.136C305.264 416.625 305.616 416.226 306.068 415.939C306.522 415.652 307.054 415.508 307.662 415.508C308.031 415.508 308.389 415.569 308.735 415.692C309.082 415.814 309.393 416.006 309.669 416.267C309.944 416.528 310.162 416.868 310.321 417.285C310.48 417.7 310.559 418.204 310.559 418.798V419.25H305.356V418.295H309.311C309.311 417.96 309.243 417.663 309.106 417.405C308.97 417.143 308.778 416.937 308.531 416.787C308.287 416.636 308 416.561 307.67 416.561C307.312 416.561 307 416.649 306.733 416.825C306.468 416.998 306.264 417.226 306.119 417.507C305.977 417.785 305.906 418.088 305.906 418.415V419.16C305.906 419.598 305.983 419.97 306.136 420.277C306.292 420.584 306.51 420.818 306.788 420.98C307.066 421.139 307.392 421.219 307.764 421.219C308.005 421.219 308.226 421.184 308.424 421.116C308.623 421.045 308.795 420.94 308.94 420.801C309.085 420.662 309.196 420.49 309.272 420.285L310.478 420.503C310.382 420.858 310.208 421.169 309.958 421.436C309.711 421.7 309.4 421.906 309.025 422.054C308.653 422.199 308.228 422.271 307.751 422.271ZM314.303 422.267C313.775 422.267 313.303 422.132 312.889 421.862C312.477 421.589 312.153 421.202 311.917 420.699C311.684 420.193 311.568 419.586 311.568 418.879C311.568 418.172 311.685 417.567 311.921 417.064C312.16 416.561 312.487 416.176 312.901 415.909C313.316 415.642 313.786 415.508 314.312 415.508C314.718 415.508 315.045 415.577 315.292 415.713C315.542 415.846 315.735 416.003 315.871 416.182C316.011 416.361 316.119 416.518 316.195 416.655H316.272V413.412H317.546V422.139H316.302V421.121H316.195C316.119 421.26 316.008 421.419 315.863 421.598C315.721 421.777 315.525 421.933 315.275 422.067C315.025 422.2 314.701 422.267 314.303 422.267ZM314.585 421.18C314.951 421.18 315.261 421.084 315.514 420.89C315.769 420.694 315.962 420.423 316.093 420.077C316.227 419.73 316.293 419.327 316.293 418.866C316.293 418.412 316.228 418.014 316.097 417.673C315.967 417.332 315.775 417.067 315.522 416.876C315.269 416.686 314.957 416.591 314.585 416.591C314.201 416.591 313.881 416.69 313.626 416.889C313.37 417.088 313.177 417.359 313.046 417.703C312.918 418.047 312.854 418.434 312.854 418.866C312.854 419.304 312.92 419.697 313.05 420.047C313.181 420.396 313.374 420.673 313.63 420.878C313.889 421.079 314.207 421.18 314.585 421.18Z" fill="#636369"/>
<rect x="112.5" y="394.139" width="371" height="47" rx="3.5" stroke="black"/>
<line x1="114.546" y1="312.776" x2="478.691" y2="312.776" stroke="#DFE7F2" stroke-width="2"/>
<rect x="-1" y="1" width="419" height="345" rx="7" transform="matrix(-1 0 0 1 510.786 124.639)" stroke="#E1E8F2" stroke-width="2" stroke-dasharray="8 8"/>
<defs>
<clipPath id="clip0_6354_40618">
<rect width="22" height="22" fill="white" transform="translate(112.119 144.639)"/>
</clipPath>
<clipPath id="clip1_6354_40618">
<rect width="22" height="22" fill="white" transform="translate(112 344.639)"/>
</clipPath>
<clipPath id="clip2_6354_40618">
<rect width="13" height="13" fill="white" transform="translate(166.889 411.139)"/>
</clipPath>
</defs>
</svg>
