<svg width="608" height="561" viewBox="0 0 608 561" fill="none" xmlns="http://www.w3.org/2000/svg">
<path d="M559.504 -31.3209L559.504 47.3187M559.504 591.792L559.504 311.482M559.504 245.74L559.504 97.5217" stroke="#97969C" stroke-dasharray="4 4"/>
<path d="M457.312 -30.944L457.313 371.101M457.313 591.617L457.313 395.774" stroke="#97969C" stroke-dasharray="4 4"/>
<path d="M355.621 -31.1334L355.621 133.66M355.621 591.614L355.621 510.368M355.621 216.375L355.621 460.769" stroke="#97969C" stroke-dasharray="4 4"/>
<path d="M252.93 -30.944L252.93 59.7994M252.93 591.61L252.93 84.1019" stroke="#97969C" stroke-dasharray="4 4"/>
<path d="M150.739 -31.1315L150.738 342.561M150.738 591.618L150.738 425.634" stroke="#97969C" stroke-dasharray="4 4"/>
<path d="M48.547 -31.3229L48.5469 152.505M48.5469 591.607L48.5469 288.589M48.5469 198.524L48.5469 271.355" stroke="#97969C" stroke-dasharray="4 4"/>
<path d="M0 487.288L330.227 487.288M608 487.288L379.607 487.288" stroke="#97969C" stroke-dasharray="4 4"/>
<path d="M0 383.495H112.263M608 383.495L469.346 383.495M190.468 383.495H444.674" stroke="#97969C" stroke-dasharray="4 4"/>
<path d="M0 175.91H25.6723M608 175.91L396.708 175.91M316 175.91L73.3582 175.91" stroke="#97969C" stroke-dasharray="4 4"/>
<path d="M0 279.703H39.4795M608 279.703H592.678M527.354 279.703L57.1204 279.703" stroke="#97969C" stroke-dasharray="4 4"/>
<path d="M0 72.1166L239.558 72.1166M608 72.1166H582.879M534.54 72.1166L265.522 72.1166" stroke="#97969C" stroke-dasharray="4 4"/>
<path d="M355.621 511.269L365.803 497.451L379.621 487.269L365.803 477.087L355.621 463.269L345.439 477.087L331.621 487.269L345.439 497.451L355.621 511.269Z" stroke="#97969C" stroke-dasharray="4 4"/>
<path d="M559.48 96.0345L569.663 82.2169L583.48 72.0345L569.663 61.8522L559.48 48.0345L549.298 61.8522L535.48 72.0345L549.298 82.2169L559.48 96.0345Z" stroke="#97969C" stroke-dasharray="4 4"/>
<path d="M48.6016 199.765L58.7839 185.947L72.6016 175.765L58.7839 165.583L48.6016 151.765L38.4192 165.583L24.6016 175.765L38.4192 185.947L48.6016 199.765Z" stroke="#97969C" stroke-dasharray="4 4"/>
<path d="M559.469 311.619L573.045 293.195L591.469 279.619L573.045 266.042L559.469 247.619L545.892 266.042L527.469 279.619L545.892 293.195L559.469 311.619Z" stroke="#97969C" stroke-dasharray="4 4"/>
<path d="M150.754 423.525L167.724 400.495L190.754 383.525L167.724 366.554L150.754 343.525L133.783 366.554L110.754 383.525L133.783 400.495L150.754 423.525Z" stroke="#97969C" stroke-dasharray="4 4"/>
<path d="M355.621 215.915L372.592 192.886L395.621 175.915L372.592 158.945L355.621 135.915L338.651 158.945L315.621 175.915L338.651 192.886L355.621 215.915Z" stroke="#97969C" stroke-dasharray="4 4"/>
<circle r="12" transform="matrix(1 0 0 -1 457.246 383.495)" stroke="#97969C" stroke-dasharray="4 4"/>
<circle r="8" transform="matrix(1 0 0 -1 48.5469 279.703)" stroke="#97969C" stroke-dasharray="4 4"/>
<circle r="12" transform="matrix(1 0 0 -1 252.598 72.1166)" stroke="#97969C" stroke-dasharray="4 4"/>
<rect x="-2" y="2" width="442" height="202" rx="6" transform="matrix(-1 0 0 1 543 73.639)" fill="#121212"/>
<rect x="-2" y="2" width="442" height="202" rx="6" transform="matrix(-1 0 0 1 543 73.639)" stroke="#121212" stroke-width="4"/>
<rect x="-2" y="2" width="441" height="198" rx="6" transform="matrix(-1 0 0 1 525 60.639)" fill="#F5F6F8"/>
<rect x="-2" y="2" width="441" height="198" rx="6" transform="matrix(-1 0 0 1 525 60.639)" stroke="#121212" stroke-width="4"/>
<rect x="96" y="73.639" width="422" height="38" rx="4" fill="white"/>
<rect x="113" y="87.639" width="10" height="10" rx="5" fill="#EB5757"/>
<rect x="131" y="87.639" width="10" height="10" rx="5" fill="#F2C94C"/>
<rect x="149" y="87.639" width="10" height="10" rx="5" fill="#27AE60"/>
<path d="M492.438 86.639C492.438 86.0868 491.99 85.639 491.438 85.639C490.885 85.639 490.438 86.0868 490.438 86.639H492.438ZM490.438 98.639C490.438 99.1913 490.885 99.639 491.438 99.639C491.99 99.639 492.438 99.1913 492.438 98.639H490.438ZM490.438 86.639V98.639H492.438V86.639H490.438Z" fill="#E7EDF5"/>
<path d="M497.437 93.639C497.99 93.639 498.437 93.1913 498.438 92.639C498.438 92.0868 497.99 91.639 497.438 91.639L497.437 93.639ZM485.438 91.639C484.885 91.639 484.438 92.0868 484.438 92.639C484.437 93.1913 484.885 93.639 485.437 93.639L485.438 91.639ZM497.438 91.639L485.438 91.639L485.437 93.639L497.437 93.639L497.438 91.639Z" fill="#E7EDF5"/>
<rect x="-1" y="1" width="419" height="121" rx="7" transform="matrix(-1 0 0 1 515 124.639)" fill="#F5F6F8"/>
<path d="M150.03 166.819C153.45 166.819 154.746 165.091 154.746 163.165C154.746 161.401 153.882 160.069 151.344 159.583L149.202 159.169C147.798 158.899 147.474 158.719 147.474 157.945C147.474 157.189 147.96 156.847 149.508 156.847C151.29 156.847 151.812 157.261 151.812 158.521V158.719H154.476V158.575C154.476 156.181 153.036 154.399 149.598 154.399C146.142 154.399 144.792 156.217 144.792 158.053C144.792 159.925 145.764 161.095 148.068 161.491L150.192 161.869C151.884 162.157 152.064 162.445 152.064 163.255C152.064 164.065 151.686 164.371 150.156 164.371C147.978 164.371 147.492 163.993 147.492 162.661V162.481H144.846V162.715C144.846 165.379 146.484 166.819 150.03 166.819ZM160.637 166.819C163.229 166.819 164.885 165.685 164.885 163.759V163.579H162.221V163.687C162.221 164.245 161.753 164.479 160.673 164.479C159.197 164.479 158.693 163.975 158.639 162.715H164.849C164.903 162.409 164.975 161.887 164.975 161.383C164.975 159.025 163.373 157.405 160.655 157.405C157.829 157.405 156.101 159.241 156.101 162.139C156.101 165.001 157.523 166.819 160.637 166.819ZM160.565 159.619C161.825 159.619 162.437 160.141 162.383 161.077H158.657C158.765 160.123 159.269 159.619 160.565 159.619ZM170.424 165.685C171.792 165.685 172.746 165.073 173.142 164.371H173.25V165.775C173.25 167.179 172.962 167.503 171.54 167.503C169.992 167.503 169.722 167.269 169.722 166.333H167.04C167.04 168.637 168.624 169.879 171.45 169.879C174.366 169.879 175.932 168.583 175.932 165.631V157.585H173.43V158.899H173.34C172.854 157.909 171.828 157.405 170.532 157.405C167.958 157.405 166.59 159.043 166.59 161.563C166.59 164.083 167.922 165.685 170.424 165.685ZM169.272 161.563C169.272 160.285 169.722 159.691 171.27 159.691C172.566 159.691 173.25 160.141 173.25 161.293V161.833C173.25 162.985 172.548 163.435 171.252 163.435C169.722 163.435 169.272 162.841 169.272 161.563ZM180.806 166.639V161.401C180.806 160.123 181.346 159.727 182.57 159.727C183.866 159.727 184.262 160.177 184.262 161.437V166.639H186.962V161.437C186.962 160.123 187.484 159.727 188.708 159.727C190.022 159.727 190.4 160.177 190.4 161.437V166.639H193.1V160.897C193.1 158.971 192.146 157.405 189.806 157.405C188.132 157.405 187.232 158.179 186.728 159.169H186.638C186.188 158.107 185.252 157.405 183.704 157.405C182.156 157.405 181.22 158.143 180.734 159.169H180.626V157.585H178.124V166.639H180.806ZM199.399 166.819C201.991 166.819 203.647 165.685 203.647 163.759V163.579H200.983V163.687C200.983 164.245 200.515 164.479 199.435 164.479C197.959 164.479 197.455 163.975 197.401 162.715H203.611C203.665 162.409 203.737 161.887 203.737 161.383C203.737 159.025 202.135 157.405 199.417 157.405C196.591 157.405 194.863 159.241 194.863 162.139C194.863 165.001 196.285 166.819 199.399 166.819ZM199.327 159.619C200.587 159.619 201.199 160.141 201.145 161.077H197.419C197.527 160.123 198.031 159.619 199.327 159.619ZM208.253 166.639V161.509C208.253 160.141 208.811 159.727 210.107 159.727C211.475 159.727 211.889 160.177 211.889 161.437V166.639H214.589V160.897C214.589 158.971 213.581 157.405 211.223 157.405C209.639 157.405 208.667 158.143 208.181 159.169H208.073V157.585H205.571V166.639H208.253ZM220.816 166.675C221.446 166.675 222.148 166.585 222.58 166.495V164.245H221.464C220.294 164.245 220.024 164.155 220.024 163.363V159.817H222.58V157.585H220.024V155.479H217.9L217.396 157.585H215.884V159.817H217.324V163.669C217.324 165.811 218.458 166.675 220.816 166.675ZM228.313 166.819C230.815 166.819 232.201 165.739 232.201 164.047C232.201 162.571 231.409 161.707 229.501 161.347L227.845 161.005C226.765 160.789 226.603 160.663 226.603 160.231C226.603 159.799 226.855 159.565 227.935 159.565C229.087 159.565 229.339 159.889 229.339 160.483V160.735H231.913V160.483C231.913 158.449 230.221 157.405 228.007 157.405C225.433 157.405 224.065 158.593 224.065 160.267C224.065 161.941 225.037 162.697 226.819 163.021L228.187 163.273C229.393 163.489 229.645 163.597 229.645 164.083C229.645 164.533 229.465 164.695 228.367 164.695C227.053 164.695 226.657 164.551 226.657 163.885V163.507H224.083V163.561C224.083 165.757 225.469 166.819 228.313 166.819Z" fill="black"/>
<g clip-path="url(#clip0_6354_40597)">
<path d="M119.833 151.472H121.055V171.639H119.833V151.472Z" fill="#CCD6DD"/>
<path d="M120.445 153.306C121.457 153.306 122.278 152.485 122.278 151.472C122.278 150.46 121.457 149.639 120.445 149.639C119.432 149.639 118.611 150.46 118.611 151.472C118.611 152.485 119.432 153.306 120.445 153.306Z" fill="#F4900C"/>
<path d="M123.5 166.75H120.444C120.107 166.75 119.833 166.477 119.833 166.139C119.833 165.801 120.107 165.528 120.444 165.528H123.5C123.837 165.528 124.111 165.801 124.111 166.139C124.111 166.477 123.837 166.75 123.5 166.75Z" fill="#66757F"/>
<path d="M136.944 166.139C136.944 164.789 140.738 162.472 139.388 162.472H134.226C133.491 161.578 131.418 160.639 129.916 160.639C128.414 160.639 127.942 161.578 127.817 162.472H124.111C122.761 162.472 122.277 163.567 122.277 164.917V167.361C122.277 168.711 122.761 169.806 124.111 169.806H139.388C140.738 169.806 136.944 167.489 136.944 166.139Z" fill="#DD2E44"/>
<path d="M125.333 166.75C126.346 166.75 127.167 165.929 127.167 164.917C127.167 163.904 126.346 163.083 125.333 163.083C124.321 163.083 123.5 163.904 123.5 164.917C123.5 165.929 124.321 166.75 125.333 166.75Z" fill="white"/>
<path d="M125.028 165.528C125.534 165.528 125.945 165.118 125.945 164.611C125.945 164.105 125.534 163.695 125.028 163.695C124.522 163.695 124.111 164.105 124.111 164.611C124.111 165.118 124.522 165.528 125.028 165.528Z" fill="black"/>
<path d="M139.389 162.472H127.755C129.019 163.869 130.653 166.423 127.732 169.806H139.389C140.739 169.806 136.945 167.489 136.945 166.139C136.945 164.789 140.739 162.472 139.389 162.472Z" fill="#F4ABBA"/>
<path d="M123.5 156.972H120.444C120.107 156.972 119.833 156.699 119.833 156.361C119.833 156.024 120.107 155.75 120.444 155.75H123.5C123.837 155.75 124.111 156.024 124.111 156.361C124.111 156.699 123.837 156.972 123.5 156.972Z" fill="#66757F"/>
<path d="M136.944 156.361C136.944 155.011 140.738 152.695 139.388 152.695H134.227C133.492 151.8 131.419 150.861 129.916 150.861C128.414 150.861 127.942 151.8 127.817 152.695H124.111C122.761 152.695 122.277 153.789 122.277 155.139V157.583C122.277 158.933 122.761 160.028 124.111 160.028H139.388C140.738 160.028 136.944 157.711 136.944 156.361Z" fill="#55ACEE"/>
<path d="M125.333 156.972C126.346 156.972 127.167 156.152 127.167 155.139C127.167 154.127 126.346 153.306 125.333 153.306C124.321 153.306 123.5 154.127 123.5 155.139C123.5 156.152 124.321 156.972 125.333 156.972Z" fill="white"/>
<path d="M125.028 155.75C125.534 155.75 125.945 155.34 125.945 154.833C125.945 154.327 125.534 153.917 125.028 153.917C124.522 153.917 124.111 154.327 124.111 154.833C124.111 155.34 124.522 155.75 125.028 155.75Z" fill="black"/>
<path d="M139.389 152.695H127.755C129.019 154.092 130.653 156.645 127.732 160.028H139.389C140.739 160.028 136.945 157.711 136.945 156.361C136.945 155.011 140.739 152.695 139.389 152.695Z" fill="#BBDDF5"/>
</g>
<rect x="-1" y="1" width="419" height="121" rx="7" transform="matrix(-1 0 0 1 515 124.639)" stroke="#E1E8F2" stroke-width="2" stroke-dasharray="8 8"/>
<rect x="301.5" y="195.735" width="136" height="30" rx="3.5" fill="white"/>
<g clip-path="url(#clip1_6354_40597)">
<path d="M325.834 210.018C324.758 208.451 322.534 210.757 318.475 211.226C316.972 211.399 315.618 212.654 313.872 212.535C313.156 212.486 312.156 210.426 311.408 210.754C311.023 210.923 310.846 211.488 311.242 211.912L315.637 217.156C315.637 217.156 315.86 217.414 316.613 217.236C316.798 217.29 319.586 216.173 321.198 213.937C321.583 213.401 322.043 212.956 322.52 212.583C324.066 211.44 325.747 211.041 325.747 211.041C325.962 210.864 326.012 210.675 326 210.511C326.015 210.238 325.834 210.018 325.834 210.018Z" fill="#5C913B"/>
<path d="M315.782 207.516C314.205 209.703 311.445 210.739 311.445 210.739C310.93 211.176 311.365 211.69 311.365 211.69L315.714 216.839C315.714 216.839 315.932 217.096 316.664 216.918C316.664 216.918 319.425 215.884 321 213.696C322.625 211.442 325.555 210.731 325.555 210.731C326.069 210.294 325.635 209.779 325.635 209.779L321.285 204.631C321.285 204.631 321.068 204.373 320.335 204.551C320.335 204.551 317.406 205.261 315.782 207.516Z" fill="#A7D28B"/>
<path d="M320.167 211.36C321.432 211.36 322.458 210.334 322.458 209.068C322.458 207.802 321.432 206.776 320.167 206.776C318.901 206.776 317.875 207.802 317.875 209.068C317.875 210.334 318.901 211.36 320.167 211.36Z" fill="#77B255"/>
<path d="M316.364 216.538C315.997 216.538 315.862 216.402 315.844 216.381L311.923 211.805C311.916 211.796 311.717 211.568 311.741 211.279C311.756 211.104 311.847 210.948 312.011 210.815L312.037 210.799C312.063 210.789 314.605 209.744 316.03 207.855L316.113 207.918L316.03 207.855C317.538 205.857 320.138 204.999 320.164 204.991C320.891 204.822 321.129 205.063 321.154 205.092L325.023 209.693C325.03 209.701 325.228 209.929 325.204 210.219C325.19 210.394 325.099 210.55 324.935 210.683L324.893 210.703C324.868 210.71 322.34 211.338 320.875 213.279C319.417 215.212 316.872 216.463 316.847 216.475C316.653 216.521 316.494 216.538 316.364 216.538ZM316.001 216.244C316.001 216.244 316.189 216.417 316.778 216.281C316.781 216.276 319.282 215.046 320.71 213.154C322.142 211.256 324.553 210.578 324.821 210.508C324.928 210.416 324.987 210.313 324.997 210.204C325.014 210.004 324.867 209.832 324.865 209.83L320.997 205.228C320.996 205.228 320.809 205.055 320.22 205.192C320.203 205.198 317.664 206.036 316.197 207.981C314.794 209.839 312.347 210.895 312.131 210.986C312.019 211.08 311.958 211.184 311.949 211.296C311.932 211.495 312.079 211.666 312.08 211.668L316.001 216.244Z" fill="#5C913B"/>
<path d="M319.865 212.471L319.862 214.946L320.069 215.191C320.473 214.823 320.861 214.409 321.196 213.943C321.544 213.461 321.949 213.048 322.375 212.699L322.174 212.459L319.865 212.471Z" fill="#FFAC33"/>
<path d="M322.166 212.451L316.955 206.279C316.532 206.627 316.125 207.033 315.779 207.514C315.441 207.983 315.048 208.396 314.64 208.76L315.249 209.481L315.248 209.481L319.863 214.946C320.271 214.581 320.66 214.164 320.998 213.694C321.344 213.214 321.75 212.809 322.173 212.46L322.165 212.451H322.166Z" fill="#FFE8B6"/>
<path d="M317.033 212.633C316.384 211.864 315.011 213.111 314.619 212.647C314.43 212.423 314.552 212.131 314.801 211.921C315.22 211.567 315.522 211.773 315.711 211.613C315.846 211.5 315.839 211.361 315.759 211.266C315.573 211.046 315.098 211.161 314.729 211.374L314.549 211.161C314.437 211.029 314.239 211.012 314.106 211.124C313.974 211.236 313.957 211.434 314.069 211.566L314.255 211.787C313.973 212.161 313.877 212.658 314.211 213.052C314.834 213.79 316.225 212.564 316.662 213.082C316.814 213.262 316.771 213.606 316.452 213.875C315.974 214.279 315.541 214.09 315.346 214.254C315.251 214.333 315.234 214.485 315.335 214.606C315.496 214.796 316.01 214.755 316.504 214.448C316.505 214.448 316.505 214.449 316.505 214.45L316.708 214.69C316.82 214.823 317.019 214.839 317.151 214.728C317.284 214.615 317.3 214.417 317.188 214.284L316.985 214.044C316.983 214.042 316.98 214.04 316.977 214.038C317.31 213.63 317.423 213.093 317.033 212.633Z" fill="#5C913B"/>
<path d="M324.524 216.813C324.527 216.81 324.532 216.807 324.535 216.804C324.564 216.776 324.586 216.743 324.611 216.712C324.628 216.691 324.648 216.67 324.664 216.648C324.679 216.627 324.691 216.606 324.704 216.584C325.296 215.673 324.908 214.128 323.737 212.956C322.565 211.785 321.02 211.397 320.109 211.989C320.087 212.002 320.066 212.014 320.045 212.029C320.023 212.046 320.002 212.065 319.981 212.082C319.95 212.108 319.918 212.129 319.889 212.158C319.885 212.162 319.883 212.166 319.88 212.17C319.875 212.174 319.87 212.177 319.865 212.182L319.867 212.184C319.451 212.627 319.446 213.311 319.865 213.731C320.285 214.151 320.969 214.145 321.412 213.728L321.417 213.733C321.408 213.742 321.398 213.747 321.39 213.756C320.949 214.197 320.938 214.901 321.365 215.328C321.793 215.756 322.497 215.745 322.938 215.304C322.947 215.296 322.952 215.286 322.96 215.277L322.965 215.282C322.548 215.725 322.543 216.409 322.963 216.829C323.382 217.248 324.067 217.243 324.509 216.827L324.512 216.829C324.516 216.823 324.519 216.818 324.524 216.813Z" fill="#E1E8ED"/>
<path d="M319.865 213.748C320.243 214.125 320.832 214.156 321.269 213.856C321.452 213.544 321.505 213.247 321.505 213.154C320.585 213.84 319.764 213.158 319.58 212.75C319.504 213.102 319.597 213.479 319.865 213.748ZM322.906 215.348C323.03 215.173 323.127 215.004 323.172 214.89C322.586 215.427 321.467 215.034 321.128 214.183C320.979 214.579 321.055 215.034 321.366 215.345C321.783 215.763 322.463 215.759 322.906 215.348ZM324.512 216.846L324.524 216.831C324.528 216.827 324.533 216.825 324.536 216.821C324.565 216.793 324.587 216.761 324.611 216.73C324.629 216.708 324.648 216.687 324.665 216.665C324.68 216.644 324.692 216.623 324.705 216.601C324.732 216.56 324.747 216.511 324.77 216.466C323.716 216.938 322.93 216.138 322.71 215.739C322.587 216.121 322.667 216.549 322.963 216.846C323.383 217.266 324.067 217.261 324.51 216.844L324.512 216.846Z" fill="#CCD6DD"/>
<path d="M316.815 208.442L316.827 208.433C316.856 208.405 316.878 208.372 316.903 208.341C316.92 208.32 316.939 208.299 316.955 208.277C316.97 208.256 316.983 208.235 316.996 208.214C317.588 207.302 317.2 205.757 316.028 204.586C314.857 203.414 313.312 203.026 312.4 203.618C312.379 203.631 312.358 203.643 312.337 203.658C312.314 203.674 312.294 203.694 312.272 203.711C312.241 203.736 312.209 203.758 312.18 203.786C312.177 203.79 312.174 203.795 312.171 203.798C312.167 203.802 312.161 203.806 312.156 203.811L312.158 203.813C311.742 204.255 311.737 204.94 312.156 205.359C312.576 205.779 313.26 205.774 313.703 205.357L313.708 205.362C313.699 205.37 313.689 205.376 313.681 205.384C313.24 205.825 313.229 206.529 313.657 206.957C314.084 207.385 314.788 207.374 315.23 206.933C315.238 206.924 315.243 206.915 315.252 206.906L315.256 206.911C314.84 207.353 314.834 208.038 315.254 208.457C315.674 208.877 316.358 208.872 316.8 208.455L316.803 208.457C316.807 208.453 316.811 208.447 316.815 208.442Z" fill="#E1E8ED"/>
<path d="M312.155 205.36C312.533 205.737 313.122 205.768 313.559 205.468C313.742 205.156 313.794 204.859 313.794 204.766C312.875 205.451 312.054 204.769 311.87 204.361C311.794 204.714 311.887 205.091 312.155 205.36ZM315.197 206.959C315.321 206.784 315.417 206.616 315.462 206.502C314.876 207.039 313.757 206.646 313.418 205.794C313.269 206.19 313.345 206.646 313.655 206.957C314.074 207.375 314.754 207.371 315.197 206.959ZM316.802 208.458C316.806 208.453 316.81 208.448 316.814 208.443L316.826 208.433C316.855 208.405 316.877 208.373 316.901 208.342C316.919 208.32 316.938 208.3 316.954 208.277C316.969 208.256 316.981 208.235 316.995 208.214C317.022 208.172 317.036 208.123 317.059 208.078C316.006 208.55 315.22 207.751 314.999 207.352C314.876 207.734 314.956 208.162 315.253 208.458C315.673 208.878 316.357 208.873 316.799 208.456L316.802 208.458Z" fill="#CCD6DD"/>
</g>
<path d="M330.959 215.235V206.507H334.07C334.749 206.507 335.311 206.631 335.757 206.878C336.203 207.125 336.537 207.463 336.759 207.892C336.98 208.319 337.091 208.799 337.091 209.333C337.091 209.87 336.979 210.353 336.754 210.782C336.533 211.208 336.197 211.546 335.749 211.796C335.303 212.043 334.741 212.167 334.065 212.167H331.926V211.05H333.946C334.375 211.05 334.723 210.976 334.99 210.828C335.257 210.678 335.453 210.473 335.578 210.215C335.703 209.956 335.766 209.662 335.766 209.333C335.766 209.003 335.703 208.711 335.578 208.455C335.453 208.199 335.256 207.999 334.986 207.854C334.719 207.709 334.366 207.637 333.929 207.637H332.276V215.235H330.959ZM340.259 215.38C339.844 215.38 339.469 215.303 339.134 215.15C338.798 214.993 338.533 214.767 338.337 214.472C338.143 214.177 338.047 213.814 338.047 213.385C338.047 213.016 338.118 212.712 338.26 212.473C338.402 212.235 338.594 212.046 338.835 211.907C339.077 211.767 339.347 211.662 339.645 211.591C339.943 211.52 340.247 211.466 340.557 211.429C340.949 211.384 341.267 211.347 341.511 211.319C341.756 211.287 341.933 211.238 342.044 211.169C342.155 211.101 342.21 210.99 342.21 210.837V210.807C342.21 210.435 342.105 210.147 341.895 209.942C341.688 209.738 341.378 209.635 340.966 209.635C340.537 209.635 340.199 209.73 339.952 209.921C339.707 210.108 339.538 210.317 339.445 210.547L338.247 210.275C338.389 209.877 338.597 209.556 338.869 209.311C339.145 209.064 339.462 208.885 339.82 208.775C340.178 208.661 340.554 208.604 340.949 208.604C341.21 208.604 341.487 208.635 341.78 208.698C342.075 208.757 342.351 208.868 342.607 209.03C342.865 209.192 343.077 209.424 343.242 209.725C343.406 210.023 343.489 210.411 343.489 210.888V215.235H342.244V214.34H342.193C342.111 214.505 341.987 214.667 341.822 214.826C341.658 214.985 341.446 215.117 341.188 215.222C340.929 215.327 340.619 215.38 340.259 215.38ZM340.536 214.357C340.888 214.357 341.189 214.287 341.439 214.148C341.692 214.009 341.884 213.827 342.014 213.603C342.148 213.375 342.215 213.132 342.215 212.874V212.03C342.169 212.076 342.081 212.118 341.95 212.158C341.822 212.195 341.676 212.228 341.511 212.256C341.347 212.282 341.186 212.306 341.03 212.328C340.874 212.348 340.743 212.365 340.638 212.38C340.391 212.411 340.165 212.463 339.96 212.537C339.759 212.611 339.597 212.718 339.474 212.857C339.355 212.993 339.295 213.175 339.295 213.402C339.295 213.718 339.412 213.956 339.645 214.118C339.878 214.277 340.175 214.357 340.536 214.357ZM345.066 215.235V208.689H346.34V215.235H345.066ZM345.709 207.679C345.488 207.679 345.297 207.605 345.138 207.458C344.982 207.307 344.904 207.128 344.904 206.921C344.904 206.711 344.982 206.532 345.138 206.384C345.297 206.233 345.488 206.158 345.709 206.158C345.931 206.158 346.12 206.233 346.276 206.384C346.435 206.532 346.515 206.711 346.515 206.921C346.515 207.128 346.435 207.307 346.276 207.458C346.12 207.605 345.931 207.679 345.709 207.679ZM350.384 215.363C349.856 215.363 349.384 215.228 348.97 214.958C348.558 214.685 348.234 214.297 347.998 213.794C347.765 213.289 347.649 212.682 347.649 211.975C347.649 211.267 347.766 210.662 348.002 210.159C348.241 209.657 348.568 209.272 348.982 209.005C349.397 208.738 349.867 208.604 350.393 208.604C350.799 208.604 351.126 208.672 351.373 208.809C351.623 208.942 351.816 209.098 351.952 209.277C352.092 209.456 352.2 209.614 352.276 209.75H352.353V206.507H353.627V215.235H352.383V214.216H352.276C352.2 214.355 352.089 214.515 351.944 214.694C351.802 214.873 351.606 215.029 351.356 215.162C351.106 215.296 350.782 215.363 350.384 215.363ZM350.666 214.276C351.032 214.276 351.342 214.179 351.595 213.986C351.85 213.79 352.043 213.519 352.174 213.172C352.308 212.826 352.374 212.422 352.374 211.962C352.374 211.507 352.309 211.11 352.178 210.769C352.048 210.428 351.856 210.162 351.603 209.972C351.35 209.782 351.038 209.686 350.666 209.686C350.282 209.686 349.962 209.786 349.707 209.985C349.451 210.184 349.258 210.455 349.127 210.799C348.999 211.142 348.935 211.53 348.935 211.962C348.935 212.4 349.001 212.793 349.131 213.142C349.262 213.492 349.455 213.769 349.711 213.973C349.97 214.175 350.288 214.276 350.666 214.276ZM363.286 210.287L362.132 210.492C362.083 210.344 362.007 210.203 361.901 210.07C361.799 209.936 361.66 209.827 361.484 209.742C361.308 209.657 361.087 209.614 360.823 209.614C360.462 209.614 360.161 209.695 359.92 209.857C359.678 210.016 359.558 210.222 359.558 210.475C359.558 210.694 359.639 210.87 359.801 211.003C359.962 211.137 360.224 211.246 360.585 211.331L361.624 211.57C362.227 211.709 362.676 211.924 362.971 212.213C363.266 212.503 363.414 212.88 363.414 213.343C363.414 213.735 363.301 214.084 363.073 214.391C362.849 214.695 362.535 214.934 362.132 215.107C361.731 215.28 361.266 215.367 360.738 215.367C360.005 215.367 359.407 215.211 358.944 214.898C358.481 214.583 358.197 214.135 358.092 213.556L359.323 213.368C359.4 213.689 359.558 213.932 359.796 214.097C360.035 214.259 360.346 214.34 360.73 214.34C361.147 214.34 361.481 214.253 361.731 214.08C361.981 213.904 362.106 213.689 362.106 213.436C362.106 213.232 362.029 213.06 361.876 212.921C361.725 212.782 361.494 212.677 361.181 212.605L360.073 212.363C359.462 212.223 359.011 212.002 358.718 211.698C358.428 211.394 358.284 211.009 358.284 210.543C358.284 210.157 358.391 209.819 358.607 209.529C358.823 209.239 359.122 209.013 359.502 208.851C359.883 208.686 360.319 208.604 360.811 208.604C361.518 208.604 362.075 208.757 362.481 209.064C362.887 209.368 363.156 209.776 363.286 210.287ZM368.841 212.52V208.689H370.12V215.235H368.867V214.101H368.799C368.648 214.451 368.407 214.742 368.074 214.975C367.745 215.205 367.334 215.32 366.843 215.32C366.422 215.32 366.05 215.228 365.726 215.043C365.405 214.855 365.153 214.578 364.968 214.212C364.786 213.846 364.695 213.392 364.695 212.853V208.689H365.969V212.699C365.969 213.145 366.093 213.5 366.34 213.765C366.587 214.029 366.908 214.161 367.303 214.161C367.542 214.161 367.779 214.101 368.015 213.982C368.253 213.863 368.451 213.682 368.607 213.441C368.766 213.199 368.844 212.892 368.841 212.52ZM371.814 215.235V206.507H373.088V209.75H373.165C373.239 209.614 373.345 209.456 373.485 209.277C373.624 209.098 373.817 208.942 374.064 208.809C374.311 208.672 374.638 208.604 375.044 208.604C375.573 208.604 376.044 208.738 376.459 209.005C376.874 209.272 377.199 209.657 377.435 210.159C377.673 210.662 377.793 211.267 377.793 211.975C377.793 212.682 377.675 213.289 377.439 213.794C377.203 214.297 376.879 214.685 376.468 214.958C376.056 215.228 375.585 215.363 375.057 215.363C374.659 215.363 374.334 215.296 374.081 215.162C373.831 215.029 373.635 214.873 373.493 214.694C373.351 214.515 373.242 214.355 373.165 214.216H373.058V215.235H371.814ZM373.063 211.962C373.063 212.422 373.129 212.826 373.263 213.172C373.397 213.519 373.59 213.79 373.843 213.986C374.095 214.179 374.405 214.276 374.772 214.276C375.152 214.276 375.47 214.175 375.726 213.973C375.982 213.769 376.175 213.492 376.306 213.142C376.439 212.793 376.506 212.4 376.506 211.962C376.506 211.53 376.441 211.142 376.31 210.799C376.182 210.455 375.989 210.184 375.73 209.985C375.475 209.786 375.155 209.686 374.772 209.686C374.402 209.686 374.09 209.782 373.834 209.972C373.581 210.162 373.389 210.428 373.259 210.769C373.128 211.11 373.063 211.507 373.063 211.962ZM384.008 210.287L382.854 210.492C382.805 210.344 382.729 210.203 382.623 210.07C382.521 209.936 382.382 209.827 382.206 209.742C382.03 209.657 381.81 209.614 381.545 209.614C381.185 209.614 380.883 209.695 380.642 209.857C380.4 210.016 380.28 210.222 380.28 210.475C380.28 210.694 380.361 210.87 380.523 211.003C380.685 211.137 380.946 211.246 381.307 211.331L382.346 211.57C382.949 211.709 383.398 211.924 383.693 212.213C383.989 212.503 384.136 212.88 384.136 213.343C384.136 213.735 384.023 214.084 383.795 214.391C383.571 214.695 383.257 214.934 382.854 215.107C382.453 215.28 381.989 215.367 381.46 215.367C380.727 215.367 380.129 215.211 379.666 214.898C379.203 214.583 378.919 214.135 378.814 213.556L380.045 213.368C380.122 213.689 380.28 213.932 380.518 214.097C380.757 214.259 381.068 214.34 381.452 214.34C381.869 214.34 382.203 214.253 382.453 214.08C382.703 213.904 382.828 213.689 382.828 213.436C382.828 213.232 382.751 213.06 382.598 212.921C382.447 212.782 382.216 212.677 381.903 212.605L380.795 212.363C380.185 212.223 379.733 212.002 379.44 211.698C379.15 211.394 379.006 211.009 379.006 210.543C379.006 210.157 379.114 209.819 379.329 209.529C379.545 209.239 379.844 209.013 380.224 208.851C380.605 208.686 381.041 208.604 381.533 208.604C382.24 208.604 382.797 208.757 383.203 209.064C383.609 209.368 383.878 209.776 384.008 210.287ZM388.174 215.367C387.541 215.367 386.995 215.223 386.538 214.936C386.083 214.647 385.734 214.248 385.49 213.739C385.245 213.23 385.123 212.648 385.123 211.992C385.123 211.327 385.248 210.74 385.498 210.232C385.748 209.721 386.1 209.321 386.555 209.034C387.009 208.748 387.545 208.604 388.161 208.604C388.659 208.604 389.102 208.696 389.491 208.881C389.88 209.063 390.194 209.319 390.433 209.648C390.674 209.978 390.818 210.363 390.863 210.803H389.623C389.555 210.496 389.399 210.232 389.154 210.01C388.913 209.789 388.589 209.678 388.183 209.678C387.828 209.678 387.517 209.772 387.25 209.959C386.985 210.144 386.779 210.408 386.632 210.752C386.484 211.093 386.41 211.496 386.41 211.962C386.41 212.439 386.482 212.851 386.627 213.198C386.772 213.544 386.977 213.813 387.241 214.003C387.508 214.194 387.822 214.289 388.183 214.289C388.424 214.289 388.643 214.245 388.839 214.157C389.038 214.066 389.204 213.936 389.338 213.769C389.474 213.601 389.569 213.4 389.623 213.164H390.863C390.818 213.587 390.68 213.965 390.45 214.297C390.22 214.63 389.911 214.891 389.525 215.081C389.142 215.272 388.691 215.367 388.174 215.367ZM392.106 215.235V208.689H393.337V209.729H393.405C393.525 209.377 393.735 209.1 394.036 208.898C394.34 208.694 394.684 208.591 395.067 208.591C395.147 208.591 395.241 208.594 395.349 208.6C395.459 208.605 395.546 208.613 395.609 208.621V209.84C395.557 209.826 395.467 209.81 395.336 209.793C395.205 209.773 395.075 209.763 394.944 209.763C394.643 209.763 394.374 209.827 394.138 209.955C393.905 210.08 393.721 210.255 393.584 210.479C393.448 210.701 393.38 210.953 393.38 211.238V215.235H392.106ZM396.591 215.235V208.689H397.865V215.235H396.591ZM397.235 207.679C397.013 207.679 396.823 207.605 396.664 207.458C396.507 207.307 396.429 207.128 396.429 206.921C396.429 206.711 396.507 206.532 396.664 206.384C396.823 206.233 397.013 206.158 397.235 206.158C397.456 206.158 397.645 206.233 397.801 206.384C397.961 206.532 398.04 206.711 398.04 206.921C398.04 207.128 397.961 207.307 397.801 207.458C397.645 207.605 397.456 207.679 397.235 207.679ZM399.46 217.689V208.689H400.704V209.75H400.81C400.884 209.614 400.991 209.456 401.13 209.277C401.269 209.098 401.462 208.942 401.71 208.809C401.957 208.672 402.283 208.604 402.69 208.604C403.218 208.604 403.69 208.738 404.104 209.005C404.519 209.272 404.844 209.657 405.08 210.159C405.319 210.662 405.438 211.267 405.438 211.975C405.438 212.682 405.32 213.289 405.085 213.794C404.849 214.297 404.525 214.685 404.113 214.958C403.701 215.228 403.231 215.363 402.702 215.363C402.305 215.363 401.979 215.296 401.727 215.162C401.477 215.029 401.281 214.873 401.138 214.694C400.996 214.515 400.887 214.355 400.81 214.216H400.734V217.689H399.46ZM400.708 211.962C400.708 212.422 400.775 212.826 400.908 213.172C401.042 213.519 401.235 213.79 401.488 213.986C401.741 214.179 402.05 214.276 402.417 214.276C402.798 214.276 403.116 214.175 403.371 213.973C403.627 213.769 403.82 213.492 403.951 213.142C404.085 212.793 404.151 212.4 404.151 211.962C404.151 211.53 404.086 211.142 403.955 210.799C403.827 210.455 403.634 210.184 403.376 209.985C403.12 209.786 402.8 209.686 402.417 209.686C402.048 209.686 401.735 209.782 401.479 209.972C401.227 210.162 401.035 210.428 400.904 210.769C400.773 211.11 400.708 211.507 400.708 211.962ZM409.801 208.689V209.712H406.226V208.689H409.801ZM407.185 207.121H408.459V213.313C408.459 213.56 408.496 213.746 408.57 213.871C408.643 213.993 408.739 214.077 408.855 214.123C408.974 214.165 409.104 214.186 409.243 214.186C409.345 214.186 409.435 214.179 409.511 214.165C409.588 214.151 409.648 214.14 409.69 214.131L409.92 215.184C409.847 215.212 409.741 215.24 409.605 215.269C409.469 215.3 409.298 215.317 409.094 215.32C408.759 215.326 408.446 215.266 408.156 215.141C407.866 215.016 407.632 214.823 407.453 214.561C407.274 214.3 407.185 213.972 407.185 213.577V207.121ZM411.091 215.235V208.689H412.365V215.235H411.091ZM411.734 207.679C411.512 207.679 411.322 207.605 411.163 207.458C411.007 207.307 410.929 207.128 410.929 206.921C410.929 206.711 411.007 206.532 411.163 206.384C411.322 206.233 411.512 206.158 411.734 206.158C411.956 206.158 412.145 206.233 412.301 206.384C412.46 206.532 412.539 206.711 412.539 206.921C412.539 207.128 412.46 207.307 412.301 207.458C412.145 207.605 411.956 207.679 411.734 207.679ZM416.716 215.367C416.102 215.367 415.567 215.226 415.109 214.945C414.652 214.664 414.297 214.27 414.044 213.765C413.791 213.259 413.665 212.668 413.665 211.992C413.665 211.313 413.791 210.719 414.044 210.211C414.297 209.702 414.652 209.307 415.109 209.026C415.567 208.745 416.102 208.604 416.716 208.604C417.33 208.604 417.865 208.745 418.323 209.026C418.78 209.307 419.135 209.702 419.388 210.211C419.641 210.719 419.767 211.313 419.767 211.992C419.767 212.668 419.641 213.259 419.388 213.765C419.135 214.27 418.78 214.664 418.323 214.945C417.865 215.226 417.33 215.367 416.716 215.367ZM416.72 214.297C417.118 214.297 417.448 214.192 417.709 213.982C417.97 213.772 418.163 213.492 418.288 213.142C418.416 212.793 418.48 212.408 418.48 211.988C418.48 211.57 418.416 211.186 418.288 210.837C418.163 210.485 417.97 210.202 417.709 209.989C417.448 209.776 417.118 209.669 416.72 209.669C416.32 209.669 415.987 209.776 415.723 209.989C415.462 210.202 415.267 210.485 415.139 210.837C415.014 211.186 414.952 211.57 414.952 211.988C414.952 212.408 415.014 212.793 415.139 213.142C415.267 213.492 415.462 213.772 415.723 213.982C415.987 214.192 416.32 214.297 416.72 214.297ZM422.343 211.348V215.235H421.069V208.689H422.292V209.755H422.373C422.524 209.408 422.76 209.13 423.081 208.919C423.405 208.709 423.812 208.604 424.304 208.604C424.75 208.604 425.14 208.698 425.476 208.885C425.811 209.07 426.071 209.346 426.255 209.712C426.44 210.078 426.532 210.532 426.532 211.071V215.235H425.258V211.225C425.258 210.75 425.135 210.38 424.888 210.113C424.64 209.843 424.301 209.708 423.869 209.708C423.574 209.708 423.311 209.772 423.081 209.9C422.853 210.027 422.673 210.215 422.54 210.462C422.409 210.706 422.343 211.002 422.343 211.348Z" fill="#636369"/>
<rect x="301.5" y="195.735" width="136" height="30" rx="3.5" stroke="#DFE7F2"/>
<rect x="118.5" y="195.395" width="168" height="30" rx="3.5" fill="white"/>
<g clip-path="url(#clip2_6354_40597)">
<path d="M142.311 209.934L138.603 208.561L137.219 204.023C137.166 203.848 137.003 203.728 136.821 203.728C136.638 203.728 136.476 203.848 136.422 204.023L135.038 208.561L131.33 209.934C131.166 209.995 131.058 210.15 131.058 210.325C131.058 210.499 131.166 210.655 131.33 210.715L135.036 212.087L136.421 216.764C136.473 216.94 136.636 217.062 136.821 217.062C137.005 217.062 137.168 216.94 137.22 216.763L138.605 212.087L142.312 210.715C142.475 210.655 142.583 210.499 142.583 210.325C142.583 210.15 142.475 209.995 142.311 209.934Z" fill="#FFAC33"/>
<path d="M133.978 214.517L133.014 214.161L132.639 212.786C132.59 212.604 132.425 212.478 132.237 212.478C132.049 212.478 131.885 212.604 131.835 212.785L131.46 214.16L130.497 214.517C130.333 214.577 130.224 214.734 130.224 214.908C130.224 215.082 130.333 215.238 130.497 215.299L131.455 215.654L131.833 217.163C131.88 217.348 132.046 217.478 132.237 217.478C132.429 217.478 132.595 217.348 132.642 217.163L133.019 215.654L133.978 215.298C134.142 215.238 134.25 215.082 134.25 214.908C134.25 214.734 134.142 214.577 133.978 214.517ZM132.171 205.491L131.186 205.127L130.821 204.141C130.76 203.977 130.604 203.869 130.43 203.869C130.256 203.869 130.1 203.977 130.039 204.141L129.674 205.127L128.689 205.491C128.525 205.552 128.417 205.708 128.417 205.882C128.417 206.056 128.525 206.212 128.689 206.273L129.674 206.637L130.039 207.623C130.1 207.787 130.256 207.895 130.43 207.895C130.604 207.895 130.76 207.787 130.821 207.623L131.185 206.637L132.171 206.273C132.334 206.212 132.443 206.056 132.443 205.882C132.443 205.708 132.334 205.552 132.171 205.491Z" fill="#FFCC4D"/>
</g>
<path d="M155.207 209.006H153.878C153.827 208.722 153.732 208.472 153.592 208.256C153.453 208.04 153.283 207.857 153.081 207.706C152.879 207.555 152.653 207.442 152.403 207.365C152.156 207.288 151.893 207.25 151.615 207.25C151.112 207.25 150.662 207.376 150.264 207.629C149.869 207.882 149.557 208.253 149.327 208.742C149.099 209.23 148.986 209.827 148.986 210.531C148.986 211.242 149.099 211.841 149.327 212.33C149.557 212.818 149.871 213.188 150.268 213.438C150.666 213.688 151.114 213.813 151.611 213.813C151.886 213.813 152.148 213.776 152.395 213.702C152.645 213.625 152.871 213.513 153.072 213.365C153.274 213.217 153.445 213.037 153.584 212.824C153.726 212.608 153.824 212.361 153.878 212.082L155.207 212.087C155.136 212.516 154.999 212.911 154.794 213.271C154.592 213.629 154.332 213.939 154.014 214.2C153.699 214.459 153.338 214.659 152.932 214.801C152.526 214.943 152.082 215.014 151.602 215.014C150.847 215.014 150.173 214.835 149.582 214.477C148.991 214.117 148.526 213.601 148.185 212.93C147.847 212.26 147.678 211.46 147.678 210.531C147.678 209.6 147.848 208.8 148.189 208.132C148.53 207.462 148.996 206.948 149.587 206.59C150.178 206.229 150.849 206.048 151.602 206.048C152.065 206.048 152.497 206.115 152.898 206.249C153.301 206.379 153.663 206.573 153.984 206.828C154.305 207.081 154.571 207.391 154.781 207.757C154.991 208.121 155.134 208.537 155.207 209.006ZM159.318 215.027C158.704 215.027 158.169 214.886 157.711 214.605C157.254 214.324 156.899 213.93 156.646 213.425C156.393 212.919 156.267 212.328 156.267 211.652C156.267 210.973 156.393 210.379 156.646 209.871C156.899 209.362 157.254 208.967 157.711 208.686C158.169 208.405 158.704 208.264 159.318 208.264C159.931 208.264 160.467 208.405 160.924 208.686C161.382 208.967 161.737 209.362 161.99 209.871C162.243 210.379 162.369 210.973 162.369 211.652C162.369 212.328 162.243 212.919 161.99 213.425C161.737 213.93 161.382 214.324 160.924 214.605C160.467 214.886 159.931 215.027 159.318 215.027ZM159.322 213.957C159.72 213.957 160.049 213.852 160.311 213.642C160.572 213.432 160.765 213.152 160.89 212.803C161.018 212.453 161.082 212.068 161.082 211.648C161.082 211.23 161.018 210.847 160.89 210.497C160.765 210.145 160.572 209.862 160.311 209.649C160.049 209.436 159.72 209.33 159.322 209.33C158.922 209.33 158.589 209.436 158.325 209.649C158.064 209.862 157.869 210.145 157.741 210.497C157.616 210.847 157.554 211.23 157.554 211.648C157.554 212.068 157.616 212.453 157.741 212.803C157.869 213.152 158.064 213.432 158.325 213.642C158.589 213.852 158.922 213.957 159.322 213.957ZM163.671 214.895V208.35H164.894V209.415H164.975C165.112 209.054 165.335 208.773 165.644 208.571C165.954 208.367 166.325 208.264 166.756 208.264C167.194 208.264 167.56 208.367 167.856 208.571C168.154 208.776 168.374 209.057 168.516 209.415H168.585C168.741 209.065 168.989 208.787 169.33 208.58C169.671 208.369 170.077 208.264 170.549 208.264C171.143 208.264 171.627 208.45 172.002 208.823C172.38 209.195 172.569 209.756 172.569 210.506V214.895H171.295V210.625C171.295 210.182 171.174 209.861 170.933 209.662C170.691 209.463 170.403 209.364 170.068 209.364C169.653 209.364 169.33 209.492 169.1 209.747C168.87 210 168.755 210.325 168.755 210.723V214.895H167.485V210.544C167.485 210.189 167.374 209.903 167.153 209.688C166.931 209.472 166.643 209.364 166.288 209.364C166.046 209.364 165.823 209.428 165.619 209.555C165.417 209.68 165.254 209.855 165.129 210.08C165.006 210.304 164.945 210.564 164.945 210.859V214.895H163.671ZM174.157 217.35V208.35H175.401V209.411H175.508C175.581 209.274 175.688 209.117 175.827 208.938C175.966 208.759 176.16 208.602 176.407 208.469C176.654 208.332 176.981 208.264 177.387 208.264C177.915 208.264 178.387 208.398 178.802 208.665C179.216 208.932 179.542 209.317 179.777 209.82C180.016 210.323 180.135 210.928 180.135 211.635C180.135 212.342 180.017 212.949 179.782 213.455C179.546 213.957 179.222 214.345 178.81 214.618C178.398 214.888 177.928 215.023 177.4 215.023C177.002 215.023 176.677 214.956 176.424 214.823C176.174 214.689 175.978 214.533 175.836 214.354C175.694 214.175 175.584 214.016 175.508 213.876H175.431V217.35H174.157ZM175.405 211.622C175.405 212.082 175.472 212.486 175.606 212.832C175.739 213.179 175.932 213.45 176.185 213.646C176.438 213.84 176.748 213.936 177.114 213.936C177.495 213.936 177.813 213.835 178.069 213.634C178.324 213.429 178.517 213.152 178.648 212.803C178.782 212.453 178.848 212.06 178.848 211.622C178.848 211.19 178.783 210.803 178.652 210.459C178.525 210.115 178.331 209.844 178.073 209.645C177.817 209.446 177.498 209.347 177.114 209.347C176.745 209.347 176.432 209.442 176.177 209.632C175.924 209.823 175.732 210.088 175.601 210.429C175.471 210.77 175.405 211.168 175.405 211.622ZM182.717 206.168V214.895H181.443V206.168H182.717ZM187.132 215.027C186.487 215.027 185.932 214.889 185.466 214.614C185.003 214.335 184.645 213.945 184.392 213.442C184.142 212.936 184.017 212.344 184.017 211.665C184.017 210.994 184.142 210.403 184.392 209.892C184.645 209.381 184.997 208.982 185.449 208.695C185.904 208.408 186.435 208.264 187.043 208.264C187.412 208.264 187.77 208.325 188.117 208.448C188.463 208.57 188.774 208.761 189.05 209.023C189.325 209.284 189.543 209.624 189.702 210.041C189.861 210.456 189.94 210.96 189.94 211.554V212.006H184.737V211.051H188.692C188.692 210.716 188.624 210.419 188.487 210.161C188.351 209.899 188.159 209.693 187.912 209.543C187.668 209.392 187.381 209.317 187.051 209.317C186.693 209.317 186.381 209.405 186.114 209.581C185.85 209.754 185.645 209.982 185.5 210.263C185.358 210.541 185.287 210.844 185.287 211.171V211.916C185.287 212.354 185.364 212.726 185.517 213.033C185.673 213.34 185.891 213.574 186.169 213.736C186.448 213.895 186.773 213.975 187.145 213.975C187.387 213.975 187.607 213.94 187.806 213.872C188.004 213.801 188.176 213.696 188.321 213.557C188.466 213.418 188.577 213.246 188.654 213.041L189.86 213.259C189.763 213.614 189.59 213.925 189.34 214.192C189.092 214.456 188.781 214.662 188.406 214.81C188.034 214.955 187.61 215.027 187.132 215.027ZM194.29 208.35V209.372H190.714V208.35H194.29ZM191.673 206.781H192.947V212.973C192.947 213.22 192.984 213.406 193.058 213.531C193.132 213.653 193.227 213.737 193.344 213.783C193.463 213.825 193.592 213.847 193.731 213.847C193.834 213.847 193.923 213.84 194 213.825C194.077 213.811 194.136 213.8 194.179 213.791L194.409 214.844C194.335 214.872 194.23 214.901 194.094 214.929C193.957 214.96 193.787 214.977 193.582 214.98C193.247 214.986 192.934 214.926 192.645 214.801C192.355 214.676 192.121 214.483 191.942 214.222C191.763 213.96 191.673 213.632 191.673 213.237V206.781ZM198.33 215.027C197.685 215.027 197.129 214.889 196.664 214.614C196.2 214.335 195.843 213.945 195.59 213.442C195.34 212.936 195.215 212.344 195.215 211.665C195.215 210.994 195.34 210.403 195.59 209.892C195.843 209.381 196.195 208.982 196.647 208.695C197.101 208.408 197.632 208.264 198.24 208.264C198.61 208.264 198.968 208.325 199.314 208.448C199.661 208.57 199.972 208.761 200.247 209.023C200.523 209.284 200.74 209.624 200.899 210.041C201.058 210.456 201.138 210.96 201.138 211.554V212.006H195.935V211.051H199.889C199.889 210.716 199.821 210.419 199.685 210.161C199.548 209.899 199.357 209.693 199.11 209.543C198.865 209.392 198.578 209.317 198.249 209.317C197.891 209.317 197.578 209.405 197.311 209.581C197.047 209.754 196.843 209.982 196.698 210.263C196.556 210.541 196.485 210.844 196.485 211.171V211.916C196.485 212.354 196.561 212.726 196.715 213.033C196.871 213.34 197.088 213.574 197.367 213.736C197.645 213.895 197.97 213.975 198.343 213.975C198.584 213.975 198.804 213.94 199.003 213.872C199.202 213.801 199.374 213.696 199.519 213.557C199.664 213.418 199.774 213.246 199.851 213.041L201.057 213.259C200.96 213.614 200.787 213.925 200.537 214.192C200.29 214.456 199.979 214.662 199.604 214.81C199.232 214.955 198.807 215.027 198.33 215.027ZM204.882 215.023C204.354 215.023 203.882 214.888 203.467 214.618C203.055 214.345 202.731 213.957 202.496 213.455C202.263 212.949 202.146 212.342 202.146 211.635C202.146 210.928 202.264 210.323 202.5 209.82C202.739 209.317 203.065 208.932 203.48 208.665C203.895 208.398 204.365 208.264 204.89 208.264C205.297 208.264 205.623 208.332 205.871 208.469C206.121 208.602 206.314 208.759 206.45 208.938C206.589 209.117 206.697 209.274 206.774 209.411H206.851V206.168H208.125V214.895H206.881V213.876H206.774C206.697 214.016 206.587 214.175 206.442 214.354C206.3 214.533 206.104 214.689 205.854 214.823C205.604 214.956 205.28 215.023 204.882 215.023ZM205.163 213.936C205.53 213.936 205.839 213.84 206.092 213.646C206.348 213.45 206.541 213.179 206.672 212.832C206.805 212.486 206.872 212.082 206.872 211.622C206.872 211.168 206.807 210.77 206.676 210.429C206.545 210.088 206.354 209.823 206.101 209.632C205.848 209.442 205.535 209.347 205.163 209.347C204.78 209.347 204.46 209.446 204.204 209.645C203.949 209.844 203.756 210.115 203.625 210.459C203.497 210.803 203.433 211.19 203.433 211.622C203.433 212.06 203.498 212.453 203.629 212.803C203.76 213.152 203.953 213.429 204.209 213.634C204.467 213.835 204.785 213.936 205.163 213.936ZM212.879 214.895V208.35H214.111V209.389H214.179C214.298 209.037 214.508 208.76 214.81 208.558C215.114 208.354 215.457 208.251 215.841 208.251C215.92 208.251 216.014 208.254 216.122 208.26C216.233 208.266 216.32 208.273 216.382 208.281V209.5C216.331 209.486 216.24 209.47 216.109 209.453C215.979 209.433 215.848 209.423 215.717 209.423C215.416 209.423 215.148 209.487 214.912 209.615C214.679 209.74 214.494 209.915 214.358 210.139C214.222 210.361 214.153 210.614 214.153 210.898V214.895H212.879ZM219.951 215.027C219.306 215.027 218.751 214.889 218.285 214.614C217.822 214.335 217.464 213.945 217.211 213.442C216.961 212.936 216.836 212.344 216.836 211.665C216.836 210.994 216.961 210.403 217.211 209.892C217.464 209.381 217.816 208.982 218.268 208.695C218.723 208.408 219.254 208.264 219.862 208.264C220.231 208.264 220.589 208.325 220.936 208.448C221.282 208.57 221.593 208.761 221.869 209.023C222.144 209.284 222.362 209.624 222.521 210.041C222.68 210.456 222.76 210.96 222.76 211.554V212.006H217.556V211.051H221.511C221.511 210.716 221.443 210.419 221.306 210.161C221.17 209.899 220.978 209.693 220.731 209.543C220.487 209.392 220.2 209.317 219.87 209.317C219.512 209.317 219.2 209.405 218.933 209.581C218.669 209.754 218.464 209.982 218.319 210.263C218.177 210.541 218.106 210.844 218.106 211.171V211.916C218.106 212.354 218.183 212.726 218.336 213.033C218.493 213.34 218.71 213.574 218.988 213.736C219.267 213.895 219.592 213.975 219.964 213.975C220.206 213.975 220.426 213.94 220.625 213.872C220.823 213.801 220.995 213.696 221.14 213.557C221.285 213.418 221.396 213.246 221.473 213.041L222.679 213.259C222.582 213.614 222.409 213.925 222.159 214.192C221.912 214.456 221.6 214.662 221.225 214.81C220.853 214.955 220.429 215.027 219.951 215.027ZM226.798 217.486C226.278 217.486 225.83 217.418 225.455 217.281C225.083 217.145 224.779 216.965 224.543 216.74C224.308 216.516 224.131 216.27 224.015 216.003L225.11 215.551C225.187 215.676 225.289 215.808 225.417 215.948C225.548 216.09 225.724 216.21 225.945 216.31C226.17 216.409 226.458 216.459 226.81 216.459C227.293 216.459 227.692 216.341 228.008 216.105C228.323 215.872 228.481 215.5 228.481 214.989V213.702H228.4C228.323 213.841 228.212 213.996 228.067 214.166C227.925 214.337 227.729 214.484 227.479 214.609C227.229 214.734 226.904 214.797 226.504 214.797C225.986 214.797 225.521 214.676 225.106 214.435C224.694 214.19 224.367 213.831 224.126 213.357C223.887 212.879 223.768 212.293 223.768 211.597C223.768 210.901 223.886 210.304 224.121 209.807C224.36 209.31 224.687 208.929 225.102 208.665C225.516 208.398 225.986 208.264 226.512 208.264C226.918 208.264 227.246 208.332 227.496 208.469C227.746 208.602 227.941 208.759 228.08 208.938C228.222 209.117 228.332 209.274 228.408 209.411H228.502V208.35H229.751V215.04C229.751 215.602 229.62 216.064 229.359 216.425C229.097 216.786 228.744 217.053 228.298 217.226C227.854 217.399 227.354 217.486 226.798 217.486ZM226.785 213.74C227.151 213.74 227.461 213.655 227.714 213.484C227.969 213.311 228.163 213.064 228.293 212.743C228.427 212.419 228.494 212.031 228.494 211.58C228.494 211.139 228.428 210.751 228.298 210.416C228.167 210.081 227.975 209.82 227.722 209.632C227.469 209.442 227.157 209.347 226.785 209.347C226.401 209.347 226.082 209.446 225.826 209.645C225.57 209.841 225.377 210.108 225.246 210.446C225.119 210.784 225.055 211.162 225.055 211.58C225.055 212.009 225.12 212.385 225.251 212.709C225.381 213.033 225.575 213.286 225.83 213.467C226.089 213.649 226.407 213.74 226.785 213.74ZM231.34 214.895V208.35H232.614V214.895H231.34ZM231.983 207.34C231.761 207.34 231.571 207.266 231.412 207.118C231.256 206.967 231.178 206.788 231.178 206.581C231.178 206.371 231.256 206.192 231.412 206.044C231.571 205.894 231.761 205.818 231.983 205.818C232.205 205.818 232.393 205.894 232.55 206.044C232.709 206.192 232.788 206.371 232.788 206.581C232.788 206.788 232.709 206.967 232.55 207.118C232.393 207.266 232.205 207.34 231.983 207.34ZM239.113 209.948L237.958 210.152C237.909 210.004 237.833 209.864 237.728 209.73C237.625 209.597 237.486 209.487 237.31 209.402C237.134 209.317 236.914 209.274 236.65 209.274C236.289 209.274 235.988 209.355 235.746 209.517C235.505 209.676 235.384 209.882 235.384 210.135C235.384 210.354 235.465 210.53 235.627 210.663C235.789 210.797 236.05 210.906 236.411 210.992L237.451 211.23C238.053 211.369 238.502 211.584 238.797 211.874C239.093 212.163 239.24 212.54 239.24 213.003C239.24 213.395 239.127 213.744 238.9 214.051C238.675 214.355 238.361 214.594 237.958 214.767C237.557 214.94 237.093 215.027 236.564 215.027C235.831 215.027 235.233 214.871 234.77 214.558C234.307 214.243 234.023 213.796 233.918 213.216L235.15 213.028C235.226 213.35 235.384 213.592 235.623 213.757C235.861 213.919 236.172 214 236.556 214C236.973 214 237.307 213.913 237.557 213.74C237.807 213.564 237.932 213.35 237.932 213.097C237.932 212.892 237.856 212.72 237.702 212.581C237.552 212.442 237.32 212.337 237.007 212.266L235.9 212.023C235.289 211.884 234.837 211.662 234.544 211.358C234.255 211.054 234.11 210.669 234.11 210.203C234.11 209.817 234.218 209.479 234.434 209.189C234.65 208.899 234.948 208.673 235.329 208.511C235.709 208.347 236.145 208.264 236.637 208.264C237.344 208.264 237.901 208.418 238.307 208.725C238.713 209.028 238.982 209.436 239.113 209.948ZM243.577 208.35V209.372H240.001V208.35H243.577ZM240.96 206.781H242.234V212.973C242.234 213.22 242.271 213.406 242.345 213.531C242.419 213.653 242.514 213.737 242.631 213.783C242.75 213.825 242.879 213.847 243.019 213.847C243.121 213.847 243.21 213.84 243.287 213.825C243.364 213.811 243.423 213.8 243.466 213.791L243.696 214.844C243.622 214.872 243.517 214.901 243.381 214.929C243.244 214.96 243.074 214.977 242.869 214.98C242.534 214.986 242.222 214.926 241.932 214.801C241.642 214.676 241.408 214.483 241.229 214.222C241.05 213.96 240.96 213.632 240.96 213.237V206.781ZM244.866 214.895V208.35H246.098V209.389H246.166C246.285 209.037 246.495 208.76 246.797 208.558C247.101 208.354 247.444 208.251 247.828 208.251C247.907 208.251 248.001 208.254 248.109 208.26C248.22 208.266 248.307 208.273 248.369 208.281V209.5C248.318 209.486 248.227 209.47 248.096 209.453C247.966 209.433 247.835 209.423 247.704 209.423C247.403 209.423 247.135 209.487 246.899 209.615C246.666 209.74 246.481 209.915 246.345 210.139C246.209 210.361 246.14 210.614 246.14 210.898V214.895H244.866ZM251.198 215.04C250.783 215.04 250.408 214.963 250.073 214.81C249.738 214.653 249.472 214.428 249.276 214.132C249.083 213.837 248.986 213.475 248.986 213.046C248.986 212.676 249.057 212.372 249.199 212.134C249.341 211.895 249.533 211.706 249.775 211.567C250.016 211.428 250.286 211.323 250.584 211.251C250.883 211.18 251.187 211.126 251.496 211.09C251.888 211.044 252.206 211.007 252.451 210.979C252.695 210.948 252.873 210.898 252.983 210.83C253.094 210.761 253.15 210.651 253.15 210.497V210.467C253.15 210.095 253.045 209.807 252.834 209.602C252.627 209.398 252.317 209.296 251.905 209.296C251.476 209.296 251.138 209.391 250.891 209.581C250.647 209.769 250.478 209.977 250.384 210.207L249.187 209.935C249.329 209.537 249.536 209.216 249.809 208.972C250.084 208.725 250.401 208.546 250.759 208.435C251.117 208.321 251.493 208.264 251.888 208.264C252.15 208.264 252.427 208.296 252.719 208.358C253.015 208.418 253.29 208.528 253.546 208.69C253.804 208.852 254.016 209.084 254.181 209.385C254.346 209.683 254.428 210.071 254.428 210.548V214.895H253.184V214H253.133C253.05 214.165 252.927 214.327 252.762 214.486C252.597 214.645 252.385 214.777 252.127 214.882C251.868 214.987 251.559 215.04 251.198 215.04ZM251.475 214.017C251.827 214.017 252.128 213.948 252.378 213.808C252.631 213.669 252.823 213.487 252.954 213.263C253.087 213.036 253.154 212.793 253.154 212.534V211.69C253.108 211.736 253.02 211.778 252.89 211.818C252.762 211.855 252.616 211.888 252.451 211.916C252.286 211.942 252.125 211.966 251.969 211.989C251.813 212.009 251.682 212.026 251.577 212.04C251.33 212.071 251.104 212.124 250.9 212.198C250.698 212.271 250.536 212.378 250.414 212.517C250.295 212.653 250.235 212.835 250.235 213.063C250.235 213.378 250.351 213.617 250.584 213.778C250.817 213.938 251.114 214.017 251.475 214.017ZM259.061 208.35V209.372H255.485V208.35H259.061ZM256.444 206.781H257.718V212.973C257.718 213.22 257.755 213.406 257.829 213.531C257.903 213.653 257.998 213.737 258.114 213.783C258.234 213.825 258.363 213.847 258.502 213.847C258.605 213.847 258.694 213.84 258.771 213.825C258.847 213.811 258.907 213.8 258.95 213.791L259.18 214.844C259.106 214.872 259.001 214.901 258.864 214.929C258.728 214.96 258.558 214.977 258.353 214.98C258.018 214.986 257.705 214.926 257.416 214.801C257.126 214.676 256.891 214.483 256.713 214.222C256.534 213.96 256.444 213.632 256.444 213.237V206.781ZM260.35 214.895V208.35H261.624V214.895H260.35ZM260.993 207.34C260.772 207.34 260.582 207.266 260.422 207.118C260.266 206.967 260.188 206.788 260.188 206.581C260.188 206.371 260.266 206.192 260.422 206.044C260.582 205.894 260.772 205.818 260.993 205.818C261.215 205.818 261.404 205.894 261.56 206.044C261.719 206.192 261.799 206.371 261.799 206.581C261.799 206.788 261.719 206.967 261.56 207.118C261.404 207.266 261.215 207.34 260.993 207.34ZM265.975 215.027C265.362 215.027 264.826 214.886 264.369 214.605C263.911 214.324 263.556 213.93 263.303 213.425C263.051 212.919 262.924 212.328 262.924 211.652C262.924 210.973 263.051 210.379 263.303 209.871C263.556 209.362 263.911 208.967 264.369 208.686C264.826 208.405 265.362 208.264 265.975 208.264C266.589 208.264 267.125 208.405 267.582 208.686C268.039 208.967 268.394 209.362 268.647 209.871C268.9 210.379 269.026 210.973 269.026 211.652C269.026 212.328 268.9 212.919 268.647 213.425C268.394 213.93 268.039 214.324 267.582 214.605C267.125 214.886 266.589 215.027 265.975 215.027ZM265.98 213.957C266.377 213.957 266.707 213.852 266.968 213.642C267.23 213.432 267.423 213.152 267.548 212.803C267.676 212.453 267.74 212.068 267.74 211.648C267.74 211.23 267.676 210.847 267.548 210.497C267.423 210.145 267.23 209.862 266.968 209.649C266.707 209.436 266.377 209.33 265.98 209.33C265.579 209.33 265.247 209.436 264.982 209.649C264.721 209.862 264.526 210.145 264.399 210.497C264.274 210.847 264.211 211.23 264.211 211.648C264.211 212.068 264.274 212.453 264.399 212.803C264.526 213.152 264.721 213.432 264.982 213.642C265.247 213.852 265.579 213.957 265.98 213.957ZM271.603 211.009V214.895H270.329V208.35H271.552V209.415H271.633C271.783 209.068 272.019 208.79 272.34 208.58C272.664 208.369 273.072 208.264 273.563 208.264C274.009 208.264 274.4 208.358 274.735 208.546C275.07 208.73 275.33 209.006 275.515 209.372C275.699 209.739 275.792 210.192 275.792 210.732V214.895H274.518V210.885C274.518 210.411 274.394 210.04 274.147 209.773C273.9 209.503 273.56 209.368 273.128 209.368C272.833 209.368 272.57 209.432 272.34 209.56C272.113 209.688 271.932 209.875 271.799 210.122C271.668 210.367 271.603 210.662 271.603 211.009Z" fill="#636369"/>
<rect x="118.5" y="195.395" width="168" height="30" rx="3.5" stroke="#DFE7F2"/>
<rect x="-2" y="2" width="442" height="112" rx="6" transform="matrix(-1 0 0 1 543 316.639)" fill="#121212"/>
<rect x="-2" y="2" width="442" height="112" rx="6" transform="matrix(-1 0 0 1 543 316.639)" stroke="#121212" stroke-width="4"/>
<rect x="-2" y="2" width="447" height="108" rx="6" transform="matrix(-1 0 0 1 531 307.639)" fill="#F5F6F8"/>
<rect x="-1" y="1" width="421" height="84" rx="7" transform="matrix(-1 0 0 1 519 320.639)" fill="#F5F6F8"/>
<rect x="123.5" y="340.139" width="372" height="47" rx="3.5" fill="white"/>
<rect x="142.389" y="357.139" width="13" height="13" rx="1.5" stroke="#DFE7F2"/>
<rect x="358.889" y="359.639" width="105" height="8" rx="4" fill="#EEF1F7"/>
<g clip-path="url(#clip3_6354_40597)">
<path d="M178.25 363.278L181.139 360.75L186.917 361.111L187.278 366.889L184.75 369.778C184.75 369.778 184.75 367.612 182.583 365.445C180.416 363.278 178.25 363.278 178.25 363.278Z" fill="#A0041E"/>
<path d="M178.24 369.778C178.24 369.778 178.227 366.897 179.318 365.806C180.409 364.715 183.306 364.79 183.306 364.79C183.306 364.79 183.305 367.611 182.222 368.695C181.139 369.778 178.24 369.778 178.24 369.778Z" fill="#FFAC33"/>
<path d="M181.139 368.333C181.937 368.333 182.583 367.687 182.583 366.889C182.583 366.091 181.937 365.445 181.139 365.445C180.341 365.445 179.694 366.091 179.694 366.889C179.694 367.687 180.341 368.333 181.139 368.333Z" fill="#FFCC4D"/>
<path d="M190.888 357.139C190.888 357.139 187.277 357.139 182.944 360.75C180.777 362.556 180.777 365.806 181.499 366.528C182.222 367.25 185.472 367.25 187.277 365.083C190.888 360.75 190.888 357.139 190.888 357.139Z" fill="#55ACEE"/>
<path d="M187.638 358.945C187.052 358.945 186.55 359.295 186.323 359.797C186.505 359.715 186.704 359.667 186.916 359.667C187.714 359.667 188.36 360.314 188.36 361.111C188.36 361.323 188.312 361.523 188.231 361.703C188.732 361.477 189.082 360.975 189.082 360.389C189.082 359.591 188.436 358.945 187.638 358.945Z" fill="black"/>
<path d="M180.777 367.25C180.777 367.25 180.777 365.806 181.138 365.445C181.5 365.083 185.833 361.473 186.194 361.833C186.555 362.194 182.944 366.528 182.583 366.889C182.221 367.25 180.777 367.25 180.777 367.25Z" fill="#A0041E"/>
</g>
<path d="M196.847 368.139V359.412H199.958C200.637 359.412 201.2 359.535 201.646 359.783C202.092 360.03 202.426 360.368 202.647 360.797C202.869 361.223 202.98 361.703 202.98 362.237C202.98 362.774 202.867 363.257 202.643 363.686C202.421 364.112 202.086 364.45 201.637 364.7C201.191 364.947 200.63 365.071 199.954 365.071H197.815V363.954H199.835C200.264 363.954 200.612 363.881 200.879 363.733C201.146 363.582 201.342 363.378 201.467 363.119C201.592 362.861 201.654 362.567 201.654 362.237C201.654 361.908 201.592 361.615 201.467 361.359C201.342 361.104 201.144 360.903 200.874 360.758C200.607 360.613 200.255 360.541 199.818 360.541H198.164V368.139H196.847ZM204.301 368.139V361.594H205.533V362.633H205.601C205.72 362.281 205.93 362.004 206.231 361.802C206.535 361.598 206.879 361.496 207.263 361.496C207.342 361.496 207.436 361.498 207.544 361.504C207.655 361.51 207.741 361.517 207.804 361.525V362.744C207.753 362.73 207.662 362.714 207.531 362.697C207.4 362.677 207.27 362.667 207.139 362.667C206.838 362.667 206.569 362.731 206.334 362.859C206.101 362.984 205.916 363.159 205.78 363.383C205.643 363.605 205.575 363.858 205.575 364.142V368.139H204.301ZM211.373 368.271C210.728 368.271 210.173 368.133 209.707 367.858C209.244 367.579 208.886 367.189 208.633 366.686C208.383 366.18 208.258 365.588 208.258 364.909C208.258 364.238 208.383 363.648 208.633 363.136C208.886 362.625 209.238 362.226 209.69 361.939C210.144 361.652 210.676 361.508 211.284 361.508C211.653 361.508 212.011 361.569 212.357 361.692C212.704 361.814 213.015 362.006 213.291 362.267C213.566 362.528 213.784 362.868 213.943 363.285C214.102 363.7 214.181 364.204 214.181 364.798V365.25H208.978V364.295H212.933C212.933 363.96 212.865 363.663 212.728 363.405C212.592 363.143 212.4 362.937 212.153 362.787C211.909 362.636 211.622 362.561 211.292 362.561C210.934 362.561 210.622 362.649 210.355 362.825C210.09 362.998 209.886 363.226 209.741 363.507C209.599 363.785 209.528 364.088 209.528 364.415V365.16C209.528 365.598 209.605 365.97 209.758 366.277C209.914 366.584 210.132 366.818 210.41 366.98C210.688 367.139 211.014 367.219 211.386 367.219C211.627 367.219 211.848 367.184 212.046 367.116C212.245 367.045 212.417 366.94 212.562 366.801C212.707 366.662 212.818 366.49 212.894 366.285L214.1 366.503C214.004 366.858 213.83 367.169 213.58 367.436C213.333 367.7 213.022 367.906 212.647 368.054C212.275 368.199 211.85 368.271 211.373 368.271ZM215.475 368.139V361.594H216.698V362.659H216.779C216.915 362.298 217.138 362.017 217.448 361.815C217.758 361.611 218.128 361.508 218.56 361.508C218.998 361.508 219.364 361.611 219.66 361.815C219.958 362.02 220.178 362.301 220.32 362.659H220.388C220.545 362.309 220.793 362.031 221.134 361.824C221.475 361.613 221.881 361.508 222.353 361.508C222.947 361.508 223.431 361.694 223.806 362.067C224.184 362.439 224.373 363 224.373 363.75V368.139H223.099V363.869C223.099 363.426 222.978 363.105 222.736 362.906C222.495 362.707 222.207 362.608 221.871 362.608C221.457 362.608 221.134 362.736 220.904 362.991C220.674 363.244 220.559 363.569 220.559 363.967V368.139H219.289V363.788C219.289 363.433 219.178 363.148 218.957 362.932C218.735 362.716 218.447 362.608 218.092 362.608C217.85 362.608 217.627 362.672 217.422 362.8C217.221 362.925 217.057 363.099 216.932 363.324C216.81 363.548 216.749 363.808 216.749 364.104V368.139H215.475ZM225.961 368.139V361.594H227.235V368.139H225.961ZM226.604 360.584C226.382 360.584 226.192 360.51 226.033 360.362C225.877 360.211 225.799 360.033 225.799 359.825C225.799 359.615 225.877 359.436 226.033 359.288C226.192 359.138 226.382 359.062 226.604 359.062C226.826 359.062 227.014 359.138 227.171 359.288C227.33 359.436 227.409 359.615 227.409 359.825C227.409 360.033 227.33 360.211 227.171 360.362C227.014 360.51 226.826 360.584 226.604 360.584ZM232.975 365.425V361.594H234.254V368.139H233.001V367.006H232.932C232.782 367.355 232.54 367.646 232.208 367.879C231.879 368.109 231.468 368.224 230.977 368.224C230.556 368.224 230.184 368.132 229.86 367.947C229.539 367.76 229.286 367.483 229.102 367.116C228.92 366.75 228.829 366.297 228.829 365.757V361.594H230.103V365.604C230.103 366.05 230.227 366.405 230.474 366.669C230.721 366.933 231.042 367.065 231.437 367.065C231.675 367.065 231.913 367.006 232.148 366.886C232.387 366.767 232.584 366.586 232.741 366.345C232.9 366.104 232.978 365.797 232.975 365.425ZM235.846 368.139V361.594H237.069V362.659H237.149C237.286 362.298 237.509 362.017 237.819 361.815C238.128 361.611 238.499 361.508 238.931 361.508C239.368 361.508 239.735 361.611 240.03 361.815C240.328 362.02 240.549 362.301 240.691 362.659H240.759C240.915 362.309 241.164 362.031 241.505 361.824C241.846 361.613 242.252 361.508 242.723 361.508C243.317 361.508 243.801 361.694 244.176 362.067C244.554 362.439 244.743 363 244.743 363.75V368.139H243.469V363.869C243.469 363.426 243.348 363.105 243.107 362.906C242.865 362.707 242.577 362.608 242.242 362.608C241.827 362.608 241.505 362.736 241.274 362.991C241.044 363.244 240.929 363.569 240.929 363.967V368.139H239.659V363.788C239.659 363.433 239.549 363.148 239.327 362.932C239.105 362.716 238.817 362.608 238.462 362.608C238.221 362.608 237.998 362.672 237.793 362.8C237.591 362.925 237.428 363.099 237.303 363.324C237.181 363.548 237.12 363.808 237.12 364.104V368.139H235.846ZM252.144 368.271C251.51 368.271 250.965 368.128 250.508 367.841C250.053 367.551 249.704 367.152 249.459 366.643C249.215 366.135 249.093 365.552 249.093 364.896C249.093 364.231 249.218 363.645 249.468 363.136C249.718 362.625 250.07 362.226 250.525 361.939C250.979 361.652 251.515 361.508 252.131 361.508C252.628 361.508 253.071 361.601 253.461 361.785C253.85 361.967 254.164 362.223 254.402 362.552C254.644 362.882 254.787 363.267 254.833 363.707H253.593C253.525 363.4 253.368 363.136 253.124 362.915C252.883 362.693 252.559 362.582 252.152 362.582C251.797 362.582 251.486 362.676 251.219 362.863C250.955 363.048 250.749 363.312 250.601 363.656C250.454 363.997 250.38 364.4 250.38 364.866C250.38 365.344 250.452 365.756 250.597 366.102C250.742 366.449 250.946 366.717 251.211 366.908C251.478 367.098 251.792 367.193 252.152 367.193C252.394 367.193 252.613 367.149 252.809 367.061C253.008 366.97 253.174 366.841 253.307 366.673C253.444 366.506 253.539 366.304 253.593 366.068H254.833C254.787 366.491 254.65 366.869 254.419 367.202C254.189 367.534 253.881 367.795 253.495 367.986C253.111 368.176 252.661 368.271 252.144 368.271ZM260.222 365.425V361.594H261.5V368.139H260.247V367.006H260.179C260.028 367.355 259.787 367.646 259.455 367.879C259.125 368.109 258.715 368.224 258.223 368.224C257.803 368.224 257.43 368.132 257.107 367.947C256.786 367.76 256.533 367.483 256.348 367.116C256.166 366.75 256.075 366.297 256.075 365.757V361.594H257.35V365.604C257.35 366.05 257.473 366.405 257.72 366.669C257.967 366.933 258.288 367.065 258.683 367.065C258.922 367.065 259.159 367.006 259.395 366.886C259.634 366.767 259.831 366.586 259.987 366.345C260.146 366.104 260.225 365.797 260.222 365.425ZM267.997 363.192L266.842 363.396C266.794 363.248 266.717 363.108 266.612 362.974C266.51 362.841 266.37 362.731 266.194 362.646C266.018 362.561 265.798 362.518 265.534 362.518C265.173 362.518 264.872 362.599 264.63 362.761C264.389 362.92 264.268 363.126 264.268 363.379C264.268 363.598 264.349 363.774 264.511 363.908C264.673 364.041 264.934 364.15 265.295 364.236L266.335 364.474C266.937 364.613 267.386 364.828 267.682 365.118C267.977 365.408 268.125 365.784 268.125 366.247C268.125 366.639 268.011 366.988 267.784 367.295C267.559 367.599 267.245 367.838 266.842 368.011C266.442 368.184 265.977 368.271 265.449 368.271C264.716 368.271 264.118 368.115 263.655 367.802C263.192 367.487 262.907 367.04 262.802 366.46L264.034 366.273C264.111 366.594 264.268 366.836 264.507 367.001C264.745 367.163 265.057 367.244 265.44 367.244C265.858 367.244 266.192 367.158 266.442 366.984C266.692 366.808 266.817 366.594 266.817 366.341C266.817 366.136 266.74 365.964 266.586 365.825C266.436 365.686 266.204 365.581 265.892 365.51L264.784 365.267C264.173 365.128 263.721 364.906 263.429 364.602C263.139 364.298 262.994 363.913 262.994 363.447C262.994 363.061 263.102 362.723 263.318 362.433C263.534 362.143 263.832 361.917 264.213 361.756C264.594 361.591 265.03 361.508 265.521 361.508C266.228 361.508 266.785 361.662 267.192 361.969C267.598 362.273 267.866 362.68 267.997 363.192ZM272.461 361.594V362.616H268.886V361.594H272.461ZM269.845 360.025H271.119V366.217C271.119 366.464 271.156 366.65 271.23 366.775C271.303 366.898 271.399 366.981 271.515 367.027C271.634 367.069 271.764 367.091 271.903 367.091C272.005 367.091 272.095 367.084 272.171 367.069C272.248 367.055 272.308 367.044 272.35 367.035L272.58 368.088C272.507 368.116 272.401 368.145 272.265 368.173C272.129 368.204 271.958 368.221 271.754 368.224C271.418 368.23 271.106 368.17 270.816 368.045C270.526 367.92 270.292 367.727 270.113 367.466C269.934 367.204 269.845 366.876 269.845 366.481V360.025ZM276.437 368.271C275.824 368.271 275.288 368.131 274.831 367.849C274.373 367.568 274.018 367.175 273.765 366.669C273.513 366.163 273.386 365.572 273.386 364.896C273.386 364.217 273.513 363.623 273.765 363.115C274.018 362.606 274.373 362.211 274.831 361.93C275.288 361.649 275.824 361.508 276.437 361.508C277.051 361.508 277.586 361.649 278.044 361.93C278.501 362.211 278.856 362.606 279.109 363.115C279.362 363.623 279.488 364.217 279.488 364.896C279.488 365.572 279.362 366.163 279.109 366.669C278.856 367.175 278.501 367.568 278.044 367.849C277.586 368.131 277.051 368.271 276.437 368.271ZM276.442 367.202C276.839 367.202 277.169 367.096 277.43 366.886C277.692 366.676 277.885 366.396 278.01 366.047C278.138 365.697 278.202 365.312 278.202 364.892C278.202 364.474 278.138 364.091 278.01 363.741C277.885 363.389 277.692 363.106 277.43 362.893C277.169 362.68 276.839 362.574 276.442 362.574C276.041 362.574 275.709 362.68 275.444 362.893C275.183 363.106 274.988 363.389 274.861 363.741C274.736 364.091 274.673 364.474 274.673 364.892C274.673 365.312 274.736 365.697 274.861 366.047C274.988 366.396 275.183 366.676 275.444 366.886C275.709 367.096 276.041 367.202 276.442 367.202ZM280.791 368.139V361.594H282.014V362.659H282.095C282.231 362.298 282.454 362.017 282.764 361.815C283.073 361.611 283.444 361.508 283.876 361.508C284.313 361.508 284.68 361.611 284.975 361.815C285.274 362.02 285.494 362.301 285.636 362.659H285.704C285.86 362.309 286.109 362.031 286.45 361.824C286.791 361.613 287.197 361.508 287.669 361.508C288.262 361.508 288.747 361.694 289.122 362.067C289.499 362.439 289.688 363 289.688 363.75V368.139H288.414V363.869C288.414 363.426 288.294 363.105 288.052 362.906C287.811 362.707 287.522 362.608 287.187 362.608C286.772 362.608 286.45 362.736 286.22 362.991C285.99 363.244 285.874 363.569 285.874 363.967V368.139H284.605V363.788C284.605 363.433 284.494 363.148 284.272 362.932C284.051 362.716 283.762 362.608 283.407 362.608C283.166 362.608 282.943 362.672 282.738 362.8C282.536 362.925 282.373 363.099 282.248 363.324C282.126 363.548 282.065 363.808 282.065 364.104V368.139H280.791ZM294.097 368.271C293.452 368.271 292.897 368.133 292.431 367.858C291.968 367.579 291.61 367.189 291.357 366.686C291.107 366.18 290.982 365.588 290.982 364.909C290.982 364.238 291.107 363.648 291.357 363.136C291.61 362.625 291.962 362.226 292.414 361.939C292.868 361.652 293.4 361.508 294.008 361.508C294.377 361.508 294.735 361.569 295.082 361.692C295.428 361.814 295.739 362.006 296.015 362.267C296.29 362.528 296.508 362.868 296.667 363.285C296.826 363.7 296.905 364.204 296.905 364.798V365.25H291.702V364.295H295.657C295.657 363.96 295.589 363.663 295.452 363.405C295.316 363.143 295.124 362.937 294.877 362.787C294.633 362.636 294.346 362.561 294.016 362.561C293.658 362.561 293.346 362.649 293.079 362.825C292.814 362.998 292.61 363.226 292.465 363.507C292.323 363.785 292.252 364.088 292.252 364.415V365.16C292.252 365.598 292.329 365.97 292.482 366.277C292.638 366.584 292.856 366.818 293.134 366.98C293.413 367.139 293.738 367.219 294.11 367.219C294.351 367.219 294.572 367.184 294.77 367.116C294.969 367.045 295.141 366.94 295.286 366.801C295.431 366.662 295.542 366.49 295.618 366.285L296.824 366.503C296.728 366.858 296.555 367.169 296.305 367.436C296.057 367.7 295.746 367.906 295.371 368.054C294.999 368.199 294.574 368.271 294.097 368.271ZM298.199 368.139V361.594H299.431V362.633H299.499C299.618 362.281 299.828 362.004 300.13 361.802C300.433 361.598 300.777 361.496 301.161 361.496C301.24 361.496 301.334 361.498 301.442 361.504C301.553 361.51 301.639 361.517 301.702 361.525V362.744C301.651 362.73 301.56 362.714 301.429 362.697C301.299 362.677 301.168 362.667 301.037 362.667C300.736 362.667 300.468 362.731 300.232 362.859C299.999 362.984 299.814 363.159 299.678 363.383C299.541 363.605 299.473 363.858 299.473 364.142V368.139H298.199ZM307.589 363.192L306.435 363.396C306.386 363.248 306.31 363.108 306.204 362.974C306.102 362.841 305.963 362.731 305.787 362.646C305.611 362.561 305.391 362.518 305.126 362.518C304.766 362.518 304.464 362.599 304.223 362.761C303.981 362.92 303.861 363.126 303.861 363.379C303.861 363.598 303.942 363.774 304.104 363.908C304.266 364.041 304.527 364.15 304.888 364.236L305.927 364.474C306.53 364.613 306.979 364.828 307.274 365.118C307.57 365.408 307.717 365.784 307.717 366.247C307.717 366.639 307.604 366.988 307.376 367.295C307.152 367.599 306.838 367.838 306.435 368.011C306.034 368.184 305.57 368.271 305.041 368.271C304.308 368.271 303.71 368.115 303.247 367.802C302.784 367.487 302.5 367.04 302.395 366.46L303.626 366.273C303.703 366.594 303.861 366.836 304.099 367.001C304.338 367.163 304.649 367.244 305.033 367.244C305.45 367.244 305.784 367.158 306.034 366.984C306.284 366.808 306.409 366.594 306.409 366.341C306.409 366.136 306.332 365.964 306.179 365.825C306.028 365.686 305.797 365.581 305.484 365.51L304.376 365.267C303.766 365.128 303.314 364.906 303.021 364.602C302.731 364.298 302.587 363.913 302.587 363.447C302.587 363.061 302.695 362.723 302.91 362.433C303.126 362.143 303.425 361.917 303.805 361.756C304.186 361.591 304.622 361.508 305.114 361.508C305.821 361.508 306.378 361.662 306.784 361.969C307.19 362.273 307.459 362.68 307.589 363.192Z" fill="#636369"/>
<rect x="123.5" y="340.139" width="372" height="47" rx="3.5" stroke="black"/>
<rect x="-1" y="1" width="421" height="84" rx="7" transform="matrix(-1 0 0 1 519 320.639)" stroke="#E1E8F2" stroke-width="2" stroke-dasharray="8 8"/>
<rect x="-2" y="2" width="447" height="108" rx="6" transform="matrix(-1 0 0 1 531 307.639)" stroke="#121212" stroke-width="4"/>
<rect x="-2" y="2" width="442" height="112" rx="6" transform="matrix(-1 0 0 1 543 469.639)" fill="#121212"/>
<rect x="-2" y="2" width="442" height="112" rx="6" transform="matrix(-1 0 0 1 543 469.639)" stroke="#121212" stroke-width="4"/>
<rect x="-2" y="2" width="447" height="108" rx="6" transform="matrix(-1 0 0 1 531 460.639)" fill="#F5F6F8"/>
<rect x="-1" y="1" width="421" height="84" rx="7" transform="matrix(-1 0 0 1 519 473.639)" fill="#F5F6F8"/>
<rect x="123.161" y="493.039" width="372" height="47" rx="3.5" fill="white"/>
<rect x="142.05" y="510.039" width="13" height="13" rx="1.5" stroke="#DFE7F2"/>
<rect x="178.55" y="505.539" width="115" height="22" rx="11" fill="#EEF1F7"/>
<rect x="358.55" y="512.539" width="113" height="8" rx="4" fill="#EEF1F7"/>
<rect x="123.161" y="493.039" width="372" height="47" rx="3.5" stroke="black"/>
<rect x="-1" y="1" width="421" height="84" rx="7" transform="matrix(-1 0 0 1 519 473.639)" stroke="#E1E8F2" stroke-width="2" stroke-dasharray="8 8"/>
<rect x="-2" y="2" width="447" height="108" rx="6" transform="matrix(-1 0 0 1 531 460.639)" stroke="#121212" stroke-width="4"/>
<defs>
<clipPath id="clip0_6354_40597">
<rect width="22" height="22" fill="white" transform="translate(118 149.639)"/>
</clipPath>
<clipPath id="clip1_6354_40597">
<rect width="15" height="15" fill="white" transform="translate(311 203.235)"/>
</clipPath>
<clipPath id="clip2_6354_40597">
<rect width="15" height="15" fill="white" transform="translate(128 202.895)"/>
</clipPath>
<clipPath id="clip3_6354_40597">
<rect width="13" height="13" fill="white" transform="translate(177.889 357.139)"/>
</clipPath>
</defs>
</svg>
