<svg width="608" height="561" viewBox="0 0 608 561" fill="none" xmlns="http://www.w3.org/2000/svg">
<path d="M559.504 -31.3208L559.504 47.3188M559.504 591.792L559.504 311.482M559.504 245.74L559.504 97.5218" stroke="#97969C" stroke-dasharray="4 4"/>
<path d="M457.312 -30.9438L457.313 371.101M457.313 591.617L457.313 395.774" stroke="#97969C" stroke-dasharray="4 4"/>
<path d="M355.621 -31.1333L355.621 133.66M355.621 591.614L355.621 510.368M355.621 216.375L355.621 460.769" stroke="#97969C" stroke-dasharray="4 4"/>
<path d="M252.93 -30.9438L252.93 59.7995M252.93 591.61L252.93 84.102" stroke="#97969C" stroke-dasharray="4 4"/>
<path d="M150.739 -31.1313L150.738 342.561M150.738 591.618L150.738 425.635" stroke="#97969C" stroke-dasharray="4 4"/>
<path d="M48.547 -31.3228L48.5469 152.505M48.5469 591.607L48.5469 288.589M48.5469 198.524L48.5469 271.355" stroke="#97969C" stroke-dasharray="4 4"/>
<path d="M0 487.289L330.227 487.289M608 487.289L379.607 487.289" stroke="#97969C" stroke-dasharray="4 4"/>
<path d="M0 383.496H112.263M608 383.496L469.346 383.496M190.468 383.496H444.674" stroke="#97969C" stroke-dasharray="4 4"/>
<path d="M0 175.91H25.6723M608 175.91L396.708 175.91M316 175.91L73.3582 175.91" stroke="#97969C" stroke-dasharray="4 4"/>
<path d="M0 279.703H39.4795M608 279.703H592.678M527.354 279.703L57.1204 279.703" stroke="#97969C" stroke-dasharray="4 4"/>
<path d="M0 72.1167L239.558 72.1167M608 72.1167H582.879M534.54 72.1167L265.522 72.1167" stroke="#97969C" stroke-dasharray="4 4"/>
<path d="M355.621 511.269L365.803 497.451L379.621 487.269L365.803 477.087L355.621 463.269L345.439 477.087L331.621 487.269L345.439 497.451L355.621 511.269Z" stroke="#97969C" stroke-dasharray="4 4"/>
<path d="M559.48 96.0347L569.663 82.217L583.48 72.0347L569.663 61.8523L559.48 48.0347L549.298 61.8523L535.48 72.0347L549.298 82.217L559.48 96.0347Z" stroke="#97969C" stroke-dasharray="4 4"/>
<path d="M48.6016 199.765L58.7839 185.947L72.6016 175.765L58.7839 165.583L48.6016 151.765L38.4192 165.583L24.6016 175.765L38.4192 185.947L48.6016 199.765Z" stroke="#97969C" stroke-dasharray="4 4"/>
<path d="M559.469 311.619L573.045 293.195L591.469 279.619L573.045 266.042L559.469 247.619L545.892 266.042L527.469 279.619L545.892 293.195L559.469 311.619Z" stroke="#97969C" stroke-dasharray="4 4"/>
<path d="M150.754 423.525L167.724 400.495L190.754 383.525L167.724 366.554L150.754 343.525L133.783 366.554L110.754 383.525L133.783 400.495L150.754 423.525Z" stroke="#97969C" stroke-dasharray="4 4"/>
<path d="M355.621 215.916L372.592 192.886L395.621 175.916L372.592 158.945L355.621 135.916L338.651 158.945L315.621 175.916L338.651 192.886L355.621 215.916Z" stroke="#97969C" stroke-dasharray="4 4"/>
<circle r="12" transform="matrix(1 0 0 -1 457.246 383.496)" stroke="#97969C" stroke-dasharray="4 4"/>
<circle r="8" transform="matrix(1 0 0 -1 48.5469 279.703)" stroke="#97969C" stroke-dasharray="4 4"/>
<circle r="12" transform="matrix(1 0 0 -1 252.598 72.1167)" stroke="#97969C" stroke-dasharray="4 4"/>
<rect x="-2" y="2" width="441.955" height="422.315" rx="6" transform="matrix(-1 0 0 1 543.328 73.6404)" fill="#121212"/>
<rect x="-2" y="2" width="441.955" height="422.315" rx="6" transform="matrix(-1 0 0 1 543.328 73.6404)" stroke="#121212" stroke-width="4"/>
<rect x="-2" y="2" width="441.12" height="419.085" rx="6" transform="matrix(-1 0 0 1 525.039 60.7212)" fill="#F5F6F8"/>
<rect x="-2" y="2" width="441.12" height="419.085" rx="6" transform="matrix(-1 0 0 1 525.039 60.7212)" stroke="#121212" stroke-width="4"/>
<rect x="96" y="73.6392" width="422" height="38" rx="4" fill="white"/>
<rect x="113" y="87.6392" width="10" height="10" rx="5" fill="#EB5757"/>
<rect x="131" y="87.6392" width="10" height="10" rx="5" fill="#F2C94C"/>
<rect x="149" y="87.6392" width="10" height="10" rx="5" fill="#27AE60"/>
<path d="M492.438 86.6392C492.438 86.0869 491.99 85.6392 491.438 85.6392C490.885 85.6392 490.438 86.0869 490.438 86.6392H492.438ZM490.438 98.6392C490.438 99.1914 490.885 99.6392 491.438 99.6392C491.99 99.6392 492.438 99.1914 492.438 98.6392H490.438ZM490.438 86.6392V98.6392H492.438V86.6392H490.438Z" fill="#E7EDF5"/>
<path d="M497.437 93.6392C497.99 93.6392 498.437 93.1914 498.438 92.6392C498.438 92.0869 497.99 91.6392 497.438 91.6392L497.437 93.6392ZM485.438 91.6392C484.885 91.6392 484.438 92.0869 484.438 92.6392C484.437 93.1914 484.885 93.6392 485.437 93.6392L485.438 91.6392ZM497.438 91.6392L485.438 91.6392L485.437 93.6392L497.437 93.6392L497.438 91.6392Z" fill="#E7EDF5"/>
<rect x="-1" y="1" width="419" height="345" rx="7" transform="matrix(-1 0 0 1 515 124.639)" fill="#F5F6F8"/>
<path d="M332.684 172.639V170.353H334.412V167.923H332.684V160.579H329.552L323.18 168.463V170.353H329.984V172.639H332.684ZM326.582 167.923V167.743L329.822 163.855H329.984V167.923H326.582ZM345.001 172.639V170.353H346.729V167.923H345.001V160.579H341.869L335.497 168.463V170.353H342.301V172.639H345.001ZM338.899 167.923V167.743L342.139 163.855H342.301V167.923H338.899ZM349.148 175.303C350.678 175.303 351.56 174.529 351.56 172.927V169.453H348.176V172.639H349.616V172.963C349.616 173.431 349.454 173.539 349.076 173.539H348.248V175.303H349.148ZM358.615 172.819C362.035 172.819 363.745 170.767 363.745 166.663C363.745 162.379 362.359 160.399 358.507 160.399C355.285 160.399 353.593 161.947 353.593 164.377C353.593 166.663 354.943 168.031 357.571 168.031C359.371 168.031 360.325 167.419 360.865 166.627H360.955V167.671C360.955 169.543 360.559 170.245 358.795 170.245C357.463 170.245 356.905 169.885 356.905 168.985V168.877H354.043V168.985C354.043 171.307 355.771 172.819 358.615 172.819ZM358.489 165.853C356.761 165.853 356.239 165.457 356.239 164.431C356.239 163.387 356.761 162.991 358.489 162.991C360.181 162.991 360.721 163.387 360.721 164.431C360.721 165.457 360.181 165.853 358.489 165.853ZM371.539 172.819C374.995 172.819 376.939 170.371 376.939 166.609C376.939 162.865 374.995 160.399 371.539 160.399C368.065 160.399 366.121 162.865 366.121 166.609C366.121 170.371 368.065 172.819 371.539 172.819ZM371.539 170.209C369.685 170.209 369.001 169.471 369.001 166.609C369.001 163.747 369.685 163.009 371.539 163.009C373.375 163.009 374.059 163.747 374.059 166.609C374.059 169.471 373.375 170.209 371.539 170.209ZM385.105 172.819C388.561 172.819 390.505 170.371 390.505 166.609C390.505 162.865 388.561 160.399 385.105 160.399C381.631 160.399 379.687 162.865 379.687 166.609C379.687 170.371 381.631 172.819 385.105 172.819ZM385.105 170.209C383.251 170.209 382.567 169.471 382.567 166.609C382.567 163.747 383.251 163.009 385.105 163.009C386.941 163.009 387.625 163.747 387.625 166.609C387.625 169.471 386.941 170.209 385.105 170.209ZM402.034 172.819C405.544 172.819 407.326 170.947 407.326 167.941V160.579H404.626V167.905C404.626 169.633 404.014 170.209 402.034 170.209C400.036 170.209 399.424 169.633 399.424 167.905V160.579H396.742V167.941C396.742 170.947 398.524 172.819 402.034 172.819ZM413.478 172.819C415.98 172.819 417.366 171.739 417.366 170.047C417.366 168.571 416.574 167.707 414.666 167.347L413.01 167.005C411.93 166.789 411.768 166.663 411.768 166.231C411.768 165.799 412.02 165.565 413.1 165.565C414.252 165.565 414.504 165.889 414.504 166.483V166.735H417.078V166.483C417.078 164.449 415.386 163.405 413.172 163.405C410.598 163.405 409.23 164.593 409.23 166.267C409.23 167.941 410.202 168.697 411.984 169.021L413.352 169.273C414.558 169.489 414.81 169.597 414.81 170.083C414.81 170.533 414.63 170.695 413.532 170.695C412.218 170.695 411.822 170.551 411.822 169.885V169.507H409.248V169.561C409.248 171.757 410.634 172.819 413.478 172.819ZM423.339 172.819C425.931 172.819 427.587 171.685 427.587 169.759V169.579H424.923V169.687C424.923 170.245 424.455 170.479 423.375 170.479C421.899 170.479 421.395 169.975 421.341 168.715H427.551C427.605 168.409 427.677 167.887 427.677 167.383C427.677 165.025 426.075 163.405 423.357 163.405C420.531 163.405 418.803 165.241 418.803 168.139C418.803 171.001 420.225 172.819 423.339 172.819ZM423.267 165.619C424.527 165.619 425.139 166.141 425.085 167.077H421.359C421.467 166.123 421.971 165.619 423.267 165.619ZM432.193 172.639V166.969C432.193 165.979 432.589 165.691 433.417 165.691C434.263 165.691 434.569 165.997 434.569 166.969V167.455H437.251V166.627C437.251 164.809 436.549 163.405 434.659 163.405C433.381 163.405 432.571 164.125 432.121 165.043H432.013V163.585H429.511V172.639H432.193ZM442.906 172.819C445.408 172.819 446.794 171.739 446.794 170.047C446.794 168.571 446.002 167.707 444.094 167.347L442.438 167.005C441.358 166.789 441.196 166.663 441.196 166.231C441.196 165.799 441.448 165.565 442.528 165.565C443.68 165.565 443.932 165.889 443.932 166.483V166.735H446.506V166.483C446.506 164.449 444.814 163.405 442.6 163.405C440.026 163.405 438.658 164.593 438.658 166.267C438.658 167.941 439.63 168.697 441.412 169.021L442.78 169.273C443.986 169.489 444.238 169.597 444.238 170.083C444.238 170.533 444.058 170.695 442.96 170.695C441.646 170.695 441.25 170.551 441.25 169.885V169.507H438.676V169.561C438.676 171.757 440.062 172.819 442.906 172.819Z" fill="#636369"/>
<rect x="311" y="164.639" width="4" height="4" rx="2" fill="#B7B7BD"/>
<path d="M122.546 172.639V169.057H125.39C127.982 169.057 129.836 167.527 129.836 164.827C129.836 162.145 127.982 160.579 125.39 160.579H119.846V172.639H122.546ZM125.498 163.009C126.74 163.009 127.154 163.369 127.154 164.827C127.154 166.267 126.74 166.645 125.498 166.645H122.546V163.009H125.498ZM134.177 172.639V166.969C134.177 165.979 134.573 165.691 135.401 165.691C136.247 165.691 136.553 165.997 136.553 166.969V167.455H139.235V166.627C139.235 164.809 138.533 163.405 136.643 163.405C135.365 163.405 134.555 164.125 134.105 165.043H133.997V163.585H131.495V172.639H134.177ZM145.054 172.819C147.646 172.819 149.302 171.685 149.302 169.759V169.579H146.638V169.687C146.638 170.245 146.17 170.479 145.09 170.479C143.614 170.479 143.11 169.975 143.056 168.715H149.266C149.32 168.409 149.392 167.887 149.392 167.383C149.392 165.025 147.79 163.405 145.072 163.405C142.246 163.405 140.518 165.241 140.518 168.139C140.518 171.001 141.94 172.819 145.054 172.819ZM144.982 165.619C146.242 165.619 146.854 166.141 146.8 167.077H143.074C143.182 166.123 143.686 165.619 144.982 165.619ZM153.907 172.639V167.401C153.907 166.123 154.447 165.727 155.671 165.727C156.967 165.727 157.363 166.177 157.363 167.437V172.639H160.063V167.437C160.063 166.123 160.585 165.727 161.809 165.727C163.123 165.727 163.501 166.177 163.501 167.437V172.639H166.201V166.897C166.201 164.971 165.247 163.405 162.907 163.405C161.233 163.405 160.333 164.179 159.829 165.169H159.739C159.289 164.107 158.353 163.405 156.805 163.405C155.257 163.405 154.321 164.143 153.835 165.169H153.727V163.585H151.225V172.639H153.907ZM170.88 162.559V160.579H168.198L168.234 162.559H170.88ZM170.934 172.639V163.585H168.234V172.639H170.934ZM176.289 172.819C177.873 172.819 178.827 172.099 179.331 171.055H179.421V172.639H181.923V163.585H179.241V168.715C179.241 170.083 178.683 170.497 177.387 170.497C176.037 170.497 175.605 170.047 175.605 168.787V163.585H172.923V169.327C172.923 171.253 173.913 172.819 176.289 172.819ZM186.799 172.639V167.401C186.799 166.123 187.339 165.727 188.563 165.727C189.859 165.727 190.255 166.177 190.255 167.437V172.639H192.955V167.437C192.955 166.123 193.477 165.727 194.701 165.727C196.015 165.727 196.393 166.177 196.393 167.437V172.639H199.093V166.897C199.093 164.971 198.139 163.405 195.799 163.405C194.125 163.405 193.225 164.179 192.721 165.169H192.631C192.181 164.107 191.245 163.405 189.697 163.405C188.149 163.405 187.213 164.143 186.727 165.169H186.619V163.585H184.117V172.639H186.799ZM210.727 172.819C214.291 172.819 216.217 170.947 216.217 167.959V167.797H213.337V167.887C213.337 169.615 212.617 170.209 210.709 170.209C208.675 170.209 207.829 169.471 207.829 166.609C207.829 163.747 208.675 163.009 210.709 163.009C212.617 163.009 213.337 163.603 213.337 165.331V165.421H216.217V165.259C216.217 162.271 214.291 160.399 210.727 160.399C207.109 160.399 204.949 162.847 204.949 166.609C204.949 170.371 207.109 172.819 210.727 172.819ZM221.48 172.819C223.064 172.819 224.018 172.099 224.522 171.055H224.612V172.639H227.114V163.585H224.432V168.715C224.432 170.083 223.874 170.497 222.578 170.497C221.228 170.497 220.796 170.047 220.796 168.787V163.585H218.114V169.327C218.114 171.253 219.104 172.819 221.48 172.819ZM233.251 172.819C235.753 172.819 237.139 171.739 237.139 170.047C237.139 168.571 236.347 167.707 234.439 167.347L232.783 167.005C231.703 166.789 231.541 166.663 231.541 166.231C231.541 165.799 231.793 165.565 232.873 165.565C234.025 165.565 234.277 165.889 234.277 166.483V166.735H236.851V166.483C236.851 164.449 235.159 163.405 232.945 163.405C230.371 163.405 229.003 164.593 229.003 166.267C229.003 167.941 229.975 168.697 231.757 169.021L233.125 169.273C234.331 169.489 234.583 169.597 234.583 170.083C234.583 170.533 234.403 170.695 233.305 170.695C231.991 170.695 231.595 170.551 231.595 169.885V169.507H229.021V169.561C229.021 171.757 230.407 172.819 233.251 172.819ZM242.954 172.675C243.584 172.675 244.286 172.585 244.718 172.495V170.245H243.602C242.432 170.245 242.162 170.155 242.162 169.363V165.817H244.718V163.585H242.162V161.479H240.038L239.534 163.585H238.022V165.817H239.462V169.669C239.462 171.811 240.596 172.675 242.954 172.675ZM250.581 172.819C253.479 172.819 255.171 170.983 255.171 168.121C255.171 165.241 253.479 163.405 250.581 163.405C247.665 163.405 245.937 165.241 245.937 168.121C245.937 170.983 247.665 172.819 250.581 172.819ZM250.581 170.443C249.105 170.443 248.601 169.867 248.601 168.121C248.601 166.357 249.105 165.781 250.581 165.781C252.039 165.781 252.543 166.357 252.543 168.121C252.543 169.867 252.039 170.443 250.581 170.443ZM259.626 172.639V167.401C259.626 166.123 260.166 165.727 261.39 165.727C262.686 165.727 263.082 166.177 263.082 167.437V172.639H265.782V167.437C265.782 166.123 266.304 165.727 267.528 165.727C268.842 165.727 269.22 166.177 269.22 167.437V172.639H271.92V166.897C271.92 164.971 270.966 163.405 268.626 163.405C266.952 163.405 266.052 164.179 265.548 165.169H265.458C265.008 164.107 264.072 163.405 262.524 163.405C260.976 163.405 260.04 164.143 259.554 165.169H259.446V163.585H256.944V172.639H259.626ZM278.219 172.819C280.811 172.819 282.467 171.685 282.467 169.759V169.579H279.803V169.687C279.803 170.245 279.335 170.479 278.255 170.479C276.779 170.479 276.275 169.975 276.221 168.715H282.431C282.485 168.409 282.557 167.887 282.557 167.383C282.557 165.025 280.955 163.405 278.237 163.405C275.411 163.405 273.683 165.241 273.683 168.139C273.683 171.001 275.105 172.819 278.219 172.819ZM278.147 165.619C279.407 165.619 280.019 166.141 279.965 167.077H276.239C276.347 166.123 276.851 165.619 278.147 165.619ZM287.073 172.639V166.969C287.073 165.979 287.469 165.691 288.297 165.691C289.143 165.691 289.449 165.997 289.449 166.969V167.455H292.131V166.627C292.131 164.809 291.429 163.405 289.539 163.405C288.261 163.405 287.451 164.125 287.001 165.043H286.893V163.585H284.391V172.639H287.073ZM297.786 172.819C300.288 172.819 301.674 171.739 301.674 170.047C301.674 168.571 300.882 167.707 298.974 167.347L297.318 167.005C296.238 166.789 296.076 166.663 296.076 166.231C296.076 165.799 296.328 165.565 297.408 165.565C298.56 165.565 298.812 165.889 298.812 166.483V166.735H301.386V166.483C301.386 164.449 299.694 163.405 297.48 163.405C294.906 163.405 293.538 164.593 293.538 166.267C293.538 167.941 294.51 168.697 296.292 169.021L297.66 169.273C298.866 169.489 299.118 169.597 299.118 170.083C299.118 170.533 298.938 170.695 297.84 170.695C296.526 170.695 296.13 170.551 296.13 169.885V169.507H293.556V169.561C293.556 171.757 294.942 172.819 297.786 172.819Z" fill="black"/>
<rect x="119.5" y="189.872" width="168" height="30" rx="3.5" fill="white"/>
<path d="M143.311 204.411L139.603 203.039L138.219 198.501C138.166 198.326 138.003 198.206 137.821 198.206C137.638 198.206 137.476 198.326 137.422 198.501L136.038 203.039L132.33 204.411C132.166 204.472 132.058 204.627 132.058 204.802C132.058 204.976 132.166 205.132 132.33 205.193L136.036 206.565L137.421 211.241C137.473 211.418 137.636 211.539 137.821 211.539C138.005 211.539 138.168 211.418 138.22 211.241L139.605 206.565L143.312 205.192C143.475 205.132 143.583 204.977 143.583 204.802C143.583 204.628 143.475 204.472 143.311 204.411Z" fill="#FFAC33"/>
<path d="M134.978 208.995L134.014 208.638L133.639 207.263C133.59 207.082 133.425 206.956 133.237 206.956C133.049 206.956 132.885 207.082 132.835 207.263L132.46 208.638L131.497 208.994C131.333 209.055 131.224 209.211 131.224 209.385C131.224 209.559 131.333 209.716 131.497 209.776L132.455 210.132L132.833 211.641C132.88 211.826 133.046 211.956 133.237 211.956C133.429 211.956 133.595 211.826 133.642 211.64L134.019 210.131L134.978 209.776C135.142 209.716 135.25 209.559 135.25 209.385C135.25 209.211 135.142 209.055 134.978 208.995ZM133.171 199.969L132.186 199.604L131.821 198.619C131.76 198.455 131.604 198.347 131.43 198.347C131.256 198.347 131.1 198.455 131.039 198.619L130.674 199.604L129.689 199.969C129.525 200.029 129.417 200.185 129.417 200.359C129.417 200.534 129.525 200.69 129.689 200.75L130.674 201.115L131.039 202.1C131.1 202.264 131.256 202.372 131.43 202.372C131.604 202.372 131.76 202.264 131.821 202.1L132.185 201.115L133.171 200.75C133.334 200.689 133.443 200.534 133.443 200.359C133.443 200.185 133.334 200.029 133.171 199.969Z" fill="#FFCC4D"/>
<path d="M156.207 203.483H154.878C154.827 203.199 154.732 202.949 154.592 202.733C154.453 202.517 154.283 202.334 154.081 202.184C153.879 202.033 153.653 201.919 153.403 201.843C153.156 201.766 152.893 201.728 152.615 201.728C152.112 201.728 151.662 201.854 151.264 202.107C150.869 202.36 150.557 202.73 150.327 203.219C150.099 203.708 149.986 204.304 149.986 205.009C149.986 205.719 150.099 206.318 150.327 206.807C150.557 207.296 150.871 207.665 151.268 207.915C151.666 208.165 152.114 208.29 152.611 208.29C152.886 208.29 153.148 208.253 153.395 208.179C153.645 208.103 153.871 207.99 154.072 207.843C154.274 207.695 154.445 207.514 154.584 207.301C154.726 207.086 154.824 206.838 154.878 206.56L156.207 206.564C156.136 206.993 155.999 207.388 155.794 207.749C155.592 208.107 155.332 208.416 155.014 208.678C154.699 208.936 154.338 209.137 153.932 209.279C153.526 209.421 153.082 209.492 152.602 209.492C151.847 209.492 151.173 209.313 150.582 208.955C149.991 208.594 149.526 208.078 149.185 207.408C148.847 206.737 148.678 205.938 148.678 205.009C148.678 204.077 148.848 203.277 149.189 202.61C149.53 201.939 149.996 201.425 150.587 201.067C151.178 200.706 151.849 200.526 152.602 200.526C153.065 200.526 153.497 200.593 153.898 200.726C154.301 200.857 154.663 201.05 154.984 201.306C155.305 201.559 155.571 201.868 155.781 202.235C155.991 202.598 156.134 203.014 156.207 203.483ZM160.318 209.505C159.704 209.505 159.169 209.364 158.711 209.083C158.254 208.801 157.899 208.408 157.646 207.902C157.393 207.397 157.267 206.806 157.267 206.13C157.267 205.451 157.393 204.857 157.646 204.348C157.899 203.84 158.254 203.445 158.711 203.164C159.169 202.882 159.704 202.742 160.318 202.742C160.931 202.742 161.467 202.882 161.924 203.164C162.382 203.445 162.737 203.84 162.99 204.348C163.243 204.857 163.369 205.451 163.369 206.13C163.369 206.806 163.243 207.397 162.99 207.902C162.737 208.408 162.382 208.801 161.924 209.083C161.467 209.364 160.931 209.505 160.318 209.505ZM160.322 208.435C160.72 208.435 161.049 208.33 161.311 208.12C161.572 207.909 161.765 207.63 161.89 207.28C162.018 206.931 162.082 206.546 162.082 206.125C162.082 205.708 162.018 205.324 161.89 204.975C161.765 204.622 161.572 204.34 161.311 204.127C161.049 203.914 160.72 203.807 160.322 203.807C159.922 203.807 159.589 203.914 159.325 204.127C159.064 204.34 158.869 204.622 158.741 204.975C158.616 205.324 158.554 205.708 158.554 206.125C158.554 206.546 158.616 206.931 158.741 207.28C158.869 207.63 159.064 207.909 159.325 208.12C159.589 208.33 159.922 208.435 160.322 208.435ZM164.671 209.372V202.827H165.894V203.892H165.975C166.112 203.532 166.335 203.25 166.644 203.049C166.954 202.844 167.325 202.742 167.756 202.742C168.194 202.742 168.56 202.844 168.856 203.049C169.154 203.253 169.374 203.534 169.516 203.892H169.585C169.741 203.543 169.989 203.264 170.33 203.057C170.671 202.847 171.077 202.742 171.549 202.742C172.143 202.742 172.627 202.928 173.002 203.3C173.38 203.672 173.569 204.233 173.569 204.983V209.372H172.295V205.103C172.295 204.659 172.174 204.338 171.933 204.139C171.691 203.941 171.403 203.841 171.068 203.841C170.653 203.841 170.33 203.969 170.1 204.225C169.87 204.478 169.755 204.803 169.755 205.201V209.372H168.485V205.022C168.485 204.666 168.374 204.381 168.153 204.165C167.931 203.949 167.643 203.841 167.288 203.841C167.046 203.841 166.823 203.905 166.619 204.033C166.417 204.158 166.254 204.333 166.129 204.557C166.006 204.782 165.945 205.041 165.945 205.337V209.372H164.671ZM175.157 211.827V202.827H176.401V203.888H176.508C176.581 203.752 176.688 203.594 176.827 203.415C176.966 203.236 177.16 203.08 177.407 202.946C177.654 202.81 177.981 202.742 178.387 202.742C178.915 202.742 179.387 202.875 179.802 203.142C180.216 203.409 180.542 203.794 180.777 204.297C181.016 204.8 181.135 205.405 181.135 206.112C181.135 206.82 181.017 207.426 180.782 207.932C180.546 208.435 180.222 208.823 179.81 209.095C179.398 209.365 178.928 209.5 178.4 209.5C178.002 209.5 177.677 209.434 177.424 209.3C177.174 209.166 176.978 209.01 176.836 208.831C176.694 208.652 176.584 208.493 176.508 208.354H176.431V211.827H175.157ZM176.405 206.1C176.405 206.56 176.472 206.963 176.606 207.31C176.739 207.657 176.932 207.928 177.185 208.124C177.438 208.317 177.748 208.414 178.114 208.414C178.495 208.414 178.813 208.313 179.069 208.111C179.324 207.907 179.517 207.63 179.648 207.28C179.782 206.931 179.848 206.537 179.848 206.1C179.848 205.668 179.783 205.28 179.652 204.936C179.525 204.593 179.331 204.321 179.073 204.122C178.817 203.924 178.498 203.824 178.114 203.824C177.745 203.824 177.432 203.919 177.177 204.11C176.924 204.3 176.732 204.566 176.601 204.907C176.471 205.247 176.405 205.645 176.405 206.1ZM183.717 200.645V209.372H182.443V200.645H183.717ZM188.132 209.505C187.487 209.505 186.932 209.367 186.466 209.091C186.003 208.813 185.645 208.422 185.392 207.919C185.142 207.414 185.017 206.821 185.017 206.142C185.017 205.472 185.142 204.881 185.392 204.37C185.645 203.858 185.997 203.459 186.449 203.172C186.904 202.885 187.435 202.742 188.043 202.742C188.412 202.742 188.77 202.803 189.117 202.925C189.463 203.047 189.774 203.239 190.05 203.5C190.325 203.762 190.543 204.101 190.702 204.519C190.861 204.934 190.94 205.438 190.94 206.032V206.483H185.737V205.529H189.692C189.692 205.193 189.624 204.897 189.487 204.638C189.351 204.377 189.159 204.171 188.912 204.02C188.668 203.87 188.381 203.794 188.051 203.794C187.693 203.794 187.381 203.882 187.114 204.059C186.85 204.232 186.645 204.459 186.5 204.74C186.358 205.019 186.287 205.321 186.287 205.648V206.394C186.287 206.831 186.364 207.203 186.517 207.51C186.673 207.817 186.891 208.051 187.169 208.213C187.448 208.372 187.773 208.452 188.145 208.452C188.387 208.452 188.607 208.418 188.806 208.35C189.004 208.279 189.176 208.174 189.321 208.034C189.466 207.895 189.577 207.723 189.654 207.519L190.86 207.736C190.763 208.091 190.59 208.402 190.34 208.669C190.092 208.934 189.781 209.139 189.406 209.287C189.034 209.432 188.61 209.505 188.132 209.505ZM195.29 202.827V203.85H191.714V202.827H195.29ZM192.673 201.259H193.947V207.451C193.947 207.698 193.984 207.884 194.058 208.009C194.132 208.131 194.227 208.215 194.344 208.26C194.463 208.303 194.592 208.324 194.731 208.324C194.834 208.324 194.923 208.317 195 208.303C195.077 208.289 195.136 208.277 195.179 208.269L195.409 209.321C195.335 209.35 195.23 209.378 195.094 209.407C194.957 209.438 194.787 209.455 194.582 209.458C194.247 209.463 193.934 209.404 193.645 209.279C193.355 209.154 193.121 208.961 192.942 208.699C192.763 208.438 192.673 208.11 192.673 207.715V201.259ZM199.33 209.505C198.685 209.505 198.129 209.367 197.664 209.091C197.2 208.813 196.843 208.422 196.59 207.919C196.34 207.414 196.215 206.821 196.215 206.142C196.215 205.472 196.34 204.881 196.59 204.37C196.843 203.858 197.195 203.459 197.647 203.172C198.101 202.885 198.632 202.742 199.24 202.742C199.61 202.742 199.968 202.803 200.314 202.925C200.661 203.047 200.972 203.239 201.247 203.5C201.523 203.762 201.74 204.101 201.899 204.519C202.058 204.934 202.138 205.438 202.138 206.032V206.483H196.935V205.529H200.889C200.889 205.193 200.821 204.897 200.685 204.638C200.548 204.377 200.357 204.171 200.11 204.02C199.865 203.87 199.578 203.794 199.249 203.794C198.891 203.794 198.578 203.882 198.311 204.059C198.047 204.232 197.843 204.459 197.698 204.74C197.556 205.019 197.485 205.321 197.485 205.648V206.394C197.485 206.831 197.561 207.203 197.715 207.51C197.871 207.817 198.088 208.051 198.367 208.213C198.645 208.372 198.97 208.452 199.343 208.452C199.584 208.452 199.804 208.418 200.003 208.35C200.202 208.279 200.374 208.174 200.519 208.034C200.664 207.895 200.774 207.723 200.851 207.519L202.057 207.736C201.96 208.091 201.787 208.402 201.537 208.669C201.29 208.934 200.979 209.139 200.604 209.287C200.232 209.432 199.807 209.505 199.33 209.505ZM205.882 209.5C205.354 209.5 204.882 209.365 204.467 209.095C204.055 208.823 203.731 208.435 203.496 207.932C203.263 207.426 203.146 206.82 203.146 206.112C203.146 205.405 203.264 204.8 203.5 204.297C203.739 203.794 204.065 203.409 204.48 203.142C204.895 202.875 205.365 202.742 205.89 202.742C206.297 202.742 206.623 202.81 206.871 202.946C207.121 203.08 207.314 203.236 207.45 203.415C207.589 203.594 207.697 203.752 207.774 203.888H207.851V200.645H209.125V209.372H207.881V208.354H207.774C207.697 208.493 207.587 208.652 207.442 208.831C207.3 209.01 207.104 209.166 206.854 209.3C206.604 209.434 206.28 209.5 205.882 209.5ZM206.163 208.414C206.53 208.414 206.839 208.317 207.092 208.124C207.348 207.928 207.541 207.657 207.672 207.31C207.805 206.963 207.872 206.56 207.872 206.1C207.872 205.645 207.807 205.247 207.676 204.907C207.545 204.566 207.354 204.3 207.101 204.11C206.848 203.919 206.535 203.824 206.163 203.824C205.78 203.824 205.46 203.924 205.204 204.122C204.949 204.321 204.756 204.593 204.625 204.936C204.497 205.28 204.433 205.668 204.433 206.1C204.433 206.537 204.498 206.931 204.629 207.28C204.76 207.63 204.953 207.907 205.209 208.111C205.467 208.313 205.785 208.414 206.163 208.414ZM213.879 209.372V202.827H215.111V203.867H215.179C215.298 203.514 215.508 203.237 215.81 203.036C216.114 202.831 216.457 202.729 216.841 202.729C216.92 202.729 217.014 202.732 217.122 202.737C217.233 202.743 217.32 202.75 217.382 202.759V203.978C217.331 203.963 217.24 203.948 217.109 203.931C216.979 203.911 216.848 203.901 216.717 203.901C216.416 203.901 216.148 203.965 215.912 204.093C215.679 204.218 215.494 204.392 215.358 204.617C215.222 204.838 215.153 205.091 215.153 205.375V209.372H213.879ZM220.951 209.505C220.306 209.505 219.751 209.367 219.285 209.091C218.822 208.813 218.464 208.422 218.211 207.919C217.961 207.414 217.836 206.821 217.836 206.142C217.836 205.472 217.961 204.881 218.211 204.37C218.464 203.858 218.816 203.459 219.268 203.172C219.723 202.885 220.254 202.742 220.862 202.742C221.231 202.742 221.589 202.803 221.936 202.925C222.282 203.047 222.593 203.239 222.869 203.5C223.144 203.762 223.362 204.101 223.521 204.519C223.68 204.934 223.76 205.438 223.76 206.032V206.483H218.556V205.529H222.511C222.511 205.193 222.443 204.897 222.306 204.638C222.17 204.377 221.978 204.171 221.731 204.02C221.487 203.87 221.2 203.794 220.87 203.794C220.512 203.794 220.2 203.882 219.933 204.059C219.669 204.232 219.464 204.459 219.319 204.74C219.177 205.019 219.106 205.321 219.106 205.648V206.394C219.106 206.831 219.183 207.203 219.336 207.51C219.493 207.817 219.71 208.051 219.988 208.213C220.267 208.372 220.592 208.452 220.964 208.452C221.206 208.452 221.426 208.418 221.625 208.35C221.823 208.279 221.995 208.174 222.14 208.034C222.285 207.895 222.396 207.723 222.473 207.519L223.679 207.736C223.582 208.091 223.409 208.402 223.159 208.669C222.912 208.934 222.6 209.139 222.225 209.287C221.853 209.432 221.429 209.505 220.951 209.505ZM227.798 211.963C227.278 211.963 226.83 211.895 226.455 211.759C226.083 211.622 225.779 211.442 225.543 211.218C225.308 210.993 225.131 210.747 225.015 210.48L226.11 210.029C226.187 210.154 226.289 210.286 226.417 210.425C226.548 210.567 226.724 210.688 226.945 210.787C227.17 210.887 227.458 210.936 227.81 210.936C228.293 210.936 228.692 210.818 229.008 210.583C229.323 210.35 229.481 209.978 229.481 209.466V208.179H229.4C229.323 208.318 229.212 208.473 229.067 208.644C228.925 208.814 228.729 208.962 228.479 209.087C228.229 209.212 227.904 209.274 227.504 209.274C226.986 209.274 226.521 209.154 226.106 208.912C225.694 208.668 225.367 208.309 225.126 207.834C224.887 207.357 224.768 206.77 224.768 206.074C224.768 205.378 224.886 204.782 225.121 204.284C225.36 203.787 225.687 203.407 226.102 203.142C226.516 202.875 226.986 202.742 227.512 202.742C227.918 202.742 228.246 202.81 228.496 202.946C228.746 203.08 228.941 203.236 229.08 203.415C229.222 203.594 229.332 203.752 229.408 203.888H229.502V202.827H230.751V209.517C230.751 210.08 230.62 210.541 230.359 210.902C230.097 211.263 229.744 211.53 229.298 211.703C228.854 211.877 228.354 211.963 227.798 211.963ZM227.785 208.218C228.151 208.218 228.461 208.132 228.714 207.962C228.969 207.789 229.163 207.541 229.293 207.22C229.427 206.897 229.494 206.509 229.494 206.057C229.494 205.617 229.428 205.229 229.298 204.894C229.167 204.559 228.975 204.297 228.722 204.11C228.469 203.919 228.157 203.824 227.785 203.824C227.401 203.824 227.082 203.924 226.826 204.122C226.57 204.318 226.377 204.586 226.246 204.924C226.119 205.262 226.055 205.639 226.055 206.057C226.055 206.486 226.12 206.862 226.251 207.186C226.381 207.51 226.575 207.763 226.83 207.945C227.089 208.127 227.407 208.218 227.785 208.218ZM232.34 209.372V202.827H233.614V209.372H232.34ZM232.983 201.817C232.761 201.817 232.571 201.743 232.412 201.595C232.256 201.445 232.178 201.266 232.178 201.059C232.178 200.848 232.256 200.669 232.412 200.522C232.571 200.371 232.761 200.296 232.983 200.296C233.205 200.296 233.393 200.371 233.55 200.522C233.709 200.669 233.788 200.848 233.788 201.059C233.788 201.266 233.709 201.445 233.55 201.595C233.393 201.743 233.205 201.817 232.983 201.817ZM240.113 204.425L238.958 204.63C238.909 204.482 238.833 204.341 238.728 204.208C238.625 204.074 238.486 203.965 238.31 203.88C238.134 203.794 237.914 203.752 237.65 203.752C237.289 203.752 236.988 203.833 236.746 203.995C236.505 204.154 236.384 204.36 236.384 204.612C236.384 204.831 236.465 205.007 236.627 205.141C236.789 205.274 237.05 205.384 237.411 205.469L238.451 205.708C239.053 205.847 239.502 206.061 239.797 206.351C240.093 206.641 240.24 207.017 240.24 207.48C240.24 207.872 240.127 208.222 239.9 208.529C239.675 208.833 239.361 209.071 238.958 209.245C238.557 209.418 238.093 209.505 237.564 209.505C236.831 209.505 236.233 209.348 235.77 209.036C235.307 208.72 235.023 208.273 234.918 207.693L236.15 207.506C236.226 207.827 236.384 208.07 236.623 208.235C236.861 208.397 237.172 208.478 237.556 208.478C237.973 208.478 238.307 208.391 238.557 208.218C238.807 208.041 238.932 207.827 238.932 207.574C238.932 207.37 238.856 207.198 238.702 207.059C238.552 206.919 238.32 206.814 238.007 206.743L236.9 206.5C236.289 206.361 235.837 206.139 235.544 205.836C235.255 205.532 235.11 205.147 235.11 204.681C235.11 204.294 235.218 203.956 235.434 203.666C235.65 203.377 235.948 203.151 236.329 202.989C236.709 202.824 237.145 202.742 237.637 202.742C238.344 202.742 238.901 202.895 239.307 203.202C239.713 203.506 239.982 203.914 240.113 204.425ZM244.577 202.827V203.85H241.001V202.827H244.577ZM241.96 201.259H243.234V207.451C243.234 207.698 243.271 207.884 243.345 208.009C243.419 208.131 243.514 208.215 243.631 208.26C243.75 208.303 243.879 208.324 244.019 208.324C244.121 208.324 244.21 208.317 244.287 208.303C244.364 208.289 244.423 208.277 244.466 208.269L244.696 209.321C244.622 209.35 244.517 209.378 244.381 209.407C244.244 209.438 244.074 209.455 243.869 209.458C243.534 209.463 243.222 209.404 242.932 209.279C242.642 209.154 242.408 208.961 242.229 208.699C242.05 208.438 241.96 208.11 241.96 207.715V201.259ZM245.866 209.372V202.827H247.098V203.867H247.166C247.285 203.514 247.495 203.237 247.797 203.036C248.101 202.831 248.444 202.729 248.828 202.729C248.907 202.729 249.001 202.732 249.109 202.737C249.22 202.743 249.307 202.75 249.369 202.759V203.978C249.318 203.963 249.227 203.948 249.096 203.931C248.966 203.911 248.835 203.901 248.704 203.901C248.403 203.901 248.135 203.965 247.899 204.093C247.666 204.218 247.481 204.392 247.345 204.617C247.209 204.838 247.14 205.091 247.14 205.375V209.372H245.866ZM252.198 209.517C251.783 209.517 251.408 209.441 251.073 209.287C250.738 209.131 250.472 208.905 250.276 208.61C250.083 208.314 249.986 207.952 249.986 207.523C249.986 207.154 250.057 206.85 250.199 206.611C250.341 206.372 250.533 206.184 250.775 206.044C251.016 205.905 251.286 205.8 251.584 205.729C251.883 205.658 252.187 205.604 252.496 205.567C252.888 205.522 253.206 205.485 253.451 205.456C253.695 205.425 253.873 205.375 253.983 205.307C254.094 205.239 254.15 205.128 254.15 204.975V204.945C254.15 204.573 254.045 204.284 253.834 204.08C253.627 203.875 253.317 203.773 252.905 203.773C252.476 203.773 252.138 203.868 251.891 204.059C251.647 204.246 251.478 204.455 251.384 204.685L250.187 204.412C250.329 204.014 250.536 203.693 250.809 203.449C251.084 203.202 251.401 203.023 251.759 202.912C252.117 202.799 252.493 202.742 252.888 202.742C253.15 202.742 253.427 202.773 253.719 202.836C254.015 202.895 254.29 203.006 254.546 203.168C254.804 203.33 255.016 203.561 255.181 203.862C255.346 204.161 255.428 204.549 255.428 205.026V209.372H254.184V208.478H254.133C254.05 208.642 253.927 208.804 253.762 208.963C253.597 209.122 253.385 209.255 253.127 209.36C252.868 209.465 252.559 209.517 252.198 209.517ZM252.475 208.495C252.827 208.495 253.128 208.425 253.378 208.286C253.631 208.147 253.823 207.965 253.954 207.74C254.087 207.513 254.154 207.27 254.154 207.012V206.168C254.108 206.213 254.02 206.256 253.89 206.296C253.762 206.333 253.616 206.365 253.451 206.394C253.286 206.419 253.125 206.443 252.969 206.466C252.813 206.486 252.682 206.503 252.577 206.517C252.33 206.549 252.104 206.601 251.9 206.675C251.698 206.749 251.536 206.855 251.414 206.995C251.295 207.131 251.235 207.313 251.235 207.54C251.235 207.855 251.351 208.094 251.584 208.256C251.817 208.415 252.114 208.495 252.475 208.495ZM260.061 202.827V203.85H256.485V202.827H260.061ZM257.444 201.259H258.718V207.451C258.718 207.698 258.755 207.884 258.829 208.009C258.903 208.131 258.998 208.215 259.114 208.26C259.234 208.303 259.363 208.324 259.502 208.324C259.605 208.324 259.694 208.317 259.771 208.303C259.847 208.289 259.907 208.277 259.95 208.269L260.18 209.321C260.106 209.35 260.001 209.378 259.864 209.407C259.728 209.438 259.558 209.455 259.353 209.458C259.018 209.463 258.705 209.404 258.416 209.279C258.126 209.154 257.891 208.961 257.713 208.699C257.534 208.438 257.444 208.11 257.444 207.715V201.259ZM261.35 209.372V202.827H262.624V209.372H261.35ZM261.993 201.817C261.772 201.817 261.582 201.743 261.422 201.595C261.266 201.445 261.188 201.266 261.188 201.059C261.188 200.848 261.266 200.669 261.422 200.522C261.582 200.371 261.772 200.296 261.993 200.296C262.215 200.296 262.404 200.371 262.56 200.522C262.719 200.669 262.799 200.848 262.799 201.059C262.799 201.266 262.719 201.445 262.56 201.595C262.404 201.743 262.215 201.817 261.993 201.817ZM266.975 209.505C266.362 209.505 265.826 209.364 265.369 209.083C264.911 208.801 264.556 208.408 264.303 207.902C264.051 207.397 263.924 206.806 263.924 206.13C263.924 205.451 264.051 204.857 264.303 204.348C264.556 203.84 264.911 203.445 265.369 203.164C265.826 202.882 266.362 202.742 266.975 202.742C267.589 202.742 268.125 202.882 268.582 203.164C269.039 203.445 269.394 203.84 269.647 204.348C269.9 204.857 270.026 205.451 270.026 206.13C270.026 206.806 269.9 207.397 269.647 207.902C269.394 208.408 269.039 208.801 268.582 209.083C268.125 209.364 267.589 209.505 266.975 209.505ZM266.98 208.435C267.377 208.435 267.707 208.33 267.968 208.12C268.23 207.909 268.423 207.63 268.548 207.28C268.676 206.931 268.74 206.546 268.74 206.125C268.74 205.708 268.676 205.324 268.548 204.975C268.423 204.622 268.23 204.34 267.968 204.127C267.707 203.914 267.377 203.807 266.98 203.807C266.579 203.807 266.247 203.914 265.982 204.127C265.721 204.34 265.526 204.622 265.399 204.975C265.274 205.324 265.211 205.708 265.211 206.125C265.211 206.546 265.274 206.931 265.399 207.28C265.526 207.63 265.721 207.909 265.982 208.12C266.247 208.33 266.579 208.435 266.98 208.435ZM272.603 205.486V209.372H271.329V202.827H272.552V203.892H272.633C272.783 203.546 273.019 203.267 273.34 203.057C273.664 202.847 274.072 202.742 274.563 202.742C275.009 202.742 275.4 202.836 275.735 203.023C276.07 203.208 276.33 203.483 276.515 203.85C276.699 204.216 276.792 204.669 276.792 205.209V209.372H275.518V205.362C275.518 204.888 275.394 204.517 275.147 204.25C274.9 203.98 274.56 203.845 274.128 203.845C273.833 203.845 273.57 203.909 273.34 204.037C273.113 204.165 272.932 204.353 272.799 204.6C272.668 204.844 272.603 205.139 272.603 205.486Z" fill="#636369"/>
<rect x="119.5" y="189.872" width="168" height="30" rx="3.5" stroke="#DFE7F2"/>
<rect x="303.5" y="190.151" width="136" height="30" rx="3.5" fill="white"/>
<g clip-path="url(#clip0_6354_40619)">
<path d="M327.834 204.434C326.758 202.867 324.534 205.174 320.475 205.642C318.972 205.816 317.618 207.071 315.872 206.951C315.156 206.902 314.156 204.842 313.408 205.171C313.023 205.34 312.846 205.904 313.242 206.329L317.637 211.573C317.637 211.573 317.86 211.83 318.613 211.652C318.798 211.707 321.586 210.589 323.198 208.353C323.583 207.818 324.043 207.372 324.52 206.999C326.066 205.856 327.747 205.458 327.747 205.458C327.962 205.28 328.012 205.092 328 204.928C328.015 204.654 327.834 204.434 327.834 204.434Z" fill="#5C913B"/>
<path d="M317.782 201.932C316.205 204.119 313.445 205.156 313.445 205.156C312.93 205.592 313.365 206.106 313.365 206.106L317.714 211.256C317.714 211.256 317.932 211.513 318.664 211.334C318.664 211.334 321.425 210.3 323 208.113C324.625 205.859 327.555 205.147 327.555 205.147C328.069 204.711 327.635 204.196 327.635 204.196L323.285 199.047C323.285 199.047 323.068 198.789 322.335 198.967C322.335 198.967 319.406 199.677 317.782 201.932Z" fill="#A7D28B"/>
<path d="M322.167 205.776C323.432 205.776 324.458 204.75 324.458 203.484C324.458 202.219 323.432 201.193 322.167 201.193C320.901 201.193 319.875 202.219 319.875 203.484C319.875 204.75 320.901 205.776 322.167 205.776Z" fill="#77B255"/>
<path d="M318.364 210.955C317.997 210.955 317.862 210.818 317.844 210.797L313.923 206.221C313.916 206.212 313.717 205.985 313.741 205.696C313.756 205.52 313.847 205.364 314.011 205.231L314.037 205.215C314.063 205.205 316.605 204.16 318.03 202.272L318.113 202.334L318.03 202.272C319.538 200.273 322.138 199.416 322.164 199.407C322.891 199.238 323.129 199.48 323.154 199.508L327.023 204.11C327.03 204.117 327.228 204.346 327.204 204.635C327.19 204.81 327.099 204.967 326.935 205.099L326.893 205.12C326.868 205.126 324.34 205.754 322.875 207.695C321.417 209.629 318.872 210.879 318.847 210.892C318.653 210.937 318.494 210.955 318.364 210.955ZM318.001 210.66C318.001 210.66 318.189 210.834 318.778 210.697C318.781 210.692 321.282 209.463 322.71 207.57C324.142 205.672 326.553 204.994 326.821 204.924C326.928 204.832 326.987 204.73 326.997 204.62C327.014 204.42 326.867 204.248 326.865 204.247L322.997 199.644C322.996 199.644 322.809 199.472 322.22 199.608C322.203 199.614 319.664 200.452 318.197 202.397C316.794 204.256 314.347 205.312 314.131 205.402C314.019 205.496 313.958 205.601 313.949 205.713C313.932 205.911 314.079 206.082 314.08 206.084L318.001 210.66Z" fill="#5C913B"/>
<path d="M321.865 206.887L321.862 209.362L322.069 209.608C322.473 209.239 322.861 208.825 323.196 208.359C323.544 207.877 323.949 207.464 324.375 207.115L324.174 206.876L321.865 206.887Z" fill="#FFAC33"/>
<path d="M324.166 206.867L318.955 200.695C318.532 201.043 318.125 201.449 317.779 201.93C317.441 202.399 317.048 202.812 316.64 203.176L317.249 203.897L317.248 203.898L321.863 209.362C322.271 208.997 322.66 208.58 322.998 208.111C323.344 207.631 323.75 207.225 324.173 206.876L324.165 206.867H324.166Z" fill="#FFE8B6"/>
<path d="M319.033 207.049C318.384 206.281 317.011 207.527 316.619 207.064C316.43 206.839 316.552 206.548 316.801 206.338C317.22 205.984 317.522 206.19 317.711 206.029C317.846 205.916 317.839 205.777 317.759 205.682C317.573 205.462 317.098 205.577 316.729 205.79L316.549 205.578C316.437 205.445 316.239 205.428 316.106 205.54C315.974 205.653 315.957 205.85 316.069 205.983L316.255 206.203C315.973 206.577 315.877 207.074 316.211 207.469C316.834 208.206 318.225 206.98 318.662 207.499C318.814 207.679 318.771 208.022 318.452 208.291C317.974 208.696 317.541 208.506 317.346 208.67C317.251 208.75 317.234 208.902 317.335 209.022C317.496 209.212 318.01 209.172 318.504 208.864C318.505 208.865 318.505 208.866 318.505 208.867L318.708 209.107C318.82 209.239 319.019 209.255 319.151 209.144C319.284 209.032 319.3 208.833 319.188 208.701L318.985 208.461C318.983 208.458 318.98 208.457 318.977 208.454C319.31 208.047 319.423 207.509 319.033 207.049Z" fill="#5C913B"/>
<path d="M326.524 211.229C326.527 211.226 326.532 211.224 326.535 211.221C326.564 211.192 326.586 211.16 326.611 211.129C326.628 211.107 326.648 211.086 326.664 211.064C326.679 211.043 326.691 211.022 326.704 211.001C327.296 210.089 326.908 208.544 325.737 207.373C324.565 206.201 323.02 205.814 322.109 206.406C322.087 206.419 322.066 206.431 322.045 206.446C322.023 206.462 322.002 206.481 321.981 206.499C321.95 206.524 321.918 206.546 321.889 206.574C321.885 206.578 321.883 206.582 321.88 206.586C321.875 206.591 321.87 206.594 321.865 206.599L321.867 206.601C321.451 207.043 321.446 207.728 321.865 208.147C322.285 208.567 322.969 208.561 323.412 208.145L323.417 208.15C323.408 208.158 323.398 208.164 323.39 208.172C322.949 208.613 322.938 209.317 323.365 209.745C323.793 210.172 324.497 210.161 324.938 209.72C324.947 209.712 324.952 209.702 324.96 209.694L324.965 209.699C324.548 210.141 324.543 210.826 324.963 211.246C325.382 211.665 326.067 211.66 326.509 211.243L326.512 211.246C326.516 211.24 326.519 211.234 326.524 211.229Z" fill="#E1E8ED"/>
<path d="M321.865 208.164C322.243 208.541 322.832 208.572 323.269 208.273C323.452 207.96 323.505 207.663 323.505 207.57C322.585 208.256 321.764 207.574 321.58 207.166C321.504 207.519 321.597 207.895 321.865 208.164ZM324.906 209.764C325.03 209.589 325.127 209.421 325.172 209.307C324.586 209.843 323.467 209.45 323.128 208.599C322.979 208.995 323.055 209.451 323.366 209.762C323.783 210.179 324.463 210.176 324.906 209.764ZM326.512 211.262L326.524 211.247C326.528 211.244 326.533 211.241 326.536 211.238C326.565 211.209 326.587 211.177 326.611 211.146C326.629 211.124 326.648 211.104 326.665 211.081C326.68 211.061 326.692 211.039 326.705 211.018C326.732 210.976 326.747 210.927 326.77 210.883C325.716 211.354 324.93 210.554 324.71 210.156C324.587 210.538 324.667 210.966 324.963 211.263C325.383 211.682 326.067 211.677 326.51 211.26L326.512 211.262Z" fill="#CCD6DD"/>
<path d="M318.815 202.859L318.827 202.849C318.856 202.821 318.878 202.789 318.903 202.758C318.92 202.736 318.939 202.716 318.955 202.693C318.97 202.672 318.983 202.651 318.996 202.63C319.588 201.719 319.2 200.173 318.028 199.002C316.857 197.83 315.312 197.442 314.4 198.034C314.379 198.047 314.358 198.059 314.337 198.074C314.314 198.091 314.294 198.11 314.272 198.127C314.241 198.152 314.209 198.174 314.18 198.203C314.177 198.207 314.174 198.211 314.171 198.214C314.167 198.219 314.161 198.222 314.156 198.227L314.158 198.229C313.742 198.672 313.737 199.356 314.156 199.776C314.576 200.195 315.26 200.19 315.703 199.774L315.708 199.778C315.699 199.786 315.689 199.792 315.681 199.8C315.24 200.242 315.229 200.945 315.657 201.373C316.084 201.801 316.788 201.79 317.23 201.349C317.238 201.341 317.243 201.331 317.252 201.322L317.256 201.327C316.84 201.769 316.834 202.454 317.254 202.874C317.674 203.293 318.358 203.288 318.8 202.871L318.803 202.874C318.807 202.869 318.811 202.864 318.815 202.859Z" fill="#E1E8ED"/>
<path d="M314.155 199.776C314.533 200.154 315.122 200.184 315.559 199.884C315.742 199.572 315.794 199.275 315.794 199.182C314.875 199.868 314.054 199.185 313.87 198.777C313.794 199.13 313.887 199.507 314.155 199.776ZM317.197 201.375C317.321 201.201 317.417 201.033 317.462 200.919C316.876 201.455 315.757 201.062 315.418 200.211C315.269 200.607 315.345 201.062 315.655 201.373C316.074 201.791 316.754 201.787 317.197 201.375ZM318.802 202.874C318.806 202.869 318.81 202.864 318.814 202.859L318.826 202.85C318.855 202.822 318.877 202.789 318.901 202.758C318.919 202.737 318.938 202.716 318.954 202.694C318.969 202.673 318.981 202.652 318.995 202.63C319.022 202.589 319.036 202.539 319.059 202.495C318.006 202.966 317.22 202.167 316.999 201.768C316.876 202.15 316.956 202.578 317.253 202.875C317.673 203.294 318.357 203.289 318.799 202.872L318.802 202.874Z" fill="#CCD6DD"/>
</g>
<path d="M332.959 209.651V200.924H336.07C336.749 200.924 337.311 201.047 337.757 201.295C338.203 201.542 338.537 201.88 338.759 202.309C338.98 202.735 339.091 203.215 339.091 203.749C339.091 204.286 338.979 204.769 338.754 205.198C338.533 205.624 338.197 205.962 337.749 206.212C337.303 206.459 336.741 206.583 336.065 206.583H333.926V205.466H335.946C336.375 205.466 336.723 205.393 336.99 205.245C337.257 205.094 337.453 204.89 337.578 204.631C337.703 204.373 337.766 204.079 337.766 203.749C337.766 203.42 337.703 203.127 337.578 202.871C337.453 202.616 337.256 202.415 336.986 202.27C336.719 202.126 336.366 202.053 335.929 202.053H334.276V209.651H332.959ZM342.259 209.796C341.844 209.796 341.469 209.719 341.134 209.566C340.798 209.41 340.533 209.184 340.337 208.888C340.143 208.593 340.047 208.231 340.047 207.802C340.047 207.432 340.118 207.128 340.26 206.89C340.402 206.651 340.594 206.462 340.835 206.323C341.077 206.184 341.347 206.079 341.645 206.008C341.943 205.937 342.247 205.883 342.557 205.846C342.949 205.8 343.267 205.763 343.511 205.735C343.756 205.704 343.933 205.654 344.044 205.586C344.155 205.518 344.21 205.407 344.21 205.253V205.224C344.21 204.851 344.105 204.563 343.895 204.359C343.688 204.154 343.378 204.052 342.966 204.052C342.537 204.052 342.199 204.147 341.952 204.337C341.707 204.525 341.538 204.734 341.445 204.964L340.247 204.691C340.389 204.293 340.597 203.972 340.869 203.728C341.145 203.481 341.462 203.302 341.82 203.191C342.178 203.077 342.554 203.02 342.949 203.02C343.21 203.02 343.487 203.052 343.78 203.114C344.075 203.174 344.351 203.285 344.607 203.447C344.865 203.609 345.077 203.84 345.242 204.141C345.406 204.439 345.489 204.827 345.489 205.305V209.651H344.244V208.756H344.193C344.111 208.921 343.987 209.083 343.822 209.242C343.658 209.401 343.446 209.533 343.188 209.638C342.929 209.743 342.619 209.796 342.259 209.796ZM342.536 208.773C342.888 208.773 343.189 208.704 343.439 208.564C343.692 208.425 343.884 208.243 344.014 208.019C344.148 207.792 344.215 207.549 344.215 207.29V206.447C344.169 206.492 344.081 206.535 343.95 206.574C343.822 206.611 343.676 206.644 343.511 206.672C343.347 206.698 343.186 206.722 343.03 206.745C342.874 206.765 342.743 206.782 342.638 206.796C342.391 206.827 342.165 206.88 341.96 206.954C341.759 207.028 341.597 207.134 341.474 207.273C341.355 207.41 341.295 207.591 341.295 207.819C341.295 208.134 341.412 208.373 341.645 208.535C341.878 208.694 342.175 208.773 342.536 208.773ZM347.066 209.651V203.106H348.34V209.651H347.066ZM347.709 202.096C347.488 202.096 347.297 202.022 347.138 201.874C346.982 201.724 346.904 201.545 346.904 201.337C346.904 201.127 346.982 200.948 347.138 200.8C347.297 200.65 347.488 200.574 347.709 200.574C347.931 200.574 348.12 200.65 348.276 200.8C348.435 200.948 348.515 201.127 348.515 201.337C348.515 201.545 348.435 201.724 348.276 201.874C348.12 202.022 347.931 202.096 347.709 202.096ZM352.384 209.779C351.856 209.779 351.384 209.644 350.97 209.374C350.558 209.101 350.234 208.714 349.998 208.211C349.765 207.705 349.649 207.099 349.649 206.391C349.649 205.684 349.766 205.079 350.002 204.576C350.241 204.073 350.568 203.688 350.982 203.421C351.397 203.154 351.867 203.02 352.393 203.02C352.799 203.02 353.126 203.089 353.373 203.225C353.623 203.359 353.816 203.515 353.952 203.694C354.092 203.873 354.2 204.03 354.276 204.167H354.353V200.924H355.627V209.651H354.383V208.633H354.276C354.2 208.772 354.089 208.931 353.944 209.11C353.802 209.289 353.606 209.445 353.356 209.579C353.106 209.712 352.782 209.779 352.384 209.779ZM352.666 208.692C353.032 208.692 353.342 208.596 353.595 208.403C353.85 208.207 354.043 207.935 354.174 207.589C354.308 207.242 354.374 206.839 354.374 206.378C354.374 205.924 354.309 205.526 354.178 205.185C354.048 204.844 353.856 204.579 353.603 204.388C353.35 204.198 353.038 204.103 352.666 204.103C352.282 204.103 351.962 204.202 351.707 204.401C351.451 204.6 351.258 204.871 351.127 205.215C350.999 205.559 350.935 205.947 350.935 206.378C350.935 206.816 351.001 207.209 351.131 207.559C351.262 207.908 351.455 208.185 351.711 208.39C351.97 208.591 352.288 208.692 352.666 208.692ZM365.286 204.704L364.132 204.908C364.083 204.76 364.007 204.62 363.901 204.486C363.799 204.353 363.66 204.243 363.484 204.158C363.308 204.073 363.087 204.03 362.823 204.03C362.462 204.03 362.161 204.111 361.92 204.273C361.678 204.432 361.558 204.638 361.558 204.891C361.558 205.11 361.639 205.286 361.801 205.42C361.962 205.553 362.224 205.662 362.585 205.748L363.624 205.986C364.227 206.126 364.676 206.34 364.971 206.63C365.266 206.92 365.414 207.296 365.414 207.759C365.414 208.151 365.301 208.501 365.073 208.807C364.849 209.111 364.535 209.35 364.132 209.523C363.731 209.697 363.266 209.783 362.738 209.783C362.005 209.783 361.407 209.627 360.944 209.314C360.481 208.999 360.197 208.552 360.092 207.972L361.323 207.785C361.4 208.106 361.558 208.349 361.796 208.513C362.035 208.675 362.346 208.756 362.73 208.756C363.147 208.756 363.481 208.67 363.731 208.496C363.981 208.32 364.106 208.106 364.106 207.853C364.106 207.648 364.029 207.476 363.876 207.337C363.725 207.198 363.494 207.093 363.181 207.022L362.073 206.779C361.462 206.64 361.011 206.418 360.718 206.114C360.428 205.81 360.284 205.425 360.284 204.959C360.284 204.573 360.391 204.235 360.607 203.945C360.823 203.655 361.122 203.43 361.502 203.268C361.883 203.103 362.319 203.02 362.811 203.02C363.518 203.02 364.075 203.174 364.481 203.481C364.887 203.785 365.156 204.192 365.286 204.704ZM370.841 206.937V203.106H372.12V209.651H370.867V208.518H370.799C370.648 208.867 370.407 209.158 370.074 209.391C369.745 209.621 369.334 209.736 368.843 209.736C368.422 209.736 368.05 209.644 367.726 209.459C367.405 209.272 367.153 208.995 366.968 208.628C366.786 208.262 366.695 207.809 366.695 207.269V203.106H367.969V207.116C367.969 207.562 368.093 207.917 368.34 208.181C368.587 208.445 368.908 208.577 369.303 208.577C369.542 208.577 369.779 208.518 370.015 208.398C370.253 208.279 370.451 208.099 370.607 207.857C370.766 207.616 370.844 207.309 370.841 206.937ZM373.814 209.651V200.924H375.088V204.167H375.165C375.239 204.03 375.345 203.873 375.485 203.694C375.624 203.515 375.817 203.359 376.064 203.225C376.311 203.089 376.638 203.02 377.044 203.02C377.573 203.02 378.044 203.154 378.459 203.421C378.874 203.688 379.199 204.073 379.435 204.576C379.673 205.079 379.793 205.684 379.793 206.391C379.793 207.099 379.675 207.705 379.439 208.211C379.203 208.714 378.879 209.101 378.468 209.374C378.056 209.644 377.585 209.779 377.057 209.779C376.659 209.779 376.334 209.712 376.081 209.579C375.831 209.445 375.635 209.289 375.493 209.11C375.351 208.931 375.242 208.772 375.165 208.633H375.058V209.651H373.814ZM375.063 206.378C375.063 206.839 375.129 207.242 375.263 207.589C375.397 207.935 375.59 208.207 375.843 208.403C376.095 208.596 376.405 208.692 376.772 208.692C377.152 208.692 377.47 208.591 377.726 208.39C377.982 208.185 378.175 207.908 378.306 207.559C378.439 207.209 378.506 206.816 378.506 206.378C378.506 205.947 378.441 205.559 378.31 205.215C378.182 204.871 377.989 204.6 377.73 204.401C377.475 204.202 377.155 204.103 376.772 204.103C376.402 204.103 376.09 204.198 375.834 204.388C375.581 204.579 375.389 204.844 375.259 205.185C375.128 205.526 375.063 205.924 375.063 206.378ZM386.008 204.704L384.854 204.908C384.805 204.76 384.729 204.62 384.623 204.486C384.521 204.353 384.382 204.243 384.206 204.158C384.03 204.073 383.81 204.03 383.545 204.03C383.185 204.03 382.883 204.111 382.642 204.273C382.4 204.432 382.28 204.638 382.28 204.891C382.28 205.11 382.361 205.286 382.523 205.42C382.685 205.553 382.946 205.662 383.307 205.748L384.346 205.986C384.949 206.126 385.398 206.34 385.693 206.63C385.989 206.92 386.136 207.296 386.136 207.759C386.136 208.151 386.023 208.501 385.795 208.807C385.571 209.111 385.257 209.35 384.854 209.523C384.453 209.697 383.989 209.783 383.46 209.783C382.727 209.783 382.129 209.627 381.666 209.314C381.203 208.999 380.919 208.552 380.814 207.972L382.045 207.785C382.122 208.106 382.28 208.349 382.518 208.513C382.757 208.675 383.068 208.756 383.452 208.756C383.869 208.756 384.203 208.67 384.453 208.496C384.703 208.32 384.828 208.106 384.828 207.853C384.828 207.648 384.751 207.476 384.598 207.337C384.447 207.198 384.216 207.093 383.903 207.022L382.795 206.779C382.185 206.64 381.733 206.418 381.44 206.114C381.15 205.81 381.006 205.425 381.006 204.959C381.006 204.573 381.114 204.235 381.329 203.945C381.545 203.655 381.844 203.43 382.224 203.268C382.605 203.103 383.041 203.02 383.533 203.02C384.24 203.02 384.797 203.174 385.203 203.481C385.609 203.785 385.878 204.192 386.008 204.704ZM390.174 209.783C389.541 209.783 388.995 209.64 388.538 209.353C388.083 209.063 387.734 208.664 387.49 208.155C387.245 207.647 387.123 207.064 387.123 206.408C387.123 205.743 387.248 205.157 387.498 204.648C387.748 204.137 388.1 203.738 388.555 203.451C389.009 203.164 389.545 203.02 390.161 203.02C390.659 203.02 391.102 203.113 391.491 203.297C391.88 203.479 392.194 203.735 392.433 204.064C392.674 204.394 392.818 204.779 392.863 205.219H391.623C391.555 204.912 391.399 204.648 391.154 204.427C390.913 204.205 390.589 204.094 390.183 204.094C389.828 204.094 389.517 204.188 389.25 204.376C388.985 204.56 388.779 204.824 388.632 205.168C388.484 205.509 388.41 205.912 388.41 206.378C388.41 206.856 388.482 207.268 388.627 207.614C388.772 207.961 388.977 208.229 389.241 208.42C389.508 208.61 389.822 208.705 390.183 208.705C390.424 208.705 390.643 208.661 390.839 208.573C391.038 208.482 391.204 208.353 391.338 208.185C391.474 208.018 391.569 207.816 391.623 207.58H392.863C392.818 208.003 392.68 208.381 392.45 208.714C392.22 209.046 391.911 209.307 391.525 209.498C391.142 209.688 390.691 209.783 390.174 209.783ZM394.106 209.651V203.106H395.337V204.145H395.405C395.525 203.793 395.735 203.516 396.036 203.314C396.34 203.11 396.684 203.008 397.067 203.008C397.147 203.008 397.241 203.01 397.349 203.016C397.459 203.022 397.546 203.029 397.609 203.037V204.256C397.557 204.242 397.467 204.226 397.336 204.209C397.205 204.189 397.075 204.18 396.944 204.18C396.643 204.18 396.374 204.243 396.138 204.371C395.905 204.496 395.721 204.671 395.584 204.895C395.448 205.117 395.38 205.37 395.38 205.654V209.651H394.106ZM398.591 209.651V203.106H399.865V209.651H398.591ZM399.235 202.096C399.013 202.096 398.823 202.022 398.664 201.874C398.507 201.724 398.429 201.545 398.429 201.337C398.429 201.127 398.507 200.948 398.664 200.8C398.823 200.65 399.013 200.574 399.235 200.574C399.456 200.574 399.645 200.65 399.801 200.8C399.961 200.948 400.04 201.127 400.04 201.337C400.04 201.545 399.961 201.724 399.801 201.874C399.645 202.022 399.456 202.096 399.235 202.096ZM401.46 212.106V203.106H402.704V204.167H402.81C402.884 204.03 402.991 203.873 403.13 203.694C403.269 203.515 403.462 203.359 403.71 203.225C403.957 203.089 404.283 203.02 404.69 203.02C405.218 203.02 405.69 203.154 406.104 203.421C406.519 203.688 406.844 204.073 407.08 204.576C407.319 205.079 407.438 205.684 407.438 206.391C407.438 207.099 407.32 207.705 407.085 208.211C406.849 208.714 406.525 209.101 406.113 209.374C405.701 209.644 405.231 209.779 404.702 209.779C404.305 209.779 403.979 209.712 403.727 209.579C403.477 209.445 403.281 209.289 403.138 209.11C402.996 208.931 402.887 208.772 402.81 208.633H402.734V212.106H401.46ZM402.708 206.378C402.708 206.839 402.775 207.242 402.908 207.589C403.042 207.935 403.235 208.207 403.488 208.403C403.741 208.596 404.05 208.692 404.417 208.692C404.798 208.692 405.116 208.591 405.371 208.39C405.627 208.185 405.82 207.908 405.951 207.559C406.085 207.209 406.151 206.816 406.151 206.378C406.151 205.947 406.086 205.559 405.955 205.215C405.827 204.871 405.634 204.6 405.376 204.401C405.12 204.202 404.8 204.103 404.417 204.103C404.048 204.103 403.735 204.198 403.479 204.388C403.227 204.579 403.035 204.844 402.904 205.185C402.773 205.526 402.708 205.924 402.708 206.378ZM411.801 203.106V204.128H408.226V203.106H411.801ZM409.185 201.537H410.459V207.729C410.459 207.976 410.496 208.162 410.57 208.287C410.643 208.41 410.739 208.493 410.855 208.539C410.974 208.582 411.104 208.603 411.243 208.603C411.345 208.603 411.435 208.596 411.511 208.582C411.588 208.567 411.648 208.556 411.69 208.547L411.92 209.6C411.847 209.628 411.741 209.657 411.605 209.685C411.469 209.716 411.298 209.734 411.094 209.736C410.759 209.742 410.446 209.682 410.156 209.557C409.866 209.432 409.632 209.239 409.453 208.978C409.274 208.716 409.185 208.388 409.185 207.993V201.537ZM413.091 209.651V203.106H414.365V209.651H413.091ZM413.734 202.096C413.512 202.096 413.322 202.022 413.163 201.874C413.007 201.724 412.929 201.545 412.929 201.337C412.929 201.127 413.007 200.948 413.163 200.8C413.322 200.65 413.512 200.574 413.734 200.574C413.956 200.574 414.145 200.65 414.301 200.8C414.46 200.948 414.539 201.127 414.539 201.337C414.539 201.545 414.46 201.724 414.301 201.874C414.145 202.022 413.956 202.096 413.734 202.096ZM418.716 209.783C418.102 209.783 417.567 209.643 417.109 209.361C416.652 209.08 416.297 208.687 416.044 208.181C415.791 207.675 415.665 207.084 415.665 206.408C415.665 205.729 415.791 205.135 416.044 204.627C416.297 204.118 416.652 203.724 417.109 203.442C417.567 203.161 418.102 203.02 418.716 203.02C419.33 203.02 419.865 203.161 420.323 203.442C420.78 203.724 421.135 204.118 421.388 204.627C421.641 205.135 421.767 205.729 421.767 206.408C421.767 207.084 421.641 207.675 421.388 208.181C421.135 208.687 420.78 209.08 420.323 209.361C419.865 209.643 419.33 209.783 418.716 209.783ZM418.72 208.714C419.118 208.714 419.448 208.609 419.709 208.398C419.97 208.188 420.163 207.908 420.288 207.559C420.416 207.209 420.48 206.824 420.48 206.404C420.48 205.986 420.416 205.603 420.288 205.253C420.163 204.901 419.97 204.618 419.709 204.405C419.448 204.192 419.118 204.086 418.72 204.086C418.32 204.086 417.987 204.192 417.723 204.405C417.462 204.618 417.267 204.901 417.139 205.253C417.014 205.603 416.952 205.986 416.952 206.404C416.952 206.824 417.014 207.209 417.139 207.559C417.267 207.908 417.462 208.188 417.723 208.398C417.987 208.609 418.32 208.714 418.72 208.714ZM424.343 205.765V209.651H423.069V203.106H424.292V204.171H424.373C424.524 203.824 424.76 203.546 425.081 203.336C425.405 203.126 425.812 203.02 426.304 203.02C426.75 203.02 427.14 203.114 427.476 203.302C427.811 203.486 428.071 203.762 428.255 204.128C428.44 204.495 428.532 204.948 428.532 205.488V209.651H427.258V205.641C427.258 205.167 427.135 204.796 426.888 204.529C426.64 204.259 426.301 204.124 425.869 204.124C425.574 204.124 425.311 204.188 425.081 204.316C424.853 204.444 424.673 204.631 424.54 204.878C424.409 205.123 424.343 205.418 424.343 205.765Z" fill="#636369"/>
<rect x="303.5" y="190.151" width="136" height="30" rx="3.5" stroke="#DFE7F2"/>
<rect x="119.5" y="233.622" width="97" height="30" rx="3.5" fill="white"/>
<g clip-path="url(#clip1_6354_40619)">
<path d="M141.027 244.094C144.094 247.16 144.923 251.304 142.878 253.348C140.834 255.393 136.691 254.564 133.624 251.498C133.52 251.393 133.425 251.285 133.326 251.178L135.166 249.338C137.551 251.723 140.589 252.552 141.952 251.189C143.315 249.826 142.486 246.788 140.102 244.403L140.111 244.411L140.102 244.402C137.377 241.676 133.647 240.986 131.774 242.86C130.867 243.766 130.567 245.107 130.799 246.557C130.442 244.855 130.737 243.279 131.774 242.243C133.818 240.199 137.961 241.028 141.027 244.094Z" fill="#FDD888"/>
<path d="M137.085 255.288C136.98 255.288 136.875 255.256 136.785 255.192L134.67 253.675L132.555 255.192C132.375 255.321 132.133 255.321 131.954 255.19C131.775 255.06 131.699 254.83 131.766 254.62L132.555 252.074L130.459 250.597C130.281 250.465 130.207 250.235 130.275 250.024C130.344 249.814 130.539 249.671 130.76 249.669L133.322 249.664L134.183 247.182C134.253 246.972 134.449 246.83 134.67 246.83C134.892 246.83 135.088 246.972 135.158 247.182L135.935 249.664L138.58 249.669C138.802 249.671 138.997 249.814 139.065 250.024C139.134 250.235 139.06 250.465 138.881 250.597L136.785 252.074L137.574 254.62C137.641 254.83 137.565 255.06 137.387 255.19C137.296 255.256 137.19 255.288 137.085 255.288Z" fill="#FFAC33"/>
</g>
<path d="M148.839 253.122V252.167L151.793 249.107C152.108 248.775 152.368 248.484 152.572 248.234C152.78 247.981 152.935 247.741 153.037 247.514C153.139 247.286 153.19 247.045 153.19 246.789C153.19 246.5 153.122 246.25 152.986 246.039C152.849 245.826 152.663 245.663 152.428 245.549C152.192 245.433 151.926 245.375 151.631 245.375C151.318 245.375 151.045 245.438 150.812 245.566C150.58 245.694 150.401 245.875 150.276 246.107C150.151 246.34 150.088 246.613 150.088 246.926H148.831C148.831 246.394 148.953 245.93 149.197 245.532C149.442 245.134 149.777 244.826 150.203 244.607C150.629 244.386 151.114 244.275 151.656 244.275C152.205 244.275 152.688 244.384 153.105 244.603C153.526 244.819 153.854 245.115 154.089 245.49C154.325 245.862 154.443 246.282 154.443 246.751C154.443 247.075 154.382 247.392 154.26 247.701C154.141 248.011 153.932 248.356 153.634 248.737C153.335 249.115 152.92 249.573 152.389 250.113L150.655 251.929V251.992H154.584V253.122H148.839ZM158.96 253.241C158.425 253.241 157.945 253.139 157.519 252.934C157.096 252.727 156.758 252.443 156.505 252.082C156.252 251.721 156.117 251.309 156.1 250.846H157.379C157.41 251.221 157.576 251.529 157.877 251.771C158.178 252.012 158.539 252.133 158.96 252.133C159.295 252.133 159.592 252.056 159.85 251.903C160.112 251.747 160.316 251.532 160.464 251.259C160.614 250.987 160.69 250.676 160.69 250.326C160.69 249.971 160.613 249.654 160.46 249.376C160.306 249.098 160.094 248.879 159.825 248.72C159.558 248.561 159.251 248.48 158.904 248.477C158.64 248.477 158.374 248.522 158.107 248.613C157.84 248.704 157.624 248.823 157.46 248.971L156.254 248.792L156.744 244.394H161.542V245.524H157.839L157.562 247.965H157.613C157.783 247.801 158.009 247.663 158.291 247.552C158.575 247.441 158.879 247.386 159.202 247.386C159.734 247.386 160.207 247.512 160.621 247.765C161.039 248.018 161.367 248.363 161.606 248.801C161.847 249.235 161.967 249.735 161.964 250.301C161.967 250.866 161.839 251.37 161.58 251.813C161.325 252.257 160.969 252.606 160.515 252.862C160.063 253.115 159.545 253.241 158.96 253.241ZM164.589 250.902L164.581 249.346H164.802L167.41 246.576H168.936L165.961 249.73H165.761L164.589 250.902ZM163.417 253.122V244.394H164.691V253.122H163.417ZM167.551 253.122L165.207 250.011L166.085 249.12L169.115 253.122H167.551ZM172.097 252.568V246.806H173.243V252.568H172.097ZM169.792 250.258V249.112H175.553V250.258H169.792ZM180.562 244.394H182.16L184.938 251.179H185.041L187.819 244.394H189.417V253.122H188.164V246.806H188.083L185.509 253.109H184.47L181.896 246.802H181.815V253.122H180.562V244.394ZM190.781 245.528V244.394H197.535V245.528H194.812V253.122H193.5V245.528H190.781ZM204.52 244.394H205.841V250.134C205.841 250.745 205.698 251.286 205.411 251.758C205.124 252.227 204.72 252.596 204.2 252.866C203.681 253.133 203.071 253.267 202.372 253.267C201.676 253.267 201.068 253.133 200.548 252.866C200.029 252.596 199.625 252.227 199.338 251.758C199.051 251.286 198.908 250.745 198.908 250.134V244.394H200.225V250.028C200.225 250.423 200.311 250.774 200.485 251.081C200.661 251.387 200.909 251.629 201.23 251.805C201.551 251.978 201.932 252.065 202.372 252.065C202.816 252.065 203.198 251.978 203.519 251.805C203.843 251.629 204.09 251.387 204.26 251.081C204.433 250.774 204.52 250.423 204.52 250.028V244.394Z" fill="#636369"/>
<rect x="119.5" y="233.622" width="97" height="30" rx="3.5" stroke="#DFE7F2"/>
<rect x="119" y="293.639" width="160" height="151" rx="8" fill="#F1EAFF"/>
<path d="M133.667 411.421L137.254 413.503C140.84 415.585 148.013 419.749 155.186 416.902C162.359 414.054 169.532 404.196 176.705 404.456C183.878 404.716 191.051 415.094 198.224 420.22C205.397 425.346 212.57 425.22 219.743 423.576C226.916 421.932 234.089 418.769 241.262 412.414C248.435 406.058 255.608 396.509 262.781 389.654" stroke="#C6A9FF" stroke-width="2" stroke-linecap="round"/>
<path d="M147.344 332.719V329.039H134.584V332.719H147.344ZM157.572 342.639V315.839H153.772C152.652 318.239 151.172 319.159 148.652 319.159H147.612V322.239H153.252V342.639H157.572ZM181.411 342.639V338.759H166.171C166.171 336.559 168.251 335.279 170.971 333.879L174.891 331.879C178.331 330.119 181.331 327.759 181.331 323.359C181.331 318.919 178.571 315.439 171.971 315.439C164.571 315.439 161.451 319.599 161.451 324.599V325.239H165.771V324.679C165.771 320.999 166.771 319.399 171.651 319.399C176.091 319.399 177.011 321.039 177.011 323.519C177.011 325.799 175.851 326.999 172.971 328.519L168.851 330.639C165.091 332.559 161.651 334.879 161.651 339.959V342.639H181.411Z" fill="black"/>
<path d="M253 326.811L253 314.639L255 314.639L255 326.811L260.364 321.447L261.778 322.861L254 330.639L246.222 322.861L247.636 321.447L253 326.811Z" fill="#A172FD"/>
<rect x="311" y="293.639" width="160" height="151" rx="8" fill="#EAEEFF"/>
<path d="M325.667 411.421L329.459 413.503C333.25 415.585 340.833 419.749 348.417 416.902C356 414.054 363.583 404.196 371.166 404.456C378.749 404.716 386.333 415.094 393.916 420.22C401.499 425.346 409.082 425.22 416.665 423.576C424.249 421.932 431.832 418.769 439.415 412.414C446.998 406.058 454.581 396.509 462.165 389.654" stroke="#8199FD" stroke-width="2" stroke-linecap="round"/>
<path d="M337.184 337.574V331.054H343.664V327.454H337.184V320.934H333.424V327.454H326.984V331.054H333.424V337.574H337.184ZM356.712 343.054C362.912 343.054 367.072 340.534 367.072 335.374C367.072 331.534 364.832 329.134 361.152 328.614V328.454C364.552 327.974 366.112 325.694 366.112 322.614C366.112 317.934 362.512 315.454 356.472 315.454C349.752 315.454 346.152 318.934 346.152 324.054V324.414H350.392V324.094C350.392 320.734 351.792 319.414 356.432 319.414C360.192 319.414 361.792 320.494 361.792 323.294C361.792 326.094 360.432 326.974 356.912 326.974H352.152V330.574H357.512C361.232 330.574 362.712 331.574 362.712 334.934C362.712 338.054 361.032 339.094 356.792 339.094C351.512 339.094 350.392 337.774 350.392 334.414V333.814H346.152V334.454C346.152 339.574 349.072 343.054 356.712 343.054ZM380.534 343.054C387.934 343.054 391.254 339.454 391.254 333.894C391.254 328.494 387.774 325.294 382.054 325.294C378.534 325.294 376.014 326.374 374.614 327.534H374.494L375.134 319.734H389.814V315.854H371.334L370.414 330.094L374.214 330.694C375.534 329.934 377.454 329.014 380.734 329.014C385.254 329.014 386.974 330.414 386.974 334.014C386.974 337.774 385.414 339.094 380.694 339.094C376.254 339.094 374.254 338.054 374.254 335.054V334.814H369.974V335.054C369.974 339.974 373.574 343.054 380.534 343.054ZM406.007 343.054C413.207 343.054 417.607 337.734 417.607 329.254C417.607 320.774 413.207 315.454 406.007 315.454C398.807 315.454 394.447 320.774 394.447 329.254C394.447 337.734 398.807 343.054 406.007 343.054ZM406.007 338.894C401.247 338.894 399.047 336.334 399.047 329.254C399.047 322.174 401.247 319.614 406.007 319.614C410.767 319.614 413.007 322.174 413.007 329.254C413.007 336.334 410.767 338.894 406.007 338.894Z" fill="black"/>
<path d="M447 318.467V330.639H445V318.467L439.636 323.831L438.222 322.417L446 314.639L453.778 322.417L452.364 323.831L447 318.467Z" fill="#5173FB"/>
<rect x="-1" y="1" width="419" height="345" rx="7" transform="matrix(-1 0 0 1 515 124.639)" stroke="#E1E8F2" stroke-width="2" stroke-dasharray="8 8"/>
<defs>
<clipPath id="clip0_6354_40619">
<rect width="15" height="15" fill="white" transform="translate(313 197.651)"/>
</clipPath>
<clipPath id="clip1_6354_40619">
<rect width="15" height="15" fill="white" transform="translate(129 241.122)"/>
</clipPath>
</defs>
</svg>
