<svg xmlns="http://www.w3.org/2000/svg" xmlns:xlink="http://www.w3.org/1999/xlink" width="608" height="561" fill="none" xmlns:v="https://vecta.io/nano"><style><![CDATA[.B{fill:#fff}.C{stroke:#121212}.D{stroke-width:4}.E{fill:#f5f6f8}.F{stroke:#dfe7f2}.G{fill:#121212}.H{fill:#ccd6dd}.I{stroke:#e1e8f2}.J{stroke-width:2}.K{stroke-dasharray:8 8}.L{fill:#5c913b}.M{fill:#ffac33}.N{fill:#636369}]]></style><g stroke="#97969c" stroke-dasharray="4 4"><path d="M559.504-31.321v78.64m0 544.473v-280.31m0-65.742V97.522M457.312-30.944l.001 402.045m0 220.516V395.774M355.621-31.133V133.66m0 457.954v-81.246m0-293.993v244.394M252.93-30.944v90.743m0 531.811V84.102M150.739-31.131l-.001 373.693m0 249.057V425.634M48.547-31.323v183.828m0 439.102V288.589m0-90.065v72.831"/><path d="M0 487.288h330.227m277.773 0H379.607M0 383.495h112.263m495.737 0H469.346m-278.878 0h254.206M0 175.91h25.672m582.328 0H396.708m-80.708 0H73.358M0 279.703h39.48m568.521 0h-15.322m-65.324 0H57.12M0 72.117h239.558m368.442 0h-25.121m-48.339 0H265.522"/><use xlink:href="#E"/><path d="M559.48 96.035l10.183-13.818 13.817-10.182-13.817-10.182-10.183-13.818-10.182 13.818-13.818 10.182 13.818 10.182 10.182 13.818z"/><use xlink:href="#E" x="-307.019" y="-311.504"/><path d="M559.469 311.619l13.576-18.424 18.424-13.576-18.424-13.577-13.576-18.423-13.577 18.423-18.423 13.577 18.423 13.576 13.577 18.424zM150.754 423.525l16.97-23.03 23.03-16.97-23.03-16.971-16.97-23.029-16.971 23.029-23.029 16.971 23.029 16.97 16.971 23.03zm204.867-207.61l16.971-23.029 23.029-16.971-23.029-16.97-16.971-23.03-16.97 23.03-23.03 16.97 23.03 16.971 16.97 23.029z"/><circle r="12" transform="matrix(1 0 0 -1 457.246 383.495)"/><circle r="8" transform="matrix(1 0 0 -1 48.5469 279.703)"/><circle r="12" transform="matrix(1 0 0 -1 252.598 72.1166)"/></g><g transform="matrix(-1 0 0 1 543 73.639)"><rect x="-2" y="2" width="442" height="202" rx="6" class="G"/><rect x="-2" y="2" width="442" height="202" rx="6" class="C D"/></g><g transform="matrix(-1 0 0 1 525 60.639)"><rect x="-2" y="2" width="441" height="198" rx="6" class="E"/><rect x="-2" y="2" width="441" height="198" rx="6" class="C D"/></g><rect x="96" y="73.639" width="422" height="38" rx="4" class="B"/><rect x="113" y="87.639" width="10" height="10" rx="5" fill="#eb5757"/><rect x="131" y="87.639" width="10" height="10" rx="5" fill="#f2c94c"/><rect x="149" y="87.639" width="10" height="10" rx="5" fill="#27ae60"/><g fill="#e7edf5"><path d="M492.438 86.639a1 1 0 1 0-2 0h2zm-2 12a1 1 0 1 0 2 0h-2zm0-12v12h2v-12h-2z"/><path d="M497.437 93.639a1 1 0 1 0 .001-2l-.001 2zm-11.999-2a1 1 0 1 0-.001 2l.001-2zm12 0h-12l-.001 2h12l.001-2z"/></g><rect x="-1" y="1" width="419" height="121" rx="7" transform="matrix(-1 0 0 1 515 124.639)" class="E"/><path d="M150.03 166.819c3.42 0 4.716-1.728 4.716-3.654 0-1.764-.864-3.096-3.402-3.582l-2.142-.414c-1.404-.27-1.728-.45-1.728-1.224 0-.756.486-1.098 2.034-1.098 1.782 0 2.304.414 2.304 1.674v.198h2.664v-.144c0-2.394-1.44-4.176-4.878-4.176-3.456 0-4.806 1.818-4.806 3.654 0 1.872.972 3.042 3.276 3.438l2.124.378c1.692.288 1.872.576 1.872 1.386s-.378 1.116-1.908 1.116c-2.178 0-2.664-.378-2.664-1.71v-.18h-2.646v.234c0 2.664 1.638 4.104 5.184 4.104zm10.607 0c2.592 0 4.248-1.134 4.248-3.06v-.18h-2.664v.108c0 .558-.468.792-1.548.792-1.476 0-1.98-.504-2.034-1.764h6.21a8.16 8.16 0 0 0 .126-1.332c0-2.358-1.602-3.978-4.32-3.978-2.826 0-4.554 1.836-4.554 4.734 0 2.862 1.422 4.68 4.536 4.68zm-.072-7.2c1.26 0 1.872.522 1.818 1.458h-3.726c.108-.954.612-1.458 1.908-1.458zm9.859 6.066c1.368 0 2.322-.612 2.718-1.314h.108v1.404c0 1.404-.288 1.728-1.71 1.728-1.548 0-1.818-.234-1.818-1.17h-2.682c0 2.304 1.584 3.546 4.41 3.546 2.916 0 4.482-1.296 4.482-4.248v-8.046h-2.502v1.314h-.09c-.486-.99-1.512-1.494-2.808-1.494-2.574 0-3.942 1.638-3.942 4.158s1.332 4.122 3.834 4.122zm-1.152-4.122c0-1.278.45-1.872 1.998-1.872 1.296 0 1.98.45 1.98 1.602v.54c0 1.152-.702 1.602-1.998 1.602-1.53 0-1.98-.594-1.98-1.872zm11.534 5.076v-5.238c0-1.278.54-1.674 1.764-1.674 1.296 0 1.692.45 1.692 1.71v5.202h2.7v-5.202c0-1.314.522-1.71 1.746-1.71 1.314 0 1.692.45 1.692 1.71v5.202h2.7v-5.742c0-1.926-.954-3.492-3.294-3.492-1.674 0-2.574.774-3.078 1.764h-.09c-.45-1.062-1.386-1.764-2.934-1.764s-2.484.738-2.97 1.764h-.108v-1.584h-2.502v9.054h2.682zm18.593.18c2.592 0 4.248-1.134 4.248-3.06v-.18h-2.664v.108c0 .558-.468.792-1.548.792-1.476 0-1.98-.504-2.034-1.764h6.21a8.16 8.16 0 0 0 .126-1.332c0-2.358-1.602-3.978-4.32-3.978-2.826 0-4.554 1.836-4.554 4.734 0 2.862 1.422 4.68 4.536 4.68zm-.072-7.2c1.26 0 1.872.522 1.818 1.458h-3.726c.108-.954.612-1.458 1.908-1.458zm8.926 7.02v-5.13c0-1.368.558-1.782 1.854-1.782 1.368 0 1.782.45 1.782 1.71v5.202h2.7v-5.742c0-1.926-1.008-3.492-3.366-3.492-1.584 0-2.556.738-3.042 1.764h-.108v-1.584h-2.502v9.054h2.682zm12.563.036a9.52 9.52 0 0 0 1.764-.18v-2.25h-1.116c-1.17 0-1.44-.09-1.44-.882v-3.546h2.556v-2.232h-2.556v-2.106H217.9l-.504 2.106h-1.512v2.232h1.44v3.852c0 2.142 1.134 3.006 3.492 3.006zm7.497.144c2.502 0 3.888-1.08 3.888-2.772 0-1.476-.792-2.34-2.7-2.7l-1.656-.342c-1.08-.216-1.242-.342-1.242-.774s.252-.666 1.332-.666c1.152 0 1.404.324 1.404.918v.252h2.574v-.252c0-2.034-1.692-3.078-3.906-3.078-2.574 0-3.942 1.188-3.942 2.862s.972 2.43 2.754 2.754l1.368.252c1.206.216 1.458.324 1.458.81 0 .45-.18.612-1.278.612-1.314 0-1.71-.144-1.71-.81v-.378h-2.574v.054c0 2.196 1.386 3.258 4.23 3.258z" fill="#000"/><g clip-path="url(#A)"><path d="M119.833 151.472h1.222v20.167h-1.222v-20.167z" class="H"/><path d="M120.445 153.306c1.012 0 1.833-.821 1.833-1.834s-.821-1.833-1.833-1.833-1.834.821-1.834 1.833.821 1.834 1.834 1.834z" fill="#f4900c"/><path d="M123.5 166.75h-3.056a.61.61 0 1 1 0-1.222h3.056a.61.61 0 1 1 0 1.222z" fill="#66757f"/><path d="M136.944 166.139c0-1.35 3.794-3.667 2.444-3.667h-5.162c-.735-.894-2.808-1.833-4.31-1.833s-1.974.939-2.099 1.833h-3.706c-1.35 0-1.834 1.095-1.834 2.445v2.444c0 1.35.484 2.445 1.834 2.445h15.277c1.35 0-2.444-2.317-2.444-3.667z" fill="#dd2e44"/><path d="M125.333 166.75c1.013 0 1.834-.821 1.834-1.833s-.821-1.834-1.834-1.834-1.833.821-1.833 1.834.821 1.833 1.833 1.833z" class="B"/><use xlink:href="#F" fill="#000"/><path d="M139.389 162.472h-11.634c1.264 1.397 2.898 3.951-.023 7.334h11.657c1.35 0-2.444-2.317-2.444-3.667s3.794-3.667 2.444-3.667z" fill="#f4abba"/><path d="M123.5 156.972h-3.056a.61.61 0 1 1 0-1.222h3.056a.61.61 0 1 1 0 1.222z" fill="#66757f"/><path d="M136.944 156.361c0-1.35 3.794-3.666 2.444-3.666h-5.161c-.735-.895-2.808-1.834-4.311-1.834s-1.974.939-2.099 1.834h-3.706c-1.35 0-1.834 1.094-1.834 2.444v2.444c0 1.35.484 2.445 1.834 2.445h15.277c1.35 0-2.444-2.317-2.444-3.667z" fill="#55acee"/><path d="M125.333 156.972c1.013 0 1.834-.82 1.834-1.833s-.821-1.833-1.834-1.833-1.833.821-1.833 1.833.821 1.833 1.833 1.833z" class="B"/><path d="M125.028 155.75c.506 0 .917-.41.917-.917s-.411-.916-.917-.916-.917.41-.917.916.411.917.917.917z" fill="#000"/><path d="M139.389 152.695h-11.634c1.264 1.397 2.898 3.95-.023 7.333h11.657c1.35 0-2.444-2.317-2.444-3.667s3.794-3.666 2.444-3.666z" fill="#bbddf5"/></g><rect x="-1" y="1" width="419" height="121" rx="7" transform="matrix(-1 0 0 1 515 124.639)" class="I J K"/><rect x="301.5" y="195.735" width="136" height="30" rx="3.5" class="B"/><g clip-path="url(#B)"><path d="M325.834 210.018c-1.076-1.567-3.3.739-7.359 1.208-1.503.173-2.857 1.428-4.603 1.309-.716-.049-1.716-2.109-2.464-1.781-.385.169-.562.734-.166 1.158l4.395 5.244s.223.258.976.08c.185.054 2.973-1.063 4.585-3.299.385-.536.845-.981 1.322-1.354 1.546-1.143 3.227-1.542 3.227-1.542.215-.177.265-.366.253-.53.015-.273-.166-.493-.166-.493z" class="L"/><path d="M315.782 207.516c-1.577 2.187-4.337 3.223-4.337 3.223-.515.437-.08.951-.08.951l4.349 5.149s.218.257.95.079c0 0 2.761-1.034 4.336-3.222 1.625-2.254 4.555-2.965 4.555-2.965.514-.437.08-.952.08-.952l-4.35-5.148s-.217-.258-.95-.08c0 0-2.929.71-4.553 2.965z" fill="#a7d28b"/><path d="M320.167 211.36a2.29 2.29 0 1 0 0-4.584 2.29 2.29 0 1 0 0 4.584z" fill="#77b255"/><path d="M316.364 216.538c-.367 0-.502-.136-.52-.157l-3.921-4.576c-.007-.009-.206-.237-.182-.526.015-.175.106-.331.27-.464l.026-.016c.026-.01 2.568-1.055 3.993-2.944l.083.063-.083-.063c1.508-1.998 4.108-2.856 4.134-2.864.727-.169.965.072.99.101l3.869 4.601a.78.78 0 0 1 .181.526c-.014.175-.105.331-.269.464l-.042.02c-.025.007-2.553.635-4.018 2.576-1.458 1.933-4.003 3.184-4.028 3.196a2.1 2.1 0 0 1-.483.063zm-.363-.294s.188.173.777.037c.003-.005 2.504-1.235 3.932-3.127 1.432-1.898 3.843-2.576 4.111-2.646a.46.46 0 0 0 .176-.304c.017-.2-.13-.372-.132-.374l-3.868-4.602c-.001 0-.188-.173-.777-.036-.017.006-2.556.844-4.023 2.789-1.403 1.858-3.85 2.914-4.066 3.005-.112.094-.173.198-.182.31-.017.199.13.37.131.372l3.921 4.576z" class="L"/><path d="M319.865 212.471l-.003 2.475.207.245c.404-.368.792-.782 1.127-1.248.348-.482.753-.895 1.179-1.244l-.201-.24-2.309.012z" class="M"/><path d="M322.166 212.451l-5.211-6.172c-.423.348-.83.754-1.176 1.235-.338.469-.731.882-1.139 1.246l.609.721h-.001l4.615 5.465a7.8 7.8 0 0 0 1.135-1.252 6.65 6.65 0 0 1 1.175-1.234l-.008-.009h.001z" fill="#ffe8b6"/><path d="M317.033 212.633c-.649-.769-2.022.478-2.414.014-.189-.224-.067-.516.182-.726.419-.354.721-.148.91-.308.135-.113.128-.252.048-.347-.186-.22-.661-.105-1.03.108l-.18-.213c-.112-.132-.31-.149-.443-.037s-.149.31-.037.442l.186.221c-.282.374-.378.871-.044 1.265.623.738 2.014-.488 2.451.03.152.18.109.524-.21.793-.478.404-.911.215-1.106.379-.095.079-.112.231-.011.352.161.19.675.149 1.169-.158l.204.242c.112.133.311.149.443.038s.149-.311.037-.444l-.203-.24c.325-.414.438-.951.048-1.411z" class="L"/><path d="M324.524 216.813c.04-.037.062-.07.087-.101l.053-.064c.015-.021.027-.042.04-.064.592-.911.204-2.456-.967-3.628s-2.717-1.559-3.628-.967l-.064.04-.064.053-.092.076c-.014.016-.019.019-.024.024l.002.002c-.416.443-.421 1.127-.002 1.547s1.104.414 1.547-.003l.005.005c-.009.009-.019.014-.027.023-.441.441-.452 1.145-.025 1.572s1.132.417 1.573-.024c.009-.008.014-.018.022-.027l.005.005c-.417.443-.422 1.127-.002 1.547s1.104.414 1.546-.002l.003.002c.004-.006.007-.011.012-.016z" fill="#e1e8ed"/><path d="M319.865 213.748c.378.377.967.408 1.404.108.183-.312.236-.609.236-.702-.92.686-1.741.004-1.925-.404-.076.352.017.729.285.998zm3.041 1.6c.124-.175.221-.344.266-.458-.586.537-1.705.144-2.044-.707a1.09 1.09 0 0 0 .238 1.162c.417.418 1.097.414 1.54.003zm1.606 1.498l.012-.015c.041-.038.063-.07.087-.101l.054-.065c.015-.021.027-.042.04-.064.027-.041.042-.09.065-.135-1.054.472-1.84-.328-2.06-.727-.123.382-.043.81.253 1.107.42.42 1.104.415 1.547-.002l.002.002z" class="H"/><path d="M316.815 208.442l.012-.009c.029-.028.051-.061.076-.092l.052-.064.041-.063c.592-.912.204-2.457-.968-3.628s-2.716-1.56-3.628-.968l-.063.04c-.023.016-.043.036-.065.053l-.092.075c-.013.016-.019.02-.024.025l.002.002c-.416.442-.421 1.127-.002 1.546s1.104.415 1.547-.002l.005.005-.027.022c-.441.441-.452 1.145-.024 1.573s1.131.417 1.573-.024c.008-.009.013-.018.022-.027l.004.005c-.416.442-.422 1.127-.002 1.546s1.104.415 1.546-.002l.003.002z" fill="#e1e8ed"/><path d="M312.155 205.36c.378.377.967.408 1.404.108.183-.312.235-.609.235-.702-.919.685-1.74.003-1.924-.405-.076.353.017.73.285.999zm3.042 1.599a2.43 2.43 0 0 0 .265-.457c-.586.537-1.705.144-2.044-.708-.149.396-.073.852.237 1.163.419.418 1.099.414 1.542.002zm1.605 1.499l.024-.025c.029-.028.051-.06.075-.091l.053-.065.041-.063c.027-.042.041-.091.064-.136-1.053.472-1.839-.327-2.06-.726-.123.382-.043.81.254 1.106.42.42 1.104.415 1.546-.002l.003.002z" class="H"/></g><path d="M330.959 215.235v-8.728h3.111c.679 0 1.241.124 1.687.371a2.41 2.41 0 0 1 1.002 1.014c.221.427.332.907.332 1.441s-.112 1.02-.337 1.449-.557.764-1.005 1.014-1.008.371-1.684.371h-2.139v-1.117h2.02c.429 0 .777-.074 1.044-.222a1.39 1.39 0 0 0 .588-.613c.125-.259.188-.553.188-.882s-.063-.622-.188-.878-.322-.456-.592-.601-.62-.217-1.057-.217h-1.653v7.598h-1.317zm9.3.145c-.415 0-.79-.077-1.125-.23a1.9 1.9 0 0 1-.797-.678c-.194-.295-.29-.658-.29-1.087 0-.369.071-.673.213-.912s.334-.427.575-.566a2.99 2.99 0 0 1 .81-.316c.298-.071.602-.125.912-.162l.954-.11c.245-.032.422-.081.533-.15s.166-.179.166-.332v-.03c0-.372-.105-.66-.315-.865s-.517-.307-.929-.307c-.429 0-.767.095-1.014.286s-.414.396-.507.626l-1.198-.272c.142-.398.35-.719.622-.964a2.52 2.52 0 0 1 .951-.536c.358-.114.734-.171 1.129-.171.261 0 .538.031.831.094s.571.17.827.332.47.394.635.695.247.686.247 1.163v4.347h-1.245v-.895h-.051c-.082.165-.206.327-.371.486s-.376.291-.634.396a2.47 2.47 0 0 1-.929.158zm.277-1.023c.352 0 .653-.07.903-.209s.445-.321.575-.545.201-.471.201-.729v-.844c-.046.046-.134.088-.265.128s-.274.07-.439.098l-.481.072-.392.052a3.15 3.15 0 0 0-.678.157c-.201.074-.363.181-.486.32s-.179.318-.179.545c0 .316.117.554.35.716s.53.239.891.239zm4.53.878v-6.546h1.274v6.546h-1.274zm.643-7.556c-.221 0-.412-.074-.571-.221s-.234-.33-.234-.537.078-.389.234-.537a.8.8 0 0 1 .571-.226c.222 0 .411.075.567.226s.239.327.239.537-.08.386-.239.537-.345.221-.567.221zm4.675 7.684c-.528 0-1-.135-1.414-.405s-.736-.661-.972-1.164-.349-1.112-.349-1.819.117-1.313.353-1.816.566-.887.98-1.154a2.55 2.55 0 0 1 1.411-.401c.406 0 .733.068.98.205s.443.289.579.468.248.337.324.473h.077v-3.243h1.274v8.728h-1.244v-1.019h-.107c-.076.139-.187.299-.332.478s-.338.335-.588.468-.574.201-.972.201zm.282-1.087c.366 0 .676-.097.929-.29s.448-.467.579-.814.2-.75.2-1.21c0-.455-.065-.852-.196-1.193s-.322-.607-.575-.797-.565-.286-.937-.286c-.384 0-.704.1-.959.299s-.449.47-.58.814a3.31 3.31 0 0 0-.192 1.163 3.36 3.36 0 0 0 .196 1.18c.131.35.324.627.58.831s.577.303.955.303zm12.62-3.989l-1.154.205a1.36 1.36 0 0 0-.231-.422c-.102-.134-.241-.243-.417-.328s-.397-.128-.661-.128c-.361 0-.662.081-.903.243s-.362.365-.362.618a.65.65 0 0 0 .243.528c.161.134.423.243.784.328l1.039.239c.603.139 1.052.354 1.347.643s.443.667.443 1.13a1.71 1.71 0 0 1-.341 1.048c-.224.304-.538.543-.941.716s-.866.26-1.394.26c-.733 0-1.331-.156-1.794-.469a1.98 1.98 0 0 1-.852-1.342l1.231-.188c.077.321.235.564.473.729s.55.243.934.243c.417 0 .751-.087 1.001-.26s.375-.391.375-.644a.67.67 0 0 0-.23-.515c-.151-.139-.382-.244-.695-.316l-1.108-.242c-.611-.14-1.062-.361-1.355-.665s-.434-.689-.434-1.155a1.65 1.65 0 0 1 .323-1.014c.216-.29.515-.516.895-.678s.817-.247 1.309-.247c.707 0 1.264.153 1.67.46a2.14 2.14 0 0 1 .805 1.223zm5.555 2.233v-3.831h1.279v6.546h-1.253v-1.134h-.068a2.04 2.04 0 0 1-.725.874c-.329.23-.74.345-1.231.345-.421 0-.793-.092-1.117-.277s-.573-.465-.758-.831-.273-.82-.273-1.359v-4.164h1.274v4.01c0 .446.124.801.371 1.066s.568.396.963.396c.239 0 .476-.06.712-.179a1.5 1.5 0 0 0 .592-.541c.159-.242.237-.549.234-.921zm2.973 2.715v-8.728h1.274v3.243h.077a3.53 3.53 0 0 1 .32-.473c.139-.179.332-.335.579-.468s.574-.205.98-.205c.529 0 1 .134 1.415.401s.74.652.976 1.154.358 1.108.358 1.816-.118 1.314-.354 1.819-.56.891-.971 1.164-.883.405-1.411.405c-.398 0-.723-.067-.976-.201s-.446-.289-.588-.468-.251-.339-.328-.478h-.107v1.019h-1.244zm1.249-3.273c0 .46.066.864.2 1.21s.327.618.58.814.562.29.929.29c.38 0 .698-.101.954-.303s.449-.481.58-.831.2-.742.2-1.18c0-.432-.065-.82-.196-1.163s-.321-.615-.58-.814-.575-.299-.958-.299c-.37 0-.682.096-.938.286s-.445.456-.575.797-.196.738-.196 1.193zm10.945-1.675l-1.154.205a1.36 1.36 0 0 0-.231-.422c-.102-.134-.241-.243-.417-.328s-.396-.128-.661-.128c-.36 0-.662.081-.903.243s-.362.365-.362.618a.65.65 0 0 0 .243.528c.162.134.423.243.784.328l1.039.239c.603.139 1.052.354 1.347.643s.443.667.443 1.13a1.71 1.71 0 0 1-.341 1.048c-.224.304-.538.543-.941.716s-.865.26-1.394.26c-.733 0-1.331-.156-1.794-.469a1.98 1.98 0 0 1-.852-1.342l1.231-.188c.077.321.235.564.473.729s.55.243.934.243c.417 0 .751-.087 1.001-.26s.375-.391.375-.644a.67.67 0 0 0-.23-.515c-.151-.139-.382-.244-.695-.316l-1.108-.242c-.61-.14-1.062-.361-1.355-.665s-.434-.689-.434-1.155c0-.386.108-.724.323-1.014s.515-.516.895-.678.817-.247 1.309-.247c.707 0 1.264.153 1.67.46a2.14 2.14 0 0 1 .805 1.223zm4.166 5.08c-.633 0-1.179-.144-1.636-.431s-.804-.688-1.048-1.197-.367-1.091-.367-1.747c0-.665.125-1.252.375-1.76s.602-.911 1.057-1.198.99-.43 1.606-.43c.498 0 .941.092 1.33.277s.703.438.942.767a2.32 2.32 0 0 1 .43 1.155h-1.24c-.068-.307-.224-.571-.469-.793s-.565-.332-.971-.332c-.355 0-.666.094-.933.281s-.471.449-.618.793-.222.744-.222 1.21c0 .477.072.889.217 1.236s.35.615.614.805.581.286.942.286c.241 0 .46-.044.656-.132a1.35 1.35 0 0 0 .499-.388c.136-.168.231-.369.285-.605h1.24c-.045.423-.183.801-.413 1.133s-.539.594-.925.784-.834.286-1.351.286zm3.932-.132v-6.546h1.231v1.04h.068a1.59 1.59 0 0 1 .631-.831 1.81 1.81 0 0 1 1.031-.307l.282.009.26.021v1.219a2.34 2.34 0 0 0-.273-.047c-.131-.02-.261-.03-.392-.03-.301 0-.57.064-.806.192a1.43 1.43 0 0 0-.554.524 1.42 1.42 0 0 0-.204.759v3.997h-1.274zm4.485 0v-6.546h1.274v6.546h-1.274zm.644-7.556a.81.81 0 0 1-.571-.221.72.72 0 0 1-.235-.537.71.71 0 0 1 .235-.537.8.8 0 0 1 .571-.226c.221 0 .41.075.566.226s.239.327.239.537-.079.386-.239.537-.345.221-.566.221zm2.225 10.01v-9h1.244v1.061h.106c.074-.136.181-.294.32-.473a1.79 1.79 0 0 1 .58-.468c.247-.137.573-.205.98-.205.528 0 1 .134 1.414.401s.74.652.976 1.154.358 1.108.358 1.816-.118 1.314-.353 1.819-.56.891-.972 1.164-.882.405-1.411.405c-.397 0-.723-.067-.975-.201s-.446-.289-.589-.468-.251-.339-.328-.478h-.076v3.473h-1.274zm1.248-5.727c0 .46.067.864.2 1.21s.327.618.58.814.562.29.929.29c.381 0 .699-.101.954-.303s.449-.481.58-.831a3.27 3.27 0 0 0 .2-1.18c0-.432-.065-.82-.196-1.163s-.321-.615-.579-.814-.576-.299-.959-.299c-.369 0-.682.096-.938.286s-.444.456-.575.797-.196.738-.196 1.193zm9.093-3.273v1.023h-3.575v-1.023h3.575zm-2.616-1.568h1.274v6.192c0 .247.037.433.111.558a.58.58 0 0 0 .285.252 1.16 1.16 0 0 0 .388.063c.102 0 .192-.007.268-.021l.179-.034.23 1.053c-.073.028-.179.056-.315.085s-.307.048-.511.051c-.335.006-.648-.054-.938-.179s-.524-.318-.703-.58-.268-.589-.268-.984v-6.456zm3.906 8.114v-6.546h1.274v6.546h-1.274zm.643-7.556a.81.81 0 0 1-.571-.221c-.156-.151-.234-.33-.234-.537s.078-.389.234-.537a.8.8 0 0 1 .571-.226c.222 0 .411.075.567.226s.238.327.238.537-.079.386-.238.537-.345.221-.567.221zm4.982 7.688c-.614 0-1.149-.141-1.607-.422a2.85 2.85 0 0 1-1.065-1.18c-.253-.506-.379-1.097-.379-1.773s.126-1.273.379-1.781.608-.904 1.065-1.185.993-.422 1.607-.422 1.149.141 1.607.422.812.676 1.065 1.185.379 1.102.379 1.781-.126 1.267-.379 1.773a2.85 2.85 0 0 1-1.065 1.18c-.458.281-.993.422-1.607.422zm.004-1.07c.398 0 .728-.105.989-.315s.454-.49.579-.84a3.33 3.33 0 0 0 .192-1.154 3.32 3.32 0 0 0-.192-1.151c-.125-.352-.318-.635-.579-.848s-.591-.32-.989-.32-.733.107-.997.32a1.91 1.91 0 0 0-.584.848c-.125.349-.187.733-.187 1.151s.062.805.187 1.154.323.63.584.84.597.315.997.315zm5.623-2.949v3.887h-1.274v-6.546h1.223v1.066h.081a1.88 1.88 0 0 1 .708-.836c.324-.21.731-.315 1.223-.315.446 0 .836.094 1.172.281s.595.461.779.827.277.82.277 1.359v4.164h-1.274v-4.01c0-.475-.123-.845-.37-1.112s-.587-.405-1.019-.405c-.295 0-.558.064-.788.192s-.408.315-.541.562-.197.54-.197.886z" class="N"/><rect x="301.5" y="195.735" width="136" height="30" rx="3.5" class="F"/><rect x="118.5" y="195.395" width="168" height="30" rx="3.5" class="B"/><g clip-path="url(#C)"><path d="M142.311 209.934l-3.708-1.373-1.384-4.538c-.053-.175-.216-.295-.398-.295a.42.42 0 0 0-.399.295l-1.384 4.538-3.708 1.373c-.164.061-.272.216-.272.391s.108.33.272.39l3.706 1.372 1.385 4.677c.052.176.215.298.4.298s.347-.122.399-.299l1.385-4.676 3.707-1.372c.163-.06.271-.216.271-.39s-.108-.33-.272-.391z" class="M"/><path d="M133.978 214.517l-.964-.356-.375-1.375c-.049-.182-.214-.308-.402-.308s-.352.126-.402.307l-.375 1.375-.963.357c-.164.06-.273.217-.273.391s.109.33.273.391l.958.355.378 1.509c.047.185.213.315.404.315s.358-.13.405-.315l.377-1.509.959-.356c.164-.06.272-.216.272-.39s-.108-.331-.272-.391zm-1.807-9.026l-.985-.364-.365-.986c-.061-.164-.217-.272-.391-.272s-.33.108-.391.272l-.365.986-.985.364c-.164.061-.272.217-.272.391s.108.33.272.391l.985.364.365.986c.061.164.217.272.391.272s.33-.108.391-.272l.364-.986.986-.364a.42.42 0 0 0 .272-.391.42.42 0 0 0-.272-.391z" fill="#ffcc4d"/></g><path d="M155.207 209.006h-1.329c-.051-.284-.146-.534-.286-.75s-.309-.399-.511-.55-.428-.264-.678-.341-.51-.115-.788-.115c-.503 0-.953.126-1.351.379s-.707.624-.937 1.113-.341 1.085-.341 1.789c0 .711.113 1.31.341 1.799s.544.858.941 1.108.846.375 1.343.375a2.72 2.72 0 0 0 .784-.111 2.25 2.25 0 0 0 .677-.337 2.06 2.06 0 0 0 .512-.541 2.04 2.04 0 0 0 .294-.742l1.329.005a3.54 3.54 0 0 1-.413 1.184 3.27 3.27 0 0 1-.78.929c-.315.259-.676.459-1.082.601s-.85.213-1.33.213c-.755 0-1.429-.179-2.02-.537s-1.056-.876-1.397-1.547-.507-1.47-.507-2.399.17-1.731.511-2.399.807-1.184 1.398-1.542 1.262-.542 2.015-.542c.463 0 .895.067 1.296.201a3.42 3.42 0 0 1 1.086.579c.321.253.587.563.797.929s.353.78.426 1.249zm4.111 6.021c-.614 0-1.149-.141-1.607-.422a2.85 2.85 0 0 1-1.065-1.18c-.253-.506-.379-1.097-.379-1.773s.126-1.273.379-1.781.608-.904 1.065-1.185.993-.422 1.607-.422 1.149.141 1.606.422.813.676 1.066 1.185.379 1.102.379 1.781-.126 1.267-.379 1.773-.608.899-1.066 1.18-.993.422-1.606.422zm.004-1.07c.398 0 .727-.105.989-.315s.454-.49.579-.839a3.34 3.34 0 0 0 .192-1.155c0-.418-.064-.801-.192-1.151s-.318-.635-.579-.848-.591-.319-.989-.319-.733.106-.997.319a1.91 1.91 0 0 0-.584.848c-.125.35-.187.733-.187 1.151s.062.805.187 1.155a1.88 1.88 0 0 0 .584.839c.264.21.597.315.997.315zm4.349.938v-6.545h1.223v1.065h.081a1.7 1.7 0 0 1 .669-.844c.31-.204.681-.307 1.112-.307.438 0 .804.103 1.1.307s.518.486.66.844h.069c.156-.35.404-.628.745-.835s.747-.316 1.219-.316c.594 0 1.078.186 1.453.559s.567.933.567 1.683v4.389h-1.274v-4.27c0-.443-.121-.764-.362-.963s-.53-.298-.865-.298c-.415 0-.738.128-.968.383s-.345.578-.345.976v4.172h-1.27v-4.351c0-.355-.111-.641-.332-.856s-.51-.324-.865-.324a1.24 1.24 0 0 0-.669.191c-.202.125-.365.3-.49.525s-.184.484-.184.779v4.036h-1.274zm10.486 2.455v-9h1.244v1.061h.107a3.45 3.45 0 0 1 .319-.473c.139-.179.333-.336.58-.469s.574-.205.98-.205c.528 0 1 .134 1.415.401s.74.652.975 1.155.358 1.108.358 1.815-.118 1.314-.353 1.82-.56.89-.972 1.163-.882.405-1.41.405c-.398 0-.723-.067-.976-.2s-.446-.29-.588-.469a3.44 3.44 0 0 1-.328-.478h-.077v3.474h-1.274zm1.248-5.728c0 .46.067.864.201 1.21s.326.618.579.814.563.29.929.29c.381 0 .699-.101.955-.302a1.89 1.89 0 0 0 .579-.831 3.28 3.28 0 0 0 .2-1.181c0-.432-.065-.819-.196-1.163s-.321-.615-.579-.814-.575-.298-.959-.298c-.369 0-.682.095-.937.285s-.445.456-.576.797-.196.739-.196 1.193zm7.312-5.454v8.727h-1.274v-8.727h1.274zm4.415 8.859c-.645 0-1.2-.138-1.666-.413s-.821-.669-1.074-1.172-.375-1.098-.375-1.777c0-.671.125-1.262.375-1.773s.605-.91 1.057-1.197.986-.431 1.594-.431a3.19 3.19 0 0 1 1.074.184c.346.122.657.313.933.575s.493.601.652 1.018.238.919.238 1.513v.452h-5.203v-.955h3.955a1.87 1.87 0 0 0-.205-.89c-.136-.262-.328-.468-.575-.618s-.531-.226-.861-.226c-.358 0-.67.088-.937.264s-.469.401-.614.682-.213.581-.213.908v.745c0 .438.077.81.23 1.117s.374.541.652.703.604.239.976.239c.242 0 .462-.035.661-.103s.37-.176.515-.315a1.37 1.37 0 0 0 .333-.516l1.206.218a2.19 2.19 0 0 1-.52.933c-.248.264-.559.47-.934.618s-.796.217-1.274.217zm7.158-6.677v1.022h-3.576v-1.022h3.576zm-2.617-1.569h1.274v6.192c0 .247.037.433.111.558s.169.206.286.252.248.064.387.064a1.42 1.42 0 0 0 .269-.022l.179-.034.23 1.053a2.16 2.16 0 0 1-.315.085c-.137.031-.307.048-.512.051-.335.006-.648-.054-.937-.179a1.61 1.61 0 0 1-.703-.579c-.179-.262-.269-.59-.269-.985v-6.456zm6.657 8.246c-.645 0-1.201-.138-1.666-.413a2.8 2.8 0 0 1-1.074-1.172c-.25-.506-.375-1.098-.375-1.777 0-.671.125-1.262.375-1.773s.605-.91 1.057-1.197.985-.431 1.593-.431c.37 0 .728.061 1.074.184a2.58 2.58 0 0 1 .933.575c.276.261.493.601.652 1.018s.239.919.239 1.513v.452h-5.203v-.955h3.954c0-.335-.068-.632-.204-.89s-.328-.468-.575-.618-.532-.226-.861-.226c-.358 0-.671.088-.938.264s-.468.401-.613.682-.213.581-.213.908v.745c0 .438.076.81.23 1.117s.373.541.652.703.603.239.976.239a2.03 2.03 0 0 0 .66-.103 1.43 1.43 0 0 0 .516-.315c.145-.139.255-.311.332-.516l1.206.218a2.19 2.19 0 0 1-.52.933c-.247.264-.558.47-.933.618a3.49 3.49 0 0 1-1.274.217zm6.552-.004c-.528 0-1-.135-1.415-.405s-.736-.661-.971-1.163-.35-1.113-.35-1.82.118-1.312.354-1.815.565-.888.98-1.155a2.55 2.55 0 0 1 1.41-.401c.407 0 .733.068.981.205s.443.29.579.469a3.97 3.97 0 0 1 .324.473h.077v-3.243h1.274v8.727h-1.244v-1.019h-.107a3.34 3.34 0 0 1-.332.478c-.142.179-.338.335-.588.469s-.574.2-.972.2zm.281-1.087c.367 0 .676-.096.929-.29s.449-.467.58-.814.2-.75.2-1.21c0-.454-.065-.852-.196-1.193s-.322-.606-.575-.797-.566-.285-.938-.285c-.383 0-.703.099-.959.298a1.83 1.83 0 0 0-.579.814c-.128.344-.192.731-.192 1.163 0 .438.065.831.196 1.181s.324.626.58.831.576.302.954.302zm7.716.959v-6.545h1.232v1.039h.068a1.58 1.58 0 0 1 .631-.831c.304-.204.647-.307 1.031-.307l.281.009.26.021v1.219a2.3 2.3 0 0 0-.273-.047c-.13-.02-.261-.03-.392-.03a1.66 1.66 0 0 0-.805.192c-.233.125-.418.3-.554.524s-.205.475-.205.759v3.997h-1.274zm7.072.132c-.645 0-1.2-.138-1.666-.413s-.821-.669-1.074-1.172-.375-1.098-.375-1.777c0-.671.125-1.262.375-1.773s.605-.91 1.057-1.197.986-.431 1.594-.431a3.19 3.19 0 0 1 1.074.184c.346.122.657.313.933.575s.493.601.652 1.018.239.919.239 1.513v.452h-5.204v-.955h3.955a1.87 1.87 0 0 0-.205-.89c-.136-.262-.328-.468-.575-.618s-.531-.226-.861-.226c-.358 0-.67.088-.937.264s-.469.401-.614.682-.213.581-.213.908v.745c0 .438.077.81.23 1.117a1.67 1.67 0 0 0 .652.703c.279.159.604.239.976.239.242 0 .462-.035.661-.103s.37-.176.515-.315a1.37 1.37 0 0 0 .333-.516l1.206.218a2.19 2.19 0 0 1-.52.933c-.247.264-.559.47-.934.618s-.796.217-1.274.217zm6.847 2.459c-.52 0-.968-.068-1.343-.205s-.676-.316-.912-.541a2.27 2.27 0 0 1-.528-.737l1.095-.452a2.69 2.69 0 0 0 .307.397c.131.142.307.262.528.362s.513.149.865.149c.483 0 .882-.118 1.198-.354s.473-.605.473-1.116v-1.287h-.081a2.91 2.91 0 0 1-.333.464c-.142.171-.338.318-.588.443s-.575.188-.975.188a2.73 2.73 0 0 1-1.398-.362c-.412-.245-.739-.604-.98-1.078s-.358-1.064-.358-1.76.118-1.293.353-1.79.566-.878.981-1.142.884-.401 1.41-.401c.406 0 .734.068.984.205s.445.29.584.469.252.336.328.473h.094v-1.061h1.249v6.69c0 .562-.131 1.024-.392 1.385s-.615.628-1.061.801-.944.26-1.5.26zm-.013-3.746c.366 0 .676-.085.929-.256s.449-.42.579-.741.201-.712.201-1.163c0-.441-.066-.829-.196-1.164s-.323-.596-.576-.784-.565-.285-.937-.285c-.384 0-.703.099-.959.298a1.8 1.8 0 0 0-.58.801c-.127.338-.191.716-.191 1.134 0 .429.065.805.196 1.129s.324.577.579.758.577.273.955.273zm4.555 1.155v-6.545h1.274v6.545h-1.274zm.643-7.555a.81.81 0 0 1-.571-.222c-.156-.151-.234-.33-.234-.537s.078-.389.234-.537.349-.226.571-.226a.79.79 0 0 1 .567.226c.159.148.238.327.238.537s-.079.386-.238.537-.345.222-.567.222zm7.13 2.608l-1.155.204a1.39 1.39 0 0 0-.23-.422 1.15 1.15 0 0 0-.418-.328c-.176-.085-.396-.128-.66-.128-.361 0-.662.081-.904.243s-.362.365-.362.618a.65.65 0 0 0 .243.528c.162.134.423.243.784.329l1.04.238c.602.139 1.051.354 1.346.644s.443.666.443 1.129c0 .392-.113.741-.34 1.048s-.539.543-.942.716-.865.26-1.394.26c-.733 0-1.331-.156-1.794-.469s-.747-.762-.852-1.342l1.232-.188c.076.322.234.564.473.729s.549.243.933.243c.417 0 .751-.087 1.001-.26s.375-.39.375-.643c0-.205-.076-.377-.23-.516s-.382-.244-.695-.315l-1.107-.243c-.611-.139-1.063-.361-1.356-.665s-.434-.689-.434-1.155a1.65 1.65 0 0 1 .324-1.014c.216-.29.514-.516.895-.678s.816-.247 1.308-.247c.707 0 1.264.154 1.67.461a2.14 2.14 0 0 1 .806 1.223zm4.464-1.598v1.022h-3.576v-1.022h3.576zm-2.617-1.569h1.274v6.192c0 .247.037.433.111.558s.169.206.286.252.248.064.388.064c.102 0 .191-.007.268-.022l.179-.034.23 1.053a2.16 2.16 0 0 1-.315.085c-.137.031-.307.048-.512.051-.335.006-.647-.054-.937-.179a1.61 1.61 0 0 1-.703-.579c-.179-.262-.269-.59-.269-.985v-6.456zm3.906 8.114v-6.545h1.232v1.039h.068a1.58 1.58 0 0 1 .631-.831c.304-.204.647-.307 1.031-.307l.281.009.26.021v1.219a2.3 2.3 0 0 0-.273-.047c-.13-.02-.261-.03-.392-.03a1.66 1.66 0 0 0-.805.192c-.233.125-.418.3-.554.524s-.205.475-.205.759v3.997h-1.274zm6.332.145c-.415 0-.79-.077-1.125-.23a1.9 1.9 0 0 1-.797-.678c-.193-.295-.29-.657-.29-1.086 0-.37.071-.674.213-.912s.334-.428.576-.567.511-.244.809-.316.603-.125.912-.161l.955-.111c.244-.031.422-.081.532-.149s.167-.179.167-.333v-.03c0-.372-.105-.66-.316-.865s-.517-.306-.929-.306c-.429 0-.767.095-1.014.285s-.413.396-.507.626l-1.197-.272c.142-.398.349-.719.622-.963s.592-.426.95-.537.734-.171 1.129-.171a4.01 4.01 0 0 1 .831.094c.296.06.571.17.827.332s.47.394.635.695.247.686.247 1.163v4.347h-1.244V214h-.051c-.083.165-.206.327-.371.486s-.377.291-.635.396-.568.158-.929.158zm.277-1.023c.352 0 .653-.069.903-.209s.445-.321.576-.545a1.42 1.42 0 0 0 .2-.729v-.844c-.046.046-.134.088-.264.128s-.274.07-.439.098l-.482.073-.392.051c-.247.031-.473.084-.677.158s-.364.18-.486.319-.179.318-.179.546c0 .315.116.554.349.715s.53.239.891.239zm7.586-5.667v1.022h-3.576v-1.022h3.576zm-2.617-1.569h1.274v6.192c0 .247.037.433.111.558s.169.206.285.252.249.064.388.064a1.42 1.42 0 0 0 .269-.022l.179-.034.23 1.053a2.14 2.14 0 0 1-.316.085c-.136.031-.306.048-.511.051-.335.006-.648-.054-.937-.179a1.6 1.6 0 0 1-.703-.579c-.179-.262-.269-.59-.269-.985v-6.456zm3.906 8.114v-6.545h1.274v6.545h-1.274zm.643-7.555a.81.81 0 0 1-.571-.222c-.156-.151-.234-.33-.234-.537s.078-.389.234-.537.35-.226.571-.226a.79.79 0 0 1 .567.226c.159.148.239.327.239.537s-.08.386-.239.537-.345.222-.567.222zm4.982 7.687c-.613 0-1.149-.141-1.606-.422s-.813-.675-1.066-1.18-.379-1.097-.379-1.773.127-1.273.379-1.781.608-.904 1.066-1.185.993-.422 1.606-.422 1.15.141 1.607.422.812.676 1.065 1.185.379 1.102.379 1.781-.126 1.267-.379 1.773a2.85 2.85 0 0 1-1.065 1.18c-.457.281-.993.422-1.607.422zm.005-1.07c.397 0 .727-.105.988-.315s.455-.49.58-.839a3.34 3.34 0 0 0 .192-1.155c0-.418-.064-.801-.192-1.151s-.318-.635-.58-.848-.591-.319-.988-.319-.733.106-.998.319a1.9 1.9 0 0 0-.583.848c-.125.35-.188.733-.188 1.151s.063.805.188 1.155.322.629.583.839.597.315.998.315zm5.623-2.948v3.886h-1.274v-6.545h1.223v1.065h.081c.15-.347.386-.625.707-.835s.732-.316 1.223-.316c.446 0 .837.094 1.172.282s.595.46.78.826.277.82.277 1.36v4.163h-1.274v-4.01c0-.474-.124-.845-.371-1.112s-.587-.405-1.019-.405c-.295 0-.558.064-.788.192s-.408.315-.541.562-.196.54-.196.887z" class="N"/><rect x="118.5" y="195.395" width="168" height="30" rx="3.5" class="F"/><g transform="matrix(-1 0 0 1 543 316.639)"><rect x="-2" y="2" width="442" height="112" rx="6" class="G"/><rect x="-2" y="2" width="442" height="112" rx="6" class="C D"/></g><g class="E"><rect x="-2" y="2" width="447" height="108" rx="6" transform="matrix(-1 0 0 1 531 307.639)"/><rect x="-1" y="1" width="421" height="84" rx="7" transform="matrix(-1 0 0 1 519 320.639)"/></g><rect x="123.5" y="340.139" width="372" height="47" rx="3.5" class="B"/><rect x="142.389" y="357.139" width="13" height="13" rx="1.5" class="F"/><rect x="358.889" y="359.639" width="105" height="8" rx="4" fill="#eef1f7"/><g clip-path="url(#D)"><path d="M178.25 363.278l2.889-2.528 5.778.361.361 5.778-2.528 2.889s0-2.166-2.167-4.333-4.333-2.167-4.333-2.167z" fill="#a0041e"/><path d="M178.24 369.778s-.013-2.881 1.078-3.972 3.988-1.016 3.988-1.016-.001 2.821-1.084 3.905-3.982 1.083-3.982 1.083z" class="M"/><path d="M181.139 368.333c.798 0 1.444-.646 1.444-1.444s-.646-1.444-1.444-1.444-1.445.646-1.445 1.444.647 1.444 1.445 1.444z" fill="#ffcc4d"/><path d="M190.888 357.139s-3.611 0-7.944 3.611c-2.167 1.806-2.167 5.056-1.445 5.778s3.973.722 5.778-1.445c3.611-4.333 3.611-7.944 3.611-7.944z" fill="#55acee"/><path d="M187.638 358.945c-.586 0-1.088.35-1.315.852.182-.082.381-.13.593-.13.798 0 1.444.647 1.444 1.444a1.44 1.44 0 0 1-.129.592 1.44 1.44 0 0 0 .851-1.314c0-.798-.646-1.444-1.444-1.444z" fill="#000"/><path d="M180.777 367.25s0-1.444.361-1.805 4.695-3.972 5.056-3.612-3.25 4.695-3.611 5.056-1.806.361-1.806.361z" fill="#a0041e"/></g><path d="M196.847 368.139v-8.727h3.111c.679 0 1.242.123 1.688.371s.78.585 1.001 1.014.333.906.333 1.44-.113 1.02-.337 1.449-.557.764-1.006 1.014-1.007.371-1.683.371h-2.139v-1.117h2.02c.429 0 .777-.073 1.044-.221s.463-.355.588-.614.187-.552.187-.882-.062-.622-.187-.878a1.35 1.35 0 0 0-.593-.601c-.267-.145-.619-.217-1.056-.217h-1.654v7.598h-1.317zm7.454 0v-6.545h1.232v1.039h.068a1.58 1.58 0 0 1 .63-.831 1.81 1.81 0 0 1 1.032-.306l.281.008.26.021v1.219a2.3 2.3 0 0 0-.273-.047c-.131-.02-.261-.03-.392-.03-.301 0-.57.064-.805.192s-.418.3-.554.524-.205.475-.205.759v3.997h-1.274zm7.072.132c-.645 0-1.2-.138-1.666-.413s-.821-.669-1.074-1.172-.375-1.098-.375-1.777c0-.671.125-1.261.375-1.773s.605-.91 1.057-1.197.986-.431 1.594-.431a3.18 3.18 0 0 1 1.073.184c.347.122.658.314.934.575s.493.601.652 1.018.238.919.238 1.513v.452h-5.203v-.955h3.955a1.87 1.87 0 0 0-.205-.89c-.136-.262-.328-.468-.575-.618s-.531-.226-.861-.226c-.358 0-.67.088-.937.264a1.77 1.77 0 0 0-.614.682c-.142.278-.213.581-.213.908v.745c0 .438.077.81.23 1.117s.374.541.652.703.604.239.976.239c.241 0 .462-.035.66-.103a1.43 1.43 0 0 0 .516-.315c.145-.139.256-.311.332-.516l1.206.218c-.096.355-.27.666-.52.933s-.558.47-.933.618a3.49 3.49 0 0 1-1.274.217zm4.102-.132v-6.545h1.223v1.065h.081c.136-.361.359-.642.669-.844s.68-.307 1.112-.307c.438 0 .804.103 1.1.307s.518.486.66.844h.068a1.84 1.84 0 0 1 .746-.835c.341-.211.747-.316 1.219-.316.594 0 1.078.186 1.453.559s.567.933.567 1.683v4.389h-1.274v-4.27c0-.443-.121-.764-.363-.963s-.529-.298-.865-.298c-.414 0-.737.128-.967.383s-.345.578-.345.976v4.172h-1.27v-4.351c0-.355-.111-.64-.332-.856s-.51-.324-.865-.324a1.24 1.24 0 0 0-.67.192c-.201.125-.365.299-.49.524s-.183.484-.183.78v4.035h-1.274zm10.486 0v-6.545h1.274v6.545h-1.274zm.643-7.555a.81.81 0 0 1-.571-.222.72.72 0 0 1-.234-.537c0-.21.078-.389.234-.537s.349-.226.571-.226a.79.79 0 0 1 .567.226c.159.148.238.327.238.537s-.079.386-.238.537-.345.222-.567.222zm6.371 4.841v-3.831h1.279v6.545h-1.253v-1.133h-.069c-.15.349-.392.64-.724.873s-.74.345-1.231.345c-.421 0-.793-.092-1.117-.277s-.574-.464-.758-.831-.273-.819-.273-1.359v-4.163h1.274v4.01c0 .446.124.801.371 1.065s.568.396.963.396a1.55 1.55 0 0 0 .711-.179c.239-.119.436-.3.593-.541s.237-.548.234-.92zm2.871 2.714v-6.545h1.223v1.065h.08c.137-.361.36-.642.67-.844s.68-.307 1.112-.307.804.103 1.099.307.519.486.661.844h.068c.156-.35.405-.628.746-.835s.747-.316 1.218-.316c.594 0 1.078.186 1.453.559s.567.933.567 1.683v4.389h-1.274v-4.27c0-.443-.121-.764-.362-.963s-.53-.298-.865-.298c-.415 0-.737.128-.968.383s-.345.578-.345.976v4.172h-1.27v-4.351c0-.355-.11-.64-.332-.856s-.51-.324-.865-.324a1.24 1.24 0 0 0-.669.192 1.4 1.4 0 0 0-.49.524c-.122.224-.183.484-.183.78v4.035h-1.274zm16.298.132c-.634 0-1.179-.143-1.636-.43s-.804-.689-1.049-1.198-.366-1.091-.366-1.747c0-.665.125-1.251.375-1.76a2.87 2.87 0 0 1 1.057-1.197c.454-.287.99-.431 1.606-.431a3.08 3.08 0 0 1 1.33.277c.389.182.703.438.941.767s.385.715.431 1.155h-1.24c-.068-.307-.225-.571-.469-.792s-.565-.333-.972-.333c-.355 0-.666.094-.933.281s-.47.449-.618.793-.221.744-.221 1.21c0 .478.072.89.217 1.236s.349.615.614.806.581.285.941.285c.242 0 .461-.044.657-.132a1.33 1.33 0 0 0 .498-.388c.137-.167.232-.369.286-.605h1.24a2.41 2.41 0 0 1-.414 1.134c-.23.332-.538.593-.924.784s-.834.285-1.351.285zm8.078-2.846v-3.831h1.278v6.545h-1.253v-1.133h-.068a2.05 2.05 0 0 1-.724.873c-.33.23-.74.345-1.232.345-.42 0-.793-.092-1.116-.277s-.574-.464-.759-.831-.273-.819-.273-1.359v-4.163h1.275v4.01c0 .446.123.801.37 1.065s.568.396.963.396c.239 0 .476-.059.712-.179s.436-.3.592-.541.238-.548.235-.92zm7.775-2.233l-1.155.204c-.048-.148-.125-.288-.23-.422a1.14 1.14 0 0 0-.418-.328c-.176-.085-.396-.128-.66-.128-.361 0-.662.081-.904.243s-.362.365-.362.618a.65.65 0 0 0 .243.529c.162.133.423.242.784.328l1.04.238c.602.139 1.051.354 1.347.644s.443.666.443 1.129c0 .392-.114.741-.341 1.048s-.539.543-.942.716-.865.26-1.393.26c-.733 0-1.331-.156-1.794-.469s-.748-.762-.853-1.342l1.232-.187c.077.321.234.563.473.728s.55.243.933.243c.418 0 .752-.086 1.002-.26s.375-.39.375-.643c0-.205-.077-.377-.231-.516s-.382-.244-.694-.315l-1.108-.243c-.611-.139-1.063-.361-1.355-.665s-.435-.689-.435-1.155a1.65 1.65 0 0 1 .324-1.014c.216-.29.514-.516.895-.677s.817-.248 1.308-.248c.707 0 1.264.154 1.671.461a2.14 2.14 0 0 1 .805 1.223zm4.464-1.598v1.022h-3.575v-1.022h3.575zm-2.616-1.569h1.274v6.192c0 .247.037.433.111.558s.169.206.285.252a1.16 1.16 0 0 0 .388.064 1.41 1.41 0 0 0 .268-.022l.179-.034.23 1.053c-.073.028-.179.057-.315.085s-.307.048-.511.051a2.24 2.24 0 0 1-.938-.179 1.61 1.61 0 0 1-.703-.579c-.179-.262-.268-.59-.268-.985v-6.456zm6.592 8.246c-.613 0-1.149-.14-1.606-.422s-.813-.674-1.066-1.18-.379-1.097-.379-1.773.127-1.273.379-1.781.608-.904 1.066-1.185.993-.422 1.606-.422 1.149.141 1.607.422.812.676 1.065 1.185.379 1.102.379 1.781-.126 1.267-.379 1.773-.608.899-1.065 1.18-.993.422-1.607.422zm.005-1.069c.397 0 .727-.106.988-.316s.455-.49.58-.839a3.34 3.34 0 0 0 .192-1.155c0-.418-.064-.801-.192-1.151s-.318-.635-.58-.848-.591-.319-.988-.319-.733.106-.998.319a1.9 1.9 0 0 0-.583.848c-.125.35-.188.733-.188 1.151s.063.805.188 1.155.322.629.583.839.597.316.998.316zm4.349.937v-6.545h1.223v1.065h.081c.136-.361.359-.642.669-.844s.68-.307 1.112-.307c.437 0 .804.103 1.099.307s.519.486.661.844h.068c.156-.35.405-.628.746-.835s.747-.316 1.219-.316c.593 0 1.078.186 1.453.559s.566.933.566 1.683v4.389h-1.274v-4.27c0-.443-.12-.764-.362-.963s-.53-.298-.865-.298c-.415 0-.737.128-.967.383s-.346.578-.346.976v4.172h-1.269v-4.351c0-.355-.111-.64-.333-.856s-.51-.324-.865-.324a1.24 1.24 0 0 0-.669.192 1.4 1.4 0 0 0-.49.524c-.122.224-.183.484-.183.78v4.035h-1.274zm13.306.132c-.645 0-1.2-.138-1.666-.413s-.821-.669-1.074-1.172-.375-1.098-.375-1.777c0-.671.125-1.261.375-1.773s.605-.91 1.057-1.197.986-.431 1.594-.431a3.19 3.19 0 0 1 1.074.184 2.61 2.61 0 0 1 .933.575c.275.261.493.601.652 1.018s.238.919.238 1.513v.452h-5.203v-.955h3.955a1.87 1.87 0 0 0-.205-.89c-.136-.262-.328-.468-.575-.618s-.531-.226-.861-.226c-.358 0-.67.088-.937.264a1.77 1.77 0 0 0-.614.682c-.142.278-.213.581-.213.908v.745c0 .438.077.81.23 1.117s.374.541.652.703.604.239.976.239c.241 0 .462-.035.66-.103a1.43 1.43 0 0 0 .516-.315c.145-.139.256-.311.332-.516l1.206.218c-.096.355-.269.666-.519.933s-.559.47-.934.618a3.49 3.49 0 0 1-1.274.217zm4.102-.132v-6.545h1.232v1.039h.068a1.58 1.58 0 0 1 .631-.831c.303-.204.647-.306 1.031-.306l.281.008.26.021v1.219a2.3 2.3 0 0 0-.273-.047c-.13-.02-.261-.03-.392-.03a1.66 1.66 0 0 0-.805.192c-.233.125-.418.3-.554.524s-.205.475-.205.759v3.997h-1.274zm9.39-4.947l-1.154.204a1.37 1.37 0 0 0-.231-.422c-.102-.133-.241-.243-.417-.328s-.396-.128-.661-.128c-.36 0-.662.081-.903.243s-.362.365-.362.618a.65.65 0 0 0 .243.529c.162.133.423.242.784.328l1.039.238c.603.139 1.052.354 1.347.644s.443.666.443 1.129a1.71 1.71 0 0 1-.341 1.048c-.224.304-.538.543-.941.716s-.865.26-1.394.26c-.733 0-1.331-.156-1.794-.469s-.747-.762-.852-1.342l1.231-.187c.077.321.235.563.473.728s.55.243.934.243c.417 0 .751-.086 1.001-.26s.375-.39.375-.643a.67.67 0 0 0-.23-.516c-.151-.139-.382-.244-.695-.315l-1.108-.243c-.61-.139-1.062-.361-1.355-.665s-.434-.689-.434-1.155c0-.386.108-.724.323-1.014s.515-.516.895-.677.817-.248 1.309-.248c.707 0 1.264.154 1.67.461s.675.711.805 1.223z" class="N"/><rect x="123.5" y="340.139" width="372" height="47" rx="3.5" stroke="#000"/><rect x="-1" y="1" width="421" height="84" rx="7" transform="matrix(-1 0 0 1 519 320.639)" class="I J K"/><rect x="-2" y="2" width="447" height="108" rx="6" transform="matrix(-1 0 0 1 531 307.639)" class="C D"/><g transform="matrix(-1 0 0 1 543 469.639)"><rect x="-2" y="2" width="442" height="112" rx="6" class="G"/><rect x="-2" y="2" width="442" height="112" rx="6" class="C D"/></g><g class="E"><rect x="-2" y="2" width="447" height="108" rx="6" transform="matrix(-1 0 0 1 531 460.639)"/><rect x="-1" y="1" width="421" height="84" rx="7" transform="matrix(-1 0 0 1 519 473.639)"/></g><rect x="123.161" y="493.039" width="372" height="47" rx="3.5" class="B"/><rect x="142.05" y="510.039" width="13" height="13" rx="1.5" class="F"/><g fill="#eef1f7"><rect x="178.55" y="505.539" width="115" height="22" rx="11"/><rect x="358.55" y="512.539" width="113" height="8" rx="4"/></g><rect x="123.161" y="493.039" width="372" height="47" rx="3.5" stroke="#000"/><rect x="-1" y="1" width="421" height="84" rx="7" transform="matrix(-1 0 0 1 519 473.639)" class="I J K"/><rect x="-2" y="2" width="447" height="108" rx="6" transform="matrix(-1 0 0 1 531 460.639)" class="C D"/><defs><clipPath id="A"><path transform="translate(118 149.639)" d="M0 0h22v22H0z" class="B"/></clipPath><clipPath id="B"><path transform="translate(311 203.235)" d="M0 0h15v15H0z" class="B"/></clipPath><clipPath id="C"><path transform="translate(128 202.895)" d="M0 0h15v15H0z" class="B"/></clipPath><clipPath id="D"><path transform="translate(177.889 357.139)" d="M0 0h13v13H0z" class="B"/></clipPath><path id="E" d="M355.621 511.269l10.182-13.818 13.818-10.182-13.818-10.182-10.182-13.818-10.182 13.818-13.818 10.182 13.818 10.182 10.182 13.818z"/><path id="F" d="M125.028 165.528c.506 0 .917-.41.917-.917s-.411-.916-.917-.916-.917.41-.917.916.411.917.917.917z"/></defs></svg>