<svg xmlns="http://www.w3.org/2000/svg" xmlns:xlink="http://www.w3.org/1999/xlink" width="608" height="561" fill="none" xmlns:v="https://vecta.io/nano"><g stroke="#97969c" stroke-dasharray="4 4"><path d="M559.504-31.321v78.64m0 544.473v-280.31m0-65.742V97.522M457.312-30.944l.001 402.045m0 220.516V395.774M355.621-31.133V133.66m0 457.954v-81.246m0-293.993v244.394M252.93-30.944V59.8m0 531.811V84.102M150.739-31.131l-.001 373.692m0 249.057V425.635M48.547-31.323v183.828m0 439.102V288.589m0-90.065v72.831"/><path d="M0 487.289h330.227m277.773 0H379.607M0 383.496h112.263m495.737 0H469.346m-278.878 0h254.206M0 175.91h25.672m582.328 0H396.708m-80.708 0H73.358M0 279.703h39.48m568.521 0h-15.322m-65.324 0H57.12M0 72.117h239.558m368.442 0h-25.121m-48.339 0H265.522"/><use xlink:href="#C"/><path d="M559.48 96.035l10.183-13.818 13.817-10.182-13.817-10.182-10.183-13.818-10.182 13.818-13.818 10.182 13.818 10.182 10.182 13.818z"/><use xlink:href="#C" x="-307.019" y="-311.504"/><path d="M559.469 311.619l13.576-18.424 18.424-13.576-18.424-13.577-13.576-18.423-13.577 18.423-18.423 13.577 18.423 13.576 13.577 18.424zM150.754 423.525l16.97-23.03 23.03-16.97-23.03-16.971-16.97-23.029-16.971 23.029-23.029 16.971 23.029 16.97 16.971 23.03zm204.867-207.609l16.971-23.03 23.029-16.97-23.029-16.971-16.971-23.029-16.97 23.029-23.03 16.971 23.03 16.97 16.97 23.03z"/><circle r="12" transform="matrix(1 0 0 -1 457.246 383.496)"/><circle r="8" transform="matrix(1 0 0 -1 48.5469 279.703)"/><circle r="12" transform="matrix(1 0 0 -1 252.598 72.1167)"/></g><g transform="matrix(-1 0 0 1 543.328 73.6404)"><rect x="-2" y="2" width="441.955" height="422.315" rx="6" fill="#121212"/><rect x="-2" y="2" width="441.955" height="422.315" rx="6" stroke="#121212" stroke-width="4"/></g><g transform="matrix(-1 0 0 1 525.039 60.7212)"><rect x="-2" y="2" width="441.12" height="419.085" rx="6" fill="#f5f6f8"/><rect x="-2" y="2" width="441.12" height="419.085" rx="6" stroke="#121212" stroke-width="4"/></g><rect x="96" y="73.639" width="422" height="38" rx="4" fill="#fff"/><rect x="113" y="87.639" width="10" height="10" rx="5" fill="#eb5757"/><rect x="131" y="87.639" width="10" height="10" rx="5" fill="#f2c94c"/><rect x="149" y="87.639" width="10" height="10" rx="5" fill="#27ae60"/><g fill="#e7edf5"><path d="M492.438 86.639a1 1 0 1 0-2 0h2zm-2 12a1 1 0 1 0 2 0h-2zm0-12v12h2v-12h-2z"/><path d="M497.437 93.639a1 1 0 1 0 .001-2l-.001 2zm-11.999-2a1 1 0 1 0-.001 2l.001-2zm12 0h-12l-.001 2h12l.001-2z"/></g><rect x="-1" y="1" width="419" height="345" rx="7" transform="matrix(-1 0 0 1 515 124.639)" fill="#f5f6f8"/><path d="M332.684 172.639v-2.286h1.728v-2.43h-1.728v-7.344h-3.132l-6.372 7.884v1.89h6.804v2.286h2.7zm-6.102-4.716v-.18l3.24-3.888h.162v4.068h-3.402zm18.419 4.716v-2.286h1.728v-2.43h-1.728v-7.344h-3.132l-6.372 7.884v1.89h6.804v2.286h2.7zm-6.102-4.716v-.18l3.24-3.888h.162v4.068h-3.402zm10.249 7.38c1.53 0 2.412-.774 2.412-2.376v-3.474h-3.384v3.186h1.44v.324c0 .468-.162.576-.54.576h-.828v1.764h.9zm9.467-2.484c3.42 0 5.13-2.052 5.13-6.156 0-4.284-1.386-6.264-5.238-6.264-3.222 0-4.914 1.548-4.914 3.978 0 2.286 1.35 3.654 3.978 3.654 1.8 0 2.754-.612 3.294-1.404h.09v1.044c0 1.872-.396 2.574-2.16 2.574-1.332 0-1.89-.36-1.89-1.26v-.108h-2.862v.108c0 2.322 1.728 3.834 4.572 3.834zm-.126-6.966c-1.728 0-2.25-.396-2.25-1.422 0-1.044.522-1.44 2.25-1.44 1.692 0 2.232.396 2.232 1.44 0 1.026-.54 1.422-2.232 1.422zm13.05 6.966c3.456 0 5.4-2.448 5.4-6.21 0-3.744-1.944-6.21-5.4-6.21-3.474 0-5.418 2.466-5.418 6.21 0 3.762 1.944 6.21 5.418 6.21zm0-2.61c-1.854 0-2.538-.738-2.538-3.6s.684-3.6 2.538-3.6c1.836 0 2.52.738 2.52 3.6s-.684 3.6-2.52 3.6zm13.566 2.61c3.456 0 5.4-2.448 5.4-6.21 0-3.744-1.944-6.21-5.4-6.21-3.474 0-5.418 2.466-5.418 6.21 0 3.762 1.944 6.21 5.418 6.21zm0-2.61c-1.854 0-2.538-.738-2.538-3.6s.684-3.6 2.538-3.6c1.836 0 2.52.738 2.52 3.6s-.684 3.6-2.52 3.6zm16.929 2.61c3.51 0 5.292-1.872 5.292-4.878v-7.362h-2.7v7.326c0 1.728-.612 2.304-2.592 2.304-1.998 0-2.61-.576-2.61-2.304v-7.326h-2.682v7.362c0 3.006 1.782 4.878 5.292 4.878zm11.444 0c2.502 0 3.888-1.08 3.888-2.772 0-1.476-.792-2.34-2.7-2.7l-1.656-.342c-1.08-.216-1.242-.342-1.242-.774s.252-.666 1.332-.666c1.152 0 1.404.324 1.404.918v.252h2.574v-.252c0-2.034-1.692-3.078-3.906-3.078-2.574 0-3.942 1.188-3.942 2.862s.972 2.43 2.754 2.754l1.368.252c1.206.216 1.458.324 1.458.81 0 .45-.18.612-1.278.612-1.314 0-1.71-.144-1.71-.81v-.378h-2.574v.054c0 2.196 1.386 3.258 4.23 3.258zm9.861 0c2.592 0 4.248-1.134 4.248-3.06v-.18h-2.664v.108c0 .558-.468.792-1.548.792-1.476 0-1.98-.504-2.034-1.764h6.21a8.16 8.16 0 0 0 .126-1.332c0-2.358-1.602-3.978-4.32-3.978-2.826 0-4.554 1.836-4.554 4.734 0 2.862 1.422 4.68 4.536 4.68zm-.072-7.2c1.26 0 1.872.522 1.818 1.458h-3.726c.108-.954.612-1.458 1.908-1.458zm8.926 7.02v-5.67c0-.99.396-1.278 1.224-1.278.846 0 1.152.306 1.152 1.278v.486h2.682v-.828c0-1.818-.702-3.222-2.592-3.222-1.278 0-2.088.72-2.538 1.638h-.108v-1.458h-2.502v9.054h2.682zm10.713.18c2.502 0 3.888-1.08 3.888-2.772 0-1.476-.792-2.34-2.7-2.7l-1.656-.342c-1.08-.216-1.242-.342-1.242-.774s.252-.666 1.332-.666c1.152 0 1.404.324 1.404.918v.252h2.574v-.252c0-2.034-1.692-3.078-3.906-3.078-2.574 0-3.942 1.188-3.942 2.862s.972 2.43 2.754 2.754l1.368.252c1.206.216 1.458.324 1.458.81 0 .45-.18.612-1.278.612-1.314 0-1.71-.144-1.71-.81v-.378h-2.574v.054c0 2.196 1.386 3.258 4.23 3.258z" fill="#636369"/><rect x="311" y="164.639" width="4" height="4" rx="2" fill="#b7b7bd"/><path d="M122.546 172.639v-3.582h2.844c2.592 0 4.446-1.53 4.446-4.23 0-2.682-1.854-4.248-4.446-4.248h-5.544v12.06h2.7zm2.952-9.63c1.242 0 1.656.36 1.656 1.818 0 1.44-.414 1.818-1.656 1.818h-2.952v-3.636h2.952zm8.679 9.63v-5.67c0-.99.396-1.278 1.224-1.278.846 0 1.152.306 1.152 1.278v.486h2.682v-.828c0-1.818-.702-3.222-2.592-3.222-1.278 0-2.088.72-2.538 1.638h-.108v-1.458h-2.502v9.054h2.682zm10.877.18c2.592 0 4.248-1.134 4.248-3.06v-.18h-2.664v.108c0 .558-.468.792-1.548.792-1.476 0-1.98-.504-2.034-1.764h6.21a8.16 8.16 0 0 0 .126-1.332c0-2.358-1.602-3.978-4.32-3.978-2.826 0-4.554 1.836-4.554 4.734 0 2.862 1.422 4.68 4.536 4.68zm-.072-7.2c1.26 0 1.872.522 1.818 1.458h-3.726c.108-.954.612-1.458 1.908-1.458zm8.925 7.02v-5.238c0-1.278.54-1.674 1.764-1.674 1.296 0 1.692.45 1.692 1.71v5.202h2.7v-5.202c0-1.314.522-1.71 1.746-1.71 1.314 0 1.692.45 1.692 1.71v5.202h2.7v-5.742c0-1.926-.954-3.492-3.294-3.492-1.674 0-2.574.774-3.078 1.764h-.09c-.45-1.062-1.386-1.764-2.934-1.764s-2.484.738-2.97 1.764h-.108v-1.584h-2.502v9.054h2.682zm16.973-10.08v-1.98h-2.682l.036 1.98h2.646zm.054 10.08v-9.054h-2.7v9.054h2.7zm5.355.18c1.584 0 2.538-.72 3.042-1.764h.09v1.584h2.502v-9.054h-2.682v5.13c0 1.368-.558 1.782-1.854 1.782-1.35 0-1.782-.45-1.782-1.71v-5.202h-2.682v5.742c0 1.926.99 3.492 3.366 3.492zm10.51-.18v-5.238c0-1.278.54-1.674 1.764-1.674 1.296 0 1.692.45 1.692 1.71v5.202h2.7v-5.202c0-1.314.522-1.71 1.746-1.71 1.314 0 1.692.45 1.692 1.71v5.202h2.7v-5.742c0-1.926-.954-3.492-3.294-3.492-1.674 0-2.574.774-3.078 1.764h-.09c-.45-1.062-1.386-1.764-2.934-1.764s-2.484.738-2.97 1.764h-.108v-1.584h-2.502v9.054h2.682zm23.928.18c3.564 0 5.49-1.872 5.49-4.86v-.162h-2.88v.09c0 1.728-.72 2.322-2.628 2.322-2.034 0-2.88-.738-2.88-3.6s.846-3.6 2.88-3.6c1.908 0 2.628.594 2.628 2.322v.09h2.88v-.162c0-2.988-1.926-4.86-5.49-4.86-3.618 0-5.778 2.448-5.778 6.21s2.16 6.21 5.778 6.21zm10.753 0c1.584 0 2.538-.72 3.042-1.764h.09v1.584h2.502v-9.054h-2.682v5.13c0 1.368-.558 1.782-1.854 1.782-1.35 0-1.782-.45-1.782-1.71v-5.202h-2.682v5.742c0 1.926.99 3.492 3.366 3.492zm11.771 0c2.502 0 3.888-1.08 3.888-2.772 0-1.476-.792-2.34-2.7-2.7l-1.656-.342c-1.08-.216-1.242-.342-1.242-.774s.252-.666 1.332-.666c1.152 0 1.404.324 1.404.918v.252h2.574v-.252c0-2.034-1.692-3.078-3.906-3.078-2.574 0-3.942 1.188-3.942 2.862s.972 2.43 2.754 2.754l1.368.252c1.206.216 1.458.324 1.458.81 0 .45-.18.612-1.278.612-1.314 0-1.71-.144-1.71-.81v-.378h-2.574v.054c0 2.196 1.386 3.258 4.23 3.258zm9.703-.144a9.52 9.52 0 0 0 1.764-.18v-2.25h-1.116c-1.17 0-1.44-.09-1.44-.882v-3.546h2.556v-2.232h-2.556v-2.106h-2.124l-.504 2.106h-1.512v2.232h1.44v3.852c0 2.142 1.134 3.006 3.492 3.006zm7.627.144c2.898 0 4.59-1.836 4.59-4.698 0-2.88-1.692-4.716-4.59-4.716-2.916 0-4.644 1.836-4.644 4.716 0 2.862 1.728 4.698 4.644 4.698zm0-2.376c-1.476 0-1.98-.576-1.98-2.322 0-1.764.504-2.34 1.98-2.34 1.458 0 1.962.576 1.962 2.34 0 1.746-.504 2.322-1.962 2.322zm9.045 2.196v-5.238c0-1.278.54-1.674 1.764-1.674 1.296 0 1.692.45 1.692 1.71v5.202h2.7v-5.202c0-1.314.522-1.71 1.746-1.71 1.314 0 1.692.45 1.692 1.71v5.202h2.7v-5.742c0-1.926-.954-3.492-3.294-3.492-1.674 0-2.574.774-3.078 1.764h-.09c-.45-1.062-1.386-1.764-2.934-1.764s-2.484.738-2.97 1.764h-.108v-1.584h-2.502v9.054h2.682zm18.593.18c2.592 0 4.248-1.134 4.248-3.06v-.18h-2.664v.108c0 .558-.468.792-1.548.792-1.476 0-1.98-.504-2.034-1.764h6.21a8.16 8.16 0 0 0 .126-1.332c0-2.358-1.602-3.978-4.32-3.978-2.826 0-4.554 1.836-4.554 4.734 0 2.862 1.422 4.68 4.536 4.68zm-.072-7.2c1.26 0 1.872.522 1.818 1.458h-3.726c.108-.954.612-1.458 1.908-1.458zm8.926 7.02v-5.67c0-.99.396-1.278 1.224-1.278.846 0 1.152.306 1.152 1.278v.486h2.682v-.828c0-1.818-.702-3.222-2.592-3.222-1.278 0-2.088.72-2.538 1.638h-.108v-1.458h-2.502v9.054h2.682zm10.713.18c2.502 0 3.888-1.08 3.888-2.772 0-1.476-.792-2.34-2.7-2.7l-1.656-.342c-1.08-.216-1.242-.342-1.242-.774s.252-.666 1.332-.666c1.152 0 1.404.324 1.404.918v.252h2.574v-.252c0-2.034-1.692-3.078-3.906-3.078-2.574 0-3.942 1.188-3.942 2.862s.972 2.43 2.754 2.754l1.368.252c1.206.216 1.458.324 1.458.81 0 .45-.18.612-1.278.612-1.314 0-1.71-.144-1.71-.81v-.378h-2.574v.054c0 2.196 1.386 3.258 4.23 3.258z" fill="#000"/><rect x="119.5" y="189.872" width="168" height="30" rx="3.5" fill="#fff"/><path d="M143.311 204.411l-3.708-1.372-1.384-4.538c-.053-.175-.216-.295-.398-.295a.42.42 0 0 0-.399.295l-1.384 4.538-3.708 1.372c-.164.061-.272.216-.272.391s.108.33.272.391l3.706 1.372 1.385 4.676c.052.177.215.298.4.298s.347-.121.399-.298l1.385-4.676 3.707-1.373c.163-.06.271-.215.271-.39s-.108-.33-.272-.391z" fill="#ffac33"/><path d="M134.978 208.995l-.964-.357-.375-1.375c-.049-.181-.214-.307-.402-.307s-.352.126-.402.307l-.375 1.375-.963.356c-.164.061-.273.217-.273.391s.109.331.273.391l.958.356.378 1.509c.047.185.213.315.404.315s.358-.13.405-.316l.377-1.509.959-.355c.164-.06.272-.217.272-.391s-.108-.33-.272-.39zm-1.807-9.026l-.985-.365-.365-.985c-.061-.164-.217-.272-.391-.272s-.33.108-.391.272l-.365.985-.985.365c-.164.06-.272.216-.272.39s.108.331.272.391l.985.365.365.985c.061.164.217.272.391.272s.33-.108.391-.272l.364-.985.986-.365c.163-.061.272-.216.272-.391s-.109-.33-.272-.39z" fill="#ffcc4d"/><path d="M156.207 203.483h-1.329c-.051-.284-.146-.534-.286-.75s-.309-.399-.511-.549-.428-.265-.678-.341-.51-.115-.788-.115c-.503 0-.953.126-1.351.379s-.707.623-.937 1.112-.341 1.085-.341 1.79c0 .71.113 1.309.341 1.798s.544.858.941 1.108.846.375 1.343.375a2.72 2.72 0 0 0 .784-.111c.25-.076.476-.189.677-.336s.373-.329.512-.542.24-.463.294-.741l1.329.004c-.071.429-.208.824-.413 1.185s-.462.667-.78.929-.676.459-1.082.601-.85.213-1.33.213c-.755 0-1.429-.179-2.02-.537s-1.056-.877-1.397-1.547-.507-1.47-.507-2.399.17-1.732.511-2.399.807-1.185 1.398-1.543 1.262-.541 2.015-.541c.463 0 .895.067 1.296.2a3.42 3.42 0 0 1 1.086.58 3.18 3.18 0 0 1 .797.929c.21.363.353.779.426 1.248zm4.111 6.022c-.614 0-1.149-.141-1.607-.422s-.812-.675-1.065-1.181-.379-1.096-.379-1.772.126-1.273.379-1.782.608-.903 1.065-1.184.993-.422 1.607-.422 1.149.14 1.606.422.813.676 1.066 1.184.379 1.103.379 1.782-.126 1.267-.379 1.772-.608.899-1.066 1.181-.993.422-1.606.422zm.004-1.07c.398 0 .727-.105.989-.315s.454-.49.579-.84.192-.734.192-1.155a3.32 3.32 0 0 0-.192-1.15c-.125-.353-.318-.635-.579-.848s-.591-.32-.989-.32-.733.107-.997.32-.456.495-.584.848-.187.733-.187 1.15.062.806.187 1.155.323.629.584.84.597.315.997.315zm4.349.937v-6.545h1.223v1.065h.081c.137-.36.36-.642.669-.843s.681-.307 1.112-.307c.438 0 .804.102 1.1.307s.518.485.66.843h.069c.156-.349.404-.628.745-.835s.747-.315 1.219-.315c.594 0 1.078.186 1.453.558s.567.933.567 1.683v4.389h-1.274v-4.269c0-.444-.121-.765-.362-.964s-.53-.298-.865-.298c-.415 0-.738.128-.968.384s-.345.578-.345.976v4.171h-1.27v-4.35c0-.356-.111-.641-.332-.857s-.51-.324-.865-.324c-.242 0-.465.064-.669.192s-.365.3-.49.524-.184.484-.184.78v4.035h-1.274zm10.486 2.455v-9h1.244v1.061h.107a3.51 3.51 0 0 1 .319-.473c.139-.179.333-.335.58-.469s.574-.204.98-.204c.528 0 1 .133 1.415.4s.74.652.975 1.155.358 1.108.358 1.815-.118 1.314-.353 1.82-.56.891-.972 1.163-.882.405-1.41.405c-.398 0-.723-.066-.976-.2s-.446-.29-.588-.469a3.5 3.5 0 0 1-.328-.477h-.077v3.473h-1.274zm1.248-5.727c0 .46.067.863.201 1.21s.326.618.579.814.563.29.929.29c.381 0 .699-.101.955-.303s.448-.481.579-.831.2-.743.2-1.18c0-.432-.065-.82-.196-1.164s-.321-.615-.579-.814-.575-.298-.959-.298c-.369 0-.682.095-.937.286s-.445.456-.576.797-.196.738-.196 1.193zm7.312-5.455v8.727h-1.274v-8.727h1.274zm4.415 8.86c-.645 0-1.2-.138-1.666-.414s-.821-.669-1.074-1.172-.375-1.098-.375-1.777c0-.67.125-1.261.375-1.772a2.91 2.91 0 0 1 1.057-1.198c.455-.287.986-.43 1.594-.43.369 0 .727.061 1.074.183a2.61 2.61 0 0 1 .933.575c.275.262.493.601.652 1.019s.238.919.238 1.513v.451h-5.203v-.954h3.955c0-.336-.068-.632-.205-.891a1.55 1.55 0 0 0-.575-.618c-.244-.15-.531-.226-.861-.226-.358 0-.67.088-.937.265s-.469.4-.614.681a1.97 1.97 0 0 0-.213.908v.746c0 .437.077.809.23 1.116s.374.541.652.703.604.239.976.239c.242 0 .462-.034.661-.102s.37-.176.515-.316.256-.311.333-.515l1.206.217a2.19 2.19 0 0 1-.52.933c-.248.265-.559.47-.934.618s-.796.218-1.274.218zm7.158-6.678v1.023h-3.576v-1.023h3.576zm-2.617-1.568h1.274v6.192c0 .247.037.433.111.558s.169.206.286.251a1.13 1.13 0 0 0 .387.064c.103 0 .192-.007.269-.021l.179-.034.23 1.052a2.14 2.14 0 0 1-.315.086c-.137.031-.307.048-.512.051a2.25 2.25 0 0 1-.937-.179c-.29-.125-.524-.318-.703-.58s-.269-.589-.269-.984v-6.456zm6.657 8.246c-.645 0-1.201-.138-1.666-.414s-.821-.669-1.074-1.172-.375-1.098-.375-1.777c0-.67.125-1.261.375-1.772a2.91 2.91 0 0 1 1.057-1.198c.454-.287.985-.43 1.593-.43.37 0 .728.061 1.074.183s.658.314.933.575.493.601.652 1.019.239.919.239 1.513v.451h-5.203v-.954h3.954c0-.336-.068-.632-.204-.891s-.328-.467-.575-.618-.532-.226-.861-.226c-.358 0-.671.088-.938.265a1.77 1.77 0 0 0-.613.681 1.97 1.97 0 0 0-.213.908v.746c0 .437.076.809.23 1.116s.373.541.652.703.603.239.976.239a2.03 2.03 0 0 0 .66-.102 1.42 1.42 0 0 0 .516-.316 1.37 1.37 0 0 0 .332-.515l1.206.217a2.19 2.19 0 0 1-.52.933 2.51 2.51 0 0 1-.933.618 3.49 3.49 0 0 1-1.274.218zm6.552-.005c-.528 0-1-.135-1.415-.405s-.736-.66-.971-1.163-.35-1.112-.35-1.82.118-1.312.354-1.815.565-.888.98-1.155.885-.4 1.41-.4c.407 0 .733.068.981.204s.443.29.579.469a4.05 4.05 0 0 1 .324.473h.077v-3.243h1.274v8.727h-1.244v-1.018h-.107c-.077.139-.187.298-.332.477s-.338.335-.588.469-.574.2-.972.2zm.281-1.086c.367 0 .676-.097.929-.29s.449-.467.58-.814.2-.75.2-1.21c0-.455-.065-.853-.196-1.193s-.322-.607-.575-.797-.566-.286-.938-.286c-.383 0-.703.1-.959.298s-.448.471-.579.814a3.32 3.32 0 0 0-.192 1.164c0 .437.065.831.196 1.18s.324.627.58.831.576.303.954.303zm7.716.958v-6.545h1.232v1.04h.068a1.57 1.57 0 0 1 .631-.831 1.8 1.8 0 0 1 1.031-.307l.281.008.26.022v1.219c-.051-.015-.142-.03-.273-.047s-.261-.03-.392-.03a1.66 1.66 0 0 0-.805.192c-.233.125-.418.299-.554.524s-.205.474-.205.758v3.997h-1.274zm7.072.133c-.645 0-1.2-.138-1.666-.414s-.821-.669-1.074-1.172-.375-1.098-.375-1.777c0-.67.125-1.261.375-1.772a2.91 2.91 0 0 1 1.057-1.198c.455-.287.986-.43 1.594-.43.369 0 .727.061 1.074.183a2.61 2.61 0 0 1 .933.575c.275.262.493.601.652 1.019s.239.919.239 1.513v.451h-5.204v-.954h3.955c0-.336-.068-.632-.205-.891a1.55 1.55 0 0 0-.575-.618c-.244-.15-.531-.226-.861-.226-.358 0-.67.088-.937.265s-.469.4-.614.681a1.97 1.97 0 0 0-.213.908v.746c0 .437.077.809.23 1.116a1.67 1.67 0 0 0 .652.703c.279.159.604.239.976.239.242 0 .462-.034.661-.102s.37-.176.515-.316.256-.311.333-.515l1.206.217a2.19 2.19 0 0 1-.52.933c-.247.265-.559.47-.934.618s-.796.218-1.274.218zm6.847 2.458c-.52 0-.968-.068-1.343-.204s-.676-.317-.912-.541-.412-.471-.528-.738l1.095-.451c.077.125.179.257.307.396s.307.263.528.362.513.149.865.149c.483 0 .882-.118 1.198-.353s.473-.605.473-1.117v-1.287h-.081a2.96 2.96 0 0 1-.333.465c-.142.17-.338.318-.588.443s-.575.187-.975.187a2.72 2.72 0 0 1-1.398-.362 2.56 2.56 0 0 1-.98-1.078c-.239-.477-.358-1.064-.358-1.76s.118-1.292.353-1.79.566-.877.981-1.142.884-.4 1.41-.4c.406 0 .734.068.984.204s.445.29.584.469.252.337.328.473h.094v-1.061h1.249v6.69c0 .563-.131 1.024-.392 1.385s-.615.628-1.061.801-.944.26-1.5.26zm-.013-3.745c.366 0 .676-.086.929-.256s.449-.421.579-.742.201-.711.201-1.163c0-.44-.066-.828-.196-1.163s-.323-.597-.576-.784-.565-.286-.937-.286c-.384 0-.703.1-.959.298s-.449.464-.58.802-.191.715-.191 1.133c0 .429.065.805.196 1.129a1.67 1.67 0 0 0 .579.759c.259.182.577.273.955.273zm4.555 1.154v-6.545h1.274v6.545h-1.274zm.643-7.555a.81.81 0 0 1-.571-.222.72.72 0 0 1-.234-.536.71.71 0 0 1 .234-.537.8.8 0 0 1 .571-.226c.222 0 .41.075.567.226s.238.326.238.537a.71.71 0 0 1-.238.536c-.157.148-.345.222-.567.222zm7.13 2.608l-1.155.205c-.049-.148-.125-.289-.23-.422a1.14 1.14 0 0 0-.418-.328c-.176-.086-.396-.128-.66-.128-.361 0-.662.081-.904.243s-.362.365-.362.617a.65.65 0 0 0 .243.529c.162.133.423.243.784.328l1.04.239c.602.139 1.051.353 1.346.643s.443.666.443 1.129a1.72 1.72 0 0 1-.34 1.049c-.225.304-.539.542-.942.716s-.865.26-1.394.26c-.733 0-1.331-.157-1.794-.469s-.747-.763-.852-1.343l1.232-.187c.076.321.234.564.473.729s.549.243.933.243c.417 0 .751-.087 1.001-.26s.375-.391.375-.644c0-.204-.076-.376-.23-.515s-.382-.245-.695-.316l-1.107-.243c-.611-.139-1.063-.361-1.356-.664s-.434-.689-.434-1.155c0-.387.108-.725.324-1.015s.514-.515.895-.677.816-.247 1.308-.247c.707 0 1.264.153 1.67.46s.675.712.806 1.223zm4.464-1.598v1.023h-3.576v-1.023h3.576zm-2.617-1.568h1.274v6.192c0 .247.037.433.111.558s.169.206.286.251.248.064.388.064a1.51 1.51 0 0 0 .268-.021l.179-.034.23 1.052a2.14 2.14 0 0 1-.315.086c-.137.031-.307.048-.512.051-.335.005-.647-.054-.937-.179s-.524-.318-.703-.58-.269-.589-.269-.984v-6.456zm3.906 8.113v-6.545h1.232v1.04h.068a1.57 1.57 0 0 1 .631-.831 1.8 1.8 0 0 1 1.031-.307l.281.008.26.022v1.219c-.051-.015-.142-.03-.273-.047s-.261-.03-.392-.03a1.66 1.66 0 0 0-.805.192c-.233.125-.418.299-.554.524s-.205.474-.205.758v3.997h-1.274zm6.332.145c-.415 0-.79-.076-1.125-.23s-.601-.382-.797-.677-.29-.658-.29-1.087c0-.369.071-.673.213-.912s.334-.427.576-.567.511-.244.809-.315.603-.125.912-.162l.955-.111c.244-.031.422-.081.532-.149s.167-.179.167-.332v-.03c0-.372-.105-.661-.316-.865s-.517-.307-.929-.307c-.429 0-.767.095-1.014.286s-.413.396-.507.626l-1.197-.273c.142-.398.349-.719.622-.963s.592-.426.95-.537.734-.17 1.129-.17c.262 0 .539.031.831.094s.571.17.827.332.47.393.635.694.247.687.247 1.164v4.346h-1.244v-.894h-.051a1.83 1.83 0 0 1-.371.485 1.98 1.98 0 0 1-.635.397c-.259.105-.568.157-.929.157zm.277-1.022c.352 0 .653-.07.903-.209a1.46 1.46 0 0 0 .576-.546c.133-.227.2-.47.2-.728v-.844c-.046.045-.134.088-.264.128a4.24 4.24 0 0 1-.439.098l-.482.072-.392.051c-.247.032-.473.084-.677.158s-.364.18-.486.32-.179.318-.179.545c0 .315.116.554.349.716s.53.239.891.239zm7.586-5.668v1.023h-3.576v-1.023h3.576zm-2.617-1.568h1.274v6.192c0 .247.037.433.111.558s.169.206.285.251a1.14 1.14 0 0 0 .388.064c.103 0 .192-.007.269-.021l.179-.034.23 1.052c-.074.029-.179.057-.316.086s-.306.048-.511.051a2.25 2.25 0 0 1-.937-.179 1.6 1.6 0 0 1-.703-.58c-.179-.261-.269-.589-.269-.984v-6.456zm3.906 8.113v-6.545h1.274v6.545h-1.274zm.643-7.555a.81.81 0 0 1-.571-.222.72.72 0 0 1-.234-.536.71.71 0 0 1 .234-.537.8.8 0 0 1 .571-.226c.222 0 .411.075.567.226s.239.326.239.537-.08.386-.239.536-.345.222-.567.222zm4.982 7.688c-.613 0-1.149-.141-1.606-.422s-.813-.675-1.066-1.181-.379-1.096-.379-1.772.127-1.273.379-1.782.608-.903 1.066-1.184.993-.422 1.606-.422 1.15.14 1.607.422.812.676 1.065 1.184.379 1.103.379 1.782-.126 1.267-.379 1.772-.608.899-1.065 1.181-.993.422-1.607.422zm.005-1.07c.397 0 .727-.105.988-.315s.455-.49.58-.84.192-.734.192-1.155a3.32 3.32 0 0 0-.192-1.15c-.125-.353-.318-.635-.58-.848s-.591-.32-.988-.32-.733.107-.998.32-.456.495-.583.848-.188.733-.188 1.15.063.806.188 1.155.322.629.583.84.597.315.998.315zm5.623-2.949v3.886h-1.274v-6.545h1.223v1.065h.081c.15-.346.386-.625.707-.835s.732-.315 1.223-.315c.446 0 .837.094 1.172.281s.595.46.78.827.277.819.277 1.359v4.163h-1.274v-4.01c0-.474-.124-.845-.371-1.112s-.587-.405-1.019-.405c-.295 0-.558.064-.788.192a1.38 1.38 0 0 0-.541.563c-.131.244-.196.539-.196.886z" fill="#636369"/><rect x="119.5" y="189.872" width="168" height="30" rx="3.5" stroke="#dfe7f2"/><rect x="303.5" y="190.151" width="136" height="30" rx="3.5" fill="#fff"/><g clip-path="url(#A)"><path d="M327.834 204.434c-1.076-1.567-3.3.74-7.359 1.208-1.503.174-2.857 1.429-4.603 1.309-.716-.049-1.716-2.109-2.464-1.78-.385.169-.562.733-.166 1.158l4.395 5.244s.223.257.976.079c.185.055 2.973-1.063 4.585-3.299a6.7 6.7 0 0 1 1.322-1.354c1.546-1.143 3.227-1.541 3.227-1.541.215-.178.265-.366.253-.53.015-.274-.166-.494-.166-.494z" fill="#5c913b"/><path d="M317.782 201.932c-1.577 2.187-4.337 3.224-4.337 3.224-.515.436-.08.95-.08.95l4.349 5.15s.218.257.95.078c0 0 2.761-1.034 4.336-3.221 1.625-2.254 4.555-2.966 4.555-2.966.514-.436.08-.951.08-.951l-4.35-5.149s-.217-.258-.95-.08c0 0-2.929.71-4.553 2.965z" fill="#a7d28b"/><path d="M322.167 205.776a2.29 2.29 0 1 0 0-4.583 2.29 2.29 0 1 0 0 4.583z" fill="#77b255"/><path d="M318.364 210.955c-.367 0-.502-.137-.52-.158l-3.921-4.576c-.007-.009-.206-.236-.182-.525.015-.176.106-.332.27-.465l.026-.016c.026-.01 2.568-1.055 3.993-2.943l.083.062-.083-.062c1.508-1.999 4.108-2.856 4.134-2.865.727-.169.965.073.99.101l3.869 4.602c.007.007.205.236.181.525a.66.66 0 0 1-.269.464l-.042.021c-.025.006-2.553.634-4.018 2.575-1.458 1.934-4.003 3.184-4.028 3.197-.194.045-.353.063-.483.063zm-.363-.295s.188.174.777.037c.003-.005 2.504-1.234 3.932-3.127s3.843-2.576 4.111-2.646c.107-.092.166-.194.176-.304.017-.2-.13-.372-.132-.373l-3.868-4.603c-.001 0-.188-.172-.777-.036-.017.006-2.556.844-4.023 2.789-1.403 1.859-3.85 2.915-4.066 3.005-.112.094-.173.199-.182.311-.017.198.13.369.131.371l3.921 4.576z" fill="#5c913b"/><path d="M321.865 206.887l-.003 2.475.207.246c.404-.369.792-.783 1.127-1.249.348-.482.753-.895 1.179-1.244l-.201-.239-2.309.011z" fill="#ffac33"/><path d="M324.166 206.867l-5.211-6.172c-.423.348-.83.754-1.176 1.235-.338.469-.731.882-1.139 1.246l.609.721-.001.001 4.615 5.464c.408-.365.797-.782 1.135-1.251.346-.48.752-.886 1.175-1.235l-.008-.009h.001z" fill="#ffe8b6"/><path d="M319.033 207.049c-.649-.768-2.022.478-2.414.015-.189-.225-.067-.516.182-.726.419-.354.721-.148.91-.309.135-.113.128-.252.048-.347-.186-.22-.661-.105-1.03.108l-.18-.212c-.112-.133-.31-.15-.443-.038s-.149.31-.037.443l.186.22c-.282.374-.378.871-.044 1.266.623.737 2.014-.489 2.451.03.152.18.109.523-.21.792-.478.405-.911.215-1.106.379-.095.08-.112.232-.011.352.161.19.675.15 1.169-.158l.204.243c.112.132.311.148.443.037s.149-.311.037-.443l-.203-.24c.325-.414.438-.952.048-1.412z" fill="#5c913b"/><path d="M326.524 211.229c.04-.037.062-.069.087-.1l.053-.065c.015-.021.027-.042.04-.063.592-.912.204-2.457-.967-3.628s-2.717-1.559-3.628-.967l-.064.04c-.022.016-.043.035-.064.053l-.092.075c-.014.017-.019.02-.024.025l.002.002c-.416.442-.421 1.127-.002 1.546s1.104.414 1.547-.002l.005.005-.027.022c-.441.441-.452 1.145-.025 1.573s1.132.416 1.573-.025c.009-.008.014-.018.022-.026l.005.005c-.417.442-.422 1.127-.002 1.547s1.104.414 1.546-.003l.003.003c.004-.006.007-.012.012-.017z" fill="#e1e8ed"/><path d="M321.865 208.164c.378.377.967.408 1.404.109.183-.313.236-.61.236-.703-.92.686-1.741.004-1.925-.404a1.08 1.08 0 0 0 .285.998zm3.041 1.6c.124-.175.221-.343.266-.457-.586.536-1.705.143-2.044-.708-.149.396-.073.852.238 1.163.417.417 1.097.414 1.54.002zm1.606 1.498l.012-.015c.041-.038.063-.07.087-.101l.054-.065c.015-.02.027-.042.04-.063.027-.042.042-.091.065-.135-1.054.471-1.84-.329-2.06-.727-.123.382-.043.81.253 1.107.42.419 1.104.414 1.547-.003l.002.002z" fill="#ccd6dd"/><path d="M318.815 202.859l.012-.01c.029-.028.051-.06.076-.091l.052-.065.041-.063c.592-.911.204-2.457-.968-3.628s-2.716-1.56-3.628-.968l-.063.04-.065.053-.092.076c-.013.016-.019.019-.024.024l.002.002c-.416.443-.421 1.127-.002 1.547s1.104.414 1.547-.002l.005.004-.027.022c-.441.442-.452 1.145-.024 1.573s1.131.417 1.573-.024c.008-.008.013-.018.022-.027l.004.005c-.416.442-.422 1.127-.002 1.547s1.104.414 1.546-.003l.003.003z" fill="#e1e8ed"/><path d="M314.155 199.776c.378.378.967.408 1.404.108.183-.312.235-.609.235-.702-.919.686-1.74.003-1.924-.405-.076.353.017.73.285.999zm3.042 1.599c.124-.174.22-.342.265-.456-.586.536-1.705.143-2.044-.708-.149.396-.073.851.237 1.162.419.418 1.099.414 1.542.002zm1.605 1.499l.024-.024c.029-.028.051-.061.075-.092l.053-.064.041-.064c.027-.041.041-.091.064-.135-1.053.471-1.839-.328-2.06-.727-.123.382-.043.81.254 1.107.42.419 1.104.414 1.546-.003l.003.002z" fill="#ccd6dd"/></g><path d="M332.959 209.651v-8.727h3.111c.679 0 1.241.123 1.687.371a2.41 2.41 0 0 1 1.002 1.014 3.08 3.08 0 0 1 .332 1.44c0 .537-.112 1.02-.337 1.449s-.557.764-1.005 1.014-1.008.371-1.684.371h-2.139v-1.117h2.02c.429 0 .777-.073 1.044-.221s.463-.355.588-.614.188-.552.188-.882-.063-.622-.188-.878-.322-.456-.592-.601-.62-.217-1.057-.217h-1.653v7.598h-1.317zm9.3.145c-.415 0-.79-.077-1.125-.23s-.601-.382-.797-.678-.29-.657-.29-1.086c0-.37.071-.674.213-.912a1.57 1.57 0 0 1 .575-.567c.242-.139.512-.244.81-.315s.602-.125.912-.162l.954-.111c.245-.031.422-.081.533-.149s.166-.179.166-.333v-.029c0-.373-.105-.661-.315-.865s-.517-.307-.929-.307c-.429 0-.767.095-1.014.285s-.414.397-.507.627l-1.198-.273c.142-.398.35-.719.622-.963s.593-.426.951-.537.734-.171 1.129-.171c.261 0 .538.032.831.094s.571.171.827.333.47.393.635.694.247.686.247 1.164v4.346h-1.245v-.895h-.051c-.082.165-.206.327-.371.486s-.376.291-.634.396a2.47 2.47 0 0 1-.929.158zm.277-1.023c.352 0 .653-.069.903-.209s.445-.321.575-.545a1.41 1.41 0 0 0 .201-.729v-.843c-.046.045-.134.088-.265.127s-.274.07-.439.098l-.481.073-.392.051a3.15 3.15 0 0 0-.678.158c-.201.074-.363.18-.486.319s-.179.318-.179.546c0 .315.117.554.35.716s.53.238.891.238zm4.53.878v-6.545h1.274v6.545h-1.274zm.643-7.555a.81.81 0 0 1-.571-.222.72.72 0 0 1-.234-.537c0-.21.078-.389.234-.537s.35-.226.571-.226a.79.79 0 0 1 .567.226c.159.148.239.327.239.537s-.08.387-.239.537-.345.222-.567.222zm4.675 7.683c-.528 0-1-.135-1.414-.405s-.736-.66-.972-1.163-.349-1.112-.349-1.82.117-1.312.353-1.815.566-.888.98-1.155a2.55 2.55 0 0 1 1.411-.401c.406 0 .733.069.98.205s.443.29.579.469.248.336.324.473h.077v-3.243h1.274v8.727h-1.244v-1.018h-.107a3.31 3.31 0 0 1-.332.477c-.142.179-.338.335-.588.469s-.574.2-.972.2zm.282-1.087c.366 0 .676-.096.929-.289s.448-.468.579-.814.2-.75.2-1.211c0-.454-.065-.852-.196-1.193a1.75 1.75 0 0 0-.575-.797c-.253-.19-.565-.285-.937-.285-.384 0-.704.099-.959.298s-.449.47-.58.814-.192.732-.192 1.163a3.37 3.37 0 0 0 .196 1.181c.131.349.324.626.58.831s.577.302.955.302zm12.62-3.988l-1.154.204a1.37 1.37 0 0 0-.231-.422c-.102-.133-.241-.243-.417-.328s-.397-.128-.661-.128c-.361 0-.662.081-.903.243s-.362.365-.362.618a.65.65 0 0 0 .243.529c.161.133.423.242.784.328l1.039.238c.603.14 1.052.354 1.347.644s.443.666.443 1.129a1.71 1.71 0 0 1-.341 1.048c-.224.304-.538.543-.941.716s-.866.26-1.394.26c-.733 0-1.331-.156-1.794-.469s-.747-.762-.852-1.342l1.231-.187c.077.321.235.564.473.728s.55.243.934.243c.417 0 .751-.086 1.001-.26s.375-.39.375-.643a.67.67 0 0 0-.23-.516c-.151-.139-.382-.244-.695-.315l-1.108-.243c-.611-.139-1.062-.361-1.355-.665s-.434-.689-.434-1.155a1.65 1.65 0 0 1 .323-1.014c.216-.29.515-.515.895-.677s.817-.248 1.309-.248c.707 0 1.264.154 1.67.461s.675.711.805 1.223zm5.555 2.233v-3.831h1.279v6.545h-1.253v-1.133h-.068c-.151.349-.392.64-.725.873s-.74.345-1.231.345c-.421 0-.793-.092-1.117-.277s-.573-.464-.758-.831-.273-.819-.273-1.359v-4.163h1.274v4.01c0 .446.124.801.371 1.065s.568.396.963.396c.239 0 .476-.059.712-.179s.436-.299.592-.541.237-.548.234-.92zm2.973 2.714v-8.727h1.274v3.243h.077c.074-.137.18-.294.32-.473s.332-.335.579-.469.574-.205.98-.205c.529 0 1 .134 1.415.401s.74.652.976 1.155.358 1.108.358 1.815-.118 1.314-.354 1.82-.56.89-.971 1.163-.883.405-1.411.405c-.398 0-.723-.067-.976-.2s-.446-.29-.588-.469-.251-.338-.328-.477h-.107v1.018h-1.244zm1.249-3.273c0 .461.066.864.2 1.211s.327.618.58.814.562.289.929.289c.38 0 .698-.101.954-.302s.449-.482.58-.831.2-.743.2-1.181a3.25 3.25 0 0 0-.196-1.163c-.128-.344-.321-.615-.58-.814s-.575-.298-.958-.298c-.37 0-.682.095-.938.285a1.75 1.75 0 0 0-.575.797c-.131.341-.196.739-.196 1.193zm10.945-1.674l-1.154.204a1.37 1.37 0 0 0-.231-.422c-.102-.133-.241-.243-.417-.328s-.396-.128-.661-.128c-.36 0-.662.081-.903.243s-.362.365-.362.618a.65.65 0 0 0 .243.529c.162.133.423.242.784.328l1.039.238c.603.14 1.052.354 1.347.644s.443.666.443 1.129a1.71 1.71 0 0 1-.341 1.048c-.224.304-.538.543-.941.716s-.865.26-1.394.26c-.733 0-1.331-.156-1.794-.469s-.747-.762-.852-1.342l1.231-.187c.077.321.235.564.473.728s.55.243.934.243c.417 0 .751-.086 1.001-.26s.375-.39.375-.643a.67.67 0 0 0-.23-.516c-.151-.139-.382-.244-.695-.315l-1.108-.243c-.61-.139-1.062-.361-1.355-.665s-.434-.689-.434-1.155c0-.386.108-.724.323-1.014s.515-.515.895-.677.817-.248 1.309-.248c.707 0 1.264.154 1.67.461s.675.711.805 1.223zm4.166 5.079c-.633 0-1.179-.143-1.636-.43s-.804-.689-1.048-1.198-.367-1.091-.367-1.747c0-.665.125-1.251.375-1.76a2.87 2.87 0 0 1 1.057-1.197c.454-.287.99-.431 1.606-.431.498 0 .941.093 1.33.277s.703.438.942.767a2.32 2.32 0 0 1 .43 1.155h-1.24c-.068-.307-.224-.571-.469-.792s-.565-.333-.971-.333a1.58 1.58 0 0 0-.933.282 1.79 1.79 0 0 0-.618.792c-.148.341-.222.744-.222 1.21 0 .478.072.89.217 1.236s.35.615.614.806.581.285.942.285c.241 0 .46-.044.656-.132a1.34 1.34 0 0 0 .499-.388c.136-.167.231-.369.285-.605h1.24a2.41 2.41 0 0 1-.413 1.134 2.39 2.39 0 0 1-.925.784c-.383.19-.834.285-1.351.285zm3.932-.132v-6.545h1.231v1.039h.068a1.59 1.59 0 0 1 .631-.831 1.81 1.81 0 0 1 1.031-.306l.282.008.26.021v1.219a2.34 2.34 0 0 0-.273-.047c-.131-.02-.261-.029-.392-.029-.301 0-.57.063-.806.191a1.43 1.43 0 0 0-.554.524c-.136.222-.204.475-.204.759v3.997h-1.274zm4.485 0v-6.545h1.274v6.545h-1.274zm.644-7.555a.81.81 0 0 1-.571-.222c-.157-.15-.235-.329-.235-.537a.71.71 0 0 1 .235-.537c.159-.15.349-.226.571-.226a.79.79 0 0 1 .566.226c.16.148.239.327.239.537a.71.71 0 0 1-.239.537c-.156.148-.345.222-.566.222zm2.225 10.01v-9h1.244v1.061h.106c.074-.137.181-.294.32-.473s.332-.335.58-.469.573-.205.98-.205c.528 0 1 .134 1.414.401s.74.652.976 1.155.358 1.108.358 1.815-.118 1.314-.353 1.82-.56.89-.972 1.163-.882.405-1.411.405c-.397 0-.723-.067-.975-.2s-.446-.29-.589-.469-.251-.338-.328-.477h-.076v3.473h-1.274zm1.248-5.728a3.37 3.37 0 0 0 .2 1.211c.134.346.327.618.58.814s.562.289.929.289c.381 0 .699-.101.954-.302s.449-.482.58-.831a3.28 3.28 0 0 0 .2-1.181 3.25 3.25 0 0 0-.196-1.163c-.128-.344-.321-.615-.579-.814s-.576-.298-.959-.298a1.53 1.53 0 0 0-.938.285c-.252.191-.444.456-.575.797s-.196.739-.196 1.193zm9.093-3.272v1.022h-3.575v-1.022h3.575zm-2.616-1.569h1.274v6.192c0 .247.037.433.111.558s.169.206.285.252.249.064.388.064c.102 0 .192-.007.268-.021l.179-.035.23 1.053c-.073.028-.179.057-.315.085s-.307.049-.511.051c-.335.006-.648-.054-.938-.179a1.61 1.61 0 0 1-.703-.579c-.179-.262-.268-.59-.268-.985v-6.456zm3.906 8.114v-6.545h1.274v6.545h-1.274zm.643-7.555a.81.81 0 0 1-.571-.222.72.72 0 0 1-.234-.537c0-.21.078-.389.234-.537s.349-.226.571-.226a.79.79 0 0 1 .567.226c.159.148.238.327.238.537s-.079.387-.238.537-.345.222-.567.222zm4.982 7.687c-.614 0-1.149-.14-1.607-.422s-.812-.674-1.065-1.18-.379-1.097-.379-1.773.126-1.273.379-1.781.608-.903 1.065-1.185.993-.422 1.607-.422 1.149.141 1.607.422.812.676 1.065 1.185.379 1.102.379 1.781-.126 1.267-.379 1.773-.608.899-1.065 1.18-.993.422-1.607.422zm.004-1.069c.398 0 .728-.105.989-.316s.454-.49.579-.839a3.34 3.34 0 0 0 .192-1.155c0-.418-.064-.801-.192-1.151s-.318-.635-.579-.848-.591-.319-.989-.319-.733.106-.997.319a1.91 1.91 0 0 0-.584.848c-.125.35-.187.733-.187 1.151s.062.805.187 1.155a1.88 1.88 0 0 0 .584.839c.264.211.597.316.997.316zm5.623-2.949v3.886h-1.274v-6.545h1.223v1.065h.081a1.87 1.87 0 0 1 .708-.835c.324-.21.731-.316 1.223-.316.446 0 .836.094 1.172.282s.595.46.779.826.277.82.277 1.36v4.163h-1.274v-4.01c0-.474-.123-.845-.37-1.112s-.587-.405-1.019-.405c-.295 0-.558.064-.788.192a1.37 1.37 0 0 0-.541.562c-.131.245-.197.54-.197.887z" fill="#636369"/><rect x="303.5" y="190.151" width="136" height="30" rx="3.5" stroke="#dfe7f2"/><rect x="119.5" y="233.622" width="97" height="30" rx="3.5" fill="#fff"/><g clip-path="url(#B)"><path d="M141.027 244.094c3.067 3.066 3.896 7.21 1.851 9.254s-6.187 1.216-9.254-1.85l-.298-.32 1.84-1.84c2.385 2.385 5.423 3.214 6.786 1.851s.534-4.401-1.85-6.786l.009.008-.009-.009c-2.725-2.726-6.455-3.416-8.328-1.542-.907.906-1.207 2.247-.975 3.697-.357-1.702-.062-3.278.975-4.314 2.044-2.044 6.187-1.215 9.253 1.851z" fill="#fdd888"/><path d="M137.085 255.288c-.105 0-.21-.032-.3-.096l-2.115-1.517-2.115 1.517a.51.51 0 0 1-.601-.002c-.179-.13-.255-.36-.188-.57l.789-2.546-2.096-1.477c-.178-.132-.252-.362-.184-.573s.264-.353.485-.355l2.562-.005.861-2.482c.07-.21.266-.352.487-.352s.418.142.488.352l.777 2.482 2.645.005c.222.002.417.145.485.355s-.005.441-.184.573l-2.096 1.477.789 2.546c.067.21-.009.44-.187.57-.091.066-.197.098-.302.098z" fill="#ffac33"/></g><path d="M148.839 253.122v-.955l2.954-3.06.779-.873c.208-.253.363-.493.465-.72s.153-.469.153-.725c0-.289-.068-.539-.204-.75s-.323-.376-.558-.49-.502-.174-.797-.174c-.313 0-.586.063-.819.191s-.411.309-.536.541-.188.506-.188.819h-1.257c0-.532.122-.996.366-1.394s.58-.706 1.006-.925.911-.332 1.453-.332c.549 0 1.032.109 1.449.328s.749.512.984.887.354.792.354 1.261c0 .324-.061.641-.183.95s-.328.655-.626 1.036-.714.836-1.245 1.376l-1.734 1.816v.063h3.929v1.13h-5.745zm10.121.119a3.28 3.28 0 0 1-1.441-.307c-.423-.207-.761-.491-1.014-.852a2.25 2.25 0 0 1-.405-1.236h1.279a1.28 1.28 0 0 0 .498.925c.301.241.662.362 1.083.362.335 0 .632-.077.89-.23s.466-.371.614-.644a1.9 1.9 0 0 0 .226-.933c0-.355-.077-.672-.23-.95a1.71 1.71 0 0 0-.635-.656c-.267-.159-.574-.24-.921-.243a2.46 2.46 0 0 0-.797.136c-.267.091-.483.21-.647.358l-1.206-.179.49-4.398h4.798v1.13h-3.703l-.277 2.441h.051a2.04 2.04 0 0 1 .678-.413 2.48 2.48 0 0 1 .911-.166c.532 0 1.005.126 1.419.379s.746.598.985 1.036.361.934.358 1.5c.003.565-.125 1.069-.384 1.512s-.611.793-1.065 1.049-.97.379-1.555.379zm5.629-2.339l-.008-1.556h.221l2.608-2.77h1.526l-2.975 3.154h-.2l-1.172 1.172zm-1.172 2.22v-8.728h1.274v8.728h-1.274zm4.134 0l-2.344-3.111.878-.891 3.03 4.002h-1.564zm4.546-.554v-5.762h1.146v5.762h-1.146zm-2.305-2.31v-1.146h5.761v1.146h-5.761zm10.77-5.864h1.598l2.778 6.785h.103l2.778-6.785h1.598v8.728h-1.253v-6.316h-.081l-2.574 6.303h-1.039l-2.574-6.307h-.081v6.32h-1.253v-8.728zm10.219 1.134v-1.134h6.754v1.134h-2.723v7.594H193.5v-7.594h-2.719zm13.739-1.134h1.321v5.74c0 .611-.143 1.152-.43 1.624s-.691.838-1.211 1.108-1.129.401-1.828.401-1.304-.134-1.824-.401-.923-.639-1.21-1.108-.43-1.013-.43-1.624v-5.74h1.317v5.634c0 .395.086.746.26 1.053s.424.548.745.724.702.26 1.142.26.826-.087 1.147-.26a1.82 1.82 0 0 0 .741-.724c.173-.307.26-.658.26-1.053v-5.634z" fill="#636369"/><rect x="119.5" y="233.622" width="97" height="30" rx="3.5" stroke="#dfe7f2"/><rect x="119" y="293.639" width="160" height="151" rx="8" fill="#f1eaff"/><path d="M133.667 411.421l3.587 2.082c3.586 2.082 10.759 6.246 17.932 3.399s14.346-12.706 21.519-12.446 14.346 10.638 21.519 15.764 14.346 5 21.519 3.356 14.346-4.807 21.519-11.162 14.346-15.905 21.519-22.76" stroke="#c6a9ff" stroke-width="2" stroke-linecap="round"/><path d="M147.344 332.719v-3.68h-12.76v3.68h12.76zm10.228 9.92v-26.8h-3.8c-1.12 2.4-2.6 3.32-5.12 3.32h-1.04v3.08h5.64v20.4h4.32zm23.839 0v-3.88h-15.24c0-2.2 2.08-3.48 4.8-4.88l3.92-2c3.44-1.76 6.44-4.12 6.44-8.52 0-4.44-2.76-7.92-9.36-7.92-7.4 0-10.52 4.16-10.52 9.16v.64h4.32v-.56c0-3.68 1-5.28 5.88-5.28 4.44 0 5.36 1.64 5.36 4.12 0 2.28-1.16 3.48-4.04 5l-4.12 2.12c-3.76 1.92-7.2 4.24-7.2 9.32v2.68h19.76z" fill="#000"/><path d="M253 326.811v-12.172h2v12.172l5.364-5.364 1.414 1.414-7.778 7.778-7.778-7.778 1.414-1.414 5.364 5.364z" fill="#a172fd"/><rect x="311" y="293.639" width="160" height="151" rx="8" fill="#eaeeff"/><path d="M325.667 411.421l3.792 2.082c3.791 2.082 11.374 6.246 18.958 3.399s15.166-12.706 22.749-12.446 15.167 10.638 22.75 15.764 15.166 5 22.749 3.356 15.167-4.807 22.75-11.162 15.166-15.905 22.75-22.76" stroke="#8199fd" stroke-width="2" stroke-linecap="round"/><path d="M337.184 337.574v-6.52h6.48v-3.6h-6.48v-6.52h-3.76v6.52h-6.44v3.6h6.44v6.52h3.76zm19.528 5.48c6.2 0 10.36-2.52 10.36-7.68 0-3.84-2.24-6.24-5.92-6.76v-.16c3.4-.48 4.96-2.76 4.96-5.84 0-4.68-3.6-7.16-9.64-7.16-6.72 0-10.32 3.48-10.32 8.6v.36h4.24v-.32c0-3.36 1.4-4.68 6.04-4.68 3.76 0 5.36 1.08 5.36 3.88s-1.36 3.68-4.88 3.68h-4.76v3.6h5.36c3.72 0 5.2 1 5.2 4.36 0 3.12-1.68 4.16-5.92 4.16-5.28 0-6.4-1.32-6.4-4.68v-.6h-4.24v.64c0 5.12 2.92 8.6 10.56 8.6zm23.822 0c7.4 0 10.72-3.6 10.72-9.16 0-5.4-3.48-8.6-9.2-8.6-3.52 0-6.04 1.08-7.44 2.24h-.12l.64-7.8h14.68v-3.88h-18.48l-.92 14.24 3.8.6c1.32-.76 3.24-1.68 6.52-1.68 4.52 0 6.24 1.4 6.24 5 0 3.76-1.56 5.08-6.28 5.08-4.44 0-6.44-1.04-6.44-4.04v-.24h-4.28v.24c0 4.92 3.6 8 10.56 8zm25.473 0c7.2 0 11.6-5.32 11.6-13.8s-4.4-13.8-11.6-13.8-11.56 5.32-11.56 13.8 4.36 13.8 11.56 13.8zm0-4.16c-4.76 0-6.96-2.56-6.96-9.64s2.2-9.64 6.96-9.64 7 2.56 7 9.64-2.24 9.64-7 9.64z" fill="#000"/><path d="M447 318.467v12.172h-2v-12.172l-5.364 5.364-1.414-1.414 7.778-7.778 7.778 7.778-1.414 1.414-5.364-5.364z" fill="#5173fb"/><rect x="-1" y="1" width="419" height="345" rx="7" transform="matrix(-1 0 0 1 515 124.639)" stroke="#e1e8f2" stroke-width="2" stroke-dasharray="8 8"/><defs><clipPath id="A"><path fill="#fff" transform="translate(313 197.651)" d="M0 0h15v15H0z"/></clipPath><clipPath id="B"><path fill="#fff" transform="translate(129 241.122)" d="M0 0h15v15H0z"/></clipPath><path id="C" d="M355.621 511.269l10.182-13.818 13.818-10.182-13.818-10.182-10.182-13.818-10.182 13.818-13.818 10.182 13.818 10.182 10.182 13.818z"/></defs></svg>