<svg width="570" height="417" viewBox="0 0 570 417" fill="none" xmlns="http://www.w3.org/2000/svg">
<path d="M4 39H570V427H4V39Z" fill="#C4C4C4"/>
<path d="M0.853473 21.3368C0.853473 10.0242 10.0242 0.853473 21.3368 0.853473H875.663C886.976 0.853473 896.147 10.0242 896.147 21.3368V40.9667H0.853473V21.3368Z" fill="white" stroke="#F0F2F5" stroke-width="1.70695"/>
<path d="M144.423 23.0448L147.239 25.8613L146.434 26.6658L142.813 23.0448L146.434 19.4238L147.239 20.2284L144.423 23.0448Z" fill="#74859C"/>
<g clip-path="url(#clip0)">
<path d="M164.533 23.0431L161.716 20.2266L162.521 19.4221L166.142 23.0431L162.521 26.6641L161.716 25.8595L164.533 23.0431Z" fill="#CBD7EA"/>
</g>
<g clip-path="url(#clip1)">
<path d="M102.415 17.9238C102.566 17.9238 102.711 17.9838 102.817 18.0905C102.924 18.1972 102.984 18.3419 102.984 18.4928V27.5965C102.984 27.7474 102.924 27.8921 102.817 27.9989C102.711 28.1056 102.566 28.1655 102.415 28.1655H92.1735C92.0226 28.1655 91.8778 28.1056 91.7711 27.9989C91.6644 27.8921 91.6045 27.7474 91.6045 27.5965V18.4928C91.6045 18.3419 91.6644 18.1972 91.7711 18.0905C91.8778 17.9838 92.0226 17.9238 92.1735 17.9238H102.415ZM94.4494 19.0618H92.7425V27.0275H94.4494V19.0618ZM101.846 19.0618H95.5874V27.0275H101.846V19.0618Z" fill="#74859C"/>
</g>
<circle cx="25.6033" cy="23.0448" r="3.41389" fill="#EB5757"/>
<circle cx="39.2586" cy="23.0448" r="3.41389" fill="#F2C94C"/>
<circle cx="52.9149" cy="23.0448" r="3.41389" fill="#05C46B"/>
<g clip-path="url(#clip2)">
<path d="M287.213 17.8241L291.888 16.7852L296.564 17.8241C296.69 17.8522 296.803 17.9225 296.884 18.0235C296.965 18.1245 297.009 18.25 297.009 18.3794V24.0619C297.009 24.6239 296.87 25.1772 296.605 25.6727C296.34 26.1681 295.957 26.5905 295.489 26.9022L291.888 29.3028L288.288 26.9022C287.82 26.5906 287.437 26.1683 287.172 25.6729C286.907 25.1775 286.768 24.6243 286.768 24.0624V18.3794C286.768 18.25 286.812 18.1245 286.893 18.0235C286.974 17.9225 287.087 17.8522 287.213 17.8241ZM287.906 18.8358V24.0619C287.906 24.4365 287.998 24.8054 288.175 25.1357C288.352 25.466 288.607 25.7476 288.919 25.9554L291.888 27.9355L294.858 25.9554C295.17 25.7477 295.425 25.4662 295.602 25.1359C295.779 24.8057 295.871 24.437 295.871 24.0624V18.8358L291.888 17.9516L287.906 18.8358ZM292.457 21.906H294.164L291.319 25.8889V23.044H289.612L292.457 19.0611V21.906Z" fill="#74859C"/>
</g>
<rect opacity="0.5" x="315.785" y="14.5098" width="296.155" height="17.0695" rx="4.26736" fill="#DEE5EF"/>
<g clip-path="url(#clip3)">
<path d="M433.991 22.1912H434.418C434.531 22.1912 434.639 22.2362 434.719 22.3162C434.799 22.3963 434.844 22.5048 434.844 22.618V26.8853C434.844 26.9985 434.799 27.1071 434.719 27.1871C434.639 27.2671 434.531 27.3121 434.418 27.3121H427.59C427.477 27.3121 427.368 27.2671 427.288 27.1871C427.208 27.1071 427.163 26.9985 427.163 26.8853V22.618C427.163 22.5048 427.208 22.3963 427.288 22.3162C427.368 22.2362 427.477 22.1912 427.59 22.1912H428.017V21.7645C428.017 21.3722 428.094 20.9838 428.244 20.6214C428.394 20.2589 428.614 19.9296 428.891 19.6523C429.169 19.3749 429.498 19.1548 429.861 19.0047C430.223 18.8546 430.611 18.7773 431.004 18.7773C431.396 18.7773 431.784 18.8546 432.147 19.0047C432.509 19.1548 432.839 19.3749 433.116 19.6523C433.393 19.9296 433.613 20.2589 433.763 20.6214C433.914 20.9838 433.991 21.3722 433.991 21.7645V22.1912ZM433.137 22.1912V21.7645C433.137 21.1986 432.913 20.6559 432.512 20.2558C432.112 19.8556 431.57 19.6308 431.004 19.6308C430.438 19.6308 429.895 19.8556 429.495 20.2558C429.095 20.6559 428.87 21.1986 428.87 21.7645V22.1912H433.137ZM430.577 23.8982V25.6051H431.43V23.8982H430.577Z" fill="#74859C"/>
</g>
<path d="M441.912 25.4663C442.682 25.4663 443.115 25.0754 443.288 24.7268H443.324V25.3633H444.209V22.2719C444.209 20.9171 443.142 20.6474 442.403 20.6474C441.56 20.6474 440.784 20.9868 440.481 21.8354L441.333 22.0294C441.466 21.699 441.806 21.3808 442.415 21.3808C443 21.3808 443.3 21.6869 443.3 22.2143V22.2355C443.3 22.5659 442.96 22.5598 442.124 22.6568C441.242 22.7598 440.339 22.9902 440.339 24.0479C440.339 24.9632 441.027 25.4663 441.912 25.4663ZM442.109 24.7389C441.597 24.7389 441.227 24.5086 441.227 24.06C441.227 23.5751 441.657 23.4024 442.182 23.3326C442.476 23.2932 443.173 23.2144 443.303 23.0841V23.6842C443.303 24.2358 442.863 24.7389 442.109 24.7389ZM445.501 27.109H446.408V24.6389H446.462C446.626 24.9359 446.959 25.4542 447.808 25.4542C448.935 25.4542 449.754 24.551 449.754 23.0447C449.754 21.5354 448.923 20.6474 447.799 20.6474C446.935 20.6474 446.623 21.1747 446.462 21.4626H446.386V20.708H445.501V27.109ZM446.39 23.0356C446.39 22.0627 446.814 21.4172 447.605 21.4172C448.426 21.4172 448.838 22.1112 448.838 23.0356C448.838 23.9691 448.414 24.6814 447.605 24.6814C446.826 24.6814 446.39 24.0146 446.39 23.0356ZM450.854 27.109H451.761V24.6389H451.815C451.979 24.9359 452.312 25.4542 453.161 25.4542C454.288 25.4542 455.107 24.551 455.107 23.0447C455.107 21.5354 454.276 20.6474 453.152 20.6474C452.288 20.6474 451.976 21.1747 451.815 21.4626H451.739V20.708H450.854V27.109ZM451.742 23.0356C451.742 22.0627 452.167 21.4172 452.958 21.4172C453.779 21.4172 454.191 22.1112 454.191 23.0356C454.191 23.9691 453.767 24.6814 452.958 24.6814C452.179 24.6814 451.742 24.0146 451.742 23.0356ZM456.804 25.4209C457.135 25.4209 457.41 25.1511 457.41 24.8147C457.41 24.4843 457.135 24.2116 456.804 24.2116C456.471 24.2116 456.198 24.4843 456.198 24.8147C456.198 25.1511 456.471 25.4209 456.804 25.4209ZM460.716 25.4572C461.731 25.4572 462.45 24.9572 462.656 24.1995L461.798 24.0449C461.634 24.4843 461.24 24.7086 460.725 24.7086C459.949 24.7086 459.428 24.2055 459.404 23.3084H462.713V22.9871C462.713 21.305 461.707 20.6474 460.652 20.6474C459.355 20.6474 458.501 21.6354 458.501 23.0659C458.501 24.5116 459.343 25.4572 460.716 25.4572ZM459.407 22.6295C459.443 21.9688 459.922 21.396 460.658 21.396C461.362 21.396 461.822 21.9173 461.825 22.6295H459.407ZM464.71 22.5992C464.71 21.8566 465.165 21.4323 465.795 21.4323C466.411 21.4323 466.783 21.8354 466.783 22.5113V25.3633H467.69V22.4022C467.69 21.2505 467.056 20.6474 466.105 20.6474C465.404 20.6474 464.947 20.9717 464.732 21.4657H464.674V20.708H463.804V25.3633H464.71V22.5992ZM470.942 27.206C472.127 27.206 473.043 26.6635 473.043 25.4663V20.708H472.154V21.4626H472.088C471.927 21.1747 471.606 20.6474 470.739 20.6474C469.615 20.6474 468.787 21.5354 468.787 23.0174C468.787 24.5025 469.633 25.2936 470.733 25.2936C471.588 25.2936 471.918 24.8117 472.082 24.5147H472.139V25.43C472.139 26.1604 471.639 26.4756 470.951 26.4756C470.197 26.4756 469.903 26.0967 469.742 25.83L468.963 26.1513C469.209 26.7211 469.83 27.206 470.942 27.206ZM470.933 24.5419C470.124 24.5419 469.703 23.9206 469.703 23.0053C469.703 22.1112 470.115 21.4172 470.933 21.4172C471.724 21.4172 472.148 22.0627 472.148 23.0053C472.148 23.9661 471.715 24.5419 470.933 24.5419ZM475.698 25.4663C476.468 25.4663 476.901 25.0754 477.074 24.7268H477.11V25.3633H477.995V22.2719C477.995 20.9171 476.928 20.6474 476.189 20.6474C475.346 20.6474 474.571 20.9868 474.267 21.8354L475.119 22.0294C475.252 21.699 475.592 21.3808 476.201 21.3808C476.786 21.3808 477.086 21.6869 477.086 22.2143V22.2355C477.086 22.5659 476.747 22.5598 475.91 22.6568C475.028 22.7598 474.125 22.9902 474.125 24.0479C474.125 24.9632 474.813 25.4663 475.698 25.4663ZM475.895 24.7389C475.383 24.7389 475.013 24.5086 475.013 24.06C475.013 23.5751 475.443 23.4024 475.968 23.3326C476.262 23.2932 476.959 23.2144 477.089 23.0841V23.6842C477.089 24.2358 476.65 24.7389 475.895 24.7389ZM481.24 27.206C482.425 27.206 483.34 26.6635 483.34 25.4663V20.708H482.452V21.4626H482.385C482.225 21.1747 481.903 20.6474 481.036 20.6474C479.912 20.6474 479.085 21.5354 479.085 23.0174C479.085 24.5025 479.93 25.2936 481.03 25.2936C481.885 25.2936 482.215 24.8117 482.379 24.5147H482.437V25.43C482.437 26.1604 481.937 26.4756 481.249 26.4756C480.494 26.4756 480.2 26.0967 480.039 25.83L479.26 26.1513C479.506 26.7211 480.127 27.206 481.24 27.206ZM481.23 24.5419C480.421 24.5419 480 23.9206 480 23.0053C480 22.1112 480.412 21.4172 481.23 21.4172C482.021 21.4172 482.446 22.0627 482.446 23.0053C482.446 23.9661 482.012 24.5419 481.23 24.5419ZM486.647 25.4572C487.662 25.4572 488.381 24.9572 488.587 24.1995L487.729 24.0449C487.565 24.4843 487.171 24.7086 486.656 24.7086C485.88 24.7086 485.359 24.2055 485.335 23.3084H488.644V22.9871C488.644 21.305 487.638 20.6474 486.583 20.6474C485.286 20.6474 484.431 21.6354 484.431 23.0659C484.431 24.5116 485.274 25.4572 486.647 25.4572ZM485.338 22.6295C485.374 21.9688 485.853 21.396 486.589 21.396C487.293 21.396 487.753 21.9173 487.756 22.6295H485.338ZM490.332 25.4209C490.662 25.4209 490.938 25.1511 490.938 24.8147C490.938 24.4843 490.662 24.2116 490.332 24.2116C489.999 24.2116 489.726 24.4843 489.726 24.8147C489.726 25.1511 489.999 25.4209 490.332 25.4209ZM495.726 21.8445C495.538 21.1202 494.971 20.6474 493.965 20.6474C492.913 20.6474 492.168 21.202 492.168 22.0264C492.168 22.6871 492.568 23.1266 493.441 23.3205L494.229 23.4933C494.677 23.5933 494.886 23.7933 494.886 24.0843C494.886 24.4449 494.501 24.7268 493.907 24.7268C493.365 24.7268 493.016 24.4934 492.907 24.0358L492.031 24.1691C492.183 24.9935 492.868 25.4572 493.913 25.4572C495.038 25.4572 495.817 24.8602 495.817 24.0176C495.817 23.3599 495.399 22.9538 494.544 22.7568L493.804 22.5871C493.292 22.4658 493.071 22.2931 493.074 21.9779C493.071 21.6202 493.459 21.3657 493.974 21.3657C494.538 21.3657 494.798 21.6778 494.905 21.99L495.726 21.8445ZM498.859 25.4572C500.172 25.4572 501.03 24.4965 501.03 23.0568C501.03 21.6081 500.172 20.6474 498.859 20.6474C497.547 20.6474 496.689 21.6081 496.689 23.0568C496.689 24.4965 497.547 25.4572 498.859 25.4572ZM498.863 24.6965C498.005 24.6965 497.605 23.9479 497.605 23.0538C497.605 22.1628 498.005 21.4051 498.863 21.4051C499.714 21.4051 500.114 22.1628 500.114 23.0538C500.114 23.9479 499.714 24.6965 498.863 24.6965Z" fill="#74859C"/>
<path d="M2.56042 21.3368C2.56042 10.9669 10.9669 2.56042 21.3368 2.56042H875.663C886.033 2.56042 894.44 10.9669 894.44 21.3368V436.978H2.56042V21.3368Z" stroke="#EFF2F7" stroke-width="5.12084"/>
<defs>
<clipPath id="clip0">
<rect width="13.6556" height="13.6556" fill="white" transform="translate(170.694 29.873) rotate(-180)"/>
</clipPath>
<clipPath id="clip1">
<rect width="13.6556" height="13.6556" fill="white" transform="translate(90.4668 16.2168)"/>
</clipPath>
<clipPath id="clip2">
<rect width="13.6556" height="13.6556" fill="white" transform="translate(285.061 16.2168)"/>
</clipPath>
<clipPath id="clip3">
<rect width="10.2417" height="10.2417" fill="white" transform="translate(425.883 17.9238)"/>
</clipPath>
</defs>
</svg>
