<svg width="149" height="42" viewBox="0 0 149 42" fill="none" xmlns="http://www.w3.org/2000/svg">
<path fill-rule="evenodd" clip-rule="evenodd" d="M9.15492 26.6444C9.15492 29.0045 7.25012 30.9093 4.88996 30.9093C2.5298 30.9093 0.625 28.9981 0.625 26.6444C0.625 24.2906 2.5298 22.3795 4.88996 22.3795H9.15492V26.6444ZM11.2842 26.6444C11.2842 24.2842 13.189 22.3795 15.5492 22.3795C17.9093 22.3795 19.8141 24.2842 19.8141 26.6444V37.3034C19.8141 39.6635 17.9093 41.5683 15.5492 41.5683C13.189 41.5683 11.2842 39.6635 11.2842 37.3034V26.6444Z" fill="#E01E5A"/>
<path fill-rule="evenodd" clip-rule="evenodd" d="M15.548 9.5265C13.1879 9.5265 11.2831 7.62173 11.2831 5.2616C11.2831 2.90148 13.1879 0.996704 15.548 0.996704C17.9082 0.996704 19.813 2.90148 19.813 5.2616V9.5265H15.548ZM15.548 11.6878C17.9082 11.6878 19.813 13.5926 19.813 15.9527C19.813 18.3128 17.9082 20.2176 15.548 20.2176H4.85676C2.4966 20.2176 0.591797 18.3064 0.591797 15.9527C0.591797 13.599 2.4966 11.6878 4.85676 11.6878H15.548Z" fill="#36C5F0"/>
<path fill-rule="evenodd" clip-rule="evenodd" d="M32.6319 15.9527C32.6319 13.5926 34.5367 11.6878 36.8968 11.6878C39.257 11.6878 41.1618 13.5926 41.1618 15.9527C41.1618 18.3128 39.257 20.2176 36.8968 20.2176H32.6319V15.9527ZM30.5026 15.9527C30.5026 18.3128 28.5978 20.2176 26.2376 20.2176C23.8775 20.2176 21.9727 18.3128 21.9727 15.9527V5.2616C21.9727 2.90148 23.8775 0.996704 26.2376 0.996704C28.5978 0.996704 30.5026 2.90148 30.5026 5.2616V15.9527Z" fill="#2EB67D"/>
<path fill-rule="evenodd" clip-rule="evenodd" d="M26.2376 33.0385C28.5978 33.0385 30.5026 34.9433 30.5026 37.3034C30.5026 39.6635 28.5978 41.5683 26.2376 41.5683C23.8775 41.5683 21.9727 39.6635 21.9727 37.3034V33.0385H26.2376ZM26.2376 30.9093C23.8775 30.9093 21.9727 29.0045 21.9727 26.6444C21.9727 24.2842 23.8775 22.3795 26.2376 22.3795H36.9289C39.289 22.3795 41.1939 24.2842 41.1939 26.6444C41.1939 29.0045 39.289 30.9093 36.9289 30.9093H26.2376Z" fill="#ECB22E"/>
<path fill-rule="evenodd" clip-rule="evenodd" d="M49.4824 34.1554L51.2978 29.9372C53.2585 31.4034 55.871 32.1656 58.4485 32.1656C60.3511 32.1656 61.5555 31.4325 61.5555 30.3212C61.5264 27.2142 50.1574 29.6463 50.0701 21.8556C50.041 17.8992 53.5553 14.8504 58.5358 14.8504C61.4973 14.8504 64.4531 15.5835 66.5651 17.2533L64.8662 21.5589C62.9345 20.3254 60.5315 19.4468 58.2449 19.4468C56.6914 19.4468 55.6673 20.1799 55.6673 21.1167C55.6964 24.1655 67.1528 22.4956 67.2692 29.9372C67.2692 33.9809 63.8421 36.826 58.9198 36.826C55.3124 36.8202 52.0018 35.9707 49.4824 34.1554ZM119.192 28.4128C118.285 29.9954 116.586 31.0776 114.619 31.0776C111.716 31.0776 109.377 28.7328 109.377 25.8353C109.377 22.9378 111.721 20.593 114.619 20.593C116.58 20.593 118.285 21.6752 119.192 23.2578L124.202 20.4767C122.328 17.137 118.721 14.8504 114.619 14.8504C108.55 14.8504 103.628 19.7727 103.628 25.8411C103.628 31.9096 108.55 36.8318 114.619 36.8318C118.75 36.8318 122.328 34.5744 124.202 31.2056L119.192 28.4128ZM69.7885 5.73315H76.0607V36.4129H69.7885V5.73315ZM126.663 5.73315V36.4129H132.935V27.2084L140.377 36.4129H148.406L138.94 25.4804L147.702 15.2809H140.022L132.929 23.7465V5.73315H126.663Z" fill="black"/>
<path d="M94.6991 28.4702C93.7914 29.9655 91.9179 31.0767 89.8059 31.0767C86.9025 31.0767 84.5635 28.732 84.5635 25.8345C84.5635 22.937 86.9083 20.5922 89.8059 20.5922C91.9179 20.5922 93.7914 21.7617 94.6991 23.2861V28.4702ZM94.6991 15.2859V17.7762C93.6751 16.0481 91.1266 14.8438 88.456 14.8438C82.946 14.8438 78.6113 19.7078 78.6113 25.8054C78.6113 31.9029 82.946 36.8252 88.456 36.8252C91.1208 36.8252 93.6693 35.6266 94.6991 33.8928V36.383H100.971V15.2859H94.6991Z" fill="black"/>
</svg>
