<svg width="16" height="16" viewBox="0 0 16 16" fill="none" xmlns="http://www.w3.org/2000/svg">
<path d="M13.3337 1.33398C13.8641 1.33398 14.3728 1.5447 14.7479 1.91977C15.1229 2.29484 15.3337 2.80355 15.3337 3.33398V4.66732H14.0003V12.6673C14.0003 13.1978 13.7896 13.7065 13.4145 14.0815C13.0395 14.4566 12.5308 14.6673 12.0003 14.6673H2.66699C2.13656 14.6673 1.62785 14.4566 1.25278 14.0815C0.877706 13.7065 0.666992 13.1978 0.666992 12.6673V11.334H11.3337V12.6673C11.3337 12.8306 11.3936 12.9882 11.5021 13.1102C11.6106 13.2323 11.7602 13.3102 11.9223 13.3293L12.0003 13.334C12.1636 13.334 12.3212 13.274 12.4432 13.1655C12.5653 13.057 12.6432 12.9075 12.6623 12.7453L12.667 12.6673V2.66732H4.00033C3.83704 2.66734 3.67943 2.72729 3.55741 2.83579C3.43539 2.9443 3.35743 3.09382 3.33833 3.25598L3.33366 3.33398V10.0007H2.00033V3.33398C2.00033 2.80355 2.21104 2.29484 2.58611 1.91977C2.96118 1.5447 3.46989 1.33398 4.00033 1.33398H13.3337Z" fill="white"/>
</svg>
