<svg width="524" height="340" viewBox="0 0 524 340" fill="none" xmlns="http://www.w3.org/2000/svg">
<rect x="4" y="20" width="516" height="320" rx="21" fill="#C4C4C4"/>
<path d="M0.853473 21.3368C0.853473 10.0242 10.0242 0.853473 21.3368 0.853473H498.663C509.976 0.853473 519.147 10.0242 519.147 21.3368V41.1465H0.853473V21.3368Z" fill="white" stroke="#F0F2F5" stroke-width="1.70695"/>
<path d="M30.0724 19.4545H28.6949V23.571H28.6374L25.8121 19.4545H24.5976V26H25.9815V21.8803H26.0294L28.8771 26H30.0724V19.4545ZM32.5658 26H36.9891V24.859H33.9496V23.2962H36.7494V22.1552H33.9496V20.5955H36.9763V19.4545H32.5658V26ZM40.8999 26H42.2486L43.4918 21.7205H43.543L44.7894 26H46.1382L48.011 19.4545H46.4993L45.4159 24.0121H45.3583L44.1662 19.4545H42.8718L41.6765 24.0025H41.6222L40.5387 19.4545H39.027L40.8999 26ZM57.5777 19.4545V23.587C57.5777 24.3349 57.0535 24.875 56.2481 24.875C55.4459 24.875 54.9186 24.3349 54.9186 23.587V19.4545H53.5347V23.7053C53.5347 25.1371 54.615 26.0927 56.2481 26.0927C57.8749 26.0927 58.9616 25.1371 58.9616 23.7053V19.4545H57.5777ZM65.0009 21.337H66.3273C66.3081 20.1705 65.3493 19.3651 63.8919 19.3651C62.4569 19.3651 61.4054 20.1577 61.4118 21.3466C61.4086 22.3118 62.0893 22.8647 63.1952 23.13L63.9079 23.3089C64.6206 23.4815 65.0169 23.6861 65.0201 24.1271C65.0169 24.6065 64.5631 24.9325 63.8599 24.9325C63.1408 24.9325 62.6231 24.6001 62.5783 23.945H61.2392C61.2744 25.3608 62.2875 26.0927 63.8759 26.0927C65.4739 26.0927 66.4136 25.3288 66.4168 24.1303C66.4136 23.0405 65.5922 22.462 64.4544 22.2063L63.8663 22.0657C63.2974 21.9347 62.8212 21.7237 62.8308 21.2539C62.8308 20.832 63.2048 20.522 63.8823 20.522C64.5439 20.522 64.9498 20.8224 65.0009 21.337ZM68.6976 26H73.1209V24.859H70.0815V23.2962H72.8812V22.1552H70.0815V20.5955H73.1081V19.4545H68.6976V26ZM75.5583 26H76.9422V23.6797H77.9522L79.1922 26H80.7199L79.3297 23.456C80.0743 23.1364 80.4866 22.4876 80.4866 21.5927C80.4866 20.2919 79.6269 19.4545 78.1407 19.4545H75.5583V26ZM76.9422 22.5675V20.5859H77.8755C78.6745 20.5859 79.0612 20.9407 79.0612 21.5927C79.0612 22.2415 78.6745 22.5675 77.8819 22.5675H76.9422ZM86.3654 21.337H87.6917C87.6725 20.1705 86.7137 19.3651 85.2564 19.3651C83.8213 19.3651 82.7698 20.1577 82.7762 21.3466C82.773 22.3118 83.4538 22.8647 84.5596 23.13L85.2723 23.3089C85.985 23.4815 86.3814 23.6861 86.3846 24.1271C86.3814 24.6065 85.9275 24.9325 85.2244 24.9325C84.5053 24.9325 83.9875 24.6001 83.9428 23.945H82.6037C82.6388 25.3608 83.652 26.0927 85.2404 26.0927C86.8384 26.0927 87.778 25.3288 87.7812 24.1303C87.778 23.0405 86.9566 22.462 85.8189 22.2063L85.2308 22.0657C84.6619 21.9347 84.1857 21.7237 84.1953 21.2539C84.1953 20.832 84.5692 20.522 85.2468 20.522C85.9083 20.522 86.3142 20.8224 86.3654 21.337ZM93.4951 26H97.9184V24.859H94.8789V23.2962H97.6787V22.1552H94.8789V20.5955H97.9056V19.4545H93.4951V26ZM100.356 19.4545V26H101.698V21.7237H101.752L103.446 25.968H104.36L106.054 21.7397H106.109V26H107.451V19.4545H105.744L103.942 23.8523H103.865L102.062 19.4545H100.356ZM111.069 26L111.555 24.5075H113.917L114.403 26H115.886L113.629 19.4545H111.846L109.586 26H111.069ZM111.907 23.4272L112.712 20.9503H112.763L113.569 23.4272H111.907ZM119.407 19.4545H118.024V26H119.407V19.4545ZM121.896 26H126.086V24.859H123.28V19.4545H121.896V26ZM131.536 20.5955H133.54V26H134.908V20.5955H136.912V19.4545H131.536V20.5955ZM139.147 26H143.571V24.859H140.531V23.2962H143.331V22.1552H140.531V20.5955H143.558V19.4545H139.147V26ZM146.008 19.4545V26H147.35V21.7237H147.405L149.099 25.968H150.013L151.706 21.7397H151.761V26H153.103V19.4545H151.396L149.594 23.8523H149.517L147.715 19.4545H146.008ZM155.593 26H156.977V23.8778H158.141C159.646 23.8778 160.522 22.9798 160.522 21.6726C160.522 20.3718 159.662 19.4545 158.176 19.4545H155.593V26ZM156.977 22.7688V20.5859H157.91C158.709 20.5859 159.096 21.0206 159.096 21.6726C159.096 22.3214 158.709 22.7688 157.917 22.7688H156.977ZM162.77 26H166.96V24.859H164.154V19.4545H162.77V26ZM170.522 26L171.008 24.5075H173.37L173.856 26H175.339L173.082 19.4545H171.299L169.039 26H170.522ZM171.359 23.4272L172.165 20.9503H172.216L173.021 23.4272H171.359ZM176.418 20.5955H178.422V26H179.79V20.5955H181.794V19.4545H176.418V20.5955ZM184.029 26H188.453V24.859H185.413V23.2962H188.213V22.1552H185.413V20.5955H188.44V19.4545H184.029V26Z" fill="#939EAD"/>
<path d="M490 22.1756L492.888 19.2881L493.713 20.1129L490.825 23.0004L493.713 25.8879L492.888 26.7128L490 23.8253L487.113 26.7128L486.288 25.8879L489.176 23.0004L486.288 20.1129L487.113 19.2881L490 22.1756Z" fill="#74859C"/>
<path d="M461.833 17.75V18.9167H458.917V27.0833H467.083V24.1667H468.25V27.6667C468.25 27.8214 468.189 27.9697 468.079 28.0791C467.97 28.1885 467.821 28.25 467.667 28.25H458.333C458.179 28.25 458.03 28.1885 457.921 28.0791C457.811 27.9697 457.75 27.8214 457.75 27.6667V18.3333C457.75 18.1786 457.811 18.0303 457.921 17.9209C458.03 17.8115 458.179 17.75 458.333 17.75H461.833ZM466.259 18.9167H463.583V17.75H468.25V22.4167H467.083V19.7415L463 23.8248L462.175 23L466.259 18.9167Z" fill="#74859C"/>
<path d="M2.56042 21C2.56042 10.8161 10.8161 2.56042 21 2.56042H503C513.184 2.56042 521.44 10.8161 521.44 21V319C521.44 329.184 513.184 337.44 503 337.44H21C10.8161 337.44 2.56042 329.184 2.56042 319V21Z" stroke="#EFF2F7" stroke-width="5.12084"/>
</svg>
