<svg width="19" height="22" viewBox="0 0 19 22" fill="none" xmlns="http://www.w3.org/2000/svg">
<path d="M4.33708 5.17894C5.93083 3.902 7.91289 3.20768 9.95508 3.21094C12.0801 3.21094 14.0331 3.94694 15.5731 5.17894L17.0261 3.72594L18.4401 5.13994L16.9871 6.59294C18.0448 7.91709 18.7071 9.51297 18.8979 11.1969C19.0886 12.8809 18.8001 14.5845 18.0654 16.1117C17.3307 17.6389 16.1797 18.9276 14.7449 19.8295C13.3101 20.7315 11.6498 21.21 9.95508 21.21C8.26035 21.21 6.60006 20.7315 5.16527 19.8295C3.73048 18.9276 2.57951 17.6389 1.8448 16.1117C1.1101 14.5845 0.82152 12.8809 1.01228 11.1969C1.20304 9.51297 1.86538 7.91709 2.92308 6.59294L1.47008 5.14094L2.88408 3.72694L4.33708 5.17994V5.17894ZM10.9551 11.2109V6.70594L5.95508 13.2109H8.95508V17.7109L13.9551 11.2109H10.9551ZM5.95508 0.210938H13.9551V2.21094H5.95508V0.210938Z" fill="#8199FD"/>
</svg>
