<svg width="149" height="45" viewBox="0 0 149 45" fill="none" xmlns="http://www.w3.org/2000/svg">
<path d="M19.7009 0.473733C17.5221 0.806952 15.291 1.42078 13.5131 2.20998C13.2342 2.33274 12.8681 2.49058 12.7287 2.5432C12.5892 2.59581 12.2406 2.80627 11.9443 2.99918C11.6654 3.1921 11.2645 3.42009 11.0728 3.52532C10.4627 3.841 10.0618 4.1216 8.82421 5.08619C7.13344 6.41906 6.33163 7.24334 5.12891 8.87436C3.61244 10.9087 3.08952 11.8207 2.21799 13.8726C2.07855 14.2059 1.83452 14.7846 1.67764 15.1529C1.52076 15.5212 1.39875 15.9772 1.39875 16.1701C1.39875 16.363 1.29417 16.7313 1.15472 16.9944C0.840968 17.6433 0.61437 19.8706 0.6318 22.3785C0.649231 25.2898 1.05014 27.9205 1.67764 29.1832C1.81709 29.4638 1.92167 29.797 1.92167 29.9198C1.92167 30.1127 3.35098 33.0415 3.89133 33.9535C5.14634 36.058 8.94623 39.8988 10.4627 40.5828C10.6021 40.6529 10.9682 40.8634 11.2471 41.0563C12.1012 41.6 14.2103 42.6347 14.4892 42.6347C14.6286 42.6347 14.9075 42.7575 15.0992 42.8978C15.2736 43.0381 15.6745 43.1608 15.9534 43.1608C16.2497 43.1608 16.5809 43.2485 16.6854 43.3538C16.8772 43.5467 17.8359 43.7221 20.7991 44.0728C22.0889 44.2307 22.8908 44.2307 24.1981 44.0728C27.5796 43.6694 28.2594 43.5116 29.7759 42.8802C30.0896 42.7399 30.4905 42.6347 30.6648 42.6347C30.8391 42.6347 31.0832 42.5119 31.2052 42.3716C31.3272 42.2313 31.5364 42.1086 31.6584 42.1086C31.885 42.1086 33.2969 41.4421 33.4712 41.2492C33.5932 41.1089 34.2033 40.7231 34.517 40.5828C35.65 40.0742 39.6416 36.3386 40.1994 35.2513C40.3388 34.9707 40.5132 34.7427 40.6003 34.7427C40.6875 34.7427 40.792 34.6024 40.8618 34.427C40.9141 34.2692 41.1232 33.8833 41.2975 33.6027C41.7159 32.9538 42.8837 30.5687 42.8837 30.3582C42.8837 30.2881 42.9883 29.9899 43.1278 29.7093C43.4938 28.9552 43.9296 27.5171 43.9296 27.026C43.9296 26.7805 44.0516 26.2719 44.191 25.8861C44.5396 24.8689 44.5571 19.6426 44.191 18.6079C44.0516 18.2045 43.9296 17.6608 43.9296 17.4153C43.9296 16.9242 43.2672 14.7671 43.0232 14.504C42.9534 14.3988 42.8837 14.2234 42.8837 14.1006C42.8837 13.8902 41.8553 11.6804 41.437 10.9789C40.8095 9.94417 39.1187 7.83963 38.0903 6.78736C36.4692 5.17387 33.5932 2.99918 33.0528 2.99918C32.9134 2.99918 32.7216 2.87642 32.5996 2.73611C32.4776 2.59581 32.2859 2.47305 32.1639 2.47305C32.0244 2.47305 31.7107 2.36782 31.4318 2.22752C30.5428 1.77153 29.6364 1.42078 29.3924 1.42078C29.2529 1.42078 28.9218 1.29801 28.6603 1.15771C28.3814 1.01741 27.9456 0.894641 27.6842 0.894641C27.4227 0.894641 26.7604 0.771876 26.2026 0.631573C25.2788 0.386043 21.0082 0.280816 19.7009 0.473733ZM26.3943 6.08584C26.7604 6.22615 27.2484 6.33137 27.4576 6.33137C27.6668 6.33137 27.9456 6.45414 28.0677 6.59444C28.1897 6.73474 28.4337 6.85751 28.608 6.85751C29.1309 6.85751 30.996 7.90978 32.4253 8.97959C33.7501 9.97924 35.9115 12.1539 35.9115 12.4696C35.9115 12.5748 35.9812 12.645 36.0683 12.645C36.2601 12.645 36.3647 12.8379 37.3233 14.7846C38.2646 16.7138 38.5261 17.3627 38.5261 17.7134C38.5261 17.8888 38.6481 18.3799 38.805 18.8008C39.171 19.8355 39.171 24.6409 38.805 25.7984C38.6655 26.2368 38.404 27.0611 38.2472 27.6399C38.0729 28.2186 37.8288 28.8149 37.7068 28.9727C37.5848 29.113 37.4802 29.3761 37.4802 29.5339C37.4802 29.6918 37.3931 29.8672 37.2885 29.9198C37.2013 29.9899 37.0445 30.2179 36.9399 30.4108C36.5215 31.4105 35.5628 32.6381 34.0812 34.0938C31.8327 36.3386 29.5318 37.5663 25.8714 38.4958C24.6513 38.829 20.4853 38.8816 19.5266 38.601C19.1955 38.4958 18.6028 38.3379 18.2193 38.2502C14.5415 37.4435 10.393 34.3393 8.249 30.7967C7.7958 30.0425 6.80225 27.8854 6.80225 27.6399C6.80225 27.4995 6.69767 27.1313 6.55823 26.8156C6.20961 25.9913 5.75641 23.3782 5.75641 22.168C5.75641 21.6068 5.84357 20.8001 5.94815 20.3616C6.05274 19.9232 6.19218 19.1691 6.27934 18.6956C6.4885 17.3627 7.37747 15.0652 8.249 13.6096C9.1031 12.189 11.1425 10.0143 12.7635 8.80421C13.8442 7.99747 15.9708 6.85751 16.4065 6.85751C16.5634 6.85751 16.79 6.73474 16.912 6.59444C17.0341 6.45414 17.3129 6.33137 17.5395 6.33137C17.7487 6.33137 18.1496 6.24368 18.4285 6.12092C19.6138 5.62986 25.0173 5.61232 26.3943 6.08584Z" fill="#E75252"/>
<path d="M12.5375 15.6642C12.8338 14.5769 13.7576 13.3843 14.7163 12.8582C15.675 12.332 17.8015 12.332 18.7777 12.8406C20.085 13.5246 21.0436 15.1381 21.0436 16.6463C21.0436 20.3994 16.564 22.4514 13.8622 19.9434C12.6421 18.8035 12.1366 17.2075 12.5375 15.6642Z" fill="#E75252"/>
<path d="M23.9371 14.7522C24.338 14.0157 25.1399 13.1914 25.8371 12.788C26.5343 12.3846 29.2535 12.3496 29.5847 12.7354C29.7067 12.8757 29.8984 12.9985 30.0204 12.9985C30.3865 12.9985 31.4846 14.2086 31.8507 15.0328C33.0882 17.874 30.7177 21.2588 27.6673 21.0133C25.8545 20.873 24.7564 20.189 24.0069 18.7509C23.4665 17.7337 23.4317 15.6467 23.9371 14.7522Z" fill="#E75252"/>
<path d="M12.5898 28.8702C12.0669 26.8709 13.0255 24.7313 14.8209 23.8719C15.8319 23.3984 17.5575 23.4159 18.6034 23.8895C20.1547 24.591 21.1482 26.2746 21.0785 28.0635C21.0611 28.5019 20.9739 28.9228 20.8693 29.0281C20.7822 29.1157 20.695 29.3262 20.695 29.449C20.695 29.9225 19.5272 31.1501 18.6208 31.6237C17.5924 32.1849 15.9539 32.3076 15.3613 31.8517C15.1869 31.7113 14.9081 31.5886 14.7686 31.5886C14.5246 31.5886 13.5485 30.7643 13.0604 30.1505C12.9384 30.0102 12.7292 29.4314 12.5898 28.8702Z" fill="#E75252"/>
<path d="M23.9371 25.7836C24.4252 24.9417 25.2793 24.135 26.0288 23.8193C27.0398 23.3984 28.9049 23.4335 29.8113 23.8895C31.8507 24.9242 32.8093 27.6075 31.8158 29.5016C30.6479 31.7815 28.2077 32.6935 26.0114 31.6938C24.9655 31.2028 24.5123 30.7818 23.9894 29.7646C23.5014 28.8001 23.4665 26.6254 23.9371 25.7836Z" fill="#E75252"/>
<path d="M100.852 8.91285L96.9647 8.94793V13.6831H104.983V11.3331C104.983 10.0353 104.93 8.94793 104.861 8.91285C104.774 8.87778 102.978 8.87778 100.852 8.91285ZM120.636 8.89532L116.836 8.94793V13.6831L120.897 13.6481L124.941 13.5955L124.993 11.526C125.028 9.6319 124.889 8.7024 124.54 8.80763C124.47 8.8427 122.71 8.87778 120.636 8.89532ZM107.109 22.1364L107.162 35.3424H114.831L114.883 22.1364L114.918 8.94793H107.074L107.109 22.1364ZM60.0988 9.24607C59.9071 9.28115 59.0879 9.54422 58.2686 9.80728C57.4494 10.0704 56.3164 10.4211 55.7412 10.5965C55.166 10.7719 54.4339 11.0174 54.1201 11.1577C53.8064 11.298 53.4403 11.4032 53.3009 11.4032C53.0917 11.4032 53.0394 11.8241 53.0046 13.5428L52.9523 15.7L51.9936 15.7526C51.4707 15.7877 50.9826 15.9105 50.9129 16.0157C50.8432 16.1384 50.7734 17.4362 50.7734 18.8919V21.5752H51.6275C53.1266 21.5752 53.0394 21.3472 53.0569 25.2406C53.0569 29.9934 53.3183 31.8173 54.1724 33.1151C54.6953 33.9043 56.3861 35.2547 56.8567 35.2547C57.0136 35.2547 57.4494 35.3775 57.8329 35.5178C58.7741 35.851 61.6502 35.851 63.2189 35.5002C64.4565 35.2372 65.5895 34.7636 65.5895 34.5006V29.1691L63.8639 29.2568L62.1208 29.3445L61.5979 28.8008L61.0575 28.2746V25.0301C61.0575 22.2416 61.0924 21.7681 61.3364 21.6804C61.4933 21.6278 62.5391 21.5752 63.6896 21.5752H65.7638V19.2953C65.7638 17.4187 65.8161 17.0153 66.0078 17.0153C66.3564 17.0153 66.461 17.2083 66.6353 18.2079C66.7051 18.6639 66.8619 19.2953 66.9665 19.5934C67.0711 19.9091 67.2454 20.4352 67.35 20.7334C67.4546 21.049 67.594 21.6103 67.6812 21.9786C67.7509 22.3469 67.9078 22.7502 68.0124 22.8554C68.1169 22.9607 68.2041 23.2237 68.2041 23.4517C68.2041 23.6622 68.3087 24.1532 68.4307 24.504C68.5701 24.8723 68.7793 25.451 68.8839 25.7843C69.0059 26.1175 69.1802 26.6787 69.2499 27.0119C69.3197 27.3451 69.4765 27.8888 69.5811 28.187C69.6857 28.5026 69.86 29.0288 69.9646 29.3269C70.0692 29.6426 70.2261 30.1863 70.2958 30.5195C70.3655 30.8527 70.5224 31.3964 70.627 31.6945C70.7315 32.0102 70.9059 32.5363 71.0104 32.8345C71.115 33.1502 71.2719 33.764 71.359 34.2024C71.6205 35.4827 71.6205 35.4827 75.0892 35.4827H78.1744L78.5056 34.9741C78.6799 34.6935 78.8368 34.2901 78.8368 34.0797C78.8368 33.8692 78.9414 33.4308 79.0808 33.1151C79.2203 32.7994 79.4643 32.0628 79.6386 31.4841C79.7955 30.9053 80.0395 30.1863 80.179 29.8706C80.301 29.5724 80.4056 29.2042 80.4056 29.0814C80.4056 28.9411 80.5276 28.5552 80.6844 28.222C81.3642 26.7138 81.434 26.7138 81.9743 28.2396C82.0789 28.5728 82.2358 29.0814 82.3229 29.3795C82.4101 29.6601 82.567 30.1863 82.6715 30.5195C82.7936 30.8527 82.9504 31.3613 83.055 31.6594C83.1422 31.9401 83.2816 32.4837 83.3688 32.852C83.4385 33.2203 83.5954 33.6237 83.6999 33.7289C83.8045 33.8341 83.8917 34.1849 83.8917 34.5006C83.8917 35.3599 84.2403 35.4652 87.4301 35.4652C88.9814 35.4652 90.3759 35.4476 90.5153 35.4476C90.7942 35.4301 91.1428 34.711 91.3869 33.6763C91.4566 33.3431 91.6135 32.7994 91.7181 32.4837C92.1887 31.1158 92.2933 30.7475 92.4327 30.2564C92.5199 29.9583 92.7116 29.2918 92.8685 28.7657C93.0254 28.2396 93.2694 27.4504 93.3914 27.0119C93.6354 26.1876 93.8795 25.4686 94.1932 24.504C94.2978 24.2059 94.4372 23.6973 94.4895 23.4167C94.5244 23.1185 94.6813 22.7327 94.8033 22.5398C94.9427 22.3468 95.0473 21.961 95.0473 21.6629C95.0473 21.3823 95.1693 20.9789 95.3088 20.8035C95.4482 20.6106 95.5702 20.2423 95.5702 19.9792C95.5702 19.7162 95.6922 19.2777 95.8317 19.0147C95.9711 18.7341 96.0932 18.2956 96.0932 18.0501C96.0932 17.8045 96.2152 17.4538 96.3546 17.2609C96.5812 16.9803 96.6335 16.9627 96.7904 17.1907C96.895 17.3661 96.9647 20.6983 96.9647 26.3455C96.9647 32.9573 97.017 35.2722 97.1739 35.3599C97.4702 35.5353 104.32 35.5704 104.686 35.395C104.965 35.2547 104.983 34.6058 104.983 25.5387C104.983 16.84 104.948 15.8228 104.704 15.7175C104.547 15.6649 101.148 15.6123 97.139 15.6123C89.0337 15.6123 89.4172 15.5597 89.1906 16.8049C89.1383 17.1556 88.9814 17.787 88.842 18.2079C88.7026 18.6113 88.598 19.1374 88.598 19.3479C88.5805 19.5583 88.476 19.9266 88.3365 20.1722C88.1971 20.4177 88.075 20.8386 88.075 21.1367C88.075 21.4173 87.953 21.8558 87.8136 22.1013C87.6741 22.3468 87.5696 22.7678 87.5521 23.0308C87.5521 23.2939 87.4301 23.557 87.2907 23.6271C86.9421 23.7499 86.8549 23.6622 86.6806 22.9431C86.5934 22.6275 86.454 22.1013 86.3494 21.7856C85.7568 20.0494 85.3907 18.8042 85.0944 17.6292C85.0072 17.2609 84.8504 16.8575 84.7632 16.7523C84.6935 16.6646 84.5889 16.384 84.5541 16.1384L84.5018 15.7L81.3642 15.6474L78.2267 15.6123L77.8955 16.6997C77.7212 17.3135 77.4772 18.1202 77.3552 18.5061C77.2332 18.8919 76.9891 19.6811 76.8323 20.2598C76.658 20.8386 76.4139 21.6103 76.2919 21.9786C76.1525 22.3293 76.0479 22.7853 76.0479 22.9607C76.0479 23.4167 75.6296 23.7499 75.403 23.4693C75.2112 23.2062 74.8277 21.9435 74.6534 20.9614C74.5663 20.5755 74.4443 20.0143 74.3397 19.7337C74.0957 19.0322 73.7819 17.8045 73.625 16.875C73.5553 16.4541 73.4159 16.0508 73.3113 15.9455C73.2067 15.8403 70.9756 15.7702 67.3151 15.7702C64.1079 15.7877 61.3887 15.7175 61.2841 15.6474C61.1272 15.5422 61.0575 14.6127 61.0227 12.3678C60.9704 9.00054 60.9704 9.03562 60.0988 9.24607ZM135.051 15.472C132.715 15.8403 130.466 17.0504 128.967 18.7516C128.671 19.0848 128.305 19.4882 128.148 19.646C128.009 19.8039 127.695 20.2774 127.486 20.7158C127.277 21.1367 127.033 21.6103 126.945 21.7506C126.527 22.4872 126.248 24.0305 126.248 25.5914C126.248 27.6257 126.527 28.6254 127.8 30.993C128.113 31.5893 129.909 33.4834 130.344 33.6938C130.536 33.7815 130.937 34.0095 131.216 34.2024C131.512 34.3954 131.861 34.5883 132 34.6584C132.14 34.711 132.401 34.8338 132.576 34.9215C132.872 35.0793 133.186 35.167 135.399 35.6405C136.393 35.851 138.833 35.7458 140.106 35.4301C140.942 35.2196 141.43 35.0443 142.807 34.3954C144.568 33.5711 146.729 31.2561 147.479 29.3795C148.472 26.8541 148.594 25.451 148.054 23.2764C147.74 22.0838 147.583 21.6804 147.13 20.8737C147.06 20.7334 146.921 20.4528 146.834 20.2598C146.415 19.3128 143.539 16.6646 142.929 16.6646C142.79 16.6646 142.581 16.5418 142.459 16.4015C142.337 16.2612 142.075 16.1384 141.866 16.1384C141.657 16.1384 141.413 16.0683 141.308 15.9631C141.047 15.7 138.328 15.2616 137.142 15.2966C136.567 15.2966 135.626 15.3843 135.051 15.472ZM138.31 21.8733C139.339 22.2767 139.966 22.9081 140.472 24.0129C140.942 25.0828 141.012 25.9947 140.628 26.7313C140.489 26.9944 140.367 27.3276 140.367 27.4328C140.367 27.6608 139.495 28.5377 138.798 28.9937C138.31 29.3269 136.097 29.4146 135.922 29.0989C135.852 29.0112 135.608 28.8534 135.382 28.7657C135.155 28.678 134.685 28.1694 134.353 27.6433C133.813 26.8015 133.743 26.5384 133.743 25.5738C133.743 23.8726 134.51 22.645 136.027 21.8909C136.794 21.505 137.386 21.505 138.31 21.8733ZM117.115 15.8929C116.853 16.1384 116.836 17.1556 116.87 25.7492L116.923 35.3424L120.897 35.395L124.854 35.4301L124.819 25.5738L124.767 15.7L121.071 15.6474C117.881 15.6123 117.359 15.6474 117.115 15.8929Z" fill="#E75252"/>
</svg>
