<svg width="24" height="25" viewBox="0 0 24 25" fill="none" xmlns="http://www.w3.org/2000/svg">
<path d="M21.9957 18.8257C21.9957 19.5527 21.5907 20.9527 20.6817 21.7217C20.4997 21.8617 20.3167 21.7827 20.3967 21.5787C20.6617 20.9307 21.2687 19.4317 20.9837 19.0867C20.7837 18.8247 19.9537 18.8437 19.2457 18.9047C18.9217 18.9457 18.6387 18.9647 18.4177 19.0097C18.2147 19.0267 18.1727 18.8467 18.3767 18.7067C18.6387 18.5217 18.9217 18.3817 19.2467 18.2787C20.3967 17.9347 21.7267 18.1417 21.9167 18.3617C21.9527 18.4037 21.9967 18.5217 21.9967 18.8247L21.9957 18.8257ZM20.0747 20.1197C19.8106 20.3214 19.5333 20.5051 19.2447 20.6697C17.1227 21.9447 14.3747 22.6127 11.9867 22.6127C8.14369 22.6127 4.70669 21.1957 2.09869 18.8247C1.87569 18.6427 2.06069 18.3787 2.32169 18.5217C5.13169 20.1617 8.60969 21.1537 12.2107 21.1537C14.4757 21.1537 16.9187 20.7297 19.2457 19.8177C19.4077 19.7567 19.5897 19.6737 19.7487 19.6157C20.1157 19.4507 20.4387 19.8587 20.0747 20.1197ZM13.9047 9.0897C13.9047 8.0487 13.9457 7.4357 13.6007 6.9097C13.2947 6.4767 12.7677 6.2167 12.0327 6.2577C11.2347 6.3017 10.3777 6.8247 10.1587 7.7837C10.1167 8.0037 9.98769 8.2197 9.72269 8.2667L7.28669 7.9567C7.11269 7.9167 6.84869 7.7837 6.93469 7.4357C7.45769 4.6837 9.80969 3.7247 12.0327 3.5957H12.5557C13.7757 3.5957 15.3427 3.9447 16.3457 4.8597C17.5627 5.9957 17.4337 7.5217 17.4337 9.1797V13.1067C17.4337 14.2847 17.9107 14.8067 18.3917 15.4207C18.5217 15.6397 18.5657 15.8977 18.3467 16.0757C17.8667 16.5107 16.9527 17.2947 16.4297 17.7297C16.2557 17.8627 15.9417 17.8767 15.8197 17.7747C15.0497 17.1297 14.8617 16.7717 14.3847 16.1167C13.5547 16.9877 12.8587 17.4687 12.0297 17.7297C11.4467 17.8777 10.8471 17.9503 10.2457 17.9457C8.15569 17.9457 6.49969 16.6427 6.49969 14.0657C6.49969 12.0167 7.58969 10.6237 9.19969 9.9647C10.8097 9.3047 13.1497 9.0947 13.9037 9.0907L13.9047 9.0897ZM13.4267 14.2817C13.9467 13.4097 13.9037 12.6957 13.9037 11.0967C13.2527 11.0967 12.5977 11.1417 12.0327 11.2747C10.9877 11.5777 10.1587 12.2357 10.1587 13.6297C10.1587 14.7197 10.7257 15.4617 11.6837 15.4617C11.8157 15.4617 11.9317 15.4457 12.0327 15.4167C12.7027 15.2307 13.1207 14.8947 13.4267 14.2817Z" fill="#121212"/>
</svg>
