<svg width="24" height="25" viewBox="0 0 24 25" fill="none" xmlns="http://www.w3.org/2000/svg">
<mask id="mask0_6237_38934" style="mask-type:alpha" maskUnits="userSpaceOnUse" x="0" y="0" width="24" height="25">
<rect y="0.595703" width="24" height="24" fill="#D9D9D9"/>
</mask>
<g mask="url(#mask0_6237_38934)">
<path d="M4 17.5957C3.45 17.5957 2.97933 17.4 2.588 17.0087C2.196 16.6167 2 16.1457 2 15.5957V7.7457C2 7.4957 2.071 7.2497 2.213 7.0077C2.35433 6.76637 2.55 6.57904 2.8 6.4457L10.5 2.5957L18.05 6.4457C18.25 6.5457 18.4207 6.70404 18.562 6.9207C18.704 7.13737 18.8 7.36237 18.85 7.5957H15.925L10.5 4.8457L4 8.0707V17.5957ZM7 21.5957C6.45 21.5957 5.97933 21.4 5.588 21.0087C5.196 20.6167 5 20.1457 5 19.5957V10.5957C5 10.0457 5.196 9.5747 5.588 9.1827C5.97933 8.79137 6.45 8.5957 7 8.5957H20C20.55 8.5957 21.021 8.79137 21.413 9.1827C21.8043 9.5747 22 10.0457 22 10.5957V19.5957C22 20.1457 21.8043 20.6167 21.413 21.0087C21.021 21.4 20.55 21.5957 20 21.5957H7ZM13.5 15.9457L7 12.5957V19.5957H20V12.5957L13.5 15.9457ZM13.5 13.9457L20 10.5957H7L13.5 13.9457Z" fill="#1C1B1F"/>
</g>
</svg>
