<svg width="24" height="25" viewBox="0 0 24 25" fill="none" xmlns="http://www.w3.org/2000/svg">
<mask id="mask0_6237_38972" style="mask-type:alpha" maskUnits="userSpaceOnUse" x="0" y="0" width="24" height="25">
<rect y="0.234863" width="24" height="24" fill="#D9D9D9"/>
</mask>
<g mask="url(#mask0_6237_38972)">
<path d="M13 22.2349V18.2349L17 17.2349L13 16.2349V12.2349L23 17.2349L13 22.2349ZM5 21.2349C4.45 21.2349 3.979 21.0392 3.587 20.6479C3.19567 20.2559 3 19.7849 3 19.2349V15.4349C3.8 15.4349 4.5 15.1809 5.1 14.6729C5.7 14.1642 6 13.5182 6 12.7349C6 11.9515 5.7 11.3055 5.1 10.7969C4.5 10.2889 3.8 10.0349 3 10.0349V6.23486C3 5.68486 3.19567 5.2142 3.587 4.82286C3.979 4.43086 4.45 4.23486 5 4.23486H9C9 3.53486 9.24167 2.9432 9.725 2.45986C10.2083 1.97653 10.8 1.73486 11.5 1.73486C12.2 1.73486 12.7917 1.97653 13.275 2.45986C13.7583 2.9432 14 3.53486 14 4.23486H18C18.55 4.23486 19.021 4.43086 19.413 4.82286C19.8043 5.2142 20 5.68486 20 6.23486V13.4849L18 12.4849V6.23486H12V4.23486C12 4.10153 11.95 3.98486 11.85 3.88486C11.75 3.78486 11.6333 3.73486 11.5 3.73486C11.3667 3.73486 11.25 3.78486 11.15 3.88486C11.05 3.98486 11 4.10153 11 4.23486V6.23486H5V8.43486C5.9 8.7682 6.625 9.32653 7.175 10.1099C7.725 10.8932 8 11.7682 8 12.7349C8 13.6849 7.725 14.5515 7.175 15.3349C6.625 16.1182 5.9 16.6849 5 17.0349V19.2349H7.125C7.40833 18.4849 7.89167 17.8309 8.575 17.2729C9.25833 16.7142 10.0667 16.3849 11 16.2849V18.2849C10.3333 18.4182 9.8 18.7309 9.4 19.2229C9 19.7142 8.8 20.3849 8.8 21.2349H5Z" fill="#1C1B1F"/>
</g>
</svg>
