<svg width="608" height="561" viewBox="0 0 608 561" fill="none" xmlns="http://www.w3.org/2000/svg">
<path d="M559.504 -31.3208L559.504 47.3188M559.504 591.792L559.504 311.482M559.504 245.74L559.504 97.5218" stroke="#97969C" stroke-dasharray="4 4"/>
<path d="M457.312 -30.9438L457.313 371.101M457.313 591.617L457.313 395.774" stroke="#97969C" stroke-dasharray="4 4"/>
<path d="M355.621 -31.1333L355.621 133.66M355.621 591.614L355.621 510.368M355.621 216.375L355.621 460.769" stroke="#97969C" stroke-dasharray="4 4"/>
<path d="M252.93 -30.9438L252.93 59.7995M252.93 591.61L252.93 84.102" stroke="#97969C" stroke-dasharray="4 4"/>
<path d="M150.739 -31.1313L150.738 342.561M150.738 591.618L150.738 425.635" stroke="#97969C" stroke-dasharray="4 4"/>
<path d="M48.547 -31.3228L48.5469 152.505M48.5469 591.607L48.5469 288.589M48.5469 198.524L48.5469 271.355" stroke="#97969C" stroke-dasharray="4 4"/>
<path d="M0 487.289L330.227 487.289M608 487.289L379.607 487.289" stroke="#97969C" stroke-dasharray="4 4"/>
<path d="M0 383.496H112.263M608 383.496L469.346 383.496M190.468 383.496H444.674" stroke="#97969C" stroke-dasharray="4 4"/>
<path d="M0 175.91H25.6723M608 175.91L396.708 175.91M316 175.91L73.3582 175.91" stroke="#97969C" stroke-dasharray="4 4"/>
<path d="M0 279.703H39.4795M608 279.703H592.678M527.354 279.703L57.1204 279.703" stroke="#97969C" stroke-dasharray="4 4"/>
<path d="M0 72.1167L239.558 72.1167M608 72.1167H582.879M534.54 72.1167L265.522 72.1167" stroke="#97969C" stroke-dasharray="4 4"/>
<path d="M355.621 511.269L365.803 497.451L379.621 487.269L365.803 477.087L355.621 463.269L345.439 477.087L331.621 487.269L345.439 497.451L355.621 511.269Z" stroke="#97969C" stroke-dasharray="4 4"/>
<path d="M559.48 96.0347L569.663 82.217L583.48 72.0347L569.663 61.8523L559.48 48.0347L549.298 61.8523L535.48 72.0347L549.298 82.217L559.48 96.0347Z" stroke="#97969C" stroke-dasharray="4 4"/>
<path d="M48.6016 199.765L58.7839 185.947L72.6016 175.765L58.7839 165.583L48.6016 151.765L38.4192 165.583L24.6016 175.765L38.4192 185.947L48.6016 199.765Z" stroke="#97969C" stroke-dasharray="4 4"/>
<path d="M559.469 311.619L573.045 293.195L591.469 279.619L573.045 266.042L559.469 247.619L545.892 266.042L527.469 279.619L545.892 293.195L559.469 311.619Z" stroke="#97969C" stroke-dasharray="4 4"/>
<path d="M150.754 423.525L167.724 400.495L190.754 383.525L167.724 366.554L150.754 343.525L133.783 366.554L110.754 383.525L133.783 400.495L150.754 423.525Z" stroke="#97969C" stroke-dasharray="4 4"/>
<path d="M355.621 215.916L372.592 192.886L395.621 175.916L372.592 158.945L355.621 135.916L338.651 158.945L315.621 175.916L338.651 192.886L355.621 215.916Z" stroke="#97969C" stroke-dasharray="4 4"/>
<circle r="12" transform="matrix(1 0 0 -1 457.246 383.496)" stroke="#97969C" stroke-dasharray="4 4"/>
<circle r="8" transform="matrix(1 0 0 -1 48.5469 279.703)" stroke="#97969C" stroke-dasharray="4 4"/>
<circle r="12" transform="matrix(1 0 0 -1 252.598 72.1167)" stroke="#97969C" stroke-dasharray="4 4"/>
<rect x="-2" y="2" width="441.955" height="422.315" rx="6" transform="matrix(-1 0 0 1 543.328 73.6404)" fill="#121212"/>
<rect x="-2" y="2" width="441.955" height="422.315" rx="6" transform="matrix(-1 0 0 1 543.328 73.6404)" stroke="#121212" stroke-width="4"/>
<rect x="-2" y="2" width="441.12" height="419.085" rx="6" transform="matrix(-1 0 0 1 525.039 60.7212)" fill="#F5F6F8"/>
<rect x="-2" y="2" width="441.12" height="419.085" rx="6" transform="matrix(-1 0 0 1 525.039 60.7212)" stroke="#121212" stroke-width="4"/>
<rect x="96" y="73.6392" width="422" height="38" rx="4" fill="white"/>
<rect x="113" y="87.6392" width="10" height="10" rx="5" fill="#EB5757"/>
<rect x="131" y="87.6392" width="10" height="10" rx="5" fill="#F2C94C"/>
<rect x="149" y="87.6392" width="10" height="10" rx="5" fill="#27AE60"/>
<path d="M492.438 86.6392C492.438 86.0869 491.99 85.6392 491.438 85.6392C490.885 85.6392 490.438 86.0869 490.438 86.6392H492.438ZM490.438 98.6392C490.438 99.1914 490.885 99.6392 491.438 99.6392C491.99 99.6392 492.438 99.1914 492.438 98.6392H490.438ZM490.438 86.6392V98.6392H492.438V86.6392H490.438Z" fill="#E7EDF5"/>
<path d="M497.437 93.6392C497.99 93.6392 498.437 93.1914 498.438 92.6392C498.438 92.0869 497.99 91.6392 497.438 91.6392L497.437 93.6392ZM485.438 91.6392C484.885 91.6392 484.438 92.0869 484.438 92.6392C484.437 93.1914 484.885 93.6392 485.437 93.6392L485.438 91.6392ZM497.438 91.6392L485.438 91.6392L485.437 93.6392L497.437 93.6392L497.438 91.6392Z" fill="#E7EDF5"/>
<rect x="-1" y="1" width="419" height="345" rx="7" transform="matrix(-1 0 0 1 514.572 124.662)" fill="#F5F6F8"/>
<path d="M148.259 162.842C151.823 162.842 153.749 160.97 153.749 157.982V157.82H150.869V157.91C150.869 159.638 150.149 160.232 148.241 160.232C146.207 160.232 145.361 159.494 145.361 156.632C145.361 153.77 146.207 153.032 148.241 153.032C150.149 153.032 150.869 153.626 150.869 155.354V155.444H153.749V155.282C153.749 152.294 151.823 150.422 148.259 150.422C144.641 150.422 142.481 152.87 142.481 156.632C142.481 160.394 144.641 162.842 148.259 162.842ZM158.418 162.662V157.55C158.418 156.182 158.976 155.75 160.272 155.75C161.64 155.75 162.054 156.2 162.054 157.46V162.662H164.754V156.92C164.754 154.994 163.782 153.428 161.442 153.428C160.002 153.428 159.012 154.166 158.526 155.012H158.418V150.602H155.736V162.662H158.418ZM169.343 162.842C171.017 162.842 171.935 162.104 172.421 161.438H172.529V162.662H175.031V157.298C175.031 154.886 173.627 153.428 170.963 153.428C168.407 153.428 166.733 154.85 166.733 157.01V157.208H169.307V157.01C169.307 156.092 169.739 155.786 170.837 155.786C171.899 155.786 172.475 155.984 172.475 157.046V157.334L169.379 157.802C167.507 158.09 166.499 158.954 166.499 160.358C166.499 161.996 167.741 162.842 169.343 162.842ZM169.073 160.142C169.073 159.764 169.325 159.584 169.883 159.494L172.475 159.098C172.475 160.502 171.341 160.79 170.243 160.79C169.451 160.79 169.073 160.628 169.073 160.142ZM179.854 162.662V157.532C179.854 156.164 180.412 155.75 181.708 155.75C183.076 155.75 183.49 156.2 183.49 157.46V162.662H186.19V156.92C186.19 154.994 185.182 153.428 182.824 153.428C181.24 153.428 180.268 154.166 179.782 155.192H179.674V153.608H177.172V162.662H179.854ZM190.993 162.662V157.532C190.993 156.164 191.551 155.75 192.847 155.75C194.215 155.75 194.629 156.2 194.629 157.46V162.662H197.329V156.92C197.329 154.994 196.321 153.428 193.963 153.428C192.379 153.428 191.407 154.166 190.921 155.192H190.813V153.608H188.311V162.662H190.993ZM203.61 162.842C206.202 162.842 207.858 161.708 207.858 159.782V159.602H205.194V159.71C205.194 160.268 204.726 160.502 203.646 160.502C202.17 160.502 201.666 159.998 201.612 158.738H207.822C207.876 158.432 207.948 157.91 207.948 157.406C207.948 155.048 206.346 153.428 203.628 153.428C200.802 153.428 199.074 155.264 199.074 158.162C199.074 161.024 200.496 162.842 203.61 162.842ZM203.538 155.642C204.798 155.642 205.41 156.164 205.356 157.1H201.63C201.738 156.146 202.242 155.642 203.538 155.642ZM212.481 162.662V150.602H209.799V162.662H212.481ZM218.624 162.842C221.126 162.842 222.512 161.762 222.512 160.07C222.512 158.594 221.72 157.73 219.812 157.37L218.156 157.028C217.076 156.812 216.914 156.686 216.914 156.254C216.914 155.822 217.166 155.588 218.246 155.588C219.398 155.588 219.65 155.912 219.65 156.506V156.758H222.224V156.506C222.224 154.472 220.532 153.428 218.318 153.428C215.744 153.428 214.376 154.616 214.376 156.29C214.376 157.964 215.348 158.72 217.13 159.044L218.498 159.296C219.704 159.512 219.956 159.62 219.956 160.106C219.956 160.556 219.776 160.718 218.678 160.718C217.364 160.718 216.968 160.574 216.968 159.908V159.53H214.394V159.584C214.394 161.78 215.78 162.842 218.624 162.842Z" fill="black"/>
<g clip-path="url(#clip0_6536_42283)">
<path d="M133.545 150.022C138.044 154.519 139.259 160.597 136.26 163.594C133.262 166.593 127.185 165.377 122.688 160.88C122.535 160.727 122.395 160.569 122.25 160.412L124.949 157.713C128.447 161.211 132.904 162.427 134.902 160.427C136.901 158.428 135.685 153.972 132.188 150.474L132.201 150.487L132.189 150.474C128.191 146.476 122.722 145.463 119.974 148.211C118.644 149.54 118.203 151.507 118.545 153.634C118.021 151.138 118.453 148.827 119.974 147.307C122.972 144.309 129.048 145.524 133.545 150.022Z" fill="#FDD888"/>
<path d="M127.762 166.44C127.608 166.44 127.455 166.393 127.323 166.299L124.221 164.074L121.119 166.299C120.854 166.488 120.5 166.488 120.237 166.296C119.974 166.105 119.864 165.768 119.962 165.459L121.119 161.725L118.045 159.559C117.783 159.366 117.675 159.028 117.775 158.719C117.876 158.411 118.162 158.201 118.487 158.199L122.243 158.191L123.506 154.551C123.609 154.243 123.897 154.035 124.221 154.035C124.546 154.035 124.834 154.243 124.936 154.551L126.077 158.191L129.956 158.199C130.281 158.201 130.568 158.411 130.667 158.719C130.768 159.028 130.659 159.366 130.397 159.559L127.323 161.725L128.48 165.459C128.579 165.768 128.467 166.106 128.205 166.296C128.073 166.392 127.917 166.44 127.762 166.44Z" fill="#FFAC33"/>
</g>
<rect width="91" height="33" rx="4" transform="matrix(-1 0 0 1 206.905 201.732)" fill="white"/>
<rect x="183.405" y="211.732" width="13" height="13" rx="1.5" stroke="#DFE7F2"/>
<path d="M142.577 216.224C142.524 215.754 142.305 215.389 141.921 215.131C141.536 214.869 141.053 214.738 140.469 214.738C140.052 214.738 139.69 214.804 139.385 214.937C139.08 215.066 138.843 215.245 138.674 215.474C138.509 215.699 138.426 215.956 138.426 216.244C138.426 216.486 138.482 216.695 138.595 216.871C138.711 217.046 138.862 217.194 139.047 217.313C139.236 217.429 139.438 217.527 139.654 217.607C139.869 217.683 140.076 217.746 140.275 217.795L141.27 218.054C141.594 218.134 141.928 218.241 142.269 218.377C142.61 218.513 142.927 218.692 143.218 218.914C143.51 219.136 143.745 219.411 143.924 219.739C144.107 220.068 144.198 220.46 144.198 220.918C144.198 221.494 144.049 222.006 143.75 222.454C143.455 222.901 143.026 223.254 142.463 223.513C141.903 223.771 141.225 223.901 140.429 223.901C139.667 223.901 139.008 223.78 138.451 223.538C137.894 223.296 137.458 222.953 137.143 222.509C136.828 222.061 136.654 221.531 136.621 220.918H138.162C138.192 221.286 138.312 221.592 138.52 221.837C138.732 222.079 139.003 222.26 139.331 222.379C139.662 222.495 140.025 222.553 140.419 222.553C140.854 222.553 141.24 222.485 141.578 222.349C141.919 222.21 142.188 222.018 142.383 221.773C142.579 221.524 142.677 221.234 142.677 220.903C142.677 220.601 142.59 220.354 142.418 220.162C142.249 219.97 142.019 219.811 141.727 219.685C141.439 219.559 141.112 219.448 140.748 219.352L139.544 219.023C138.729 218.801 138.083 218.475 137.606 218.044C137.132 217.613 136.895 217.043 136.895 216.334C136.895 215.747 137.054 215.235 137.372 214.798C137.69 214.36 138.121 214.02 138.665 213.778C139.208 213.533 139.821 213.411 140.504 213.411C141.193 213.411 141.802 213.532 142.329 213.773C142.859 214.015 143.276 214.349 143.581 214.773C143.886 215.194 144.045 215.678 144.059 216.224H142.577ZM145.894 213.55H147.758L150.999 221.465H151.119L154.36 213.55H156.225V223.732H154.763V216.364H154.669L151.666 223.717H150.453L147.45 216.359H147.355V223.732H145.894V213.55ZM163.871 216.224C163.818 215.754 163.6 215.389 163.215 215.131C162.831 214.869 162.347 214.738 161.763 214.738C161.346 214.738 160.985 214.804 160.68 214.937C160.375 215.066 160.138 215.245 159.969 215.474C159.803 215.699 159.72 215.956 159.72 216.244C159.72 216.486 159.776 216.695 159.889 216.871C160.005 217.046 160.156 217.194 160.342 217.313C160.53 217.429 160.733 217.527 160.948 217.607C161.164 217.683 161.371 217.746 161.57 217.795L162.564 218.054C162.889 218.134 163.222 218.241 163.563 218.377C163.905 218.513 164.221 218.692 164.513 218.914C164.804 219.136 165.04 219.411 165.219 219.739C165.401 220.068 165.492 220.46 165.492 220.918C165.492 221.494 165.343 222.006 165.045 222.454C164.75 222.901 164.32 223.254 163.757 223.513C163.197 223.771 162.519 223.901 161.724 223.901C160.961 223.901 160.302 223.78 159.745 223.538C159.188 223.296 158.752 222.953 158.437 222.509C158.123 222.061 157.949 221.531 157.915 220.918H159.457C159.486 221.286 159.606 221.592 159.815 221.837C160.027 222.079 160.297 222.26 160.625 222.379C160.956 222.495 161.319 222.553 161.714 222.553C162.148 222.553 162.534 222.485 162.872 222.349C163.213 222.21 163.482 222.018 163.677 221.773C163.873 221.524 163.971 221.234 163.971 220.903C163.971 220.601 163.885 220.354 163.712 220.162C163.543 219.97 163.313 219.811 163.021 219.685C162.733 219.559 162.406 219.448 162.042 219.352L160.839 219.023C160.023 218.801 159.377 218.475 158.9 218.044C158.426 217.613 158.189 217.043 158.189 216.334C158.189 215.747 158.348 215.235 158.666 214.798C158.984 214.36 159.415 214.02 159.959 213.778C160.502 213.533 161.115 213.411 161.798 213.411C162.488 213.411 163.096 213.532 163.623 213.773C164.153 214.015 164.571 214.349 164.876 214.773C165.181 215.194 165.34 215.678 165.353 216.224H163.871Z" fill="#636369"/>
<rect x="125.905" y="215.232" width="6" height="6" rx="3" fill="#C6A9FF"/>
<rect width="142" height="33" rx="4" transform="matrix(-1 0 0 1 364.905 201.732)" fill="white"/>
<rect x="341.405" y="211.732" width="13" height="13" rx="1.5" stroke="#DFE7F2"/>
<path d="M245.56 213.55V223.732H244.024V213.55H245.56ZM249.025 219.197V223.732H247.538V216.095H248.965V217.338H249.059C249.235 216.934 249.51 216.609 249.885 216.364C250.262 216.118 250.738 215.996 251.311 215.996C251.832 215.996 252.288 216.105 252.679 216.324C253.07 216.539 253.373 216.861 253.588 217.288C253.804 217.716 253.912 218.245 253.912 218.874V223.732H252.425V219.053C252.425 218.5 252.281 218.067 251.993 217.756C251.704 217.441 251.308 217.283 250.804 217.283C250.46 217.283 250.153 217.358 249.885 217.507C249.619 217.656 249.409 217.875 249.253 218.163C249.101 218.448 249.025 218.793 249.025 219.197ZM260.264 218.785V220.072H255.75V218.785H260.264ZM263.085 223.732H261.454L265.118 213.55H266.893L270.557 223.732H268.927L266.048 215.399H265.969L263.085 223.732ZM263.358 219.744H268.648V221.037H263.358V219.744ZM271.768 226.595V216.095H273.22V217.333H273.344C273.431 217.174 273.555 216.99 273.717 216.781C273.88 216.572 274.105 216.39 274.393 216.234C274.682 216.075 275.063 215.996 275.537 215.996C276.153 215.996 276.704 216.152 277.187 216.463C277.671 216.775 278.051 217.224 278.326 217.81C278.604 218.397 278.744 219.103 278.744 219.928C278.744 220.754 278.606 221.461 278.331 222.051C278.056 222.638 277.678 223.09 277.197 223.408C276.717 223.723 276.168 223.881 275.552 223.881C275.088 223.881 274.708 223.803 274.413 223.647C274.122 223.491 273.893 223.309 273.727 223.1C273.561 222.891 273.434 222.706 273.344 222.543H273.255V226.595H271.768ZM273.225 219.913C273.225 220.45 273.303 220.921 273.459 221.325C273.615 221.73 273.84 222.046 274.135 222.275C274.43 222.5 274.791 222.613 275.219 222.613C275.663 222.613 276.034 222.495 276.332 222.26C276.631 222.021 276.856 221.698 277.008 221.291C277.164 220.883 277.242 220.424 277.242 219.913C277.242 219.41 277.166 218.957 277.013 218.556C276.864 218.155 276.639 217.839 276.337 217.607C276.039 217.375 275.666 217.259 275.219 217.259C274.788 217.259 274.423 217.37 274.125 217.592C273.83 217.814 273.606 218.124 273.454 218.521C273.301 218.919 273.225 219.383 273.225 219.913ZM280.269 226.595V216.095H281.721V217.333H281.845C281.931 217.174 282.055 216.99 282.218 216.781C282.38 216.572 282.606 216.39 282.894 216.234C283.182 216.075 283.564 215.996 284.037 215.996C284.654 215.996 285.204 216.152 285.688 216.463C286.172 216.775 286.551 217.224 286.827 217.81C287.105 218.397 287.244 219.103 287.244 219.928C287.244 220.754 287.107 221.461 286.832 222.051C286.556 222.638 286.179 223.09 285.698 223.408C285.217 223.723 284.669 223.881 284.052 223.881C283.588 223.881 283.209 223.803 282.914 223.647C282.622 223.491 282.394 223.309 282.228 223.1C282.062 222.891 281.934 222.706 281.845 222.543H281.756V226.595H280.269ZM281.726 219.913C281.726 220.45 281.804 220.921 281.959 221.325C282.115 221.73 282.341 222.046 282.635 222.275C282.93 222.5 283.292 222.613 283.719 222.613C284.163 222.613 284.535 222.495 284.833 222.26C285.131 222.021 285.357 221.698 285.509 221.291C285.665 220.883 285.743 220.424 285.743 219.913C285.743 219.41 285.667 218.957 285.514 218.556C285.365 218.155 285.14 217.839 284.838 217.607C284.54 217.375 284.167 217.259 283.719 217.259C283.288 217.259 282.924 217.37 282.626 217.592C282.331 217.814 282.107 218.124 281.954 218.521C281.802 218.919 281.726 219.383 281.726 219.913ZM292.454 223.732V213.55H296.083C296.875 213.55 297.532 213.694 298.052 213.982C298.572 214.271 298.962 214.665 299.22 215.166C299.479 215.663 299.608 216.223 299.608 216.846C299.608 217.472 299.477 218.036 299.215 218.536C298.957 219.033 298.566 219.428 298.042 219.719C297.522 220.008 296.867 220.152 296.078 220.152H293.583V218.849H295.939C296.44 218.849 296.846 218.763 297.157 218.591C297.469 218.415 297.697 218.177 297.843 217.875C297.989 217.573 298.062 217.23 298.062 216.846C298.062 216.461 297.989 216.12 297.843 215.822C297.697 215.523 297.467 215.29 297.152 215.121C296.841 214.952 296.43 214.867 295.919 214.867H293.99V223.732H292.454ZM305.987 220.565V216.095H307.479V223.732H306.017V222.409H305.937C305.762 222.817 305.48 223.157 305.092 223.428C304.708 223.697 304.229 223.831 303.655 223.831C303.165 223.831 302.731 223.723 302.353 223.508C301.978 223.289 301.683 222.966 301.468 222.538C301.256 222.111 301.15 221.582 301.15 220.952V216.095H302.636V220.773C302.636 221.294 302.78 221.708 303.069 222.016C303.357 222.325 303.732 222.479 304.192 222.479C304.471 222.479 304.748 222.409 305.023 222.27C305.301 222.131 305.531 221.92 305.714 221.639C305.899 221.357 305.99 220.999 305.987 220.565ZM315.058 217.96L313.711 218.198C313.655 218.026 313.565 217.862 313.443 217.706C313.323 217.55 313.161 217.423 312.955 217.323C312.75 217.224 312.493 217.174 312.185 217.174C311.764 217.174 311.412 217.268 311.131 217.457C310.849 217.643 310.708 217.883 310.708 218.178C310.708 218.434 310.803 218.639 310.992 218.795C311.18 218.951 311.485 219.078 311.906 219.178L313.119 219.456C313.822 219.618 314.346 219.869 314.69 220.207C315.035 220.545 315.207 220.984 315.207 221.524C315.207 221.982 315.075 222.389 314.81 222.747C314.548 223.102 314.182 223.38 313.711 223.582C313.244 223.785 312.702 223.886 312.085 223.886C311.23 223.886 310.532 223.703 309.992 223.339C309.452 222.971 309.121 222.449 308.998 221.773L310.435 221.554C310.524 221.929 310.708 222.212 310.987 222.404C311.265 222.593 311.628 222.688 312.075 222.688C312.563 222.688 312.952 222.586 313.244 222.384C313.535 222.179 313.681 221.929 313.681 221.634C313.681 221.395 313.592 221.194 313.413 221.032C313.237 220.87 312.967 220.747 312.602 220.664L311.31 220.381C310.597 220.218 310.07 219.96 309.729 219.605C309.391 219.251 309.222 218.801 309.222 218.258C309.222 217.807 309.348 217.413 309.599 217.075C309.851 216.737 310.199 216.473 310.643 216.284C311.088 216.092 311.596 215.996 312.17 215.996C312.995 215.996 313.645 216.175 314.119 216.533C314.593 216.887 314.906 217.363 315.058 217.96ZM318.188 219.197V223.732H316.702V213.55H318.168V217.338H318.263C318.442 216.927 318.715 216.601 319.083 216.359C319.451 216.117 319.932 215.996 320.525 215.996C321.049 215.996 321.506 216.103 321.897 216.319C322.292 216.534 322.596 216.856 322.812 217.283C323.031 217.708 323.14 218.238 323.14 218.874V223.732H321.654V219.053C321.654 218.493 321.509 218.059 321.221 217.751C320.933 217.439 320.532 217.283 320.018 217.283C319.667 217.283 319.352 217.358 319.073 217.507C318.798 217.656 318.581 217.875 318.422 218.163C318.266 218.448 318.188 218.793 318.188 219.197Z" fill="#636369"/>
<rect x="232.905" y="215.232" width="6" height="6" rx="3" fill="#F9DD88"/>
<rect width="170" height="33" rx="4" transform="matrix(-1 0 0 1 285.905 250.732)" fill="white"/>
<rect x="262.405" y="260.732" width="13" height="13" rx="1.5" stroke="#DFE7F2"/>
<path d="M139.017 272.732L136.194 262.55H137.809L139.793 270.435H139.888L141.951 262.55H143.552L145.615 270.44H145.709L147.688 262.55H149.309L146.48 272.732H144.934L142.791 265.105H142.711L140.569 272.732H139.017ZM152.989 272.886C152.237 272.886 151.589 272.725 151.045 272.403C150.505 272.079 150.088 271.623 149.793 271.036C149.501 270.446 149.355 269.755 149.355 268.963C149.355 268.181 149.501 267.492 149.793 266.895C150.088 266.298 150.499 265.833 151.026 265.498C151.556 265.163 152.176 264.996 152.885 264.996C153.316 264.996 153.733 265.067 154.138 265.21C154.542 265.352 154.905 265.576 155.227 265.881C155.548 266.186 155.802 266.582 155.987 267.069C156.173 267.553 156.266 268.141 156.266 268.834V269.361H150.195V268.247H154.809C154.809 267.856 154.729 267.51 154.57 267.208C154.411 266.903 154.188 266.663 153.899 266.487C153.614 266.312 153.279 266.224 152.895 266.224C152.477 266.224 152.113 266.327 151.801 266.532C151.493 266.734 151.254 266.999 151.085 267.327C150.92 267.652 150.837 268.005 150.837 268.386V269.256C150.837 269.767 150.926 270.201 151.105 270.559C151.287 270.917 151.541 271.19 151.866 271.379C152.191 271.565 152.57 271.658 153.004 271.658C153.286 271.658 153.543 271.618 153.775 271.538C154.007 271.456 154.207 271.333 154.376 271.17C154.545 271.008 154.675 270.808 154.764 270.569L156.171 270.822C156.058 271.237 155.856 271.6 155.565 271.911C155.276 272.219 154.913 272.46 154.476 272.632C154.042 272.801 153.546 272.886 152.989 272.886ZM157.894 272.732V262.55H159.381V266.333H159.47C159.556 266.174 159.681 265.99 159.843 265.781C160.006 265.572 160.231 265.39 160.519 265.234C160.808 265.075 161.189 264.996 161.663 264.996C162.279 264.996 162.829 265.152 163.313 265.463C163.797 265.775 164.177 266.224 164.452 266.81C164.73 267.397 164.869 268.103 164.869 268.928C164.869 269.754 164.732 270.461 164.457 271.051C164.182 271.638 163.804 272.09 163.323 272.408C162.843 272.723 162.294 272.881 161.678 272.881C161.214 272.881 160.834 272.803 160.539 272.647C160.247 272.491 160.019 272.309 159.853 272.1C159.687 271.891 159.56 271.706 159.47 271.543H159.346V272.732H157.894ZM159.351 268.913C159.351 269.45 159.429 269.921 159.585 270.325C159.74 270.73 159.966 271.046 160.261 271.275C160.556 271.5 160.917 271.613 161.345 271.613C161.789 271.613 162.16 271.495 162.458 271.26C162.756 271.021 162.982 270.698 163.134 270.291C163.29 269.883 163.368 269.424 163.368 268.913C163.368 268.41 163.292 267.957 163.139 267.556C162.99 267.155 162.765 266.839 162.463 266.607C162.165 266.375 161.792 266.259 161.345 266.259C160.914 266.259 160.549 266.37 160.251 266.592C159.956 266.814 159.732 267.124 159.58 267.521C159.427 267.919 159.351 268.383 159.351 268.913ZM178.301 262.55V272.732H176.889L171.714 265.264H171.619V272.732H170.083V262.55H171.505L176.685 270.027H176.78V262.55H178.301ZM183.499 272.886C182.783 272.886 182.159 272.722 181.625 272.393C181.091 272.065 180.677 271.606 180.382 271.016C180.087 270.426 179.94 269.737 179.94 268.948C179.94 268.156 180.087 267.463 180.382 266.87C180.677 266.277 181.091 265.816 181.625 265.488C182.159 265.16 182.783 264.996 183.499 264.996C184.215 264.996 184.84 265.16 185.374 265.488C185.907 265.816 186.322 266.277 186.616 266.87C186.911 267.463 187.059 268.156 187.059 268.948C187.059 269.737 186.911 270.426 186.616 271.016C186.322 271.606 185.907 272.065 185.374 272.393C184.84 272.722 184.215 272.886 183.499 272.886ZM183.504 271.638C183.968 271.638 184.353 271.515 184.658 271.27C184.963 271.025 185.188 270.698 185.334 270.291C185.483 269.883 185.558 269.434 185.558 268.943C185.558 268.456 185.483 268.009 185.334 267.601C185.188 267.19 184.963 266.86 184.658 266.612C184.353 266.363 183.968 266.239 183.504 266.239C183.037 266.239 182.649 266.363 182.341 266.612C182.036 266.86 181.809 267.19 181.66 267.601C181.514 268.009 181.441 268.456 181.441 268.943C181.441 269.434 181.514 269.883 181.66 270.291C181.809 270.698 182.036 271.025 182.341 271.27C182.649 271.515 183.037 271.638 183.504 271.638ZM192.143 265.095V266.288H187.972V265.095H192.143ZM189.09 263.266H190.577V270.489C190.577 270.778 190.62 270.995 190.706 271.141C190.792 271.283 190.903 271.381 191.039 271.434C191.178 271.484 191.329 271.509 191.492 271.509C191.611 271.509 191.715 271.5 191.805 271.484C191.894 271.467 191.964 271.454 192.014 271.444L192.282 272.672C192.196 272.705 192.073 272.738 191.914 272.771C191.755 272.808 191.556 272.828 191.318 272.831C190.926 272.838 190.562 272.768 190.224 272.622C189.886 272.476 189.612 272.251 189.404 271.946C189.195 271.641 189.09 271.258 189.09 270.798V263.266ZM193.647 272.732V265.095H195.134V272.732H193.647ZM194.398 263.917C194.139 263.917 193.917 263.831 193.732 263.658C193.549 263.483 193.458 263.274 193.458 263.032C193.458 262.787 193.549 262.578 193.732 262.406C193.917 262.23 194.139 262.142 194.398 262.142C194.656 262.142 194.877 262.23 195.059 262.406C195.245 262.578 195.338 262.787 195.338 263.032C195.338 263.274 195.245 263.483 195.059 263.658C194.877 263.831 194.656 263.917 194.398 263.917ZM200.628 265.095V266.288H196.312V265.095H200.628ZM197.496 272.732V264.21C197.496 263.733 197.6 263.337 197.809 263.022C198.018 262.704 198.294 262.467 198.639 262.311C198.984 262.152 199.358 262.072 199.763 262.072C200.061 262.072 200.316 262.097 200.528 262.147C200.74 262.193 200.898 262.237 201.001 262.276L200.653 263.479C200.583 263.46 200.494 263.436 200.384 263.41C200.275 263.38 200.142 263.365 199.986 263.365C199.625 263.365 199.367 263.455 199.211 263.634C199.058 263.813 198.982 264.071 198.982 264.409V272.732H197.496ZM202.022 272.732V265.095H203.508V272.732H202.022ZM202.772 263.917C202.514 263.917 202.292 263.831 202.106 263.658C201.924 263.483 201.833 263.274 201.833 263.032C201.833 262.787 201.924 262.578 202.106 262.406C202.292 262.23 202.514 262.142 202.772 262.142C203.031 262.142 203.251 262.23 203.433 262.406C203.619 262.578 203.712 262.787 203.712 263.032C203.712 263.274 203.619 263.483 203.433 263.658C203.251 263.831 203.031 263.917 202.772 263.917ZM208.584 272.886C207.845 272.886 207.209 272.718 206.675 272.384C206.145 272.045 205.737 271.58 205.452 270.987C205.167 270.393 205.025 269.714 205.025 268.948C205.025 268.173 205.171 267.488 205.462 266.895C205.754 266.298 206.165 265.833 206.695 265.498C207.226 265.163 207.85 264.996 208.57 264.996C209.15 264.996 209.667 265.103 210.121 265.319C210.575 265.531 210.941 265.829 211.219 266.214C211.501 266.598 211.669 267.047 211.722 267.561H210.275C210.195 267.203 210.013 266.895 209.728 266.636C209.446 266.378 209.068 266.249 208.594 266.249C208.18 266.249 207.817 266.358 207.506 266.577C207.197 266.792 206.957 267.1 206.785 267.501C206.612 267.899 206.526 268.37 206.526 268.913C206.526 269.47 206.611 269.951 206.78 270.355C206.949 270.76 207.187 271.073 207.496 271.295C207.807 271.517 208.173 271.628 208.594 271.628C208.876 271.628 209.131 271.577 209.36 271.474C209.592 271.368 209.786 271.217 209.942 271.021C210.101 270.826 210.212 270.59 210.275 270.315H211.722C211.669 270.809 211.508 271.25 211.239 271.638C210.971 272.026 210.611 272.331 210.16 272.553C209.713 272.775 209.188 272.886 208.584 272.886ZM215.394 272.901C214.91 272.901 214.472 272.811 214.081 272.632C213.69 272.45 213.38 272.186 213.151 271.842C212.926 271.497 212.813 271.074 212.813 270.574C212.813 270.143 212.896 269.788 213.062 269.51C213.228 269.232 213.451 269.011 213.733 268.849C214.015 268.686 214.33 268.564 214.678 268.481C215.026 268.398 215.38 268.335 215.742 268.292C216.199 268.239 216.57 268.196 216.855 268.163C217.14 268.126 217.347 268.068 217.477 267.989C217.606 267.909 217.67 267.78 217.67 267.601V267.566C217.67 267.132 217.548 266.795 217.303 266.557C217.061 266.318 216.699 266.199 216.219 266.199C215.718 266.199 215.324 266.31 215.036 266.532C214.751 266.751 214.553 266.994 214.444 267.263L213.047 266.945C213.213 266.481 213.455 266.106 213.773 265.821C214.094 265.533 214.464 265.324 214.881 265.195C215.299 265.062 215.738 264.996 216.199 264.996C216.504 264.996 216.827 265.032 217.168 265.105C217.513 265.175 217.835 265.304 218.133 265.493C218.434 265.682 218.681 265.952 218.874 266.303C219.066 266.651 219.162 267.104 219.162 267.661V272.732H217.71V271.688H217.651C217.554 271.88 217.41 272.069 217.218 272.254C217.026 272.44 216.779 272.594 216.477 272.717C216.176 272.839 215.814 272.901 215.394 272.901ZM215.717 271.707C216.128 271.707 216.479 271.626 216.771 271.464C217.066 271.301 217.289 271.089 217.442 270.827C217.598 270.562 217.675 270.279 217.675 269.977V268.993C217.622 269.046 217.52 269.096 217.367 269.142C217.218 269.185 217.047 269.223 216.855 269.256C216.663 269.286 216.476 269.314 216.293 269.341C216.111 269.364 215.959 269.384 215.836 269.401C215.548 269.437 215.284 269.498 215.045 269.585C214.81 269.671 214.621 269.795 214.479 269.957C214.34 270.117 214.27 270.329 214.27 270.594C214.27 270.962 214.406 271.24 214.678 271.429C214.949 271.615 215.296 271.707 215.717 271.707ZM224.567 265.095V266.288H220.395V265.095H224.567ZM221.514 263.266H223V270.489C223 270.778 223.044 270.995 223.13 271.141C223.216 271.283 223.327 271.381 223.463 271.434C223.602 271.484 223.753 271.509 223.915 271.509C224.035 271.509 224.139 271.5 224.228 271.484C224.318 271.467 224.388 271.454 224.437 271.444L224.706 272.672C224.62 272.705 224.497 272.738 224.338 272.771C224.179 272.808 223.98 272.828 223.741 272.831C223.35 272.838 222.986 272.768 222.648 272.622C222.309 272.476 222.036 272.251 221.827 271.946C221.618 271.641 221.514 271.258 221.514 270.798V263.266ZM226.071 272.732V265.095H227.557V272.732H226.071ZM226.822 263.917C226.563 263.917 226.341 263.831 226.155 263.658C225.973 263.483 225.882 263.274 225.882 263.032C225.882 262.787 225.973 262.578 226.155 262.406C226.341 262.23 226.563 262.142 226.822 262.142C227.08 262.142 227.301 262.23 227.483 262.406C227.668 262.578 227.761 262.787 227.761 263.032C227.761 263.274 227.668 263.483 227.483 263.658C227.301 263.831 227.08 263.917 226.822 263.917ZM232.634 272.886C231.918 272.886 231.293 272.722 230.76 272.393C230.226 272.065 229.812 271.606 229.517 271.016C229.222 270.426 229.074 269.737 229.074 268.948C229.074 268.156 229.222 267.463 229.517 266.87C229.812 266.277 230.226 265.816 230.76 265.488C231.293 265.16 231.918 264.996 232.634 264.996C233.35 264.996 233.975 265.16 234.508 265.488C235.042 265.816 235.456 266.277 235.751 266.87C236.046 267.463 236.193 268.156 236.193 268.948C236.193 269.737 236.046 270.426 235.751 271.016C235.456 271.606 235.042 272.065 234.508 272.393C233.975 272.722 233.35 272.886 232.634 272.886ZM232.639 271.638C233.103 271.638 233.487 271.515 233.792 271.27C234.097 271.025 234.323 270.698 234.468 270.291C234.618 269.883 234.692 269.434 234.692 268.943C234.692 268.456 234.618 268.009 234.468 267.601C234.323 267.19 234.097 266.86 233.792 266.612C233.487 266.363 233.103 266.239 232.639 266.239C232.171 266.239 231.784 266.363 231.475 266.612C231.171 266.86 230.943 267.19 230.794 267.601C230.649 268.009 230.576 268.456 230.576 268.943C230.576 269.434 230.649 269.883 230.794 270.291C230.943 270.698 231.171 271.025 231.475 271.27C231.784 271.515 232.171 271.638 232.639 271.638ZM239.199 268.197V272.732H237.713V265.095H239.14V266.338H239.234C239.41 265.934 239.685 265.609 240.059 265.364C240.437 265.118 240.913 264.996 241.486 264.996C242.007 264.996 242.462 265.105 242.853 265.324C243.244 265.539 243.548 265.861 243.763 266.288C243.979 266.716 244.086 267.245 244.086 267.874V272.732H242.6V268.053C242.6 267.5 242.456 267.067 242.167 266.756C241.879 266.441 241.483 266.283 240.979 266.283C240.634 266.283 240.328 266.358 240.059 266.507C239.794 266.656 239.584 266.875 239.428 267.163C239.276 267.448 239.199 267.793 239.199 268.197Z" fill="#636369"/>
<rect x="125.905" y="264.232" width="6" height="6" rx="3" fill="#00CC74"/>
<rect width="96" height="33" rx="4" transform="matrix(-1 0 0 1 476.905 201.732)" fill="white"/>
<rect x="453.405" y="211.732" width="13" height="13" rx="1.5" stroke="#DFE7F2"/>
<path d="M402.024 223.732V213.55H408.407V214.872H403.56V217.974H408.074V219.292H403.56V222.409H408.467V223.732H402.024ZM410.2 223.732V216.095H411.627V217.338H411.721C411.881 216.917 412.141 216.589 412.502 216.354C412.863 216.115 413.296 215.996 413.8 215.996C414.31 215.996 414.738 216.115 415.082 216.354C415.43 216.592 415.687 216.92 415.853 217.338H415.932C416.115 216.93 416.405 216.606 416.802 216.364C417.2 216.118 417.674 215.996 418.224 215.996C418.917 215.996 419.482 216.213 419.92 216.647C420.36 217.081 420.581 217.736 420.581 218.611V223.732H419.094V218.75C419.094 218.233 418.953 217.858 418.672 217.626C418.39 217.394 418.054 217.278 417.662 217.278C417.179 217.278 416.802 217.428 416.534 217.726C416.265 218.021 416.131 218.4 416.131 218.864V223.732H414.65V218.656C414.65 218.241 414.52 217.908 414.262 217.656C414.003 217.404 413.667 217.278 413.253 217.278C412.971 217.278 412.711 217.353 412.472 217.502C412.237 217.648 412.046 217.852 411.9 218.114C411.758 218.376 411.687 218.679 411.687 219.023V223.732H410.2ZM424.655 223.901C424.172 223.901 423.734 223.811 423.343 223.632C422.952 223.45 422.642 223.186 422.413 222.842C422.188 222.497 422.075 222.074 422.075 221.574C422.075 221.143 422.158 220.788 422.324 220.51C422.49 220.232 422.713 220.011 422.995 219.849C423.277 219.686 423.592 219.564 423.94 219.481C424.288 219.398 424.642 219.335 425.003 219.292C425.461 219.239 425.832 219.196 426.117 219.163C426.402 219.126 426.609 219.068 426.739 218.989C426.868 218.909 426.932 218.78 426.932 218.601V218.566C426.932 218.132 426.81 217.795 426.565 217.557C426.323 217.318 425.961 217.199 425.481 217.199C424.98 217.199 424.586 217.31 424.298 217.532C424.012 217.751 423.815 217.994 423.706 218.263L422.309 217.945C422.475 217.481 422.717 217.106 423.035 216.821C423.356 216.533 423.726 216.324 424.143 216.195C424.561 216.062 425 215.996 425.461 215.996C425.766 215.996 426.089 216.032 426.43 216.105C426.775 216.175 427.097 216.304 427.395 216.493C427.696 216.682 427.943 216.952 428.136 217.303C428.328 217.651 428.424 218.104 428.424 218.661V223.732H426.972V222.688H426.913C426.816 222.88 426.672 223.069 426.48 223.254C426.288 223.44 426.041 223.594 425.739 223.717C425.438 223.839 425.076 223.901 424.655 223.901ZM424.979 222.707C425.39 222.707 425.741 222.626 426.033 222.464C426.328 222.301 426.551 222.089 426.704 221.827C426.86 221.562 426.937 221.279 426.937 220.977V219.993C426.884 220.046 426.782 220.096 426.629 220.142C426.48 220.185 426.309 220.223 426.117 220.256C425.925 220.286 425.738 220.314 425.555 220.341C425.373 220.364 425.221 220.384 425.098 220.401C424.81 220.437 424.546 220.498 424.307 220.585C424.072 220.671 423.883 220.795 423.741 220.957C423.601 221.117 423.532 221.329 423.532 221.594C423.532 221.962 423.668 222.24 423.94 222.429C424.211 222.615 424.558 222.707 424.979 222.707ZM430.264 223.732V216.095H431.75V223.732H430.264ZM431.015 214.917C430.756 214.917 430.534 214.831 430.348 214.658C430.166 214.483 430.075 214.274 430.075 214.032C430.075 213.787 430.166 213.578 430.348 213.406C430.534 213.23 430.756 213.142 431.015 213.142C431.273 213.142 431.494 213.23 431.676 213.406C431.861 213.578 431.954 213.787 431.954 214.032C431.954 214.274 431.861 214.483 431.676 214.658C431.494 214.831 431.273 214.917 431.015 214.917ZM435.097 213.55V223.732H433.61V213.55H435.097Z" fill="#636369"/>
<rect x="390.905" y="215.232" width="6" height="6" rx="3" fill="#8199FD"/>
<rect x="115.786" y="310.662" width="381" height="139" rx="8" fill="white"/>
<rect x="142.552" y="385.662" width="79" height="10" rx="5" fill="#EEF1F7"/>
<rect x="142.552" y="357.662" width="203" height="10" rx="5" fill="#EEF1F7"/>
<rect x="244.052" y="385.662" width="203" height="10" rx="5" fill="#EEF1F7"/>
<rect x="142.552" y="413.662" width="203" height="10" rx="5" fill="#EEF1F7"/>
<path d="M146.723 337.662H144.368V330.39H146.797C147.51 330.39 148.122 330.535 148.633 330.826C149.145 331.115 149.536 331.531 149.809 332.073C150.083 332.613 150.221 333.26 150.221 334.015C150.221 334.773 150.082 335.424 149.805 335.968C149.531 336.513 149.133 336.932 148.612 337.225C148.091 337.517 147.461 337.662 146.723 337.662ZM145.466 336.703H146.662C147.216 336.703 147.677 336.599 148.044 336.391C148.411 336.18 148.685 335.876 148.868 335.478C149.05 335.078 149.141 334.59 149.141 334.015C149.141 333.445 149.05 332.961 148.868 332.563C148.688 332.165 148.419 331.863 148.062 331.657C147.704 331.451 147.26 331.348 146.73 331.348H145.466V336.703ZM153.751 337.772C153.213 337.772 152.751 337.657 152.362 337.428C151.976 337.196 151.678 336.87 151.467 336.451C151.259 336.03 151.155 335.536 151.155 334.97C151.155 334.412 151.259 333.919 151.467 333.493C151.678 333.067 151.972 332.734 152.348 332.495C152.727 332.256 153.17 332.137 153.676 332.137C153.984 332.137 154.282 332.188 154.571 332.289C154.86 332.391 155.119 332.551 155.349 332.769C155.578 332.987 155.76 333.269 155.892 333.617C156.025 333.963 156.091 334.383 156.091 334.878V335.255H151.755V334.459H155.05C155.05 334.18 154.994 333.932 154.88 333.717C154.766 333.499 154.607 333.327 154.401 333.202C154.197 333.077 153.958 333.014 153.683 333.014C153.385 333.014 153.125 333.087 152.902 333.234C152.682 333.378 152.511 333.568 152.391 333.802C152.272 334.034 152.213 334.286 152.213 334.559V335.18C152.213 335.545 152.277 335.855 152.405 336.11C152.535 336.366 152.716 336.561 152.948 336.696C153.18 336.829 153.451 336.895 153.761 336.895C153.963 336.895 154.146 336.867 154.312 336.81C154.478 336.751 154.621 336.663 154.742 336.547C154.862 336.431 154.955 336.288 155.019 336.117L156.023 336.299C155.943 336.595 155.799 336.854 155.59 337.076C155.384 337.296 155.125 337.468 154.813 337.591C154.502 337.712 154.148 337.772 153.751 337.772ZM158.756 337.783C158.411 337.783 158.098 337.719 157.819 337.591C157.54 337.461 157.318 337.273 157.155 337.027C156.994 336.78 156.913 336.479 156.913 336.121C156.913 335.813 156.973 335.56 157.091 335.361C157.209 335.162 157.369 335.005 157.57 334.889C157.772 334.773 157.996 334.685 158.245 334.626C158.494 334.567 158.747 334.522 159.005 334.491C159.332 334.453 159.597 334.422 159.8 334.399C160.004 334.373 160.152 334.331 160.244 334.274C160.337 334.218 160.383 334.125 160.383 333.997V333.973C160.383 333.662 160.295 333.422 160.12 333.252C159.947 333.081 159.689 332.996 159.346 332.996C158.988 332.996 158.707 333.075 158.501 333.234C158.297 333.39 158.156 333.564 158.078 333.756L157.08 333.529C157.199 333.197 157.371 332.93 157.599 332.726C157.828 332.52 158.092 332.371 158.391 332.279C158.689 332.184 159.003 332.137 159.332 332.137C159.549 332.137 159.78 332.163 160.024 332.215C160.27 332.265 160.5 332.357 160.713 332.492C160.929 332.627 161.105 332.82 161.242 333.071C161.38 333.319 161.448 333.642 161.448 334.04V337.662H160.411V336.916H160.369C160.3 337.054 160.197 337.189 160.06 337.321C159.922 337.454 159.746 337.564 159.531 337.652C159.315 337.739 159.057 337.783 158.756 337.783ZM158.987 336.931C159.281 336.931 159.532 336.873 159.74 336.757C159.951 336.641 160.111 336.489 160.219 336.302C160.331 336.113 160.386 335.91 160.386 335.695V334.992C160.349 335.03 160.275 335.065 160.166 335.098C160.06 335.129 159.938 335.156 159.8 335.18C159.663 335.201 159.529 335.221 159.399 335.24C159.269 335.257 159.16 335.271 159.072 335.283C158.866 335.309 158.678 335.353 158.508 335.414C158.34 335.476 158.205 335.565 158.103 335.681C158.004 335.794 157.954 335.946 157.954 336.135C157.954 336.398 158.051 336.597 158.245 336.732C158.439 336.864 158.687 336.931 158.987 336.931ZM162.762 337.662V332.208H163.789V333.074H163.846C163.945 332.781 164.12 332.55 164.371 332.382C164.624 332.211 164.911 332.126 165.23 332.126C165.297 332.126 165.375 332.128 165.465 332.133C165.557 332.138 165.629 332.144 165.681 332.151V333.166C165.639 333.155 165.563 333.142 165.454 333.127C165.345 333.111 165.236 333.103 165.127 333.103C164.877 333.103 164.653 333.156 164.456 333.262C164.262 333.367 164.108 333.512 163.995 333.699C163.881 333.884 163.824 334.095 163.824 334.331V337.662H162.762ZM227.324 336.668L227.271 337.055C227.235 337.339 227.175 337.635 227.09 337.943C227.007 338.253 226.92 338.541 226.83 338.806C226.743 339.071 226.67 339.282 226.614 339.438H225.861C225.892 339.291 225.934 339.092 225.989 338.841C226.043 338.593 226.096 338.314 226.148 338.007C226.201 337.699 226.24 337.385 226.266 337.066L226.301 336.668H227.324Z" fill="#636369"/>
<path d="M169.473 339.175V330.116H171.806V330.958H170.489V338.333H171.806V339.175H169.473ZM175.322 332.208V333.06H172.24V332.208H175.322ZM173.085 337.662V331.576C173.085 331.235 173.159 330.952 173.308 330.727C173.458 330.5 173.655 330.33 173.902 330.219C174.148 330.105 174.415 330.049 174.704 330.049C174.917 330.049 175.099 330.066 175.251 330.102C175.402 330.135 175.515 330.166 175.588 330.194L175.34 331.054C175.29 331.039 175.226 331.023 175.148 331.004C175.07 330.983 174.975 330.972 174.864 330.972C174.606 330.972 174.421 331.036 174.31 331.164C174.201 331.291 174.147 331.476 174.147 331.718V337.662H173.085ZM176.317 337.662V332.208H177.379V337.662H176.317ZM176.854 331.366C176.669 331.366 176.51 331.305 176.378 331.181C176.248 331.056 176.183 330.907 176.183 330.734C176.183 330.559 176.248 330.41 176.378 330.287C176.51 330.161 176.669 330.098 176.854 330.098C177.038 330.098 177.196 330.161 177.326 330.287C177.459 330.41 177.525 330.559 177.525 330.734C177.525 330.907 177.459 331.056 177.326 331.181C177.196 331.305 177.038 331.366 176.854 331.366ZM178.708 337.662V332.208H179.734V333.074H179.791C179.89 332.781 180.065 332.55 180.316 332.382C180.57 332.211 180.856 332.126 181.176 332.126C181.242 332.126 181.32 332.128 181.41 332.133C181.502 332.138 181.575 332.144 181.627 332.151V333.166C181.584 333.155 181.508 333.142 181.399 333.127C181.291 333.111 181.182 333.103 181.073 333.103C180.822 333.103 180.598 333.156 180.402 333.262C180.207 333.367 180.054 333.512 179.94 333.699C179.826 333.884 179.77 334.095 179.77 334.331V337.662H178.708ZM186.533 333.539L185.571 333.71C185.53 333.587 185.466 333.47 185.379 333.358C185.294 333.247 185.178 333.156 185.031 333.085C184.884 333.014 184.701 332.978 184.48 332.978C184.18 332.978 183.929 333.046 183.728 333.181C183.526 333.313 183.426 333.485 183.426 333.696C183.426 333.878 183.493 334.025 183.628 334.136C183.763 334.247 183.981 334.338 184.282 334.409L185.148 334.608C185.65 334.724 186.024 334.903 186.27 335.144C186.516 335.386 186.64 335.7 186.64 336.086C186.64 336.412 186.545 336.703 186.355 336.959C186.168 337.212 185.907 337.411 185.571 337.556C185.237 337.7 184.85 337.772 184.409 337.772C183.799 337.772 183.3 337.642 182.914 337.382C182.528 337.119 182.292 336.746 182.204 336.263L183.23 336.107C183.294 336.374 183.426 336.577 183.625 336.714C183.823 336.849 184.083 336.916 184.402 336.916C184.75 336.916 185.028 336.844 185.237 336.7C185.445 336.553 185.549 336.374 185.549 336.164C185.549 335.993 185.485 335.85 185.358 335.734C185.232 335.618 185.039 335.53 184.779 335.471L183.855 335.269C183.346 335.153 182.97 334.968 182.726 334.715C182.485 334.461 182.364 334.141 182.364 333.752C182.364 333.43 182.454 333.149 182.634 332.907C182.814 332.666 183.062 332.478 183.38 332.343C183.697 332.205 184.06 332.137 184.47 332.137C185.059 332.137 185.523 332.265 185.862 332.52C186.2 332.774 186.424 333.113 186.533 333.539ZM190.253 332.208V333.06H187.274V332.208H190.253ZM188.073 330.901H189.134V336.061C189.134 336.267 189.165 336.422 189.227 336.526C189.288 336.628 189.368 336.698 189.465 336.735C189.564 336.771 189.672 336.789 189.788 336.789C189.873 336.789 189.948 336.783 190.012 336.771C190.076 336.759 190.125 336.75 190.161 336.742L190.353 337.62C190.291 337.643 190.203 337.667 190.09 337.691C189.976 337.717 189.834 337.731 189.664 337.733C189.384 337.738 189.124 337.688 188.882 337.584C188.641 337.48 188.446 337.319 188.296 337.101C188.147 336.883 188.073 336.61 188.073 336.281V330.901ZM195.223 337.662V338.564H190.603V337.662H195.223ZM197.348 334.424V337.662H196.286V332.208H197.305V333.095H197.373C197.498 332.807 197.695 332.575 197.962 332.399C198.232 332.224 198.572 332.137 198.982 332.137C199.353 332.137 199.679 332.215 199.958 332.371C200.237 332.525 200.454 332.755 200.608 333.06C200.762 333.365 200.839 333.743 200.839 334.193V337.662H199.777V334.321C199.777 333.925 199.674 333.616 199.468 333.394C199.262 333.169 198.979 333.056 198.619 333.056C198.373 333.056 198.154 333.11 197.962 333.216C197.773 333.323 197.623 333.479 197.511 333.685C197.402 333.889 197.348 334.135 197.348 334.424ZM203.75 337.783C203.405 337.783 203.092 337.719 202.813 337.591C202.533 337.461 202.312 337.273 202.149 337.027C201.988 336.78 201.907 336.479 201.907 336.121C201.907 335.813 201.966 335.56 202.085 335.361C202.203 335.162 202.363 335.005 202.564 334.889C202.765 334.773 202.99 334.685 203.239 334.626C203.487 334.567 203.741 334.522 203.999 334.491C204.325 334.453 204.591 334.422 204.794 334.399C204.998 334.373 205.146 334.331 205.238 334.274C205.33 334.218 205.377 334.125 205.377 333.997V333.973C205.377 333.662 205.289 333.422 205.114 333.252C204.941 333.081 204.683 332.996 204.34 332.996C203.982 332.996 203.7 333.075 203.494 333.234C203.291 333.39 203.15 333.564 203.072 333.756L202.074 333.529C202.192 333.197 202.365 332.93 202.592 332.726C202.822 332.52 203.086 332.371 203.384 332.279C203.683 332.184 203.996 332.137 204.325 332.137C204.543 332.137 204.774 332.163 205.018 332.215C205.264 332.265 205.494 332.357 205.707 332.492C205.922 332.627 206.099 332.82 206.236 333.071C206.373 333.319 206.442 333.642 206.442 334.04V337.662H205.405V336.916H205.362C205.294 337.054 205.191 337.189 205.053 337.321C204.916 337.454 204.74 337.564 204.524 337.652C204.309 337.739 204.051 337.783 203.75 337.783ZM203.981 336.931C204.275 336.931 204.525 336.873 204.734 336.757C204.945 336.641 205.104 336.489 205.213 336.302C205.324 336.113 205.38 335.91 205.38 335.695V334.992C205.342 335.03 205.269 335.065 205.16 335.098C205.053 335.129 204.932 335.156 204.794 335.18C204.657 335.201 204.523 335.221 204.393 335.24C204.263 335.257 204.154 335.271 204.066 335.283C203.86 335.309 203.672 335.353 203.502 335.414C203.333 335.476 203.199 335.565 203.097 335.681C202.997 335.794 202.948 335.946 202.948 336.135C202.948 336.398 203.045 336.597 203.239 336.732C203.433 336.864 203.68 336.931 203.981 336.931ZM207.756 337.662V332.208H208.775V333.095H208.843C208.956 332.795 209.142 332.56 209.4 332.392C209.658 332.222 209.967 332.137 210.327 332.137C210.692 332.137 210.997 332.222 211.243 332.392C211.492 332.563 211.675 332.797 211.794 333.095H211.851C211.981 332.804 212.188 332.572 212.472 332.399C212.756 332.224 213.095 332.137 213.488 332.137C213.982 332.137 214.386 332.292 214.699 332.602C215.013 332.912 215.171 333.38 215.171 334.005V337.662H214.109V334.104C214.109 333.735 214.009 333.467 213.807 333.301C213.606 333.136 213.366 333.053 213.086 333.053C212.741 333.053 212.472 333.159 212.28 333.372C212.089 333.583 211.993 333.854 211.993 334.186V337.662H210.934V334.037C210.934 333.741 210.842 333.503 210.657 333.323C210.473 333.143 210.232 333.053 209.937 333.053C209.735 333.053 209.549 333.106 209.379 333.213C209.211 333.317 209.075 333.462 208.971 333.649C208.869 333.836 208.818 334.053 208.818 334.299V337.662H207.756ZM218.845 337.772C218.307 337.772 217.845 337.657 217.456 337.428C217.071 337.196 216.772 336.87 216.562 336.451C216.353 336.03 216.249 335.536 216.249 334.97C216.249 334.412 216.353 333.919 216.562 333.493C216.772 333.067 217.066 332.734 217.442 332.495C217.821 332.256 218.264 332.137 218.77 332.137C219.078 332.137 219.376 332.188 219.665 332.289C219.954 332.391 220.213 332.551 220.443 332.769C220.673 332.987 220.854 333.269 220.986 333.617C221.119 333.963 221.185 334.383 221.185 334.878V335.255H216.849V334.459H220.145C220.145 334.18 220.088 333.932 219.974 333.717C219.861 333.499 219.701 333.327 219.495 333.202C219.291 333.077 219.052 333.014 218.777 333.014C218.479 333.014 218.219 333.087 217.996 333.234C217.776 333.378 217.606 333.568 217.485 333.802C217.366 334.034 217.307 334.286 217.307 334.559V335.18C217.307 335.545 217.371 335.855 217.499 336.11C217.629 336.366 217.81 336.561 218.042 336.696C218.274 336.829 218.545 336.895 218.856 336.895C219.057 336.895 219.24 336.867 219.406 336.81C219.572 336.751 219.715 336.663 219.836 336.547C219.956 336.431 220.049 336.288 220.113 336.117L221.118 336.299C221.037 336.595 220.893 336.854 220.684 337.076C220.478 337.296 220.219 337.468 219.907 337.591C219.597 337.712 219.243 337.772 218.845 337.772ZM224.188 330.116V339.175H221.855V338.333H223.172V330.958H221.855V330.116H224.188Z" fill="#121212"/>
<rect x="-1" y="1" width="419" height="345" rx="7" transform="matrix(-1 0 0 1 514.572 124.662)" stroke="#E1E8F2" stroke-width="2" stroke-dasharray="8 8"/>
<defs>
<clipPath id="clip0_6536_42283">
<rect width="22" height="22" fill="white" transform="translate(115.905 145.662)"/>
</clipPath>
</defs>
</svg>
