<svg width="16" height="16" viewBox="0 0 16 16" fill="none" xmlns="http://www.w3.org/2000/svg">
<g clip-path="url(#clip0_5932_34885)">
<mask id="mask0_5932_34885" style="mask-type:alpha" maskUnits="userSpaceOnUse" x="2" y="1" width="24" height="25">
<rect x="2" y="1.5957" width="24" height="24" fill="#C4C4C4"/>
</mask>
<g mask="url(#mask0_5932_34885)">
<path d="M2.27539 11.9584V10.2959C2.27539 9.9709 2.36072 9.6709 2.53139 9.3959C2.70239 9.1209 2.92956 8.91257 3.21289 8.7709C3.74622 8.51257 4.28789 8.31456 4.83789 8.1769C5.38789 8.03956 5.95039 7.9709 6.52539 7.9709C7.10039 7.9709 7.66506 8.03757 8.21939 8.1709C8.77339 8.30423 9.30872 8.50423 9.82539 8.7709C10.1087 8.91257 10.3359 9.11873 10.5069 9.3894C10.6776 9.6604 10.7629 9.96256 10.7629 10.2959V11.9584H2.27539ZM6.52539 7.4709C5.93372 7.4709 5.43172 7.26456 5.01939 6.8519C4.60672 6.43957 4.40039 5.94173 4.40039 5.3584C4.40039 4.76673 4.60672 4.26457 5.01939 3.8519C5.43172 3.43957 5.93372 3.2334 6.52539 3.2334C7.10872 3.2334 7.60672 3.43957 8.01939 3.8519C8.43172 4.26457 8.63789 4.76673 8.63789 5.3584C8.63789 5.94173 8.43172 6.43957 8.01939 6.8519C7.60672 7.26456 7.10872 7.4709 6.52539 7.4709ZM11.8629 5.3584C11.8629 5.94173 11.6567 6.43957 11.2444 6.8519C10.8317 7.26456 10.3337 7.4709 9.75039 7.4709C9.65039 7.4709 9.53172 7.46057 9.39439 7.4399C9.25672 7.4189 9.13372 7.39173 9.02539 7.3584C9.25872 7.0834 9.43789 6.7729 9.56289 6.4269C9.68789 6.08123 9.75039 5.72507 9.75039 5.3584C9.75039 4.99173 9.68789 4.6354 9.56289 4.2894C9.43789 3.94373 9.25872 3.6334 9.02539 3.3584C9.15039 3.3084 9.27122 3.27507 9.38789 3.2584C9.50456 3.24173 9.62539 3.2334 9.75039 3.2334C10.3337 3.2334 10.8317 3.44173 11.2444 3.8584C11.6567 4.27507 11.8629 4.77507 11.8629 5.3584ZM11.8629 11.9584V10.2209C11.8629 9.83757 11.7651 9.46456 11.5694 9.1019C11.3734 8.73956 11.0796 8.40423 10.6879 8.0959C11.0629 8.15423 11.4192 8.23956 11.7569 8.3519C12.0942 8.46456 12.4129 8.60423 12.7129 8.7709C13.0379 8.93757 13.2879 9.14806 13.4629 9.4024C13.6379 9.6564 13.7254 9.93756 13.7254 10.2459V11.9584H11.8629Z" fill="white"/>
</g>
</g>
<rect x="0.5" y="0.5" width="15" height="15" rx="1.5" stroke="white"/>
<defs>
<clipPath id="clip0_5932_34885">
<rect width="12" height="12" fill="white" transform="translate(2 1.5957)"/>
</clipPath>
</defs>
</svg>
