<svg width="608" height="497" viewBox="0 0 608 497" fill="none" xmlns="http://www.w3.org/2000/svg">
<path d="M559.504 496L559.504 480.3M559.504 0L559.504 216.137M559.504 281.879L559.504 430.098" stroke="#97969C" stroke-dasharray="4 4"/>
<path d="M457.312 496L457.312 156.518M457.312 0L457.312 131.845" stroke="#97969C" stroke-dasharray="4 4"/>
<path d="M355.621 496L355.621 393.959M355.621 0L355.621 17.2514M355.621 311.244L355.621 66.8492" stroke="#97969C" stroke-dasharray="4 4"/>
<line x1="252.93" y1="496" x2="252.93" y2="2.16678e-08" stroke="#97969C" stroke-dasharray="4 4"/>
<path d="M150.738 496L150.738 185.059M150.738 0L150.738 101.985" stroke="#97969C" stroke-dasharray="4 4"/>
<path d="M48.5469 496.596L48.5469 375.113M48.5469 0.595703L48.5469 239.029M48.5469 329.094L48.5469 256.262" stroke="#97969C" stroke-dasharray="4 4"/>
<path d="M0 40.3301L330.227 40.3301M608 40.3301L379.607 40.3301" stroke="#97969C" stroke-dasharray="4 4"/>
<path d="M0 144.123L112.263 144.123M608 144.123H469.346M190.468 144.123L444.674 144.123" stroke="#97969C" stroke-dasharray="4 4"/>
<path d="M0 351.709H25.6723M608 351.709L396.708 351.709M316 351.709L73.3582 351.709" stroke="#97969C" stroke-dasharray="4 4"/>
<path d="M0 247.916H39.4795M608 247.916H592.678M527.354 247.916L57.1204 247.916" stroke="#97969C" stroke-dasharray="4 4"/>
<path d="M0 455.502L534.54 455.502M608 455.502H582.879" stroke="#97969C" stroke-dasharray="4 4"/>
<path d="M355.621 16.3496L365.803 30.1673L379.621 40.3496L365.803 50.5319L355.621 64.3496L345.439 50.5319L331.621 40.3496L345.439 30.1673L355.621 16.3496Z" stroke="#97969C" stroke-dasharray="4 4"/>
<path d="M559.48 431.584L569.663 445.402L583.48 455.584L569.663 465.766L559.48 479.584L549.298 465.766L535.48 455.584L549.298 445.402L559.48 431.584Z" stroke="#97969C" stroke-dasharray="4 4"/>
<path d="M48.6016 327.854L58.7839 341.671L72.6016 351.854L58.7839 362.036L48.6016 375.854L38.4192 362.036L24.6016 351.854L38.4192 341.671L48.6016 327.854Z" stroke="#97969C" stroke-dasharray="4 4"/>
<path d="M559.469 216L573.045 234.424L591.469 248L573.045 261.576L559.469 280L545.892 261.576L527.469 248L545.892 234.424L559.469 216Z" stroke="#97969C" stroke-dasharray="4 4"/>
<path d="M150.754 104.094L167.724 127.123L190.754 144.094L167.724 161.064L150.754 184.094L133.783 161.064L110.754 144.094L133.783 127.123L150.754 104.094Z" stroke="#97969C" stroke-dasharray="4 4"/>
<path d="M355.621 311.703L372.592 334.733L395.621 351.703L372.592 368.674L355.621 391.703L338.651 368.674L315.621 351.703L338.651 334.733L355.621 311.703Z" stroke="#97969C" stroke-dasharray="4 4"/>
<circle cx="457.246" cy="144.123" r="12" stroke="#97969C" stroke-dasharray="4 4"/>
<circle cx="48.5469" cy="247.916" r="8" stroke="#97969C" stroke-dasharray="4 4"/>
<rect x="-2" y="2" width="522.803" height="261.412" rx="6" transform="matrix(-1 0 0 1 579.48 218.668)" fill="#121212"/>
<rect x="-2" y="2" width="522.803" height="261.412" rx="6" transform="matrix(-1 0 0 1 579.48 218.668)" stroke="#121212" stroke-width="4"/>
<rect x="-2" y="2" width="522" height="248.61" rx="6" transform="matrix(-1 0 0 1 558 210.361)" fill="#F5F6F8"/>
<rect x="49.5" y="222" width="499" height="31" rx="4" fill="white"/>
<rect x="66.5" y="232.5" width="10" height="10" rx="5" fill="#EB5757"/>
<rect x="84.5" y="232.5" width="10" height="10" rx="5" fill="#F2C94C"/>
<rect x="102.5" y="232.5" width="10" height="10" rx="5" fill="#27AE60"/>
<path d="M528.065 231.5C528.065 230.948 527.617 230.5 527.065 230.5C526.513 230.5 526.065 230.948 526.065 231.5H528.065ZM526.065 243.5C526.065 244.052 526.513 244.5 527.065 244.5C527.617 244.5 528.065 244.052 528.065 243.5H526.065ZM526.065 231.5V243.5H528.065V231.5H526.065Z" fill="#E7EDF5"/>
<path d="M533.065 238.5C533.617 238.5 534.065 238.052 534.065 237.5C534.065 236.948 533.617 236.5 533.065 236.5L533.065 238.5ZM521.065 236.5C520.513 236.5 520.065 236.948 520.065 237.5C520.065 238.052 520.513 238.5 521.065 238.5L521.065 236.5ZM533.065 236.5L521.065 236.5L521.065 238.5L533.065 238.5L533.065 236.5Z" fill="#E7EDF5"/>
<rect x="-1" y="1" width="500" height="188" rx="7" transform="matrix(-1 0 0 1 548 261)" fill="#F5F6F8"/>
<line x1="64.1113" y1="314.725" x2="535.111" y2="314.725" stroke="#DFE7F2" stroke-width="2"/>
<path d="M95.53 294.63C98.95 294.63 100.246 292.902 100.246 290.976C100.246 289.212 99.382 287.88 96.844 287.394L94.702 286.98C93.298 286.71 92.974 286.53 92.974 285.756C92.974 285 93.46 284.658 95.008 284.658C96.79 284.658 97.312 285.072 97.312 286.332V286.53H99.976V286.386C99.976 283.992 98.536 282.21 95.098 282.21C91.642 282.21 90.292 284.028 90.292 285.864C90.292 287.736 91.264 288.906 93.568 289.302L95.692 289.68C97.384 289.968 97.564 290.256 97.564 291.066C97.564 291.876 97.186 292.182 95.656 292.182C93.478 292.182 92.992 291.804 92.992 290.472V290.292H90.346V290.526C90.346 293.19 91.984 294.63 95.53 294.63ZM106.137 294.63C108.729 294.63 110.385 293.496 110.385 291.57V291.39H107.721V291.498C107.721 292.056 107.253 292.29 106.173 292.29C104.697 292.29 104.193 291.786 104.139 290.526H110.349C110.403 290.22 110.475 289.698 110.475 289.194C110.475 286.836 108.873 285.216 106.155 285.216C103.329 285.216 101.601 287.052 101.601 289.95C101.601 292.812 103.023 294.63 106.137 294.63ZM106.065 287.43C107.325 287.43 107.937 287.952 107.883 288.888H104.157C104.265 287.934 104.769 287.43 106.065 287.43ZM115.924 293.496C117.292 293.496 118.246 292.884 118.642 292.182H118.75V293.586C118.75 294.99 118.462 295.314 117.04 295.314C115.492 295.314 115.222 295.08 115.222 294.144H112.54C112.54 296.448 114.124 297.69 116.95 297.69C119.866 297.69 121.432 296.394 121.432 293.442V285.396H118.93V286.71H118.84C118.354 285.72 117.328 285.216 116.032 285.216C113.458 285.216 112.09 286.854 112.09 289.374C112.09 291.894 113.422 293.496 115.924 293.496ZM114.772 289.374C114.772 288.096 115.222 287.502 116.77 287.502C118.066 287.502 118.75 287.952 118.75 289.104V289.644C118.75 290.796 118.048 291.246 116.752 291.246C115.222 291.246 114.772 290.652 114.772 289.374ZM126.306 294.45V289.212C126.306 287.934 126.846 287.538 128.07 287.538C129.366 287.538 129.762 287.988 129.762 289.248V294.45H132.462V289.248C132.462 287.934 132.984 287.538 134.208 287.538C135.522 287.538 135.9 287.988 135.9 289.248V294.45H138.6V288.708C138.6 286.782 137.646 285.216 135.306 285.216C133.632 285.216 132.732 285.99 132.228 286.98H132.138C131.688 285.918 130.752 285.216 129.204 285.216C127.656 285.216 126.72 285.954 126.234 286.98H126.126V285.396H123.624V294.45H126.306ZM144.899 294.63C147.491 294.63 149.147 293.496 149.147 291.57V291.39H146.483V291.498C146.483 292.056 146.015 292.29 144.935 292.29C143.459 292.29 142.955 291.786 142.901 290.526H149.111C149.165 290.22 149.237 289.698 149.237 289.194C149.237 286.836 147.635 285.216 144.917 285.216C142.091 285.216 140.363 287.052 140.363 289.95C140.363 292.812 141.785 294.63 144.899 294.63ZM144.827 287.43C146.087 287.43 146.699 287.952 146.645 288.888H142.919C143.027 287.934 143.531 287.43 144.827 287.43ZM153.753 294.45V289.32C153.753 287.952 154.311 287.538 155.607 287.538C156.975 287.538 157.389 287.988 157.389 289.248V294.45H160.089V288.708C160.089 286.782 159.081 285.216 156.723 285.216C155.139 285.216 154.167 285.954 153.681 286.98H153.573V285.396H151.071V294.45H153.753ZM166.316 294.486C166.946 294.486 167.648 294.396 168.08 294.306V292.056H166.964C165.794 292.056 165.524 291.966 165.524 291.174V287.628H168.08V285.396H165.524V283.29H163.4L162.896 285.396H161.384V287.628H162.824V291.48C162.824 293.622 163.958 294.486 166.316 294.486ZM173.813 294.63C176.315 294.63 177.701 293.55 177.701 291.858C177.701 290.382 176.909 289.518 175.001 289.158L173.345 288.816C172.265 288.6 172.103 288.474 172.103 288.042C172.103 287.61 172.355 287.376 173.435 287.376C174.587 287.376 174.839 287.7 174.839 288.294V288.546H177.413V288.294C177.413 286.26 175.721 285.216 173.507 285.216C170.933 285.216 169.565 286.404 169.565 288.078C169.565 289.752 170.537 290.508 172.319 290.832L173.687 291.084C174.893 291.3 175.145 291.408 175.145 291.894C175.145 292.344 174.965 292.506 173.867 292.506C172.553 292.506 172.157 292.362 172.157 291.696V291.318H169.583V291.372C169.583 293.568 170.969 294.63 173.813 294.63Z" fill="black"/>
<g clip-path="url(#clip0_6180_39674)">
<path d="M65.3335 279.283H66.5557V299.45H65.3335V279.283Z" fill="#CCD6DD"/>
<path d="M65.9447 281.116C66.9572 281.116 67.778 280.296 67.778 279.283C67.778 278.271 66.9572 277.45 65.9447 277.45C64.9321 277.45 64.1113 278.271 64.1113 279.283C64.1113 280.296 64.9321 281.116 65.9447 281.116Z" fill="#F4900C"/>
<path d="M69.0002 294.561H65.9446C65.6073 294.561 65.3335 294.287 65.3335 293.949C65.3335 293.612 65.6073 293.338 65.9446 293.338H69.0002C69.3375 293.338 69.6113 293.612 69.6113 293.949C69.6113 294.287 69.3375 294.561 69.0002 294.561Z" fill="#66757F"/>
<path d="M82.4445 293.95C82.4445 292.6 86.2389 290.283 84.8889 290.283H79.7269C78.9917 289.388 76.9188 288.45 75.4167 288.45C73.914 288.45 73.4428 289.388 73.3176 290.283H69.6112C68.2612 290.283 67.7778 291.378 67.7778 292.727V295.172C67.7778 296.522 68.2612 297.616 69.6112 297.616H84.8889C86.2389 297.616 82.4445 295.3 82.4445 293.95Z" fill="#DD2E44"/>
<path d="M70.8333 294.561C71.8459 294.561 72.6667 293.74 72.6667 292.727C72.6667 291.715 71.8459 290.894 70.8333 290.894C69.8208 290.894 69 291.715 69 292.727C69 293.74 69.8208 294.561 70.8333 294.561Z" fill="white"/>
<path d="M70.528 293.339C71.0343 293.339 71.4447 292.928 71.4447 292.422C71.4447 291.916 71.0343 291.505 70.528 291.505C70.0217 291.505 69.6113 291.916 69.6113 292.422C69.6113 292.928 70.0217 293.339 70.528 293.339Z" fill="black"/>
<path d="M84.8889 290.283H73.2545C74.5183 291.68 76.1524 294.234 73.2319 297.617H84.8889C86.2388 297.617 82.4444 295.3 82.4444 293.95C82.4444 292.6 86.2388 290.283 84.8889 290.283Z" fill="#F4ABBA"/>
<path d="M69.0002 284.783H65.9446C65.6073 284.783 65.3335 284.509 65.3335 284.172C65.3335 283.835 65.6073 283.561 65.9446 283.561H69.0002C69.3375 283.561 69.6113 283.835 69.6113 284.172C69.6113 284.509 69.3375 284.783 69.0002 284.783Z" fill="#66757F"/>
<path d="M82.4445 284.172C82.4445 282.822 86.2389 280.505 84.8889 280.505H79.7275C78.9923 279.611 76.9194 278.672 75.4167 278.672C73.914 278.672 73.4428 279.611 73.3176 280.505H69.6112C68.2612 280.505 67.7778 281.6 67.7778 282.95V285.394C67.7778 286.744 68.2612 287.839 69.6112 287.839H84.8889C86.2389 287.839 82.4445 285.522 82.4445 284.172Z" fill="#55ACEE"/>
<path d="M70.8333 284.783C71.8459 284.783 72.6667 283.962 72.6667 282.95C72.6667 281.937 71.8459 281.116 70.8333 281.116C69.8208 281.116 69 281.937 69 282.95C69 283.962 69.8208 284.783 70.8333 284.783Z" fill="white"/>
<path d="M70.528 283.561C71.0343 283.561 71.4447 283.15 71.4447 282.644C71.4447 282.138 71.0343 281.728 70.528 281.728C70.0217 281.728 69.6113 282.138 69.6113 282.644C69.6113 283.15 70.0217 283.561 70.528 283.561Z" fill="black"/>
<path d="M84.8889 280.505H73.2545C74.5183 281.902 76.1524 284.456 73.2319 287.839H84.8889C86.2388 287.839 82.4444 285.522 82.4444 284.172C82.4444 282.822 86.2388 280.505 84.8889 280.505Z" fill="#BBDDF5"/>
</g>
<rect x="504.5" y="273.45" width="30" height="30" rx="4" fill="white"/>
<path d="M520.5 282.45C520.5 281.897 520.052 281.45 519.5 281.45C518.948 281.45 518.5 281.897 518.5 282.45H520.5ZM518.5 294.45C518.5 295.002 518.948 295.45 519.5 295.45C520.052 295.45 520.5 295.002 520.5 294.45H518.5ZM518.5 282.45V294.45H520.5V282.45H518.5Z" fill="#B3C2D8"/>
<path d="M525.5 289.45C526.052 289.45 526.5 289.002 526.5 288.45C526.5 287.897 526.052 287.45 525.5 287.45L525.5 289.45ZM513.5 287.45C512.948 287.45 512.5 287.897 512.5 288.45C512.5 289.002 512.948 289.45 513.5 289.45L513.5 287.45ZM525.5 287.45L513.5 287.45L513.5 289.45L525.5 289.45L525.5 287.45Z" fill="#B3C2D8"/>
<rect x="64.6113" y="328.5" width="470" height="47" rx="3.5" fill="white"/>
<rect x="83.5" y="345.5" width="13" height="13" rx="1.5" stroke="#DFE7F2"/>
<rect x="120" y="341" width="115" height="22" rx="11" fill="#EEF1F7"/>
<rect x="458" y="348" width="40" height="8" rx="4" fill="#EEF1F7"/>
<rect x="300" y="348" width="113" height="8" rx="4" fill="#EEF1F7"/>
<rect x="64.6113" y="328.5" width="470" height="47" rx="3.5" stroke="black"/>
<rect x="64.6113" y="388.5" width="470" height="47" rx="3.5" fill="white"/>
<rect x="83.5" y="405.5" width="13" height="13" rx="1.5" stroke="#DFE7F2"/>
<rect x="300" y="408" width="105" height="8" rx="4" fill="#EEF1F7"/>
<g clip-path="url(#clip1_6180_39674)">
<path d="M119.361 411.639L122.25 409.111L128.028 409.472L128.389 415.25L125.861 418.139C125.861 418.139 125.862 415.973 123.695 413.806C121.528 411.639 119.361 411.639 119.361 411.639Z" fill="#A0041E"/>
<path d="M119.352 418.139C119.352 418.139 119.339 415.258 120.429 414.167C121.52 413.076 124.417 413.151 124.417 413.151C124.417 413.151 124.417 415.972 123.333 417.056C122.25 418.139 119.352 418.139 119.352 418.139V418.139Z" fill="#FFAC33"/>
<path d="M122.25 416.695C123.047 416.695 123.694 416.048 123.694 415.25C123.694 414.452 123.047 413.806 122.25 413.806C121.452 413.806 120.805 414.452 120.805 415.25C120.805 416.048 121.452 416.695 122.25 416.695Z" fill="#FFCC4D"/>
<path d="M132 405.5C132 405.5 128.388 405.5 124.055 409.111C121.888 410.917 121.888 414.167 122.611 414.889C123.333 415.611 126.583 415.611 128.388 413.444C132 409.111 132 405.5 132 405.5Z" fill="#55ACEE"/>
<path d="M128.75 407.306C128.164 407.306 127.662 407.656 127.435 408.158C127.616 408.076 127.816 408.028 128.028 408.028C128.825 408.028 129.472 408.675 129.472 409.472C129.472 409.684 129.424 409.884 129.342 410.065C129.844 409.838 130.194 409.336 130.194 408.75C130.194 407.952 129.548 407.306 128.75 407.306V407.306Z" fill="black"/>
<path d="M121.889 415.611C121.889 415.611 121.889 414.166 122.25 413.805C122.611 413.444 126.945 409.833 127.305 410.194C127.666 410.555 124.055 414.889 123.694 415.25C123.333 415.611 121.889 415.611 121.889 415.611Z" fill="#A0041E"/>
</g>
<path d="M143.571 407.773H144.892V413.513C144.892 414.124 144.749 414.665 144.462 415.136C144.175 415.605 143.771 415.974 143.251 416.244C142.732 416.511 142.122 416.645 141.423 416.645C140.727 416.645 140.119 416.511 139.599 416.244C139.08 415.974 138.676 415.605 138.389 415.136C138.102 414.665 137.959 414.124 137.959 413.513V407.773H139.276V413.406C139.276 413.801 139.362 414.152 139.536 414.459C139.712 414.766 139.96 415.007 140.281 415.183C140.602 415.357 140.983 415.443 141.423 415.443C141.866 415.443 142.249 415.357 142.57 415.183C142.893 415.007 143.141 414.766 143.311 414.459C143.484 414.152 143.571 413.801 143.571 413.406V407.773ZM151.489 411.553L150.334 411.757C150.286 411.609 150.209 411.469 150.104 411.335C150.002 411.202 149.863 411.092 149.686 411.007C149.51 410.922 149.29 410.879 149.026 410.879C148.665 410.879 148.364 410.96 148.123 411.122C147.881 411.281 147.76 411.487 147.76 411.74C147.76 411.959 147.841 412.135 148.003 412.268C148.165 412.402 148.427 412.511 148.787 412.597L149.827 412.835C150.429 412.974 150.878 413.189 151.174 413.479C151.469 413.768 151.617 414.145 151.617 414.608C151.617 415 151.503 415.349 151.276 415.656C151.052 415.96 150.738 416.199 150.334 416.372C149.934 416.545 149.469 416.632 148.941 416.632C148.208 416.632 147.61 416.476 147.147 416.163C146.684 415.848 146.4 415.401 146.294 414.821L147.526 414.634C147.603 414.955 147.76 415.197 147.999 415.362C148.238 415.524 148.549 415.605 148.932 415.605C149.35 415.605 149.684 415.518 149.934 415.345C150.184 415.169 150.309 414.955 150.309 414.702C150.309 414.497 150.232 414.325 150.079 414.186C149.928 414.047 149.696 413.942 149.384 413.871L148.276 413.628C147.665 413.489 147.213 413.267 146.921 412.963C146.631 412.659 146.486 412.274 146.486 411.808C146.486 411.422 146.594 411.084 146.81 410.794C147.026 410.504 147.324 410.278 147.705 410.116C148.086 409.952 148.522 409.869 149.013 409.869C149.721 409.869 150.277 410.023 150.684 410.33C151.09 410.634 151.358 411.041 151.489 411.553ZM155.719 416.632C155.074 416.632 154.519 416.494 154.053 416.219C153.59 415.94 153.232 415.55 152.979 415.047C152.729 414.541 152.604 413.949 152.604 413.27C152.604 412.599 152.729 412.009 152.979 411.497C153.232 410.986 153.584 410.587 154.036 410.3C154.49 410.013 155.021 409.869 155.629 409.869C155.999 409.869 156.357 409.93 156.703 410.053C157.05 410.175 157.361 410.366 157.636 410.628C157.912 410.889 158.129 411.229 158.288 411.646C158.448 412.061 158.527 412.565 158.527 413.159V413.611H153.324V412.656H157.278C157.278 412.321 157.21 412.024 157.074 411.766C156.938 411.504 156.746 411.298 156.499 411.148C156.254 410.997 155.967 410.922 155.638 410.922C155.28 410.922 154.967 411.01 154.7 411.186C154.436 411.359 154.232 411.587 154.087 411.868C153.945 412.146 153.874 412.449 153.874 412.776V413.521C153.874 413.959 153.95 414.331 154.104 414.638C154.26 414.945 154.477 415.179 154.756 415.341C155.034 415.5 155.359 415.58 155.732 415.58C155.973 415.58 156.193 415.545 156.392 415.477C156.591 415.406 156.763 415.301 156.908 415.162C157.053 415.023 157.163 414.851 157.24 414.646L158.446 414.864C158.349 415.219 158.176 415.53 157.926 415.797C157.679 416.061 157.368 416.267 156.993 416.415C156.621 416.56 156.196 416.632 155.719 416.632ZM159.821 416.5V409.955H161.052V410.994H161.12C161.24 410.642 161.45 410.365 161.751 410.163C162.055 409.959 162.399 409.857 162.782 409.857C162.862 409.857 162.956 409.859 163.064 409.865C163.174 409.871 163.261 409.878 163.324 409.886V411.105C163.272 411.091 163.182 411.075 163.051 411.058C162.92 411.038 162.79 411.028 162.659 411.028C162.358 411.028 162.089 411.092 161.853 411.22C161.62 411.345 161.436 411.52 161.299 411.744C161.163 411.966 161.095 412.219 161.095 412.503V416.5H159.821ZM169.211 411.553L168.056 411.757C168.008 411.609 167.931 411.469 167.826 411.335C167.724 411.202 167.585 411.092 167.408 411.007C167.232 410.922 167.012 410.879 166.748 410.879C166.387 410.879 166.086 410.96 165.845 411.122C165.603 411.281 165.482 411.487 165.482 411.74C165.482 411.959 165.563 412.135 165.725 412.268C165.887 412.402 166.149 412.511 166.509 412.597L167.549 412.835C168.151 412.974 168.6 413.189 168.896 413.479C169.191 413.768 169.339 414.145 169.339 414.608C169.339 415 169.225 415.349 168.998 415.656C168.774 415.96 168.46 416.199 168.056 416.372C167.656 416.545 167.191 416.632 166.663 416.632C165.93 416.632 165.332 416.476 164.869 416.163C164.406 415.848 164.122 415.401 164.016 414.821L165.248 414.634C165.325 414.955 165.482 415.197 165.721 415.362C165.96 415.524 166.271 415.605 166.654 415.605C167.072 415.605 167.406 415.518 167.656 415.345C167.906 415.169 168.031 414.955 168.031 414.702C168.031 414.497 167.954 414.325 167.801 414.186C167.65 414.047 167.418 413.942 167.106 413.871L165.998 413.628C165.387 413.489 164.935 413.267 164.643 412.963C164.353 412.659 164.208 412.274 164.208 411.808C164.208 411.422 164.316 411.084 164.532 410.794C164.748 410.504 165.046 410.278 165.427 410.116C165.808 409.952 166.244 409.869 166.735 409.869C167.443 409.869 167.999 410.023 168.406 410.33C168.812 410.634 169.08 411.041 169.211 411.553ZM174.95 412.614V416.5H173.676V409.955H174.899V411.02H174.98C175.13 410.673 175.366 410.395 175.687 410.185C176.011 409.974 176.418 409.869 176.91 409.869C177.356 409.869 177.747 409.963 178.082 410.151C178.417 410.335 178.677 410.611 178.862 410.977C179.046 411.344 179.139 411.797 179.139 412.337V416.5H177.865V412.49C177.865 412.016 177.741 411.645 177.494 411.378C177.247 411.108 176.907 410.973 176.475 410.973C176.18 410.973 175.917 411.037 175.687 411.165C175.46 411.293 175.279 411.48 175.146 411.727C175.015 411.972 174.95 412.267 174.95 412.614ZM183.548 416.632C182.904 416.632 182.348 416.494 181.882 416.219C181.419 415.94 181.061 415.55 180.808 415.047C180.558 414.541 180.433 413.949 180.433 413.27C180.433 412.599 180.558 412.009 180.808 411.497C181.061 410.986 181.414 410.587 181.865 410.3C182.32 410.013 182.851 409.869 183.459 409.869C183.828 409.869 184.186 409.93 184.533 410.053C184.879 410.175 185.191 410.366 185.466 410.628C185.742 410.889 185.959 411.229 186.118 411.646C186.277 412.061 186.357 412.565 186.357 413.159V413.611H181.154V412.656H185.108C185.108 412.321 185.04 412.024 184.904 411.766C184.767 411.504 184.575 411.298 184.328 411.148C184.084 410.997 183.797 410.922 183.468 410.922C183.11 410.922 182.797 411.01 182.53 411.186C182.266 411.359 182.061 411.587 181.916 411.868C181.774 412.146 181.703 412.449 181.703 412.776V413.521C181.703 413.959 181.78 414.331 181.933 414.638C182.09 414.945 182.307 415.179 182.585 415.341C182.864 415.5 183.189 415.58 183.561 415.58C183.803 415.58 184.023 415.545 184.222 415.477C184.421 415.406 184.593 415.301 184.737 415.162C184.882 415.023 184.993 414.851 185.07 414.646L186.276 414.864C186.179 415.219 186.006 415.53 185.756 415.797C185.509 416.061 185.198 416.267 184.823 416.415C184.45 416.56 184.026 416.632 183.548 416.632ZM189.058 416.5L187.132 409.955H188.448L189.731 414.761H189.795L191.082 409.955H192.399L193.677 414.74H193.741L195.015 409.955H196.332L194.41 416.5H193.11L191.781 411.774H191.683L190.353 416.5H189.058ZM198.695 407.773V416.5H197.421V407.773H198.695ZM201.095 418.955C200.904 418.955 200.731 418.939 200.575 418.908C200.419 418.879 200.302 418.848 200.225 418.814L200.532 417.77C200.765 417.832 200.973 417.859 201.154 417.851C201.336 417.842 201.497 417.774 201.636 417.646C201.778 417.518 201.903 417.31 202.011 417.02L202.169 416.585L199.774 409.955H201.137L202.795 415.034H202.863L204.521 409.955H205.889L203.191 417.374C203.066 417.714 202.907 418.003 202.714 418.239C202.521 418.477 202.291 418.656 202.024 418.776C201.757 418.895 201.447 418.955 201.095 418.955ZM212.779 416.632C212.165 416.632 211.63 416.491 211.173 416.21C210.715 415.929 210.36 415.536 210.107 415.03C209.854 414.524 209.728 413.933 209.728 413.257C209.728 412.578 209.854 411.984 210.107 411.476C210.36 410.967 210.715 410.572 211.173 410.291C211.63 410.01 212.165 409.869 212.779 409.869C213.393 409.869 213.928 410.01 214.386 410.291C214.843 410.572 215.198 410.967 215.451 411.476C215.704 411.984 215.83 412.578 215.83 413.257C215.83 413.933 215.704 414.524 215.451 415.03C215.198 415.536 214.843 415.929 214.386 416.21C213.928 416.491 213.393 416.632 212.779 416.632ZM212.783 415.562C213.181 415.562 213.511 415.457 213.772 415.247C214.033 415.037 214.227 414.757 214.352 414.408C214.479 414.058 214.543 413.673 214.543 413.253C214.543 412.835 214.479 412.452 214.352 412.102C214.227 411.75 214.033 411.467 213.772 411.254C213.511 411.041 213.181 410.935 212.783 410.935C212.383 410.935 212.05 411.041 211.786 411.254C211.525 411.467 211.33 411.75 211.202 412.102C211.077 412.452 211.015 412.835 211.015 413.253C211.015 413.673 211.077 414.058 211.202 414.408C211.33 414.757 211.525 415.037 211.786 415.247C212.05 415.457 212.383 415.562 212.783 415.562ZM218.407 412.614V416.5H217.132V409.955H218.355V411.02H218.436C218.587 410.673 218.823 410.395 219.144 410.185C219.468 409.974 219.875 409.869 220.367 409.869C220.813 409.869 221.203 409.963 221.539 410.151C221.874 410.335 222.134 410.611 222.319 410.977C222.503 411.344 222.596 411.797 222.596 412.337V416.5H221.321V412.49C221.321 412.016 221.198 411.645 220.951 411.378C220.703 411.108 220.364 410.973 219.932 410.973C219.637 410.973 219.374 411.037 219.144 411.165C218.917 411.293 218.736 411.48 218.603 411.727C218.472 411.972 218.407 412.267 218.407 412.614ZM224.287 416.5V407.773H225.561V411.016H225.637C225.711 410.879 225.818 410.722 225.957 410.543C226.096 410.364 226.289 410.207 226.537 410.074C226.784 409.938 227.11 409.869 227.517 409.869C228.045 409.869 228.517 410.003 228.932 410.27C229.346 410.537 229.672 410.922 229.907 411.425C230.146 411.928 230.265 412.533 230.265 413.24C230.265 413.947 230.147 414.554 229.912 415.06C229.676 415.562 229.352 415.95 228.94 416.223C228.528 416.493 228.058 416.628 227.53 416.628C227.132 416.628 226.807 416.561 226.554 416.428C226.304 416.294 226.108 416.138 225.966 415.959C225.824 415.78 225.714 415.621 225.637 415.482H225.531V416.5H224.287ZM225.535 413.227C225.535 413.687 225.602 414.091 225.735 414.438C225.869 414.784 226.062 415.055 226.315 415.251C226.568 415.445 226.878 415.541 227.244 415.541C227.625 415.541 227.943 415.44 228.199 415.239C228.454 415.034 228.647 414.757 228.778 414.408C228.912 414.058 228.978 413.665 228.978 413.227C228.978 412.795 228.913 412.408 228.782 412.064C228.655 411.72 228.461 411.449 228.203 411.25C227.947 411.051 227.628 410.952 227.244 410.952C226.875 410.952 226.562 411.047 226.307 411.237C226.054 411.428 225.862 411.693 225.731 412.034C225.601 412.375 225.535 412.773 225.535 413.227ZM234.333 416.632C233.72 416.632 233.184 416.491 232.727 416.21C232.269 415.929 231.914 415.536 231.661 415.03C231.408 414.524 231.282 413.933 231.282 413.257C231.282 412.578 231.408 411.984 231.661 411.476C231.914 410.967 232.269 410.572 232.727 410.291C233.184 410.01 233.72 409.869 234.333 409.869C234.947 409.869 235.482 410.01 235.94 410.291C236.397 410.572 236.752 410.967 237.005 411.476C237.258 411.984 237.384 412.578 237.384 413.257C237.384 413.933 237.258 414.524 237.005 415.03C236.752 415.536 236.397 415.929 235.94 416.21C235.482 416.491 234.947 416.632 234.333 416.632ZM234.337 415.562C234.735 415.562 235.065 415.457 235.326 415.247C235.587 415.037 235.781 414.757 235.906 414.408C236.033 414.058 236.097 413.673 236.097 413.253C236.097 412.835 236.033 412.452 235.906 412.102C235.781 411.75 235.587 411.467 235.326 411.254C235.065 411.041 234.735 410.935 234.337 410.935C233.937 410.935 233.604 411.041 233.34 411.254C233.079 411.467 232.884 411.75 232.756 412.102C232.631 412.452 232.569 412.835 232.569 413.253C232.569 413.673 232.631 414.058 232.756 414.408C232.884 414.757 233.079 415.037 233.34 415.247C233.604 415.457 233.937 415.562 234.337 415.562ZM240.591 416.645C240.177 416.645 239.802 416.568 239.466 416.415C239.131 416.259 238.866 416.033 238.669 415.737C238.476 415.442 238.38 415.08 238.38 414.651C238.38 414.281 238.451 413.977 238.593 413.739C238.735 413.5 238.927 413.311 239.168 413.172C239.41 413.033 239.679 412.928 239.978 412.857C240.276 412.786 240.58 412.732 240.89 412.695C241.282 412.649 241.6 412.612 241.844 412.584C242.089 412.553 242.266 412.503 242.377 412.435C242.488 412.366 242.543 412.256 242.543 412.102V412.072C242.543 411.7 242.438 411.412 242.228 411.207C242.02 411.003 241.711 410.901 241.299 410.901C240.87 410.901 240.532 410.996 240.285 411.186C240.04 411.374 239.871 411.582 239.777 411.812L238.58 411.54C238.722 411.142 238.929 410.821 239.202 410.577C239.478 410.33 239.794 410.151 240.152 410.04C240.51 409.926 240.887 409.869 241.282 409.869C241.543 409.869 241.82 409.901 242.113 409.963C242.408 410.023 242.684 410.134 242.939 410.295C243.198 410.457 243.41 410.689 243.574 410.99C243.739 411.288 243.821 411.676 243.821 412.153V416.5H242.577V415.605H242.526C242.444 415.77 242.32 415.932 242.155 416.091C241.991 416.25 241.779 416.382 241.52 416.487C241.262 416.592 240.952 416.645 240.591 416.645ZM240.868 415.622C241.221 415.622 241.522 415.553 241.772 415.413C242.025 415.274 242.216 415.092 242.347 414.868C242.481 414.641 242.547 414.398 242.547 414.139V413.295C242.502 413.341 242.414 413.384 242.283 413.423C242.155 413.46 242.009 413.493 241.844 413.521C241.679 413.547 241.519 413.571 241.363 413.594C241.206 413.614 241.076 413.631 240.971 413.645C240.723 413.676 240.498 413.729 240.293 413.803C240.091 413.876 239.929 413.983 239.807 414.122C239.688 414.259 239.628 414.44 239.628 414.668C239.628 414.983 239.745 415.222 239.978 415.384C240.211 415.543 240.508 415.622 240.868 415.622ZM245.399 416.5V409.955H246.63V410.994H246.698C246.818 410.642 247.028 410.365 247.329 410.163C247.633 409.959 247.977 409.857 248.36 409.857C248.44 409.857 248.534 409.859 248.641 409.865C248.752 409.871 248.839 409.878 248.901 409.886V411.105C248.85 411.091 248.759 411.075 248.629 411.058C248.498 411.038 248.367 411.028 248.237 411.028C247.935 411.028 247.667 411.092 247.431 411.22C247.198 411.345 247.014 411.52 246.877 411.744C246.741 411.966 246.673 412.219 246.673 412.503V416.5H245.399ZM252.1 416.628C251.572 416.628 251.1 416.493 250.685 416.223C250.273 415.95 249.949 415.562 249.714 415.06C249.481 414.554 249.364 413.947 249.364 413.24C249.364 412.533 249.482 411.928 249.718 411.425C249.956 410.922 250.283 410.537 250.698 410.27C251.113 410.003 251.583 409.869 252.108 409.869C252.515 409.869 252.841 409.938 253.089 410.074C253.339 410.207 253.532 410.364 253.668 410.543C253.807 410.722 253.915 410.879 253.992 411.016H254.069V407.773H255.343V416.5H254.099V415.482H253.992C253.915 415.621 253.804 415.78 253.66 415.959C253.518 416.138 253.322 416.294 253.072 416.428C252.822 416.561 252.498 416.628 252.1 416.628ZM252.381 415.541C252.748 415.541 253.057 415.445 253.31 415.251C253.566 415.055 253.759 414.784 253.89 414.438C254.023 414.091 254.09 413.687 254.09 413.227C254.09 412.773 254.025 412.375 253.894 412.034C253.763 411.693 253.572 411.428 253.319 411.237C253.066 411.047 252.753 410.952 252.381 410.952C251.998 410.952 251.678 411.051 251.422 411.25C251.167 411.449 250.974 411.72 250.843 412.064C250.715 412.408 250.651 412.795 250.651 413.227C250.651 413.665 250.716 414.058 250.847 414.408C250.978 414.757 251.171 415.034 251.427 415.239C251.685 415.44 252.003 415.541 252.381 415.541ZM259.862 416.632C259.218 416.632 258.662 416.494 258.196 416.219C257.733 415.94 257.375 415.55 257.122 415.047C256.872 414.541 256.747 413.949 256.747 413.27C256.747 412.599 256.872 412.009 257.122 411.497C257.375 410.986 257.727 410.587 258.179 410.3C258.634 410.013 259.165 409.869 259.773 409.869C260.142 409.869 260.5 409.93 260.847 410.053C261.193 410.175 261.504 410.366 261.78 410.628C262.056 410.889 262.273 411.229 262.432 411.646C262.591 412.061 262.671 412.565 262.671 413.159V413.611H257.468V412.656H261.422C261.422 412.321 261.354 412.024 261.218 411.766C261.081 411.504 260.889 411.298 260.642 411.148C260.398 410.997 260.111 410.922 259.781 410.922C259.423 410.922 259.111 411.01 258.844 411.186C258.58 411.359 258.375 411.587 258.23 411.868C258.088 412.146 258.017 412.449 258.017 412.776V413.521C258.017 413.959 258.094 414.331 258.247 414.638C258.404 414.945 258.621 415.179 258.899 415.341C259.178 415.5 259.503 415.58 259.875 415.58C260.117 415.58 260.337 415.545 260.536 415.477C260.735 415.406 260.906 415.301 261.051 415.162C261.196 415.023 261.307 414.851 261.384 414.646L262.59 414.864C262.493 415.219 262.32 415.53 262.07 415.797C261.823 416.061 261.512 416.267 261.137 416.415C260.764 416.56 260.34 416.632 259.862 416.632ZM266.415 416.628C265.886 416.628 265.415 416.493 265 416.223C264.588 415.95 264.264 415.562 264.028 415.06C263.795 414.554 263.679 413.947 263.679 413.24C263.679 412.533 263.797 411.928 264.033 411.425C264.271 410.922 264.598 410.537 265.013 410.27C265.427 410.003 265.898 409.869 266.423 409.869C266.829 409.869 267.156 409.938 267.403 410.074C267.653 410.207 267.846 410.364 267.983 410.543C268.122 410.722 268.23 410.879 268.307 411.016H268.383V407.773H269.658V416.5H268.413V415.482H268.307C268.23 415.621 268.119 415.78 267.974 415.959C267.832 416.138 267.636 416.294 267.386 416.428C267.136 416.561 266.812 416.628 266.415 416.628ZM266.696 415.541C267.062 415.541 267.372 415.445 267.625 415.251C267.881 415.055 268.074 414.784 268.204 414.438C268.338 414.091 268.405 413.687 268.405 413.227C268.405 412.773 268.339 412.375 268.209 412.034C268.078 411.693 267.886 411.428 267.633 411.237C267.381 411.047 267.068 410.952 266.696 410.952C266.312 410.952 265.993 411.051 265.737 411.25C265.481 411.449 265.288 411.72 265.158 412.064C265.03 412.408 264.966 412.795 264.966 413.227C264.966 413.665 265.031 414.058 265.162 414.408C265.292 414.757 265.486 415.034 265.741 415.239C266 415.44 266.318 415.541 266.696 415.541Z" fill="#636369"/>
<rect x="458" y="408" width="40" height="8" rx="4" fill="#EEF1F7"/>
<rect x="64.6113" y="388.5" width="470" height="47" rx="3.5" stroke="black"/>
<rect x="-1" y="1" width="500" height="188" rx="7" transform="matrix(-1 0 0 1 548 261)" stroke="#E1E8F2" stroke-width="2" stroke-dasharray="8 8"/>
<rect x="-2" y="2" width="522" height="248.61" rx="6" transform="matrix(-1 0 0 1 558 210.361)" stroke="#121212" stroke-width="4"/>
<rect x="-2" y="2" width="313.586" height="165.259" rx="6" transform="matrix(-1 0 0 1 362.051 21.7959)" fill="#121212"/>
<rect x="-2" y="2" width="313.586" height="165.259" rx="6" transform="matrix(-1 0 0 1 362.051 21.7959)" stroke="#121212" stroke-width="4"/>
<rect x="-2" y="2" width="313.101" height="157.095" rx="6" transform="matrix(-1 0 0 1 349.102 16.498)" fill="#F5F6F8"/>
<rect x="-1" y="1" width="292" height="135" rx="7" transform="matrix(-1 0 0 1 339.57 28.5459)" fill="#F5F6F8"/>
<rect x="-1" y="1" width="292" height="135" rx="7" transform="matrix(-1 0 0 1 339.57 28.5459)" stroke="#E1E8F2" stroke-width="2" stroke-dasharray="8 8"/>
<rect x="64.5703" y="63.7959" width="122" height="87" rx="4" fill="#F1EAFF"/>
<path d="M79.2368 127.478L81.8109 129.56C84.385 131.642 89.5331 135.806 94.6813 132.959C99.8294 130.112 104.978 120.253 110.126 120.513C115.274 120.773 120.422 131.151 125.57 136.277C130.718 141.403 135.866 141.277 141.015 139.633C146.163 137.989 151.311 134.826 156.459 128.471C161.607 122.115 166.755 112.566 171.903 105.711" stroke="#C6A9FF" stroke-width="2" stroke-linecap="round"/>
<path d="M90.1784 102.416C95.7584 102.416 99.5024 100.148 99.5024 95.5037C99.5024 92.0477 97.4864 89.8877 94.1744 89.4197V89.2757C97.2344 88.8437 98.6384 86.7917 98.6384 84.0197C98.6384 79.8077 95.3984 77.5757 89.9624 77.5757C83.9144 77.5757 80.6744 80.7077 80.6744 85.3157V85.6397H84.4904V85.3517C84.4904 82.3277 85.7504 81.1397 89.9264 81.1397C93.3104 81.1397 94.7504 82.1117 94.7504 84.6317C94.7504 87.1517 93.5264 87.9437 90.3584 87.9437H86.0744V91.1837H90.8984C94.2464 91.1837 95.5784 92.0837 95.5784 95.1077C95.5784 97.9157 94.0664 98.8517 90.2504 98.8517C85.4984 98.8517 84.4904 97.6637 84.4904 94.6397V94.0997H80.6744V94.6757C80.6744 99.2837 83.3024 102.416 90.1784 102.416ZM111.619 102.416C118.279 102.416 121.267 99.1757 121.267 94.1717C121.267 89.3117 118.135 86.4317 112.987 86.4317C109.819 86.4317 107.551 87.4037 106.291 88.4477H106.183L106.759 81.4277H119.971V77.9357H103.339L102.511 90.7517L105.931 91.2917C107.119 90.6077 108.847 89.7797 111.799 89.7797C115.867 89.7797 117.415 91.0397 117.415 94.2797C117.415 97.6637 116.011 98.8517 111.763 98.8517C107.767 98.8517 105.967 97.9157 105.967 95.2157V94.9997H102.115V95.2157C102.115 99.6437 105.355 102.416 111.619 102.416ZM134.545 102.416C141.025 102.416 144.985 97.6277 144.985 89.9957C144.985 82.3637 141.025 77.5757 134.545 77.5757C128.065 77.5757 124.141 82.3637 124.141 89.9957C124.141 97.6277 128.065 102.416 134.545 102.416ZM134.545 98.6717C130.261 98.6717 128.281 96.3677 128.281 89.9957C128.281 83.6237 130.261 81.3197 134.545 81.3197C138.829 81.3197 140.845 83.6237 140.845 89.9957C140.845 96.3677 138.829 98.6717 134.545 98.6717Z" fill="black"/>
<path d="M87.5903 54.4159C89.8703 54.4159 90.7343 53.2639 90.7343 51.9799C90.7343 50.8039 90.1583 49.9159 88.4663 49.5919L87.0383 49.3159C86.1023 49.1359 85.8863 49.0159 85.8863 48.4999C85.8863 47.9959 86.2103 47.7679 87.2423 47.7679C88.4303 47.7679 88.7783 48.0439 88.7783 48.8839V49.0159H90.5543V48.9199C90.5543 47.3239 89.5943 46.1359 87.3023 46.1359C84.9983 46.1359 84.0983 47.3479 84.0983 48.5719C84.0983 49.8199 84.7463 50.5999 86.2823 50.8639L87.6983 51.1159C88.8263 51.3079 88.9463 51.4999 88.9463 52.0399C88.9463 52.5799 88.6943 52.7839 87.6743 52.7839C86.2223 52.7839 85.8983 52.5319 85.8983 51.6439V51.5239H84.1343V51.6799C84.1343 53.4559 85.2263 54.4159 87.5903 54.4159ZM94.4214 54.4159C96.1494 54.4159 97.2534 53.6599 97.2534 52.3759V52.2559H95.4774V52.3279C95.4774 52.6999 95.1654 52.8559 94.4454 52.8559C93.4614 52.8559 93.1254 52.5199 93.0894 51.6799H97.2294C97.2654 51.4759 97.3134 51.1279 97.3134 50.7919C97.3134 49.2199 96.2454 48.1399 94.4334 48.1399C92.5494 48.1399 91.3974 49.3639 91.3974 51.2959C91.3974 53.2039 92.3454 54.4159 94.4214 54.4159ZM94.3734 49.6159C95.2134 49.6159 95.6214 49.9639 95.5854 50.5879H93.1014C93.1734 49.9519 93.5094 49.6159 94.3734 49.6159ZM100.084 54.2959V50.8759C100.084 49.9639 100.456 49.6879 101.32 49.6879C102.232 49.6879 102.508 49.9879 102.508 50.8279V54.2959H104.308V50.4679C104.308 49.1839 103.636 48.1399 102.064 48.1399C101.008 48.1399 100.36 48.6319 100.036 49.3159H99.9639V48.2599H98.2959V54.2959H100.084ZM108.219 54.3199C108.639 54.3199 109.107 54.2599 109.395 54.1999V52.6999H108.651C107.871 52.6999 107.691 52.6399 107.691 52.1119V49.7479H109.395V48.2599H107.691V46.8559H106.275L105.939 48.2599H104.931V49.7479H105.891V52.3159C105.891 53.7439 106.647 54.3199 108.219 54.3199Z" fill="black"/>
<g clip-path="url(#clip2_6180_39674)">
<path d="M78.8817 50.3348L75.1738 48.9623L73.7892 44.4244C73.7358 44.2494 73.5738 44.1294 73.3908 44.1294C73.2079 44.1294 73.0458 44.2494 72.9925 44.4244L71.6083 48.9623L67.9 50.3348C67.7363 50.3956 67.6279 50.5511 67.6279 50.7256C67.6279 50.8998 67.7363 51.0561 67.9 51.1165L71.6063 52.4886L72.9913 57.1648C73.0438 57.3415 73.2063 57.4627 73.3908 57.4627C73.575 57.4627 73.7379 57.3415 73.7904 57.1644L75.1754 52.4881L78.8821 51.1161C79.045 51.0561 79.1538 50.9002 79.1538 50.7256C79.1538 50.5515 79.045 50.3956 78.8817 50.3348Z" fill="#FFAC33"/>
<path d="M70.5481 54.9184L69.5839 54.5617L69.2089 53.1867C69.1597 53.005 68.9951 52.8792 68.8072 52.8792C68.6193 52.8792 68.4547 53.005 68.4052 53.1863L68.0301 54.5613L67.0664 54.9179C66.9026 54.9784 66.7943 55.1346 66.7943 55.3088C66.7943 55.4829 66.9026 55.6392 67.0664 55.6996L68.0251 56.055L68.4031 57.5642C68.4497 57.7492 68.616 57.8792 68.8072 57.8792C68.9985 57.8792 69.1647 57.7492 69.2114 57.5638L69.5893 56.0546L70.5481 55.6992C70.7118 55.6392 70.8202 55.4829 70.8202 55.3088C70.8202 55.1346 70.7118 54.9784 70.5481 54.9184ZM68.7406 45.8921L67.7556 45.5275L67.3906 44.5421C67.3301 44.3784 67.1743 44.27 66.9997 44.27C66.8256 44.27 66.6697 44.3784 66.6089 44.5421L66.2443 45.5275L65.2589 45.8921C65.0951 45.9529 64.9868 46.1088 64.9868 46.2829C64.9868 46.4571 65.0951 46.6134 65.2589 46.6738L66.2443 47.0384L66.6089 48.0238C66.6697 48.1875 66.8256 48.2959 66.9997 48.2959C67.1739 48.2959 67.3297 48.1875 67.3906 48.0238L67.7551 47.0384L68.7406 46.6738C68.9043 46.6129 69.0126 46.4571 69.0126 46.2829C69.0126 46.1088 68.9043 45.9529 68.7406 45.8921Z" fill="#FFCC4D"/>
</g>
<path d="M225.206 55.27C227.786 55.27 229.37 53.77 229.37 51.25C229.37 48.73 227.786 47.23 225.206 47.23H222.134V55.27H225.206ZM225.182 48.85C226.814 48.85 227.438 49.342 227.438 51.25C227.438 53.158 226.814 53.65 225.182 53.65H223.934V48.85H225.182ZM233.183 55.39C234.911 55.39 236.015 54.634 236.015 53.35V53.23H234.239V53.302C234.239 53.674 233.927 53.83 233.207 53.83C232.223 53.83 231.887 53.494 231.851 52.654H235.991C236.027 52.45 236.075 52.102 236.075 51.766C236.075 50.194 235.007 49.114 233.195 49.114C231.311 49.114 230.159 50.338 230.159 52.27C230.159 54.178 231.107 55.39 233.183 55.39ZM233.135 50.59C233.975 50.59 234.383 50.938 234.347 51.562H231.863C231.935 50.926 232.271 50.59 233.135 50.59ZM238.857 55.27V47.23H237.069V55.27H238.857ZM241.776 48.55V47.23H239.988L240.012 48.55H241.776ZM241.812 55.27V49.234H240.012V55.27H241.812ZM246.863 55.27L249.215 49.234H247.247L245.807 53.542H245.675L244.235 49.234H242.231L244.571 55.27H246.863ZM252.378 55.39C254.106 55.39 255.21 54.634 255.21 53.35V53.23H253.434V53.302C253.434 53.674 253.122 53.83 252.402 53.83C251.418 53.83 251.082 53.494 251.046 52.654H255.186C255.222 52.45 255.27 52.102 255.27 51.766C255.27 50.194 254.202 49.114 252.39 49.114C250.506 49.114 249.354 50.338 249.354 52.27C249.354 54.178 250.302 55.39 252.378 55.39ZM252.33 50.59C253.17 50.59 253.578 50.938 253.542 51.562H251.058C251.13 50.926 251.466 50.59 252.33 50.59ZM258.04 55.27V51.49C258.04 50.83 258.304 50.638 258.856 50.638C259.42 50.638 259.624 50.842 259.624 51.49V51.814H261.412V51.262C261.412 50.05 260.944 49.114 259.684 49.114C258.832 49.114 258.292 49.594 257.992 50.206H257.92V49.234H256.252V55.27H258.04ZM265.052 55.39C266.78 55.39 267.884 54.634 267.884 53.35V53.23H266.108V53.302C266.108 53.674 265.796 53.83 265.076 53.83C264.092 53.83 263.756 53.494 263.72 52.654H267.86C267.896 52.45 267.944 52.102 267.944 51.766C267.944 50.194 266.876 49.114 265.064 49.114C263.18 49.114 262.028 50.338 262.028 52.27C262.028 54.178 262.976 55.39 265.052 55.39ZM265.004 50.59C265.844 50.59 266.252 50.938 266.216 51.562H263.732C263.804 50.926 264.14 50.59 265.004 50.59ZM271.396 55.39C272.284 55.39 272.968 55.03 273.28 54.382H273.34V55.27H275.008V47.23H273.22V50.026H273.148C272.872 49.522 272.32 49.114 271.396 49.114C269.752 49.114 268.78 50.35 268.78 52.258C268.78 54.154 269.692 55.39 271.396 55.39ZM270.568 52.258C270.568 51.154 270.856 50.65 271.9 50.65C272.752 50.65 273.22 50.95 273.22 51.766V52.738C273.22 53.554 272.752 53.854 271.9 53.854C270.856 53.854 270.568 53.35 270.568 52.258Z" fill="black"/>
<g clip-path="url(#clip3_6180_39674)">
<path d="M211.737 58.0199C211.737 58.9403 208.404 58.9403 208.404 58.0199V53.8532C208.404 52.9328 209.15 52.1865 210.07 52.1865C210.991 52.1865 211.737 52.9328 211.737 53.8532V58.0199Z" fill="#C1694F"/>
<path d="M206.737 45.52C204.896 45.52 203.404 47.0125 203.404 48.8534V53.8534H210.07V48.8534C210.07 47.0125 208.578 45.52 206.737 45.52Z" fill="#292F33"/>
<path d="M210.904 52.0871C210.904 52.6021 210.46 53.02 209.948 53.02H203.526C203.014 53.02 202.57 52.6021 202.57 52.0871V47.7029C202.57 47.1879 203.014 46.77 203.526 46.77H209.948C210.46 46.77 210.904 47.1879 210.904 47.7029V52.0871V52.0871Z" fill="#CCD6DD"/>
<path d="M210.904 47.7029C210.904 47.1879 210.46 46.77 209.948 46.77H203.526C203.014 46.77 202.57 47.1879 202.57 47.7029V48.2942L204.603 50.3375L202.612 52.34C202.658 52.4967 202.743 52.6384 202.86 52.7496L204.932 50.6671L205.934 51.675C206.373 52.1167 207.088 52.1167 207.527 51.675L208.537 50.6617L210.614 52.7496C210.731 52.6379 210.815 52.4963 210.862 52.34L208.866 50.3325L210.904 48.2892V47.7029Z" fill="#99AAB5"/>
<path d="M209.948 46.77H203.526C203.04 46.77 202.621 47.1475 202.579 47.6263L206.082 51.125C206.444 51.4892 207.031 51.475 207.392 51.1104L210.897 47.6329C210.857 47.1509 210.436 46.77 209.948 46.77Z" fill="#E1E8ED"/>
<path d="M213.403 45.52H206.737C208.578 45.52 210.07 47.0125 210.07 48.8534V53.8534H216.737V48.8534C216.737 47.0125 215.244 45.52 213.403 45.52Z" fill="#99AAB5"/>
<path d="M213.404 44.6865H211.737C211.277 44.6865 210.904 45.0599 210.904 45.5199V50.5199C210.904 50.9799 211.277 51.3532 211.737 51.3532C212.197 51.3532 212.57 50.9799 212.57 50.5199V47.1865H213.404C213.864 47.1865 214.237 46.8132 214.237 46.3532V45.5199C214.237 45.0599 213.864 44.6865 213.404 44.6865Z" fill="#DD2E44"/>
</g>
<rect x="202.57" y="63.7959" width="122" height="87" rx="4" fill="#EAEEFF"/>
<path d="M217.234 127.478L219.808 129.56C222.383 131.642 227.531 135.805 232.679 132.958C237.827 130.111 242.975 120.253 248.123 120.513C253.271 120.773 258.42 131.151 263.568 136.277C268.716 141.403 273.864 141.277 279.012 139.632C284.16 137.988 289.308 134.826 294.457 128.47C299.605 122.114 304.753 112.565 309.901 105.711" stroke="#8199FD" stroke-width="2" stroke-linecap="round"/>
<path d="M228.178 102.416C233.758 102.416 237.502 100.148 237.502 95.5037C237.502 92.0477 235.486 89.8877 232.174 89.4197V89.2757C235.234 88.8437 236.638 86.7917 236.638 84.0197C236.638 79.8077 233.398 77.5757 227.962 77.5757C221.914 77.5757 218.674 80.7077 218.674 85.3157V85.6397H222.49V85.3517C222.49 82.3277 223.75 81.1397 227.926 81.1397C231.31 81.1397 232.75 82.1117 232.75 84.6317C232.75 87.1517 231.526 87.9437 228.358 87.9437H224.074V91.1837H228.898C232.246 91.1837 233.578 92.0837 233.578 95.1077C233.578 97.9157 232.066 98.8517 228.25 98.8517C223.498 98.8517 222.49 97.6637 222.49 94.6397V94.0997H218.674V94.6757C218.674 99.2837 221.302 102.416 228.178 102.416ZM247.506 102.056V77.9357H244.086C243.078 80.0957 241.746 80.9237 239.478 80.9237H238.542V83.6957H243.618V102.056H247.506ZM262.033 102.416C268.513 102.416 272.473 97.6277 272.473 89.9957C272.473 82.3637 268.513 77.5757 262.033 77.5757C255.553 77.5757 251.629 82.3637 251.629 89.9957C251.629 97.6277 255.553 102.416 262.033 102.416ZM262.033 98.6717C257.749 98.6717 255.769 96.3677 255.769 89.9957C255.769 83.6237 257.749 81.3197 262.033 81.3197C266.317 81.3197 268.333 83.6237 268.333 89.9957C268.333 96.3677 266.317 98.6717 262.033 98.6717Z" fill="black"/>
<rect x="-2" y="2" width="313.101" height="157.095" rx="6" transform="matrix(-1 0 0 1 349.102 16.498)" stroke="#121212" stroke-width="4"/>
<rect x="-2" y="2" width="186.547" height="165.259" rx="6" transform="matrix(-1 0 0 1 580 21.7959)" fill="#121212"/>
<rect x="-2" y="2" width="186.547" height="165.259" rx="6" transform="matrix(-1 0 0 1 580 21.7959)" stroke="#121212" stroke-width="4"/>
<rect x="-2" y="2" width="182" height="158" rx="6" transform="matrix(-1 0 0 1 568 16)" fill="#F5F6F8"/>
<rect x="-1" y="1" width="164" height="137" rx="7" transform="matrix(-1 0 0 1 560 27.5)" fill="#F5F6F8"/>
<path d="M432.672 51.4929C432.619 51.0223 432.4 50.6577 432.016 50.3991C431.631 50.1373 431.147 50.0064 430.564 50.0064C430.146 50.0064 429.785 50.0727 429.48 50.2053C429.175 50.3345 428.938 50.5135 428.769 50.7422C428.603 50.9676 428.521 51.2244 428.521 51.5128C428.521 51.7547 428.577 51.9635 428.69 52.1392C428.806 52.3149 428.956 52.4624 429.142 52.5817C429.331 52.6977 429.533 52.7955 429.749 52.875C429.964 52.9512 430.171 53.0142 430.37 53.0639L431.364 53.3224C431.689 53.402 432.022 53.5097 432.364 53.6456C432.705 53.7815 433.022 53.9605 433.313 54.1825C433.605 54.4046 433.84 54.6797 434.019 55.0078C434.201 55.3359 434.293 55.7287 434.293 56.1861C434.293 56.7628 434.143 57.2749 433.845 57.7223C433.55 58.1697 433.121 58.5227 432.558 58.7812C431.997 59.0398 431.32 59.169 430.524 59.169C429.762 59.169 429.102 59.0481 428.545 58.8061C427.989 58.5642 427.553 58.2211 427.238 57.777C426.923 57.3295 426.749 56.7992 426.716 56.1861H428.257C428.287 56.554 428.406 56.8606 428.615 57.1058C428.827 57.3478 429.097 57.5284 429.425 57.6477C429.757 57.7637 430.12 57.8217 430.514 57.8217C430.948 57.8217 431.335 57.7538 431.673 57.6179C432.014 57.4787 432.282 57.2865 432.478 57.0412C432.674 56.7926 432.771 56.5026 432.771 56.1712C432.771 55.8696 432.685 55.6226 432.513 55.4304C432.344 55.2382 432.113 55.0791 431.822 54.9531C431.533 54.8272 431.207 54.7161 430.842 54.62L429.639 54.2919C428.824 54.0698 428.178 53.7434 427.7 53.3125C427.226 52.8816 426.989 52.3116 426.989 51.6023C426.989 51.0156 427.148 50.5036 427.467 50.0661C427.785 49.6286 428.216 49.2888 428.759 49.0469C429.303 48.8016 429.916 48.679 430.599 48.679C431.288 48.679 431.896 48.8 432.423 49.0419C432.954 49.2839 433.371 49.617 433.676 50.0412C433.981 50.4621 434.14 50.946 434.153 51.4929H432.672ZM435.988 48.8182H437.853L441.094 56.733H441.214L444.455 48.8182H446.319V59H444.858V51.6321H444.763L441.76 58.9851H440.547L437.544 51.6271H437.45V59H435.988V48.8182ZM453.966 51.4929C453.913 51.0223 453.694 50.6577 453.31 50.3991C452.925 50.1373 452.441 50.0064 451.858 50.0064C451.441 50.0064 451.079 50.0727 450.774 50.2053C450.469 50.3345 450.232 50.5135 450.063 50.7422C449.898 50.9676 449.815 51.2244 449.815 51.5128C449.815 51.7547 449.871 51.9635 449.984 52.1392C450.1 52.3149 450.251 52.4624 450.436 52.5817C450.625 52.6977 450.827 52.7955 451.043 52.875C451.258 52.9512 451.465 53.0142 451.664 53.0639L452.659 53.3224C452.983 53.402 453.316 53.5097 453.658 53.6456C453.999 53.7815 454.316 53.9605 454.607 54.1825C454.899 54.4046 455.134 54.6797 455.313 55.0078C455.496 55.3359 455.587 55.7287 455.587 56.1861C455.587 56.7628 455.438 57.2749 455.139 57.7223C454.844 58.1697 454.415 58.5227 453.852 58.7812C453.292 59.0398 452.614 59.169 451.818 59.169C451.056 59.169 450.396 59.0481 449.84 58.8061C449.283 58.5642 448.847 58.2211 448.532 57.777C448.217 57.3295 448.043 56.7992 448.01 56.1861H449.551C449.581 56.554 449.7 56.8606 449.909 57.1058C450.121 57.3478 450.392 57.5284 450.72 57.6477C451.051 57.7637 451.414 57.8217 451.808 57.8217C452.243 57.8217 452.629 57.7538 452.967 57.6179C453.308 57.4787 453.577 57.2865 453.772 57.0412C453.968 56.7926 454.066 56.5026 454.066 56.1712C454.066 55.8696 453.979 55.6226 453.807 55.4304C453.638 55.2382 453.408 55.0791 453.116 54.9531C452.828 54.8272 452.501 54.7161 452.137 54.62L450.933 54.2919C450.118 54.0698 449.472 53.7434 448.995 53.3125C448.521 52.8816 448.284 52.3116 448.284 51.6023C448.284 51.0156 448.443 50.5036 448.761 50.0661C449.079 49.6286 449.51 49.2888 450.053 49.0469C450.597 48.8016 451.21 48.679 451.893 48.679C452.582 48.679 453.191 48.8 453.718 49.0419C454.248 49.2839 454.665 49.617 454.97 50.0412C455.275 50.4621 455.434 50.946 455.448 51.4929H453.966Z" fill="#636369"/>
<rect x="416" y="50.5" width="6" height="6" rx="3" fill="#C6A9FF"/>
<path d="M427.119 88V77.8182H433.502V79.1406H428.655V82.2429H433.169V83.5604H428.655V86.6776H433.562V88H427.119ZM435.295 88V80.3636H436.722V81.6065H436.816C436.975 81.1856 437.235 80.8575 437.597 80.6222C437.958 80.3835 438.39 80.2642 438.894 80.2642C439.405 80.2642 439.832 80.3835 440.177 80.6222C440.525 80.8608 440.782 81.1889 440.948 81.6065H441.027C441.209 81.1989 441.499 80.8741 441.897 80.6321C442.295 80.3868 442.769 80.2642 443.319 80.2642C444.012 80.2642 444.577 80.4813 445.014 80.9155C445.455 81.3497 445.676 82.0043 445.676 82.8793V88H444.189V83.0185C444.189 82.5014 444.048 82.1269 443.766 81.8949C443.485 81.6629 443.148 81.5469 442.757 81.5469C442.273 81.5469 441.897 81.696 441.629 81.9943C441.36 82.2893 441.226 82.6688 441.226 83.1328V88H439.744V82.924C439.744 82.5097 439.615 82.1766 439.357 81.9247C439.098 81.6728 438.762 81.5469 438.347 81.5469C438.066 81.5469 437.805 81.6214 437.567 81.7706C437.332 81.9164 437.141 82.1203 436.995 82.3821C436.853 82.6439 436.781 82.9472 436.781 83.2919V88H435.295ZM449.75 88.169C449.266 88.169 448.829 88.0795 448.438 87.9006C448.047 87.7183 447.737 87.4548 447.508 87.1101C447.283 86.7654 447.17 86.3428 447.17 85.8423C447.17 85.4115 447.253 85.0568 447.419 84.7784C447.584 84.5 447.808 84.2796 448.09 84.1172C448.371 83.9548 448.686 83.8321 449.034 83.7493C449.382 83.6664 449.737 83.6035 450.098 83.5604C450.556 83.5073 450.927 83.4643 451.212 83.4311C451.497 83.3946 451.704 83.3366 451.833 83.2571C451.963 83.1776 452.027 83.0483 452.027 82.8693V82.8345C452.027 82.4003 451.905 82.0639 451.659 81.8253C451.417 81.5866 451.056 81.4673 450.575 81.4673C450.075 81.4673 449.681 81.5784 449.392 81.8004C449.107 82.0192 448.91 82.2628 448.801 82.5312L447.404 82.2131C447.569 81.7491 447.811 81.3745 448.129 81.0895C448.451 80.8011 448.82 80.5923 449.238 80.4631C449.656 80.3305 450.095 80.2642 450.556 80.2642C450.861 80.2642 451.184 80.3007 451.525 80.3736C451.87 80.4432 452.191 80.5724 452.49 80.7614C452.791 80.9503 453.038 81.2204 453.23 81.5717C453.423 81.9197 453.519 82.3722 453.519 82.929V88H452.067V86.956H452.007C451.911 87.1482 451.767 87.3371 451.575 87.5227C451.383 87.7083 451.136 87.8625 450.834 87.9851C450.532 88.1077 450.171 88.169 449.75 88.169ZM450.073 86.9759C450.484 86.9759 450.836 86.8946 451.127 86.7322C451.422 86.5698 451.646 86.3577 451.798 86.0959C451.954 85.8307 452.032 85.5473 452.032 85.2457V84.2614C451.979 84.3144 451.876 84.3641 451.724 84.4105C451.575 84.4536 451.404 84.4917 451.212 84.5249C451.02 84.5547 450.832 84.5829 450.65 84.6094C450.468 84.6326 450.315 84.6525 450.193 84.669C449.904 84.7055 449.641 84.7668 449.402 84.853C449.167 84.9392 448.978 85.0634 448.835 85.2259C448.696 85.3849 448.627 85.5971 448.627 85.8622C448.627 86.2301 448.762 86.5085 449.034 86.6974C449.306 86.883 449.652 86.9759 450.073 86.9759ZM455.359 88V80.3636H456.845V88H455.359ZM456.109 79.1854C455.851 79.1854 455.629 79.0992 455.443 78.9268C455.261 78.7512 455.17 78.5424 455.17 78.3004C455.17 78.0552 455.261 77.8464 455.443 77.674C455.629 77.4983 455.851 77.4105 456.109 77.4105C456.368 77.4105 456.588 77.4983 456.771 77.674C456.956 77.8464 457.049 78.0552 457.049 78.3004C457.049 78.5424 456.956 78.7512 456.771 78.9268C456.588 79.0992 456.368 79.1854 456.109 79.1854ZM460.191 77.8182V88H458.705V77.8182H460.191Z" fill="#636369"/>
<rect x="416" y="79.5" width="6" height="6" rx="3" fill="#869CF9"/>
<path d="M428.655 106.818V117H427.119V106.818H428.655ZM432.119 112.466V117H430.633V109.364H432.06V110.607H432.154C432.33 110.202 432.605 109.877 432.979 109.632C433.357 109.387 433.833 109.264 434.406 109.264C434.927 109.264 435.382 109.374 435.773 109.592C436.164 109.808 436.468 110.129 436.683 110.557C436.899 110.984 437.006 111.513 437.006 112.143V117H435.52V112.322C435.52 111.768 435.376 111.336 435.087 111.024C434.799 110.709 434.403 110.552 433.899 110.552C433.554 110.552 433.248 110.626 432.979 110.776C432.714 110.925 432.504 111.143 432.348 111.432C432.195 111.717 432.119 112.062 432.119 112.466ZM443.359 112.053V113.341H438.845V112.053H443.359ZM446.18 117H444.549L448.213 106.818H449.988L453.652 117H452.021L449.143 108.668H449.063L446.18 117ZM446.453 113.013H451.743V114.305H446.453V113.013ZM454.863 119.864V109.364H456.315V110.602H456.439C456.525 110.442 456.65 110.259 456.812 110.05C456.974 109.841 457.2 109.659 457.488 109.503C457.776 109.344 458.158 109.264 458.632 109.264C459.248 109.264 459.798 109.42 460.282 109.732C460.766 110.043 461.146 110.492 461.421 111.079C461.699 111.665 461.838 112.371 461.838 113.197C461.838 114.022 461.701 114.73 461.426 115.32C461.151 115.906 460.773 116.359 460.292 116.677C459.812 116.992 459.263 117.149 458.646 117.149C458.182 117.149 457.803 117.071 457.508 116.915C457.216 116.76 456.988 116.577 456.822 116.369C456.656 116.16 456.529 115.974 456.439 115.812H456.35V119.864H454.863ZM456.32 113.182C456.32 113.719 456.398 114.189 456.553 114.594C456.709 114.998 456.935 115.315 457.23 115.543C457.525 115.769 457.886 115.881 458.313 115.881C458.758 115.881 459.129 115.764 459.427 115.528C459.725 115.29 459.951 114.967 460.103 114.559C460.259 114.151 460.337 113.692 460.337 113.182C460.337 112.678 460.261 112.226 460.108 111.825C459.959 111.424 459.734 111.107 459.432 110.875C459.134 110.643 458.761 110.527 458.313 110.527C457.883 110.527 457.518 110.638 457.22 110.86C456.925 111.082 456.701 111.392 456.548 111.79C456.396 112.187 456.32 112.652 456.32 113.182ZM463.364 119.864V109.364H464.815V110.602H464.94C465.026 110.442 465.15 110.259 465.313 110.05C465.475 109.841 465.7 109.659 465.989 109.503C466.277 109.344 466.658 109.264 467.132 109.264C467.749 109.264 468.299 109.42 468.783 109.732C469.267 110.043 469.646 110.492 469.921 111.079C470.2 111.665 470.339 112.371 470.339 113.197C470.339 114.022 470.201 114.73 469.926 115.32C469.651 115.906 469.273 116.359 468.793 116.677C468.312 116.992 467.764 117.149 467.147 117.149C466.683 117.149 466.304 117.071 466.009 116.915C465.717 116.76 465.488 116.577 465.323 116.369C465.157 116.16 465.029 115.974 464.94 115.812H464.85V119.864H463.364ZM464.82 113.182C464.82 113.719 464.898 114.189 465.054 114.594C465.21 114.998 465.435 115.315 465.73 115.543C466.025 115.769 466.386 115.881 466.814 115.881C467.258 115.881 467.629 115.764 467.928 115.528C468.226 115.29 468.451 114.967 468.604 114.559C468.76 114.151 468.837 113.692 468.837 113.182C468.837 112.678 468.761 112.226 468.609 111.825C468.46 111.424 468.234 111.107 467.933 110.875C467.634 110.643 467.261 110.527 466.814 110.527C466.383 110.527 466.019 110.638 465.72 110.86C465.425 111.082 465.202 111.392 465.049 111.79C464.897 112.187 464.82 112.652 464.82 113.182ZM475.549 117V106.818H479.178C479.97 106.818 480.626 106.962 481.147 107.251C481.667 107.539 482.057 107.933 482.315 108.434C482.574 108.931 482.703 109.491 482.703 110.114C482.703 110.741 482.572 111.304 482.31 111.805C482.052 112.302 481.661 112.696 481.137 112.988C480.616 113.276 479.962 113.42 479.173 113.42H476.677V112.118H479.034C479.534 112.118 479.94 112.032 480.252 111.859C480.563 111.684 480.792 111.445 480.938 111.143C481.084 110.842 481.157 110.499 481.157 110.114C481.157 109.73 481.084 109.388 480.938 109.09C480.792 108.792 480.562 108.558 480.247 108.389C479.935 108.22 479.524 108.136 479.014 108.136H477.085V117H475.549ZM489.082 113.833V109.364H490.573V117H489.112V115.678H489.032C488.857 116.085 488.575 116.425 488.187 116.697C487.803 116.965 487.324 117.099 486.75 117.099C486.26 117.099 485.825 116.992 485.448 116.776C485.073 116.558 484.778 116.234 484.563 115.807C484.351 115.379 484.245 114.851 484.245 114.221V109.364H485.731V114.042C485.731 114.562 485.875 114.977 486.164 115.285C486.452 115.593 486.826 115.747 487.287 115.747C487.566 115.747 487.842 115.678 488.117 115.538C488.396 115.399 488.626 115.189 488.808 114.907C488.994 114.625 489.085 114.267 489.082 113.833ZM498.153 111.228L496.806 111.467C496.749 111.294 496.66 111.13 496.537 110.974C496.418 110.819 496.256 110.691 496.05 110.592C495.845 110.492 495.588 110.442 495.279 110.442C494.858 110.442 494.507 110.537 494.225 110.726C493.944 110.911 493.803 111.152 493.803 111.447C493.803 111.702 493.897 111.907 494.086 112.063C494.275 112.219 494.58 112.347 495.001 112.446L496.214 112.724C496.917 112.887 497.44 113.137 497.785 113.475C498.13 113.813 498.302 114.252 498.302 114.793C498.302 115.25 498.17 115.658 497.904 116.016C497.643 116.37 497.276 116.649 496.806 116.851C496.338 117.053 495.796 117.154 495.18 117.154C494.325 117.154 493.627 116.972 493.087 116.607C492.547 116.239 492.215 115.717 492.093 115.041L493.529 114.822C493.619 115.197 493.803 115.48 494.081 115.673C494.36 115.862 494.723 115.956 495.17 115.956C495.657 115.956 496.047 115.855 496.338 115.653C496.63 115.447 496.776 115.197 496.776 114.902C496.776 114.663 496.686 114.463 496.507 114.3C496.332 114.138 496.062 114.015 495.697 113.933L494.404 113.649C493.692 113.487 493.165 113.228 492.823 112.874C492.485 112.519 492.316 112.07 492.316 111.526C492.316 111.076 492.442 110.681 492.694 110.343C492.946 110.005 493.294 109.741 493.738 109.553C494.182 109.36 494.691 109.264 495.265 109.264C496.09 109.264 496.739 109.443 497.213 109.801C497.687 110.156 498.001 110.631 498.153 111.228ZM501.283 112.466V117H499.797V106.818H501.263V110.607H501.358C501.537 110.196 501.81 109.869 502.178 109.627C502.546 109.385 503.026 109.264 503.62 109.264C504.143 109.264 504.601 109.372 504.992 109.587C505.386 109.803 505.691 110.124 505.907 110.552C506.125 110.976 506.235 111.506 506.235 112.143V117H504.748V112.322C504.748 111.762 504.604 111.327 504.316 111.019C504.027 110.708 503.626 110.552 503.113 110.552C502.761 110.552 502.446 110.626 502.168 110.776C501.893 110.925 501.676 111.143 501.517 111.432C501.361 111.717 501.283 112.062 501.283 112.466Z" fill="#636369"/>
<rect x="416" y="108.5" width="6" height="6" rx="3" fill="#F9DD88"/>
<path d="M429.112 146L426.288 135.818H427.904L429.888 143.703H429.982L432.045 135.818H433.646L435.71 143.708H435.804L437.783 135.818H439.403L436.575 146H435.028L432.886 138.374H432.806L430.663 146H429.112ZM443.084 146.154C442.332 146.154 441.684 145.993 441.14 145.672C440.6 145.347 440.182 144.891 439.887 144.305C439.596 143.715 439.45 143.024 439.45 142.232C439.45 141.449 439.596 140.76 439.887 140.163C440.182 139.567 440.593 139.101 441.12 138.766C441.651 138.432 442.27 138.264 442.98 138.264C443.411 138.264 443.828 138.335 444.233 138.478C444.637 138.621 445 138.844 445.321 139.149C445.643 139.454 445.896 139.85 446.082 140.337C446.268 140.821 446.36 141.41 446.36 142.102V142.629H440.29V141.516H444.904C444.904 141.125 444.824 140.778 444.665 140.477C444.506 140.172 444.282 139.931 443.994 139.756C443.709 139.58 443.374 139.492 442.99 139.492C442.572 139.492 442.207 139.595 441.896 139.8C441.588 140.003 441.349 140.268 441.18 140.596C441.014 140.921 440.931 141.274 440.931 141.655V142.525C440.931 143.035 441.021 143.469 441.2 143.827C441.382 144.185 441.636 144.459 441.96 144.648C442.285 144.833 442.665 144.926 443.099 144.926C443.381 144.926 443.638 144.886 443.87 144.807C444.102 144.724 444.302 144.601 444.471 144.439C444.64 144.277 444.769 144.076 444.859 143.837L446.266 144.091C446.153 144.505 445.951 144.868 445.659 145.18C445.371 145.488 445.008 145.728 444.571 145.901C444.136 146.07 443.641 146.154 443.084 146.154ZM447.989 146V135.818H449.476V139.602H449.565C449.651 139.442 449.775 139.259 449.938 139.05C450.1 138.841 450.326 138.659 450.614 138.503C450.902 138.344 451.284 138.264 451.757 138.264C452.374 138.264 452.924 138.42 453.408 138.732C453.892 139.043 454.271 139.492 454.547 140.079C454.825 140.665 454.964 141.371 454.964 142.197C454.964 143.022 454.827 143.73 454.551 144.32C454.276 144.906 453.899 145.359 453.418 145.677C452.937 145.992 452.389 146.149 451.772 146.149C451.308 146.149 450.929 146.071 450.634 145.915C450.342 145.76 450.114 145.577 449.948 145.369C449.782 145.16 449.654 144.974 449.565 144.812H449.441V146H447.989ZM449.446 142.182C449.446 142.719 449.524 143.189 449.679 143.594C449.835 143.998 450.06 144.315 450.355 144.543C450.65 144.769 451.012 144.881 451.439 144.881C451.883 144.881 452.255 144.764 452.553 144.528C452.851 144.29 453.077 143.967 453.229 143.559C453.385 143.151 453.463 142.692 453.463 142.182C453.463 141.678 453.386 141.226 453.234 140.825C453.085 140.424 452.859 140.107 452.558 139.875C452.26 139.643 451.887 139.527 451.439 139.527C451.008 139.527 450.644 139.638 450.346 139.86C450.051 140.082 449.827 140.392 449.674 140.79C449.522 141.187 449.446 141.652 449.446 142.182ZM468.396 135.818V146H466.984L461.808 138.533H461.714V146H460.178V135.818H461.6L466.78 143.295H466.874V135.818H468.396ZM473.594 146.154C472.878 146.154 472.253 145.99 471.72 145.662C471.186 145.334 470.772 144.875 470.477 144.285C470.182 143.695 470.034 143.005 470.034 142.217C470.034 141.424 470.182 140.732 470.477 140.138C470.772 139.545 471.186 139.085 471.72 138.756C472.253 138.428 472.878 138.264 473.594 138.264C474.31 138.264 474.935 138.428 475.468 138.756C476.002 139.085 476.416 139.545 476.711 140.138C477.006 140.732 477.154 141.424 477.154 142.217C477.154 143.005 477.006 143.695 476.711 144.285C476.416 144.875 476.002 145.334 475.468 145.662C474.935 145.99 474.31 146.154 473.594 146.154ZM473.599 144.906C474.063 144.906 474.447 144.784 474.752 144.538C475.057 144.293 475.283 143.967 475.429 143.559C475.578 143.151 475.652 142.702 475.652 142.212C475.652 141.724 475.578 141.277 475.429 140.869C475.283 140.458 475.057 140.129 474.752 139.88C474.447 139.631 474.063 139.507 473.599 139.507C473.132 139.507 472.744 139.631 472.436 139.88C472.131 140.129 471.904 140.458 471.755 140.869C471.609 141.277 471.536 141.724 471.536 142.212C471.536 142.702 471.609 143.151 471.755 143.559C471.904 143.967 472.131 144.293 472.436 144.538C472.744 144.784 473.132 144.906 473.599 144.906ZM482.238 138.364V139.557H478.066V138.364H482.238ZM479.185 136.534H480.672V143.758C480.672 144.046 480.715 144.263 480.801 144.409C480.887 144.552 480.998 144.649 481.134 144.702C481.273 144.752 481.424 144.777 481.586 144.777C481.706 144.777 481.81 144.769 481.9 144.752C481.989 144.736 482.059 144.722 482.108 144.712L482.377 145.94C482.291 145.973 482.168 146.007 482.009 146.04C481.85 146.076 481.651 146.096 481.412 146.099C481.021 146.106 480.657 146.036 480.319 145.891C479.98 145.745 479.707 145.519 479.498 145.214C479.289 144.91 479.185 144.527 479.185 144.066V136.534ZM483.742 146V138.364H485.228V146H483.742ZM484.493 137.185C484.234 137.185 484.012 137.099 483.826 136.927C483.644 136.751 483.553 136.542 483.553 136.3C483.553 136.055 483.644 135.846 483.826 135.674C484.012 135.498 484.234 135.411 484.493 135.411C484.751 135.411 484.972 135.498 485.154 135.674C485.339 135.846 485.432 136.055 485.432 136.3C485.432 136.542 485.339 136.751 485.154 136.927C484.972 137.099 484.751 137.185 484.493 137.185ZM490.723 138.364V139.557H486.407V138.364H490.723ZM487.59 146V137.479C487.59 137.001 487.695 136.605 487.904 136.29C488.112 135.972 488.389 135.735 488.734 135.58C489.079 135.42 489.453 135.341 489.857 135.341C490.156 135.341 490.411 135.366 490.623 135.415C490.835 135.462 490.993 135.505 491.095 135.545L490.747 136.748C490.678 136.728 490.588 136.705 490.479 136.678C490.37 136.648 490.237 136.634 490.081 136.634C489.72 136.634 489.461 136.723 489.306 136.902C489.153 137.081 489.077 137.339 489.077 137.678V146H487.59ZM492.116 146V138.364H493.603V146H492.116ZM492.867 137.185C492.608 137.185 492.386 137.099 492.201 136.927C492.018 136.751 491.927 136.542 491.927 136.3C491.927 136.055 492.018 135.846 492.201 135.674C492.386 135.498 492.608 135.411 492.867 135.411C493.125 135.411 493.346 135.498 493.528 135.674C493.714 135.846 493.807 136.055 493.807 136.3C493.807 136.542 493.714 136.751 493.528 136.927C493.346 137.099 493.125 137.185 492.867 137.185ZM498.679 146.154C497.94 146.154 497.304 145.987 496.77 145.652C496.24 145.314 495.832 144.848 495.547 144.255C495.262 143.662 495.12 142.982 495.12 142.217C495.12 141.441 495.265 140.757 495.557 140.163C495.849 139.567 496.26 139.101 496.79 138.766C497.32 138.432 497.945 138.264 498.664 138.264C499.244 138.264 499.761 138.372 500.215 138.587C500.669 138.799 501.036 139.098 501.314 139.482C501.596 139.867 501.763 140.316 501.816 140.83H500.37C500.29 140.472 500.108 140.163 499.823 139.905C499.541 139.646 499.163 139.517 498.689 139.517C498.275 139.517 497.912 139.626 497.6 139.845C497.292 140.061 497.052 140.369 496.879 140.77C496.707 141.168 496.621 141.638 496.621 142.182C496.621 142.739 496.705 143.219 496.875 143.624C497.044 144.028 497.282 144.341 497.59 144.563C497.902 144.785 498.268 144.896 498.689 144.896C498.971 144.896 499.226 144.845 499.455 144.742C499.687 144.636 499.881 144.485 500.036 144.29C500.196 144.094 500.307 143.859 500.37 143.584H501.816C501.763 144.078 501.602 144.518 501.334 144.906C501.066 145.294 500.706 145.599 500.255 145.821C499.808 146.043 499.282 146.154 498.679 146.154ZM505.488 146.169C505.004 146.169 504.567 146.08 504.176 145.901C503.785 145.718 503.475 145.455 503.246 145.11C503.021 144.765 502.908 144.343 502.908 143.842C502.908 143.411 502.991 143.057 503.157 142.778C503.322 142.5 503.546 142.28 503.828 142.117C504.109 141.955 504.424 141.832 504.772 141.749C505.12 141.666 505.475 141.603 505.836 141.56C506.294 141.507 506.665 141.464 506.95 141.431C507.235 141.395 507.442 141.337 507.571 141.257C507.701 141.178 507.765 141.048 507.765 140.869V140.835C507.765 140.4 507.643 140.064 507.397 139.825C507.155 139.587 506.794 139.467 506.314 139.467C505.813 139.467 505.419 139.578 505.13 139.8C504.845 140.019 504.648 140.263 504.539 140.531L503.142 140.213C503.307 139.749 503.549 139.375 503.867 139.089C504.189 138.801 504.559 138.592 504.976 138.463C505.394 138.33 505.833 138.264 506.294 138.264C506.599 138.264 506.922 138.301 507.263 138.374C507.608 138.443 507.929 138.572 508.228 138.761C508.529 138.95 508.776 139.22 508.968 139.572C509.161 139.92 509.257 140.372 509.257 140.929V146H507.805V144.956H507.745C507.649 145.148 507.505 145.337 507.313 145.523C507.121 145.708 506.874 145.862 506.572 145.985C506.27 146.108 505.909 146.169 505.488 146.169ZM505.811 144.976C506.222 144.976 506.574 144.895 506.865 144.732C507.16 144.57 507.384 144.358 507.537 144.096C507.692 143.831 507.77 143.547 507.77 143.246V142.261C507.717 142.314 507.614 142.364 507.462 142.411C507.313 142.454 507.142 142.492 506.95 142.525C506.758 142.555 506.57 142.583 506.388 142.609C506.206 142.633 506.053 142.652 505.931 142.669C505.642 142.705 505.379 142.767 505.14 142.853C504.905 142.939 504.716 143.063 504.573 143.226C504.434 143.385 504.365 143.597 504.365 143.862C504.365 144.23 504.501 144.509 504.772 144.697C505.044 144.883 505.39 144.976 505.811 144.976ZM514.661 138.364V139.557H510.49V138.364H514.661ZM511.609 136.534H513.095V143.758C513.095 144.046 513.138 144.263 513.224 144.409C513.311 144.552 513.422 144.649 513.558 144.702C513.697 144.752 513.848 144.777 514.01 144.777C514.129 144.777 514.234 144.769 514.323 144.752C514.413 144.736 514.482 144.722 514.532 144.712L514.8 145.94C514.714 145.973 514.592 146.007 514.433 146.04C514.273 146.076 514.075 146.096 513.836 146.099C513.445 146.106 513.08 146.036 512.742 145.891C512.404 145.745 512.131 145.519 511.922 145.214C511.713 144.91 511.609 144.527 511.609 144.066V136.534ZM516.166 146V138.364H517.652V146H516.166ZM516.916 137.185C516.658 137.185 516.436 137.099 516.25 136.927C516.068 136.751 515.977 136.542 515.977 136.3C515.977 136.055 516.068 135.846 516.25 135.674C516.436 135.498 516.658 135.411 516.916 135.411C517.175 135.411 517.395 135.498 517.578 135.674C517.763 135.846 517.856 136.055 517.856 136.3C517.856 136.542 517.763 136.751 517.578 136.927C517.395 137.099 517.175 137.185 516.916 137.185ZM522.729 146.154C522.013 146.154 521.388 145.99 520.854 145.662C520.321 145.334 519.906 144.875 519.611 144.285C519.316 143.695 519.169 143.005 519.169 142.217C519.169 141.424 519.316 140.732 519.611 140.138C519.906 139.545 520.321 139.085 520.854 138.756C521.388 138.428 522.013 138.264 522.729 138.264C523.444 138.264 524.069 138.428 524.603 138.756C525.136 139.085 525.551 139.545 525.846 140.138C526.141 140.732 526.288 141.424 526.288 142.217C526.288 143.005 526.141 143.695 525.846 144.285C525.551 144.875 525.136 145.334 524.603 145.662C524.069 145.99 523.444 146.154 522.729 146.154ZM522.734 144.906C523.198 144.906 523.582 144.784 523.887 144.538C524.192 144.293 524.417 143.967 524.563 143.559C524.712 143.151 524.787 142.702 524.787 142.212C524.787 141.724 524.712 141.277 524.563 140.869C524.417 140.458 524.192 140.129 523.887 139.88C523.582 139.631 523.198 139.507 522.734 139.507C522.266 139.507 521.878 139.631 521.57 139.88C521.265 140.129 521.038 140.458 520.889 140.869C520.743 141.277 520.67 141.724 520.67 142.212C520.67 142.702 520.743 143.151 520.889 143.559C521.038 143.967 521.265 144.293 521.57 144.538C521.878 144.784 522.266 144.906 522.734 144.906ZM529.294 141.466V146H527.807V138.364H529.234V139.607H529.329C529.504 139.202 529.78 138.877 530.154 138.632C530.532 138.387 531.008 138.264 531.581 138.264C532.101 138.264 532.557 138.374 532.948 138.592C533.339 138.808 533.642 139.129 533.858 139.557C534.073 139.984 534.181 140.513 534.181 141.143V146H532.695V141.322C532.695 140.768 532.55 140.336 532.262 140.024C531.974 139.709 531.578 139.552 531.074 139.552C530.729 139.552 530.423 139.626 530.154 139.776C529.889 139.925 529.678 140.143 529.523 140.432C529.37 140.717 529.294 141.062 529.294 141.466ZM541.757 140.228L540.41 140.467C540.353 140.294 540.264 140.13 540.141 139.974C540.022 139.819 539.859 139.691 539.654 139.592C539.449 139.492 539.192 139.442 538.883 139.442C538.462 139.442 538.111 139.537 537.829 139.726C537.548 139.911 537.407 140.152 537.407 140.447C537.407 140.702 537.501 140.907 537.69 141.063C537.879 141.219 538.184 141.347 538.605 141.446L539.818 141.724C540.521 141.887 541.044 142.137 541.389 142.475C541.734 142.813 541.906 143.252 541.906 143.793C541.906 144.25 541.774 144.658 541.508 145.016C541.247 145.37 540.88 145.649 540.41 145.851C539.942 146.053 539.4 146.154 538.784 146.154C537.929 146.154 537.231 145.972 536.691 145.607C536.151 145.239 535.819 144.717 535.697 144.041L537.133 143.822C537.223 144.197 537.407 144.48 537.685 144.673C537.964 144.862 538.327 144.956 538.774 144.956C539.261 144.956 539.651 144.855 539.942 144.653C540.234 144.447 540.38 144.197 540.38 143.902C540.38 143.663 540.29 143.463 540.111 143.3C539.936 143.138 539.666 143.015 539.301 142.933L538.008 142.649C537.296 142.487 536.769 142.228 536.427 141.874C536.089 141.519 535.92 141.07 535.92 140.526C535.92 140.076 536.046 139.681 536.298 139.343C536.55 139.005 536.898 138.741 537.342 138.553C537.786 138.36 538.295 138.264 538.868 138.264C539.694 138.264 540.343 138.443 540.817 138.801C541.291 139.156 541.605 139.631 541.757 140.228Z" fill="#636369"/>
<rect x="416" y="137.5" width="6" height="6" rx="3" fill="#00CC74"/>
<rect x="-1" y="1" width="164" height="137" rx="7" transform="matrix(-1 0 0 1 560 27.5)" stroke="#E1E8F2" stroke-width="2" stroke-dasharray="8 8"/>
<rect width="28" height="4" rx="2" transform="matrix(-1 0 0 1 543 48)" fill="#E5EAF5"/>
<rect width="28.0406" height="4" rx="2" transform="matrix(-1 -0.000779477 -0.000779477 1 542.766 60.7593)" fill="#E5EAF5"/>
<rect x="-2" y="2" width="182" height="158" rx="6" transform="matrix(-1 0 0 1 568 16)" stroke="#121212" stroke-width="4"/>
<defs>
<clipPath id="clip0_6180_39674">
<rect width="22" height="22" fill="white" transform="translate(63.5 277.45)"/>
</clipPath>
<clipPath id="clip1_6180_39674">
<rect width="13" height="13" fill="white" transform="translate(119 405.5)"/>
</clipPath>
<clipPath id="clip2_6180_39674">
<rect width="15" height="15" fill="white" transform="translate(64.5703 43.2959)"/>
</clipPath>
<clipPath id="clip3_6180_39674">
<rect width="15" height="15" fill="white" transform="translate(202.57 44.27)"/>
</clipPath>
</defs>
</svg>
