<svg width="167" height="45" viewBox="0 0 167 45" fill="none" xmlns="http://www.w3.org/2000/svg">
<path d="M17.3892 15.9184C13.866 15.9184 10.8941 18.7718 10.8941 22.3927C10.8941 26.0142 13.756 28.8663 17.3892 28.8663C20.9118 28.8663 23.8836 26.0136 23.8836 22.3927C23.8836 18.7712 20.9118 15.9184 17.3892 15.9184ZM7.26158 22.2831C7.26158 16.7961 11.7746 12.2975 17.2787 12.2975C22.7827 12.2975 27.297 16.7961 27.297 22.2825C27.297 22.6112 27.297 23.0506 27.187 23.3793C27.0771 24.3671 27.8471 25.1353 28.8381 25.1353C30.4892 25.1353 30.7097 23.0506 30.7097 22.2825C30.7097 14.9299 24.6548 8.89512 17.2793 8.89512C9.90431 8.89512 3.84949 14.9305 3.84949 22.2825C3.84949 29.6338 9.90431 35.6693 17.2793 35.6693C21.2421 35.6693 24.7654 34.0235 27.187 31.2802L29.9391 33.5846C26.9666 37.096 22.3431 39.2902 17.3898 39.2902C15.147 39.2976 12.925 38.8627 10.8515 38.0107C8.77804 37.1586 6.89411 35.9062 5.30816 34.3255C3.72221 32.7448 2.46556 30.867 1.61056 28.8003C0.755555 26.7336 0.31908 24.5187 0.326259 22.2831C0.326259 12.9561 7.92226 5.27484 17.3892 5.27484C26.7462 5.27484 34.3416 12.9561 34.3416 22.2831C34.3416 26.0142 32.5806 29.086 28.9474 29.086C27.4063 29.086 26.4158 28.3179 25.8651 27.5498C24.1041 30.4026 20.9118 32.2681 17.2787 32.2681C11.7746 32.2681 7.26158 27.8791 7.26158 22.2831ZM17.3892 19.3202C17.78 19.3186 18.1672 19.3941 18.5285 19.5424C18.8898 19.6908 19.2181 19.909 19.4944 20.1844C19.7707 20.4599 19.9895 20.7872 20.1383 21.1474C20.287 21.5076 20.3627 21.8936 20.361 22.2831C20.3626 22.6726 20.2869 23.0585 20.1381 23.4186C19.9893 23.7788 19.7705 24.106 19.4942 24.3814C19.2179 24.6568 18.8897 24.8749 18.5284 25.0232C18.1671 25.1715 17.7799 25.247 17.3892 25.2454C16.9984 25.2471 16.6112 25.1717 16.2498 25.0234C15.8884 24.8751 15.5601 24.657 15.2838 24.3816C15.0074 24.1062 14.7885 23.779 14.6397 23.4188C14.4909 23.0586 14.4151 22.6726 14.4167 22.2831C14.415 21.8935 14.4908 21.5075 14.6395 21.1472C14.7883 20.787 15.0072 20.4597 15.2836 20.1842C15.5599 19.9088 15.8883 19.6906 16.2497 19.5423C16.6111 19.394 16.9984 19.3185 17.3892 19.3202Z" fill="#C02428"/>
<path d="M128.998 15.3882H124.498V17.536C122.958 15.8409 120.708 14.9362 118.339 14.9362C113.01 14.9362 109.102 19.1177 109.102 24.9955C109.102 30.6464 113.01 34.715 118.221 34.715C120.708 34.715 122.603 33.9238 124.379 32.0024V34.6015C124.379 38.5573 122.722 40.4787 119.406 40.4787C117.629 40.4787 115.852 39.6876 115.024 38.3316C114.549 37.5404 114.431 36.8621 114.313 35.2798H109.931C109.931 40.9307 113.602 44.4345 119.406 44.4345C122.722 44.4345 125.682 43.1913 127.341 40.8173C128.643 39.0093 128.998 37.427 128.998 33.6975V15.3882ZM119.168 18.6663C122.485 18.6663 124.616 21.1526 124.616 24.6564C124.616 28.273 122.366 30.7592 119.168 30.7592C115.852 30.7592 113.72 28.3858 113.72 24.7692C113.72 21.152 115.852 18.6663 119.168 18.6663Z" fill="#C02428"/>
<path d="M41.6016 15.3876V34.1488H46.1015V24.5422C46.1015 20.5865 47.1678 18.8913 49.7731 18.8913C51.7866 18.8913 52.7339 20.4736 52.7339 23.8645V34.2623H57.2339V24.6557C57.2339 20.6999 58.3001 19.0048 60.9062 19.0048C63.0379 19.0048 63.867 20.3608 63.867 23.9774V34.3752H68.367V22.5079C68.367 17.4225 66.117 14.8227 61.7346 14.8227C59.3663 14.8227 57.3528 15.8402 55.9319 17.5353C54.7474 15.7267 52.8522 14.8227 50.7204 14.8227C48.8259 14.8227 47.7596 15.2747 46.1022 17.0833V15.3876H41.6016ZM85.3033 15.3876V17.5353C83.2898 15.6139 81.6311 14.8227 79.1446 14.8227C73.8149 14.8227 69.9068 19.0042 69.9068 24.5422C69.9068 30.4194 73.8156 34.6008 79.2628 34.6008C81.6317 34.6008 83.1716 33.9232 85.3033 32.1145V34.036H89.8033V15.3882L85.3033 15.3876ZM79.9737 18.6656C83.2898 18.6656 85.5398 21.1519 85.5398 24.6557C85.5398 28.2723 83.2898 30.7586 79.9737 30.7586C76.7757 30.7586 74.5257 28.2723 74.5257 24.6557C74.5257 21.2648 76.8946 18.6656 79.9737 18.6656ZM97.9756 15.3876H93.4749V34.1488H97.9749L97.9756 15.3876ZM95.7249 4.87692C95.335 4.87323 94.9483 4.9438 94.5873 5.08448C94.2264 5.22517 93.8984 5.43315 93.6227 5.69626C93.347 5.95936 93.1291 6.2723 92.9816 6.61677C92.8342 6.96123 92.7603 7.3303 92.7641 7.70237C92.7641 9.28467 94.0668 10.5278 95.7249 10.5278C97.383 10.5278 98.6857 9.28467 98.6857 7.70237C98.6896 7.3303 98.6156 6.96123 98.4682 6.61677C98.3208 6.2723 98.1028 5.95936 97.8271 5.69626C97.5514 5.43315 97.2235 5.22517 96.8625 5.08448C96.5016 4.9438 96.1148 4.87323 95.7249 4.87692ZM102.121 0.130646H106.621V34.036H102.121V0.130646Z" fill="#525357"/>
<path d="M130.078 15.0289H134.579V25.7653C134.579 28.9299 135.763 30.3993 138.368 30.3993C141.092 30.3993 142.277 28.9299 142.277 25.7653V15.0289H146.777V25.8794C146.777 28.8176 146.304 30.3999 144.764 31.9822C143.105 33.5645 140.974 34.3557 138.369 34.3557C135.881 34.3557 133.631 33.5645 132.092 31.9822C130.67 30.3993 130.078 28.8176 130.078 25.8794V15.0289Z" fill="#C02428"/>
<path d="M149.856 33.7902V15.0289H154.238V16.7253C156.015 15.0302 157.436 14.4647 159.568 14.4647C164.424 14.4647 166.674 17.0645 166.674 22.2634V33.7902H162.174V23.2796C162.174 19.663 161.344 18.4198 158.502 18.4198C155.423 18.4198 154.356 20.115 154.356 24.749V33.7902H149.856Z" fill="#C02428"/>
</svg>
