<svg width="24" height="25" viewBox="0 0 24 25" fill="none" xmlns="http://www.w3.org/2000/svg">
<mask id="mask0_6237_38962" style="mask-type:alpha" maskUnits="userSpaceOnUse" x="0" y="0" width="24" height="25">
<rect y="0.234863" width="24" height="24" fill="#D9D9D9"/>
</mask>
<g mask="url(#mask0_6237_38962)">
<path d="M3 21.2349V19.2349H5V3.23486H15V4.23486H19V10.2349H17V6.23486H15V12.2349H13V5.23486H7V19.2349H12V21.2349H3ZM17 22.2349L16.7 20.7349C16.5 20.6515 16.3127 20.5599 16.138 20.4599C15.9627 20.3599 15.7917 20.2432 15.625 20.1099L14.175 20.6099L13.175 18.8849L14.3 17.8849C14.2667 17.6349 14.25 17.4222 14.25 17.2469C14.25 17.0722 14.2667 16.8599 14.3 16.6099L13.175 15.6099L14.175 13.8849L15.625 14.3849C15.7917 14.2515 15.9627 14.1305 16.138 14.0219C16.3127 13.9139 16.5 13.8182 16.7 13.7349L17 12.2349H19L19.3 13.7349C19.5 13.8182 19.6877 13.9099 19.863 14.0099C20.0377 14.1099 20.2083 14.2265 20.375 14.3599L21.825 13.8599L22.825 15.5849L21.7 16.5849C21.7333 16.8349 21.75 17.0475 21.75 17.2229C21.75 17.3975 21.7333 17.6099 21.7 17.8599L22.825 18.8599L21.825 20.5849L20.375 20.1099C20.2083 20.2432 20.0377 20.3599 19.863 20.4599C19.6877 20.5599 19.5 20.6515 19.3 20.7349L19 22.2349H17ZM18 19.2349C18.55 19.2349 19.021 19.0392 19.413 18.6479C19.8043 18.2559 20 17.7849 20 17.2349C20 16.6849 19.8043 16.2142 19.413 15.8229C19.021 15.4309 18.55 15.2349 18 15.2349C17.45 15.2349 16.979 15.4309 16.587 15.8229C16.1957 16.2142 16 16.6849 16 17.2349C16 17.7849 16.1957 18.2559 16.587 18.6479C16.979 19.0392 17.45 19.2349 18 19.2349ZM11 13.2349C10.7167 13.2349 10.4793 13.1389 10.288 12.9469C10.096 12.7555 10 12.5182 10 12.2349C10 11.9515 10.096 11.7139 10.288 11.5219C10.4793 11.3305 10.7167 11.2349 11 11.2349C11.2833 11.2349 11.521 11.3305 11.713 11.5219C11.9043 11.7139 12 11.9515 12 12.2349C12 12.5182 11.9043 12.7555 11.713 12.9469C11.521 13.1389 11.2833 13.2349 11 13.2349Z" fill="#1C1B1F"/>
</g>
</svg>
