<svg width="24" height="25" viewBox="0 0 24 25" fill="none" xmlns="http://www.w3.org/2000/svg">
<mask id="mask0_6237_38959" style="mask-type:alpha" maskUnits="userSpaceOnUse" x="0" y="0" width="24" height="25">
<rect y="0.234863" width="24" height="24" fill="#D9D9D9"/>
</mask>
<g mask="url(#mask0_6237_38959)">
<path d="M3 9.88486V7.75986L7.525 3.23486H9.65L3 9.88486ZM3 4.98486V3.23486H4.75L3 4.98486ZM16.175 6.65986C16.0083 6.47653 15.8293 6.2972 15.638 6.12186C15.446 5.9472 15.25 5.7932 15.05 5.65986L17.475 3.23486H19.6L16.175 6.65986ZM5.5 15.2099L7.425 13.2849C7.54167 13.4682 7.66267 13.6349 7.788 13.7849C7.91267 13.9349 8.05 14.0765 8.2 14.2099C7.73333 14.3265 7.26233 14.4722 6.787 14.6469C6.31233 14.8222 5.88333 15.0099 5.5 15.2099ZM17.5 10.2849V10.2349C17.5 9.9182 17.475 9.60986 17.425 9.30986C17.375 9.00986 17.3 8.7182 17.2 8.43486L21 4.63486V6.78486L17.5 10.2849ZM10.9 4.83486L12.525 3.23486H14.65L13.05 4.83486C12.8667 4.80153 12.6917 4.77653 12.525 4.75986C12.3583 4.7432 12.1833 4.73486 12 4.73486C11.8167 4.73486 11.6333 4.7432 11.45 4.75986C11.2667 4.77653 11.0833 4.80153 10.9 4.83486ZM3 14.8599V12.7349L6.6 9.13486C6.56667 9.3182 6.54167 9.50153 6.525 9.68486C6.50833 9.8682 6.5 10.0515 6.5 10.2349C6.5 10.4182 6.50833 10.5932 6.525 10.7599C6.54167 10.9265 6.56667 11.0932 6.6 11.2599L3 14.8599ZM20.725 16.9349C20.5917 16.7349 20.4377 16.5432 20.263 16.3599C20.0877 16.1765 19.9 16.0099 19.7 15.8599L21 14.5599V16.6849L20.725 16.9349ZM17.825 14.8849C17.7083 14.8349 17.5917 14.7889 17.475 14.7469C17.3583 14.7055 17.2417 14.6682 17.125 14.6349C16.975 14.5849 16.8293 14.5349 16.688 14.4849C16.546 14.4349 16.4 14.3932 16.25 14.3599L21 9.58486V11.7349L17.825 14.8849ZM12 14.2349C10.9 14.2349 9.95833 13.8432 9.175 13.0599C8.39167 12.2765 8 11.3349 8 10.2349C8 9.13486 8.39167 8.1932 9.175 7.40986C9.95833 6.62653 10.9 6.23486 12 6.23486C13.1 6.23486 14.0417 6.62653 14.825 7.40986C15.6083 8.1932 16 9.13486 16 10.2349C16 11.3349 15.6083 12.2765 14.825 13.0599C14.0417 13.8432 13.1 14.2349 12 14.2349ZM12 12.2349C12.55 12.2349 13.021 12.0389 13.413 11.6469C13.8043 11.2555 14 10.7849 14 10.2349C14 9.68486 13.8043 9.21386 13.413 8.82186C13.021 8.43053 12.55 8.23486 12 8.23486C11.45 8.23486 10.9793 8.43053 10.588 8.82186C10.196 9.21386 10 9.68486 10 10.2349C10 10.7849 10.196 11.2555 10.588 11.6469C10.9793 12.0389 11.45 12.2349 12 12.2349ZM4 21.2349V19.4599C4 18.8932 4.14167 18.3682 4.425 17.8849C4.70833 17.4015 5.1 17.0349 5.6 16.7849C6.45 16.3515 7.41267 15.9849 8.488 15.6849C9.56267 15.3849 10.7333 15.2349 12 15.2349C13.2667 15.2349 14.4373 15.3849 15.512 15.6849C16.5873 15.9849 17.55 16.3515 18.4 16.7849C18.9 17.0349 19.2917 17.4015 19.575 17.8849C19.8583 18.3682 20 18.8932 20 19.4599V21.2349H4ZM6.025 19.2349H17.975C17.9417 19.0849 17.8833 18.9555 17.8 18.8469C17.7167 18.7389 17.6083 18.6515 17.475 18.5849C16.875 18.2849 16.1127 17.9849 15.188 17.6849C14.2627 17.3849 13.2 17.2349 12 17.2349C10.8 17.2349 9.73733 17.3849 8.812 17.6849C7.88733 17.9849 7.125 18.2849 6.525 18.5849C6.39167 18.6515 6.28333 18.7432 6.2 18.8599C6.11667 18.9765 6.05833 19.1015 6.025 19.2349Z" fill="#1C1B1F"/>
</g>
</svg>
