<svg width="117" height="49" viewBox="0 0 117 49" fill="none" xmlns="http://www.w3.org/2000/svg">
<g clip-path="url(#clip0_6344_40108)">
<path d="M8.48106 19.0086C8.48106 17.7647 9.51571 17.2861 11.2296 17.2861C13.6868 17.2861 16.7907 18.02 19.2481 19.3278V11.8316C16.5645 10.779 13.9132 10.3643 11.2296 10.3643C4.66578 10.3643 0.300781 13.7456 0.300781 19.3917C0.300781 28.1952 12.5873 26.7919 12.5873 30.5879C12.5873 32.0549 11.2942 32.5335 9.48342 32.5335C6.79986 32.5335 3.37242 31.4489 0.656347 29.9816V37.5733C3.66342 38.8493 6.70278 39.3914 9.48342 39.3914C16.2087 39.3914 20.8324 36.1061 20.8324 30.3963C20.8001 20.8908 8.48106 22.5812 8.48106 19.0086ZM30.3383 3.98483L22.4491 5.6434L22.4168 31.1936C22.4168 35.9148 26.0059 39.3914 30.7912 39.3914C33.4425 39.3914 35.3824 38.913 36.4493 38.3388V31.8636C35.4149 32.2783 30.3061 33.7455 30.3061 29.0246V17.7008H36.4493V10.9066H30.3061L30.3383 3.98483ZM46.5052 13.267L45.9878 10.9066H39.0038V38.8172H47.0872V19.9019C48.9946 17.4458 52.2281 17.8924 53.2305 18.2431V10.9066C52.1959 10.5238 48.4129 9.822 46.5052 13.267ZM55.2027 10.9066H63.3184V38.8172H55.2027V10.9066ZM55.2027 8.48236L63.3184 6.75988V0.284622L55.2027 1.97526V8.48214V8.48236ZM80.1964 10.3643C77.0277 10.3643 74.9907 11.8316 73.8592 12.8525L73.4386 10.8748H66.3255V48.0675L74.4087 46.3771L74.4412 37.35C75.6052 38.1794 77.3187 39.3595 80.1641 39.3595C85.9519 39.3595 91.2221 34.7662 91.2221 24.6547C91.1899 15.4042 85.8548 10.3643 80.1964 10.3643ZM78.2565 32.342C76.3489 32.342 75.2169 31.6723 74.4412 30.8429L74.4087 19.0086C75.2494 18.0837 76.4134 17.4458 78.2565 17.4458C81.1988 17.4458 83.2358 20.6992 83.2358 24.8778C83.2358 29.1522 81.2311 32.342 78.2565 32.342ZM116.701 24.9736C116.701 16.8077 112.691 10.3643 105.028 10.3643C97.3329 10.3643 92.6769 16.8079 92.6769 24.9099C92.6769 34.511 98.1739 39.3595 106.063 39.3595C109.911 39.3595 112.821 38.4983 115.019 37.2863V30.9066C112.821 31.9912 110.299 32.6611 107.098 32.6611C103.961 32.6611 101.181 31.5765 100.825 27.8126H116.636C116.636 27.3977 116.701 25.7391 116.701 24.9736ZM100.728 21.9433C100.728 18.3389 102.959 16.8396 104.996 16.8396C106.968 16.8396 109.07 18.3389 109.07 21.9433H100.728Z" fill="#6772E5"/>
</g>
<defs>
<clipPath id="clip0_6344_40108">
<rect width="116.4" height="48" fill="white" transform="translate(0.300781 0.282562)"/>
</clipPath>
</defs>
</svg>
