<svg width="256" height="256" viewBox="0 0 256 256" fill="none" xmlns="http://www.w3.org/2000/svg">
<path d="M255.9 115.083C255.983 113.621 256 112.175 256 110.697C256 108.126 255.9 105.539 255.699 103.017C251.14 45.4515 195.699 0 127.983 0C57.3119 0 0 49.5645 0 110.713C0 157.658 33.7826 197.776 81.4591 213.89C95.5032 218.63 103.202 233.154 98.9933 246.89L96.2046 256C129.369 238.889 164.738 223.45 195.949 203.19C222.184 186.176 247.35 161.048 253.979 130.314H136.416C127.482 149.272 105.974 162.623 80.8412 162.623C54.3562 162.623 31.8622 147.778 23.9134 127.181C22.4271 123.357 21.4419 119.308 21.0244 115.099V115.083H255.9V115.083ZM80.8412 58.7865C109.698 58.7865 133.811 76.4112 139.556 99.9001H22.1098C27.8711 76.4112 51.9515 58.7865 80.8412 58.7865Z" fill="#00CC74"/>
</svg>
