<svg width="75" height="74" viewBox="0 0 75 74" fill="none" xmlns="http://www.w3.org/2000/svg">
<path fill-rule="evenodd" clip-rule="evenodd" d="M1.52344 39.0293H66.7021V71.6948H1.52344V39.0293Z" fill="#74859C"/>
<path fill-rule="evenodd" clip-rule="evenodd" d="M0.698242 0.0253906V73.6516H74.2242V0.0253906H0.698242ZM54.3032 68.7942C54.069 67.092 53.8588 66.2909 53.5542 65.315L51.237 57.4041H40.9376L39.0885 60.0078L40.7505 65.365C41.0783 66.4914 41.4292 67.3677 42.0376 68.7942H36.1857L35.2264 65.365L32.8853 68.7942H28.1799L27.173 65.3898L24.6919 68.7942H19.9869C20.104 68.6946 20.1975 68.5937 20.2911 68.4941C21.485 67.3673 22.2341 66.3413 22.8892 65.415L25.8859 61.209L24.7151 57.4036H14.4392L6.41017 68.7942H1.42412C3.32037 67.042 3.81202 66.4914 4.51392 65.4898L19.7295 43.9855C19.9382 43.6924 20.1259 43.3829 20.2911 43.0596C20.5721 42.559 20.8295 41.9832 20.9702 41.2821H25.9091C25.9091 42.459 26.073 43.1096 26.3072 44.0112L29.7711 55.627L31.5503 53.1237L28.7179 43.8859C28.5072 43.2101 28.2498 42.3337 27.7346 41.2821H33.7271C33.891 42.3085 34.0549 43.1348 34.3123 44.036L35.4123 47.6661L37.9869 44.0116C38.5725 43.1605 39.3687 42.2089 39.7192 41.2826H44.9627C43.9334 42.1589 43.2771 43.0852 42.6456 43.9611L36.8405 52.1978L37.8466 55.6026L46.1571 43.9864C46.3673 43.6363 46.6015 43.3357 46.8358 43.0104C47.1396 42.5098 47.3978 41.9845 47.562 41.283H52.4538C52.5245 42.2093 52.6412 43.0104 52.8751 43.8615L59.1722 65.341C59.476 66.4922 59.6874 67.1933 60.4825 68.7955H54.3032V68.7942Z" fill="#CBD7EA"/>
<path fill-rule="evenodd" clip-rule="evenodd" d="M16.7803 53.999H23.8029L21.6728 47.0645L16.7803 53.999ZM31.0593 59.8572L32.1829 63.6626L33.9856 61.134L32.7445 57.4039L31.0593 59.8572ZM43.4425 53.999H50.2308L48.1007 47.0645L43.4425 53.999Z" fill="#CBD7EA"/>
<path fill-rule="evenodd" clip-rule="evenodd" d="M40.9375 39.8794H45.2444L73.3816 0H69.0746L40.9375 39.8794Z" fill="#74859C"/>
</svg>
