<svg width="137" height="59" viewBox="0 0 137 59" fill="none" xmlns="http://www.w3.org/2000/svg">
<path d="M12.7275 22.4075C13.7801 22.6038 14.6454 23.1301 15.3234 23.9865C16.0013 24.8429 16.3403 25.8241 16.3403 26.9303C16.3403 27.9294 16.0905 28.8125 15.591 29.5797C15.1093 30.329 14.4045 30.9178 13.4768 31.346C12.5491 31.7742 11.4518 31.9883 10.1851 31.9883H2.12977V13.3085H9.83719C11.1039 13.3085 12.1922 13.5137 13.1021 13.924C14.0299 14.3344 14.7257 14.9053 15.1896 15.6368C15.6713 16.3683 15.9121 17.1979 15.9121 18.1256C15.9121 19.214 15.6177 20.1239 15.029 20.8553C14.4581 21.5868 13.6909 22.1042 12.7275 22.4075ZM5.87643 21.0159H9.30195C10.194 21.0159 10.8809 20.8197 11.3626 20.4272C11.8443 20.0168 12.0852 19.437 12.0852 18.6876C12.0852 17.9383 11.8443 17.3585 11.3626 16.9481C10.8809 16.5378 10.194 16.3326 9.30195 16.3326H5.87643V21.0159ZM9.64985 28.9374C10.5598 28.9374 11.2645 28.7233 11.764 28.2951C12.2814 27.867 12.5401 27.2604 12.5401 26.4753C12.5401 25.6725 12.2725 25.048 11.7373 24.602C11.202 24.1381 10.4795 23.9062 9.56957 23.9062H5.87643V28.9374H9.64985ZM28.4254 16.3326V21.0159H34.7144V23.9865H28.4254V28.9374H35.5173V31.9883H24.6787V13.2817H35.5173V16.3326H28.4254ZM59.1273 13.3085L52.8115 25.4851V31.9883H49.0648V25.4851L42.7223 13.3085H46.9507L50.9649 21.8455L54.9525 13.3085H59.1273ZM75.3113 32.1756C73.5629 32.1756 71.9572 31.7653 70.4942 30.9446C69.0312 30.1239 67.8715 28.991 67.0152 27.5458C66.1588 26.0828 65.7306 24.4325 65.7306 22.5949C65.7306 20.7751 66.1588 19.1426 67.0152 17.6974C67.8715 16.2345 69.0312 15.0926 70.4942 14.2719C71.9572 13.4512 73.5629 13.0409 75.3113 13.0409C77.0776 13.0409 78.6833 13.4512 80.1285 14.2719C81.5915 15.0926 82.7422 16.2345 83.5807 17.6974C84.4371 19.1426 84.8653 20.7751 84.8653 22.5949C84.8653 24.4325 84.4371 26.0828 83.5807 27.5458C82.7422 28.991 81.5915 30.1239 80.1285 30.9446C78.6655 31.7653 77.0598 32.1756 75.3113 32.1756ZM75.3113 28.8304C76.4353 28.8304 77.4255 28.5806 78.2819 28.081C79.1383 27.5637 79.8073 26.8322 80.289 25.8866C80.7708 24.941 81.0116 23.8438 81.0116 22.5949C81.0116 21.346 80.7708 20.2577 80.289 19.3299C79.8073 18.3843 79.1383 17.6618 78.2819 17.1622C77.4255 16.6627 76.4353 16.4129 75.3113 16.4129C74.1873 16.4129 73.1882 16.6627 72.314 17.1622C71.4576 17.6618 70.7886 18.3843 70.3069 19.3299C69.8252 20.2577 69.5843 21.346 69.5843 22.5949C69.5843 23.8438 69.8252 24.941 70.3069 25.8866C70.7886 26.8322 71.4576 27.5637 72.314 28.081C73.1882 28.5806 74.1873 28.8304 75.3113 28.8304ZM108.982 31.9883H105.235L96.7518 19.1693V31.9883H93.0051V13.2817H96.7518L105.235 26.1274V13.2817H108.982V31.9883ZM124.567 13.3085C126.529 13.3085 128.251 13.6921 129.732 14.4593C131.23 15.2264 132.381 16.3237 133.184 17.751C134.005 19.1604 134.415 20.8018 134.415 22.6752C134.415 24.5485 134.005 26.1899 133.184 27.5993C132.381 28.991 131.23 30.0703 129.732 30.8375C128.251 31.6047 126.529 31.9883 124.567 31.9883H118.037V13.3085H124.567ZM124.433 28.8036C126.395 28.8036 127.912 28.2684 128.982 27.1979C130.053 26.1274 130.588 24.6198 130.588 22.6752C130.588 20.7305 130.053 19.214 128.982 18.1256C127.912 17.0195 126.395 16.4664 124.433 16.4664H121.784V28.8036H124.433Z" fill="#74859C"/>
<path d="M4.43129 51.7655C3.78009 51.7655 3.19133 51.654 2.66501 51.431C2.14761 51.208 1.73726 50.8869 1.43396 50.4676C1.13066 50.0483 0.974551 49.5532 0.965631 48.9823H2.97277C2.99953 49.3659 3.13334 49.6692 3.3742 49.8922C3.62398 50.1152 3.96296 50.2267 4.39115 50.2267C4.82826 50.2267 5.1717 50.1241 5.42148 49.919C5.67126 49.7049 5.79615 49.4283 5.79615 49.0894C5.79615 48.8128 5.7114 48.5853 5.54191 48.4069C5.37242 48.2285 5.15832 48.0902 4.89962 47.9921C4.64985 47.8851 4.30194 47.7691 3.85591 47.6442C3.24931 47.4658 2.75422 47.2919 2.37063 47.1224C1.99596 46.9439 1.67036 46.6808 1.39382 46.3329C1.1262 45.9761 0.992392 45.5033 0.992392 44.9145C0.992392 44.3614 1.13066 43.8797 1.4072 43.4694C1.68374 43.059 2.07179 42.7468 2.57134 42.5327C3.0709 42.3097 3.64182 42.1982 4.2841 42.1982C5.24753 42.1982 6.02808 42.4346 6.62576 42.9074C7.23237 43.3712 7.56689 44.0224 7.62933 44.861H5.56867C5.55083 44.5398 5.41256 44.2767 5.15386 44.0715C4.90408 43.8574 4.56956 43.7504 4.15029 43.7504C3.78455 43.7504 3.49017 43.844 3.26715 44.0314C3.05306 44.2187 2.94601 44.4908 2.94601 44.8476C2.94601 45.0974 3.02629 45.307 3.18687 45.4765C3.35636 45.6371 3.56153 45.7709 3.80239 45.8779C4.05217 45.9761 4.40007 46.092 4.8461 46.2258C5.4527 46.4042 5.9478 46.5827 6.33138 46.7611C6.71497 46.9395 7.04503 47.2071 7.32157 47.5639C7.59811 47.9208 7.73638 48.3891 7.73638 48.9689C7.73638 49.4685 7.60703 49.9324 7.34833 50.3605C7.08964 50.7887 6.71051 51.1322 6.21096 51.3909C5.7114 51.6407 5.11818 51.7655 4.43129 51.7655ZM16.3721 51.7655C15.4979 51.7655 14.695 51.5604 13.9635 51.15C13.232 50.7397 12.6522 50.1732 12.224 49.4506C11.7958 48.7191 11.5817 47.894 11.5817 46.9752C11.5817 46.0653 11.7958 45.249 12.224 44.5265C12.6522 43.795 13.232 43.224 13.9635 42.8137C14.695 42.4034 15.4979 42.1982 16.3721 42.1982C17.2552 42.1982 18.0581 42.4034 18.7807 42.8137C19.5122 43.224 20.0875 43.795 20.5068 44.5265C20.935 45.249 21.1491 46.0653 21.1491 46.9752C21.1491 47.894 20.935 48.7191 20.5068 49.4506C20.0875 50.1732 19.5122 50.7397 18.7807 51.15C18.0492 51.5604 17.2463 51.7655 16.3721 51.7655ZM16.3721 50.0929C16.9341 50.0929 17.4292 49.968 17.8574 49.7183C18.2856 49.4596 18.6201 49.0938 18.861 48.621C19.1018 48.1482 19.2222 47.5996 19.2222 46.9752C19.2222 46.3507 19.1018 45.8066 18.861 45.3427C18.6201 44.8699 18.2856 44.5086 17.8574 44.2588C17.4292 44.0091 16.9341 43.8842 16.3721 43.8842C15.8101 43.8842 15.3105 44.0091 14.8734 44.2588C14.4452 44.5086 14.1107 44.8699 13.8699 45.3427C13.629 45.8066 13.5086 46.3507 13.5086 46.9752C13.5086 47.5996 13.629 48.1482 13.8699 48.621C14.1107 49.0938 14.4452 49.4596 14.8734 49.7183C15.3105 49.968 15.8101 50.0929 16.3721 50.0929ZM24.764 46.9885C24.764 46.0697 24.9692 45.249 25.3796 44.5265C25.7988 43.795 26.3653 43.2285 27.0789 42.8271C27.8015 42.4167 28.6088 42.2116 29.5009 42.2116C30.5446 42.2116 31.459 42.4792 32.244 43.0144C33.029 43.5497 33.5776 44.2901 33.8898 45.2356H31.7355C31.5214 44.7896 31.2181 44.4551 30.8256 44.2321C30.442 44.0091 29.996 43.8976 29.4875 43.8976C28.9433 43.8976 28.4572 44.0269 28.029 44.2856C27.6097 44.5354 27.2796 44.8922 27.0388 45.3561C26.8069 45.8199 26.6909 46.3641 26.6909 46.9885C26.6909 47.6041 26.8069 48.1482 27.0388 48.621C27.2796 49.0849 27.6097 49.4462 28.029 49.7049C28.4572 49.9547 28.9433 50.0795 29.4875 50.0795C29.996 50.0795 30.442 49.968 30.8256 49.745C31.2181 49.5131 31.5214 49.1741 31.7355 48.7281H33.8898C33.5776 49.6826 33.029 50.4274 32.244 50.9627C31.4679 51.489 30.5535 51.7522 29.5009 51.7522C28.6088 51.7522 27.8015 51.5514 27.0789 51.15C26.3653 50.7397 25.7988 50.1732 25.3796 49.4506C24.9692 48.7281 24.764 47.9074 24.764 46.9885ZM40.0394 42.332V51.6719H38.1661V42.332H40.0394ZM50.2935 49.8922H46.5736L45.9581 51.6719H43.9911L47.3497 42.3186H49.5308L52.8894 51.6719H50.909L50.2935 49.8922ZM49.785 48.3935L48.4335 44.4863L47.0821 48.3935H49.785ZM58.6943 50.1866H61.7719V51.6719H56.821V42.332H58.6943V50.1866Z" fill="#74859C"/>
<path d="M91.6745 42.332V51.6719H89.8012V45.5969L87.299 51.6719H85.8806L83.365 45.5969V51.6719H81.4916V42.332H83.6192L86.5898 49.2767L89.5603 42.332H91.6745ZM98.0762 43.844V46.1857H101.221V47.671H98.0762V50.1464H101.622V51.6719H96.2028V42.3186H101.622V43.844H98.0762ZM109.266 42.332C110.247 42.332 111.108 42.5238 111.848 42.9074C112.597 43.291 113.173 43.8396 113.574 44.5532C113.985 45.2579 114.19 46.0786 114.19 47.0153C114.19 47.952 113.985 48.7727 113.574 49.4774C113.173 50.1732 112.597 50.7129 111.848 51.0965C111.108 51.4801 110.247 51.6719 109.266 51.6719H106.001V42.332H109.266ZM109.199 50.0795C110.18 50.0795 110.938 49.8119 111.474 49.2767C112.009 48.7415 112.276 47.9877 112.276 47.0153C112.276 46.043 112.009 45.2847 111.474 44.7406C110.938 44.1875 110.18 43.9109 109.199 43.9109H107.874V50.0795H109.199ZM120.142 42.332V51.6719H118.268V42.332H120.142ZM130.396 49.8922H126.676L126.06 51.6719H124.093L127.452 42.3186H129.633L132.992 51.6719H131.011L130.396 49.8922ZM129.887 48.3935L128.536 44.4863L127.184 48.3935H129.887Z" fill="#74859C"/>
<circle cx="71.6481" cy="47.82" r="2.23015" fill="#74859C"/>
</svg>
