<svg width="137" height="59" viewBox="0 0 137 59" fill="none" xmlns="http://www.w3.org/2000/svg">
<path d="M12.7275 22.1946C13.7801 22.3909 14.6454 22.9172 15.3234 23.7736C16.0013 24.63 16.3403 25.6112 16.3403 26.7174C16.3403 27.7165 16.0905 28.5996 15.591 29.3668C15.1093 30.1162 14.4045 30.7049 13.4768 31.1331C12.5491 31.5613 11.4518 31.7754 10.1851 31.7754H2.12977V13.0956H9.83719C11.1039 13.0956 12.1922 13.3008 13.1021 13.7111C14.0299 14.1215 14.7257 14.6924 15.1896 15.4239C15.6713 16.1554 15.9121 16.985 15.9121 17.9127C15.9121 19.0011 15.6177 19.911 15.029 20.6425C14.4581 21.3739 13.6909 21.8913 12.7275 22.1946ZM5.87643 20.803H9.30195C10.194 20.803 10.8809 20.6068 11.3626 20.2143C11.8443 19.8039 12.0852 19.2241 12.0852 18.4747C12.0852 17.7254 11.8443 17.1456 11.3626 16.7352C10.8809 16.3249 10.194 16.1197 9.30195 16.1197H5.87643V20.803ZM9.64985 28.7245C10.5598 28.7245 11.2645 28.5104 11.764 28.0823C12.2814 27.6541 12.5401 27.0475 12.5401 26.2624C12.5401 25.4596 12.2725 24.8351 11.7373 24.3891C11.202 23.9252 10.4795 23.6933 9.56957 23.6933H5.87643V28.7245H9.64985ZM28.4254 16.1197V20.803H34.7144V23.7736H28.4254V28.7245H35.5173V31.7754H24.6787V13.0688H35.5173V16.1197H28.4254ZM59.1273 13.0956L52.8115 25.2723V31.7754H49.0648V25.2723L42.7223 13.0956H46.9507L50.9649 21.6326L54.9525 13.0956H59.1273ZM75.3113 31.9627C73.5629 31.9627 71.9572 31.5524 70.4942 30.7317C69.0312 29.911 67.8715 28.7781 67.0152 27.3329C66.1588 25.8699 65.7306 24.2196 65.7306 22.382C65.7306 20.5622 66.1588 18.9297 67.0152 17.4846C67.8715 16.0216 69.0312 14.8797 70.4942 14.059C71.9572 13.2383 73.5629 12.828 75.3113 12.828C77.0776 12.828 78.6833 13.2383 80.1285 14.059C81.5915 14.8797 82.7422 16.0216 83.5807 17.4846C84.4371 18.9297 84.8653 20.5622 84.8653 22.382C84.8653 24.2196 84.4371 25.8699 83.5807 27.3329C82.7422 28.7781 81.5915 29.911 80.1285 30.7317C78.6655 31.5524 77.0598 31.9627 75.3113 31.9627ZM75.3113 28.6175C76.4353 28.6175 77.4255 28.3677 78.2819 27.8682C79.1383 27.3508 79.8073 26.6193 80.289 25.6737C80.7708 24.7281 81.0116 23.6309 81.0116 22.382C81.0116 21.1331 80.7708 20.0448 80.289 19.117C79.8073 18.1714 79.1383 17.4489 78.2819 16.9493C77.4255 16.4498 76.4353 16.2 75.3113 16.2C74.1873 16.2 73.1882 16.4498 72.314 16.9493C71.4576 17.4489 70.7886 18.1714 70.3069 19.117C69.8252 20.0448 69.5843 21.1331 69.5843 22.382C69.5843 23.6309 69.8252 24.7281 70.3069 25.6737C70.7886 26.6193 71.4576 27.3508 72.314 27.8682C73.1882 28.3677 74.1873 28.6175 75.3113 28.6175ZM108.982 31.7754H105.235L96.7518 18.9565V31.7754H93.0051V13.0688H96.7518L105.235 25.9145V13.0688H108.982V31.7754ZM124.567 13.0956C126.529 13.0956 128.251 13.4792 129.732 14.2464C131.23 15.0135 132.381 16.1108 133.184 17.5381C134.005 18.9475 134.415 20.5889 134.415 22.4623C134.415 24.3356 134.005 25.977 133.184 27.3864C132.381 28.7781 131.23 29.8575 129.732 30.6246C128.251 31.3918 126.529 31.7754 124.567 31.7754H118.037V13.0956H124.567ZM124.433 28.5907C126.395 28.5907 127.912 28.0555 128.982 26.985C130.053 25.9145 130.588 24.407 130.588 22.4623C130.588 20.5176 130.053 19.0011 128.982 17.9127C127.912 16.8066 126.395 16.2535 124.433 16.2535H121.784V28.5907H124.433Z" fill="#9595A9"/>
<path d="M4.43129 51.5507C3.78009 51.5507 3.19133 51.4392 2.66501 51.2162C2.14761 50.9932 1.73726 50.672 1.43396 50.2527C1.13066 49.8335 0.974551 49.3384 0.965631 48.7675H2.97277C2.99953 49.1511 3.13334 49.4544 3.3742 49.6774C3.62398 49.9004 3.96296 50.0119 4.39115 50.0119C4.82826 50.0119 5.1717 49.9093 5.42148 49.7041C5.67126 49.49 5.79615 49.2135 5.79615 48.8745C5.79615 48.598 5.7114 48.3705 5.54191 48.1921C5.37242 48.0137 5.15832 47.8754 4.89962 47.7773C4.64985 47.6702 4.30194 47.5543 3.85591 47.4294C3.24931 47.251 2.75422 47.077 2.37063 46.9075C1.99596 46.7291 1.67036 46.4659 1.39382 46.118C1.1262 45.7612 0.992392 45.2884 0.992392 44.6997C0.992392 44.1466 1.13066 43.6649 1.4072 43.2545C1.68374 42.8442 2.07179 42.532 2.57134 42.3179C3.0709 42.0948 3.64182 41.9833 4.2841 41.9833C5.24753 41.9833 6.02808 42.2197 6.62576 42.6925C7.23237 43.1564 7.56689 43.8076 7.62933 44.6461H5.56867C5.55083 44.325 5.41256 44.0618 5.15386 43.8567C4.90408 43.6426 4.56956 43.5355 4.15029 43.5355C3.78455 43.5355 3.49017 43.6292 3.26715 43.8165C3.05306 44.0039 2.94601 44.2759 2.94601 44.6328C2.94601 44.8825 3.02629 45.0922 3.18687 45.2617C3.35636 45.4222 3.56153 45.556 3.80239 45.6631C4.05217 45.7612 4.40007 45.8772 4.8461 46.011C5.4527 46.1894 5.9478 46.3678 6.33138 46.5462C6.71497 46.7246 7.04503 46.9923 7.32157 47.3491C7.59811 47.7059 7.73638 48.1742 7.73638 48.7541C7.73638 49.2536 7.60703 49.7175 7.34833 50.1457C7.08964 50.5739 6.71051 50.9173 6.21096 51.176C5.7114 51.4258 5.11818 51.5507 4.43129 51.5507ZM16.3721 51.5507C15.4979 51.5507 14.695 51.3455 13.9635 50.9352C13.232 50.5248 12.6522 49.9584 12.224 49.2358C11.7958 48.5043 11.5817 47.6791 11.5817 46.7603C11.5817 45.8504 11.7958 45.0342 12.224 44.3116C12.6522 43.5801 13.232 43.0092 13.9635 42.5989C14.695 42.1885 15.4979 41.9833 16.3721 41.9833C17.2552 41.9833 18.0581 42.1885 18.7807 42.5989C19.5122 43.0092 20.0875 43.5801 20.5068 44.3116C20.935 45.0342 21.1491 45.8504 21.1491 46.7603C21.1491 47.6791 20.935 48.5043 20.5068 49.2358C20.0875 49.9584 19.5122 50.5248 18.7807 50.9352C18.0492 51.3455 17.2463 51.5507 16.3721 51.5507ZM16.3721 49.8781C16.9341 49.8781 17.4292 49.7532 17.8574 49.5034C18.2856 49.2447 18.6201 48.879 18.861 48.4062C19.1018 47.9334 19.2222 47.3848 19.2222 46.7603C19.2222 46.1359 19.1018 45.5917 18.861 45.1279C18.6201 44.6551 18.2856 44.2938 17.8574 44.044C17.4292 43.7942 16.9341 43.6693 16.3721 43.6693C15.8101 43.6693 15.3105 43.7942 14.8734 44.044C14.4452 44.2938 14.1107 44.6551 13.8699 45.1279C13.629 45.5917 13.5086 46.1359 13.5086 46.7603C13.5086 47.3848 13.629 47.9334 13.8699 48.4062C14.1107 48.879 14.4452 49.2447 14.8734 49.5034C15.3105 49.7532 15.8101 49.8781 16.3721 49.8781ZM24.764 46.7737C24.764 45.8549 24.9692 45.0342 25.3796 44.3116C25.7988 43.5801 26.3653 43.0137 27.0789 42.6122C27.8015 42.2019 28.6088 41.9967 29.5009 41.9967C30.5446 41.9967 31.459 42.2643 32.244 42.7996C33.029 43.3348 33.5776 44.0752 33.8898 45.0208H31.7355C31.5214 44.5748 31.2181 44.2402 30.8256 44.0172C30.442 43.7942 29.996 43.6827 29.4875 43.6827C28.9433 43.6827 28.4572 43.8121 28.029 44.0708C27.6097 44.3205 27.2796 44.6774 27.0388 45.1412C26.8069 45.6051 26.6909 46.1493 26.6909 46.7737C26.6909 47.3892 26.8069 47.9334 27.0388 48.4062C27.2796 48.8701 27.6097 49.2313 28.029 49.49C28.4572 49.7398 28.9433 49.8647 29.4875 49.8647C29.996 49.8647 30.442 49.7532 30.8256 49.5302C31.2181 49.2982 31.5214 48.9593 31.7355 48.5132H33.8898C33.5776 49.4677 33.029 50.2126 32.244 50.7478C31.4679 51.2742 30.5535 51.5373 29.5009 51.5373C28.6088 51.5373 27.8015 51.3366 27.0789 50.9352C26.3653 50.5248 25.7988 49.9584 25.3796 49.2358C24.9692 48.5132 24.764 47.6925 24.764 46.7737ZM40.0394 42.1171V51.457H38.1661V42.1171H40.0394ZM50.2935 49.6774H46.5736L45.9581 51.457H43.9911L47.3497 42.1038H49.5308L52.8894 51.457H50.909L50.2935 49.6774ZM49.785 48.1787L48.4335 44.2715L47.0821 48.1787H49.785ZM58.6943 49.9717H61.7719V51.457H56.821V42.1171H58.6943V49.9717Z" fill="#9595A9"/>
<path d="M91.6745 42.1171V51.457H89.8012V45.3821L87.299 51.457H85.8806L83.365 45.3821V51.457H81.4916V42.1171H83.6192L86.5898 49.0618L89.5603 42.1171H91.6745ZM98.0762 43.6292V45.9708H101.221V47.4561H98.0762V49.9316H101.622V51.457H96.2028V42.1038H101.622V43.6292H98.0762ZM109.266 42.1171C110.247 42.1171 111.108 42.3089 111.848 42.6925C112.597 43.0761 113.173 43.6247 113.574 44.3384C113.985 45.0431 114.19 45.8638 114.19 46.8005C114.19 47.7371 113.985 48.5578 113.574 49.2626C113.173 49.9584 112.597 50.4981 111.848 50.8817C111.108 51.2652 110.247 51.457 109.266 51.457H106.001V42.1171H109.266ZM109.199 49.8647C110.18 49.8647 110.938 49.5971 111.474 49.0618C112.009 48.5266 112.276 47.7728 112.276 46.8005C112.276 45.8281 112.009 45.0699 111.474 44.5257C110.938 43.9726 110.18 43.6961 109.199 43.6961H107.874V49.8647H109.199ZM120.142 42.1171V51.457H118.268V42.1171H120.142ZM130.396 49.6774H126.676L126.06 51.457H124.093L127.452 42.1038H129.633L132.992 51.457H131.011L130.396 49.6774ZM129.887 48.1787L128.536 44.2715L127.184 48.1787H129.887Z" fill="#9595A9"/>
<circle cx="71.6481" cy="47.6071" r="2.23015" fill="#9595A9"/>
</svg>
