<?xml version="1.0" encoding="UTF-8"?>
<svg width="194px" height="58px" viewBox="0 0 194 58" version="1.1" xmlns="http://www.w3.org/2000/svg" xmlns:xlink="http://www.w3.org/1999/xlink">
    <title>0BB54199-301C-4D1A-8C15-11ABC21EA87A</title>
    <g id="Home" stroke="none" stroke-width="1" fill="none" fill-rule="evenodd">
        <g id="Homepage-03-B" transform="translate(-863.000000, -47.000000)">
            <g id="Asset/Menu">
                <g id="Logo" transform="translate(863.000000, 47.000000)">
                    <g id="Logo-Color">
                        <path d="M8.16029395,41.4667437 C6.52510663,40.8298628 5.05482997,40.0121227 3.77213256,39.0446462 L3.77213256,57.9998664 L18.455147,57.9998664 L18.455147,44.5568448 C17.0296772,44.0978845 15.5574121,43.6962274 14.0942939,43.2972419 C11.9763055,42.7196679 9.97603458,42.1741516 8.16029395,41.4667437" id="Fill-1" fill="#1E2A2E"></path>
                        <path d="M33.4726225,34.1415451 C30.6047147,32.1940361 27.4152046,30.7677329 24.2149568,29.6746968 C22.2757983,29.0124368 20.3331931,28.4723971 18.455147,28.014639 C16.0974813,27.4400036 13.8417579,26.9934657 11.8261095,26.5948809 C11.5660173,26.5434549 11.312951,26.4884224 11.0629337,26.4315199 C7.78168876,25.6856426 5.36834582,24.4706534 3.77213256,22.7577004 C3.29834582,22.2493177 2.89216715,21.6995271 2.56155043,21.1021841 C0.479354467,23.5344332 -0.406974063,26.7496931 0.175383285,29.948657 C0.626899135,32.4296606 1.87910663,34.6524657 3.77213256,36.4444946 C4.26209222,36.9082635 4.79487032,37.3433141 5.36821326,37.7464404 C5.40480115,37.7720866 5.44178674,37.7975993 5.47877233,37.8231119 C6.49236311,38.5219711 7.62791354,39.1231877 8.87336023,39.6084621 C10.5924611,40.2782022 12.5444784,40.8106282 14.6110317,41.3740433 C15.8896196,41.7226715 17.1819942,42.0751733 18.455147,42.4689495 C21.2543862,43.3350433 23.9617579,44.4016318 26.2310029,46.0705054 C29.8565187,48.7366426 31.6741153,52.9872347 31.7696945,57.9998664 L45.9247032,57.9998664 C45.0081499,47.3573574 40.9282017,39.2042671 33.4726225,34.1415451" id="Fill-3" fill="#D63162"></path>
                        <path d="M47,9 L30.7852922,9 C28.9890125,12.2265759 25.2462738,15.7754342 21,17.7970358 L21,26.6198006 C23.3317194,27.2502948 25.7281829,28.0190823 28.0800598,29 C37.6596395,26.3106507 43.6931154,16.4839194 47,9" id="Fill-5" fill="#1E9AB9"></path>
                        <path d="M12.6100536,24.6678964 C12.6170904,24.669236 12.6242625,24.6707095 12.6312993,24.6720491 C14.5744005,25.049416 16.7295527,25.4692483 18.9884976,25.9973208 C18.9922866,25.9981246 18.996211,25.9991962 19,26 L19,18.8095339 C18.996211,18.8107395 18.9922866,18.8120791 18.9884976,18.8132848 L18.9884976,0 L4,0 L4,18.9434944 L4.03775508,19.0530741 C5.03170164,21.9409955 7.7556159,23.725216 12.6100536,24.6678964" id="Fill-6" fill="#1E2A2E"></path>
                        <path d="M62,21 L70.7790629,21 L70.7790629,44.004203 C70.7790629,47.8213354 73.2373273,49.856562 76.9999339,49.856562 C80.7624083,49.856562 83.2205406,47.8213354 83.2205406,44.004203 L83.2205406,21 L92,21 L92,44.004203 C92,52.1981452 86.0802326,58 77.0500297,58 C67.9196352,58 62,52.1981452 62,44.004203 L62,21" id="Fill-7" fill="#1E2A2E"></path>
                        <path d="M127.571127,37.3136721 C130.376353,37.3136721 132.128794,35.7526504 132.128794,32.8824059 C132.128794,30.1639 131.127738,28.5523867 126.719979,28.5523867 L123.764978,28.5523867 L123.764978,37.3136721 L127.571127,37.3136721 Z M115,21 L127.471364,21 C131.127738,21 132.880179,21.2516671 134.432832,21.8559846 C138.489311,23.4170063 141.044075,27.0919528 141.044075,32.3285801 C141.044075,36.155265 139.241489,40.3343367 135.685141,42.1468937 L135.685141,42.2472178 C135.685141,42.2472178 136.186593,42.9022906 137.037741,44.4126888 L144,57 L134.232251,57 L127.871602,44.8660588 L123.764978,44.8660588 L123.764978,57 L115,57 L115,21 L115,21 Z" id="Fill-8" fill="#1E2A2E"></path>
                        <path d="M176.949194,29.2066685 C176.949194,29.2066685 176.137633,33.1340731 175.477153,35.3998682 L173.398112,42.398429 L180.552418,42.398429 L178.522847,35.3998682 C177.862367,33.1340731 177.050806,29.2066685 177.050806,29.2066685 L176.949194,29.2066685 Z M182.632796,49.4477451 L171.316398,49.4477451 L169.134408,57 L160,57 L172.331184,21 L181.668816,21 L194,57 L184.865592,57 L182.632796,49.4477451 L182.632796,49.4477451 Z" id="Fill-9" fill="#1E2A2E"></path>
                    </g>
                </g>
            </g>
        </g>
    </g>
</svg>