<svg width="170" height="43" viewBox="0 0 170 43" fill="none" xmlns="http://www.w3.org/2000/svg">
<path d="M68.2934 11.755V32.2288H64.1869V18.912L58.7018 32.2288H55.5926L50.0782 18.912V32.2288H45.9717V11.755H50.6355L57.1472 26.9783L63.6589 11.755H68.2934Z" fill="#74859C"/>
<path d="M71.2974 24.0451C71.2974 22.4025 71.6201 20.9457 72.2654 19.6746C72.9302 18.4036 73.82 17.4259 74.9346 16.7414C76.0688 16.057 77.3301 15.7148 78.7184 15.7148C79.9308 15.7148 80.9868 15.9592 81.8863 16.4481C82.8054 16.937 83.5387 17.553 84.0862 18.296V15.9788H88.222V32.2288H84.0862V29.8529C83.5582 30.6155 82.8249 31.251 81.8863 31.7595C80.9672 32.2483 79.9015 32.4928 78.6891 32.4928C77.3203 32.4928 76.0688 32.1408 74.9346 31.4368C73.82 30.7328 72.9302 29.7453 72.2654 28.4743C71.6201 27.1837 71.2974 25.7073 71.2974 24.0451ZM84.0862 24.1038C84.0862 23.1065 83.8907 22.2559 83.4996 21.5519C83.1085 20.8284 82.5805 20.2808 81.9156 19.9093C81.2508 19.5182 80.537 19.3227 79.7744 19.3227C79.0118 19.3227 78.3078 19.5084 77.6625 19.88C77.0172 20.2515 76.4892 20.799 76.0785 21.5226C75.6875 22.2265 75.4919 23.0674 75.4919 24.0451C75.4919 25.0229 75.6875 25.8833 76.0785 26.6264C76.4892 27.3499 77.0172 27.9072 77.6625 28.2983C78.3273 28.6894 79.0313 28.8849 79.7744 28.8849C80.537 28.8849 81.2508 28.6992 81.9156 28.3276C82.5805 27.9365 83.1085 27.389 83.4996 26.685C83.8907 25.9615 84.0862 25.1011 84.0862 24.1038Z" fill="#74859C"/>
<path d="M94.3153 14.0429C93.5918 14.0429 92.9856 13.818 92.4967 13.3682C92.0274 12.8989 91.7928 12.3221 91.7928 11.6377C91.7928 10.9532 92.0274 10.3862 92.4967 9.93639C92.9856 9.46708 93.5918 9.23242 94.3153 9.23242C95.0388 9.23242 95.6353 9.46708 96.1046 9.93639C96.5934 10.3862 96.8379 10.9532 96.8379 11.6377C96.8379 12.3221 96.5934 12.8989 96.1046 13.3682C95.6353 13.818 95.0388 14.0429 94.3153 14.0429ZM96.3392 15.9788V32.2288H92.2327V15.9788H96.3392Z" fill="#74859C"/>
<path d="M104.503 10.523V32.2288H100.396V10.523H104.503Z" fill="#74859C"/>
<path d="M110.643 14.0429C109.919 14.0429 109.313 13.818 108.824 13.3682C108.355 12.8989 108.12 12.3221 108.12 11.6377C108.12 10.9532 108.355 10.3862 108.824 9.93639C109.313 9.46708 109.919 9.23242 110.643 9.23242C111.366 9.23242 111.963 9.46708 112.432 9.93639C112.921 10.3862 113.165 10.9532 113.165 11.6377C113.165 12.3221 112.921 12.8989 112.432 13.3682C111.963 13.818 111.366 14.0429 110.643 14.0429ZM112.667 15.9788V32.2288H108.56V15.9788H112.667Z" fill="#74859C"/>
<path d="M125.729 15.7441C127.665 15.7441 129.229 16.3601 130.422 17.5921C131.615 18.8045 132.211 20.5057 132.211 22.6959V32.2288H128.105V23.2532C128.105 21.9626 127.782 20.975 127.137 20.2906C126.491 19.5867 125.612 19.2347 124.497 19.2347C123.363 19.2347 122.463 19.5867 121.798 20.2906C121.153 20.975 120.83 21.9626 120.83 23.2532V32.2288H116.724V15.9788H120.83V18.0027C121.378 17.2987 122.072 16.7512 122.913 16.3601C123.773 15.9495 124.712 15.7441 125.729 15.7441Z" fill="#74859C"/>
<path d="M140.897 19.352V27.213C140.897 27.7605 141.025 28.1614 141.279 28.4156C141.553 28.6503 142.002 28.7676 142.628 28.7676H144.535V32.2288H141.953C138.492 32.2288 136.762 30.5471 136.762 27.1837V19.352H134.826V15.9788H136.762V11.9603H140.897V15.9788H144.535V19.352H140.897Z" fill="#74859C"/>
<path d="M162.594 23.7518C162.594 24.3384 162.555 24.8664 162.477 25.3357H150.597C150.695 26.509 151.106 27.4281 151.829 28.093C152.553 28.7578 153.443 29.0902 154.499 29.0902C156.024 29.0902 157.109 28.4352 157.754 27.125H162.184C161.714 28.6894 160.815 29.98 159.485 30.9968C158.155 31.9941 156.522 32.4928 154.587 32.4928C153.022 32.4928 151.614 32.1506 150.363 31.4661C149.131 30.7622 148.163 29.7747 147.459 28.5036C146.774 27.2325 146.432 25.7659 146.432 24.1038C146.432 22.4221 146.774 20.9457 147.459 19.6746C148.143 18.4036 149.101 17.4259 150.333 16.7414C151.565 16.057 152.983 15.7148 154.587 15.7148C156.131 15.7148 157.51 16.0472 158.722 16.7121C159.954 17.377 160.903 18.3254 161.568 19.5573C162.252 20.7697 162.594 22.1679 162.594 23.7518ZM158.341 22.5785C158.322 21.5226 157.94 20.6817 157.197 20.056C156.454 19.4107 155.545 19.088 154.469 19.088C153.452 19.088 152.592 19.4009 151.888 20.0266C151.204 20.6328 150.783 21.4835 150.627 22.5785H158.341Z" fill="#74859C"/>
<path d="M169.698 10.523V32.2288H165.592V10.523H169.698Z" fill="#74859C"/>
<circle cx="18.9829" cy="19.4975" r="18.6167" fill="url(#paint0_linear)"/>
<circle cx="18.9841" cy="33.4607" r="9.30834" fill="url(#paint1_linear)"/>
<defs>
<linearGradient id="paint0_linear" x1="19.4705" y1="-48.8249" x2="19.4705" y2="25.7433" gradientUnits="userSpaceOnUse">
<stop stop-color="#74859C"/>
<stop offset="1" stop-color="#74859C" stop-opacity="0.05"/>
</linearGradient>
<linearGradient id="paint1_linear" x1="19.4717" y1="33.3077" x2="19.4717" y2="72.7532" gradientUnits="userSpaceOnUse">
<stop stop-color="#74859C" stop-opacity="0.09"/>
<stop offset="1" stop-color="#74859C"/>
</linearGradient>
</defs>
</svg>
