<svg width="222" height="45" viewBox="0 0 222 45" fill="none" xmlns="http://www.w3.org/2000/svg">
<path d="M18.3189 21.9371V17.8048H5.13638C3.93796 17.8048 2.8727 18.338 2.07376 19.1378C1.27482 19.9376 0.742188 21.2706 0.742188 22.6037C0.875344 24.8698 2.8727 26.736 5.26953 26.736H18.3189V39.9327C18.3189 42.4654 20.5826 44.4649 22.9794 44.3316C25.2431 44.1983 27.1073 42.1988 27.1073 39.7994V26.736H22.9794C20.3163 26.6027 18.3189 24.6032 18.3189 21.9371Z" fill="#636369"/>
<path d="M44.5643 21.9388C44.4312 19.6727 42.4338 17.8065 40.037 17.8065H26.9876V4.74304C26.9876 2.21033 24.7239 0.210827 22.3271 0.344128C20.0634 0.477428 18.1992 2.47693 18.1992 4.87634V17.9397H22.3271C24.8571 17.9397 26.9876 20.0726 26.9876 22.6053V26.7376H40.1702C41.3686 26.7376 42.4338 26.2043 43.2328 25.4046C44.1649 24.4714 44.5643 23.2717 44.5643 21.9388Z" fill="#636369"/>
<path d="M58.0117 13.1408H62.8054C65.4685 13.1408 68.9306 13.4074 69.9959 16.34C71.1943 19.8059 69.0637 22.8718 65.6017 23.405L71.0611 32.2028H68.2648L63.0717 23.6716H60.1422V32.2028H58.0117V13.1408ZM60.2754 21.5388H62.2728C64.2701 21.5388 67.3327 21.6721 67.8654 19.2726C68.5311 16.2067 65.7348 15.2736 63.338 15.2736H60.1422V21.5388H60.2754Z" fill="#636369"/>
<path d="M85.1955 29.94C83.065 32.606 78.9371 33.4058 76.0076 31.5396C73.4776 29.8067 72.6787 26.3409 73.6108 23.5415C74.6761 20.6089 77.6055 19.0093 80.6681 19.4092C83.9971 19.9424 85.5949 22.7418 85.5949 25.941V26.6075H75.475C75.7413 30.8731 81.0676 31.8062 83.5976 28.7403L85.1955 29.94ZM83.4644 24.7413C83.3313 19.9424 76.1408 20.209 75.6082 24.7413H83.4644Z" fill="#636369"/>
<path d="M89.0464 11.8129H91.1769V32.0746H89.0464V11.8129Z" fill="#636369"/>
<path d="M96.6084 13.1408C98.6057 13.1408 98.6057 16.2067 96.6084 16.2067C94.611 16.2067 94.611 13.1408 96.6084 13.1408ZM95.5431 19.5393H97.6736V32.0695H95.5431V19.5393Z" fill="#636369"/>
<path d="M101.548 21.2685C103.412 19.4023 106.741 18.7358 109.137 19.8022C111.135 20.602 111.801 22.6015 111.801 24.7343V30.1996C111.801 30.8662 111.934 31.6659 111.934 32.3324H109.936C109.803 31.7992 109.803 30.9995 109.803 30.4662C107.673 33.9321 100.482 33.2656 101.015 28.4667C101.414 24.7343 106.075 24.601 108.871 24.601H109.67V24.2011C109.67 20.602 104.743 21.0019 102.879 22.8681L101.548 21.2685ZM107.673 26.0673C106.474 26.0673 104.743 26.2006 103.811 27.1337C103.012 27.9335 103.145 29.5332 104.078 30.1996C106.608 32.0659 109.67 29.5332 109.803 26.8671V26.0673H107.673Z" fill="#636369"/>
<path d="M115.663 22.5996C115.663 21.3999 115.53 20.4668 115.53 19.667H117.528C117.528 20.3335 117.528 21 117.528 21.7998C118.593 19.5337 121.522 19.0005 123.653 19.667C125.65 20.4668 126.449 22.4663 126.449 24.4658V32.1972H124.585V24.5991C124.585 22.333 123.12 20.7334 120.723 21.2666C118.46 21.7998 117.794 23.9326 117.794 26.0654V32.1972H115.663V22.5996Z" fill="#636369"/>
<path d="M139.514 22.736C138.316 21.2697 136.185 20.7365 134.321 21.6696C132.856 22.4694 132.057 24.069 132.057 25.6686C132.057 27.4015 132.723 29.1345 134.321 30.0676C136.052 31.0006 138.316 30.6007 139.514 29.0012L141.112 30.4674C139.248 32.6003 135.786 33.0002 133.389 31.8005C131.125 30.7341 129.927 28.3346 129.927 25.9352C129.927 23.4025 131.125 21.1364 133.389 19.9367C135.919 18.737 139.248 19.1369 141.245 21.2697L139.514 22.736Z" fill="#636369"/>
<path d="M154.786 29.94C152.656 32.606 148.528 33.4058 145.598 31.5396C143.068 29.8067 142.27 26.3409 143.202 23.5415C144.267 20.6089 147.196 19.0093 150.259 19.4092C153.588 19.9424 155.186 22.7418 155.186 25.941V26.6075H145.066C145.332 30.8731 150.658 31.8062 153.188 28.7403L154.786 29.94ZM152.922 24.7413C152.789 19.9424 145.598 20.209 145.066 24.7413H152.922Z" fill="#636369"/>
<path d="M158.817 13.1408H161.081V21.1389H171.201V13.1408H173.465V32.2028H171.201V23.405H161.081V32.2028H158.817V13.1408Z" fill="#636369"/>
<path d="M178.222 13.1408H181.551L187.942 28.0705L194.467 13.1408H197.796V32.2028H195.532V16.2067L188.741 32.2028H187.41L180.619 16.2067V32.2028H178.355V13.1408H178.222Z" fill="#636369"/>
<path d="M201.424 22.6017C201.424 18.4694 203.821 14.6037 207.815 13.1374C211.81 11.8044 216.471 12.8708 219.134 16.07C221.664 19.2692 221.93 24.068 219.933 27.6671C217.802 31.3995 213.408 32.9992 209.28 32.3326C204.62 31.6661 201.424 27.4005 201.424 22.6017ZM218.867 22.6017C218.867 19.4025 217.136 16.3366 214.074 15.1369C211.011 13.9372 207.416 14.8703 205.419 17.403C201.158 22.8683 205.552 31.5328 212.742 30.3331C216.471 29.7999 218.867 26.3341 218.867 22.6017Z" fill="#636369"/>
</svg>
