<svg width="278" height="56" viewBox="0 0 278 56" fill="none" xmlns="http://www.w3.org/2000/svg">
<path d="M22.1455 27.3197V22.1133H5.53639C4.02646 22.1133 2.68431 22.7851 1.67769 23.7928C0.671078 24.8005 0 26.48 0 28.1595C0.167769 31.0146 2.68431 33.3659 5.70415 33.3659H22.1455V49.993C22.1455 53.1839 24.9976 55.7032 28.0174 55.5352C30.8695 55.3672 33.2183 52.8481 33.2183 49.825V33.3659H28.0174C24.6621 33.1979 22.1455 30.6787 22.1455 27.3197Z" fill="#74859C"/>
<path d="M55.19 27.3213C55.0223 24.4661 52.5057 22.1148 49.4858 22.1148H33.0445V5.65574C33.0445 2.4647 30.1924 -0.0545454 27.1725 0.113404C24.3204 0.281354 21.9717 2.80059 21.9717 5.82369V22.2827H27.1725C30.3601 22.2827 33.0445 24.97 33.0445 28.161V33.3675H49.6536C51.1636 33.3675 52.5057 32.6955 53.5124 31.6879C54.6867 30.5122 55.19 29.0007 55.19 27.3213Z" fill="#74859C"/>
<path d="M72.1484 16.2383H78.1881C81.5435 16.2383 85.9055 16.5742 87.2477 20.2691C88.7576 24.6358 86.0732 28.4986 81.7113 29.1704L88.5898 40.2551H85.0667L78.5237 29.5063H74.8327V40.2551H72.1484V16.2383ZM75.0005 26.8191H77.5171C80.0336 26.8191 83.8923 26.987 84.5634 23.964C85.4022 20.1011 81.8791 18.9255 78.8592 18.9255H74.8327V26.8191H75.0005Z" fill="#74859C"/>
<path d="M106.366 37.3991C103.682 40.7581 98.4809 41.7659 94.79 39.4145C91.6024 37.2312 90.5958 32.8645 91.7702 29.3376C93.1123 25.6427 96.8032 23.6273 100.662 24.1311C104.856 24.8029 106.869 28.3299 106.869 32.3607V33.2004H94.1189C94.4545 38.5748 101.165 39.7505 104.353 35.8876L106.366 37.3991ZM104.185 30.8491C104.017 24.8029 94.9578 25.1388 94.2867 30.8491H104.185Z" fill="#74859C"/>
<path d="M111.233 14.5605H113.918V40.0889H111.233V14.5605Z" fill="#74859C"/>
<path d="M120.789 16.2383C123.305 16.2383 123.305 20.1011 120.789 20.1011C118.272 20.1011 118.272 16.2383 120.789 16.2383ZM119.447 24.2999H122.131V40.0871H119.447V24.2999Z" fill="#74859C"/>
<path d="M127.001 26.4731C129.35 24.1218 133.544 23.282 136.564 24.6256C139.081 25.6333 139.92 28.1525 139.92 30.8397V37.7257C139.92 38.5654 140.087 39.573 140.087 40.4128H137.571C137.403 39.741 137.403 38.7334 137.403 38.0615C134.719 42.4283 125.659 41.5885 126.33 35.5423C126.834 30.8397 132.706 30.6718 136.229 30.6718H137.235V30.1679C137.235 25.6333 131.028 26.1371 128.679 28.4884L127.001 26.4731ZM134.719 32.5192C133.209 32.5192 131.028 32.6872 129.853 33.8628C128.847 34.8705 129.015 36.8859 130.189 37.7257C133.377 40.077 137.235 36.8859 137.403 33.5269V32.5192H134.719Z" fill="#74859C"/>
<path d="M144.781 28.1546C144.781 26.6431 144.613 25.4674 144.613 24.4597H147.13C147.13 25.2995 147.13 26.1392 147.13 27.1469C148.472 24.2918 152.163 23.62 154.847 24.4597C157.364 25.4674 158.37 27.9867 158.37 30.5059V40.247H156.022V30.6739C156.022 27.8187 154.176 25.8033 151.156 26.4751C148.304 27.1469 147.465 29.8341 147.465 32.5213V40.247H144.781V28.1546Z" fill="#74859C"/>
<path d="M174.814 28.3275C173.304 26.4801 170.62 25.8083 168.271 26.9839C166.425 27.9916 165.419 30.007 165.419 32.0224C165.419 34.2057 166.258 36.3891 168.271 37.5647C170.452 38.7403 173.304 38.2365 174.814 36.2211L176.827 38.0685C174.478 40.7558 170.116 41.2596 167.096 39.7481C164.244 38.4045 162.734 35.3814 162.734 32.3583C162.734 29.1673 164.244 26.3121 167.096 24.8006C170.284 23.289 174.478 23.7929 176.995 26.4801L174.814 28.3275Z" fill="#74859C"/>
<path d="M194.114 37.3991C191.43 40.7581 186.229 41.7659 182.538 39.4145C179.35 37.2312 178.344 32.8645 179.518 29.3376C180.86 25.6427 184.551 23.6273 188.41 24.1311C192.604 24.8029 194.617 28.3299 194.617 32.3607V33.2004H181.867C182.203 38.5748 188.913 39.7505 192.101 35.8876L194.114 37.3991ZM191.765 30.8491C191.598 24.8029 182.538 25.1388 181.867 30.8491H191.765Z" fill="#74859C"/>
<path d="M199.146 16.2383H201.999V26.3153H214.749V16.2383H217.601V40.2551H214.749V29.1704H201.999V40.2551H199.146V16.2383Z" fill="#74859C"/>
<path d="M223.64 16.2383H227.834L235.887 35.0487L244.107 16.2383H248.302V40.2551H245.45V20.1011L236.893 40.2551H235.216L226.66 20.1011V40.2551H223.807V16.2383H223.64Z" fill="#74859C"/>
<path d="M252.823 28.1628C252.823 22.9564 255.843 18.0859 260.876 16.2384C265.909 14.5589 271.781 15.9025 275.137 19.9333C278.324 23.9641 278.66 30.0103 276.143 34.545C273.459 39.2474 267.923 41.2629 262.722 40.4232C256.85 39.5834 252.823 34.209 252.823 28.1628ZM274.801 28.1628C274.801 24.132 272.62 20.2692 268.761 18.7577C264.903 17.2461 260.373 18.4218 257.856 21.6128C252.488 28.4987 258.024 39.4154 267.084 37.9039C271.781 37.2321 274.801 32.8654 274.801 28.1628Z" fill="#74859C"/>
</svg>
