<svg width="279" height="57" viewBox="0 0 279 57" fill="none" xmlns="http://www.w3.org/2000/svg">
<g clip-path="url(#clip0)">
<path d="M22.1455 28.1068V22.9004H5.53639C4.02646 22.9004 2.68431 23.5722 1.67769 24.5799C0.671078 25.5876 0 27.2671 0 28.9466C0.167769 31.8017 2.68431 34.153 5.70415 34.153H22.1455V50.7801C22.1455 53.971 24.9976 56.4903 28.0174 56.3223C30.8695 56.1544 33.2183 53.6352 33.2183 50.6121V34.153H28.0174C24.6621 33.9851 22.1455 31.4658 22.1455 28.1068Z" fill="#9595A9"/>
<path d="M55.19 28.1084C55.0223 25.2533 52.5057 22.9019 49.4858 22.9019H33.0445V6.44285C33.0445 3.25181 30.1924 0.732564 27.1725 0.900513C24.3204 1.06846 21.9717 3.5877 21.9717 6.6108V23.0698H27.1725C30.3601 23.0698 33.0445 25.7571 33.0445 28.9481V34.1546H49.6536C51.1636 34.1546 52.5057 33.4827 53.5124 32.475C54.6867 31.2993 55.19 29.7878 55.19 28.1084Z" fill="#9595A9"/>
<path d="M72.1484 17.0254H78.1881C81.5435 17.0254 85.9055 17.3613 87.2477 21.0562C88.7576 25.4229 86.0732 29.2857 81.7113 29.9575L88.5898 41.0422H85.0667L78.5237 30.2934H74.8327V41.0422H72.1484V17.0254ZM75.0005 27.6062H77.5171C80.0336 27.6062 83.8923 27.7742 84.5634 24.7511C85.4022 20.8882 81.8791 19.7126 78.8592 19.7126H74.8327V27.6062H75.0005Z" fill="#9595A9"/>
<path d="M106.366 38.1863C103.682 41.5452 98.4809 42.553 94.79 40.2016C91.6024 38.0183 90.5958 33.6516 91.7702 30.1247C93.1123 26.4298 96.8032 24.4144 100.662 24.9182C104.856 25.59 106.869 29.117 106.869 33.1478V33.9875H94.1189C94.4545 39.3619 101.165 40.5376 104.353 36.6747L106.366 38.1863ZM104.185 31.6362C104.017 25.59 94.9578 25.9259 94.2867 31.6362H104.185Z" fill="#9595A9"/>
<path d="M111.233 15.3477H113.918V40.876H111.233V15.3477Z" fill="#9595A9"/>
<path d="M120.789 17.0254C123.305 17.0254 123.305 20.8882 120.789 20.8882C118.272 20.8882 118.272 17.0254 120.789 17.0254ZM119.447 25.087H122.131V40.8742H119.447V25.087Z" fill="#9595A9"/>
<path d="M127.001 27.2602C129.35 24.9089 133.544 24.0691 136.564 25.4127C139.081 26.4204 139.92 28.9397 139.92 31.6268V38.5128C139.92 39.3525 140.087 40.3602 140.087 41.1999H137.571C137.403 40.5281 137.403 39.5205 137.403 38.8486C134.719 43.2154 125.659 42.3756 126.33 36.3294C126.834 31.6268 132.706 31.4589 136.229 31.4589H137.235V30.955C137.235 26.4204 131.028 26.9243 128.679 29.2755L127.001 27.2602ZM134.719 33.3063C133.209 33.3063 131.028 33.4743 129.853 34.6499C128.847 35.6576 129.015 37.673 130.189 38.5128C133.377 40.8641 137.235 37.673 137.403 34.314V33.3063H134.719Z" fill="#9595A9"/>
<path d="M144.781 28.9417C144.781 27.4302 144.613 26.2545 144.613 25.2468H147.13C147.13 26.0866 147.13 26.9263 147.13 27.934C148.472 25.0789 152.163 24.4071 154.847 25.2468C157.364 26.2545 158.37 28.7738 158.37 31.293V41.0341H156.022V31.461C156.022 28.6058 154.176 26.5904 151.156 27.2622C148.304 27.934 147.465 30.6212 147.465 33.3084V41.0341H144.781V28.9417Z" fill="#9595A9"/>
<path d="M174.814 29.1146C173.304 27.2672 170.62 26.5954 168.271 27.771C166.425 28.7787 165.419 30.7941 165.419 32.8095C165.419 34.9929 166.258 37.1762 168.271 38.3518C170.452 39.5274 173.304 39.0236 174.814 37.0082L176.827 38.8556C174.478 41.5429 170.116 42.0467 167.096 40.5352C164.244 39.1916 162.734 36.1685 162.734 33.1454C162.734 29.9544 164.244 27.0992 167.096 25.5877C170.284 24.0761 174.478 24.58 176.995 27.2672L174.814 29.1146Z" fill="#9595A9"/>
<path d="M194.114 38.1863C191.43 41.5452 186.229 42.553 182.538 40.2016C179.35 38.0183 178.344 33.6516 179.518 30.1247C180.86 26.4298 184.551 24.4144 188.41 24.9182C192.604 25.59 194.617 29.117 194.617 33.1478V33.9875H181.867C182.203 39.3619 188.913 40.5376 192.101 36.6747L194.114 38.1863ZM191.765 31.6362C191.598 25.59 182.538 25.9259 181.867 31.6362H191.765Z" fill="#9595A9"/>
<path d="M199.146 17.0254H201.999V27.1024H214.749V17.0254H217.601V41.0422H214.749V29.9575H201.999V41.0422H199.146V17.0254Z" fill="#9595A9"/>
<path d="M223.64 17.0254H227.834L235.887 35.8358L244.107 17.0254H248.302V41.0422H245.45V20.8882L236.893 41.0422H235.216L226.66 20.8882V41.0422H223.807V17.0254H223.64Z" fill="#9595A9"/>
<path d="M252.823 28.9499C252.823 23.7435 255.843 18.873 260.876 17.0255C265.909 15.346 271.781 16.6896 275.137 20.7204C278.324 24.7512 278.66 30.7974 276.143 35.3321C273.459 40.0346 267.923 42.05 262.722 41.2103C256.85 40.3705 252.823 34.9961 252.823 28.9499ZM274.801 28.9499C274.801 24.9191 272.62 21.0563 268.761 19.5448C264.903 18.0332 260.373 19.2089 257.856 22.3999C252.488 29.2858 258.024 40.2025 267.084 38.691C271.781 38.0192 274.801 33.6525 274.801 28.9499Z" fill="#9595A9"/>
</g>
<defs>
<clipPath id="clip0">
<rect width="278.283" height="55.4392" fill="white" transform="translate(0 0.892578)"/>
</clipPath>
</defs>
</svg>
